<?xml version="1.0" encoding="UTF-8" standalone="no"?>
<!DOCTYPE svg PUBLIC "-//W3C//DTD SVG 1.1//EN"
 "http://www.w3.org/Graphics/SVG/1.1/DTD/svg11.dtd">
<!-- Generated by graphviz version 2.30.0 (20130114.0426)
 -->
<!-- Title: /Users/rkwright/Documents/github/readium&#45;sdk&#45;D/ePub3/utilities/alphanum.hpp Pages: 1 -->
<svg width="261pt" height="112pt"
 viewBox="0.00 0.00 261.00 112.00" xmlns="http://www.w3.org/2000/svg" xmlns:xlink="http://www.w3.org/1999/xlink">
<g id="graph0" class="graph" transform="scale(1 1) rotate(0) translate(4 108)">
<title>/Users/rkwright/Documents/github/readium&#45;sdk&#45;D/ePub3/utilities/alphanum.hpp</title>
<polygon fill="white" stroke="white" points="-4,5 -4,-108 258,-108 258,5 -4,5"/>
<!-- Node1 -->
<g id="node1" class="node"><title>Node1</title>
<polygon fill="#bfbfbf" stroke="black" points="56.9658,-59 56.9658,-103 203.034,-103 203.034,-59 56.9658,-59"/>
<text text-anchor="start" x="64.9658" y="-89" font-family="Helvetica,sans-Serif" font-size="10.00">/Users/rkwright/Documents</text>
<text text-anchor="start" x="64.9658" y="-77" font-family="Helvetica,sans-Serif" font-size="10.00">/github/readium&#45;sdk&#45;D/ePub3</text>
<text text-anchor="middle" x="130" y="-65" font-family="Helvetica,sans-Serif" font-size="10.00">/utilities/alphanum.hpp</text>
</g>
<!-- Node2 -->
<g id="node2" class="node"><title>Node2</title>
<polygon fill="white" stroke="#bfbfbf" points="-0.115723,-1 -0.115723,-21 48.1157,-21 48.1157,-1 -0.115723,-1"/>
<text text-anchor="middle" x="24" y="-7" font-family="Helvetica,sans-Serif" font-size="10.00">cassert</text>
</g>
<!-- Node1&#45;&gt;Node2 -->
<g id="edge1" class="edge"><title>Node1&#45;&gt;Node2</title>
<path fill="none" stroke="midnightblue" d="M97.042,-58.8571C80.6348,-48.3317 61.2224,-35.8785 46.5356,-26.4568"/>
<polygon fill="midnightblue" stroke="midnightblue" points="48.3777,-23.4802 38.0708,-21.0266 44.5979,-29.3721 48.3777,-23.4802"/>
</g>
<!-- Node3 -->
<g id="node3" class="node"><title>Node3</title>
<polygon fill="white" stroke="#bfbfbf" points="66.5962,-1 66.5962,-21 125.404,-21 125.404,-1 66.5962,-1"/>
<text text-anchor="middle" x="96" y="-7" font-family="Helvetica,sans-Serif" font-size="10.00">functional</text>
</g>
<!-- Node1&#45;&gt;Node3 -->
<g id="edge2" class="edge"><title>Node1&#45;&gt;Node3</title>
<path fill="none" stroke="midnightblue" d="M119.429,-58.8571C114.84,-49.6792 109.518,-39.0355 105.107,-30.2141"/>
<polygon fill="midnightblue" stroke="midnightblue" points="108.205,-28.5829 100.602,-21.2039 101.944,-31.7135 108.205,-28.5829"/>
</g>
<!-- Node4 -->
<g id="node4" class="node"><title>Node4</title>
<polygon fill="white" stroke="#bfbfbf" points="143.773,-1 143.773,-21 184.227,-21 184.227,-1 143.773,-1"/>
<text text-anchor="middle" x="164" y="-7" font-family="Helvetica,sans-Serif" font-size="10.00">string</text>
</g>
<!-- Node1&#45;&gt;Node4 -->
<g id="edge3" class="edge"><title>Node1&#45;&gt;Node4</title>
<path fill="none" stroke="midnightblue" d="M140.571,-58.8571C145.16,-49.6792 150.482,-39.0355 154.893,-30.2141"/>
<polygon fill="midnightblue" stroke="midnightblue" points="158.056,-31.7135 159.398,-21.2039 151.795,-28.5829 158.056,-31.7135"/>
</g>
<!-- Node5 -->
<g id="node5" class="node"><title>Node5</title>
<polygon fill="white" stroke="#bfbfbf" points="202.219,-1 202.219,-21 253.781,-21 253.781,-1 202.219,-1"/>
<text text-anchor="middle" x="228" y="-7" font-family="Helvetica,sans-Serif" font-size="10.00">sstream</text>
</g>
<!-- Node1&#45;&gt;Node5 -->
<g id="edge4" class="edge"><title>Node1&#45;&gt;Node5</title>
<path fill="none" stroke="midnightblue" d="M160.471,-58.8571C175.353,-48.5303 192.911,-36.3478 206.392,-26.9933"/>
<polygon fill="midnightblue" stroke="midnightblue" points="208.771,-29.603 214.991,-21.0266 204.78,-23.8519 208.771,-29.603"/>
</g>
</g>
</svg>
