<?xml version="1.0" encoding="UTF-8" standalone="no"?>
<!DOCTYPE svg PUBLIC "-//W3C//DTD SVG 1.1//EN"
 "http://www.w3.org/Graphics/SVG/1.1/DTD/svg11.dtd">
<!-- Generated by graphviz version 2.30.0 (20130114.0426)
 -->
<!-- Title: /Users/rkwright/Documents/github/readium&#45;sdk&#45;D/ePub3/ePub/archive.h Pages: 1 -->
<svg width="1127pt" height="472pt"
 viewBox="0.00 0.00 1127.00 472.00" xmlns="http://www.w3.org/2000/svg" xmlns:xlink="http://www.w3.org/1999/xlink">
<g id="graph0" class="graph" transform="scale(1 1) rotate(0) translate(4 468)">
<title>/Users/rkwright/Documents/github/readium&#45;sdk&#45;D/ePub3/ePub/archive.h</title>
<polygon fill="white" stroke="white" points="-4,5 -4,-468 1124,-468 1124,5 -4,5"/>
<!-- Node1 -->
<g id="node1" class="node"><title>Node1</title>
<polygon fill="#bfbfbf" stroke="black" points="411.966,-419 411.966,-463 558.034,-463 558.034,-419 411.966,-419"/>
<text text-anchor="start" x="419.966" y="-449" font-family="Helvetica,sans-Serif" font-size="10.00">/Users/rkwright/Documents</text>
<text text-anchor="start" x="419.966" y="-437" font-family="Helvetica,sans-Serif" font-size="10.00">/github/readium&#45;sdk&#45;D/ePub3</text>
<text text-anchor="middle" x="485" y="-425" font-family="Helvetica,sans-Serif" font-size="10.00">/ePub/archive.h</text>
</g>
<!-- Node2 -->
<g id="node2" class="node"><title>Node2</title>
<polygon fill="white" stroke="#bfbfbf" points="-0.920898,-361 -0.920898,-381 82.9209,-381 82.9209,-361 -0.920898,-361"/>
<text text-anchor="middle" x="41" y="-367" font-family="Helvetica,sans-Serif" font-size="10.00">ePub3/epub3.h</text>
</g>
<!-- Node1&#45;&gt;Node2 -->
<g id="edge1" class="edge"><title>Node1&#45;&gt;Node2</title>
<path fill="none" stroke="midnightblue" d="M411.962,-429.711C333.898,-418.568 206.555,-399.966 97,-382 95.7391,-381.793 94.4627,-381.582 93.1754,-381.367"/>
<polygon fill="midnightblue" stroke="midnightblue" points="93.6211,-377.892 83.1753,-379.663 92.4455,-384.793 93.6211,-377.892"/>
</g>
<!-- Node3 -->
<g id="node3" class="node"><title>Node3</title>
<polygon fill="white" stroke="#bfbfbf" points="637.828,-233 637.828,-253 692.172,-253 692.172,-233 637.828,-233"/>
<text text-anchor="middle" x="665" y="-239" font-family="Helvetica,sans-Serif" font-size="10.00">iostream</text>
</g>
<!-- Node1&#45;&gt;Node3 -->
<g id="edge2" class="edge"><title>Node1&#45;&gt;Node3</title>
<path fill="none" stroke="midnightblue" d="M473.575,-418.758C458.291,-387.103 436.346,-327.29 466,-290 485.77,-265.138 575.332,-252.545 627.318,-247.226"/>
<polygon fill="midnightblue" stroke="midnightblue" points="627.882,-250.687 637.492,-246.228 627.198,-243.721 627.882,-250.687"/>
</g>
<!-- Node4 -->
<g id="node4" class="node"><title>Node4</title>
<polygon fill="white" stroke="#bfbfbf" points="182.5,-233 182.5,-253 211.5,-253 211.5,-233 182.5,-233"/>
<text text-anchor="middle" x="196.611" y="-239" font-family="Helvetica,sans-Serif" font-size="10.00">list</text>
</g>
<!-- Node1&#45;&gt;Node4 -->
<g id="edge3" class="edge"><title>Node1&#45;&gt;Node4</title>
<path fill="none" stroke="midnightblue" d="M411.785,-439.627C328.042,-434.779 194.239,-412.572 130,-324 121.128,-311.767 122.961,-303.371 130,-290 139.004,-272.896 157.558,-260.925 172.862,-253.492"/>
<polygon fill="midnightblue" stroke="midnightblue" points="174.623,-256.538 182.317,-249.253 171.76,-250.15 174.623,-256.538"/>
</g>
<!-- Node5 -->
<g id="node5" class="node"><title>Node5</title>
<polygon fill="white" stroke="#bfbfbf" points="642.596,-361 642.596,-381 701.404,-381 701.404,-361 642.596,-361"/>
<text text-anchor="middle" x="672" y="-367" font-family="Helvetica,sans-Serif" font-size="10.00">functional</text>
</g>
<!-- Node1&#45;&gt;Node5 -->
<g id="edge4" class="edge"><title>Node1&#45;&gt;Node5</title>
<path fill="none" stroke="midnightblue" d="M542.887,-418.95C573.895,-407.675 611.045,-394.165 637.518,-384.539"/>
<polygon fill="midnightblue" stroke="midnightblue" points="638.905,-387.759 647.107,-381.052 636.513,-381.18 638.905,-387.759"/>
</g>
<!-- Node6 -->
<g id="node6" class="node"><title>Node6</title>
<polygon fill="white" stroke="#bfbfbf" points="719.328,-361 719.328,-381 758.672,-381 758.672,-361 719.328,-361"/>
<text text-anchor="middle" x="739" y="-367" font-family="Helvetica,sans-Serif" font-size="10.00">zlib.h</text>
</g>
<!-- Node1&#45;&gt;Node6 -->
<g id="edge5" class="edge"><title>Node1&#45;&gt;Node6</title>
<path fill="none" stroke="midnightblue" d="M558.112,-422.719C599.906,-412.475 653.45,-398.735 709.372,-382.026"/>
<polygon fill="midnightblue" stroke="midnightblue" points="710.534,-385.331 719.1,-379.096 708.515,-378.629 710.534,-385.331"/>
</g>
<!-- Node7 -->
<g id="node7" class="node"><title>Node7</title>
<g id="a_node7"><a xlink:href="utfstring_8h.xhtml" target="_top" xlink:title="ePub3/utilities/utfstring.h">
<polygon fill="white" stroke="black" points="499.525,-361 499.525,-381 624.475,-381 624.475,-361 499.525,-361"/>
<text text-anchor="middle" x="562" y="-367" font-family="Helvetica,sans-Serif" font-size="10.00">ePub3/utilities/utfstring.h</text>
</a>
</g>
</g>
<!-- Node1&#45;&gt;Node7 -->
<g id="edge6" class="edge"><title>Node1&#45;&gt;Node7</title>
<path fill="none" stroke="midnightblue" d="M508.941,-418.857C520.228,-408.89 533.472,-397.194 543.905,-387.98"/>
<polygon fill="midnightblue" stroke="midnightblue" points="546.399,-390.447 551.578,-381.204 541.766,-385.2 546.399,-390.447"/>
</g>
<!-- Node8 -->
<g id="node8" class="node"><title>Node8</title>
<g id="a_node8"><a xlink:href="basic_8h.xhtml" target="_top" xlink:title="ePub3/utilities/basic.h">
<polygon fill="white" stroke="black" points="268.638,-297 268.638,-317 381.362,-317 381.362,-297 268.638,-297"/>
<text text-anchor="middle" x="325" y="-303" font-family="Helvetica,sans-Serif" font-size="10.00">ePub3/utilities/basic.h</text>
</a>
</g>
</g>
<!-- Node7&#45;&gt;Node8 -->
<g id="edge7" class="edge"><title>Node7&#45;&gt;Node8</title>
<path fill="none" stroke="midnightblue" d="M527.538,-360.985C485.764,-350.056 415.283,-331.618 369.455,-319.63"/>
<polygon fill="midnightblue" stroke="midnightblue" points="370.064,-316.171 359.503,-317.026 368.292,-322.943 370.064,-316.171"/>
</g>
<!-- Node18 -->
<g id="node18" class="node"><title>Node18</title>
<g id="a_node18"><a xlink:href="integer__sequence_8h.xhtml" target="_top" xlink:title="ePub3/utilities/integer\l_sequence.h">
<polygon fill="white" stroke="black" points="139.192,-291 139.192,-323 250.808,-323 250.808,-291 139.192,-291"/>
<text text-anchor="start" x="147.192" y="-309" font-family="Helvetica,sans-Serif" font-size="10.00">ePub3/utilities/integer</text>
<text text-anchor="middle" x="195" y="-297" font-family="Helvetica,sans-Serif" font-size="10.00">_sequence.h</text>
</a>
</g>
</g>
<!-- Node7&#45;&gt;Node18 -->
<g id="edge18" class="edge"><title>Node7&#45;&gt;Node18</title>
<path fill="none" stroke="midnightblue" d="M499.246,-362.122C440.177,-354.325 349.063,-341.322 260.854,-324.07"/>
<polygon fill="midnightblue" stroke="midnightblue" points="261.437,-320.617 250.948,-322.112 260.08,-327.484 261.437,-320.617"/>
</g>
<!-- Node19 -->
<g id="node19" class="node"><title>Node19</title>
<g id="a_node19"><a xlink:href="string__view_8h.xhtml" target="_top" xlink:title="ePub3/utilities/string\l_view.h">
<polygon fill="white" stroke="black" points="965.254,-291 965.254,-323 1070.75,-323 1070.75,-291 965.254,-291"/>
<text text-anchor="start" x="973.254" y="-309" font-family="Helvetica,sans-Serif" font-size="10.00">ePub3/utilities/string</text>
<text text-anchor="middle" x="1018" y="-297" font-family="Helvetica,sans-Serif" font-size="10.00">_view.h</text>
</a>
</g>
</g>
<!-- Node7&#45;&gt;Node19 -->
<g id="edge20" class="edge"><title>Node7&#45;&gt;Node19</title>
<path fill="none" stroke="midnightblue" d="M624.816,-361.175C627.92,-360.771 630.995,-360.377 634,-360 773.676,-342.495 812.637,-349.712 955.028,-324.023"/>
<polygon fill="midnightblue" stroke="midnightblue" points="955.802,-327.44 965.01,-322.2 954.544,-320.554 955.802,-327.44"/>
</g>
<!-- Node21 -->
<g id="node21" class="node"><title>Node21</title>
<polygon fill="white" stroke="#bfbfbf" points="1078.77,-233 1078.77,-253 1119.23,-253 1119.23,-233 1078.77,-233"/>
<text text-anchor="middle" x="1099" y="-239" font-family="Helvetica,sans-Serif" font-size="10.00">string</text>
</g>
<!-- Node7&#45;&gt;Node21 -->
<g id="edge29" class="edge"><title>Node7&#45;&gt;Node21</title>
<path fill="none" stroke="midnightblue" d="M624.802,-361.062C627.91,-360.687 630.989,-360.331 634,-360 683.31,-354.586 1041.16,-356.081 1079,-324 1096.36,-309.279 1099.87,-281.984 1100.04,-263.412"/>
<polygon fill="midnightblue" stroke="midnightblue" points="1103.53,-263.084 1099.81,-253.167 1096.54,-263.244 1103.53,-263.084"/>
</g>
<!-- Node25 -->
<g id="node25" class="node"><title>Node25</title>
<polygon fill="white" stroke="#bfbfbf" points="475.438,-297 475.438,-317 522.562,-317 522.562,-297 475.438,-297"/>
<text text-anchor="middle" x="499" y="-303" font-family="Helvetica,sans-Serif" font-size="10.00">iterator</text>
</g>
<!-- Node7&#45;&gt;Node25 -->
<g id="edge30" class="edge"><title>Node7&#45;&gt;Node25</title>
<path fill="none" stroke="midnightblue" d="M552.704,-360.852C542.933,-351.236 527.363,-335.913 515.498,-324.236"/>
<polygon fill="midnightblue" stroke="midnightblue" points="517.916,-321.706 508.334,-317.186 513.006,-326.695 517.916,-321.706"/>
</g>
<!-- Node26 -->
<g id="node26" class="node"><title>Node26</title>
<polygon fill="white" stroke="#bfbfbf" points="540.936,-297 540.936,-317 583.064,-317 583.064,-297 540.936,-297"/>
<text text-anchor="middle" x="562" y="-303" font-family="Helvetica,sans-Serif" font-size="10.00">locale</text>
</g>
<!-- Node7&#45;&gt;Node26 -->
<g id="edge31" class="edge"><title>Node7&#45;&gt;Node26</title>
<path fill="none" stroke="midnightblue" d="M562,-360.852C562,-352.06 562,-338.498 562,-327.313"/>
<polygon fill="midnightblue" stroke="midnightblue" points="565.5,-327.186 562,-317.186 558.5,-327.186 565.5,-327.186"/>
</g>
<!-- Node17 -->
<g id="node17" class="node"><title>Node17</title>
<polygon fill="white" stroke="#bfbfbf" points="508.384,-233 508.384,-253 551.616,-253 551.616,-233 508.384,-233"/>
<text text-anchor="middle" x="530" y="-239" font-family="Helvetica,sans-Serif" font-size="10.00">vector</text>
</g>
<!-- Node7&#45;&gt;Node17 -->
<g id="edge32" class="edge"><title>Node7&#45;&gt;Node17</title>
<path fill="none" stroke="midnightblue" d="M520.008,-360.902C500.014,-354.234 477.916,-342.923 466,-324 457.948,-311.213 459.105,-303.446 466,-290 473.084,-276.185 486.46,-265.58 499.16,-258.053"/>
<polygon fill="midnightblue" stroke="midnightblue" points="501.094,-260.984 508.188,-253.115 497.735,-254.843 501.094,-260.984"/>
</g>
<!-- Node27 -->
<g id="node27" class="node"><title>Node27</title>
<polygon fill="white" stroke="#bfbfbf" points="600.766,-297 600.766,-317 701.234,-317 701.234,-297 600.766,-297"/>
<text text-anchor="middle" x="651" y="-303" font-family="Helvetica,sans-Serif" font-size="10.00">REGEX_INCLUDE</text>
</g>
<!-- Node7&#45;&gt;Node27 -->
<g id="edge33" class="edge"><title>Node7&#45;&gt;Node27</title>
<path fill="none" stroke="midnightblue" d="M575.132,-360.852C589.461,-350.87 612.619,-334.737 629.586,-322.918"/>
<polygon fill="midnightblue" stroke="midnightblue" points="631.609,-325.774 637.814,-317.186 627.608,-320.03 631.609,-325.774"/>
</g>
<!-- Node28 -->
<g id="node28" class="node"><title>Node28</title>
<polygon fill="white" stroke="#bfbfbf" points="719.273,-297 719.273,-317 754.727,-317 754.727,-297 719.273,-297"/>
<text text-anchor="middle" x="737" y="-303" font-family="Helvetica,sans-Serif" font-size="10.00">map</text>
</g>
<!-- Node7&#45;&gt;Node28 -->
<g id="edge34" class="edge"><title>Node7&#45;&gt;Node28</title>
<path fill="none" stroke="midnightblue" d="M599.367,-360.981C629.829,-353.018 673.609,-340.171 710,-324 711.369,-323.392 712.756,-322.729 714.141,-322.032"/>
<polygon fill="midnightblue" stroke="midnightblue" points="715.981,-325.014 723.039,-317.112 712.594,-318.887 715.981,-325.014"/>
</g>
<!-- Node29 -->
<g id="node29" class="node"><title>Node29</title>
<polygon fill="white" stroke="#bfbfbf" points="772.599,-297 772.599,-317 831.401,-317 831.401,-297 772.599,-297"/>
<text text-anchor="middle" x="802" y="-303" font-family="Helvetica,sans-Serif" font-size="10.00">stdexcept</text>
</g>
<!-- Node7&#45;&gt;Node29 -->
<g id="edge35" class="edge"><title>Node7&#45;&gt;Node29</title>
<path fill="none" stroke="midnightblue" d="M611.757,-360.981C652.809,-352.977 712.328,-340.073 763,-324 765.974,-323.057 769.038,-321.984 772.081,-320.851"/>
<polygon fill="midnightblue" stroke="midnightblue" points="773.563,-324.029 781.588,-317.112 771.001,-317.515 773.563,-324.029"/>
</g>
<!-- Node22 -->
<g id="node22" class="node"><title>Node22</title>
<polygon fill="white" stroke="#bfbfbf" points="779.613,-233 779.613,-253 818.387,-253 818.387,-233 779.613,-233"/>
<text text-anchor="middle" x="799" y="-239" font-family="Helvetica,sans-Serif" font-size="10.00">limits</text>
</g>
<!-- Node7&#45;&gt;Node22 -->
<g id="edge36" class="edge"><title>Node7&#45;&gt;Node22</title>
<path fill="none" stroke="midnightblue" d="M622.377,-360.998C703.079,-348.826 836.475,-328.156 840,-324 856.458,-304.596 835.325,-277.461 817.806,-260.312"/>
<polygon fill="midnightblue" stroke="midnightblue" points="819.865,-257.447 810.159,-253.199 815.097,-262.572 819.865,-257.447"/>
</g>
<!-- Node30 -->
<g id="node30" class="node"><title>Node30</title>
<polygon fill="white" stroke="#bfbfbf" points="886.761,-297 886.761,-317 947.239,-317 947.239,-297 886.761,-297"/>
<text text-anchor="middle" x="917" y="-303" font-family="Helvetica,sans-Serif" font-size="10.00">utf8/utf8.h</text>
</g>
<!-- Node7&#45;&gt;Node30 -->
<g id="edge37" class="edge"><title>Node7&#45;&gt;Node30</title>
<path fill="none" stroke="midnightblue" d="M624.807,-361.041C712.177,-348.53 861.095,-327.012 873,-324 876.965,-322.997 881.07,-321.77 885.109,-320.446"/>
<polygon fill="midnightblue" stroke="midnightblue" points="886.604,-323.631 894.889,-317.028 884.294,-317.023 886.604,-323.631"/>
</g>
<!-- Node9 -->
<g id="node9" class="node"><title>Node9</title>
<g id="a_node9"><a xlink:href="base_8h.xhtml" target="_top" xlink:title="ePub3/base.h">
<polygon fill="white" stroke="black" points="201.141,-175 201.141,-195 278.859,-195 278.859,-175 201.141,-175"/>
<text text-anchor="middle" x="240" y="-181" font-family="Helvetica,sans-Serif" font-size="10.00">ePub3/base.h</text>
</a>
</g>
</g>
<!-- Node8&#45;&gt;Node9 -->
<g id="edge8" class="edge"><title>Node8&#45;&gt;Node9</title>
<path fill="none" stroke="midnightblue" d="M308.143,-296.89C293.091,-287.908 271.542,-272.813 259,-254 249.236,-239.353 244.447,-219.74 242.125,-205.342"/>
<polygon fill="midnightblue" stroke="midnightblue" points="245.55,-204.549 240.743,-195.108 238.613,-205.486 245.55,-204.549"/>
</g>
<!-- Node14 -->
<g id="node14" class="node"><title>Node14</title>
<polygon fill="white" stroke="#bfbfbf" points="267.815,-233 267.815,-253 382.185,-253 382.185,-233 267.815,-233"/>
<text text-anchor="middle" x="325" y="-239" font-family="Helvetica,sans-Serif" font-size="10.00">ePub3/xml/xmlstring.h</text>
</g>
<!-- Node8&#45;&gt;Node14 -->
<g id="edge13" class="edge"><title>Node8&#45;&gt;Node14</title>
<path fill="none" stroke="midnightblue" d="M325,-296.852C325,-288.06 325,-274.498 325,-263.313"/>
<polygon fill="midnightblue" stroke="midnightblue" points="328.5,-263.186 325,-253.186 321.5,-263.186 328.5,-263.186"/>
</g>
<!-- Node15 -->
<g id="node15" class="node"><title>Node15</title>
<polygon fill="white" stroke="#bfbfbf" points="400.219,-233 400.219,-253 451.781,-253 451.781,-233 400.219,-233"/>
<text text-anchor="middle" x="426" y="-239" font-family="Helvetica,sans-Serif" font-size="10.00">sstream</text>
</g>
<!-- Node8&#45;&gt;Node15 -->
<g id="edge14" class="edge"><title>Node8&#45;&gt;Node15</title>
<path fill="none" stroke="midnightblue" d="M339.903,-296.852C356.388,-286.732 383.17,-270.292 402.489,-258.432"/>
<polygon fill="midnightblue" stroke="midnightblue" points="404.345,-261.4 411.036,-253.186 400.683,-255.435 404.345,-261.4"/>
</g>
<!-- Node16 -->
<g id="node16" class="node"><title>Node16</title>
<polygon fill="white" stroke="#bfbfbf" points="648.943,-175 648.943,-195 701.057,-195 701.057,-175 648.943,-175"/>
<text text-anchor="middle" x="675" y="-181" font-family="Helvetica,sans-Serif" font-size="10.00">memory</text>
</g>
<!-- Node8&#45;&gt;Node16 -->
<g id="edge15" class="edge"><title>Node8&#45;&gt;Node16</title>
<path fill="none" stroke="midnightblue" d="M351.865,-296.957C379.459,-287.368 423.426,-271.247 460,-254 478,-245.512 480.553,-239.467 499,-232 545.628,-213.126 602.364,-199.931 638.581,-192.655"/>
<polygon fill="midnightblue" stroke="midnightblue" points="639.538,-196.034 648.677,-190.673 638.19,-189.165 639.538,-196.034"/>
</g>
<!-- Node8&#45;&gt;Node17 -->
<g id="edge16" class="edge"><title>Node8&#45;&gt;Node17</title>
<path fill="none" stroke="midnightblue" d="M354.809,-296.985C393.137,-285.393 459.406,-265.351 498.525,-253.519"/>
<polygon fill="midnightblue" stroke="midnightblue" points="499.763,-256.801 508.322,-250.556 497.737,-250.101 499.763,-256.801"/>
</g>
<!-- Node8&#45;&gt;Node4 -->
<g id="edge17" class="edge"><title>Node8&#45;&gt;Node4</title>
<path fill="none" stroke="midnightblue" d="M306.388,-296.985C283.739,-286.014 245.468,-267.476 220.725,-255.492"/>
<polygon fill="midnightblue" stroke="midnightblue" points="222.181,-252.308 211.655,-251.098 219.129,-258.608 222.181,-252.308"/>
</g>
<!-- Node10 -->
<g id="node10" class="node"><title>Node10</title>
<g id="a_node10"><a xlink:href="__config_8h.xhtml" target="_top" xlink:title="_config.h">
<polygon fill="white" stroke="black" points="176.707,-117 176.707,-137 233.293,-137 233.293,-117 176.707,-117"/>
<text text-anchor="middle" x="205" y="-123" font-family="Helvetica,sans-Serif" font-size="10.00">_config.h</text>
</a>
</g>
</g>
<!-- Node9&#45;&gt;Node10 -->
<g id="edge9" class="edge"><title>Node9&#45;&gt;Node10</title>
<path fill="none" stroke="midnightblue" d="M234.22,-174.753C229.277,-166.843 222.023,-155.237 215.98,-145.568"/>
<polygon fill="midnightblue" stroke="midnightblue" points="218.94,-143.7 210.672,-137.075 213.004,-147.41 218.94,-143.7"/>
</g>
<!-- Node13 -->
<g id="node13" class="node"><title>Node13</title>
<polygon fill="white" stroke="#bfbfbf" points="251.158,-117 251.158,-137 298.842,-137 298.842,-117 251.158,-117"/>
<text text-anchor="middle" x="275" y="-123" font-family="Helvetica,sans-Serif" font-size="10.00">stdlib.h</text>
</g>
<!-- Node9&#45;&gt;Node13 -->
<g id="edge12" class="edge"><title>Node9&#45;&gt;Node13</title>
<path fill="none" stroke="midnightblue" d="M245.78,-174.753C250.723,-166.843 257.977,-155.237 264.02,-145.568"/>
<polygon fill="midnightblue" stroke="midnightblue" points="266.996,-147.41 269.328,-137.075 261.06,-143.7 266.996,-147.41"/>
</g>
<!-- Node11 -->
<g id="node11" class="node"><title>Node11</title>
<g id="a_node11"><a xlink:href="__platform_8h.xhtml" target="_top" xlink:title="_platform.h">
<polygon fill="white" stroke="black" points="171.988,-59 171.988,-79 238.012,-79 238.012,-59 171.988,-59"/>
<text text-anchor="middle" x="205" y="-65" font-family="Helvetica,sans-Serif" font-size="10.00">_platform.h</text>
</a>
</g>
</g>
<!-- Node10&#45;&gt;Node11 -->
<g id="edge10" class="edge"><title>Node10&#45;&gt;Node11</title>
<path fill="none" stroke="midnightblue" d="M205,-116.753C205,-109.25 205,-98.4238 205,-89.0781"/>
<polygon fill="midnightblue" stroke="midnightblue" points="208.5,-89.0752 205,-79.0752 201.5,-89.0752 208.5,-89.0752"/>
</g>
<!-- Node12 -->
<g id="node12" class="node"><title>Node12</title>
<g id="a_node12"><a xlink:href="__compiler_8h.xhtml" target="_top" xlink:title="_compiler.h">
<polygon fill="white" stroke="black" points="171.429,-1 171.429,-21 238.571,-21 238.571,-1 171.429,-1"/>
<text text-anchor="middle" x="205" y="-7" font-family="Helvetica,sans-Serif" font-size="10.00">_compiler.h</text>
</a>
</g>
</g>
<!-- Node11&#45;&gt;Node12 -->
<g id="edge11" class="edge"><title>Node11&#45;&gt;Node12</title>
<path fill="none" stroke="midnightblue" d="M205,-58.7527C205,-51.2504 205,-40.4238 205,-31.0781"/>
<polygon fill="midnightblue" stroke="midnightblue" points="208.5,-31.0752 205,-21.0752 201.5,-31.0752 208.5,-31.0752"/>
</g>
<!-- Node18&#45;&gt;Node9 -->
<g id="edge19" class="edge"><title>Node18&#45;&gt;Node9</title>
<path fill="none" stroke="midnightblue" d="M184.007,-290.88C174.241,-275.44 162.948,-251.095 173,-232 180.476,-217.798 194.537,-207.135 207.854,-199.67"/>
<polygon fill="midnightblue" stroke="midnightblue" points="209.591,-202.712 216.865,-195.008 206.375,-196.495 209.591,-202.712"/>
</g>
<!-- Node20 -->
<g id="node20" class="node"><title>Node20</title>
<polygon fill="white" stroke="#bfbfbf" points="998.934,-233 998.934,-253 1061.07,-253 1061.07,-233 998.934,-233"/>
<text text-anchor="middle" x="1030" y="-239" font-family="Helvetica,sans-Serif" font-size="10.00">type_traits</text>
</g>
<!-- Node19&#45;&gt;Node20 -->
<g id="edge21" class="edge"><title>Node19&#45;&gt;Node20</title>
<path fill="none" stroke="midnightblue" d="M1020.9,-290.992C1022.52,-282.635 1024.55,-272.142 1026.29,-263.194"/>
<polygon fill="midnightblue" stroke="midnightblue" points="1029.74,-263.773 1028.2,-253.29 1022.87,-262.443 1029.74,-263.773"/>
</g>
<!-- Node19&#45;&gt;Node21 -->
<g id="edge22" class="edge"><title>Node19&#45;&gt;Node21</title>
<path fill="none" stroke="midnightblue" d="M1037.61,-290.992C1050.09,-281.441 1066.21,-269.101 1078.8,-259.463"/>
<polygon fill="midnightblue" stroke="midnightblue" points="1081.05,-262.148 1086.86,-253.29 1076.79,-256.589 1081.05,-262.148"/>
</g>
<!-- Node19&#45;&gt;Node22 -->
<g id="edge23" class="edge"><title>Node19&#45;&gt;Node22</title>
<path fill="none" stroke="midnightblue" d="M964.89,-291.878C922.075,-280.425 864.385,-264.819 828.203,-253.899"/>
<polygon fill="midnightblue" stroke="midnightblue" points="829.186,-250.54 818.599,-250.951 827.131,-257.232 829.186,-250.54"/>
</g>
<!-- Node19&#45;&gt;Node3 -->
<g id="edge24" class="edge"><title>Node19&#45;&gt;Node3</title>
<path fill="none" stroke="midnightblue" d="M964.978,-291.961C961.947,-291.269 958.939,-290.61 956,-290 865.667,-271.249 758.163,-256.085 702.531,-248.762"/>
<polygon fill="midnightblue" stroke="midnightblue" points="702.809,-245.269 692.44,-247.445 701.903,-252.21 702.809,-245.269"/>
</g>
<!-- Node23 -->
<g id="node23" class="node"><title>Node23</title>
<polygon fill="white" stroke="#bfbfbf" points="923.436,-233 923.436,-253 980.564,-253 980.564,-233 923.436,-233"/>
<text text-anchor="middle" x="952" y="-239" font-family="Helvetica,sans-Serif" font-size="10.00">algorithm</text>
</g>
<!-- Node19&#45;&gt;Node23 -->
<g id="edge25" class="edge"><title>Node19&#45;&gt;Node23</title>
<path fill="none" stroke="midnightblue" d="M1002.02,-290.992C992.15,-281.716 979.476,-269.811 969.356,-260.304"/>
<polygon fill="midnightblue" stroke="midnightblue" points="971.575,-257.586 961.89,-253.29 966.782,-262.688 971.575,-257.586"/>
</g>
<!-- Node24 -->
<g id="node24" class="node"><title>Node24</title>
<g id="a_node24"><a xlink:href="____strhash_8h.xhtml" target="_top" xlink:title="__strhash.h">
<polygon fill="white" stroke="black" points="836.872,-233 836.872,-253 905.128,-253 905.128,-233 836.872,-233"/>
<text text-anchor="middle" x="871" y="-239" font-family="Helvetica,sans-Serif" font-size="10.00">__strhash.h</text>
</a>
</g>
</g>
<!-- Node19&#45;&gt;Node24 -->
<g id="edge26" class="edge"><title>Node19&#45;&gt;Node24</title>
<path fill="none" stroke="midnightblue" d="M982.415,-290.992C957.88,-280.643 925.582,-267.021 902.082,-257.109"/>
<polygon fill="midnightblue" stroke="midnightblue" points="903.171,-253.77 892.597,-253.109 900.45,-260.22 903.171,-253.77"/>
</g>
<!-- Node24&#45;&gt;Node9 -->
<g id="edge27" class="edge"><title>Node24&#45;&gt;Node9</title>
<path fill="none" stroke="midnightblue" d="M836.503,-233.662C833.302,-233.039 830.098,-232.471 827,-232 629.101,-201.92 390.5,-190.943 289.256,-187.444"/>
<polygon fill="midnightblue" stroke="midnightblue" points="289.143,-183.939 279.031,-187.1 288.908,-190.935 289.143,-183.939"/>
</g>
<!-- Node24&#45;&gt;Node16 -->
<g id="edge28" class="edge"><title>Node24&#45;&gt;Node16</title>
<path fill="none" stroke="midnightblue" d="M839.073,-232.878C803.973,-222.849 747.706,-206.773 711.046,-196.299"/>
<polygon fill="midnightblue" stroke="midnightblue" points="711.837,-192.885 701.26,-193.503 709.914,-199.616 711.837,-192.885"/>
</g>
</g>
</svg>
