<?xml version="1.0" encoding="UTF-8" standalone="no"?>
<!DOCTYPE svg PUBLIC "-//W3C//DTD SVG 1.1//EN"
 "http://www.w3.org/Graphics/SVG/1.1/DTD/svg11.dtd">
<!-- Generated by graphviz version 2.30.0 (20130114.0426)
 -->
<!-- Title: /Users/rkwright/Documents/github/readium&#45;sdk&#45;D/ePub3/ePub/archive.cpp Pages: 1 -->
<svg width="1228pt" height="530pt"
 viewBox="0.00 0.00 1227.54 530.00" xmlns="http://www.w3.org/2000/svg" xmlns:xlink="http://www.w3.org/1999/xlink">
<g id="graph0" class="graph" transform="scale(1 1) rotate(0) translate(4 526)">
<title>/Users/rkwright/Documents/github/readium&#45;sdk&#45;D/ePub3/ePub/archive.cpp</title>
<polygon fill="white" stroke="white" points="-4,5 -4,-526 1224.54,-526 1224.54,5 -4,5"/>
<!-- Node1 -->
<g id="node1" class="node"><title>Node1</title>
<polygon fill="#bfbfbf" stroke="black" points="722.966,-477 722.966,-521 869.034,-521 869.034,-477 722.966,-477"/>
<text text-anchor="start" x="730.966" y="-507" font-family="Helvetica,sans-Serif" font-size="10.00">/Users/rkwright/Documents</text>
<text text-anchor="start" x="730.966" y="-495" font-family="Helvetica,sans-Serif" font-size="10.00">/github/readium&#45;sdk&#45;D/ePub3</text>
<text text-anchor="middle" x="796" y="-483" font-family="Helvetica,sans-Serif" font-size="10.00">/ePub/archive.cpp</text>
</g>
<!-- Node2 -->
<g id="node2" class="node"><title>Node2</title>
<g id="a_node2"><a xlink:href="archive_8h.xhtml" target="_top" xlink:title="archive.h">
<polygon fill="white" stroke="black" points="767.712,-419 767.712,-439 824.288,-439 824.288,-419 767.712,-419"/>
<text text-anchor="middle" x="796" y="-425" font-family="Helvetica,sans-Serif" font-size="10.00">archive.h</text>
</a>
</g>
</g>
<!-- Node1&#45;&gt;Node2 -->
<g id="edge1" class="edge"><title>Node1&#45;&gt;Node2</title>
<path fill="none" stroke="midnightblue" d="M796,-476.857C796,-468.074 796,-457.948 796,-449.362"/>
<polygon fill="midnightblue" stroke="midnightblue" points="799.5,-449.204 796,-439.204 792.5,-449.204 799.5,-449.204"/>
</g>
<!-- Node32 -->
<g id="node32" class="node"><title>Node32</title>
<g id="a_node32"><a xlink:href="zip__archive_8h.xhtml" target="_top" xlink:title="zip_archive.h">
<polygon fill="white" stroke="black" points="1078.54,-419 1078.54,-439 1153.46,-439 1153.46,-419 1078.54,-419"/>
<text text-anchor="middle" x="1116" y="-425" font-family="Helvetica,sans-Serif" font-size="10.00">zip_archive.h</text>
</a>
</g>
</g>
<!-- Node1&#45;&gt;Node32 -->
<g id="edge39" class="edge"><title>Node1&#45;&gt;Node32</title>
<path fill="none" stroke="midnightblue" d="M869.414,-482.399C930.48,-469.423 1015.62,-451.33 1068.21,-440.156"/>
<polygon fill="midnightblue" stroke="midnightblue" points="1069.22,-443.519 1078.27,-438.017 1067.76,-436.672 1069.22,-443.519"/>
</g>
<!-- Node29 -->
<g id="node29" class="node"><title>Node29</title>
<polygon fill="white" stroke="#bfbfbf" points="-0.726562,-297 -0.726562,-317 34.7266,-317 34.7266,-297 -0.726562,-297"/>
<text text-anchor="middle" x="17" y="-303" font-family="Helvetica,sans-Serif" font-size="10.00">map</text>
</g>
<!-- Node1&#45;&gt;Node29 -->
<g id="edge43" class="edge"><title>Node1&#45;&gt;Node29</title>
<path fill="none" stroke="midnightblue" d="M722.744,-488.684C585.621,-469.601 282.513,-419.588 44,-324 42.5775,-323.43 41.1417,-322.792 39.7127,-322.108"/>
<polygon fill="midnightblue" stroke="midnightblue" points="41.0515,-318.852 30.5933,-317.157 37.7115,-325.004 41.0515,-318.852"/>
</g>
<!-- Node3 -->
<g id="node3" class="node"><title>Node3</title>
<polygon fill="white" stroke="#bfbfbf" points="719.079,-361 719.079,-381 802.921,-381 802.921,-361 719.079,-361"/>
<text text-anchor="middle" x="761" y="-367" font-family="Helvetica,sans-Serif" font-size="10.00">ePub3/epub3.h</text>
</g>
<!-- Node2&#45;&gt;Node3 -->
<g id="edge2" class="edge"><title>Node2&#45;&gt;Node3</title>
<path fill="none" stroke="midnightblue" d="M790.22,-418.753C785.277,-410.843 778.023,-399.237 771.98,-389.568"/>
<polygon fill="midnightblue" stroke="midnightblue" points="774.94,-387.7 766.672,-381.075 769.004,-391.41 774.94,-387.7"/>
</g>
<!-- Node4 -->
<g id="node4" class="node"><title>Node4</title>
<polygon fill="white" stroke="#bfbfbf" points="634.828,-233 634.828,-253 689.172,-253 689.172,-233 634.828,-233"/>
<text text-anchor="middle" x="662" y="-239" font-family="Helvetica,sans-Serif" font-size="10.00">iostream</text>
</g>
<!-- Node2&#45;&gt;Node4 -->
<g id="edge3" class="edge"><title>Node2&#45;&gt;Node4</title>
<path fill="none" stroke="midnightblue" d="M799.996,-418.7C803.691,-409.558 808.917,-395.107 811,-382 817.917,-338.474 806.631,-319.624 774,-290 752.892,-270.837 722.714,-259.068 699.001,-252.236"/>
<polygon fill="midnightblue" stroke="midnightblue" points="699.846,-248.839 689.279,-249.604 698.017,-255.596 699.846,-248.839"/>
</g>
<!-- Node5 -->
<g id="node5" class="node"><title>Node5</title>
<polygon fill="white" stroke="#bfbfbf" points="1091.5,-233 1091.5,-253 1120.5,-253 1120.5,-233 1091.5,-233"/>
<text text-anchor="middle" x="1105.61" y="-239" font-family="Helvetica,sans-Serif" font-size="10.00">list</text>
</g>
<!-- Node2&#45;&gt;Node5 -->
<g id="edge4" class="edge"><title>Node2&#45;&gt;Node5</title>
<path fill="none" stroke="midnightblue" d="M812.657,-418.959C845.142,-401.245 919.103,-360.51 980,-324 1016.81,-301.928 1058.74,-274.923 1083.75,-258.611"/>
<polygon fill="midnightblue" stroke="midnightblue" points="1085.71,-261.516 1092.16,-253.114 1081.88,-255.657 1085.71,-261.516"/>
</g>
<!-- Node6 -->
<g id="node6" class="node"><title>Node6</title>
<polygon fill="white" stroke="#bfbfbf" points="961.596,-361 961.596,-381 1020.4,-381 1020.4,-361 961.596,-361"/>
<text text-anchor="middle" x="991" y="-367" font-family="Helvetica,sans-Serif" font-size="10.00">functional</text>
</g>
<!-- Node2&#45;&gt;Node6 -->
<g id="edge5" class="edge"><title>Node2&#45;&gt;Node6</title>
<path fill="none" stroke="midnightblue" d="M824.355,-419.857C857.905,-410.222 913.959,-394.124 951.686,-383.29"/>
<polygon fill="midnightblue" stroke="midnightblue" points="952.687,-386.644 961.332,-380.52 950.755,-379.916 952.687,-386.644"/>
</g>
<!-- Node7 -->
<g id="node7" class="node"><title>Node7</title>
<polygon fill="white" stroke="#bfbfbf" points="400.328,-361 400.328,-381 439.672,-381 439.672,-361 400.328,-361"/>
<text text-anchor="middle" x="420" y="-367" font-family="Helvetica,sans-Serif" font-size="10.00">zlib.h</text>
</g>
<!-- Node2&#45;&gt;Node7 -->
<g id="edge6" class="edge"><title>Node2&#45;&gt;Node7</title>
<path fill="none" stroke="midnightblue" d="M767.313,-426.149C709.044,-421.974 572.66,-410.097 449.767,-381.757"/>
<polygon fill="midnightblue" stroke="midnightblue" points="450.349,-378.299 439.814,-379.419 448.748,-385.113 450.349,-378.299"/>
</g>
<!-- Node8 -->
<g id="node8" class="node"><title>Node8</title>
<g id="a_node8"><a xlink:href="utfstring_8h.xhtml" target="_top" xlink:title="ePub3/utilities/utfstring.h">
<polygon fill="white" stroke="black" points="457.525,-361 457.525,-381 582.475,-381 582.475,-361 457.525,-361"/>
<text text-anchor="middle" x="520" y="-367" font-family="Helvetica,sans-Serif" font-size="10.00">ePub3/utilities/utfstring.h</text>
</a>
</g>
</g>
<!-- Node2&#45;&gt;Node8 -->
<g id="edge7" class="edge"><title>Node2&#45;&gt;Node8</title>
<path fill="none" stroke="midnightblue" d="M767.503,-422.218C722.158,-413.017 632.789,-394.885 574.764,-383.112"/>
<polygon fill="midnightblue" stroke="midnightblue" points="575.164,-379.621 564.668,-381.063 573.772,-386.482 575.164,-379.621"/>
</g>
<!-- Node9 -->
<g id="node9" class="node"><title>Node9</title>
<g id="a_node9"><a xlink:href="basic_8h.xhtml" target="_top" xlink:title="ePub3/utilities/basic.h">
<polygon fill="white" stroke="black" points="858.638,-297 858.638,-317 971.362,-317 971.362,-297 858.638,-297"/>
<text text-anchor="middle" x="915" y="-303" font-family="Helvetica,sans-Serif" font-size="10.00">ePub3/utilities/basic.h</text>
</a>
</g>
</g>
<!-- Node8&#45;&gt;Node9 -->
<g id="edge8" class="edge"><title>Node8&#45;&gt;Node9</title>
<path fill="none" stroke="midnightblue" d="M577.436,-360.985C649.415,-349.687 772.53,-330.362 848.514,-318.436"/>
<polygon fill="midnightblue" stroke="midnightblue" points="849.118,-321.884 858.455,-316.875 848.033,-314.969 849.118,-321.884"/>
</g>
<!-- Node19 -->
<g id="node19" class="node"><title>Node19</title>
<g id="a_node19"><a xlink:href="integer__sequence_8h.xhtml" target="_top" xlink:title="ePub3/utilities/integer\l_sequence.h">
<polygon fill="white" stroke="black" points="53.1924,-291 53.1924,-323 164.808,-323 164.808,-291 53.1924,-291"/>
<text text-anchor="start" x="61.1924" y="-309" font-family="Helvetica,sans-Serif" font-size="10.00">ePub3/utilities/integer</text>
<text text-anchor="middle" x="109" y="-297" font-family="Helvetica,sans-Serif" font-size="10.00">_sequence.h</text>
</a>
</g>
</g>
<!-- Node8&#45;&gt;Node19 -->
<g id="edge19" class="edge"><title>Node8&#45;&gt;Node19</title>
<path fill="none" stroke="midnightblue" d="M457.174,-361.255C454.072,-360.83 451.001,-360.409 448,-360 328.485,-343.703 297.697,-345.461 179,-324 177.723,-323.769 176.435,-323.531 175.138,-323.286"/>
<polygon fill="midnightblue" stroke="midnightblue" points="175.56,-319.801 165.071,-321.292 174.201,-326.668 175.56,-319.801"/>
</g>
<!-- Node20 -->
<g id="node20" class="node"><title>Node20</title>
<g id="a_node20"><a xlink:href="string__view_8h.xhtml" target="_top" xlink:title="ePub3/utilities/string\l_view.h">
<polygon fill="white" stroke="black" points="347.254,-291 347.254,-323 452.746,-323 452.746,-291 347.254,-291"/>
<text text-anchor="start" x="355.254" y="-309" font-family="Helvetica,sans-Serif" font-size="10.00">ePub3/utilities/string</text>
<text text-anchor="middle" x="400" y="-297" font-family="Helvetica,sans-Serif" font-size="10.00">_view.h</text>
</a>
</g>
</g>
<!-- Node8&#45;&gt;Node20 -->
<g id="edge21" class="edge"><title>Node8&#45;&gt;Node20</title>
<path fill="none" stroke="midnightblue" d="M502.551,-360.985C485.715,-352.286 459.67,-338.83 438.042,-327.655"/>
<polygon fill="midnightblue" stroke="midnightblue" points="439.573,-324.507 429.082,-323.026 436.36,-330.726 439.573,-324.507"/>
</g>
<!-- Node22 -->
<g id="node22" class="node"><title>Node22</title>
<polygon fill="white" stroke="#bfbfbf" points="517.773,-233 517.773,-253 558.227,-253 558.227,-233 517.773,-233"/>
<text text-anchor="middle" x="538" y="-239" font-family="Helvetica,sans-Serif" font-size="10.00">string</text>
</g>
<!-- Node8&#45;&gt;Node22 -->
<g id="edge30" class="edge"><title>Node8&#45;&gt;Node22</title>
<path fill="none" stroke="midnightblue" d="M514.31,-360.947C505.63,-345.935 490.989,-315.057 500,-290 503.996,-278.888 511.969,-268.551 519.584,-260.502"/>
<polygon fill="midnightblue" stroke="midnightblue" points="522.254,-262.784 526.919,-253.271 517.34,-257.798 522.254,-262.784"/>
</g>
<!-- Node26 -->
<g id="node26" class="node"><title>Node26</title>
<polygon fill="white" stroke="#bfbfbf" points="221.438,-297 221.438,-317 268.562,-317 268.562,-297 221.438,-297"/>
<text text-anchor="middle" x="245" y="-303" font-family="Helvetica,sans-Serif" font-size="10.00">iterator</text>
</g>
<!-- Node8&#45;&gt;Node26 -->
<g id="edge31" class="edge"><title>Node8&#45;&gt;Node26</title>
<path fill="none" stroke="midnightblue" d="M463.248,-360.987C402.896,-351.088 311.596,-335.12 278,-324 275.567,-323.195 273.083,-322.247 270.625,-321.222"/>
<polygon fill="midnightblue" stroke="midnightblue" points="271.981,-317.993 261.431,-317.02 269.071,-324.36 271.981,-317.993"/>
</g>
<!-- Node27 -->
<g id="node27" class="node"><title>Node27</title>
<polygon fill="white" stroke="#bfbfbf" points="286.936,-297 286.936,-317 329.064,-317 329.064,-297 286.936,-297"/>
<text text-anchor="middle" x="308" y="-303" font-family="Helvetica,sans-Serif" font-size="10.00">locale</text>
</g>
<!-- Node8&#45;&gt;Node27 -->
<g id="edge32" class="edge"><title>Node8&#45;&gt;Node27</title>
<path fill="none" stroke="midnightblue" d="M470.722,-360.924C433.528,-353.27 381.624,-340.858 338,-324 336.142,-323.282 334.252,-322.475 332.371,-321.615"/>
<polygon fill="midnightblue" stroke="midnightblue" points="333.742,-318.387 323.233,-317.042 330.609,-324.647 333.742,-318.387"/>
</g>
<!-- Node18 -->
<g id="node18" class="node"><title>Node18</title>
<polygon fill="white" stroke="#bfbfbf" points="751.384,-233 751.384,-253 794.616,-253 794.616,-233 751.384,-233"/>
<text text-anchor="middle" x="773" y="-239" font-family="Helvetica,sans-Serif" font-size="10.00">vector</text>
</g>
<!-- Node8&#45;&gt;Node18 -->
<g id="edge33" class="edge"><title>Node8&#45;&gt;Node18</title>
<path fill="none" stroke="midnightblue" d="M582.66,-367.564C649.834,-363.481 750.085,-352.635 774,-324 788.075,-307.147 784.386,-280.601 779.504,-262.761"/>
<polygon fill="midnightblue" stroke="midnightblue" points="782.837,-261.691 776.538,-253.171 776.149,-263.759 782.837,-261.691"/>
</g>
<!-- Node28 -->
<g id="node28" class="node"><title>Node28</title>
<polygon fill="white" stroke="#bfbfbf" points="508.766,-297 508.766,-317 609.234,-317 609.234,-297 508.766,-297"/>
<text text-anchor="middle" x="559" y="-303" font-family="Helvetica,sans-Serif" font-size="10.00">REGEX_INCLUDE</text>
</g>
<!-- Node8&#45;&gt;Node28 -->
<g id="edge34" class="edge"><title>Node8&#45;&gt;Node28</title>
<path fill="none" stroke="midnightblue" d="M525.755,-360.852C531.515,-351.694 540.532,-337.359 547.723,-325.928"/>
<polygon fill="midnightblue" stroke="midnightblue" points="550.86,-327.514 553.222,-317.186 544.935,-323.787 550.86,-327.514"/>
</g>
<!-- Node8&#45;&gt;Node29 -->
<g id="edge35" class="edge"><title>Node8&#45;&gt;Node29</title>
<path fill="none" stroke="midnightblue" d="M457.194,-361.092C454.087,-360.709 451.009,-360.343 448,-360 268.892,-339.594 215.569,-379.321 44,-324 42.2887,-323.448 40.5699,-322.773 38.874,-322.015"/>
<polygon fill="midnightblue" stroke="midnightblue" points="40.0902,-318.696 29.623,-317.056 36.7833,-324.865 40.0902,-318.696"/>
</g>
<!-- Node30 -->
<g id="node30" class="node"><title>Node30</title>
<polygon fill="white" stroke="#bfbfbf" points="627.599,-297 627.599,-317 686.401,-317 686.401,-297 627.599,-297"/>
<text text-anchor="middle" x="657" y="-303" font-family="Helvetica,sans-Serif" font-size="10.00">stdexcept</text>
</g>
<!-- Node8&#45;&gt;Node30 -->
<g id="edge36" class="edge"><title>Node8&#45;&gt;Node30</title>
<path fill="none" stroke="midnightblue" d="M539.921,-360.985C563.054,-350.516 601.417,-333.154 627.89,-321.174"/>
<polygon fill="midnightblue" stroke="midnightblue" points="629.388,-324.338 637.055,-317.026 626.501,-317.961 629.388,-324.338"/>
</g>
<!-- Node23 -->
<g id="node23" class="node"><title>Node23</title>
<polygon fill="white" stroke="#bfbfbf" points="189.613,-233 189.613,-253 228.387,-253 228.387,-233 189.613,-233"/>
<text text-anchor="middle" x="209" y="-239" font-family="Helvetica,sans-Serif" font-size="10.00">limits</text>
</g>
<!-- Node8&#45;&gt;Node23 -->
<g id="edge37" class="edge"><title>Node8&#45;&gt;Node23</title>
<path fill="none" stroke="midnightblue" d="M457.448,-361.161C368.009,-348.452 214.045,-326.285 212,-324 197.34,-307.618 199.65,-280.94 203.557,-262.942"/>
<polygon fill="midnightblue" stroke="midnightblue" points="207.005,-263.58 206.058,-253.028 200.218,-261.868 207.005,-263.58"/>
</g>
<!-- Node31 -->
<g id="node31" class="node"><title>Node31</title>
<polygon fill="white" stroke="#bfbfbf" points="704.761,-297 704.761,-317 765.239,-317 765.239,-297 704.761,-297"/>
<text text-anchor="middle" x="735" y="-303" font-family="Helvetica,sans-Serif" font-size="10.00">utf8/utf8.h</text>
</g>
<!-- Node8&#45;&gt;Node31 -->
<g id="edge38" class="edge"><title>Node8&#45;&gt;Node31</title>
<path fill="none" stroke="midnightblue" d="M560.026,-360.968C595.764,-352.552 649.358,-339.063 695,-324 697.959,-323.024 701.014,-321.941 704.055,-320.813"/>
<polygon fill="midnightblue" stroke="midnightblue" points="705.524,-323.998 713.59,-317.129 703.001,-317.469 705.524,-323.998"/>
</g>
<!-- Node10 -->
<g id="node10" class="node"><title>Node10</title>
<g id="a_node10"><a xlink:href="base_8h.xhtml" target="_top" xlink:title="ePub3/base.h">
<polygon fill="white" stroke="black" points="427.141,-175 427.141,-195 504.859,-195 504.859,-175 427.141,-175"/>
<text text-anchor="middle" x="466" y="-181" font-family="Helvetica,sans-Serif" font-size="10.00">ePub3/base.h</text>
</a>
</g>
</g>
<!-- Node9&#45;&gt;Node10 -->
<g id="edge9" class="edge"><title>Node9&#45;&gt;Node10</title>
<path fill="none" stroke="midnightblue" d="M901.219,-296.78C871.886,-277.17 805.713,-233.02 803,-232 705.551,-195.346 582.476,-187.361 515.3,-185.942"/>
<polygon fill="midnightblue" stroke="midnightblue" points="515.069,-182.438 505.011,-185.767 514.95,-189.437 515.069,-182.438"/>
</g>
<!-- Node15 -->
<g id="node15" class="node"><title>Node15</title>
<polygon fill="white" stroke="#bfbfbf" points="958.815,-233 958.815,-253 1073.18,-253 1073.18,-233 958.815,-233"/>
<text text-anchor="middle" x="1016" y="-239" font-family="Helvetica,sans-Serif" font-size="10.00">ePub3/xml/xmlstring.h</text>
</g>
<!-- Node9&#45;&gt;Node15 -->
<g id="edge14" class="edge"><title>Node9&#45;&gt;Node15</title>
<path fill="none" stroke="midnightblue" d="M929.903,-296.852C946.388,-286.732 973.17,-270.292 992.489,-258.432"/>
<polygon fill="midnightblue" stroke="midnightblue" points="994.345,-261.4 1001.04,-253.186 990.683,-255.435 994.345,-261.4"/>
</g>
<!-- Node16 -->
<g id="node16" class="node"><title>Node16</title>
<polygon fill="white" stroke="#bfbfbf" points="889.219,-233 889.219,-253 940.781,-253 940.781,-233 889.219,-233"/>
<text text-anchor="middle" x="915" y="-239" font-family="Helvetica,sans-Serif" font-size="10.00">sstream</text>
</g>
<!-- Node9&#45;&gt;Node16 -->
<g id="edge15" class="edge"><title>Node9&#45;&gt;Node16</title>
<path fill="none" stroke="midnightblue" d="M915,-296.852C915,-288.06 915,-274.498 915,-263.313"/>
<polygon fill="midnightblue" stroke="midnightblue" points="918.5,-263.186 915,-253.186 911.5,-263.186 918.5,-263.186"/>
</g>
<!-- Node17 -->
<g id="node17" class="node"><title>Node17</title>
<polygon fill="white" stroke="#bfbfbf" points="678.943,-175 678.943,-195 731.057,-195 731.057,-175 678.943,-175"/>
<text text-anchor="middle" x="705" y="-181" font-family="Helvetica,sans-Serif" font-size="10.00">memory</text>
</g>
<!-- Node9&#45;&gt;Node17 -->
<g id="edge16" class="edge"><title>Node9&#45;&gt;Node17</title>
<path fill="none" stroke="midnightblue" d="M907.757,-296.975C894.987,-281.609 866.968,-250.259 837,-232 807.046,-213.75 768.838,-201.444 741.246,-194.188"/>
<polygon fill="midnightblue" stroke="midnightblue" points="741.783,-190.714 731.23,-191.653 740.065,-197.5 741.783,-190.714"/>
</g>
<!-- Node9&#45;&gt;Node18 -->
<g id="edge17" class="edge"><title>Node9&#45;&gt;Node18</title>
<path fill="none" stroke="midnightblue" d="M894.352,-296.985C870.374,-286.516 830.612,-269.154 803.173,-257.174"/>
<polygon fill="midnightblue" stroke="midnightblue" points="804.238,-253.82 793.673,-253.026 801.437,-260.235 804.238,-253.82"/>
</g>
<!-- Node9&#45;&gt;Node5 -->
<g id="edge18" class="edge"><title>Node9&#45;&gt;Node5</title>
<path fill="none" stroke="midnightblue" d="M946.997,-296.997C980.831,-287.255 1035.62,-270.843 1082,-254 1082.1,-253.965 1082.19,-253.931 1082.29,-253.896"/>
<polygon fill="midnightblue" stroke="midnightblue" points="1083.32,-257.25 1091.36,-250.353 1080.77,-250.729 1083.32,-257.25"/>
</g>
<!-- Node11 -->
<g id="node11" class="node"><title>Node11</title>
<g id="a_node11"><a xlink:href="__config_8h.xhtml" target="_top" xlink:title="_config.h">
<polygon fill="white" stroke="black" points="402.707,-117 402.707,-137 459.293,-137 459.293,-117 402.707,-117"/>
<text text-anchor="middle" x="431" y="-123" font-family="Helvetica,sans-Serif" font-size="10.00">_config.h</text>
</a>
</g>
</g>
<!-- Node10&#45;&gt;Node11 -->
<g id="edge10" class="edge"><title>Node10&#45;&gt;Node11</title>
<path fill="none" stroke="midnightblue" d="M460.22,-174.753C455.277,-166.843 448.023,-155.237 441.98,-145.568"/>
<polygon fill="midnightblue" stroke="midnightblue" points="444.94,-143.7 436.672,-137.075 439.004,-147.41 444.94,-143.7"/>
</g>
<!-- Node14 -->
<g id="node14" class="node"><title>Node14</title>
<polygon fill="white" stroke="#bfbfbf" points="477.158,-117 477.158,-137 524.842,-137 524.842,-117 477.158,-117"/>
<text text-anchor="middle" x="501" y="-123" font-family="Helvetica,sans-Serif" font-size="10.00">stdlib.h</text>
</g>
<!-- Node10&#45;&gt;Node14 -->
<g id="edge13" class="edge"><title>Node10&#45;&gt;Node14</title>
<path fill="none" stroke="midnightblue" d="M471.78,-174.753C476.723,-166.843 483.977,-155.237 490.02,-145.568"/>
<polygon fill="midnightblue" stroke="midnightblue" points="492.996,-147.41 495.328,-137.075 487.06,-143.7 492.996,-147.41"/>
</g>
<!-- Node12 -->
<g id="node12" class="node"><title>Node12</title>
<g id="a_node12"><a xlink:href="__platform_8h.xhtml" target="_top" xlink:title="_platform.h">
<polygon fill="white" stroke="black" points="397.988,-59 397.988,-79 464.012,-79 464.012,-59 397.988,-59"/>
<text text-anchor="middle" x="431" y="-65" font-family="Helvetica,sans-Serif" font-size="10.00">_platform.h</text>
</a>
</g>
</g>
<!-- Node11&#45;&gt;Node12 -->
<g id="edge11" class="edge"><title>Node11&#45;&gt;Node12</title>
<path fill="none" stroke="midnightblue" d="M431,-116.753C431,-109.25 431,-98.4238 431,-89.0781"/>
<polygon fill="midnightblue" stroke="midnightblue" points="434.5,-89.0752 431,-79.0752 427.5,-89.0752 434.5,-89.0752"/>
</g>
<!-- Node13 -->
<g id="node13" class="node"><title>Node13</title>
<g id="a_node13"><a xlink:href="__compiler_8h.xhtml" target="_top" xlink:title="_compiler.h">
<polygon fill="white" stroke="black" points="397.429,-1 397.429,-21 464.571,-21 464.571,-1 397.429,-1"/>
<text text-anchor="middle" x="431" y="-7" font-family="Helvetica,sans-Serif" font-size="10.00">_compiler.h</text>
</a>
</g>
</g>
<!-- Node12&#45;&gt;Node13 -->
<g id="edge12" class="edge"><title>Node12&#45;&gt;Node13</title>
<path fill="none" stroke="midnightblue" d="M431,-58.7527C431,-51.2504 431,-40.4238 431,-31.0781"/>
<polygon fill="midnightblue" stroke="midnightblue" points="434.5,-31.0752 431,-21.0752 427.5,-31.0752 434.5,-31.0752"/>
</g>
<!-- Node19&#45;&gt;Node10 -->
<g id="edge20" class="edge"><title>Node19&#45;&gt;Node10</title>
<path fill="none" stroke="midnightblue" d="M119.203,-290.705C131.624,-273.421 154.283,-245.894 181,-232 221.127,-211.132 346.333,-196.824 416.708,-190.199"/>
<polygon fill="midnightblue" stroke="midnightblue" points="417.459,-193.645 427.094,-189.24 416.815,-186.674 417.459,-193.645"/>
</g>
<!-- Node21 -->
<g id="node21" class="node"><title>Node21</title>
<polygon fill="white" stroke="#bfbfbf" points="275.934,-233 275.934,-253 338.066,-253 338.066,-233 275.934,-233"/>
<text text-anchor="middle" x="307" y="-239" font-family="Helvetica,sans-Serif" font-size="10.00">type_traits</text>
</g>
<!-- Node20&#45;&gt;Node21 -->
<g id="edge22" class="edge"><title>Node20&#45;&gt;Node21</title>
<path fill="none" stroke="midnightblue" d="M377.487,-290.992C362.797,-281.198 343.707,-268.471 329.1,-258.733"/>
<polygon fill="midnightblue" stroke="midnightblue" points="330.925,-255.744 320.663,-253.109 327.042,-261.568 330.925,-255.744"/>
</g>
<!-- Node20&#45;&gt;Node22 -->
<g id="edge23" class="edge"><title>Node20&#45;&gt;Node22</title>
<path fill="none" stroke="midnightblue" d="M433.406,-290.992C456.336,-280.689 486.489,-267.143 508.525,-257.242"/>
<polygon fill="midnightblue" stroke="midnightblue" points="510.038,-260.4 517.726,-253.109 507.17,-254.014 510.038,-260.4"/>
</g>
<!-- Node20&#45;&gt;Node23 -->
<g id="edge24" class="edge"><title>Node20&#45;&gt;Node23</title>
<path fill="none" stroke="midnightblue" d="M353.764,-290.992C317.857,-279.336 269.154,-263.527 238.401,-253.544"/>
<polygon fill="midnightblue" stroke="midnightblue" points="239.296,-250.155 228.704,-250.396 237.135,-256.813 239.296,-250.155"/>
</g>
<!-- Node20&#45;&gt;Node4 -->
<g id="edge25" class="edge"><title>Node20&#45;&gt;Node4</title>
<path fill="none" stroke="midnightblue" d="M453.02,-293.453C504.069,-281.373 579.958,-263.415 624.861,-252.789"/>
<polygon fill="midnightblue" stroke="midnightblue" points="625.839,-256.154 634.764,-250.445 624.227,-249.342 625.839,-256.154"/>
</g>
<!-- Node24 -->
<g id="node24" class="node"><title>Node24</title>
<polygon fill="white" stroke="#bfbfbf" points="356.436,-233 356.436,-253 413.564,-253 413.564,-233 356.436,-233"/>
<text text-anchor="middle" x="385" y="-239" font-family="Helvetica,sans-Serif" font-size="10.00">algorithm</text>
</g>
<!-- Node20&#45;&gt;Node24 -->
<g id="edge26" class="edge"><title>Node20&#45;&gt;Node24</title>
<path fill="none" stroke="midnightblue" d="M396.369,-290.992C394.347,-282.635 391.809,-272.142 389.644,-263.194"/>
<polygon fill="midnightblue" stroke="midnightblue" points="393.001,-262.187 387.248,-253.29 386.197,-263.833 393.001,-262.187"/>
</g>
<!-- Node25 -->
<g id="node25" class="node"><title>Node25</title>
<g id="a_node25"><a xlink:href="____strhash_8h.xhtml" target="_top" xlink:title="__strhash.h">
<polygon fill="white" stroke="black" points="431.872,-233 431.872,-253 500.128,-253 500.128,-233 431.872,-233"/>
<text text-anchor="middle" x="466" y="-239" font-family="Helvetica,sans-Serif" font-size="10.00">__strhash.h</text>
</a>
</g>
</g>
<!-- Node20&#45;&gt;Node25 -->
<g id="edge27" class="edge"><title>Node20&#45;&gt;Node25</title>
<path fill="none" stroke="midnightblue" d="M415.977,-290.992C425.85,-281.716 438.524,-269.811 448.644,-260.304"/>
<polygon fill="midnightblue" stroke="midnightblue" points="451.218,-262.688 456.11,-253.29 446.425,-257.586 451.218,-262.688"/>
</g>
<!-- Node25&#45;&gt;Node10 -->
<g id="edge28" class="edge"><title>Node25&#45;&gt;Node10</title>
<path fill="none" stroke="midnightblue" d="M466,-232.753C466,-225.25 466,-214.424 466,-205.078"/>
<polygon fill="midnightblue" stroke="midnightblue" points="469.5,-205.075 466,-195.075 462.5,-205.075 469.5,-205.075"/>
</g>
<!-- Node25&#45;&gt;Node17 -->
<g id="edge29" class="edge"><title>Node25&#45;&gt;Node17</title>
<path fill="none" stroke="midnightblue" d="M500.243,-233.977C545.122,-223.461 623.477,-205.102 669.143,-194.402"/>
<polygon fill="midnightblue" stroke="midnightblue" points="669.976,-197.801 678.914,-192.112 668.38,-190.986 669.976,-197.801"/>
</g>
<!-- Node33 -->
<g id="node33" class="node"><title>Node33</title>
<polygon fill="white" stroke="#bfbfbf" points="1118.86,-361 1118.86,-381 1207.14,-381 1207.14,-361 1118.86,-361"/>
<text text-anchor="middle" x="1163" y="-367" font-family="Helvetica,sans-Serif" font-size="10.00">ePub3/archive.h</text>
</g>
<!-- Node32&#45;&gt;Node33 -->
<g id="edge40" class="edge"><title>Node32&#45;&gt;Node33</title>
<path fill="none" stroke="midnightblue" d="M1123.76,-418.753C1130.54,-410.68 1140.54,-398.757 1148.76,-388.973"/>
<polygon fill="midnightblue" stroke="midnightblue" points="1151.64,-390.985 1155.38,-381.075 1146.27,-386.485 1151.64,-390.985"/>
</g>
<!-- Node34 -->
<g id="node34" class="node"><title>Node34</title>
<polygon fill="white" stroke="#bfbfbf" points="1038.66,-361 1038.66,-381 1101.34,-381 1101.34,-361 1038.66,-361"/>
<text text-anchor="middle" x="1070" y="-367" font-family="Helvetica,sans-Serif" font-size="10.00">libzip/zip.h</text>
</g>
<!-- Node32&#45;&gt;Node34 -->
<g id="edge41" class="edge"><title>Node32&#45;&gt;Node34</title>
<path fill="none" stroke="midnightblue" d="M1108.4,-418.753C1101.77,-410.68 1091.98,-398.757 1083.94,-388.973"/>
<polygon fill="midnightblue" stroke="midnightblue" points="1086.51,-386.581 1077.45,-381.075 1081.1,-391.024 1086.51,-386.581"/>
</g>
<!-- Node32&#45;&gt;Node5 -->
<g id="edge42" class="edge"><title>Node32&#45;&gt;Node5</title>
<path fill="none" stroke="midnightblue" d="M1153.58,-421.168C1175.83,-414.98 1202.29,-403.4 1216,-382 1221.27,-373.767 1219.62,-369.082 1216,-360 1198.36,-315.761 1154.94,-278.709 1128.23,-259.086"/>
<polygon fill="midnightblue" stroke="midnightblue" points="1130.05,-256.081 1119.88,-253.114 1125.98,-261.776 1130.05,-256.081"/>
</g>
</g>
</svg>
