<?xml version="1.0" encoding="UTF-8" standalone="no"?>
<!DOCTYPE svg PUBLIC "-//W3C//DTD SVG 1.1//EN"
 "http://www.w3.org/Graphics/SVG/1.1/DTD/svg11.dtd">
<!-- Generated by graphviz version 2.30.0 (20130114.0426)
 -->
<!-- Title: /Users/rkwright/Documents/github/readium&#45;sdk&#45;D/ePub3/ePub/archive_xml.h Pages: 1 -->
<svg width="297pt" height="112pt"
 viewBox="0.00 0.00 297.00 112.00" xmlns="http://www.w3.org/2000/svg" xmlns:xlink="http://www.w3.org/1999/xlink">
<g id="graph0" class="graph" transform="scale(1 1) rotate(0) translate(4 108)">
<title>/Users/rkwright/Documents/github/readium&#45;sdk&#45;D/ePub3/ePub/archive_xml.h</title>
<polygon fill="white" stroke="white" points="-4,5 -4,-108 294,-108 294,5 -4,5"/>
<!-- Node1 -->
<g id="node1" class="node"><title>Node1</title>
<polygon fill="#bfbfbf" stroke="black" points="71.9658,-59 71.9658,-103 218.034,-103 218.034,-59 71.9658,-59"/>
<text text-anchor="start" x="79.9658" y="-89" font-family="Helvetica,sans-Serif" font-size="10.00">/Users/rkwright/Documents</text>
<text text-anchor="start" x="79.9658" y="-77" font-family="Helvetica,sans-Serif" font-size="10.00">/github/readium&#45;sdk&#45;D/ePub3</text>
<text text-anchor="middle" x="145" y="-65" font-family="Helvetica,sans-Serif" font-size="10.00">/ePub/archive_xml.h</text>
</g>
<!-- Node2 -->
<g id="node2" class="node"><title>Node2</title>
<polygon fill="white" stroke="#bfbfbf" points="-0.920898,-1 -0.920898,-21 82.9209,-21 82.9209,-1 -0.920898,-1"/>
<text text-anchor="middle" x="41" y="-7" font-family="Helvetica,sans-Serif" font-size="10.00">ePub3/epub3.h</text>
</g>
<!-- Node1&#45;&gt;Node2 -->
<g id="edge1" class="edge"><title>Node1&#45;&gt;Node2</title>
<path fill="none" stroke="midnightblue" d="M112.664,-58.8571C96.7181,-48.431 77.8792,-36.1133 63.5195,-26.7243"/>
<polygon fill="midnightblue" stroke="midnightblue" points="65.0905,-23.5697 54.8054,-21.0266 61.2597,-29.4285 65.0905,-23.5697"/>
</g>
<!-- Node3 -->
<g id="node3" class="node"><title>Node3</title>
<polygon fill="white" stroke="#bfbfbf" points="100.865,-1 100.865,-21 189.135,-21 189.135,-1 100.865,-1"/>
<text text-anchor="middle" x="145" y="-7" font-family="Helvetica,sans-Serif" font-size="10.00">ePub3/archive.h</text>
</g>
<!-- Node1&#45;&gt;Node3 -->
<g id="edge2" class="edge"><title>Node1&#45;&gt;Node3</title>
<path fill="none" stroke="midnightblue" d="M145,-58.8571C145,-50.074 145,-39.9484 145,-31.3622"/>
<polygon fill="midnightblue" stroke="midnightblue" points="148.5,-31.2039 145,-21.2039 141.5,-31.204 148.5,-31.2039"/>
</g>
<!-- Node4 -->
<g id="node4" class="node"><title>Node4</title>
<polygon fill="white" stroke="#bfbfbf" points="206.926,-1 206.926,-21 289.074,-21 289.074,-1 206.926,-1"/>
<text text-anchor="middle" x="248" y="-7" font-family="Helvetica,sans-Serif" font-size="10.00">ePub3/xml/io.h</text>
</g>
<!-- Node1&#45;&gt;Node4 -->
<g id="edge3" class="edge"><title>Node1&#45;&gt;Node4</title>
<path fill="none" stroke="midnightblue" d="M177.025,-58.8571C192.818,-48.431 211.475,-36.1133 225.697,-26.7243"/>
<polygon fill="midnightblue" stroke="midnightblue" points="227.91,-29.4571 234.327,-21.0266 224.054,-23.6153 227.91,-29.4571"/>
</g>
</g>
</svg>
