<?xml version="1.0" encoding="UTF-8" standalone="no"?>
<!DOCTYPE svg PUBLIC "-//W3C//DTD SVG 1.1//EN"
 "http://www.w3.org/Graphics/SVG/1.1/DTD/svg11.dtd">
<!-- Generated by graphviz version 2.30.0 (20130114.0426)
 -->
<!-- Title: /Users/rkwright/Documents/github/readium&#45;sdk&#45;D/ePub3/base.h Pages: 1 -->
<svg width="186pt" height="216pt"
 viewBox="0.00 0.00 186.00 216.00" xmlns="http://www.w3.org/2000/svg" xmlns:xlink="http://www.w3.org/1999/xlink">
<g id="graph0" class="graph" transform="scale(1 1) rotate(0) translate(4 212)">
<title>/Users/rkwright/Documents/github/readium&#45;sdk&#45;D/ePub3/base.h</title>
<polygon fill="white" stroke="white" points="-4,5 -4,-212 183,-212 183,5 -4,5"/>
<!-- Node1 -->
<g id="node1" class="node"><title>Node1</title>
<polygon fill="#bfbfbf" stroke="black" points="-0.435547,-175 -0.435547,-207 178.436,-207 178.436,-175 -0.435547,-175"/>
<text text-anchor="start" x="7.56445" y="-193" font-family="Helvetica,sans-Serif" font-size="10.00">/Users/rkwright/Documents</text>
<text text-anchor="middle" x="89" y="-181" font-family="Helvetica,sans-Serif" font-size="10.00">/github/readium&#45;sdk&#45;D/ePub3/base.h</text>
</g>
<!-- Node2 -->
<g id="node2" class="node"><title>Node2</title>
<g id="a_node2"><a xlink:href="__config_8h.xhtml" target="_top" xlink:title="_config.h">
<polygon fill="white" stroke="black" points="25.707,-117 25.707,-137 82.293,-137 82.293,-117 25.707,-117"/>
<text text-anchor="middle" x="54" y="-123" font-family="Helvetica,sans-Serif" font-size="10.00">_config.h</text>
</a>
</g>
</g>
<!-- Node1&#45;&gt;Node2 -->
<g id="edge1" class="edge"><title>Node1&#45;&gt;Node2</title>
<path fill="none" stroke="midnightblue" d="M80.5275,-174.992C75.6025,-166.267 69.3638,-155.216 64.1741,-146.023"/>
<polygon fill="midnightblue" stroke="midnightblue" points="67.2085,-144.278 59.2446,-137.29 61.1127,-147.719 67.2085,-144.278"/>
</g>
<!-- Node5 -->
<g id="node5" class="node"><title>Node5</title>
<polygon fill="white" stroke="#bfbfbf" points="100.158,-117 100.158,-137 147.842,-137 147.842,-117 100.158,-117"/>
<text text-anchor="middle" x="124" y="-123" font-family="Helvetica,sans-Serif" font-size="10.00">stdlib.h</text>
</g>
<!-- Node1&#45;&gt;Node5 -->
<g id="edge4" class="edge"><title>Node1&#45;&gt;Node5</title>
<path fill="none" stroke="midnightblue" d="M97.4725,-174.992C102.398,-166.267 108.636,-155.216 113.826,-146.023"/>
<polygon fill="midnightblue" stroke="midnightblue" points="116.887,-147.719 118.755,-137.29 110.792,-144.278 116.887,-147.719"/>
</g>
<!-- Node3 -->
<g id="node3" class="node"><title>Node3</title>
<g id="a_node3"><a xlink:href="__platform_8h.xhtml" target="_top" xlink:title="_platform.h">
<polygon fill="white" stroke="black" points="20.9878,-59 20.9878,-79 87.0122,-79 87.0122,-59 20.9878,-59"/>
<text text-anchor="middle" x="54" y="-65" font-family="Helvetica,sans-Serif" font-size="10.00">_platform.h</text>
</a>
</g>
</g>
<!-- Node2&#45;&gt;Node3 -->
<g id="edge2" class="edge"><title>Node2&#45;&gt;Node3</title>
<path fill="none" stroke="midnightblue" d="M54,-116.753C54,-109.25 54,-98.4238 54,-89.0781"/>
<polygon fill="midnightblue" stroke="midnightblue" points="57.5001,-89.0752 54,-79.0752 50.5001,-89.0752 57.5001,-89.0752"/>
</g>
<!-- Node4 -->
<g id="node4" class="node"><title>Node4</title>
<g id="a_node4"><a xlink:href="__compiler_8h.xhtml" target="_top" xlink:title="_compiler.h">
<polygon fill="white" stroke="black" points="20.4287,-1 20.4287,-21 87.5713,-21 87.5713,-1 20.4287,-1"/>
<text text-anchor="middle" x="54" y="-7" font-family="Helvetica,sans-Serif" font-size="10.00">_compiler.h</text>
</a>
</g>
</g>
<!-- Node3&#45;&gt;Node4 -->
<g id="edge3" class="edge"><title>Node3&#45;&gt;Node4</title>
<path fill="none" stroke="midnightblue" d="M54,-58.7527C54,-51.2504 54,-40.4238 54,-31.0781"/>
<polygon fill="midnightblue" stroke="midnightblue" points="57.5001,-31.0752 54,-21.0752 50.5001,-31.0752 57.5001,-31.0752"/>
</g>
</g>
</svg>
