<?xml version="1.0" encoding="UTF-8" standalone="no"?>
<!DOCTYPE svg PUBLIC "-//W3C//DTD SVG 1.1//EN"
 "http://www.w3.org/Graphics/SVG/1.1/DTD/svg11.dtd">
<!-- Generated by graphviz version 2.30.0 (20130114.0426)
 -->
<!-- Title: /Users/rkwright/Documents/github/readium&#45;sdk&#45;D/ePub3/utilities/basic.h Pages: 1 -->
<svg width="495pt" height="286pt"
 viewBox="0.00 0.00 495.00 286.00" xmlns="http://www.w3.org/2000/svg" xmlns:xlink="http://www.w3.org/1999/xlink">
<g id="graph0" class="graph" transform="scale(1 1) rotate(0) translate(4 282)">
<title>/Users/rkwright/Documents/github/readium&#45;sdk&#45;D/ePub3/utilities/basic.h</title>
<polygon fill="white" stroke="white" points="-4,5 -4,-282 492,-282 492,5 -4,5"/>
<!-- Node1 -->
<g id="node1" class="node"><title>Node1</title>
<polygon fill="#bfbfbf" stroke="black" points="244.966,-233 244.966,-277 391.034,-277 391.034,-233 244.966,-233"/>
<text text-anchor="start" x="252.966" y="-263" font-family="Helvetica,sans-Serif" font-size="10.00">/Users/rkwright/Documents</text>
<text text-anchor="start" x="252.966" y="-251" font-family="Helvetica,sans-Serif" font-size="10.00">/github/readium&#45;sdk&#45;D/ePub3</text>
<text text-anchor="middle" x="318" y="-239" font-family="Helvetica,sans-Serif" font-size="10.00">/utilities/basic.h</text>
</g>
<!-- Node2 -->
<g id="node2" class="node"><title>Node2</title>
<g id="a_node2"><a xlink:href="base_8h.xhtml" target="_top" xlink:title="ePub3/base.h">
<polygon fill="white" stroke="black" points="29.1406,-175 29.1406,-195 106.859,-195 106.859,-175 29.1406,-175"/>
<text text-anchor="middle" x="68" y="-181" font-family="Helvetica,sans-Serif" font-size="10.00">ePub3/base.h</text>
</a>
</g>
</g>
<!-- Node1&#45;&gt;Node2 -->
<g id="edge1" class="edge"><title>Node1&#45;&gt;Node2</title>
<path fill="none" stroke="midnightblue" d="M244.681,-234.057C201.353,-222.272 147.97,-207.752 111.292,-197.775"/>
<polygon fill="midnightblue" stroke="midnightblue" points="111.98,-194.335 101.412,-195.088 110.142,-201.09 111.98,-194.335"/>
</g>
<!-- Node7 -->
<g id="node7" class="node"><title>Node7</title>
<polygon fill="white" stroke="#bfbfbf" points="124.815,-175 124.815,-195 239.185,-195 239.185,-175 124.815,-175"/>
<text text-anchor="middle" x="182" y="-181" font-family="Helvetica,sans-Serif" font-size="10.00">ePub3/xml/xmlstring.h</text>
</g>
<!-- Node1&#45;&gt;Node7 -->
<g id="edge6" class="edge"><title>Node1&#45;&gt;Node7</title>
<path fill="none" stroke="midnightblue" d="M275.714,-232.857C253.968,-221.984 228.108,-209.054 209.067,-199.534"/>
<polygon fill="midnightblue" stroke="midnightblue" points="210.563,-196.368 200.053,-195.027 207.432,-202.629 210.563,-196.368"/>
</g>
<!-- Node8 -->
<g id="node8" class="node"><title>Node8</title>
<polygon fill="white" stroke="#bfbfbf" points="257.219,-175 257.219,-195 308.781,-195 308.781,-175 257.219,-175"/>
<text text-anchor="middle" x="283" y="-181" font-family="Helvetica,sans-Serif" font-size="10.00">sstream</text>
</g>
<!-- Node1&#45;&gt;Node8 -->
<g id="edge7" class="edge"><title>Node1&#45;&gt;Node8</title>
<path fill="none" stroke="midnightblue" d="M307.118,-232.857C302.394,-223.679 296.915,-213.036 292.375,-204.214"/>
<polygon fill="midnightblue" stroke="midnightblue" points="295.426,-202.494 287.737,-195.204 289.202,-205.697 295.426,-202.494"/>
</g>
<!-- Node9 -->
<g id="node9" class="node"><title>Node9</title>
<polygon fill="white" stroke="#bfbfbf" points="326.943,-175 326.943,-195 379.057,-195 379.057,-175 326.943,-175"/>
<text text-anchor="middle" x="353" y="-181" font-family="Helvetica,sans-Serif" font-size="10.00">memory</text>
</g>
<!-- Node1&#45;&gt;Node9 -->
<g id="edge8" class="edge"><title>Node1&#45;&gt;Node9</title>
<path fill="none" stroke="midnightblue" d="M328.882,-232.857C333.606,-223.679 339.085,-213.036 343.625,-204.214"/>
<polygon fill="midnightblue" stroke="midnightblue" points="346.798,-205.697 348.263,-195.204 340.574,-202.494 346.798,-205.697"/>
</g>
<!-- Node10 -->
<g id="node10" class="node"><title>Node10</title>
<polygon fill="white" stroke="#bfbfbf" points="397.384,-175 397.384,-195 440.616,-195 440.616,-175 397.384,-175"/>
<text text-anchor="middle" x="419" y="-181" font-family="Helvetica,sans-Serif" font-size="10.00">vector</text>
</g>
<!-- Node1&#45;&gt;Node10 -->
<g id="edge9" class="edge"><title>Node1&#45;&gt;Node10</title>
<path fill="none" stroke="midnightblue" d="M349.403,-232.857C364.889,-222.431 383.185,-210.113 397.13,-200.724"/>
<polygon fill="midnightblue" stroke="midnightblue" points="399.252,-203.515 405.593,-195.027 395.343,-197.708 399.252,-203.515"/>
</g>
<!-- Node11 -->
<g id="node11" class="node"><title>Node11</title>
<polygon fill="white" stroke="#bfbfbf" points="458.5,-175 458.5,-195 487.5,-195 487.5,-175 458.5,-175"/>
<text text-anchor="middle" x="472.611" y="-181" font-family="Helvetica,sans-Serif" font-size="10.00">list</text>
</g>
<!-- Node1&#45;&gt;Node11 -->
<g id="edge10" class="edge"><title>Node1&#45;&gt;Node11</title>
<path fill="none" stroke="midnightblue" d="M366.193,-232.857C393.783,-220.753 427.183,-206.1 449.204,-196.439"/>
<polygon fill="midnightblue" stroke="midnightblue" points="450.708,-199.602 458.459,-192.379 447.896,-193.192 450.708,-199.602"/>
</g>
<!-- Node3 -->
<g id="node3" class="node"><title>Node3</title>
<g id="a_node3"><a xlink:href="__config_8h.xhtml" target="_top" xlink:title="_config.h">
<polygon fill="white" stroke="black" points="4.70703,-117 4.70703,-137 61.293,-137 61.293,-117 4.70703,-117"/>
<text text-anchor="middle" x="33" y="-123" font-family="Helvetica,sans-Serif" font-size="10.00">_config.h</text>
</a>
</g>
</g>
<!-- Node2&#45;&gt;Node3 -->
<g id="edge2" class="edge"><title>Node2&#45;&gt;Node3</title>
<path fill="none" stroke="midnightblue" d="M62.2205,-174.753C57.2767,-166.843 50.0233,-155.237 43.9802,-145.568"/>
<polygon fill="midnightblue" stroke="midnightblue" points="46.94,-143.7 38.672,-137.075 41.004,-147.41 46.94,-143.7"/>
</g>
<!-- Node6 -->
<g id="node6" class="node"><title>Node6</title>
<polygon fill="white" stroke="#bfbfbf" points="79.1577,-117 79.1577,-137 126.842,-137 126.842,-117 79.1577,-117"/>
<text text-anchor="middle" x="103" y="-123" font-family="Helvetica,sans-Serif" font-size="10.00">stdlib.h</text>
</g>
<!-- Node2&#45;&gt;Node6 -->
<g id="edge5" class="edge"><title>Node2&#45;&gt;Node6</title>
<path fill="none" stroke="midnightblue" d="M73.7795,-174.753C78.7233,-166.843 85.9767,-155.237 92.0198,-145.568"/>
<polygon fill="midnightblue" stroke="midnightblue" points="94.996,-147.41 97.328,-137.075 89.06,-143.7 94.996,-147.41"/>
</g>
<!-- Node4 -->
<g id="node4" class="node"><title>Node4</title>
<g id="a_node4"><a xlink:href="__platform_8h.xhtml" target="_top" xlink:title="_platform.h">
<polygon fill="white" stroke="black" points="-0.012207,-59 -0.012207,-79 66.0122,-79 66.0122,-59 -0.012207,-59"/>
<text text-anchor="middle" x="33" y="-65" font-family="Helvetica,sans-Serif" font-size="10.00">_platform.h</text>
</a>
</g>
</g>
<!-- Node3&#45;&gt;Node4 -->
<g id="edge3" class="edge"><title>Node3&#45;&gt;Node4</title>
<path fill="none" stroke="midnightblue" d="M33,-116.753C33,-109.25 33,-98.4238 33,-89.0781"/>
<polygon fill="midnightblue" stroke="midnightblue" points="36.5001,-89.0752 33,-79.0752 29.5001,-89.0752 36.5001,-89.0752"/>
</g>
<!-- Node5 -->
<g id="node5" class="node"><title>Node5</title>
<g id="a_node5"><a xlink:href="__compiler_8h.xhtml" target="_top" xlink:title="_compiler.h">
<polygon fill="white" stroke="black" points="-0.571289,-1 -0.571289,-21 66.5713,-21 66.5713,-1 -0.571289,-1"/>
<text text-anchor="middle" x="33" y="-7" font-family="Helvetica,sans-Serif" font-size="10.00">_compiler.h</text>
</a>
</g>
</g>
<!-- Node4&#45;&gt;Node5 -->
<g id="edge4" class="edge"><title>Node4&#45;&gt;Node5</title>
<path fill="none" stroke="midnightblue" d="M33,-58.7527C33,-51.2504 33,-40.4238 33,-31.0781"/>
<polygon fill="midnightblue" stroke="midnightblue" points="36.5001,-31.0752 33,-21.0752 29.5001,-31.0752 36.5001,-31.0752"/>
</g>
</g>
</svg>
