<?xml version="1.0" encoding="UTF-8" standalone="no"?>
<!DOCTYPE svg PUBLIC "-//W3C//DTD SVG 1.1//EN"
 "http://www.w3.org/Graphics/SVG/1.1/DTD/svg11.dtd">
<!-- Generated by graphviz version 2.30.0 (20130114.0426)
 -->
<!-- Title: /Users/rkwright/Documents/github/readium&#45;sdk&#45;D/ePub3/utilities/byte_buffer.h Pages: 1 -->
<svg width="883pt" height="230pt"
 viewBox="0.00 0.00 883.00 230.00" xmlns="http://www.w3.org/2000/svg" xmlns:xlink="http://www.w3.org/1999/xlink">
<g id="graph0" class="graph" transform="scale(1 1) rotate(0) translate(4 226)">
<title>/Users/rkwright/Documents/github/readium&#45;sdk&#45;D/ePub3/utilities/byte_buffer.h</title>
<polygon fill="white" stroke="white" points="-4,5 -4,-226 880,-226 880,5 -4,5"/>
<!-- Node1 -->
<g id="node1" class="node"><title>Node1</title>
<polygon fill="#bfbfbf" stroke="black" points="335.966,-177 335.966,-221 482.034,-221 482.034,-177 335.966,-177"/>
<text text-anchor="start" x="343.966" y="-207" font-family="Helvetica,sans-Serif" font-size="10.00">/Users/rkwright/Documents</text>
<text text-anchor="start" x="343.966" y="-195" font-family="Helvetica,sans-Serif" font-size="10.00">/github/readium&#45;sdk&#45;D/ePub3</text>
<text text-anchor="middle" x="409" y="-183" font-family="Helvetica,sans-Serif" font-size="10.00">/utilities/byte_buffer.h</text>
</g>
<!-- Node2 -->
<g id="node2" class="node"><title>Node2</title>
<g id="a_node2"><a xlink:href="filter__chain_8h.xhtml" target="_top" xlink:title="/Users/rkwright/Documents\l/github/readium&#45;sdk&#45;D/ePub3\l/ePub/filter_chain.h">
<polygon fill="white" stroke="black" points="561.966,-95 561.966,-139 708.034,-139 708.034,-95 561.966,-95"/>
<text text-anchor="start" x="569.966" y="-125" font-family="Helvetica,sans-Serif" font-size="10.00">/Users/rkwright/Documents</text>
<text text-anchor="start" x="569.966" y="-113" font-family="Helvetica,sans-Serif" font-size="10.00">/github/readium&#45;sdk&#45;D/ePub3</text>
<text text-anchor="middle" x="635" y="-101" font-family="Helvetica,sans-Serif" font-size="10.00">/ePub/filter_chain.h</text>
</a>
</g>
</g>
<!-- Node1&#45;&gt;Node2 -->
<g id="edge1" class="edge"><title>Node1&#45;&gt;Node2</title>
<path fill="none" stroke="midnightblue" d="M477.882,-173.617C509.097,-162.567 545.641,-149.632 575.626,-139.017"/>
<polygon fill="midnightblue" stroke="midnightblue" points="476.638,-170.345 468.379,-176.981 478.974,-176.943 476.638,-170.345"/>
</g>
<!-- Node6 -->
<g id="node6" class="node"><title>Node6</title>
<g id="a_node6"><a xlink:href="filter__chain__byte__stream_8h.xhtml" target="_top" xlink:title="/Users/rkwright/Documents\l/github/readium&#45;sdk&#45;D/ePub3\l/ePub/filter_chain_byte_stream.h">
<polygon fill="white" stroke="black" points="93.9019,-95 93.9019,-139 256.098,-139 256.098,-95 93.9019,-95"/>
<text text-anchor="start" x="101.902" y="-125" font-family="Helvetica,sans-Serif" font-size="10.00">/Users/rkwright/Documents</text>
<text text-anchor="start" x="101.902" y="-113" font-family="Helvetica,sans-Serif" font-size="10.00">/github/readium&#45;sdk&#45;D/ePub3</text>
<text text-anchor="middle" x="175" y="-101" font-family="Helvetica,sans-Serif" font-size="10.00">/ePub/filter_chain_byte_stream.h</text>
</a>
</g>
</g>
<!-- Node1&#45;&gt;Node6 -->
<g id="edge5" class="edge"><title>Node1&#45;&gt;Node6</title>
<path fill="none" stroke="midnightblue" d="M337.68,-173.617C305.359,-162.567 267.522,-149.632 236.476,-139.017"/>
<polygon fill="midnightblue" stroke="midnightblue" points="336.925,-177.058 347.519,-176.981 339.189,-170.434 336.925,-177.058"/>
</g>
<!-- Node8 -->
<g id="node8" class="node"><title>Node8</title>
<g id="a_node8"><a xlink:href="filter__chain__byte__stream__range_8h.xhtml" target="_top" xlink:title="/Users/rkwright/Documents\l/github/readium&#45;sdk&#45;D/ePub3\l/ePub/filter_chain_byte_stream_range.h">
<polygon fill="white" stroke="black" points="312.333,-95 312.333,-139 505.667,-139 505.667,-95 312.333,-95"/>
<text text-anchor="start" x="320.333" y="-125" font-family="Helvetica,sans-Serif" font-size="10.00">/Users/rkwright/Documents</text>
<text text-anchor="start" x="320.333" y="-113" font-family="Helvetica,sans-Serif" font-size="10.00">/github/readium&#45;sdk&#45;D/ePub3</text>
<text text-anchor="middle" x="409" y="-101" font-family="Helvetica,sans-Serif" font-size="10.00">/ePub/filter_chain_byte_stream_range.h</text>
</a>
</g>
</g>
<!-- Node1&#45;&gt;Node8 -->
<g id="edge8" class="edge"><title>Node1&#45;&gt;Node8</title>
<path fill="none" stroke="midnightblue" d="M409,-166.896C409,-157.609 409,-147.649 409,-139.156"/>
<polygon fill="midnightblue" stroke="midnightblue" points="405.5,-166.981 409,-176.981 412.5,-166.981 405.5,-166.981"/>
</g>
<!-- Node3 -->
<g id="node3" class="node"><title>Node3</title>
<g id="a_node3"><a xlink:href="filter__chain_8cpp.xhtml" target="_top" xlink:title="/Users/rkwright/Documents\l/github/readium&#45;sdk&#45;D/ePub3\l/ePub/filter_chain.cpp">
<polygon fill="white" stroke="black" points="212.966,-7 212.966,-51 359.034,-51 359.034,-7 212.966,-7"/>
<text text-anchor="start" x="220.966" y="-37" font-family="Helvetica,sans-Serif" font-size="10.00">/Users/rkwright/Documents</text>
<text text-anchor="start" x="220.966" y="-25" font-family="Helvetica,sans-Serif" font-size="10.00">/github/readium&#45;sdk&#45;D/ePub3</text>
<text text-anchor="middle" x="286" y="-13" font-family="Helvetica,sans-Serif" font-size="10.00">/ePub/filter_chain.cpp</text>
</a>
</g>
</g>
<!-- Node1&#45;&gt;Node3 -->
<g id="edge11" class="edge"><title>Node1&#45;&gt;Node3</title>
<path fill="none" stroke="midnightblue" d="M339.841,-172.118C325.71,-163.857 312.328,-153.297 303,-140 284.467,-113.581 282.88,-74.8199 284.016,-51.0618"/>
<polygon fill="midnightblue" stroke="midnightblue" points="338.254,-175.239 348.707,-176.969 341.614,-169.098 338.254,-175.239"/>
</g>
<!-- Node7 -->
<g id="node7" class="node"><title>Node7</title>
<g id="a_node7"><a xlink:href="filter__chain__byte__stream_8cpp.xhtml" target="_top" xlink:title="/Users/rkwright/Documents\l/github/readium&#45;sdk&#45;D/ePub3\l/ePub/filter_chain_byte_stream.cpp">
<polygon fill="white" stroke="black" points="-0.378906,-7 -0.378906,-51 172.379,-51 172.379,-7 -0.378906,-7"/>
<text text-anchor="start" x="7.62109" y="-37" font-family="Helvetica,sans-Serif" font-size="10.00">/Users/rkwright/Documents</text>
<text text-anchor="start" x="7.62109" y="-25" font-family="Helvetica,sans-Serif" font-size="10.00">/github/readium&#45;sdk&#45;D/ePub3</text>
<text text-anchor="middle" x="86" y="-13" font-family="Helvetica,sans-Serif" font-size="10.00">/ePub/filter_chain_byte_stream.cpp</text>
</a>
</g>
</g>
<!-- Node1&#45;&gt;Node7 -->
<g id="edge12" class="edge"><title>Node1&#45;&gt;Node7</title>
<path fill="none" stroke="midnightblue" d="M325.695,-194.865C240.072,-189.685 115.132,-176.005 85,-140 64.4084,-115.395 71.2739,-75.7109 78.4272,-51.3357"/>
<polygon fill="midnightblue" stroke="midnightblue" points="325.748,-198.374 335.933,-195.456 326.151,-191.386 325.748,-198.374"/>
</g>
<!-- Node9 -->
<g id="node9" class="node"><title>Node9</title>
<g id="a_node9"><a xlink:href="filter__chain__byte__stream__range_8cpp.xhtml" target="_top" xlink:title="/Users/rkwright/Documents\l/github/readium&#45;sdk&#45;D/ePub3\l/ePub/filter_chain_byte_stream\l_range.cpp">
<polygon fill="white" stroke="black" points="381.072,-1 381.072,-57 534.928,-57 534.928,-1 381.072,-1"/>
<text text-anchor="start" x="389.072" y="-43" font-family="Helvetica,sans-Serif" font-size="10.00">/Users/rkwright/Documents</text>
<text text-anchor="start" x="389.072" y="-31" font-family="Helvetica,sans-Serif" font-size="10.00">/github/readium&#45;sdk&#45;D/ePub3</text>
<text text-anchor="start" x="389.072" y="-19" font-family="Helvetica,sans-Serif" font-size="10.00">/ePub/filter_chain_byte_stream</text>
<text text-anchor="middle" x="458" y="-7" font-family="Helvetica,sans-Serif" font-size="10.00">_range.cpp</text>
</a>
</g>
</g>
<!-- Node1&#45;&gt;Node9 -->
<g id="edge13" class="edge"><title>Node1&#45;&gt;Node9</title>
<path fill="none" stroke="midnightblue" d="M480.749,-171.941C494.013,-163.786 506.143,-153.315 514,-140 524.389,-122.392 521.191,-113.138 514,-94 508.859,-80.3175 499.319,-67.6463 489.552,-57.2504"/>
<polygon fill="midnightblue" stroke="midnightblue" points="478.865,-168.986 471.903,-176.973 482.325,-175.071 478.865,-168.986"/>
</g>
<!-- Node10 -->
<g id="node10" class="node"><title>Node10</title>
<g id="a_node10"><a xlink:href="byte__buffer_8cpp.xhtml" target="_top" xlink:title="/Users/rkwright/Documents\l/github/readium&#45;sdk&#45;D/ePub3\l/utilities/byte_buffer.cpp">
<polygon fill="white" stroke="black" points="725.966,-95 725.966,-139 872.034,-139 872.034,-95 725.966,-95"/>
<text text-anchor="start" x="733.966" y="-125" font-family="Helvetica,sans-Serif" font-size="10.00">/Users/rkwright/Documents</text>
<text text-anchor="start" x="733.966" y="-113" font-family="Helvetica,sans-Serif" font-size="10.00">/github/readium&#45;sdk&#45;D/ePub3</text>
<text text-anchor="middle" x="799" y="-101" font-family="Helvetica,sans-Serif" font-size="10.00">/utilities/byte_buffer.cpp</text>
</a>
</g>
</g>
<!-- Node1&#45;&gt;Node10 -->
<g id="edge14" class="edge"><title>Node1&#45;&gt;Node10</title>
<path fill="none" stroke="midnightblue" d="M492.281,-184.083C554.455,-173.266 641.368,-157.241 717,-140 719.874,-139.345 722.8,-138.658 725.751,-137.948"/>
<polygon fill="midnightblue" stroke="midnightblue" points="491.389,-180.686 482.133,-185.841 492.584,-187.583 491.389,-180.686"/>
</g>
<!-- Node2&#45;&gt;Node3 -->
<g id="edge2" class="edge"><title>Node2&#45;&gt;Node3</title>
<path fill="none" stroke="midnightblue" d="M551.846,-99.8298C499.848,-89.184 431.653,-74.2469 372,-58 364.273,-55.8956 356.212,-53.5184 348.256,-51.0607"/>
<polygon fill="midnightblue" stroke="midnightblue" points="551.194,-103.269 561.691,-101.834 552.59,-96.4095 551.194,-103.269"/>
</g>
<!-- Node4 -->
<g id="node4" class="node"><title>Node4</title>
<g id="a_node4"><a xlink:href="filter__manager__impl_8cpp.xhtml" target="_top" xlink:title="/Users/rkwright/Documents\l/github/readium&#45;sdk&#45;D/ePub3\l/ePub/filter_manager_impl.cpp">
<polygon fill="white" stroke="black" points="724.185,-7 724.185,-51 875.815,-51 875.815,-7 724.185,-7"/>
<text text-anchor="start" x="732.185" y="-37" font-family="Helvetica,sans-Serif" font-size="10.00">/Users/rkwright/Documents</text>
<text text-anchor="start" x="732.185" y="-25" font-family="Helvetica,sans-Serif" font-size="10.00">/github/readium&#45;sdk&#45;D/ePub3</text>
<text text-anchor="middle" x="800" y="-13" font-family="Helvetica,sans-Serif" font-size="10.00">/ePub/filter_manager_impl.cpp</text>
</a>
</g>
</g>
<!-- Node2&#45;&gt;Node4 -->
<g id="edge3" class="edge"><title>Node2&#45;&gt;Node4</title>
<path fill="none" stroke="midnightblue" d="M684.316,-90.2961C708.303,-77.7934 736.782,-62.9497 759.481,-51.1188"/>
<polygon fill="midnightblue" stroke="midnightblue" points="682.614,-87.2363 675.364,-94.962 685.849,-93.4437 682.614,-87.2363"/>
</g>
<!-- Node5 -->
<g id="node5" class="node"><title>Node5</title>
<g id="a_node5"><a xlink:href="package_8cpp.xhtml" target="_top" xlink:title="/Users/rkwright/Documents\l/github/readium&#45;sdk&#45;D/ePub3\l/ePub/package.cpp">
<polygon fill="white" stroke="black" points="559.966,-7 559.966,-51 706.034,-51 706.034,-7 559.966,-7"/>
<text text-anchor="start" x="567.966" y="-37" font-family="Helvetica,sans-Serif" font-size="10.00">/Users/rkwright/Documents</text>
<text text-anchor="start" x="567.966" y="-25" font-family="Helvetica,sans-Serif" font-size="10.00">/github/readium&#45;sdk&#45;D/ePub3</text>
<text text-anchor="middle" x="633" y="-13" font-family="Helvetica,sans-Serif" font-size="10.00">/ePub/package.cpp</text>
</a>
</g>
</g>
<!-- Node2&#45;&gt;Node5 -->
<g id="edge4" class="edge"><title>Node2&#45;&gt;Node5</title>
<path fill="none" stroke="midnightblue" d="M634.267,-84.4986C634.008,-73.3464 633.723,-61.0805 633.489,-51.0139"/>
<polygon fill="midnightblue" stroke="midnightblue" points="630.774,-84.8257 634.506,-94.7416 637.772,-84.6629 630.774,-84.8257"/>
</g>
<!-- Node6&#45;&gt;Node3 -->
<g id="edge6" class="edge"><title>Node6&#45;&gt;Node3</title>
<path fill="none" stroke="midnightblue" d="M210.109,-88.7982C225.826,-76.6211 244.077,-62.4807 258.742,-51.1188"/>
<polygon fill="midnightblue" stroke="midnightblue" points="207.915,-86.0706 202.154,-94.962 212.202,-91.6042 207.915,-86.0706"/>
</g>
<!-- Node6&#45;&gt;Node7 -->
<g id="edge7" class="edge"><title>Node6&#45;&gt;Node7</title>
<path fill="none" stroke="midnightblue" d="M145.58,-87.5715C133.234,-75.6415 119.131,-62.0145 107.747,-51.0139"/>
<polygon fill="midnightblue" stroke="midnightblue" points="143.377,-90.3096 153,-94.7416 148.241,-85.2758 143.377,-90.3096"/>
</g>
<!-- Node8&#45;&gt;Node3 -->
<g id="edge9" class="edge"><title>Node8&#45;&gt;Node3</title>
<path fill="none" stroke="midnightblue" d="M370.574,-89.1329C353.05,-76.8808 332.604,-62.5849 316.205,-51.1188"/>
<polygon fill="midnightblue" stroke="midnightblue" points="368.71,-92.1003 378.911,-94.962 372.721,-86.3634 368.71,-92.1003"/>
</g>
<!-- Node8&#45;&gt;Node9 -->
<g id="edge10" class="edge"><title>Node8&#45;&gt;Node9</title>
<path fill="none" stroke="midnightblue" d="M426.209,-85.7958C431.515,-76.4832 437.323,-66.2896 442.507,-57.1925"/>
<polygon fill="midnightblue" stroke="midnightblue" points="423.022,-84.3202 421.112,-94.7416 429.104,-87.7856 423.022,-84.3202"/>
</g>
</g>
</svg>
