<?xml version="1.0" encoding="UTF-8" standalone="no"?>
<!DOCTYPE svg PUBLIC "-//W3C//DTD SVG 1.1//EN"
 "http://www.w3.org/Graphics/SVG/1.1/DTD/svg11.dtd">
<!-- Generated by graphviz version 2.30.0 (20130114.0426)
 -->
<!-- Title: /Users/rkwright/Documents/github/readium&#45;sdk&#45;D/ePub3/xml/validation/c14n.cpp Pages: 1 -->
<svg width="154pt" height="170pt"
 viewBox="0.00 0.00 154.00 170.00" xmlns="http://www.w3.org/2000/svg" xmlns:xlink="http://www.w3.org/1999/xlink">
<g id="graph0" class="graph" transform="scale(1 1) rotate(0) translate(4 166)">
<title>/Users/rkwright/Documents/github/readium&#45;sdk&#45;D/ePub3/xml/validation/c14n.cpp</title>
<polygon fill="white" stroke="white" points="-4,5 -4,-166 151,-166 151,5 -4,5"/>
<!-- Node1 -->
<g id="node1" class="node"><title>Node1</title>
<polygon fill="#bfbfbf" stroke="black" points="-0.0341797,-117 -0.0341797,-161 146.034,-161 146.034,-117 -0.0341797,-117"/>
<text text-anchor="start" x="7.96582" y="-147" font-family="Helvetica,sans-Serif" font-size="10.00">/Users/rkwright/Documents</text>
<text text-anchor="start" x="7.96582" y="-135" font-family="Helvetica,sans-Serif" font-size="10.00">/github/readium&#45;sdk&#45;D/ePub3</text>
<text text-anchor="middle" x="73" y="-123" font-family="Helvetica,sans-Serif" font-size="10.00">/xml/validation/c14n.cpp</text>
</g>
<!-- Node2 -->
<g id="node2" class="node"><title>Node2</title>
<g id="a_node2"><a xlink:href="c14n_8h.xhtml" target="_top" xlink:title="c14n.h">
<polygon fill="white" stroke="black" points="49.9878,-59 49.9878,-79 96.0122,-79 96.0122,-59 49.9878,-59"/>
<text text-anchor="middle" x="73" y="-65" font-family="Helvetica,sans-Serif" font-size="10.00">c14n.h</text>
</a>
</g>
</g>
<!-- Node1&#45;&gt;Node2 -->
<g id="edge1" class="edge"><title>Node1&#45;&gt;Node2</title>
<path fill="none" stroke="midnightblue" d="M73,-116.857C73,-108.074 73,-97.9484 73,-89.3622"/>
<polygon fill="midnightblue" stroke="midnightblue" points="76.5001,-89.2039 73,-79.2039 69.5001,-89.204 76.5001,-89.2039"/>
</g>
<!-- Node3 -->
<g id="node3" class="node"><title>Node3</title>
<polygon fill="white" stroke="#bfbfbf" points="24.9756,-1 24.9756,-21 121.024,-21 121.024,-1 24.9756,-1"/>
<text text-anchor="middle" x="73" y="-7" font-family="Helvetica,sans-Serif" font-size="10.00">ePub3/xml/base.h</text>
</g>
<!-- Node2&#45;&gt;Node3 -->
<g id="edge2" class="edge"><title>Node2&#45;&gt;Node3</title>
<path fill="none" stroke="midnightblue" d="M73,-58.7527C73,-51.2504 73,-40.4238 73,-31.0781"/>
<polygon fill="midnightblue" stroke="midnightblue" points="76.5001,-31.0752 73,-21.0752 69.5001,-31.0752 76.5001,-31.0752"/>
</g>
</g>
</svg>
