<?xml version="1.0" encoding="UTF-8" standalone="no"?>
<!DOCTYPE svg PUBLIC "-//W3C//DTD SVG 1.1//EN"
 "http://www.w3.org/Graphics/SVG/1.1/DTD/svg11.dtd">
<!-- Generated by graphviz version 2.30.0 (20130114.0426)
 -->
<!-- Title: /Users/rkwright/Documents/github/readium&#45;sdk&#45;D/ePub3/xml/validation/c14n.h Pages: 1 -->
<svg width="154pt" height="112pt"
 viewBox="0.00 0.00 154.00 112.00" xmlns="http://www.w3.org/2000/svg" xmlns:xlink="http://www.w3.org/1999/xlink">
<g id="graph0" class="graph" transform="scale(1 1) rotate(0) translate(4 108)">
<title>/Users/rkwright/Documents/github/readium&#45;sdk&#45;D/ePub3/xml/validation/c14n.h</title>
<polygon fill="white" stroke="white" points="-4,5 -4,-108 151,-108 151,5 -4,5"/>
<!-- Node1 -->
<g id="node1" class="node"><title>Node1</title>
<polygon fill="#bfbfbf" stroke="black" points="-0.0341797,-59 -0.0341797,-103 146.034,-103 146.034,-59 -0.0341797,-59"/>
<text text-anchor="start" x="7.96582" y="-89" font-family="Helvetica,sans-Serif" font-size="10.00">/Users/rkwright/Documents</text>
<text text-anchor="start" x="7.96582" y="-77" font-family="Helvetica,sans-Serif" font-size="10.00">/github/readium&#45;sdk&#45;D/ePub3</text>
<text text-anchor="middle" x="73" y="-65" font-family="Helvetica,sans-Serif" font-size="10.00">/xml/validation/c14n.h</text>
</g>
<!-- Node2 -->
<g id="node2" class="node"><title>Node2</title>
<polygon fill="white" stroke="#bfbfbf" points="24.9756,-1 24.9756,-21 121.024,-21 121.024,-1 24.9756,-1"/>
<text text-anchor="middle" x="73" y="-7" font-family="Helvetica,sans-Serif" font-size="10.00">ePub3/xml/base.h</text>
</g>
<!-- Node1&#45;&gt;Node2 -->
<g id="edge1" class="edge"><title>Node1&#45;&gt;Node2</title>
<path fill="none" stroke="midnightblue" d="M73,-58.8571C73,-50.074 73,-39.9484 73,-31.3622"/>
<polygon fill="midnightblue" stroke="midnightblue" points="76.5001,-31.2039 73,-21.2039 69.5001,-31.204 76.5001,-31.2039"/>
</g>
</g>
</svg>
