<?xml version="1.0" encoding="UTF-8" standalone="no"?>
<!DOCTYPE svg PUBLIC "-//W3C//DTD SVG 1.1//EN"
 "http://www.w3.org/Graphics/SVG/1.1/DTD/svg11.dtd">
<!-- Generated by graphviz version 2.30.0 (20130114.0426)
 -->
<!-- Title: PropertyHolder Pages: 1 -->
<svg width="310pt" height="88pt"
 viewBox="0.00 0.00 310.00 88.00" xmlns="http://www.w3.org/2000/svg" xmlns:xlink="http://www.w3.org/1999/xlink">
<g id="graph0" class="graph" transform="scale(1 1) rotate(0) translate(4 84)">
<title>PropertyHolder</title>
<polygon fill="white" stroke="white" points="-4,5 -4,-84 307,-84 307,5 -4,5"/>
<!-- Node1 -->
<g id="node1" class="node"><title>Node1</title>
<polygon fill="#bfbfbf" stroke="black" points="113.375,-59 113.375,-79 196.625,-79 196.625,-59 113.375,-59"/>
<text text-anchor="middle" x="155" y="-65" font-family="Helvetica,sans-Serif" font-size="10.00">PropertyHolder</text>
</g>
<!-- Node2 -->
<g id="node2" class="node"><title>Node2</title>
<g id="a_node2"><a xlink:href="class_collection.xhtml" target="_top" xlink:title="Collection">
<polygon fill="white" stroke="black" points="-0.955566,-1 -0.955566,-21 58.9556,-21 58.9556,-1 -0.955566,-1"/>
<text text-anchor="middle" x="29" y="-7" font-family="Helvetica,sans-Serif" font-size="10.00">Collection</text>
</a>
</g>
</g>
<!-- Node1&#45;&gt;Node2 -->
<g id="edge1" class="edge"><title>Node1&#45;&gt;Node2</title>
<path fill="none" stroke="midnightblue" d="M125.059,-54.6927C101.749,-44.3328 70.0142,-30.2285 49.5157,-21.1181"/>
<polygon fill="midnightblue" stroke="midnightblue" points="123.916,-58.0149 134.475,-58.878 126.759,-51.6182 123.916,-58.0149"/>
</g>
<!-- Node3 -->
<g id="node3" class="node"><title>Node3</title>
<g id="a_node3"><a xlink:href="class_manifest_item.xhtml" target="_top" xlink:title="ManifestItem">
<polygon fill="white" stroke="black" points="77.3794,-1 77.3794,-21 150.621,-21 150.621,-1 77.3794,-1"/>
<text text-anchor="middle" x="114" y="-7" font-family="Helvetica,sans-Serif" font-size="10.00">ManifestItem</text>
</a>
</g>
</g>
<!-- Node1&#45;&gt;Node3 -->
<g id="edge2" class="edge"><title>Node1&#45;&gt;Node3</title>
<path fill="none" stroke="midnightblue" d="M142.202,-50.5197C135.059,-40.763 126.455,-29.0122 120.644,-21.0752"/>
<polygon fill="midnightblue" stroke="midnightblue" points="139.498,-52.7517 148.23,-58.7527 145.146,-48.6165 139.498,-52.7517"/>
</g>
<!-- Node4 -->
<g id="node4" class="node"><title>Node4</title>
<g id="a_node4"><a xlink:href="class_package.xhtml" target="_top" xlink:title="Package">
<polygon fill="white" stroke="black" points="168.542,-1 168.542,-21 223.458,-21 223.458,-1 168.542,-1"/>
<text text-anchor="middle" x="196" y="-7" font-family="Helvetica,sans-Serif" font-size="10.00">Package</text>
</a>
</g>
</g>
<!-- Node1&#45;&gt;Node4 -->
<g id="edge3" class="edge"><title>Node1&#45;&gt;Node4</title>
<path fill="none" stroke="midnightblue" d="M167.798,-50.5197C174.941,-40.763 183.545,-29.0122 189.356,-21.0752"/>
<polygon fill="midnightblue" stroke="midnightblue" points="164.854,-48.6165 161.77,-58.7527 170.502,-52.7517 164.854,-48.6165"/>
</g>
<!-- Node5 -->
<g id="node5" class="node"><title>Node5</title>
<g id="a_node5"><a xlink:href="class_spine_item.xhtml" target="_top" xlink:title="SpineItem">
<polygon fill="white" stroke="black" points="241.488,-1 241.488,-21 302.512,-21 302.512,-1 241.488,-1"/>
<text text-anchor="middle" x="272" y="-7" font-family="Helvetica,sans-Serif" font-size="10.00">SpineItem</text>
</a>
</g>
</g>
<!-- Node1&#45;&gt;Node5 -->
<g id="edge4" class="edge"><title>Node1&#45;&gt;Node5</title>
<path fill="none" stroke="midnightblue" d="M183.093,-54.5538C204.711,-44.2069 234,-30.1879 252.95,-21.1181"/>
<polygon fill="midnightblue" stroke="midnightblue" points="181.567,-51.4036 174.058,-58.878 184.59,-57.7177 181.567,-51.4036"/>
</g>
</g>
</svg>
