<?xml version="1.0" encoding="UTF-8" standalone="no"?>
<!DOCTYPE svg PUBLIC "-//W3C//DTD SVG 1.1//EN"
 "http://www.w3.org/Graphics/SVG/1.1/DTD/svg11.dtd">
<!-- Generated by graphviz version 2.30.0 (20130114.0426)
 -->
<!-- Title: ArchiveItemInfo Pages: 1 -->
<svg width="145pt" height="100pt"
 viewBox="0.00 0.00 145.24 100.00" xmlns="http://www.w3.org/2000/svg" xmlns:xlink="http://www.w3.org/1999/xlink">
<g id="graph0" class="graph" transform="scale(1 1) rotate(0) translate(4 96)">
<title>ArchiveItemInfo</title>
<polygon fill="white" stroke="white" points="-4,5 -4,-96 142.241,-96 142.241,5 -4,5"/>
<!-- Node1 -->
<g id="node1" class="node"><title>Node1</title>
<polygon fill="#bfbfbf" stroke="black" points="-0.736328,-1 -0.736328,-21 84.7363,-21 84.7363,-1 -0.736328,-1"/>
<text text-anchor="middle" x="42" y="-7" font-family="Helvetica,sans-Serif" font-size="10.00">ArchiveItemInfo</text>
</g>
<!-- Node2 -->
<g id="node2" class="node"><title>Node2</title>
<g id="a_node2"><a xlink:href="classstring.xhtml" target="_top" xlink:title="string">
<polygon fill="white" stroke="black" points="21.7734,-71 21.7734,-91 62.2266,-91 62.2266,-71 21.7734,-71"/>
<text text-anchor="middle" x="42" y="-77" font-family="Helvetica,sans-Serif" font-size="10.00">string</text>
</a>
</g>
</g>
<!-- Node2&#45;&gt;Node1 -->
<g id="edge1" class="edge"><title>Node2&#45;&gt;Node1</title>
<path fill="none" stroke="#9a32cd" stroke-dasharray="5,2" d="M42,-60.5567C42,-47.557 42,-31.0574 42,-21.0255"/>
<polygon fill="#9a32cd" stroke="#9a32cd" points="38.5001,-60.8292 42,-70.8292 45.5001,-60.8293 38.5001,-60.8292"/>
<text text-anchor="middle" x="55.9014" y="-42" font-family="Helvetica,sans-Serif" font-size="10.00"> _path</text>
</g>
<!-- Node2&#45;&gt;Node2 -->
<g id="edge2" class="edge"><title>Node2&#45;&gt;Node2</title>
<path fill="none" stroke="#9a32cd" stroke-dasharray="5,2" d="M72.4158,-86.7822C76.9402,-85.8815 80,-83.954 80,-81 80,-76.1523 71.7602,-74.0694 62.3294,-74.7511"/>
<polygon fill="#9a32cd" stroke="#9a32cd" points="72.1569,-83.2904 62.3294,-87.2489 72.4806,-90.2829 72.1569,-83.2904"/>
<text text-anchor="middle" x="108.621" y="-77" font-family="Helvetica,sans-Serif" font-size="10.00"> EmptyString</text>
</g>
</g>
</svg>
