<?xml version="1.0" encoding="UTF-8" standalone="no"?>
<!DOCTYPE svg PUBLIC "-//W3C//DTD SVG 1.1//EN"
 "http://www.w3.org/Graphics/SVG/1.1/DTD/svg11.dtd">
<!-- Generated by graphviz version 2.30.0 (20130114.0426)
 -->
<!-- Title: NavigationElement Pages: 1 -->
<svg width="148pt" height="184pt"
 viewBox="0.00 0.00 148.00 184.00" xmlns="http://www.w3.org/2000/svg" xmlns:xlink="http://www.w3.org/1999/xlink">
<g id="graph0" class="graph" transform="scale(1 1) rotate(0) translate(4 180)">
<title>NavigationElement</title>
<polygon fill="white" stroke="white" points="-4,5 -4,-180 145,-180 145,5 -4,5"/>
<!-- Node1 -->
<g id="node1" class="node"><title>Node1</title>
<polygon fill="#bfbfbf" stroke="black" points="20.0322,-1 20.0322,-21 119.968,-21 119.968,-1 20.0322,-1"/>
<text text-anchor="middle" x="70" y="-7" font-family="Helvetica,sans-Serif" font-size="10.00">NavigationElement</text>
</g>
<!-- Node2 -->
<g id="node2" class="node"><title>Node2</title>
<g id="a_node2"><a xlink:href="classshared__vector.xhtml" target="_top" xlink:title="shared_vector\&lt; Navigation\lElement \&gt;">
<polygon fill="white" stroke="black" points="2.38086,-71 2.38086,-103 137.619,-103 137.619,-71 2.38086,-71"/>
<text text-anchor="start" x="10.3809" y="-89" font-family="Helvetica,sans-Serif" font-size="10.00">shared_vector&lt; Navigation</text>
<text text-anchor="middle" x="70" y="-77" font-family="Helvetica,sans-Serif" font-size="10.00">Element &gt;</text>
</a>
</g>
</g>
<!-- Node2&#45;&gt;Node1 -->
<g id="edge1" class="edge"><title>Node2&#45;&gt;Node1</title>
<path fill="none" stroke="#9a32cd" stroke-dasharray="5,2" d="M70,-60.4304C70,-46.8589 70,-31.0122 70,-21.2412"/>
<polygon fill="#9a32cd" stroke="#9a32cd" points="66.5001,-60.6671 70,-70.6672 73.5001,-60.6672 66.5001,-60.6671"/>
<text text-anchor="middle" x="91.6797" y="-42" font-family="Helvetica,sans-Serif" font-size="10.00"> _children</text>
</g>
<!-- Node3 -->
<g id="node3" class="node"><title>Node3</title>
<polygon fill="white" stroke="#bfbfbf" points="-0.121582,-143 -0.121582,-175 140.122,-175 140.122,-143 -0.121582,-143"/>
<text text-anchor="start" x="7.87842" y="-161" font-family="Helvetica,sans-Serif" font-size="10.00">std::vector&lt;std::shared</text>
<text text-anchor="middle" x="70" y="-149" font-family="Helvetica,sans-Serif" font-size="10.00">_ptr&lt;NavigationElement &gt; &gt;</text>
</g>
<!-- Node3&#45;&gt;Node2 -->
<g id="edge2" class="edge"><title>Node3&#45;&gt;Node2</title>
<path fill="none" stroke="midnightblue" d="M70,-132.682C70,-122.789 70,-111.776 70,-103.159"/>
<polygon fill="midnightblue" stroke="midnightblue" points="66.5001,-132.811 70,-142.811 73.5001,-132.811 66.5001,-132.811"/>
</g>
</g>
</svg>
