<?xml version="1.0" encoding="UTF-8" standalone="no"?>
<!DOCTYPE svg PUBLIC "-//W3C//DTD SVG 1.1//EN"
 "http://www.w3.org/Graphics/SVG/1.1/DTD/svg11.dtd">
<!-- Generated by graphviz version 2.30.0 (20130114.0426)
 -->
<!-- Title: Package Pages: 1 -->
<svg width="467pt" height="158pt"
 viewBox="0.00 0.00 467.00 158.00" xmlns="http://www.w3.org/2000/svg" xmlns:xlink="http://www.w3.org/1999/xlink">
<g id="graph0" class="graph" transform="scale(1 1) rotate(0) translate(4 154)">
<title>Package</title>
<polygon fill="white" stroke="white" points="-4,5 -4,-154 464,-154 464,5 -4,5"/>
<!-- Node1 -->
<g id="node1" class="node"><title>Node1</title>
<polygon fill="#bfbfbf" stroke="black" points="191.542,-1 191.542,-21 246.458,-21 246.458,-1 191.542,-1"/>
<text text-anchor="middle" x="219" y="-7" font-family="Helvetica,sans-Serif" font-size="10.00">Package</text>
</g>
<!-- Node2 -->
<g id="node2" class="node"><title>Node2</title>
<g id="a_node2"><a xlink:href="class_package_base.xhtml" target="_top" xlink:title="PackageBase">
<polygon fill="white" stroke="black" points="-0.854492,-59 -0.854492,-79 76.8545,-79 76.8545,-59 -0.854492,-59"/>
<text text-anchor="middle" x="38" y="-65" font-family="Helvetica,sans-Serif" font-size="10.00">PackageBase</text>
</a>
</g>
</g>
<!-- Node2&#45;&gt;Node1 -->
<g id="edge1" class="edge"><title>Node2&#45;&gt;Node1</title>
<path fill="none" stroke="midnightblue" d="M77.214,-55.8675C111.64,-45.2164 160.845,-29.9927 191.311,-20.5666"/>
<polygon fill="midnightblue" stroke="midnightblue" points="76.0023,-52.5786 67.4836,-58.878 78.0713,-59.2659 76.0023,-52.5786"/>
</g>
<!-- Node3 -->
<g id="node3" class="node"><title>Node3</title>
<g id="a_node3"><a xlink:href="class_pointer_type.xhtml" target="_top" xlink:title="PointerType\&lt; Package \&gt;">
<polygon fill="white" stroke="black" points="95.2393,-59 95.2393,-79 220.761,-79 220.761,-59 95.2393,-59"/>
<text text-anchor="middle" x="158" y="-65" font-family="Helvetica,sans-Serif" font-size="10.00">PointerType&lt; Package &gt;</text>
</a>
</g>
</g>
<!-- Node3&#45;&gt;Node1 -->
<g id="edge2" class="edge"><title>Node3&#45;&gt;Node1</title>
<path fill="none" stroke="midnightblue" d="M175.751,-51.704C186.617,-41.7286 200.116,-29.3361 209.115,-21.0752"/>
<polygon fill="midnightblue" stroke="midnightblue" points="173.073,-49.4117 168.073,-58.7527 177.806,-54.5683 173.073,-49.4117"/>
</g>
<!-- Node4 -->
<g id="node4" class="node"><title>Node4</title>
<polygon fill="white" stroke="#bfbfbf" points="98.5815,-117 98.5815,-149 217.418,-149 217.418,-117 98.5815,-117"/>
<text text-anchor="start" x="106.582" y="-135" font-family="Helvetica,sans-Serif" font-size="10.00">std::enable_shared</text>
<text text-anchor="middle" x="158" y="-123" font-family="Helvetica,sans-Serif" font-size="10.00">_from_this&lt; Package &gt;</text>
</g>
<!-- Node4&#45;&gt;Node3 -->
<g id="edge3" class="edge"><title>Node4&#45;&gt;Node3</title>
<path fill="none" stroke="midnightblue" d="M158,-106.922C158,-97.1719 158,-86.6099 158,-79.2904"/>
<polygon fill="midnightblue" stroke="midnightblue" points="154.5,-106.991 158,-116.992 161.5,-106.992 154.5,-106.991"/>
</g>
<!-- Node5 -->
<g id="node5" class="node"><title>Node5</title>
<g id="a_node5"><a xlink:href="class_property_holder.xhtml" target="_top" xlink:title="PropertyHolder">
<polygon fill="white" stroke="black" points="238.375,-59 238.375,-79 321.625,-79 321.625,-59 238.375,-59"/>
<text text-anchor="middle" x="280" y="-65" font-family="Helvetica,sans-Serif" font-size="10.00">PropertyHolder</text>
</a>
</g>
</g>
<!-- Node5&#45;&gt;Node1 -->
<g id="edge4" class="edge"><title>Node5&#45;&gt;Node1</title>
<path fill="none" stroke="midnightblue" d="M262.249,-51.704C251.383,-41.7286 237.884,-29.3361 228.885,-21.0752"/>
<polygon fill="midnightblue" stroke="midnightblue" points="260.194,-54.5683 269.927,-58.7527 264.927,-49.4117 260.194,-54.5683"/>
</g>
<!-- Node6 -->
<g id="node6" class="node"><title>Node6</title>
<g id="a_node6"><a xlink:href="class_owned_by.xhtml" target="_top" xlink:title="OwnedBy\&lt; Container \&gt;">
<polygon fill="white" stroke="black" points="340.025,-59 340.025,-79 459.975,-79 459.975,-59 340.025,-59"/>
<text text-anchor="middle" x="400" y="-65" font-family="Helvetica,sans-Serif" font-size="10.00">OwnedBy&lt; Container &gt;</text>
</a>
</g>
</g>
<!-- Node6&#45;&gt;Node1 -->
<g id="edge5" class="edge"><title>Node6&#45;&gt;Node1</title>
<path fill="none" stroke="midnightblue" d="M360.786,-55.8675C326.36,-45.2164 277.155,-29.9927 246.689,-20.5666"/>
<polygon fill="midnightblue" stroke="midnightblue" points="359.929,-59.2659 370.516,-58.878 361.998,-52.5786 359.929,-59.2659"/>
</g>
</g>
</svg>
