<?xml version="1.0" encoding="UTF-8" standalone="no"?>
<!DOCTYPE svg PUBLIC "-//W3C//DTD SVG 1.1//EN"
 "http://www.w3.org/Graphics/SVG/1.1/DTD/svg11.dtd">
<!-- Generated by graphviz version 2.30.0 (20130114.0426)
 -->
<!-- Title: MediaSupportInfo Pages: 1 -->
<svg width="424pt" height="184pt"
 viewBox="0.00 0.00 424.24 184.00" xmlns="http://www.w3.org/2000/svg" xmlns:xlink="http://www.w3.org/1999/xlink">
<g id="graph0" class="graph" transform="scale(1 1) rotate(0) translate(4 180)">
<title>MediaSupportInfo</title>
<polygon fill="white" stroke="white" points="-4,5 -4,-180 421.241,-180 421.241,5 -4,5"/>
<!-- Node1 -->
<g id="node1" class="node"><title>Node1</title>
<polygon fill="#bfbfbf" stroke="black" points="177.53,-1 177.53,-21 272.47,-21 272.47,-1 177.53,-1"/>
<text text-anchor="middle" x="225" y="-7" font-family="Helvetica,sans-Serif" font-size="10.00">MediaSupportInfo</text>
</g>
<!-- Node2 -->
<g id="node2" class="node"><title>Node2</title>
<g id="a_node2"><a xlink:href="class_pointer_type.xhtml" target="_top" xlink:title="PointerType\&lt; MediaSupport\lInfo \&gt;">
<polygon fill="white" stroke="black" points="8.87598,-71 8.87598,-103 149.124,-103 149.124,-71 8.87598,-71"/>
<text text-anchor="start" x="16.876" y="-89" font-family="Helvetica,sans-Serif" font-size="10.00">PointerType&lt; MediaSupport</text>
<text text-anchor="middle" x="79" y="-77" font-family="Helvetica,sans-Serif" font-size="10.00">Info &gt;</text>
</a>
</g>
</g>
<!-- Node2&#45;&gt;Node1 -->
<g id="edge1" class="edge"><title>Node2&#45;&gt;Node1</title>
<path fill="none" stroke="midnightblue" d="M117.937,-66.2647C146.874,-51.5979 185.016,-32.2659 207.092,-21.0767"/>
<polygon fill="midnightblue" stroke="midnightblue" points="116.235,-63.2035 108.898,-70.8464 119.4,-69.4473 116.235,-63.2035"/>
</g>
<!-- Node3 -->
<g id="node3" class="node"><title>Node3</title>
<polygon fill="white" stroke="#bfbfbf" points="-0.430664,-143 -0.430664,-175 158.431,-175 158.431,-143 -0.430664,-143"/>
<text text-anchor="start" x="7.56934" y="-161" font-family="Helvetica,sans-Serif" font-size="10.00">std::enable_shared</text>
<text text-anchor="middle" x="79" y="-149" font-family="Helvetica,sans-Serif" font-size="10.00">_from_this&lt; MediaSupportInfo &gt;</text>
</g>
<!-- Node3&#45;&gt;Node2 -->
<g id="edge2" class="edge"><title>Node3&#45;&gt;Node2</title>
<path fill="none" stroke="midnightblue" d="M79,-132.682C79,-122.789 79,-111.776 79,-103.159"/>
<polygon fill="midnightblue" stroke="midnightblue" points="75.5001,-132.811 79,-142.811 82.5001,-132.811 75.5001,-132.811"/>
</g>
<!-- Node4 -->
<g id="node4" class="node"><title>Node4</title>
<g id="a_node4"><a xlink:href="class_owned_by.xhtml" target="_top" xlink:title="OwnedBy\&lt; Package \&gt;">
<polygon fill="white" stroke="black" points="167.247,-77 167.247,-97 282.753,-97 282.753,-77 167.247,-77"/>
<text text-anchor="middle" x="225" y="-83" font-family="Helvetica,sans-Serif" font-size="10.00">OwnedBy&lt; Package &gt;</text>
</a>
</g>
</g>
<!-- Node4&#45;&gt;Node1 -->
<g id="edge3" class="edge"><title>Node4&#45;&gt;Node1</title>
<path fill="none" stroke="midnightblue" d="M225,-66.8665C225,-52.1615 225,-32.5021 225,-21.1481"/>
<polygon fill="midnightblue" stroke="midnightblue" points="221.5,-66.9261 225,-76.9261 228.5,-66.9262 221.5,-66.9261"/>
</g>
<!-- Node5 -->
<g id="node5" class="node"><title>Node5</title>
<g id="a_node5"><a xlink:href="classstring.xhtml" target="_top" xlink:title="string">
<polygon fill="white" stroke="black" points="300.773,-77 300.773,-97 341.227,-97 341.227,-77 300.773,-77"/>
<text text-anchor="middle" x="321" y="-83" font-family="Helvetica,sans-Serif" font-size="10.00">string</text>
</a>
</g>
</g>
<!-- Node5&#45;&gt;Node1 -->
<g id="edge4" class="edge"><title>Node5&#45;&gt;Node1</title>
<path fill="none" stroke="#9a32cd" stroke-dasharray="5,2" d="M301.066,-70.6342C281.686,-55.6954 252.897,-33.5039 236.868,-21.1481"/>
<polygon fill="#9a32cd" stroke="#9a32cd" points="299.172,-73.5931 309.229,-76.9261 303.445,-68.049 299.172,-73.5931"/>
<text text-anchor="middle" x="304.63" y="-42" font-family="Helvetica,sans-Serif" font-size="10.00"> _mediaType</text>
</g>
<!-- Node5&#45;&gt;Node5 -->
<g id="edge5" class="edge"><title>Node5&#45;&gt;Node5</title>
<path fill="none" stroke="#9a32cd" stroke-dasharray="5,2" d="M351.416,-93.1224C355.94,-92.1686 359,-90.1278 359,-87 359,-81.8672 350.76,-79.6617 341.329,-80.3835"/>
<polygon fill="#9a32cd" stroke="#9a32cd" points="351.146,-89.6313 341.329,-93.6165 351.489,-96.6229 351.146,-89.6313"/>
<text text-anchor="middle" x="387.621" y="-83" font-family="Helvetica,sans-Serif" font-size="10.00"> EmptyString</text>
</g>
</g>
</svg>
