<?xml version="1.0" encoding="UTF-8" standalone="no"?>
<!DOCTYPE svg PUBLIC "-//W3C//DTD SVG 1.1//EN"
 "http://www.w3.org/Graphics/SVG/1.1/DTD/svg11.dtd">
<!-- Generated by graphviz version 2.30.0 (20130114.0426)
 -->
<!-- Title: xml::ParserError Pages: 1 -->
<svg width="96pt" height="146pt"
 viewBox="0.00 0.00 96.00 146.00" xmlns="http://www.w3.org/2000/svg" xmlns:xlink="http://www.w3.org/1999/xlink">
<g id="graph0" class="graph" transform="scale(1 1) rotate(0) translate(4 142)">
<title>xml::ParserError</title>
<polygon fill="white" stroke="white" points="-4,5 -4,-142 93,-142 93,5 -4,5"/>
<!-- Node1 -->
<g id="node1" class="node"><title>Node1</title>
<polygon fill="#bfbfbf" stroke="black" points="-0.391602,-1 -0.391602,-21 88.3916,-21 88.3916,-1 -0.391602,-1"/>
<text text-anchor="middle" x="44" y="-7" font-family="Helvetica,sans-Serif" font-size="10.00">xml::ParserError</text>
</g>
<!-- Node2 -->
<g id="node2" class="node"><title>Node2</title>
<g id="a_node2"><a xlink:href="classxml_1_1exception.xhtml" target="_top" xlink:title="xml::exception">
<polygon fill="white" stroke="black" points="4.04199,-59 4.04199,-79 83.958,-79 83.958,-59 4.04199,-59"/>
<text text-anchor="middle" x="44" y="-65" font-family="Helvetica,sans-Serif" font-size="10.00">xml::exception</text>
</a>
</g>
</g>
<!-- Node2&#45;&gt;Node1 -->
<g id="edge1" class="edge"><title>Node2&#45;&gt;Node1</title>
<path fill="none" stroke="midnightblue" d="M44,-48.7065C44,-39.3384 44,-28.5262 44,-21.0752"/>
<polygon fill="midnightblue" stroke="midnightblue" points="40.5001,-48.7527 44,-58.7527 47.5001,-48.7528 40.5001,-48.7527"/>
</g>
<!-- Node3 -->
<g id="node3" class="node"><title>Node3</title>
<polygon fill="white" stroke="#bfbfbf" points="5.14795,-117 5.14795,-137 82.8521,-137 82.8521,-117 5.14795,-117"/>
<text text-anchor="middle" x="44" y="-123" font-family="Helvetica,sans-Serif" font-size="10.00">std::exception</text>
</g>
<!-- Node3&#45;&gt;Node2 -->
<g id="edge2" class="edge"><title>Node3&#45;&gt;Node2</title>
<path fill="none" stroke="midnightblue" d="M44,-106.707C44,-97.3384 44,-86.5262 44,-79.0752"/>
<polygon fill="midnightblue" stroke="midnightblue" points="40.5001,-106.753 44,-116.753 47.5001,-106.753 40.5001,-106.753"/>
</g>
</g>
</svg>
