<?xml version="1.0" encoding="UTF-8" standalone="no"?>
<!DOCTYPE svg PUBLIC "-//W3C//DTD SVG 1.1//EN"
 "http://www.w3.org/Graphics/SVG/1.1/DTD/svg11.dtd">
<!-- Generated by graphviz version 2.30.0 (20130114.0426)
 -->
<!-- Title: NavigationTable Pages: 1 -->
<svg width="416pt" height="158pt"
 viewBox="0.00 0.00 416.00 158.00" xmlns="http://www.w3.org/2000/svg" xmlns:xlink="http://www.w3.org/1999/xlink">
<g id="graph0" class="graph" transform="scale(1 1) rotate(0) translate(4 154)">
<title>NavigationTable</title>
<polygon fill="white" stroke="white" points="-4,5 -4,-154 413,-154 413,5 -4,5"/>
<!-- Node1 -->
<g id="node1" class="node"><title>Node1</title>
<polygon fill="#bfbfbf" stroke="black" points="152.421,-1 152.421,-21 239.579,-21 239.579,-1 152.421,-1"/>
<text text-anchor="middle" x="196" y="-7" font-family="Helvetica,sans-Serif" font-size="10.00">NavigationTable</text>
</g>
<!-- Node2 -->
<g id="node2" class="node"><title>Node2</title>
<g id="a_node2"><a xlink:href="class_navigation_element.xhtml" target="_top" xlink:title="NavigationElement">
<polygon fill="white" stroke="black" points="-0.967773,-59 -0.967773,-79 98.9678,-79 98.9678,-59 -0.967773,-59"/>
<text text-anchor="middle" x="49" y="-65" font-family="Helvetica,sans-Serif" font-size="10.00">NavigationElement</text>
</a>
</g>
</g>
<!-- Node2&#45;&gt;Node1 -->
<g id="edge1" class="edge"><title>Node2&#45;&gt;Node1</title>
<path fill="none" stroke="midnightblue" d="M82.4843,-55.2441C109.8,-44.8381 147.723,-30.3912 172.065,-21.1181"/>
<polygon fill="midnightblue" stroke="midnightblue" points="81.0441,-52.0473 72.9453,-58.878 83.5361,-58.5887 81.0441,-52.0473"/>
</g>
<!-- Node3 -->
<g id="node3" class="node"><title>Node3</title>
<g id="a_node3"><a xlink:href="class_pointer_type.xhtml" target="_top" xlink:title="PointerType\&lt; NavigationTable \&gt;">
<polygon fill="white" stroke="black" points="117.119,-59 117.119,-79 274.881,-79 274.881,-59 117.119,-59"/>
<text text-anchor="middle" x="196" y="-65" font-family="Helvetica,sans-Serif" font-size="10.00">PointerType&lt; NavigationTable &gt;</text>
</a>
</g>
</g>
<!-- Node3&#45;&gt;Node1 -->
<g id="edge2" class="edge"><title>Node3&#45;&gt;Node1</title>
<path fill="none" stroke="midnightblue" d="M196,-48.7065C196,-39.3384 196,-28.5262 196,-21.0752"/>
<polygon fill="midnightblue" stroke="midnightblue" points="192.5,-48.7527 196,-58.7527 199.5,-48.7528 192.5,-48.7527"/>
</g>
<!-- Node4 -->
<g id="node4" class="node"><title>Node4</title>
<polygon fill="white" stroke="#bfbfbf" points="120.461,-117 120.461,-149 271.539,-149 271.539,-117 120.461,-117"/>
<text text-anchor="start" x="128.461" y="-135" font-family="Helvetica,sans-Serif" font-size="10.00">std::enable_shared</text>
<text text-anchor="middle" x="196" y="-123" font-family="Helvetica,sans-Serif" font-size="10.00">_from_this&lt; NavigationTable &gt;</text>
</g>
<!-- Node4&#45;&gt;Node3 -->
<g id="edge3" class="edge"><title>Node4&#45;&gt;Node3</title>
<path fill="none" stroke="midnightblue" d="M196,-106.922C196,-97.1719 196,-86.6099 196,-79.2904"/>
<polygon fill="midnightblue" stroke="midnightblue" points="192.5,-106.991 196,-116.992 199.5,-106.992 192.5,-106.991"/>
</g>
<!-- Node5 -->
<g id="node5" class="node"><title>Node5</title>
<g id="a_node5"><a xlink:href="class_owned_by.xhtml" target="_top" xlink:title="OwnedBy\&lt; Package \&gt;">
<polygon fill="white" stroke="black" points="293.247,-59 293.247,-79 408.753,-79 408.753,-59 293.247,-59"/>
<text text-anchor="middle" x="351" y="-65" font-family="Helvetica,sans-Serif" font-size="10.00">OwnedBy&lt; Package &gt;</text>
</a>
</g>
</g>
<!-- Node5&#45;&gt;Node1 -->
<g id="edge4" class="edge"><title>Node5&#45;&gt;Node1</title>
<path fill="none" stroke="midnightblue" d="M316.041,-55.3698C287.118,-44.92 246.74,-30.3319 220.981,-21.0253"/>
<polygon fill="midnightblue" stroke="midnightblue" points="315.157,-58.7718 325.752,-58.878 317.536,-52.1882 315.157,-58.7718"/>
</g>
</g>
</svg>
