<?xml version="1.0" encoding="UTF-8" standalone="no"?>
<!DOCTYPE svg PUBLIC "-//W3C//DTD SVG 1.1//EN"
 "http://www.w3.org/Graphics/SVG/1.1/DTD/svg11.dtd">
<!-- Generated by graphviz version 2.30.0 (20130114.0426)
 -->
<!-- Title: NavigationElement Pages: 1 -->
<svg width="272pt" height="88pt"
 viewBox="0.00 0.00 272.00 88.00" xmlns="http://www.w3.org/2000/svg" xmlns:xlink="http://www.w3.org/1999/xlink">
<g id="graph0" class="graph" transform="scale(1 1) rotate(0) translate(4 84)">
<title>NavigationElement</title>
<polygon fill="white" stroke="white" points="-4,5 -4,-84 269,-84 269,5 -4,5"/>
<!-- Node1 -->
<g id="node1" class="node"><title>Node1</title>
<polygon fill="#bfbfbf" stroke="black" points="66.0322,-59 66.0322,-79 165.968,-79 165.968,-59 66.0322,-59"/>
<text text-anchor="middle" x="116" y="-65" font-family="Helvetica,sans-Serif" font-size="10.00">NavigationElement</text>
</g>
<!-- Node2 -->
<g id="node2" class="node"><title>Node2</title>
<g id="a_node2"><a xlink:href="class_glossary.xhtml" target="_top" xlink:title="Glossary">
<polygon fill="white" stroke="black" points="-0.726562,-1 -0.726562,-21 54.7266,-21 54.7266,-1 -0.726562,-1"/>
<text text-anchor="middle" x="27" y="-7" font-family="Helvetica,sans-Serif" font-size="10.00">Glossary</text>
</a>
</g>
</g>
<!-- Node1&#45;&gt;Node2 -->
<g id="edge1" class="edge"><title>Node1&#45;&gt;Node2</title>
<path fill="none" stroke="midnightblue" d="M92.4036,-53.1528C76.1938,-42.9534 55.1957,-29.7411 41.4231,-21.0752"/>
<polygon fill="midnightblue" stroke="midnightblue" points="90.9756,-56.3895 101.303,-58.7527 94.7035,-50.4647 90.9756,-56.3895"/>
</g>
<!-- Node3 -->
<g id="node3" class="node"><title>Node3</title>
<g id="a_node3"><a xlink:href="class_navigation_point.xhtml" target="_top" xlink:title="NavigationPoint">
<polygon fill="white" stroke="black" points="72.978,-1 72.978,-21 159.022,-21 159.022,-1 72.978,-1"/>
<text text-anchor="middle" x="116" y="-7" font-family="Helvetica,sans-Serif" font-size="10.00">NavigationPoint</text>
</a>
</g>
</g>
<!-- Node1&#45;&gt;Node3 -->
<g id="edge2" class="edge"><title>Node1&#45;&gt;Node3</title>
<path fill="none" stroke="midnightblue" d="M116,-48.7065C116,-39.3384 116,-28.5262 116,-21.0752"/>
<polygon fill="midnightblue" stroke="midnightblue" points="112.5,-48.7527 116,-58.7527 119.5,-48.7528 112.5,-48.7527"/>
</g>
<!-- Node4 -->
<g id="node4" class="node"><title>Node4</title>
<g id="a_node4"><a xlink:href="class_navigation_table.xhtml" target="_top" xlink:title="NavigationTable">
<polygon fill="white" stroke="black" points="177.421,-1 177.421,-21 264.579,-21 264.579,-1 177.421,-1"/>
<text text-anchor="middle" x="221" y="-7" font-family="Helvetica,sans-Serif" font-size="10.00">NavigationTable</text>
</a>
</g>
</g>
<!-- Node1&#45;&gt;Node4 -->
<g id="edge3" class="edge"><title>Node1&#45;&gt;Node4</title>
<path fill="none" stroke="midnightblue" d="M142.244,-54.0034C161.566,-43.6979 187.28,-29.9841 203.984,-21.0752"/>
<polygon fill="midnightblue" stroke="midnightblue" points="140.515,-50.9586 133.339,-58.7527 143.809,-57.135 140.515,-50.9586"/>
</g>
</g>
</svg>
