<?xml version="1.0" encoding="UTF-8" standalone="no"?>
<!DOCTYPE svg PUBLIC "-//W3C//DTD SVG 1.1//EN"
 "http://www.w3.org/Graphics/SVG/1.1/DTD/svg11.dtd">
<!-- Generated by graphviz version 2.30.0 (20130114.0426)
 -->
<!-- Title: NavigationPoint Pages: 1 -->
<svg width="460pt" height="158pt"
 viewBox="0.00 0.00 460.00 158.00" xmlns="http://www.w3.org/2000/svg" xmlns:xlink="http://www.w3.org/1999/xlink">
<g id="graph0" class="graph" transform="scale(1 1) rotate(0) translate(4 154)">
<title>NavigationPoint</title>
<polygon fill="white" stroke="white" points="-4,5 -4,-154 457,-154 457,5 -4,5"/>
<!-- Node1 -->
<g id="node1" class="node"><title>Node1</title>
<polygon fill="#bfbfbf" stroke="black" points="151.978,-1 151.978,-21 238.022,-21 238.022,-1 151.978,-1"/>
<text text-anchor="middle" x="195" y="-7" font-family="Helvetica,sans-Serif" font-size="10.00">NavigationPoint</text>
</g>
<!-- Node2 -->
<g id="node2" class="node"><title>Node2</title>
<g id="a_node2"><a xlink:href="class_navigation_element.xhtml" target="_top" xlink:title="NavigationElement">
<polygon fill="white" stroke="black" points="-0.967773,-59 -0.967773,-79 98.9678,-79 98.9678,-59 -0.967773,-59"/>
<text text-anchor="middle" x="49" y="-65" font-family="Helvetica,sans-Serif" font-size="10.00">NavigationElement</text>
</a>
</g>
</g>
<!-- Node2&#45;&gt;Node1 -->
<g id="edge1" class="edge"><title>Node2&#45;&gt;Node1</title>
<path fill="none" stroke="midnightblue" d="M82.2565,-55.2441C109.386,-44.8381 147.051,-30.3912 171.228,-21.1181"/>
<polygon fill="midnightblue" stroke="midnightblue" points="80.8657,-52.0289 72.7824,-58.878 83.3726,-58.5646 80.8657,-52.0289"/>
</g>
<!-- Node3 -->
<g id="node3" class="node"><title>Node3</title>
<g id="a_node3"><a xlink:href="class_pointer_type.xhtml" target="_top" xlink:title="PointerType\&lt; NavigationPoint \&gt;">
<polygon fill="white" stroke="black" points="116.675,-59 116.675,-79 273.325,-79 273.325,-59 116.675,-59"/>
<text text-anchor="middle" x="195" y="-65" font-family="Helvetica,sans-Serif" font-size="10.00">PointerType&lt; NavigationPoint &gt;</text>
</a>
</g>
</g>
<!-- Node3&#45;&gt;Node1 -->
<g id="edge2" class="edge"><title>Node3&#45;&gt;Node1</title>
<path fill="none" stroke="midnightblue" d="M195,-48.7065C195,-39.3384 195,-28.5262 195,-21.0752"/>
<polygon fill="midnightblue" stroke="midnightblue" points="191.5,-48.7527 195,-58.7527 198.5,-48.7528 191.5,-48.7527"/>
</g>
<!-- Node4 -->
<g id="node4" class="node"><title>Node4</title>
<polygon fill="white" stroke="#bfbfbf" points="120.018,-117 120.018,-149 269.982,-149 269.982,-117 120.018,-117"/>
<text text-anchor="start" x="128.018" y="-135" font-family="Helvetica,sans-Serif" font-size="10.00">std::enable_shared</text>
<text text-anchor="middle" x="195" y="-123" font-family="Helvetica,sans-Serif" font-size="10.00">_from_this&lt; NavigationPoint &gt;</text>
</g>
<!-- Node4&#45;&gt;Node3 -->
<g id="edge3" class="edge"><title>Node4&#45;&gt;Node3</title>
<path fill="none" stroke="midnightblue" d="M195,-106.922C195,-97.1719 195,-86.6099 195,-79.2904"/>
<polygon fill="midnightblue" stroke="midnightblue" points="191.5,-106.991 195,-116.992 198.5,-106.992 191.5,-106.991"/>
</g>
<!-- Node5 -->
<g id="node5" class="node"><title>Node5</title>
<g id="a_node5"><a xlink:href="class_owned_by.xhtml" target="_top" xlink:title="OwnedBy\&lt; NavigationElement \&gt;">
<polygon fill="white" stroke="black" points="291.737,-59 291.737,-79 452.263,-79 452.263,-59 291.737,-59"/>
<text text-anchor="middle" x="372" y="-65" font-family="Helvetica,sans-Serif" font-size="10.00">OwnedBy&lt; NavigationElement &gt;</text>
</a>
</g>
</g>
<!-- Node5&#45;&gt;Node1 -->
<g id="edge4" class="edge"><title>Node5&#45;&gt;Node1</title>
<path fill="none" stroke="midnightblue" d="M333.371,-55.7784C300.262,-45.3032 253.327,-30.4538 223.526,-21.0253"/>
<polygon fill="midnightblue" stroke="midnightblue" points="332.578,-59.1984 343.168,-58.878 334.69,-52.5245 332.578,-59.1984"/>
</g>
</g>
</svg>
