<?xml version="1.0" encoding="UTF-8" standalone="no"?>
<!DOCTYPE svg PUBLIC "-//W3C//DTD SVG 1.1//EN"
 "http://www.w3.org/Graphics/SVG/1.1/DTD/svg11.dtd">
<!-- Generated by graphviz version 2.30.0 (20130114.0426)
 -->
<!-- Title: RunLoop Pages: 1 -->
<svg width="134pt" height="158pt"
 viewBox="0.00 0.00 134.00 158.00" xmlns="http://www.w3.org/2000/svg" xmlns:xlink="http://www.w3.org/1999/xlink">
<g id="graph0" class="graph" transform="scale(1 1) rotate(0) translate(4 154)">
<title>RunLoop</title>
<polygon fill="white" stroke="white" points="-4,5 -4,-154 131,-154 131,5 -4,5"/>
<!-- Node1 -->
<g id="node1" class="node"><title>Node1</title>
<polygon fill="#bfbfbf" stroke="black" points="34.7046,-1 34.7046,-21 91.2954,-21 91.2954,-1 34.7046,-1"/>
<text text-anchor="middle" x="63" y="-7" font-family="Helvetica,sans-Serif" font-size="10.00">RunLoop</text>
</g>
<!-- Node2 -->
<g id="node2" class="node"><title>Node2</title>
<g id="a_node2"><a xlink:href="class_pointer_type.xhtml" target="_top" xlink:title="PointerType\&lt; RunLoop \&gt;">
<polygon fill="white" stroke="black" points="-0.598145,-59 -0.598145,-79 126.598,-79 126.598,-59 -0.598145,-59"/>
<text text-anchor="middle" x="63" y="-65" font-family="Helvetica,sans-Serif" font-size="10.00">PointerType&lt; RunLoop &gt;</text>
</a>
</g>
</g>
<!-- Node2&#45;&gt;Node1 -->
<g id="edge1" class="edge"><title>Node2&#45;&gt;Node1</title>
<path fill="none" stroke="midnightblue" d="M63,-48.7065C63,-39.3384 63,-28.5262 63,-21.0752"/>
<polygon fill="midnightblue" stroke="midnightblue" points="59.5001,-48.7527 63,-58.7527 66.5001,-48.7528 59.5001,-48.7527"/>
</g>
<!-- Node3 -->
<g id="node3" class="node"><title>Node3</title>
<polygon fill="white" stroke="#bfbfbf" points="2.74414,-117 2.74414,-149 123.256,-149 123.256,-117 2.74414,-117"/>
<text text-anchor="start" x="10.7441" y="-135" font-family="Helvetica,sans-Serif" font-size="10.00">std::enable_shared</text>
<text text-anchor="middle" x="63" y="-123" font-family="Helvetica,sans-Serif" font-size="10.00">_from_this&lt; RunLoop &gt;</text>
</g>
<!-- Node3&#45;&gt;Node2 -->
<g id="edge2" class="edge"><title>Node3&#45;&gt;Node2</title>
<path fill="none" stroke="midnightblue" d="M63,-106.922C63,-97.1719 63,-86.6099 63,-79.2904"/>
<polygon fill="midnightblue" stroke="midnightblue" points="59.5001,-106.991 63,-116.992 66.5001,-106.992 59.5001,-106.991"/>
</g>
</g>
</svg>
