<?xml version="1.0" encoding="UTF-8" standalone="no"?>
<!DOCTYPE svg PUBLIC "-//W3C//DTD SVG 1.1//EN"
 "http://www.w3.org/Graphics/SVG/1.1/DTD/svg11.dtd">
<!-- Generated by graphviz version 2.30.0 (20130114.0426)
 -->
<!-- Title: __epub3_compressed_pair_imp&lt; _T1, _T2, 3 &gt; Pages: 1 -->
<svg width="136pt" height="100pt"
 viewBox="0.00 0.00 136.00 100.00" xmlns="http://www.w3.org/2000/svg" xmlns:xlink="http://www.w3.org/1999/xlink">
<g id="graph0" class="graph" transform="scale(1 1) rotate(0) translate(4 96)">
<title>__epub3_compressed_pair_imp&lt; _T1, _T2, 3 &gt;</title>
<polygon fill="white" stroke="white" points="-4,5 -4,-96 133,-96 133,5 -4,5"/>
<!-- Node1 -->
<g id="node1" class="node"><title>Node1</title>
<polygon fill="#bfbfbf" stroke="black" points="-0.142578,-1 -0.142578,-33 128.143,-33 128.143,-1 -0.142578,-1"/>
<text text-anchor="start" x="7.85742" y="-19" font-family="Helvetica,sans-Serif" font-size="10.00">__epub3_compressed</text>
<text text-anchor="middle" x="64" y="-7" font-family="Helvetica,sans-Serif" font-size="10.00">_pair_imp&lt; _T1, _T2, 3 &gt;</text>
</g>
<!-- Node2 -->
<g id="node2" class="node"><title>Node2</title>
<polygon fill="white" stroke="#bfbfbf" points="22.3843,-71 22.3843,-91 55.6157,-91 55.6157,-71 22.3843,-71"/>
<text text-anchor="middle" x="39" y="-77" font-family="Helvetica,sans-Serif" font-size="10.00">_T1</text>
</g>
<!-- Node2&#45;&gt;Node1 -->
<g id="edge1" class="edge"><title>Node2&#45;&gt;Node1</title>
<path fill="none" stroke="#8b1a1a" d="M46.5168,-61.3584C50.1114,-52.4438 54.3634,-41.8989 57.774,-33.4404"/>
<polygon fill="#8b1a1a" stroke="#8b1a1a" points="43.1825,-60.2684 42.6888,-70.8517 49.6746,-62.8862 43.1825,-60.2684"/>
</g>
<!-- Node3 -->
<g id="node3" class="node"><title>Node3</title>
<polygon fill="white" stroke="#bfbfbf" points="73.3843,-71 73.3843,-91 106.616,-91 106.616,-71 73.3843,-71"/>
<text text-anchor="middle" x="90" y="-77" font-family="Helvetica,sans-Serif" font-size="10.00">_T2</text>
</g>
<!-- Node3&#45;&gt;Node1 -->
<g id="edge2" class="edge"><title>Node3&#45;&gt;Node1</title>
<path fill="none" stroke="#8b1a1a" d="M82.1826,-61.3584C78.4442,-52.4438 74.0221,-41.8989 70.475,-33.4404"/>
<polygon fill="#8b1a1a" stroke="#8b1a1a" points="79.0686,-62.9833 86.1636,-70.8517 85.524,-60.2762 79.0686,-62.9833"/>
</g>
</g>
</svg>
