<?xml version="1.0" encoding="UTF-8" standalone="no"?>
<!DOCTYPE svg PUBLIC "-//W3C//DTD SVG 1.1//EN"
 "http://www.w3.org/Graphics/SVG/1.1/DTD/svg11.dtd">
<!-- Generated by graphviz version 2.30.0 (20130114.0426)
 -->
<!-- Title: RunLoop::EventSource Pages: 1 -->
<svg width="291pt" height="158pt"
 viewBox="0.00 0.00 291.00 158.00" xmlns="http://www.w3.org/2000/svg" xmlns:xlink="http://www.w3.org/1999/xlink">
<g id="graph0" class="graph" transform="scale(1 1) rotate(0) translate(4 154)">
<title>RunLoop::EventSource</title>
<polygon fill="white" stroke="white" points="-4,5 -4,-154 288,-154 288,5 -4,5"/>
<!-- Node1 -->
<g id="node1" class="node"><title>Node1</title>
<polygon fill="#bfbfbf" stroke="black" points="86.2983,-1 86.2983,-21 205.702,-21 205.702,-1 86.2983,-1"/>
<text text-anchor="middle" x="146" y="-7" font-family="Helvetica,sans-Serif" font-size="10.00">RunLoop::EventSource</text>
</g>
<!-- Node2 -->
<g id="node2" class="node"><title>Node2</title>
<g id="a_node2"><a xlink:href="class_pointer_type.xhtml" target="_top" xlink:title="PointerType\&lt; EventSource \&gt;">
<polygon fill="white" stroke="black" points="-0.930664,-59 -0.930664,-79 142.931,-79 142.931,-59 -0.930664,-59"/>
<text text-anchor="middle" x="71" y="-65" font-family="Helvetica,sans-Serif" font-size="10.00">PointerType&lt; EventSource &gt;</text>
</a>
</g>
</g>
<!-- Node2&#45;&gt;Node1 -->
<g id="edge1" class="edge"><title>Node2&#45;&gt;Node1</title>
<path fill="none" stroke="midnightblue" d="M91.6548,-52.5778C105.204,-42.4611 122.457,-29.5791 133.846,-21.0752"/>
<polygon fill="midnightblue" stroke="midnightblue" points="89.3035,-49.9653 83.3847,-58.7527 93.4916,-55.5743 89.3035,-49.9653"/>
</g>
<!-- Node3 -->
<g id="node3" class="node"><title>Node3</title>
<polygon fill="white" stroke="#bfbfbf" points="3.80078,-117 3.80078,-149 138.199,-149 138.199,-117 3.80078,-117"/>
<text text-anchor="start" x="11.8008" y="-135" font-family="Helvetica,sans-Serif" font-size="10.00">std::enable_shared</text>
<text text-anchor="middle" x="71" y="-123" font-family="Helvetica,sans-Serif" font-size="10.00">_from_this&lt;EventSource &gt;</text>
</g>
<!-- Node3&#45;&gt;Node2 -->
<g id="edge2" class="edge"><title>Node3&#45;&gt;Node2</title>
<path fill="none" stroke="midnightblue" d="M71,-106.922C71,-97.1719 71,-86.6099 71,-79.2904"/>
<polygon fill="midnightblue" stroke="midnightblue" points="67.5001,-106.991 71,-116.992 74.5001,-106.992 67.5001,-106.991"/>
</g>
<!-- Node4 -->
<g id="node4" class="node"><title>Node4</title>
<g id="a_node4"><a xlink:href="class_run_loop_1_1___source_base.xhtml" target="_top" xlink:title="RunLoop::_SourceBase">
<polygon fill="white" stroke="black" points="160.907,-59 160.907,-79 283.093,-79 283.093,-59 160.907,-59"/>
<text text-anchor="middle" x="222" y="-65" font-family="Helvetica,sans-Serif" font-size="10.00">RunLoop::_SourceBase</text>
</a>
</g>
</g>
<!-- Node4&#45;&gt;Node1 -->
<g id="edge3" class="edge"><title>Node4&#45;&gt;Node1</title>
<path fill="none" stroke="midnightblue" d="M201.07,-52.5778C187.34,-42.4611 169.857,-29.5791 158.316,-21.0752"/>
<polygon fill="midnightblue" stroke="midnightblue" points="199.323,-55.6384 209.45,-58.7527 203.476,-50.003 199.323,-55.6384"/>
</g>
</g>
</svg>
