<?xml version="1.0" encoding="UTF-8" standalone="no"?>
<!DOCTYPE svg PUBLIC "-//W3C//DTD SVG 1.1//EN"
 "http://www.w3.org/Graphics/SVG/1.1/DTD/svg11.dtd">
<!-- Generated by graphviz version 2.30.0 (20130114.0426)
 -->
<!-- Title: promise_moved Pages: 1 -->
<svg width="94pt" height="146pt"
 viewBox="0.00 0.00 94.00 146.00" xmlns="http://www.w3.org/2000/svg" xmlns:xlink="http://www.w3.org/1999/xlink">
<g id="graph0" class="graph" transform="scale(1 1) rotate(0) translate(4 142)">
<title>promise_moved</title>
<polygon fill="white" stroke="white" points="-4,5 -4,-142 91,-142 91,5 -4,5"/>
<!-- Node1 -->
<g id="node1" class="node"><title>Node1</title>
<polygon fill="#bfbfbf" stroke="black" points="-0.571289,-1 -0.571289,-21 86.5713,-21 86.5713,-1 -0.571289,-1"/>
<text text-anchor="middle" x="43" y="-7" font-family="Helvetica,sans-Serif" font-size="10.00">promise_moved</text>
</g>
<!-- Node2 -->
<g id="node2" class="node"><title>Node2</title>
<g id="a_node2"><a xlink:href="classfuture__error.xhtml" target="_top" xlink:title="future_error">
<polygon fill="white" stroke="black" points="8.87695,-59 8.87695,-79 77.123,-79 77.123,-59 8.87695,-59"/>
<text text-anchor="middle" x="43" y="-65" font-family="Helvetica,sans-Serif" font-size="10.00">future_error</text>
</a>
</g>
</g>
<!-- Node2&#45;&gt;Node1 -->
<g id="edge1" class="edge"><title>Node2&#45;&gt;Node1</title>
<path fill="none" stroke="midnightblue" d="M43,-48.7065C43,-39.3384 43,-28.5262 43,-21.0752"/>
<polygon fill="midnightblue" stroke="midnightblue" points="39.5001,-48.7527 43,-58.7527 46.5001,-48.7528 39.5001,-48.7527"/>
</g>
<!-- Node3 -->
<g id="node3" class="node"><title>Node3</title>
<polygon fill="white" stroke="#bfbfbf" points="1.93115,-117 1.93115,-137 84.0688,-137 84.0688,-117 1.93115,-117"/>
<text text-anchor="middle" x="43" y="-123" font-family="Helvetica,sans-Serif" font-size="10.00">std::logic_error</text>
</g>
<!-- Node3&#45;&gt;Node2 -->
<g id="edge2" class="edge"><title>Node3&#45;&gt;Node2</title>
<path fill="none" stroke="midnightblue" d="M43,-106.707C43,-97.3384 43,-86.5262 43,-79.0752"/>
<polygon fill="midnightblue" stroke="midnightblue" points="39.5001,-106.753 43,-116.753 46.5001,-106.753 39.5001,-106.753"/>
</g>
</g>
</svg>
