<?xml version="1.0" encoding="UTF-8" standalone="no"?>
<!DOCTYPE svg PUBLIC "-//W3C//DTD SVG 1.1//EN"
 "http://www.w3.org/Graphics/SVG/1.1/DTD/svg11.dtd">
<!-- Generated by graphviz version 2.30.0 (20130114.0426)
 -->
<!-- Title: SMILData::TimeContainer Pages: 1 -->
<svg width="516pt" height="142pt"
 viewBox="0.00 0.00 516.00 142.00" xmlns="http://www.w3.org/2000/svg" xmlns:xlink="http://www.w3.org/1999/xlink">
<g id="graph0" class="graph" transform="scale(1 1) rotate(0) translate(4 138)">
<title>SMILData::TimeContainer</title>
<polygon fill="white" stroke="white" points="-4,5 -4,-138 513,-138 513,5 -4,5"/>
<!-- Node1 -->
<g id="node1" class="node"><title>Node1</title>
<polygon fill="#bfbfbf" stroke="black" points="376.383,-39 376.383,-59 507.617,-59 507.617,-39 376.383,-39"/>
<text text-anchor="middle" x="442" y="-45" font-family="Helvetica,sans-Serif" font-size="10.00">SMILData::TimeContainer</text>
</g>
<!-- Node2 -->
<g id="node2" class="node"><title>Node2</title>
<g id="a_node2"><a xlink:href="class_s_m_i_l_data_1_1_time_node.xhtml" target="_top" xlink:title="SMILData::TimeNode">
<polygon fill="white" stroke="black" points="200.109,-69 200.109,-89 311.891,-89 311.891,-69 200.109,-69"/>
<text text-anchor="middle" x="256" y="-75" font-family="Helvetica,sans-Serif" font-size="10.00">SMILData::TimeNode</text>
</a>
</g>
</g>
<!-- Node2&#45;&gt;Node1 -->
<g id="edge1" class="edge"><title>Node2&#45;&gt;Node1</title>
<path fill="none" stroke="midnightblue" d="M322.079,-68.3893C340.717,-65.3505 360.972,-62.0481 379.395,-59.0443"/>
<polygon fill="midnightblue" stroke="midnightblue" points="321.513,-64.9354 312.206,-69.999 322.639,-71.8441 321.513,-64.9354"/>
</g>
<!-- Node3 -->
<g id="node3" class="node"><title>Node3</title>
<g id="a_node3"><a xlink:href="class_owned_by.xhtml" target="_top" xlink:title="OwnedBy\&lt; SMILData \&gt;">
<polygon fill="white" stroke="black" points="2.47314,-114 2.47314,-134 123.527,-134 123.527,-114 2.47314,-114"/>
<text text-anchor="middle" x="63" y="-120" font-family="Helvetica,sans-Serif" font-size="10.00">OwnedBy&lt; SMILData &gt;</text>
</a>
</g>
</g>
<!-- Node3&#45;&gt;Node2 -->
<g id="edge2" class="edge"><title>Node3&#45;&gt;Node2</title>
<path fill="none" stroke="midnightblue" d="M116.768,-111.568C146.846,-104.481 184.048,-95.7165 212.279,-89.0652"/>
<polygon fill="midnightblue" stroke="midnightblue" points="115.795,-108.201 106.864,-113.901 117.4,-115.015 115.795,-108.201"/>
</g>
<!-- Node4 -->
<g id="node4" class="node"><title>Node4</title>
<polygon fill="white" stroke="#bfbfbf" points="0.246582,-63 0.246582,-95 125.753,-95 125.753,-63 0.246582,-63"/>
<text text-anchor="start" x="8.24658" y="-81" font-family="Helvetica,sans-Serif" font-size="10.00">std::enable_shared</text>
<text text-anchor="middle" x="63" y="-69" font-family="Helvetica,sans-Serif" font-size="10.00">_from_this&lt; TimeNode &gt;</text>
</g>
<!-- Node4&#45;&gt;Node2 -->
<g id="edge3" class="edge"><title>Node4&#45;&gt;Node2</title>
<path fill="none" stroke="midnightblue" d="M136.246,-79C157.397,-79 180.169,-79 200.058,-79"/>
<polygon fill="midnightblue" stroke="midnightblue" points="136.012,-75.5001 126.012,-79 136.012,-82.5001 136.012,-75.5001"/>
</g>
<!-- Node5 -->
<g id="node5" class="node"><title>Node5</title>
<polygon fill="white" stroke="#bfbfbf" points="4.55566,-12 4.55566,-44 121.444,-44 121.444,-12 4.55566,-12"/>
<text text-anchor="start" x="12.5557" y="-30" font-family="Helvetica,sans-Serif" font-size="10.00">shared_ptr&lt; SMILData</text>
<text text-anchor="middle" x="63" y="-18" font-family="Helvetica,sans-Serif" font-size="10.00">::TimeContainer &gt;</text>
</g>
<!-- Node5&#45;&gt;Node2 -->
<g id="edge4" class="edge"><title>Node5&#45;&gt;Node2</title>
<path fill="none" stroke="#9a32cd" stroke-dasharray="5,2" d="M131.595,-46.0489C160.445,-53.7523 193.019,-62.4501 217.454,-68.9746"/>
<polygon fill="#9a32cd" stroke="#9a32cd" points="132.13,-42.5692 121.565,-43.3708 130.324,-49.3322 132.13,-42.5692"/>
<text text-anchor="middle" x="163" y="-60" font-family="Helvetica,sans-Serif" font-size="10.00"> _parent</text>
</g>
<!-- Node6 -->
<g id="node6" class="node"><title>Node6</title>
<g id="a_node6"><a xlink:href="classstring.xhtml" target="_top" xlink:title="string">
<polygon fill="white" stroke="black" points="235.773,-0 235.773,-20 276.227,-20 276.227,-0 235.773,-0"/>
<text text-anchor="middle" x="256" y="-6" font-family="Helvetica,sans-Serif" font-size="10.00">string</text>
</a>
</g>
</g>
<!-- Node6&#45;&gt;Node1 -->
<g id="edge5" class="edge"><title>Node6&#45;&gt;Node1</title>
<path fill="none" stroke="#9a32cd" stroke-dasharray="5,2" d="M286.206,-16.1904C315.041,-22.3022 359.618,-31.7506 393.543,-38.9413"/>
<polygon fill="#9a32cd" stroke="#9a32cd" points="286.852,-12.7496 276.343,-14.1 285.4,-19.5975 286.852,-12.7496"/>
<text text-anchor="middle" x="344" y="-32" font-family="Helvetica,sans-Serif" font-size="10.00"> _type</text>
</g>
<!-- Node6&#45;&gt;Node6 -->
<g id="edge6" class="edge"><title>Node6&#45;&gt;Node6</title>
<path fill="none" stroke="#9a32cd" stroke-dasharray="5,2" d="M239.838,-29.9218C241.186,-34.5731 246.574,-38 256,-38 271.469,-38 276.061,-28.7715 269.777,-20.0477"/>
<polygon fill="#9a32cd" stroke="#9a32cd" points="243.277,-30.5899 242.223,-20.0477 236.473,-28.9461 243.277,-30.5899"/>
<text text-anchor="middle" x="256" y="-40" font-family="Helvetica,sans-Serif" font-size="10.00"> EmptyString</text>
</g>
</g>
</svg>
