<?xml version="1.0" encoding="UTF-8" standalone="no"?>
<!DOCTYPE svg PUBLIC "-//W3C//DTD SVG 1.1//EN"
 "http://www.w3.org/Graphics/SVG/1.1/DTD/svg11.dtd">
<!-- Generated by graphviz version 2.30.0 (20130114.0426)
 -->
<!-- Title: Node Pages: 1 -->
<svg width="194pt" height="146pt"
 viewBox="0.00 0.00 194.00 146.00" xmlns="http://www.w3.org/2000/svg" xmlns:xlink="http://www.w3.org/1999/xlink">
<g id="graph0" class="graph" transform="scale(1 1) rotate(0) translate(4 142)">
<title>Node</title>
<polygon fill="white" stroke="white" points="-4,5 -4,-142 191,-142 191,5 -4,5"/>
<!-- Node1 -->
<g id="node1" class="node"><title>Node1</title>
<polygon fill="#bfbfbf" stroke="black" points="77.0469,-59 77.0469,-79 116.953,-79 116.953,-59 77.0469,-59"/>
<text text-anchor="middle" x="97" y="-65" font-family="Helvetica,sans-Serif" font-size="10.00">Node</text>
</g>
<!-- Node3 -->
<g id="node3" class="node"><title>Node3</title>
<g id="a_node3"><a xlink:href="class_document.xhtml" target="_top" xlink:title="Document">
<polygon fill="white" stroke="black" points="-0.788086,-1 -0.788086,-21 60.7881,-21 60.7881,-1 -0.788086,-1"/>
<text text-anchor="middle" x="30" y="-7" font-family="Helvetica,sans-Serif" font-size="10.00">Document</text>
</a>
</g>
</g>
<!-- Node1&#45;&gt;Node3 -->
<g id="edge2" class="edge"><title>Node1&#45;&gt;Node3</title>
<path fill="none" stroke="midnightblue" d="M78.2017,-52.288C66.1514,-42.2161 50.9352,-29.4981 40.8578,-21.0752"/>
<polygon fill="midnightblue" stroke="midnightblue" points="76.0189,-55.0251 85.9363,-58.7527 80.5081,-49.6541 76.0189,-55.0251"/>
</g>
<!-- Node4 -->
<g id="node4" class="node"><title>Node4</title>
<g id="a_node4"><a xlink:href="class_d_t_d.xhtml" target="_top" xlink:title="DTD">
<polygon fill="white" stroke="black" points="78.7241,-1 78.7241,-21 115.276,-21 115.276,-1 78.7241,-1"/>
<text text-anchor="middle" x="97" y="-7" font-family="Helvetica,sans-Serif" font-size="10.00">DTD</text>
</a>
</g>
</g>
<!-- Node1&#45;&gt;Node4 -->
<g id="edge3" class="edge"><title>Node1&#45;&gt;Node4</title>
<path fill="none" stroke="midnightblue" d="M97,-48.7065C97,-39.3384 97,-28.5262 97,-21.0752"/>
<polygon fill="midnightblue" stroke="midnightblue" points="93.5001,-48.7527 97,-58.7527 100.5,-48.7528 93.5001,-48.7527"/>
</g>
<!-- Node5 -->
<g id="node5" class="node"><title>Node5</title>
<g id="a_node5"><a xlink:href="class_element.xhtml" target="_top" xlink:title="Element">
<polygon fill="white" stroke="black" points="133.658,-1 133.658,-21 186.342,-21 186.342,-1 133.658,-1"/>
<text text-anchor="middle" x="160" y="-7" font-family="Helvetica,sans-Serif" font-size="10.00">Element</text>
</a>
</g>
</g>
<!-- Node1&#45;&gt;Node5 -->
<g id="edge4" class="edge"><title>Node1&#45;&gt;Node5</title>
<path fill="none" stroke="midnightblue" d="M115.004,-51.9967C126.282,-41.9719 140.406,-29.4171 149.79,-21.0752"/>
<polygon fill="midnightblue" stroke="midnightblue" points="112.552,-49.4931 107.403,-58.7527 117.203,-54.725 112.552,-49.4931"/>
</g>
<!-- Node2 -->
<g id="node2" class="node"><title>Node2</title>
<polygon fill="white" stroke="#bfbfbf" points="37.9478,-117 37.9478,-137 156.052,-137 156.052,-117 37.9478,-117"/>
<text text-anchor="middle" x="97" y="-123" font-family="Helvetica,sans-Serif" font-size="10.00">WrapperBase&lt; Node &gt;</text>
</g>
<!-- Node2&#45;&gt;Node1 -->
<g id="edge1" class="edge"><title>Node2&#45;&gt;Node1</title>
<path fill="none" stroke="midnightblue" d="M97,-106.707C97,-97.3384 97,-86.5262 97,-79.0752"/>
<polygon fill="midnightblue" stroke="midnightblue" points="93.5001,-106.753 97,-116.753 100.5,-106.753 93.5001,-106.753"/>
</g>
</g>
</svg>
