<?xml version="1.0" encoding="UTF-8" standalone="no"?>
<!DOCTYPE svg PUBLIC "-//W3C//DTD SVG 1.1//EN"
 "http://www.w3.org/Graphics/SVG/1.1/DTD/svg11.dtd">
<!-- Generated by graphviz version 2.30.0 (20130114.0426)
 -->
<!-- Title: Collection Pages: 1 -->
<svg width="475pt" height="158pt"
 viewBox="0.00 0.00 475.00 158.00" xmlns="http://www.w3.org/2000/svg" xmlns:xlink="http://www.w3.org/1999/xlink">
<g id="graph0" class="graph" transform="scale(1 1) rotate(0) translate(4 154)">
<title>Collection</title>
<polygon fill="white" stroke="white" points="-4,5 -4,-154 472,-154 472,5 -4,5"/>
<!-- Node1 -->
<g id="node1" class="node"><title>Node1</title>
<polygon fill="#bfbfbf" stroke="black" points="235.044,-1 235.044,-21 294.956,-21 294.956,-1 235.044,-1"/>
<text text-anchor="middle" x="265" y="-7" font-family="Helvetica,sans-Serif" font-size="10.00">Collection</text>
</g>
<!-- Node2 -->
<g id="node2" class="node"><title>Node2</title>
<g id="a_node2"><a xlink:href="class_pointer_type.xhtml" target="_top" xlink:title="PointerType\&lt; Collection \&gt;">
<polygon fill="white" stroke="black" points="-0.258301,-59 -0.258301,-79 130.258,-79 130.258,-59 -0.258301,-59"/>
<text text-anchor="middle" x="65" y="-65" font-family="Helvetica,sans-Serif" font-size="10.00">PointerType&lt; Collection &gt;</text>
</a>
</g>
</g>
<!-- Node2&#45;&gt;Node1 -->
<g id="edge1" class="edge"><title>Node2&#45;&gt;Node1</title>
<path fill="none" stroke="midnightblue" d="M107.384,-56.1324C145.585,-45.4362 200.811,-29.9729 234.729,-20.476"/>
<polygon fill="midnightblue" stroke="midnightblue" points="106.264,-52.8113 97.5786,-58.878 108.152,-59.552 106.264,-52.8113"/>
</g>
<!-- Node3 -->
<g id="node3" class="node"><title>Node3</title>
<polygon fill="white" stroke="#bfbfbf" points="3.08398,-117 3.08398,-149 126.916,-149 126.916,-117 3.08398,-117"/>
<text text-anchor="start" x="11.084" y="-135" font-family="Helvetica,sans-Serif" font-size="10.00">std::enable_shared</text>
<text text-anchor="middle" x="65" y="-123" font-family="Helvetica,sans-Serif" font-size="10.00">_from_this&lt; Collection &gt;</text>
</g>
<!-- Node3&#45;&gt;Node2 -->
<g id="edge2" class="edge"><title>Node3&#45;&gt;Node2</title>
<path fill="none" stroke="midnightblue" d="M65,-106.922C65,-97.1719 65,-86.6099 65,-79.2904"/>
<polygon fill="midnightblue" stroke="midnightblue" points="61.5001,-106.991 65,-116.992 68.5001,-106.992 61.5001,-106.991"/>
</g>
<!-- Node4 -->
<g id="node4" class="node"><title>Node4</title>
<g id="a_node4"><a xlink:href="class_owned_by.xhtml" target="_top" xlink:title="OwnedBy\&lt; Package \&gt;">
<polygon fill="white" stroke="black" points="148.247,-59 148.247,-79 263.753,-79 263.753,-59 148.247,-59"/>
<text text-anchor="middle" x="206" y="-65" font-family="Helvetica,sans-Serif" font-size="10.00">OwnedBy&lt; Package &gt;</text>
</a>
</g>
</g>
<!-- Node4&#45;&gt;Node1 -->
<g id="edge3" class="edge"><title>Node4&#45;&gt;Node1</title>
<path fill="none" stroke="midnightblue" d="M223.169,-51.704C233.679,-41.7286 246.735,-29.3361 255.439,-21.0752"/>
<polygon fill="midnightblue" stroke="midnightblue" points="220.586,-49.3299 215.743,-58.7527 225.405,-54.407 220.586,-49.3299"/>
</g>
<!-- Node5 -->
<g id="node5" class="node"><title>Node5</title>
<g id="a_node5"><a xlink:href="class_x_m_l_identifiable.xhtml" target="_top" xlink:title="XMLIdentifiable">
<polygon fill="white" stroke="black" points="281.535,-59 281.535,-79 366.465,-79 366.465,-59 281.535,-59"/>
<text text-anchor="middle" x="324" y="-65" font-family="Helvetica,sans-Serif" font-size="10.00">XMLIdentifiable</text>
</a>
</g>
</g>
<!-- Node5&#45;&gt;Node1 -->
<g id="edge4" class="edge"><title>Node5&#45;&gt;Node1</title>
<path fill="none" stroke="midnightblue" d="M306.831,-51.704C296.321,-41.7286 283.265,-29.3361 274.561,-21.0752"/>
<polygon fill="midnightblue" stroke="midnightblue" points="304.595,-54.407 314.257,-58.7527 309.414,-49.3299 304.595,-54.407"/>
</g>
<!-- Node6 -->
<g id="node6" class="node"><title>Node6</title>
<g id="a_node6"><a xlink:href="class_property_holder.xhtml" target="_top" xlink:title="PropertyHolder">
<polygon fill="white" stroke="black" points="384.375,-59 384.375,-79 467.625,-79 467.625,-59 384.375,-59"/>
<text text-anchor="middle" x="426" y="-65" font-family="Helvetica,sans-Serif" font-size="10.00">PropertyHolder</text>
</a>
</g>
</g>
<!-- Node6&#45;&gt;Node1 -->
<g id="edge5" class="edge"><title>Node6&#45;&gt;Node1</title>
<path fill="none" stroke="midnightblue" d="M390.081,-55.5065C360.012,-45.0475 317.821,-30.3725 290.948,-21.0253"/>
<polygon fill="midnightblue" stroke="midnightblue" points="389.179,-58.8985 399.774,-58.878 391.479,-52.287 389.179,-58.8985"/>
</g>
</g>
</svg>
