<?xml version="1.0" encoding="UTF-8" standalone="no"?>
<!DOCTYPE svg PUBLIC "-//W3C//DTD SVG 1.1//EN"
 "http://www.w3.org/Graphics/SVG/1.1/DTD/svg11.dtd">
<!-- Generated by graphviz version 2.30.0 (20130114.0426)
 -->
<!-- Title: ObjectPreprocessor Pages: 1 -->
<svg width="407pt" height="172pt"
 viewBox="0.00 0.00 407.24 172.00" xmlns="http://www.w3.org/2000/svg" xmlns:xlink="http://www.w3.org/1999/xlink">
<g id="graph0" class="graph" transform="scale(1 1) rotate(0) translate(4 168)">
<title>ObjectPreprocessor</title>
<polygon fill="white" stroke="white" points="-4,5 -4,-168 404.241,-168 404.241,5 -4,5"/>
<!-- Node1 -->
<g id="node1" class="node"><title>Node1</title>
<polygon fill="#bfbfbf" stroke="black" points="125.815,-1 125.815,-21 230.185,-21 230.185,-1 125.815,-1"/>
<text text-anchor="middle" x="178" y="-7" font-family="Helvetica,sans-Serif" font-size="10.00">ObjectPreprocessor</text>
</g>
<!-- Node2 -->
<g id="node2" class="node"><title>Node2</title>
<g id="a_node2"><a xlink:href="class_content_filter.xhtml" target="_top" xlink:title="ContentFilter">
<polygon fill="white" stroke="black" points="-0.623047,-71 -0.623047,-91 72.623,-91 72.623,-71 -0.623047,-71"/>
<text text-anchor="middle" x="36" y="-77" font-family="Helvetica,sans-Serif" font-size="10.00">ContentFilter</text>
</a>
</g>
</g>
<!-- Node2&#45;&gt;Node1 -->
<g id="edge1" class="edge"><title>Node2&#45;&gt;Node1</title>
<path fill="none" stroke="midnightblue" d="M64.1538,-66.5179C92.2786,-53.0497 134.732,-32.72 159.066,-21.0672"/>
<polygon fill="midnightblue" stroke="midnightblue" points="62.364,-63.4943 54.8565,-70.9701 65.3874,-69.8077 62.364,-63.4943"/>
</g>
<!-- Node3 -->
<g id="node3" class="node"><title>Node3</title>
<g id="a_node3"><a xlink:href="class_pointer_type.xhtml" target="_top" xlink:title="PointerType\&lt; ObjectPreprocessor \&gt;">
<polygon fill="white" stroke="black" points="90.5127,-71 90.5127,-91 265.487,-91 265.487,-71 90.5127,-71"/>
<text text-anchor="middle" x="178" y="-77" font-family="Helvetica,sans-Serif" font-size="10.00">PointerType&lt; ObjectPreprocessor &gt;</text>
</a>
</g>
</g>
<!-- Node3&#45;&gt;Node1 -->
<g id="edge2" class="edge"><title>Node3&#45;&gt;Node1</title>
<path fill="none" stroke="midnightblue" d="M178,-60.5567C178,-47.557 178,-31.0574 178,-21.0255"/>
<polygon fill="midnightblue" stroke="midnightblue" points="174.5,-60.8292 178,-70.8292 181.5,-60.8293 174.5,-60.8292"/>
</g>
<!-- Node4 -->
<g id="node4" class="node"><title>Node4</title>
<polygon fill="white" stroke="#bfbfbf" points="93.855,-131 93.855,-163 262.145,-163 262.145,-131 93.855,-131"/>
<text text-anchor="start" x="101.855" y="-149" font-family="Helvetica,sans-Serif" font-size="10.00">std::enable_shared</text>
<text text-anchor="middle" x="178" y="-137" font-family="Helvetica,sans-Serif" font-size="10.00">_from_this&lt; ObjectPreprocessor &gt;</text>
</g>
<!-- Node4&#45;&gt;Node3 -->
<g id="edge3" class="edge"><title>Node4&#45;&gt;Node3</title>
<path fill="none" stroke="midnightblue" d="M178,-120.611C178,-110.286 178,-99.0006 178,-91.3126"/>
<polygon fill="midnightblue" stroke="midnightblue" points="174.5,-120.833 178,-130.833 181.5,-120.833 174.5,-120.833"/>
</g>
<!-- Node5 -->
<g id="node5" class="node"><title>Node5</title>
<g id="a_node5"><a xlink:href="classstring.xhtml" target="_top" xlink:title="string">
<polygon fill="white" stroke="black" points="283.773,-71 283.773,-91 324.227,-91 324.227,-71 283.773,-71"/>
<text text-anchor="middle" x="304" y="-77" font-family="Helvetica,sans-Serif" font-size="10.00">string</text>
</a>
</g>
</g>
<!-- Node5&#45;&gt;Node1 -->
<g id="edge4" class="edge"><title>Node5&#45;&gt;Node1</title>
<path fill="none" stroke="#9a32cd" stroke-dasharray="5,2" d="M278.362,-66.1634C253.406,-52.6952 216.204,-32.6182 194.801,-21.0672"/>
<polygon fill="#9a32cd" stroke="#9a32cd" points="276.806,-69.3008 287.268,-70.9701 280.13,-63.1407 276.806,-69.3008"/>
<text text-anchor="middle" x="267.071" y="-42" font-family="Helvetica,sans-Serif" font-size="10.00"> _button</text>
</g>
<!-- Node5&#45;&gt;Node5 -->
<g id="edge5" class="edge"><title>Node5&#45;&gt;Node5</title>
<path fill="none" stroke="#9a32cd" stroke-dasharray="5,2" d="M334.416,-86.102C338.94,-85.3072 342,-83.6065 342,-81 342,-76.7227 333.76,-74.8847 324.329,-75.4862"/>
<polygon fill="#9a32cd" stroke="#9a32cd" points="334.178,-82.6087 324.329,-86.5138 334.464,-89.6028 334.178,-82.6087"/>
<text text-anchor="middle" x="370.621" y="-77" font-family="Helvetica,sans-Serif" font-size="10.00"> EmptyString</text>
</g>
</g>
</svg>
