<?xml version="1.0" encoding="UTF-8" standalone="no"?>
<!DOCTYPE svg PUBLIC "-//W3C//DTD SVG 1.1//EN"
 "http://www.w3.org/Graphics/SVG/1.1/DTD/svg11.dtd">
<!-- Generated by graphviz version 2.30.0 (20130114.0426)
 -->
<!-- Title: ContentFilter Pages: 1 -->
<svg width="453pt" height="88pt"
 viewBox="0.00 0.00 453.00 88.00" xmlns="http://www.w3.org/2000/svg" xmlns:xlink="http://www.w3.org/1999/xlink">
<g id="graph0" class="graph" transform="scale(1 1) rotate(0) translate(4 84)">
<title>ContentFilter</title>
<polygon fill="white" stroke="white" points="-4,5 -4,-84 450,-84 450,5 -4,5"/>
<!-- Node1 -->
<g id="node1" class="node"><title>Node1</title>
<polygon fill="#bfbfbf" stroke="black" points="177.377,-59 177.377,-79 250.623,-79 250.623,-59 177.377,-59"/>
<text text-anchor="middle" x="214" y="-65" font-family="Helvetica,sans-Serif" font-size="10.00">ContentFilter</text>
</g>
<!-- Node2 -->
<g id="node2" class="node"><title>Node2</title>
<g id="a_node2"><a xlink:href="class_font_obfuscator.xhtml" target="_top" xlink:title="FontObfuscator">
<polygon fill="white" stroke="black" points="-0.460449,-1 -0.460449,-21 84.4604,-21 84.4604,-1 -0.460449,-1"/>
<text text-anchor="middle" x="42" y="-7" font-family="Helvetica,sans-Serif" font-size="10.00">FontObfuscator</text>
</a>
</g>
</g>
<!-- Node1&#45;&gt;Node2 -->
<g id="edge1" class="edge"><title>Node1&#45;&gt;Node2</title>
<path fill="none" stroke="midnightblue" d="M176.462,-55.7784C144.288,-45.3032 98.6795,-30.4538 69.7206,-21.0253"/>
<polygon fill="midnightblue" stroke="midnightblue" points="175.39,-59.1101 185.982,-58.878 177.557,-52.454 175.39,-59.1101"/>
</g>
<!-- Node3 -->
<g id="node3" class="node"><title>Node3</title>
<g id="a_node3"><a xlink:href="class_object_preprocessor.xhtml" target="_top" xlink:title="ObjectPreprocessor">
<polygon fill="white" stroke="black" points="102.815,-1 102.815,-21 207.185,-21 207.185,-1 102.815,-1"/>
<text text-anchor="middle" x="155" y="-7" font-family="Helvetica,sans-Serif" font-size="10.00">ObjectPreprocessor</text>
</a>
</g>
</g>
<!-- Node1&#45;&gt;Node3 -->
<g id="edge2" class="edge"><title>Node1&#45;&gt;Node3</title>
<path fill="none" stroke="midnightblue" d="M196.831,-51.704C186.321,-41.7286 173.265,-29.3361 164.561,-21.0752"/>
<polygon fill="midnightblue" stroke="midnightblue" points="194.595,-54.407 204.257,-58.7527 199.414,-49.3299 194.595,-54.407"/>
</g>
<!-- Node4 -->
<g id="node4" class="node"><title>Node4</title>
<g id="a_node4"><a xlink:href="class_pass_through_filter.xhtml" target="_top" xlink:title="PassThroughFilter">
<polygon fill="white" stroke="black" points="225.15,-1 225.15,-21 322.85,-21 322.85,-1 225.15,-1"/>
<text text-anchor="middle" x="274" y="-7" font-family="Helvetica,sans-Serif" font-size="10.00">PassThroughFilter</text>
</a>
</g>
</g>
<!-- Node1&#45;&gt;Node4 -->
<g id="edge3" class="edge"><title>Node1&#45;&gt;Node4</title>
<path fill="none" stroke="midnightblue" d="M231.46,-51.704C242.148,-41.7286 255.426,-29.3361 264.277,-21.0752"/>
<polygon fill="midnightblue" stroke="midnightblue" points="228.83,-49.3708 223.908,-58.7527 233.606,-54.4882 228.83,-49.3708"/>
</g>
<!-- Node5 -->
<g id="node5" class="node"><title>Node5</title>
<g id="a_node5"><a xlink:href="class_switch_preprocessor.xhtml" target="_top" xlink:title="SwitchPreprocessor">
<polygon fill="white" stroke="black" points="340.54,-1 340.54,-21 445.46,-21 445.46,-1 340.54,-1"/>
<text text-anchor="middle" x="393" y="-7" font-family="Helvetica,sans-Serif" font-size="10.00">SwitchPreprocessor</text>
</a>
</g>
</g>
<!-- Node1&#45;&gt;Node5 -->
<g id="edge4" class="edge"><title>Node1&#45;&gt;Node5</title>
<path fill="none" stroke="midnightblue" d="M253.066,-55.7784C286.549,-45.3032 334.014,-30.4538 364.151,-21.0253"/>
<polygon fill="midnightblue" stroke="midnightblue" points="251.657,-52.5518 243.158,-58.878 253.747,-59.2325 251.657,-52.5518"/>
</g>
</g>
</svg>
