<?xml version="1.0" encoding="UTF-8" standalone="no"?>
<!DOCTYPE svg PUBLIC "-//W3C//DTD SVG 1.1//EN"
 "http://www.w3.org/Graphics/SVG/1.1/DTD/svg11.dtd">
<!-- Generated by graphviz version 2.30.0 (20130114.0426)
 -->
<!-- Title: executor Pages: 1 -->
<svg width="519pt" height="216pt"
 viewBox="0.00 0.00 519.00 216.00" xmlns="http://www.w3.org/2000/svg" xmlns:xlink="http://www.w3.org/1999/xlink">
<g id="graph0" class="graph" transform="scale(1 1) rotate(0) translate(4 212)">
<title>executor</title>
<polygon fill="white" stroke="white" points="-4,5 -4,-212 516,-212 516,5 -4,5"/>
<!-- Node1 -->
<g id="node1" class="node"><title>Node1</title>
<polygon fill="#bfbfbf" stroke="black" points="222.823,-117 222.823,-137 277.177,-137 277.177,-117 222.823,-117"/>
<text text-anchor="middle" x="250" y="-123" font-family="Helvetica,sans-Serif" font-size="10.00">executor</text>
</g>
<!-- Node3 -->
<g id="node3" class="node"><title>Node3</title>
<g id="a_node3"><a xlink:href="classinline__executor.xhtml" target="_top" xlink:title="inline_executor">
<polygon fill="white" stroke="black" points="-0.632812,-59 -0.632812,-79 82.6328,-79 82.6328,-59 -0.632812,-59"/>
<text text-anchor="middle" x="41" y="-65" font-family="Helvetica,sans-Serif" font-size="10.00">inline_executor</text>
</a>
</g>
</g>
<!-- Node1&#45;&gt;Node3 -->
<g id="edge2" class="edge"><title>Node1&#45;&gt;Node3</title>
<path fill="none" stroke="midnightblue" d="M212.999,-116.086C173.908,-105.612 112.789,-89.2354 74.9099,-79.0859"/>
<polygon fill="midnightblue" stroke="midnightblue" points="212.112,-119.472 222.677,-118.679 213.923,-112.71 212.112,-119.472"/>
</g>
<!-- Node4 -->
<g id="node4" class="node"><title>Node4</title>
<g id="a_node4"><a xlink:href="classloop__executor.xhtml" target="_top" xlink:title="loop_executor">
<polygon fill="white" stroke="black" points="100.589,-59 100.589,-79 179.411,-79 179.411,-59 100.589,-59"/>
<text text-anchor="middle" x="140" y="-65" font-family="Helvetica,sans-Serif" font-size="10.00">loop_executor</text>
</a>
</g>
</g>
<!-- Node1&#45;&gt;Node4 -->
<g id="edge3" class="edge"><title>Node1&#45;&gt;Node4</title>
<path fill="none" stroke="midnightblue" d="M222.782,-112.144C202.509,-101.823 175.405,-88.0245 157.826,-79.0752"/>
<polygon fill="midnightblue" stroke="midnightblue" points="221.336,-115.335 231.836,-116.753 224.512,-109.097 221.336,-115.335"/>
</g>
<!-- Node5 -->
<g id="node5" class="node"><title>Node5</title>
<g id="a_node5"><a xlink:href="classscheduled__executor.xhtml" target="_top" xlink:title="scheduled_executor">
<polygon fill="white" stroke="black" points="197.247,-59 197.247,-79 302.753,-79 302.753,-59 197.247,-59"/>
<text text-anchor="middle" x="250" y="-65" font-family="Helvetica,sans-Serif" font-size="10.00">scheduled_executor</text>
</a>
</g>
</g>
<!-- Node1&#45;&gt;Node5 -->
<g id="edge4" class="edge"><title>Node1&#45;&gt;Node5</title>
<path fill="none" stroke="midnightblue" d="M250,-106.707C250,-97.3384 250,-86.5262 250,-79.0752"/>
<polygon fill="midnightblue" stroke="midnightblue" points="246.5,-106.753 250,-116.753 253.5,-106.753 246.5,-106.753"/>
</g>
<!-- Node7 -->
<g id="node7" class="node"><title>Node7</title>
<g id="a_node7"><a xlink:href="classserial__executor.xhtml" target="_top" xlink:title="serial_executor">
<polygon fill="white" stroke="black" points="321.094,-59 321.094,-79 404.906,-79 404.906,-59 321.094,-59"/>
<text text-anchor="middle" x="363" y="-65" font-family="Helvetica,sans-Serif" font-size="10.00">serial_executor</text>
</a>
</g>
</g>
<!-- Node1&#45;&gt;Node7 -->
<g id="edge6" class="edge"><title>Node1&#45;&gt;Node7</title>
<path fill="none" stroke="midnightblue" d="M277.414,-112.414C298.265,-102.081 326.382,-88.1472 344.601,-79.1181"/>
<polygon fill="midnightblue" stroke="midnightblue" points="275.813,-109.302 268.407,-116.878 278.921,-115.574 275.813,-109.302"/>
</g>
<!-- Node8 -->
<g id="node8" class="node"><title>Node8</title>
<g id="a_node8"><a xlink:href="classthread__executor.xhtml" target="_top" xlink:title="thread_executor">
<polygon fill="white" stroke="black" points="422.865,-59 422.865,-79 511.135,-79 511.135,-59 422.865,-59"/>
<text text-anchor="middle" x="467" y="-65" font-family="Helvetica,sans-Serif" font-size="10.00">thread_executor</text>
</a>
</g>
</g>
<!-- Node1&#45;&gt;Node8 -->
<g id="edge7" class="edge"><title>Node1&#45;&gt;Node8</title>
<path fill="none" stroke="midnightblue" d="M287.25,-116.387C327.798,-105.923 392.145,-89.3175 431.849,-79.0713"/>
<polygon fill="midnightblue" stroke="midnightblue" points="286.291,-113.02 277.483,-118.908 288.041,-119.798 286.291,-113.02"/>
</g>
<!-- Node2 -->
<g id="node2" class="node"><title>Node2</title>
<polygon fill="white" stroke="#bfbfbf" points="190.862,-175 190.862,-207 309.138,-207 309.138,-175 190.862,-175"/>
<text text-anchor="start" x="198.862" y="-193" font-family="Helvetica,sans-Serif" font-size="10.00">std::enable_shared</text>
<text text-anchor="middle" x="250" y="-181" font-family="Helvetica,sans-Serif" font-size="10.00">_from_this&lt; executor &gt;</text>
</g>
<!-- Node2&#45;&gt;Node1 -->
<g id="edge1" class="edge"><title>Node2&#45;&gt;Node1</title>
<path fill="none" stroke="midnightblue" d="M250,-164.922C250,-155.172 250,-144.61 250,-137.29"/>
<polygon fill="midnightblue" stroke="midnightblue" points="246.5,-164.991 250,-174.992 253.5,-164.992 246.5,-164.991"/>
</g>
<!-- Node6 -->
<g id="node6" class="node"><title>Node6</title>
<g id="a_node6"><a xlink:href="classthread__pool.xhtml" target="_top" xlink:title="thread_pool">
<polygon fill="white" stroke="black" points="215.589,-1 215.589,-21 284.411,-21 284.411,-1 215.589,-1"/>
<text text-anchor="middle" x="250" y="-7" font-family="Helvetica,sans-Serif" font-size="10.00">thread_pool</text>
</a>
</g>
</g>
<!-- Node5&#45;&gt;Node6 -->
<g id="edge5" class="edge"><title>Node5&#45;&gt;Node6</title>
<path fill="none" stroke="midnightblue" d="M250,-48.7065C250,-39.3384 250,-28.5262 250,-21.0752"/>
<polygon fill="midnightblue" stroke="midnightblue" points="246.5,-48.7527 250,-58.7527 253.5,-48.7528 246.5,-48.7527"/>
</g>
</g>
</svg>
