<?xml version="1.0" encoding="UTF-8" standalone="no"?>
<!DOCTYPE svg PUBLIC "-//W3C//DTD SVG 1.1//EN"
 "http://www.w3.org/Graphics/SVG/1.1/DTD/svg11.dtd">
<!-- Generated by graphviz version 2.30.0 (20130114.0426)
 -->
<!-- Title: XPathEvaluator Pages: 1 -->
<svg width="304pt" height="100pt"
 viewBox="0.00 0.00 304.24 100.00" xmlns="http://www.w3.org/2000/svg" xmlns:xlink="http://www.w3.org/1999/xlink">
<g id="graph0" class="graph" transform="scale(1 1) rotate(0) translate(4 96)">
<title>XPathEvaluator</title>
<polygon fill="white" stroke="white" points="-4,5 -4,-96 301.241,-96 301.241,5 -4,5"/>
<!-- Node1 -->
<g id="node1" class="node"><title>Node1</title>
<polygon fill="#bfbfbf" stroke="black" points="76.2563,-1 76.2563,-21 161.744,-21 161.744,-1 76.2563,-1"/>
<text text-anchor="middle" x="119" y="-7" font-family="Helvetica,sans-Serif" font-size="10.00">XPathEvaluator</text>
</g>
<!-- Node2 -->
<g id="node2" class="node"><title>Node2</title>
<polygon fill="white" stroke="#bfbfbf" points="-0.842773,-71 -0.842773,-91 162.843,-91 162.843,-71 -0.842773,-71"/>
<text text-anchor="middle" x="81" y="-77" font-family="Helvetica,sans-Serif" font-size="10.00">WrapperBase&lt; XPathEvaluator &gt;</text>
</g>
<!-- Node2&#45;&gt;Node1 -->
<g id="edge1" class="edge"><title>Node2&#45;&gt;Node1</title>
<path fill="none" stroke="midnightblue" d="M91.2105,-61.7286C98.5678,-48.5629 108.18,-31.3614 113.956,-21.0255"/>
<polygon fill="midnightblue" stroke="midnightblue" points="87.9478,-60.3924 86.1248,-70.8292 94.0584,-63.8072 87.9478,-60.3924"/>
</g>
<!-- Node3 -->
<g id="node3" class="node"><title>Node3</title>
<g id="a_node3"><a xlink:href="classstring.xhtml" target="_top" xlink:title="string">
<polygon fill="white" stroke="black" points="180.773,-71 180.773,-91 221.227,-91 221.227,-71 180.773,-71"/>
<text text-anchor="middle" x="201" y="-77" font-family="Helvetica,sans-Serif" font-size="10.00">string</text>
</a>
</g>
</g>
<!-- Node3&#45;&gt;Node1 -->
<g id="edge2" class="edge"><title>Node3&#45;&gt;Node1</title>
<path fill="none" stroke="#9a32cd" stroke-dasharray="5,2" d="M182.162,-64.3786C165.977,-50.9563 143.203,-32.0707 129.884,-21.0255"/>
<polygon fill="#9a32cd" stroke="#9a32cd" points="180.009,-67.14 189.941,-70.8292 184.478,-61.7517 180.009,-67.14"/>
<text text-anchor="middle" x="180.401" y="-42" font-family="Helvetica,sans-Serif" font-size="10.00"> _xpath</text>
</g>
<!-- Node3&#45;&gt;Node3 -->
<g id="edge3" class="edge"><title>Node3&#45;&gt;Node3</title>
<path fill="none" stroke="#9a32cd" stroke-dasharray="5,2" d="M231.416,-86.7822C235.94,-85.8815 239,-83.954 239,-81 239,-76.1523 230.76,-74.0694 221.329,-74.7511"/>
<polygon fill="#9a32cd" stroke="#9a32cd" points="231.157,-83.2904 221.329,-87.2489 231.481,-90.2829 231.157,-83.2904"/>
<text text-anchor="middle" x="267.621" y="-77" font-family="Helvetica,sans-Serif" font-size="10.00"> EmptyString</text>
</g>
</g>
</svg>
