<?xml version="1.0" encoding="UTF-8" standalone="no"?>
<!DOCTYPE svg PUBLIC "-//W3C//DTD SVG 1.1//EN"
 "http://www.w3.org/Graphics/SVG/1.1/DTD/svg11.dtd">
<!-- Generated by graphviz version 2.30.0 (20130114.0426)
 -->
<!-- Title: Glossary Pages: 1 -->
<svg width="550pt" height="254pt"
 viewBox="0.00 0.00 550.24 254.00" xmlns="http://www.w3.org/2000/svg" xmlns:xlink="http://www.w3.org/1999/xlink">
<g id="graph0" class="graph" transform="scale(1 1) rotate(0) translate(4 250)">
<title>Glossary</title>
<polygon fill="white" stroke="white" points="-4,5 -4,-250 547.241,-250 547.241,5 -4,5"/>
<!-- Node1 -->
<g id="node1" class="node"><title>Node1</title>
<polygon fill="#bfbfbf" stroke="black" points="288.273,-1 288.273,-21 343.727,-21 343.727,-1 288.273,-1"/>
<text text-anchor="middle" x="316" y="-7" font-family="Helvetica,sans-Serif" font-size="10.00">Glossary</text>
</g>
<!-- Node2 -->
<g id="node2" class="node"><title>Node2</title>
<g id="a_node2"><a xlink:href="class_navigation_element.xhtml" target="_top" xlink:title="NavigationElement">
<polygon fill="white" stroke="black" points="29.0322,-71 29.0322,-91 128.968,-91 128.968,-71 29.0322,-71"/>
<text text-anchor="middle" x="79" y="-77" font-family="Helvetica,sans-Serif" font-size="10.00">NavigationElement</text>
</a>
</g>
</g>
<!-- Node2&#45;&gt;Node1 -->
<g id="edge1" class="edge"><title>Node2&#45;&gt;Node1</title>
<path fill="none" stroke="midnightblue" d="M120.258,-68.1622C168.374,-54.3567 246.599,-31.9126 288.092,-20.0072"/>
<polygon fill="midnightblue" stroke="midnightblue" points="119.119,-64.8479 110.472,-70.9701 121.049,-71.5764 119.119,-64.8479"/>
</g>
<!-- Node3 -->
<g id="node3" class="node"><title>Node3</title>
<g id="a_node3"><a xlink:href="classshared__vector.xhtml" target="_top" xlink:title="shared_vector\&lt; Navigation\lElement \&gt;">
<polygon fill="white" stroke="black" points="2.38086,-141 2.38086,-173 137.619,-173 137.619,-141 2.38086,-141"/>
<text text-anchor="start" x="10.3809" y="-159" font-family="Helvetica,sans-Serif" font-size="10.00">shared_vector&lt; Navigation</text>
<text text-anchor="middle" x="70" y="-147" font-family="Helvetica,sans-Serif" font-size="10.00">Element &gt;</text>
</a>
</g>
</g>
<!-- Node3&#45;&gt;Node2 -->
<g id="edge2" class="edge"><title>Node3&#45;&gt;Node2</title>
<path fill="none" stroke="#9a32cd" stroke-dasharray="5,2" d="M73.1098,-130.43C74.7604,-116.859 76.6877,-101.012 77.8761,-91.2412"/>
<polygon fill="#9a32cd" stroke="#9a32cd" points="69.5978,-130.318 71.8648,-140.667 76.5466,-131.163 69.5978,-130.318"/>
<text text-anchor="middle" x="97.6797" y="-112" font-family="Helvetica,sans-Serif" font-size="10.00"> _children</text>
</g>
<!-- Node4 -->
<g id="node4" class="node"><title>Node4</title>
<polygon fill="white" stroke="#bfbfbf" points="-0.121582,-213 -0.121582,-245 140.122,-245 140.122,-213 -0.121582,-213"/>
<text text-anchor="start" x="7.87842" y="-231" font-family="Helvetica,sans-Serif" font-size="10.00">std::vector&lt;std::shared</text>
<text text-anchor="middle" x="70" y="-219" font-family="Helvetica,sans-Serif" font-size="10.00">_ptr&lt;NavigationElement &gt; &gt;</text>
</g>
<!-- Node4&#45;&gt;Node3 -->
<g id="edge3" class="edge"><title>Node4&#45;&gt;Node3</title>
<path fill="none" stroke="midnightblue" d="M70,-202.682C70,-192.789 70,-181.776 70,-173.159"/>
<polygon fill="midnightblue" stroke="midnightblue" points="66.5001,-202.811 70,-212.811 73.5001,-202.811 66.5001,-202.811"/>
</g>
<!-- Node5 -->
<g id="node5" class="node"><title>Node5</title>
<g id="a_node5"><a xlink:href="class_pointer_type.xhtml" target="_top" xlink:title="PointerType\&lt; Glossary \&gt;">
<polygon fill="white" stroke="black" points="148.971,-71 148.971,-91 275.029,-91 275.029,-71 148.971,-71"/>
<text text-anchor="middle" x="212" y="-77" font-family="Helvetica,sans-Serif" font-size="10.00">PointerType&lt; Glossary &gt;</text>
</a>
</g>
</g>
<!-- Node5&#45;&gt;Node1 -->
<g id="edge4" class="edge"><title>Node5&#45;&gt;Node1</title>
<path fill="none" stroke="midnightblue" d="M234.492,-65.2934C255.089,-51.8267 284.916,-32.3241 302.196,-21.0255"/>
<polygon fill="midnightblue" stroke="midnightblue" points="232.48,-62.4273 226.026,-70.8292 236.311,-68.2861 232.48,-62.4273"/>
</g>
<!-- Node6 -->
<g id="node6" class="node"><title>Node6</title>
<polygon fill="white" stroke="#bfbfbf" points="155.313,-141 155.313,-173 274.687,-173 274.687,-141 155.313,-141"/>
<text text-anchor="start" x="163.313" y="-159" font-family="Helvetica,sans-Serif" font-size="10.00">std::enable_shared</text>
<text text-anchor="middle" x="215" y="-147" font-family="Helvetica,sans-Serif" font-size="10.00">_from_this&lt; Glossary &gt;</text>
</g>
<!-- Node6&#45;&gt;Node5 -->
<g id="edge5" class="edge"><title>Node6&#45;&gt;Node5</title>
<path fill="none" stroke="midnightblue" d="M213.963,-130.43C213.413,-116.859 212.771,-101.012 212.375,-91.2412"/>
<polygon fill="midnightblue" stroke="midnightblue" points="210.476,-130.817 214.378,-140.667 217.47,-130.534 210.476,-130.817"/>
</g>
<!-- Node7 -->
<g id="node7" class="node"><title>Node7</title>
<g id="a_node7"><a xlink:href="class_owned_by.xhtml" target="_top" xlink:title="OwnedBy\&lt; Package \&gt;">
<polygon fill="white" stroke="black" points="293.247,-71 293.247,-91 408.753,-91 408.753,-71 293.247,-71"/>
<text text-anchor="middle" x="351" y="-77" font-family="Helvetica,sans-Serif" font-size="10.00">OwnedBy&lt; Package &gt;</text>
</a>
</g>
</g>
<!-- Node7&#45;&gt;Node1 -->
<g id="edge6" class="edge"><title>Node7&#45;&gt;Node1</title>
<path fill="none" stroke="midnightblue" d="M341.596,-61.7286C334.819,-48.5629 325.965,-31.3614 320.645,-21.0255"/>
<polygon fill="midnightblue" stroke="midnightblue" points="338.591,-63.5396 346.28,-70.8292 344.815,-60.3361 338.591,-63.5396"/>
</g>
<!-- Node8 -->
<g id="node8" class="node"><title>Node8</title>
<g id="a_node8"><a xlink:href="classstring.xhtml" target="_top" xlink:title="string">
<polygon fill="white" stroke="black" points="426.773,-71 426.773,-91 467.227,-91 467.227,-71 426.773,-71"/>
<text text-anchor="middle" x="447" y="-77" font-family="Helvetica,sans-Serif" font-size="10.00">string</text>
</a>
</g>
</g>
<!-- Node8&#45;&gt;Node1 -->
<g id="edge7" class="edge"><title>Node8&#45;&gt;Node1</title>
<path fill="none" stroke="#9a32cd" stroke-dasharray="5,2" d="M420.686,-66.341C394.739,-52.8723 355.818,-32.6691 333.468,-21.0672"/>
<polygon fill="#9a32cd" stroke="#9a32cd" points="419.116,-69.4694 429.604,-70.9701 422.341,-63.2565 419.116,-69.4694"/>
<text text-anchor="middle" x="405.012" y="-42" font-family="Helvetica,sans-Serif" font-size="10.00"> _ident</text>
</g>
<!-- Node8&#45;&gt;Node8 -->
<g id="edge8" class="edge"><title>Node8&#45;&gt;Node8</title>
<path fill="none" stroke="#9a32cd" stroke-dasharray="5,2" d="M477.416,-86.7822C481.94,-85.8815 485,-83.954 485,-81 485,-76.1523 476.76,-74.0694 467.329,-74.7511"/>
<polygon fill="#9a32cd" stroke="#9a32cd" points="477.157,-83.2904 467.329,-87.2489 477.481,-90.2829 477.157,-83.2904"/>
<text text-anchor="middle" x="513.621" y="-77" font-family="Helvetica,sans-Serif" font-size="10.00"> EmptyString</text>
</g>
</g>
</svg>
