<?xml version="1.0" encoding="UTF-8" standalone="no"?>
<!DOCTYPE svg PUBLIC "-//W3C//DTD SVG 1.1//EN"
 "http://www.w3.org/Graphics/SVG/1.1/DTD/svg11.dtd">
<!-- Generated by graphviz version 2.30.0 (20130114.0426)
 -->
<!-- Title: IRI Pages: 1 -->
<svg width="123pt" height="112pt"
 viewBox="0.00 0.00 123.24 112.00" xmlns="http://www.w3.org/2000/svg" xmlns:xlink="http://www.w3.org/1999/xlink">
<g id="graph0" class="graph" transform="scale(1 1) rotate(0) translate(4 108)">
<title>IRI</title>
<polygon fill="white" stroke="white" points="-4,5 -4,-108 120.241,-108 120.241,5 -4,5"/>
<!-- Node1 -->
<g id="node1" class="node"><title>Node1</title>
<polygon fill="#bfbfbf" stroke="black" points="5.5,-1 5.5,-21 34.5,-21 34.5,-1 5.5,-1"/>
<text text-anchor="middle" x="19.8892" y="-7" font-family="Helvetica,sans-Serif" font-size="10.00">IRI</text>
</g>
<!-- Node2 -->
<g id="node2" class="node"><title>Node2</title>
<g id="a_node2"><a xlink:href="classstring.xhtml" target="_top" xlink:title="string">
<polygon fill="white" stroke="black" points="-0.226562,-83 -0.226562,-103 40.2266,-103 40.2266,-83 -0.226562,-83"/>
<text text-anchor="middle" x="20" y="-89" font-family="Helvetica,sans-Serif" font-size="10.00">string</text>
</a>
</g>
</g>
<!-- Node2&#45;&gt;Node1 -->
<g id="edge1" class="edge"><title>Node2&#45;&gt;Node1</title>
<path fill="none" stroke="#9a32cd" stroke-dasharray="5,2" d="M20,-72.7099C20,-56.3291 20,-33.5497 20,-21.07"/>
<polygon fill="#9a32cd" stroke="#9a32cd" points="16.5001,-72.8229 20,-82.823 23.5001,-72.823 16.5001,-72.8229"/>
<text text-anchor="middle" x="56.1279" y="-54" font-family="Helvetica,sans-Serif" font-size="10.00"> gEPUBScheme</text>
<text text-anchor="middle" x="56.1279" y="-42" font-family="Helvetica,sans-Serif" font-size="10.00">_pureIRI</text>
</g>
<!-- Node2&#45;&gt;Node2 -->
<g id="edge2" class="edge"><title>Node2&#45;&gt;Node2</title>
<path fill="none" stroke="#9a32cd" stroke-dasharray="5,2" d="M50.4158,-99.8026C54.9402,-98.7429 58,-96.4753 58,-93 58,-87.2969 49.7602,-84.8463 40.3294,-85.6483"/>
<polygon fill="#9a32cd" stroke="#9a32cd" points="50.1244,-96.3132 40.3294,-100.352 50.5049,-103.303 50.1244,-96.3132"/>
<text text-anchor="middle" x="86.6206" y="-89" font-family="Helvetica,sans-Serif" font-size="10.00"> EmptyString</text>
</g>
</g>
</svg>
