<?xml version="1.0" encoding="UTF-8" standalone="no"?>
<!DOCTYPE svg PUBLIC "-//W3C//DTD SVG 1.1//EN"
 "http://www.w3.org/Graphics/SVG/1.1/DTD/svg11.dtd">
<!-- Generated by graphviz version 2.30.0 (20130114.0426)
 -->
<!-- Title: Package Pages: 1 -->
<svg width="464pt" height="275pt"
 viewBox="0.00 0.00 464.00 275.00" xmlns="http://www.w3.org/2000/svg" xmlns:xlink="http://www.w3.org/1999/xlink">
<g id="graph0" class="graph" transform="scale(1 1) rotate(0) translate(4 271)">
<title>Package</title>
<polygon fill="white" stroke="white" points="-4,5 -4,-271 461,-271 461,5 -4,5"/>
<!-- Node1 -->
<g id="node1" class="node"><title>Node1</title>
<polygon fill="#bfbfbf" stroke="black" points="400.542,-55 400.542,-75 455.458,-75 455.458,-55 400.542,-55"/>
<text text-anchor="middle" x="428" y="-61" font-family="Helvetica,sans-Serif" font-size="10.00">Package</text>
</g>
<!-- Node2 -->
<g id="node2" class="node"><title>Node2</title>
<g id="a_node2"><a xlink:href="class_package_base.xhtml" target="_top" xlink:title="PackageBase">
<polygon fill="white" stroke="black" points="260.146,-139 260.146,-159 337.854,-159 337.854,-139 260.146,-139"/>
<text text-anchor="middle" x="299" y="-145" font-family="Helvetica,sans-Serif" font-size="10.00">PackageBase</text>
</a>
</g>
</g>
<!-- Node2&#45;&gt;Node1 -->
<g id="edge1" class="edge"><title>Node2&#45;&gt;Node1</title>
<path fill="none" stroke="midnightblue" d="M324.033,-133.104C349.797,-116.063 389.924,-89.5224 411.697,-75.1219"/>
<polygon fill="midnightblue" stroke="midnightblue" points="321.983,-130.264 315.573,-138.7 325.844,-136.102 321.983,-130.264"/>
</g>
<!-- Node3 -->
<g id="node3" class="node"><title>Node3</title>
<g id="a_node3"><a xlink:href="classstring.xhtml" target="_top" xlink:title="string">
<polygon fill="white" stroke="black" points="53.7734,-217 53.7734,-237 94.2266,-237 94.2266,-217 53.7734,-217"/>
<text text-anchor="middle" x="74" y="-223" font-family="Helvetica,sans-Serif" font-size="10.00">string</text>
</a>
</g>
</g>
<!-- Node3&#45;&gt;Node2 -->
<g id="edge2" class="edge"><title>Node3&#45;&gt;Node2</title>
<path fill="none" stroke="#9a32cd" stroke-dasharray="5,2" d="M104.347,-221.043C133.644,-214.671 179.697,-203.491 218,-189 240.221,-180.593 264.456,-167.947 280.361,-159.132"/>
<polygon fill="#9a32cd" stroke="#9a32cd" points="103.408,-217.664 94.3566,-223.171 104.866,-224.511 103.408,-217.664"/>
<text text-anchor="middle" x="192" y="-219" font-family="Helvetica,sans-Serif" font-size="10.00"> _pathBase</text>
<text text-anchor="middle" x="192" y="-207" font-family="Helvetica,sans-Serif" font-size="10.00">_type</text>
</g>
<!-- Node3&#45;&gt;Node3 -->
<g id="edge3" class="edge"><title>Node3&#45;&gt;Node3</title>
<path fill="none" stroke="#9a32cd" stroke-dasharray="5,2" d="M52.1994,-246.562C53.7693,-251.395 61.0361,-255 74,-255 94.7422,-255 100.9,-245.771 92.4735,-237.048"/>
<polygon fill="#9a32cd" stroke="#9a32cd" points="55.5292,-247.642 55.5265,-237.048 48.9216,-245.332 55.5292,-247.642"/>
<text text-anchor="middle" x="74" y="-257" font-family="Helvetica,sans-Serif" font-size="10.00"> EmptyString</text>
</g>
<!-- Node4 -->
<g id="node4" class="node"><title>Node4</title>
<polygon fill="white" stroke="#bfbfbf" points="10.9658,-178 10.9658,-198 137.034,-198 137.034,-178 10.9658,-178"/>
<text text-anchor="middle" x="74" y="-184" font-family="Helvetica,sans-Serif" font-size="10.00">shared_ptr&lt; SpineItem &gt;</text>
</g>
<!-- Node4&#45;&gt;Node2 -->
<g id="edge4" class="edge"><title>Node4&#45;&gt;Node2</title>
<path fill="none" stroke="#9a32cd" stroke-dasharray="5,2" d="M147.272,-176.922C169.945,-173.3 195.043,-169.14 218,-165 231.66,-162.536 246.586,-159.614 259.805,-156.946"/>
<polygon fill="#9a32cd" stroke="#9a32cd" points="146.709,-173.468 137.381,-178.493 147.807,-180.381 146.709,-173.468"/>
<text text-anchor="middle" x="192" y="-175" font-family="Helvetica,sans-Serif" font-size="10.00"> _spine</text>
</g>
<!-- Node5 -->
<g id="node5" class="node"><title>Node5</title>
<polygon fill="white" stroke="#bfbfbf" points="0.135742,-139 0.135742,-159 147.864,-159 147.864,-139 0.135742,-139"/>
<text text-anchor="middle" x="74" y="-145" font-family="Helvetica,sans-Serif" font-size="10.00">shared_ptr&lt; xml::Document &gt;</text>
</g>
<!-- Node5&#45;&gt;Node2 -->
<g id="edge5" class="edge"><title>Node5&#45;&gt;Node2</title>
<path fill="none" stroke="#9a32cd" stroke-dasharray="5,2" d="M158.229,-149C193.146,-149 232.024,-149 259.895,-149"/>
<polygon fill="#9a32cd" stroke="#9a32cd" points="158.019,-145.5 148.019,-149 158.019,-152.5 158.019,-145.5"/>
<text text-anchor="middle" x="192" y="-151" font-family="Helvetica,sans-Serif" font-size="10.00"> _opf</text>
</g>
<!-- Node6 -->
<g id="node6" class="node"><title>Node6</title>
<polygon fill="white" stroke="#bfbfbf" points="17.0791,-100 17.0791,-120 130.921,-120 130.921,-100 17.0791,-100"/>
<text text-anchor="middle" x="74" y="-106" font-family="Helvetica,sans-Serif" font-size="10.00">shared_ptr&lt; Archive &gt;</text>
</g>
<!-- Node6&#45;&gt;Node2 -->
<g id="edge6" class="edge"><title>Node6&#45;&gt;Node2</title>
<path fill="none" stroke="#9a32cd" stroke-dasharray="5,2" d="M141.255,-120.12C165.441,-123.956 192.991,-128.49 218,-133 231.66,-135.464 246.586,-138.386 259.805,-141.054"/>
<polygon fill="#9a32cd" stroke="#9a32cd" points="141.536,-116.621 131.113,-118.521 140.446,-123.536 141.536,-116.621"/>
<text text-anchor="middle" x="192" y="-135" font-family="Helvetica,sans-Serif" font-size="10.00"> _archive</text>
</g>
<!-- Node7 -->
<g id="node7" class="node"><title>Node7</title>
<g id="a_node7"><a xlink:href="class_pointer_type.xhtml" target="_top" xlink:title="PointerType\&lt; Package \&gt;">
<polygon fill="white" stroke="black" points="236.239,-78 236.239,-98 361.761,-98 361.761,-78 236.239,-78"/>
<text text-anchor="middle" x="299" y="-84" font-family="Helvetica,sans-Serif" font-size="10.00">PointerType&lt; Package &gt;</text>
</a>
</g>
</g>
<!-- Node7&#45;&gt;Node1 -->
<g id="edge7" class="edge"><title>Node7&#45;&gt;Node1</title>
<path fill="none" stroke="midnightblue" d="M365.286,-76.1766C377.715,-73.9256 390.054,-71.6911 400.394,-69.8185"/>
<polygon fill="midnightblue" stroke="midnightblue" points="364.551,-72.7527 355.335,-77.9788 365.798,-79.6406 364.551,-72.7527"/>
</g>
<!-- Node8 -->
<g id="node8" class="node"><title>Node8</title>
<polygon fill="white" stroke="#bfbfbf" points="14.5815,-49 14.5815,-81 133.418,-81 133.418,-49 14.5815,-49"/>
<text text-anchor="start" x="22.5815" y="-67" font-family="Helvetica,sans-Serif" font-size="10.00">std::enable_shared</text>
<text text-anchor="middle" x="74" y="-55" font-family="Helvetica,sans-Serif" font-size="10.00">_from_this&lt; Package &gt;</text>
</g>
<!-- Node8&#45;&gt;Node7 -->
<g id="edge8" class="edge"><title>Node8&#45;&gt;Node7</title>
<path fill="none" stroke="midnightblue" d="M143.781,-72.094C173.189,-75.1272 207.269,-78.6421 235.901,-81.5951"/>
<polygon fill="midnightblue" stroke="midnightblue" points="143.897,-68.5875 133.591,-71.043 143.179,-75.5505 143.897,-68.5875"/>
</g>
<!-- Node9 -->
<g id="node9" class="node"><title>Node9</title>
<g id="a_node9"><a xlink:href="class_property_holder.xhtml" target="_top" xlink:title="PropertyHolder">
<polygon fill="white" stroke="black" points="257.375,-39 257.375,-59 340.625,-59 340.625,-39 257.375,-39"/>
<text text-anchor="middle" x="299" y="-45" font-family="Helvetica,sans-Serif" font-size="10.00">PropertyHolder</text>
</a>
</g>
</g>
<!-- Node9&#45;&gt;Node1 -->
<g id="edge9" class="edge"><title>Node9&#45;&gt;Node1</title>
<path fill="none" stroke="midnightblue" d="M351.147,-55.4437C367.952,-57.5608 385.957,-59.8293 400.207,-61.6245"/>
<polygon fill="midnightblue" stroke="midnightblue" points="351.242,-51.9281 340.883,-54.1506 350.367,-58.8732 351.242,-51.9281"/>
</g>
<!-- Node10 -->
<g id="node10" class="node"><title>Node10</title>
<g id="a_node10"><a xlink:href="class_owned_by.xhtml" target="_top" xlink:title="OwnedBy\&lt; Container \&gt;">
<polygon fill="white" stroke="black" points="239.025,-0 239.025,-20 358.975,-20 358.975,-0 239.025,-0"/>
<text text-anchor="middle" x="299" y="-6" font-family="Helvetica,sans-Serif" font-size="10.00">OwnedBy&lt; Container &gt;</text>
</a>
</g>
</g>
<!-- Node10&#45;&gt;Node1 -->
<g id="edge10" class="edge"><title>Node10&#45;&gt;Node1</title>
<path fill="none" stroke="midnightblue" d="M344.669,-23.3286C350.559,-25.4 356.468,-27.6416 362,-30 378.978,-37.2379 397.422,-47.4074 410.311,-54.9203"/>
<polygon fill="midnightblue" stroke="midnightblue" points="345.438,-19.894 334.843,-20.0124 343.199,-26.5265 345.438,-19.894"/>
</g>
</g>
</svg>
