<?xml version="1.0" encoding="UTF-8" standalone="no"?>
<!DOCTYPE svg PUBLIC "-//W3C//DTD SVG 1.1//EN"
 "http://www.w3.org/Graphics/SVG/1.1/DTD/svg11.dtd">
<!-- Generated by graphviz version 2.30.0 (20130114.0426)
 -->
<!-- Title: ManifestItem Pages: 1 -->
<svg width="488pt" height="158pt"
 viewBox="0.00 0.00 488.00 158.00" xmlns="http://www.w3.org/2000/svg" xmlns:xlink="http://www.w3.org/1999/xlink">
<g id="graph0" class="graph" transform="scale(1 1) rotate(0) translate(4 154)">
<title>ManifestItem</title>
<polygon fill="white" stroke="white" points="-4,5 -4,-154 485,-154 485,5 -4,5"/>
<!-- Node1 -->
<g id="node1" class="node"><title>Node1</title>
<polygon fill="#bfbfbf" stroke="black" points="240.379,-1 240.379,-21 313.621,-21 313.621,-1 240.379,-1"/>
<text text-anchor="middle" x="277" y="-7" font-family="Helvetica,sans-Serif" font-size="10.00">ManifestItem</text>
</g>
<!-- Node2 -->
<g id="node2" class="node"><title>Node2</title>
<g id="a_node2"><a xlink:href="class_pointer_type.xhtml" target="_top" xlink:title="PointerType\&lt; ManifestItem \&gt;">
<polygon fill="white" stroke="black" points="-0.92334,-59 -0.92334,-79 142.923,-79 142.923,-59 -0.92334,-59"/>
<text text-anchor="middle" x="71" y="-65" font-family="Helvetica,sans-Serif" font-size="10.00">PointerType&lt; ManifestItem &gt;</text>
</a>
</g>
</g>
<!-- Node2&#45;&gt;Node1 -->
<g id="edge1" class="edge"><title>Node2&#45;&gt;Node1</title>
<path fill="none" stroke="midnightblue" d="M114.472,-56.1825C153.076,-45.6881 208.668,-30.5757 243.8,-21.0253"/>
<polygon fill="midnightblue" stroke="midnightblue" points="113.288,-52.8773 104.556,-58.878 115.124,-59.6321 113.288,-52.8773"/>
</g>
<!-- Node3 -->
<g id="node3" class="node"><title>Node3</title>
<polygon fill="white" stroke="#bfbfbf" points="2.41895,-117 2.41895,-149 139.581,-149 139.581,-117 2.41895,-117"/>
<text text-anchor="start" x="10.4189" y="-135" font-family="Helvetica,sans-Serif" font-size="10.00">std::enable_shared</text>
<text text-anchor="middle" x="71" y="-123" font-family="Helvetica,sans-Serif" font-size="10.00">_from_this&lt; ManifestItem &gt;</text>
</g>
<!-- Node3&#45;&gt;Node2 -->
<g id="edge2" class="edge"><title>Node3&#45;&gt;Node2</title>
<path fill="none" stroke="midnightblue" d="M71,-106.922C71,-97.1719 71,-86.6099 71,-79.2904"/>
<polygon fill="midnightblue" stroke="midnightblue" points="67.5001,-106.991 71,-116.992 74.5001,-106.992 67.5001,-106.991"/>
</g>
<!-- Node4 -->
<g id="node4" class="node"><title>Node4</title>
<g id="a_node4"><a xlink:href="class_owned_by.xhtml" target="_top" xlink:title="OwnedBy\&lt; Package \&gt;">
<polygon fill="white" stroke="black" points="161.247,-59 161.247,-79 276.753,-79 276.753,-59 161.247,-59"/>
<text text-anchor="middle" x="219" y="-65" font-family="Helvetica,sans-Serif" font-size="10.00">OwnedBy&lt; Package &gt;</text>
</a>
</g>
</g>
<!-- Node4&#45;&gt;Node1 -->
<g id="edge3" class="edge"><title>Node4&#45;&gt;Node1</title>
<path fill="none" stroke="midnightblue" d="M235.878,-51.704C246.21,-41.7286 259.045,-29.3361 267.601,-21.0752"/>
<polygon fill="midnightblue" stroke="midnightblue" points="233.34,-49.2888 228.578,-58.7527 238.203,-54.3247 233.34,-49.2888"/>
</g>
<!-- Node5 -->
<g id="node5" class="node"><title>Node5</title>
<g id="a_node5"><a xlink:href="class_property_holder.xhtml" target="_top" xlink:title="PropertyHolder">
<polygon fill="white" stroke="black" points="294.375,-59 294.375,-79 377.625,-79 377.625,-59 294.375,-59"/>
<text text-anchor="middle" x="336" y="-65" font-family="Helvetica,sans-Serif" font-size="10.00">PropertyHolder</text>
</a>
</g>
</g>
<!-- Node5&#45;&gt;Node1 -->
<g id="edge4" class="edge"><title>Node5&#45;&gt;Node1</title>
<path fill="none" stroke="midnightblue" d="M318.831,-51.704C308.321,-41.7286 295.265,-29.3361 286.561,-21.0752"/>
<polygon fill="midnightblue" stroke="midnightblue" points="316.595,-54.407 326.257,-58.7527 321.414,-49.3299 316.595,-54.407"/>
</g>
<!-- Node6 -->
<g id="node6" class="node"><title>Node6</title>
<g id="a_node6"><a xlink:href="class_x_m_l_identifiable.xhtml" target="_top" xlink:title="XMLIdentifiable">
<polygon fill="white" stroke="black" points="395.535,-59 395.535,-79 480.465,-79 480.465,-59 395.535,-59"/>
<text text-anchor="middle" x="438" y="-65" font-family="Helvetica,sans-Serif" font-size="10.00">XMLIdentifiable</text>
</a>
</g>
</g>
<!-- Node6&#45;&gt;Node1 -->
<g id="edge5" class="edge"><title>Node6&#45;&gt;Node1</title>
<path fill="none" stroke="midnightblue" d="M402.081,-55.5065C372.012,-45.0475 329.821,-30.3725 302.948,-21.0253"/>
<polygon fill="midnightblue" stroke="midnightblue" points="401.179,-58.8985 411.774,-58.878 403.479,-52.287 401.179,-58.8985"/>
</g>
</g>
</svg>
