<?xml version="1.0" encoding="UTF-8" standalone="no"?>
<!DOCTYPE svg PUBLIC "-//W3C//DTD SVG 1.1//EN"
 "http://www.w3.org/Graphics/SVG/1.1/DTD/svg11.dtd">
<!-- Generated by graphviz version 2.30.0 (20130114.0426)
 -->
<!-- Title: OutputBuffer Pages: 1 -->
<svg width="158pt" height="146pt"
 viewBox="0.00 0.00 158.00 146.00" xmlns="http://www.w3.org/2000/svg" xmlns:xlink="http://www.w3.org/1999/xlink">
<g id="graph0" class="graph" transform="scale(1 1) rotate(0) translate(4 142)">
<title>OutputBuffer</title>
<polygon fill="white" stroke="white" points="-4,5 -4,-142 155,-142 155,5 -4,5"/>
<!-- Node1 -->
<g id="node1" class="node"><title>Node1</title>
<polygon fill="#bfbfbf" stroke="black" points="38.7383,-59 38.7383,-79 111.262,-79 111.262,-59 38.7383,-59"/>
<text text-anchor="middle" x="75" y="-65" font-family="Helvetica,sans-Serif" font-size="10.00">OutputBuffer</text>
</g>
<!-- Node3 -->
<g id="node3" class="node"><title>Node3</title>
<g id="a_node3"><a xlink:href="class_stream_output_buffer.xhtml" target="_top" xlink:title="StreamOutputBuffer">
<polygon fill="white" stroke="black" points="22.6226,-1 22.6226,-21 127.377,-21 127.377,-1 22.6226,-1"/>
<text text-anchor="middle" x="75" y="-7" font-family="Helvetica,sans-Serif" font-size="10.00">StreamOutputBuffer</text>
</a>
</g>
</g>
<!-- Node1&#45;&gt;Node3 -->
<g id="edge2" class="edge"><title>Node1&#45;&gt;Node3</title>
<path fill="none" stroke="midnightblue" d="M75,-48.7065C75,-39.3384 75,-28.5262 75,-21.0752"/>
<polygon fill="midnightblue" stroke="midnightblue" points="71.5001,-48.7527 75,-58.7527 78.5001,-48.7528 71.5001,-48.7527"/>
</g>
<!-- Node2 -->
<g id="node2" class="node"><title>Node2</title>
<polygon fill="white" stroke="#bfbfbf" points="-0.36084,-117 -0.36084,-137 150.361,-137 150.361,-117 -0.36084,-117"/>
<text text-anchor="middle" x="75" y="-123" font-family="Helvetica,sans-Serif" font-size="10.00">WrapperBase&lt; OutputBuffer &gt;</text>
</g>
<!-- Node2&#45;&gt;Node1 -->
<g id="edge1" class="edge"><title>Node2&#45;&gt;Node1</title>
<path fill="none" stroke="midnightblue" d="M75,-106.707C75,-97.3384 75,-86.5262 75,-79.0752"/>
<polygon fill="midnightblue" stroke="midnightblue" points="71.5001,-106.753 75,-116.753 78.5001,-106.753 71.5001,-106.753"/>
</g>
</g>
</svg>
