<?xml version="1.0" encoding="UTF-8" standalone="no"?>
<!DOCTYPE svg PUBLIC "-//W3C//DTD SVG 1.1//EN"
 "http://www.w3.org/Graphics/SVG/1.1/DTD/svg11.dtd">
<!-- Generated by graphviz version 2.30.0 (20130114.0426)
 -->
<!-- Title: future_error Pages: 1 -->
<svg width="362pt" height="262pt"
 viewBox="0.00 0.00 362.00 262.00" xmlns="http://www.w3.org/2000/svg" xmlns:xlink="http://www.w3.org/1999/xlink">
<g id="graph0" class="graph" transform="scale(1 1) rotate(0) translate(4 258)">
<title>future_error</title>
<polygon fill="white" stroke="white" points="-4,5 -4,-258 359,-258 359,5 -4,5"/>
<!-- Node1 -->
<g id="node1" class="node"><title>Node1</title>
<polygon fill="#bfbfbf" stroke="black" points="117.877,-117 117.877,-137 186.123,-137 186.123,-117 117.877,-117"/>
<text text-anchor="middle" x="152" y="-123" font-family="Helvetica,sans-Serif" font-size="10.00">future_error</text>
</g>
<!-- Node3 -->
<g id="node3" class="node"><title>Node3</title>
<g id="a_node3"><a xlink:href="classbroken__promise.xhtml" target="_top" xlink:title="broken_promise">
<polygon fill="white" stroke="black" points="244.148,-234 244.148,-254 331.852,-254 331.852,-234 244.148,-234"/>
<text text-anchor="middle" x="288" y="-240" font-family="Helvetica,sans-Serif" font-size="10.00">broken_promise</text>
</a>
</g>
</g>
<!-- Node1&#45;&gt;Node3 -->
<g id="edge2" class="edge"><title>Node1&#45;&gt;Node3</title>
<path fill="none" stroke="midnightblue" d="M161.831,-146.208C172.875,-168.151 193.815,-203.643 222,-224 228.509,-228.701 236.146,-232.315 243.853,-235.089"/>
<polygon fill="midnightblue" stroke="midnightblue" points="164.969,-144.658 157.462,-137.182 158.669,-147.708 164.969,-144.658"/>
</g>
<!-- Node4 -->
<g id="node4" class="node"><title>Node4</title>
<g id="a_node4"><a xlink:href="classfuture__already__retrieved.xhtml" target="_top" xlink:title="future_already_retrieved">
<polygon fill="white" stroke="black" points="225.801,-195 225.801,-215 350.199,-215 350.199,-195 225.801,-195"/>
<text text-anchor="middle" x="288" y="-201" font-family="Helvetica,sans-Serif" font-size="10.00">future_already_retrieved</text>
</a>
</g>
</g>
<!-- Node1&#45;&gt;Node4 -->
<g id="edge3" class="edge"><title>Node1&#45;&gt;Node4</title>
<path fill="none" stroke="midnightblue" d="M169.676,-144.376C182.827,-157.195 202.198,-174.214 222,-185 229.258,-188.953 237.407,-192.24 245.416,-194.929"/>
<polygon fill="midnightblue" stroke="midnightblue" points="171.885,-141.635 162.343,-137.031 166.931,-146.581 171.885,-141.635"/>
</g>
<!-- Node5 -->
<g id="node5" class="node"><title>Node5</title>
<g id="a_node5"><a xlink:href="classfuture__uninitialized.xhtml" target="_top" xlink:title="future_uninitialized">
<polygon fill="white" stroke="black" points="238.306,-156 238.306,-176 337.694,-176 337.694,-156 238.306,-156"/>
<text text-anchor="middle" x="288" y="-162" font-family="Helvetica,sans-Serif" font-size="10.00">future_uninitialized</text>
</a>
</g>
</g>
<!-- Node1&#45;&gt;Node5 -->
<g id="edge4" class="edge"><title>Node1&#45;&gt;Node5</title>
<path fill="none" stroke="midnightblue" d="M195.934,-139.496C214.176,-144.805 235.163,-150.913 252.388,-155.926"/>
<polygon fill="midnightblue" stroke="midnightblue" points="196.703,-136.074 186.124,-136.64 194.747,-142.796 196.703,-136.074"/>
</g>
<!-- Node6 -->
<g id="node6" class="node"><title>Node6</title>
<g id="a_node6"><a xlink:href="classpromise__already__satisfied.xhtml" target="_top" xlink:title="promise_already_satisfied">
<polygon fill="white" stroke="black" points="221.914,-117 221.914,-137 354.086,-137 354.086,-117 221.914,-117"/>
<text text-anchor="middle" x="288" y="-123" font-family="Helvetica,sans-Serif" font-size="10.00">promise_already_satisfied</text>
</a>
</g>
</g>
<!-- Node1&#45;&gt;Node6 -->
<g id="edge5" class="edge"><title>Node1&#45;&gt;Node6</title>
<path fill="none" stroke="midnightblue" d="M196.168,-127C204.364,-127 213.107,-127 221.809,-127"/>
<polygon fill="midnightblue" stroke="midnightblue" points="196.124,-123.5 186.124,-127 196.124,-130.5 196.124,-123.5"/>
</g>
<!-- Node7 -->
<g id="node7" class="node"><title>Node7</title>
<g id="a_node7"><a xlink:href="classpromise__moved.xhtml" target="_top" xlink:title="promise_moved">
<polygon fill="white" stroke="black" points="244.429,-78 244.429,-98 331.571,-98 331.571,-78 244.429,-78"/>
<text text-anchor="middle" x="288" y="-84" font-family="Helvetica,sans-Serif" font-size="10.00">promise_moved</text>
</a>
</g>
</g>
<!-- Node1&#45;&gt;Node7 -->
<g id="edge6" class="edge"><title>Node1&#45;&gt;Node7</title>
<path fill="none" stroke="midnightblue" d="M195.934,-114.504C214.176,-109.195 235.163,-103.087 252.388,-98.0736"/>
<polygon fill="midnightblue" stroke="midnightblue" points="194.747,-111.204 186.124,-117.36 196.703,-117.926 194.747,-111.204"/>
</g>
<!-- Node8 -->
<g id="node8" class="node"><title>Node8</title>
<g id="a_node8"><a xlink:href="classtask__already__started.xhtml" target="_top" xlink:title="task_already_started">
<polygon fill="white" stroke="black" points="233.584,-39 233.584,-59 342.416,-59 342.416,-39 233.584,-39"/>
<text text-anchor="middle" x="288" y="-45" font-family="Helvetica,sans-Serif" font-size="10.00">task_already_started</text>
</a>
</g>
</g>
<!-- Node1&#45;&gt;Node8 -->
<g id="edge7" class="edge"><title>Node1&#45;&gt;Node8</title>
<path fill="none" stroke="midnightblue" d="M169.577,-109.229C182.676,-96.1402 202.025,-78.8067 222,-68 228.515,-64.4756 235.759,-61.5352 242.98,-59.1047"/>
<polygon fill="midnightblue" stroke="midnightblue" points="166.741,-107.125 162.278,-116.734 171.759,-112.005 166.741,-107.125"/>
</g>
<!-- Node9 -->
<g id="node9" class="node"><title>Node9</title>
<g id="a_node9"><a xlink:href="classtask__moved.xhtml" target="_top" xlink:title="task_moved">
<polygon fill="white" stroke="black" points="253.042,-0 253.042,-20 322.958,-20 322.958,-0 253.042,-0"/>
<text text-anchor="middle" x="288" y="-6" font-family="Helvetica,sans-Serif" font-size="10.00">task_moved</text>
</a>
</g>
</g>
<!-- Node1&#45;&gt;Node9 -->
<g id="edge8" class="edge"><title>Node1&#45;&gt;Node9</title>
<path fill="none" stroke="midnightblue" d="M161.561,-107.866C172.463,-85.6569 193.38,-49.4693 222,-29 231.085,-22.5025 242.378,-18.2109 252.99,-15.3827"/>
<polygon fill="midnightblue" stroke="midnightblue" points="158.363,-106.442 157.264,-116.98 164.694,-109.427 158.363,-106.442"/>
</g>
<!-- Node2 -->
<g id="node2" class="node"><title>Node2</title>
<polygon fill="white" stroke="#bfbfbf" points="-0.0688477,-117 -0.0688477,-137 82.0688,-137 82.0688,-117 -0.0688477,-117"/>
<text text-anchor="middle" x="41" y="-123" font-family="Helvetica,sans-Serif" font-size="10.00">std::logic_error</text>
</g>
<!-- Node2&#45;&gt;Node1 -->
<g id="edge1" class="edge"><title>Node2&#45;&gt;Node1</title>
<path fill="none" stroke="midnightblue" d="M92.5522,-127C101.074,-127 109.726,-127 117.667,-127"/>
<polygon fill="midnightblue" stroke="midnightblue" points="92.2779,-123.5 82.2779,-127 92.2779,-130.5 92.2779,-123.5"/>
</g>
</g>
</svg>
