<?xml version="1.0" encoding="UTF-8" standalone="no"?>
<!DOCTYPE svg PUBLIC "-//W3C//DTD SVG 1.1//EN"
 "http://www.w3.org/Graphics/SVG/1.1/DTD/svg11.dtd">
<!-- Generated by graphviz version 2.30.0 (20130114.0426)
 -->
<!-- Title: NavigationPoint Pages: 1 -->
<svg width="742pt" height="190pt"
 viewBox="0.00 0.00 742.00 190.00" xmlns="http://www.w3.org/2000/svg" xmlns:xlink="http://www.w3.org/1999/xlink">
<g id="graph0" class="graph" transform="scale(1 1) rotate(0) translate(4 186)">
<title>NavigationPoint</title>
<polygon fill="white" stroke="white" points="-4,5 -4,-186 739,-186 739,5 -4,5"/>
<!-- Node1 -->
<g id="node1" class="node"><title>Node1</title>
<polygon fill="#bfbfbf" stroke="black" points="647.978,-85 647.978,-105 734.022,-105 734.022,-85 647.978,-85"/>
<text text-anchor="middle" x="691" y="-91" font-family="Helvetica,sans-Serif" font-size="10.00">NavigationPoint</text>
</g>
<!-- Node2 -->
<g id="node2" class="node"><title>Node2</title>
<g id="a_node2"><a xlink:href="class_navigation_element.xhtml" target="_top" xlink:title="NavigationElement">
<polygon fill="white" stroke="black" points="439.032,-153 439.032,-173 538.968,-173 538.968,-153 439.032,-153"/>
<text text-anchor="middle" x="489" y="-159" font-family="Helvetica,sans-Serif" font-size="10.00">NavigationElement</text>
</a>
</g>
</g>
<!-- Node2&#45;&gt;Node1 -->
<g id="edge1" class="edge"><title>Node2&#45;&gt;Node1</title>
<path fill="none" stroke="midnightblue" d="M534.262,-150.03C561.95,-141.684 598.261,-130.317 630,-119 641.941,-114.742 655.031,-109.567 665.929,-105.114"/>
<polygon fill="midnightblue" stroke="midnightblue" points="533.05,-146.739 524.475,-152.962 535.059,-153.444 533.05,-146.739"/>
</g>
<!-- Node3 -->
<g id="node3" class="node"><title>Node3</title>
<g id="a_node3"><a xlink:href="classshared__vector.xhtml" target="_top" xlink:title="shared_vector\&lt; Navigation\lElement \&gt;">
<polygon fill="white" stroke="black" points="185.381,-150 185.381,-182 320.619,-182 320.619,-150 185.381,-150"/>
<text text-anchor="start" x="193.381" y="-168" font-family="Helvetica,sans-Serif" font-size="10.00">shared_vector&lt; Navigation</text>
<text text-anchor="middle" x="253" y="-156" font-family="Helvetica,sans-Serif" font-size="10.00">Element &gt;</text>
</a>
</g>
</g>
<!-- Node3&#45;&gt;Node2 -->
<g id="edge2" class="edge"><title>Node3&#45;&gt;Node2</title>
<path fill="none" stroke="#9a32cd" stroke-dasharray="5,2" d="M331.093,-165.012C366.65,-164.556 407.793,-164.028 439.027,-163.628"/>
<polygon fill="#9a32cd" stroke="#9a32cd" points="330.696,-161.516 320.742,-165.144 330.786,-168.516 330.696,-161.516"/>
<text text-anchor="middle" x="368" y="-167" font-family="Helvetica,sans-Serif" font-size="10.00"> _children</text>
</g>
<!-- Node4 -->
<g id="node4" class="node"><title>Node4</title>
<polygon fill="white" stroke="#bfbfbf" points="-0.121582,-150 -0.121582,-182 140.122,-182 140.122,-150 -0.121582,-150"/>
<text text-anchor="start" x="7.87842" y="-168" font-family="Helvetica,sans-Serif" font-size="10.00">std::vector&lt;std::shared</text>
<text text-anchor="middle" x="70" y="-156" font-family="Helvetica,sans-Serif" font-size="10.00">_ptr&lt;NavigationElement &gt; &gt;</text>
</g>
<!-- Node4&#45;&gt;Node3 -->
<g id="edge3" class="edge"><title>Node4&#45;&gt;Node3</title>
<path fill="none" stroke="midnightblue" d="M150.346,-166C161.984,-166 173.871,-166 185.223,-166"/>
<polygon fill="midnightblue" stroke="midnightblue" points="150.203,-162.5 140.203,-166 150.203,-169.5 150.203,-162.5"/>
</g>
<!-- Node5 -->
<g id="node5" class="node"><title>Node5</title>
<g id="a_node5"><a xlink:href="class_pointer_type.xhtml" target="_top" xlink:title="PointerType\&lt; NavigationPoint \&gt;">
<polygon fill="white" stroke="black" points="410.675,-108 410.675,-128 567.325,-128 567.325,-108 410.675,-108"/>
<text text-anchor="middle" x="489" y="-114" font-family="Helvetica,sans-Serif" font-size="10.00">PointerType&lt; NavigationPoint &gt;</text>
</a>
</g>
</g>
<!-- Node5&#45;&gt;Node1 -->
<g id="edge4" class="edge"><title>Node5&#45;&gt;Node1</title>
<path fill="none" stroke="midnightblue" d="M577.358,-107.954C601.81,-105.142 627.287,-102.212 647.813,-99.8515"/>
<polygon fill="midnightblue" stroke="midnightblue" points="576.86,-104.488 567.325,-109.108 577.66,-111.442 576.86,-104.488"/>
</g>
<!-- Node6 -->
<g id="node6" class="node"><title>Node6</title>
<polygon fill="white" stroke="#bfbfbf" points="178.018,-99 178.018,-131 327.982,-131 327.982,-99 178.018,-99"/>
<text text-anchor="start" x="186.018" y="-117" font-family="Helvetica,sans-Serif" font-size="10.00">std::enable_shared</text>
<text text-anchor="middle" x="253" y="-105" font-family="Helvetica,sans-Serif" font-size="10.00">_from_this&lt; NavigationPoint &gt;</text>
</g>
<!-- Node6&#45;&gt;Node5 -->
<g id="edge5" class="edge"><title>Node6&#45;&gt;Node5</title>
<path fill="none" stroke="midnightblue" d="M338.341,-116.081C361.861,-116.383 387.295,-116.709 410.406,-117.005"/>
<polygon fill="midnightblue" stroke="midnightblue" points="338.083,-112.578 328.039,-115.949 337.993,-119.577 338.083,-112.578"/>
</g>
<!-- Node7 -->
<g id="node7" class="node"><title>Node7</title>
<g id="a_node7"><a xlink:href="class_owned_by.xhtml" target="_top" xlink:title="OwnedBy\&lt; NavigationElement \&gt;">
<polygon fill="white" stroke="black" points="408.737,-69 408.737,-89 569.263,-89 569.263,-69 408.737,-69"/>
<text text-anchor="middle" x="489" y="-75" font-family="Helvetica,sans-Serif" font-size="10.00">OwnedBy&lt; NavigationElement &gt;</text>
</a>
</g>
</g>
<!-- Node7&#45;&gt;Node1 -->
<g id="edge6" class="edge"><title>Node7&#45;&gt;Node1</title>
<path fill="none" stroke="midnightblue" d="M579.475,-86.158C603.292,-88.0633 627.914,-90.0332 647.857,-91.6286"/>
<polygon fill="midnightblue" stroke="midnightblue" points="579.58,-82.6553 569.333,-85.3466 579.022,-89.633 579.58,-82.6553"/>
</g>
<!-- Node8 -->
<g id="node8" class="node"><title>Node8</title>
<g id="a_node8"><a xlink:href="classstring.xhtml" target="_top" xlink:title="string">
<polygon fill="white" stroke="black" points="468.773,-0 468.773,-20 509.227,-20 509.227,-0 468.773,-0"/>
<text text-anchor="middle" x="489" y="-6" font-family="Helvetica,sans-Serif" font-size="10.00">string</text>
</a>
</g>
</g>
<!-- Node8&#45;&gt;Node1 -->
<g id="edge7" class="edge"><title>Node8&#45;&gt;Node1</title>
<path fill="none" stroke="#9a32cd" stroke-dasharray="5,2" d="M519.356,-18.3618C548.167,-27.0092 593.039,-41.6652 630,-59 646.057,-66.5311 663.315,-77.1812 675.181,-84.9433"/>
<polygon fill="#9a32cd" stroke="#9a32cd" points="520.095,-14.9305 509.513,-15.454 518.111,-21.6437 520.095,-14.9305"/>
<text text-anchor="middle" x="609" y="-73" font-family="Helvetica,sans-Serif" font-size="10.00"> _content</text>
<text text-anchor="middle" x="609" y="-61" font-family="Helvetica,sans-Serif" font-size="10.00">_label</text>
</g>
<!-- Node8&#45;&gt;Node8 -->
<g id="edge8" class="edge"><title>Node8&#45;&gt;Node8</title>
<path fill="none" stroke="#9a32cd" stroke-dasharray="5,2" d="M466.83,-29.5616C468.426,-34.3951 475.816,-38 489,-38 510.094,-38 516.356,-28.7715 507.787,-20.0477"/>
<polygon fill="#9a32cd" stroke="#9a32cd" points="470.16,-30.6424 470.213,-20.0477 463.565,-28.2968 470.16,-30.6424"/>
<text text-anchor="middle" x="489" y="-40" font-family="Helvetica,sans-Serif" font-size="10.00"> EmptyString</text>
</g>
</g>
</svg>
