<?xml version="1.0" encoding="UTF-8" standalone="no"?>
<!DOCTYPE svg PUBLIC "-//W3C//DTD SVG 1.1//EN"
 "http://www.w3.org/Graphics/SVG/1.1/DTD/svg11.dtd">
<!-- Generated by graphviz version 2.30.0 (20130114.0426)
 -->
<!-- Title: task_already_started Pages: 1 -->
<svg width="116pt" height="146pt"
 viewBox="0.00 0.00 116.00 146.00" xmlns="http://www.w3.org/2000/svg" xmlns:xlink="http://www.w3.org/1999/xlink">
<g id="graph0" class="graph" transform="scale(1 1) rotate(0) translate(4 142)">
<title>task_already_started</title>
<polygon fill="white" stroke="white" points="-4,5 -4,-142 113,-142 113,5 -4,5"/>
<!-- Node1 -->
<g id="node1" class="node"><title>Node1</title>
<polygon fill="#bfbfbf" stroke="black" points="-0.416016,-1 -0.416016,-21 108.416,-21 108.416,-1 -0.416016,-1"/>
<text text-anchor="middle" x="54" y="-7" font-family="Helvetica,sans-Serif" font-size="10.00">task_already_started</text>
</g>
<!-- Node2 -->
<g id="node2" class="node"><title>Node2</title>
<g id="a_node2"><a xlink:href="classfuture__error.xhtml" target="_top" xlink:title="future_error">
<polygon fill="white" stroke="black" points="19.877,-59 19.877,-79 88.123,-79 88.123,-59 19.877,-59"/>
<text text-anchor="middle" x="54" y="-65" font-family="Helvetica,sans-Serif" font-size="10.00">future_error</text>
</a>
</g>
</g>
<!-- Node2&#45;&gt;Node1 -->
<g id="edge1" class="edge"><title>Node2&#45;&gt;Node1</title>
<path fill="none" stroke="midnightblue" d="M54,-48.7065C54,-39.3384 54,-28.5262 54,-21.0752"/>
<polygon fill="midnightblue" stroke="midnightblue" points="50.5001,-48.7527 54,-58.7527 57.5001,-48.7528 50.5001,-48.7527"/>
</g>
<!-- Node3 -->
<g id="node3" class="node"><title>Node3</title>
<polygon fill="white" stroke="#bfbfbf" points="12.9312,-117 12.9312,-137 95.0688,-137 95.0688,-117 12.9312,-117"/>
<text text-anchor="middle" x="54" y="-123" font-family="Helvetica,sans-Serif" font-size="10.00">std::logic_error</text>
</g>
<!-- Node3&#45;&gt;Node2 -->
<g id="edge2" class="edge"><title>Node3&#45;&gt;Node2</title>
<path fill="none" stroke="midnightblue" d="M54,-106.707C54,-97.3384 54,-86.5262 54,-79.0752"/>
<polygon fill="midnightblue" stroke="midnightblue" points="50.5001,-106.753 54,-116.753 57.5001,-106.753 50.5001,-106.753"/>
</g>
</g>
</svg>
