<?xml version="1.0" encoding="UTF-8" standalone="no"?>
<!DOCTYPE svg PUBLIC "-//W3C//DTD SVG 1.1//EN"
 "http://www.w3.org/Graphics/SVG/1.1/DTD/svg11.dtd">
<!-- Generated by graphviz version 2.30.0 (20130114.0426)
 -->
<!-- Title: ByteStream Pages: 1 -->
<svg width="464pt" height="146pt"
 viewBox="0.00 0.00 464.00 146.00" xmlns="http://www.w3.org/2000/svg" xmlns:xlink="http://www.w3.org/1999/xlink">
<g id="graph0" class="graph" transform="scale(1 1) rotate(0) translate(4 142)">
<title>ByteStream</title>
<polygon fill="white" stroke="white" points="-4,5 -4,-142 461,-142 461,5 -4,5"/>
<!-- Node1 -->
<g id="node1" class="node"><title>Node1</title>
<polygon fill="#bfbfbf" stroke="black" points="172.879,-117 172.879,-137 241.121,-137 241.121,-117 172.879,-117"/>
<text text-anchor="middle" x="207" y="-123" font-family="Helvetica,sans-Serif" font-size="10.00">ByteStream</text>
</g>
<!-- Node2 -->
<g id="node2" class="node"><title>Node2</title>
<g id="a_node2"><a xlink:href="class_filter_chain_byte_stream.xhtml" target="_top" xlink:title="FilterChainByteStream">
<polygon fill="white" stroke="black" points="-0.29541,-59 -0.29541,-79 116.295,-79 116.295,-59 -0.29541,-59"/>
<text text-anchor="middle" x="58" y="-65" font-family="Helvetica,sans-Serif" font-size="10.00">FilterChainByteStream</text>
</a>
</g>
</g>
<!-- Node1&#45;&gt;Node2 -->
<g id="edge1" class="edge"><title>Node1&#45;&gt;Node2</title>
<path fill="none" stroke="midnightblue" d="M173.06,-113.244C145.373,-102.838 106.934,-88.3912 82.2607,-79.1181"/>
<polygon fill="midnightblue" stroke="midnightblue" points="172.137,-116.636 182.729,-116.878 174.6,-110.084 172.137,-116.636"/>
</g>
<!-- Node3 -->
<g id="node3" class="node"><title>Node3</title>
<g id="a_node3"><a xlink:href="class_filter_chain_byte_stream_range.xhtml" target="_top" xlink:title="FilterChainByteStreamRange">
<polygon fill="white" stroke="black" points="133.971,-59 133.971,-79 280.029,-79 280.029,-59 133.971,-59"/>
<text text-anchor="middle" x="207" y="-65" font-family="Helvetica,sans-Serif" font-size="10.00">FilterChainByteStreamRange</text>
</a>
</g>
</g>
<!-- Node1&#45;&gt;Node3 -->
<g id="edge2" class="edge"><title>Node1&#45;&gt;Node3</title>
<path fill="none" stroke="midnightblue" d="M207,-106.707C207,-97.3384 207,-86.5262 207,-79.0752"/>
<polygon fill="midnightblue" stroke="midnightblue" points="203.5,-106.753 207,-116.753 210.5,-106.753 203.5,-106.753"/>
</g>
<!-- Node4 -->
<g id="node4" class="node"><title>Node4</title>
<g id="a_node4"><a xlink:href="class_seekable_byte_stream.xhtml" target="_top" xlink:title="SeekableByteStream">
<polygon fill="white" stroke="black" points="298.03,-59 298.03,-79 407.97,-79 407.97,-59 298.03,-59"/>
<text text-anchor="middle" x="353" y="-65" font-family="Helvetica,sans-Serif" font-size="10.00">SeekableByteStream</text>
</a>
</g>
</g>
<!-- Node1&#45;&gt;Node4 -->
<g id="edge3" class="edge"><title>Node1&#45;&gt;Node4</title>
<path fill="none" stroke="midnightblue" d="M240.256,-113.244C267.386,-102.838 305.051,-88.3912 329.228,-79.1181"/>
<polygon fill="midnightblue" stroke="midnightblue" points="238.866,-110.029 230.782,-116.878 241.373,-116.565 238.866,-110.029"/>
</g>
<!-- Node5 -->
<g id="node5" class="node"><title>Node5</title>
<g id="a_node5"><a xlink:href="class_file_byte_stream.xhtml" target="_top" xlink:title="FileByteStream">
<polygon fill="white" stroke="black" points="255.823,-1 255.823,-21 340.177,-21 340.177,-1 255.823,-1"/>
<text text-anchor="middle" x="298" y="-7" font-family="Helvetica,sans-Serif" font-size="10.00">FileByteStream</text>
</a>
</g>
</g>
<!-- Node4&#45;&gt;Node5 -->
<g id="edge4" class="edge"><title>Node4&#45;&gt;Node5</title>
<path fill="none" stroke="midnightblue" d="M336.706,-51.4099C326.959,-41.486 314.947,-29.2551 306.913,-21.0752"/>
<polygon fill="midnightblue" stroke="midnightblue" points="334.414,-54.0707 343.918,-58.7527 339.408,-49.1657 334.414,-54.0707"/>
</g>
<!-- Node6 -->
<g id="node6" class="node"><title>Node6</title>
<g id="a_node6"><a xlink:href="class_zip_file_byte_stream.xhtml" target="_top" xlink:title="ZipFileByteStream">
<polygon fill="white" stroke="black" points="357.877,-1 357.877,-21 456.123,-21 456.123,-1 357.877,-1"/>
<text text-anchor="middle" x="407" y="-7" font-family="Helvetica,sans-Serif" font-size="10.00">ZipFileByteStream</text>
</a>
</g>
</g>
<!-- Node4&#45;&gt;Node6 -->
<g id="edge5" class="edge"><title>Node4&#45;&gt;Node6</title>
<path fill="none" stroke="midnightblue" d="M368.998,-51.4099C378.567,-41.486 390.361,-29.2551 398.249,-21.0752"/>
<polygon fill="midnightblue" stroke="midnightblue" points="366.339,-49.1248 361.917,-58.7527 371.378,-53.9838 366.339,-49.1248"/>
</g>
</g>
</svg>
