<?xml version="1.0" encoding="UTF-8" standalone="no"?>
<!DOCTYPE svg PUBLIC "-//W3C//DTD SVG 1.1//EN"
 "http://www.w3.org/Graphics/SVG/1.1/DTD/svg11.dtd">
<!-- Generated by graphviz version 2.30.0 (20130114.0426)
 -->
<!-- Title: xml::exception Pages: 1 -->
<svg width="328pt" height="146pt"
 viewBox="0.00 0.00 328.00 146.00" xmlns="http://www.w3.org/2000/svg" xmlns:xlink="http://www.w3.org/1999/xlink">
<g id="graph0" class="graph" transform="scale(1 1) rotate(0) translate(4 142)">
<title>xml::exception</title>
<polygon fill="white" stroke="white" points="-4,5 -4,-142 325,-142 325,5 -4,5"/>
<!-- Node1 -->
<g id="node1" class="node"><title>Node1</title>
<polygon fill="#bfbfbf" stroke="black" points="115.042,-59 115.042,-79 194.958,-79 194.958,-59 115.042,-59"/>
<text text-anchor="middle" x="155" y="-65" font-family="Helvetica,sans-Serif" font-size="10.00">xml::exception</text>
</g>
<!-- Node3 -->
<g id="node3" class="node"><title>Node3</title>
<g id="a_node3"><a xlink:href="classxml_1_1_internal_error.xhtml" target="_top" xlink:title="xml::InternalError">
<polygon fill="white" stroke="black" points="-0.342285,-1 -0.342285,-21 92.3423,-21 92.3423,-1 -0.342285,-1"/>
<text text-anchor="middle" x="46" y="-7" font-family="Helvetica,sans-Serif" font-size="10.00">xml::InternalError</text>
</a>
</g>
</g>
<!-- Node1&#45;&gt;Node3 -->
<g id="edge2" class="edge"><title>Node1&#45;&gt;Node3</title>
<path fill="none" stroke="midnightblue" d="M128.03,-54.1437C107.941,-43.8227 81.0835,-30.0245 63.6642,-21.0752"/>
<polygon fill="midnightblue" stroke="midnightblue" points="126.507,-57.2961 137.001,-58.7527 129.706,-51.0697 126.507,-57.2961"/>
</g>
<!-- Node4 -->
<g id="node4" class="node"><title>Node4</title>
<g id="a_node4"><a xlink:href="classxml_1_1_parser_error.xhtml" target="_top" xlink:title="xml::ParserError">
<polygon fill="white" stroke="black" points="110.608,-1 110.608,-21 199.392,-21 199.392,-1 110.608,-1"/>
<text text-anchor="middle" x="155" y="-7" font-family="Helvetica,sans-Serif" font-size="10.00">xml::ParserError</text>
</a>
</g>
</g>
<!-- Node1&#45;&gt;Node4 -->
<g id="edge3" class="edge"><title>Node1&#45;&gt;Node4</title>
<path fill="none" stroke="midnightblue" d="M155,-48.7065C155,-39.3384 155,-28.5262 155,-21.0752"/>
<polygon fill="midnightblue" stroke="midnightblue" points="151.5,-48.7527 155,-58.7527 158.5,-48.7528 151.5,-48.7527"/>
</g>
<!-- Node5 -->
<g id="node5" class="node"><title>Node5</title>
<g id="a_node5"><a xlink:href="classxml_1_1_validation_error.xhtml" target="_top" xlink:title="xml::ValidationError">
<polygon fill="white" stroke="black" points="217.743,-1 217.743,-21 320.257,-21 320.257,-1 217.743,-1"/>
<text text-anchor="middle" x="269" y="-7" font-family="Helvetica,sans-Serif" font-size="10.00">xml::ValidationError</text>
</a>
</g>
</g>
<!-- Node1&#45;&gt;Node5 -->
<g id="edge4" class="edge"><title>Node1&#45;&gt;Node5</title>
<path fill="none" stroke="midnightblue" d="M182.657,-54.4143C203.692,-44.0813 232.058,-30.1472 250.438,-21.1181"/>
<polygon fill="midnightblue" stroke="midnightblue" points="181.002,-51.3275 173.57,-58.878 184.089,-57.6103 181.002,-51.3275"/>
</g>
<!-- Node2 -->
<g id="node2" class="node"><title>Node2</title>
<polygon fill="white" stroke="#bfbfbf" points="116.148,-117 116.148,-137 193.852,-137 193.852,-117 116.148,-117"/>
<text text-anchor="middle" x="155" y="-123" font-family="Helvetica,sans-Serif" font-size="10.00">std::exception</text>
</g>
<!-- Node2&#45;&gt;Node1 -->
<g id="edge1" class="edge"><title>Node2&#45;&gt;Node1</title>
<path fill="none" stroke="midnightblue" d="M155,-106.707C155,-97.3384 155,-86.5262 155,-79.0752"/>
<polygon fill="midnightblue" stroke="midnightblue" points="151.5,-106.753 155,-116.753 158.5,-106.753 151.5,-106.753"/>
</g>
</g>
</svg>
