<?xml version="1.0" encoding="UTF-8" standalone="no"?>
<!DOCTYPE svg PUBLIC "-//W3C//DTD SVG 1.1//EN"
 "http://www.w3.org/Graphics/SVG/1.1/DTD/svg11.dtd">
<!-- Generated by graphviz version 2.30.0 (20130114.0426)
 -->
<!-- Title: XMLIdentifiable Pages: 1 -->
<svg width="425pt" height="88pt"
 viewBox="0.00 0.00 425.00 88.00" xmlns="http://www.w3.org/2000/svg" xmlns:xlink="http://www.w3.org/1999/xlink">
<g id="graph0" class="graph" transform="scale(1 1) rotate(0) translate(4 84)">
<title>XMLIdentifiable</title>
<polygon fill="white" stroke="white" points="-4,5 -4,-84 422,-84 422,5 -4,5"/>
<!-- Node1 -->
<g id="node1" class="node"><title>Node1</title>
<polygon fill="#bfbfbf" stroke="black" points="153.535,-59 153.535,-79 238.465,-79 238.465,-59 153.535,-59"/>
<text text-anchor="middle" x="196" y="-65" font-family="Helvetica,sans-Serif" font-size="10.00">XMLIdentifiable</text>
</g>
<!-- Node2 -->
<g id="node2" class="node"><title>Node2</title>
<g id="a_node2"><a xlink:href="class_collection.xhtml" target="_top" xlink:title="Collection">
<polygon fill="white" stroke="black" points="-0.955566,-1 -0.955566,-21 58.9556,-21 58.9556,-1 -0.955566,-1"/>
<text text-anchor="middle" x="29" y="-7" font-family="Helvetica,sans-Serif" font-size="10.00">Collection</text>
</a>
</g>
</g>
<!-- Node1&#45;&gt;Node2 -->
<g id="edge1" class="edge"><title>Node1&#45;&gt;Node2</title>
<path fill="none" stroke="midnightblue" d="M159.149,-55.6427C127.933,-45.1753 83.9107,-30.4132 55.9148,-21.0253"/>
<polygon fill="midnightblue" stroke="midnightblue" points="158.203,-59.017 168.797,-58.878 160.429,-52.3802 158.203,-59.017"/>
</g>
<!-- Node3 -->
<g id="node3" class="node"><title>Node3</title>
<g id="a_node3"><a xlink:href="class_manifest_item.xhtml" target="_top" xlink:title="ManifestItem">
<polygon fill="white" stroke="black" points="77.3794,-1 77.3794,-21 150.621,-21 150.621,-1 77.3794,-1"/>
<text text-anchor="middle" x="114" y="-7" font-family="Helvetica,sans-Serif" font-size="10.00">ManifestItem</text>
</a>
</g>
</g>
<!-- Node1&#45;&gt;Node3 -->
<g id="edge2" class="edge"><title>Node1&#45;&gt;Node3</title>
<path fill="none" stroke="midnightblue" d="M173.84,-52.8661C158.964,-42.7069 139.859,-29.6601 127.289,-21.0752"/>
<polygon fill="midnightblue" stroke="midnightblue" points="172.227,-56.0034 182.459,-58.7527 176.175,-50.2228 172.227,-56.0034"/>
</g>
<!-- Node4 -->
<g id="node4" class="node"><title>Node4</title>
<g id="a_node4"><a xlink:href="class_property.xhtml" target="_top" xlink:title="Property">
<polygon fill="white" stroke="black" points="169.104,-1 169.104,-21 222.896,-21 222.896,-1 169.104,-1"/>
<text text-anchor="middle" x="196" y="-7" font-family="Helvetica,sans-Serif" font-size="10.00">Property</text>
</a>
</g>
</g>
<!-- Node1&#45;&gt;Node4 -->
<g id="edge3" class="edge"><title>Node1&#45;&gt;Node4</title>
<path fill="none" stroke="midnightblue" d="M196,-48.7065C196,-39.3384 196,-28.5262 196,-21.0752"/>
<polygon fill="midnightblue" stroke="midnightblue" points="192.5,-48.7527 196,-58.7527 199.5,-48.7528 192.5,-48.7527"/>
</g>
<!-- Node5 -->
<g id="node5" class="node"><title>Node5</title>
<g id="a_node5"><a xlink:href="class_property_extension.xhtml" target="_top" xlink:title="An extension to an existing property, providing additional related metadata.">
<polygon fill="white" stroke="black" points="241.146,-1 241.146,-21 338.854,-21 338.854,-1 241.146,-1"/>
<text text-anchor="middle" x="290" y="-7" font-family="Helvetica,sans-Serif" font-size="10.00">PropertyExtension</text>
</a>
</g>
</g>
<!-- Node1&#45;&gt;Node5 -->
<g id="edge4" class="edge"><title>Node1&#45;&gt;Node5</title>
<path fill="none" stroke="midnightblue" d="M220.443,-53.438C237.627,-43.2008 260.084,-29.8221 274.767,-21.0752"/>
<polygon fill="midnightblue" stroke="midnightblue" points="218.322,-50.6278 211.522,-58.7527 221.905,-56.6415 218.322,-50.6278"/>
</g>
<!-- Node6 -->
<g id="node6" class="node"><title>Node6</title>
<g id="a_node6"><a xlink:href="class_spine_item.xhtml" target="_top" xlink:title="SpineItem">
<polygon fill="white" stroke="black" points="356.488,-1 356.488,-21 417.512,-21 417.512,-1 356.488,-1"/>
<text text-anchor="middle" x="387" y="-7" font-family="Helvetica,sans-Serif" font-size="10.00">SpineItem</text>
</a>
</g>
</g>
<!-- Node1&#45;&gt;Node6 -->
<g id="edge5" class="edge"><title>Node1&#45;&gt;Node6</title>
<path fill="none" stroke="midnightblue" d="M236.764,-56.0483C272.538,-45.5596 323.782,-30.5351 356.217,-21.0253"/>
<polygon fill="midnightblue" stroke="midnightblue" points="235.724,-52.7058 227.113,-58.878 237.693,-59.423 235.724,-52.7058"/>
</g>
</g>
</svg>
