<?xml version="1.0" encoding="UTF-8" standalone="no"?>
<!DOCTYPE svg PUBLIC "-//W3C//DTD SVG 1.1//EN"
 "http://www.w3.org/Graphics/SVG/1.1/DTD/svg11.dtd">
<!-- Generated by graphviz version 2.30.0 (20130114.0426)
 -->
<!-- Title: SMILData::Parallel Pages: 1 -->
<svg width="686pt" height="199pt"
 viewBox="0.00 0.00 686.00 199.00" xmlns="http://www.w3.org/2000/svg" xmlns:xlink="http://www.w3.org/1999/xlink">
<g id="graph0" class="graph" transform="scale(1 1) rotate(0) translate(4 195)">
<title>SMILData::Parallel</title>
<polygon fill="white" stroke="white" points="-4,5 -4,-195 683,-195 683,5 -4,5"/>
<!-- Node1 -->
<g id="node1" class="node"><title>Node1</title>
<polygon fill="#bfbfbf" stroke="black" points="578.315,-57 578.315,-77 677.685,-77 677.685,-57 578.315,-57"/>
<text text-anchor="middle" x="628" y="-63" font-family="Helvetica,sans-Serif" font-size="10.00">SMILData::Parallel</text>
</g>
<!-- Node2 -->
<g id="node2" class="node"><title>Node2</title>
<g id="a_node2"><a xlink:href="class_s_m_i_l_data_1_1_time_container.xhtml" target="_top" xlink:title="SMILData::TimeContainer">
<polygon fill="white" stroke="black" points="376.383,-102 376.383,-122 507.617,-122 507.617,-102 376.383,-102"/>
<text text-anchor="middle" x="442" y="-108" font-family="Helvetica,sans-Serif" font-size="10.00">SMILData::TimeContainer</text>
</a>
</g>
</g>
<!-- Node2&#45;&gt;Node1 -->
<g id="edge1" class="edge"><title>Node2&#45;&gt;Node1</title>
<path fill="none" stroke="midnightblue" d="M494.212,-99.4752C523.121,-92.4052 558.766,-83.6876 585.845,-77.0652"/>
<polygon fill="midnightblue" stroke="midnightblue" points="493.175,-96.1256 484.293,-101.901 494.838,-102.925 493.175,-96.1256"/>
</g>
<!-- Node3 -->
<g id="node3" class="node"><title>Node3</title>
<g id="a_node3"><a xlink:href="class_s_m_i_l_data_1_1_time_node.xhtml" target="_top" xlink:title="SMILData::TimeNode">
<polygon fill="white" stroke="black" points="200.109,-126 200.109,-146 311.891,-146 311.891,-126 200.109,-126"/>
<text text-anchor="middle" x="256" y="-132" font-family="Helvetica,sans-Serif" font-size="10.00">SMILData::TimeNode</text>
</a>
</g>
</g>
<!-- Node3&#45;&gt;Node2 -->
<g id="edge2" class="edge"><title>Node3&#45;&gt;Node2</title>
<path fill="none" stroke="midnightblue" d="M322.311,-127.481C339.785,-125.202 358.665,-122.739 376.116,-120.463"/>
<polygon fill="midnightblue" stroke="midnightblue" points="321.669,-124.035 312.206,-128.799 322.575,-130.976 321.669,-124.035"/>
</g>
<!-- Node4 -->
<g id="node4" class="node"><title>Node4</title>
<g id="a_node4"><a xlink:href="class_owned_by.xhtml" target="_top" xlink:title="OwnedBy\&lt; SMILData \&gt;">
<polygon fill="white" stroke="black" points="2.47314,-171 2.47314,-191 123.527,-191 123.527,-171 2.47314,-171"/>
<text text-anchor="middle" x="63" y="-177" font-family="Helvetica,sans-Serif" font-size="10.00">OwnedBy&lt; SMILData &gt;</text>
</a>
</g>
</g>
<!-- Node4&#45;&gt;Node3 -->
<g id="edge3" class="edge"><title>Node4&#45;&gt;Node3</title>
<path fill="none" stroke="midnightblue" d="M116.768,-168.568C146.846,-161.481 184.048,-152.716 212.279,-146.065"/>
<polygon fill="midnightblue" stroke="midnightblue" points="115.795,-165.201 106.864,-170.901 117.4,-172.015 115.795,-165.201"/>
</g>
<!-- Node5 -->
<g id="node5" class="node"><title>Node5</title>
<polygon fill="white" stroke="#bfbfbf" points="0.246582,-120 0.246582,-152 125.753,-152 125.753,-120 0.246582,-120"/>
<text text-anchor="start" x="8.24658" y="-138" font-family="Helvetica,sans-Serif" font-size="10.00">std::enable_shared</text>
<text text-anchor="middle" x="63" y="-126" font-family="Helvetica,sans-Serif" font-size="10.00">_from_this&lt; TimeNode &gt;</text>
</g>
<!-- Node5&#45;&gt;Node3 -->
<g id="edge4" class="edge"><title>Node5&#45;&gt;Node3</title>
<path fill="none" stroke="midnightblue" d="M136.246,-136C157.397,-136 180.169,-136 200.058,-136"/>
<polygon fill="midnightblue" stroke="midnightblue" points="136.012,-132.5 126.012,-136 136.012,-139.5 136.012,-132.5"/>
</g>
<!-- Node6 -->
<g id="node6" class="node"><title>Node6</title>
<polygon fill="white" stroke="#bfbfbf" points="4.55566,-69 4.55566,-101 121.444,-101 121.444,-69 4.55566,-69"/>
<text text-anchor="start" x="12.5557" y="-87" font-family="Helvetica,sans-Serif" font-size="10.00">shared_ptr&lt; SMILData</text>
<text text-anchor="middle" x="63" y="-75" font-family="Helvetica,sans-Serif" font-size="10.00">::TimeContainer &gt;</text>
</g>
<!-- Node6&#45;&gt;Node3 -->
<g id="edge5" class="edge"><title>Node6&#45;&gt;Node3</title>
<path fill="none" stroke="#9a32cd" stroke-dasharray="5,2" d="M131.595,-103.049C160.445,-110.752 193.019,-119.45 217.454,-125.975"/>
<polygon fill="#9a32cd" stroke="#9a32cd" points="132.13,-99.5692 121.565,-100.371 130.324,-106.332 132.13,-99.5692"/>
<text text-anchor="middle" x="163" y="-117" font-family="Helvetica,sans-Serif" font-size="10.00"> _parent</text>
</g>
<!-- Node7 -->
<g id="node7" class="node"><title>Node7</title>
<g id="a_node7"><a xlink:href="classstring.xhtml" target="_top" xlink:title="string">
<polygon fill="white" stroke="black" points="235.773,-57 235.773,-77 276.227,-77 276.227,-57 235.773,-57"/>
<text text-anchor="middle" x="256" y="-63" font-family="Helvetica,sans-Serif" font-size="10.00">string</text>
</a>
</g>
</g>
<!-- Node7&#45;&gt;Node2 -->
<g id="edge6" class="edge"><title>Node7&#45;&gt;Node2</title>
<path fill="none" stroke="#9a32cd" stroke-dasharray="5,2" d="M286.409,-74.1924C317.096,-81.6973 365.45,-93.5231 399.904,-101.949"/>
<polygon fill="#9a32cd" stroke="#9a32cd" points="286.889,-70.7066 276.343,-71.7307 285.226,-77.5063 286.889,-70.7066"/>
<text text-anchor="middle" x="344" y="-93" font-family="Helvetica,sans-Serif" font-size="10.00"> _type</text>
</g>
<!-- Node7&#45;&gt;Node7 -->
<g id="edge7" class="edge"><title>Node7&#45;&gt;Node7</title>
<path fill="none" stroke="#9a32cd" stroke-dasharray="5,2" d="M239.838,-86.9218C241.186,-91.5731 246.574,-95 256,-95 271.469,-95 276.061,-85.7715 269.777,-77.0477"/>
<polygon fill="#9a32cd" stroke="#9a32cd" points="243.277,-87.5899 242.223,-77.0477 236.473,-85.9461 243.277,-87.5899"/>
<text text-anchor="middle" x="256" y="-97" font-family="Helvetica,sans-Serif" font-size="10.00"> EmptyString</text>
</g>
<!-- Node8 -->
<g id="node8" class="node"><title>Node8</title>
<polygon fill="white" stroke="#bfbfbf" points="383.556,-51 383.556,-83 500.444,-83 500.444,-51 383.556,-51"/>
<text text-anchor="start" x="391.556" y="-69" font-family="Helvetica,sans-Serif" font-size="10.00">shared_ptr&lt; SMILData</text>
<text text-anchor="middle" x="442" y="-57" font-family="Helvetica,sans-Serif" font-size="10.00">::Audio &gt;</text>
</g>
<!-- Node8&#45;&gt;Node1 -->
<g id="edge8" class="edge"><title>Node8&#45;&gt;Node1</title>
<path fill="none" stroke="#9a32cd" stroke-dasharray="5,2" d="M510.565,-67C532.917,-67 557.343,-67 578.026,-67"/>
<polygon fill="#9a32cd" stroke="#9a32cd" points="510.462,-63.5001 500.462,-67 510.462,-70.5001 510.462,-63.5001"/>
<text text-anchor="middle" x="543" y="-69" font-family="Helvetica,sans-Serif" font-size="10.00"> _audio</text>
</g>
<!-- Node9 -->
<g id="node9" class="node"><title>Node9</title>
<polygon fill="white" stroke="#bfbfbf" points="383.556,-0 383.556,-32 500.444,-32 500.444,-0 383.556,-0"/>
<text text-anchor="start" x="391.556" y="-18" font-family="Helvetica,sans-Serif" font-size="10.00">shared_ptr&lt; SMILData</text>
<text text-anchor="middle" x="442" y="-6" font-family="Helvetica,sans-Serif" font-size="10.00">::Text &gt;</text>
</g>
<!-- Node9&#45;&gt;Node1 -->
<g id="edge9" class="edge"><title>Node9&#45;&gt;Node1</title>
<path fill="none" stroke="#9a32cd" stroke-dasharray="5,2" d="M510.329,-34.6619C537.547,-42.2061 567.876,-50.6124 590.788,-56.963"/>
<polygon fill="#9a32cd" stroke="#9a32cd" points="511.033,-31.2252 500.462,-31.9269 509.164,-37.9709 511.033,-31.2252"/>
<text text-anchor="middle" x="543" y="-50" font-family="Helvetica,sans-Serif" font-size="10.00"> _text</text>
</g>
</g>
</svg>
