<?xml version="1.0" encoding="UTF-8" standalone="no"?>
<!DOCTYPE svg PUBLIC "-//W3C//DTD SVG 1.1//EN"
 "http://www.w3.org/Graphics/SVG/1.1/DTD/svg11.dtd">
<!-- Generated by graphviz version 2.30.0 (20130114.0426)
 -->
<!-- Title: Property Pages: 1 -->
<svg width="396pt" height="158pt"
 viewBox="0.00 0.00 396.00 158.00" xmlns="http://www.w3.org/2000/svg" xmlns:xlink="http://www.w3.org/1999/xlink">
<g id="graph0" class="graph" transform="scale(1 1) rotate(0) translate(4 154)">
<title>Property</title>
<polygon fill="white" stroke="white" points="-4,5 -4,-154 393,-154 393,5 -4,5"/>
<!-- Node1 -->
<g id="node1" class="node"><title>Node1</title>
<polygon fill="#bfbfbf" stroke="black" points="187.104,-1 187.104,-21 240.896,-21 240.896,-1 187.104,-1"/>
<text text-anchor="middle" x="214" y="-7" font-family="Helvetica,sans-Serif" font-size="10.00">Property</text>
</g>
<!-- Node2 -->
<g id="node2" class="node"><title>Node2</title>
<g id="a_node2"><a xlink:href="class_pointer_type.xhtml" target="_top" xlink:title="PointerType\&lt; Property \&gt;">
<polygon fill="white" stroke="black" points="-0.199219,-59 -0.199219,-79 124.199,-79 124.199,-59 -0.199219,-59"/>
<text text-anchor="middle" x="62" y="-65" font-family="Helvetica,sans-Serif" font-size="10.00">PointerType&lt; Property &gt;</text>
</a>
</g>
</g>
<!-- Node2&#45;&gt;Node1 -->
<g id="edge1" class="edge"><title>Node2&#45;&gt;Node1</title>
<path fill="none" stroke="midnightblue" d="M96.2522,-55.3808C124.524,-44.9649 163.971,-30.4319 189.251,-21.1181"/>
<polygon fill="midnightblue" stroke="midnightblue" points="94.9332,-52.1367 86.7597,-58.878 97.3531,-58.7051 94.9332,-52.1367"/>
</g>
<!-- Node3 -->
<g id="node3" class="node"><title>Node3</title>
<polygon fill="white" stroke="#bfbfbf" points="3.14307,-117 3.14307,-149 120.857,-149 120.857,-117 3.14307,-117"/>
<text text-anchor="start" x="11.1431" y="-135" font-family="Helvetica,sans-Serif" font-size="10.00">std::enable_shared</text>
<text text-anchor="middle" x="62" y="-123" font-family="Helvetica,sans-Serif" font-size="10.00">_from_this&lt; Property &gt;</text>
</g>
<!-- Node3&#45;&gt;Node2 -->
<g id="edge2" class="edge"><title>Node3&#45;&gt;Node2</title>
<path fill="none" stroke="midnightblue" d="M62,-106.922C62,-97.1719 62,-86.6099 62,-79.2904"/>
<polygon fill="midnightblue" stroke="midnightblue" points="58.5001,-106.991 62,-116.992 65.5001,-106.992 58.5001,-106.991"/>
</g>
<!-- Node4 -->
<g id="node4" class="node"><title>Node4</title>
<g id="a_node4"><a xlink:href="class_owned_by.xhtml" target="_top" xlink:title="OwnedBy\&lt; PropertyHolder \&gt;">
<polygon fill="white" stroke="black" points="142.079,-59 142.079,-79 285.921,-79 285.921,-59 142.079,-59"/>
<text text-anchor="middle" x="214" y="-65" font-family="Helvetica,sans-Serif" font-size="10.00">OwnedBy&lt; PropertyHolder &gt;</text>
</a>
</g>
</g>
<!-- Node4&#45;&gt;Node1 -->
<g id="edge3" class="edge"><title>Node4&#45;&gt;Node1</title>
<path fill="none" stroke="midnightblue" d="M214,-48.7065C214,-39.3384 214,-28.5262 214,-21.0752"/>
<polygon fill="midnightblue" stroke="midnightblue" points="210.5,-48.7527 214,-58.7527 217.5,-48.7528 210.5,-48.7527"/>
</g>
<!-- Node5 -->
<g id="node5" class="node"><title>Node5</title>
<g id="a_node5"><a xlink:href="class_x_m_l_identifiable.xhtml" target="_top" xlink:title="XMLIdentifiable">
<polygon fill="white" stroke="black" points="303.535,-59 303.535,-79 388.465,-79 388.465,-59 303.535,-59"/>
<text text-anchor="middle" x="346" y="-65" font-family="Helvetica,sans-Serif" font-size="10.00">XMLIdentifiable</text>
</a>
</g>
</g>
<!-- Node5&#45;&gt;Node1 -->
<g id="edge4" class="edge"><title>Node5&#45;&gt;Node1</title>
<path fill="none" stroke="midnightblue" d="M315.285,-54.9693C290.808,-44.585 257.159,-30.3099 235.493,-21.1181"/>
<polygon fill="midnightblue" stroke="midnightblue" points="313.925,-58.1945 324.498,-58.878 316.659,-51.7504 313.925,-58.1945"/>
</g>
</g>
</svg>
