<?xml version="1.0" encoding="UTF-8" standalone="no"?>
<!DOCTYPE svg PUBLIC "-//W3C//DTD SVG 1.1//EN"
 "http://www.w3.org/Graphics/SVG/1.1/DTD/svg11.dtd">
<!-- Generated by graphviz version 2.30.0 (20130114.0426)
 -->
<!-- Title: Link Pages: 1 -->
<svg width="251pt" height="158pt"
 viewBox="0.00 0.00 251.00 158.00" xmlns="http://www.w3.org/2000/svg" xmlns:xlink="http://www.w3.org/1999/xlink">
<g id="graph0" class="graph" transform="scale(1 1) rotate(0) translate(4 154)">
<title>Link</title>
<polygon fill="white" stroke="white" points="-4,5 -4,-154 248,-154 248,5 -4,5"/>
<!-- Node1 -->
<g id="node1" class="node"><title>Node1</title>
<polygon fill="#bfbfbf" stroke="black" points="99.8276,-1 99.8276,-21 134.172,-21 134.172,-1 99.8276,-1"/>
<text text-anchor="middle" x="117" y="-7" font-family="Helvetica,sans-Serif" font-size="10.00">Link</text>
</g>
<!-- Node2 -->
<g id="node2" class="node"><title>Node2</title>
<g id="a_node2"><a xlink:href="class_pointer_type.xhtml" target="_top" xlink:title="PointerType\&lt; Link \&gt;">
<polygon fill="white" stroke="black" points="-0.475098,-59 -0.475098,-79 104.475,-79 104.475,-59 -0.475098,-59"/>
<text text-anchor="middle" x="52" y="-65" font-family="Helvetica,sans-Serif" font-size="10.00">PointerType&lt; Link &gt;</text>
</a>
</g>
</g>
<!-- Node2&#45;&gt;Node1 -->
<g id="edge1" class="edge"><title>Node2&#45;&gt;Node1</title>
<path fill="none" stroke="midnightblue" d="M70.5752,-51.9967C82.2111,-41.9719 96.7837,-29.4171 106.466,-21.0752"/>
<polygon fill="midnightblue" stroke="midnightblue" points="68.025,-49.574 62.7334,-58.7527 72.594,-54.8773 68.025,-49.574"/>
</g>
<!-- Node3 -->
<g id="node3" class="node"><title>Node3</title>
<polygon fill="white" stroke="#bfbfbf" points="1.46826,-117 1.46826,-149 102.532,-149 102.532,-117 1.46826,-117"/>
<text text-anchor="start" x="9.46826" y="-135" font-family="Helvetica,sans-Serif" font-size="10.00">std::enable_shared</text>
<text text-anchor="middle" x="52" y="-123" font-family="Helvetica,sans-Serif" font-size="10.00">_from_this&lt; Link &gt;</text>
</g>
<!-- Node3&#45;&gt;Node2 -->
<g id="edge2" class="edge"><title>Node3&#45;&gt;Node2</title>
<path fill="none" stroke="midnightblue" d="M52,-106.922C52,-97.1719 52,-86.6099 52,-79.2904"/>
<polygon fill="midnightblue" stroke="midnightblue" points="48.5001,-106.991 52,-116.992 55.5001,-106.992 48.5001,-106.991"/>
</g>
<!-- Node4 -->
<g id="node4" class="node"><title>Node4</title>
<g id="a_node4"><a xlink:href="class_owned_by.xhtml" target="_top" xlink:title="OwnedBy\&lt; Collection \&gt;">
<polygon fill="white" stroke="black" points="122.749,-59 122.749,-79 243.251,-79 243.251,-59 122.749,-59"/>
<text text-anchor="middle" x="183" y="-65" font-family="Helvetica,sans-Serif" font-size="10.00">OwnedBy&lt; Collection &gt;</text>
</a>
</g>
</g>
<!-- Node4&#45;&gt;Node1 -->
<g id="edge3" class="edge"><title>Node4&#45;&gt;Node1</title>
<path fill="none" stroke="midnightblue" d="M164.139,-51.9967C152.324,-41.9719 137.527,-29.4171 127.696,-21.0752"/>
<polygon fill="midnightblue" stroke="midnightblue" points="162.212,-54.9517 172.101,-58.7527 166.741,-49.6141 162.212,-54.9517"/>
</g>
</g>
</svg>
