<?xml version="1.0" encoding="UTF-8" standalone="no"?>
<!DOCTYPE svg PUBLIC "-//W3C//DTD SVG 1.1//EN"
 "http://www.w3.org/Graphics/SVG/1.1/DTD/svg11.dtd">
<!-- Generated by graphviz version 2.30.0 (20130114.0426)
 -->
<!-- Title: Glossary Pages: 1 -->
<svg width="384pt" height="158pt"
 viewBox="0.00 0.00 384.00 158.00" xmlns="http://www.w3.org/2000/svg" xmlns:xlink="http://www.w3.org/1999/xlink">
<g id="graph0" class="graph" transform="scale(1 1) rotate(0) translate(4 154)">
<title>Glossary</title>
<polygon fill="white" stroke="white" points="-4,5 -4,-154 381,-154 381,5 -4,5"/>
<!-- Node1 -->
<g id="node1" class="node"><title>Node1</title>
<polygon fill="#bfbfbf" stroke="black" points="152.273,-1 152.273,-21 207.727,-21 207.727,-1 152.273,-1"/>
<text text-anchor="middle" x="180" y="-7" font-family="Helvetica,sans-Serif" font-size="10.00">Glossary</text>
</g>
<!-- Node2 -->
<g id="node2" class="node"><title>Node2</title>
<g id="a_node2"><a xlink:href="class_navigation_element.xhtml" target="_top" xlink:title="NavigationElement">
<polygon fill="white" stroke="black" points="-0.967773,-59 -0.967773,-79 98.9678,-79 98.9678,-59 -0.967773,-59"/>
<text text-anchor="middle" x="49" y="-65" font-family="Helvetica,sans-Serif" font-size="10.00">NavigationElement</text>
</a>
</g>
</g>
<!-- Node2&#45;&gt;Node1 -->
<g id="edge1" class="edge"><title>Node2&#45;&gt;Node1</title>
<path fill="none" stroke="midnightblue" d="M79.8055,-54.8313C104.07,-44.4588 137.263,-30.2692 158.67,-21.1181"/>
<polygon fill="midnightblue" stroke="midnightblue" points="78.1583,-51.7289 70.339,-58.878 80.9098,-58.1655 78.1583,-51.7289"/>
</g>
<!-- Node3 -->
<g id="node3" class="node"><title>Node3</title>
<g id="a_node3"><a xlink:href="class_pointer_type.xhtml" target="_top" xlink:title="PointerType\&lt; Glossary \&gt;">
<polygon fill="white" stroke="black" points="116.971,-59 116.971,-79 243.029,-79 243.029,-59 116.971,-59"/>
<text text-anchor="middle" x="180" y="-65" font-family="Helvetica,sans-Serif" font-size="10.00">PointerType&lt; Glossary &gt;</text>
</a>
</g>
</g>
<!-- Node3&#45;&gt;Node1 -->
<g id="edge2" class="edge"><title>Node3&#45;&gt;Node1</title>
<path fill="none" stroke="midnightblue" d="M180,-48.7065C180,-39.3384 180,-28.5262 180,-21.0752"/>
<polygon fill="midnightblue" stroke="midnightblue" points="176.5,-48.7527 180,-58.7527 183.5,-48.7528 176.5,-48.7527"/>
</g>
<!-- Node4 -->
<g id="node4" class="node"><title>Node4</title>
<polygon fill="white" stroke="#bfbfbf" points="120.313,-117 120.313,-149 239.687,-149 239.687,-117 120.313,-117"/>
<text text-anchor="start" x="128.313" y="-135" font-family="Helvetica,sans-Serif" font-size="10.00">std::enable_shared</text>
<text text-anchor="middle" x="180" y="-123" font-family="Helvetica,sans-Serif" font-size="10.00">_from_this&lt; Glossary &gt;</text>
</g>
<!-- Node4&#45;&gt;Node3 -->
<g id="edge3" class="edge"><title>Node4&#45;&gt;Node3</title>
<path fill="none" stroke="midnightblue" d="M180,-106.922C180,-97.1719 180,-86.6099 180,-79.2904"/>
<polygon fill="midnightblue" stroke="midnightblue" points="176.5,-106.991 180,-116.992 183.5,-106.992 176.5,-106.991"/>
</g>
<!-- Node5 -->
<g id="node5" class="node"><title>Node5</title>
<g id="a_node5"><a xlink:href="class_owned_by.xhtml" target="_top" xlink:title="OwnedBy\&lt; Package \&gt;">
<polygon fill="white" stroke="black" points="261.247,-59 261.247,-79 376.753,-79 376.753,-59 261.247,-59"/>
<text text-anchor="middle" x="319" y="-65" font-family="Helvetica,sans-Serif" font-size="10.00">OwnedBy&lt; Package &gt;</text>
</a>
</g>
</g>
<!-- Node5&#45;&gt;Node1 -->
<g id="edge4" class="edge"><title>Node5&#45;&gt;Node1</title>
<path fill="none" stroke="midnightblue" d="M286.998,-55.1069C261.194,-44.7114 225.549,-30.3505 202.632,-21.1181"/>
<polygon fill="midnightblue" stroke="midnightblue" points="285.774,-58.3875 296.358,-58.878 288.39,-51.8946 285.774,-58.3875"/>
</g>
</g>
</svg>
