<?xml version="1.0" encoding="UTF-8" standalone="no"?>
<!DOCTYPE svg PUBLIC "-//W3C//DTD SVG 1.1//EN"
 "http://www.w3.org/Graphics/SVG/1.1/DTD/svg11.dtd">
<!-- Generated by graphviz version 2.30.0 (20130114.0426)
 -->
<!-- Title: SMILData::Text Pages: 1 -->
<svg width="646pt" height="142pt"
 viewBox="0.00 0.00 646.00 142.00" xmlns="http://www.w3.org/2000/svg" xmlns:xlink="http://www.w3.org/1999/xlink">
<g id="graph0" class="graph" transform="scale(1 1) rotate(0) translate(4 138)">
<title>SMILData::Text</title>
<polygon fill="white" stroke="white" points="-4,5 -4,-138 643,-138 643,5 -4,5"/>
<!-- Node1 -->
<g id="node1" class="node"><title>Node1</title>
<polygon fill="#bfbfbf" stroke="black" points="553.82,-38 553.82,-58 638.18,-58 638.18,-38 553.82,-38"/>
<text text-anchor="middle" x="596" y="-44" font-family="Helvetica,sans-Serif" font-size="10.00">SMILData::Text</text>
</g>
<!-- Node2 -->
<g id="node2" class="node"><title>Node2</title>
<g id="a_node2"><a xlink:href="class_s_m_i_l_data_1_1_media.xhtml" target="_top" xlink:title="SMILData::Media">
<polygon fill="white" stroke="black" points="422.372,-38 422.372,-58 515.628,-58 515.628,-38 422.372,-38"/>
<text text-anchor="middle" x="469" y="-44" font-family="Helvetica,sans-Serif" font-size="10.00">SMILData::Media</text>
</a>
</g>
</g>
<!-- Node2&#45;&gt;Node1 -->
<g id="edge1" class="edge"><title>Node2&#45;&gt;Node1</title>
<path fill="none" stroke="midnightblue" d="M525.878,-48C535.243,-48 544.809,-48 553.721,-48"/>
<polygon fill="midnightblue" stroke="midnightblue" points="525.836,-44.5001 515.836,-48 525.836,-51.5001 525.836,-44.5001"/>
</g>
<!-- Node3 -->
<g id="node3" class="node"><title>Node3</title>
<g id="a_node3"><a xlink:href="class_s_m_i_l_data_1_1_time_node.xhtml" target="_top" xlink:title="SMILData::TimeNode">
<polygon fill="white" stroke="black" points="200.109,-69 200.109,-89 311.891,-89 311.891,-69 200.109,-69"/>
<text text-anchor="middle" x="256" y="-75" font-family="Helvetica,sans-Serif" font-size="10.00">SMILData::TimeNode</text>
</a>
</g>
</g>
<!-- Node3&#45;&gt;Node2 -->
<g id="edge2" class="edge"><title>Node3&#45;&gt;Node2</title>
<path fill="none" stroke="midnightblue" d="M322.423,-69.3881C354.722,-64.6427 392.908,-59.0324 422.066,-54.7486"/>
<polygon fill="midnightblue" stroke="midnightblue" points="321.547,-65.9791 312.162,-70.8956 322.565,-72.9048 321.547,-65.9791"/>
</g>
<!-- Node4 -->
<g id="node4" class="node"><title>Node4</title>
<g id="a_node4"><a xlink:href="class_owned_by.xhtml" target="_top" xlink:title="OwnedBy\&lt; SMILData \&gt;">
<polygon fill="white" stroke="black" points="2.47314,-114 2.47314,-134 123.527,-134 123.527,-114 2.47314,-114"/>
<text text-anchor="middle" x="63" y="-120" font-family="Helvetica,sans-Serif" font-size="10.00">OwnedBy&lt; SMILData &gt;</text>
</a>
</g>
</g>
<!-- Node4&#45;&gt;Node3 -->
<g id="edge3" class="edge"><title>Node4&#45;&gt;Node3</title>
<path fill="none" stroke="midnightblue" d="M116.768,-111.568C146.846,-104.481 184.048,-95.7165 212.279,-89.0652"/>
<polygon fill="midnightblue" stroke="midnightblue" points="115.795,-108.201 106.864,-113.901 117.4,-115.015 115.795,-108.201"/>
</g>
<!-- Node5 -->
<g id="node5" class="node"><title>Node5</title>
<polygon fill="white" stroke="#bfbfbf" points="0.246582,-63 0.246582,-95 125.753,-95 125.753,-63 0.246582,-63"/>
<text text-anchor="start" x="8.24658" y="-81" font-family="Helvetica,sans-Serif" font-size="10.00">std::enable_shared</text>
<text text-anchor="middle" x="63" y="-69" font-family="Helvetica,sans-Serif" font-size="10.00">_from_this&lt; TimeNode &gt;</text>
</g>
<!-- Node5&#45;&gt;Node3 -->
<g id="edge4" class="edge"><title>Node5&#45;&gt;Node3</title>
<path fill="none" stroke="midnightblue" d="M136.246,-79C157.397,-79 180.169,-79 200.058,-79"/>
<polygon fill="midnightblue" stroke="midnightblue" points="136.012,-75.5001 126.012,-79 136.012,-82.5001 136.012,-75.5001"/>
</g>
<!-- Node6 -->
<g id="node6" class="node"><title>Node6</title>
<polygon fill="white" stroke="#bfbfbf" points="4.55566,-12 4.55566,-44 121.444,-44 121.444,-12 4.55566,-12"/>
<text text-anchor="start" x="12.5557" y="-30" font-family="Helvetica,sans-Serif" font-size="10.00">shared_ptr&lt; SMILData</text>
<text text-anchor="middle" x="63" y="-18" font-family="Helvetica,sans-Serif" font-size="10.00">::TimeContainer &gt;</text>
</g>
<!-- Node6&#45;&gt;Node3 -->
<g id="edge5" class="edge"><title>Node6&#45;&gt;Node3</title>
<path fill="none" stroke="#9a32cd" stroke-dasharray="5,2" d="M131.595,-46.0489C160.445,-53.7523 193.019,-62.4501 217.454,-68.9746"/>
<polygon fill="#9a32cd" stroke="#9a32cd" points="132.13,-42.5692 121.565,-43.3708 130.324,-49.3322 132.13,-42.5692"/>
<text text-anchor="middle" x="163" y="-60" font-family="Helvetica,sans-Serif" font-size="10.00"> _parent</text>
</g>
<!-- Node7 -->
<g id="node7" class="node"><title>Node7</title>
<g id="a_node7"><a xlink:href="classstring.xhtml" target="_top" xlink:title="string">
<polygon fill="white" stroke="black" points="235.773,-0 235.773,-20 276.227,-20 276.227,-0 235.773,-0"/>
<text text-anchor="middle" x="256" y="-6" font-family="Helvetica,sans-Serif" font-size="10.00">string</text>
</a>
</g>
</g>
<!-- Node7&#45;&gt;Node2 -->
<g id="edge6" class="edge"><title>Node7&#45;&gt;Node2</title>
<path fill="none" stroke="#9a32cd" stroke-dasharray="5,2" d="M286.813,-12.8281C316.658,-15.9464 363.797,-21.6536 404,-30 414.397,-32.1585 425.587,-35.0903 435.657,-37.9608"/>
<polygon fill="#9a32cd" stroke="#9a32cd" points="286.948,-9.32378 276.645,-11.7962 286.241,-16.288 286.948,-9.32378"/>
<text text-anchor="middle" x="367" y="-44" font-family="Helvetica,sans-Serif" font-size="10.00"> _src_file</text>
<text text-anchor="middle" x="367" y="-32" font-family="Helvetica,sans-Serif" font-size="10.00">_src_fragmentID</text>
</g>
<!-- Node7&#45;&gt;Node7 -->
<g id="edge7" class="edge"><title>Node7&#45;&gt;Node7</title>
<path fill="none" stroke="#9a32cd" stroke-dasharray="5,2" d="M239.103,-29.9218C240.513,-34.5731 246.145,-38 256,-38 272.172,-38 276.973,-28.7715 270.403,-20.0477"/>
<polygon fill="#9a32cd" stroke="#9a32cd" points="242.542,-30.6003 241.597,-20.0477 235.755,-28.8861 242.542,-30.6003"/>
<text text-anchor="middle" x="256" y="-40" font-family="Helvetica,sans-Serif" font-size="10.00"> EmptyString</text>
</g>
</g>
</svg>
