<?xml version="1.0" encoding="UTF-8" standalone="no"?>
<!DOCTYPE svg PUBLIC "-//W3C//DTD SVG 1.1//EN"
 "http://www.w3.org/Graphics/SVG/1.1/DTD/svg11.dtd">
<!-- Generated by graphviz version 2.30.0 (20130114.0426)
 -->
<!-- Title: ContentHandler Pages: 1 -->
<svg width="297pt" height="216pt"
 viewBox="0.00 0.00 297.00 216.00" xmlns="http://www.w3.org/2000/svg" xmlns:xlink="http://www.w3.org/1999/xlink">
<g id="graph0" class="graph" transform="scale(1 1) rotate(0) translate(4 212)">
<title>ContentHandler</title>
<polygon fill="white" stroke="white" points="-4,5 -4,-212 294,-212 294,5 -4,5"/>
<!-- Node1 -->
<g id="node1" class="node"><title>Node1</title>
<polygon fill="#bfbfbf" stroke="black" points="111.978,-59 111.978,-79 198.022,-79 198.022,-59 111.978,-59"/>
<text text-anchor="middle" x="155" y="-65" font-family="Helvetica,sans-Serif" font-size="10.00">ContentHandler</text>
</g>
<!-- Node5 -->
<g id="node5" class="node"><title>Node5</title>
<g id="a_node5"><a xlink:href="class_custom_renderer.xhtml" target="_top" xlink:title="CustomRenderer">
<polygon fill="white" stroke="black" points="57.9287,-1 57.9287,-21 150.071,-21 150.071,-1 57.9287,-1"/>
<text text-anchor="middle" x="104" y="-7" font-family="Helvetica,sans-Serif" font-size="10.00">CustomRenderer</text>
</a>
</g>
</g>
<!-- Node1&#45;&gt;Node5 -->
<g id="edge4" class="edge"><title>Node1&#45;&gt;Node5</title>
<path fill="none" stroke="midnightblue" d="M139.622,-51.1145C130.633,-41.2442 119.641,-29.1742 112.265,-21.0752"/>
<polygon fill="midnightblue" stroke="midnightblue" points="137.257,-53.716 146.578,-58.7527 142.433,-49.0026 137.257,-53.716"/>
</g>
<!-- Node6 -->
<g id="node6" class="node"><title>Node6</title>
<g id="a_node6"><a xlink:href="class_media_handler.xhtml" target="_top" xlink:title="MediaHandler">
<polygon fill="white" stroke="black" points="167.872,-1 167.872,-21 246.128,-21 246.128,-1 167.872,-1"/>
<text text-anchor="middle" x="207" y="-7" font-family="Helvetica,sans-Serif" font-size="10.00">MediaHandler</text>
</a>
</g>
</g>
<!-- Node1&#45;&gt;Node6 -->
<g id="edge5" class="edge"><title>Node1&#45;&gt;Node6</title>
<path fill="none" stroke="midnightblue" d="M170.405,-51.4099C179.62,-41.486 190.977,-29.2551 198.573,-21.0752"/>
<polygon fill="midnightblue" stroke="midnightblue" points="167.826,-49.0432 163.587,-58.7527 172.956,-53.8064 167.826,-49.0432"/>
</g>
<!-- Node2 -->
<g id="node2" class="node"><title>Node2</title>
<g id="a_node2"><a xlink:href="class_pointer_type.xhtml" target="_top" xlink:title="PointerType\&lt; ContentHandler \&gt;">
<polygon fill="white" stroke="black" points="-0.324707,-117 -0.324707,-137 156.325,-137 156.325,-117 -0.324707,-117"/>
<text text-anchor="middle" x="78" y="-123" font-family="Helvetica,sans-Serif" font-size="10.00">PointerType&lt; ContentHandler &gt;</text>
</a>
</g>
</g>
<!-- Node2&#45;&gt;Node1 -->
<g id="edge1" class="edge"><title>Node2&#45;&gt;Node1</title>
<path fill="none" stroke="midnightblue" d="M98.8092,-110.866C112.778,-100.707 130.717,-87.6601 142.522,-79.0752"/>
<polygon fill="midnightblue" stroke="midnightblue" points="96.7437,-108.04 90.715,-116.753 100.861,-113.702 96.7437,-108.04"/>
</g>
<!-- Node3 -->
<g id="node3" class="node"><title>Node3</title>
<polygon fill="white" stroke="#bfbfbf" points="3.01758,-175 3.01758,-207 152.982,-207 152.982,-175 3.01758,-175"/>
<text text-anchor="start" x="11.0176" y="-193" font-family="Helvetica,sans-Serif" font-size="10.00">std::enable_shared</text>
<text text-anchor="middle" x="78" y="-181" font-family="Helvetica,sans-Serif" font-size="10.00">_from_this&lt; ContentHandler &gt;</text>
</g>
<!-- Node3&#45;&gt;Node2 -->
<g id="edge2" class="edge"><title>Node3&#45;&gt;Node2</title>
<path fill="none" stroke="midnightblue" d="M78,-164.922C78,-155.172 78,-144.61 78,-137.29"/>
<polygon fill="midnightblue" stroke="midnightblue" points="74.5001,-164.991 78,-174.992 81.5001,-164.992 74.5001,-164.991"/>
</g>
<!-- Node4 -->
<g id="node4" class="node"><title>Node4</title>
<g id="a_node4"><a xlink:href="class_owned_by.xhtml" target="_top" xlink:title="OwnedBy\&lt; Package \&gt;">
<polygon fill="white" stroke="black" points="174.247,-117 174.247,-137 289.753,-137 289.753,-117 174.247,-117"/>
<text text-anchor="middle" x="232" y="-123" font-family="Helvetica,sans-Serif" font-size="10.00">OwnedBy&lt; Package &gt;</text>
</a>
</g>
</g>
<!-- Node4&#45;&gt;Node1 -->
<g id="edge3" class="edge"><title>Node4&#45;&gt;Node1</title>
<path fill="none" stroke="midnightblue" d="M211.191,-110.866C197.222,-100.707 179.283,-87.6601 167.478,-79.0752"/>
<polygon fill="midnightblue" stroke="midnightblue" points="209.139,-113.702 219.285,-116.753 213.256,-108.04 209.139,-113.702"/>
</g>
</g>
</svg>
