<?xml version="1.0" encoding="UTF-8" standalone="no"?>
<!DOCTYPE svg PUBLIC "-//W3C//DTD SVG 1.1//EN"
 "http://www.w3.org/Graphics/SVG/1.1/DTD/svg11.dtd">
<!-- Generated by graphviz version 2.30.0 (20130114.0426)
 -->
<!-- Title: ManifestItem Pages: 1 -->
<svg width="522pt" height="259pt"
 viewBox="0.00 0.00 522.00 259.00" xmlns="http://www.w3.org/2000/svg" xmlns:xlink="http://www.w3.org/1999/xlink">
<g id="graph0" class="graph" transform="scale(1 1) rotate(0) translate(4 255)">
<title>ManifestItem</title>
<polygon fill="white" stroke="white" points="-4,5 -4,-255 519,-255 519,5 -4,5"/>
<!-- Node1 -->
<g id="node1" class="node"><title>Node1</title>
<polygon fill="#bfbfbf" stroke="black" points="440.379,-127 440.379,-147 513.621,-147 513.621,-127 440.379,-127"/>
<text text-anchor="middle" x="477" y="-133" font-family="Helvetica,sans-Serif" font-size="10.00">ManifestItem</text>
</g>
<!-- Node2 -->
<g id="node2" class="node"><title>Node2</title>
<g id="a_node2"><a xlink:href="class_pointer_type.xhtml" target="_top" xlink:title="PointerType\&lt; ManifestItem \&gt;">
<polygon fill="white" stroke="black" points="176.077,-225 176.077,-245 319.923,-245 319.923,-225 176.077,-225"/>
<text text-anchor="middle" x="248" y="-231" font-family="Helvetica,sans-Serif" font-size="10.00">PointerType&lt; ManifestItem &gt;</text>
</a>
</g>
</g>
<!-- Node2&#45;&gt;Node1 -->
<g id="edge1" class="edge"><title>Node2&#45;&gt;Node1</title>
<path fill="none" stroke="midnightblue" d="M317.268,-222.726C350.284,-214.967 389.665,-202.932 422,-185 439.99,-175.023 457.092,-158.13 467.06,-147.276"/>
<polygon fill="midnightblue" stroke="midnightblue" points="316.22,-219.375 307.241,-224.999 317.768,-226.202 316.22,-219.375"/>
</g>
<!-- Node3 -->
<g id="node3" class="node"><title>Node3</title>
<polygon fill="white" stroke="#bfbfbf" points="0.418945,-219 0.418945,-251 137.581,-251 137.581,-219 0.418945,-219"/>
<text text-anchor="start" x="8.41895" y="-237" font-family="Helvetica,sans-Serif" font-size="10.00">std::enable_shared</text>
<text text-anchor="middle" x="69" y="-225" font-family="Helvetica,sans-Serif" font-size="10.00">_from_this&lt; ManifestItem &gt;</text>
</g>
<!-- Node3&#45;&gt;Node2 -->
<g id="edge2" class="edge"><title>Node3&#45;&gt;Node2</title>
<path fill="none" stroke="midnightblue" d="M147.732,-235C157.079,-235 166.589,-235 175.836,-235"/>
<polygon fill="midnightblue" stroke="midnightblue" points="147.674,-231.5 137.674,-235 147.674,-238.5 147.674,-231.5"/>
</g>
<!-- Node4 -->
<g id="node4" class="node"><title>Node4</title>
<g id="a_node4"><a xlink:href="class_owned_by.xhtml" target="_top" xlink:title="OwnedBy\&lt; Package \&gt;">
<polygon fill="white" stroke="black" points="190.247,-186 190.247,-206 305.753,-206 305.753,-186 190.247,-186"/>
<text text-anchor="middle" x="248" y="-192" font-family="Helvetica,sans-Serif" font-size="10.00">OwnedBy&lt; Package &gt;</text>
</a>
</g>
</g>
<!-- Node4&#45;&gt;Node1 -->
<g id="edge3" class="edge"><title>Node4&#45;&gt;Node1</title>
<path fill="none" stroke="midnightblue" d="M316.162,-185.935C348.57,-180.191 387.756,-171.929 422,-161 433.631,-157.288 446.117,-151.841 456.15,-147.074"/>
<polygon fill="midnightblue" stroke="midnightblue" points="315.149,-182.558 305.893,-187.712 316.343,-189.456 315.149,-182.558"/>
</g>
<!-- Node5 -->
<g id="node5" class="node"><title>Node5</title>
<g id="a_node5"><a xlink:href="class_property_holder.xhtml" target="_top" xlink:title="PropertyHolder">
<polygon fill="white" stroke="black" points="206.375,-147 206.375,-167 289.625,-167 289.625,-147 206.375,-147"/>
<text text-anchor="middle" x="248" y="-153" font-family="Helvetica,sans-Serif" font-size="10.00">PropertyHolder</text>
</a>
</g>
</g>
<!-- Node5&#45;&gt;Node1 -->
<g id="edge4" class="edge"><title>Node5&#45;&gt;Node1</title>
<path fill="none" stroke="midnightblue" d="M300.215,-153.259C334.665,-150.644 381.09,-146.927 422,-143 427.915,-142.432 434.19,-141.78 440.288,-141.12"/>
<polygon fill="midnightblue" stroke="midnightblue" points="299.636,-149.793 289.927,-154.035 300.162,-156.773 299.636,-149.793"/>
</g>
<!-- Node6 -->
<g id="node6" class="node"><title>Node6</title>
<g id="a_node6"><a xlink:href="class_x_m_l_identifiable.xhtml" target="_top" xlink:title="XMLIdentifiable">
<polygon fill="white" stroke="black" points="205.535,-108 205.535,-128 290.465,-128 290.465,-108 205.535,-108"/>
<text text-anchor="middle" x="248" y="-114" font-family="Helvetica,sans-Serif" font-size="10.00">XMLIdentifiable</text>
</a>
</g>
</g>
<!-- Node6&#45;&gt;Node1 -->
<g id="edge5" class="edge"><title>Node6&#45;&gt;Node1</title>
<path fill="none" stroke="midnightblue" d="M300.817,-122.337C343.439,-125.905 402.729,-130.867 440.231,-134.006"/>
<polygon fill="midnightblue" stroke="midnightblue" points="300.892,-118.831 290.635,-121.485 300.308,-125.807 300.892,-118.831"/>
</g>
<!-- Node7 -->
<g id="node7" class="node"><title>Node7</title>
<g id="a_node7"><a xlink:href="classstring.xhtml" target="_top" xlink:title="string">
<polygon fill="white" stroke="black" points="227.773,-39 227.773,-59 268.227,-59 268.227,-39 227.773,-39"/>
<text text-anchor="middle" x="248" y="-45" font-family="Helvetica,sans-Serif" font-size="10.00">string</text>
</a>
</g>
</g>
<!-- Node7&#45;&gt;Node1 -->
<g id="edge6" class="edge"><title>Node7&#45;&gt;Node1</title>
<path fill="none" stroke="#9a32cd" stroke-dasharray="5,2" d="M278.622,-47.1643C314.74,-46.244 376.576,-49.017 422,-74 444.72,-86.4961 462.187,-112.566 470.555,-126.943"/>
<polygon fill="#9a32cd" stroke="#9a32cd" points="278.149,-43.6794 268.286,-47.548 278.409,-50.6745 278.149,-43.6794"/>
<text text-anchor="middle" x="380" y="-112" font-family="Helvetica,sans-Serif" font-size="10.00"> _mediaOverlayID</text>
<text text-anchor="middle" x="380" y="-100" font-family="Helvetica,sans-Serif" font-size="10.00">_href</text>
<text text-anchor="middle" x="380" y="-88" font-family="Helvetica,sans-Serif" font-size="10.00">_mediaType</text>
<text text-anchor="middle" x="380" y="-76" font-family="Helvetica,sans-Serif" font-size="10.00">_fallbackID</text>
</g>
<!-- Node7&#45;&gt;Node7 -->
<g id="edge7" class="edge"><title>Node7&#45;&gt;Node7</title>
<path fill="none" stroke="#9a32cd" stroke-dasharray="5,2" d="M231.47,-68.9218C232.85,-73.5731 238.359,-77 248,-77 263.82,-77 268.517,-67.7715 262.09,-59.0477"/>
<polygon fill="#9a32cd" stroke="#9a32cd" points="234.909,-69.5953 233.91,-59.0477 228.114,-67.9162 234.909,-69.5953"/>
<text text-anchor="middle" x="248" y="-79" font-family="Helvetica,sans-Serif" font-size="10.00"> EmptyString</text>
</g>
<!-- Node8 -->
<g id="node8" class="node"><title>Node8</title>
<g id="a_node8"><a xlink:href="class_item_properties.xhtml" target="_top" xlink:title="ItemProperties">
<polygon fill="white" stroke="black" points="207.488,-0 207.488,-20 288.512,-20 288.512,-0 207.488,-0"/>
<text text-anchor="middle" x="248" y="-6" font-family="Helvetica,sans-Serif" font-size="10.00">ItemProperties</text>
</a>
</g>
</g>
<!-- Node8&#45;&gt;Node1 -->
<g id="edge8" class="edge"><title>Node8&#45;&gt;Node1</title>
<path fill="none" stroke="#9a32cd" stroke-dasharray="5,2" d="M298.879,-5.71693C336.027,-5.07152 386.284,-9.83969 422,-35 454.27,-57.7323 468.852,-105.88 473.859,-126.866"/>
<polygon fill="#9a32cd" stroke="#9a32cd" points="298.659,-2.22198 288.772,-6.03008 298.876,-9.21862 298.659,-2.22198"/>
<text text-anchor="middle" x="380" y="-37" font-family="Helvetica,sans-Serif" font-size="10.00"> _parsedProperties</text>
</g>
</g>
</svg>
