<?xml version="1.0" encoding="UTF-8" standalone="no"?>
<!DOCTYPE svg PUBLIC "-//W3C//DTD SVG 1.1//EN"
 "http://www.w3.org/Graphics/SVG/1.1/DTD/svg11.dtd">
<!-- Generated by graphviz version 2.30.0 (20130114.0426)
 -->
<!-- Title: __basic_future&lt; _Rp &gt; Pages: 1 -->
<svg width="215pt" height="88pt"
 viewBox="0.00 0.00 215.00 88.00" xmlns="http://www.w3.org/2000/svg" xmlns:xlink="http://www.w3.org/1999/xlink">
<g id="graph0" class="graph" transform="scale(1 1) rotate(0) translate(4 84)">
<title>__basic_future&lt; _Rp &gt;</title>
<polygon fill="white" stroke="white" points="-4,5 -4,-84 212,-84 212,5 -4,5"/>
<!-- Node1 -->
<g id="node1" class="node"><title>Node1</title>
<polygon fill="#bfbfbf" stroke="black" points="35.4092,-59 35.4092,-79 152.591,-79 152.591,-59 35.4092,-59"/>
<text text-anchor="middle" x="94" y="-65" font-family="Helvetica,sans-Serif" font-size="10.00">__basic_future&lt; _Rp &gt;</text>
</g>
<!-- Node2 -->
<g id="node2" class="node"><title>Node2</title>
<g id="a_node2"><a xlink:href="classfuture.xhtml" target="_top" xlink:title="future\&lt; _Rp \&gt;">
<polygon fill="white" stroke="black" points="-0.576172,-1 -0.576172,-21 76.5762,-21 76.5762,-1 -0.576172,-1"/>
<text text-anchor="middle" x="38" y="-7" font-family="Helvetica,sans-Serif" font-size="10.00">future&lt; _Rp &gt;</text>
</a>
</g>
</g>
<!-- Node1&#45;&gt;Node2 -->
<g id="edge1" class="edge"><title>Node1&#45;&gt;Node2</title>
<path fill="none" stroke="midnightblue" d="M77.4099,-51.4099C67.486,-41.486 55.2551,-29.2551 47.0752,-21.0752"/>
<polygon fill="midnightblue" stroke="midnightblue" points="75.2068,-54.1565 84.7527,-58.7527 80.1565,-49.2068 75.2068,-54.1565"/>
</g>
<!-- Node3 -->
<g id="node3" class="node"><title>Node3</title>
<g id="a_node3"><a xlink:href="classshared__future.xhtml" target="_top" xlink:title="shared_future\&lt; _Rp \&gt;">
<polygon fill="white" stroke="black" points="94.355,-1 94.355,-21 207.645,-21 207.645,-1 94.355,-1"/>
<text text-anchor="middle" x="151" y="-7" font-family="Helvetica,sans-Serif" font-size="10.00">shared_future&lt; _Rp &gt;</text>
</a>
</g>
</g>
<!-- Node1&#45;&gt;Node3 -->
<g id="edge2" class="edge"><title>Node1&#45;&gt;Node3</title>
<path fill="none" stroke="midnightblue" d="M110.587,-51.704C120.741,-41.7286 133.354,-29.3361 141.763,-21.0752"/>
<polygon fill="midnightblue" stroke="midnightblue" points="108.093,-49.2478 103.412,-58.7527 112.999,-54.2412 108.093,-49.2478"/>
</g>
</g>
</svg>
