<?xml version="1.0" encoding="UTF-8" standalone="no"?>
<!DOCTYPE svg PUBLIC "-//W3C//DTD SVG 1.1//EN"
 "http://www.w3.org/Graphics/SVG/1.1/DTD/svg11.dtd">
<!-- Generated by graphviz version 2.30.0 (20130114.0426)
 -->
<!-- Title: Document Pages: 1 -->
<svg width="126pt" height="146pt"
 viewBox="0.00 0.00 126.00 146.00" xmlns="http://www.w3.org/2000/svg" xmlns:xlink="http://www.w3.org/1999/xlink">
<g id="graph0" class="graph" transform="scale(1 1) rotate(0) translate(4 142)">
<title>Document</title>
<polygon fill="white" stroke="white" points="-4,5 -4,-142 123,-142 123,5 -4,5"/>
<!-- Node1 -->
<g id="node1" class="node"><title>Node1</title>
<polygon fill="#bfbfbf" stroke="black" points="28.2119,-1 28.2119,-21 89.7881,-21 89.7881,-1 28.2119,-1"/>
<text text-anchor="middle" x="59" y="-7" font-family="Helvetica,sans-Serif" font-size="10.00">Document</text>
</g>
<!-- Node2 -->
<g id="node2" class="node"><title>Node2</title>
<g id="a_node2"><a xlink:href="class_node.xhtml" target="_top" xlink:title="Node">
<polygon fill="white" stroke="black" points="39.0469,-59 39.0469,-79 78.9531,-79 78.9531,-59 39.0469,-59"/>
<text text-anchor="middle" x="59" y="-65" font-family="Helvetica,sans-Serif" font-size="10.00">Node</text>
</a>
</g>
</g>
<!-- Node2&#45;&gt;Node1 -->
<g id="edge1" class="edge"><title>Node2&#45;&gt;Node1</title>
<path fill="none" stroke="midnightblue" d="M59,-48.7065C59,-39.3384 59,-28.5262 59,-21.0752"/>
<polygon fill="midnightblue" stroke="midnightblue" points="55.5001,-48.7527 59,-58.7527 62.5001,-48.7528 55.5001,-48.7527"/>
</g>
<!-- Node3 -->
<g id="node3" class="node"><title>Node3</title>
<polygon fill="white" stroke="#bfbfbf" points="-0.0522461,-117 -0.0522461,-137 118.052,-137 118.052,-117 -0.0522461,-117"/>
<text text-anchor="middle" x="59" y="-123" font-family="Helvetica,sans-Serif" font-size="10.00">WrapperBase&lt; Node &gt;</text>
</g>
<!-- Node3&#45;&gt;Node2 -->
<g id="edge2" class="edge"><title>Node3&#45;&gt;Node2</title>
<path fill="none" stroke="midnightblue" d="M59,-106.707C59,-97.3384 59,-86.5262 59,-79.0752"/>
<polygon fill="midnightblue" stroke="midnightblue" points="55.5001,-106.753 59,-116.753 62.5001,-106.753 55.5001,-106.753"/>
</g>
</g>
</svg>
