<?xml version="1.0" encoding="UTF-8" standalone="no"?>
<!DOCTYPE svg PUBLIC "-//W3C//DTD SVG 1.1//EN"
 "http://www.w3.org/Graphics/SVG/1.1/DTD/svg11.dtd">
<!-- Generated by graphviz version 2.30.0 (20130114.0426)
 -->
<!-- Title: SpineItem Pages: 1 -->
<svg width="476pt" height="158pt"
 viewBox="0.00 0.00 476.00 158.00" xmlns="http://www.w3.org/2000/svg" xmlns:xlink="http://www.w3.org/1999/xlink">
<g id="graph0" class="graph" transform="scale(1 1) rotate(0) translate(4 154)">
<title>SpineItem</title>
<polygon fill="white" stroke="white" points="-4,5 -4,-154 473,-154 473,5 -4,5"/>
<!-- Node1 -->
<g id="node1" class="node"><title>Node1</title>
<polygon fill="#bfbfbf" stroke="black" points="234.488,-1 234.488,-21 295.512,-21 295.512,-1 234.488,-1"/>
<text text-anchor="middle" x="265" y="-7" font-family="Helvetica,sans-Serif" font-size="10.00">SpineItem</text>
</g>
<!-- Node2 -->
<g id="node2" class="node"><title>Node2</title>
<g id="a_node2"><a xlink:href="class_pointer_type.xhtml" target="_top" xlink:title="PointerType\&lt; SpineItem \&gt;">
<polygon fill="white" stroke="black" points="-0.814941,-59 -0.814941,-79 130.815,-79 130.815,-59 -0.814941,-59"/>
<text text-anchor="middle" x="65" y="-65" font-family="Helvetica,sans-Serif" font-size="10.00">PointerType&lt; SpineItem &gt;</text>
</a>
</g>
</g>
<!-- Node2&#45;&gt;Node1 -->
<g id="edge1" class="edge"><title>Node2&#45;&gt;Node1</title>
<path fill="none" stroke="midnightblue" d="M107.355,-56.1407C145.435,-45.4782 200.452,-30.0736 234.405,-20.5666"/>
<polygon fill="midnightblue" stroke="midnightblue" points="106.264,-52.8113 97.5786,-58.878 108.152,-59.552 106.264,-52.8113"/>
</g>
<!-- Node3 -->
<g id="node3" class="node"><title>Node3</title>
<polygon fill="white" stroke="#bfbfbf" points="2.52734,-117 2.52734,-149 127.473,-149 127.473,-117 2.52734,-117"/>
<text text-anchor="start" x="10.5273" y="-135" font-family="Helvetica,sans-Serif" font-size="10.00">std::enable_shared</text>
<text text-anchor="middle" x="65" y="-123" font-family="Helvetica,sans-Serif" font-size="10.00">_from_this&lt; SpineItem &gt;</text>
</g>
<!-- Node3&#45;&gt;Node2 -->
<g id="edge2" class="edge"><title>Node3&#45;&gt;Node2</title>
<path fill="none" stroke="midnightblue" d="M65,-106.922C65,-97.1719 65,-86.6099 65,-79.2904"/>
<polygon fill="midnightblue" stroke="midnightblue" points="61.5001,-106.991 65,-116.992 68.5001,-106.992 61.5001,-106.991"/>
</g>
<!-- Node4 -->
<g id="node4" class="node"><title>Node4</title>
<g id="a_node4"><a xlink:href="class_owned_by.xhtml" target="_top" xlink:title="OwnedBy\&lt; Package \&gt;">
<polygon fill="white" stroke="black" points="149.247,-59 149.247,-79 264.753,-79 264.753,-59 149.247,-59"/>
<text text-anchor="middle" x="207" y="-65" font-family="Helvetica,sans-Serif" font-size="10.00">OwnedBy&lt; Package &gt;</text>
</a>
</g>
</g>
<!-- Node4&#45;&gt;Node1 -->
<g id="edge3" class="edge"><title>Node4&#45;&gt;Node1</title>
<path fill="none" stroke="midnightblue" d="M223.878,-51.704C234.21,-41.7286 247.045,-29.3361 255.601,-21.0752"/>
<polygon fill="midnightblue" stroke="midnightblue" points="221.34,-49.2888 216.578,-58.7527 226.203,-54.3247 221.34,-49.2888"/>
</g>
<!-- Node5 -->
<g id="node5" class="node"><title>Node5</title>
<g id="a_node5"><a xlink:href="class_property_holder.xhtml" target="_top" xlink:title="PropertyHolder">
<polygon fill="white" stroke="black" points="282.375,-59 282.375,-79 365.625,-79 365.625,-59 282.375,-59"/>
<text text-anchor="middle" x="324" y="-65" font-family="Helvetica,sans-Serif" font-size="10.00">PropertyHolder</text>
</a>
</g>
</g>
<!-- Node5&#45;&gt;Node1 -->
<g id="edge4" class="edge"><title>Node5&#45;&gt;Node1</title>
<path fill="none" stroke="midnightblue" d="M306.831,-51.704C296.321,-41.7286 283.265,-29.3361 274.561,-21.0752"/>
<polygon fill="midnightblue" stroke="midnightblue" points="304.595,-54.407 314.257,-58.7527 309.414,-49.3299 304.595,-54.407"/>
</g>
<!-- Node6 -->
<g id="node6" class="node"><title>Node6</title>
<g id="a_node6"><a xlink:href="class_x_m_l_identifiable.xhtml" target="_top" xlink:title="XMLIdentifiable">
<polygon fill="white" stroke="black" points="383.535,-59 383.535,-79 468.465,-79 468.465,-59 383.535,-59"/>
<text text-anchor="middle" x="426" y="-65" font-family="Helvetica,sans-Serif" font-size="10.00">XMLIdentifiable</text>
</a>
</g>
</g>
<!-- Node6&#45;&gt;Node1 -->
<g id="edge5" class="edge"><title>Node6&#45;&gt;Node1</title>
<path fill="none" stroke="midnightblue" d="M390.081,-55.5065C360.012,-45.0475 317.821,-30.3725 290.948,-21.0253"/>
<polygon fill="midnightblue" stroke="midnightblue" points="389.179,-58.8985 399.774,-58.878 391.479,-52.287 389.179,-58.8985"/>
</g>
</g>
</svg>
