<?xml version="1.0" encoding="UTF-8" standalone="no"?>
<!DOCTYPE svg PUBLIC "-//W3C//DTD SVG 1.1//EN"
 "http://www.w3.org/Graphics/SVG/1.1/DTD/svg11.dtd">
<!-- Generated by graphviz version 2.30.0 (20130114.0426)
 -->
<!-- Title: FilterChain Pages: 1 -->
<svg width="142pt" height="158pt"
 viewBox="0.00 0.00 142.00 158.00" xmlns="http://www.w3.org/2000/svg" xmlns:xlink="http://www.w3.org/1999/xlink">
<g id="graph0" class="graph" transform="scale(1 1) rotate(0) translate(4 154)">
<title>FilterChain</title>
<polygon fill="white" stroke="white" points="-4,5 -4,-154 139,-154 139,5 -4,5"/>
<!-- Node1 -->
<g id="node1" class="node"><title>Node1</title>
<polygon fill="#bfbfbf" stroke="black" points="34.8252,-1 34.8252,-21 99.1748,-21 99.1748,-1 34.8252,-1"/>
<text text-anchor="middle" x="67" y="-7" font-family="Helvetica,sans-Serif" font-size="10.00">FilterChain</text>
</g>
<!-- Node2 -->
<g id="node2" class="node"><title>Node2</title>
<g id="a_node2"><a xlink:href="class_pointer_type.xhtml" target="_top" xlink:title="PointerType\&lt; FilterChain \&gt;">
<polygon fill="white" stroke="black" points="-0.477539,-59 -0.477539,-79 134.478,-79 134.478,-59 -0.477539,-59"/>
<text text-anchor="middle" x="67" y="-65" font-family="Helvetica,sans-Serif" font-size="10.00">PointerType&lt; FilterChain &gt;</text>
</a>
</g>
</g>
<!-- Node2&#45;&gt;Node1 -->
<g id="edge1" class="edge"><title>Node2&#45;&gt;Node1</title>
<path fill="none" stroke="midnightblue" d="M67,-48.7065C67,-39.3384 67,-28.5262 67,-21.0752"/>
<polygon fill="midnightblue" stroke="midnightblue" points="63.5001,-48.7527 67,-58.7527 70.5001,-48.7528 63.5001,-48.7527"/>
</g>
<!-- Node3 -->
<g id="node3" class="node"><title>Node3</title>
<polygon fill="white" stroke="#bfbfbf" points="2.86475,-117 2.86475,-149 131.135,-149 131.135,-117 2.86475,-117"/>
<text text-anchor="start" x="10.8647" y="-135" font-family="Helvetica,sans-Serif" font-size="10.00">std::enable_shared</text>
<text text-anchor="middle" x="67" y="-123" font-family="Helvetica,sans-Serif" font-size="10.00">_from_this&lt; FilterChain &gt;</text>
</g>
<!-- Node3&#45;&gt;Node2 -->
<g id="edge2" class="edge"><title>Node3&#45;&gt;Node2</title>
<path fill="none" stroke="midnightblue" d="M67,-106.922C67,-97.1719 67,-86.6099 67,-79.2904"/>
<polygon fill="midnightblue" stroke="midnightblue" points="63.5001,-106.991 67,-116.992 70.5001,-106.992 63.5001,-106.991"/>
</g>
</g>
</svg>
