<?xml version="1.0" encoding="UTF-8" standalone="no"?>
<!DOCTYPE svg PUBLIC "-//W3C//DTD SVG 1.1//EN"
 "http://www.w3.org/Graphics/SVG/1.1/DTD/svg11.dtd">
<!-- Generated by graphviz version 2.30.0 (20130114.0426)
 -->
<!-- Title: SMILData::TimeNode Pages: 1 -->
<svg width="320pt" height="130pt"
 viewBox="0.00 0.00 320.00 130.00" xmlns="http://www.w3.org/2000/svg" xmlns:xlink="http://www.w3.org/1999/xlink">
<g id="graph0" class="graph" transform="scale(1 1) rotate(0) translate(4 126)">
<title>SMILData::TimeNode</title>
<polygon fill="white" stroke="white" points="-4,5 -4,-126 317,-126 317,5 -4,5"/>
<!-- Node1 -->
<g id="node1" class="node"><title>Node1</title>
<polygon fill="#bfbfbf" stroke="black" points="200.109,-57 200.109,-77 311.891,-77 311.891,-57 200.109,-57"/>
<text text-anchor="middle" x="256" y="-63" font-family="Helvetica,sans-Serif" font-size="10.00">SMILData::TimeNode</text>
</g>
<!-- Node2 -->
<g id="node2" class="node"><title>Node2</title>
<g id="a_node2"><a xlink:href="class_owned_by.xhtml" target="_top" xlink:title="OwnedBy\&lt; SMILData \&gt;">
<polygon fill="white" stroke="black" points="2.47314,-102 2.47314,-122 123.527,-122 123.527,-102 2.47314,-102"/>
<text text-anchor="middle" x="63" y="-108" font-family="Helvetica,sans-Serif" font-size="10.00">OwnedBy&lt; SMILData &gt;</text>
</a>
</g>
</g>
<!-- Node2&#45;&gt;Node1 -->
<g id="edge1" class="edge"><title>Node2&#45;&gt;Node1</title>
<path fill="none" stroke="midnightblue" d="M116.768,-99.5677C146.846,-92.4814 184.048,-83.7165 212.279,-77.0652"/>
<polygon fill="midnightblue" stroke="midnightblue" points="115.795,-96.2011 106.864,-101.901 117.4,-103.015 115.795,-96.2011"/>
</g>
<!-- Node3 -->
<g id="node3" class="node"><title>Node3</title>
<polygon fill="white" stroke="#bfbfbf" points="0.246582,-51 0.246582,-83 125.753,-83 125.753,-51 0.246582,-51"/>
<text text-anchor="start" x="8.24658" y="-69" font-family="Helvetica,sans-Serif" font-size="10.00">std::enable_shared</text>
<text text-anchor="middle" x="63" y="-57" font-family="Helvetica,sans-Serif" font-size="10.00">_from_this&lt; TimeNode &gt;</text>
</g>
<!-- Node3&#45;&gt;Node1 -->
<g id="edge2" class="edge"><title>Node3&#45;&gt;Node1</title>
<path fill="none" stroke="midnightblue" d="M136.246,-67C157.397,-67 180.169,-67 200.058,-67"/>
<polygon fill="midnightblue" stroke="midnightblue" points="136.012,-63.5001 126.012,-67 136.012,-70.5001 136.012,-63.5001"/>
</g>
<!-- Node4 -->
<g id="node4" class="node"><title>Node4</title>
<polygon fill="white" stroke="#bfbfbf" points="4.55566,-0 4.55566,-32 121.444,-32 121.444,-0 4.55566,-0"/>
<text text-anchor="start" x="12.5557" y="-18" font-family="Helvetica,sans-Serif" font-size="10.00">shared_ptr&lt; SMILData</text>
<text text-anchor="middle" x="63" y="-6" font-family="Helvetica,sans-Serif" font-size="10.00">::TimeContainer &gt;</text>
</g>
<!-- Node4&#45;&gt;Node1 -->
<g id="edge3" class="edge"><title>Node4&#45;&gt;Node1</title>
<path fill="none" stroke="#9a32cd" stroke-dasharray="5,2" d="M131.595,-34.0489C160.445,-41.7523 193.019,-50.4501 217.454,-56.9746"/>
<polygon fill="#9a32cd" stroke="#9a32cd" points="132.13,-30.5692 121.565,-31.3708 130.324,-37.3322 132.13,-30.5692"/>
<text text-anchor="middle" x="163" y="-48" font-family="Helvetica,sans-Serif" font-size="10.00"> _parent</text>
</g>
</g>
</svg>
