<?xml version="1.0" encoding="UTF-8" standalone="no"?>
<!DOCTYPE svg PUBLIC "-//W3C//DTD SVG 1.1//EN"
 "http://www.w3.org/Graphics/SVG/1.1/DTD/svg11.dtd">
<!-- Generated by graphviz version 2.30.0 (20130114.0426)
 -->
<!-- Title: SMILData Pages: 1 -->
<svg width="296pt" height="112pt"
 viewBox="0.00 0.00 296.00 112.00" xmlns="http://www.w3.org/2000/svg" xmlns:xlink="http://www.w3.org/1999/xlink">
<g id="graph0" class="graph" transform="scale(1 1) rotate(0) translate(4 108)">
<title>SMILData</title>
<polygon fill="white" stroke="white" points="-4,5 -4,-108 293,-108 293,5 -4,5"/>
<!-- Node1 -->
<g id="node1" class="node"><title>Node1</title>
<polygon fill="#bfbfbf" stroke="black" points="122.769,-1 122.769,-21 183.231,-21 183.231,-1 122.769,-1"/>
<text text-anchor="middle" x="153" y="-7" font-family="Helvetica,sans-Serif" font-size="10.00">SMILData</text>
</g>
<!-- Node2 -->
<g id="node2" class="node"><title>Node2</title>
<g id="a_node2"><a xlink:href="class_owned_by.xhtml" target="_top" xlink:title="OwnedBy\&lt; MediaOverlaysSmil\lModel \&gt;">
<polygon fill="white" stroke="black" points="-0.0527344,-71 -0.0527344,-103 154.053,-103 154.053,-71 -0.0527344,-71"/>
<text text-anchor="start" x="7.94727" y="-89" font-family="Helvetica,sans-Serif" font-size="10.00">OwnedBy&lt; MediaOverlaysSmil</text>
<text text-anchor="middle" x="77" y="-77" font-family="Helvetica,sans-Serif" font-size="10.00">Model &gt;</text>
</a>
</g>
</g>
<!-- Node2&#45;&gt;Node1 -->
<g id="edge1" class="edge"><title>Node2&#45;&gt;Node1</title>
<path fill="none" stroke="midnightblue" d="M99.9969,-63.6083C114.582,-49.4074 132.679,-31.7861 143.509,-21.2412"/>
<polygon fill="midnightblue" stroke="midnightblue" points="97.4703,-61.1833 92.7472,-70.6672 102.354,-66.1986 97.4703,-61.1833"/>
</g>
<!-- Node3 -->
<g id="node3" class="node"><title>Node3</title>
<polygon fill="white" stroke="#bfbfbf" points="171.556,-71 171.556,-103 288.444,-103 288.444,-71 171.556,-71"/>
<text text-anchor="start" x="179.556" y="-89" font-family="Helvetica,sans-Serif" font-size="10.00">shared_ptr&lt; SMILData</text>
<text text-anchor="middle" x="230" y="-77" font-family="Helvetica,sans-Serif" font-size="10.00">::Sequence &gt;</text>
</g>
<!-- Node3&#45;&gt;Node1 -->
<g id="edge2" class="edge"><title>Node3&#45;&gt;Node1</title>
<path fill="none" stroke="#9a32cd" stroke-dasharray="5,2" d="M206.701,-63.6083C191.924,-49.4074 173.588,-31.7861 162.616,-21.2412"/>
<polygon fill="#9a32cd" stroke="#9a32cd" points="204.41,-66.2615 214.046,-70.6672 209.261,-61.2144 204.41,-66.2615"/>
<text text-anchor="middle" x="206.786" y="-42" font-family="Helvetica,sans-Serif" font-size="10.00"> _root</text>
</g>
</g>
</svg>
