<?xml version="1.0" encoding="UTF-8" standalone="no"?>
<!DOCTYPE svg PUBLIC "-//W3C//DTD SVG 1.1//EN"
 "http://www.w3.org/Graphics/SVG/1.1/DTD/svg11.dtd">
<!-- Generated by graphviz version 2.30.0 (20130114.0426)
 -->
<!-- Title: EncryptionInfo Pages: 1 -->
<svg width="429pt" height="244pt"
 viewBox="0.00 0.00 429.24 244.00" xmlns="http://www.w3.org/2000/svg" xmlns:xlink="http://www.w3.org/1999/xlink">
<g id="graph0" class="graph" transform="scale(1 1) rotate(0) translate(4 240)">
<title>EncryptionInfo</title>
<polygon fill="white" stroke="white" points="-4,5 -4,-240 426.241,-240 426.241,5 -4,5"/>
<!-- Node1 -->
<g id="node1" class="node"><title>Node1</title>
<polygon fill="#bfbfbf" stroke="black" points="188.037,-1 188.037,-21 267.963,-21 267.963,-1 188.037,-1"/>
<text text-anchor="middle" x="228" y="-7" font-family="Helvetica,sans-Serif" font-size="10.00">EncryptionInfo</text>
</g>
<!-- Node2 -->
<g id="node2" class="node"><title>Node2</title>
<g id="a_node2"><a xlink:href="class_pointer_type.xhtml" target="_top" xlink:title="PointerType\&lt; EncryptionInfo \&gt;">
<polygon fill="white" stroke="black" points="-0.265625,-143 -0.265625,-163 150.266,-163 150.266,-143 -0.265625,-143"/>
<text text-anchor="middle" x="75" y="-149" font-family="Helvetica,sans-Serif" font-size="10.00">PointerType&lt; EncryptionInfo &gt;</text>
</a>
</g>
</g>
<!-- Node2&#45;&gt;Node1 -->
<g id="edge1" class="edge"><title>Node2&#45;&gt;Node1</title>
<path fill="none" stroke="midnightblue" d="M92.4181,-136.062C124.663,-106.557 192.685,-44.3146 218.123,-21.0376"/>
<polygon fill="midnightblue" stroke="midnightblue" points="90.0536,-133.481 85.0388,-142.814 94.7791,-138.646 90.0536,-133.481"/>
</g>
<!-- Node3 -->
<g id="node3" class="node"><title>Node3</title>
<polygon fill="white" stroke="#bfbfbf" points="3.07666,-203 3.07666,-235 146.923,-235 146.923,-203 3.07666,-203"/>
<text text-anchor="start" x="11.0767" y="-221" font-family="Helvetica,sans-Serif" font-size="10.00">std::enable_shared</text>
<text text-anchor="middle" x="75" y="-209" font-family="Helvetica,sans-Serif" font-size="10.00">_from_this&lt; EncryptionInfo &gt;</text>
</g>
<!-- Node3&#45;&gt;Node2 -->
<g id="edge2" class="edge"><title>Node3&#45;&gt;Node2</title>
<path fill="none" stroke="midnightblue" d="M75,-192.611C75,-182.286 75,-171.001 75,-163.313"/>
<polygon fill="midnightblue" stroke="midnightblue" points="71.5001,-192.833 75,-202.833 78.5001,-192.833 71.5001,-192.833"/>
</g>
<!-- Node4 -->
<g id="node4" class="node"><title>Node4</title>
<g id="a_node4"><a xlink:href="class_owned_by.xhtml" target="_top" xlink:title="OwnedBy\&lt; Container \&gt;">
<polygon fill="white" stroke="black" points="168.025,-143 168.025,-163 287.975,-163 287.975,-143 168.025,-143"/>
<text text-anchor="middle" x="228" y="-149" font-family="Helvetica,sans-Serif" font-size="10.00">OwnedBy&lt; Container &gt;</text>
</a>
</g>
</g>
<!-- Node4&#45;&gt;Node1 -->
<g id="edge3" class="edge"><title>Node4&#45;&gt;Node1</title>
<path fill="none" stroke="midnightblue" d="M228,-132.547C228,-101.866 228,-43.4269 228,-21.0376"/>
<polygon fill="midnightblue" stroke="midnightblue" points="224.5,-132.814 228,-142.814 231.5,-132.814 224.5,-132.814"/>
</g>
<!-- Node5 -->
<g id="node5" class="node"><title>Node5</title>
<g id="a_node5"><a xlink:href="classstring.xhtml" target="_top" xlink:title="string">
<polygon fill="white" stroke="black" points="305.773,-143 305.773,-163 346.227,-163 346.227,-143 305.773,-143"/>
<text text-anchor="middle" x="326" y="-149" font-family="Helvetica,sans-Serif" font-size="10.00">string</text>
</a>
</g>
</g>
<!-- Node5&#45;&gt;Node1 -->
<g id="edge4" class="edge"><title>Node5&#45;&gt;Node1</title>
<path fill="none" stroke="#9a32cd" stroke-dasharray="5,2" d="M313.774,-134.534C292.721,-104.458 250.344,-43.92 234.326,-21.0376"/>
<polygon fill="#9a32cd" stroke="#9a32cd" points="310.968,-136.629 319.57,-142.814 316.703,-132.615 310.968,-136.629"/>
<text text-anchor="middle" x="354.583" y="-114" font-family="Helvetica,sans-Serif" font-size="10.00"> _path</text>
<text text-anchor="middle" x="354.583" y="-102" font-family="Helvetica,sans-Serif" font-size="10.00">_algorithm</text>
<text text-anchor="start" x="304" y="-90" font-family="Helvetica,sans-Serif" font-size="10.00">_uncompressed</text>
<text text-anchor="middle" x="354.583" y="-78" font-family="Helvetica,sans-Serif" font-size="10.00">_size</text>
<text text-anchor="start" x="304" y="-66" font-family="Helvetica,sans-Serif" font-size="10.00">_keyRetrievalMethod</text>
<text text-anchor="middle" x="354.583" y="-54" font-family="Helvetica,sans-Serif" font-size="10.00">Type</text>
<text text-anchor="middle" x="354.583" y="-42" font-family="Helvetica,sans-Serif" font-size="10.00">_compression_method</text>
</g>
<!-- Node5&#45;&gt;Node5 -->
<g id="edge5" class="edge"><title>Node5&#45;&gt;Node5</title>
<path fill="none" stroke="#9a32cd" stroke-dasharray="5,2" d="M356.416,-158.102C360.94,-157.307 364,-155.607 364,-153 364,-148.723 355.76,-146.885 346.329,-147.486"/>
<polygon fill="#9a32cd" stroke="#9a32cd" points="356.178,-154.609 346.329,-158.514 356.464,-161.603 356.178,-154.609"/>
<text text-anchor="middle" x="392.621" y="-149" font-family="Helvetica,sans-Serif" font-size="10.00"> EmptyString</text>
</g>
</g>
</svg>
