<?xml version="1.0" encoding="UTF-8" standalone="no"?>
<!DOCTYPE svg PUBLIC "-//W3C//DTD SVG 1.1//EN"
 "http://www.w3.org/Graphics/SVG/1.1/DTD/svg11.dtd">
<!-- Generated by graphviz version 2.30.0 (20130114.0426)
 -->
<!-- Title: ContentHandler Pages: 1 -->
<svg width="431pt" height="172pt"
 viewBox="0.00 0.00 431.24 172.00" xmlns="http://www.w3.org/2000/svg" xmlns:xlink="http://www.w3.org/1999/xlink">
<g id="graph0" class="graph" transform="scale(1 1) rotate(0) translate(4 168)">
<title>ContentHandler</title>
<polygon fill="white" stroke="white" points="-4,5 -4,-168 428.241,-168 428.241,5 -4,5"/>
<!-- Node1 -->
<g id="node1" class="node"><title>Node1</title>
<polygon fill="#bfbfbf" stroke="black" points="188.978,-1 188.978,-21 275.022,-21 275.022,-1 188.978,-1"/>
<text text-anchor="middle" x="232" y="-7" font-family="Helvetica,sans-Serif" font-size="10.00">ContentHandler</text>
</g>
<!-- Node2 -->
<g id="node2" class="node"><title>Node2</title>
<g id="a_node2"><a xlink:href="class_pointer_type.xhtml" target="_top" xlink:title="PointerType\&lt; ContentHandler \&gt;">
<polygon fill="white" stroke="black" points="-0.324707,-71 -0.324707,-91 156.325,-91 156.325,-71 -0.324707,-71"/>
<text text-anchor="middle" x="78" y="-77" font-family="Helvetica,sans-Serif" font-size="10.00">PointerType&lt; ContentHandler &gt;</text>
</a>
</g>
</g>
<!-- Node2&#45;&gt;Node1 -->
<g id="edge1" class="edge"><title>Node2&#45;&gt;Node1</title>
<path fill="none" stroke="midnightblue" d="M107.737,-66.8692C138.229,-53.4054 184.845,-32.8218 211.465,-21.0672"/>
<polygon fill="midnightblue" stroke="midnightblue" points="106.184,-63.729 98.45,-70.9701 109.012,-70.1325 106.184,-63.729"/>
</g>
<!-- Node3 -->
<g id="node3" class="node"><title>Node3</title>
<polygon fill="white" stroke="#bfbfbf" points="3.01758,-131 3.01758,-163 152.982,-163 152.982,-131 3.01758,-131"/>
<text text-anchor="start" x="11.0176" y="-149" font-family="Helvetica,sans-Serif" font-size="10.00">std::enable_shared</text>
<text text-anchor="middle" x="78" y="-137" font-family="Helvetica,sans-Serif" font-size="10.00">_from_this&lt; ContentHandler &gt;</text>
</g>
<!-- Node3&#45;&gt;Node2 -->
<g id="edge2" class="edge"><title>Node3&#45;&gt;Node2</title>
<path fill="none" stroke="midnightblue" d="M78,-120.611C78,-110.286 78,-99.0006 78,-91.3126"/>
<polygon fill="midnightblue" stroke="midnightblue" points="74.5001,-120.833 78,-130.833 81.5001,-120.833 74.5001,-120.833"/>
</g>
<!-- Node4 -->
<g id="node4" class="node"><title>Node4</title>
<g id="a_node4"><a xlink:href="class_owned_by.xhtml" target="_top" xlink:title="OwnedBy\&lt; Package \&gt;">
<polygon fill="white" stroke="black" points="174.247,-71 174.247,-91 289.753,-91 289.753,-71 174.247,-71"/>
<text text-anchor="middle" x="232" y="-77" font-family="Helvetica,sans-Serif" font-size="10.00">OwnedBy&lt; Package &gt;</text>
</a>
</g>
</g>
<!-- Node4&#45;&gt;Node1 -->
<g id="edge3" class="edge"><title>Node4&#45;&gt;Node1</title>
<path fill="none" stroke="midnightblue" d="M232,-60.5567C232,-47.557 232,-31.0574 232,-21.0255"/>
<polygon fill="midnightblue" stroke="midnightblue" points="228.5,-60.8292 232,-70.8292 235.5,-60.8293 228.5,-60.8292"/>
</g>
<!-- Node5 -->
<g id="node5" class="node"><title>Node5</title>
<g id="a_node5"><a xlink:href="classstring.xhtml" target="_top" xlink:title="string">
<polygon fill="white" stroke="black" points="307.773,-71 307.773,-91 348.227,-91 348.227,-71 307.773,-71"/>
<text text-anchor="middle" x="328" y="-77" font-family="Helvetica,sans-Serif" font-size="10.00">string</text>
</a>
</g>
</g>
<!-- Node5&#45;&gt;Node1 -->
<g id="edge4" class="edge"><title>Node5&#45;&gt;Node1</title>
<path fill="none" stroke="#9a32cd" stroke-dasharray="5,2" d="M306.724,-64.9296C287.733,-51.4775 260.55,-32.2227 244.742,-21.0255"/>
<polygon fill="#9a32cd" stroke="#9a32cd" points="304.87,-67.9051 315.053,-70.8292 308.916,-62.1929 304.87,-67.9051"/>
<text text-anchor="middle" x="314.63" y="-42" font-family="Helvetica,sans-Serif" font-size="10.00"> _mediaType</text>
</g>
<!-- Node5&#45;&gt;Node5 -->
<g id="edge5" class="edge"><title>Node5&#45;&gt;Node5</title>
<path fill="none" stroke="#9a32cd" stroke-dasharray="5,2" d="M358.416,-86.102C362.94,-85.3072 366,-83.6065 366,-81 366,-76.7227 357.76,-74.8847 348.329,-75.4862"/>
<polygon fill="#9a32cd" stroke="#9a32cd" points="358.178,-82.6087 348.329,-86.5138 358.464,-89.6028 358.178,-82.6087"/>
<text text-anchor="middle" x="394.621" y="-77" font-family="Helvetica,sans-Serif" font-size="10.00"> EmptyString</text>
</g>
</g>
</svg>
