<?xml version="1.0" encoding="UTF-8" standalone="no"?>
<!DOCTYPE svg PUBLIC "-//W3C//DTD SVG 1.1//EN"
 "http://www.w3.org/Graphics/SVG/1.1/DTD/svg11.dtd">
<!-- Generated by graphviz version 2.30.0 (20130114.0426)
 -->
<!-- Title: SMILData::Sequence Pages: 1 -->
<svg width="810pt" height="201pt"
 viewBox="0.00 0.00 810.00 201.00" xmlns="http://www.w3.org/2000/svg" xmlns:xlink="http://www.w3.org/1999/xlink">
<g id="graph0" class="graph" transform="scale(1 1) rotate(0) translate(4 197)">
<title>SMILData::Sequence</title>
<polygon fill="white" stroke="white" points="-4,5 -4,-197 807,-197 807,5 -4,5"/>
<!-- Node1 -->
<g id="node1" class="node"><title>Node1</title>
<polygon fill="#bfbfbf" stroke="black" points="690.471,-59 690.471,-79 801.529,-79 801.529,-59 690.471,-59"/>
<text text-anchor="middle" x="746" y="-65" font-family="Helvetica,sans-Serif" font-size="10.00">SMILData::Sequence</text>
</g>
<!-- Node2 -->
<g id="node2" class="node"><title>Node2</title>
<g id="a_node2"><a xlink:href="class_s_m_i_l_data_1_1_time_container.xhtml" target="_top" xlink:title="SMILData::TimeContainer">
<polygon fill="white" stroke="black" points="472.383,-112 472.383,-132 603.617,-132 603.617,-112 472.383,-112"/>
<text text-anchor="middle" x="538" y="-118" font-family="Helvetica,sans-Serif" font-size="10.00">SMILData::TimeContainer</text>
</a>
</g>
</g>
<!-- Node2&#45;&gt;Node1 -->
<g id="edge1" class="edge"><title>Node2&#45;&gt;Node1</title>
<path fill="none" stroke="midnightblue" d="M588.053,-109.38C624.109,-100.103 672.452,-87.6652 705.914,-79.0561"/>
<polygon fill="midnightblue" stroke="midnightblue" points="587.044,-106.025 578.232,-111.906 588.789,-112.804 587.044,-106.025"/>
</g>
<!-- Node3 -->
<g id="node3" class="node"><title>Node3</title>
<g id="a_node3"><a xlink:href="class_s_m_i_l_data_1_1_time_node.xhtml" target="_top" xlink:title="SMILData::TimeNode">
<polygon fill="white" stroke="black" points="245.109,-128 245.109,-148 356.891,-148 356.891,-128 245.109,-128"/>
<text text-anchor="middle" x="301" y="-134" font-family="Helvetica,sans-Serif" font-size="10.00">SMILData::TimeNode</text>
</a>
</g>
</g>
<!-- Node3&#45;&gt;Node2 -->
<g id="edge2" class="edge"><title>Node3&#45;&gt;Node2</title>
<path fill="none" stroke="midnightblue" d="M367.464,-133.543C400.175,-131.316 439.63,-128.629 472.243,-126.409"/>
<polygon fill="midnightblue" stroke="midnightblue" points="366.836,-130.077 357.097,-134.249 367.312,-137.061 366.836,-130.077"/>
</g>
<!-- Node4 -->
<g id="node4" class="node"><title>Node4</title>
<g id="a_node4"><a xlink:href="class_owned_by.xhtml" target="_top" xlink:title="OwnedBy\&lt; SMILData \&gt;">
<polygon fill="white" stroke="black" points="2.47314,-173 2.47314,-193 123.527,-193 123.527,-173 2.47314,-173"/>
<text text-anchor="middle" x="63" y="-179" font-family="Helvetica,sans-Serif" font-size="10.00">OwnedBy&lt; SMILData &gt;</text>
</a>
</g>
</g>
<!-- Node4&#45;&gt;Node3 -->
<g id="edge3" class="edge"><title>Node4&#45;&gt;Node3</title>
<path fill="none" stroke="midnightblue" d="M126.529,-171.077C164.24,-163.886 211.737,-154.83 247.492,-148.012"/>
<polygon fill="midnightblue" stroke="midnightblue" points="125.837,-167.646 116.669,-172.957 127.148,-174.522 125.837,-167.646"/>
</g>
<!-- Node5 -->
<g id="node5" class="node"><title>Node5</title>
<polygon fill="white" stroke="#bfbfbf" points="0.246582,-122 0.246582,-154 125.753,-154 125.753,-122 0.246582,-122"/>
<text text-anchor="start" x="8.24658" y="-140" font-family="Helvetica,sans-Serif" font-size="10.00">std::enable_shared</text>
<text text-anchor="middle" x="63" y="-128" font-family="Helvetica,sans-Serif" font-size="10.00">_from_this&lt; TimeNode &gt;</text>
</g>
<!-- Node5&#45;&gt;Node3 -->
<g id="edge4" class="edge"><title>Node5&#45;&gt;Node3</title>
<path fill="none" stroke="midnightblue" d="M136.16,-138C171.125,-138 212.447,-138 244.845,-138"/>
<polygon fill="midnightblue" stroke="midnightblue" points="136.006,-134.5 126.006,-138 136.006,-141.5 136.006,-134.5"/>
</g>
<!-- Node6 -->
<g id="node6" class="node"><title>Node6</title>
<polygon fill="white" stroke="#bfbfbf" points="4.55566,-71 4.55566,-103 121.444,-103 121.444,-71 4.55566,-71"/>
<text text-anchor="start" x="12.5557" y="-89" font-family="Helvetica,sans-Serif" font-size="10.00">shared_ptr&lt; SMILData</text>
<text text-anchor="middle" x="63" y="-77" font-family="Helvetica,sans-Serif" font-size="10.00">::TimeContainer &gt;</text>
</g>
<!-- Node6&#45;&gt;Node3 -->
<g id="edge5" class="edge"><title>Node6&#45;&gt;Node3</title>
<path fill="none" stroke="#9a32cd" stroke-dasharray="5,2" d="M131.351,-102.726C153.221,-107.733 177.616,-113.211 200,-118 215.755,-121.37 232.945,-124.872 248.559,-127.985"/>
<polygon fill="#9a32cd" stroke="#9a32cd" points="132.026,-99.2904 121.496,-100.464 130.46,-106.113 132.026,-99.2904"/>
<text text-anchor="middle" x="163" y="-116" font-family="Helvetica,sans-Serif" font-size="10.00"> _parent</text>
</g>
<!-- Node7 -->
<g id="node7" class="node"><title>Node7</title>
<g id="a_node7"><a xlink:href="classstring.xhtml" target="_top" xlink:title="string">
<polygon fill="white" stroke="black" points="280.773,-59 280.773,-79 321.227,-79 321.227,-59 280.773,-59"/>
<text text-anchor="middle" x="301" y="-65" font-family="Helvetica,sans-Serif" font-size="10.00">string</text>
</a>
</g>
</g>
<!-- Node7&#45;&gt;Node2 -->
<g id="edge6" class="edge"><title>Node7&#45;&gt;Node2</title>
<path fill="none" stroke="#9a32cd" stroke-dasharray="5,2" d="M330.992,-75.5387C371.413,-84.6548 445.061,-101.265 492.472,-111.958"/>
<polygon fill="#9a32cd" stroke="#9a32cd" points="331.756,-72.1231 321.231,-73.3372 330.216,-78.9516 331.756,-72.1231"/>
<text text-anchor="middle" x="434" y="-104" font-family="Helvetica,sans-Serif" font-size="10.00"> _type</text>
</g>
<!-- Node7&#45;&gt;Node7 -->
<g id="edge7" class="edge"><title>Node7&#45;&gt;Node7</title>
<path fill="none" stroke="#9a32cd" stroke-dasharray="5,2" d="M276.447,-88.0292C277.786,-93.128 285.97,-97 301,-97 324.461,-97 331.243,-87.5653 321.345,-78.7571"/>
<polygon fill="#9a32cd" stroke="#9a32cd" points="279.709,-89.3096 280.655,-78.7571 273.335,-86.4164 279.709,-89.3096"/>
<text text-anchor="middle" x="301" y="-99" font-family="Helvetica,sans-Serif" font-size="10.00"> EmptyString</text>
</g>
<!-- Node7&#45;&gt;Node1 -->
<g id="edge8" class="edge"><title>Node7&#45;&gt;Node1</title>
<path fill="none" stroke="#9a32cd" stroke-dasharray="5,2" d="M331.662,-69C405.038,-69 595.927,-69 690.402,-69"/>
<polygon fill="#9a32cd" stroke="#9a32cd" points="331.32,-65.5001 321.32,-69 331.32,-72.5001 331.32,-65.5001"/>
<text text-anchor="middle" x="538" y="-83" font-family="Helvetica,sans-Serif" font-size="10.00"> _textref_fragmentID</text>
<text text-anchor="middle" x="538" y="-71" font-family="Helvetica,sans-Serif" font-size="10.00">_textref_file</text>
</g>
<!-- Node8 -->
<g id="node8" class="node"><title>Node8</title>
<g id="a_node8"><a xlink:href="classshared__vector.xhtml" target="_top" xlink:title="shared_vector\&lt; const\l SMILData::TimeContainer \&gt;">
<polygon fill="white" stroke="black" points="466.685,-0 466.685,-32 609.315,-32 609.315,-0 466.685,-0"/>
<text text-anchor="start" x="474.685" y="-18" font-family="Helvetica,sans-Serif" font-size="10.00">shared_vector&lt; const</text>
<text text-anchor="middle" x="538" y="-6" font-family="Helvetica,sans-Serif" font-size="10.00"> SMILData::TimeContainer &gt;</text>
</a>
</g>
</g>
<!-- Node8&#45;&gt;Node1 -->
<g id="edge9" class="edge"><title>Node8&#45;&gt;Node1</title>
<path fill="none" stroke="#9a32cd" stroke-dasharray="5,2" d="M619.629,-30.4563C637.012,-34.1045 655.206,-38.3302 672,-43 688.072,-47.4693 705.702,-53.7091 719.609,-58.9556"/>
<polygon fill="#9a32cd" stroke="#9a32cd" points="620.004,-26.9604 609.504,-28.376 618.595,-33.8171 620.004,-26.9604"/>
<text text-anchor="middle" x="650" y="-45" font-family="Helvetica,sans-Serif" font-size="10.00"> _children</text>
</g>
<!-- Node9 -->
<g id="node9" class="node"><title>Node9</title>
<polygon fill="white" stroke="#bfbfbf" points="200.5,-0 200.5,-32 401.5,-32 401.5,-0 200.5,-0"/>
<text text-anchor="start" x="208.5" y="-18" font-family="Helvetica,sans-Serif" font-size="10.00">std::vector&lt; std::shared</text>
<text text-anchor="middle" x="301" y="-6" font-family="Helvetica,sans-Serif" font-size="10.00">_ptr&lt; const SMILData::TimeContainer &gt; &gt;</text>
</g>
<!-- Node9&#45;&gt;Node8 -->
<g id="edge10" class="edge"><title>Node9&#45;&gt;Node8</title>
<path fill="none" stroke="midnightblue" d="M411.914,-16C430.436,-16 449.212,-16 466.388,-16"/>
<polygon fill="midnightblue" stroke="midnightblue" points="411.661,-12.5001 401.661,-16 411.661,-19.5001 411.661,-12.5001"/>
</g>
</g>
</svg>
