<?xml version="1.0" encoding="UTF-8" standalone="no"?>
<!DOCTYPE svg PUBLIC "-//W3C//DTD SVG 1.1//EN"
 "http://www.w3.org/Graphics/SVG/1.1/DTD/svg11.dtd">
<!-- Generated by graphviz version 2.30.0 (20130114.0426)
 -->
<!-- Title: MediaHandler Pages: 1 -->
<svg width="439pt" height="254pt"
 viewBox="0.00 0.00 439.24 254.00" xmlns="http://www.w3.org/2000/svg" xmlns:xlink="http://www.w3.org/1999/xlink">
<g id="graph0" class="graph" transform="scale(1 1) rotate(0) translate(4 250)">
<title>MediaHandler</title>
<polygon fill="white" stroke="white" points="-4,5 -4,-250 436.241,-250 436.241,5 -4,5"/>
<!-- Node1 -->
<g id="node1" class="node"><title>Node1</title>
<polygon fill="#bfbfbf" stroke="black" points="228.872,-1 228.872,-21 307.128,-21 307.128,-1 228.872,-1"/>
<text text-anchor="middle" x="268" y="-7" font-family="Helvetica,sans-Serif" font-size="10.00">MediaHandler</text>
</g>
<!-- Node2 -->
<g id="node2" class="node"><title>Node2</title>
<g id="a_node2"><a xlink:href="class_content_handler.xhtml" target="_top" xlink:title="ContentHandler">
<polygon fill="white" stroke="black" points="197.978,-71 197.978,-91 284.022,-91 284.022,-71 197.978,-71"/>
<text text-anchor="middle" x="241" y="-77" font-family="Helvetica,sans-Serif" font-size="10.00">ContentHandler</text>
</a>
</g>
</g>
<!-- Node2&#45;&gt;Node1 -->
<g id="edge1" class="edge"><title>Node2&#45;&gt;Node1</title>
<path fill="none" stroke="midnightblue" d="M248.409,-61.3402C253.616,-48.2263 260.353,-31.2601 264.416,-21.0255"/>
<polygon fill="midnightblue" stroke="midnightblue" points="245.079,-60.2434 244.641,-70.8292 251.585,-62.8267 245.079,-60.2434"/>
</g>
<!-- Node3 -->
<g id="node3" class="node"><title>Node3</title>
<g id="a_node3"><a xlink:href="class_pointer_type.xhtml" target="_top" xlink:title="PointerType\&lt; ContentHandler \&gt;">
<polygon fill="white" stroke="black" points="-0.324707,-153 -0.324707,-173 156.325,-173 156.325,-153 -0.324707,-153"/>
<text text-anchor="middle" x="78" y="-159" font-family="Helvetica,sans-Serif" font-size="10.00">PointerType&lt; ContentHandler &gt;</text>
</a>
</g>
</g>
<!-- Node3&#45;&gt;Node2 -->
<g id="edge2" class="edge"><title>Node3&#45;&gt;Node2</title>
<path fill="none" stroke="midnightblue" d="M105.548,-148.48C138.807,-132.156 193.83,-105.151 222.436,-91.1113"/>
<polygon fill="midnightblue" stroke="midnightblue" points="103.816,-145.431 96.3813,-152.978 106.9,-151.714 103.816,-145.431"/>
</g>
<!-- Node4 -->
<g id="node4" class="node"><title>Node4</title>
<polygon fill="white" stroke="#bfbfbf" points="3.01758,-213 3.01758,-245 152.982,-245 152.982,-213 3.01758,-213"/>
<text text-anchor="start" x="11.0176" y="-231" font-family="Helvetica,sans-Serif" font-size="10.00">std::enable_shared</text>
<text text-anchor="middle" x="78" y="-219" font-family="Helvetica,sans-Serif" font-size="10.00">_from_this&lt; ContentHandler &gt;</text>
</g>
<!-- Node4&#45;&gt;Node3 -->
<g id="edge3" class="edge"><title>Node4&#45;&gt;Node3</title>
<path fill="none" stroke="midnightblue" d="M78,-202.611C78,-192.286 78,-181.001 78,-173.313"/>
<polygon fill="midnightblue" stroke="midnightblue" points="74.5001,-202.833 78,-212.833 81.5001,-202.833 74.5001,-202.833"/>
</g>
<!-- Node5 -->
<g id="node5" class="node"><title>Node5</title>
<g id="a_node5"><a xlink:href="class_owned_by.xhtml" target="_top" xlink:title="OwnedBy\&lt; Package \&gt;">
<polygon fill="white" stroke="black" points="174.247,-153 174.247,-173 289.753,-173 289.753,-153 174.247,-153"/>
<text text-anchor="middle" x="232" y="-159" font-family="Helvetica,sans-Serif" font-size="10.00">OwnedBy&lt; Package &gt;</text>
</a>
</g>
</g>
<!-- Node5&#45;&gt;Node2 -->
<g id="edge4" class="edge"><title>Node5&#45;&gt;Node2</title>
<path fill="none" stroke="midnightblue" d="M234.17,-142.71C236.013,-126.329 238.576,-103.55 239.98,-91.07"/>
<polygon fill="midnightblue" stroke="midnightblue" points="230.672,-142.494 233.032,-152.823 237.629,-143.277 230.672,-142.494"/>
</g>
<!-- Node6 -->
<g id="node6" class="node"><title>Node6</title>
<g id="a_node6"><a xlink:href="classstring.xhtml" target="_top" xlink:title="string">
<polygon fill="white" stroke="black" points="315.773,-153 315.773,-173 356.227,-173 356.227,-153 315.773,-153"/>
<text text-anchor="middle" x="336" y="-159" font-family="Helvetica,sans-Serif" font-size="10.00">string</text>
</a>
</g>
</g>
<!-- Node6&#45;&gt;Node2 -->
<g id="edge5" class="edge"><title>Node6&#45;&gt;Node2</title>
<path fill="none" stroke="#9a32cd" stroke-dasharray="5,2" d="M306.154,-152.33C295.464,-147.891 283.822,-141.838 274.739,-134 260.726,-121.907 250.313,-102.59 244.988,-91.2157"/>
<polygon fill="#9a32cd" stroke="#9a32cd" points="305.014,-155.642 315.604,-155.959 307.524,-149.107 305.014,-155.642"/>
<text text-anchor="middle" x="303.63" y="-118" font-family="Helvetica,sans-Serif" font-size="10.00"> _mediaType</text>
</g>
<!-- Node6&#45;&gt;Node6 -->
<g id="edge6" class="edge"><title>Node6&#45;&gt;Node6</title>
<path fill="none" stroke="#9a32cd" stroke-dasharray="5,2" d="M366.416,-168.102C370.94,-167.307 374,-165.607 374,-163 374,-158.723 365.76,-156.885 356.329,-157.486"/>
<polygon fill="#9a32cd" stroke="#9a32cd" points="366.178,-164.609 356.329,-168.514 366.464,-171.603 366.178,-164.609"/>
<text text-anchor="middle" x="402.621" y="-159" font-family="Helvetica,sans-Serif" font-size="10.00"> EmptyString</text>
</g>
<!-- Node7 -->
<g id="node7" class="node"><title>Node7</title>
<g id="a_node7"><a xlink:href="class_i_r_i.xhtml" target="_top" xlink:title="IRI">
<polygon fill="white" stroke="black" points="320.5,-71 320.5,-91 349.5,-91 349.5,-71 320.5,-71"/>
<text text-anchor="middle" x="334.889" y="-77" font-family="Helvetica,sans-Serif" font-size="10.00">IRI</text>
</a>
</g>
</g>
<!-- Node6&#45;&gt;Node7 -->
<g id="edge8" class="edge"><title>Node6&#45;&gt;Node7</title>
<path fill="none" stroke="#9a32cd" stroke-dasharray="5,2" d="M335.759,-142.71C335.554,-126.329 335.269,-103.55 335.113,-91.07"/>
<polygon fill="#9a32cd" stroke="#9a32cd" points="332.26,-142.868 335.885,-152.823 339.26,-142.78 332.26,-142.868"/>
<text text-anchor="middle" x="372.128" y="-124" font-family="Helvetica,sans-Serif" font-size="10.00"> gEPUBScheme</text>
<text text-anchor="middle" x="372.128" y="-112" font-family="Helvetica,sans-Serif" font-size="10.00">_pureIRI</text>
</g>
<!-- Node7&#45;&gt;Node1 -->
<g id="edge7" class="edge"><title>Node7&#45;&gt;Node1</title>
<path fill="none" stroke="#9a32cd" stroke-dasharray="5,2" d="M318.875,-63.6344C305.703,-50.2659 287.576,-31.8681 276.893,-21.0255"/>
<polygon fill="#9a32cd" stroke="#9a32cd" points="316.452,-66.1624 325.964,-70.8292 321.439,-61.2495 316.452,-66.1624"/>
<text text-anchor="middle" x="333.239" y="-42" font-family="Helvetica,sans-Serif" font-size="10.00"> _handlerIRI</text>
</g>
</g>
</svg>
