<?xml version="1.0" encoding="UTF-8" standalone="no"?>
<!DOCTYPE svg PUBLIC "-//W3C//DTD SVG 1.1//EN"
 "http://www.w3.org/Graphics/SVG/1.1/DTD/svg11.dtd">
<!-- Generated by graphviz version 2.30.0 (20130114.0426)
 -->
<!-- Title: NavigationTable Pages: 1 -->
<svg width="754pt" height="190pt"
 viewBox="0.00 0.00 754.00 190.00" xmlns="http://www.w3.org/2000/svg" xmlns:xlink="http://www.w3.org/1999/xlink">
<g id="graph0" class="graph" transform="scale(1 1) rotate(0) translate(4 186)">
<title>NavigationTable</title>
<polygon fill="white" stroke="white" points="-4,5 -4,-186 751,-186 751,5 -4,5"/>
<!-- Node1 -->
<g id="node1" class="node"><title>Node1</title>
<polygon fill="#bfbfbf" stroke="black" points="658.421,-85 658.421,-105 745.579,-105 745.579,-85 658.421,-85"/>
<text text-anchor="middle" x="702" y="-91" font-family="Helvetica,sans-Serif" font-size="10.00">NavigationTable</text>
</g>
<!-- Node2 -->
<g id="node2" class="node"><title>Node2</title>
<g id="a_node2"><a xlink:href="class_navigation_element.xhtml" target="_top" xlink:title="NavigationElement">
<polygon fill="white" stroke="black" points="439.032,-153 439.032,-173 538.968,-173 538.968,-153 439.032,-153"/>
<text text-anchor="middle" x="489" y="-159" font-family="Helvetica,sans-Serif" font-size="10.00">NavigationElement</text>
</a>
</g>
</g>
<!-- Node2&#45;&gt;Node1 -->
<g id="edge1" class="edge"><title>Node2&#45;&gt;Node1</title>
<path fill="none" stroke="midnightblue" d="M537.282,-150.301C566.984,-142.036 605.977,-130.657 640,-119 652.273,-114.795 665.712,-109.576 676.845,-105.079"/>
<polygon fill="midnightblue" stroke="midnightblue" points="536.293,-146.943 527.587,-152.98 538.158,-153.69 536.293,-146.943"/>
</g>
<!-- Node3 -->
<g id="node3" class="node"><title>Node3</title>
<g id="a_node3"><a xlink:href="classshared__vector.xhtml" target="_top" xlink:title="shared_vector\&lt; Navigation\lElement \&gt;">
<polygon fill="white" stroke="black" points="186.381,-150 186.381,-182 321.619,-182 321.619,-150 186.381,-150"/>
<text text-anchor="start" x="194.381" y="-168" font-family="Helvetica,sans-Serif" font-size="10.00">shared_vector&lt; Navigation</text>
<text text-anchor="middle" x="254" y="-156" font-family="Helvetica,sans-Serif" font-size="10.00">Element &gt;</text>
</a>
</g>
</g>
<!-- Node3&#45;&gt;Node2 -->
<g id="edge2" class="edge"><title>Node3&#45;&gt;Node2</title>
<path fill="none" stroke="#9a32cd" stroke-dasharray="5,2" d="M332.034,-165.008C367.286,-164.554 408.007,-164.03 438.998,-163.631"/>
<polygon fill="#9a32cd" stroke="#9a32cd" points="331.723,-161.512 321.768,-165.14 331.813,-168.511 331.723,-161.512"/>
<text text-anchor="middle" x="370" y="-167" font-family="Helvetica,sans-Serif" font-size="10.00"> _children</text>
</g>
<!-- Node4 -->
<g id="node4" class="node"><title>Node4</title>
<polygon fill="white" stroke="#bfbfbf" points="-0.121582,-150 -0.121582,-182 140.122,-182 140.122,-150 -0.121582,-150"/>
<text text-anchor="start" x="7.87842" y="-168" font-family="Helvetica,sans-Serif" font-size="10.00">std::vector&lt;std::shared</text>
<text text-anchor="middle" x="70" y="-156" font-family="Helvetica,sans-Serif" font-size="10.00">_ptr&lt;NavigationElement &gt; &gt;</text>
</g>
<!-- Node4&#45;&gt;Node3 -->
<g id="edge3" class="edge"><title>Node4&#45;&gt;Node3</title>
<path fill="none" stroke="midnightblue" d="M150.676,-166C162.555,-166 174.695,-166 186.269,-166"/>
<polygon fill="midnightblue" stroke="midnightblue" points="150.326,-162.5 140.326,-166 150.326,-169.5 150.326,-162.5"/>
</g>
<!-- Node5 -->
<g id="node5" class="node"><title>Node5</title>
<g id="a_node5"><a xlink:href="class_pointer_type.xhtml" target="_top" xlink:title="PointerType\&lt; NavigationTable \&gt;">
<polygon fill="white" stroke="black" points="410.119,-108 410.119,-128 567.881,-128 567.881,-108 410.119,-108"/>
<text text-anchor="middle" x="489" y="-114" font-family="Helvetica,sans-Serif" font-size="10.00">PointerType&lt; NavigationTable &gt;</text>
</a>
</g>
</g>
<!-- Node5&#45;&gt;Node1 -->
<g id="edge4" class="edge"><title>Node5&#45;&gt;Node1</title>
<path fill="none" stroke="midnightblue" d="M578.088,-108.398C605.797,-105.378 635.153,-102.178 658.226,-99.6626"/>
<polygon fill="midnightblue" stroke="midnightblue" points="577.531,-104.938 567.969,-109.501 578.29,-111.897 577.531,-104.938"/>
</g>
<!-- Node6 -->
<g id="node6" class="node"><title>Node6</title>
<polygon fill="white" stroke="#bfbfbf" points="178.461,-99 178.461,-131 329.539,-131 329.539,-99 178.461,-99"/>
<text text-anchor="start" x="186.461" y="-117" font-family="Helvetica,sans-Serif" font-size="10.00">std::enable_shared</text>
<text text-anchor="middle" x="254" y="-105" font-family="Helvetica,sans-Serif" font-size="10.00">_from_this&lt; NavigationTable &gt;</text>
</g>
<!-- Node6&#45;&gt;Node5 -->
<g id="edge5" class="edge"><title>Node6&#45;&gt;Node5</title>
<path fill="none" stroke="midnightblue" d="M339.709,-116.091C362.581,-116.385 387.223,-116.702 409.726,-116.992"/>
<polygon fill="midnightblue" stroke="midnightblue" points="339.728,-112.591 329.684,-115.962 339.638,-119.59 339.728,-112.591"/>
</g>
<!-- Node7 -->
<g id="node7" class="node"><title>Node7</title>
<g id="a_node7"><a xlink:href="class_owned_by.xhtml" target="_top" xlink:title="OwnedBy\&lt; Package \&gt;">
<polygon fill="white" stroke="black" points="431.247,-69 431.247,-89 546.753,-89 546.753,-69 431.247,-69"/>
<text text-anchor="middle" x="489" y="-75" font-family="Helvetica,sans-Serif" font-size="10.00">OwnedBy&lt; Package &gt;</text>
</a>
</g>
</g>
<!-- Node7&#45;&gt;Node1 -->
<g id="edge6" class="edge"><title>Node7&#45;&gt;Node1</title>
<path fill="none" stroke="midnightblue" d="M556.899,-84.0729C590.035,-86.5856 629.064,-89.5451 658.141,-91.75"/>
<polygon fill="midnightblue" stroke="midnightblue" points="557.058,-80.575 546.822,-83.3088 556.528,-87.5549 557.058,-80.575"/>
</g>
<!-- Node8 -->
<g id="node8" class="node"><title>Node8</title>
<g id="a_node8"><a xlink:href="classstring.xhtml" target="_top" xlink:title="string">
<polygon fill="white" stroke="black" points="468.773,-0 468.773,-20 509.227,-20 509.227,-0 468.773,-0"/>
<text text-anchor="middle" x="489" y="-6" font-family="Helvetica,sans-Serif" font-size="10.00">string</text>
</a>
</g>
</g>
<!-- Node8&#45;&gt;Node1 -->
<g id="edge7" class="edge"><title>Node8&#45;&gt;Node1</title>
<path fill="none" stroke="#9a32cd" stroke-dasharray="5,2" d="M519.563,-13.5221C550.764,-18.0844 600.761,-27.8384 640,-47 659.859,-56.6977 679.308,-73.6694 690.722,-84.6154"/>
<polygon fill="#9a32cd" stroke="#9a32cd" points="519.743,-10.0139 509.359,-12.1179 518.788,-16.9486 519.743,-10.0139"/>
<text text-anchor="middle" x="613" y="-73" font-family="Helvetica,sans-Serif" font-size="10.00"> _type</text>
<text text-anchor="middle" x="613" y="-61" font-family="Helvetica,sans-Serif" font-size="10.00">_title</text>
<text text-anchor="middle" x="613" y="-49" font-family="Helvetica,sans-Serif" font-size="10.00">_sourceHref</text>
</g>
<!-- Node8&#45;&gt;Node8 -->
<g id="edge8" class="edge"><title>Node8&#45;&gt;Node8</title>
<path fill="none" stroke="#9a32cd" stroke-dasharray="5,2" d="M467.199,-29.5616C468.769,-34.3951 476.036,-38 489,-38 509.742,-38 515.9,-28.7715 507.474,-20.0477"/>
<polygon fill="#9a32cd" stroke="#9a32cd" points="470.529,-30.6425 470.526,-20.0477 463.922,-28.3317 470.529,-30.6425"/>
<text text-anchor="middle" x="489" y="-40" font-family="Helvetica,sans-Serif" font-size="10.00"> EmptyString</text>
</g>
</g>
</svg>
