<?xml version="1.0" encoding="UTF-8" standalone="no"?>
<!DOCTYPE svg PUBLIC "-//W3C//DTD SVG 1.1//EN"
 "http://www.w3.org/Graphics/SVG/1.1/DTD/svg11.dtd">
<!-- Generated by graphviz version 2.30.0 (20130114.0426)
 -->
<!-- Title: SMILData::TimeNode Pages: 1 -->
<svg width="452pt" height="216pt"
 viewBox="0.00 0.00 452.00 216.00" xmlns="http://www.w3.org/2000/svg" xmlns:xlink="http://www.w3.org/1999/xlink">
<g id="graph0" class="graph" transform="scale(1 1) rotate(0) translate(4 212)">
<title>SMILData::TimeNode</title>
<polygon fill="white" stroke="white" points="-4,5 -4,-212 449,-212 449,5 -4,5"/>
<!-- Node1 -->
<g id="node1" class="node"><title>Node1</title>
<polygon fill="#bfbfbf" stroke="black" points="155.109,-117 155.109,-137 266.891,-137 266.891,-117 155.109,-117"/>
<text text-anchor="middle" x="211" y="-123" font-family="Helvetica,sans-Serif" font-size="10.00">SMILData::TimeNode</text>
</g>
<!-- Node4 -->
<g id="node4" class="node"><title>Node4</title>
<g id="a_node4"><a xlink:href="class_s_m_i_l_data_1_1_media.xhtml" target="_top" xlink:title="SMILData::Media">
<polygon fill="white" stroke="black" points="99.3721,-59 99.3721,-79 192.628,-79 192.628,-59 99.3721,-59"/>
<text text-anchor="middle" x="146" y="-65" font-family="Helvetica,sans-Serif" font-size="10.00">SMILData::Media</text>
</a>
</g>
</g>
<!-- Node1&#45;&gt;Node4 -->
<g id="edge3" class="edge"><title>Node1&#45;&gt;Node4</title>
<path fill="none" stroke="midnightblue" d="M192.425,-109.997C180.789,-99.9719 166.216,-87.4171 156.534,-79.0752"/>
<polygon fill="midnightblue" stroke="midnightblue" points="190.406,-112.877 200.267,-116.753 194.975,-107.574 190.406,-112.877"/>
</g>
<!-- Node7 -->
<g id="node7" class="node"><title>Node7</title>
<g id="a_node7"><a xlink:href="class_s_m_i_l_data_1_1_time_container.xhtml" target="_top" xlink:title="SMILData::TimeContainer">
<polygon fill="white" stroke="black" points="210.383,-59 210.383,-79 341.617,-79 341.617,-59 210.383,-59"/>
<text text-anchor="middle" x="276" y="-65" font-family="Helvetica,sans-Serif" font-size="10.00">SMILData::TimeContainer</text>
</a>
</g>
</g>
<!-- Node1&#45;&gt;Node7 -->
<g id="edge6" class="edge"><title>Node1&#45;&gt;Node7</title>
<path fill="none" stroke="midnightblue" d="M229.575,-109.997C241.211,-99.9719 255.784,-87.4171 265.466,-79.0752"/>
<polygon fill="midnightblue" stroke="midnightblue" points="227.025,-107.574 221.733,-116.753 231.594,-112.877 227.025,-107.574"/>
</g>
<!-- Node2 -->
<g id="node2" class="node"><title>Node2</title>
<g id="a_node2"><a xlink:href="class_owned_by.xhtml" target="_top" xlink:title="OwnedBy\&lt; SMILData \&gt;">
<polygon fill="white" stroke="black" points="80.4731,-181 80.4731,-201 201.527,-201 201.527,-181 80.4731,-181"/>
<text text-anchor="middle" x="141" y="-187" font-family="Helvetica,sans-Serif" font-size="10.00">OwnedBy&lt; SMILData &gt;</text>
</a>
</g>
</g>
<!-- Node2&#45;&gt;Node1 -->
<g id="edge1" class="edge"><title>Node2&#45;&gt;Node1</title>
<path fill="none" stroke="midnightblue" d="M158.904,-174.142C172.122,-162.435 189.652,-146.908 200.629,-137.186"/>
<polygon fill="midnightblue" stroke="midnightblue" points="156.494,-171.601 151.329,-180.852 161.135,-176.841 156.494,-171.601"/>
</g>
<!-- Node3 -->
<g id="node3" class="node"><title>Node3</title>
<polygon fill="white" stroke="#bfbfbf" points="219.247,-175 219.247,-207 344.753,-207 344.753,-175 219.247,-175"/>
<text text-anchor="start" x="227.247" y="-193" font-family="Helvetica,sans-Serif" font-size="10.00">std::enable_shared</text>
<text text-anchor="middle" x="282" y="-181" font-family="Helvetica,sans-Serif" font-size="10.00">_from_this&lt; TimeNode &gt;</text>
</g>
<!-- Node3&#45;&gt;Node1 -->
<g id="edge2" class="edge"><title>Node3&#45;&gt;Node1</title>
<path fill="none" stroke="midnightblue" d="M257.156,-168.305C244.998,-157.688 231.002,-145.466 221.639,-137.29"/>
<polygon fill="midnightblue" stroke="midnightblue" points="254.978,-171.05 264.813,-174.992 259.583,-165.778 254.978,-171.05"/>
</g>
<!-- Node5 -->
<g id="node5" class="node"><title>Node5</title>
<g id="a_node5"><a xlink:href="class_s_m_i_l_data_1_1_audio.xhtml" target="_top" xlink:title="SMILData::Audio">
<polygon fill="white" stroke="black" points="-0.797852,-1 -0.797852,-21 90.7979,-21 90.7979,-1 -0.797852,-1"/>
<text text-anchor="middle" x="45" y="-7" font-family="Helvetica,sans-Serif" font-size="10.00">SMILData::Audio</text>
</a>
</g>
</g>
<!-- Node4&#45;&gt;Node5 -->
<g id="edge4" class="edge"><title>Node4&#45;&gt;Node5</title>
<path fill="none" stroke="midnightblue" d="M120.502,-53.8627C101.945,-43.5733 77.3625,-29.9436 61.3678,-21.0752"/>
<polygon fill="midnightblue" stroke="midnightblue" points="118.879,-56.9646 129.322,-58.7527 122.273,-50.8426 118.879,-56.9646"/>
</g>
<!-- Node6 -->
<g id="node6" class="node"><title>Node6</title>
<g id="a_node6"><a xlink:href="class_s_m_i_l_data_1_1_text.xhtml" target="_top" xlink:title="SMILData::Text">
<polygon fill="white" stroke="black" points="108.82,-1 108.82,-21 193.18,-21 193.18,-1 108.82,-1"/>
<text text-anchor="middle" x="151" y="-7" font-family="Helvetica,sans-Serif" font-size="10.00">SMILData::Text</text>
</a>
</g>
</g>
<!-- Node4&#45;&gt;Node6 -->
<g id="edge5" class="edge"><title>Node4&#45;&gt;Node6</title>
<path fill="none" stroke="midnightblue" d="M147.723,-48.7065C148.559,-39.3384 149.524,-28.5262 150.19,-21.0752"/>
<polygon fill="midnightblue" stroke="midnightblue" points="144.229,-48.4811 146.826,-58.7527 151.201,-49.1037 144.229,-48.4811"/>
</g>
<!-- Node8 -->
<g id="node8" class="node"><title>Node8</title>
<g id="a_node8"><a xlink:href="class_s_m_i_l_data_1_1_parallel.xhtml" target="_top" xlink:title="SMILData::Parallel">
<polygon fill="white" stroke="black" points="216.315,-1 216.315,-21 315.685,-21 315.685,-1 216.315,-1"/>
<text text-anchor="middle" x="266" y="-7" font-family="Helvetica,sans-Serif" font-size="10.00">SMILData::Parallel</text>
</a>
</g>
</g>
<!-- Node7&#45;&gt;Node8 -->
<g id="edge7" class="edge"><title>Node7&#45;&gt;Node8</title>
<path fill="none" stroke="midnightblue" d="M272.555,-48.7065C270.882,-39.3384 268.951,-28.5262 267.621,-21.0752"/>
<polygon fill="midnightblue" stroke="midnightblue" points="269.145,-49.5238 274.349,-58.7527 276.036,-48.2932 269.145,-49.5238"/>
</g>
<!-- Node9 -->
<g id="node9" class="node"><title>Node9</title>
<g id="a_node9"><a xlink:href="class_s_m_i_l_data_1_1_sequence.xhtml" target="_top" xlink:title="SMILData::Sequence">
<polygon fill="white" stroke="black" points="333.471,-1 333.471,-21 444.529,-21 444.529,-1 333.471,-1"/>
<text text-anchor="middle" x="389" y="-7" font-family="Helvetica,sans-Serif" font-size="10.00">SMILData::Sequence</text>
</a>
</g>
</g>
<!-- Node7&#45;&gt;Node9 -->
<g id="edge8" class="edge"><title>Node7&#45;&gt;Node9</title>
<path fill="none" stroke="midnightblue" d="M303.414,-54.4143C324.265,-44.0813 352.382,-30.1472 370.601,-21.1181"/>
<polygon fill="midnightblue" stroke="midnightblue" points="301.813,-51.3015 294.407,-58.878 304.921,-57.5736 301.813,-51.3015"/>
</g>
</g>
</svg>
