<?xml version="1.0" encoding="UTF-8" standalone="no"?>
<!DOCTYPE svg PUBLIC "-//W3C//DTD SVG 1.1//EN"
 "http://www.w3.org/Graphics/SVG/1.1/DTD/svg11.dtd">
<!-- Generated by graphviz version 2.30.0 (20130114.0426)
 -->
<!-- Title: FontObfuscator Pages: 1 -->
<svg width="253pt" height="158pt"
 viewBox="0.00 0.00 253.00 158.00" xmlns="http://www.w3.org/2000/svg" xmlns:xlink="http://www.w3.org/1999/xlink">
<g id="graph0" class="graph" transform="scale(1 1) rotate(0) translate(4 154)">
<title>FontObfuscator</title>
<polygon fill="white" stroke="white" points="-4,5 -4,-154 250,-154 250,5 -4,5"/>
<!-- Node1 -->
<g id="node1" class="node"><title>Node1</title>
<polygon fill="#bfbfbf" stroke="black" points="59.5396,-1 59.5396,-21 144.46,-21 144.46,-1 59.5396,-1"/>
<text text-anchor="middle" x="102" y="-7" font-family="Helvetica,sans-Serif" font-size="10.00">FontObfuscator</text>
</g>
<!-- Node2 -->
<g id="node2" class="node"><title>Node2</title>
<g id="a_node2"><a xlink:href="class_content_filter.xhtml" target="_top" xlink:title="ContentFilter">
<polygon fill="white" stroke="black" points="-0.623047,-59 -0.623047,-79 72.623,-79 72.623,-59 -0.623047,-59"/>
<text text-anchor="middle" x="36" y="-65" font-family="Helvetica,sans-Serif" font-size="10.00">ContentFilter</text>
</a>
</g>
</g>
<!-- Node2&#45;&gt;Node1 -->
<g id="edge1" class="edge"><title>Node2&#45;&gt;Node1</title>
<path fill="none" stroke="midnightblue" d="M54.861,-51.9967C66.6759,-41.9719 81.4727,-29.4171 91.3042,-21.0752"/>
<polygon fill="midnightblue" stroke="midnightblue" points="52.2592,-49.6141 46.8986,-58.7527 56.7881,-54.9517 52.2592,-49.6141"/>
</g>
<!-- Node3 -->
<g id="node3" class="node"><title>Node3</title>
<g id="a_node3"><a xlink:href="class_pointer_type.xhtml" target="_top" xlink:title="PointerType\&lt; FontObfuscator \&gt;">
<polygon fill="white" stroke="black" points="90.2368,-59 90.2368,-79 245.763,-79 245.763,-59 90.2368,-59"/>
<text text-anchor="middle" x="168" y="-65" font-family="Helvetica,sans-Serif" font-size="10.00">PointerType&lt; FontObfuscator &gt;</text>
</a>
</g>
</g>
<!-- Node3&#45;&gt;Node1 -->
<g id="edge2" class="edge"><title>Node3&#45;&gt;Node1</title>
<path fill="none" stroke="midnightblue" d="M149.139,-51.9967C137.324,-41.9719 122.527,-29.4171 112.696,-21.0752"/>
<polygon fill="midnightblue" stroke="midnightblue" points="147.212,-54.9517 157.101,-58.7527 151.741,-49.6141 147.212,-54.9517"/>
</g>
<!-- Node4 -->
<g id="node4" class="node"><title>Node4</title>
<polygon fill="white" stroke="#bfbfbf" points="93.5791,-117 93.5791,-149 242.421,-149 242.421,-117 93.5791,-117"/>
<text text-anchor="start" x="101.579" y="-135" font-family="Helvetica,sans-Serif" font-size="10.00">std::enable_shared</text>
<text text-anchor="middle" x="168" y="-123" font-family="Helvetica,sans-Serif" font-size="10.00">_from_this&lt; FontObfuscator &gt;</text>
</g>
<!-- Node4&#45;&gt;Node3 -->
<g id="edge3" class="edge"><title>Node4&#45;&gt;Node3</title>
<path fill="none" stroke="midnightblue" d="M168,-106.922C168,-97.1719 168,-86.6099 168,-79.2904"/>
<polygon fill="midnightblue" stroke="midnightblue" points="164.5,-106.991 168,-116.992 171.5,-106.992 164.5,-106.991"/>
</g>
</g>
</svg>
