<?xml version="1.0" encoding="UTF-8" standalone="no"?>
<!DOCTYPE svg PUBLIC "-//W3C//DTD SVG 1.1//EN"
 "http://www.w3.org/Graphics/SVG/1.1/DTD/svg11.dtd">
<!-- Generated by graphviz version 2.30.0 (20130114.0426)
 -->
<!-- Title: ObjectPreprocessor Pages: 1 -->
<svg width="273pt" height="158pt"
 viewBox="0.00 0.00 273.00 158.00" xmlns="http://www.w3.org/2000/svg" xmlns:xlink="http://www.w3.org/1999/xlink">
<g id="graph0" class="graph" transform="scale(1 1) rotate(0) translate(4 154)">
<title>ObjectPreprocessor</title>
<polygon fill="white" stroke="white" points="-4,5 -4,-154 270,-154 270,5 -4,5"/>
<!-- Node1 -->
<g id="node1" class="node"><title>Node1</title>
<polygon fill="#bfbfbf" stroke="black" points="54.8154,-1 54.8154,-21 159.185,-21 159.185,-1 54.8154,-1"/>
<text text-anchor="middle" x="107" y="-7" font-family="Helvetica,sans-Serif" font-size="10.00">ObjectPreprocessor</text>
</g>
<!-- Node2 -->
<g id="node2" class="node"><title>Node2</title>
<g id="a_node2"><a xlink:href="class_content_filter.xhtml" target="_top" xlink:title="ContentFilter">
<polygon fill="white" stroke="black" points="-0.623047,-59 -0.623047,-79 72.623,-79 72.623,-59 -0.623047,-59"/>
<text text-anchor="middle" x="36" y="-65" font-family="Helvetica,sans-Serif" font-size="10.00">ContentFilter</text>
</a>
</g>
</g>
<!-- Node2&#45;&gt;Node1 -->
<g id="edge1" class="edge"><title>Node2&#45;&gt;Node1</title>
<path fill="none" stroke="midnightblue" d="M55.9206,-52.288C68.6903,-42.2161 84.8149,-29.4981 95.494,-21.0752"/>
<polygon fill="midnightblue" stroke="midnightblue" points="53.4084,-49.8118 47.7242,-58.7527 57.7434,-55.3079 53.4084,-49.8118"/>
</g>
<!-- Node3 -->
<g id="node3" class="node"><title>Node3</title>
<g id="a_node3"><a xlink:href="class_pointer_type.xhtml" target="_top" xlink:title="PointerType\&lt; ObjectPreprocessor \&gt;">
<polygon fill="white" stroke="black" points="90.5127,-59 90.5127,-79 265.487,-79 265.487,-59 90.5127,-59"/>
<text text-anchor="middle" x="178" y="-65" font-family="Helvetica,sans-Serif" font-size="10.00">PointerType&lt; ObjectPreprocessor &gt;</text>
</a>
</g>
</g>
<!-- Node3&#45;&gt;Node1 -->
<g id="edge2" class="edge"><title>Node3&#45;&gt;Node1</title>
<path fill="none" stroke="midnightblue" d="M158.079,-52.288C145.31,-42.2161 129.185,-29.4981 118.506,-21.0752"/>
<polygon fill="midnightblue" stroke="midnightblue" points="156.257,-55.3079 166.276,-58.7527 160.592,-49.8118 156.257,-55.3079"/>
</g>
<!-- Node4 -->
<g id="node4" class="node"><title>Node4</title>
<polygon fill="white" stroke="#bfbfbf" points="93.855,-117 93.855,-149 262.145,-149 262.145,-117 93.855,-117"/>
<text text-anchor="start" x="101.855" y="-135" font-family="Helvetica,sans-Serif" font-size="10.00">std::enable_shared</text>
<text text-anchor="middle" x="178" y="-123" font-family="Helvetica,sans-Serif" font-size="10.00">_from_this&lt; ObjectPreprocessor &gt;</text>
</g>
<!-- Node4&#45;&gt;Node3 -->
<g id="edge3" class="edge"><title>Node4&#45;&gt;Node3</title>
<path fill="none" stroke="midnightblue" d="M178,-106.922C178,-97.1719 178,-86.6099 178,-79.2904"/>
<polygon fill="midnightblue" stroke="midnightblue" points="174.5,-106.991 178,-116.992 181.5,-106.992 174.5,-106.991"/>
</g>
</g>
</svg>
