<?xml version="1.0" encoding="UTF-8" standalone="no"?>
<!DOCTYPE svg PUBLIC "-//W3C//DTD SVG 1.1//EN"
 "http://www.w3.org/Graphics/SVG/1.1/DTD/svg11.dtd">
<!-- Generated by graphviz version 2.30.0 (20130114.0426)
 -->
<!-- Title: MediaSupportInfo Pages: 1 -->
<svg width="290pt" height="170pt"
 viewBox="0.00 0.00 290.00 170.00" xmlns="http://www.w3.org/2000/svg" xmlns:xlink="http://www.w3.org/1999/xlink">
<g id="graph0" class="graph" transform="scale(1 1) rotate(0) translate(4 166)">
<title>MediaSupportInfo</title>
<polygon fill="white" stroke="white" points="-4,5 -4,-166 287,-166 287,5 -4,5"/>
<!-- Node1 -->
<g id="node1" class="node"><title>Node1</title>
<polygon fill="#bfbfbf" stroke="black" points="104.53,-1 104.53,-21 199.47,-21 199.47,-1 104.53,-1"/>
<text text-anchor="middle" x="152" y="-7" font-family="Helvetica,sans-Serif" font-size="10.00">MediaSupportInfo</text>
</g>
<!-- Node2 -->
<g id="node2" class="node"><title>Node2</title>
<g id="a_node2"><a xlink:href="class_pointer_type.xhtml" target="_top" xlink:title="PointerType\&lt; MediaSupport\lInfo \&gt;">
<polygon fill="white" stroke="black" points="8.87598,-59 8.87598,-91 149.124,-91 149.124,-59 8.87598,-59"/>
<text text-anchor="start" x="16.876" y="-77" font-family="Helvetica,sans-Serif" font-size="10.00">PointerType&lt; MediaSupport</text>
<text text-anchor="middle" x="79" y="-65" font-family="Helvetica,sans-Serif" font-size="10.00">Info &gt;</text>
</a>
</g>
</g>
<!-- Node2&#45;&gt;Node1 -->
<g id="edge1" class="edge"><title>Node2&#45;&gt;Node1</title>
<path fill="none" stroke="midnightblue" d="M104.544,-52.3051C117.045,-41.6882 131.435,-29.4664 141.061,-21.2904"/>
<polygon fill="midnightblue" stroke="midnightblue" points="102.028,-49.8503 96.6713,-58.9915 106.559,-55.1857 102.028,-49.8503"/>
</g>
<!-- Node3 -->
<g id="node3" class="node"><title>Node3</title>
<polygon fill="white" stroke="#bfbfbf" points="-0.430664,-129 -0.430664,-161 158.431,-161 158.431,-129 -0.430664,-129"/>
<text text-anchor="start" x="7.56934" y="-147" font-family="Helvetica,sans-Serif" font-size="10.00">std::enable_shared</text>
<text text-anchor="middle" x="79" y="-135" font-family="Helvetica,sans-Serif" font-size="10.00">_from_this&lt; MediaSupportInfo &gt;</text>
</g>
<!-- Node3&#45;&gt;Node2 -->
<g id="edge2" class="edge"><title>Node3&#45;&gt;Node2</title>
<path fill="none" stroke="midnightblue" d="M79,-118.617C79,-109.338 79,-99.1413 79,-91.0492"/>
<polygon fill="midnightblue" stroke="midnightblue" points="75.5001,-118.909 79,-128.909 82.5001,-118.909 75.5001,-118.909"/>
</g>
<!-- Node4 -->
<g id="node4" class="node"><title>Node4</title>
<g id="a_node4"><a xlink:href="class_owned_by.xhtml" target="_top" xlink:title="OwnedBy\&lt; Package \&gt;">
<polygon fill="white" stroke="black" points="167.247,-65 167.247,-85 282.753,-85 282.753,-65 167.247,-65"/>
<text text-anchor="middle" x="225" y="-71" font-family="Helvetica,sans-Serif" font-size="10.00">OwnedBy&lt; Package &gt;</text>
</a>
</g>
</g>
<!-- Node4&#45;&gt;Node1 -->
<g id="edge3" class="edge"><title>Node4&#45;&gt;Node1</title>
<path fill="none" stroke="midnightblue" d="M206.328,-58.1419C192.544,-46.4346 174.263,-30.9082 162.816,-21.1858"/>
<polygon fill="midnightblue" stroke="midnightblue" points="204.341,-61.0459 214.229,-64.8517 208.872,-55.7105 204.341,-61.0459"/>
</g>
</g>
</svg>
