<?xml version="1.0" encoding="UTF-8" standalone="no"?>
<!DOCTYPE svg PUBLIC "-//W3C//DTD SVG 1.1//EN"
 "http://www.w3.org/Graphics/SVG/1.1/DTD/svg11.dtd">
<!-- Generated by graphviz version 2.30.0 (20130114.0426)
 -->
<!-- Title: RangeFilterContext Pages: 1 -->
<svg width="116pt" height="158pt"
 viewBox="0.00 0.00 116.00 158.00" xmlns="http://www.w3.org/2000/svg" xmlns:xlink="http://www.w3.org/1999/xlink">
<g id="graph0" class="graph" transform="scale(1 1) rotate(0) translate(4 154)">
<title>RangeFilterContext</title>
<polygon fill="white" stroke="white" points="-4,5 -4,-154 113,-154 113,5 -4,5"/>
<!-- Node1 -->
<g id="node1" class="node"><title>Node1</title>
<polygon fill="#bfbfbf" stroke="black" points="2.92383,-71 2.92383,-91 105.076,-91 105.076,-71 2.92383,-71"/>
<text text-anchor="middle" x="54" y="-77" font-family="Helvetica,sans-Serif" font-size="10.00">RangeFilterContext</text>
</g>
<!-- Node3 -->
<g id="node3" class="node"><title>Node3</title>
<polygon fill="white" stroke="#bfbfbf" points="-0.970215,-1 -0.970215,-33 108.97,-33 108.97,-1 -0.970215,-1"/>
<text text-anchor="start" x="7.02979" y="-19" font-family="Helvetica,sans-Serif" font-size="10.00">PassThroughFilter::</text>
<text text-anchor="middle" x="54" y="-7" font-family="Helvetica,sans-Serif" font-size="10.00">PassThroughContext</text>
</g>
<!-- Node1&#45;&gt;Node3 -->
<g id="edge2" class="edge"><title>Node1&#45;&gt;Node3</title>
<path fill="none" stroke="midnightblue" d="M54,-60.7747C54,-51.9863 54,-41.715 54,-33.4404"/>
<polygon fill="midnightblue" stroke="midnightblue" points="50.5001,-60.8517 54,-70.8517 57.5001,-60.8517 50.5001,-60.8517"/>
</g>
<!-- Node2 -->
<g id="node2" class="node"><title>Node2</title>
<g id="a_node2"><a xlink:href="class_filter_context.xhtml" target="_top" xlink:title="FilterContext">
<polygon fill="white" stroke="black" points="17.6577,-129 17.6577,-149 90.3423,-149 90.3423,-129 17.6577,-129"/>
<text text-anchor="middle" x="54" y="-135" font-family="Helvetica,sans-Serif" font-size="10.00">FilterContext</text>
</a>
</g>
</g>
<!-- Node2&#45;&gt;Node1 -->
<g id="edge1" class="edge"><title>Node2&#45;&gt;Node1</title>
<path fill="none" stroke="midnightblue" d="M54,-118.707C54,-109.338 54,-98.5262 54,-91.0752"/>
<polygon fill="midnightblue" stroke="midnightblue" points="50.5001,-118.753 54,-128.753 57.5001,-118.753 50.5001,-118.753"/>
</g>
</g>
</svg>
