<?xml version="1.0" encoding="UTF-8" standalone="no"?>
<!DOCTYPE svg PUBLIC "-//W3C//DTD SVG 1.1//EN"
 "http://www.w3.org/Graphics/SVG/1.1/DTD/svg11.dtd">
<!-- Generated by graphviz version 2.30.0 (20130114.0426)
 -->
<!-- Title: ArchiveXmlWriter Pages: 1 -->
<svg width="258pt" height="100pt"
 viewBox="0.00 0.00 258.00 100.00" xmlns="http://www.w3.org/2000/svg" xmlns:xlink="http://www.w3.org/1999/xlink">
<g id="graph0" class="graph" transform="scale(1 1) rotate(0) translate(4 96)">
<title>ArchiveXmlWriter</title>
<polygon fill="white" stroke="white" points="-4,5 -4,-96 255,-96 255,5 -4,5"/>
<!-- Node1 -->
<g id="node1" class="node"><title>Node1</title>
<polygon fill="#bfbfbf" stroke="black" points="66.4746,-1 66.4746,-21 159.525,-21 159.525,-1 66.4746,-1"/>
<text text-anchor="middle" x="113" y="-7" font-family="Helvetica,sans-Serif" font-size="10.00">ArchiveXmlWriter</text>
</g>
<!-- Node2 -->
<g id="node2" class="node"><title>Node2</title>
<polygon fill="white" stroke="#bfbfbf" points="-0.815918,-71 -0.815918,-91 92.8159,-91 92.8159,-71 -0.815918,-71"/>
<text text-anchor="middle" x="46" y="-77" font-family="Helvetica,sans-Serif" font-size="10.00">xml::OutputBuffer</text>
</g>
<!-- Node2&#45;&gt;Node1 -->
<g id="edge1" class="edge"><title>Node2&#45;&gt;Node1</title>
<path fill="none" stroke="midnightblue" d="M62.125,-63.6344C75.2969,-50.2659 93.4241,-31.8681 104.107,-21.0255"/>
<polygon fill="midnightblue" stroke="midnightblue" points="59.5613,-61.2495 55.0359,-70.8292 64.5476,-66.1624 59.5613,-61.2495"/>
</g>
<!-- Node3 -->
<g id="node3" class="node"><title>Node3</title>
<polygon fill="white" stroke="#bfbfbf" points="111.11,-71 111.11,-91 250.89,-91 250.89,-71 111.11,-71"/>
<text text-anchor="middle" x="181" y="-77" font-family="Helvetica,sans-Serif" font-size="10.00">unique_ptr&lt; ArchiveWriter &gt;</text>
</g>
<!-- Node3&#45;&gt;Node1 -->
<g id="edge2" class="edge"><title>Node3&#45;&gt;Node1</title>
<path fill="none" stroke="#9a32cd" stroke-dasharray="5,2" d="M164.634,-63.6344C151.266,-50.2659 132.868,-31.8681 122.025,-21.0255"/>
<polygon fill="#9a32cd" stroke="#9a32cd" points="162.283,-66.233 171.829,-70.8292 167.233,-61.2832 162.283,-66.233"/>
<text text-anchor="middle" x="168.392" y="-42" font-family="Helvetica,sans-Serif" font-size="10.00"> _writer</text>
</g>
</g>
</svg>
