<?xml version="1.0" encoding="UTF-8" standalone="no"?>
<!DOCTYPE svg PUBLIC "-//W3C//DTD SVG 1.1//EN"
 "http://www.w3.org/Graphics/SVG/1.1/DTD/svg11.dtd">
<!-- Generated by graphviz version 2.30.0 (20130114.0426)
 -->
<!-- Title: /Users/rkwright/Documents/github/readium&#45;sdk&#45;D/ePub3/utilities/condition_variable_any.h Pages: 1 -->
<svg width="1344pt" height="300pt"
 viewBox="0.00 0.00 1344.00 300.00" xmlns="http://www.w3.org/2000/svg" xmlns:xlink="http://www.w3.org/1999/xlink">
<g id="graph0" class="graph" transform="scale(1 1) rotate(0) translate(4 296)">
<title>/Users/rkwright/Documents/github/readium&#45;sdk&#45;D/ePub3/utilities/condition_variable_any.h</title>
<polygon fill="white" stroke="white" points="-4,5 -4,-296 1341,-296 1341,5 -4,5"/>
<!-- Node1 -->
<g id="node1" class="node"><title>Node1</title>
<polygon fill="#bfbfbf" stroke="black" points="988.99,-247 988.99,-291 1151.01,-291 1151.01,-247 988.99,-247"/>
<text text-anchor="start" x="996.99" y="-277" font-family="Helvetica,sans-Serif" font-size="10.00">/Users/rkwright/Documents</text>
<text text-anchor="start" x="996.99" y="-265" font-family="Helvetica,sans-Serif" font-size="10.00">/github/readium&#45;sdk&#45;D/ePub3</text>
<text text-anchor="middle" x="1070" y="-253" font-family="Helvetica,sans-Serif" font-size="10.00">/utilities/condition_variable_any.h</text>
</g>
<!-- Node2 -->
<g id="node2" class="node"><title>Node2</title>
<g id="a_node2"><a xlink:href="future_8h.xhtml" target="_top" xlink:title="/Users/rkwright/Documents\l/github/readium&#45;sdk&#45;D/ePub3\l/utilities/future.h">
<polygon fill="white" stroke="black" points="996.966,-165 996.966,-209 1143.03,-209 1143.03,-165 996.966,-165"/>
<text text-anchor="start" x="1004.97" y="-195" font-family="Helvetica,sans-Serif" font-size="10.00">/Users/rkwright/Documents</text>
<text text-anchor="start" x="1004.97" y="-183" font-family="Helvetica,sans-Serif" font-size="10.00">/github/readium&#45;sdk&#45;D/ePub3</text>
<text text-anchor="middle" x="1070" y="-171" font-family="Helvetica,sans-Serif" font-size="10.00">/utilities/future.h</text>
</a>
</g>
</g>
<!-- Node1&#45;&gt;Node2 -->
<g id="edge1" class="edge"><title>Node1&#45;&gt;Node2</title>
<path fill="none" stroke="midnightblue" d="M1070,-236.896C1070,-227.609 1070,-217.649 1070,-209.156"/>
<polygon fill="midnightblue" stroke="midnightblue" points="1066.5,-236.981 1070,-246.981 1073.5,-236.981 1066.5,-236.981"/>
</g>
<!-- Node3 -->
<g id="node3" class="node"><title>Node3</title>
<g id="a_node3"><a xlink:href="container_8h.xhtml" target="_top" xlink:title="/Users/rkwright/Documents\l/github/readium&#45;sdk&#45;D/ePub3\l/ePub/container.h">
<polygon fill="white" stroke="black" points="573.966,-83 573.966,-127 720.034,-127 720.034,-83 573.966,-83"/>
<text text-anchor="start" x="581.966" y="-113" font-family="Helvetica,sans-Serif" font-size="10.00">/Users/rkwright/Documents</text>
<text text-anchor="start" x="581.966" y="-101" font-family="Helvetica,sans-Serif" font-size="10.00">/github/readium&#45;sdk&#45;D/ePub3</text>
<text text-anchor="middle" x="647" y="-89" font-family="Helvetica,sans-Serif" font-size="10.00">/ePub/container.h</text>
</a>
</g>
</g>
<!-- Node2&#45;&gt;Node3 -->
<g id="edge2" class="edge"><title>Node2&#45;&gt;Node3</title>
<path fill="none" stroke="midnightblue" d="M986.582,-170.224C909.001,-155.551 794.538,-133.903 720.364,-119.875"/>
<polygon fill="midnightblue" stroke="midnightblue" points="986.326,-173.737 996.802,-172.156 987.627,-166.859 986.326,-173.737"/>
</g>
<!-- Node11 -->
<g id="node11" class="node"><title>Node11</title>
<g id="a_node11"><a xlink:href="content__module_8h.xhtml" target="_top" xlink:title="/Users/rkwright/Documents\l/github/readium&#45;sdk&#45;D/ePub3\l/ePub/content_module.h">
<polygon fill="white" stroke="black" points="996.966,-83 996.966,-127 1143.03,-127 1143.03,-83 996.966,-83"/>
<text text-anchor="start" x="1004.97" y="-113" font-family="Helvetica,sans-Serif" font-size="10.00">/Users/rkwright/Documents</text>
<text text-anchor="start" x="1004.97" y="-101" font-family="Helvetica,sans-Serif" font-size="10.00">/github/readium&#45;sdk&#45;D/ePub3</text>
<text text-anchor="middle" x="1070" y="-89" font-family="Helvetica,sans-Serif" font-size="10.00">/ePub/content_module.h</text>
</a>
</g>
</g>
<!-- Node2&#45;&gt;Node11 -->
<g id="edge10" class="edge"><title>Node2&#45;&gt;Node11</title>
<path fill="none" stroke="midnightblue" d="M1070,-154.896C1070,-145.609 1070,-135.649 1070,-127.156"/>
<polygon fill="midnightblue" stroke="midnightblue" points="1066.5,-154.981 1070,-164.981 1073.5,-154.981 1066.5,-154.981"/>
</g>
<!-- Node13 -->
<g id="node13" class="node"><title>Node13</title>
<g id="a_node13"><a xlink:href="future_8cpp.xhtml" target="_top" xlink:title="/Users/rkwright/Documents\l/github/readium&#45;sdk&#45;D/ePub3\l/utilities/future.cpp">
<polygon fill="white" stroke="black" points="1160.97,-83 1160.97,-127 1307.03,-127 1307.03,-83 1160.97,-83"/>
<text text-anchor="start" x="1168.97" y="-113" font-family="Helvetica,sans-Serif" font-size="10.00">/Users/rkwright/Documents</text>
<text text-anchor="start" x="1168.97" y="-101" font-family="Helvetica,sans-Serif" font-size="10.00">/github/readium&#45;sdk&#45;D/ePub3</text>
<text text-anchor="middle" x="1234" y="-89" font-family="Helvetica,sans-Serif" font-size="10.00">/utilities/future.cpp</text>
</a>
</g>
</g>
<!-- Node2&#45;&gt;Node13 -->
<g id="edge12" class="edge"><title>Node2&#45;&gt;Node13</title>
<path fill="none" stroke="midnightblue" d="M1122.34,-160.467C1144.46,-149.678 1169.91,-137.266 1190.91,-127.017"/>
<polygon fill="midnightblue" stroke="midnightblue" points="1120.54,-157.451 1113.09,-164.981 1123.61,-163.742 1120.54,-157.451"/>
</g>
<!-- Node4 -->
<g id="node4" class="node"><title>Node4</title>
<g id="a_node4"><a xlink:href="container_8cpp.xhtml" target="_top" xlink:title="/Users/rkwright/Documents\l/github/readium&#45;sdk&#45;D/ePub3\l/ePub/container.cpp">
<polygon fill="white" stroke="black" points="-0.0341797,-1 -0.0341797,-45 146.034,-45 146.034,-1 -0.0341797,-1"/>
<text text-anchor="start" x="7.96582" y="-31" font-family="Helvetica,sans-Serif" font-size="10.00">/Users/rkwright/Documents</text>
<text text-anchor="start" x="7.96582" y="-19" font-family="Helvetica,sans-Serif" font-size="10.00">/github/readium&#45;sdk&#45;D/ePub3</text>
<text text-anchor="middle" x="73" y="-7" font-family="Helvetica,sans-Serif" font-size="10.00">/ePub/container.cpp</text>
</a>
</g>
</g>
<!-- Node3&#45;&gt;Node4 -->
<g id="edge3" class="edge"><title>Node3&#45;&gt;Node4</title>
<path fill="none" stroke="midnightblue" d="M563.378,-97.8539C465.03,-89.7711 297.149,-73.2986 155,-46 152.105,-45.444 149.162,-44.8407 146.196,-44.2007"/>
<polygon fill="midnightblue" stroke="midnightblue" points="563.303,-101.359 573.554,-98.6807 563.87,-94.3823 563.303,-101.359"/>
</g>
<!-- Node5 -->
<g id="node5" class="node"><title>Node5</title>
<g id="a_node5"><a xlink:href="font__obfuscation_8cpp.xhtml" target="_top" xlink:title="/Users/rkwright/Documents\l/github/readium&#45;sdk&#45;D/ePub3\l/ePub/font_obfuscation.cpp">
<polygon fill="white" stroke="black" points="163.966,-1 163.966,-45 310.034,-45 310.034,-1 163.966,-1"/>
<text text-anchor="start" x="171.966" y="-31" font-family="Helvetica,sans-Serif" font-size="10.00">/Users/rkwright/Documents</text>
<text text-anchor="start" x="171.966" y="-19" font-family="Helvetica,sans-Serif" font-size="10.00">/github/readium&#45;sdk&#45;D/ePub3</text>
<text text-anchor="middle" x="237" y="-7" font-family="Helvetica,sans-Serif" font-size="10.00">/ePub/font_obfuscation.cpp</text>
</a>
</g>
</g>
<!-- Node3&#45;&gt;Node5 -->
<g id="edge4" class="edge"><title>Node3&#45;&gt;Node5</title>
<path fill="none" stroke="midnightblue" d="M563.673,-91.3217C497.14,-80.7046 401.691,-64.3672 319,-46 316.122,-45.3608 313.194,-44.6872 310.24,-43.9885"/>
<polygon fill="midnightblue" stroke="midnightblue" points="563.26,-94.7999 573.686,-92.911 564.358,-87.8864 563.26,-94.7999"/>
</g>
<!-- Node6 -->
<g id="node6" class="node"><title>Node6</title>
<g id="a_node6"><a xlink:href="e_pub_2library_8cpp.xhtml" target="_top" xlink:title="/Users/rkwright/Documents\l/github/readium&#45;sdk&#45;D/ePub3\l/ePub/library.cpp">
<polygon fill="white" stroke="black" points="327.966,-1 327.966,-45 474.034,-45 474.034,-1 327.966,-1"/>
<text text-anchor="start" x="335.966" y="-31" font-family="Helvetica,sans-Serif" font-size="10.00">/Users/rkwright/Documents</text>
<text text-anchor="start" x="335.966" y="-19" font-family="Helvetica,sans-Serif" font-size="10.00">/github/readium&#45;sdk&#45;D/ePub3</text>
<text text-anchor="middle" x="401" y="-7" font-family="Helvetica,sans-Serif" font-size="10.00">/ePub/library.cpp</text>
</a>
</g>
</g>
<!-- Node3&#45;&gt;Node6 -->
<g id="edge5" class="edge"><title>Node3&#45;&gt;Node6</title>
<path fill="none" stroke="midnightblue" d="M572.461,-79.7597C538.388,-68.6789 498.408,-55.6773 465.629,-45.0174"/>
<polygon fill="midnightblue" stroke="midnightblue" points="571.774,-83.2167 582.366,-82.9809 573.939,-76.5598 571.774,-83.2167"/>
</g>
<!-- Node7 -->
<g id="node7" class="node"><title>Node7</title>
<g id="a_node7"><a xlink:href="manifest_8cpp.xhtml" target="_top" xlink:title="/Users/rkwright/Documents\l/github/readium&#45;sdk&#45;D/ePub3\l/ePub/manifest.cpp">
<polygon fill="white" stroke="black" points="491.966,-1 491.966,-45 638.034,-45 638.034,-1 491.966,-1"/>
<text text-anchor="start" x="499.966" y="-31" font-family="Helvetica,sans-Serif" font-size="10.00">/Users/rkwright/Documents</text>
<text text-anchor="start" x="499.966" y="-19" font-family="Helvetica,sans-Serif" font-size="10.00">/github/readium&#45;sdk&#45;D/ePub3</text>
<text text-anchor="middle" x="565" y="-7" font-family="Helvetica,sans-Serif" font-size="10.00">/ePub/manifest.cpp</text>
</a>
</g>
</g>
<!-- Node3&#45;&gt;Node7 -->
<g id="edge6" class="edge"><title>Node3&#45;&gt;Node7</title>
<path fill="none" stroke="midnightblue" d="M618.163,-75.866C607.813,-65.7685 596.326,-54.5617 586.685,-45.1564"/>
<polygon fill="midnightblue" stroke="midnightblue" points="615.853,-78.5029 625.455,-82.9809 620.742,-73.4924 615.853,-78.5029"/>
</g>
<!-- Node8 -->
<g id="node8" class="node"><title>Node8</title>
<g id="a_node8"><a xlink:href="package_8cpp.xhtml" target="_top" xlink:title="/Users/rkwright/Documents\l/github/readium&#45;sdk&#45;D/ePub3\l/ePub/package.cpp">
<polygon fill="white" stroke="black" points="655.966,-1 655.966,-45 802.034,-45 802.034,-1 655.966,-1"/>
<text text-anchor="start" x="663.966" y="-31" font-family="Helvetica,sans-Serif" font-size="10.00">/Users/rkwright/Documents</text>
<text text-anchor="start" x="663.966" y="-19" font-family="Helvetica,sans-Serif" font-size="10.00">/github/readium&#45;sdk&#45;D/ePub3</text>
<text text-anchor="middle" x="729" y="-7" font-family="Helvetica,sans-Serif" font-size="10.00">/ePub/package.cpp</text>
</a>
</g>
</g>
<!-- Node3&#45;&gt;Node8 -->
<g id="edge7" class="edge"><title>Node3&#45;&gt;Node8</title>
<path fill="none" stroke="midnightblue" d="M675.837,-75.866C686.187,-65.7685 697.674,-54.5617 707.315,-45.1564"/>
<polygon fill="midnightblue" stroke="midnightblue" points="673.258,-73.4924 668.545,-82.9809 678.147,-78.5029 673.258,-73.4924"/>
</g>
<!-- Node9 -->
<g id="node9" class="node"><title>Node9</title>
<g id="a_node9"><a xlink:href="_pass_through_filter_8cpp.xhtml" target="_top" xlink:title="/Users/rkwright/Documents\l/github/readium&#45;sdk&#45;D/ePub3\l/ePub/PassThroughFilter.cpp">
<polygon fill="white" stroke="black" points="819.966,-1 819.966,-45 966.034,-45 966.034,-1 819.966,-1"/>
<text text-anchor="start" x="827.966" y="-31" font-family="Helvetica,sans-Serif" font-size="10.00">/Users/rkwright/Documents</text>
<text text-anchor="start" x="827.966" y="-19" font-family="Helvetica,sans-Serif" font-size="10.00">/github/readium&#45;sdk&#45;D/ePub3</text>
<text text-anchor="middle" x="893" y="-7" font-family="Helvetica,sans-Serif" font-size="10.00">/ePub/PassThroughFilter.cpp</text>
</a>
</g>
</g>
<!-- Node3&#45;&gt;Node9 -->
<g id="edge8" class="edge"><title>Node3&#45;&gt;Node9</title>
<path fill="none" stroke="midnightblue" d="M721.539,-79.7597C755.612,-68.6789 795.592,-55.6773 828.371,-45.0174"/>
<polygon fill="midnightblue" stroke="midnightblue" points="720.061,-76.5598 711.634,-82.9809 722.226,-83.2167 720.061,-76.5598"/>
</g>
<!-- Node10 -->
<g id="node10" class="node"><title>Node10</title>
<g id="a_node10"><a xlink:href="switch__preprocessor_8cpp.xhtml" target="_top" xlink:title="/Users/rkwright/Documents\l/github/readium&#45;sdk&#45;D/ePub3\l/ePub/switch_preprocessor.cpp">
<polygon fill="white" stroke="black" points="984.515,-1 984.515,-45 1139.48,-45 1139.48,-1 984.515,-1"/>
<text text-anchor="start" x="992.515" y="-31" font-family="Helvetica,sans-Serif" font-size="10.00">/Users/rkwright/Documents</text>
<text text-anchor="start" x="992.515" y="-19" font-family="Helvetica,sans-Serif" font-size="10.00">/github/readium&#45;sdk&#45;D/ePub3</text>
<text text-anchor="middle" x="1062" y="-7" font-family="Helvetica,sans-Serif" font-size="10.00">/ePub/switch_preprocessor.cpp</text>
</a>
</g>
</g>
<!-- Node3&#45;&gt;Node10 -->
<g id="edge9" class="edge"><title>Node3&#45;&gt;Node10</title>
<path fill="none" stroke="midnightblue" d="M730.255,-90.9936C796.749,-80.1935 892.178,-63.7698 975,-46 978.047,-45.3463 981.148,-44.6605 984.278,-43.9516"/>
<polygon fill="midnightblue" stroke="midnightblue" points="729.562,-87.5601 720.249,-92.6119 730.68,-94.4703 729.562,-87.5601"/>
</g>
<!-- Node12 -->
<g id="node12" class="node"><title>Node12</title>
<g id="a_node12"><a xlink:href="content__module__manager_8cpp.xhtml" target="_top" xlink:title="/Users/rkwright/Documents\l/github/readium&#45;sdk&#45;D/ePub3\l/ePub/content_module_manager.cpp">
<polygon fill="white" stroke="black" points="1157.27,-1 1157.27,-45 1336.73,-45 1336.73,-1 1157.27,-1"/>
<text text-anchor="start" x="1165.27" y="-31" font-family="Helvetica,sans-Serif" font-size="10.00">/Users/rkwright/Documents</text>
<text text-anchor="start" x="1165.27" y="-19" font-family="Helvetica,sans-Serif" font-size="10.00">/github/readium&#45;sdk&#45;D/ePub3</text>
<text text-anchor="middle" x="1247" y="-7" font-family="Helvetica,sans-Serif" font-size="10.00">/ePub/content_module_manager.cpp</text>
</a>
</g>
</g>
<!-- Node11&#45;&gt;Node12 -->
<g id="edge11" class="edge"><title>Node11&#45;&gt;Node12</title>
<path fill="none" stroke="midnightblue" d="M1125.85,-78.7559C1149.87,-67.8998 1177.62,-55.3571 1200.5,-45.0174"/>
<polygon fill="midnightblue" stroke="midnightblue" points="1124.18,-75.6729 1116.5,-82.9809 1127.06,-82.0516 1124.18,-75.6729"/>
</g>
</g>
</svg>
