<?xml version="1.0" encoding="UTF-8" standalone="no"?>
<!DOCTYPE svg PUBLIC "-//W3C//DTD SVG 1.1//EN"
 "http://www.w3.org/Graphics/SVG/1.1/DTD/svg11.dtd">
<!-- Generated by graphviz version 2.30.0 (20130114.0426)
 -->
<!-- Title: /Users/rkwright/Documents/github/readium&#45;sdk&#45;D/ePub3/utilities/condition_variable_any.h Pages: 1 -->
<svg width="272pt" height="228pt"
 viewBox="0.00 0.00 272.00 228.00" xmlns="http://www.w3.org/2000/svg" xmlns:xlink="http://www.w3.org/1999/xlink">
<g id="graph0" class="graph" transform="scale(1 1) rotate(0) translate(4 224)">
<title>/Users/rkwright/Documents/github/readium&#45;sdk&#45;D/ePub3/utilities/condition_variable_any.h</title>
<polygon fill="white" stroke="white" points="-4,5 -4,-224 269,-224 269,5 -4,5"/>
<!-- Node1 -->
<g id="node1" class="node"><title>Node1</title>
<polygon fill="#bfbfbf" stroke="black" points="46.9897,-175 46.9897,-219 209.01,-219 209.01,-175 46.9897,-175"/>
<text text-anchor="start" x="54.9897" y="-205" font-family="Helvetica,sans-Serif" font-size="10.00">/Users/rkwright/Documents</text>
<text text-anchor="start" x="54.9897" y="-193" font-family="Helvetica,sans-Serif" font-size="10.00">/github/readium&#45;sdk&#45;D/ePub3</text>
<text text-anchor="middle" x="128" y="-181" font-family="Helvetica,sans-Serif" font-size="10.00">/utilities/condition_variable_any.h</text>
</g>
<!-- Node2 -->
<g id="node2" class="node"><title>Node2</title>
<g id="a_node2"><a xlink:href="__config_8h.xhtml" target="_top" xlink:title="ePub3/_config.h">
<polygon fill="white" stroke="black" points="-0.140137,-117 -0.140137,-137 88.1401,-137 88.1401,-117 -0.140137,-117"/>
<text text-anchor="middle" x="44" y="-123" font-family="Helvetica,sans-Serif" font-size="10.00">ePub3/_config.h</text>
</a>
</g>
</g>
<!-- Node1&#45;&gt;Node2 -->
<g id="edge1" class="edge"><title>Node1&#45;&gt;Node2</title>
<path fill="none" stroke="midnightblue" d="M101.882,-174.857C89.4478,-164.791 74.8351,-152.962 63.403,-143.707"/>
<polygon fill="midnightblue" stroke="midnightblue" points="65.3442,-140.776 55.3696,-137.204 60.9398,-146.216 65.3442,-140.776"/>
</g>
<!-- Node5 -->
<g id="node5" class="node"><title>Node5</title>
<polygon fill="white" stroke="#bfbfbf" points="106.384,-117 106.384,-137 149.616,-137 149.616,-117 106.384,-117"/>
<text text-anchor="middle" x="128" y="-123" font-family="Helvetica,sans-Serif" font-size="10.00">mutex</text>
</g>
<!-- Node1&#45;&gt;Node5 -->
<g id="edge4" class="edge"><title>Node1&#45;&gt;Node5</title>
<path fill="none" stroke="midnightblue" d="M128,-174.857C128,-166.074 128,-155.948 128,-147.362"/>
<polygon fill="midnightblue" stroke="midnightblue" points="131.5,-147.204 128,-137.204 124.5,-147.204 131.5,-147.204"/>
</g>
<!-- Node6 -->
<g id="node6" class="node"><title>Node6</title>
<polygon fill="white" stroke="#bfbfbf" points="167.695,-117 167.695,-137 264.305,-137 264.305,-117 167.695,-117"/>
<text text-anchor="middle" x="216" y="-123" font-family="Helvetica,sans-Serif" font-size="10.00">condition_variable</text>
</g>
<!-- Node1&#45;&gt;Node6 -->
<g id="edge5" class="edge"><title>Node1&#45;&gt;Node6</title>
<path fill="none" stroke="midnightblue" d="M155.361,-174.857C168.516,-164.692 183.997,-152.73 196.024,-143.436"/>
<polygon fill="midnightblue" stroke="midnightblue" points="198.316,-146.088 204.089,-137.204 194.036,-140.549 198.316,-146.088"/>
</g>
<!-- Node3 -->
<g id="node3" class="node"><title>Node3</title>
<g id="a_node3"><a xlink:href="__platform_8h.xhtml" target="_top" xlink:title="_platform.h">
<polygon fill="white" stroke="black" points="10.9878,-59 10.9878,-79 77.0122,-79 77.0122,-59 10.9878,-59"/>
<text text-anchor="middle" x="44" y="-65" font-family="Helvetica,sans-Serif" font-size="10.00">_platform.h</text>
</a>
</g>
</g>
<!-- Node2&#45;&gt;Node3 -->
<g id="edge2" class="edge"><title>Node2&#45;&gt;Node3</title>
<path fill="none" stroke="midnightblue" d="M44,-116.753C44,-109.25 44,-98.4238 44,-89.0781"/>
<polygon fill="midnightblue" stroke="midnightblue" points="47.5001,-89.0752 44,-79.0752 40.5001,-89.0752 47.5001,-89.0752"/>
</g>
<!-- Node4 -->
<g id="node4" class="node"><title>Node4</title>
<g id="a_node4"><a xlink:href="__compiler_8h.xhtml" target="_top" xlink:title="_compiler.h">
<polygon fill="white" stroke="black" points="10.4287,-1 10.4287,-21 77.5713,-21 77.5713,-1 10.4287,-1"/>
<text text-anchor="middle" x="44" y="-7" font-family="Helvetica,sans-Serif" font-size="10.00">_compiler.h</text>
</a>
</g>
</g>
<!-- Node3&#45;&gt;Node4 -->
<g id="edge3" class="edge"><title>Node3&#45;&gt;Node4</title>
<path fill="none" stroke="midnightblue" d="M44,-58.7527C44,-51.2504 44,-40.4238 44,-31.0781"/>
<polygon fill="midnightblue" stroke="midnightblue" points="47.5001,-31.0752 44,-21.0752 40.5001,-31.0752 47.5001,-31.0752"/>
</g>
</g>
</svg>
