<?xml version="1.0" encoding="UTF-8" standalone="no"?>
<!DOCTYPE svg PUBLIC "-//W3C//DTD SVG 1.1//EN"
 "http://www.w3.org/Graphics/SVG/1.1/DTD/svg11.dtd">
<!-- Generated by graphviz version 2.30.0 (20130114.0426)
 -->
<!-- Title: /Users/rkwright/Documents/github/readium&#45;sdk&#45;D/ePub3/ePub/content_module.h Pages: 1 -->
<svg width="1148pt" height="472pt"
 viewBox="0.00 0.00 1148.00 472.00" xmlns="http://www.w3.org/2000/svg" xmlns:xlink="http://www.w3.org/1999/xlink">
<g id="graph0" class="graph" transform="scale(1 1) rotate(0) translate(4 468)">
<title>/Users/rkwright/Documents/github/readium&#45;sdk&#45;D/ePub3/ePub/content_module.h</title>
<polygon fill="white" stroke="white" points="-4,5 -4,-468 1145,-468 1145,5 -4,5"/>
<!-- Node1 -->
<g id="node1" class="node"><title>Node1</title>
<polygon fill="#bfbfbf" stroke="black" points="908.966,-419 908.966,-463 1055.03,-463 1055.03,-419 908.966,-419"/>
<text text-anchor="start" x="916.966" y="-449" font-family="Helvetica,sans-Serif" font-size="10.00">/Users/rkwright/Documents</text>
<text text-anchor="start" x="916.966" y="-437" font-family="Helvetica,sans-Serif" font-size="10.00">/github/readium&#45;sdk&#45;D/ePub3</text>
<text text-anchor="middle" x="982" y="-425" font-family="Helvetica,sans-Serif" font-size="10.00">/ePub/content_module.h</text>
</g>
<!-- Node2 -->
<g id="node2" class="node"><title>Node2</title>
<polygon fill="white" stroke="#bfbfbf" points="996.079,-233 996.079,-253 1079.92,-253 1079.92,-233 996.079,-233"/>
<text text-anchor="middle" x="1038" y="-239" font-family="Helvetica,sans-Serif" font-size="10.00">ePub3/epub3.h</text>
</g>
<!-- Node1&#45;&gt;Node2 -->
<g id="edge1" class="edge"><title>Node1&#45;&gt;Node2</title>
<path fill="none" stroke="midnightblue" d="M988.1,-418.651C999.095,-380.168 1022.07,-299.758 1032.56,-263.032"/>
<polygon fill="midnightblue" stroke="midnightblue" points="1036.01,-263.708 1035.39,-253.131 1029.28,-261.785 1036.01,-263.708"/>
</g>
<!-- Node3 -->
<g id="node3" class="node"><title>Node3</title>
<polygon fill="white" stroke="#bfbfbf" points="1033.13,-361 1033.13,-381 1140.87,-381 1140.87,-361 1033.13,-361"/>
<text text-anchor="middle" x="1087" y="-367" font-family="Helvetica,sans-Serif" font-size="10.00">ePub3/user_action.h</text>
</g>
<!-- Node1&#45;&gt;Node3 -->
<g id="edge2" class="edge"><title>Node1&#45;&gt;Node3</title>
<path fill="none" stroke="midnightblue" d="M1014.65,-418.857C1030.75,-408.431 1049.77,-396.113 1064.26,-386.724"/>
<polygon fill="midnightblue" stroke="midnightblue" points="1066.57,-389.4 1073.06,-381.027 1062.77,-383.525 1066.57,-389.4"/>
</g>
<!-- Node4 -->
<g id="node4" class="node"><title>Node4</title>
<g id="a_node4"><a xlink:href="future_8h.xhtml" target="_top" xlink:title="ePub3/utilities/future.h">
<polygon fill="white" stroke="black" points="333.525,-361 333.525,-381 448.475,-381 448.475,-361 333.525,-361"/>
<text text-anchor="middle" x="391" y="-367" font-family="Helvetica,sans-Serif" font-size="10.00">ePub3/utilities/future.h</text>
</a>
</g>
</g>
<!-- Node1&#45;&gt;Node4 -->
<g id="edge3" class="edge"><title>Node1&#45;&gt;Node4</title>
<path fill="none" stroke="midnightblue" d="M908.939,-431.594C793.638,-418.327 571.093,-392.721 459.013,-379.826"/>
<polygon fill="midnightblue" stroke="midnightblue" points="459.181,-376.322 448.846,-378.656 458.38,-383.276 459.181,-376.322"/>
</g>
<!-- Node16 -->
<g id="node16" class="node"><title>Node16</title>
<polygon fill="white" stroke="#bfbfbf" points="924.943,-297 924.943,-317 977.057,-317 977.057,-297 924.943,-297"/>
<text text-anchor="middle" x="951" y="-303" font-family="Helvetica,sans-Serif" font-size="10.00">memory</text>
</g>
<!-- Node1&#45;&gt;Node16 -->
<g id="edge36" class="edge"><title>Node1&#45;&gt;Node16</title>
<path fill="none" stroke="midnightblue" d="M977.019,-418.792C971.053,-393.386 961.149,-351.214 955.435,-326.886"/>
<polygon fill="midnightblue" stroke="midnightblue" points="958.828,-326.022 953.134,-317.088 952.013,-327.623 958.828,-326.022"/>
</g>
<!-- Node5 -->
<g id="node5" class="node"><title>Node5</title>
<g id="a_node5"><a xlink:href="base_8h.xhtml" target="_top" xlink:title="ePub3/base.h">
<polygon fill="white" stroke="black" points="366.141,-175 366.141,-195 443.859,-195 443.859,-175 366.141,-175"/>
<text text-anchor="middle" x="405" y="-181" font-family="Helvetica,sans-Serif" font-size="10.00">ePub3/base.h</text>
</a>
</g>
</g>
<!-- Node4&#45;&gt;Node5 -->
<g id="edge4" class="edge"><title>Node4&#45;&gt;Node5</title>
<path fill="none" stroke="midnightblue" d="M379.797,-360.953C368.95,-351.998 352.247,-337.682 339,-324 305.378,-289.273 253.398,-271.68 281,-232 297.859,-207.765 329.062,-196.27 355.948,-190.831"/>
<polygon fill="midnightblue" stroke="midnightblue" points="356.776,-194.239 366.002,-189.03 355.542,-187.349 356.776,-194.239"/>
</g>
<!-- Node10 -->
<g id="node10" class="node"><title>Node10</title>
<polygon fill="white" stroke="#bfbfbf" points="877.5,-297 877.5,-317 906.5,-317 906.5,-297 877.5,-297"/>
<text text-anchor="middle" x="891.611" y="-303" font-family="Helvetica,sans-Serif" font-size="10.00">list</text>
</g>
<!-- Node4&#45;&gt;Node10 -->
<g id="edge9" class="edge"><title>Node4&#45;&gt;Node10</title>
<path fill="none" stroke="midnightblue" d="M448.852,-367.941C558.453,-363.465 792.171,-351 868,-324 869.415,-323.496 870.828,-322.891 872.221,-322.214"/>
<polygon fill="midnightblue" stroke="midnightblue" points="874.098,-325.17 880.901,-317.048 870.518,-319.155 874.098,-325.17"/>
</g>
<!-- Node11 -->
<g id="node11" class="node"><title>Node11</title>
<polygon fill="white" stroke="#bfbfbf" points="-0.226562,-297 -0.226562,-317 40.2266,-317 40.2266,-297 -0.226562,-297"/>
<text text-anchor="middle" x="20" y="-303" font-family="Helvetica,sans-Serif" font-size="10.00">string</text>
</g>
<!-- Node4&#45;&gt;Node11 -->
<g id="edge10" class="edge"><title>Node4&#45;&gt;Node11</title>
<path fill="none" stroke="midnightblue" d="M333.52,-368.44C264.613,-365.172 146.366,-355.084 50,-324 47.8547,-323.308 45.6819,-322.466 43.5375,-321.535"/>
<polygon fill="midnightblue" stroke="midnightblue" points="45.0078,-318.358 34.492,-317.066 41.9071,-324.634 45.0078,-318.358"/>
</g>
<!-- Node12 -->
<g id="node12" class="node"><title>Node12</title>
<polygon fill="white" stroke="#bfbfbf" points="58.5986,-297 58.5986,-317 117.401,-317 117.401,-297 58.5986,-297"/>
<text text-anchor="middle" x="88" y="-303" font-family="Helvetica,sans-Serif" font-size="10.00">stdexcept</text>
</g>
<!-- Node4&#45;&gt;Node12 -->
<g id="edge11" class="edge"><title>Node4&#45;&gt;Node12</title>
<path fill="none" stroke="midnightblue" d="M333.283,-363.604C279.246,-356.76 196.621,-344.089 127,-324 123.836,-323.087 120.579,-322.001 117.36,-320.83"/>
<polygon fill="midnightblue" stroke="midnightblue" points="118.534,-317.531 107.946,-317.154 115.988,-324.052 118.534,-317.531"/>
</g>
<!-- Node13 -->
<g id="node13" class="node"><title>Node13</title>
<polygon fill="white" stroke="#bfbfbf" points="135.596,-297 135.596,-317 194.404,-317 194.404,-297 135.596,-297"/>
<text text-anchor="middle" x="165" y="-303" font-family="Helvetica,sans-Serif" font-size="10.00">exception</text>
</g>
<!-- Node4&#45;&gt;Node13 -->
<g id="edge12" class="edge"><title>Node4&#45;&gt;Node13</title>
<path fill="none" stroke="midnightblue" d="M346.272,-360.951C308.058,-352.757 251.837,-339.601 204,-324 201.034,-323.033 197.975,-321.944 194.935,-320.801"/>
<polygon fill="midnightblue" stroke="midnightblue" points="196.019,-317.466 185.432,-317.048 193.448,-323.977 196.019,-317.466"/>
</g>
<!-- Node14 -->
<g id="node14" class="node"><title>Node14</title>
<polygon fill="white" stroke="#bfbfbf" points="212.828,-297 212.828,-317 287.172,-317 287.172,-297 212.828,-297"/>
<text text-anchor="middle" x="250" y="-303" font-family="Helvetica,sans-Serif" font-size="10.00">system_error</text>
</g>
<!-- Node4&#45;&gt;Node14 -->
<g id="edge13" class="edge"><title>Node4&#45;&gt;Node14</title>
<path fill="none" stroke="midnightblue" d="M370.497,-360.985C346.689,-350.516 307.206,-333.154 279.96,-321.174"/>
<polygon fill="midnightblue" stroke="midnightblue" points="281.09,-317.848 270.527,-317.026 278.273,-324.255 281.09,-317.848"/>
</g>
<!-- Node15 -->
<g id="node15" class="node"><title>Node15</title>
<polygon fill="white" stroke="#bfbfbf" points="289.823,-233 289.823,-253 334.177,-253 334.177,-233 289.823,-233"/>
<text text-anchor="middle" x="312" y="-239" font-family="Helvetica,sans-Serif" font-size="10.00">thread</text>
</g>
<!-- Node4&#45;&gt;Node15 -->
<g id="edge14" class="edge"><title>Node4&#45;&gt;Node15</title>
<path fill="none" stroke="midnightblue" d="M385.319,-360.938C372.343,-340.243 340.336,-289.194 323.22,-261.896"/>
<polygon fill="midnightblue" stroke="midnightblue" points="326.121,-259.933 317.843,-253.319 320.19,-263.651 326.121,-259.933"/>
</g>
<!-- Node4&#45;&gt;Node16 -->
<g id="edge15" class="edge"><title>Node4&#45;&gt;Node16</title>
<path fill="none" stroke="midnightblue" d="M448.683,-367.339C565.891,-361.538 828.13,-346.449 915,-324 918.179,-323.179 921.431,-322.103 924.617,-320.897"/>
<polygon fill="midnightblue" stroke="midnightblue" points="925.983,-324.119 933.84,-317.012 923.266,-317.668 925.983,-324.119"/>
</g>
<!-- Node17 -->
<g id="node17" class="node"><title>Node17</title>
<polygon fill="white" stroke="#bfbfbf" points="352.273,-233 352.273,-253 397.727,-253 397.727,-233 352.273,-233"/>
<text text-anchor="middle" x="375" y="-239" font-family="Helvetica,sans-Serif" font-size="10.00">atomic</text>
</g>
<!-- Node4&#45;&gt;Node17 -->
<g id="edge16" class="edge"><title>Node4&#45;&gt;Node17</title>
<path fill="none" stroke="midnightblue" d="M389.849,-360.938C387.267,-340.605 380.964,-290.968 377.457,-263.348"/>
<polygon fill="midnightblue" stroke="midnightblue" points="380.915,-262.799 376.183,-253.319 373.971,-263.681 380.915,-262.799"/>
</g>
<!-- Node18 -->
<g id="node18" class="node"><title>Node18</title>
<g id="a_node18"><a xlink:href="invoke_8h.xhtml" target="_top" xlink:title="ePub3/utilities/invoke.h">
<polygon fill="white" stroke="black" points="415.857,-233 415.857,-253 534.143,-253 534.143,-233 415.857,-233"/>
<text text-anchor="middle" x="475" y="-239" font-family="Helvetica,sans-Serif" font-size="10.00">ePub3/utilities/invoke.h</text>
</a>
</g>
</g>
<!-- Node4&#45;&gt;Node18 -->
<g id="edge17" class="edge"><title>Node4&#45;&gt;Node18</title>
<path fill="none" stroke="midnightblue" d="M397.041,-360.938C410.838,-340.243 444.871,-289.194 463.069,-261.896"/>
<polygon fill="midnightblue" stroke="midnightblue" points="466.152,-263.581 468.787,-253.319 460.328,-259.699 466.152,-263.581"/>
</g>
<!-- Node21 -->
<g id="node21" class="node"><title>Node21</title>
<g id="a_node21"><a xlink:href="executor_8h.xhtml" target="_top" xlink:title="ePub3/utilities/executor.h">
<polygon fill="white" stroke="black" points="562.407,-297 562.407,-317 689.593,-317 689.593,-297 562.407,-297"/>
<text text-anchor="middle" x="626" y="-303" font-family="Helvetica,sans-Serif" font-size="10.00">ePub3/utilities/executor.h</text>
</a>
</g>
</g>
<!-- Node4&#45;&gt;Node21 -->
<g id="edge21" class="edge"><title>Node4&#45;&gt;Node21</title>
<path fill="none" stroke="midnightblue" d="M425.171,-360.985C466.593,-350.056 536.479,-331.618 581.92,-319.63"/>
<polygon fill="midnightblue" stroke="midnightblue" points="583.011,-322.961 591.788,-317.026 581.226,-316.193 583.011,-322.961"/>
</g>
<!-- Node27 -->
<g id="node27" class="node"><title>Node27</title>
<g id="a_node27"><a xlink:href="condition__variable__any_8h.xhtml" target="_top" xlink:title="ePub3/utilities/condition\l_variable_any.h">
<polygon fill="white" stroke="black" points="738.466,-291 738.466,-323 859.534,-323 859.534,-291 738.466,-291"/>
<text text-anchor="start" x="746.466" y="-309" font-family="Helvetica,sans-Serif" font-size="10.00">ePub3/utilities/condition</text>
<text text-anchor="middle" x="799" y="-297" font-family="Helvetica,sans-Serif" font-size="10.00">_variable_any.h</text>
</a>
</g>
</g>
<!-- Node4&#45;&gt;Node27 -->
<g id="edge32" class="edge"><title>Node4&#45;&gt;Node27</title>
<path fill="none" stroke="midnightblue" d="M448.736,-361.496C510.458,-352.371 611.179,-337.381 698,-324 707.804,-322.489 718.14,-320.875 728.308,-319.276"/>
<polygon fill="midnightblue" stroke="midnightblue" points="729.062,-322.7 738.395,-317.685 727.972,-315.786 729.062,-322.7"/>
</g>
<!-- Node6 -->
<g id="node6" class="node"><title>Node6</title>
<g id="a_node6"><a xlink:href="__config_8h.xhtml" target="_top" xlink:title="_config.h">
<polygon fill="white" stroke="black" points="692.707,-117 692.707,-137 749.293,-137 749.293,-117 692.707,-117"/>
<text text-anchor="middle" x="721" y="-123" font-family="Helvetica,sans-Serif" font-size="10.00">_config.h</text>
</a>
</g>
</g>
<!-- Node5&#45;&gt;Node6 -->
<g id="edge5" class="edge"><title>Node5&#45;&gt;Node6</title>
<path fill="none" stroke="midnightblue" d="M444.01,-175.753C447.049,-175.147 450.073,-174.556 453,-174 534.356,-158.548 630.05,-142.674 682.235,-134.211"/>
<polygon fill="midnightblue" stroke="midnightblue" points="683.07,-137.622 692.383,-132.57 681.952,-130.712 683.07,-137.622"/>
</g>
<!-- Node9 -->
<g id="node9" class="node"><title>Node9</title>
<polygon fill="white" stroke="#bfbfbf" points="381.158,-117 381.158,-137 428.842,-137 428.842,-117 381.158,-117"/>
<text text-anchor="middle" x="405" y="-123" font-family="Helvetica,sans-Serif" font-size="10.00">stdlib.h</text>
</g>
<!-- Node5&#45;&gt;Node9 -->
<g id="edge8" class="edge"><title>Node5&#45;&gt;Node9</title>
<path fill="none" stroke="midnightblue" d="M405,-174.753C405,-167.25 405,-156.424 405,-147.078"/>
<polygon fill="midnightblue" stroke="midnightblue" points="408.5,-147.075 405,-137.075 401.5,-147.075 408.5,-147.075"/>
</g>
<!-- Node7 -->
<g id="node7" class="node"><title>Node7</title>
<g id="a_node7"><a xlink:href="__platform_8h.xhtml" target="_top" xlink:title="_platform.h">
<polygon fill="white" stroke="black" points="687.988,-59 687.988,-79 754.012,-79 754.012,-59 687.988,-59"/>
<text text-anchor="middle" x="721" y="-65" font-family="Helvetica,sans-Serif" font-size="10.00">_platform.h</text>
</a>
</g>
</g>
<!-- Node6&#45;&gt;Node7 -->
<g id="edge6" class="edge"><title>Node6&#45;&gt;Node7</title>
<path fill="none" stroke="midnightblue" d="M721,-116.753C721,-109.25 721,-98.4238 721,-89.0781"/>
<polygon fill="midnightblue" stroke="midnightblue" points="724.5,-89.0752 721,-79.0752 717.5,-89.0752 724.5,-89.0752"/>
</g>
<!-- Node8 -->
<g id="node8" class="node"><title>Node8</title>
<g id="a_node8"><a xlink:href="__compiler_8h.xhtml" target="_top" xlink:title="_compiler.h">
<polygon fill="white" stroke="black" points="687.429,-1 687.429,-21 754.571,-21 754.571,-1 687.429,-1"/>
<text text-anchor="middle" x="721" y="-7" font-family="Helvetica,sans-Serif" font-size="10.00">_compiler.h</text>
</a>
</g>
</g>
<!-- Node7&#45;&gt;Node8 -->
<g id="edge7" class="edge"><title>Node7&#45;&gt;Node8</title>
<path fill="none" stroke="midnightblue" d="M721,-58.7527C721,-51.2504 721,-40.4238 721,-31.0781"/>
<polygon fill="midnightblue" stroke="midnightblue" points="724.5,-31.0752 721,-21.0752 717.5,-31.0752 724.5,-31.0752"/>
</g>
<!-- Node18&#45;&gt;Node5 -->
<g id="edge18" class="edge"><title>Node18&#45;&gt;Node5</title>
<path fill="none" stroke="midnightblue" d="M463.441,-232.753C452.84,-224.272 436.929,-211.543 424.384,-201.507"/>
<polygon fill="midnightblue" stroke="midnightblue" points="426.339,-198.589 416.344,-195.075 421.966,-204.055 426.339,-198.589"/>
</g>
<!-- Node19 -->
<g id="node19" class="node"><title>Node19</title>
<polygon fill="white" stroke="#bfbfbf" points="461.934,-175 461.934,-195 524.066,-195 524.066,-175 461.934,-175"/>
<text text-anchor="middle" x="493" y="-181" font-family="Helvetica,sans-Serif" font-size="10.00">type_traits</text>
</g>
<!-- Node18&#45;&gt;Node19 -->
<g id="edge19" class="edge"><title>Node18&#45;&gt;Node19</title>
<path fill="none" stroke="midnightblue" d="M477.972,-232.753C480.41,-225.169 483.94,-214.188 486.966,-204.774"/>
<polygon fill="midnightblue" stroke="midnightblue" points="490.355,-205.667 490.083,-195.075 483.691,-203.524 490.355,-205.667"/>
</g>
<!-- Node20 -->
<g id="node20" class="node"><title>Node20</title>
<polygon fill="white" stroke="#bfbfbf" points="560.596,-175 560.596,-195 619.404,-195 619.404,-175 560.596,-175"/>
<text text-anchor="middle" x="590" y="-181" font-family="Helvetica,sans-Serif" font-size="10.00">functional</text>
</g>
<!-- Node18&#45;&gt;Node20 -->
<g id="edge20" class="edge"><title>Node18&#45;&gt;Node20</title>
<path fill="none" stroke="midnightblue" d="M493.733,-232.878C512.277,-223.847 540.893,-209.913 562.11,-199.581"/>
<polygon fill="midnightblue" stroke="midnightblue" points="563.817,-202.643 571.275,-195.118 560.752,-196.349 563.817,-202.643"/>
</g>
<!-- Node21&#45;&gt;Node2 -->
<g id="edge22" class="edge"><title>Node21&#45;&gt;Node2</title>
<path fill="none" stroke="midnightblue" d="M683.735,-296.966C698.49,-294.675 714.33,-292.231 729,-290 819.225,-276.277 924.338,-260.72 985.789,-251.67"/>
<polygon fill="midnightblue" stroke="midnightblue" points="986.621,-255.085 996.004,-250.166 985.601,-248.16 986.621,-255.085"/>
</g>
<!-- Node21&#45;&gt;Node20 -->
<g id="edge23" class="edge"><title>Node21&#45;&gt;Node20</title>
<path fill="none" stroke="midnightblue" d="M623.959,-296.801C620.763,-282.724 614.195,-255.043 607,-232 604.145,-222.857 600.516,-212.866 597.345,-204.539"/>
<polygon fill="midnightblue" stroke="midnightblue" points="600.55,-203.123 593.666,-195.069 594.025,-205.658 600.55,-203.123"/>
</g>
<!-- Node22 -->
<g id="node22" class="node"><title>Node22</title>
<polygon fill="white" stroke="#bfbfbf" points="551.712,-233 551.712,-253 598.288,-253 598.288,-233 551.712,-233"/>
<text text-anchor="middle" x="575" y="-239" font-family="Helvetica,sans-Serif" font-size="10.00">chrono</text>
</g>
<!-- Node21&#45;&gt;Node22 -->
<g id="edge24" class="edge"><title>Node21&#45;&gt;Node22</title>
<path fill="none" stroke="midnightblue" d="M618.475,-296.852C610.791,-287.511 598.677,-272.784 589.186,-261.246"/>
<polygon fill="midnightblue" stroke="midnightblue" points="591.612,-258.685 582.556,-253.186 586.206,-263.132 591.612,-258.685"/>
</g>
<!-- Node23 -->
<g id="node23" class="node"><title>Node23</title>
<polygon fill="white" stroke="#bfbfbf" points="654.096,-233 654.096,-253 697.904,-253 697.904,-233 654.096,-233"/>
<text text-anchor="middle" x="676" y="-239" font-family="Helvetica,sans-Serif" font-size="10.00">queue</text>
</g>
<!-- Node21&#45;&gt;Node23 -->
<g id="edge25" class="edge"><title>Node21&#45;&gt;Node23</title>
<path fill="none" stroke="midnightblue" d="M633.378,-296.852C640.911,-287.511 652.787,-272.784 662.092,-261.246"/>
<polygon fill="midnightblue" stroke="midnightblue" points="665.039,-263.167 668.592,-253.186 659.59,-258.773 665.039,-263.167"/>
</g>
<!-- Node21&#45;&gt;Node17 -->
<g id="edge26" class="edge"><title>Node21&#45;&gt;Node17</title>
<path fill="none" stroke="midnightblue" d="M584.204,-296.987C542.045,-287.693 474.9,-272.34 407.897,-254.113"/>
<polygon fill="midnightblue" stroke="midnightblue" points="408.585,-250.672 398.015,-251.403 406.734,-257.423 408.585,-250.672"/>
</g>
<!-- Node24 -->
<g id="node24" class="node"><title>Node24</title>
<polygon fill="white" stroke="#bfbfbf" points="896.384,-233 896.384,-253 939.616,-253 939.616,-233 896.384,-233"/>
<text text-anchor="middle" x="918" y="-239" font-family="Helvetica,sans-Serif" font-size="10.00">mutex</text>
</g>
<!-- Node21&#45;&gt;Node24 -->
<g id="edge27" class="edge"><title>Node21&#45;&gt;Node24</title>
<path fill="none" stroke="midnightblue" d="M680.905,-296.961C731.833,-288.15 809.848,-273.568 886.28,-253.961"/>
<polygon fill="midnightblue" stroke="midnightblue" points="887.277,-257.318 896.076,-251.418 885.518,-250.543 887.277,-257.318"/>
</g>
<!-- Node21&#45;&gt;Node15 -->
<g id="edge28" class="edge"><title>Node21&#45;&gt;Node15</title>
<path fill="none" stroke="midnightblue" d="M563.947,-296.984C508.526,-288.391 425.037,-274.122 344.105,-254.039"/>
<polygon fill="midnightblue" stroke="midnightblue" points="344.802,-250.605 334.25,-251.561 343.095,-257.394 344.802,-250.605"/>
</g>
<!-- Node25 -->
<g id="node25" class="node"><title>Node25</title>
<polygon fill="white" stroke="#bfbfbf" points="715.884,-233 715.884,-253 764.116,-253 764.116,-233 715.884,-233"/>
<text text-anchor="middle" x="740" y="-239" font-family="Helvetica,sans-Serif" font-size="10.00">cassert</text>
</g>
<!-- Node21&#45;&gt;Node25 -->
<g id="edge29" class="edge"><title>Node21&#45;&gt;Node25</title>
<path fill="none" stroke="midnightblue" d="M642.821,-296.852C661.596,-286.641 692.205,-269.994 714.053,-258.112"/>
<polygon fill="midnightblue" stroke="midnightblue" points="715.997,-261.038 723.11,-253.186 712.653,-254.889 715.997,-261.038"/>
</g>
<!-- Node26 -->
<g id="node26" class="node"><title>Node26</title>
<polygon fill="white" stroke="#bfbfbf" points="781.695,-233 781.695,-253 878.305,-253 878.305,-233 781.695,-233"/>
<text text-anchor="middle" x="830" y="-239" font-family="Helvetica,sans-Serif" font-size="10.00">condition_variable</text>
</g>
<!-- Node21&#45;&gt;Node26 -->
<g id="edge30" class="edge"><title>Node21&#45;&gt;Node26</title>
<path fill="none" stroke="midnightblue" d="M655.663,-296.985C691.243,-286.171 751.016,-268.005 790.485,-256.01"/>
<polygon fill="midnightblue" stroke="midnightblue" points="791.751,-259.283 800.301,-253.026 789.715,-252.585 791.751,-259.283"/>
</g>
<!-- Node21&#45;&gt;Node18 -->
<g id="edge31" class="edge"><title>Node21&#45;&gt;Node18</title>
<path fill="none" stroke="midnightblue" d="M604.043,-296.985C578.322,-286.424 535.52,-268.849 506.32,-256.86"/>
<polygon fill="midnightblue" stroke="midnightblue" points="507.563,-253.587 496.983,-253.026 504.904,-260.062 507.563,-253.587"/>
</g>
<!-- Node27&#45;&gt;Node6 -->
<g id="edge33" class="edge"><title>Node27&#45;&gt;Node6</title>
<path fill="none" stroke="midnightblue" d="M859.816,-292.342C896.139,-282.816 937.252,-269.134 948,-254 953.661,-246.028 953.281,-240.229 948,-232 906.294,-167.017 812.726,-142.114 759.66,-132.976"/>
<polygon fill="midnightblue" stroke="midnightblue" points="760.044,-129.493 749.614,-131.352 758.927,-136.403 760.044,-129.493"/>
</g>
<!-- Node27&#45;&gt;Node24 -->
<g id="edge34" class="edge"><title>Node27&#45;&gt;Node24</title>
<path fill="none" stroke="midnightblue" d="M827.807,-290.992C847.225,-280.874 872.65,-267.628 891.554,-257.778"/>
<polygon fill="midnightblue" stroke="midnightblue" points="893.266,-260.833 900.517,-253.109 890.031,-254.625 893.266,-260.833"/>
</g>
<!-- Node27&#45;&gt;Node26 -->
<g id="edge35" class="edge"><title>Node27&#45;&gt;Node26</title>
<path fill="none" stroke="midnightblue" d="M806.504,-290.992C810.82,-282.359 816.276,-271.448 820.843,-262.314"/>
<polygon fill="midnightblue" stroke="midnightblue" points="824.013,-263.8 825.355,-253.29 817.752,-260.669 824.013,-263.8"/>
</g>
</g>
</svg>
