<?xml version="1.0" encoding="UTF-8" standalone="no"?>
<!DOCTYPE svg PUBLIC "-//W3C//DTD SVG 1.1//EN"
 "http://www.w3.org/Graphics/SVG/1.1/DTD/svg11.dtd">
<!-- Generated by graphviz version 2.30.0 (20130114.0426)
 -->
<!-- Title: /Users/rkwright/Documents/github/readium&#45;sdk&#45;D/ePub3/ePub/container.h Pages: 1 -->
<svg width="1147pt" height="136pt"
 viewBox="0.00 0.00 1147.00 136.00" xmlns="http://www.w3.org/2000/svg" xmlns:xlink="http://www.w3.org/1999/xlink">
<g id="graph0" class="graph" transform="scale(1 1) rotate(0) translate(4 132)">
<title>/Users/rkwright/Documents/github/readium&#45;sdk&#45;D/ePub3/ePub/container.h</title>
<polygon fill="white" stroke="white" points="-4,5 -4,-132 1144,-132 1144,5 -4,5"/>
<!-- Node1 -->
<g id="node1" class="node"><title>Node1</title>
<polygon fill="#bfbfbf" stroke="black" points="491.966,-83 491.966,-127 638.034,-127 638.034,-83 491.966,-83"/>
<text text-anchor="start" x="499.966" y="-113" font-family="Helvetica,sans-Serif" font-size="10.00">/Users/rkwright/Documents</text>
<text text-anchor="start" x="499.966" y="-101" font-family="Helvetica,sans-Serif" font-size="10.00">/github/readium&#45;sdk&#45;D/ePub3</text>
<text text-anchor="middle" x="565" y="-89" font-family="Helvetica,sans-Serif" font-size="10.00">/ePub/container.h</text>
</g>
<!-- Node2 -->
<g id="node2" class="node"><title>Node2</title>
<g id="a_node2"><a xlink:href="container_8cpp.xhtml" target="_top" xlink:title="/Users/rkwright/Documents\l/github/readium&#45;sdk&#45;D/ePub3\l/ePub/container.cpp">
<polygon fill="white" stroke="black" points="-0.0341797,-1 -0.0341797,-45 146.034,-45 146.034,-1 -0.0341797,-1"/>
<text text-anchor="start" x="7.96582" y="-31" font-family="Helvetica,sans-Serif" font-size="10.00">/Users/rkwright/Documents</text>
<text text-anchor="start" x="7.96582" y="-19" font-family="Helvetica,sans-Serif" font-size="10.00">/github/readium&#45;sdk&#45;D/ePub3</text>
<text text-anchor="middle" x="73" y="-7" font-family="Helvetica,sans-Serif" font-size="10.00">/ePub/container.cpp</text>
</a>
</g>
</g>
<!-- Node1&#45;&gt;Node2 -->
<g id="edge1" class="edge"><title>Node1&#45;&gt;Node2</title>
<path fill="none" stroke="midnightblue" d="M481.808,-95.2371C398.615,-85.7702 267.244,-68.908 155,-46 152.112,-45.4105 149.174,-44.7789 146.213,-44.1152"/>
<polygon fill="midnightblue" stroke="midnightblue" points="481.632,-98.7394 491.962,-96.383 482.418,-91.7835 481.632,-98.7394"/>
</g>
<!-- Node3 -->
<g id="node3" class="node"><title>Node3</title>
<g id="a_node3"><a xlink:href="font__obfuscation_8cpp.xhtml" target="_top" xlink:title="/Users/rkwright/Documents\l/github/readium&#45;sdk&#45;D/ePub3\l/ePub/font_obfuscation.cpp">
<polygon fill="white" stroke="black" points="163.966,-1 163.966,-45 310.034,-45 310.034,-1 163.966,-1"/>
<text text-anchor="start" x="171.966" y="-31" font-family="Helvetica,sans-Serif" font-size="10.00">/Users/rkwright/Documents</text>
<text text-anchor="start" x="171.966" y="-19" font-family="Helvetica,sans-Serif" font-size="10.00">/github/readium&#45;sdk&#45;D/ePub3</text>
<text text-anchor="middle" x="237" y="-7" font-family="Helvetica,sans-Serif" font-size="10.00">/ePub/font_obfuscation.cpp</text>
</a>
</g>
</g>
<!-- Node1&#45;&gt;Node3 -->
<g id="edge2" class="edge"><title>Node1&#45;&gt;Node3</title>
<path fill="none" stroke="midnightblue" d="M481.95,-85.0849C434.197,-74.0424 373.124,-59.6376 319,-46 316.141,-45.2797 313.229,-44.5377 310.289,-43.7818"/>
<polygon fill="midnightblue" stroke="midnightblue" points="481.4,-88.5499 491.931,-87.3888 482.975,-81.7292 481.4,-88.5499"/>
</g>
<!-- Node4 -->
<g id="node4" class="node"><title>Node4</title>
<g id="a_node4"><a xlink:href="e_pub_2library_8cpp.xhtml" target="_top" xlink:title="/Users/rkwright/Documents\l/github/readium&#45;sdk&#45;D/ePub3\l/ePub/library.cpp">
<polygon fill="white" stroke="black" points="327.966,-1 327.966,-45 474.034,-45 474.034,-1 327.966,-1"/>
<text text-anchor="start" x="335.966" y="-31" font-family="Helvetica,sans-Serif" font-size="10.00">/Users/rkwright/Documents</text>
<text text-anchor="start" x="335.966" y="-19" font-family="Helvetica,sans-Serif" font-size="10.00">/github/readium&#45;sdk&#45;D/ePub3</text>
<text text-anchor="middle" x="401" y="-7" font-family="Helvetica,sans-Serif" font-size="10.00">/ePub/library.cpp</text>
</a>
</g>
</g>
<!-- Node1&#45;&gt;Node4 -->
<g id="edge3" class="edge"><title>Node1&#45;&gt;Node4</title>
<path fill="none" stroke="midnightblue" d="M512.658,-78.4673C490.54,-67.678 465.094,-55.2656 444.086,-45.0174"/>
<polygon fill="midnightblue" stroke="midnightblue" points="511.389,-81.7423 521.911,-82.9809 514.458,-75.451 511.389,-81.7423"/>
</g>
<!-- Node5 -->
<g id="node5" class="node"><title>Node5</title>
<g id="a_node5"><a xlink:href="manifest_8cpp.xhtml" target="_top" xlink:title="/Users/rkwright/Documents\l/github/readium&#45;sdk&#45;D/ePub3\l/ePub/manifest.cpp">
<polygon fill="white" stroke="black" points="491.966,-1 491.966,-45 638.034,-45 638.034,-1 491.966,-1"/>
<text text-anchor="start" x="499.966" y="-31" font-family="Helvetica,sans-Serif" font-size="10.00">/Users/rkwright/Documents</text>
<text text-anchor="start" x="499.966" y="-19" font-family="Helvetica,sans-Serif" font-size="10.00">/github/readium&#45;sdk&#45;D/ePub3</text>
<text text-anchor="middle" x="565" y="-7" font-family="Helvetica,sans-Serif" font-size="10.00">/ePub/manifest.cpp</text>
</a>
</g>
</g>
<!-- Node1&#45;&gt;Node5 -->
<g id="edge4" class="edge"><title>Node1&#45;&gt;Node5</title>
<path fill="none" stroke="midnightblue" d="M565,-72.8963C565,-63.6094 565,-53.6485 565,-45.1564"/>
<polygon fill="midnightblue" stroke="midnightblue" points="561.5,-72.9809 565,-82.9809 568.5,-72.981 561.5,-72.9809"/>
</g>
<!-- Node6 -->
<g id="node6" class="node"><title>Node6</title>
<g id="a_node6"><a xlink:href="package_8cpp.xhtml" target="_top" xlink:title="/Users/rkwright/Documents\l/github/readium&#45;sdk&#45;D/ePub3\l/ePub/package.cpp">
<polygon fill="white" stroke="black" points="655.966,-1 655.966,-45 802.034,-45 802.034,-1 655.966,-1"/>
<text text-anchor="start" x="663.966" y="-31" font-family="Helvetica,sans-Serif" font-size="10.00">/Users/rkwright/Documents</text>
<text text-anchor="start" x="663.966" y="-19" font-family="Helvetica,sans-Serif" font-size="10.00">/github/readium&#45;sdk&#45;D/ePub3</text>
<text text-anchor="middle" x="729" y="-7" font-family="Helvetica,sans-Serif" font-size="10.00">/ePub/package.cpp</text>
</a>
</g>
</g>
<!-- Node1&#45;&gt;Node6 -->
<g id="edge5" class="edge"><title>Node1&#45;&gt;Node6</title>
<path fill="none" stroke="midnightblue" d="M617.342,-78.4673C639.46,-67.678 664.906,-55.2656 685.914,-45.0174"/>
<polygon fill="midnightblue" stroke="midnightblue" points="615.542,-75.451 608.089,-82.9809 618.611,-81.7423 615.542,-75.451"/>
</g>
<!-- Node7 -->
<g id="node7" class="node"><title>Node7</title>
<g id="a_node7"><a xlink:href="_pass_through_filter_8cpp.xhtml" target="_top" xlink:title="/Users/rkwright/Documents\l/github/readium&#45;sdk&#45;D/ePub3\l/ePub/PassThroughFilter.cpp">
<polygon fill="white" stroke="black" points="819.966,-1 819.966,-45 966.034,-45 966.034,-1 819.966,-1"/>
<text text-anchor="start" x="827.966" y="-31" font-family="Helvetica,sans-Serif" font-size="10.00">/Users/rkwright/Documents</text>
<text text-anchor="start" x="827.966" y="-19" font-family="Helvetica,sans-Serif" font-size="10.00">/github/readium&#45;sdk&#45;D/ePub3</text>
<text text-anchor="middle" x="893" y="-7" font-family="Helvetica,sans-Serif" font-size="10.00">/ePub/PassThroughFilter.cpp</text>
</a>
</g>
</g>
<!-- Node1&#45;&gt;Node7 -->
<g id="edge6" class="edge"><title>Node1&#45;&gt;Node7</title>
<path fill="none" stroke="midnightblue" d="M648.05,-85.0849C695.803,-74.0424 756.876,-59.6376 811,-46 813.859,-45.2797 816.771,-44.5377 819.711,-43.7818"/>
<polygon fill="midnightblue" stroke="midnightblue" points="647.025,-81.7292 638.069,-87.3888 648.6,-88.5499 647.025,-81.7292"/>
</g>
<!-- Node8 -->
<g id="node8" class="node"><title>Node8</title>
<g id="a_node8"><a xlink:href="switch__preprocessor_8cpp.xhtml" target="_top" xlink:title="/Users/rkwright/Documents\l/github/readium&#45;sdk&#45;D/ePub3\l/ePub/switch_preprocessor.cpp">
<polygon fill="white" stroke="black" points="984.515,-1 984.515,-45 1139.48,-45 1139.48,-1 984.515,-1"/>
<text text-anchor="start" x="992.515" y="-31" font-family="Helvetica,sans-Serif" font-size="10.00">/Users/rkwright/Documents</text>
<text text-anchor="start" x="992.515" y="-19" font-family="Helvetica,sans-Serif" font-size="10.00">/github/readium&#45;sdk&#45;D/ePub3</text>
<text text-anchor="middle" x="1062" y="-7" font-family="Helvetica,sans-Serif" font-size="10.00">/ePub/switch_preprocessor.cpp</text>
</a>
</g>
</g>
<!-- Node1&#45;&gt;Node8 -->
<g id="edge7" class="edge"><title>Node1&#45;&gt;Node8</title>
<path fill="none" stroke="midnightblue" d="M648.498,-94.8463C731.658,-85.1065 862.763,-68.0638 975,-46 978.057,-45.399 981.168,-44.7576 984.305,-44.0858"/>
<polygon fill="midnightblue" stroke="midnightblue" points="647.876,-91.395 638.348,-96.0268 648.685,-98.3481 647.876,-91.395"/>
</g>
</g>
</svg>
