<?xml version="1.0" encoding="UTF-8" standalone="no"?>
<!DOCTYPE svg PUBLIC "-//W3C//DTD SVG 1.1//EN"
 "http://www.w3.org/Graphics/SVG/1.1/DTD/svg11.dtd">
<!-- Generated by graphviz version 2.30.0 (20130114.0426)
 -->
<!-- Title: /Users/rkwright/Documents/github/readium&#45;sdk&#45;D/ePub3/ePub/content_handler.h Pages: 1 -->
<svg width="1254pt" height="530pt"
 viewBox="0.00 0.00 1254.00 530.00" xmlns="http://www.w3.org/2000/svg" xmlns:xlink="http://www.w3.org/1999/xlink">
<g id="graph0" class="graph" transform="scale(1 1) rotate(0) translate(4 526)">
<title>/Users/rkwright/Documents/github/readium&#45;sdk&#45;D/ePub3/ePub/content_handler.h</title>
<polygon fill="white" stroke="white" points="-4,5 -4,-526 1251,-526 1251,5 -4,5"/>
<!-- Node1 -->
<g id="node1" class="node"><title>Node1</title>
<polygon fill="#bfbfbf" stroke="black" points="863.966,-477 863.966,-521 1010.03,-521 1010.03,-477 863.966,-477"/>
<text text-anchor="start" x="871.966" y="-507" font-family="Helvetica,sans-Serif" font-size="10.00">/Users/rkwright/Documents</text>
<text text-anchor="start" x="871.966" y="-495" font-family="Helvetica,sans-Serif" font-size="10.00">/github/readium&#45;sdk&#45;D/ePub3</text>
<text text-anchor="middle" x="937" y="-483" font-family="Helvetica,sans-Serif" font-size="10.00">/ePub/content_handler.h</text>
</g>
<!-- Node2 -->
<g id="node2" class="node"><title>Node2</title>
<polygon fill="white" stroke="#bfbfbf" points="693.079,-419 693.079,-439 776.921,-439 776.921,-419 693.079,-419"/>
<text text-anchor="middle" x="735" y="-425" font-family="Helvetica,sans-Serif" font-size="10.00">ePub3/epub3.h</text>
</g>
<!-- Node1&#45;&gt;Node2 -->
<g id="edge1" class="edge"><title>Node1&#45;&gt;Node2</title>
<path fill="none" stroke="midnightblue" d="M874.469,-476.95C840.68,-465.575 800.136,-451.927 771.494,-442.285"/>
<polygon fill="midnightblue" stroke="midnightblue" points="772.484,-438.925 761.89,-439.052 770.251,-445.56 772.484,-438.925"/>
</g>
<!-- Node3 -->
<g id="node3" class="node"><title>Node3</title>
<g id="a_node3"><a xlink:href="utfstring_8h.xhtml" target="_top" xlink:title="ePub3/utilities/utfstring.h">
<polygon fill="white" stroke="black" points="508.525,-361 508.525,-381 633.475,-381 633.475,-361 508.525,-361"/>
<text text-anchor="middle" x="571" y="-367" font-family="Helvetica,sans-Serif" font-size="10.00">ePub3/utilities/utfstring.h</text>
</a>
</g>
</g>
<!-- Node1&#45;&gt;Node3 -->
<g id="edge2" class="edge"><title>Node1&#45;&gt;Node3</title>
<path fill="none" stroke="midnightblue" d="M894.937,-476.906C873.584,-466.073 847.299,-452.545 824,-440 806.477,-430.566 803.606,-425.06 785,-418 739.444,-400.714 685.838,-389.204 643.674,-382.02"/>
<polygon fill="midnightblue" stroke="midnightblue" points="644.202,-378.56 633.764,-380.375 643.056,-385.466 644.202,-378.56"/>
</g>
<!-- Node29 -->
<g id="node29" class="node"><title>Node29</title>
<g id="a_node29"><a xlink:href="iri_8h.xhtml" target="_top" xlink:title="ePub3/utilities/iri.h">
<polygon fill="white" stroke="black" points="833.424,-419 833.424,-439 930.576,-439 930.576,-419 833.424,-419"/>
<text text-anchor="middle" x="882" y="-425" font-family="Helvetica,sans-Serif" font-size="10.00">ePub3/utilities/iri.h</text>
</a>
</g>
</g>
<!-- Node1&#45;&gt;Node29 -->
<g id="edge34" class="edge"><title>Node1&#45;&gt;Node29</title>
<path fill="none" stroke="midnightblue" d="M919.899,-476.857C912.157,-467.284 903.124,-456.117 895.82,-447.086"/>
<polygon fill="midnightblue" stroke="midnightblue" points="898.454,-444.778 889.444,-439.204 893.012,-449.18 898.454,-444.778"/>
</g>
<!-- Node34 -->
<g id="node34" class="node"><title>Node34</title>
<g id="a_node34"><a xlink:href="owned__by_8h.xhtml" target="_top" xlink:title="ePub3/utilities/owned_by.h">
<polygon fill="white" stroke="black" points="1110.88,-297 1110.88,-317 1245.12,-317 1245.12,-297 1110.88,-297"/>
<text text-anchor="middle" x="1178" y="-303" font-family="Helvetica,sans-Serif" font-size="10.00">ePub3/utilities/owned_by.h</text>
</a>
</g>
</g>
<!-- Node1&#45;&gt;Node34 -->
<g id="edge44" class="edge"><title>Node1&#45;&gt;Node34</title>
<path fill="none" stroke="midnightblue" d="M961.607,-476.966C980.851,-460.646 1008.38,-437.581 1033,-418 1076.51,-383.393 1128.71,-344.392 1157.1,-323.387"/>
<polygon fill="midnightblue" stroke="midnightblue" points="1159.47,-325.984 1165.44,-317.228 1155.32,-320.354 1159.47,-325.984"/>
</g>
<!-- Node26 -->
<g id="node26" class="node"><title>Node26</title>
<polygon fill="white" stroke="#bfbfbf" points="1057.27,-297 1057.27,-317 1092.73,-317 1092.73,-297 1057.27,-297"/>
<text text-anchor="middle" x="1075" y="-303" font-family="Helvetica,sans-Serif" font-size="10.00">map</text>
</g>
<!-- Node1&#45;&gt;Node26 -->
<g id="edge47" class="edge"><title>Node1&#45;&gt;Node26</title>
<path fill="none" stroke="midnightblue" d="M942.753,-476.902C951.428,-448.042 970.097,-395.762 1000,-360 1007.68,-350.818 1032.41,-334.364 1051.4,-322.419"/>
<polygon fill="midnightblue" stroke="midnightblue" points="1053.26,-325.385 1059.9,-317.129 1049.56,-319.442 1053.26,-325.385"/>
</g>
<!-- Node35 -->
<g id="node35" class="node"><title>Node35</title>
<polygon fill="white" stroke="#bfbfbf" points="1041.6,-419 1041.6,-439 1100.4,-439 1100.4,-419 1041.6,-419"/>
<text text-anchor="middle" x="1071" y="-425" font-family="Helvetica,sans-Serif" font-size="10.00">functional</text>
</g>
<!-- Node1&#45;&gt;Node35 -->
<g id="edge48" class="edge"><title>Node1&#45;&gt;Node35</title>
<path fill="none" stroke="midnightblue" d="M978.664,-476.857C999.992,-466.034 1025.34,-453.172 1044.07,-443.664"/>
<polygon fill="midnightblue" stroke="midnightblue" points="1045.88,-446.673 1053.21,-439.027 1042.71,-440.431 1045.88,-446.673"/>
</g>
<!-- Node4 -->
<g id="node4" class="node"><title>Node4</title>
<g id="a_node4"><a xlink:href="basic_8h.xhtml" target="_top" xlink:title="ePub3/utilities/basic.h">
<polygon fill="white" stroke="black" points="124.638,-297 124.638,-317 237.362,-317 237.362,-297 124.638,-297"/>
<text text-anchor="middle" x="181" y="-303" font-family="Helvetica,sans-Serif" font-size="10.00">ePub3/utilities/basic.h</text>
</a>
</g>
</g>
<!-- Node3&#45;&gt;Node4 -->
<g id="edge3" class="edge"><title>Node3&#45;&gt;Node4</title>
<path fill="none" stroke="midnightblue" d="M508.287,-362.922C442.802,-355.106 337.253,-341.304 247,-324 240.076,-322.672 232.786,-321.092 225.678,-319.449"/>
<polygon fill="midnightblue" stroke="midnightblue" points="225.997,-315.928 215.459,-317.021 224.378,-322.738 225.997,-315.928"/>
</g>
<!-- Node15 -->
<g id="node15" class="node"><title>Node15</title>
<g id="a_node15"><a xlink:href="integer__sequence_8h.xhtml" target="_top" xlink:title="ePub3/utilities/integer\l_sequence.h">
<polygon fill="white" stroke="black" points="567.192,-291 567.192,-323 678.808,-323 678.808,-291 567.192,-291"/>
<text text-anchor="start" x="575.192" y="-309" font-family="Helvetica,sans-Serif" font-size="10.00">ePub3/utilities/integer</text>
<text text-anchor="middle" x="623" y="-297" font-family="Helvetica,sans-Serif" font-size="10.00">_sequence.h</text>
</a>
</g>
</g>
<!-- Node3&#45;&gt;Node15 -->
<g id="edge14" class="edge"><title>Node3&#45;&gt;Node15</title>
<path fill="none" stroke="midnightblue" d="M578.673,-360.852C585.182,-353.091 594.81,-341.612 603.431,-331.333"/>
<polygon fill="midnightblue" stroke="midnightblue" points="606.306,-333.351 610.05,-323.44 600.942,-328.853 606.306,-333.351"/>
</g>
<!-- Node16 -->
<g id="node16" class="node"><title>Node16</title>
<g id="a_node16"><a xlink:href="string__view_8h.xhtml" target="_top" xlink:title="ePub3/utilities/string\l_view.h">
<polygon fill="white" stroke="black" points="811.254,-291 811.254,-323 916.746,-323 916.746,-291 811.254,-291"/>
<text text-anchor="start" x="819.254" y="-309" font-family="Helvetica,sans-Serif" font-size="10.00">ePub3/utilities/string</text>
<text text-anchor="middle" x="864" y="-297" font-family="Helvetica,sans-Serif" font-size="10.00">_view.h</text>
</a>
</g>
</g>
<!-- Node3&#45;&gt;Node16 -->
<g id="edge16" class="edge"><title>Node3&#45;&gt;Node16</title>
<path fill="none" stroke="midnightblue" d="M617.844,-360.943C663.618,-351.979 735.228,-337.658 797,-324 798.281,-323.717 799.575,-323.428 800.879,-323.136"/>
<polygon fill="midnightblue" stroke="midnightblue" points="802.035,-326.462 811.008,-320.829 800.48,-319.637 802.035,-326.462"/>
</g>
<!-- Node18 -->
<g id="node18" class="node"><title>Node18</title>
<polygon fill="white" stroke="#bfbfbf" points="643.773,-233 643.773,-253 684.227,-253 684.227,-233 643.773,-233"/>
<text text-anchor="middle" x="664" y="-239" font-family="Helvetica,sans-Serif" font-size="10.00">string</text>
</g>
<!-- Node3&#45;&gt;Node18 -->
<g id="edge25" class="edge"><title>Node3&#45;&gt;Node18</title>
<path fill="none" stroke="midnightblue" d="M633.561,-364.382C660.103,-358.54 688.635,-346.92 705,-324 719.706,-303.403 699.329,-276.799 682.415,-260.064"/>
<polygon fill="midnightblue" stroke="midnightblue" points="684.712,-257.419 675.026,-253.126 679.92,-262.522 684.712,-257.419"/>
</g>
<!-- Node23 -->
<g id="node23" class="node"><title>Node23</title>
<polygon fill="white" stroke="#bfbfbf" points="-0.561523,-297 -0.561523,-317 46.5615,-317 46.5615,-297 -0.561523,-297"/>
<text text-anchor="middle" x="23" y="-303" font-family="Helvetica,sans-Serif" font-size="10.00">iterator</text>
</g>
<!-- Node3&#45;&gt;Node23 -->
<g id="edge26" class="edge"><title>Node3&#45;&gt;Node23</title>
<path fill="none" stroke="midnightblue" d="M508.408,-367.238C390.449,-361.566 139.587,-347.158 56,-324 53.3309,-323.261 50.616,-322.31 47.948,-321.243"/>
<polygon fill="midnightblue" stroke="midnightblue" points="49.2082,-317.971 38.6557,-317.025 46.3152,-324.345 49.2082,-317.971"/>
</g>
<!-- Node24 -->
<g id="node24" class="node"><title>Node24</title>
<polygon fill="white" stroke="#bfbfbf" points="64.936,-297 64.936,-317 107.064,-317 107.064,-297 64.936,-297"/>
<text text-anchor="middle" x="86" y="-303" font-family="Helvetica,sans-Serif" font-size="10.00">locale</text>
</g>
<!-- Node3&#45;&gt;Node24 -->
<g id="edge27" class="edge"><title>Node3&#45;&gt;Node24</title>
<path fill="none" stroke="midnightblue" d="M508.14,-366.66C401.009,-360.466 187.685,-345.811 116,-324 113.713,-323.304 111.399,-322.428 109.123,-321.446"/>
<polygon fill="midnightblue" stroke="midnightblue" points="110.669,-318.306 100.155,-317.005 107.563,-324.579 110.669,-318.306"/>
</g>
<!-- Node13 -->
<g id="node13" class="node"><title>Node13</title>
<polygon fill="white" stroke="#bfbfbf" points="439.384,-233 439.384,-253 482.616,-253 482.616,-233 439.384,-233"/>
<text text-anchor="middle" x="461" y="-239" font-family="Helvetica,sans-Serif" font-size="10.00">vector</text>
</g>
<!-- Node3&#45;&gt;Node13 -->
<g id="edge28" class="edge"><title>Node3&#45;&gt;Node13</title>
<path fill="none" stroke="midnightblue" d="M537.819,-360.99C518.215,-354.002 494.473,-342.345 480,-324 466.291,-306.624 462.219,-280.953 461.138,-263.406"/>
<polygon fill="midnightblue" stroke="midnightblue" points="464.63,-263.093 460.789,-253.218 457.634,-263.332 464.63,-263.093"/>
</g>
<!-- Node25 -->
<g id="node25" class="node"><title>Node25</title>
<polygon fill="white" stroke="#bfbfbf" points="255.766,-297 255.766,-317 356.234,-317 356.234,-297 255.766,-297"/>
<text text-anchor="middle" x="306" y="-303" font-family="Helvetica,sans-Serif" font-size="10.00">REGEX_INCLUDE</text>
</g>
<!-- Node3&#45;&gt;Node25 -->
<g id="edge29" class="edge"><title>Node3&#45;&gt;Node25</title>
<path fill="none" stroke="midnightblue" d="M528.482,-360.977C486.941,-352.039 421.97,-337.736 366,-324 360.503,-322.651 354.738,-321.182 349.045,-319.7"/>
<polygon fill="midnightblue" stroke="midnightblue" points="349.511,-316.203 338.949,-317.039 347.727,-322.972 349.511,-316.203"/>
</g>
<!-- Node3&#45;&gt;Node26 -->
<g id="edge30" class="edge"><title>Node3&#45;&gt;Node26</title>
<path fill="none" stroke="midnightblue" d="M633.905,-367.337C745.315,-362.057 972.668,-348.593 1048,-324 1049.71,-323.442 1051.43,-322.762 1053.12,-322.001"/>
<polygon fill="midnightblue" stroke="midnightblue" points="1055.22,-324.849 1062.37,-317.035 1051.9,-318.682 1055.22,-324.849"/>
</g>
<!-- Node27 -->
<g id="node27" class="node"><title>Node27</title>
<polygon fill="white" stroke="#bfbfbf" points="374.599,-297 374.599,-317 433.401,-317 433.401,-297 374.599,-297"/>
<text text-anchor="middle" x="404" y="-303" font-family="Helvetica,sans-Serif" font-size="10.00">stdexcept</text>
</g>
<!-- Node3&#45;&gt;Node27 -->
<g id="edge31" class="edge"><title>Node3&#45;&gt;Node27</title>
<path fill="none" stroke="midnightblue" d="M546.294,-360.843C521.266,-351.565 481.438,-336.795 447,-324 444.107,-322.925 441.104,-321.809 438.091,-320.689"/>
<polygon fill="midnightblue" stroke="midnightblue" points="439.15,-317.348 428.557,-317.142 436.709,-323.909 439.15,-317.348"/>
</g>
<!-- Node19 -->
<g id="node19" class="node"><title>Node19</title>
<polygon fill="white" stroke="#bfbfbf" points="586.613,-233 586.613,-253 625.387,-253 625.387,-233 586.613,-233"/>
<text text-anchor="middle" x="606" y="-239" font-family="Helvetica,sans-Serif" font-size="10.00">limits</text>
</g>
<!-- Node3&#45;&gt;Node19 -->
<g id="edge32" class="edge"><title>Node3&#45;&gt;Node19</title>
<path fill="none" stroke="midnightblue" d="M629.605,-360.97C651.364,-354.463 673.915,-343.266 687,-324 695.49,-311.5 694.602,-303.06 687,-290 681.074,-279.819 655.659,-266.328 634.858,-256.592"/>
<polygon fill="midnightblue" stroke="midnightblue" points="636.261,-253.385 625.711,-252.408 633.349,-259.75 636.261,-253.385"/>
</g>
<!-- Node28 -->
<g id="node28" class="node"><title>Node28</title>
<polygon fill="white" stroke="#bfbfbf" points="488.761,-297 488.761,-317 549.239,-317 549.239,-297 488.761,-297"/>
<text text-anchor="middle" x="519" y="-303" font-family="Helvetica,sans-Serif" font-size="10.00">utf8/utf8.h</text>
</g>
<!-- Node3&#45;&gt;Node28 -->
<g id="edge33" class="edge"><title>Node3&#45;&gt;Node28</title>
<path fill="none" stroke="midnightblue" d="M563.327,-360.852C555.416,-351.419 542.899,-336.495 533.18,-324.907"/>
<polygon fill="midnightblue" stroke="midnightblue" points="535.812,-322.599 526.704,-317.186 530.449,-327.097 535.812,-322.599"/>
</g>
<!-- Node5 -->
<g id="node5" class="node"><title>Node5</title>
<g id="a_node5"><a xlink:href="base_8h.xhtml" target="_top" xlink:title="ePub3/base.h">
<polygon fill="white" stroke="black" points="682.141,-175 682.141,-195 759.859,-195 759.859,-175 682.141,-175"/>
<text text-anchor="middle" x="721" y="-181" font-family="Helvetica,sans-Serif" font-size="10.00">ePub3/base.h</text>
</a>
</g>
</g>
<!-- Node4&#45;&gt;Node5 -->
<g id="edge4" class="edge"><title>Node4&#45;&gt;Node5</title>
<path fill="none" stroke="midnightblue" d="M186.712,-296.981C197.567,-280.73 222.891,-246.843 254,-232 326.952,-197.191 567.4,-188.707 671.846,-186.652"/>
<polygon fill="midnightblue" stroke="midnightblue" points="672.18,-190.146 682.114,-186.462 672.051,-183.147 672.18,-190.146"/>
</g>
<!-- Node10 -->
<g id="node10" class="node"><title>Node10</title>
<polygon fill="white" stroke="#bfbfbf" points="22.8154,-233 22.8154,-253 137.185,-253 137.185,-233 22.8154,-233"/>
<text text-anchor="middle" x="80" y="-239" font-family="Helvetica,sans-Serif" font-size="10.00">ePub3/xml/xmlstring.h</text>
</g>
<!-- Node4&#45;&gt;Node10 -->
<g id="edge9" class="edge"><title>Node4&#45;&gt;Node10</title>
<path fill="none" stroke="midnightblue" d="M166.097,-296.852C149.612,-286.732 122.83,-270.292 103.511,-258.432"/>
<polygon fill="midnightblue" stroke="midnightblue" points="105.317,-255.435 94.964,-253.186 101.655,-261.4 105.317,-255.435"/>
</g>
<!-- Node11 -->
<g id="node11" class="node"><title>Node11</title>
<polygon fill="white" stroke="#bfbfbf" points="155.219,-233 155.219,-253 206.781,-253 206.781,-233 155.219,-233"/>
<text text-anchor="middle" x="181" y="-239" font-family="Helvetica,sans-Serif" font-size="10.00">sstream</text>
</g>
<!-- Node4&#45;&gt;Node11 -->
<g id="edge10" class="edge"><title>Node4&#45;&gt;Node11</title>
<path fill="none" stroke="midnightblue" d="M181,-296.852C181,-288.06 181,-274.498 181,-263.313"/>
<polygon fill="midnightblue" stroke="midnightblue" points="184.5,-263.186 181,-253.186 177.5,-263.186 184.5,-263.186"/>
</g>
<!-- Node12 -->
<g id="node12" class="node"><title>Node12</title>
<polygon fill="white" stroke="#bfbfbf" points="975.943,-175 975.943,-195 1028.06,-195 1028.06,-175 975.943,-175"/>
<text text-anchor="middle" x="1002" y="-181" font-family="Helvetica,sans-Serif" font-size="10.00">memory</text>
</g>
<!-- Node4&#45;&gt;Node12 -->
<g id="edge11" class="edge"><title>Node4&#45;&gt;Node12</title>
<path fill="none" stroke="midnightblue" d="M205.322,-296.916C249.409,-280.87 345.769,-247.725 430,-232 533.545,-212.67 856.303,-193.888 965.482,-187.937"/>
<polygon fill="midnightblue" stroke="midnightblue" points="965.866,-191.422 975.662,-187.386 965.487,-184.432 965.866,-191.422"/>
</g>
<!-- Node4&#45;&gt;Node13 -->
<g id="edge12" class="edge"><title>Node4&#45;&gt;Node13</title>
<path fill="none" stroke="midnightblue" d="M217.616,-296.943C227.169,-294.63 237.46,-292.181 247,-290 311.546,-275.242 387.361,-259.264 429.206,-250.564"/>
<polygon fill="midnightblue" stroke="midnightblue" points="430.005,-253.973 439.085,-248.514 428.583,-247.119 430.005,-253.973"/>
</g>
<!-- Node14 -->
<g id="node14" class="node"><title>Node14</title>
<polygon fill="white" stroke="#bfbfbf" points="263.5,-233 263.5,-253 292.5,-253 292.5,-233 263.5,-233"/>
<text text-anchor="middle" x="277.611" y="-239" font-family="Helvetica,sans-Serif" font-size="10.00">list</text>
</g>
<!-- Node4&#45;&gt;Node14 -->
<g id="edge13" class="edge"><title>Node4&#45;&gt;Node14</title>
<path fill="none" stroke="midnightblue" d="M195.313,-296.852C211.073,-286.778 236.633,-270.441 255.168,-258.594"/>
<polygon fill="midnightblue" stroke="midnightblue" points="257.088,-261.521 263.629,-253.186 253.318,-255.622 257.088,-261.521"/>
</g>
<!-- Node6 -->
<g id="node6" class="node"><title>Node6</title>
<g id="a_node6"><a xlink:href="__config_8h.xhtml" target="_top" xlink:title="_config.h">
<polygon fill="white" stroke="black" points="657.707,-117 657.707,-137 714.293,-137 714.293,-117 657.707,-117"/>
<text text-anchor="middle" x="686" y="-123" font-family="Helvetica,sans-Serif" font-size="10.00">_config.h</text>
</a>
</g>
</g>
<!-- Node5&#45;&gt;Node6 -->
<g id="edge5" class="edge"><title>Node5&#45;&gt;Node6</title>
<path fill="none" stroke="midnightblue" d="M715.22,-174.753C710.277,-166.843 703.023,-155.237 696.98,-145.568"/>
<polygon fill="midnightblue" stroke="midnightblue" points="699.94,-143.7 691.672,-137.075 694.004,-147.41 699.94,-143.7"/>
</g>
<!-- Node9 -->
<g id="node9" class="node"><title>Node9</title>
<polygon fill="white" stroke="#bfbfbf" points="732.158,-117 732.158,-137 779.842,-137 779.842,-117 732.158,-117"/>
<text text-anchor="middle" x="756" y="-123" font-family="Helvetica,sans-Serif" font-size="10.00">stdlib.h</text>
</g>
<!-- Node5&#45;&gt;Node9 -->
<g id="edge8" class="edge"><title>Node5&#45;&gt;Node9</title>
<path fill="none" stroke="midnightblue" d="M726.78,-174.753C731.723,-166.843 738.977,-155.237 745.02,-145.568"/>
<polygon fill="midnightblue" stroke="midnightblue" points="747.996,-147.41 750.328,-137.075 742.06,-143.7 747.996,-147.41"/>
</g>
<!-- Node7 -->
<g id="node7" class="node"><title>Node7</title>
<g id="a_node7"><a xlink:href="__platform_8h.xhtml" target="_top" xlink:title="_platform.h">
<polygon fill="white" stroke="black" points="652.988,-59 652.988,-79 719.012,-79 719.012,-59 652.988,-59"/>
<text text-anchor="middle" x="686" y="-65" font-family="Helvetica,sans-Serif" font-size="10.00">_platform.h</text>
</a>
</g>
</g>
<!-- Node6&#45;&gt;Node7 -->
<g id="edge6" class="edge"><title>Node6&#45;&gt;Node7</title>
<path fill="none" stroke="midnightblue" d="M686,-116.753C686,-109.25 686,-98.4238 686,-89.0781"/>
<polygon fill="midnightblue" stroke="midnightblue" points="689.5,-89.0752 686,-79.0752 682.5,-89.0752 689.5,-89.0752"/>
</g>
<!-- Node8 -->
<g id="node8" class="node"><title>Node8</title>
<g id="a_node8"><a xlink:href="__compiler_8h.xhtml" target="_top" xlink:title="_compiler.h">
<polygon fill="white" stroke="black" points="652.429,-1 652.429,-21 719.571,-21 719.571,-1 652.429,-1"/>
<text text-anchor="middle" x="686" y="-7" font-family="Helvetica,sans-Serif" font-size="10.00">_compiler.h</text>
</a>
</g>
</g>
<!-- Node7&#45;&gt;Node8 -->
<g id="edge7" class="edge"><title>Node7&#45;&gt;Node8</title>
<path fill="none" stroke="midnightblue" d="M686,-58.7527C686,-51.2504 686,-40.4238 686,-31.0781"/>
<polygon fill="midnightblue" stroke="midnightblue" points="689.5,-31.0752 686,-21.0752 682.5,-31.0752 689.5,-31.0752"/>
</g>
<!-- Node15&#45;&gt;Node5 -->
<g id="edge15" class="edge"><title>Node15&#45;&gt;Node5</title>
<path fill="none" stroke="midnightblue" d="M602.784,-290.788C584.951,-275.488 563.831,-251.442 578,-232 599.275,-202.808 639.39,-191.739 671.73,-187.727"/>
<polygon fill="midnightblue" stroke="midnightblue" points="672.342,-191.182 681.923,-186.659 671.612,-184.22 672.342,-191.182"/>
</g>
<!-- Node17 -->
<g id="node17" class="node"><title>Node17</title>
<polygon fill="white" stroke="#bfbfbf" points="935.934,-233 935.934,-253 998.066,-253 998.066,-233 935.934,-233"/>
<text text-anchor="middle" x="967" y="-239" font-family="Helvetica,sans-Serif" font-size="10.00">type_traits</text>
</g>
<!-- Node16&#45;&gt;Node17 -->
<g id="edge17" class="edge"><title>Node16&#45;&gt;Node17</title>
<path fill="none" stroke="midnightblue" d="M888.933,-290.992C905.357,-281.105 926.745,-268.231 942.981,-258.458"/>
<polygon fill="midnightblue" stroke="midnightblue" points="945.105,-261.265 951.868,-253.109 941.495,-255.267 945.105,-261.265"/>
</g>
<!-- Node16&#45;&gt;Node18 -->
<g id="edge18" class="edge"><title>Node16&#45;&gt;Node18</title>
<path fill="none" stroke="midnightblue" d="M812.59,-290.905C780.817,-281.452 738.995,-268.789 693.916,-254.225"/>
<polygon fill="midnightblue" stroke="midnightblue" points="694.842,-250.846 684.25,-251.089 692.681,-257.504 694.842,-250.846"/>
</g>
<!-- Node16&#45;&gt;Node19 -->
<g id="edge19" class="edge"><title>Node16&#45;&gt;Node19</title>
<path fill="none" stroke="midnightblue" d="M810.832,-295.637C766.341,-286.579 701.066,-272.395 635.272,-253.839"/>
<polygon fill="midnightblue" stroke="midnightblue" points="636.14,-250.447 625.564,-251.069 634.22,-257.178 636.14,-250.447"/>
</g>
<!-- Node20 -->
<g id="node20" class="node"><title>Node20</title>
<polygon fill="white" stroke="#bfbfbf" points="701.828,-233 701.828,-253 756.172,-253 756.172,-233 701.828,-233"/>
<text text-anchor="middle" x="729" y="-239" font-family="Helvetica,sans-Serif" font-size="10.00">iostream</text>
</g>
<!-- Node16&#45;&gt;Node20 -->
<g id="edge20" class="edge"><title>Node16&#45;&gt;Node20</title>
<path fill="none" stroke="midnightblue" d="M831.32,-290.992C808.989,-280.736 779.656,-267.264 758.124,-257.376"/>
<polygon fill="midnightblue" stroke="midnightblue" points="759.382,-254.102 748.834,-253.109 756.46,-260.463 759.382,-254.102"/>
</g>
<!-- Node21 -->
<g id="node21" class="node"><title>Node21</title>
<polygon fill="white" stroke="#bfbfbf" points="774.436,-233 774.436,-253 831.564,-253 831.564,-233 774.436,-233"/>
<text text-anchor="middle" x="803" y="-239" font-family="Helvetica,sans-Serif" font-size="10.00">algorithm</text>
</g>
<!-- Node16&#45;&gt;Node21 -->
<g id="edge21" class="edge"><title>Node16&#45;&gt;Node21</title>
<path fill="none" stroke="midnightblue" d="M849.234,-290.992C840.198,-281.808 828.626,-270.046 819.32,-260.587"/>
<polygon fill="midnightblue" stroke="midnightblue" points="821.649,-257.964 812.141,-253.29 816.659,-262.873 821.649,-257.964"/>
</g>
<!-- Node22 -->
<g id="node22" class="node"><title>Node22</title>
<g id="a_node22"><a xlink:href="____strhash_8h.xhtml" target="_top" xlink:title="__strhash.h">
<polygon fill="white" stroke="black" points="849.872,-233 849.872,-253 918.128,-253 918.128,-233 849.872,-233"/>
<text text-anchor="middle" x="884" y="-239" font-family="Helvetica,sans-Serif" font-size="10.00">__strhash.h</text>
</a>
</g>
</g>
<!-- Node16&#45;&gt;Node22 -->
<g id="edge22" class="edge"><title>Node16&#45;&gt;Node22</title>
<path fill="none" stroke="midnightblue" d="M868.841,-290.992C871.567,-282.543 874.996,-271.912 877.904,-262.899"/>
<polygon fill="midnightblue" stroke="midnightblue" points="881.264,-263.882 881.003,-253.29 874.602,-261.733 881.264,-263.882"/>
</g>
<!-- Node22&#45;&gt;Node5 -->
<g id="edge23" class="edge"><title>Node22&#45;&gt;Node5</title>
<path fill="none" stroke="midnightblue" d="M857.448,-232.878C830.135,-223.494 787.409,-208.815 757.051,-198.386"/>
<polygon fill="midnightblue" stroke="midnightblue" points="757.865,-194.964 747.27,-195.025 755.59,-201.585 757.865,-194.964"/>
</g>
<!-- Node22&#45;&gt;Node12 -->
<g id="edge24" class="edge"><title>Node22&#45;&gt;Node12</title>
<path fill="none" stroke="midnightblue" d="M903.221,-232.878C922.336,-223.807 951.876,-209.788 973.676,-199.442"/>
<polygon fill="midnightblue" stroke="midnightblue" points="975.253,-202.568 982.787,-195.118 972.252,-196.244 975.253,-202.568"/>
</g>
<!-- Node29&#45;&gt;Node3 -->
<g id="edge35" class="edge"><title>Node29&#45;&gt;Node3</title>
<path fill="none" stroke="midnightblue" d="M833.406,-419.25C778.74,-409.407 689.909,-393.411 630.97,-382.799"/>
<polygon fill="midnightblue" stroke="midnightblue" points="631.516,-379.341 621.054,-381.013 630.275,-386.23 631.516,-379.341"/>
</g>
<!-- Node30 -->
<g id="node30" class="node"><title>Node30</title>
<g id="a_node30"><a xlink:href="make__unique_8h.xhtml" target="_top" xlink:title="ePub3/utilities/make\l_unique.h">
<polygon fill="white" stroke="black" points="934.254,-291 934.254,-323 1039.75,-323 1039.75,-291 934.254,-291"/>
<text text-anchor="start" x="942.254" y="-309" font-family="Helvetica,sans-Serif" font-size="10.00">ePub3/utilities/make</text>
<text text-anchor="middle" x="987" y="-297" font-family="Helvetica,sans-Serif" font-size="10.00">_unique.h</text>
</a>
</g>
</g>
<!-- Node29&#45;&gt;Node30 -->
<g id="edge36" class="edge"><title>Node29&#45;&gt;Node30</title>
<path fill="none" stroke="midnightblue" d="M889.892,-418.98C906.057,-400.506 943.375,-357.857 966.757,-331.135"/>
<polygon fill="midnightblue" stroke="midnightblue" points="969.575,-333.229 973.527,-323.398 964.307,-328.619 969.575,-333.229"/>
</g>
<!-- Node33 -->
<g id="node33" class="node"><title>Node33</title>
<polygon fill="white" stroke="#bfbfbf" points="821.867,-361 821.867,-381 910.133,-381 910.133,-361 821.867,-361"/>
<text text-anchor="middle" x="866" y="-367" font-family="Helvetica,sans-Serif" font-size="10.00">google&#45;url/gurl.h</text>
</g>
<!-- Node29&#45;&gt;Node33 -->
<g id="edge42" class="edge"><title>Node29&#45;&gt;Node33</title>
<path fill="none" stroke="midnightblue" d="M879.358,-418.753C877.191,-411.169 874.054,-400.188 871.364,-390.774"/>
<polygon fill="midnightblue" stroke="midnightblue" points="874.706,-389.729 868.593,-381.075 867.975,-391.652 874.706,-389.729"/>
</g>
<!-- Node29&#45;&gt;Node13 -->
<g id="edge43" class="edge"><title>Node29&#45;&gt;Node13</title>
<path fill="none" stroke="midnightblue" d="M867.873,-418.835C853.843,-409.673 831.772,-395.101 813,-382 756.14,-342.315 750.433,-318.004 687,-290 621.721,-261.181 537.806,-250.194 492.837,-246.178"/>
<polygon fill="midnightblue" stroke="midnightblue" points="493.058,-242.684 482.802,-245.341 492.476,-249.66 493.058,-242.684"/>
</g>
<!-- Node30&#45;&gt;Node5 -->
<g id="edge37" class="edge"><title>Node30&#45;&gt;Node5</title>
<path fill="none" stroke="midnightblue" d="M998.183,-290.932C1008.82,-274.624 1021.24,-248.714 1007,-232 977.196,-197.019 844.181,-188.54 770.512,-186.551"/>
<polygon fill="midnightblue" stroke="midnightblue" points="770.174,-183.042 760.093,-186.303 770.007,-190.04 770.174,-183.042"/>
</g>
<!-- Node31 -->
<g id="node31" class="node"><title>Node31</title>
<polygon fill="white" stroke="#bfbfbf" points="1147.88,-233 1147.88,-253 1196.12,-253 1196.12,-233 1147.88,-233"/>
<text text-anchor="middle" x="1172" y="-239" font-family="Helvetica,sans-Serif" font-size="10.00">cstddef</text>
</g>
<!-- Node30&#45;&gt;Node31 -->
<g id="edge38" class="edge"><title>Node30&#45;&gt;Node31</title>
<path fill="none" stroke="midnightblue" d="M1031.78,-290.992C1064.55,-280.012 1108.3,-265.347 1138.17,-255.338"/>
<polygon fill="midnightblue" stroke="midnightblue" points="1139.36,-258.631 1147.73,-252.134 1137.13,-251.993 1139.36,-258.631"/>
</g>
<!-- Node30&#45;&gt;Node12 -->
<g id="edge39" class="edge"><title>Node30&#45;&gt;Node12</title>
<path fill="none" stroke="midnightblue" d="M1032.47,-290.975C1060.62,-280.647 1092.91,-266.58 1101,-254 1119.61,-225.063 1073.11,-205.18 1037.7,-194.701"/>
<polygon fill="midnightblue" stroke="midnightblue" points="1038.64,-191.33 1028.07,-191.994 1036.75,-198.069 1038.64,-191.33"/>
</g>
<!-- Node30&#45;&gt;Node17 -->
<g id="edge40" class="edge"><title>Node30&#45;&gt;Node17</title>
<path fill="none" stroke="midnightblue" d="M982.159,-290.992C979.433,-282.543 976.004,-271.912 973.096,-262.899"/>
<polygon fill="midnightblue" stroke="midnightblue" points="976.398,-261.733 969.997,-253.29 969.736,-263.882 976.398,-261.733"/>
</g>
<!-- Node32 -->
<g id="node32" class="node"><title>Node32</title>
<polygon fill="white" stroke="#bfbfbf" points="1053.61,-233 1053.61,-253 1092.39,-253 1092.39,-233 1053.61,-233"/>
<text text-anchor="middle" x="1073" y="-239" font-family="Helvetica,sans-Serif" font-size="10.00">utility</text>
</g>
<!-- Node30&#45;&gt;Node32 -->
<g id="edge41" class="edge"><title>Node30&#45;&gt;Node32</title>
<path fill="none" stroke="midnightblue" d="M1007.82,-290.992C1021.28,-281.29 1038.72,-268.711 1052.18,-259.009"/>
<polygon fill="midnightblue" stroke="midnightblue" points="1054.3,-261.796 1060.37,-253.109 1050.21,-256.118 1054.3,-261.796"/>
</g>
<!-- Node34&#45;&gt;Node12 -->
<g id="edge45" class="edge"><title>Node34&#45;&gt;Node12</title>
<path fill="none" stroke="midnightblue" d="M1186.51,-296.885C1199.43,-281.933 1220.88,-251.875 1205,-232 1184.53,-206.377 1091.05,-193.965 1038.37,-188.91"/>
<polygon fill="midnightblue" stroke="midnightblue" points="1038.38,-185.396 1028.1,-187.968 1037.74,-192.367 1038.38,-185.396"/>
</g>
<!-- Node34&#45;&gt;Node17 -->
<g id="edge46" class="edge"><title>Node34&#45;&gt;Node17</title>
<path fill="none" stroke="midnightblue" d="M1147.32,-296.985C1110.36,-286.125 1048.17,-267.85 1007.35,-255.857"/>
<polygon fill="midnightblue" stroke="midnightblue" points="1008.3,-252.487 997.718,-253.026 1006.33,-259.204 1008.3,-252.487"/>
</g>
</g>
</svg>
