<?xml version="1.0" encoding="UTF-8" standalone="no"?>
<!DOCTYPE svg PUBLIC "-//W3C//DTD SVG 1.1//EN"
 "http://www.w3.org/Graphics/SVG/1.1/DTD/svg11.dtd">
<!-- Generated by graphviz version 2.30.0 (20130114.0426)
 -->
<!-- Title: /Users/rkwright/Documents/github/readium&#45;sdk&#45;D/ePub3/ePub/content_module_manager.h Pages: 1 -->
<svg width="577pt" height="112pt"
 viewBox="0.00 0.00 577.00 112.00" xmlns="http://www.w3.org/2000/svg" xmlns:xlink="http://www.w3.org/1999/xlink">
<g id="graph0" class="graph" transform="scale(1 1) rotate(0) translate(4 108)">
<title>/Users/rkwright/Documents/github/readium&#45;sdk&#45;D/ePub3/ePub/content_module_manager.h</title>
<polygon fill="white" stroke="white" points="-4,5 -4,-108 574,-108 574,5 -4,5"/>
<!-- Node1 -->
<g id="node1" class="node"><title>Node1</title>
<polygon fill="#bfbfbf" stroke="black" points="283.552,-59 283.552,-103 452.448,-103 452.448,-59 283.552,-59"/>
<text text-anchor="start" x="291.552" y="-89" font-family="Helvetica,sans-Serif" font-size="10.00">/Users/rkwright/Documents</text>
<text text-anchor="start" x="291.552" y="-77" font-family="Helvetica,sans-Serif" font-size="10.00">/github/readium&#45;sdk&#45;D/ePub3</text>
<text text-anchor="middle" x="368" y="-65" font-family="Helvetica,sans-Serif" font-size="10.00">/ePub/content_module_manager.h</text>
</g>
<!-- Node2 -->
<g id="node2" class="node"><title>Node2</title>
<polygon fill="white" stroke="#bfbfbf" points="-0.920898,-1 -0.920898,-21 82.9209,-21 82.9209,-1 -0.920898,-1"/>
<text text-anchor="middle" x="41" y="-7" font-family="Helvetica,sans-Serif" font-size="10.00">ePub3/epub3.h</text>
</g>
<!-- Node1&#45;&gt;Node2 -->
<g id="edge1" class="edge"><title>Node1&#45;&gt;Node2</title>
<path fill="none" stroke="midnightblue" d="M283.364,-62.3999C223.223,-49.8934 144.36,-33.4939 93.1913,-22.8532"/>
<polygon fill="midnightblue" stroke="midnightblue" points="93.8436,-19.4141 83.3405,-20.8047 92.4184,-26.2675 93.8436,-19.4141"/>
</g>
<!-- Node3 -->
<g id="node3" class="node"><title>Node3</title>
<polygon fill="white" stroke="#bfbfbf" points="101.402,-1 101.402,-21 228.598,-21 228.598,-1 101.402,-1"/>
<text text-anchor="middle" x="165" y="-7" font-family="Helvetica,sans-Serif" font-size="10.00">ePub3/content_module.h</text>
</g>
<!-- Node1&#45;&gt;Node3 -->
<g id="edge2" class="edge"><title>Node1&#45;&gt;Node3</title>
<path fill="none" stroke="midnightblue" d="M305.16,-58.9501C271.203,-47.5753 230.459,-33.9271 201.675,-24.2852"/>
<polygon fill="midnightblue" stroke="midnightblue" points="202.617,-20.9097 192.023,-21.0521 200.394,-27.5472 202.617,-20.9097"/>
</g>
<!-- Node4 -->
<g id="node4" class="node"><title>Node4</title>
<polygon fill="white" stroke="#bfbfbf" points="246.845,-1 246.845,-21 385.155,-21 385.155,-1 246.845,-1"/>
<text text-anchor="middle" x="316" y="-7" font-family="Helvetica,sans-Serif" font-size="10.00">ePub3/credential_request.h</text>
</g>
<!-- Node1&#45;&gt;Node4 -->
<g id="edge3" class="edge"><title>Node1&#45;&gt;Node4</title>
<path fill="none" stroke="midnightblue" d="M351.832,-58.8571C344.587,-49.3832 336.148,-38.3473 329.28,-29.3662"/>
<polygon fill="midnightblue" stroke="midnightblue" points="331.893,-27.0214 323.038,-21.2039 326.333,-31.2736 331.893,-27.0214"/>
</g>
<!-- Node5 -->
<g id="node5" class="node"><title>Node5</title>
<polygon fill="white" stroke="#bfbfbf" points="403.273,-1 403.273,-21 438.727,-21 438.727,-1 403.273,-1"/>
<text text-anchor="middle" x="421" y="-7" font-family="Helvetica,sans-Serif" font-size="10.00">map</text>
</g>
<!-- Node1&#45;&gt;Node5 -->
<g id="edge4" class="edge"><title>Node1&#45;&gt;Node5</title>
<path fill="none" stroke="midnightblue" d="M384.479,-58.8571C391.863,-49.3832 400.465,-38.3473 407.465,-29.3662"/>
<polygon fill="midnightblue" stroke="midnightblue" points="410.439,-31.2428 413.826,-21.2039 404.918,-26.9396 410.439,-31.2428"/>
</g>
<!-- Node6 -->
<g id="node6" class="node"><title>Node6</title>
<polygon fill="white" stroke="#bfbfbf" points="457.214,-1 457.214,-21 498.786,-21 498.786,-1 457.214,-1"/>
<text text-anchor="middle" x="478" y="-7" font-family="Helvetica,sans-Serif" font-size="10.00">future</text>
</g>
<!-- Node1&#45;&gt;Node6 -->
<g id="edge5" class="edge"><title>Node1&#45;&gt;Node6</title>
<path fill="none" stroke="midnightblue" d="M402.202,-58.8571C419.228,-48.3317 439.373,-35.8785 454.614,-26.4568"/>
<polygon fill="midnightblue" stroke="midnightblue" points="456.733,-29.2619 463.398,-21.0266 453.052,-23.3078 456.733,-29.2619"/>
</g>
<!-- Node7 -->
<g id="node7" class="node"><title>Node7</title>
<polygon fill="white" stroke="#bfbfbf" points="516.943,-1 516.943,-21 569.057,-21 569.057,-1 516.943,-1"/>
<text text-anchor="middle" x="543" y="-7" font-family="Helvetica,sans-Serif" font-size="10.00">memory</text>
</g>
<!-- Node1&#45;&gt;Node7 -->
<g id="edge6" class="edge"><title>Node1&#45;&gt;Node7</title>
<path fill="none" stroke="midnightblue" d="M422.412,-58.8571C451.16,-47.6863 485.497,-34.344 510.165,-24.7589"/>
<polygon fill="midnightblue" stroke="midnightblue" points="511.716,-27.9109 519.77,-21.0266 509.181,-21.3862 511.716,-27.9109"/>
</g>
</g>
</svg>
