<?xml version="1.0" encoding="UTF-8" standalone="no"?>
<!DOCTYPE svg PUBLIC "-//W3C//DTD SVG 1.1//EN"
 "http://www.w3.org/Graphics/SVG/1.1/DTD/svg11.dtd">
<!-- Generated by graphviz version 2.30.0 (20130114.0426)
 -->
<!-- Title: /Users/rkwright/Documents/github/readium&#45;sdk&#45;D/ePub3/ePub/container.h Pages: 1 -->
<svg width="1928pt" height="472pt"
 viewBox="0.00 0.00 1927.59 472.00" xmlns="http://www.w3.org/2000/svg" xmlns:xlink="http://www.w3.org/1999/xlink">
<g id="graph0" class="graph" transform="scale(1 1) rotate(0) translate(4 468)">
<title>/Users/rkwright/Documents/github/readium&#45;sdk&#45;D/ePub3/ePub/container.h</title>
<polygon fill="white" stroke="white" points="-4,5 -4,-468 1924.59,-468 1924.59,5 -4,5"/>
<!-- Node1 -->
<g id="node1" class="node"><title>Node1</title>
<polygon fill="#bfbfbf" stroke="black" points="756.557,-419 756.557,-463 902.626,-463 902.626,-419 756.557,-419"/>
<text text-anchor="start" x="764.557" y="-449" font-family="Helvetica,sans-Serif" font-size="10.00">/Users/rkwright/Documents</text>
<text text-anchor="start" x="764.557" y="-437" font-family="Helvetica,sans-Serif" font-size="10.00">/github/readium&#45;sdk&#45;D/ePub3</text>
<text text-anchor="middle" x="829.591" y="-425" font-family="Helvetica,sans-Serif" font-size="10.00">/ePub/container.h</text>
</g>
<!-- Node2 -->
<g id="node2" class="node"><title>Node2</title>
<polygon fill="white" stroke="#bfbfbf" points="1124.67,-233 1124.67,-253 1208.51,-253 1208.51,-233 1124.67,-233"/>
<text text-anchor="middle" x="1166.59" y="-239" font-family="Helvetica,sans-Serif" font-size="10.00">ePub3/epub3.h</text>
</g>
<!-- Node1&#45;&gt;Node2 -->
<g id="edge1" class="edge"><title>Node1&#45;&gt;Node2</title>
<path fill="none" stroke="midnightblue" d="M902.638,-432.547C974.468,-423.884 1077.71,-407.436 1108.59,-382 1145.59,-351.528 1159.38,-293.333 1164.2,-263.179"/>
<polygon fill="midnightblue" stroke="midnightblue" points="1167.69,-263.505 1165.64,-253.111 1160.76,-262.516 1167.69,-263.505"/>
</g>
<!-- Node3 -->
<g id="node3" class="node"><title>Node3</title>
<polygon fill="white" stroke="#bfbfbf" points="238.505,-361 238.505,-381 340.677,-381 340.677,-361 238.505,-361"/>
<text text-anchor="middle" x="289.591" y="-367" font-family="Helvetica,sans-Serif" font-size="10.00">ePub3/encryption.h</text>
</g>
<!-- Node1&#45;&gt;Node3 -->
<g id="edge2" class="edge"><title>Node1&#45;&gt;Node3</title>
<path fill="none" stroke="midnightblue" d="M756.268,-432.176C664.121,-422.11 500.87,-403.511 351.246,-382.19"/>
<polygon fill="midnightblue" stroke="midnightblue" points="351.35,-378.67 340.955,-380.716 350.358,-385.599 351.35,-378.67"/>
</g>
<!-- Node4 -->
<g id="node4" class="node"><title>Node4</title>
<polygon fill="white" stroke="#bfbfbf" points="358.671,-361 358.671,-381 452.512,-381 452.512,-361 358.671,-361"/>
<text text-anchor="middle" x="405.591" y="-367" font-family="Helvetica,sans-Serif" font-size="10.00">ePub3/package.h</text>
</g>
<!-- Node1&#45;&gt;Node4 -->
<g id="edge3" class="edge"><title>Node1&#45;&gt;Node4</title>
<path fill="none" stroke="midnightblue" d="M756.555,-428.938C684.5,-417.922 570.935,-400.287 462.748,-382.17"/>
<polygon fill="midnightblue" stroke="midnightblue" points="463.075,-378.676 452.633,-380.472 461.916,-385.579 463.075,-378.676"/>
</g>
<!-- Node5 -->
<g id="node5" class="node"><title>Node5</title>
<g id="a_node5"><a xlink:href="utfstring_8h.xhtml" target="_top" xlink:title="ePub3/utilities/utfstring.h">
<polygon fill="white" stroke="black" points="470.116,-361 470.116,-381 595.067,-381 595.067,-361 470.116,-361"/>
<text text-anchor="middle" x="532.591" y="-367" font-family="Helvetica,sans-Serif" font-size="10.00">ePub3/utilities/utfstring.h</text>
</a>
</g>
</g>
<!-- Node1&#45;&gt;Node5 -->
<g id="edge4" class="edge"><title>Node1&#45;&gt;Node5</title>
<path fill="none" stroke="midnightblue" d="M756.557,-423.278C702.198,-410.832 629.465,-394.18 581.844,-383.277"/>
<polygon fill="midnightblue" stroke="midnightblue" points="582.608,-379.861 572.079,-381.041 581.046,-386.685 582.608,-379.861"/>
</g>
<!-- Node31 -->
<g id="node31" class="node"><title>Node31</title>
<g id="a_node31"><a xlink:href="owned__by_8h.xhtml" target="_top" xlink:title="ePub3/utilities/owned_by.h">
<polygon fill="white" stroke="black" points="934.475,-233 934.475,-253 1068.71,-253 1068.71,-233 934.475,-233"/>
<text text-anchor="middle" x="1001.59" y="-239" font-family="Helvetica,sans-Serif" font-size="10.00">ePub3/utilities/owned_by.h</text>
</a>
</g>
</g>
<!-- Node1&#45;&gt;Node31 -->
<g id="edge36" class="edge"><title>Node1&#45;&gt;Node31</title>
<path fill="none" stroke="midnightblue" d="M829.214,-418.691C830.044,-400.878 834.039,-375.902 848.591,-360 882.75,-322.674 917.572,-356.21 956.591,-324 976.213,-307.803 988.863,-280.691 995.606,-262.579"/>
<polygon fill="midnightblue" stroke="midnightblue" points="998.921,-263.701 998.901,-253.106 992.31,-261.401 998.921,-263.701"/>
</g>
<!-- Node32 -->
<g id="node32" class="node"><title>Node32</title>
<polygon fill="white" stroke="#bfbfbf" points="857.993,-361 857.993,-381 985.19,-381 985.19,-361 857.993,-361"/>
<text text-anchor="middle" x="921.591" y="-367" font-family="Helvetica,sans-Serif" font-size="10.00">ePub3/content_module.h</text>
</g>
<!-- Node1&#45;&gt;Node32 -->
<g id="edge39" class="edge"><title>Node1&#45;&gt;Node32</title>
<path fill="none" stroke="midnightblue" d="M858.196,-418.857C872.082,-408.594 888.448,-396.497 901.073,-387.166"/>
<polygon fill="midnightblue" stroke="midnightblue" points="903.178,-389.963 909.139,-381.204 899.017,-384.333 903.178,-389.963"/>
</g>
<!-- Node33 -->
<g id="node33" class="node"><title>Node33</title>
<polygon fill="white" stroke="#bfbfbf" points="1003.29,-361 1003.29,-381 1099.9,-381 1099.9,-361 1003.29,-361"/>
<text text-anchor="middle" x="1051.59" y="-367" font-family="Helvetica,sans-Serif" font-size="10.00">ePub3/xml/node.h</text>
</g>
<!-- Node1&#45;&gt;Node33 -->
<g id="edge40" class="edge"><title>Node1&#45;&gt;Node33</title>
<path fill="none" stroke="midnightblue" d="M898.313,-418.95C935.773,-407.476 980.785,-393.689 1012.31,-384.033"/>
<polygon fill="midnightblue" stroke="midnightblue" points="1013.5,-387.327 1022.04,-381.052 1011.45,-380.634 1013.5,-387.327"/>
</g>
<!-- Node15 -->
<g id="node15" class="node"><title>Node15</title>
<polygon fill="white" stroke="#bfbfbf" points="84.9757,-233 84.9757,-253 128.207,-253 128.207,-233 84.9757,-233"/>
<text text-anchor="middle" x="106.591" y="-239" font-family="Helvetica,sans-Serif" font-size="10.00">vector</text>
</g>
<!-- Node1&#45;&gt;Node15 -->
<g id="edge41" class="edge"><title>Node1&#45;&gt;Node15</title>
<path fill="none" stroke="midnightblue" d="M756.399,-435.417C563.406,-422.553 52.3215,-383.145 6.59141,-324 -2.65163,-312.045 -1.56085,-302.723 6.59141,-290 21.4992,-266.733 51.4712,-255.074 74.7329,-249.333"/>
<polygon fill="midnightblue" stroke="midnightblue" points="75.5444,-252.738 84.5485,-247.155 74.0277,-245.905 75.5444,-252.738"/>
</g>
<!-- Node34 -->
<g id="node34" class="node"><title>Node34</title>
<g id="a_node34"><a xlink:href="future_8h.xhtml" target="_top" xlink:title="ePub3/utilities/future.h">
<polygon fill="white" stroke="black" points="1173.12,-361 1173.12,-381 1288.07,-381 1288.07,-361 1173.12,-361"/>
<text text-anchor="middle" x="1230.59" y="-367" font-family="Helvetica,sans-Serif" font-size="10.00">ePub3/utilities/future.h</text>
</a>
</g>
</g>
<!-- Node1&#45;&gt;Node34 -->
<g id="edge42" class="edge"><title>Node1&#45;&gt;Node34</title>
<path fill="none" stroke="midnightblue" d="M902.675,-427.607C978.25,-414.791 1095.06,-394.982 1166.96,-382.79"/>
<polygon fill="midnightblue" stroke="midnightblue" points="1167.96,-386.171 1177.23,-381.049 1166.79,-379.27 1167.96,-386.171"/>
</g>
<!-- Node6 -->
<g id="node6" class="node"><title>Node6</title>
<g id="a_node6"><a xlink:href="basic_8h.xhtml" target="_top" xlink:title="ePub3/utilities/basic.h">
<polygon fill="white" stroke="black" points="185.23,-297 185.23,-317 297.953,-317 297.953,-297 185.23,-297"/>
<text text-anchor="middle" x="241.591" y="-303" font-family="Helvetica,sans-Serif" font-size="10.00">ePub3/utilities/basic.h</text>
</a>
</g>
</g>
<!-- Node5&#45;&gt;Node6 -->
<g id="edge5" class="edge"><title>Node5&#45;&gt;Node6</title>
<path fill="none" stroke="midnightblue" d="M485.291,-360.952C439.484,-352.053 368.121,-337.829 306.591,-324 300.341,-322.595 293.768,-321.054 287.302,-319.499"/>
<polygon fill="midnightblue" stroke="midnightblue" points="287.835,-316.026 277.291,-317.064 286.18,-322.828 287.835,-316.026"/>
</g>
<!-- Node17 -->
<g id="node17" class="node"><title>Node17</title>
<g id="a_node17"><a xlink:href="integer__sequence_8h.xhtml" target="_top" xlink:title="ePub3/utilities/integer\l_sequence.h">
<polygon fill="white" stroke="black" points="759.784,-291 759.784,-323 871.399,-323 871.399,-291 759.784,-291"/>
<text text-anchor="start" x="767.784" y="-309" font-family="Helvetica,sans-Serif" font-size="10.00">ePub3/utilities/integer</text>
<text text-anchor="middle" x="815.591" y="-297" font-family="Helvetica,sans-Serif" font-size="10.00">_sequence.h</text>
</a>
</g>
</g>
<!-- Node5&#45;&gt;Node17 -->
<g id="edge16" class="edge"><title>Node5&#45;&gt;Node17</title>
<path fill="none" stroke="midnightblue" d="M575.058,-360.986C618.072,-351.818 686.503,-337.133 745.591,-324 746.858,-323.719 748.137,-323.434 749.426,-323.146"/>
<polygon fill="midnightblue" stroke="midnightblue" points="750.451,-326.503 759.441,-320.897 748.917,-319.673 750.451,-326.503"/>
</g>
<!-- Node18 -->
<g id="node18" class="node"><title>Node18</title>
<g id="a_node18"><a xlink:href="string__view_8h.xhtml" target="_top" xlink:title="ePub3/utilities/string\l_view.h">
<polygon fill="white" stroke="black" points="479.845,-291 479.845,-323 585.338,-323 585.338,-291 479.845,-291"/>
<text text-anchor="start" x="487.845" y="-309" font-family="Helvetica,sans-Serif" font-size="10.00">ePub3/utilities/string</text>
<text text-anchor="middle" x="532.591" y="-297" font-family="Helvetica,sans-Serif" font-size="10.00">_view.h</text>
</a>
</g>
</g>
<!-- Node5&#45;&gt;Node18 -->
<g id="edge18" class="edge"><title>Node5&#45;&gt;Node18</title>
<path fill="none" stroke="midnightblue" d="M532.591,-360.852C532.591,-353.629 532.591,-343.185 532.591,-333.486"/>
<polygon fill="midnightblue" stroke="midnightblue" points="536.092,-333.44 532.591,-323.44 529.092,-333.44 536.092,-333.44"/>
</g>
<!-- Node20 -->
<g id="node20" class="node"><title>Node20</title>
<polygon fill="white" stroke="#bfbfbf" points="800.365,-233 800.365,-253 840.818,-253 840.818,-233 800.365,-233"/>
<text text-anchor="middle" x="820.591" y="-239" font-family="Helvetica,sans-Serif" font-size="10.00">string</text>
</g>
<!-- Node5&#45;&gt;Node20 -->
<g id="edge27" class="edge"><title>Node5&#45;&gt;Node20</title>
<path fill="none" stroke="midnightblue" d="M595.271,-361.574C631.165,-354.932 676.165,-343.432 712.591,-324 732.587,-313.334 732.628,-303.816 750.591,-290 765.295,-278.691 782.726,-267.23 796.515,-258.578"/>
<polygon fill="midnightblue" stroke="midnightblue" points="798.744,-261.314 805.402,-253.072 795.058,-255.364 798.744,-261.314"/>
</g>
<!-- Node25 -->
<g id="node25" class="node"><title>Node25</title>
<polygon fill="white" stroke="#bfbfbf" points="316.03,-297 316.03,-317 363.153,-317 363.153,-297 316.03,-297"/>
<text text-anchor="middle" x="339.591" y="-303" font-family="Helvetica,sans-Serif" font-size="10.00">iterator</text>
</g>
<!-- Node5&#45;&gt;Node25 -->
<g id="edge28" class="edge"><title>Node5&#45;&gt;Node25</title>
<path fill="none" stroke="midnightblue" d="M494.165,-360.928C461.372,-352.719 413.214,-339.555 372.591,-324 370.466,-323.186 368.29,-322.287 366.12,-321.344"/>
<polygon fill="midnightblue" stroke="midnightblue" points="367.359,-318.06 356.814,-317.039 364.421,-324.414 367.359,-318.06"/>
</g>
<!-- Node26 -->
<g id="node26" class="node"><title>Node26</title>
<polygon fill="white" stroke="#bfbfbf" points="381.527,-297 381.527,-317 423.655,-317 423.655,-297 381.527,-297"/>
<text text-anchor="middle" x="402.591" y="-303" font-family="Helvetica,sans-Serif" font-size="10.00">locale</text>
</g>
<!-- Node5&#45;&gt;Node26 -->
<g id="edge29" class="edge"><title>Node5&#45;&gt;Node26</title>
<path fill="none" stroke="midnightblue" d="M513.688,-360.985C491.833,-350.561 455.654,-333.307 430.545,-321.332"/>
<polygon fill="midnightblue" stroke="midnightblue" points="432.05,-318.172 421.517,-317.026 429.037,-324.49 432.05,-318.172"/>
</g>
<!-- Node5&#45;&gt;Node15 -->
<g id="edge30" class="edge"><title>Node5&#45;&gt;Node15</title>
<path fill="none" stroke="midnightblue" d="M469.769,-361.23C466.666,-360.811 463.594,-360.399 460.591,-360 334.467,-343.248 288.911,-383.77 176.591,-324 162.478,-316.49 135.408,-282.505 119.381,-261.319"/>
<polygon fill="midnightblue" stroke="midnightblue" points="122.053,-259.047 113.259,-253.137 116.448,-263.24 122.053,-259.047"/>
</g>
<!-- Node27 -->
<g id="node27" class="node"><title>Node27</title>
<polygon fill="white" stroke="#bfbfbf" points="603.358,-297 603.358,-317 703.825,-317 703.825,-297 603.358,-297"/>
<text text-anchor="middle" x="653.591" y="-303" font-family="Helvetica,sans-Serif" font-size="10.00">REGEX_INCLUDE</text>
</g>
<!-- Node5&#45;&gt;Node27 -->
<g id="edge31" class="edge"><title>Node5&#45;&gt;Node27</title>
<path fill="none" stroke="midnightblue" d="M550.186,-360.985C570.349,-350.653 603.61,-333.61 626.953,-321.65"/>
<polygon fill="midnightblue" stroke="midnightblue" points="628.672,-324.701 635.976,-317.026 625.48,-318.472 628.672,-324.701"/>
</g>
<!-- Node28 -->
<g id="node28" class="node"><title>Node28</title>
<polygon fill="white" stroke="#bfbfbf" points="15.8648,-297 15.8648,-317 51.318,-317 51.318,-297 15.8648,-297"/>
<text text-anchor="middle" x="33.5914" y="-303" font-family="Helvetica,sans-Serif" font-size="10.00">map</text>
</g>
<!-- Node5&#45;&gt;Node28 -->
<g id="edge32" class="edge"><title>Node5&#45;&gt;Node28</title>
<path fill="none" stroke="midnightblue" d="M469.785,-361.095C466.678,-360.712 463.601,-360.344 460.591,-360 283.251,-339.716 230.451,-378.852 60.5914,-324 58.8803,-323.447 57.1617,-322.771 55.466,-322.013"/>
<polygon fill="midnightblue" stroke="midnightblue" points="56.6823,-318.694 46.2152,-317.054 53.3749,-324.863 56.6823,-318.694"/>
</g>
<!-- Node29 -->
<g id="node29" class="node"><title>Node29</title>
<polygon fill="white" stroke="#bfbfbf" points="889.19,-297 889.19,-317 947.993,-317 947.993,-297 889.19,-297"/>
<text text-anchor="middle" x="918.591" y="-303" font-family="Helvetica,sans-Serif" font-size="10.00">stdexcept</text>
</g>
<!-- Node5&#45;&gt;Node29 -->
<g id="edge33" class="edge"><title>Node5&#45;&gt;Node29</title>
<path fill="none" stroke="midnightblue" d="M595.275,-366.555C665.504,-361.58 782.265,-349.949 879.591,-324 882.844,-323.133 886.187,-322.061 889.483,-320.885"/>
<polygon fill="midnightblue" stroke="midnightblue" points="891.039,-324.036 899.092,-317.15 888.503,-317.511 891.039,-324.036"/>
</g>
<!-- Node21 -->
<g id="node21" class="node"><title>Node21</title>
<polygon fill="white" stroke="#bfbfbf" points="424.205,-233 424.205,-253 462.978,-253 462.978,-233 424.205,-233"/>
<text text-anchor="middle" x="443.591" y="-239" font-family="Helvetica,sans-Serif" font-size="10.00">limits</text>
</g>
<!-- Node5&#45;&gt;Node21 -->
<g id="edge34" class="edge"><title>Node5&#45;&gt;Node21</title>
<path fill="none" stroke="midnightblue" d="M515.029,-360.911C501.16,-352.908 482.262,-340.04 470.591,-324 457.292,-305.72 450.217,-280.432 446.695,-263.213"/>
<polygon fill="midnightblue" stroke="midnightblue" points="450.108,-262.423 444.863,-253.218 443.223,-263.685 450.108,-262.423"/>
</g>
<!-- Node30 -->
<g id="node30" class="node"><title>Node30</title>
<polygon fill="white" stroke="#bfbfbf" points="69.3526,-297 69.3526,-317 129.83,-317 129.83,-297 69.3526,-297"/>
<text text-anchor="middle" x="99.5914" y="-303" font-family="Helvetica,sans-Serif" font-size="10.00">utf8/utf8.h</text>
</g>
<!-- Node5&#45;&gt;Node30 -->
<g id="edge35" class="edge"><title>Node5&#45;&gt;Node30</title>
<path fill="none" stroke="midnightblue" d="M469.775,-361.182C466.671,-360.775 463.596,-360.379 460.591,-360 319.913,-342.245 281.622,-356.454 143.591,-324 139.408,-323.016 135.075,-321.756 130.834,-320.376"/>
<polygon fill="midnightblue" stroke="midnightblue" points="131.81,-317.01 121.216,-317.012 129.499,-323.617 131.81,-317.01"/>
</g>
<!-- Node7 -->
<g id="node7" class="node"><title>Node7</title>
<g id="a_node7"><a xlink:href="base_8h.xhtml" target="_top" xlink:title="ePub3/base.h">
<polygon fill="white" stroke="black" points="851.732,-175 851.732,-195 929.451,-195 929.451,-175 851.732,-175"/>
<text text-anchor="middle" x="890.591" y="-181" font-family="Helvetica,sans-Serif" font-size="10.00">ePub3/base.h</text>
</a>
</g>
</g>
<!-- Node6&#45;&gt;Node7 -->
<g id="edge6" class="edge"><title>Node6&#45;&gt;Node7</title>
<path fill="none" stroke="midnightblue" d="M268.456,-296.957C296.051,-287.368 340.017,-271.247 376.591,-254 394.591,-245.512 396.605,-237.962 415.591,-232 576.599,-181.439 625.655,-212.653 793.591,-196 809.059,-194.466 825.908,-192.746 841.159,-191.171"/>
<polygon fill="midnightblue" stroke="midnightblue" points="841.839,-194.619 851.425,-190.108 841.118,-187.657 841.839,-194.619"/>
</g>
<!-- Node12 -->
<g id="node12" class="node"><title>Node12</title>
<polygon fill="white" stroke="#bfbfbf" points="184.407,-233 184.407,-253 298.776,-253 298.776,-233 184.407,-233"/>
<text text-anchor="middle" x="241.591" y="-239" font-family="Helvetica,sans-Serif" font-size="10.00">ePub3/xml/xmlstring.h</text>
</g>
<!-- Node6&#45;&gt;Node12 -->
<g id="edge11" class="edge"><title>Node6&#45;&gt;Node12</title>
<path fill="none" stroke="midnightblue" d="M241.591,-296.852C241.591,-288.06 241.591,-274.498 241.591,-263.313"/>
<polygon fill="midnightblue" stroke="midnightblue" points="245.092,-263.186 241.591,-253.186 238.092,-263.186 245.092,-263.186"/>
</g>
<!-- Node13 -->
<g id="node13" class="node"><title>Node13</title>
<polygon fill="white" stroke="#bfbfbf" points="316.811,-233 316.811,-253 368.372,-253 368.372,-233 316.811,-233"/>
<text text-anchor="middle" x="342.591" y="-239" font-family="Helvetica,sans-Serif" font-size="10.00">sstream</text>
</g>
<!-- Node6&#45;&gt;Node13 -->
<g id="edge12" class="edge"><title>Node6&#45;&gt;Node13</title>
<path fill="none" stroke="midnightblue" d="M256.494,-296.852C272.979,-286.732 299.761,-270.292 319.08,-258.432"/>
<polygon fill="midnightblue" stroke="midnightblue" points="320.936,-261.4 327.627,-253.186 317.274,-255.435 320.936,-261.4"/>
</g>
<!-- Node14 -->
<g id="node14" class="node"><title>Node14</title>
<polygon fill="white" stroke="#bfbfbf" points="732.535,-175 732.535,-195 784.648,-195 784.648,-175 732.535,-175"/>
<text text-anchor="middle" x="758.591" y="-181" font-family="Helvetica,sans-Serif" font-size="10.00">memory</text>
</g>
<!-- Node6&#45;&gt;Node14 -->
<g id="edge13" class="edge"><title>Node6&#45;&gt;Node14</title>
<path fill="none" stroke="midnightblue" d="M222.905,-296.793C196.656,-282.704 154.326,-255.009 175.591,-232 212.717,-191.83 600.451,-186.693 722.215,-186.073"/>
<polygon fill="midnightblue" stroke="midnightblue" points="722.511,-189.572 732.496,-186.029 722.481,-182.572 722.511,-189.572"/>
</g>
<!-- Node6&#45;&gt;Node15 -->
<g id="edge14" class="edge"><title>Node6&#45;&gt;Node15</title>
<path fill="none" stroke="midnightblue" d="M221.961,-296.985C199.266,-286.561 161.694,-269.307 135.62,-257.332"/>
<polygon fill="midnightblue" stroke="midnightblue" points="136.793,-254.019 126.245,-253.026 133.872,-260.38 136.793,-254.019"/>
</g>
<!-- Node16 -->
<g id="node16" class="node"><title>Node16</title>
<polygon fill="white" stroke="#bfbfbf" points="629.091,-233 629.091,-253 658.091,-253 658.091,-233 629.091,-233"/>
<text text-anchor="middle" x="643.202" y="-239" font-family="Helvetica,sans-Serif" font-size="10.00">list</text>
</g>
<!-- Node6&#45;&gt;Node16 -->
<g id="edge15" class="edge"><title>Node6&#45;&gt;Node16</title>
<path fill="none" stroke="midnightblue" d="M274.819,-296.961C284.961,-294.435 296.183,-291.872 306.591,-290 441.179,-265.796 482.166,-288.173 618.828,-253.502"/>
<polygon fill="midnightblue" stroke="midnightblue" points="620.035,-256.804 628.836,-250.905 618.277,-250.029 620.035,-256.804"/>
</g>
<!-- Node8 -->
<g id="node8" class="node"><title>Node8</title>
<g id="a_node8"><a xlink:href="__config_8h.xhtml" target="_top" xlink:title="_config.h">
<polygon fill="white" stroke="black" points="1415.3,-117 1415.3,-137 1471.88,-137 1471.88,-117 1415.3,-117"/>
<text text-anchor="middle" x="1443.59" y="-123" font-family="Helvetica,sans-Serif" font-size="10.00">_config.h</text>
</a>
</g>
</g>
<!-- Node7&#45;&gt;Node8 -->
<g id="edge7" class="edge"><title>Node7&#45;&gt;Node8</title>
<path fill="none" stroke="midnightblue" d="M929.612,-178.184C939.993,-176.724 951.207,-175.226 961.591,-174 1126.17,-154.566 1323.12,-137.784 1404.98,-131.094"/>
<polygon fill="midnightblue" stroke="midnightblue" points="1405.61,-134.554 1415.29,-130.255 1405.04,-127.577 1405.61,-134.554"/>
</g>
<!-- Node11 -->
<g id="node11" class="node"><title>Node11</title>
<polygon fill="white" stroke="#bfbfbf" points="866.749,-117 866.749,-137 914.434,-137 914.434,-117 866.749,-117"/>
<text text-anchor="middle" x="890.591" y="-123" font-family="Helvetica,sans-Serif" font-size="10.00">stdlib.h</text>
</g>
<!-- Node7&#45;&gt;Node11 -->
<g id="edge10" class="edge"><title>Node7&#45;&gt;Node11</title>
<path fill="none" stroke="midnightblue" d="M890.591,-174.753C890.591,-167.25 890.591,-156.424 890.591,-147.078"/>
<polygon fill="midnightblue" stroke="midnightblue" points="894.092,-147.075 890.591,-137.075 887.092,-147.075 894.092,-147.075"/>
</g>
<!-- Node9 -->
<g id="node9" class="node"><title>Node9</title>
<g id="a_node9"><a xlink:href="__platform_8h.xhtml" target="_top" xlink:title="_platform.h">
<polygon fill="white" stroke="black" points="1410.58,-59 1410.58,-79 1476.6,-79 1476.6,-59 1410.58,-59"/>
<text text-anchor="middle" x="1443.59" y="-65" font-family="Helvetica,sans-Serif" font-size="10.00">_platform.h</text>
</a>
</g>
</g>
<!-- Node8&#45;&gt;Node9 -->
<g id="edge8" class="edge"><title>Node8&#45;&gt;Node9</title>
<path fill="none" stroke="midnightblue" d="M1443.59,-116.753C1443.59,-109.25 1443.59,-98.4238 1443.59,-89.0781"/>
<polygon fill="midnightblue" stroke="midnightblue" points="1447.09,-89.0752 1443.59,-79.0752 1440.09,-89.0752 1447.09,-89.0752"/>
</g>
<!-- Node10 -->
<g id="node10" class="node"><title>Node10</title>
<g id="a_node10"><a xlink:href="__compiler_8h.xhtml" target="_top" xlink:title="_compiler.h">
<polygon fill="white" stroke="black" points="1410.02,-1 1410.02,-21 1477.16,-21 1477.16,-1 1410.02,-1"/>
<text text-anchor="middle" x="1443.59" y="-7" font-family="Helvetica,sans-Serif" font-size="10.00">_compiler.h</text>
</a>
</g>
</g>
<!-- Node9&#45;&gt;Node10 -->
<g id="edge9" class="edge"><title>Node9&#45;&gt;Node10</title>
<path fill="none" stroke="midnightblue" d="M1443.59,-58.7527C1443.59,-51.2504 1443.59,-40.4238 1443.59,-31.0781"/>
<polygon fill="midnightblue" stroke="midnightblue" points="1447.09,-31.0752 1443.59,-21.0752 1440.09,-31.0752 1447.09,-31.0752"/>
</g>
<!-- Node17&#45;&gt;Node7 -->
<g id="edge17" class="edge"><title>Node17&#45;&gt;Node7</title>
<path fill="none" stroke="midnightblue" d="M825.857,-290.623C832.681,-280.322 841.789,-266.422 849.591,-254 860.094,-237.279 871.679,-217.982 879.847,-204.226"/>
<polygon fill="midnightblue" stroke="midnightblue" points="883.046,-205.693 885.127,-195.304 877.022,-202.128 883.046,-205.693"/>
</g>
<!-- Node19 -->
<g id="node19" class="node"><title>Node19</title>
<polygon fill="white" stroke="#bfbfbf" points="970.525,-175 970.525,-195 1032.66,-195 1032.66,-175 970.525,-175"/>
<text text-anchor="middle" x="1001.59" y="-181" font-family="Helvetica,sans-Serif" font-size="10.00">type_traits</text>
</g>
<!-- Node18&#45;&gt;Node19 -->
<g id="edge19" class="edge"><title>Node18&#45;&gt;Node19</title>
<path fill="none" stroke="midnightblue" d="M585.665,-292.192C588.683,-291.442 591.674,-290.706 594.591,-290 665.011,-272.946 686.137,-280.453 753.591,-254 771.759,-246.875 773.398,-239.061 791.591,-232 821.927,-220.226 908.37,-203.149 960.41,-193.456"/>
<polygon fill="midnightblue" stroke="midnightblue" points="961.136,-196.882 970.332,-191.62 959.862,-189.998 961.136,-196.882"/>
</g>
<!-- Node18&#45;&gt;Node20 -->
<g id="edge20" class="edge"><title>Node18&#45;&gt;Node20</title>
<path fill="none" stroke="midnightblue" d="M585.635,-292.061C588.66,-291.344 591.662,-290.652 594.591,-290 679.339,-271.142 702.172,-274.275 786.591,-254 787.837,-253.701 789.104,-253.384 790.382,-253.055"/>
<polygon fill="midnightblue" stroke="midnightblue" points="791.468,-256.387 800.185,-250.364 789.615,-249.636 791.468,-256.387"/>
</g>
<!-- Node18&#45;&gt;Node21 -->
<g id="edge21" class="edge"><title>Node18&#45;&gt;Node21</title>
<path fill="none" stroke="midnightblue" d="M511.047,-290.992C497.121,-281.29 479.064,-268.711 465.137,-259.009"/>
<polygon fill="midnightblue" stroke="midnightblue" points="466.873,-255.953 456.667,-253.109 462.872,-261.697 466.873,-255.953"/>
</g>
<!-- Node22 -->
<g id="node22" class="node"><title>Node22</title>
<polygon fill="white" stroke="#bfbfbf" points="481.419,-233 481.419,-253 535.764,-253 535.764,-233 481.419,-233"/>
<text text-anchor="middle" x="508.591" y="-239" font-family="Helvetica,sans-Serif" font-size="10.00">iostream</text>
</g>
<!-- Node18&#45;&gt;Node22 -->
<g id="edge22" class="edge"><title>Node18&#45;&gt;Node22</title>
<path fill="none" stroke="midnightblue" d="M526.782,-290.992C523.511,-282.543 519.396,-271.912 515.907,-262.899"/>
<polygon fill="midnightblue" stroke="midnightblue" points="519.062,-261.353 512.188,-253.29 512.534,-263.88 519.062,-261.353"/>
</g>
<!-- Node23 -->
<g id="node23" class="node"><title>Node23</title>
<polygon fill="white" stroke="#bfbfbf" points="554.027,-233 554.027,-253 611.155,-253 611.155,-233 554.027,-233"/>
<text text-anchor="middle" x="582.591" y="-239" font-family="Helvetica,sans-Serif" font-size="10.00">algorithm</text>
</g>
<!-- Node18&#45;&gt;Node23 -->
<g id="edge23" class="edge"><title>Node18&#45;&gt;Node23</title>
<path fill="none" stroke="midnightblue" d="M544.695,-290.992C551.953,-281.992 561.208,-270.516 568.755,-261.157"/>
<polygon fill="midnightblue" stroke="midnightblue" points="571.546,-263.272 575.099,-253.29 566.097,-258.877 571.546,-263.272"/>
</g>
<!-- Node24 -->
<g id="node24" class="node"><title>Node24</title>
<g id="a_node24"><a xlink:href="____strhash_8h.xhtml" target="_top" xlink:title="__strhash.h">
<polygon fill="white" stroke="black" points="676.463,-233 676.463,-253 744.719,-253 744.719,-233 676.463,-233"/>
<text text-anchor="middle" x="710.591" y="-239" font-family="Helvetica,sans-Serif" font-size="10.00">__strhash.h</text>
</a>
</g>
</g>
<!-- Node18&#45;&gt;Node24 -->
<g id="edge24" class="edge"><title>Node18&#45;&gt;Node24</title>
<path fill="none" stroke="midnightblue" d="M575.68,-290.992C606.145,-280.38 646.493,-266.327 675.104,-256.361"/>
<polygon fill="midnightblue" stroke="midnightblue" points="676.408,-259.613 684.7,-253.018 674.105,-253.003 676.408,-259.613"/>
</g>
<!-- Node24&#45;&gt;Node7 -->
<g id="edge25" class="edge"><title>Node24&#45;&gt;Node7</title>
<path fill="none" stroke="midnightblue" d="M739.912,-232.878C770.337,-223.413 818.078,-208.56 851.652,-198.115"/>
<polygon fill="midnightblue" stroke="midnightblue" points="853.073,-201.338 861.581,-195.025 850.993,-194.654 853.073,-201.338"/>
</g>
<!-- Node24&#45;&gt;Node14 -->
<g id="edge26" class="edge"><title>Node24&#45;&gt;Node14</title>
<path fill="none" stroke="midnightblue" d="M718.518,-232.753C725.507,-224.598 735.864,-212.516 744.297,-202.677"/>
<polygon fill="midnightblue" stroke="midnightblue" points="746.962,-204.946 750.813,-195.075 741.647,-200.39 746.962,-204.946"/>
</g>
<!-- Node31&#45;&gt;Node14 -->
<g id="edge37" class="edge"><title>Node31&#45;&gt;Node14</title>
<path fill="none" stroke="midnightblue" d="M962.279,-232.94C915.921,-222.257 839.513,-204.649 794.629,-194.305"/>
<polygon fill="midnightblue" stroke="midnightblue" points="795.273,-190.862 784.743,-192.027 793.701,-197.683 795.273,-190.862"/>
</g>
<!-- Node31&#45;&gt;Node19 -->
<g id="edge38" class="edge"><title>Node31&#45;&gt;Node19</title>
<path fill="none" stroke="midnightblue" d="M1001.59,-232.753C1001.59,-225.25 1001.59,-214.424 1001.59,-205.078"/>
<polygon fill="midnightblue" stroke="midnightblue" points="1005.09,-205.075 1001.59,-195.075 998.092,-205.075 1005.09,-205.075"/>
</g>
<!-- Node34&#45;&gt;Node7 -->
<g id="edge43" class="edge"><title>Node34&#45;&gt;Node7</title>
<path fill="none" stroke="midnightblue" d="M1223.4,-360.941C1203.25,-336.172 1143.33,-266.855 1077.59,-232 1053.93,-219.451 986.619,-204.589 939.577,-195.226"/>
<polygon fill="midnightblue" stroke="midnightblue" points="940.062,-191.755 929.575,-193.257 938.71,-198.623 940.062,-191.755"/>
</g>
<!-- Node34&#45;&gt;Node16 -->
<g id="edge44" class="edge"><title>Node34&#45;&gt;Node16</title>
<path fill="none" stroke="midnightblue" d="M1172.89,-363.053C1111.98,-355.009 1020.57,-340.702 989.591,-324 971.055,-314.007 975.441,-299.389 956.591,-290 840.731,-232.29 792.699,-287.196 667.591,-254 667.493,-253.974 667.395,-253.948 667.297,-253.921"/>
<polygon fill="midnightblue" stroke="midnightblue" points="668.69,-250.698 658.096,-250.78 666.429,-257.323 668.69,-250.698"/>
</g>
<!-- Node34&#45;&gt;Node20 -->
<g id="edge45" class="edge"><title>Node34&#45;&gt;Node20</title>
<path fill="none" stroke="midnightblue" d="M1172.98,-362.186C1133.6,-355.441 1080.89,-343.606 1037.59,-324 1013.78,-313.217 1013.23,-301.16 989.591,-290 943.614,-268.297 885.602,-255.321 850.89,-248.93"/>
<polygon fill="midnightblue" stroke="midnightblue" points="851.362,-245.46 840.904,-247.156 850.137,-252.352 851.362,-245.46"/>
</g>
<!-- Node34&#45;&gt;Node29 -->
<g id="edge46" class="edge"><title>Node34&#45;&gt;Node29</title>
<path fill="none" stroke="midnightblue" d="M1172.98,-363.318C1118.05,-356.206 1033.31,-343.293 961.591,-324 957.914,-323.011 954.11,-321.833 950.355,-320.571"/>
<polygon fill="midnightblue" stroke="midnightblue" points="951.247,-317.173 940.652,-317.109 948.894,-323.766 951.247,-317.173"/>
</g>
<!-- Node35 -->
<g id="node35" class="node"><title>Node35</title>
<polygon fill="white" stroke="#bfbfbf" points="1296.19,-297 1296.19,-317 1355,-317 1355,-297 1296.19,-297"/>
<text text-anchor="middle" x="1325.59" y="-303" font-family="Helvetica,sans-Serif" font-size="10.00">exception</text>
</g>
<!-- Node34&#45;&gt;Node35 -->
<g id="edge47" class="edge"><title>Node34&#45;&gt;Node35</title>
<path fill="none" stroke="midnightblue" d="M1244.61,-360.852C1259.9,-350.87 1284.62,-334.737 1302.73,-322.918"/>
<polygon fill="midnightblue" stroke="midnightblue" points="1305.05,-325.582 1311.52,-317.186 1301.23,-319.72 1305.05,-325.582"/>
</g>
<!-- Node36 -->
<g id="node36" class="node"><title>Node36</title>
<polygon fill="white" stroke="#bfbfbf" points="1845.42,-297 1845.42,-317 1919.76,-317 1919.76,-297 1845.42,-297"/>
<text text-anchor="middle" x="1882.59" y="-303" font-family="Helvetica,sans-Serif" font-size="10.00">system_error</text>
</g>
<!-- Node34&#45;&gt;Node36 -->
<g id="edge48" class="edge"><title>Node34&#45;&gt;Node36</title>
<path fill="none" stroke="midnightblue" d="M1288.4,-370.42C1396.84,-370.149 1637.71,-364.525 1835.59,-324 1840.3,-323.035 1845.2,-321.73 1849.97,-320.279"/>
<polygon fill="midnightblue" stroke="midnightblue" points="1851.07,-323.6 1859.48,-317.16 1848.89,-316.948 1851.07,-323.6"/>
</g>
<!-- Node37 -->
<g id="node37" class="node"><title>Node37</title>
<polygon fill="white" stroke="#bfbfbf" points="1226.41,-233 1226.41,-253 1270.77,-253 1270.77,-233 1226.41,-233"/>
<text text-anchor="middle" x="1248.59" y="-239" font-family="Helvetica,sans-Serif" font-size="10.00">thread</text>
</g>
<!-- Node34&#45;&gt;Node37 -->
<g id="edge49" class="edge"><title>Node34&#45;&gt;Node37</title>
<path fill="none" stroke="midnightblue" d="M1231.89,-360.938C1234.79,-340.605 1241.88,-290.968 1245.83,-263.348"/>
<polygon fill="midnightblue" stroke="midnightblue" points="1249.31,-263.714 1247.26,-253.319 1242.38,-262.724 1249.31,-263.714"/>
</g>
<!-- Node34&#45;&gt;Node14 -->
<g id="edge50" class="edge"><title>Node34&#45;&gt;Node14</title>
<path fill="none" stroke="midnightblue" d="M1208.46,-360.977C1171.27,-345.877 1093.78,-314.712 1027.59,-290 982.554,-273.184 970.533,-271.07 925.591,-254 877.721,-235.818 822.842,-213.108 789.456,-199.08"/>
<polygon fill="midnightblue" stroke="midnightblue" points="790.391,-195.676 779.817,-195.02 787.674,-202.127 790.391,-195.676"/>
</g>
<!-- Node38 -->
<g id="node38" class="node"><title>Node38</title>
<polygon fill="white" stroke="#bfbfbf" points="1288.86,-233 1288.86,-253 1334.32,-253 1334.32,-233 1288.86,-233"/>
<text text-anchor="middle" x="1311.59" y="-239" font-family="Helvetica,sans-Serif" font-size="10.00">atomic</text>
</g>
<!-- Node34&#45;&gt;Node38 -->
<g id="edge51" class="edge"><title>Node34&#45;&gt;Node38</title>
<path fill="none" stroke="midnightblue" d="M1236.42,-360.938C1249.72,-340.243 1282.54,-289.194 1300.09,-261.896"/>
<polygon fill="midnightblue" stroke="midnightblue" points="1303.14,-263.624 1305.6,-253.319 1297.25,-259.839 1303.14,-263.624"/>
</g>
<!-- Node39 -->
<g id="node39" class="node"><title>Node39</title>
<g id="a_node39"><a xlink:href="invoke_8h.xhtml" target="_top" xlink:title="ePub3/utilities/invoke.h">
<polygon fill="white" stroke="black" points="1352.45,-233 1352.45,-253 1470.73,-253 1470.73,-233 1352.45,-233"/>
<text text-anchor="middle" x="1411.59" y="-239" font-family="Helvetica,sans-Serif" font-size="10.00">ePub3/utilities/invoke.h</text>
</a>
</g>
</g>
<!-- Node34&#45;&gt;Node39 -->
<g id="edge52" class="edge"><title>Node34&#45;&gt;Node39</title>
<path fill="none" stroke="midnightblue" d="M1282.09,-360.986C1308.64,-354.294 1340.26,-342.936 1363.59,-324 1383.67,-307.705 1397.38,-280.617 1404.85,-262.538"/>
<polygon fill="midnightblue" stroke="midnightblue" points="1408.16,-263.672 1408.53,-253.083 1401.64,-261.133 1408.16,-263.672"/>
</g>
<!-- Node41 -->
<g id="node41" class="node"><title>Node41</title>
<g id="a_node41"><a xlink:href="executor_8h.xhtml" target="_top" xlink:title="ePub3/utilities/executor.h">
<polygon fill="white" stroke="black" points="1448,-297 1448,-317 1575.18,-317 1575.18,-297 1448,-297"/>
<text text-anchor="middle" x="1511.59" y="-303" font-family="Helvetica,sans-Serif" font-size="10.00">ePub3/utilities/executor.h</text>
</a>
</g>
</g>
<!-- Node34&#45;&gt;Node41 -->
<g id="edge56" class="edge"><title>Node34&#45;&gt;Node41</title>
<path fill="none" stroke="midnightblue" d="M1271.45,-360.985C1321.5,-349.942 1406.31,-331.23 1460.59,-319.254"/>
<polygon fill="midnightblue" stroke="midnightblue" points="1461.67,-322.599 1470.68,-317.026 1460.16,-315.763 1461.67,-322.599"/>
</g>
<!-- Node47 -->
<g id="node47" class="node"><title>Node47</title>
<g id="a_node47"><a xlink:href="condition__variable__any_8h.xhtml" target="_top" xlink:title="ePub3/utilities/condition\l_variable_any.h">
<polygon fill="white" stroke="black" points="1706.06,-291 1706.06,-323 1827.13,-323 1827.13,-291 1706.06,-291"/>
<text text-anchor="start" x="1714.06" y="-309" font-family="Helvetica,sans-Serif" font-size="10.00">ePub3/utilities/condition</text>
<text text-anchor="middle" x="1766.59" y="-297" font-family="Helvetica,sans-Serif" font-size="10.00">_variable_any.h</text>
</a>
</g>
</g>
<!-- Node34&#45;&gt;Node47 -->
<g id="edge67" class="edge"><title>Node34&#45;&gt;Node47</title>
<path fill="none" stroke="midnightblue" d="M1288.21,-363.335C1387.09,-351.898 1588.77,-328.569 1695.96,-316.17"/>
<polygon fill="midnightblue" stroke="midnightblue" points="1696.5,-319.631 1706.03,-315.005 1695.69,-312.678 1696.5,-319.631"/>
</g>
<!-- Node39&#45;&gt;Node7 -->
<g id="edge53" class="edge"><title>Node39&#45;&gt;Node7</title>
<path fill="none" stroke="midnightblue" d="M1352.15,-233.194C1348.92,-232.775 1345.72,-232.374 1342.59,-232 1173.71,-211.796 1130.51,-215.866 961.591,-196 954.452,-195.16 946.92,-194.191 939.537,-193.192"/>
<polygon fill="midnightblue" stroke="midnightblue" points="939.996,-189.723 929.612,-191.823 939.039,-196.657 939.996,-189.723"/>
</g>
<!-- Node39&#45;&gt;Node19 -->
<g id="edge54" class="edge"><title>Node39&#45;&gt;Node19</title>
<path fill="none" stroke="midnightblue" d="M1352.13,-233.344C1348.9,-232.887 1345.71,-232.436 1342.59,-232 1234.71,-216.907 1107.5,-199.976 1043.24,-191.484"/>
<polygon fill="midnightblue" stroke="midnightblue" points="1043.48,-187.985 1033.1,-190.146 1042.56,-194.925 1043.48,-187.985"/>
</g>
<!-- Node40 -->
<g id="node40" class="node"><title>Node40</title>
<polygon fill="white" stroke="#bfbfbf" points="1521.19,-175 1521.19,-195 1580,-195 1580,-175 1521.19,-175"/>
<text text-anchor="middle" x="1550.59" y="-181" font-family="Helvetica,sans-Serif" font-size="10.00">functional</text>
</g>
<!-- Node39&#45;&gt;Node40 -->
<g id="edge55" class="edge"><title>Node39&#45;&gt;Node40</title>
<path fill="none" stroke="midnightblue" d="M1434.23,-232.878C1457.15,-223.644 1492.8,-209.283 1518.6,-198.889"/>
<polygon fill="midnightblue" stroke="midnightblue" points="1519.99,-202.102 1527.96,-195.118 1517.38,-195.609 1519.99,-202.102"/>
</g>
<!-- Node41&#45;&gt;Node2 -->
<g id="edge57" class="edge"><title>Node41&#45;&gt;Node2</title>
<path fill="none" stroke="midnightblue" d="M1458.96,-296.994C1402.16,-287.207 1308.78,-270.92 1218.46,-254.138"/>
<polygon fill="midnightblue" stroke="midnightblue" points="1219.08,-250.692 1208.6,-252.302 1217.79,-257.574 1219.08,-250.692"/>
</g>
<!-- Node41&#45;&gt;Node40 -->
<g id="edge58" class="edge"><title>Node41&#45;&gt;Node40</title>
<path fill="none" stroke="midnightblue" d="M1575.52,-302.621C1609.93,-297.145 1649.7,-284.129 1671.59,-254 1695.77,-220.721 1633.9,-201.588 1589.99,-192.533"/>
<polygon fill="midnightblue" stroke="midnightblue" points="1590.59,-189.084 1580.11,-190.599 1589.25,-195.954 1590.59,-189.084"/>
</g>
<!-- Node42 -->
<g id="node42" class="node"><title>Node42</title>
<polygon fill="white" stroke="#bfbfbf" points="1488.3,-233 1488.3,-253 1534.88,-253 1534.88,-233 1488.3,-233"/>
<text text-anchor="middle" x="1511.59" y="-239" font-family="Helvetica,sans-Serif" font-size="10.00">chrono</text>
</g>
<!-- Node41&#45;&gt;Node42 -->
<g id="edge59" class="edge"><title>Node41&#45;&gt;Node42</title>
<path fill="none" stroke="midnightblue" d="M1511.59,-296.852C1511.59,-288.06 1511.59,-274.498 1511.59,-263.313"/>
<polygon fill="midnightblue" stroke="midnightblue" points="1515.09,-263.186 1511.59,-253.186 1508.09,-263.186 1515.09,-263.186"/>
</g>
<!-- Node43 -->
<g id="node43" class="node"><title>Node43</title>
<polygon fill="white" stroke="#bfbfbf" points="1552.69,-233 1552.69,-253 1596.5,-253 1596.5,-233 1552.69,-233"/>
<text text-anchor="middle" x="1574.59" y="-239" font-family="Helvetica,sans-Serif" font-size="10.00">queue</text>
</g>
<!-- Node41&#45;&gt;Node43 -->
<g id="edge60" class="edge"><title>Node41&#45;&gt;Node43</title>
<path fill="none" stroke="midnightblue" d="M1520.89,-296.852C1530.66,-287.236 1546.23,-271.913 1558.09,-260.236"/>
<polygon fill="midnightblue" stroke="midnightblue" points="1560.58,-262.695 1565.26,-253.186 1555.67,-257.706 1560.58,-262.695"/>
</g>
<!-- Node41&#45;&gt;Node38 -->
<g id="edge61" class="edge"><title>Node41&#45;&gt;Node38</title>
<path fill="none" stroke="midnightblue" d="M1482.15,-296.913C1450.5,-287.139 1398.46,-271.052 1344.41,-254.25"/>
<polygon fill="midnightblue" stroke="midnightblue" points="1345.25,-250.845 1334.66,-251.217 1343.17,-257.529 1345.25,-250.845"/>
</g>
<!-- Node44 -->
<g id="node44" class="node"><title>Node44</title>
<polygon fill="white" stroke="#bfbfbf" points="1832.98,-233 1832.98,-253 1876.21,-253 1876.21,-233 1832.98,-233"/>
<text text-anchor="middle" x="1854.59" y="-239" font-family="Helvetica,sans-Serif" font-size="10.00">mutex</text>
</g>
<!-- Node41&#45;&gt;Node44 -->
<g id="edge62" class="edge"><title>Node41&#45;&gt;Node44</title>
<path fill="none" stroke="midnightblue" d="M1575.19,-298.188C1636.4,-290.041 1731.63,-275.72 1822.75,-253.918"/>
<polygon fill="midnightblue" stroke="midnightblue" points="1823.8,-257.265 1832.69,-251.505 1822.15,-250.462 1823.8,-257.265"/>
</g>
<!-- Node41&#45;&gt;Node37 -->
<g id="edge63" class="edge"><title>Node41&#45;&gt;Node37</title>
<path fill="none" stroke="midnightblue" d="M1465.51,-296.967C1420.58,-287.874 1350.19,-272.858 1280.67,-254.124"/>
<polygon fill="midnightblue" stroke="midnightblue" points="1281.44,-250.705 1270.87,-251.456 1279.6,-257.46 1281.44,-250.705"/>
</g>
<!-- Node45 -->
<g id="node45" class="node"><title>Node45</title>
<polygon fill="white" stroke="#bfbfbf" points="1614.48,-233 1614.48,-253 1662.71,-253 1662.71,-233 1614.48,-233"/>
<text text-anchor="middle" x="1638.59" y="-239" font-family="Helvetica,sans-Serif" font-size="10.00">cassert</text>
</g>
<!-- Node41&#45;&gt;Node45 -->
<g id="edge64" class="edge"><title>Node41&#45;&gt;Node45</title>
<path fill="none" stroke="midnightblue" d="M1530.06,-296.985C1551.31,-286.607 1586.44,-269.458 1610.96,-257.49"/>
<polygon fill="midnightblue" stroke="midnightblue" points="1612.65,-260.559 1620.1,-253.026 1609.58,-254.268 1612.65,-260.559"/>
</g>
<!-- Node46 -->
<g id="node46" class="node"><title>Node46</title>
<polygon fill="white" stroke="#bfbfbf" points="1718.29,-233 1718.29,-253 1814.9,-253 1814.9,-233 1718.29,-233"/>
<text text-anchor="middle" x="1766.59" y="-239" font-family="Helvetica,sans-Serif" font-size="10.00">condition_variable</text>
</g>
<!-- Node41&#45;&gt;Node46 -->
<g id="edge65" class="edge"><title>Node41&#45;&gt;Node46</title>
<path fill="none" stroke="midnightblue" d="M1548.67,-296.985C1593.9,-285.988 1670.41,-267.386 1719.69,-255.404"/>
<polygon fill="midnightblue" stroke="midnightblue" points="1720.58,-258.79 1729.47,-253.026 1718.92,-251.988 1720.58,-258.79"/>
</g>
<!-- Node41&#45;&gt;Node39 -->
<g id="edge66" class="edge"><title>Node41&#45;&gt;Node39</title>
<path fill="none" stroke="midnightblue" d="M1496.84,-296.852C1480.59,-286.778 1454.24,-270.441 1435.13,-258.594"/>
<polygon fill="midnightblue" stroke="midnightblue" points="1436.75,-255.481 1426.41,-253.186 1433.06,-261.43 1436.75,-255.481"/>
</g>
<!-- Node47&#45;&gt;Node8 -->
<g id="edge68" class="edge"><title>Node47&#45;&gt;Node8</title>
<path fill="none" stroke="midnightblue" d="M1827.4,-291.451C1866.44,-279.164 1906.13,-259.207 1884.59,-232 1834.36,-168.549 1580,-139.911 1482.09,-131.114"/>
<polygon fill="midnightblue" stroke="midnightblue" points="1482.29,-127.618 1472.02,-130.23 1481.68,-134.591 1482.29,-127.618"/>
</g>
<!-- Node47&#45;&gt;Node44 -->
<g id="edge69" class="edge"><title>Node47&#45;&gt;Node44</title>
<path fill="none" stroke="midnightblue" d="M1787.89,-290.992C1801.66,-281.29 1819.52,-268.711 1833.29,-259.009"/>
<polygon fill="midnightblue" stroke="midnightblue" points="1835.5,-261.73 1841.66,-253.109 1831.47,-256.007 1835.5,-261.73"/>
</g>
<!-- Node47&#45;&gt;Node46 -->
<g id="edge70" class="edge"><title>Node47&#45;&gt;Node46</title>
<path fill="none" stroke="midnightblue" d="M1766.59,-290.992C1766.59,-282.726 1766.59,-272.373 1766.59,-263.489"/>
<polygon fill="midnightblue" stroke="midnightblue" points="1770.09,-263.29 1766.59,-253.29 1763.09,-263.29 1770.09,-263.29"/>
</g>
</g>
</svg>
