<?xml version="1.0" encoding="UTF-8" standalone="no"?>
<!DOCTYPE svg PUBLIC "-//W3C//DTD SVG 1.1//EN"
 "http://www.w3.org/Graphics/SVG/1.1/DTD/svg11.dtd">
<!-- Generated by graphviz version 2.30.0 (20130114.0426)
 -->
<!-- Title: /Users/rkwright/Documents/github/readium&#45;sdk&#45;D/ePub3/ePub/content_handler.cpp Pages: 1 -->
<svg width="2141pt" height="600pt"
 viewBox="0.00 0.00 2140.86 600.00" xmlns="http://www.w3.org/2000/svg" xmlns:xlink="http://www.w3.org/1999/xlink">
<g id="graph0" class="graph" transform="scale(1 1) rotate(0) translate(4 596)">
<title>/Users/rkwright/Documents/github/readium&#45;sdk&#45;D/ePub3/ePub/content_handler.cpp</title>
<polygon fill="white" stroke="white" points="-4,5 -4,-596 2137.86,-596 2137.86,5 -4,5"/>
<!-- Node1 -->
<g id="node1" class="node"><title>Node1</title>
<polygon fill="#bfbfbf" stroke="black" points="314.966,-547 314.966,-591 461.034,-591 461.034,-547 314.966,-547"/>
<text text-anchor="start" x="322.966" y="-577" font-family="Helvetica,sans-Serif" font-size="10.00">/Users/rkwright/Documents</text>
<text text-anchor="start" x="322.966" y="-565" font-family="Helvetica,sans-Serif" font-size="10.00">/github/readium&#45;sdk&#45;D/ePub3</text>
<text text-anchor="middle" x="388" y="-553" font-family="Helvetica,sans-Serif" font-size="10.00">/ePub/content_handler.cpp</text>
</g>
<!-- Node2 -->
<g id="node2" class="node"><title>Node2</title>
<g id="a_node2"><a xlink:href="content__handler_8h.xhtml" target="_top" xlink:title="content_handler.h">
<polygon fill="white" stroke="black" points="193.242,-489 193.242,-509 288.758,-509 288.758,-489 193.242,-489"/>
<text text-anchor="middle" x="241" y="-495" font-family="Helvetica,sans-Serif" font-size="10.00">content_handler.h</text>
</a>
</g>
</g>
<!-- Node1&#45;&gt;Node2 -->
<g id="edge1" class="edge"><title>Node1&#45;&gt;Node2</title>
<path fill="none" stroke="midnightblue" d="M342.294,-546.857C318.575,-535.885 290.326,-522.818 269.695,-513.274"/>
<polygon fill="midnightblue" stroke="midnightblue" points="271.059,-510.048 260.513,-509.027 268.12,-516.402 271.059,-510.048"/>
</g>
<!-- Node37 -->
<g id="node37" class="node"><title>Node37</title>
<g id="a_node37"><a xlink:href="package_8h.xhtml" target="_top" xlink:title="package.h">
<polygon fill="white" stroke="black" points="1003.93,-489 1003.93,-509 1066.07,-509 1066.07,-489 1003.93,-489"/>
<text text-anchor="middle" x="1035" y="-495" font-family="Helvetica,sans-Serif" font-size="10.00">package.h</text>
</a>
</g>
</g>
<!-- Node1&#45;&gt;Node37 -->
<g id="edge50" class="edge"><title>Node1&#45;&gt;Node37</title>
<path fill="none" stroke="midnightblue" d="M461.275,-560.299C597.673,-545.963 886.4,-515.618 993.703,-504.34"/>
<polygon fill="midnightblue" stroke="midnightblue" points="994.227,-507.805 1003.81,-503.278 993.496,-500.843 994.227,-507.805"/>
</g>
<!-- Node30 -->
<g id="node30" class="node"><title>Node30</title>
<g id="a_node30"><a xlink:href="iri_8h.xhtml" target="_top" xlink:title="ePub3/utilities/iri.h">
<polygon fill="white" stroke="black" points="339.424,-425 339.424,-445 436.576,-445 436.576,-425 339.424,-425"/>
<text text-anchor="middle" x="388" y="-431" font-family="Helvetica,sans-Serif" font-size="10.00">ePub3/utilities/iri.h</text>
</a>
</g>
</g>
<!-- Node1&#45;&gt;Node30 -->
<g id="edge73" class="edge"><title>Node1&#45;&gt;Node30</title>
<path fill="none" stroke="midnightblue" d="M388,-546.792C388,-521.501 388,-479.594 388,-455.215"/>
<polygon fill="midnightblue" stroke="midnightblue" points="391.5,-455.087 388,-445.088 384.5,-455.088 391.5,-455.087"/>
</g>
<!-- Node3 -->
<g id="node3" class="node"><title>Node3</title>
<polygon fill="white" stroke="#bfbfbf" points="199.079,-425 199.079,-445 282.921,-445 282.921,-425 199.079,-425"/>
<text text-anchor="middle" x="241" y="-431" font-family="Helvetica,sans-Serif" font-size="10.00">ePub3/epub3.h</text>
</g>
<!-- Node2&#45;&gt;Node3 -->
<g id="edge2" class="edge"><title>Node2&#45;&gt;Node3</title>
<path fill="none" stroke="midnightblue" d="M241,-488.852C241,-480.06 241,-466.498 241,-455.313"/>
<polygon fill="midnightblue" stroke="midnightblue" points="244.5,-455.186 241,-445.186 237.5,-455.186 244.5,-455.186"/>
</g>
<!-- Node4 -->
<g id="node4" class="node"><title>Node4</title>
<g id="a_node4"><a xlink:href="utfstring_8h.xhtml" target="_top" xlink:title="ePub3/utilities/utfstring.h">
<polygon fill="white" stroke="black" points="847.525,-361 847.525,-381 972.475,-381 972.475,-361 847.525,-361"/>
<text text-anchor="middle" x="910" y="-367" font-family="Helvetica,sans-Serif" font-size="10.00">ePub3/utilities/utfstring.h</text>
</a>
</g>
</g>
<!-- Node2&#45;&gt;Node4 -->
<g id="edge3" class="edge"><title>Node2&#45;&gt;Node4</title>
<path fill="none" stroke="midnightblue" d="M281.24,-488.942C372.937,-468.305 590.125,-419.461 598,-418 679.464,-402.888 773.637,-389.569 837.029,-381.203"/>
<polygon fill="midnightblue" stroke="midnightblue" points="837.863,-384.624 847.323,-379.853 836.952,-377.683 837.863,-384.624"/>
</g>
<!-- Node2&#45;&gt;Node30 -->
<g id="edge35" class="edge"><title>Node2&#45;&gt;Node30</title>
<path fill="none" stroke="midnightblue" d="M262.375,-488.985C287.306,-478.47 328.721,-461.002 357.138,-449.017"/>
<polygon fill="midnightblue" stroke="midnightblue" points="358.745,-452.137 366.599,-445.026 356.025,-445.688 358.745,-452.137"/>
</g>
<!-- Node35 -->
<g id="node35" class="node"><title>Node35</title>
<g id="a_node35"><a xlink:href="owned__by_8h.xhtml" target="_top" xlink:title="ePub3/utilities/owned_by.h">
<polygon fill="white" stroke="black" points="-0.116211,-361 -0.116211,-381 134.116,-381 134.116,-361 -0.116211,-361"/>
<text text-anchor="middle" x="67" y="-367" font-family="Helvetica,sans-Serif" font-size="10.00">ePub3/utilities/owned_by.h</text>
</a>
</g>
</g>
<!-- Node2&#45;&gt;Node35 -->
<g id="edge45" class="edge"><title>Node2&#45;&gt;Node35</title>
<path fill="none" stroke="midnightblue" d="M192.848,-490.656C149.766,-483.047 91.1364,-469.772 76,-452 61.8084,-435.337 61.6116,-409.124 63.5983,-391.28"/>
<polygon fill="midnightblue" stroke="midnightblue" points="67.0917,-391.576 65.0528,-381.179 60.1632,-390.578 67.0917,-391.576"/>
</g>
<!-- Node27 -->
<g id="node27" class="node"><title>Node27</title>
<polygon fill="white" stroke="#bfbfbf" points="347.273,-297 347.273,-317 382.727,-317 382.727,-297 347.273,-297"/>
<text text-anchor="middle" x="365" y="-303" font-family="Helvetica,sans-Serif" font-size="10.00">map</text>
</g>
<!-- Node2&#45;&gt;Node27 -->
<g id="edge48" class="edge"><title>Node2&#45;&gt;Node27</title>
<path fill="none" stroke="midnightblue" d="M225.257,-488.956C213.096,-480.98 197.171,-468.124 190,-452 183.86,-438.193 182.692,-431.226 190,-418 221.6,-360.813 296.77,-329.33 337.552,-315.915"/>
<polygon fill="midnightblue" stroke="midnightblue" points="338.65,-319.239 347.131,-312.889 336.541,-312.564 338.65,-319.239"/>
</g>
<!-- Node36 -->
<g id="node36" class="node"><title>Node36</title>
<polygon fill="white" stroke="#bfbfbf" points="84.5962,-425 84.5962,-445 143.404,-445 143.404,-425 84.5962,-425"/>
<text text-anchor="middle" x="114" y="-431" font-family="Helvetica,sans-Serif" font-size="10.00">functional</text>
</g>
<!-- Node2&#45;&gt;Node36 -->
<g id="edge49" class="edge"><title>Node2&#45;&gt;Node36</title>
<path fill="none" stroke="midnightblue" d="M222.533,-488.985C201.276,-478.607 166.149,-461.458 141.634,-449.49"/>
<polygon fill="midnightblue" stroke="midnightblue" points="143.011,-446.268 132.489,-445.026 139.94,-452.559 143.011,-446.268"/>
</g>
<!-- Node5 -->
<g id="node5" class="node"><title>Node5</title>
<g id="a_node5"><a xlink:href="basic_8h.xhtml" target="_top" xlink:title="ePub3/utilities/basic.h">
<polygon fill="white" stroke="black" points="400.638,-297 400.638,-317 513.362,-317 513.362,-297 400.638,-297"/>
<text text-anchor="middle" x="457" y="-303" font-family="Helvetica,sans-Serif" font-size="10.00">ePub3/utilities/basic.h</text>
</a>
</g>
</g>
<!-- Node4&#45;&gt;Node5 -->
<g id="edge4" class="edge"><title>Node4&#45;&gt;Node5</title>
<path fill="none" stroke="midnightblue" d="M847.488,-361.444C762.388,-349.797 610.721,-329.039 523.565,-317.11"/>
<polygon fill="midnightblue" stroke="midnightblue" points="523.906,-313.625 513.524,-315.736 522.957,-320.56 523.906,-313.625"/>
</g>
<!-- Node16 -->
<g id="node16" class="node"><title>Node16</title>
<g id="a_node16"><a xlink:href="integer__sequence_8h.xhtml" target="_top" xlink:title="ePub3/utilities/integer\l_sequence.h">
<polygon fill="white" stroke="black" points="1083.19,-291 1083.19,-323 1194.81,-323 1194.81,-291 1083.19,-291"/>
<text text-anchor="start" x="1091.19" y="-309" font-family="Helvetica,sans-Serif" font-size="10.00">ePub3/utilities/integer</text>
<text text-anchor="middle" x="1139" y="-297" font-family="Helvetica,sans-Serif" font-size="10.00">_sequence.h</text>
</a>
</g>
</g>
<!-- Node4&#45;&gt;Node16 -->
<g id="edge15" class="edge"><title>Node4&#45;&gt;Node16</title>
<path fill="none" stroke="midnightblue" d="M943.299,-360.985C977.363,-351.762 1031.18,-337.19 1073.77,-325.661"/>
<polygon fill="midnightblue" stroke="midnightblue" points="1074.76,-329.018 1083.5,-323.026 1072.93,-322.261 1074.76,-329.018"/>
</g>
<!-- Node17 -->
<g id="node17" class="node"><title>Node17</title>
<g id="a_node17"><a xlink:href="string__view_8h.xhtml" target="_top" xlink:title="ePub3/utilities/string\l_view.h">
<polygon fill="white" stroke="black" points="1213.25,-291 1213.25,-323 1318.75,-323 1318.75,-291 1213.25,-291"/>
<text text-anchor="start" x="1221.25" y="-309" font-family="Helvetica,sans-Serif" font-size="10.00">ePub3/utilities/string</text>
<text text-anchor="middle" x="1266" y="-297" font-family="Helvetica,sans-Serif" font-size="10.00">_view.h</text>
</a>
</g>
</g>
<!-- Node4&#45;&gt;Node17 -->
<g id="edge17" class="edge"><title>Node4&#45;&gt;Node17</title>
<path fill="none" stroke="midnightblue" d="M972.604,-361.89C1032.13,-353.772 1124.06,-340.185 1203,-324 1203.1,-323.979 1203.21,-323.957 1203.31,-323.936"/>
<polygon fill="midnightblue" stroke="midnightblue" points="1204.12,-327.343 1213.15,-321.803 1202.63,-320.502 1204.12,-327.343"/>
</g>
<!-- Node19 -->
<g id="node19" class="node"><title>Node19</title>
<polygon fill="white" stroke="#bfbfbf" points="1326.77,-233 1326.77,-253 1367.23,-253 1367.23,-233 1326.77,-233"/>
<text text-anchor="middle" x="1347" y="-239" font-family="Helvetica,sans-Serif" font-size="10.00">string</text>
</g>
<!-- Node4&#45;&gt;Node19 -->
<g id="edge26" class="edge"><title>Node4&#45;&gt;Node19</title>
<path fill="none" stroke="midnightblue" d="M972.795,-366.988C1082.72,-361.148 1300.87,-346.816 1327,-324 1344.15,-309.027 1347.71,-281.793 1347.95,-263.304"/>
<polygon fill="midnightblue" stroke="midnightblue" points="1351.44,-263.043 1347.76,-253.11 1344.44,-263.173 1351.44,-263.043"/>
</g>
<!-- Node24 -->
<g id="node24" class="node"><title>Node24</title>
<polygon fill="white" stroke="#bfbfbf" points="957.438,-297 957.438,-317 1004.56,-317 1004.56,-297 957.438,-297"/>
<text text-anchor="middle" x="981" y="-303" font-family="Helvetica,sans-Serif" font-size="10.00">iterator</text>
</g>
<!-- Node4&#45;&gt;Node24 -->
<g id="edge27" class="edge"><title>Node4&#45;&gt;Node24</title>
<path fill="none" stroke="midnightblue" d="M920.476,-360.852C931.593,-351.144 949.37,-335.62 962.788,-323.903"/>
<polygon fill="midnightblue" stroke="midnightblue" points="965.251,-326.4 970.481,-317.186 960.646,-321.127 965.251,-326.4"/>
</g>
<!-- Node25 -->
<g id="node25" class="node"><title>Node25</title>
<polygon fill="white" stroke="#bfbfbf" points="1022.94,-297 1022.94,-317 1065.06,-317 1065.06,-297 1022.94,-297"/>
<text text-anchor="middle" x="1044" y="-303" font-family="Helvetica,sans-Serif" font-size="10.00">locale</text>
</g>
<!-- Node4&#45;&gt;Node25 -->
<g id="edge28" class="edge"><title>Node4&#45;&gt;Node25</title>
<path fill="none" stroke="midnightblue" d="M931.466,-360.834C952.415,-351.79 985.114,-337.41 1013,-324 1014.54,-323.26 1016.11,-322.489 1017.7,-321.703"/>
<polygon fill="midnightblue" stroke="midnightblue" points="1019.37,-324.783 1026.71,-317.144 1016.2,-318.537 1019.37,-324.783"/>
</g>
<!-- Node14 -->
<g id="node14" class="node"><title>Node14</title>
<polygon fill="white" stroke="#bfbfbf" points="672.384,-233 672.384,-253 715.616,-253 715.616,-233 672.384,-233"/>
<text text-anchor="middle" x="694" y="-239" font-family="Helvetica,sans-Serif" font-size="10.00">vector</text>
</g>
<!-- Node4&#45;&gt;Node14 -->
<g id="edge29" class="edge"><title>Node4&#45;&gt;Node14</title>
<path fill="none" stroke="midnightblue" d="M908.275,-360.763C904.654,-344.027 894.648,-308.697 872,-290 829.927,-255.267 764.683,-246.409 725.966,-244.357"/>
<polygon fill="midnightblue" stroke="midnightblue" points="725.925,-240.852 715.791,-243.942 725.641,-247.846 725.925,-240.852"/>
</g>
<!-- Node26 -->
<g id="node26" class="node"><title>Node26</title>
<polygon fill="white" stroke="#bfbfbf" points="606.766,-297 606.766,-317 707.234,-317 707.234,-297 606.766,-297"/>
<text text-anchor="middle" x="657" y="-303" font-family="Helvetica,sans-Serif" font-size="10.00">REGEX_INCLUDE</text>
</g>
<!-- Node4&#45;&gt;Node26 -->
<g id="edge30" class="edge"><title>Node4&#45;&gt;Node26</title>
<path fill="none" stroke="midnightblue" d="M870.743,-360.966C831.693,-351.904 770.102,-337.406 717,-324 711.578,-322.631 705.889,-321.16 700.265,-319.684"/>
<polygon fill="midnightblue" stroke="midnightblue" points="700.845,-316.217 690.282,-317.044 699.055,-322.985 700.845,-316.217"/>
</g>
<!-- Node4&#45;&gt;Node27 -->
<g id="edge31" class="edge"><title>Node4&#45;&gt;Node27</title>
<path fill="none" stroke="midnightblue" d="M847.317,-367.904C728.541,-363.364 475.139,-350.794 392,-324 390.289,-323.448 388.57,-322.773 386.874,-322.015"/>
<polygon fill="midnightblue" stroke="midnightblue" points="388.09,-318.696 377.623,-317.057 384.783,-324.866 388.09,-318.696"/>
</g>
<!-- Node28 -->
<g id="node28" class="node"><title>Node28</title>
<polygon fill="white" stroke="#bfbfbf" points="725.599,-297 725.599,-317 784.401,-317 784.401,-297 725.599,-297"/>
<text text-anchor="middle" x="755" y="-303" font-family="Helvetica,sans-Serif" font-size="10.00">stdexcept</text>
</g>
<!-- Node4&#45;&gt;Node28 -->
<g id="edge32" class="edge"><title>Node4&#45;&gt;Node28</title>
<path fill="none" stroke="midnightblue" d="M886.859,-360.916C863.422,-351.694 826.146,-336.967 794,-324 791.478,-322.983 788.867,-321.924 786.245,-320.856"/>
<polygon fill="midnightblue" stroke="midnightblue" points="787.427,-317.558 776.846,-317.015 784.779,-324.038 787.427,-317.558"/>
</g>
<!-- Node20 -->
<g id="node20" class="node"><title>Node20</title>
<polygon fill="white" stroke="#bfbfbf" points="909.613,-233 909.613,-253 948.387,-253 948.387,-233 909.613,-233"/>
<text text-anchor="middle" x="929" y="-239" font-family="Helvetica,sans-Serif" font-size="10.00">limits</text>
</g>
<!-- Node4&#45;&gt;Node20 -->
<g id="edge33" class="edge"><title>Node4&#45;&gt;Node20</title>
<path fill="none" stroke="midnightblue" d="M911.366,-360.938C914.433,-340.605 921.918,-290.968 926.082,-263.348"/>
<polygon fill="midnightblue" stroke="midnightblue" points="929.564,-263.73 927.595,-253.319 922.643,-262.686 929.564,-263.73"/>
</g>
<!-- Node29 -->
<g id="node29" class="node"><title>Node29</title>
<polygon fill="white" stroke="#bfbfbf" points="802.761,-297 802.761,-317 863.239,-317 863.239,-297 802.761,-297"/>
<text text-anchor="middle" x="833" y="-303" font-family="Helvetica,sans-Serif" font-size="10.00">utf8/utf8.h</text>
</g>
<!-- Node4&#45;&gt;Node29 -->
<g id="edge34" class="edge"><title>Node4&#45;&gt;Node29</title>
<path fill="none" stroke="midnightblue" d="M898.638,-360.852C886.469,-351.053 866.938,-335.327 852.34,-323.573"/>
<polygon fill="midnightblue" stroke="midnightblue" points="854.392,-320.731 844.408,-317.186 850.002,-326.184 854.392,-320.731"/>
</g>
<!-- Node6 -->
<g id="node6" class="node"><title>Node6</title>
<g id="a_node6"><a xlink:href="base_8h.xhtml" target="_top" xlink:title="ePub3/base.h">
<polygon fill="white" stroke="black" points="783.141,-175 783.141,-195 860.859,-195 860.859,-175 783.141,-175"/>
<text text-anchor="middle" x="822" y="-181" font-family="Helvetica,sans-Serif" font-size="10.00">ePub3/base.h</text>
</a>
</g>
</g>
<!-- Node5&#45;&gt;Node6 -->
<g id="edge5" class="edge"><title>Node5&#45;&gt;Node6</title>
<path fill="none" stroke="midnightblue" d="M493.632,-296.994C528.012,-287.985 580.512,-272.784 624,-254 642.27,-246.109 644.652,-239.706 663,-232 698.741,-216.989 740.966,-205.025 772.916,-197.065"/>
<polygon fill="midnightblue" stroke="midnightblue" points="774.025,-200.397 782.907,-194.623 772.362,-193.597 774.025,-200.397"/>
</g>
<!-- Node11 -->
<g id="node11" class="node"><title>Node11</title>
<polygon fill="white" stroke="#bfbfbf" points="431.815,-233 431.815,-253 546.185,-253 546.185,-233 431.815,-233"/>
<text text-anchor="middle" x="489" y="-239" font-family="Helvetica,sans-Serif" font-size="10.00">ePub3/xml/xmlstring.h</text>
</g>
<!-- Node5&#45;&gt;Node11 -->
<g id="edge10" class="edge"><title>Node5&#45;&gt;Node11</title>
<path fill="none" stroke="midnightblue" d="M461.722,-296.852C466.401,-287.785 473.699,-273.645 479.569,-262.272"/>
<polygon fill="midnightblue" stroke="midnightblue" points="482.783,-263.677 484.259,-253.186 476.562,-260.467 482.783,-263.677"/>
</g>
<!-- Node12 -->
<g id="node12" class="node"><title>Node12</title>
<polygon fill="white" stroke="#bfbfbf" points="564.219,-233 564.219,-253 615.781,-253 615.781,-233 564.219,-233"/>
<text text-anchor="middle" x="590" y="-239" font-family="Helvetica,sans-Serif" font-size="10.00">sstream</text>
</g>
<!-- Node5&#45;&gt;Node12 -->
<g id="edge11" class="edge"><title>Node5&#45;&gt;Node12</title>
<path fill="none" stroke="midnightblue" d="M476.339,-296.985C498.699,-286.561 535.713,-269.307 561.401,-257.332"/>
<polygon fill="midnightblue" stroke="midnightblue" points="563.053,-260.424 570.637,-253.026 560.095,-254.079 563.053,-260.424"/>
</g>
<!-- Node13 -->
<g id="node13" class="node"><title>Node13</title>
<polygon fill="white" stroke="#bfbfbf" points="275.943,-175 275.943,-195 328.057,-195 328.057,-175 275.943,-175"/>
<text text-anchor="middle" x="302" y="-181" font-family="Helvetica,sans-Serif" font-size="10.00">memory</text>
</g>
<!-- Node5&#45;&gt;Node13 -->
<g id="edge12" class="edge"><title>Node5&#45;&gt;Node13</title>
<path fill="none" stroke="midnightblue" d="M449.597,-296.994C437.13,-282.198 410.687,-252.36 384,-232 367.51,-219.42 347.189,-207.995 330.901,-199.679"/>
<polygon fill="midnightblue" stroke="midnightblue" points="332.348,-196.489 321.837,-195.156 329.222,-202.753 332.348,-196.489"/>
</g>
<!-- Node5&#45;&gt;Node14 -->
<g id="edge13" class="edge"><title>Node5&#45;&gt;Node14</title>
<path fill="none" stroke="midnightblue" d="M492.632,-296.985C532.851,-286.763 600.209,-269.501 658,-254 659.449,-253.611 660.93,-253.211 662.425,-252.805"/>
<polygon fill="midnightblue" stroke="midnightblue" points="663.598,-256.113 672.315,-250.091 661.745,-249.362 663.598,-256.113"/>
</g>
<!-- Node15 -->
<g id="node15" class="node"><title>Node15</title>
<polygon fill="white" stroke="#bfbfbf" points="346.5,-233 346.5,-253 375.5,-253 375.5,-233 346.5,-233"/>
<text text-anchor="middle" x="360.611" y="-239" font-family="Helvetica,sans-Serif" font-size="10.00">list</text>
</g>
<!-- Node5&#45;&gt;Node15 -->
<g id="edge14" class="edge"><title>Node5&#45;&gt;Node15</title>
<path fill="none" stroke="midnightblue" d="M442.835,-296.852C427.308,-286.824 402.17,-270.589 383.847,-258.756"/>
<polygon fill="midnightblue" stroke="midnightblue" points="385.523,-255.671 375.223,-253.186 381.725,-261.551 385.523,-255.671"/>
</g>
<!-- Node7 -->
<g id="node7" class="node"><title>Node7</title>
<g id="a_node7"><a xlink:href="__config_8h.xhtml" target="_top" xlink:title="_config.h">
<polygon fill="white" stroke="black" points="758.707,-117 758.707,-137 815.293,-137 815.293,-117 758.707,-117"/>
<text text-anchor="middle" x="787" y="-123" font-family="Helvetica,sans-Serif" font-size="10.00">_config.h</text>
</a>
</g>
</g>
<!-- Node6&#45;&gt;Node7 -->
<g id="edge6" class="edge"><title>Node6&#45;&gt;Node7</title>
<path fill="none" stroke="midnightblue" d="M816.22,-174.753C811.277,-166.843 804.023,-155.237 797.98,-145.568"/>
<polygon fill="midnightblue" stroke="midnightblue" points="800.94,-143.7 792.672,-137.075 795.004,-147.41 800.94,-143.7"/>
</g>
<!-- Node10 -->
<g id="node10" class="node"><title>Node10</title>
<polygon fill="white" stroke="#bfbfbf" points="833.158,-117 833.158,-137 880.842,-137 880.842,-117 833.158,-117"/>
<text text-anchor="middle" x="857" y="-123" font-family="Helvetica,sans-Serif" font-size="10.00">stdlib.h</text>
</g>
<!-- Node6&#45;&gt;Node10 -->
<g id="edge9" class="edge"><title>Node6&#45;&gt;Node10</title>
<path fill="none" stroke="midnightblue" d="M827.78,-174.753C832.723,-166.843 839.977,-155.237 846.02,-145.568"/>
<polygon fill="midnightblue" stroke="midnightblue" points="848.996,-147.41 851.328,-137.075 843.06,-143.7 848.996,-147.41"/>
</g>
<!-- Node8 -->
<g id="node8" class="node"><title>Node8</title>
<g id="a_node8"><a xlink:href="__platform_8h.xhtml" target="_top" xlink:title="_platform.h">
<polygon fill="white" stroke="black" points="753.988,-59 753.988,-79 820.012,-79 820.012,-59 753.988,-59"/>
<text text-anchor="middle" x="787" y="-65" font-family="Helvetica,sans-Serif" font-size="10.00">_platform.h</text>
</a>
</g>
</g>
<!-- Node7&#45;&gt;Node8 -->
<g id="edge7" class="edge"><title>Node7&#45;&gt;Node8</title>
<path fill="none" stroke="midnightblue" d="M787,-116.753C787,-109.25 787,-98.4238 787,-89.0781"/>
<polygon fill="midnightblue" stroke="midnightblue" points="790.5,-89.0752 787,-79.0752 783.5,-89.0752 790.5,-89.0752"/>
</g>
<!-- Node9 -->
<g id="node9" class="node"><title>Node9</title>
<g id="a_node9"><a xlink:href="__compiler_8h.xhtml" target="_top" xlink:title="_compiler.h">
<polygon fill="white" stroke="black" points="753.429,-1 753.429,-21 820.571,-21 820.571,-1 753.429,-1"/>
<text text-anchor="middle" x="787" y="-7" font-family="Helvetica,sans-Serif" font-size="10.00">_compiler.h</text>
</a>
</g>
</g>
<!-- Node8&#45;&gt;Node9 -->
<g id="edge8" class="edge"><title>Node8&#45;&gt;Node9</title>
<path fill="none" stroke="midnightblue" d="M787,-58.7527C787,-51.2504 787,-40.4238 787,-31.0781"/>
<polygon fill="midnightblue" stroke="midnightblue" points="790.5,-31.0752 787,-21.0752 783.5,-31.0752 790.5,-31.0752"/>
</g>
<!-- Node16&#45;&gt;Node6 -->
<g id="edge16" class="edge"><title>Node16&#45;&gt;Node6</title>
<path fill="none" stroke="midnightblue" d="M1124.03,-290.699C1106.46,-273.678 1075.69,-246.651 1044,-232 988.033,-206.126 917.433,-194.693 871.065,-189.716"/>
<polygon fill="midnightblue" stroke="midnightblue" points="871.28,-186.22 860.978,-188.694 870.574,-193.184 871.28,-186.22"/>
</g>
<!-- Node18 -->
<g id="node18" class="node"><title>Node18</title>
<polygon fill="white" stroke="#bfbfbf" points="265.934,-233 265.934,-253 328.066,-253 328.066,-233 265.934,-233"/>
<text text-anchor="middle" x="297" y="-239" font-family="Helvetica,sans-Serif" font-size="10.00">type_traits</text>
</g>
<!-- Node17&#45;&gt;Node18 -->
<g id="edge18" class="edge"><title>Node17&#45;&gt;Node18</title>
<path fill="none" stroke="midnightblue" d="M1213.22,-291.752C1209.78,-291.084 1206.35,-290.49 1203,-290 825.085,-234.766 720.065,-307.732 338.257,-253.891"/>
<polygon fill="midnightblue" stroke="midnightblue" points="338.718,-250.422 328.323,-252.471 337.727,-257.351 338.718,-250.422"/>
</g>
<!-- Node17&#45;&gt;Node19 -->
<g id="edge19" class="edge"><title>Node17&#45;&gt;Node19</title>
<path fill="none" stroke="midnightblue" d="M1285.61,-290.992C1298.09,-281.441 1314.21,-269.101 1326.8,-259.463"/>
<polygon fill="midnightblue" stroke="midnightblue" points="1329.05,-262.148 1334.86,-253.29 1324.79,-256.589 1329.05,-262.148"/>
</g>
<!-- Node17&#45;&gt;Node20 -->
<g id="edge20" class="edge"><title>Node17&#45;&gt;Node20</title>
<path fill="none" stroke="midnightblue" d="M1213.15,-292.159C1209.73,-291.391 1206.32,-290.664 1203,-290 1098.24,-269.058 1066.76,-279.399 958.523,-253.706"/>
<polygon fill="midnightblue" stroke="midnightblue" points="959.051,-250.233 948.508,-251.279 957.403,-257.036 959.051,-250.233"/>
</g>
<!-- Node21 -->
<g id="node21" class="node"><title>Node21</title>
<polygon fill="white" stroke="#bfbfbf" points="1171.83,-233 1171.83,-253 1226.17,-253 1226.17,-233 1171.83,-233"/>
<text text-anchor="middle" x="1199" y="-239" font-family="Helvetica,sans-Serif" font-size="10.00">iostream</text>
</g>
<!-- Node17&#45;&gt;Node21 -->
<g id="edge21" class="edge"><title>Node17&#45;&gt;Node21</title>
<path fill="none" stroke="midnightblue" d="M1249.78,-290.992C1239.76,-281.716 1226.89,-269.811 1216.62,-260.304"/>
<polygon fill="midnightblue" stroke="midnightblue" points="1218.76,-257.513 1209.04,-253.29 1214,-262.651 1218.76,-257.513"/>
</g>
<!-- Node22 -->
<g id="node22" class="node"><title>Node22</title>
<polygon fill="white" stroke="#bfbfbf" points="1244.44,-233 1244.44,-253 1301.56,-253 1301.56,-233 1244.44,-233"/>
<text text-anchor="middle" x="1273" y="-239" font-family="Helvetica,sans-Serif" font-size="10.00">algorithm</text>
</g>
<!-- Node17&#45;&gt;Node22 -->
<g id="edge22" class="edge"><title>Node17&#45;&gt;Node22</title>
<path fill="none" stroke="midnightblue" d="M1267.69,-290.992C1268.63,-282.726 1269.8,-272.373 1270.8,-263.489"/>
<polygon fill="midnightblue" stroke="midnightblue" points="1274.31,-263.62 1271.95,-253.29 1267.35,-262.835 1274.31,-263.62"/>
</g>
<!-- Node23 -->
<g id="node23" class="node"><title>Node23</title>
<g id="a_node23"><a xlink:href="____strhash_8h.xhtml" target="_top" xlink:title="__strhash.h">
<polygon fill="white" stroke="black" points="966.872,-233 966.872,-253 1035.13,-253 1035.13,-233 966.872,-233"/>
<text text-anchor="middle" x="1001" y="-239" font-family="Helvetica,sans-Serif" font-size="10.00">__strhash.h</text>
</a>
</g>
</g>
<!-- Node17&#45;&gt;Node23 -->
<g id="edge23" class="edge"><title>Node17&#45;&gt;Node23</title>
<path fill="none" stroke="midnightblue" d="M1213.09,-292.461C1209.68,-291.619 1206.29,-290.793 1203,-290 1148.84,-276.959 1086.28,-262.861 1045.31,-253.758"/>
<polygon fill="midnightblue" stroke="midnightblue" points="1045.89,-250.303 1035.37,-251.555 1044.38,-257.137 1045.89,-250.303"/>
</g>
<!-- Node23&#45;&gt;Node6 -->
<g id="edge24" class="edge"><title>Node23&#45;&gt;Node6</title>
<path fill="none" stroke="midnightblue" d="M971.842,-232.878C941.587,-223.413 894.111,-208.56 860.723,-198.115"/>
<polygon fill="midnightblue" stroke="midnightblue" points="861.438,-194.671 850.849,-195.025 859.348,-201.352 861.438,-194.671"/>
</g>
<!-- Node23&#45;&gt;Node13 -->
<g id="edge25" class="edge"><title>Node23&#45;&gt;Node13</title>
<path fill="none" stroke="midnightblue" d="M966.507,-233.635C963.305,-233.018 960.1,-232.458 957,-232 723.07,-197.411 438.172,-188.674 338.509,-186.604"/>
<polygon fill="midnightblue" stroke="midnightblue" points="338.431,-183.102 328.364,-186.403 338.293,-190.1 338.431,-183.102"/>
</g>
<!-- Node30&#45;&gt;Node4 -->
<g id="edge36" class="edge"><title>Node30&#45;&gt;Node4</title>
<path fill="none" stroke="midnightblue" d="M436.64,-428.223C528.708,-417.288 728.895,-393.511 837.093,-380.659"/>
<polygon fill="midnightblue" stroke="midnightblue" points="837.753,-384.106 847.27,-379.451 836.927,-377.155 837.753,-384.106"/>
</g>
<!-- Node31 -->
<g id="node31" class="node"><title>Node31</title>
<g id="a_node31"><a xlink:href="make__unique_8h.xhtml" target="_top" xlink:title="ePub3/utilities/make\l_unique.h">
<polygon fill="white" stroke="black" points="147.254,-291 147.254,-323 252.746,-323 252.746,-291 147.254,-291"/>
<text text-anchor="start" x="155.254" y="-309" font-family="Helvetica,sans-Serif" font-size="10.00">ePub3/utilities/make</text>
<text text-anchor="middle" x="200" y="-297" font-family="Helvetica,sans-Serif" font-size="10.00">_unique.h</text>
</a>
</g>
</g>
<!-- Node30&#45;&gt;Node31 -->
<g id="edge37" class="edge"><title>Node30&#45;&gt;Node31</title>
<path fill="none" stroke="midnightblue" d="M372.219,-424.992C354.781,-414.916 325.99,-397.915 302,-382 276.477,-365.068 248.364,-344.524 228.128,-329.383"/>
<polygon fill="midnightblue" stroke="midnightblue" points="230.065,-326.46 219.968,-323.25 225.859,-332.056 230.065,-326.46"/>
</g>
<!-- Node34 -->
<g id="node34" class="node"><title>Node34</title>
<polygon fill="white" stroke="#bfbfbf" points="310.867,-361 310.867,-381 399.133,-381 399.133,-361 310.867,-361"/>
<text text-anchor="middle" x="355" y="-367" font-family="Helvetica,sans-Serif" font-size="10.00">google&#45;url/gurl.h</text>
</g>
<!-- Node30&#45;&gt;Node34 -->
<g id="edge43" class="edge"><title>Node30&#45;&gt;Node34</title>
<path fill="none" stroke="midnightblue" d="M383.131,-424.852C378.305,-415.785 370.779,-401.645 364.725,-390.272"/>
<polygon fill="midnightblue" stroke="midnightblue" points="367.677,-388.369 359.889,-381.186 361.498,-391.658 367.677,-388.369"/>
</g>
<!-- Node30&#45;&gt;Node14 -->
<g id="edge44" class="edge"><title>Node30&#45;&gt;Node14</title>
<path fill="none" stroke="midnightblue" d="M399.008,-424.961C436.966,-393.802 560.329,-292.63 565,-290 581.967,-280.448 630.021,-264.291 662.443,-253.89"/>
<polygon fill="midnightblue" stroke="midnightblue" points="663.895,-257.1 672.361,-250.73 661.77,-250.431 663.895,-257.1"/>
</g>
<!-- Node31&#45;&gt;Node6 -->
<g id="edge38" class="edge"><title>Node31&#45;&gt;Node6</title>
<path fill="none" stroke="midnightblue" d="M206.932,-290.704C215.793,-273.145 232.921,-245.087 257,-232 301.778,-207.663 644.004,-192.593 773.006,-187.728"/>
<polygon fill="midnightblue" stroke="midnightblue" points="773.145,-191.225 783.007,-187.355 772.884,-184.23 773.145,-191.225"/>
</g>
<!-- Node32 -->
<g id="node32" class="node"><title>Node32</title>
<polygon fill="white" stroke="#bfbfbf" points="66.8794,-233 66.8794,-253 115.121,-253 115.121,-233 66.8794,-233"/>
<text text-anchor="middle" x="91" y="-239" font-family="Helvetica,sans-Serif" font-size="10.00">cstddef</text>
</g>
<!-- Node31&#45;&gt;Node32 -->
<g id="edge39" class="edge"><title>Node31&#45;&gt;Node32</title>
<path fill="none" stroke="midnightblue" d="M173.614,-290.992C156.071,-281.013 133.176,-267.99 115.938,-258.185"/>
<polygon fill="midnightblue" stroke="midnightblue" points="117.437,-255.011 107.014,-253.109 113.976,-261.095 117.437,-255.011"/>
</g>
<!-- Node31&#45;&gt;Node13 -->
<g id="edge40" class="edge"><title>Node31&#45;&gt;Node13</title>
<path fill="none" stroke="midnightblue" d="M201.703,-290.894C204.192,-274.791 210.145,-249.282 224,-232 235.482,-217.678 252.717,-206.851 268.069,-199.31"/>
<polygon fill="midnightblue" stroke="midnightblue" points="269.705,-202.41 277.315,-195.038 266.769,-196.055 269.705,-202.41"/>
</g>
<!-- Node31&#45;&gt;Node18 -->
<g id="edge41" class="edge"><title>Node31&#45;&gt;Node18</title>
<path fill="none" stroke="midnightblue" d="M223.481,-290.992C238.804,-281.198 258.714,-268.471 273.95,-258.733"/>
<polygon fill="midnightblue" stroke="midnightblue" points="276.208,-261.443 282.749,-253.109 272.438,-255.545 276.208,-261.443"/>
</g>
<!-- Node33 -->
<g id="node33" class="node"><title>Node33</title>
<polygon fill="white" stroke="#bfbfbf" points="133.608,-233 133.608,-253 172.392,-253 172.392,-233 133.608,-233"/>
<text text-anchor="middle" x="153" y="-239" font-family="Helvetica,sans-Serif" font-size="10.00">utility</text>
</g>
<!-- Node31&#45;&gt;Node33 -->
<g id="edge42" class="edge"><title>Node31&#45;&gt;Node33</title>
<path fill="none" stroke="midnightblue" d="M188.623,-290.992C181.87,-282.084 173.278,-270.75 166.224,-261.445"/>
<polygon fill="midnightblue" stroke="midnightblue" points="168.873,-259.145 160.043,-253.29 163.295,-263.374 168.873,-259.145"/>
</g>
<!-- Node35&#45;&gt;Node13 -->
<g id="edge46" class="edge"><title>Node35&#45;&gt;Node13</title>
<path fill="none" stroke="midnightblue" d="M62.6506,-360.973C51.7413,-336.874 26.2793,-270.26 58,-232 83.9438,-200.708 204.081,-190.556 265.551,-187.38"/>
<polygon fill="midnightblue" stroke="midnightblue" points="265.781,-190.873 275.601,-186.896 265.444,-183.881 265.781,-190.873"/>
</g>
<!-- Node35&#45;&gt;Node18 -->
<g id="edge47" class="edge"><title>Node35&#45;&gt;Node18</title>
<path fill="none" stroke="midnightblue" d="M131.399,-360.976C179.913,-353.051 241.318,-340.257 261,-324 279.759,-308.506 289.124,-281.197 293.515,-262.852"/>
<polygon fill="midnightblue" stroke="midnightblue" points="296.952,-263.517 295.602,-253.008 290.104,-262.065 296.952,-263.517"/>
</g>
<!-- Node37&#45;&gt;Node3 -->
<g id="edge51" class="edge"><title>Node37&#45;&gt;Node3</title>
<path fill="none" stroke="midnightblue" d="M1003.79,-498.451C901.547,-499.419 567.747,-498.552 297,-452 290.722,-450.921 284.143,-449.403 277.79,-447.729"/>
<polygon fill="midnightblue" stroke="midnightblue" points="278.644,-444.334 268.071,-445.01 276.758,-451.075 278.644,-444.334"/>
</g>
<!-- Node37&#45;&gt;Node19 -->
<g id="edge52" class="edge"><title>Node37&#45;&gt;Node19</title>
<path fill="none" stroke="midnightblue" d="M1066.3,-497.88C1240.44,-497.061 2083.54,-491.082 2121,-452 2230.54,-337.72 1533.89,-262.268 1377.63,-246.903"/>
<polygon fill="midnightblue" stroke="midnightblue" points="1377.63,-243.386 1367.34,-245.901 1376.95,-250.354 1377.63,-243.386"/>
</g>
<!-- Node37&#45;&gt;Node14 -->
<g id="edge53" class="edge"><title>Node37&#45;&gt;Node14</title>
<path fill="none" stroke="midnightblue" d="M1003.78,-497.076C908.321,-493.931 625.116,-482.12 598,-452 549.827,-398.49 559.634,-350.927 598,-290 605.433,-278.196 637.482,-264.317 662.531,-254.916"/>
<polygon fill="midnightblue" stroke="midnightblue" points="663.877,-258.15 672.062,-251.424 661.469,-251.578 663.877,-258.15"/>
</g>
<!-- Node37&#45;&gt;Node27 -->
<g id="edge54" class="edge"><title>Node37&#45;&gt;Node27</title>
<path fill="none" stroke="midnightblue" d="M1003.73,-497.783C911.559,-496.704 642.569,-490.27 565,-452 514.805,-427.235 525.014,-391.868 479,-360 444.598,-336.175 429.428,-342.714 392,-324 390.821,-323.411 389.624,-322.79 388.423,-322.149"/>
<polygon fill="midnightblue" stroke="midnightblue" points="389.789,-318.9 379.361,-317.024 386.343,-324.993 389.789,-318.9"/>
</g>
<!-- Node37&#45;&gt;Node15 -->
<g id="edge55" class="edge"><title>Node37&#45;&gt;Node15</title>
<path fill="none" stroke="midnightblue" d="M1003.64,-497.536C906.378,-495.733 611.087,-487.405 523,-452 462.268,-427.59 462.933,-395.589 408,-360 378.639,-340.978 356.223,-353.863 338,-324 326.059,-304.432 337.747,-278.398 348.366,-261.425"/>
<polygon fill="midnightblue" stroke="midnightblue" points="351.335,-263.281 353.998,-253.026 345.522,-259.382 351.335,-263.281"/>
</g>
<!-- Node38 -->
<g id="node38" class="node"><title>Node38</title>
<polygon fill="white" stroke="#bfbfbf" points="606.695,-425 606.695,-445 703.305,-445 703.305,-425 606.695,-425"/>
<text text-anchor="middle" x="655" y="-431" font-family="Helvetica,sans-Serif" font-size="10.00">ePub3/xml/node.h</text>
</g>
<!-- Node37&#45;&gt;Node38 -->
<g id="edge56" class="edge"><title>Node37&#45;&gt;Node38</title>
<path fill="none" stroke="midnightblue" d="M1003.58,-494.921C945.559,-488.928 817.865,-474.294 712,-452 706.201,-450.779 700.123,-449.296 694.186,-447.732"/>
<polygon fill="midnightblue" stroke="midnightblue" points="694.97,-444.318 684.4,-445.053 693.122,-451.069 694.97,-444.318"/>
</g>
<!-- Node37&#45;&gt;Node35 -->
<g id="edge57" class="edge"><title>Node37&#45;&gt;Node35</title>
<path fill="none" stroke="midnightblue" d="M1003.89,-497.142C875.797,-493.45 392.863,-477.92 330,-452 308.741,-443.234 311.607,-428.204 291,-418 245.355,-395.398 189.201,-383.897 144.535,-378.047"/>
<polygon fill="midnightblue" stroke="midnightblue" points="144.963,-374.573 134.608,-376.814 144.1,-381.52 144.963,-374.573"/>
</g>
<!-- Node39 -->
<g id="node39" class="node"><title>Node39</title>
<polygon fill="white" stroke="#bfbfbf" points="720.914,-425 720.914,-445 823.086,-445 823.086,-425 720.914,-425"/>
<text text-anchor="middle" x="772" y="-431" font-family="Helvetica,sans-Serif" font-size="10.00">ePub3/encryption.h</text>
</g>
<!-- Node37&#45;&gt;Node39 -->
<g id="edge58" class="edge"><title>Node37&#45;&gt;Node39</title>
<path fill="none" stroke="midnightblue" d="M1003.62,-491.273C963.653,-482.62 892.523,-466.921 832,-452 826.505,-450.645 820.74,-449.173 815.047,-447.689"/>
<polygon fill="midnightblue" stroke="midnightblue" points="815.514,-444.192 804.952,-445.027 813.729,-450.961 815.514,-444.192"/>
</g>
<!-- Node40 -->
<g id="node40" class="node"><title>Node40</title>
<polygon fill="white" stroke="#bfbfbf" points="841.03,-425 841.03,-445 920.97,-445 920.97,-425 841.03,-425"/>
<text text-anchor="middle" x="881" y="-431" font-family="Helvetica,sans-Serif" font-size="10.00">ePub3/spine.h</text>
</g>
<!-- Node37&#45;&gt;Node40 -->
<g id="edge59" class="edge"><title>Node37&#45;&gt;Node40</title>
<path fill="none" stroke="midnightblue" d="M1012.61,-488.985C986.375,-478.424 942.722,-460.849 912.942,-448.86"/>
<polygon fill="midnightblue" stroke="midnightblue" points="914.004,-445.514 903.42,-445.026 911.389,-452.008 914.004,-445.514"/>
</g>
<!-- Node41 -->
<g id="node41" class="node"><title>Node41</title>
<polygon fill="white" stroke="#bfbfbf" points="939.086,-425 939.086,-445 1032.91,-445 1032.91,-425 939.086,-425"/>
<text text-anchor="middle" x="986" y="-431" font-family="Helvetica,sans-Serif" font-size="10.00">ePub3/manifest.h</text>
</g>
<!-- Node37&#45;&gt;Node41 -->
<g id="edge60" class="edge"><title>Node37&#45;&gt;Node41</title>
<path fill="none" stroke="midnightblue" d="M1027.77,-488.852C1020.39,-479.511 1008.75,-464.784 999.63,-453.246"/>
<polygon fill="midnightblue" stroke="midnightblue" points="1002.21,-450.861 993.26,-445.186 996.714,-455.202 1002.21,-450.861"/>
</g>
<!-- Node42 -->
<g id="node42" class="node"><title>Node42</title>
<polygon fill="white" stroke="#bfbfbf" points="1050.98,-425 1050.98,-445 1117.02,-445 1117.02,-425 1050.98,-425"/>
<text text-anchor="middle" x="1084" y="-431" font-family="Helvetica,sans-Serif" font-size="10.00">ePub3/cfi.h</text>
</g>
<!-- Node37&#45;&gt;Node42 -->
<g id="edge61" class="edge"><title>Node37&#45;&gt;Node42</title>
<path fill="none" stroke="midnightblue" d="M1042.23,-488.852C1049.61,-479.511 1061.25,-464.784 1070.37,-453.246"/>
<polygon fill="midnightblue" stroke="midnightblue" points="1073.29,-455.202 1076.74,-445.186 1067.79,-450.861 1073.29,-455.202"/>
</g>
<!-- Node43 -->
<g id="node43" class="node"><title>Node43</title>
<polygon fill="white" stroke="#bfbfbf" points="1135.35,-425 1135.35,-445 1248.65,-445 1248.65,-425 1135.35,-425"/>
<text text-anchor="middle" x="1192" y="-431" font-family="Helvetica,sans-Serif" font-size="10.00">ePub3/nav_element.h</text>
</g>
<!-- Node37&#45;&gt;Node43 -->
<g id="edge62" class="edge"><title>Node37&#45;&gt;Node43</title>
<path fill="none" stroke="midnightblue" d="M1057.83,-488.985C1084.69,-478.378 1129.46,-460.696 1159.83,-448.704"/>
<polygon fill="midnightblue" stroke="midnightblue" points="1161.13,-451.955 1169.14,-445.026 1158.56,-445.444 1161.13,-451.955"/>
</g>
<!-- Node44 -->
<g id="node44" class="node"><title>Node44</title>
<polygon fill="white" stroke="#bfbfbf" points="1266.31,-425 1266.31,-445 1375.69,-445 1375.69,-425 1266.31,-425"/>
<text text-anchor="middle" x="1321" y="-431" font-family="Helvetica,sans-Serif" font-size="10.00">ePub3/archive_xml.h</text>
</g>
<!-- Node37&#45;&gt;Node44 -->
<g id="edge63" class="edge"><title>Node37&#45;&gt;Node44</title>
<path fill="none" stroke="midnightblue" d="M1066.34,-491.924C1109.41,-483.478 1189.27,-467.476 1257,-452 1263.15,-450.594 1269.63,-449.051 1275.99,-447.496"/>
<polygon fill="midnightblue" stroke="midnightblue" points="1276.98,-450.857 1285.85,-445.06 1275.3,-444.061 1276.98,-450.857"/>
</g>
<!-- Node37&#45;&gt;Node4 -->
<g id="edge64" class="edge"><title>Node37&#45;&gt;Node4</title>
<path fill="none" stroke="midnightblue" d="M1066.07,-497.624C1222.55,-495.582 1917.92,-484.688 1949,-452 1959.41,-441.05 1959.45,-428.919 1949,-418 1915.66,-383.146 1213.87,-374.427 982.946,-372.498"/>
<polygon fill="midnightblue" stroke="midnightblue" points="982.665,-368.995 972.637,-372.414 982.608,-375.995 982.665,-368.995"/>
</g>
<!-- Node37&#45;&gt;Node30 -->
<g id="edge65" class="edge"><title>Node37&#45;&gt;Node30</title>
<path fill="none" stroke="midnightblue" d="M1003.75,-497.405C916.026,-495.334 660.217,-486.549 451,-452 443.805,-450.812 436.227,-449.204 428.919,-447.464"/>
<polygon fill="midnightblue" stroke="midnightblue" points="429.732,-444.059 419.182,-445.036 428.039,-450.851 429.732,-444.059"/>
</g>
<!-- Node45 -->
<g id="node45" class="node"><title>Node45</title>
<polygon fill="white" stroke="#bfbfbf" points="1393.39,-425 1393.39,-445 1520.61,-445 1520.61,-425 1393.39,-425"/>
<text text-anchor="middle" x="1457" y="-431" font-family="Helvetica,sans-Serif" font-size="10.00">ePub3/content_handler.h</text>
</g>
<!-- Node37&#45;&gt;Node45 -->
<g id="edge66" class="edge"><title>Node37&#45;&gt;Node45</title>
<path fill="none" stroke="midnightblue" d="M1066.42,-494.762C1127.73,-488.244 1267.52,-472.404 1384,-452 1392,-450.599 1400.44,-448.928 1408.64,-447.201"/>
<polygon fill="midnightblue" stroke="midnightblue" points="1409.44,-450.61 1418.48,-445.083 1407.96,-443.767 1409.44,-450.61"/>
</g>
<!-- Node46 -->
<g id="node46" class="node"><title>Node46</title>
<polygon fill="white" stroke="#bfbfbf" points="1539.08,-419 1539.08,-451 1652.92,-451 1652.92,-419 1539.08,-419"/>
<text text-anchor="start" x="1547.08" y="-437" font-family="Helvetica,sans-Serif" font-size="10.00">ePub3/media_support</text>
<text text-anchor="middle" x="1596" y="-425" font-family="Helvetica,sans-Serif" font-size="10.00">_info.h</text>
</g>
<!-- Node37&#45;&gt;Node46 -->
<g id="edge67" class="edge"><title>Node37&#45;&gt;Node46</title>
<path fill="none" stroke="midnightblue" d="M1066.12,-496.634C1142.94,-492.937 1347.84,-481.098 1528.77,-451.872"/>
<polygon fill="midnightblue" stroke="midnightblue" points="1529.42,-455.311 1538.73,-450.241 1528.29,-448.403 1529.42,-455.311"/>
</g>
<!-- Node47 -->
<g id="node47" class="node"><title>Node47</title>
<polygon fill="white" stroke="#bfbfbf" points="1671.23,-425 1671.23,-445 1796.77,-445 1796.77,-425 1671.23,-425"/>
<text text-anchor="middle" x="1734" y="-431" font-family="Helvetica,sans-Serif" font-size="10.00">ePub3/property_holder.h</text>
</g>
<!-- Node37&#45;&gt;Node47 -->
<g id="edge68" class="edge"><title>Node37&#45;&gt;Node47</title>
<path fill="none" stroke="midnightblue" d="M1066.11,-497.28C1157.72,-494.825 1434.27,-485.006 1661,-452 1669.77,-450.724 1679.05,-448.989 1687.96,-447.133"/>
<polygon fill="midnightblue" stroke="midnightblue" points="1688.77,-450.539 1697.8,-445.002 1687.28,-443.697 1688.77,-450.539"/>
</g>
<!-- Node48 -->
<g id="node48" class="node"><title>Node48</title>
<polygon fill="white" stroke="#bfbfbf" points="1815.23,-425 1815.23,-445 1940.77,-445 1940.77,-425 1815.23,-425"/>
<text text-anchor="middle" x="1878" y="-431" font-family="Helvetica,sans-Serif" font-size="10.00">ePub3/epub_collection.h</text>
</g>
<!-- Node37&#45;&gt;Node48 -->
<g id="edge69" class="edge"><title>Node37&#45;&gt;Node48</title>
<path fill="none" stroke="midnightblue" d="M1066.34,-497.877C1171.35,-497.094 1520.13,-491.481 1805,-452 1813.87,-450.771 1823.26,-449.041 1832.25,-447.17"/>
<polygon fill="midnightblue" stroke="midnightblue" points="1833.15,-450.557 1842.18,-445.017 1831.67,-443.716 1833.15,-450.557"/>
</g>
<!-- Node49 -->
<g id="node49" class="node"><title>Node49</title>
<g id="a_node49"><a xlink:href="xml__identifiable_8h.xhtml" target="_top" xlink:title="ePub3/utilities/xml\l_identifiable.h">
<polygon fill="white" stroke="black" points="1996.7,-419 1996.7,-451 2093.3,-451 2093.3,-419 1996.7,-419"/>
<text text-anchor="start" x="2004.7" y="-437" font-family="Helvetica,sans-Serif" font-size="10.00">ePub3/utilities/xml</text>
<text text-anchor="middle" x="2045" y="-425" font-family="Helvetica,sans-Serif" font-size="10.00">_identifiable.h</text>
</a>
</g>
</g>
<!-- Node37&#45;&gt;Node49 -->
<g id="edge70" class="edge"><title>Node37&#45;&gt;Node49</title>
<path fill="none" stroke="midnightblue" d="M1066.22,-497.342C1208.94,-494.202 1800.13,-479.735 1983,-452 1984.1,-451.833 1985.21,-451.655 1986.32,-451.467"/>
<polygon fill="midnightblue" stroke="midnightblue" points="1987.29,-454.844 1996.46,-449.526 1985.98,-447.969 1987.29,-454.844"/>
</g>
<!-- Node37&#45;&gt;Node17 -->
<g id="edge72" class="edge"><title>Node37&#45;&gt;Node17</title>
<path fill="none" stroke="midnightblue" d="M1066.31,-497.855C1238.66,-496.908 2065.25,-490.371 2102,-452 2212,-337.152 1541.45,-313.596 1329.02,-309.037"/>
<polygon fill="midnightblue" stroke="midnightblue" points="1329.03,-305.537 1318.96,-308.828 1328.88,-312.535 1329.03,-305.537"/>
</g>
<!-- Node49&#45;&gt;Node4 -->
<g id="edge71" class="edge"><title>Node49&#45;&gt;Node4</title>
<path fill="none" stroke="midnightblue" d="M1996.46,-420.447C1991.94,-419.495 1987.4,-418.654 1983,-418 1789.39,-389.195 1191.63,-376.697 982.859,-373.133"/>
<polygon fill="midnightblue" stroke="midnightblue" points="982.68,-369.63 972.622,-372.961 982.561,-376.629 982.68,-369.63"/>
</g>
</g>
</svg>
