<?xml version="1.0" encoding="UTF-8" standalone="no"?>
<!DOCTYPE svg PUBLIC "-//W3C//DTD SVG 1.1//EN"
 "http://www.w3.org/Graphics/SVG/1.1/DTD/svg11.dtd">
<!-- Generated by graphviz version 2.30.0 (20130114.0426)
 -->
<!-- Title: /Users/rkwright/Documents/github/readium&#45;sdk&#45;D/ePub3/ePub/content_module_manager.cpp Pages: 1 -->
<svg width="2502pt" height="484pt"
 viewBox="0.00 0.00 2501.87 484.00" xmlns="http://www.w3.org/2000/svg" xmlns:xlink="http://www.w3.org/1999/xlink">
<g id="graph0" class="graph" transform="scale(1 1) rotate(0) translate(4 480)">
<title>/Users/rkwright/Documents/github/readium&#45;sdk&#45;D/ePub3/ePub/content_module_manager.cpp</title>
<polygon fill="white" stroke="white" points="-4,5 -4,-480 2498.87,-480 2498.87,5 -4,5"/>
<!-- Node1 -->
<g id="node1" class="node"><title>Node1</title>
<polygon fill="#bfbfbf" stroke="black" points="925.271,-431 925.271,-475 1104.73,-475 1104.73,-431 925.271,-431"/>
<text text-anchor="start" x="933.271" y="-461" font-family="Helvetica,sans-Serif" font-size="10.00">/Users/rkwright/Documents</text>
<text text-anchor="start" x="933.271" y="-449" font-family="Helvetica,sans-Serif" font-size="10.00">/github/readium&#45;sdk&#45;D/ePub3</text>
<text text-anchor="middle" x="1015" y="-437" font-family="Helvetica,sans-Serif" font-size="10.00">/ePub/content_module_manager.cpp</text>
</g>
<!-- Node2 -->
<g id="node2" class="node"><title>Node2</title>
<g id="a_node2"><a xlink:href="content__module__manager_8h.xhtml" target="_top" xlink:title="content_module_manager.h">
<polygon fill="white" stroke="black" points="1011.01,-251 1011.01,-271 1150.99,-271 1150.99,-251 1011.01,-251"/>
<text text-anchor="middle" x="1081" y="-257" font-family="Helvetica,sans-Serif" font-size="10.00">content_module_manager.h</text>
</a>
</g>
</g>
<!-- Node1&#45;&gt;Node2 -->
<g id="edge1" class="edge"><title>Node1&#45;&gt;Node2</title>
<path fill="none" stroke="midnightblue" d="M1036.88,-430.758C1046.12,-420.521 1056.08,-407.539 1062,-394 1078.39,-356.484 1081.21,-307.814 1081.38,-281.3"/>
<polygon fill="midnightblue" stroke="midnightblue" points="1084.88,-281.071 1081.31,-271.093 1077.88,-281.114 1084.88,-281.071"/>
</g>
<!-- Node9 -->
<g id="node9" class="node"><title>Node9</title>
<g id="a_node9"><a xlink:href="content__module_8h.xhtml" target="_top" xlink:title="content_module.h">
<polygon fill="white" stroke="black" points="781.249,-373 781.249,-393 876.751,-393 876.751,-373 781.249,-373"/>
<text text-anchor="middle" x="829" y="-379" font-family="Helvetica,sans-Serif" font-size="10.00">content_module.h</text>
</a>
</g>
</g>
<!-- Node1&#45;&gt;Node9 -->
<g id="edge8" class="edge"><title>Node1&#45;&gt;Node9</title>
<path fill="none" stroke="midnightblue" d="M957.422,-430.95C926.581,-419.675 889.629,-406.165 863.297,-396.539"/>
<polygon fill="midnightblue" stroke="midnightblue" points="864.354,-393.199 853.76,-393.052 861.95,-399.773 864.354,-393.199"/>
</g>
<!-- Node33 -->
<g id="node33" class="node"><title>Node33</title>
<g id="a_node33"><a xlink:href="user__action_8h.xhtml" target="_top" xlink:title="user_action.h">
<polygon fill="white" stroke="black" points="976.98,-373 976.98,-393 1053.02,-393 1053.02,-373 976.98,-373"/>
<text text-anchor="middle" x="1015" y="-379" font-family="Helvetica,sans-Serif" font-size="10.00">user_action.h</text>
</a>
</g>
</g>
<!-- Node1&#45;&gt;Node33 -->
<g id="edge44" class="edge"><title>Node1&#45;&gt;Node33</title>
<path fill="none" stroke="midnightblue" d="M1015,-430.857C1015,-422.074 1015,-411.948 1015,-403.362"/>
<polygon fill="midnightblue" stroke="midnightblue" points="1018.5,-403.204 1015,-393.204 1011.5,-403.204 1018.5,-403.204"/>
</g>
<!-- Node50 -->
<g id="node50" class="node"><title>Node50</title>
<g id="a_node50"><a xlink:href="credential__request_8h.xhtml" target="_top" xlink:title="credential_request.h">
<polygon fill="white" stroke="black" points="1198.69,-251 1198.69,-271 1305.31,-271 1305.31,-251 1198.69,-251"/>
<text text-anchor="middle" x="1252" y="-257" font-family="Helvetica,sans-Serif" font-size="10.00">credential_request.h</text>
</a>
</g>
</g>
<!-- Node1&#45;&gt;Node50 -->
<g id="edge77" class="edge"><title>Node1&#45;&gt;Node50</title>
<path fill="none" stroke="midnightblue" d="M1041.27,-430.941C1089.41,-392.344 1190.72,-311.131 1232.92,-277.3"/>
<polygon fill="midnightblue" stroke="midnightblue" points="1235.15,-279.997 1240.76,-271.011 1230.77,-274.536 1235.15,-279.997"/>
</g>
<!-- Node21 -->
<g id="node21" class="node"><title>Node21</title>
<polygon fill="white" stroke="#bfbfbf" points="-0.177246,-181 -0.177246,-201 44.1772,-201 44.1772,-181 -0.177246,-181"/>
<text text-anchor="middle" x="22" y="-187" font-family="Helvetica,sans-Serif" font-size="10.00">thread</text>
</g>
<!-- Node1&#45;&gt;Node21 -->
<g id="edge83" class="edge"><title>Node1&#45;&gt;Node21</title>
<path fill="none" stroke="midnightblue" d="M924.944,-444.834C717,-426.813 210.68,-374.04 73,-278 49.4674,-261.585 35.0619,-230.514 27.8079,-210.557"/>
<polygon fill="midnightblue" stroke="midnightblue" points="31.1017,-209.371 24.5782,-201.023 24.4718,-211.617 31.1017,-209.371"/>
</g>
<!-- Node3 -->
<g id="node3" class="node"><title>Node3</title>
<polygon fill="white" stroke="#bfbfbf" points="867.079,-181 867.079,-201 950.921,-201 950.921,-181 867.079,-181"/>
<text text-anchor="middle" x="909" y="-187" font-family="Helvetica,sans-Serif" font-size="10.00">ePub3/epub3.h</text>
</g>
<!-- Node2&#45;&gt;Node3 -->
<g id="edge2" class="edge"><title>Node2&#45;&gt;Node3</title>
<path fill="none" stroke="midnightblue" d="M1058.16,-250.97C1028.22,-239.133 975.512,-218.295 941.44,-204.825"/>
<polygon fill="midnightblue" stroke="midnightblue" points="942.521,-201.489 931.935,-201.067 939.948,-207.999 942.521,-201.489"/>
</g>
<!-- Node4 -->
<g id="node4" class="node"><title>Node4</title>
<polygon fill="white" stroke="#bfbfbf" points="1222.4,-181 1222.4,-201 1349.6,-201 1349.6,-181 1222.4,-181"/>
<text text-anchor="middle" x="1286" y="-187" font-family="Helvetica,sans-Serif" font-size="10.00">ePub3/content_module.h</text>
</g>
<!-- Node2&#45;&gt;Node4 -->
<g id="edge3" class="edge"><title>Node2&#45;&gt;Node4</title>
<path fill="none" stroke="midnightblue" d="M1108.22,-250.97C1144.44,-238.955 1208.62,-217.667 1249.15,-204.223"/>
<polygon fill="midnightblue" stroke="midnightblue" points="1250.28,-207.538 1258.66,-201.067 1248.07,-200.894 1250.28,-207.538"/>
</g>
<!-- Node5 -->
<g id="node5" class="node"><title>Node5</title>
<polygon fill="white" stroke="#bfbfbf" points="1006.85,-181 1006.85,-201 1145.15,-201 1145.15,-181 1006.85,-181"/>
<text text-anchor="middle" x="1076" y="-187" font-family="Helvetica,sans-Serif" font-size="10.00">ePub3/credential_request.h</text>
</g>
<!-- Node2&#45;&gt;Node5 -->
<g id="edge4" class="edge"><title>Node2&#45;&gt;Node5</title>
<path fill="none" stroke="midnightblue" d="M1080.33,-250.829C1079.58,-240.735 1078.37,-224.222 1077.42,-211.256"/>
<polygon fill="midnightblue" stroke="midnightblue" points="1080.89,-210.742 1076.66,-201.025 1073.91,-211.255 1080.89,-210.742"/>
</g>
<!-- Node6 -->
<g id="node6" class="node"><title>Node6</title>
<polygon fill="white" stroke="#bfbfbf" points="1367.27,-181 1367.27,-201 1402.73,-201 1402.73,-181 1367.27,-181"/>
<text text-anchor="middle" x="1385" y="-187" font-family="Helvetica,sans-Serif" font-size="10.00">map</text>
</g>
<!-- Node2&#45;&gt;Node6 -->
<g id="edge5" class="edge"><title>Node2&#45;&gt;Node6</title>
<path fill="none" stroke="midnightblue" d="M1142.75,-250.974C1211.94,-240.409 1319.48,-222.511 1358,-208 1359.61,-207.393 1361.24,-206.691 1362.85,-205.928"/>
<polygon fill="midnightblue" stroke="midnightblue" points="1364.61,-208.955 1371.73,-201.11 1361.27,-202.803 1364.61,-208.955"/>
</g>
<!-- Node7 -->
<g id="node7" class="node"><title>Node7</title>
<polygon fill="white" stroke="#bfbfbf" points="1163.21,-181 1163.21,-201 1204.79,-201 1204.79,-181 1163.21,-181"/>
<text text-anchor="middle" x="1184" y="-187" font-family="Helvetica,sans-Serif" font-size="10.00">future</text>
</g>
<!-- Node2&#45;&gt;Node7 -->
<g id="edge6" class="edge"><title>Node2&#45;&gt;Node7</title>
<path fill="none" stroke="midnightblue" d="M1094.89,-250.829C1112.03,-239.512 1141.4,-220.124 1161.71,-206.715"/>
<polygon fill="midnightblue" stroke="midnightblue" points="1163.91,-209.456 1170.33,-201.025 1160.06,-203.614 1163.91,-209.456"/>
</g>
<!-- Node8 -->
<g id="node8" class="node"><title>Node8</title>
<polygon fill="white" stroke="#bfbfbf" points="952.943,-117 952.943,-137 1005.06,-137 1005.06,-117 952.943,-117"/>
<text text-anchor="middle" x="979" y="-123" font-family="Helvetica,sans-Serif" font-size="10.00">memory</text>
</g>
<!-- Node2&#45;&gt;Node8 -->
<g id="edge7" class="edge"><title>Node2&#45;&gt;Node8</title>
<path fill="none" stroke="midnightblue" d="M1056.98,-250.964C1038.12,-242.635 1012.67,-228.451 998,-208 985.102,-190.015 980.858,-164.472 979.516,-147.122"/>
<polygon fill="midnightblue" stroke="midnightblue" points="983.008,-146.87 978.992,-137.066 976.017,-147.234 983.008,-146.87"/>
</g>
<!-- Node9&#45;&gt;Node3 -->
<g id="edge9" class="edge"><title>Node9&#45;&gt;Node3</title>
<path fill="none" stroke="midnightblue" d="M848.63,-372.861C862.869,-365.139 881.269,-352.668 891,-336 914.1,-296.431 913.464,-240.411 911.158,-211.282"/>
<polygon fill="midnightblue" stroke="midnightblue" points="914.631,-210.829 910.203,-201.204 907.662,-211.49 914.631,-210.829"/>
</g>
<!-- Node10 -->
<g id="node10" class="node"><title>Node10</title>
<polygon fill="white" stroke="#bfbfbf" points="775.133,-315 775.133,-335 882.867,-335 882.867,-315 775.133,-315"/>
<text text-anchor="middle" x="829" y="-321" font-family="Helvetica,sans-Serif" font-size="10.00">ePub3/user_action.h</text>
</g>
<!-- Node9&#45;&gt;Node10 -->
<g id="edge10" class="edge"><title>Node9&#45;&gt;Node10</title>
<path fill="none" stroke="midnightblue" d="M829,-372.753C829,-365.25 829,-354.424 829,-345.078"/>
<polygon fill="midnightblue" stroke="midnightblue" points="832.5,-345.075 829,-335.075 825.5,-345.075 832.5,-345.075"/>
</g>
<!-- Node11 -->
<g id="node11" class="node"><title>Node11</title>
<g id="a_node11"><a xlink:href="future_8h.xhtml" target="_top" xlink:title="ePub3/utilities/future.h">
<polygon fill="white" stroke="black" points="635.525,-315 635.525,-335 750.475,-335 750.475,-315 635.525,-315"/>
<text text-anchor="middle" x="693" y="-321" font-family="Helvetica,sans-Serif" font-size="10.00">ePub3/utilities/future.h</text>
</a>
</g>
</g>
<!-- Node9&#45;&gt;Node11 -->
<g id="edge11" class="edge"><title>Node9&#45;&gt;Node11</title>
<path fill="none" stroke="midnightblue" d="M806.847,-372.878C784.52,-363.685 749.852,-349.409 724.635,-339.026"/>
<polygon fill="midnightblue" stroke="midnightblue" points="725.723,-335.689 715.144,-335.118 723.058,-342.162 725.723,-335.689"/>
</g>
<!-- Node9&#45;&gt;Node8 -->
<g id="edge43" class="edge"><title>Node9&#45;&gt;Node8</title>
<path fill="none" stroke="midnightblue" d="M781.247,-377.616C727.992,-371.657 646.719,-359.009 627,-336 580.075,-281.245 570.341,-228.117 618,-174 639.27,-149.848 855.363,-135.002 942.684,-129.948"/>
<polygon fill="midnightblue" stroke="midnightblue" points="943.129,-133.428 952.915,-129.367 942.732,-126.44 943.129,-133.428"/>
</g>
<!-- Node12 -->
<g id="node12" class="node"><title>Node12</title>
<g id="a_node12"><a xlink:href="base_8h.xhtml" target="_top" xlink:title="ePub3/base.h">
<polygon fill="white" stroke="black" points="1268.14,-117 1268.14,-137 1345.86,-137 1345.86,-117 1268.14,-117"/>
<text text-anchor="middle" x="1307" y="-123" font-family="Helvetica,sans-Serif" font-size="10.00">ePub3/base.h</text>
</a>
</g>
</g>
<!-- Node11&#45;&gt;Node12 -->
<g id="edge12" class="edge"><title>Node11&#45;&gt;Node12</title>
<path fill="none" stroke="midnightblue" d="M734.341,-314.934C768.57,-306.496 813.265,-292.993 824,-278 850.909,-240.416 793.742,-208.053 825,-174 853.9,-142.516 1141.05,-132.025 1257.91,-129.041"/>
<polygon fill="midnightblue" stroke="midnightblue" points="1258.11,-132.538 1268.02,-128.791 1257.93,-125.54 1258.11,-132.538"/>
</g>
<!-- Node16 -->
<g id="node16" class="node"><title>Node16</title>
<polygon fill="white" stroke="#bfbfbf" points="1516.5,-117 1516.5,-137 1545.5,-137 1545.5,-117 1516.5,-117"/>
<text text-anchor="middle" x="1530.61" y="-123" font-family="Helvetica,sans-Serif" font-size="10.00">list</text>
</g>
<!-- Node11&#45;&gt;Node16 -->
<g id="edge16" class="edge"><title>Node11&#45;&gt;Node16</title>
<path fill="none" stroke="midnightblue" d="M740.896,-314.942C779.206,-306.698 828.646,-293.474 842,-278 872.555,-242.596 823.566,-205.644 858,-174 864.102,-168.393 1385.92,-136.717 1506.38,-129.475"/>
<polygon fill="midnightblue" stroke="midnightblue" points="1506.69,-132.963 1516.46,-128.87 1506.27,-125.975 1506.69,-132.963"/>
</g>
<!-- Node17 -->
<g id="node17" class="node"><title>Node17</title>
<polygon fill="white" stroke="#bfbfbf" points="1951.77,-117 1951.77,-137 1992.23,-137 1992.23,-117 1951.77,-117"/>
<text text-anchor="middle" x="1972" y="-123" font-family="Helvetica,sans-Serif" font-size="10.00">string</text>
</g>
<!-- Node11&#45;&gt;Node17 -->
<g id="edge17" class="edge"><title>Node11&#45;&gt;Node17</title>
<path fill="none" stroke="midnightblue" d="M750.732,-315.68C755.889,-315.062 761.035,-314.489 766,-314 1011.49,-289.806 1646.45,-310.126 1871,-208 1891.93,-198.48 1892.09,-188.418 1910,-174 1923.28,-163.316 1938.66,-151.898 1950.78,-143.111"/>
<polygon fill="midnightblue" stroke="midnightblue" points="1952.88,-145.909 1958.95,-137.225 1948.79,-140.228 1952.88,-145.909"/>
</g>
<!-- Node18 -->
<g id="node18" class="node"><title>Node18</title>
<polygon fill="white" stroke="#bfbfbf" points="1420.6,-181 1420.6,-201 1479.4,-201 1479.4,-181 1420.6,-181"/>
<text text-anchor="middle" x="1450" y="-187" font-family="Helvetica,sans-Serif" font-size="10.00">stdexcept</text>
</g>
<!-- Node11&#45;&gt;Node18 -->
<g id="edge18" class="edge"><title>Node11&#45;&gt;Node18</title>
<path fill="none" stroke="midnightblue" d="M750.734,-315.708C755.891,-315.084 761.036,-314.502 766,-314 887.42,-301.711 1197.95,-315.779 1314,-278 1360.57,-262.838 1407.14,-228.105 1431.87,-207.721"/>
<polygon fill="midnightblue" stroke="midnightblue" points="1434.27,-210.279 1439.67,-201.165 1429.76,-204.92 1434.27,-210.279"/>
</g>
<!-- Node19 -->
<g id="node19" class="node"><title>Node19</title>
<polygon fill="white" stroke="#bfbfbf" points="663.596,-251 663.596,-271 722.404,-271 722.404,-251 663.596,-251"/>
<text text-anchor="middle" x="693" y="-257" font-family="Helvetica,sans-Serif" font-size="10.00">exception</text>
</g>
<!-- Node11&#45;&gt;Node19 -->
<g id="edge19" class="edge"><title>Node11&#45;&gt;Node19</title>
<path fill="none" stroke="midnightblue" d="M693,-314.852C693,-306.06 693,-292.498 693,-281.313"/>
<polygon fill="midnightblue" stroke="midnightblue" points="696.5,-281.186 693,-271.186 689.5,-281.186 696.5,-281.186"/>
</g>
<!-- Node20 -->
<g id="node20" class="node"><title>Node20</title>
<polygon fill="white" stroke="#bfbfbf" points="740.828,-251 740.828,-271 815.172,-271 815.172,-251 740.828,-251"/>
<text text-anchor="middle" x="778" y="-257" font-family="Helvetica,sans-Serif" font-size="10.00">system_error</text>
</g>
<!-- Node11&#45;&gt;Node20 -->
<g id="edge20" class="edge"><title>Node11&#45;&gt;Node20</title>
<path fill="none" stroke="midnightblue" d="M705.542,-314.852C719.102,-304.961 740.939,-289.033 757.101,-277.244"/>
<polygon fill="midnightblue" stroke="midnightblue" points="759.39,-279.907 765.407,-271.186 755.265,-274.251 759.39,-279.907"/>
</g>
<!-- Node11&#45;&gt;Node21 -->
<g id="edge21" class="edge"><title>Node11&#45;&gt;Node21</title>
<path fill="none" stroke="midnightblue" d="M635.418,-323.44C511.319,-321.562 222.559,-313.405 132,-278 92.9349,-262.727 56.4253,-228.812 36.8633,-208.432"/>
<polygon fill="midnightblue" stroke="midnightblue" points="39.3932,-206.013 30.0027,-201.107 34.2841,-210.798 39.3932,-206.013"/>
</g>
<!-- Node11&#45;&gt;Node8 -->
<g id="edge22" class="edge"><title>Node11&#45;&gt;Node8</title>
<path fill="none" stroke="midnightblue" d="M680.194,-314.995C669.455,-306.692 654.677,-293.355 647,-278 626.233,-236.467 606.432,-208.955 637,-174 676.442,-128.898 863.031,-126.193 942.749,-127.167"/>
<polygon fill="midnightblue" stroke="midnightblue" points="942.766,-130.667 952.817,-127.317 942.87,-123.668 942.766,-130.667"/>
</g>
<!-- Node22 -->
<g id="node22" class="node"><title>Node22</title>
<polygon fill="white" stroke="#bfbfbf" points="506.273,-181 506.273,-201 551.727,-201 551.727,-181 506.273,-181"/>
<text text-anchor="middle" x="529" y="-187" font-family="Helvetica,sans-Serif" font-size="10.00">atomic</text>
</g>
<!-- Node11&#45;&gt;Node22 -->
<g id="edge23" class="edge"><title>Node11&#45;&gt;Node22</title>
<path fill="none" stroke="midnightblue" d="M657.427,-314.945C634.566,-307.778 605.276,-295.942 584,-278 561.835,-259.309 545.538,-229.385 536.661,-210.219"/>
<polygon fill="midnightblue" stroke="midnightblue" points="539.852,-208.782 532.602,-201.055 533.451,-211.616 539.852,-208.782"/>
</g>
<!-- Node23 -->
<g id="node23" class="node"><title>Node23</title>
<g id="a_node23"><a xlink:href="invoke_8h.xhtml" target="_top" xlink:title="ePub3/utilities/invoke.h">
<polygon fill="white" stroke="black" points="645.857,-181 645.857,-201 764.143,-201 764.143,-181 645.857,-181"/>
<text text-anchor="middle" x="705" y="-187" font-family="Helvetica,sans-Serif" font-size="10.00">ePub3/utilities/invoke.h</text>
</a>
</g>
</g>
<!-- Node11&#45;&gt;Node23 -->
<g id="edge24" class="edge"><title>Node11&#45;&gt;Node23</title>
<path fill="none" stroke="midnightblue" d="M681.919,-314.729C672.726,-306.255 660.328,-292.816 655,-278 649.886,-263.78 649.354,-258.017 655,-244 660.817,-229.558 672.774,-216.881 683.537,-207.659"/>
<polygon fill="midnightblue" stroke="midnightblue" points="685.826,-210.31 691.414,-201.309 681.432,-204.861 685.826,-210.31"/>
</g>
<!-- Node26 -->
<g id="node26" class="node"><title>Node26</title>
<g id="a_node26"><a xlink:href="executor_8h.xhtml" target="_top" xlink:title="ePub3/utilities/executor.h">
<polygon fill="white" stroke="black" points="339.407,-251 339.407,-271 466.593,-271 466.593,-251 339.407,-251"/>
<text text-anchor="middle" x="403" y="-257" font-family="Helvetica,sans-Serif" font-size="10.00">ePub3/utilities/executor.h</text>
</a>
</g>
</g>
<!-- Node11&#45;&gt;Node26 -->
<g id="edge28" class="edge"><title>Node11&#45;&gt;Node26</title>
<path fill="none" stroke="midnightblue" d="M650.832,-314.985C599.071,-303.919 511.293,-285.152 455.291,-273.179"/>
<polygon fill="midnightblue" stroke="midnightblue" points="455.73,-269.694 445.219,-271.026 454.267,-276.54 455.73,-269.694"/>
</g>
<!-- Node32 -->
<g id="node32" class="node"><title>Node32</title>
<g id="a_node32"><a xlink:href="condition__variable__any_8h.xhtml" target="_top" xlink:title="ePub3/utilities/condition\l_variable_any.h">
<polygon fill="white" stroke="black" points="141.466,-245 141.466,-277 262.534,-277 262.534,-245 141.466,-245"/>
<text text-anchor="start" x="149.466" y="-263" font-family="Helvetica,sans-Serif" font-size="10.00">ePub3/utilities/condition</text>
<text text-anchor="middle" x="202" y="-251" font-family="Helvetica,sans-Serif" font-size="10.00">_variable_any.h</text>
</a>
</g>
</g>
<!-- Node11&#45;&gt;Node32 -->
<g id="edge39" class="edge"><title>Node11&#45;&gt;Node32</title>
<path fill="none" stroke="midnightblue" d="M635.232,-316.705C544.888,-305.297 370.409,-283.265 272.695,-270.927"/>
<polygon fill="midnightblue" stroke="midnightblue" points="272.977,-267.435 262.617,-269.654 272.1,-274.38 272.977,-267.435"/>
</g>
<!-- Node13 -->
<g id="node13" class="node"><title>Node13</title>
<g id="a_node13"><a xlink:href="__config_8h.xhtml" target="_top" xlink:title="_config.h">
<polygon fill="white" stroke="black" points="626.707,-59 626.707,-79 683.293,-79 683.293,-59 626.707,-59"/>
<text text-anchor="middle" x="655" y="-65" font-family="Helvetica,sans-Serif" font-size="10.00">_config.h</text>
</a>
</g>
</g>
<!-- Node12&#45;&gt;Node13 -->
<g id="edge13" class="edge"><title>Node12&#45;&gt;Node13</title>
<path fill="none" stroke="midnightblue" d="M1267.68,-122.623C1151.28,-112.625 809.324,-83.2549 693.709,-73.3247"/>
<polygon fill="midnightblue" stroke="midnightblue" points="693.819,-69.8214 683.557,-72.4527 693.22,-76.7957 693.819,-69.8214"/>
</g>
<!-- Node15 -->
<g id="node15" class="node"><title>Node15</title>
<polygon fill="white" stroke="#bfbfbf" points="1283.16,-59 1283.16,-79 1330.84,-79 1330.84,-59 1283.16,-59"/>
<text text-anchor="middle" x="1307" y="-65" font-family="Helvetica,sans-Serif" font-size="10.00">stdlib.h</text>
</g>
<!-- Node12&#45;&gt;Node15 -->
<g id="edge15" class="edge"><title>Node12&#45;&gt;Node15</title>
<path fill="none" stroke="midnightblue" d="M1307,-116.753C1307,-109.25 1307,-98.4238 1307,-89.0781"/>
<polygon fill="midnightblue" stroke="midnightblue" points="1310.5,-89.0752 1307,-79.0752 1303.5,-89.0752 1310.5,-89.0752"/>
</g>
<!-- Node14 -->
<g id="node14" class="node"><title>Node14</title>
<g id="a_node14"><a xlink:href="__platform_8h.xhtml" target="_top" xlink:title="_platform.h">
<polygon fill="white" stroke="red" points="621.988,-1 621.988,-21 688.012,-21 688.012,-1 621.988,-1"/>
<text text-anchor="middle" x="655" y="-7" font-family="Helvetica,sans-Serif" font-size="10.00">_platform.h</text>
</a>
</g>
</g>
<!-- Node13&#45;&gt;Node14 -->
<g id="edge14" class="edge"><title>Node13&#45;&gt;Node14</title>
<path fill="none" stroke="midnightblue" d="M655,-58.7527C655,-51.2504 655,-40.4238 655,-31.0781"/>
<polygon fill="midnightblue" stroke="midnightblue" points="658.5,-31.0752 655,-21.0752 651.5,-31.0752 658.5,-31.0752"/>
</g>
<!-- Node23&#45;&gt;Node12 -->
<g id="edge25" class="edge"><title>Node23&#45;&gt;Node12</title>
<path fill="none" stroke="midnightblue" d="M746.995,-180.931C759.792,-178.404 773.931,-175.848 787,-174 959.167,-149.656 1165.34,-135.964 1257.85,-130.632"/>
<polygon fill="midnightblue" stroke="midnightblue" points="1258.24,-134.115 1268.03,-130.052 1257.85,-127.126 1258.24,-134.115"/>
</g>
<!-- Node24 -->
<g id="node24" class="node"><title>Node24</title>
<polygon fill="white" stroke="#bfbfbf" points="1778.93,-117 1778.93,-137 1841.07,-137 1841.07,-117 1778.93,-117"/>
<text text-anchor="middle" x="1810" y="-123" font-family="Helvetica,sans-Serif" font-size="10.00">type_traits</text>
</g>
<!-- Node23&#45;&gt;Node24 -->
<g id="edge26" class="edge"><title>Node23&#45;&gt;Node24</title>
<path fill="none" stroke="midnightblue" d="M764.502,-182.873C792.788,-179.717 827.099,-176.223 858,-174 1259.24,-145.131 1366.67,-194.661 1768.52,-137.924"/>
<polygon fill="midnightblue" stroke="midnightblue" points="1769.27,-141.353 1778.68,-136.477 1768.28,-134.423 1769.27,-141.353"/>
</g>
<!-- Node25 -->
<g id="node25" class="node"><title>Node25</title>
<polygon fill="white" stroke="#bfbfbf" points="465.596,-117 465.596,-137 524.404,-137 524.404,-117 465.596,-117"/>
<text text-anchor="middle" x="495" y="-123" font-family="Helvetica,sans-Serif" font-size="10.00">functional</text>
</g>
<!-- Node23&#45;&gt;Node25 -->
<g id="edge27" class="edge"><title>Node23&#45;&gt;Node25</title>
<path fill="none" stroke="midnightblue" d="M674.464,-180.985C637.446,-170.055 574.985,-151.615 534.379,-139.626"/>
<polygon fill="midnightblue" stroke="midnightblue" points="535.137,-136.201 524.555,-136.726 533.155,-142.914 535.137,-136.201"/>
</g>
<!-- Node26&#45;&gt;Node3 -->
<g id="edge29" class="edge"><title>Node26&#45;&gt;Node3</title>
<path fill="none" stroke="midnightblue" d="M466.829,-251.422C568.11,-237.811 763.693,-211.527 857.007,-198.987"/>
<polygon fill="midnightblue" stroke="midnightblue" points="857.615,-202.437 867.06,-197.636 856.683,-195.499 857.615,-202.437"/>
</g>
<!-- Node26&#45;&gt;Node25 -->
<g id="edge30" class="edge"><title>Node26&#45;&gt;Node25</title>
<path fill="none" stroke="midnightblue" d="M366.506,-250.896C344.529,-243.328 318.302,-230.117 305,-208 297.212,-195.051 295.656,-185.876 305,-174 323.319,-150.717 405.016,-137.797 455.128,-131.934"/>
<polygon fill="midnightblue" stroke="midnightblue" points="455.762,-135.385 465.308,-130.789 454.98,-128.429 455.762,-135.385"/>
</g>
<!-- Node27 -->
<g id="node27" class="node"><title>Node27</title>
<polygon fill="white" stroke="#bfbfbf" points="379.712,-181 379.712,-201 426.288,-201 426.288,-181 379.712,-181"/>
<text text-anchor="middle" x="403" y="-187" font-family="Helvetica,sans-Serif" font-size="10.00">chrono</text>
</g>
<!-- Node26&#45;&gt;Node27 -->
<g id="edge31" class="edge"><title>Node26&#45;&gt;Node27</title>
<path fill="none" stroke="midnightblue" d="M403,-250.829C403,-240.735 403,-224.222 403,-211.256"/>
<polygon fill="midnightblue" stroke="midnightblue" points="406.5,-211.025 403,-201.025 399.5,-211.026 406.5,-211.025"/>
</g>
<!-- Node28 -->
<g id="node28" class="node"><title>Node28</title>
<polygon fill="white" stroke="#bfbfbf" points="444.096,-181 444.096,-201 487.904,-201 487.904,-181 444.096,-181"/>
<text text-anchor="middle" x="466" y="-187" font-family="Helvetica,sans-Serif" font-size="10.00">queue</text>
</g>
<!-- Node26&#45;&gt;Node28 -->
<g id="edge32" class="edge"><title>Node26&#45;&gt;Node28</title>
<path fill="none" stroke="midnightblue" d="M411.496,-250.829C421.509,-240.022 438.341,-221.854 450.656,-208.562"/>
<polygon fill="midnightblue" stroke="midnightblue" points="453.409,-210.74 457.638,-201.025 448.274,-205.982 453.409,-210.74"/>
</g>
<!-- Node26&#45;&gt;Node22 -->
<g id="edge33" class="edge"><title>Node26&#45;&gt;Node22</title>
<path fill="none" stroke="midnightblue" d="M419.732,-250.97C441.101,-239.438 478.299,-219.363 503.281,-205.88"/>
<polygon fill="midnightblue" stroke="midnightblue" points="505.061,-208.897 512.199,-201.067 501.736,-202.737 505.061,-208.897"/>
</g>
<!-- Node29 -->
<g id="node29" class="node"><title>Node29</title>
<polygon fill="white" stroke="#bfbfbf" points="100.384,-181 100.384,-201 143.616,-201 143.616,-181 100.384,-181"/>
<text text-anchor="middle" x="122" y="-187" font-family="Helvetica,sans-Serif" font-size="10.00">mutex</text>
</g>
<!-- Node26&#45;&gt;Node29 -->
<g id="edge34" class="edge"><title>Node26&#45;&gt;Node29</title>
<path fill="none" stroke="midnightblue" d="M339.294,-251.632C287.984,-243.74 214.525,-229.817 153,-208 151.073,-207.317 149.116,-206.536 147.17,-205.694"/>
<polygon fill="midnightblue" stroke="midnightblue" points="148.249,-202.33 137.719,-201.16 145.221,-208.641 148.249,-202.33"/>
</g>
<!-- Node26&#45;&gt;Node21 -->
<g id="edge35" class="edge"><title>Node26&#45;&gt;Node21</title>
<path fill="none" stroke="midnightblue" d="M341.814,-250.963C278.758,-241.378 177.71,-225.261 91,-208 78.9962,-205.61 65.8963,-202.66 54.3671,-199.947"/>
<polygon fill="midnightblue" stroke="midnightblue" points="54.8365,-196.461 44.2972,-197.544 53.2119,-203.27 54.8365,-196.461"/>
</g>
<!-- Node30 -->
<g id="node30" class="node"><title>Node30</title>
<polygon fill="white" stroke="#bfbfbf" points="313.884,-181 313.884,-201 362.116,-201 362.116,-181 313.884,-181"/>
<text text-anchor="middle" x="338" y="-187" font-family="Helvetica,sans-Serif" font-size="10.00">cassert</text>
</g>
<!-- Node26&#45;&gt;Node30 -->
<g id="edge36" class="edge"><title>Node26&#45;&gt;Node30</title>
<path fill="none" stroke="midnightblue" d="M394.234,-250.829C383.903,-240.022 366.537,-221.854 353.832,-208.562"/>
<polygon fill="midnightblue" stroke="midnightblue" points="356.067,-205.836 346.627,-201.025 351.007,-210.673 356.067,-205.836"/>
</g>
<!-- Node31 -->
<g id="node31" class="node"><title>Node31</title>
<polygon fill="white" stroke="#bfbfbf" points="161.695,-181 161.695,-201 258.305,-201 258.305,-181 161.695,-181"/>
<text text-anchor="middle" x="210" y="-187" font-family="Helvetica,sans-Serif" font-size="10.00">condition_variable</text>
</g>
<!-- Node26&#45;&gt;Node31 -->
<g id="edge37" class="edge"><title>Node26&#45;&gt;Node31</title>
<path fill="none" stroke="midnightblue" d="M377.371,-250.97C343.485,-239.031 283.615,-217.937 245.421,-204.48"/>
<polygon fill="midnightblue" stroke="midnightblue" points="246.33,-201.089 235.735,-201.067 244.004,-207.691 246.33,-201.089"/>
</g>
<!-- Node26&#45;&gt;Node23 -->
<g id="edge38" class="edge"><title>Node26&#45;&gt;Node23</title>
<path fill="none" stroke="midnightblue" d="M443.103,-250.97C497.706,-238.675 595.426,-216.672 654.823,-203.298"/>
<polygon fill="midnightblue" stroke="midnightblue" points="655.744,-206.678 664.731,-201.067 654.206,-199.849 655.744,-206.678"/>
</g>
<!-- Node32&#45;&gt;Node13 -->
<g id="edge40" class="edge"><title>Node32&#45;&gt;Node13</title>
<path fill="none" stroke="midnightblue" d="M141.3,-245.61C121.853,-237.821 102.418,-225.958 91,-208 82.8921,-195.248 81.3321,-185.614 91,-174 158.411,-93.0227 499.844,-74.8559 616.141,-70.9916"/>
<polygon fill="midnightblue" stroke="midnightblue" points="616.475,-74.4829 626.36,-70.67 616.254,-67.4864 616.475,-74.4829"/>
</g>
<!-- Node32&#45;&gt;Node29 -->
<g id="edge41" class="edge"><title>Node32&#45;&gt;Node29</title>
<path fill="none" stroke="midnightblue" d="M184.245,-244.909C171.256,-233.867 153.677,-218.925 140.513,-207.736"/>
<polygon fill="midnightblue" stroke="midnightblue" points="142.479,-204.813 132.592,-201.004 137.945,-210.147 142.479,-204.813"/>
</g>
<!-- Node32&#45;&gt;Node31 -->
<g id="edge42" class="edge"><title>Node32&#45;&gt;Node31</title>
<path fill="none" stroke="midnightblue" d="M203.775,-244.909C204.951,-234.919 206.502,-221.736 207.761,-211.028"/>
<polygon fill="midnightblue" stroke="midnightblue" points="211.248,-211.344 208.941,-201.004 204.296,-210.526 211.248,-211.344"/>
</g>
<!-- Node33&#45;&gt;Node3 -->
<g id="edge45" class="edge"><title>Node33&#45;&gt;Node3</title>
<path fill="none" stroke="midnightblue" d="M1005.83,-372.724C997.361,-363.829 984.805,-349.757 976,-336 948.979,-293.784 926.551,-238.916 915.816,-210.649"/>
<polygon fill="midnightblue" stroke="midnightblue" points="919.065,-209.345 912.29,-201.2 912.507,-211.792 919.065,-209.345"/>
</g>
<!-- Node34 -->
<g id="node34" class="node"><title>Node34</title>
<polygon fill="white" stroke="#bfbfbf" points="984.983,-315 984.983,-335 1051.02,-335 1051.02,-315 984.983,-315"/>
<text text-anchor="middle" x="1018" y="-321" font-family="Helvetica,sans-Serif" font-size="10.00">ePub3/cfi.h</text>
</g>
<!-- Node33&#45;&gt;Node34 -->
<g id="edge46" class="edge"><title>Node33&#45;&gt;Node34</title>
<path fill="none" stroke="midnightblue" d="M1015.5,-372.753C1015.9,-365.25 1016.48,-354.424 1016.98,-345.078"/>
<polygon fill="midnightblue" stroke="midnightblue" points="1020.47,-345.248 1017.51,-335.075 1013.48,-344.874 1020.47,-345.248"/>
</g>
<!-- Node35 -->
<g id="node35" class="node"><title>Node35</title>
<g id="a_node35"><a xlink:href="iri_8h.xhtml" target="_top" xlink:title="ePub3/utilities/iri.h">
<polygon fill="white" stroke="black" points="1952.42,-315 1952.42,-335 2049.58,-335 2049.58,-315 1952.42,-315"/>
<text text-anchor="middle" x="2001" y="-321" font-family="Helvetica,sans-Serif" font-size="10.00">ePub3/utilities/iri.h</text>
</a>
</g>
</g>
<!-- Node33&#45;&gt;Node35 -->
<g id="edge47" class="edge"><title>Node33&#45;&gt;Node35</title>
<path fill="none" stroke="midnightblue" d="M1053.05,-379.839C1203.72,-371.282 1759.25,-339.73 1942.17,-329.341"/>
<polygon fill="midnightblue" stroke="midnightblue" points="1942.61,-332.822 1952.4,-328.76 1942.21,-325.833 1942.61,-332.822"/>
</g>
<!-- Node36 -->
<g id="node36" class="node"><title>Node36</title>
<g id="a_node36"><a xlink:href="utfstring_8h.xhtml" target="_top" xlink:title="ePub3/utilities/utfstring.h">
<polygon fill="white" stroke="black" points="2063.52,-251 2063.52,-271 2188.48,-271 2188.48,-251 2063.52,-251"/>
<text text-anchor="middle" x="2126" y="-257" font-family="Helvetica,sans-Serif" font-size="10.00">ePub3/utilities/utfstring.h</text>
</a>
</g>
</g>
<!-- Node35&#45;&gt;Node36 -->
<g id="edge48" class="edge"><title>Node35&#45;&gt;Node36</title>
<path fill="none" stroke="midnightblue" d="M2019.18,-314.985C2040.1,-304.607 2074.67,-287.458 2098.8,-275.49"/>
<polygon fill="midnightblue" stroke="midnightblue" points="2100.4,-278.605 2107.8,-271.026 2097.29,-272.334 2100.4,-278.605"/>
</g>
<!-- Node46 -->
<g id="node46" class="node"><title>Node46</title>
<g id="a_node46"><a xlink:href="make__unique_8h.xhtml" target="_top" xlink:title="ePub3/utilities/make\l_unique.h">
<polygon fill="white" stroke="black" points="1757.25,-175 1757.25,-207 1862.75,-207 1862.75,-175 1757.25,-175"/>
<text text-anchor="start" x="1765.25" y="-193" font-family="Helvetica,sans-Serif" font-size="10.00">ePub3/utilities/make</text>
<text text-anchor="middle" x="1810" y="-181" font-family="Helvetica,sans-Serif" font-size="10.00">_unique.h</text>
</a>
</g>
</g>
<!-- Node35&#45;&gt;Node46 -->
<g id="edge69" class="edge"><title>Node35&#45;&gt;Node46</title>
<path fill="none" stroke="midnightblue" d="M1987.87,-314.927C1957.59,-294.002 1882.23,-241.921 1839.96,-212.708"/>
<polygon fill="midnightblue" stroke="midnightblue" points="1841.94,-209.82 1831.72,-207.014 1837.96,-215.578 1841.94,-209.82"/>
</g>
<!-- Node49 -->
<g id="node49" class="node"><title>Node49</title>
<polygon fill="white" stroke="#bfbfbf" points="1956.87,-251 1956.87,-271 2045.13,-271 2045.13,-251 1956.87,-251"/>
<text text-anchor="middle" x="2001" y="-257" font-family="Helvetica,sans-Serif" font-size="10.00">google&#45;url/gurl.h</text>
</g>
<!-- Node35&#45;&gt;Node49 -->
<g id="edge75" class="edge"><title>Node35&#45;&gt;Node49</title>
<path fill="none" stroke="midnightblue" d="M2001,-314.852C2001,-306.06 2001,-292.498 2001,-281.313"/>
<polygon fill="midnightblue" stroke="midnightblue" points="2004.5,-281.186 2001,-271.186 1997.5,-281.186 2004.5,-281.186"/>
</g>
<!-- Node38 -->
<g id="node38" class="node"><title>Node38</title>
<polygon fill="white" stroke="#bfbfbf" points="2323.38,-117 2323.38,-137 2366.62,-137 2366.62,-117 2323.38,-117"/>
<text text-anchor="middle" x="2345" y="-123" font-family="Helvetica,sans-Serif" font-size="10.00">vector</text>
</g>
<!-- Node35&#45;&gt;Node38 -->
<g id="edge76" class="edge"><title>Node35&#45;&gt;Node38</title>
<path fill="none" stroke="midnightblue" d="M2049.93,-319.842C2162.21,-309.184 2432.87,-276.752 2487,-208 2496.35,-196.127 2495.89,-186.221 2487,-174 2461.97,-139.581 2410.62,-130.392 2377.01,-128.226"/>
<polygon fill="midnightblue" stroke="midnightblue" points="2376.94,-124.719 2366.78,-127.747 2376.61,-131.711 2376.94,-124.719"/>
</g>
<!-- Node37 -->
<g id="node37" class="node"><title>Node37</title>
<g id="a_node37"><a xlink:href="basic_8h.xhtml" target="_top" xlink:title="ePub3/utilities/basic.h">
<polygon fill="white" stroke="red" points="1626.64,-181 1626.64,-201 1739.36,-201 1739.36,-181 1626.64,-181"/>
<text text-anchor="middle" x="1683" y="-187" font-family="Helvetica,sans-Serif" font-size="10.00">ePub3/utilities/basic.h</text>
</a>
</g>
</g>
<!-- Node36&#45;&gt;Node37 -->
<g id="edge49" class="edge"><title>Node36&#45;&gt;Node37</title>
<path fill="none" stroke="midnightblue" d="M2088.77,-250.971C2077.63,-248.475 2065.36,-245.926 2054,-244 1918.99,-221.117 1882.74,-232.412 1748,-208 1740.85,-206.704 1733.31,-205.086 1726,-203.38"/>
<polygon fill="midnightblue" stroke="midnightblue" points="1726.77,-199.967 1716.23,-201.022 1725.13,-206.771 1726.77,-199.967"/>
</g>
<!-- Node39 -->
<g id="node39" class="node"><title>Node39</title>
<g id="a_node39"><a xlink:href="integer__sequence_8h.xhtml" target="_top" xlink:title="ePub3/utilities/integer\l_sequence.h">
<polygon fill="white" stroke="black" points="1497.19,-175 1497.19,-207 1608.81,-207 1608.81,-175 1497.19,-175"/>
<text text-anchor="start" x="1505.19" y="-193" font-family="Helvetica,sans-Serif" font-size="10.00">ePub3/utilities/integer</text>
<text text-anchor="middle" x="1553" y="-181" font-family="Helvetica,sans-Serif" font-size="10.00">_sequence.h</text>
</a>
</g>
</g>
<!-- Node36&#45;&gt;Node39 -->
<g id="edge54" class="edge"><title>Node36&#45;&gt;Node39</title>
<path fill="none" stroke="midnightblue" d="M2089.92,-250.972C2078.5,-248.386 2065.77,-245.786 2054,-244 1864.95,-215.327 1811.66,-238.538 1618.79,-207.955"/>
<polygon fill="midnightblue" stroke="midnightblue" points="1619.33,-204.497 1608.9,-206.359 1618.22,-211.407 1619.33,-204.497"/>
</g>
<!-- Node40 -->
<g id="node40" class="node"><title>Node40</title>
<g id="a_node40"><a xlink:href="string__view_8h.xhtml" target="_top" xlink:title="ePub3/utilities/string\l_view.h">
<polygon fill="white" stroke="red" points="1919.25,-175 1919.25,-207 2024.75,-207 2024.75,-175 1919.25,-175"/>
<text text-anchor="start" x="1927.25" y="-193" font-family="Helvetica,sans-Serif" font-size="10.00">ePub3/utilities/string</text>
<text text-anchor="middle" x="1972" y="-181" font-family="Helvetica,sans-Serif" font-size="10.00">_view.h</text>
</a>
</g>
</g>
<!-- Node36&#45;&gt;Node40 -->
<g id="edge56" class="edge"><title>Node36&#45;&gt;Node40</title>
<path fill="none" stroke="midnightblue" d="M2105.55,-250.97C2082.66,-240.864 2044.92,-224.199 2015.39,-211.158"/>
<polygon fill="midnightblue" stroke="midnightblue" points="2016.68,-207.902 2006.12,-207.064 2013.85,-214.306 2016.68,-207.902"/>
</g>
<!-- Node36&#45;&gt;Node17 -->
<g id="edge60" class="edge"><title>Node36&#45;&gt;Node17</title>
<path fill="none" stroke="midnightblue" d="M2116.78,-250.889C2100.38,-234.827 2064.89,-200.655 2033,-174 2020.19,-163.29 2005.22,-151.988 1993.32,-143.267"/>
<polygon fill="midnightblue" stroke="midnightblue" points="1995.05,-140.198 1984.9,-137.153 1990.94,-145.862 1995.05,-140.198"/>
</g>
<!-- Node42 -->
<g id="node42" class="node"><title>Node42</title>
<polygon fill="white" stroke="#bfbfbf" points="2119.44,-181 2119.44,-201 2166.56,-201 2166.56,-181 2119.44,-181"/>
<text text-anchor="middle" x="2143" y="-187" font-family="Helvetica,sans-Serif" font-size="10.00">iterator</text>
</g>
<!-- Node36&#45;&gt;Node42 -->
<g id="edge61" class="edge"><title>Node36&#45;&gt;Node42</title>
<path fill="none" stroke="midnightblue" d="M2128.29,-250.829C2130.84,-240.633 2135.03,-223.887 2138.28,-210.864"/>
<polygon fill="midnightblue" stroke="midnightblue" points="2141.71,-211.576 2140.74,-201.025 2134.92,-209.878 2141.71,-211.576"/>
</g>
<!-- Node43 -->
<g id="node43" class="node"><title>Node43</title>
<polygon fill="white" stroke="#bfbfbf" points="2184.94,-181 2184.94,-201 2227.06,-201 2227.06,-181 2184.94,-181"/>
<text text-anchor="middle" x="2206" y="-187" font-family="Helvetica,sans-Serif" font-size="10.00">locale</text>
</g>
<!-- Node36&#45;&gt;Node43 -->
<g id="edge62" class="edge"><title>Node36&#45;&gt;Node43</title>
<path fill="none" stroke="midnightblue" d="M2136.79,-250.829C2149.74,-239.818 2171.69,-221.166 2187.39,-207.815"/>
<polygon fill="midnightblue" stroke="midnightblue" points="2190.03,-210.169 2195.38,-201.025 2185.5,-204.835 2190.03,-210.169"/>
</g>
<!-- Node36&#45;&gt;Node38 -->
<g id="edge63" class="edge"><title>Node36&#45;&gt;Node38</title>
<path fill="none" stroke="midnightblue" d="M2188.84,-259.883C2278.02,-258.227 2434.45,-249.326 2470,-208 2479.85,-196.544 2478.65,-186.394 2470,-174 2449.14,-144.102 2406.58,-133.583 2376.94,-129.913"/>
<polygon fill="midnightblue" stroke="midnightblue" points="2376.98,-126.398 2366.67,-128.848 2376.26,-133.361 2376.98,-126.398"/>
</g>
<!-- Node44 -->
<g id="node44" class="node"><title>Node44</title>
<polygon fill="white" stroke="#bfbfbf" points="2282.77,-181 2282.77,-201 2383.23,-201 2383.23,-181 2282.77,-181"/>
<text text-anchor="middle" x="2333" y="-187" font-family="Helvetica,sans-Serif" font-size="10.00">REGEX_INCLUDE</text>
</g>
<!-- Node36&#45;&gt;Node44 -->
<g id="edge64" class="edge"><title>Node36&#45;&gt;Node44</title>
<path fill="none" stroke="midnightblue" d="M2153.49,-250.97C2190.06,-238.955 2254.87,-217.667 2295.79,-204.223"/>
<polygon fill="midnightblue" stroke="midnightblue" points="2296.99,-207.513 2305.4,-201.067 2294.81,-200.863 2296.99,-207.513"/>
</g>
<!-- Node36&#45;&gt;Node6 -->
<g id="edge65" class="edge"><title>Node36&#45;&gt;Node6</title>
<path fill="none" stroke="midnightblue" d="M2090.68,-250.951C2079.07,-248.298 2066.05,-245.665 2054,-244 1912.45,-224.437 1548.7,-249.61 1412,-208 1410.28,-207.476 1408.55,-206.822 1406.85,-206.079"/>
<polygon fill="midnightblue" stroke="midnightblue" points="1408.07,-202.759 1397.59,-201.152 1404.78,-208.939 1408.07,-202.759"/>
</g>
<!-- Node36&#45;&gt;Node18 -->
<g id="edge66" class="edge"><title>Node36&#45;&gt;Node18</title>
<path fill="none" stroke="midnightblue" d="M2090.31,-250.921C2078.79,-248.3 2065.92,-245.693 2054,-244 1804.44,-208.553 1733.37,-265.715 1488,-208 1484.55,-207.189 1481.01,-206.093 1477.55,-204.853"/>
<polygon fill="midnightblue" stroke="midnightblue" points="1478.72,-201.551 1468.14,-201.094 1476.13,-208.052 1478.72,-201.551"/>
</g>
<!-- Node41 -->
<g id="node41" class="node"><title>Node41</title>
<polygon fill="white" stroke="#bfbfbf" points="2122.61,-117 2122.61,-137 2161.39,-137 2161.39,-117 2122.61,-117"/>
<text text-anchor="middle" x="2142" y="-123" font-family="Helvetica,sans-Serif" font-size="10.00">limits</text>
</g>
<!-- Node36&#45;&gt;Node41 -->
<g id="edge67" class="edge"><title>Node36&#45;&gt;Node41</title>
<path fill="none" stroke="midnightblue" d="M2170.71,-250.96C2194.46,-243.638 2221.65,-230.663 2236,-208 2244.09,-195.234 2244,-186.82 2236,-174 2221.97,-151.511 2193.4,-139.715 2171.42,-133.728"/>
<polygon fill="midnightblue" stroke="midnightblue" points="2172.11,-130.292 2161.56,-131.301 2170.43,-137.089 2172.11,-130.292"/>
</g>
<!-- Node45 -->
<g id="node45" class="node"><title>Node45</title>
<polygon fill="white" stroke="#bfbfbf" points="2400.76,-181 2400.76,-201 2461.24,-201 2461.24,-181 2400.76,-181"/>
<text text-anchor="middle" x="2431" y="-187" font-family="Helvetica,sans-Serif" font-size="10.00">utf8/utf8.h</text>
</g>
<!-- Node36&#45;&gt;Node45 -->
<g id="edge68" class="edge"><title>Node36&#45;&gt;Node45</title>
<path fill="none" stroke="midnightblue" d="M2188.65,-251.31C2243.09,-242.92 2323.71,-228.466 2392,-208 2395.15,-207.055 2398.41,-205.947 2401.62,-204.764"/>
<polygon fill="midnightblue" stroke="midnightblue" points="2403,-207.983 2411.03,-201.073 2400.44,-201.466 2403,-207.983"/>
</g>
<!-- Node37&#45;&gt;Node12 -->
<g id="edge50" class="edge"><title>Node37&#45;&gt;Node12</title>
<path fill="none" stroke="midnightblue" d="M1648.19,-180.938C1638.16,-178.497 1627.18,-175.986 1617,-174 1525.63,-156.183 1417.91,-141.634 1356.52,-133.943"/>
<polygon fill="midnightblue" stroke="midnightblue" points="1356.7,-130.438 1346.34,-132.678 1355.84,-137.385 1356.7,-130.438"/>
</g>
<!-- Node37&#45;&gt;Node8 -->
<g id="edge51" class="edge"><title>Node37&#45;&gt;Node8</title>
<path fill="none" stroke="midnightblue" d="M1650.32,-180.942C1639.76,-178.321 1627.95,-175.71 1617,-174 1390.15,-138.576 1113.58,-130.367 1015.57,-128.519"/>
<polygon fill="midnightblue" stroke="midnightblue" points="1015.37,-125.015 1005.31,-128.337 1015.24,-132.014 1015.37,-125.015"/>
</g>
<!-- Node37&#45;&gt;Node38 -->
<g id="edge52" class="edge"><title>Node37&#45;&gt;Node38</title>
<path fill="none" stroke="midnightblue" d="M1715.19,-180.967C1725.58,-178.348 1737.21,-175.731 1748,-174 1858.52,-156.263 2205.57,-135.815 2312.99,-129.769"/>
<polygon fill="midnightblue" stroke="midnightblue" points="2313.4,-133.252 2323.19,-129.198 2313.01,-126.263 2313.4,-133.252"/>
</g>
<!-- Node37&#45;&gt;Node16 -->
<g id="edge53" class="edge"><title>Node37&#45;&gt;Node16</title>
<path fill="none" stroke="midnightblue" d="M1660.9,-180.985C1632.76,-169.508 1584.32,-149.75 1555.21,-137.876"/>
<polygon fill="midnightblue" stroke="midnightblue" points="1556.37,-134.568 1545.79,-134.032 1553.72,-141.049 1556.37,-134.568"/>
</g>
<!-- Node39&#45;&gt;Node12 -->
<g id="edge55" class="edge"><title>Node39&#45;&gt;Node12</title>
<path fill="none" stroke="midnightblue" d="M1497.18,-175.931C1453.53,-164.93 1393.6,-149.826 1352.76,-139.533"/>
<polygon fill="midnightblue" stroke="midnightblue" points="1353.36,-136.075 1342.81,-137.025 1351.65,-142.863 1353.36,-136.075"/>
</g>
<!-- Node40&#45;&gt;Node24 -->
<g id="edge57" class="edge"><title>Node40&#45;&gt;Node24</title>
<path fill="none" stroke="midnightblue" d="M1932.78,-174.992C1905.38,-164.505 1869.2,-150.656 1843.22,-140.713"/>
<polygon fill="midnightblue" stroke="midnightblue" points="1844.39,-137.414 1833.8,-137.109 1841.89,-143.952 1844.39,-137.414"/>
</g>
<!-- Node40&#45;&gt;Node17 -->
<g id="edge58" class="edge"><title>Node40&#45;&gt;Node17</title>
<path fill="none" stroke="midnightblue" d="M1972,-174.992C1972,-166.726 1972,-156.373 1972,-147.489"/>
<polygon fill="midnightblue" stroke="midnightblue" points="1975.5,-147.29 1972,-137.29 1968.5,-147.29 1975.5,-147.29"/>
</g>
<!-- Node40&#45;&gt;Node41 -->
<g id="edge59" class="edge"><title>Node40&#45;&gt;Node41</title>
<path fill="none" stroke="midnightblue" d="M2013.15,-174.992C2043.96,-163.756 2085.35,-148.662 2112.81,-138.647"/>
<polygon fill="midnightblue" stroke="midnightblue" points="2114.05,-141.918 2122.25,-135.203 2111.66,-135.341 2114.05,-141.918"/>
</g>
<!-- Node46&#45;&gt;Node12 -->
<g id="edge70" class="edge"><title>Node46&#45;&gt;Node12</title>
<path fill="none" stroke="midnightblue" d="M1757.01,-175.774C1753.97,-175.13 1750.95,-174.532 1748,-174 1606.88,-148.576 1437.63,-135.795 1355.91,-130.72"/>
<polygon fill="midnightblue" stroke="midnightblue" points="1356.11,-127.226 1345.91,-130.11 1355.68,-134.213 1356.11,-127.226"/>
</g>
<!-- Node47 -->
<g id="node47" class="node"><title>Node47</title>
<polygon fill="white" stroke="#bfbfbf" points="1858.88,-117 1858.88,-137 1907.12,-137 1907.12,-117 1858.88,-117"/>
<text text-anchor="middle" x="1883" y="-123" font-family="Helvetica,sans-Serif" font-size="10.00">cstddef</text>
</g>
<!-- Node46&#45;&gt;Node47 -->
<g id="edge71" class="edge"><title>Node46&#45;&gt;Node47</title>
<path fill="none" stroke="midnightblue" d="M1827.67,-174.992C1838.7,-165.624 1852.89,-153.575 1864.13,-144.022"/>
<polygon fill="midnightblue" stroke="midnightblue" points="1866.71,-146.432 1872.06,-137.29 1862.17,-141.096 1866.71,-146.432"/>
</g>
<!-- Node46&#45;&gt;Node8 -->
<g id="edge72" class="edge"><title>Node46&#45;&gt;Node8</title>
<path fill="none" stroke="midnightblue" d="M1757.04,-175.617C1753.99,-175.013 1750.96,-174.467 1748,-174 1603.93,-151.319 1147.21,-133.897 1015.11,-129.235"/>
<polygon fill="midnightblue" stroke="midnightblue" points="1015.22,-125.737 1005.11,-128.885 1014.98,-132.733 1015.22,-125.737"/>
</g>
<!-- Node46&#45;&gt;Node24 -->
<g id="edge73" class="edge"><title>Node46&#45;&gt;Node24</title>
<path fill="none" stroke="midnightblue" d="M1810,-174.992C1810,-166.726 1810,-156.373 1810,-147.489"/>
<polygon fill="midnightblue" stroke="midnightblue" points="1813.5,-147.29 1810,-137.29 1806.5,-147.29 1813.5,-147.29"/>
</g>
<!-- Node48 -->
<g id="node48" class="node"><title>Node48</title>
<polygon fill="white" stroke="#bfbfbf" points="1722.61,-117 1722.61,-137 1761.39,-137 1761.39,-117 1722.61,-117"/>
<text text-anchor="middle" x="1742" y="-123" font-family="Helvetica,sans-Serif" font-size="10.00">utility</text>
</g>
<!-- Node46&#45;&gt;Node48 -->
<g id="edge74" class="edge"><title>Node46&#45;&gt;Node48</title>
<path fill="none" stroke="midnightblue" d="M1793.54,-174.992C1783.37,-165.716 1770.31,-153.811 1759.88,-144.304"/>
<polygon fill="midnightblue" stroke="midnightblue" points="1761.94,-141.442 1752.19,-137.29 1757.22,-146.614 1761.94,-141.442"/>
</g>
<!-- Node50&#45;&gt;Node3 -->
<g id="edge78" class="edge"><title>Node50&#45;&gt;Node3</title>
<path fill="none" stroke="midnightblue" d="M1206.45,-250.97C1142.84,-238.359 1027.7,-215.532 960.863,-202.282"/>
<polygon fill="midnightblue" stroke="midnightblue" points="961.456,-198.831 950.966,-200.32 960.094,-205.698 961.456,-198.831"/>
</g>
<!-- Node50&#45;&gt;Node4 -->
<g id="edge79" class="edge"><title>Node50&#45;&gt;Node4</title>
<path fill="none" stroke="midnightblue" d="M1256.59,-250.829C1261.79,-240.429 1270.39,-223.215 1276.96,-210.087"/>
<polygon fill="midnightblue" stroke="midnightblue" points="1280.15,-211.535 1281.49,-201.025 1273.88,-208.405 1280.15,-211.535"/>
</g>
<!-- Node50&#45;&gt;Node6 -->
<g id="edge80" class="edge"><title>Node50&#45;&gt;Node6</title>
<path fill="none" stroke="midnightblue" d="M1271.77,-250.873C1293.24,-240.829 1328.43,-223.984 1358,-208 1359.13,-207.388 1360.29,-206.753 1361.45,-206.103"/>
<polygon fill="midnightblue" stroke="midnightblue" points="1363.35,-209.044 1370.27,-201.015 1359.86,-202.981 1363.35,-209.044"/>
</g>
<!-- Node50&#45;&gt;Node7 -->
<g id="edge81" class="edge"><title>Node50&#45;&gt;Node7</title>
<path fill="none" stroke="midnightblue" d="M1242.83,-250.829C1231.92,-239.92 1213.51,-221.511 1200.19,-208.187"/>
<polygon fill="midnightblue" stroke="midnightblue" points="1202.57,-205.622 1193.03,-201.025 1197.62,-210.571 1202.57,-205.622"/>
</g>
<!-- Node50&#45;&gt;Node38 -->
<g id="edge82" class="edge"><title>Node50&#45;&gt;Node38</title>
<path fill="none" stroke="midnightblue" d="M1305.44,-258.861C1458.18,-255.222 1894.53,-242.055 2033,-208 2069.33,-199.066 2074.31,-185.218 2110,-174 2180.86,-151.725 2267.28,-138.136 2313.03,-131.958"/>
<polygon fill="midnightblue" stroke="midnightblue" points="2313.76,-135.392 2323.22,-130.615 2312.84,-128.452 2313.76,-135.392"/>
</g>
</g>
</svg>
