<?xml version="1.0" encoding="UTF-8" standalone="no"?>
<!DOCTYPE svg PUBLIC "-//W3C//DTD SVG 1.1//EN"
 "http://www.w3.org/Graphics/SVG/1.1/DTD/svg11.dtd">
<!-- Generated by graphviz version 2.30.0 (20130114.0426)
 -->
<!-- Title: /Users/rkwright/Documents/github/readium&#45;sdk&#45;D/ePub3/ePub/credential_request.h Pages: 1 -->
<svg width="410pt" height="112pt"
 viewBox="0.00 0.00 410.00 112.00" xmlns="http://www.w3.org/2000/svg" xmlns:xlink="http://www.w3.org/1999/xlink">
<g id="graph0" class="graph" transform="scale(1 1) rotate(0) translate(4 108)">
<title>/Users/rkwright/Documents/github/readium&#45;sdk&#45;D/ePub3/ePub/credential_request.h</title>
<polygon fill="white" stroke="white" points="-4,5 -4,-108 407,-108 407,5 -4,5"/>
<!-- Node1 -->
<g id="node1" class="node"><title>Node1</title>
<polygon fill="#bfbfbf" stroke="black" points="190.966,-59 190.966,-103 337.034,-103 337.034,-59 190.966,-59"/>
<text text-anchor="start" x="198.966" y="-89" font-family="Helvetica,sans-Serif" font-size="10.00">/Users/rkwright/Documents</text>
<text text-anchor="start" x="198.966" y="-77" font-family="Helvetica,sans-Serif" font-size="10.00">/github/readium&#45;sdk&#45;D/ePub3</text>
<text text-anchor="middle" x="264" y="-65" font-family="Helvetica,sans-Serif" font-size="10.00">/ePub/credential_request.h</text>
</g>
<!-- Node2 -->
<g id="node2" class="node"><title>Node2</title>
<polygon fill="white" stroke="#bfbfbf" points="-0.920898,-1 -0.920898,-21 82.9209,-21 82.9209,-1 -0.920898,-1"/>
<text text-anchor="middle" x="41" y="-7" font-family="Helvetica,sans-Serif" font-size="10.00">ePub3/epub3.h</text>
</g>
<!-- Node1&#45;&gt;Node2 -->
<g id="edge1" class="edge"><title>Node1&#45;&gt;Node2</title>
<path fill="none" stroke="midnightblue" d="M194.969,-58.9501C157.34,-47.476 112.126,-33.6885 80.4628,-24.0335"/>
<polygon fill="midnightblue" stroke="midnightblue" points="81.2717,-20.6211 70.6856,-21.0521 79.2299,-27.3167 81.2717,-20.6211"/>
</g>
<!-- Node3 -->
<g id="node3" class="node"><title>Node3</title>
<polygon fill="white" stroke="#bfbfbf" points="101.402,-1 101.402,-21 228.598,-21 228.598,-1 101.402,-1"/>
<text text-anchor="middle" x="165" y="-7" font-family="Helvetica,sans-Serif" font-size="10.00">ePub3/content_module.h</text>
</g>
<!-- Node1&#45;&gt;Node3 -->
<g id="edge2" class="edge"><title>Node1&#45;&gt;Node3</title>
<path fill="none" stroke="midnightblue" d="M233.218,-58.8571C218.039,-48.431 200.106,-36.1133 186.437,-26.7243"/>
<polygon fill="midnightblue" stroke="midnightblue" points="188.366,-23.8034 178.142,-21.0266 184.403,-29.5734 188.366,-23.8034"/>
</g>
<!-- Node4 -->
<g id="node4" class="node"><title>Node4</title>
<polygon fill="white" stroke="#bfbfbf" points="246.273,-1 246.273,-21 281.727,-21 281.727,-1 246.273,-1"/>
<text text-anchor="middle" x="264" y="-7" font-family="Helvetica,sans-Serif" font-size="10.00">map</text>
</g>
<!-- Node1&#45;&gt;Node4 -->
<g id="edge3" class="edge"><title>Node1&#45;&gt;Node4</title>
<path fill="none" stroke="midnightblue" d="M264,-58.8571C264,-50.074 264,-39.9484 264,-31.3622"/>
<polygon fill="midnightblue" stroke="midnightblue" points="267.5,-31.2039 264,-21.2039 260.5,-31.204 267.5,-31.2039"/>
</g>
<!-- Node5 -->
<g id="node5" class="node"><title>Node5</title>
<polygon fill="white" stroke="#bfbfbf" points="300.214,-1 300.214,-21 341.786,-21 341.786,-1 300.214,-1"/>
<text text-anchor="middle" x="321" y="-7" font-family="Helvetica,sans-Serif" font-size="10.00">future</text>
</g>
<!-- Node1&#45;&gt;Node5 -->
<g id="edge4" class="edge"><title>Node1&#45;&gt;Node5</title>
<path fill="none" stroke="midnightblue" d="M281.723,-58.8571C289.747,-49.2845 299.108,-38.1172 306.678,-29.0862"/>
<polygon fill="midnightblue" stroke="midnightblue" points="309.543,-31.1161 313.285,-21.2039 304.179,-26.6192 309.543,-31.1161"/>
</g>
<!-- Node6 -->
<g id="node6" class="node"><title>Node6</title>
<polygon fill="white" stroke="#bfbfbf" points="359.384,-1 359.384,-21 402.616,-21 402.616,-1 359.384,-1"/>
<text text-anchor="middle" x="381" y="-7" font-family="Helvetica,sans-Serif" font-size="10.00">vector</text>
</g>
<!-- Node1&#45;&gt;Node6 -->
<g id="edge5" class="edge"><title>Node1&#45;&gt;Node6</title>
<path fill="none" stroke="midnightblue" d="M300.378,-58.8571C318.659,-48.2324 340.319,-35.6434 356.583,-26.191"/>
<polygon fill="midnightblue" stroke="midnightblue" points="358.582,-29.0776 365.469,-21.0266 355.064,-23.0255 358.582,-29.0776"/>
</g>
</g>
</svg>
