<?xml version="1.0" encoding="UTF-8" standalone="no"?>
<!DOCTYPE svg PUBLIC "-//W3C//DTD SVG 1.1//EN"
 "http://www.w3.org/Graphics/SVG/1.1/DTD/svg11.dtd">
<!-- Generated by graphviz version 2.30.0 (20130114.0426)
 -->
<!-- Title: /Users/rkwright/Documents/github/readium&#45;sdk&#45;D/ePub3/ePub/credential_request.cpp Pages: 1 -->
<svg width="410pt" height="170pt"
 viewBox="0.00 0.00 410.00 170.00" xmlns="http://www.w3.org/2000/svg" xmlns:xlink="http://www.w3.org/1999/xlink">
<g id="graph0" class="graph" transform="scale(1 1) rotate(0) translate(4 166)">
<title>/Users/rkwright/Documents/github/readium&#45;sdk&#45;D/ePub3/ePub/credential_request.cpp</title>
<polygon fill="white" stroke="white" points="-4,5 -4,-166 407,-166 407,5 -4,5"/>
<!-- Node1 -->
<g id="node1" class="node"><title>Node1</title>
<polygon fill="#bfbfbf" stroke="black" points="190.956,-117 190.956,-161 337.044,-161 337.044,-117 190.956,-117"/>
<text text-anchor="start" x="198.956" y="-147" font-family="Helvetica,sans-Serif" font-size="10.00">/Users/rkwright/Documents</text>
<text text-anchor="start" x="198.956" y="-135" font-family="Helvetica,sans-Serif" font-size="10.00">/github/readium&#45;sdk&#45;D/ePub3</text>
<text text-anchor="middle" x="264" y="-123" font-family="Helvetica,sans-Serif" font-size="10.00">/ePub/credential_request.cpp</text>
</g>
<!-- Node2 -->
<g id="node2" class="node"><title>Node2</title>
<g id="a_node2"><a xlink:href="credential__request_8h.xhtml" target="_top" xlink:title="credential_request.h">
<polygon fill="white" stroke="black" points="210.692,-59 210.692,-79 317.308,-79 317.308,-59 210.692,-59"/>
<text text-anchor="middle" x="264" y="-65" font-family="Helvetica,sans-Serif" font-size="10.00">credential_request.h</text>
</a>
</g>
</g>
<!-- Node1&#45;&gt;Node2 -->
<g id="edge1" class="edge"><title>Node1&#45;&gt;Node2</title>
<path fill="none" stroke="midnightblue" d="M264,-116.857C264,-108.074 264,-97.9484 264,-89.3622"/>
<polygon fill="midnightblue" stroke="midnightblue" points="267.5,-89.2039 264,-79.2039 260.5,-89.204 267.5,-89.2039"/>
</g>
<!-- Node3 -->
<g id="node3" class="node"><title>Node3</title>
<polygon fill="white" stroke="#bfbfbf" points="-0.920898,-1 -0.920898,-21 82.9209,-21 82.9209,-1 -0.920898,-1"/>
<text text-anchor="middle" x="41" y="-7" font-family="Helvetica,sans-Serif" font-size="10.00">ePub3/epub3.h</text>
</g>
<!-- Node2&#45;&gt;Node3 -->
<g id="edge2" class="edge"><title>Node2&#45;&gt;Node3</title>
<path fill="none" stroke="midnightblue" d="M227.675,-58.878C189.251,-49.229 128.534,-33.9816 86.8417,-23.5118"/>
<polygon fill="midnightblue" stroke="midnightblue" points="87.4914,-20.0664 76.9401,-21.0253 85.7864,-26.8556 87.4914,-20.0664"/>
</g>
<!-- Node4 -->
<g id="node4" class="node"><title>Node4</title>
<polygon fill="white" stroke="#bfbfbf" points="101.402,-1 101.402,-21 228.598,-21 228.598,-1 101.402,-1"/>
<text text-anchor="middle" x="165" y="-7" font-family="Helvetica,sans-Serif" font-size="10.00">ePub3/content_module.h</text>
</g>
<!-- Node2&#45;&gt;Node4 -->
<g id="edge3" class="edge"><title>Node2&#45;&gt;Node4</title>
<path fill="none" stroke="midnightblue" d="M247.652,-58.7527C231.938,-49.8641 207.975,-36.3092 189.89,-26.0793"/>
<polygon fill="midnightblue" stroke="midnightblue" points="191.471,-22.9523 181.044,-21.0752 188.024,-29.0451 191.471,-22.9523"/>
</g>
<!-- Node5 -->
<g id="node5" class="node"><title>Node5</title>
<polygon fill="white" stroke="#bfbfbf" points="246.273,-1 246.273,-21 281.727,-21 281.727,-1 246.273,-1"/>
<text text-anchor="middle" x="264" y="-7" font-family="Helvetica,sans-Serif" font-size="10.00">map</text>
</g>
<!-- Node2&#45;&gt;Node5 -->
<g id="edge4" class="edge"><title>Node2&#45;&gt;Node5</title>
<path fill="none" stroke="midnightblue" d="M264,-58.7527C264,-51.2504 264,-40.4238 264,-31.0781"/>
<polygon fill="midnightblue" stroke="midnightblue" points="267.5,-31.0752 264,-21.0752 260.5,-31.0752 267.5,-31.0752"/>
</g>
<!-- Node6 -->
<g id="node6" class="node"><title>Node6</title>
<polygon fill="white" stroke="#bfbfbf" points="300.214,-1 300.214,-21 341.786,-21 341.786,-1 300.214,-1"/>
<text text-anchor="middle" x="321" y="-7" font-family="Helvetica,sans-Serif" font-size="10.00">future</text>
</g>
<!-- Node2&#45;&gt;Node6 -->
<g id="edge5" class="edge"><title>Node2&#45;&gt;Node6</title>
<path fill="none" stroke="midnightblue" d="M273.412,-58.7527C281.879,-50.4349 294.504,-38.031 304.623,-28.0893"/>
<polygon fill="midnightblue" stroke="midnightblue" points="307.082,-30.5801 311.763,-21.0752 302.176,-25.5868 307.082,-30.5801"/>
</g>
<!-- Node7 -->
<g id="node7" class="node"><title>Node7</title>
<polygon fill="white" stroke="#bfbfbf" points="359.384,-1 359.384,-21 402.616,-21 402.616,-1 359.384,-1"/>
<text text-anchor="middle" x="381" y="-7" font-family="Helvetica,sans-Serif" font-size="10.00">vector</text>
</g>
<!-- Node2&#45;&gt;Node7 -->
<g id="edge6" class="edge"><title>Node2&#45;&gt;Node7</title>
<path fill="none" stroke="midnightblue" d="M283.058,-58.878C302.011,-49.8068 331.301,-35.7876 352.916,-25.4418"/>
<polygon fill="midnightblue" stroke="midnightblue" points="354.441,-28.5925 361.95,-21.1181 351.419,-22.2784 354.441,-28.5925"/>
</g>
</g>
</svg>
