<?xml version="1.0" encoding="UTF-8" standalone="no"?>
<!DOCTYPE svg PUBLIC "-//W3C//DTD SVG 1.1//EN"
 "http://www.w3.org/Graphics/SVG/1.1/DTD/svg11.dtd">
<!-- Generated by graphviz version 2.30.0 (20130114.0426)
 -->
<!-- Title: /Users/rkwright/Documents/github/readium&#45;sdk&#45;D/ePub3/xml Pages: 1 -->
<svg width="182pt" height="256pt"
 viewBox="0.00 0.00 182.00 256.00" xmlns="http://www.w3.org/2000/svg" xmlns:xlink="http://www.w3.org/1999/xlink">
<g id="graph0" class="graph" transform="scale(1 1) rotate(0) translate(4 252)">
<title>/Users/rkwright/Documents/github/readium&#45;sdk&#45;D/ePub3/xml</title>
<polygon fill="white" stroke="white" points="-4,5 -4,-252 179,-252 179,5 -4,5"/>
<g id="clust1" class="cluster"><title>clusterdir_99f496c3a760cbc050f4a6d0965ed892</title>
<g id="a_clust1"><a xlink:href="dir_99f496c3a760cbc050f4a6d0965ed892.xhtml" target="_top" xlink:title="ePub3">
<polygon fill="#ddddee" stroke="black" points="8,-8 8,-240 166,-240 166,-8 8,-8"/>
<text text-anchor="middle" x="87" y="-226" font-family="Helvetica,sans-Serif" font-size="10.00">ePub3</text>
</a>
</g>
</g>
<g id="clust2" class="cluster"><title>clusterdir_d2dc3c0cadcebb3fe799a79b2b95c908</title>
<g id="a_clust2"><a xlink:href="dir_d2dc3c0cadcebb3fe799a79b2b95c908.xhtml" target="_top">
<polygon fill="#eeeeff" stroke="black" points="16,-16 16,-212 158,-212 158,-16 16,-16"/>
</a>
</g>
</g>
<!-- dir_d2dc3c0cadcebb3fe799a79b2b95c908 -->
<g id="node1" class="node"><title>dir_d2dc3c0cadcebb3fe799a79b2b95c908</title>
<text text-anchor="middle" x="123" y="-182" font-family="Helvetica,sans-Serif" font-size="10.00">xml</text>
</g>
<!-- dir_f24255c03ecd8d9b97df6bed7f990a1d -->
<g id="node2" class="node"><title>dir_f24255c03ecd8d9b97df6bed7f990a1d</title>
<g id="a_node2"><a xlink:href="dir_f24255c03ecd8d9b97df6bed7f990a1d.xhtml" target="_top" xlink:title="tree">
<polygon fill="white" stroke="black" points="79,-132 25,-132 25,-96 79,-96 79,-132"/>
<text text-anchor="middle" x="52" y="-110" font-family="Helvetica,sans-Serif" font-size="10.00">tree</text>
</a>
</g>
</g>
<!-- dir_2b136990b1780617ba2452913cc9c363 -->
<g id="node4" class="node"><title>dir_2b136990b1780617ba2452913cc9c363</title>
<g id="a_node4"><a xlink:href="dir_2b136990b1780617ba2452913cc9c363.xhtml" target="_top" xlink:title="validation">
<polygon fill="white" stroke="black" points="82.1885,-60 23.8115,-60 23.8115,-24 82.1885,-24 82.1885,-60"/>
<text text-anchor="middle" x="53" y="-38" font-family="Helvetica,sans-Serif" font-size="10.00">validation</text>
</a>
</g>
</g>
<!-- dir_f24255c03ecd8d9b97df6bed7f990a1d&#45;&gt;dir_2b136990b1780617ba2452913cc9c363 -->
<g id="edge1" class="edge"><title>dir_f24255c03ecd8d9b97df6bed7f990a1d&#45;&gt;dir_2b136990b1780617ba2452913cc9c363</title>
<path fill="none" stroke="black" d="M52.2472,-95.6966C52.3574,-87.9827 52.4898,-78.7125 52.6127,-70.1124"/>
<polygon fill="black" stroke="black" points="56.1124,-70.1533 52.7557,-60.1043 49.1131,-70.0533 56.1124,-70.1533"/>
<g id="a_edge1&#45;headlabel"><a xlink:href="dir_000005_000006.xhtml" target="_top" xlink:title="3">
<text text-anchor="middle" x="58.9001" y="-69.7881" font-family="Helvetica,sans-Serif" font-size="10.00">3</text>
</a>
</g>
</g>
<!-- dir_5423ae1c4c31ea4b8e02f4db1d30290b -->
<g id="node3" class="node"><title>dir_5423ae1c4c31ea4b8e02f4db1d30290b</title>
<g id="a_node3"><a xlink:href="dir_5423ae1c4c31ea4b8e02f4db1d30290b.xhtml" target="_top" xlink:title="utilities">
<polygon fill="white" stroke="black" points="78,-204 24,-204 24,-168 78,-168 78,-204"/>
<text text-anchor="middle" x="51" y="-182" font-family="Helvetica,sans-Serif" font-size="10.00">utilities</text>
</a>
</g>
</g>
<!-- dir_5423ae1c4c31ea4b8e02f4db1d30290b&#45;&gt;dir_f24255c03ecd8d9b97df6bed7f990a1d -->
<g id="edge2" class="edge"><title>dir_5423ae1c4c31ea4b8e02f4db1d30290b&#45;&gt;dir_f24255c03ecd8d9b97df6bed7f990a1d</title>
<path fill="none" stroke="black" d="M51.2472,-167.697C51.3574,-159.983 51.4898,-150.712 51.6127,-142.112"/>
<polygon fill="black" stroke="black" points="55.1124,-142.153 51.7557,-132.104 48.1131,-142.053 55.1124,-142.153"/>
<g id="a_edge2&#45;headlabel"><a xlink:href="dir_000002_000005.xhtml" target="_top" xlink:title="1">
<text text-anchor="middle" x="57.9001" y="-141.788" font-family="Helvetica,sans-Serif" font-size="10.00">1</text>
</a>
</g>
</g>
</g>
</svg>
