<?xml version="1.0" encoding="UTF-8" standalone="no"?>
<!DOCTYPE svg PUBLIC "-//W3C//DTD SVG 1.1//EN"
 "http://www.w3.org/Graphics/SVG/1.1/DTD/svg11.dtd">
<!-- Generated by graphviz version 2.30.0 (20130114.0426)
 -->
<!-- Title: /Users/rkwright/Documents/github/readium&#45;sdk&#45;D/ePub3 Pages: 1 -->
<svg width="238pt" height="148pt"
 viewBox="0.00 0.00 238.00 148.00" xmlns="http://www.w3.org/2000/svg" xmlns:xlink="http://www.w3.org/1999/xlink">
<g id="graph0" class="graph" transform="scale(1 1) rotate(0) translate(4 144)">
<title>/Users/rkwright/Documents/github/readium&#45;sdk&#45;D/ePub3</title>
<polygon fill="white" stroke="white" points="-4,5 -4,-144 235,-144 235,5 -4,5"/>
<g id="clust1" class="cluster"><title>clusterdir_99f496c3a760cbc050f4a6d0965ed892</title>
<g id="a_clust1"><a xlink:href="dir_99f496c3a760cbc050f4a6d0965ed892.xhtml" target="_top">
<polygon fill="#eeeeff" stroke="black" points="8,-8 8,-132 222,-132 222,-8 8,-8"/>
</a>
</g>
</g>
<!-- dir_99f496c3a760cbc050f4a6d0965ed892 -->
<g id="node1" class="node"><title>dir_99f496c3a760cbc050f4a6d0965ed892</title>
<text text-anchor="middle" x="187" y="-102" font-family="Helvetica,sans-Serif" font-size="10.00">ePub3</text>
</g>
<!-- dir_d81697a4833f1d44a7e9bc8387132cc4 -->
<g id="node2" class="node"><title>dir_d81697a4833f1d44a7e9bc8387132cc4</title>
<g id="a_node2"><a xlink:href="dir_d81697a4833f1d44a7e9bc8387132cc4.xhtml" target="_top" xlink:title="ePub">
<polygon fill="white" stroke="black" points="142,-124 88,-124 88,-88 142,-88 142,-124"/>
<text text-anchor="middle" x="115" y="-102" font-family="Helvetica,sans-Serif" font-size="10.00">ePub</text>
</a>
</g>
</g>
<!-- dir_090fe5b49b20e659802fc7ff806b453c -->
<g id="node3" class="node"><title>dir_090fe5b49b20e659802fc7ff806b453c</title>
<g id="a_node3"><a xlink:href="dir_090fe5b49b20e659802fc7ff806b453c.xhtml" target="_top" xlink:title="utilities">
<polygon fill="white" stroke="black" points="142,-52 88,-52 88,-16 142,-16 142,-52"/>
<text text-anchor="middle" x="115" y="-30" font-family="Helvetica,sans-Serif" font-size="10.00">utilities</text>
</a>
</g>
</g>
<!-- dir_d81697a4833f1d44a7e9bc8387132cc4&#45;&gt;dir_090fe5b49b20e659802fc7ff806b453c -->
<g id="edge1" class="edge"><title>dir_d81697a4833f1d44a7e9bc8387132cc4&#45;&gt;dir_090fe5b49b20e659802fc7ff806b453c</title>
<path fill="none" stroke="black" d="M109.084,-87.6966C108.289,-79.9827 108.062,-70.7125 108.405,-62.1124"/>
<polygon fill="black" stroke="black" points="111.898,-62.3243 109.105,-52.1043 104.915,-61.8356 111.898,-62.3243"/>
<g id="a_edge1&#45;headlabel"><a xlink:href="dir_000003_000004.xhtml" target="_top" xlink:title="94">
<text text-anchor="middle" x="114.48" y="-62.1083" font-family="Helvetica,sans-Serif" font-size="10.00">94</text>
</a>
</g>
</g>
<!-- dir_090fe5b49b20e659802fc7ff806b453c&#45;&gt;dir_d81697a4833f1d44a7e9bc8387132cc4 -->
<g id="edge2" class="edge"><title>dir_090fe5b49b20e659802fc7ff806b453c&#45;&gt;dir_d81697a4833f1d44a7e9bc8387132cc4</title>
<path fill="none" stroke="black" d="M120.895,-52.1043C121.701,-59.7913 121.937,-69.0537 121.604,-77.6651"/>
<polygon fill="black" stroke="black" points="118.109,-77.4805 120.916,-87.6966 125.092,-77.9597 118.109,-77.4805"/>
<g id="a_edge2&#45;headlabel"><a xlink:href="dir_000004_000003.xhtml" target="_top" xlink:title="3">
<text text-anchor="middle" x="115.522" y="-69.7" font-family="Helvetica,sans-Serif" font-size="10.00">3</text>
</a>
</g>
</g>
<!-- dir_d2dc3c0cadcebb3fe799a79b2b95c908 -->
<g id="node4" class="node"><title>dir_d2dc3c0cadcebb3fe799a79b2b95c908</title>
<g id="a_node4"><a xlink:href="dir_d2dc3c0cadcebb3fe799a79b2b95c908.xhtml" target="_top" xlink:title="xml">
<polygon fill="white" stroke="red" points="70,-124 16,-124 16,-88 70,-88 70,-124"/>
<text text-anchor="middle" x="43" y="-102" font-family="Helvetica,sans-Serif" font-size="10.00">xml</text>
</a>
</g>
</g>
</g>
</svg>
