<?xml version="1.0" encoding="UTF-8" standalone="no"?>
<!DOCTYPE svg PUBLIC "-//W3C//DTD SVG 1.1//EN"
 "http://www.w3.org/Graphics/SVG/1.1/DTD/svg11.dtd">
<!-- Generated by graphviz version 2.30.0 (20130114.0426)
 -->
<!-- Title: /Users/rkwright/Documents/github/readium&#45;sdk&#45;D/ePub3/xml/utilities Pages: 1 -->
<svg width="94pt" height="152pt"
 viewBox="0.00 0.00 94.00 152.00" xmlns="http://www.w3.org/2000/svg" xmlns:xlink="http://www.w3.org/1999/xlink">
<g id="graph0" class="graph" transform="scale(1 1) rotate(0) translate(4 148)">
<title>/Users/rkwright/Documents/github/readium&#45;sdk&#45;D/ePub3/xml/utilities</title>
<polygon fill="white" stroke="white" points="-4,5 -4,-148 91,-148 91,5 -4,5"/>
<g id="clust1" class="cluster"><title>clusterdir_d2dc3c0cadcebb3fe799a79b2b95c908</title>
<g id="a_clust1"><a xlink:href="dir_d2dc3c0cadcebb3fe799a79b2b95c908.xhtml" target="_top" xlink:title="xml">
<polygon fill="#ddddee" stroke="black" points="8,-64 8,-136 78,-136 78,-64 8,-64"/>
<text text-anchor="middle" x="43" y="-122" font-family="Helvetica,sans-Serif" font-size="10.00">xml</text>
</a>
</g>
</g>
<!-- dir_5423ae1c4c31ea4b8e02f4db1d30290b -->
<g id="node1" class="node"><title>dir_5423ae1c4c31ea4b8e02f4db1d30290b</title>
<g id="a_node1"><a xlink:href="dir_5423ae1c4c31ea4b8e02f4db1d30290b.xhtml" target="_top" xlink:title="utilities">
<polygon fill="#eeeeff" stroke="black" points="70,-108 16,-108 16,-72 70,-72 70,-108"/>
<text text-anchor="middle" x="43" y="-86" font-family="Helvetica,sans-Serif" font-size="10.00">utilities</text>
</a>
</g>
</g>
<!-- dir_f24255c03ecd8d9b97df6bed7f990a1d -->
<g id="node2" class="node"><title>dir_f24255c03ecd8d9b97df6bed7f990a1d</title>
<g id="a_node2"><a xlink:href="dir_f24255c03ecd8d9b97df6bed7f990a1d.xhtml" target="_top" xlink:title="tree">
<polygon fill="none" stroke="black" points="70,-36 16,-36 16,-0 70,-0 70,-36"/>
<text text-anchor="middle" x="43" y="-14" font-family="Helvetica,sans-Serif" font-size="10.00">tree</text>
</a>
</g>
</g>
<!-- dir_5423ae1c4c31ea4b8e02f4db1d30290b&#45;&gt;dir_f24255c03ecd8d9b97df6bed7f990a1d -->
<g id="edge1" class="edge"><title>dir_5423ae1c4c31ea4b8e02f4db1d30290b&#45;&gt;dir_f24255c03ecd8d9b97df6bed7f990a1d</title>
<path fill="none" stroke="black" d="M43,-71.6966C43,-63.9827 43,-54.7125 43,-46.1124"/>
<polygon fill="black" stroke="black" points="46.5001,-46.1043 43,-36.1043 39.5001,-46.1044 46.5001,-46.1043"/>
<g id="a_edge1&#45;headlabel"><a xlink:href="dir_000002_000005.xhtml" target="_top" xlink:title="1">
<text text-anchor="middle" x="49.3393" y="-45.699" font-family="Helvetica,sans-Serif" font-size="10.00">1</text>
</a>
</g>
</g>
</g>
</svg>
