<?xml version="1.0" encoding="UTF-8" standalone="no"?>
<!DOCTYPE svg PUBLIC "-//W3C//DTD SVG 1.1//EN"
 "http://www.w3.org/Graphics/SVG/1.1/DTD/svg11.dtd">
<!-- Generated by graphviz version 2.30.0 (20130114.0426)
 -->
<!-- Title: /Users/rkwright/Documents/github/readium&#45;sdk&#45;D/ePub3/xml/tree/document_win.cpp Pages: 1 -->
<svg width="456pt" height="170pt"
 viewBox="0.00 0.00 456.00 170.00" xmlns="http://www.w3.org/2000/svg" xmlns:xlink="http://www.w3.org/1999/xlink">
<g id="graph0" class="graph" transform="scale(1 1) rotate(0) translate(4 166)">
<title>/Users/rkwright/Documents/github/readium&#45;sdk&#45;D/ePub3/xml/tree/document_win.cpp</title>
<polygon fill="white" stroke="white" points="-4,5 -4,-166 453,-166 453,5 -4,5"/>
<!-- Node1 -->
<g id="node1" class="node"><title>Node1</title>
<polygon fill="#bfbfbf" stroke="black" points="177.966,-117 177.966,-161 324.034,-161 324.034,-117 177.966,-117"/>
<text text-anchor="start" x="185.966" y="-147" font-family="Helvetica,sans-Serif" font-size="10.00">/Users/rkwright/Documents</text>
<text text-anchor="start" x="185.966" y="-135" font-family="Helvetica,sans-Serif" font-size="10.00">/github/readium&#45;sdk&#45;D/ePub3</text>
<text text-anchor="middle" x="251" y="-123" font-family="Helvetica,sans-Serif" font-size="10.00">/xml/tree/document_win.cpp</text>
</g>
<!-- Node2 -->
<g id="node2" class="node"><title>Node2</title>
<g id="a_node2"><a xlink:href="document_8h.xhtml" target="_top" xlink:title="document.h">
<polygon fill="white" stroke="black" points="71.8721,-59 71.8721,-79 140.128,-79 140.128,-59 71.8721,-59"/>
<text text-anchor="middle" x="106" y="-65" font-family="Helvetica,sans-Serif" font-size="10.00">document.h</text>
</a>
</g>
</g>
<!-- Node1&#45;&gt;Node2 -->
<g id="edge1" class="edge"><title>Node1&#45;&gt;Node2</title>
<path fill="none" stroke="midnightblue" d="M205.916,-116.857C182.519,-105.885 154.655,-92.8177 134.304,-83.2737"/>
<polygon fill="midnightblue" stroke="midnightblue" points="135.788,-80.1037 125.248,-79.0266 132.816,-86.4414 135.788,-80.1037"/>
</g>
<!-- Node5 -->
<g id="node5" class="node"><title>Node5</title>
<g id="a_node5"><a xlink:href="element_8h.xhtml" target="_top" xlink:title="element.h">
<polygon fill="white" stroke="black" points="268.042,-59 268.042,-79 327.958,-79 327.958,-59 268.042,-59"/>
<text text-anchor="middle" x="298" y="-65" font-family="Helvetica,sans-Serif" font-size="10.00">element.h</text>
</a>
</g>
</g>
<!-- Node1&#45;&gt;Node5 -->
<g id="edge4" class="edge"><title>Node1&#45;&gt;Node5</title>
<path fill="none" stroke="midnightblue" d="M265.613,-116.857C272.093,-107.482 279.631,-96.5771 285.802,-87.6475"/>
<polygon fill="midnightblue" stroke="midnightblue" points="288.832,-89.4203 291.638,-79.2039 283.073,-85.4402 288.832,-89.4203"/>
</g>
<!-- Node8 -->
<g id="node8" class="node"><title>Node8</title>
<g id="a_node8"><a xlink:href="dtd_8h.xhtml" target="_top" xlink:title="../validation/dtd.h">
<polygon fill="white" stroke="black" points="158.197,-59 158.197,-79 249.803,-79 249.803,-59 158.197,-59"/>
<text text-anchor="middle" x="204" y="-65" font-family="Helvetica,sans-Serif" font-size="10.00">../validation/dtd.h</text>
</a>
</g>
</g>
<!-- Node1&#45;&gt;Node8 -->
<g id="edge8" class="edge"><title>Node1&#45;&gt;Node8</title>
<path fill="none" stroke="midnightblue" d="M236.387,-116.857C229.907,-107.482 222.369,-96.5771 216.198,-87.6475"/>
<polygon fill="midnightblue" stroke="midnightblue" points="218.927,-85.4402 210.362,-79.2039 213.168,-89.4203 218.927,-85.4402"/>
</g>
<!-- Node9 -->
<g id="node9" class="node"><title>Node9</title>
<polygon fill="white" stroke="#bfbfbf" points="345.985,-59 345.985,-79 412.015,-79 412.015,-59 345.985,-59"/>
<text text-anchor="middle" x="379" y="-65" font-family="Helvetica,sans-Serif" font-size="10.00">collection.h</text>
</g>
<!-- Node1&#45;&gt;Node9 -->
<g id="edge11" class="edge"><title>Node1&#45;&gt;Node9</title>
<path fill="none" stroke="midnightblue" d="M290.798,-116.857C310.985,-106.133 334.938,-93.4079 352.785,-83.9268"/>
<polygon fill="midnightblue" stroke="midnightblue" points="354.82,-86.8091 362.009,-79.0266 351.536,-80.6273 354.82,-86.8091"/>
</g>
<!-- Node3 -->
<g id="node3" class="node"><title>Node3</title>
<polygon fill="white" stroke="#bfbfbf" points="135.695,-1 135.695,-21 232.305,-21 232.305,-1 135.695,-1"/>
<text text-anchor="middle" x="184" y="-7" font-family="Helvetica,sans-Serif" font-size="10.00">ePub3/xml/node.h</text>
</g>
<!-- Node2&#45;&gt;Node3 -->
<g id="edge2" class="edge"><title>Node2&#45;&gt;Node3</title>
<path fill="none" stroke="midnightblue" d="M118.88,-58.7527C130.92,-50.1087 149.106,-37.0518 163.203,-26.9314"/>
<polygon fill="midnightblue" stroke="midnightblue" points="165.278,-29.7504 171.36,-21.0752 161.195,-24.0642 165.278,-29.7504"/>
</g>
<!-- Node4 -->
<g id="node4" class="node"><title>Node4</title>
<polygon fill="white" stroke="#bfbfbf" points="-0.140137,-1 -0.140137,-21 118.14,-21 118.14,-1 -0.140137,-1"/>
<text text-anchor="middle" x="59" y="-7" font-family="Helvetica,sans-Serif" font-size="10.00">ePub3/xml/document.h</text>
</g>
<!-- Node2&#45;&gt;Node4 -->
<g id="edge3" class="edge"><title>Node2&#45;&gt;Node4</title>
<path fill="none" stroke="midnightblue" d="M98.2389,-58.7527C91.4632,-50.6796 81.4568,-38.7571 73.2449,-28.9727"/>
<polygon fill="midnightblue" stroke="midnightblue" points="75.7263,-26.4849 66.6167,-21.0752 70.3645,-30.985 75.7263,-26.4849"/>
</g>
<!-- Node6 -->
<g id="node6" class="node"><title>Node6</title>
<polygon fill="white" stroke="#bfbfbf" points="249.976,-1 249.976,-21 346.024,-21 346.024,-1 249.976,-1"/>
<text text-anchor="middle" x="298" y="-7" font-family="Helvetica,sans-Serif" font-size="10.00">ePub3/xml/base.h</text>
</g>
<!-- Node5&#45;&gt;Node6 -->
<g id="edge5" class="edge"><title>Node5&#45;&gt;Node6</title>
<path fill="none" stroke="midnightblue" d="M298,-58.7527C298,-51.2504 298,-40.4238 298,-31.0781"/>
<polygon fill="midnightblue" stroke="midnightblue" points="301.5,-31.0752 298,-21.0752 294.5,-31.0752 301.5,-31.0752"/>
</g>
<!-- Node5&#45;&gt;Node3 -->
<g id="edge6" class="edge"><title>Node5&#45;&gt;Node3</title>
<path fill="none" stroke="midnightblue" d="M279.43,-58.878C261.047,-49.8475 232.68,-35.9132 211.647,-25.5812"/>
<polygon fill="midnightblue" stroke="midnightblue" points="213.081,-22.3857 202.562,-21.1181 209.994,-28.6686 213.081,-22.3857"/>
</g>
<!-- Node7 -->
<g id="node7" class="node"><title>Node7</title>
<polygon fill="white" stroke="#bfbfbf" points="363.537,-1 363.537,-21 448.463,-21 448.463,-1 363.537,-1"/>
<text text-anchor="middle" x="406" y="-7" font-family="Helvetica,sans-Serif" font-size="10.00">ePub3/xml/ns.h</text>
</g>
<!-- Node5&#45;&gt;Node7 -->
<g id="edge7" class="edge"><title>Node5&#45;&gt;Node7</title>
<path fill="none" stroke="midnightblue" d="M315.834,-58.7527C333.134,-49.7826 359.598,-36.0601 379.388,-25.7986"/>
<polygon fill="midnightblue" stroke="midnightblue" points="381.231,-28.7856 388.498,-21.0752 378.009,-22.5713 381.231,-28.7856"/>
</g>
<!-- Node8&#45;&gt;Node6 -->
<g id="edge9" class="edge"><title>Node8&#45;&gt;Node6</title>
<path fill="none" stroke="midnightblue" d="M219.522,-58.7527C234.306,-49.9457 256.778,-36.5575 273.893,-26.3617"/>
<polygon fill="midnightblue" stroke="midnightblue" points="275.967,-29.2002 282.767,-21.0752 272.384,-23.1864 275.967,-29.2002"/>
</g>
<!-- Node8&#45;&gt;Node4 -->
<g id="edge10" class="edge"><title>Node8&#45;&gt;Node4</title>
<path fill="none" stroke="midnightblue" d="M180.381,-58.878C156.366,-49.6034 118.959,-35.1564 92.0173,-24.7515"/>
<polygon fill="midnightblue" stroke="midnightblue" points="93.1988,-21.4559 82.6094,-21.1181 90.6769,-27.9858 93.1988,-21.4559"/>
</g>
</g>
</svg>
