<?xml version="1.0" encoding="UTF-8" standalone="no"?>
<!DOCTYPE svg PUBLIC "-//W3C//DTD SVG 1.1//EN"
 "http://www.w3.org/Graphics/SVG/1.1/DTD/svg11.dtd">
<!-- Generated by graphviz version 2.30.0 (20130114.0426)
 -->
<!-- Title: /Users/rkwright/Documents/github/readium&#45;sdk&#45;D/ePub3/xml/tree/document.cpp Pages: 1 -->
<svg width="467pt" height="112pt"
 viewBox="0.00 0.00 467.00 112.00" xmlns="http://www.w3.org/2000/svg" xmlns:xlink="http://www.w3.org/1999/xlink">
<g id="graph0" class="graph" transform="scale(1 1) rotate(0) translate(4 108)">
<title>/Users/rkwright/Documents/github/readium&#45;sdk&#45;D/ePub3/xml/tree/document.cpp</title>
<polygon fill="white" stroke="white" points="-4,5 -4,-108 464,-108 464,5 -4,5"/>
<!-- Node1 -->
<g id="node1" class="node"><title>Node1</title>
<polygon fill="#bfbfbf" stroke="black" points="175.966,-59 175.966,-103 322.034,-103 322.034,-59 175.966,-59"/>
<text text-anchor="start" x="183.966" y="-89" font-family="Helvetica,sans-Serif" font-size="10.00">/Users/rkwright/Documents</text>
<text text-anchor="start" x="183.966" y="-77" font-family="Helvetica,sans-Serif" font-size="10.00">/github/readium&#45;sdk&#45;D/ePub3</text>
<text text-anchor="middle" x="249" y="-65" font-family="Helvetica,sans-Serif" font-size="10.00">/xml/tree/document.cpp</text>
</g>
<!-- Node2 -->
<g id="node2" class="node"><title>Node2</title>
<polygon fill="white" stroke="#bfbfbf" points="-0.140137,-1 -0.140137,-21 118.14,-21 118.14,-1 -0.140137,-1"/>
<text text-anchor="middle" x="59" y="-7" font-family="Helvetica,sans-Serif" font-size="10.00">ePub3/xml/document.h</text>
</g>
<!-- Node1&#45;&gt;Node2 -->
<g id="edge1" class="edge"><title>Node1&#45;&gt;Node2</title>
<path fill="none" stroke="midnightblue" d="M190.184,-58.9501C158.679,-47.6747 120.933,-34.1653 94.0347,-24.5387"/>
<polygon fill="midnightblue" stroke="midnightblue" points="94.8872,-21.1265 84.2927,-21.0521 92.5284,-27.7171 94.8872,-21.1265"/>
</g>
<!-- Node3 -->
<g id="node3" class="node"><title>Node3</title>
<polygon fill="white" stroke="#bfbfbf" points="136.03,-1 136.03,-21 245.97,-21 245.97,-1 136.03,-1"/>
<text text-anchor="middle" x="191" y="-7" font-family="Helvetica,sans-Serif" font-size="10.00">ePub3/xml/element.h</text>
</g>
<!-- Node1&#45;&gt;Node3 -->
<g id="edge2" class="edge"><title>Node1&#45;&gt;Node3</title>
<path fill="none" stroke="midnightblue" d="M230.966,-58.8571C222.801,-49.2845 213.276,-38.1172 205.574,-29.0862"/>
<polygon fill="midnightblue" stroke="midnightblue" points="208.003,-26.541 198.85,-21.2039 202.677,-31.0836 208.003,-26.541"/>
</g>
<!-- Node4 -->
<g id="node4" class="node"><title>Node4</title>
<polygon fill="white" stroke="#bfbfbf" points="263.867,-1 263.867,-21 352.133,-21 352.133,-1 263.867,-1"/>
<text text-anchor="middle" x="308" y="-7" font-family="Helvetica,sans-Serif" font-size="10.00">ePub3/xml/dtd.h</text>
</g>
<!-- Node1&#45;&gt;Node4 -->
<g id="edge3" class="edge"><title>Node1&#45;&gt;Node4</title>
<path fill="none" stroke="midnightblue" d="M267.345,-58.8571C275.736,-49.1858 285.539,-37.8868 293.417,-28.8076"/>
<polygon fill="midnightblue" stroke="midnightblue" points="296.104,-31.0509 300.014,-21.2039 290.817,-26.4634 296.104,-31.0509"/>
</g>
<!-- Node5 -->
<g id="node5" class="node"><title>Node5</title>
<polygon fill="white" stroke="#bfbfbf" points="370.318,-1 370.318,-21 459.682,-21 459.682,-1 370.318,-1"/>
<text text-anchor="middle" x="415" y="-7" font-family="Helvetica,sans-Serif" font-size="10.00">libxml/xinclude.h</text>
</g>
<!-- Node1&#45;&gt;Node5 -->
<g id="edge4" class="edge"><title>Node1&#45;&gt;Node5</title>
<path fill="none" stroke="midnightblue" d="M300.613,-58.8571C327.762,-47.736 360.165,-34.4625 383.541,-24.887"/>
<polygon fill="midnightblue" stroke="midnightblue" points="385.038,-28.0561 392.965,-21.0266 382.384,-21.5785 385.038,-28.0561"/>
</g>
</g>
</svg>
