<?xml version="1.0" encoding="UTF-8" standalone="no"?>
<!DOCTYPE svg PUBLIC "-//W3C//DTD SVG 1.1//EN"
 "http://www.w3.org/Graphics/SVG/1.1/DTD/svg11.dtd">
<!-- Generated by graphviz version 2.30.0 (20130114.0426)
 -->
<!-- Title: /Users/rkwright/Documents/github/readium&#45;sdk&#45;D/ePub3/xml/tree/element.h Pages: 1 -->
<svg width="810pt" height="136pt"
 viewBox="0.00 0.00 810.00 136.00" xmlns="http://www.w3.org/2000/svg" xmlns:xlink="http://www.w3.org/1999/xlink">
<g id="graph0" class="graph" transform="scale(1 1) rotate(0) translate(4 132)">
<title>/Users/rkwright/Documents/github/readium&#45;sdk&#45;D/ePub3/xml/tree/element.h</title>
<polygon fill="white" stroke="white" points="-4,5 -4,-132 807,-132 807,5 -4,5"/>
<!-- Node1 -->
<g id="node1" class="node"><title>Node1</title>
<polygon fill="#bfbfbf" stroke="black" points="327.966,-83 327.966,-127 474.034,-127 474.034,-83 327.966,-83"/>
<text text-anchor="start" x="335.966" y="-113" font-family="Helvetica,sans-Serif" font-size="10.00">/Users/rkwright/Documents</text>
<text text-anchor="start" x="335.966" y="-101" font-family="Helvetica,sans-Serif" font-size="10.00">/github/readium&#45;sdk&#45;D/ePub3</text>
<text text-anchor="middle" x="401" y="-89" font-family="Helvetica,sans-Serif" font-size="10.00">/xml/tree/element.h</text>
</g>
<!-- Node2 -->
<g id="node2" class="node"><title>Node2</title>
<g id="a_node2"><a xlink:href="document__win_8cpp.xhtml" target="_top" xlink:title="/Users/rkwright/Documents\l/github/readium&#45;sdk&#45;D/ePub3\l/xml/tree/document_win.cpp">
<polygon fill="white" stroke="black" points="-0.0341797,-1 -0.0341797,-45 146.034,-45 146.034,-1 -0.0341797,-1"/>
<text text-anchor="start" x="7.96582" y="-31" font-family="Helvetica,sans-Serif" font-size="10.00">/Users/rkwright/Documents</text>
<text text-anchor="start" x="7.96582" y="-19" font-family="Helvetica,sans-Serif" font-size="10.00">/github/readium&#45;sdk&#45;D/ePub3</text>
<text text-anchor="middle" x="73" y="-7" font-family="Helvetica,sans-Serif" font-size="10.00">/xml/tree/document_win.cpp</text>
</a>
</g>
</g>
<!-- Node1&#45;&gt;Node2 -->
<g id="edge1" class="edge"><title>Node1&#45;&gt;Node2</title>
<path fill="none" stroke="midnightblue" d="M317.95,-85.0849C270.197,-74.0424 209.124,-59.6376 155,-46 152.141,-45.2797 149.229,-44.5377 146.289,-43.7818"/>
<polygon fill="midnightblue" stroke="midnightblue" points="317.4,-88.5499 327.931,-87.3888 318.975,-81.7292 317.4,-88.5499"/>
</g>
<!-- Node3 -->
<g id="node3" class="node"><title>Node3</title>
<g id="a_node3"><a xlink:href="element_8cpp.xhtml" target="_top" xlink:title="/Users/rkwright/Documents\l/github/readium&#45;sdk&#45;D/ePub3\l/xml/tree/element.cpp">
<polygon fill="white" stroke="black" points="163.966,-1 163.966,-45 310.034,-45 310.034,-1 163.966,-1"/>
<text text-anchor="start" x="171.966" y="-31" font-family="Helvetica,sans-Serif" font-size="10.00">/Users/rkwright/Documents</text>
<text text-anchor="start" x="171.966" y="-19" font-family="Helvetica,sans-Serif" font-size="10.00">/github/readium&#45;sdk&#45;D/ePub3</text>
<text text-anchor="middle" x="237" y="-7" font-family="Helvetica,sans-Serif" font-size="10.00">/xml/tree/element.cpp</text>
</a>
</g>
</g>
<!-- Node1&#45;&gt;Node3 -->
<g id="edge2" class="edge"><title>Node1&#45;&gt;Node3</title>
<path fill="none" stroke="midnightblue" d="M348.658,-78.4673C326.54,-67.678 301.094,-55.2656 280.086,-45.0174"/>
<polygon fill="midnightblue" stroke="midnightblue" points="347.389,-81.7423 357.911,-82.9809 350.458,-75.451 347.389,-81.7423"/>
</g>
<!-- Node4 -->
<g id="node4" class="node"><title>Node4</title>
<g id="a_node4"><a xlink:href="element__win_8cpp.xhtml" target="_top" xlink:title="/Users/rkwright/Documents\l/github/readium&#45;sdk&#45;D/ePub3\l/xml/tree/element_win.cpp">
<polygon fill="white" stroke="black" points="327.966,-1 327.966,-45 474.034,-45 474.034,-1 327.966,-1"/>
<text text-anchor="start" x="335.966" y="-31" font-family="Helvetica,sans-Serif" font-size="10.00">/Users/rkwright/Documents</text>
<text text-anchor="start" x="335.966" y="-19" font-family="Helvetica,sans-Serif" font-size="10.00">/github/readium&#45;sdk&#45;D/ePub3</text>
<text text-anchor="middle" x="401" y="-7" font-family="Helvetica,sans-Serif" font-size="10.00">/xml/tree/element_win.cpp</text>
</a>
</g>
</g>
<!-- Node1&#45;&gt;Node4 -->
<g id="edge3" class="edge"><title>Node1&#45;&gt;Node4</title>
<path fill="none" stroke="midnightblue" d="M401,-72.8963C401,-63.6094 401,-53.6485 401,-45.1564"/>
<polygon fill="midnightblue" stroke="midnightblue" points="397.5,-72.9809 401,-82.9809 404.5,-72.981 397.5,-72.9809"/>
</g>
<!-- Node5 -->
<g id="node5" class="node"><title>Node5</title>
<g id="a_node5"><a xlink:href="node__win_8cpp.xhtml" target="_top" xlink:title="/Users/rkwright/Documents\l/github/readium&#45;sdk&#45;D/ePub3\l/xml/tree/node_win.cpp">
<polygon fill="white" stroke="black" points="491.966,-1 491.966,-45 638.034,-45 638.034,-1 491.966,-1"/>
<text text-anchor="start" x="499.966" y="-31" font-family="Helvetica,sans-Serif" font-size="10.00">/Users/rkwright/Documents</text>
<text text-anchor="start" x="499.966" y="-19" font-family="Helvetica,sans-Serif" font-size="10.00">/github/readium&#45;sdk&#45;D/ePub3</text>
<text text-anchor="middle" x="565" y="-7" font-family="Helvetica,sans-Serif" font-size="10.00">/xml/tree/node_win.cpp</text>
</a>
</g>
</g>
<!-- Node1&#45;&gt;Node5 -->
<g id="edge4" class="edge"><title>Node1&#45;&gt;Node5</title>
<path fill="none" stroke="midnightblue" d="M453.342,-78.4673C475.46,-67.678 500.906,-55.2656 521.914,-45.0174"/>
<polygon fill="midnightblue" stroke="midnightblue" points="451.542,-75.451 444.089,-82.9809 454.611,-81.7423 451.542,-75.451"/>
</g>
<!-- Node6 -->
<g id="node6" class="node"><title>Node6</title>
<g id="a_node6"><a xlink:href="xpath__win_8cpp.xhtml" target="_top" xlink:title="/Users/rkwright/Documents\l/github/readium&#45;sdk&#45;D/ePub3\l/xml/tree/xpath_win.cpp">
<polygon fill="white" stroke="black" points="655.966,-1 655.966,-45 802.034,-45 802.034,-1 655.966,-1"/>
<text text-anchor="start" x="663.966" y="-31" font-family="Helvetica,sans-Serif" font-size="10.00">/Users/rkwright/Documents</text>
<text text-anchor="start" x="663.966" y="-19" font-family="Helvetica,sans-Serif" font-size="10.00">/github/readium&#45;sdk&#45;D/ePub3</text>
<text text-anchor="middle" x="729" y="-7" font-family="Helvetica,sans-Serif" font-size="10.00">/xml/tree/xpath_win.cpp</text>
</a>
</g>
</g>
<!-- Node1&#45;&gt;Node6 -->
<g id="edge5" class="edge"><title>Node1&#45;&gt;Node6</title>
<path fill="none" stroke="midnightblue" d="M484.05,-85.0849C531.803,-74.0424 592.876,-59.6376 647,-46 649.859,-45.2797 652.771,-44.5377 655.711,-43.7818"/>
<polygon fill="midnightblue" stroke="midnightblue" points="483.025,-81.7292 474.069,-87.3888 484.6,-88.5499 483.025,-81.7292"/>
</g>
</g>
</svg>
