<?xml version="1.0" encoding="UTF-8" standalone="no"?>
<!DOCTYPE svg PUBLIC "-//W3C//DTD SVG 1.1//EN"
 "http://www.w3.org/Graphics/SVG/1.1/DTD/svg11.dtd">
<!-- Generated by graphviz version 2.30.0 (20130114.0426)
 -->
<!-- Title: /Users/rkwright/Documents/github/readium&#45;sdk&#45;D/ePub3/xml/tree/element.cpp Pages: 1 -->
<svg width="321pt" height="170pt"
 viewBox="0.00 0.00 321.00 170.00" xmlns="http://www.w3.org/2000/svg" xmlns:xlink="http://www.w3.org/1999/xlink">
<g id="graph0" class="graph" transform="scale(1 1) rotate(0) translate(4 166)">
<title>/Users/rkwright/Documents/github/readium&#45;sdk&#45;D/ePub3/xml/tree/element.cpp</title>
<polygon fill="white" stroke="white" points="-4,5 -4,-166 318,-166 318,5 -4,5"/>
<!-- Node1 -->
<g id="node1" class="node"><title>Node1</title>
<polygon fill="#bfbfbf" stroke="black" points="88.9658,-117 88.9658,-161 235.034,-161 235.034,-117 88.9658,-117"/>
<text text-anchor="start" x="96.9658" y="-147" font-family="Helvetica,sans-Serif" font-size="10.00">/Users/rkwright/Documents</text>
<text text-anchor="start" x="96.9658" y="-135" font-family="Helvetica,sans-Serif" font-size="10.00">/github/readium&#45;sdk&#45;D/ePub3</text>
<text text-anchor="middle" x="162" y="-123" font-family="Helvetica,sans-Serif" font-size="10.00">/xml/tree/element.cpp</text>
</g>
<!-- Node2 -->
<g id="node2" class="node"><title>Node2</title>
<g id="a_node2"><a xlink:href="element_8h.xhtml" target="_top" xlink:title="element.h">
<polygon fill="white" stroke="black" points="132.042,-59 132.042,-79 191.958,-79 191.958,-59 132.042,-59"/>
<text text-anchor="middle" x="162" y="-65" font-family="Helvetica,sans-Serif" font-size="10.00">element.h</text>
</a>
</g>
</g>
<!-- Node1&#45;&gt;Node2 -->
<g id="edge1" class="edge"><title>Node1&#45;&gt;Node2</title>
<path fill="none" stroke="midnightblue" d="M162,-116.857C162,-108.074 162,-97.9484 162,-89.3622"/>
<polygon fill="midnightblue" stroke="midnightblue" points="165.5,-89.2039 162,-79.2039 158.5,-89.204 165.5,-89.2039"/>
</g>
<!-- Node3 -->
<g id="node3" class="node"><title>Node3</title>
<polygon fill="white" stroke="#bfbfbf" points="-0.0244141,-1 -0.0244141,-21 96.0244,-21 96.0244,-1 -0.0244141,-1"/>
<text text-anchor="middle" x="48" y="-7" font-family="Helvetica,sans-Serif" font-size="10.00">ePub3/xml/base.h</text>
</g>
<!-- Node2&#45;&gt;Node3 -->
<g id="edge2" class="edge"><title>Node2&#45;&gt;Node3</title>
<path fill="none" stroke="midnightblue" d="M143.43,-58.878C125.047,-49.8475 96.6804,-35.9132 75.6474,-25.5812"/>
<polygon fill="midnightblue" stroke="midnightblue" points="77.0806,-22.3857 66.5618,-21.1181 73.9942,-28.6686 77.0806,-22.3857"/>
</g>
<!-- Node4 -->
<g id="node4" class="node"><title>Node4</title>
<polygon fill="white" stroke="#bfbfbf" points="113.695,-1 113.695,-21 210.305,-21 210.305,-1 113.695,-1"/>
<text text-anchor="middle" x="162" y="-7" font-family="Helvetica,sans-Serif" font-size="10.00">ePub3/xml/node.h</text>
</g>
<!-- Node2&#45;&gt;Node4 -->
<g id="edge3" class="edge"><title>Node2&#45;&gt;Node4</title>
<path fill="none" stroke="midnightblue" d="M162,-58.7527C162,-51.2504 162,-40.4238 162,-31.0781"/>
<polygon fill="midnightblue" stroke="midnightblue" points="165.5,-31.0752 162,-21.0752 158.5,-31.0752 165.5,-31.0752"/>
</g>
<!-- Node5 -->
<g id="node5" class="node"><title>Node5</title>
<polygon fill="white" stroke="#bfbfbf" points="228.537,-1 228.537,-21 313.463,-21 313.463,-1 228.537,-1"/>
<text text-anchor="middle" x="271" y="-7" font-family="Helvetica,sans-Serif" font-size="10.00">ePub3/xml/ns.h</text>
</g>
<!-- Node2&#45;&gt;Node5 -->
<g id="edge4" class="edge"><title>Node2&#45;&gt;Node5</title>
<path fill="none" stroke="midnightblue" d="M179.999,-58.7527C197.538,-49.7418 224.412,-35.9353 244.414,-25.6589"/>
<polygon fill="midnightblue" stroke="midnightblue" points="246.04,-28.7582 253.336,-21.0752 242.842,-22.5319 246.04,-28.7582"/>
</g>
</g>
</svg>
