<?xml version="1.0" encoding="UTF-8" standalone="no"?>
<!DOCTYPE svg PUBLIC "-//W3C//DTD SVG 1.1//EN"
 "http://www.w3.org/Graphics/SVG/1.1/DTD/svg11.dtd">
<!-- Generated by graphviz version 2.30.0 (20130114.0426)
 -->
<!-- Title: /Users/rkwright/Documents/github/readium&#45;sdk&#45;D/ePub3/ePub/encryption.h Pages: 1 -->
<svg width="244pt" height="170pt"
 viewBox="0.00 0.00 244.00 170.00" xmlns="http://www.w3.org/2000/svg" xmlns:xlink="http://www.w3.org/1999/xlink">
<g id="graph0" class="graph" transform="scale(1 1) rotate(0) translate(4 166)">
<title>/Users/rkwright/Documents/github/readium&#45;sdk&#45;D/ePub3/ePub/encryption.h</title>
<polygon fill="white" stroke="white" points="-4,5 -4,-166 241,-166 241,5 -4,5"/>
<!-- Node1 -->
<g id="node1" class="node"><title>Node1</title>
<polygon fill="#bfbfbf" stroke="black" points="30.9658,-117 30.9658,-161 177.034,-161 177.034,-117 30.9658,-117"/>
<text text-anchor="start" x="38.9658" y="-147" font-family="Helvetica,sans-Serif" font-size="10.00">/Users/rkwright/Documents</text>
<text text-anchor="start" x="38.9658" y="-135" font-family="Helvetica,sans-Serif" font-size="10.00">/github/readium&#45;sdk&#45;D/ePub3</text>
<text text-anchor="middle" x="104" y="-123" font-family="Helvetica,sans-Serif" font-size="10.00">/ePub/encryption.h</text>
</g>
<!-- Node2 -->
<g id="node2" class="node"><title>Node2</title>
<polygon fill="white" stroke="#bfbfbf" points="-0.920898,-59 -0.920898,-79 82.9209,-79 82.9209,-59 -0.920898,-59"/>
<text text-anchor="middle" x="41" y="-65" font-family="Helvetica,sans-Serif" font-size="10.00">ePub3/epub3.h</text>
</g>
<!-- Node1&#45;&gt;Node2 -->
<g id="edge1" class="edge"><title>Node1&#45;&gt;Node2</title>
<path fill="none" stroke="midnightblue" d="M84.4117,-116.857C75.4516,-107.186 64.9834,-95.8868 56.5717,-86.8076"/>
<polygon fill="midnightblue" stroke="midnightblue" points="58.8909,-84.1609 49.5272,-79.2039 53.756,-88.9183 58.8909,-84.1609"/>
</g>
<!-- Node3 -->
<g id="node3" class="node"><title>Node3</title>
<g id="a_node3"><a xlink:href="owned__by_8h.xhtml" target="_top" xlink:title="ePub3/utilities/owned_by.h">
<polygon fill="white" stroke="black" points="100.884,-59 100.884,-79 235.116,-79 235.116,-59 100.884,-59"/>
<text text-anchor="middle" x="168" y="-65" font-family="Helvetica,sans-Serif" font-size="10.00">ePub3/utilities/owned_by.h</text>
</a>
</g>
</g>
<!-- Node1&#45;&gt;Node3 -->
<g id="edge2" class="edge"><title>Node1&#45;&gt;Node3</title>
<path fill="none" stroke="midnightblue" d="M123.899,-116.857C133.094,-107.087 143.853,-95.6561 152.442,-86.5303"/>
<polygon fill="midnightblue" stroke="midnightblue" points="155.033,-88.8847 159.337,-79.2039 149.935,-84.0872 155.033,-88.8847"/>
</g>
<!-- Node4 -->
<g id="node4" class="node"><title>Node4</title>
<polygon fill="white" stroke="#bfbfbf" points="103.943,-1 103.943,-21 156.057,-21 156.057,-1 103.943,-1"/>
<text text-anchor="middle" x="130" y="-7" font-family="Helvetica,sans-Serif" font-size="10.00">memory</text>
</g>
<!-- Node3&#45;&gt;Node4 -->
<g id="edge3" class="edge"><title>Node3&#45;&gt;Node4</title>
<path fill="none" stroke="midnightblue" d="M161.725,-58.7527C156.358,-50.8427 148.482,-39.2372 141.921,-29.5683"/>
<polygon fill="midnightblue" stroke="midnightblue" points="144.669,-27.3847 136.158,-21.0752 138.877,-31.3152 144.669,-27.3847"/>
</g>
<!-- Node5 -->
<g id="node5" class="node"><title>Node5</title>
<polygon fill="white" stroke="#bfbfbf" points="173.934,-1 173.934,-21 236.066,-21 236.066,-1 173.934,-1"/>
<text text-anchor="middle" x="205" y="-7" font-family="Helvetica,sans-Serif" font-size="10.00">type_traits</text>
</g>
<!-- Node3&#45;&gt;Node5 -->
<g id="edge4" class="edge"><title>Node3&#45;&gt;Node5</title>
<path fill="none" stroke="midnightblue" d="M174.11,-58.7527C179.336,-50.8427 187.004,-39.2372 193.392,-29.5683"/>
<polygon fill="midnightblue" stroke="midnightblue" points="196.411,-31.348 199.004,-21.0752 190.571,-27.4891 196.411,-31.348"/>
</g>
</g>
</svg>
