<?xml version="1.0" encoding="UTF-8" standalone="no"?>
<!DOCTYPE svg PUBLIC "-//W3C//DTD SVG 1.1//EN"
 "http://www.w3.org/Graphics/SVG/1.1/DTD/svg11.dtd">
<!-- Generated by graphviz version 2.30.0 (20130114.0426)
 -->
<!-- Title: /Users/rkwright/Documents/github/readium&#45;sdk&#45;D/ePub3/ePub/epub3.h Pages: 1 -->
<svg width="1308pt" height="472pt"
 viewBox="0.00 0.00 1308.00 472.00" xmlns="http://www.w3.org/2000/svg" xmlns:xlink="http://www.w3.org/1999/xlink">
<g id="graph0" class="graph" transform="scale(1 1) rotate(0) translate(4 468)">
<title>/Users/rkwright/Documents/github/readium&#45;sdk&#45;D/ePub3/ePub/epub3.h</title>
<polygon fill="white" stroke="white" points="-4,5 -4,-468 1305,-468 1305,5 -4,5"/>
<!-- Node1 -->
<g id="node1" class="node"><title>Node1</title>
<polygon fill="#bfbfbf" stroke="black" points="953.966,-419 953.966,-463 1100.03,-463 1100.03,-419 953.966,-419"/>
<text text-anchor="start" x="961.966" y="-449" font-family="Helvetica,sans-Serif" font-size="10.00">/Users/rkwright/Documents</text>
<text text-anchor="start" x="961.966" y="-437" font-family="Helvetica,sans-Serif" font-size="10.00">/github/readium&#45;sdk&#45;D/ePub3</text>
<text text-anchor="middle" x="1027" y="-425" font-family="Helvetica,sans-Serif" font-size="10.00">/ePub/epub3.h</text>
</g>
<!-- Node2 -->
<g id="node2" class="node"><title>Node2</title>
<g id="a_node2"><a xlink:href="base_8h.xhtml" target="_top" xlink:title="ePub3/base.h">
<polygon fill="white" stroke="black" points="470.141,-175 470.141,-195 547.859,-195 547.859,-175 470.141,-175"/>
<text text-anchor="middle" x="509" y="-181" font-family="Helvetica,sans-Serif" font-size="10.00">ePub3/base.h</text>
</a>
</g>
</g>
<!-- Node1&#45;&gt;Node2 -->
<g id="edge1" class="edge"><title>Node1&#45;&gt;Node2</title>
<path fill="none" stroke="midnightblue" d="M1034.11,-418.772C1046.74,-376.672 1067.34,-282.333 1018,-232 986.202,-199.561 679.575,-189.585 558.153,-186.892"/>
<polygon fill="midnightblue" stroke="midnightblue" points="558.092,-183.39 548.019,-186.674 557.942,-190.388 558.092,-183.39"/>
</g>
<!-- Node7 -->
<g id="node7" class="node"><title>Node7</title>
<g id="a_node7"><a xlink:href="basic_8h.xhtml" target="_top" xlink:title="ePub3/utilities/basic.h">
<polygon fill="white" stroke="black" points="67.6382,-297 67.6382,-317 180.362,-317 180.362,-297 67.6382,-297"/>
<text text-anchor="middle" x="124" y="-303" font-family="Helvetica,sans-Serif" font-size="10.00">ePub3/utilities/basic.h</text>
</a>
</g>
</g>
<!-- Node1&#45;&gt;Node7 -->
<g id="edge6" class="edge"><title>Node1&#45;&gt;Node7</title>
<path fill="none" stroke="midnightblue" d="M953.731,-434.979C846.446,-427.046 640.508,-409.617 467,-382 359.64,-364.912 235.286,-335.689 169.799,-319.553"/>
<polygon fill="midnightblue" stroke="midnightblue" points="170.353,-316.085 159.805,-317.079 168.672,-322.879 170.353,-316.085"/>
</g>
<!-- Node13 -->
<g id="node13" class="node"><title>Node13</title>
<g id="a_node13"><a xlink:href="utfstring_8h.xhtml" target="_top" xlink:title="ePub3/utilities/utfstring.h">
<polygon fill="white" stroke="black" points="475.525,-361 475.525,-381 600.475,-381 600.475,-361 475.525,-361"/>
<text text-anchor="middle" x="538" y="-367" font-family="Helvetica,sans-Serif" font-size="10.00">ePub3/utilities/utfstring.h</text>
</a>
</g>
</g>
<!-- Node1&#45;&gt;Node13 -->
<g id="edge13" class="edge"><title>Node1&#45;&gt;Node13</title>
<path fill="none" stroke="midnightblue" d="M953.792,-429.82C861.341,-416.964 703.227,-394.976 610.915,-382.14"/>
<polygon fill="midnightblue" stroke="midnightblue" points="611.205,-378.646 600.818,-380.735 610.241,-385.579 611.205,-378.646"/>
</g>
<!-- Node17 -->
<g id="node17" class="node"><title>Node17</title>
<polygon fill="white" stroke="#bfbfbf" points="968.773,-233 968.773,-253 1009.23,-253 1009.23,-233 968.773,-233"/>
<text text-anchor="middle" x="989" y="-239" font-family="Helvetica,sans-Serif" font-size="10.00">string</text>
</g>
<!-- Node1&#45;&gt;Node17 -->
<g id="edge35" class="edge"><title>Node1&#45;&gt;Node17</title>
<path fill="none" stroke="midnightblue" d="M1022.86,-418.651C1015.4,-380.168 999.81,-299.758 992.69,-263.032"/>
<polygon fill="midnightblue" stroke="midnightblue" points="996.11,-262.282 990.77,-253.131 989.238,-263.615 996.11,-262.282"/>
</g>
<!-- Node9 -->
<g id="node9" class="node"><title>Node9</title>
<polygon fill="white" stroke="#bfbfbf" points="-0.780762,-233 -0.780762,-253 50.7808,-253 50.7808,-233 -0.780762,-233"/>
<text text-anchor="middle" x="25" y="-239" font-family="Helvetica,sans-Serif" font-size="10.00">sstream</text>
</g>
<!-- Node1&#45;&gt;Node9 -->
<g id="edge36" class="edge"><title>Node1&#45;&gt;Node9</title>
<path fill="none" stroke="midnightblue" d="M953.565,-436.392C828.97,-429.671 568.403,-413.023 350,-382 219.433,-363.454 161.309,-407.213 59,-324 40.2971,-308.788 31.6965,-281.409 27.8731,-262.971"/>
<polygon fill="midnightblue" stroke="midnightblue" points="31.3081,-262.297 26.0978,-253.072 24.418,-263.533 31.3081,-262.297"/>
</g>
<!-- Node28 -->
<g id="node28" class="node"><title>Node28</title>
<polygon fill="white" stroke="#bfbfbf" points="1092.69,-361 1092.69,-381 1189.31,-381 1189.31,-361 1092.69,-361"/>
<text text-anchor="middle" x="1141" y="-367" font-family="Helvetica,sans-Serif" font-size="10.00">ePub3/xml/node.h</text>
</g>
<!-- Node1&#45;&gt;Node28 -->
<g id="edge37" class="edge"><title>Node1&#45;&gt;Node28</title>
<path fill="none" stroke="midnightblue" d="M1062.45,-418.857C1080.26,-408.232 1101.36,-395.643 1117.21,-386.191"/>
<polygon fill="midnightblue" stroke="midnightblue" points="1119.07,-389.155 1125.87,-381.027 1115.49,-383.144 1119.07,-389.155"/>
</g>
<!-- Node29 -->
<g id="node29" class="node"><title>Node29</title>
<polygon fill="white" stroke="#bfbfbf" points="1207.65,-361 1207.65,-381 1300.35,-381 1300.35,-361 1207.65,-361"/>
<text text-anchor="middle" x="1254" y="-367" font-family="Helvetica,sans-Serif" font-size="10.00">ePub3/Forward.h</text>
</g>
<!-- Node1&#45;&gt;Node29 -->
<g id="edge38" class="edge"><title>Node1&#45;&gt;Node29</title>
<path fill="none" stroke="midnightblue" d="M1097.27,-418.95C1135.57,-407.476 1181.6,-393.689 1213.83,-384.033"/>
<polygon fill="midnightblue" stroke="midnightblue" points="1215.21,-387.275 1223.78,-381.052 1213.2,-380.569 1215.21,-387.275"/>
</g>
<!-- Node3 -->
<g id="node3" class="node"><title>Node3</title>
<g id="a_node3"><a xlink:href="__config_8h.xhtml" target="_top" xlink:title="_config.h">
<polygon fill="white" stroke="black" points="445.707,-117 445.707,-137 502.293,-137 502.293,-117 445.707,-117"/>
<text text-anchor="middle" x="474" y="-123" font-family="Helvetica,sans-Serif" font-size="10.00">_config.h</text>
</a>
</g>
</g>
<!-- Node2&#45;&gt;Node3 -->
<g id="edge2" class="edge"><title>Node2&#45;&gt;Node3</title>
<path fill="none" stroke="midnightblue" d="M503.22,-174.753C498.277,-166.843 491.023,-155.237 484.98,-145.568"/>
<polygon fill="midnightblue" stroke="midnightblue" points="487.94,-143.7 479.672,-137.075 482.004,-147.41 487.94,-143.7"/>
</g>
<!-- Node6 -->
<g id="node6" class="node"><title>Node6</title>
<polygon fill="white" stroke="#bfbfbf" points="520.158,-117 520.158,-137 567.842,-137 567.842,-117 520.158,-117"/>
<text text-anchor="middle" x="544" y="-123" font-family="Helvetica,sans-Serif" font-size="10.00">stdlib.h</text>
</g>
<!-- Node2&#45;&gt;Node6 -->
<g id="edge5" class="edge"><title>Node2&#45;&gt;Node6</title>
<path fill="none" stroke="midnightblue" d="M514.78,-174.753C519.723,-166.843 526.977,-155.237 533.02,-145.568"/>
<polygon fill="midnightblue" stroke="midnightblue" points="535.996,-147.41 538.328,-137.075 530.06,-143.7 535.996,-147.41"/>
</g>
<!-- Node4 -->
<g id="node4" class="node"><title>Node4</title>
<g id="a_node4"><a xlink:href="__platform_8h.xhtml" target="_top" xlink:title="_platform.h">
<polygon fill="white" stroke="black" points="440.988,-59 440.988,-79 507.012,-79 507.012,-59 440.988,-59"/>
<text text-anchor="middle" x="474" y="-65" font-family="Helvetica,sans-Serif" font-size="10.00">_platform.h</text>
</a>
</g>
</g>
<!-- Node3&#45;&gt;Node4 -->
<g id="edge3" class="edge"><title>Node3&#45;&gt;Node4</title>
<path fill="none" stroke="midnightblue" d="M474,-116.753C474,-109.25 474,-98.4238 474,-89.0781"/>
<polygon fill="midnightblue" stroke="midnightblue" points="477.5,-89.0752 474,-79.0752 470.5,-89.0752 477.5,-89.0752"/>
</g>
<!-- Node5 -->
<g id="node5" class="node"><title>Node5</title>
<g id="a_node5"><a xlink:href="__compiler_8h.xhtml" target="_top" xlink:title="_compiler.h">
<polygon fill="white" stroke="black" points="440.429,-1 440.429,-21 507.571,-21 507.571,-1 440.429,-1"/>
<text text-anchor="middle" x="474" y="-7" font-family="Helvetica,sans-Serif" font-size="10.00">_compiler.h</text>
</a>
</g>
</g>
<!-- Node4&#45;&gt;Node5 -->
<g id="edge4" class="edge"><title>Node4&#45;&gt;Node5</title>
<path fill="none" stroke="midnightblue" d="M474,-58.7527C474,-51.2504 474,-40.4238 474,-31.0781"/>
<polygon fill="midnightblue" stroke="midnightblue" points="477.5,-31.0752 474,-21.0752 470.5,-31.0752 477.5,-31.0752"/>
</g>
<!-- Node7&#45;&gt;Node2 -->
<g id="edge7" class="edge"><title>Node7&#45;&gt;Node2</title>
<path fill="none" stroke="midnightblue" d="M156.87,-296.972C188.553,-287.792 237.513,-272.335 278,-254 295.777,-245.95 297.873,-239.227 316,-232 363.242,-213.165 420.189,-200.755 459.933,-193.623"/>
<polygon fill="midnightblue" stroke="midnightblue" points="460.655,-197.05 469.903,-191.88 459.45,-190.155 460.655,-197.05"/>
</g>
<!-- Node8 -->
<g id="node8" class="node"><title>Node8</title>
<polygon fill="white" stroke="#bfbfbf" points="154.815,-233 154.815,-253 269.185,-253 269.185,-233 154.815,-233"/>
<text text-anchor="middle" x="212" y="-239" font-family="Helvetica,sans-Serif" font-size="10.00">ePub3/xml/xmlstring.h</text>
</g>
<!-- Node7&#45;&gt;Node8 -->
<g id="edge8" class="edge"><title>Node7&#45;&gt;Node8</title>
<path fill="none" stroke="midnightblue" d="M136.985,-296.852C151.023,-286.961 173.631,-271.033 190.363,-259.244"/>
<polygon fill="midnightblue" stroke="midnightblue" points="192.803,-261.807 198.962,-253.186 188.771,-256.084 192.803,-261.807"/>
</g>
<!-- Node7&#45;&gt;Node9 -->
<g id="edge9" class="edge"><title>Node7&#45;&gt;Node9</title>
<path fill="none" stroke="midnightblue" d="M109.392,-296.852C93.3068,-286.778 67.2196,-270.441 48.3029,-258.594"/>
<polygon fill="midnightblue" stroke="midnightblue" points="50.0006,-255.527 39.6677,-253.186 46.2852,-261.46 50.0006,-255.527"/>
</g>
<!-- Node10 -->
<g id="node10" class="node"><title>Node10</title>
<polygon fill="white" stroke="#bfbfbf" points="241.943,-175 241.943,-195 294.057,-195 294.057,-175 241.943,-175"/>
<text text-anchor="middle" x="268" y="-181" font-family="Helvetica,sans-Serif" font-size="10.00">memory</text>
</g>
<!-- Node7&#45;&gt;Node10 -->
<g id="edge10" class="edge"><title>Node7&#45;&gt;Node10</title>
<path fill="none" stroke="midnightblue" d="M115.778,-296.939C103.307,-282.063 82.6061,-252.113 98,-232 114.163,-210.883 186.851,-197.225 231.785,-190.639"/>
<polygon fill="midnightblue" stroke="midnightblue" points="232.331,-194.097 241.741,-189.229 231.349,-187.166 232.331,-194.097"/>
</g>
<!-- Node11 -->
<g id="node11" class="node"><title>Node11</title>
<polygon fill="white" stroke="#bfbfbf" points="325.384,-233 325.384,-253 368.616,-253 368.616,-233 325.384,-233"/>
<text text-anchor="middle" x="347" y="-239" font-family="Helvetica,sans-Serif" font-size="10.00">vector</text>
</g>
<!-- Node7&#45;&gt;Node11 -->
<g id="edge11" class="edge"><title>Node7&#45;&gt;Node11</title>
<path fill="none" stroke="midnightblue" d="M156.426,-296.985C199.056,-285.132 273.458,-264.447 315.581,-252.735"/>
<polygon fill="midnightblue" stroke="midnightblue" points="316.609,-256.082 325.306,-250.032 314.734,-249.338 316.609,-256.082"/>
</g>
<!-- Node12 -->
<g id="node12" class="node"><title>Node12</title>
<polygon fill="white" stroke="#bfbfbf" points="107.5,-233 107.5,-253 136.5,-253 136.5,-233 107.5,-233"/>
<text text-anchor="middle" x="121.611" y="-239" font-family="Helvetica,sans-Serif" font-size="10.00">list</text>
</g>
<!-- Node7&#45;&gt;Node12 -->
<g id="edge12" class="edge"><title>Node7&#45;&gt;Node12</title>
<path fill="none" stroke="midnightblue" d="M123.705,-296.852C123.421,-288.06 122.984,-274.498 122.623,-263.313"/>
<polygon fill="midnightblue" stroke="midnightblue" points="126.117,-263.068 122.296,-253.186 119.121,-263.294 126.117,-263.068"/>
</g>
<!-- Node13&#45;&gt;Node7 -->
<g id="edge14" class="edge"><title>Node13&#45;&gt;Node7</title>
<path fill="none" stroke="midnightblue" d="M475.273,-363.363C406.111,-355.639 291.685,-341.657 194,-324 186.323,-322.612 178.217,-320.947 170.35,-319.223"/>
<polygon fill="midnightblue" stroke="midnightblue" points="171.087,-315.801 160.563,-317.024 169.552,-322.631 171.087,-315.801"/>
</g>
<!-- Node14 -->
<g id="node14" class="node"><title>Node14</title>
<g id="a_node14"><a xlink:href="integer__sequence_8h.xhtml" target="_top" xlink:title="ePub3/utilities/integer\l_sequence.h">
<polygon fill="white" stroke="black" points="482.192,-291 482.192,-323 593.808,-323 593.808,-291 482.192,-291"/>
<text text-anchor="start" x="490.192" y="-309" font-family="Helvetica,sans-Serif" font-size="10.00">ePub3/utilities/integer</text>
<text text-anchor="middle" x="538" y="-297" font-family="Helvetica,sans-Serif" font-size="10.00">_sequence.h</text>
</a>
</g>
</g>
<!-- Node13&#45;&gt;Node14 -->
<g id="edge15" class="edge"><title>Node13&#45;&gt;Node14</title>
<path fill="none" stroke="midnightblue" d="M538,-360.852C538,-353.629 538,-343.185 538,-333.486"/>
<polygon fill="midnightblue" stroke="midnightblue" points="541.5,-333.44 538,-323.44 534.5,-333.44 541.5,-333.44"/>
</g>
<!-- Node15 -->
<g id="node15" class="node"><title>Node15</title>
<g id="a_node15"><a xlink:href="string__view_8h.xhtml" target="_top" xlink:title="ePub3/utilities/string\l_view.h">
<polygon fill="white" stroke="black" points="612.254,-291 612.254,-323 717.746,-323 717.746,-291 612.254,-291"/>
<text text-anchor="start" x="620.254" y="-309" font-family="Helvetica,sans-Serif" font-size="10.00">ePub3/utilities/string</text>
<text text-anchor="middle" x="665" y="-297" font-family="Helvetica,sans-Serif" font-size="10.00">_view.h</text>
</a>
</g>
</g>
<!-- Node13&#45;&gt;Node15 -->
<g id="edge17" class="edge"><title>Node13&#45;&gt;Node15</title>
<path fill="none" stroke="midnightblue" d="M556.467,-360.985C574.364,-352.247 602.095,-338.709 625.046,-327.505"/>
<polygon fill="midnightblue" stroke="midnightblue" points="626.771,-330.558 634.221,-323.026 623.7,-324.268 626.771,-330.558"/>
</g>
<!-- Node13&#45;&gt;Node17 -->
<g id="edge26" class="edge"><title>Node13&#45;&gt;Node17</title>
<path fill="none" stroke="midnightblue" d="M600.847,-367.277C714.01,-361.8 942.862,-347.891 970,-324 987.036,-309.002 990.24,-281.774 990.221,-263.293"/>
<polygon fill="midnightblue" stroke="midnightblue" points="993.713,-262.985 989.889,-253.104 986.717,-263.213 993.713,-262.985"/>
</g>
<!-- Node22 -->
<g id="node22" class="node"><title>Node22</title>
<polygon fill="white" stroke="#bfbfbf" points="735.438,-297 735.438,-317 782.562,-317 782.562,-297 735.438,-297"/>
<text text-anchor="middle" x="759" y="-303" font-family="Helvetica,sans-Serif" font-size="10.00">iterator</text>
</g>
<!-- Node13&#45;&gt;Node22 -->
<g id="edge27" class="edge"><title>Node13&#45;&gt;Node22</title>
<path fill="none" stroke="midnightblue" d="M587.133,-360.948C625.561,-353.162 680.002,-340.567 726,-324 728.274,-323.181 730.6,-322.253 732.912,-321.266"/>
<polygon fill="midnightblue" stroke="midnightblue" points="734.546,-324.367 742.169,-317.008 731.621,-318.007 734.546,-324.367"/>
</g>
<!-- Node23 -->
<g id="node23" class="node"><title>Node23</title>
<polygon fill="white" stroke="#bfbfbf" points="800.936,-297 800.936,-317 843.064,-317 843.064,-297 800.936,-297"/>
<text text-anchor="middle" x="822" y="-303" font-family="Helvetica,sans-Serif" font-size="10.00">locale</text>
</g>
<!-- Node13&#45;&gt;Node23 -->
<g id="edge28" class="edge"><title>Node13&#45;&gt;Node23</title>
<path fill="none" stroke="midnightblue" d="M600.647,-363.846C652.655,-357.505 728.031,-345.439 791,-324 793.143,-323.27 795.321,-322.413 797.478,-321.48"/>
<polygon fill="midnightblue" stroke="midnightblue" points="799.136,-324.567 806.628,-317.075 796.099,-318.259 799.136,-324.567"/>
</g>
<!-- Node13&#45;&gt;Node11 -->
<g id="edge29" class="edge"><title>Node13&#45;&gt;Node11</title>
<path fill="none" stroke="midnightblue" d="M475.409,-369.991C393.993,-368.492 258.425,-360.414 227,-324 217.127,-312.56 218.438,-302.451 227,-290 232.27,-282.336 281.588,-265.139 315.335,-254.08"/>
<polygon fill="midnightblue" stroke="midnightblue" points="316.813,-257.28 325.243,-250.862 314.651,-250.623 316.813,-257.28"/>
</g>
<!-- Node24 -->
<g id="node24" class="node"><title>Node24</title>
<polygon fill="white" stroke="#bfbfbf" points="860.766,-297 860.766,-317 961.234,-317 961.234,-297 860.766,-297"/>
<text text-anchor="middle" x="911" y="-303" font-family="Helvetica,sans-Serif" font-size="10.00">REGEX_INCLUDE</text>
</g>
<!-- Node13&#45;&gt;Node24 -->
<g id="edge30" class="edge"><title>Node13&#45;&gt;Node24</title>
<path fill="none" stroke="midnightblue" d="M600.644,-363.056C664.299,-355.479 765.56,-341.985 852,-324 858.137,-322.723 864.583,-321.184 870.868,-319.571"/>
<polygon fill="midnightblue" stroke="midnightblue" points="871.777,-322.951 880.545,-317.003 869.982,-316.185 871.777,-322.951"/>
</g>
<!-- Node25 -->
<g id="node25" class="node"><title>Node25</title>
<polygon fill="white" stroke="#bfbfbf" points="236.273,-297 236.273,-317 271.727,-317 271.727,-297 236.273,-297"/>
<text text-anchor="middle" x="254" y="-303" font-family="Helvetica,sans-Serif" font-size="10.00">map</text>
</g>
<!-- Node13&#45;&gt;Node25 -->
<g id="edge31" class="edge"><title>Node13&#45;&gt;Node25</title>
<path fill="none" stroke="midnightblue" d="M475.345,-365.089C422.265,-359.457 344.833,-347.738 281,-324 279.385,-323.399 277.757,-322.703 276.144,-321.944"/>
<polygon fill="midnightblue" stroke="midnightblue" points="277.721,-318.818 267.26,-317.135 274.388,-324.973 277.721,-318.818"/>
</g>
<!-- Node26 -->
<g id="node26" class="node"><title>Node26</title>
<polygon fill="white" stroke="#bfbfbf" points="289.599,-297 289.599,-317 348.401,-317 348.401,-297 289.599,-297"/>
<text text-anchor="middle" x="319" y="-303" font-family="Helvetica,sans-Serif" font-size="10.00">stdexcept</text>
</g>
<!-- Node13&#45;&gt;Node26 -->
<g id="edge32" class="edge"><title>Node13&#45;&gt;Node26</title>
<path fill="none" stroke="midnightblue" d="M498.88,-360.971C463,-352.408 408.528,-338.696 362,-324 358.632,-322.936 355.14,-321.761 351.669,-320.545"/>
<polygon fill="midnightblue" stroke="midnightblue" points="352.655,-317.179 342.061,-317.067 350.273,-323.761 352.655,-317.179"/>
</g>
<!-- Node18 -->
<g id="node18" class="node"><title>Node18</title>
<polygon fill="white" stroke="#bfbfbf" points="386.613,-233 386.613,-253 425.387,-253 425.387,-233 386.613,-233"/>
<text text-anchor="middle" x="406" y="-239" font-family="Helvetica,sans-Serif" font-size="10.00">limits</text>
</g>
<!-- Node13&#45;&gt;Node18 -->
<g id="edge33" class="edge"><title>Node13&#45;&gt;Node18</title>
<path fill="none" stroke="midnightblue" d="M475.412,-366.26C446.005,-360.979 413.432,-349.291 395,-324 381.954,-306.1 389.201,-279.823 396.661,-262.328"/>
<polygon fill="midnightblue" stroke="midnightblue" points="399.877,-263.713 400.927,-253.171 393.532,-260.757 399.877,-263.713"/>
</g>
<!-- Node27 -->
<g id="node27" class="node"><title>Node27</title>
<polygon fill="white" stroke="#bfbfbf" points="403.761,-297 403.761,-317 464.239,-317 464.239,-297 403.761,-297"/>
<text text-anchor="middle" x="434" y="-303" font-family="Helvetica,sans-Serif" font-size="10.00">utf8/utf8.h</text>
</g>
<!-- Node13&#45;&gt;Node27 -->
<g id="edge34" class="edge"><title>Node13&#45;&gt;Node27</title>
<path fill="none" stroke="midnightblue" d="M522.654,-360.852C505.68,-350.732 478.103,-334.292 458.209,-322.432"/>
<polygon fill="midnightblue" stroke="midnightblue" points="459.79,-319.3 449.409,-317.186 456.206,-325.313 459.79,-319.3"/>
</g>
<!-- Node14&#45;&gt;Node2 -->
<g id="edge16" class="edge"><title>Node14&#45;&gt;Node2</title>
<path fill="none" stroke="midnightblue" d="M534.678,-290.946C531.341,-275.972 525.992,-252.356 521,-232 518.813,-223.082 516.261,-213.228 514.073,-204.936"/>
<polygon fill="midnightblue" stroke="midnightblue" points="517.422,-203.909 511.47,-195.144 510.657,-205.708 517.422,-203.909"/>
</g>
<!-- Node16 -->
<g id="node16" class="node"><title>Node16</title>
<polygon fill="white" stroke="#bfbfbf" points="643.934,-233 643.934,-253 706.066,-253 706.066,-233 643.934,-233"/>
<text text-anchor="middle" x="675" y="-239" font-family="Helvetica,sans-Serif" font-size="10.00">type_traits</text>
</g>
<!-- Node15&#45;&gt;Node16 -->
<g id="edge18" class="edge"><title>Node15&#45;&gt;Node16</title>
<path fill="none" stroke="midnightblue" d="M667.421,-290.992C668.769,-282.635 670.461,-272.142 671.904,-263.194"/>
<polygon fill="midnightblue" stroke="midnightblue" points="675.364,-263.72 673.502,-253.29 668.454,-262.605 675.364,-263.72"/>
</g>
<!-- Node15&#45;&gt;Node17 -->
<g id="edge19" class="edge"><title>Node15&#45;&gt;Node17</title>
<path fill="none" stroke="midnightblue" d="M717.836,-291.853C720.592,-291.206 723.326,-290.584 726,-290 809.75,-271.726 909.745,-255.849 958.81,-248.442"/>
<polygon fill="midnightblue" stroke="midnightblue" points="959.39,-251.894 968.761,-246.951 958.353,-244.971 959.39,-251.894"/>
</g>
<!-- Node15&#45;&gt;Node18 -->
<g id="edge20" class="edge"><title>Node15&#45;&gt;Node18</title>
<path fill="none" stroke="midnightblue" d="M612.099,-292.416C608.684,-291.585 605.296,-290.773 602,-290 531.113,-273.364 509.859,-274.3 435.408,-253.844"/>
<polygon fill="midnightblue" stroke="midnightblue" points="436.128,-250.411 425.555,-251.099 434.249,-257.154 436.128,-250.411"/>
</g>
<!-- Node19 -->
<g id="node19" class="node"><title>Node19</title>
<polygon fill="white" stroke="#bfbfbf" points="723.828,-233 723.828,-253 778.172,-253 778.172,-233 723.828,-233"/>
<text text-anchor="middle" x="751" y="-239" font-family="Helvetica,sans-Serif" font-size="10.00">iostream</text>
</g>
<!-- Node15&#45;&gt;Node19 -->
<g id="edge21" class="edge"><title>Node15&#45;&gt;Node19</title>
<path fill="none" stroke="midnightblue" d="M685.818,-290.992C699.275,-281.29 716.723,-268.711 730.18,-259.009"/>
<polygon fill="midnightblue" stroke="midnightblue" points="732.3,-261.796 738.365,-253.109 728.207,-256.118 732.3,-261.796"/>
</g>
<!-- Node20 -->
<g id="node20" class="node"><title>Node20</title>
<polygon fill="white" stroke="#bfbfbf" points="568.436,-233 568.436,-253 625.564,-253 625.564,-233 568.436,-233"/>
<text text-anchor="middle" x="597" y="-239" font-family="Helvetica,sans-Serif" font-size="10.00">algorithm</text>
</g>
<!-- Node15&#45;&gt;Node20 -->
<g id="edge22" class="edge"><title>Node15&#45;&gt;Node20</title>
<path fill="none" stroke="midnightblue" d="M648.539,-290.992C638.366,-281.716 625.308,-269.811 614.882,-260.304"/>
<polygon fill="midnightblue" stroke="midnightblue" points="616.937,-257.442 607.189,-253.29 612.221,-262.614 616.937,-257.442"/>
</g>
<!-- Node21 -->
<g id="node21" class="node"><title>Node21</title>
<g id="a_node21"><a xlink:href="____strhash_8h.xhtml" target="_top" xlink:title="__strhash.h">
<polygon fill="white" stroke="black" points="443.872,-233 443.872,-253 512.128,-253 512.128,-233 443.872,-233"/>
<text text-anchor="middle" x="478" y="-239" font-family="Helvetica,sans-Serif" font-size="10.00">__strhash.h</text>
</a>
</g>
</g>
<!-- Node15&#45;&gt;Node21 -->
<g id="edge23" class="edge"><title>Node15&#45;&gt;Node21</title>
<path fill="none" stroke="midnightblue" d="M619.733,-290.992C587.588,-280.334 544.969,-266.204 514.888,-256.23"/>
<polygon fill="midnightblue" stroke="midnightblue" points="515.794,-252.843 505.201,-253.018 513.591,-259.488 515.794,-252.843"/>
</g>
<!-- Node21&#45;&gt;Node2 -->
<g id="edge24" class="edge"><title>Node21&#45;&gt;Node2</title>
<path fill="none" stroke="midnightblue" d="M483.119,-232.753C487.453,-224.924 493.79,-213.476 499.109,-203.868"/>
<polygon fill="midnightblue" stroke="midnightblue" points="502.195,-205.519 503.976,-195.075 496.071,-202.129 502.195,-205.519"/>
</g>
<!-- Node21&#45;&gt;Node10 -->
<g id="edge25" class="edge"><title>Node21&#45;&gt;Node10</title>
<path fill="none" stroke="midnightblue" d="M443.792,-232.878C405.303,-222.614 343.058,-206.015 303.891,-195.571"/>
<polygon fill="midnightblue" stroke="midnightblue" points="304.783,-192.186 294.218,-192.992 302.979,-198.95 304.783,-192.186"/>
</g>
</g>
</svg>
