<?xml version="1.0" encoding="UTF-8" standalone="no"?>
<!DOCTYPE svg PUBLIC "-//W3C//DTD SVG 1.1//EN"
 "http://www.w3.org/Graphics/SVG/1.1/DTD/svg11.dtd">
<!-- Generated by graphviz version 2.30.0 (20130114.0426)
 -->
<!-- Title: /Users/rkwright/Documents/github/readium&#45;sdk&#45;D/ePub3/ePub/epub_collection.cpp Pages: 1 -->
<svg width="2331pt" height="496pt"
 viewBox="0.00 0.00 2331.00 496.00" xmlns="http://www.w3.org/2000/svg" xmlns:xlink="http://www.w3.org/1999/xlink">
<g id="graph0" class="graph" transform="scale(1 1) rotate(0) translate(4 492)">
<title>/Users/rkwright/Documents/github/readium&#45;sdk&#45;D/ePub3/ePub/epub_collection.cpp</title>
<polygon fill="white" stroke="white" points="-4,5 -4,-492 2328,-492 2328,5 -4,5"/>
<!-- Node1 -->
<g id="node1" class="node"><title>Node1</title>
<polygon fill="#bfbfbf" stroke="black" points="592.966,-443 592.966,-487 739.034,-487 739.034,-443 592.966,-443"/>
<text text-anchor="start" x="600.966" y="-473" font-family="Helvetica,sans-Serif" font-size="10.00">/Users/rkwright/Documents</text>
<text text-anchor="start" x="600.966" y="-461" font-family="Helvetica,sans-Serif" font-size="10.00">/github/readium&#45;sdk&#45;D/ePub3</text>
<text text-anchor="middle" x="666" y="-449" font-family="Helvetica,sans-Serif" font-size="10.00">/ePub/epub_collection.cpp</text>
</g>
<!-- Node2 -->
<g id="node2" class="node"><title>Node2</title>
<g id="a_node2"><a xlink:href="epub__collection_8h.xhtml" target="_top" xlink:title="epub_collection.h">
<polygon fill="white" stroke="black" points="222.082,-379 222.082,-399 315.918,-399 315.918,-379 222.082,-379"/>
<text text-anchor="middle" x="269" y="-385" font-family="Helvetica,sans-Serif" font-size="10.00">epub_collection.h</text>
</a>
</g>
</g>
<!-- Node1&#45;&gt;Node2 -->
<g id="edge1" class="edge"><title>Node1&#45;&gt;Node2</title>
<path fill="none" stroke="midnightblue" d="M592.721,-450.341C515.739,-435.992 396.287,-413.726 326.039,-400.632"/>
<polygon fill="midnightblue" stroke="midnightblue" points="326.514,-397.16 316.042,-398.769 325.232,-404.042 326.514,-397.16"/>
</g>
<!-- Node30 -->
<g id="node30" class="node"><title>Node30</title>
<g id="a_node30"><a xlink:href="package_8h.xhtml" target="_top" xlink:title="package.h">
<polygon fill="white" stroke="black" points="1010.93,-379 1010.93,-399 1073.07,-399 1073.07,-379 1010.93,-379"/>
<text text-anchor="middle" x="1042" y="-385" font-family="Helvetica,sans-Serif" font-size="10.00">package.h</text>
</a>
</g>
</g>
<!-- Node1&#45;&gt;Node30 -->
<g id="edge36" class="edge"><title>Node1&#45;&gt;Node30</title>
<path fill="none" stroke="midnightblue" d="M739.389,-449.556C817.331,-434.217 937.773,-410.513 1000.62,-398.143"/>
<polygon fill="midnightblue" stroke="midnightblue" points="1001.43,-401.551 1010.57,-396.186 1000.08,-394.683 1001.43,-401.551"/>
</g>
<!-- Node3 -->
<g id="node3" class="node"><title>Node3</title>
<polygon fill="white" stroke="#bfbfbf" points="88.0791,-309 88.0791,-329 171.921,-329 171.921,-309 88.0791,-309"/>
<text text-anchor="middle" x="130" y="-315" font-family="Helvetica,sans-Serif" font-size="10.00">ePub3/epub3.h</text>
</g>
<!-- Node1&#45;&gt;Node3 -->
<g id="edge69" class="edge"><title>Node1&#45;&gt;Node3</title>
<path fill="none" stroke="midnightblue" d="M592.772,-460.507C482.018,-454.243 277.926,-438.593 213,-406 181.641,-390.258 155.495,-357.788 141.358,-337.559"/>
<polygon fill="midnightblue" stroke="midnightblue" points="144.23,-335.557 135.732,-329.23 138.429,-339.475 144.23,-335.557"/>
</g>
<!-- Node47 -->
<g id="node47" class="node"><title>Node47</title>
<g id="a_node47"><a xlink:href="error__handler_8h.xhtml" target="_top" xlink:title="ePub3/utilities/error\l_handler.h">
<polygon fill="white" stroke="black" points="2100.92,-373 2100.92,-405 2203.08,-405 2203.08,-373 2100.92,-373"/>
<text text-anchor="start" x="2108.92" y="-391" font-family="Helvetica,sans-Serif" font-size="10.00">ePub3/utilities/error</text>
<text text-anchor="middle" x="2152" y="-379" font-family="Helvetica,sans-Serif" font-size="10.00">_handler.h</text>
</a>
</g>
</g>
<!-- Node1&#45;&gt;Node47 -->
<g id="edge70" class="edge"><title>Node1&#45;&gt;Node47</title>
<path fill="none" stroke="midnightblue" d="M739.184,-460.356C995.907,-447.571 1852.8,-404.9 2090.43,-393.066"/>
<polygon fill="midnightblue" stroke="midnightblue" points="2090.8,-396.552 2100.61,-392.559 2090.45,-389.561 2090.8,-396.552"/>
</g>
<!-- Node2&#45;&gt;Node3 -->
<g id="edge2" class="edge"><title>Node2&#45;&gt;Node3</title>
<path fill="none" stroke="midnightblue" d="M250.542,-378.97C226.76,-367.336 185.208,-347.008 157.647,-333.525"/>
<polygon fill="midnightblue" stroke="midnightblue" points="159.055,-330.318 148.534,-329.067 155.979,-336.606 159.055,-330.318"/>
</g>
<!-- Node4 -->
<g id="node4" class="node"><title>Node4</title>
<polygon fill="white" stroke="#bfbfbf" points="-0.519531,-309 -0.519531,-329 70.5195,-329 70.5195,-309 -0.519531,-309"/>
<text text-anchor="middle" x="35" y="-315" font-family="Helvetica,sans-Serif" font-size="10.00">ePub3/link.h</text>
</g>
<!-- Node2&#45;&gt;Node4 -->
<g id="edge3" class="edge"><title>Node2&#45;&gt;Node4</title>
<path fill="none" stroke="midnightblue" d="M232.672,-378.998C194.241,-369.257 131.959,-352.845 79,-336 75.6451,-334.933 72.1659,-333.769 68.7005,-332.571"/>
<polygon fill="midnightblue" stroke="midnightblue" points="69.6802,-329.205 59.0855,-329.16 67.3395,-335.802 69.6802,-329.205"/>
</g>
<!-- Node5 -->
<g id="node5" class="node"><title>Node5</title>
<g id="a_node5"><a xlink:href="xml__identifiable_8h.xhtml" target="_top" xlink:title="ePub3/utilities/xml\l_identifiable.h">
<polygon fill="white" stroke="black" points="409.705,-303 409.705,-335 506.295,-335 506.295,-303 409.705,-303"/>
<text text-anchor="start" x="417.705" y="-321" font-family="Helvetica,sans-Serif" font-size="10.00">ePub3/utilities/xml</text>
<text text-anchor="middle" x="458" y="-309" font-family="Helvetica,sans-Serif" font-size="10.00">_identifiable.h</text>
</a>
</g>
</g>
<!-- Node2&#45;&gt;Node5 -->
<g id="edge4" class="edge"><title>Node2&#45;&gt;Node5</title>
<path fill="none" stroke="midnightblue" d="M294.098,-378.97C322.672,-368.689 370.115,-351.62 406.625,-338.484"/>
<polygon fill="midnightblue" stroke="midnightblue" points="407.905,-341.743 416.13,-335.064 405.535,-335.157 407.905,-341.743"/>
</g>
<!-- Node29 -->
<g id="node29" class="node"><title>Node29</title>
<polygon fill="white" stroke="#bfbfbf" points="228.234,-309 228.234,-329 353.766,-329 353.766,-309 228.234,-309"/>
<text text-anchor="middle" x="291" y="-315" font-family="Helvetica,sans-Serif" font-size="10.00">ePub3/property_holder.h</text>
</g>
<!-- Node2&#45;&gt;Node29 -->
<g id="edge34" class="edge"><title>Node2&#45;&gt;Node29</title>
<path fill="none" stroke="midnightblue" d="M271.967,-378.829C275.266,-368.633 280.684,-351.887 284.897,-338.864"/>
<polygon fill="midnightblue" stroke="midnightblue" points="288.332,-339.617 288.08,-329.025 281.672,-337.463 288.332,-339.617"/>
</g>
<!-- Node16 -->
<g id="node16" class="node"><title>Node16</title>
<g id="a_node16"><a xlink:href="string__view_8h.xhtml" target="_top" xlink:title="ePub3/utilities/string\l_view.h">
<polygon fill="white" stroke="black" points="272.254,-175 272.254,-207 377.746,-207 377.746,-175 272.254,-175"/>
<text text-anchor="start" x="280.254" y="-193" font-family="Helvetica,sans-Serif" font-size="10.00">ePub3/utilities/string</text>
<text text-anchor="middle" x="325" y="-181" font-family="Helvetica,sans-Serif" font-size="10.00">_view.h</text>
</a>
</g>
</g>
<!-- Node2&#45;&gt;Node16 -->
<g id="edge35" class="edge"><title>Node2&#45;&gt;Node16</title>
<path fill="none" stroke="midnightblue" d="M255.414,-378.691C243.27,-369.468 226.299,-354.123 219,-336 213.354,-321.983 213.347,-316.014 219,-302 234.065,-264.656 268.548,-232.914 294.116,-213.266"/>
<polygon fill="midnightblue" stroke="midnightblue" points="296.486,-215.864 302.404,-207.076 292.297,-210.256 296.486,-215.864"/>
</g>
<!-- Node6 -->
<g id="node6" class="node"><title>Node6</title>
<g id="a_node6"><a xlink:href="utfstring_8h.xhtml" target="_top" xlink:title="ePub3/utilities/utfstring.h">
<polygon fill="white" stroke="black" points="632.525,-245 632.525,-265 757.475,-265 757.475,-245 632.525,-245"/>
<text text-anchor="middle" x="695" y="-251" font-family="Helvetica,sans-Serif" font-size="10.00">ePub3/utilities/utfstring.h</text>
</a>
</g>
</g>
<!-- Node5&#45;&gt;Node6 -->
<g id="edge5" class="edge"><title>Node5&#45;&gt;Node6</title>
<path fill="none" stroke="midnightblue" d="M506.532,-305.304C548.819,-294.241 609.626,-278.334 650.635,-267.606"/>
<polygon fill="midnightblue" stroke="midnightblue" points="651.565,-270.981 660.354,-265.064 649.794,-264.208 651.565,-270.981"/>
</g>
<!-- Node7 -->
<g id="node7" class="node"><title>Node7</title>
<g id="a_node7"><a xlink:href="basic_8h.xhtml" target="_top" xlink:title="ePub3/utilities/basic.h">
<polygon fill="white" stroke="black" points="1616.64,-181 1616.64,-201 1729.36,-201 1729.36,-181 1616.64,-181"/>
<text text-anchor="middle" x="1673" y="-187" font-family="Helvetica,sans-Serif" font-size="10.00">ePub3/utilities/basic.h</text>
</a>
</g>
</g>
<!-- Node6&#45;&gt;Node7 -->
<g id="edge6" class="edge"><title>Node6&#45;&gt;Node7</title>
<path fill="none" stroke="midnightblue" d="M757.793,-244.975C760.904,-244.623 763.986,-244.295 767,-244 930.043,-228.025 1426.08,-203.689 1606.49,-195.118"/>
<polygon fill="midnightblue" stroke="midnightblue" points="1606.81,-198.607 1616.64,-194.637 1606.48,-191.615 1606.81,-198.607"/>
</g>
<!-- Node15 -->
<g id="node15" class="node"><title>Node15</title>
<g id="a_node15"><a xlink:href="integer__sequence_8h.xhtml" target="_top" xlink:title="ePub3/utilities/integer\l_sequence.h">
<polygon fill="white" stroke="black" points="753.192,-175 753.192,-207 864.808,-207 864.808,-175 753.192,-175"/>
<text text-anchor="start" x="761.192" y="-193" font-family="Helvetica,sans-Serif" font-size="10.00">ePub3/utilities/integer</text>
<text text-anchor="middle" x="809" y="-181" font-family="Helvetica,sans-Serif" font-size="10.00">_sequence.h</text>
</a>
</g>
</g>
<!-- Node6&#45;&gt;Node15 -->
<g id="edge14" class="edge"><title>Node6&#45;&gt;Node15</title>
<path fill="none" stroke="midnightblue" d="M711.821,-244.852C727.612,-236.264 751.773,-223.124 772.053,-212.094"/>
<polygon fill="midnightblue" stroke="midnightblue" points="773.941,-215.052 781.053,-207.199 770.596,-208.902 773.941,-215.052"/>
</g>
<!-- Node6&#45;&gt;Node16 -->
<g id="edge16" class="edge"><title>Node6&#45;&gt;Node16</title>
<path fill="none" stroke="midnightblue" d="M632.354,-246.049C570.897,-237.882 474.644,-224.112 392,-208 390.712,-207.749 389.412,-207.49 388.103,-207.225"/>
<polygon fill="midnightblue" stroke="midnightblue" points="388.449,-203.72 377.941,-205.075 387,-210.569 388.449,-203.72"/>
</g>
<!-- Node18 -->
<g id="node18" class="node"><title>Node18</title>
<polygon fill="white" stroke="#bfbfbf" points="165.773,-117 165.773,-137 206.227,-137 206.227,-117 165.773,-117"/>
<text text-anchor="middle" x="186" y="-123" font-family="Helvetica,sans-Serif" font-size="10.00">string</text>
</g>
<!-- Node6&#45;&gt;Node18 -->
<g id="edge25" class="edge"><title>Node6&#45;&gt;Node18</title>
<path fill="none" stroke="midnightblue" d="M632.402,-252.561C528.729,-249.316 326.507,-239.093 263,-208 234.284,-193.941 210.456,-164.518 197.236,-145.542"/>
<polygon fill="midnightblue" stroke="midnightblue" points="200.102,-143.531 191.624,-137.178 194.29,-147.432 200.102,-143.531"/>
</g>
<!-- Node23 -->
<g id="node23" class="node"><title>Node23</title>
<polygon fill="white" stroke="#bfbfbf" points="961.438,-181 961.438,-201 1008.56,-201 1008.56,-181 961.438,-181"/>
<text text-anchor="middle" x="985" y="-187" font-family="Helvetica,sans-Serif" font-size="10.00">iterator</text>
</g>
<!-- Node6&#45;&gt;Node23 -->
<g id="edge26" class="edge"><title>Node6&#45;&gt;Node23</title>
<path fill="none" stroke="midnightblue" d="M756.438,-244.988C820.538,-235.232 916.545,-219.525 952,-208 954.437,-207.208 956.924,-206.269 959.384,-205.25"/>
<polygon fill="midnightblue" stroke="midnightblue" points="960.934,-208.39 968.581,-201.057 958.03,-202.02 960.934,-208.39"/>
</g>
<!-- Node24 -->
<g id="node24" class="node"><title>Node24</title>
<polygon fill="white" stroke="#bfbfbf" points="1026.94,-181 1026.94,-201 1069.06,-201 1069.06,-181 1026.94,-181"/>
<text text-anchor="middle" x="1048" y="-187" font-family="Helvetica,sans-Serif" font-size="10.00">locale</text>
</g>
<!-- Node6&#45;&gt;Node24 -->
<g id="edge27" class="edge"><title>Node6&#45;&gt;Node24</title>
<path fill="none" stroke="midnightblue" d="M757.486,-245.205C850.257,-232.13 1013.92,-208.984 1017,-208 1019.29,-207.269 1021.61,-206.381 1023.9,-205.401"/>
<polygon fill="midnightblue" stroke="midnightblue" points="1025.49,-208.521 1032.98,-201.031 1022.46,-202.214 1025.49,-208.521"/>
</g>
<!-- Node13 -->
<g id="node13" class="node"><title>Node13</title>
<polygon fill="white" stroke="#bfbfbf" points="1350.38,-117 1350.38,-137 1393.62,-137 1393.62,-117 1350.38,-117"/>
<text text-anchor="middle" x="1372" y="-123" font-family="Helvetica,sans-Serif" font-size="10.00">vector</text>
</g>
<!-- Node6&#45;&gt;Node13 -->
<g id="edge28" class="edge"><title>Node6&#45;&gt;Node13</title>
<path fill="none" stroke="midnightblue" d="M757.817,-245.19C760.921,-244.781 763.995,-244.382 767,-244 905.031,-226.428 951.094,-265.064 1078,-208 1098.67,-198.706 1095.63,-183.936 1116,-174 1190.49,-137.665 1289.75,-129.786 1339.98,-128.237"/>
<polygon fill="midnightblue" stroke="midnightblue" points="1340.3,-131.73 1350.21,-127.989 1340.13,-124.732 1340.3,-131.73"/>
</g>
<!-- Node25 -->
<g id="node25" class="node"><title>Node25</title>
<polygon fill="white" stroke="#bfbfbf" points="557.766,-181 557.766,-201 658.234,-201 658.234,-181 557.766,-181"/>
<text text-anchor="middle" x="608" y="-187" font-family="Helvetica,sans-Serif" font-size="10.00">REGEX_INCLUDE</text>
</g>
<!-- Node6&#45;&gt;Node25 -->
<g id="edge29" class="edge"><title>Node6&#45;&gt;Node25</title>
<path fill="none" stroke="midnightblue" d="M682.163,-244.852C668.284,-234.961 645.933,-219.033 629.391,-207.244"/>
<polygon fill="midnightblue" stroke="midnightblue" points="631.065,-204.139 620.89,-201.186 627.002,-209.84 631.065,-204.139"/>
</g>
<!-- Node26 -->
<g id="node26" class="node"><title>Node26</title>
<polygon fill="white" stroke="#bfbfbf" points="1125.27,-181 1125.27,-201 1160.73,-201 1160.73,-181 1125.27,-181"/>
<text text-anchor="middle" x="1143" y="-187" font-family="Helvetica,sans-Serif" font-size="10.00">map</text>
</g>
<!-- Node6&#45;&gt;Node26 -->
<g id="edge30" class="edge"><title>Node6&#45;&gt;Node26</title>
<path fill="none" stroke="midnightblue" d="M757.812,-245.149C760.918,-244.751 763.993,-244.366 767,-244 919.597,-225.424 963.432,-251.067 1111,-208 1113.45,-207.284 1115.94,-206.386 1118.39,-205.381"/>
<polygon fill="midnightblue" stroke="midnightblue" points="1119.91,-208.535 1127.51,-201.147 1116.96,-202.187 1119.91,-208.535"/>
</g>
<!-- Node27 -->
<g id="node27" class="node"><title>Node27</title>
<polygon fill="white" stroke="#bfbfbf" points="676.599,-181 676.599,-201 735.401,-201 735.401,-181 676.599,-181"/>
<text text-anchor="middle" x="706" y="-187" font-family="Helvetica,sans-Serif" font-size="10.00">stdexcept</text>
</g>
<!-- Node6&#45;&gt;Node27 -->
<g id="edge31" class="edge"><title>Node6&#45;&gt;Node27</title>
<path fill="none" stroke="midnightblue" d="M696.623,-244.852C698.183,-236.06 700.589,-222.498 702.573,-211.313"/>
<polygon fill="midnightblue" stroke="midnightblue" points="706.069,-211.644 704.37,-201.186 699.177,-210.421 706.069,-211.644"/>
</g>
<!-- Node19 -->
<g id="node19" class="node"><title>Node19</title>
<polygon fill="white" stroke="#bfbfbf" points="458.613,-117 458.613,-137 497.387,-137 497.387,-117 458.613,-117"/>
<text text-anchor="middle" x="478" y="-123" font-family="Helvetica,sans-Serif" font-size="10.00">limits</text>
</g>
<!-- Node6&#45;&gt;Node19 -->
<g id="edge32" class="edge"><title>Node6&#45;&gt;Node19</title>
<path fill="none" stroke="midnightblue" d="M632.442,-247.585C556.905,-239.198 438.265,-223.716 425,-208 415.253,-196.452 418.728,-187.748 425,-174 430.866,-161.143 442.296,-150.493 453.045,-142.69"/>
<polygon fill="midnightblue" stroke="midnightblue" points="455.067,-145.548 461.4,-137.054 451.152,-139.745 455.067,-145.548"/>
</g>
<!-- Node28 -->
<g id="node28" class="node"><title>Node28</title>
<polygon fill="white" stroke="#bfbfbf" points="882.761,-181 882.761,-201 943.239,-201 943.239,-181 882.761,-181"/>
<text text-anchor="middle" x="913" y="-187" font-family="Helvetica,sans-Serif" font-size="10.00">utf8/utf8.h</text>
</g>
<!-- Node6&#45;&gt;Node28 -->
<g id="edge33" class="edge"><title>Node6&#45;&gt;Node28</title>
<path fill="none" stroke="midnightblue" d="M736.078,-244.956C772.434,-236.581 826.746,-223.159 873,-208 875.961,-207.03 879.017,-205.952 882.059,-204.826"/>
<polygon fill="midnightblue" stroke="midnightblue" points="883.527,-208.012 891.596,-201.146 881.006,-201.481 883.527,-208.012"/>
</g>
<!-- Node8 -->
<g id="node8" class="node"><title>Node8</title>
<g id="a_node8"><a xlink:href="base_8h.xhtml" target="_top" xlink:title="ePub3/base.h">
<polygon fill="white" stroke="red" points="566.141,-59 566.141,-79 643.859,-79 643.859,-59 566.141,-59"/>
<text text-anchor="middle" x="605" y="-65" font-family="Helvetica,sans-Serif" font-size="10.00">ePub3/base.h</text>
</a>
</g>
</g>
<!-- Node7&#45;&gt;Node8 -->
<g id="edge7" class="edge"><title>Node7&#45;&gt;Node8</title>
<path fill="none" stroke="midnightblue" d="M1643.09,-180.982C1582.97,-162.993 1449.17,-123.714 1402,-116 1328.47,-103.975 816.159,-79.6966 654.059,-72.2335"/>
<polygon fill="midnightblue" stroke="midnightblue" points="654.046,-68.7294 643.896,-71.7666 653.725,-75.722 654.046,-68.7294"/>
</g>
<!-- Node10 -->
<g id="node10" class="node"><title>Node10</title>
<polygon fill="white" stroke="#bfbfbf" points="1572.82,-117 1572.82,-137 1687.18,-137 1687.18,-117 1572.82,-117"/>
<text text-anchor="middle" x="1630" y="-123" font-family="Helvetica,sans-Serif" font-size="10.00">ePub3/xml/xmlstring.h</text>
</g>
<!-- Node7&#45;&gt;Node10 -->
<g id="edge9" class="edge"><title>Node7&#45;&gt;Node10</title>
<path fill="none" stroke="midnightblue" d="M1666.66,-180.852C1660.24,-171.602 1650.16,-157.072 1642.2,-145.586"/>
<polygon fill="midnightblue" stroke="midnightblue" points="1644.95,-143.408 1636.37,-137.186 1639.19,-147.398 1644.95,-143.408"/>
</g>
<!-- Node11 -->
<g id="node11" class="node"><title>Node11</title>
<polygon fill="white" stroke="#bfbfbf" points="1503.22,-117 1503.22,-137 1554.78,-137 1554.78,-117 1503.22,-117"/>
<text text-anchor="middle" x="1529" y="-123" font-family="Helvetica,sans-Serif" font-size="10.00">sstream</text>
</g>
<!-- Node7&#45;&gt;Node11 -->
<g id="edge10" class="edge"><title>Node7&#45;&gt;Node11</title>
<path fill="none" stroke="midnightblue" d="M1652.06,-180.985C1627.64,-170.47 1587.07,-153.002 1559.23,-141.017"/>
<polygon fill="midnightblue" stroke="midnightblue" points="1560.53,-137.766 1549.96,-137.026 1557.76,-144.196 1560.53,-137.766"/>
</g>
<!-- Node12 -->
<g id="node12" class="node"><title>Node12</title>
<polygon fill="white" stroke="#bfbfbf" points="879.943,-59 879.943,-79 932.057,-79 932.057,-59 879.943,-59"/>
<text text-anchor="middle" x="906" y="-65" font-family="Helvetica,sans-Serif" font-size="10.00">memory</text>
</g>
<!-- Node7&#45;&gt;Node12 -->
<g id="edge11" class="edge"><title>Node7&#45;&gt;Node12</title>
<path fill="none" stroke="midnightblue" d="M1681.07,-180.51C1693.25,-165.018 1713.17,-134.201 1696,-116 1669.82,-88.2486 1094.09,-74.0199 942.374,-70.7438"/>
<polygon fill="midnightblue" stroke="midnightblue" points="942.269,-67.2409 932.197,-70.5268 942.12,-74.2393 942.269,-67.2409"/>
</g>
<!-- Node7&#45;&gt;Node13 -->
<g id="edge12" class="edge"><title>Node7&#45;&gt;Node13</title>
<path fill="none" stroke="midnightblue" d="M1634.17,-180.919C1624.03,-178.606 1613.12,-176.163 1603,-174 1531.92,-158.803 1448.18,-142.533 1403.63,-134.006"/>
<polygon fill="midnightblue" stroke="midnightblue" points="1404.18,-130.548 1393.7,-132.11 1402.86,-137.423 1404.18,-130.548"/>
</g>
<!-- Node14 -->
<g id="node14" class="node"><title>Node14</title>
<polygon fill="white" stroke="#bfbfbf" points="1928.5,-117 1928.5,-137 1957.5,-137 1957.5,-117 1928.5,-117"/>
<text text-anchor="middle" x="1942.61" y="-123" font-family="Helvetica,sans-Serif" font-size="10.00">list</text>
</g>
<!-- Node7&#45;&gt;Node14 -->
<g id="edge13" class="edge"><title>Node7&#45;&gt;Node14</title>
<path fill="none" stroke="midnightblue" d="M1712.26,-180.985C1768.84,-167.992 1871.65,-144.383 1918.53,-133.619"/>
<polygon fill="midnightblue" stroke="midnightblue" points="1919.45,-136.998 1928.42,-131.349 1917.89,-130.176 1919.45,-136.998"/>
</g>
<!-- Node9 -->
<g id="node9" class="node"><title>Node9</title>
<g id="a_node9"><a xlink:href="__config_8h.xhtml" target="_top" xlink:title="_config.h">
<polygon fill="white" stroke="red" points="576.707,-1 576.707,-21 633.293,-21 633.293,-1 576.707,-1"/>
<text text-anchor="middle" x="605" y="-7" font-family="Helvetica,sans-Serif" font-size="10.00">_config.h</text>
</a>
</g>
</g>
<!-- Node8&#45;&gt;Node9 -->
<g id="edge8" class="edge"><title>Node8&#45;&gt;Node9</title>
<path fill="none" stroke="midnightblue" d="M605,-58.7527C605,-51.2504 605,-40.4238 605,-31.0781"/>
<polygon fill="midnightblue" stroke="midnightblue" points="608.5,-31.0752 605,-21.0752 601.5,-31.0752 608.5,-31.0752"/>
</g>
<!-- Node15&#45;&gt;Node8 -->
<g id="edge15" class="edge"><title>Node15&#45;&gt;Node8</title>
<path fill="none" stroke="midnightblue" d="M799.742,-174.774C788.849,-158.079 769.266,-131.593 746,-116 718.256,-97.4065 682.43,-85.8456 653.833,-78.9642"/>
<polygon fill="midnightblue" stroke="midnightblue" points="654.574,-75.5434 644.045,-76.7215 653.011,-82.3665 654.574,-75.5434"/>
</g>
<!-- Node17 -->
<g id="node17" class="node"><title>Node17</title>
<polygon fill="white" stroke="#bfbfbf" points="618.934,-117 618.934,-137 681.066,-137 681.066,-117 618.934,-117"/>
<text text-anchor="middle" x="650" y="-123" font-family="Helvetica,sans-Serif" font-size="10.00">type_traits</text>
</g>
<!-- Node16&#45;&gt;Node17 -->
<g id="edge17" class="edge"><title>Node16&#45;&gt;Node17</title>
<path fill="none" stroke="midnightblue" d="M377.992,-181.383C433.244,-172.163 522.562,-156.597 608.663,-138.193"/>
<polygon fill="midnightblue" stroke="midnightblue" points="609.563,-141.58 618.602,-136.053 608.089,-134.737 609.563,-141.58"/>
</g>
<!-- Node16&#45;&gt;Node18 -->
<g id="edge18" class="edge"><title>Node16&#45;&gt;Node18</title>
<path fill="none" stroke="midnightblue" d="M291.352,-174.992C268.255,-164.689 237.885,-151.143 215.688,-141.242"/>
<polygon fill="midnightblue" stroke="midnightblue" points="216.98,-137.986 206.421,-137.109 214.128,-144.379 216.98,-137.986"/>
</g>
<!-- Node16&#45;&gt;Node19 -->
<g id="edge19" class="edge"><title>Node16&#45;&gt;Node19</title>
<path fill="none" stroke="midnightblue" d="M362.037,-174.992C388.776,-164.156 424.373,-149.731 449.042,-139.735"/>
<polygon fill="midnightblue" stroke="midnightblue" points="450.611,-142.875 458.564,-135.876 447.982,-136.388 450.611,-142.875"/>
</g>
<!-- Node20 -->
<g id="node20" class="node"><title>Node20</title>
<polygon fill="white" stroke="#bfbfbf" points="223.828,-117 223.828,-137 278.172,-137 278.172,-117 223.828,-117"/>
<text text-anchor="middle" x="251" y="-123" font-family="Helvetica,sans-Serif" font-size="10.00">iostream</text>
</g>
<!-- Node16&#45;&gt;Node20 -->
<g id="edge20" class="edge"><title>Node16&#45;&gt;Node20</title>
<path fill="none" stroke="midnightblue" d="M307.087,-174.992C295.797,-165.533 281.242,-153.338 269.789,-143.742"/>
<polygon fill="midnightblue" stroke="midnightblue" points="272.002,-141.03 262.089,-137.29 267.506,-146.395 272.002,-141.03"/>
</g>
<!-- Node21 -->
<g id="node21" class="node"><title>Node21</title>
<polygon fill="white" stroke="#bfbfbf" points="296.436,-117 296.436,-137 353.564,-137 353.564,-117 296.436,-117"/>
<text text-anchor="middle" x="325" y="-123" font-family="Helvetica,sans-Serif" font-size="10.00">algorithm</text>
</g>
<!-- Node16&#45;&gt;Node21 -->
<g id="edge21" class="edge"><title>Node16&#45;&gt;Node21</title>
<path fill="none" stroke="midnightblue" d="M325,-174.992C325,-166.726 325,-156.373 325,-147.489"/>
<polygon fill="midnightblue" stroke="midnightblue" points="328.5,-147.29 325,-137.29 321.5,-147.29 328.5,-147.29"/>
</g>
<!-- Node22 -->
<g id="node22" class="node"><title>Node22</title>
<g id="a_node22"><a xlink:href="____strhash_8h.xhtml" target="_top" xlink:title="__strhash.h">
<polygon fill="white" stroke="black" points="371.872,-117 371.872,-137 440.128,-137 440.128,-117 371.872,-117"/>
<text text-anchor="middle" x="406" y="-123" font-family="Helvetica,sans-Serif" font-size="10.00">__strhash.h</text>
</a>
</g>
</g>
<!-- Node16&#45;&gt;Node22 -->
<g id="edge22" class="edge"><title>Node16&#45;&gt;Node22</title>
<path fill="none" stroke="midnightblue" d="M344.608,-174.992C357.086,-165.441 373.207,-153.101 385.798,-143.463"/>
<polygon fill="midnightblue" stroke="midnightblue" points="388.049,-146.148 393.863,-137.29 383.794,-140.589 388.049,-146.148"/>
</g>
<!-- Node22&#45;&gt;Node8 -->
<g id="edge23" class="edge"><title>Node22&#45;&gt;Node8</title>
<path fill="none" stroke="midnightblue" d="M438.416,-116.878C472.341,-107.331 525.744,-92.3033 562.906,-81.8454"/>
<polygon fill="midnightblue" stroke="midnightblue" points="564.25,-85.1034 572.928,-79.0253 562.354,-78.3651 564.25,-85.1034"/>
</g>
<!-- Node22&#45;&gt;Node12 -->
<g id="edge24" class="edge"><title>Node22&#45;&gt;Node12</title>
<path fill="none" stroke="midnightblue" d="M440.508,-117.736C443.707,-117.097 446.908,-116.505 450,-116 605.06,-90.657 792.215,-77.0418 869.699,-72.1403"/>
<polygon fill="midnightblue" stroke="midnightblue" points="870.126,-75.6206 879.889,-71.5062 869.691,-68.6341 870.126,-75.6206"/>
</g>
<!-- Node30&#45;&gt;Node3 -->
<g id="edge37" class="edge"><title>Node30&#45;&gt;Node3</title>
<path fill="none" stroke="midnightblue" d="M1010.87,-387.32C901.71,-384.662 526.354,-373.213 219,-336 206.946,-334.541 194.051,-332.503 181.925,-330.369"/>
<polygon fill="midnightblue" stroke="midnightblue" points="182.418,-326.901 171.955,-328.564 181.172,-333.789 182.418,-326.901"/>
</g>
<!-- Node30&#45;&gt;Node18 -->
<g id="edge38" class="edge"><title>Node30&#45;&gt;Node18</title>
<path fill="none" stroke="midnightblue" d="M1010.85,-388.027C898.233,-387.733 513.012,-383.223 401,-336 379.811,-327.067 380.361,-315.845 362,-302 300.678,-255.76 265.451,-267.59 217,-208 202.431,-190.082 194.139,-164.525 189.864,-147.153"/>
<polygon fill="midnightblue" stroke="midnightblue" points="193.209,-146.076 187.609,-137.082 186.379,-147.605 193.209,-146.076"/>
</g>
<!-- Node30&#45;&gt;Node13 -->
<g id="edge39" class="edge"><title>Node30&#45;&gt;Node13</title>
<path fill="none" stroke="midnightblue" d="M1073.38,-387.302C1181.77,-384.57 1535.59,-372.874 1569,-336 1636.78,-261.2 1473.27,-174.27 1402.6,-141.456"/>
<polygon fill="midnightblue" stroke="midnightblue" points="1403.83,-138.169 1393.28,-137.192 1400.92,-144.535 1403.83,-138.169"/>
</g>
<!-- Node30&#45;&gt;Node26 -->
<g id="edge40" class="edge"><title>Node30&#45;&gt;Node26</title>
<path fill="none" stroke="midnightblue" d="M1073.16,-382.36C1098.71,-375.917 1133.28,-362.606 1150,-336 1174.43,-297.118 1160.25,-240.006 1150.25,-210.764"/>
<polygon fill="midnightblue" stroke="midnightblue" points="1153.53,-209.548 1146.84,-201.338 1146.95,-211.932 1153.53,-209.548"/>
</g>
<!-- Node30&#45;&gt;Node14 -->
<g id="edge41" class="edge"><title>Node30&#45;&gt;Node14</title>
<path fill="none" stroke="midnightblue" d="M1073.09,-387.551C1237.08,-385.038 1995.3,-371.517 2029,-336 2083.23,-278.834 1998.66,-182.665 1960.31,-144.412"/>
<polygon fill="midnightblue" stroke="midnightblue" points="1962.49,-141.65 1952.9,-137.163 1957.6,-146.656 1962.49,-141.65"/>
</g>
<!-- Node31 -->
<g id="node31" class="node"><title>Node31</title>
<polygon fill="white" stroke="#bfbfbf" points="715.695,-309 715.695,-329 812.305,-329 812.305,-309 715.695,-309"/>
<text text-anchor="middle" x="764" y="-315" font-family="Helvetica,sans-Serif" font-size="10.00">ePub3/xml/node.h</text>
</g>
<!-- Node30&#45;&gt;Node31 -->
<g id="edge42" class="edge"><title>Node30&#45;&gt;Node31</title>
<path fill="none" stroke="midnightblue" d="M1010.79,-381.096C967.891,-371.507 888.365,-353.372 821,-336 815.905,-334.686 810.569,-333.258 805.292,-331.814"/>
<polygon fill="midnightblue" stroke="midnightblue" points="805.866,-328.341 795.295,-329.043 803.996,-335.087 805.866,-328.341"/>
</g>
<!-- Node32 -->
<g id="node32" class="node"><title>Node32</title>
<g id="a_node32"><a xlink:href="owned__by_8h.xhtml" target="_top" xlink:title="ePub3/utilities/owned_by.h">
<polygon fill="white" stroke="black" points="1178.88,-181 1178.88,-201 1313.12,-201 1313.12,-181 1178.88,-181"/>
<text text-anchor="middle" x="1246" y="-187" font-family="Helvetica,sans-Serif" font-size="10.00">ePub3/utilities/owned_by.h</text>
</a>
</g>
</g>
<!-- Node30&#45;&gt;Node32 -->
<g id="edge43" class="edge"><title>Node30&#45;&gt;Node32</title>
<path fill="none" stroke="midnightblue" d="M1073.17,-381.59C1101.07,-374.496 1141.67,-360.662 1169,-336 1207.99,-300.814 1230.87,-241.147 1240.54,-210.854"/>
<polygon fill="midnightblue" stroke="midnightblue" points="1243.94,-211.708 1243.51,-201.122 1237.24,-209.665 1243.94,-211.708"/>
</g>
<!-- Node33 -->
<g id="node33" class="node"><title>Node33</title>
<polygon fill="white" stroke="#bfbfbf" points="829.914,-309 829.914,-329 932.086,-329 932.086,-309 829.914,-309"/>
<text text-anchor="middle" x="881" y="-315" font-family="Helvetica,sans-Serif" font-size="10.00">ePub3/encryption.h</text>
</g>
<!-- Node30&#45;&gt;Node33 -->
<g id="edge46" class="edge"><title>Node30&#45;&gt;Node33</title>
<path fill="none" stroke="midnightblue" d="M1020.62,-378.97C992.714,-367.183 943.681,-346.474 911.777,-332.999"/>
<polygon fill="midnightblue" stroke="midnightblue" points="913.042,-329.734 902.468,-329.067 910.318,-336.182 913.042,-329.734"/>
</g>
<!-- Node34 -->
<g id="node34" class="node"><title>Node34</title>
<polygon fill="white" stroke="#bfbfbf" points="950.03,-309 950.03,-329 1029.97,-329 1029.97,-309 950.03,-309"/>
<text text-anchor="middle" x="990" y="-315" font-family="Helvetica,sans-Serif" font-size="10.00">ePub3/spine.h</text>
</g>
<!-- Node30&#45;&gt;Node34 -->
<g id="edge47" class="edge"><title>Node30&#45;&gt;Node34</title>
<path fill="none" stroke="midnightblue" d="M1034.99,-378.829C1026.88,-368.225 1013.35,-350.537 1003.24,-337.32"/>
<polygon fill="midnightblue" stroke="midnightblue" points="1005.76,-334.843 996.902,-329.025 1000.2,-339.095 1005.76,-334.843"/>
</g>
<!-- Node35 -->
<g id="node35" class="node"><title>Node35</title>
<polygon fill="white" stroke="#bfbfbf" points="1048.09,-309 1048.09,-329 1141.91,-329 1141.91,-309 1048.09,-309"/>
<text text-anchor="middle" x="1095" y="-315" font-family="Helvetica,sans-Serif" font-size="10.00">ePub3/manifest.h</text>
</g>
<!-- Node30&#45;&gt;Node35 -->
<g id="edge48" class="edge"><title>Node30&#45;&gt;Node35</title>
<path fill="none" stroke="midnightblue" d="M1049.15,-378.829C1057.49,-368.124 1071.46,-350.196 1081.8,-336.94"/>
<polygon fill="midnightblue" stroke="midnightblue" points="1084.58,-339.064 1087.97,-329.025 1079.06,-334.761 1084.58,-339.064"/>
</g>
<!-- Node36 -->
<g id="node36" class="node"><title>Node36</title>
<polygon fill="white" stroke="#bfbfbf" points="1235.98,-309 1235.98,-329 1302.02,-329 1302.02,-309 1235.98,-309"/>
<text text-anchor="middle" x="1269" y="-315" font-family="Helvetica,sans-Serif" font-size="10.00">ePub3/cfi.h</text>
</g>
<!-- Node30&#45;&gt;Node36 -->
<g id="edge49" class="edge"><title>Node30&#45;&gt;Node36</title>
<path fill="none" stroke="midnightblue" d="M1073.35,-379.424C1109.37,-369.459 1170.18,-352.296 1222,-336 1225.78,-334.812 1229.71,-333.535 1233.63,-332.24"/>
<polygon fill="midnightblue" stroke="midnightblue" points="1234.85,-335.522 1243.21,-329.021 1232.62,-328.886 1234.85,-335.522"/>
</g>
<!-- Node37 -->
<g id="node37" class="node"><title>Node37</title>
<polygon fill="white" stroke="#bfbfbf" points="1320.35,-309 1320.35,-329 1433.65,-329 1433.65,-309 1320.35,-309"/>
<text text-anchor="middle" x="1377" y="-315" font-family="Helvetica,sans-Serif" font-size="10.00">ePub3/nav_element.h</text>
</g>
<!-- Node30&#45;&gt;Node37 -->
<g id="edge50" class="edge"><title>Node30&#45;&gt;Node37</title>
<path fill="none" stroke="midnightblue" d="M1073.16,-382.466C1123.38,-373.439 1225.25,-354.671 1311,-336 1317.58,-334.567 1324.51,-332.978 1331.3,-331.372"/>
<polygon fill="midnightblue" stroke="midnightblue" points="1332.19,-334.758 1341.1,-329.026 1330.56,-327.95 1332.19,-334.758"/>
</g>
<!-- Node38 -->
<g id="node38" class="node"><title>Node38</title>
<polygon fill="white" stroke="#bfbfbf" points="1451.31,-309 1451.31,-329 1560.69,-329 1560.69,-309 1451.31,-309"/>
<text text-anchor="middle" x="1506" y="-315" font-family="Helvetica,sans-Serif" font-size="10.00">ePub3/archive_xml.h</text>
</g>
<!-- Node30&#45;&gt;Node38 -->
<g id="edge51" class="edge"><title>Node30&#45;&gt;Node38</title>
<path fill="none" stroke="midnightblue" d="M1073.31,-385.174C1140.99,-378.795 1305.76,-361.795 1442,-336 1448.8,-334.712 1455.97,-333.139 1462.93,-331.489"/>
<polygon fill="midnightblue" stroke="midnightblue" points="1464.06,-334.816 1472.94,-329.039 1462.4,-328.017 1464.06,-334.816"/>
</g>
<!-- Node30&#45;&gt;Node6 -->
<g id="edge52" class="edge"><title>Node30&#45;&gt;Node6</title>
<path fill="none" stroke="midnightblue" d="M1010.81,-386.758C913.288,-382.559 618.959,-367.368 591,-336 580.945,-324.719 582.754,-314.663 591,-302 601.544,-285.807 619.227,-275.272 637.05,-268.436"/>
<polygon fill="midnightblue" stroke="midnightblue" points="638.624,-271.594 646.921,-265.006 636.326,-264.982 638.624,-271.594"/>
</g>
<!-- Node39 -->
<g id="node39" class="node"><title>Node39</title>
<g id="a_node39"><a xlink:href="iri_8h.xhtml" target="_top" xlink:title="ePub3/utilities/iri.h">
<polygon fill="white" stroke="black" points="600.424,-309 600.424,-329 697.576,-329 697.576,-309 600.424,-309"/>
<text text-anchor="middle" x="649" y="-315" font-family="Helvetica,sans-Serif" font-size="10.00">ePub3/utilities/iri.h</text>
</a>
</g>
</g>
<!-- Node30&#45;&gt;Node39 -->
<g id="edge53" class="edge"><title>Node30&#45;&gt;Node39</title>
<path fill="none" stroke="midnightblue" d="M1010.84,-384.381C951.373,-377.206 817.772,-359.793 707,-336 701.177,-334.749 695.071,-333.262 689.097,-331.706"/>
<polygon fill="midnightblue" stroke="midnightblue" points="689.806,-328.272 679.24,-329.051 687.985,-335.031 689.806,-328.272"/>
</g>
<!-- Node44 -->
<g id="node44" class="node"><title>Node44</title>
<polygon fill="white" stroke="#bfbfbf" points="1617.39,-309 1617.39,-329 1744.61,-329 1744.61,-309 1617.39,-309"/>
<text text-anchor="middle" x="1681" y="-315" font-family="Helvetica,sans-Serif" font-size="10.00">ePub3/content_handler.h</text>
</g>
<!-- Node30&#45;&gt;Node44 -->
<g id="edge63" class="edge"><title>Node30&#45;&gt;Node44</title>
<path fill="none" stroke="midnightblue" d="M1073.16,-386.317C1158.36,-381.456 1402.24,-365.803 1603,-336 1612.14,-334.643 1621.82,-332.905 1631.14,-331.076"/>
<polygon fill="midnightblue" stroke="midnightblue" points="1631.96,-334.481 1641.07,-329.07 1630.57,-327.62 1631.96,-334.481"/>
</g>
<!-- Node45 -->
<g id="node45" class="node"><title>Node45</title>
<polygon fill="white" stroke="#bfbfbf" points="1763.08,-303 1763.08,-335 1876.92,-335 1876.92,-303 1763.08,-303"/>
<text text-anchor="start" x="1771.08" y="-321" font-family="Helvetica,sans-Serif" font-size="10.00">ePub3/media_support</text>
<text text-anchor="middle" x="1820" y="-309" font-family="Helvetica,sans-Serif" font-size="10.00">_info.h</text>
</g>
<!-- Node30&#45;&gt;Node45 -->
<g id="edge64" class="edge"><title>Node30&#45;&gt;Node45</title>
<path fill="none" stroke="midnightblue" d="M1073.39,-387.508C1172.06,-385.581 1484.72,-376.586 1752.82,-335.842"/>
<polygon fill="midnightblue" stroke="midnightblue" points="1753.39,-339.296 1762.74,-334.317 1752.32,-332.377 1753.39,-339.296"/>
</g>
<!-- Node30&#45;&gt;Node29 -->
<g id="edge65" class="edge"><title>Node30&#45;&gt;Node29</title>
<path fill="none" stroke="midnightblue" d="M1010.6,-387.005C914.194,-383.645 614.049,-370.909 368,-336 358.767,-334.69 348.981,-332.94 339.593,-331.079"/>
<polygon fill="midnightblue" stroke="midnightblue" points="340.106,-327.611 329.607,-329.03 338.7,-334.468 340.106,-327.611"/>
</g>
<!-- Node46 -->
<g id="node46" class="node"><title>Node46</title>
<polygon fill="white" stroke="#bfbfbf" points="1895.23,-309 1895.23,-329 2020.77,-329 2020.77,-309 1895.23,-309"/>
<text text-anchor="middle" x="1958" y="-315" font-family="Helvetica,sans-Serif" font-size="10.00">ePub3/epub_collection.h</text>
</g>
<!-- Node30&#45;&gt;Node46 -->
<g id="edge66" class="edge"><title>Node30&#45;&gt;Node46</title>
<path fill="none" stroke="midnightblue" d="M1073.17,-387.806C1184.16,-386.75 1570.23,-379.937 1885,-336 1893.87,-334.762 1903.26,-333.028 1912.25,-331.157"/>
<polygon fill="midnightblue" stroke="midnightblue" points="1913.15,-334.543 1922.18,-329.003 1911.67,-327.702 1913.15,-334.543"/>
</g>
<!-- Node30&#45;&gt;Node5 -->
<g id="edge67" class="edge"><title>Node30&#45;&gt;Node5</title>
<path fill="none" stroke="midnightblue" d="M1010.88,-386.567C929.614,-382.464 704.492,-368.795 520,-336 518.906,-335.805 517.802,-335.602 516.692,-335.39"/>
<polygon fill="midnightblue" stroke="midnightblue" points="517.085,-331.897 506.582,-333.288 515.66,-338.75 517.085,-331.897"/>
</g>
<!-- Node30&#45;&gt;Node16 -->
<g id="edge68" class="edge"><title>Node30&#45;&gt;Node16</title>
<path fill="none" stroke="midnightblue" d="M1010.84,-388.725C935.052,-389.593 735.886,-386.463 580,-336 568.248,-332.196 427.358,-251.166 360.19,-212.364"/>
<polygon fill="midnightblue" stroke="midnightblue" points="361.632,-209.155 351.222,-207.182 358.129,-215.216 361.632,-209.155"/>
</g>
<!-- Node32&#45;&gt;Node12 -->
<g id="edge44" class="edge"><title>Node32&#45;&gt;Node12</title>
<path fill="none" stroke="midnightblue" d="M1220.44,-180.98C1160.39,-159.784 1010.17,-106.764 941.388,-82.4899"/>
<polygon fill="midnightblue" stroke="midnightblue" points="942.447,-79.152 931.852,-79.1242 940.117,-85.7529 942.447,-79.152"/>
</g>
<!-- Node32&#45;&gt;Node17 -->
<g id="edge45" class="edge"><title>Node32&#45;&gt;Node17</title>
<path fill="none" stroke="midnightblue" d="M1207.4,-180.955C1195.17,-178.367 1181.57,-175.771 1169,-174 960.901,-144.686 902.576,-171.158 691.506,-137.994"/>
<polygon fill="midnightblue" stroke="midnightblue" points="691.765,-134.491 681.338,-136.37 690.661,-141.404 691.765,-134.491"/>
</g>
<!-- Node39&#45;&gt;Node6 -->
<g id="edge54" class="edge"><title>Node39&#45;&gt;Node6</title>
<path fill="none" stroke="midnightblue" d="M655.787,-308.852C662.718,-299.511 673.644,-284.784 682.205,-273.246"/>
<polygon fill="midnightblue" stroke="midnightblue" points="685.037,-275.302 688.185,-265.186 679.415,-271.131 685.037,-275.302"/>
</g>
<!-- Node40 -->
<g id="node40" class="node"><title>Node40</title>
<g id="a_node40"><a xlink:href="make__unique_8h.xhtml" target="_top" xlink:title="ePub3/utilities/make\l_unique.h">
<polygon fill="white" stroke="black" points="434.254,-175 434.254,-207 539.746,-207 539.746,-175 434.254,-175"/>
<text text-anchor="start" x="442.254" y="-193" font-family="Helvetica,sans-Serif" font-size="10.00">ePub3/utilities/make</text>
<text text-anchor="middle" x="487" y="-181" font-family="Helvetica,sans-Serif" font-size="10.00">_unique.h</text>
</a>
</g>
</g>
<!-- Node39&#45;&gt;Node40 -->
<g id="edge55" class="edge"><title>Node39&#45;&gt;Node40</title>
<path fill="none" stroke="midnightblue" d="M637.349,-308.938C611.827,-289.088 550.396,-241.308 514.452,-213.351"/>
<polygon fill="midnightblue" stroke="midnightblue" points="516.372,-210.411 506.33,-207.034 512.075,-215.937 516.372,-210.411"/>
</g>
<!-- Node43 -->
<g id="node43" class="node"><title>Node43</title>
<polygon fill="white" stroke="#bfbfbf" points="775.867,-245 775.867,-265 864.133,-265 864.133,-245 775.867,-245"/>
<text text-anchor="middle" x="820" y="-251" font-family="Helvetica,sans-Serif" font-size="10.00">google&#45;url/gurl.h</text>
</g>
<!-- Node39&#45;&gt;Node43 -->
<g id="edge61" class="edge"><title>Node39&#45;&gt;Node43</title>
<path fill="none" stroke="midnightblue" d="M673.865,-308.985C703.246,-298.332 752.308,-280.543 785.391,-268.548"/>
<polygon fill="midnightblue" stroke="midnightblue" points="786.897,-271.725 795.105,-265.026 784.511,-265.144 786.897,-271.725"/>
</g>
<!-- Node39&#45;&gt;Node13 -->
<g id="edge62" class="edge"><title>Node39&#45;&gt;Node13</title>
<path fill="none" stroke="midnightblue" d="M679.237,-308.936C688.128,-306.467 697.909,-303.942 707,-302 977.409,-244.246 1091.01,-359.98 1322,-208 1344.06,-193.484 1358.17,-165.514 1365.59,-146.799"/>
<polygon fill="midnightblue" stroke="midnightblue" points="1368.93,-147.852 1369.11,-137.259 1362.36,-145.427 1368.93,-147.852"/>
</g>
<!-- Node40&#45;&gt;Node8 -->
<g id="edge56" class="edge"><title>Node40&#45;&gt;Node8</title>
<path fill="none" stroke="midnightblue" d="M496.86,-174.871C507.463,-159.205 525.329,-134.481 544,-116 555.644,-104.475 570.252,-93.3627 582.253,-84.9481"/>
<polygon fill="midnightblue" stroke="midnightblue" points="584.555,-87.6136 590.83,-79.0769 580.601,-81.8373 584.555,-87.6136"/>
</g>
<!-- Node41 -->
<g id="node41" class="node"><title>Node41</title>
<polygon fill="white" stroke="#bfbfbf" points="552.879,-117 552.879,-137 601.121,-137 601.121,-117 552.879,-117"/>
<text text-anchor="middle" x="577" y="-123" font-family="Helvetica,sans-Serif" font-size="10.00">cstddef</text>
</g>
<!-- Node40&#45;&gt;Node41 -->
<g id="edge57" class="edge"><title>Node40&#45;&gt;Node41</title>
<path fill="none" stroke="midnightblue" d="M508.786,-174.992C522.869,-165.29 541.129,-152.711 555.212,-143.009"/>
<polygon fill="midnightblue" stroke="midnightblue" points="557.528,-145.664 563.778,-137.109 553.557,-139.9 557.528,-145.664"/>
</g>
<!-- Node40&#45;&gt;Node12 -->
<g id="edge58" class="edge"><title>Node40&#45;&gt;Node12</title>
<path fill="none" stroke="midnightblue" d="M540.04,-176.045C543.066,-175.332 546.069,-174.645 549,-174 635.925,-154.867 660.744,-163.563 746,-138 794.262,-123.529 847.616,-99.0163 878.9,-83.711"/>
<polygon fill="midnightblue" stroke="midnightblue" points="880.834,-86.6592 888.247,-79.0896 877.732,-80.3842 880.834,-86.6592"/>
</g>
<!-- Node40&#45;&gt;Node17 -->
<g id="edge59" class="edge"><title>Node40&#45;&gt;Node17</title>
<path fill="none" stroke="midnightblue" d="M526.458,-174.992C554.028,-164.505 590.437,-150.656 616.577,-140.713"/>
<polygon fill="midnightblue" stroke="midnightblue" points="617.95,-143.935 626.053,-137.109 615.462,-137.393 617.95,-143.935"/>
</g>
<!-- Node42 -->
<g id="node42" class="node"><title>Node42</title>
<polygon fill="white" stroke="#bfbfbf" points="698.608,-117 698.608,-137 737.392,-137 737.392,-117 698.608,-117"/>
<text text-anchor="middle" x="718" y="-123" font-family="Helvetica,sans-Serif" font-size="10.00">utility</text>
</g>
<!-- Node40&#45;&gt;Node42 -->
<g id="edge60" class="edge"><title>Node40&#45;&gt;Node42</title>
<path fill="none" stroke="midnightblue" d="M539.763,-176.374C542.888,-175.57 545.985,-174.774 549,-174 608.587,-158.704 626.424,-157.033 688.564,-138.258"/>
<polygon fill="midnightblue" stroke="midnightblue" points="689.952,-141.494 698.495,-135.227 687.909,-134.799 689.952,-141.494"/>
</g>
<!-- Node47&#45;&gt;Node7 -->
<g id="edge71" class="edge"><title>Node47&#45;&gt;Node7</title>
<path fill="none" stroke="midnightblue" d="M2134.36,-372.988C2111.43,-354.118 2069.49,-321.807 2029,-302 1927.64,-252.422 1799.14,-219.338 1727.54,-203.288"/>
<polygon fill="midnightblue" stroke="midnightblue" points="1727.91,-199.787 1717.39,-201.043 1726.4,-206.622 1727.91,-199.787"/>
</g>
<!-- Node48 -->
<g id="node48" class="node"><title>Node48</title>
<polygon fill="white" stroke="#bfbfbf" points="2284.61,-309 2284.61,-329 2323.39,-329 2323.39,-309 2284.61,-309"/>
<text text-anchor="middle" x="2304" y="-315" font-family="Helvetica,sans-Serif" font-size="10.00">array</text>
</g>
<!-- Node47&#45;&gt;Node48 -->
<g id="edge72" class="edge"><title>Node47&#45;&gt;Node48</title>
<path fill="none" stroke="midnightblue" d="M2190.41,-372.962C2214.91,-363.08 2247.16,-349.52 2275,-336 2276.36,-335.341 2277.74,-334.648 2279.13,-333.937"/>
<polygon fill="midnightblue" stroke="midnightblue" points="2281.02,-336.896 2288.2,-329.105 2277.73,-330.718 2281.02,-336.896"/>
</g>
<!-- Node49 -->
<g id="node49" class="node"><title>Node49</title>
<polygon fill="white" stroke="#bfbfbf" points="2114.83,-309 2114.83,-329 2189.17,-329 2189.17,-309 2114.83,-309"/>
<text text-anchor="middle" x="2152" y="-315" font-family="Helvetica,sans-Serif" font-size="10.00">system_error</text>
</g>
<!-- Node47&#45;&gt;Node49 -->
<g id="edge73" class="edge"><title>Node47&#45;&gt;Node49</title>
<path fill="none" stroke="midnightblue" d="M2152,-372.909C2152,-362.919 2152,-349.736 2152,-339.028"/>
<polygon fill="midnightblue" stroke="midnightblue" points="2155.5,-339.004 2152,-329.004 2148.5,-339.004 2155.5,-339.004"/>
</g>
<!-- Node50 -->
<g id="node50" class="node"><title>Node50</title>
<polygon fill="white" stroke="#bfbfbf" points="2207.6,-309 2207.6,-329 2266.4,-329 2266.4,-309 2207.6,-309"/>
<text text-anchor="middle" x="2237" y="-315" font-family="Helvetica,sans-Serif" font-size="10.00">functional</text>
</g>
<!-- Node47&#45;&gt;Node50 -->
<g id="edge74" class="edge"><title>Node47&#45;&gt;Node50</title>
<path fill="none" stroke="midnightblue" d="M2170.86,-372.909C2184.8,-361.762 2203.7,-346.64 2217.73,-335.417"/>
<polygon fill="midnightblue" stroke="midnightblue" points="2220.12,-337.984 2225.75,-329.004 2215.75,-332.517 2220.12,-337.984"/>
</g>
</g>
</svg>
