<?xml version="1.0" encoding="UTF-8" standalone="no"?>
<!DOCTYPE svg PUBLIC "-//W3C//DTD SVG 1.1//EN"
 "http://www.w3.org/Graphics/SVG/1.1/DTD/svg11.dtd">
<!-- Generated by graphviz version 2.30.0 (20130114.0426)
 -->
<!-- Title: /Users/rkwright/Documents/github/readium&#45;sdk&#45;D/ePub3/ePub/epub_collection.h Pages: 1 -->
<svg width="1104pt" height="542pt"
 viewBox="0.00 0.00 1104.00 542.00" xmlns="http://www.w3.org/2000/svg" xmlns:xlink="http://www.w3.org/1999/xlink">
<g id="graph0" class="graph" transform="scale(1 1) rotate(0) translate(4 538)">
<title>/Users/rkwright/Documents/github/readium&#45;sdk&#45;D/ePub3/ePub/epub_collection.h</title>
<polygon fill="white" stroke="white" points="-4,5 -4,-538 1101,-538 1101,5 -4,5"/>
<!-- Node1 -->
<g id="node1" class="node"><title>Node1</title>
<polygon fill="#bfbfbf" stroke="black" points="259.966,-489 259.966,-533 406.034,-533 406.034,-489 259.966,-489"/>
<text text-anchor="start" x="267.966" y="-519" font-family="Helvetica,sans-Serif" font-size="10.00">/Users/rkwright/Documents</text>
<text text-anchor="start" x="267.966" y="-507" font-family="Helvetica,sans-Serif" font-size="10.00">/github/readium&#45;sdk&#45;D/ePub3</text>
<text text-anchor="middle" x="333" y="-495" font-family="Helvetica,sans-Serif" font-size="10.00">/ePub/epub_collection.h</text>
</g>
<!-- Node2 -->
<g id="node2" class="node"><title>Node2</title>
<polygon fill="white" stroke="#bfbfbf" points="132.079,-425 132.079,-445 215.921,-445 215.921,-425 132.079,-425"/>
<text text-anchor="middle" x="174" y="-431" font-family="Helvetica,sans-Serif" font-size="10.00">ePub3/epub3.h</text>
</g>
<!-- Node1&#45;&gt;Node2 -->
<g id="edge1" class="edge"><title>Node1&#45;&gt;Node2</title>
<path fill="none" stroke="midnightblue" d="M287.862,-488.993C260.426,-476.224 226.23,-460.308 202.51,-449.269"/>
<polygon fill="midnightblue" stroke="midnightblue" points="203.891,-446.051 193.347,-445.004 200.937,-452.397 203.891,-446.051"/>
</g>
<!-- Node3 -->
<g id="node3" class="node"><title>Node3</title>
<polygon fill="white" stroke="#bfbfbf" points="233.48,-425 233.48,-445 304.52,-445 304.52,-425 233.48,-425"/>
<text text-anchor="middle" x="269" y="-431" font-family="Helvetica,sans-Serif" font-size="10.00">ePub3/link.h</text>
</g>
<!-- Node1&#45;&gt;Node3 -->
<g id="edge2" class="edge"><title>Node1&#45;&gt;Node3</title>
<path fill="none" stroke="midnightblue" d="M314.831,-488.993C304.917,-477.529 292.809,-463.529 283.528,-452.798"/>
<polygon fill="midnightblue" stroke="midnightblue" points="285.976,-450.279 276.788,-445.004 280.682,-454.858 285.976,-450.279"/>
</g>
<!-- Node4 -->
<g id="node4" class="node"><title>Node4</title>
<g id="a_node4"><a xlink:href="xml__identifiable_8h.xhtml" target="_top" xlink:title="ePub3/utilities/xml\l_identifiable.h">
<polygon fill="white" stroke="black" points="360.705,-419 360.705,-451 457.295,-451 457.295,-419 360.705,-419"/>
<text text-anchor="start" x="368.705" y="-437" font-family="Helvetica,sans-Serif" font-size="10.00">ePub3/utilities/xml</text>
<text text-anchor="middle" x="409" y="-425" font-family="Helvetica,sans-Serif" font-size="10.00">_identifiable.h</text>
</a>
</g>
</g>
<!-- Node1&#45;&gt;Node4 -->
<g id="edge3" class="edge"><title>Node1&#45;&gt;Node4</title>
<path fill="none" stroke="midnightblue" d="M354.575,-488.993C364.367,-479.458 375.96,-468.17 385.926,-458.467"/>
<polygon fill="midnightblue" stroke="midnightblue" points="388.449,-460.895 393.172,-451.412 383.566,-455.88 388.449,-460.895"/>
</g>
<!-- Node31 -->
<g id="node31" class="node"><title>Node31</title>
<polygon fill="white" stroke="#bfbfbf" points="475.234,-425 475.234,-445 600.766,-445 600.766,-425 475.234,-425"/>
<text text-anchor="middle" x="538" y="-431" font-family="Helvetica,sans-Serif" font-size="10.00">ePub3/property_holder.h</text>
</g>
<!-- Node1&#45;&gt;Node31 -->
<g id="edge36" class="edge"><title>Node1&#45;&gt;Node31</title>
<path fill="none" stroke="midnightblue" d="M391.196,-488.993C427.356,-475.94 472.624,-459.599 503.26,-448.54"/>
<polygon fill="midnightblue" stroke="midnightblue" points="504.838,-451.692 513.055,-445.004 502.461,-445.108 504.838,-451.692"/>
</g>
<!-- Node18 -->
<g id="node18" class="node"><title>Node18</title>
<g id="a_node18"><a xlink:href="string__view_8h.xhtml" target="_top" xlink:title="ePub3/utilities/string\l_view.h">
<polygon fill="white" stroke="black" points="163.254,-291 163.254,-323 268.746,-323 268.746,-291 163.254,-291"/>
<text text-anchor="start" x="171.254" y="-309" font-family="Helvetica,sans-Serif" font-size="10.00">ePub3/utilities/string</text>
<text text-anchor="middle" x="216" y="-297" font-family="Helvetica,sans-Serif" font-size="10.00">_view.h</text>
</a>
</g>
</g>
<!-- Node1&#45;&gt;Node18 -->
<g id="edge37" class="edge"><title>Node1&#45;&gt;Node18</title>
<path fill="none" stroke="midnightblue" d="M331.458,-488.895C329.356,-469.565 324.437,-440.607 313,-418 295.315,-383.044 263.85,-350.372 241.557,-329.865"/>
<polygon fill="midnightblue" stroke="midnightblue" points="243.862,-327.232 234.091,-323.136 239.175,-332.431 243.862,-327.232"/>
</g>
<!-- Node5 -->
<g id="node5" class="node"><title>Node5</title>
<g id="a_node5"><a xlink:href="utfstring_8h.xhtml" target="_top" xlink:title="ePub3/utilities/utfstring.h">
<polygon fill="white" stroke="black" points="476.525,-361 476.525,-381 601.475,-381 601.475,-361 476.525,-361"/>
<text text-anchor="middle" x="539" y="-367" font-family="Helvetica,sans-Serif" font-size="10.00">ePub3/utilities/utfstring.h</text>
</a>
</g>
</g>
<!-- Node4&#45;&gt;Node5 -->
<g id="edge4" class="edge"><title>Node4&#45;&gt;Node5</title>
<path fill="none" stroke="midnightblue" d="M440.469,-418.992C461.877,-408.782 489.966,-395.385 510.674,-385.509"/>
<polygon fill="midnightblue" stroke="midnightblue" points="512.382,-388.573 519.901,-381.109 509.368,-382.254 512.382,-388.573"/>
</g>
<!-- Node6 -->
<g id="node6" class="node"><title>Node6</title>
<g id="a_node6"><a xlink:href="basic_8h.xhtml" target="_top" xlink:title="ePub3/utilities/basic.h">
<polygon fill="white" stroke="black" points="816.638,-297 816.638,-317 929.362,-317 929.362,-297 816.638,-297"/>
<text text-anchor="middle" x="873" y="-303" font-family="Helvetica,sans-Serif" font-size="10.00">ePub3/utilities/basic.h</text>
</a>
</g>
</g>
<!-- Node5&#45;&gt;Node6 -->
<g id="edge5" class="edge"><title>Node5&#45;&gt;Node6</title>
<path fill="none" stroke="midnightblue" d="M598.562,-360.964C653.016,-352.422 735.69,-338.746 807,-324 813.671,-322.62 820.694,-321.049 827.568,-319.441"/>
<polygon fill="midnightblue" stroke="midnightblue" points="828.561,-322.803 837.477,-317.08 826.938,-315.994 828.561,-322.803"/>
</g>
<!-- Node17 -->
<g id="node17" class="node"><title>Node17</title>
<g id="a_node17"><a xlink:href="integer__sequence_8h.xhtml" target="_top" xlink:title="ePub3/utilities/integer\l_sequence.h">
<polygon fill="white" stroke="black" points="985.192,-291 985.192,-323 1096.81,-323 1096.81,-291 985.192,-291"/>
<text text-anchor="start" x="993.192" y="-309" font-family="Helvetica,sans-Serif" font-size="10.00">ePub3/utilities/integer</text>
<text text-anchor="middle" x="1041" y="-297" font-family="Helvetica,sans-Serif" font-size="10.00">_sequence.h</text>
</a>
</g>
</g>
<!-- Node5&#45;&gt;Node17 -->
<g id="edge16" class="edge"><title>Node5&#45;&gt;Node17</title>
<path fill="none" stroke="midnightblue" d="M601.554,-365.68C685.859,-359.325 840.437,-345.794 971,-324 972.28,-323.786 973.571,-323.564 974.871,-323.333"/>
<polygon fill="midnightblue" stroke="midnightblue" points="975.777,-326.724 984.953,-321.427 974.476,-319.846 975.777,-326.724"/>
</g>
<!-- Node5&#45;&gt;Node18 -->
<g id="edge18" class="edge"><title>Node5&#45;&gt;Node18</title>
<path fill="none" stroke="midnightblue" d="M483.644,-360.984C431.676,-352.299 351.842,-338.393 283,-324 281.716,-323.732 280.419,-323.457 279.113,-323.177"/>
<polygon fill="midnightblue" stroke="midnightblue" points="279.487,-319.675 268.968,-320.942 277.981,-326.511 279.487,-319.675"/>
</g>
<!-- Node20 -->
<g id="node20" class="node"><title>Node20</title>
<polygon fill="white" stroke="#bfbfbf" points="313.773,-233 313.773,-253 354.227,-253 354.227,-233 313.773,-233"/>
<text text-anchor="middle" x="334" y="-239" font-family="Helvetica,sans-Serif" font-size="10.00">string</text>
</g>
<!-- Node5&#45;&gt;Node20 -->
<g id="edge27" class="edge"><title>Node5&#45;&gt;Node20</title>
<path fill="none" stroke="midnightblue" d="M476.352,-362.993C426.238,-356.032 361.547,-343.539 344,-324 329.277,-307.606 328.88,-281.122 330.757,-263.157"/>
<polygon fill="midnightblue" stroke="midnightblue" points="334.258,-263.39 332.152,-253.006 327.323,-262.437 334.258,-263.39"/>
</g>
<!-- Node25 -->
<g id="node25" class="node"><title>Node25</title>
<polygon fill="white" stroke="#bfbfbf" points="363.438,-297 363.438,-317 410.562,-317 410.562,-297 363.438,-297"/>
<text text-anchor="middle" x="387" y="-303" font-family="Helvetica,sans-Serif" font-size="10.00">iterator</text>
</g>
<!-- Node5&#45;&gt;Node25 -->
<g id="edge28" class="edge"><title>Node5&#45;&gt;Node25</title>
<path fill="none" stroke="midnightblue" d="M513.683,-360.904C489.423,-352.026 451.89,-337.867 420,-324 418.161,-323.2 416.274,-322.355 414.381,-321.488"/>
<polygon fill="midnightblue" stroke="midnightblue" points="415.568,-318.178 405.03,-317.074 412.58,-324.508 415.568,-318.178"/>
</g>
<!-- Node26 -->
<g id="node26" class="node"><title>Node26</title>
<polygon fill="white" stroke="#bfbfbf" points="428.936,-297 428.936,-317 471.064,-317 471.064,-297 428.936,-297"/>
<text text-anchor="middle" x="450" y="-303" font-family="Helvetica,sans-Serif" font-size="10.00">locale</text>
</g>
<!-- Node5&#45;&gt;Node26 -->
<g id="edge29" class="edge"><title>Node5&#45;&gt;Node26</title>
<path fill="none" stroke="midnightblue" d="M525.868,-360.852C511.539,-350.87 488.381,-334.737 471.414,-322.918"/>
<polygon fill="midnightblue" stroke="midnightblue" points="473.392,-320.03 463.186,-317.186 469.391,-325.774 473.392,-320.03"/>
</g>
<!-- Node15 -->
<g id="node15" class="node"><title>Node15</title>
<polygon fill="white" stroke="#bfbfbf" points="945.384,-233 945.384,-253 988.616,-253 988.616,-233 945.384,-233"/>
<text text-anchor="middle" x="967" y="-239" font-family="Helvetica,sans-Serif" font-size="10.00">vector</text>
</g>
<!-- Node5&#45;&gt;Node15 -->
<g id="edge30" class="edge"><title>Node5&#45;&gt;Node15</title>
<path fill="none" stroke="midnightblue" d="M601.57,-370.581C700.557,-370.243 887.263,-364.106 938,-324 956.514,-309.365 963.215,-281.843 965.636,-263.216"/>
<polygon fill="midnightblue" stroke="midnightblue" points="969.125,-263.502 966.641,-253.202 962.16,-262.802 969.125,-263.502"/>
</g>
<!-- Node27 -->
<g id="node27" class="node"><title>Node27</title>
<polygon fill="white" stroke="#bfbfbf" points="488.766,-297 488.766,-317 589.234,-317 589.234,-297 488.766,-297"/>
<text text-anchor="middle" x="539" y="-303" font-family="Helvetica,sans-Serif" font-size="10.00">REGEX_INCLUDE</text>
</g>
<!-- Node5&#45;&gt;Node27 -->
<g id="edge31" class="edge"><title>Node5&#45;&gt;Node27</title>
<path fill="none" stroke="midnightblue" d="M539,-360.852C539,-352.06 539,-338.498 539,-327.313"/>
<polygon fill="midnightblue" stroke="midnightblue" points="542.5,-327.186 539,-317.186 535.5,-327.186 542.5,-327.186"/>
</g>
<!-- Node28 -->
<g id="node28" class="node"><title>Node28</title>
<polygon fill="white" stroke="#bfbfbf" points="607.273,-297 607.273,-317 642.727,-317 642.727,-297 607.273,-297"/>
<text text-anchor="middle" x="625" y="-303" font-family="Helvetica,sans-Serif" font-size="10.00">map</text>
</g>
<!-- Node5&#45;&gt;Node28 -->
<g id="edge32" class="edge"><title>Node5&#45;&gt;Node28</title>
<path fill="none" stroke="midnightblue" d="M551.69,-360.852C565.409,-350.961 587.503,-335.033 603.855,-323.244"/>
<polygon fill="midnightblue" stroke="midnightblue" points="606.193,-325.873 612.258,-317.186 602.1,-320.195 606.193,-325.873"/>
</g>
<!-- Node29 -->
<g id="node29" class="node"><title>Node29</title>
<polygon fill="white" stroke="#bfbfbf" points="660.599,-297 660.599,-317 719.401,-317 719.401,-297 660.599,-297"/>
<text text-anchor="middle" x="690" y="-303" font-family="Helvetica,sans-Serif" font-size="10.00">stdexcept</text>
</g>
<!-- Node5&#45;&gt;Node29 -->
<g id="edge33" class="edge"><title>Node5&#45;&gt;Node29</title>
<path fill="none" stroke="midnightblue" d="M560.957,-360.985C586.678,-350.424 629.48,-332.849 658.68,-320.86"/>
<polygon fill="midnightblue" stroke="midnightblue" points="660.096,-324.062 668.017,-317.026 657.437,-317.587 660.096,-324.062"/>
</g>
<!-- Node21 -->
<g id="node21" class="node"><title>Node21</title>
<polygon fill="white" stroke="#bfbfbf" points="372.613,-233 372.613,-253 411.387,-253 411.387,-233 372.613,-233"/>
<text text-anchor="middle" x="392" y="-239" font-family="Helvetica,sans-Serif" font-size="10.00">limits</text>
</g>
<!-- Node5&#45;&gt;Node21 -->
<g id="edge34" class="edge"><title>Node5&#45;&gt;Node21</title>
<path fill="none" stroke="midnightblue" d="M476.057,-362.649C428.56,-355.654 369.084,-343.294 354,-324 338.56,-304.251 358.197,-277.211 374.496,-260.175"/>
<polygon fill="midnightblue" stroke="midnightblue" points="376.979,-262.643 381.612,-253.114 372.049,-257.674 376.979,-262.643"/>
</g>
<!-- Node30 -->
<g id="node30" class="node"><title>Node30</title>
<polygon fill="white" stroke="#bfbfbf" points="737.761,-297 737.761,-317 798.239,-317 798.239,-297 737.761,-297"/>
<text text-anchor="middle" x="768" y="-303" font-family="Helvetica,sans-Serif" font-size="10.00">utf8/utf8.h</text>
</g>
<!-- Node5&#45;&gt;Node30 -->
<g id="edge35" class="edge"><title>Node5&#45;&gt;Node30</title>
<path fill="none" stroke="midnightblue" d="M583.792,-360.974C622.403,-352.75 679.432,-339.538 728,-324 731.134,-322.997 734.373,-321.867 737.587,-320.681"/>
<polygon fill="midnightblue" stroke="midnightblue" points="738.961,-323.903 747.03,-317.037 736.44,-317.373 738.961,-323.903"/>
</g>
<!-- Node7 -->
<g id="node7" class="node"><title>Node7</title>
<g id="a_node7"><a xlink:href="base_8h.xhtml" target="_top" xlink:title="ePub3/base.h">
<polygon fill="white" stroke="black" points="878.141,-175 878.141,-195 955.859,-195 955.859,-175 878.141,-175"/>
<text text-anchor="middle" x="917" y="-181" font-family="Helvetica,sans-Serif" font-size="10.00">ePub3/base.h</text>
</a>
</g>
</g>
<!-- Node6&#45;&gt;Node7 -->
<g id="edge6" class="edge"><title>Node6&#45;&gt;Node7</title>
<path fill="none" stroke="midnightblue" d="M877.662,-296.967C882.829,-286.729 891.198,-269.452 897,-254 903.076,-237.82 908.505,-218.925 912.168,-205.165"/>
<polygon fill="midnightblue" stroke="midnightblue" points="915.583,-205.939 914.706,-195.38 908.807,-204.182 915.583,-205.939"/>
</g>
<!-- Node12 -->
<g id="node12" class="node"><title>Node12</title>
<polygon fill="white" stroke="#bfbfbf" points="704.815,-233 704.815,-253 819.185,-253 819.185,-233 704.815,-233"/>
<text text-anchor="middle" x="762" y="-239" font-family="Helvetica,sans-Serif" font-size="10.00">ePub3/xml/xmlstring.h</text>
</g>
<!-- Node6&#45;&gt;Node12 -->
<g id="edge11" class="edge"><title>Node6&#45;&gt;Node12</title>
<path fill="none" stroke="midnightblue" d="M856.622,-296.852C838.34,-286.641 808.537,-269.994 787.264,-258.112"/>
<polygon fill="midnightblue" stroke="midnightblue" points="788.883,-255.007 778.446,-253.186 785.469,-261.118 788.883,-255.007"/>
</g>
<!-- Node13 -->
<g id="node13" class="node"><title>Node13</title>
<polygon fill="white" stroke="#bfbfbf" points="837.219,-233 837.219,-253 888.781,-253 888.781,-233 837.219,-233"/>
<text text-anchor="middle" x="863" y="-239" font-family="Helvetica,sans-Serif" font-size="10.00">sstream</text>
</g>
<!-- Node6&#45;&gt;Node13 -->
<g id="edge12" class="edge"><title>Node6&#45;&gt;Node13</title>
<path fill="none" stroke="midnightblue" d="M871.524,-296.852C870.106,-288.06 867.919,-274.498 866.115,-263.313"/>
<polygon fill="midnightblue" stroke="midnightblue" points="869.529,-262.501 864.482,-253.186 862.619,-263.616 869.529,-262.501"/>
</g>
<!-- Node14 -->
<g id="node14" class="node"><title>Node14</title>
<polygon fill="white" stroke="#bfbfbf" points="371.943,-175 371.943,-195 424.057,-195 424.057,-175 371.943,-175"/>
<text text-anchor="middle" x="398" y="-181" font-family="Helvetica,sans-Serif" font-size="10.00">memory</text>
</g>
<!-- Node6&#45;&gt;Node14 -->
<g id="edge13" class="edge"><title>Node6&#45;&gt;Node14</title>
<path fill="none" stroke="midnightblue" d="M836.02,-296.94C826.565,-294.65 816.411,-292.213 807,-290 736.89,-273.515 718.883,-271.42 649,-254 572.112,-234.834 482.67,-209.985 434.029,-196.254"/>
<polygon fill="midnightblue" stroke="midnightblue" points="434.864,-192.853 424.288,-193.499 432.958,-199.589 434.864,-192.853"/>
</g>
<!-- Node6&#45;&gt;Node15 -->
<g id="edge14" class="edge"><title>Node6&#45;&gt;Node15</title>
<path fill="none" stroke="midnightblue" d="M886.87,-296.852C902.004,-286.87 926.463,-270.737 944.383,-258.918"/>
<polygon fill="midnightblue" stroke="midnightblue" points="946.652,-261.614 953.073,-253.186 942.798,-255.77 946.652,-261.614"/>
</g>
<!-- Node16 -->
<g id="node16" class="node"><title>Node16</title>
<polygon fill="white" stroke="#bfbfbf" points="657.5,-233 657.5,-253 686.5,-253 686.5,-233 657.5,-233"/>
<text text-anchor="middle" x="671.611" y="-239" font-family="Helvetica,sans-Serif" font-size="10.00">list</text>
</g>
<!-- Node6&#45;&gt;Node16 -->
<g id="edge15" class="edge"><title>Node6&#45;&gt;Node16</title>
<path fill="none" stroke="midnightblue" d="M838.048,-296.942C802.084,-287.34 744.608,-271.209 696,-254 695.904,-253.966 695.808,-253.932 695.712,-253.898"/>
<polygon fill="midnightblue" stroke="midnightblue" points="697.214,-250.726 686.624,-250.391 694.694,-257.256 697.214,-250.726"/>
</g>
<!-- Node8 -->
<g id="node8" class="node"><title>Node8</title>
<g id="a_node8"><a xlink:href="__config_8h.xhtml" target="_top" xlink:title="_config.h">
<polygon fill="white" stroke="black" points="853.707,-117 853.707,-137 910.293,-137 910.293,-117 853.707,-117"/>
<text text-anchor="middle" x="882" y="-123" font-family="Helvetica,sans-Serif" font-size="10.00">_config.h</text>
</a>
</g>
</g>
<!-- Node7&#45;&gt;Node8 -->
<g id="edge7" class="edge"><title>Node7&#45;&gt;Node8</title>
<path fill="none" stroke="midnightblue" d="M911.22,-174.753C906.277,-166.843 899.023,-155.237 892.98,-145.568"/>
<polygon fill="midnightblue" stroke="midnightblue" points="895.94,-143.7 887.672,-137.075 890.004,-147.41 895.94,-143.7"/>
</g>
<!-- Node11 -->
<g id="node11" class="node"><title>Node11</title>
<polygon fill="white" stroke="#bfbfbf" points="928.158,-117 928.158,-137 975.842,-137 975.842,-117 928.158,-117"/>
<text text-anchor="middle" x="952" y="-123" font-family="Helvetica,sans-Serif" font-size="10.00">stdlib.h</text>
</g>
<!-- Node7&#45;&gt;Node11 -->
<g id="edge10" class="edge"><title>Node7&#45;&gt;Node11</title>
<path fill="none" stroke="midnightblue" d="M922.78,-174.753C927.723,-166.843 934.977,-155.237 941.02,-145.568"/>
<polygon fill="midnightblue" stroke="midnightblue" points="943.996,-147.41 946.328,-137.075 938.06,-143.7 943.996,-147.41"/>
</g>
<!-- Node9 -->
<g id="node9" class="node"><title>Node9</title>
<g id="a_node9"><a xlink:href="__platform_8h.xhtml" target="_top" xlink:title="_platform.h">
<polygon fill="white" stroke="black" points="848.988,-59 848.988,-79 915.012,-79 915.012,-59 848.988,-59"/>
<text text-anchor="middle" x="882" y="-65" font-family="Helvetica,sans-Serif" font-size="10.00">_platform.h</text>
</a>
</g>
</g>
<!-- Node8&#45;&gt;Node9 -->
<g id="edge8" class="edge"><title>Node8&#45;&gt;Node9</title>
<path fill="none" stroke="midnightblue" d="M882,-116.753C882,-109.25 882,-98.4238 882,-89.0781"/>
<polygon fill="midnightblue" stroke="midnightblue" points="885.5,-89.0752 882,-79.0752 878.5,-89.0752 885.5,-89.0752"/>
</g>
<!-- Node10 -->
<g id="node10" class="node"><title>Node10</title>
<g id="a_node10"><a xlink:href="__compiler_8h.xhtml" target="_top" xlink:title="_compiler.h">
<polygon fill="white" stroke="black" points="848.429,-1 848.429,-21 915.571,-21 915.571,-1 848.429,-1"/>
<text text-anchor="middle" x="882" y="-7" font-family="Helvetica,sans-Serif" font-size="10.00">_compiler.h</text>
</a>
</g>
</g>
<!-- Node9&#45;&gt;Node10 -->
<g id="edge9" class="edge"><title>Node9&#45;&gt;Node10</title>
<path fill="none" stroke="midnightblue" d="M882,-58.7527C882,-51.2504 882,-40.4238 882,-31.0781"/>
<polygon fill="midnightblue" stroke="midnightblue" points="885.5,-31.0752 882,-21.0752 878.5,-31.0752 885.5,-31.0752"/>
</g>
<!-- Node17&#45;&gt;Node7 -->
<g id="edge17" class="edge"><title>Node17&#45;&gt;Node7</title>
<path fill="none" stroke="midnightblue" d="M1034.8,-290.864C1027.61,-274.736 1014.46,-249.206 997,-232 983.203,-218.403 964.594,-207.389 948.796,-199.551"/>
<polygon fill="midnightblue" stroke="midnightblue" points="949.925,-196.213 939.39,-195.086 946.923,-202.536 949.925,-196.213"/>
</g>
<!-- Node19 -->
<g id="node19" class="node"><title>Node19</title>
<polygon fill="white" stroke="#bfbfbf" points="147.934,-233 147.934,-253 210.066,-253 210.066,-233 147.934,-233"/>
<text text-anchor="middle" x="179" y="-239" font-family="Helvetica,sans-Serif" font-size="10.00">type_traits</text>
</g>
<!-- Node18&#45;&gt;Node19 -->
<g id="edge19" class="edge"><title>Node18&#45;&gt;Node19</title>
<path fill="none" stroke="midnightblue" d="M207.043,-290.992C201.837,-282.267 195.242,-271.216 189.755,-262.023"/>
<polygon fill="midnightblue" stroke="midnightblue" points="192.674,-260.084 184.544,-253.29 186.663,-263.671 192.674,-260.084"/>
</g>
<!-- Node18&#45;&gt;Node20 -->
<g id="edge20" class="edge"><title>Node18&#45;&gt;Node20</title>
<path fill="none" stroke="midnightblue" d="M244.565,-290.992C263.82,-280.874 289.031,-267.628 307.777,-257.778"/>
<polygon fill="midnightblue" stroke="midnightblue" points="309.439,-260.858 316.664,-253.109 306.184,-254.662 309.439,-260.858"/>
</g>
<!-- Node18&#45;&gt;Node21 -->
<g id="edge21" class="edge"><title>Node18&#45;&gt;Node21</title>
<path fill="none" stroke="midnightblue" d="M258.605,-290.992C290.861,-279.629 334.322,-264.318 362.741,-254.307"/>
<polygon fill="midnightblue" stroke="midnightblue" points="364.213,-257.5 372.482,-250.876 361.887,-250.897 364.213,-257.5"/>
</g>
<!-- Node22 -->
<g id="node22" class="node"><title>Node22</title>
<polygon fill="white" stroke="#bfbfbf" points="-0.172363,-233 -0.172363,-253 54.1724,-253 54.1724,-233 -0.172363,-233"/>
<text text-anchor="middle" x="27" y="-239" font-family="Helvetica,sans-Serif" font-size="10.00">iostream</text>
</g>
<!-- Node18&#45;&gt;Node22 -->
<g id="edge22" class="edge"><title>Node18&#45;&gt;Node22</title>
<path fill="none" stroke="midnightblue" d="M170.248,-290.992C137.662,-280.302 94.4252,-266.118 64.0076,-256.14"/>
<polygon fill="midnightblue" stroke="midnightblue" points="64.8102,-252.72 54.2174,-252.928 62.6283,-259.371 64.8102,-252.72"/>
</g>
<!-- Node23 -->
<g id="node23" class="node"><title>Node23</title>
<polygon fill="white" stroke="#bfbfbf" points="72.436,-233 72.436,-253 129.564,-253 129.564,-233 72.436,-233"/>
<text text-anchor="middle" x="101" y="-239" font-family="Helvetica,sans-Serif" font-size="10.00">algorithm</text>
</g>
<!-- Node18&#45;&gt;Node23 -->
<g id="edge23" class="edge"><title>Node18&#45;&gt;Node23</title>
<path fill="none" stroke="midnightblue" d="M188.162,-290.992C169.482,-280.92 145.05,-267.749 126.807,-257.914"/>
<polygon fill="midnightblue" stroke="midnightblue" points="128.359,-254.774 117.895,-253.109 125.037,-260.935 128.359,-254.774"/>
</g>
<!-- Node24 -->
<g id="node24" class="node"><title>Node24</title>
<g id="a_node24"><a xlink:href="____strhash_8h.xhtml" target="_top" xlink:title="__strhash.h">
<polygon fill="white" stroke="black" points="227.872,-233 227.872,-253 296.128,-253 296.128,-233 227.872,-233"/>
<text text-anchor="middle" x="262" y="-239" font-family="Helvetica,sans-Serif" font-size="10.00">__strhash.h</text>
</a>
</g>
</g>
<!-- Node18&#45;&gt;Node24 -->
<g id="edge24" class="edge"><title>Node18&#45;&gt;Node24</title>
<path fill="none" stroke="midnightblue" d="M227.135,-290.992C233.744,-282.084 242.154,-270.75 249.057,-261.445"/>
<polygon fill="midnightblue" stroke="midnightblue" points="251.959,-263.407 255.107,-253.29 246.338,-259.236 251.959,-263.407"/>
</g>
<!-- Node24&#45;&gt;Node7 -->
<g id="edge25" class="edge"><title>Node24&#45;&gt;Node7</title>
<path fill="none" stroke="midnightblue" d="M296.176,-233.553C299.149,-232.97 302.121,-232.44 305,-232 512.729,-200.231 763.63,-190.11 867.886,-187.137"/>
<polygon fill="midnightblue" stroke="midnightblue" points="868.201,-190.63 878.101,-186.855 868.008,-183.632 868.201,-190.63"/>
</g>
<!-- Node24&#45;&gt;Node14 -->
<g id="edge26" class="edge"><title>Node24&#45;&gt;Node14</title>
<path fill="none" stroke="midnightblue" d="M284.153,-232.878C306.48,-223.685 341.148,-209.409 366.365,-199.026"/>
<polygon fill="midnightblue" stroke="midnightblue" points="367.942,-202.162 375.856,-195.118 365.277,-195.689 367.942,-202.162"/>
</g>
</g>
</svg>
