<?xml version="1.0" encoding="UTF-8" standalone="no"?>
<!DOCTYPE svg PUBLIC "-//W3C//DTD SVG 1.1//EN"
 "http://www.w3.org/Graphics/SVG/1.1/DTD/svg11.dtd">
<!-- Generated by graphviz version 2.30.0 (20130114.0426)
 -->
<!-- Title: /Users/rkwright/Documents/github/readium&#45;sdk&#45;D/ePub3/utilities/epub_locale.h Pages: 1 -->
<svg width="1055pt" height="472pt"
 viewBox="0.00 0.00 1055.00 472.00" xmlns="http://www.w3.org/2000/svg" xmlns:xlink="http://www.w3.org/1999/xlink">
<g id="graph0" class="graph" transform="scale(1 1) rotate(0) translate(4 468)">
<title>/Users/rkwright/Documents/github/readium&#45;sdk&#45;D/ePub3/utilities/epub_locale.h</title>
<polygon fill="white" stroke="white" points="-4,5 -4,-468 1052,-468 1052,5 -4,5"/>
<!-- Node1 -->
<g id="node1" class="node"><title>Node1</title>
<polygon fill="#bfbfbf" stroke="black" points="544.966,-419 544.966,-463 691.034,-463 691.034,-419 544.966,-419"/>
<text text-anchor="start" x="552.966" y="-449" font-family="Helvetica,sans-Serif" font-size="10.00">/Users/rkwright/Documents</text>
<text text-anchor="start" x="552.966" y="-437" font-family="Helvetica,sans-Serif" font-size="10.00">/github/readium&#45;sdk&#45;D/ePub3</text>
<text text-anchor="middle" x="618" y="-425" font-family="Helvetica,sans-Serif" font-size="10.00">/utilities/epub_locale.h</text>
</g>
<!-- Node2 -->
<g id="node2" class="node"><title>Node2</title>
<g id="a_node2"><a xlink:href="basic_8h.xhtml" target="_top" xlink:title="ePub3/utilities/basic.h">
<polygon fill="white" stroke="black" points="113.638,-297 113.638,-317 226.362,-317 226.362,-297 113.638,-297"/>
<text text-anchor="middle" x="170" y="-303" font-family="Helvetica,sans-Serif" font-size="10.00">ePub3/utilities/basic.h</text>
</a>
</g>
</g>
<!-- Node1&#45;&gt;Node2 -->
<g id="edge1" class="edge"><title>Node1&#45;&gt;Node2</title>
<path fill="none" stroke="midnightblue" d="M546.518,-418.938C451.358,-390.9 286.263,-342.256 210.329,-319.883"/>
<polygon fill="midnightblue" stroke="midnightblue" points="211.236,-316.501 200.655,-317.032 209.258,-323.216 211.236,-316.501"/>
</g>
<!-- Node13 -->
<g id="node13" class="node"><title>Node13</title>
<g id="a_node13"><a xlink:href="utfstring_8h.xhtml" target="_top" xlink:title="ePub3/utilities/utfstring.h">
<polygon fill="white" stroke="black" points="555.525,-361 555.525,-381 680.475,-381 680.475,-361 555.525,-361"/>
<text text-anchor="middle" x="618" y="-367" font-family="Helvetica,sans-Serif" font-size="10.00">ePub3/utilities/utfstring.h</text>
</a>
</g>
</g>
<!-- Node1&#45;&gt;Node13 -->
<g id="edge12" class="edge"><title>Node1&#45;&gt;Node13</title>
<path fill="none" stroke="midnightblue" d="M618,-418.857C618,-410.074 618,-399.948 618,-391.362"/>
<polygon fill="midnightblue" stroke="midnightblue" points="621.5,-391.204 618,-381.204 614.5,-391.204 621.5,-391.204"/>
</g>
<!-- Node23 -->
<g id="node23" class="node"><title>Node23</title>
<polygon fill="white" stroke="#bfbfbf" points="1004.94,-297 1004.94,-317 1047.06,-317 1047.06,-297 1004.94,-297"/>
<text text-anchor="middle" x="1026" y="-303" font-family="Helvetica,sans-Serif" font-size="10.00">locale</text>
</g>
<!-- Node1&#45;&gt;Node23 -->
<g id="edge34" class="edge"><title>Node1&#45;&gt;Node23</title>
<path fill="none" stroke="midnightblue" d="M691.26,-421.615C768.218,-401.345 892.129,-365.983 995,-324 996.85,-323.245 998.739,-322.418 1000.63,-321.552"/>
<polygon fill="midnightblue" stroke="midnightblue" points="1002.41,-324.574 1009.85,-317.026 999.327,-318.29 1002.41,-324.574"/>
</g>
<!-- Node3 -->
<g id="node3" class="node"><title>Node3</title>
<g id="a_node3"><a xlink:href="base_8h.xhtml" target="_top" xlink:title="ePub3/base.h">
<polygon fill="white" stroke="black" points="359.141,-175 359.141,-195 436.859,-195 436.859,-175 359.141,-175"/>
<text text-anchor="middle" x="398" y="-181" font-family="Helvetica,sans-Serif" font-size="10.00">ePub3/base.h</text>
</a>
</g>
</g>
<!-- Node2&#45;&gt;Node3 -->
<g id="edge2" class="edge"><title>Node2&#45;&gt;Node3</title>
<path fill="none" stroke="midnightblue" d="M175.066,-296.714C184.148,-280.953 204.734,-249.025 231,-232 266.715,-208.85 313.983,-197.237 349.113,-191.481"/>
<polygon fill="midnightblue" stroke="midnightblue" points="349.785,-194.919 359.138,-189.942 348.723,-188 349.785,-194.919"/>
</g>
<!-- Node8 -->
<g id="node8" class="node"><title>Node8</title>
<polygon fill="white" stroke="#bfbfbf" points="-0.18457,-233 -0.18457,-253 114.185,-253 114.185,-233 -0.18457,-233"/>
<text text-anchor="middle" x="57" y="-239" font-family="Helvetica,sans-Serif" font-size="10.00">ePub3/xml/xmlstring.h</text>
</g>
<!-- Node2&#45;&gt;Node8 -->
<g id="edge7" class="edge"><title>Node2&#45;&gt;Node8</title>
<path fill="none" stroke="midnightblue" d="M153.326,-296.852C134.716,-286.641 104.376,-269.994 82.7195,-258.112"/>
<polygon fill="midnightblue" stroke="midnightblue" points="84.1926,-254.928 73.7419,-253.186 80.8254,-261.065 84.1926,-254.928"/>
</g>
<!-- Node9 -->
<g id="node9" class="node"><title>Node9</title>
<polygon fill="white" stroke="#bfbfbf" points="132.219,-233 132.219,-253 183.781,-253 183.781,-233 132.219,-233"/>
<text text-anchor="middle" x="158" y="-239" font-family="Helvetica,sans-Serif" font-size="10.00">sstream</text>
</g>
<!-- Node2&#45;&gt;Node9 -->
<g id="edge8" class="edge"><title>Node2&#45;&gt;Node9</title>
<path fill="none" stroke="midnightblue" d="M168.229,-296.852C166.528,-288.06 163.903,-274.498 161.738,-263.313"/>
<polygon fill="midnightblue" stroke="midnightblue" points="165.114,-262.339 159.778,-253.186 158.242,-263.669 165.114,-262.339"/>
</g>
<!-- Node10 -->
<g id="node10" class="node"><title>Node10</title>
<polygon fill="white" stroke="#bfbfbf" points="472.943,-175 472.943,-195 525.057,-195 525.057,-175 472.943,-175"/>
<text text-anchor="middle" x="499" y="-181" font-family="Helvetica,sans-Serif" font-size="10.00">memory</text>
</g>
<!-- Node2&#45;&gt;Node10 -->
<g id="edge9" class="edge"><title>Node2&#45;&gt;Node10</title>
<path fill="none" stroke="midnightblue" d="M189.7,-296.983C211.495,-286.9 247.562,-269.891 278,-254 295.641,-244.79 298.523,-239.392 317,-232 343.248,-221.499 417.504,-204.105 462.646,-193.983"/>
<polygon fill="midnightblue" stroke="midnightblue" points="463.63,-197.35 472.628,-191.757 462.106,-190.518 463.63,-197.35"/>
</g>
<!-- Node11 -->
<g id="node11" class="node"><title>Node11</title>
<polygon fill="white" stroke="#bfbfbf" points="326.384,-233 326.384,-253 369.616,-253 369.616,-233 326.384,-233"/>
<text text-anchor="middle" x="348" y="-239" font-family="Helvetica,sans-Serif" font-size="10.00">vector</text>
</g>
<!-- Node2&#45;&gt;Node11 -->
<g id="edge10" class="edge"><title>Node2&#45;&gt;Node11</title>
<path fill="none" stroke="midnightblue" d="M195.883,-296.985C227.915,-285.827 282.42,-266.842 316.75,-254.885"/>
<polygon fill="midnightblue" stroke="midnightblue" points="317.993,-258.158 326.286,-251.563 315.691,-251.548 317.993,-258.158"/>
</g>
<!-- Node12 -->
<g id="node12" class="node"><title>Node12</title>
<polygon fill="white" stroke="#bfbfbf" points="240.5,-233 240.5,-253 269.5,-253 269.5,-233 240.5,-233"/>
<text text-anchor="middle" x="254.611" y="-239" font-family="Helvetica,sans-Serif" font-size="10.00">list</text>
</g>
<!-- Node2&#45;&gt;Node12 -->
<g id="edge11" class="edge"><title>Node2&#45;&gt;Node12</title>
<path fill="none" stroke="midnightblue" d="M182.542,-296.852C196.102,-286.961 217.939,-271.033 234.101,-259.244"/>
<polygon fill="midnightblue" stroke="midnightblue" points="236.39,-261.907 242.407,-253.186 232.265,-256.251 236.39,-261.907"/>
</g>
<!-- Node4 -->
<g id="node4" class="node"><title>Node4</title>
<g id="a_node4"><a xlink:href="__config_8h.xhtml" target="_top" xlink:title="_config.h">
<polygon fill="white" stroke="black" points="334.707,-117 334.707,-137 391.293,-137 391.293,-117 334.707,-117"/>
<text text-anchor="middle" x="363" y="-123" font-family="Helvetica,sans-Serif" font-size="10.00">_config.h</text>
</a>
</g>
</g>
<!-- Node3&#45;&gt;Node4 -->
<g id="edge3" class="edge"><title>Node3&#45;&gt;Node4</title>
<path fill="none" stroke="midnightblue" d="M392.22,-174.753C387.277,-166.843 380.023,-155.237 373.98,-145.568"/>
<polygon fill="midnightblue" stroke="midnightblue" points="376.94,-143.7 368.672,-137.075 371.004,-147.41 376.94,-143.7"/>
</g>
<!-- Node7 -->
<g id="node7" class="node"><title>Node7</title>
<polygon fill="white" stroke="#bfbfbf" points="409.158,-117 409.158,-137 456.842,-137 456.842,-117 409.158,-117"/>
<text text-anchor="middle" x="433" y="-123" font-family="Helvetica,sans-Serif" font-size="10.00">stdlib.h</text>
</g>
<!-- Node3&#45;&gt;Node7 -->
<g id="edge6" class="edge"><title>Node3&#45;&gt;Node7</title>
<path fill="none" stroke="midnightblue" d="M403.78,-174.753C408.723,-166.843 415.977,-155.237 422.02,-145.568"/>
<polygon fill="midnightblue" stroke="midnightblue" points="424.996,-147.41 427.328,-137.075 419.06,-143.7 424.996,-147.41"/>
</g>
<!-- Node5 -->
<g id="node5" class="node"><title>Node5</title>
<g id="a_node5"><a xlink:href="__platform_8h.xhtml" target="_top" xlink:title="_platform.h">
<polygon fill="white" stroke="black" points="329.988,-59 329.988,-79 396.012,-79 396.012,-59 329.988,-59"/>
<text text-anchor="middle" x="363" y="-65" font-family="Helvetica,sans-Serif" font-size="10.00">_platform.h</text>
</a>
</g>
</g>
<!-- Node4&#45;&gt;Node5 -->
<g id="edge4" class="edge"><title>Node4&#45;&gt;Node5</title>
<path fill="none" stroke="midnightblue" d="M363,-116.753C363,-109.25 363,-98.4238 363,-89.0781"/>
<polygon fill="midnightblue" stroke="midnightblue" points="366.5,-89.0752 363,-79.0752 359.5,-89.0752 366.5,-89.0752"/>
</g>
<!-- Node6 -->
<g id="node6" class="node"><title>Node6</title>
<g id="a_node6"><a xlink:href="__compiler_8h.xhtml" target="_top" xlink:title="_compiler.h">
<polygon fill="white" stroke="black" points="329.429,-1 329.429,-21 396.571,-21 396.571,-1 329.429,-1"/>
<text text-anchor="middle" x="363" y="-7" font-family="Helvetica,sans-Serif" font-size="10.00">_compiler.h</text>
</a>
</g>
</g>
<!-- Node5&#45;&gt;Node6 -->
<g id="edge5" class="edge"><title>Node5&#45;&gt;Node6</title>
<path fill="none" stroke="midnightblue" d="M363,-58.7527C363,-51.2504 363,-40.4238 363,-31.0781"/>
<polygon fill="midnightblue" stroke="midnightblue" points="366.5,-31.0752 363,-21.0752 359.5,-31.0752 366.5,-31.0752"/>
</g>
<!-- Node13&#45;&gt;Node2 -->
<g id="edge13" class="edge"><title>Node13&#45;&gt;Node2</title>
<path fill="none" stroke="midnightblue" d="M555.467,-364.753C479.534,-357.857 347.746,-344.2 236,-324 228.821,-322.702 221.257,-321.097 213.913,-319.409"/>
<polygon fill="midnightblue" stroke="midnightblue" points="214.63,-315.982 204.092,-317.077 213.013,-322.793 214.63,-315.982"/>
</g>
<!-- Node14 -->
<g id="node14" class="node"><title>Node14</title>
<g id="a_node14"><a xlink:href="integer__sequence_8h.xhtml" target="_top" xlink:title="ePub3/utilities/integer\l_sequence.h">
<polygon fill="white" stroke="black" points="438.192,-291 438.192,-323 549.808,-323 549.808,-291 438.192,-291"/>
<text text-anchor="start" x="446.192" y="-309" font-family="Helvetica,sans-Serif" font-size="10.00">ePub3/utilities/integer</text>
<text text-anchor="middle" x="494" y="-297" font-family="Helvetica,sans-Serif" font-size="10.00">_sequence.h</text>
</a>
</g>
</g>
<!-- Node13&#45;&gt;Node14 -->
<g id="edge14" class="edge"><title>Node13&#45;&gt;Node14</title>
<path fill="none" stroke="midnightblue" d="M599.969,-360.985C582.495,-352.247 555.419,-338.709 533.011,-327.505"/>
<polygon fill="midnightblue" stroke="midnightblue" points="534.561,-324.367 524.052,-323.026 531.431,-330.628 534.561,-324.367"/>
</g>
<!-- Node15 -->
<g id="node15" class="node"><title>Node15</title>
<g id="a_node15"><a xlink:href="string__view_8h.xhtml" target="_top" xlink:title="ePub3/utilities/string\l_view.h">
<polygon fill="white" stroke="black" points="606.254,-291 606.254,-323 711.746,-323 711.746,-291 606.254,-291"/>
<text text-anchor="start" x="614.254" y="-309" font-family="Helvetica,sans-Serif" font-size="10.00">ePub3/utilities/string</text>
<text text-anchor="middle" x="659" y="-297" font-family="Helvetica,sans-Serif" font-size="10.00">_view.h</text>
</a>
</g>
</g>
<!-- Node13&#45;&gt;Node15 -->
<g id="edge16" class="edge"><title>Node13&#45;&gt;Node15</title>
<path fill="none" stroke="midnightblue" d="M624.05,-360.852C629.08,-353.244 636.473,-342.065 643.166,-331.945"/>
<polygon fill="midnightblue" stroke="midnightblue" points="646.193,-333.712 648.789,-323.44 640.354,-329.851 646.193,-333.712"/>
</g>
<!-- Node17 -->
<g id="node17" class="node"><title>Node17</title>
<polygon fill="white" stroke="#bfbfbf" points="425.773,-233 425.773,-253 466.227,-253 466.227,-233 425.773,-233"/>
<text text-anchor="middle" x="446" y="-239" font-family="Helvetica,sans-Serif" font-size="10.00">string</text>
</g>
<!-- Node13&#45;&gt;Node17 -->
<g id="edge25" class="edge"><title>Node13&#45;&gt;Node17</title>
<path fill="none" stroke="midnightblue" d="M613.294,-360.815C604.503,-344.475 584.089,-310.185 558,-290 551.137,-284.69 506.528,-267.091 475.723,-255.266"/>
<polygon fill="midnightblue" stroke="midnightblue" points="476.863,-251.955 466.272,-251.653 474.363,-258.493 476.863,-251.955"/>
</g>
<!-- Node22 -->
<g id="node22" class="node"><title>Node22</title>
<polygon fill="white" stroke="#bfbfbf" points="729.438,-297 729.438,-317 776.562,-317 776.562,-297 729.438,-297"/>
<text text-anchor="middle" x="753" y="-303" font-family="Helvetica,sans-Serif" font-size="10.00">iterator</text>
</g>
<!-- Node13&#45;&gt;Node22 -->
<g id="edge26" class="edge"><title>Node13&#45;&gt;Node22</title>
<path fill="none" stroke="midnightblue" d="M638.785,-360.829C659.451,-351.663 692.023,-337.088 720,-324 721.773,-323.17 723.597,-322.309 725.433,-321.436"/>
<polygon fill="midnightblue" stroke="midnightblue" points="727.044,-324.545 734.543,-317.061 724.013,-318.235 727.044,-324.545"/>
</g>
<!-- Node13&#45;&gt;Node23 -->
<g id="edge27" class="edge"><title>Node13&#45;&gt;Node23</title>
<path fill="none" stroke="midnightblue" d="M680.785,-369.091C756.779,-366.465 887.879,-357.012 995,-324 997.295,-323.293 999.623,-322.421 1001.92,-321.452"/>
<polygon fill="midnightblue" stroke="midnightblue" points="1003.5,-324.575 1011.01,-317.098 1000.47,-318.263 1003.5,-324.575"/>
</g>
<!-- Node13&#45;&gt;Node11 -->
<g id="edge28" class="edge"><title>Node13&#45;&gt;Node11</title>
<path fill="none" stroke="midnightblue" d="M555.327,-363.366C516.96,-357.272 467.927,-345.721 429,-324 421.314,-319.711 385.109,-282.66 363.793,-260.514"/>
<polygon fill="midnightblue" stroke="midnightblue" points="366.143,-257.909 356.693,-253.118 361.093,-262.756 366.143,-257.909"/>
</g>
<!-- Node24 -->
<g id="node24" class="node"><title>Node24</title>
<polygon fill="white" stroke="#bfbfbf" points="832.766,-297 832.766,-317 933.234,-317 933.234,-297 832.766,-297"/>
<text text-anchor="middle" x="883" y="-303" font-family="Helvetica,sans-Serif" font-size="10.00">REGEX_INCLUDE</text>
</g>
<!-- Node13&#45;&gt;Node24 -->
<g id="edge29" class="edge"><title>Node13&#45;&gt;Node24</title>
<path fill="none" stroke="midnightblue" d="M658.479,-360.986C699.111,-351.879 763.471,-337.294 819,-324 825.067,-322.548 831.449,-320.989 837.739,-319.435"/>
<polygon fill="midnightblue" stroke="midnightblue" points="838.625,-322.821 847.486,-317.013 836.937,-316.028 838.625,-322.821"/>
</g>
<!-- Node25 -->
<g id="node25" class="node"><title>Node25</title>
<polygon fill="white" stroke="#bfbfbf" points="951.273,-297 951.273,-317 986.727,-317 986.727,-297 951.273,-297"/>
<text text-anchor="middle" x="969" y="-303" font-family="Helvetica,sans-Serif" font-size="10.00">map</text>
</g>
<!-- Node13&#45;&gt;Node25 -->
<g id="edge30" class="edge"><title>Node13&#45;&gt;Node25</title>
<path fill="none" stroke="midnightblue" d="M680.62,-368.356C747.169,-364.96 854.633,-354.708 942,-324 943.661,-323.416 945.333,-322.725 946.986,-321.962"/>
<polygon fill="midnightblue" stroke="midnightblue" points="948.913,-324.9 956.053,-317.072 945.59,-318.739 948.913,-324.9"/>
</g>
<!-- Node26 -->
<g id="node26" class="node"><title>Node26</title>
<polygon fill="white" stroke="#bfbfbf" points="244.599,-297 244.599,-317 303.401,-317 303.401,-297 244.599,-297"/>
<text text-anchor="middle" x="274" y="-303" font-family="Helvetica,sans-Serif" font-size="10.00">stdexcept</text>
</g>
<!-- Node13&#45;&gt;Node26 -->
<g id="edge31" class="edge"><title>Node13&#45;&gt;Node26</title>
<path fill="none" stroke="midnightblue" d="M555.46,-364.985C493.158,-358.963 395.2,-346.706 313,-324 309.755,-323.104 306.417,-322.013 303.124,-320.826"/>
<polygon fill="midnightblue" stroke="midnightblue" points="304.107,-317.453 293.519,-317.079 301.563,-323.974 304.107,-317.453"/>
</g>
<!-- Node18 -->
<g id="node18" class="node"><title>Node18</title>
<polygon fill="white" stroke="#bfbfbf" points="797.613,-233 797.613,-253 836.387,-253 836.387,-233 797.613,-233"/>
<text text-anchor="middle" x="817" y="-239" font-family="Helvetica,sans-Serif" font-size="10.00">limits</text>
</g>
<!-- Node13&#45;&gt;Node18 -->
<g id="edge32" class="edge"><title>Node13&#45;&gt;Node18</title>
<path fill="none" stroke="midnightblue" d="M680.79,-366.122C715.205,-360.976 756.528,-349.456 785,-324 802.639,-308.23 810.697,-281.407 814.28,-263.21"/>
<polygon fill="midnightblue" stroke="midnightblue" points="817.761,-263.614 815.978,-253.17 810.859,-262.446 817.761,-263.614"/>
</g>
<!-- Node27 -->
<g id="node27" class="node"><title>Node27</title>
<polygon fill="white" stroke="#bfbfbf" points="321.761,-297 321.761,-317 382.239,-317 382.239,-297 321.761,-297"/>
<text text-anchor="middle" x="352" y="-303" font-family="Helvetica,sans-Serif" font-size="10.00">utf8/utf8.h</text>
</g>
<!-- Node13&#45;&gt;Node27 -->
<g id="edge33" class="edge"><title>Node13&#45;&gt;Node27</title>
<path fill="none" stroke="midnightblue" d="M563.184,-360.92C517.925,-352.881 452.229,-339.959 396,-324 392.344,-322.962 388.557,-321.77 384.807,-320.515"/>
<polygon fill="midnightblue" stroke="midnightblue" points="385.681,-317.112 375.086,-317.105 383.364,-323.718 385.681,-317.112"/>
</g>
<!-- Node14&#45;&gt;Node3 -->
<g id="edge15" class="edge"><title>Node14&#45;&gt;Node3</title>
<path fill="none" stroke="midnightblue" d="M461.48,-290.86C445.947,-282.109 428.32,-269.702 417,-254 406.705,-239.721 401.982,-220.063 399.818,-205.555"/>
<polygon fill="midnightblue" stroke="midnightblue" points="403.245,-204.734 398.575,-195.225 396.295,-205.571 403.245,-204.734"/>
</g>
<!-- Node16 -->
<g id="node16" class="node"><title>Node16</title>
<polygon fill="white" stroke="#bfbfbf" points="569.934,-233 569.934,-253 632.066,-253 632.066,-233 569.934,-233"/>
<text text-anchor="middle" x="601" y="-239" font-family="Helvetica,sans-Serif" font-size="10.00">type_traits</text>
</g>
<!-- Node15&#45;&gt;Node16 -->
<g id="edge17" class="edge"><title>Node15&#45;&gt;Node16</title>
<path fill="none" stroke="midnightblue" d="M644.96,-290.992C636.455,-281.9 625.586,-270.281 616.783,-260.872"/>
<polygon fill="midnightblue" stroke="midnightblue" points="619.079,-258.202 609.691,-253.29 613.967,-262.984 619.079,-258.202"/>
</g>
<!-- Node15&#45;&gt;Node17 -->
<g id="edge18" class="edge"><title>Node15&#45;&gt;Node17</title>
<path fill="none" stroke="midnightblue" d="M606.022,-291.883C571.435,-282.471 525.101,-269.497 476.072,-254.225"/>
<polygon fill="midnightblue" stroke="midnightblue" points="476.822,-250.792 466.233,-251.14 474.728,-257.472 476.822,-250.792"/>
</g>
<!-- Node15&#45;&gt;Node18 -->
<g id="edge19" class="edge"><title>Node15&#45;&gt;Node18</title>
<path fill="none" stroke="midnightblue" d="M697.247,-290.992C725.144,-280.045 762.377,-265.434 787.878,-255.428"/>
<polygon fill="midnightblue" stroke="midnightblue" points="789.333,-258.617 797.363,-251.706 786.776,-252.1 789.333,-258.617"/>
</g>
<!-- Node19 -->
<g id="node19" class="node"><title>Node19</title>
<polygon fill="white" stroke="#bfbfbf" points="649.828,-233 649.828,-253 704.172,-253 704.172,-233 649.828,-233"/>
<text text-anchor="middle" x="677" y="-239" font-family="Helvetica,sans-Serif" font-size="10.00">iostream</text>
</g>
<!-- Node15&#45;&gt;Node19 -->
<g id="edge20" class="edge"><title>Node15&#45;&gt;Node19</title>
<path fill="none" stroke="midnightblue" d="M663.357,-290.992C665.81,-282.543 668.897,-271.912 671.513,-262.899"/>
<polygon fill="midnightblue" stroke="midnightblue" points="674.876,-263.87 674.303,-253.29 668.153,-261.918 674.876,-263.87"/>
</g>
<!-- Node20 -->
<g id="node20" class="node"><title>Node20</title>
<polygon fill="white" stroke="#bfbfbf" points="722.436,-233 722.436,-253 779.564,-253 779.564,-233 722.436,-233"/>
<text text-anchor="middle" x="751" y="-239" font-family="Helvetica,sans-Serif" font-size="10.00">algorithm</text>
</g>
<!-- Node15&#45;&gt;Node20 -->
<g id="edge21" class="edge"><title>Node15&#45;&gt;Node20</title>
<path fill="none" stroke="midnightblue" d="M681.271,-290.992C695.803,-281.198 714.688,-268.471 729.138,-258.733"/>
<polygon fill="midnightblue" stroke="midnightblue" points="731.147,-261.6 737.484,-253.109 727.235,-255.795 731.147,-261.6"/>
</g>
<!-- Node21 -->
<g id="node21" class="node"><title>Node21</title>
<g id="a_node21"><a xlink:href="____strhash_8h.xhtml" target="_top" xlink:title="__strhash.h">
<polygon fill="white" stroke="black" points="483.872,-233 483.872,-253 552.128,-253 552.128,-233 483.872,-233"/>
<text text-anchor="middle" x="518" y="-239" font-family="Helvetica,sans-Serif" font-size="10.00">__strhash.h</text>
</a>
</g>
</g>
<!-- Node15&#45;&gt;Node21 -->
<g id="edge22" class="edge"><title>Node15&#45;&gt;Node21</title>
<path fill="none" stroke="midnightblue" d="M624.868,-290.992C601.439,-280.689 570.631,-267.143 548.115,-257.242"/>
<polygon fill="midnightblue" stroke="midnightblue" points="549.278,-253.93 538.715,-253.109 546.46,-260.338 549.278,-253.93"/>
</g>
<!-- Node21&#45;&gt;Node3 -->
<g id="edge23" class="edge"><title>Node21&#45;&gt;Node3</title>
<path fill="none" stroke="midnightblue" d="M498.453,-232.878C479.015,-223.807 448.973,-209.788 426.804,-199.442"/>
<polygon fill="midnightblue" stroke="midnightblue" points="428.081,-196.175 417.539,-195.118 425.121,-202.519 428.081,-196.175"/>
</g>
<!-- Node21&#45;&gt;Node10 -->
<g id="edge24" class="edge"><title>Node21&#45;&gt;Node10</title>
<path fill="none" stroke="midnightblue" d="M514.863,-232.753C512.289,-225.169 508.564,-214.188 505.37,-204.774"/>
<polygon fill="midnightblue" stroke="midnightblue" points="508.607,-203.42 502.079,-195.075 501.978,-205.67 508.607,-203.42"/>
</g>
</g>
</svg>
