<?xml version="1.0" encoding="UTF-8" standalone="no"?>
<!DOCTYPE svg PUBLIC "-//W3C//DTD SVG 1.1//EN"
 "http://www.w3.org/Graphics/SVG/1.1/DTD/svg11.dtd">
<!-- Generated by graphviz version 2.30.0 (20130114.0426)
 -->
<!-- Title: /Users/rkwright/Documents/github/readium&#45;sdk&#45;D/ePub3/utilities/error_handler.h Pages: 1 -->
<svg width="609pt" height="344pt"
 viewBox="0.00 0.00 609.00 344.00" xmlns="http://www.w3.org/2000/svg" xmlns:xlink="http://www.w3.org/1999/xlink">
<g id="graph0" class="graph" transform="scale(1 1) rotate(0) translate(4 340)">
<title>/Users/rkwright/Documents/github/readium&#45;sdk&#45;D/ePub3/utilities/error_handler.h</title>
<polygon fill="white" stroke="white" points="-4,5 -4,-340 606,-340 606,5 -4,5"/>
<!-- Node1 -->
<g id="node1" class="node"><title>Node1</title>
<polygon fill="#bfbfbf" stroke="black" points="375.966,-291 375.966,-335 522.034,-335 522.034,-291 375.966,-291"/>
<text text-anchor="start" x="383.966" y="-321" font-family="Helvetica,sans-Serif" font-size="10.00">/Users/rkwright/Documents</text>
<text text-anchor="start" x="383.966" y="-309" font-family="Helvetica,sans-Serif" font-size="10.00">/github/readium&#45;sdk&#45;D/ePub3</text>
<text text-anchor="middle" x="449" y="-297" font-family="Helvetica,sans-Serif" font-size="10.00">/utilities/error_handler.h</text>
</g>
<!-- Node2 -->
<g id="node2" class="node"><title>Node2</title>
<g id="a_node2"><a xlink:href="basic_8h.xhtml" target="_top" xlink:title="ePub3/utilities/basic.h">
<polygon fill="white" stroke="black" points="261.638,-233 261.638,-253 374.362,-253 374.362,-233 261.638,-233"/>
<text text-anchor="middle" x="318" y="-239" font-family="Helvetica,sans-Serif" font-size="10.00">ePub3/utilities/basic.h</text>
</a>
</g>
</g>
<!-- Node1&#45;&gt;Node2 -->
<g id="edge1" class="edge"><title>Node1&#45;&gt;Node2</title>
<path fill="none" stroke="midnightblue" d="M408.269,-290.857C387.418,-280.034 362.64,-267.172 344.324,-257.664"/>
<polygon fill="midnightblue" stroke="midnightblue" points="345.877,-254.527 335.389,-253.027 342.652,-260.74 345.877,-254.527"/>
</g>
<!-- Node13 -->
<g id="node13" class="node"><title>Node13</title>
<polygon fill="white" stroke="#bfbfbf" points="392.608,-233 392.608,-253 431.392,-253 431.392,-233 392.608,-233"/>
<text text-anchor="middle" x="412" y="-239" font-family="Helvetica,sans-Serif" font-size="10.00">array</text>
</g>
<!-- Node1&#45;&gt;Node13 -->
<g id="edge12" class="edge"><title>Node1&#45;&gt;Node13</title>
<path fill="none" stroke="midnightblue" d="M437.496,-290.857C432.502,-281.679 426.711,-271.036 421.911,-262.214"/>
<polygon fill="midnightblue" stroke="midnightblue" points="424.862,-260.315 417.008,-253.204 418.713,-263.661 424.862,-260.315"/>
</g>
<!-- Node14 -->
<g id="node14" class="node"><title>Node14</title>
<polygon fill="white" stroke="#bfbfbf" points="449.828,-233 449.828,-253 524.172,-253 524.172,-233 449.828,-233"/>
<text text-anchor="middle" x="487" y="-239" font-family="Helvetica,sans-Serif" font-size="10.00">system_error</text>
</g>
<!-- Node1&#45;&gt;Node14 -->
<g id="edge13" class="edge"><title>Node1&#45;&gt;Node14</title>
<path fill="none" stroke="midnightblue" d="M460.815,-290.857C465.944,-281.679 471.892,-271.036 476.822,-262.214"/>
<polygon fill="midnightblue" stroke="midnightblue" points="480.034,-263.641 481.857,-253.204 473.923,-260.226 480.034,-263.641"/>
</g>
<!-- Node15 -->
<g id="node15" class="node"><title>Node15</title>
<polygon fill="white" stroke="#bfbfbf" points="542.596,-233 542.596,-253 601.404,-253 601.404,-233 542.596,-233"/>
<text text-anchor="middle" x="572" y="-239" font-family="Helvetica,sans-Serif" font-size="10.00">functional</text>
</g>
<!-- Node1&#45;&gt;Node15 -->
<g id="edge14" class="edge"><title>Node1&#45;&gt;Node15</title>
<path fill="none" stroke="midnightblue" d="M487.244,-290.857C506.642,-280.133 529.659,-267.408 546.809,-257.927"/>
<polygon fill="midnightblue" stroke="midnightblue" points="548.614,-260.928 555.673,-253.027 545.227,-254.802 548.614,-260.928"/>
</g>
<!-- Node3 -->
<g id="node3" class="node"><title>Node3</title>
<g id="a_node3"><a xlink:href="base_8h.xhtml" target="_top" xlink:title="ePub3/base.h">
<polygon fill="white" stroke="black" points="29.1406,-175 29.1406,-195 106.859,-195 106.859,-175 29.1406,-175"/>
<text text-anchor="middle" x="68" y="-181" font-family="Helvetica,sans-Serif" font-size="10.00">ePub3/base.h</text>
</a>
</g>
</g>
<!-- Node2&#45;&gt;Node3 -->
<g id="edge2" class="edge"><title>Node2&#45;&gt;Node3</title>
<path fill="none" stroke="midnightblue" d="M277.555,-232.94C233.781,-223.135 163.963,-207.496 117.081,-196.994"/>
<polygon fill="midnightblue" stroke="midnightblue" points="117.674,-193.54 107.151,-194.77 116.144,-200.371 117.674,-193.54"/>
</g>
<!-- Node8 -->
<g id="node8" class="node"><title>Node8</title>
<polygon fill="white" stroke="#bfbfbf" points="124.815,-175 124.815,-195 239.185,-195 239.185,-175 124.815,-175"/>
<text text-anchor="middle" x="182" y="-181" font-family="Helvetica,sans-Serif" font-size="10.00">ePub3/xml/xmlstring.h</text>
</g>
<!-- Node2&#45;&gt;Node8 -->
<g id="edge7" class="edge"><title>Node2&#45;&gt;Node8</title>
<path fill="none" stroke="midnightblue" d="M295.847,-232.878C273.52,-223.685 238.852,-209.409 213.635,-199.026"/>
<polygon fill="midnightblue" stroke="midnightblue" points="214.723,-195.689 204.144,-195.118 212.058,-202.162 214.723,-195.689"/>
</g>
<!-- Node9 -->
<g id="node9" class="node"><title>Node9</title>
<polygon fill="white" stroke="#bfbfbf" points="257.219,-175 257.219,-195 308.781,-195 308.781,-175 257.219,-175"/>
<text text-anchor="middle" x="283" y="-181" font-family="Helvetica,sans-Serif" font-size="10.00">sstream</text>
</g>
<!-- Node2&#45;&gt;Node9 -->
<g id="edge8" class="edge"><title>Node2&#45;&gt;Node9</title>
<path fill="none" stroke="midnightblue" d="M312.22,-232.753C307.277,-224.843 300.023,-213.237 293.98,-203.568"/>
<polygon fill="midnightblue" stroke="midnightblue" points="296.94,-201.7 288.672,-195.075 291.004,-205.41 296.94,-201.7"/>
</g>
<!-- Node10 -->
<g id="node10" class="node"><title>Node10</title>
<polygon fill="white" stroke="#bfbfbf" points="326.943,-175 326.943,-195 379.057,-195 379.057,-175 326.943,-175"/>
<text text-anchor="middle" x="353" y="-181" font-family="Helvetica,sans-Serif" font-size="10.00">memory</text>
</g>
<!-- Node2&#45;&gt;Node10 -->
<g id="edge9" class="edge"><title>Node2&#45;&gt;Node10</title>
<path fill="none" stroke="midnightblue" d="M323.78,-232.753C328.723,-224.843 335.977,-213.237 342.02,-203.568"/>
<polygon fill="midnightblue" stroke="midnightblue" points="344.996,-205.41 347.328,-195.075 339.06,-201.7 344.996,-205.41"/>
</g>
<!-- Node11 -->
<g id="node11" class="node"><title>Node11</title>
<polygon fill="white" stroke="#bfbfbf" points="397.384,-175 397.384,-195 440.616,-195 440.616,-175 397.384,-175"/>
<text text-anchor="middle" x="419" y="-181" font-family="Helvetica,sans-Serif" font-size="10.00">vector</text>
</g>
<!-- Node2&#45;&gt;Node11 -->
<g id="edge10" class="edge"><title>Node2&#45;&gt;Node11</title>
<path fill="none" stroke="midnightblue" d="M334.678,-232.753C350.783,-223.823 375.381,-210.185 393.86,-199.939"/>
<polygon fill="midnightblue" stroke="midnightblue" points="395.584,-202.985 402.632,-195.075 392.189,-196.863 395.584,-202.985"/>
</g>
<!-- Node12 -->
<g id="node12" class="node"><title>Node12</title>
<polygon fill="white" stroke="#bfbfbf" points="458.5,-175 458.5,-195 487.5,-195 487.5,-175 458.5,-175"/>
<text text-anchor="middle" x="472.611" y="-181" font-family="Helvetica,sans-Serif" font-size="10.00">list</text>
</g>
<!-- Node2&#45;&gt;Node12 -->
<g id="edge11" class="edge"><title>Node2&#45;&gt;Node12</title>
<path fill="none" stroke="midnightblue" d="M345.261,-232.934C371.874,-223.964 413.441,-209.639 449,-196 449.095,-195.964 449.19,-195.927 449.285,-195.89"/>
<polygon fill="midnightblue" stroke="midnightblue" points="450.348,-199.235 458.33,-192.268 447.746,-192.737 450.348,-199.235"/>
</g>
<!-- Node4 -->
<g id="node4" class="node"><title>Node4</title>
<g id="a_node4"><a xlink:href="__config_8h.xhtml" target="_top" xlink:title="_config.h">
<polygon fill="white" stroke="black" points="4.70703,-117 4.70703,-137 61.293,-137 61.293,-117 4.70703,-117"/>
<text text-anchor="middle" x="33" y="-123" font-family="Helvetica,sans-Serif" font-size="10.00">_config.h</text>
</a>
</g>
</g>
<!-- Node3&#45;&gt;Node4 -->
<g id="edge3" class="edge"><title>Node3&#45;&gt;Node4</title>
<path fill="none" stroke="midnightblue" d="M62.2205,-174.753C57.2767,-166.843 50.0233,-155.237 43.9802,-145.568"/>
<polygon fill="midnightblue" stroke="midnightblue" points="46.94,-143.7 38.672,-137.075 41.004,-147.41 46.94,-143.7"/>
</g>
<!-- Node7 -->
<g id="node7" class="node"><title>Node7</title>
<polygon fill="white" stroke="#bfbfbf" points="79.1577,-117 79.1577,-137 126.842,-137 126.842,-117 79.1577,-117"/>
<text text-anchor="middle" x="103" y="-123" font-family="Helvetica,sans-Serif" font-size="10.00">stdlib.h</text>
</g>
<!-- Node3&#45;&gt;Node7 -->
<g id="edge6" class="edge"><title>Node3&#45;&gt;Node7</title>
<path fill="none" stroke="midnightblue" d="M73.7795,-174.753C78.7233,-166.843 85.9767,-155.237 92.0198,-145.568"/>
<polygon fill="midnightblue" stroke="midnightblue" points="94.996,-147.41 97.328,-137.075 89.06,-143.7 94.996,-147.41"/>
</g>
<!-- Node5 -->
<g id="node5" class="node"><title>Node5</title>
<g id="a_node5"><a xlink:href="__platform_8h.xhtml" target="_top" xlink:title="_platform.h">
<polygon fill="white" stroke="black" points="-0.012207,-59 -0.012207,-79 66.0122,-79 66.0122,-59 -0.012207,-59"/>
<text text-anchor="middle" x="33" y="-65" font-family="Helvetica,sans-Serif" font-size="10.00">_platform.h</text>
</a>
</g>
</g>
<!-- Node4&#45;&gt;Node5 -->
<g id="edge4" class="edge"><title>Node4&#45;&gt;Node5</title>
<path fill="none" stroke="midnightblue" d="M33,-116.753C33,-109.25 33,-98.4238 33,-89.0781"/>
<polygon fill="midnightblue" stroke="midnightblue" points="36.5001,-89.0752 33,-79.0752 29.5001,-89.0752 36.5001,-89.0752"/>
</g>
<!-- Node6 -->
<g id="node6" class="node"><title>Node6</title>
<g id="a_node6"><a xlink:href="__compiler_8h.xhtml" target="_top" xlink:title="_compiler.h">
<polygon fill="white" stroke="black" points="-0.571289,-1 -0.571289,-21 66.5713,-21 66.5713,-1 -0.571289,-1"/>
<text text-anchor="middle" x="33" y="-7" font-family="Helvetica,sans-Serif" font-size="10.00">_compiler.h</text>
</a>
</g>
</g>
<!-- Node5&#45;&gt;Node6 -->
<g id="edge5" class="edge"><title>Node5&#45;&gt;Node6</title>
<path fill="none" stroke="midnightblue" d="M33,-58.7527C33,-51.2504 33,-40.4238 33,-31.0781"/>
<polygon fill="midnightblue" stroke="midnightblue" points="36.5001,-31.0752 33,-21.0752 29.5001,-31.0752 36.5001,-31.0752"/>
</g>
</g>
</svg>
