<?xml version="1.0" encoding="UTF-8" standalone="no"?>
<!DOCTYPE svg PUBLIC "-//W3C//DTD SVG 1.1//EN"
 "http://www.w3.org/Graphics/SVG/1.1/DTD/svg11.dtd">
<!-- Generated by graphviz version 2.30.0 (20130114.0426)
 -->
<!-- Title: /Users/rkwright/Documents/github/readium&#45;sdk&#45;D/ePub3/utilities/error_handler.h Pages: 1 -->
<svg width="1466pt" height="148pt"
 viewBox="0.00 0.00 1466.00 148.00" xmlns="http://www.w3.org/2000/svg" xmlns:xlink="http://www.w3.org/1999/xlink">
<g id="graph0" class="graph" transform="scale(1 1) rotate(0) translate(4 144)">
<title>/Users/rkwright/Documents/github/readium&#45;sdk&#45;D/ePub3/utilities/error_handler.h</title>
<polygon fill="white" stroke="white" points="-4,5 -4,-144 1463,-144 1463,5 -4,5"/>
<!-- Node1 -->
<g id="node1" class="node"><title>Node1</title>
<polygon fill="#bfbfbf" stroke="black" points="655.966,-95 655.966,-139 802.034,-139 802.034,-95 655.966,-95"/>
<text text-anchor="start" x="663.966" y="-125" font-family="Helvetica,sans-Serif" font-size="10.00">/Users/rkwright/Documents</text>
<text text-anchor="start" x="663.966" y="-113" font-family="Helvetica,sans-Serif" font-size="10.00">/github/readium&#45;sdk&#45;D/ePub3</text>
<text text-anchor="middle" x="729" y="-101" font-family="Helvetica,sans-Serif" font-size="10.00">/utilities/error_handler.h</text>
</g>
<!-- Node2 -->
<g id="node2" class="node"><title>Node2</title>
<g id="a_node2"><a xlink:href="archive__xml_8cpp.xhtml" target="_top" xlink:title="/Users/rkwright/Documents\l/github/readium&#45;sdk&#45;D/ePub3\l/ePub/archive_xml.cpp">
<polygon fill="white" stroke="black" points="-0.0341797,-7 -0.0341797,-51 146.034,-51 146.034,-7 -0.0341797,-7"/>
<text text-anchor="start" x="7.96582" y="-37" font-family="Helvetica,sans-Serif" font-size="10.00">/Users/rkwright/Documents</text>
<text text-anchor="start" x="7.96582" y="-25" font-family="Helvetica,sans-Serif" font-size="10.00">/github/readium&#45;sdk&#45;D/ePub3</text>
<text text-anchor="middle" x="73" y="-13" font-family="Helvetica,sans-Serif" font-size="10.00">/ePub/archive_xml.cpp</text>
</a>
</g>
</g>
<!-- Node1&#45;&gt;Node2 -->
<g id="edge1" class="edge"><title>Node1&#45;&gt;Node2</title>
<path fill="none" stroke="midnightblue" d="M645.407,-113.522C532.821,-108.834 326.759,-95.4857 155,-58 146.476,-56.1396 137.605,-53.6849 128.982,-51.0008"/>
<polygon fill="midnightblue" stroke="midnightblue" points="645.541,-117.03 655.674,-113.936 645.823,-110.036 645.541,-117.03"/>
</g>
<!-- Node3 -->
<g id="node3" class="node"><title>Node3</title>
<g id="a_node3"><a xlink:href="cfi_8cpp.xhtml" target="_top" xlink:title="/Users/rkwright/Documents\l/github/readium&#45;sdk&#45;D/ePub3\l/ePub/cfi.cpp">
<polygon fill="white" stroke="black" points="163.966,-7 163.966,-51 310.034,-51 310.034,-7 163.966,-7"/>
<text text-anchor="start" x="171.966" y="-37" font-family="Helvetica,sans-Serif" font-size="10.00">/Users/rkwright/Documents</text>
<text text-anchor="start" x="171.966" y="-25" font-family="Helvetica,sans-Serif" font-size="10.00">/github/readium&#45;sdk&#45;D/ePub3</text>
<text text-anchor="middle" x="237" y="-13" font-family="Helvetica,sans-Serif" font-size="10.00">/ePub/cfi.cpp</text>
</a>
</g>
</g>
<!-- Node1&#45;&gt;Node3 -->
<g id="edge2" class="edge"><title>Node1&#45;&gt;Node3</title>
<path fill="none" stroke="midnightblue" d="M645.454,-108.837C561.989,-100.596 430.415,-84.6507 319,-58 310.953,-56.0752 302.579,-53.685 294.39,-51.1183"/>
<polygon fill="midnightblue" stroke="midnightblue" points="645.35,-112.344 655.642,-109.829 646.028,-105.377 645.35,-112.344"/>
</g>
<!-- Node4 -->
<g id="node4" class="node"><title>Node4</title>
<g id="a_node4"><a xlink:href="epub__collection_8cpp.xhtml" target="_top" xlink:title="/Users/rkwright/Documents\l/github/readium&#45;sdk&#45;D/ePub3\l/ePub/epub_collection.cpp">
<polygon fill="white" stroke="black" points="327.966,-7 327.966,-51 474.034,-51 474.034,-7 327.966,-7"/>
<text text-anchor="start" x="335.966" y="-37" font-family="Helvetica,sans-Serif" font-size="10.00">/Users/rkwright/Documents</text>
<text text-anchor="start" x="335.966" y="-25" font-family="Helvetica,sans-Serif" font-size="10.00">/github/readium&#45;sdk&#45;D/ePub3</text>
<text text-anchor="middle" x="401" y="-13" font-family="Helvetica,sans-Serif" font-size="10.00">/ePub/epub_collection.cpp</text>
</a>
</g>
</g>
<!-- Node1&#45;&gt;Node4 -->
<g id="edge3" class="edge"><title>Node1&#45;&gt;Node4</title>
<path fill="none" stroke="midnightblue" d="M645.844,-98.5126C597.931,-87.9098 536.736,-73.4692 483,-58 475.627,-55.8776 467.938,-53.4896 460.35,-51.026"/>
<polygon fill="midnightblue" stroke="midnightblue" points="645.341,-101.985 655.859,-100.716 646.845,-95.1489 645.341,-101.985"/>
</g>
<!-- Node5 -->
<g id="node5" class="node"><title>Node5</title>
<g id="a_node5"><a xlink:href="glossary_8cpp.xhtml" target="_top" xlink:title="/Users/rkwright/Documents\l/github/readium&#45;sdk&#45;D/ePub3\l/ePub/glossary.cpp">
<polygon fill="white" stroke="black" points="491.966,-7 491.966,-51 638.034,-51 638.034,-7 491.966,-7"/>
<text text-anchor="start" x="499.966" y="-37" font-family="Helvetica,sans-Serif" font-size="10.00">/Users/rkwright/Documents</text>
<text text-anchor="start" x="499.966" y="-25" font-family="Helvetica,sans-Serif" font-size="10.00">/github/readium&#45;sdk&#45;D/ePub3</text>
<text text-anchor="middle" x="565" y="-13" font-family="Helvetica,sans-Serif" font-size="10.00">/ePub/glossary.cpp</text>
</a>
</g>
</g>
<!-- Node1&#45;&gt;Node5 -->
<g id="edge4" class="edge"><title>Node1&#45;&gt;Node5</title>
<path fill="none" stroke="midnightblue" d="M679.983,-90.2961C656.141,-77.7934 627.834,-62.9497 605.273,-51.1188"/>
<polygon fill="midnightblue" stroke="midnightblue" points="678.399,-93.4175 688.881,-94.962 681.65,-87.2182 678.399,-93.4175"/>
</g>
<!-- Node6 -->
<g id="node6" class="node"><title>Node6</title>
<g id="a_node6"><a xlink:href="link_8cpp.xhtml" target="_top" xlink:title="/Users/rkwright/Documents\l/github/readium&#45;sdk&#45;D/ePub3\l/ePub/link.cpp">
<polygon fill="white" stroke="black" points="655.966,-7 655.966,-51 802.034,-51 802.034,-7 655.966,-7"/>
<text text-anchor="start" x="663.966" y="-37" font-family="Helvetica,sans-Serif" font-size="10.00">/Users/rkwright/Documents</text>
<text text-anchor="start" x="663.966" y="-25" font-family="Helvetica,sans-Serif" font-size="10.00">/github/readium&#45;sdk&#45;D/ePub3</text>
<text text-anchor="middle" x="729" y="-13" font-family="Helvetica,sans-Serif" font-size="10.00">/ePub/link.cpp</text>
</a>
</g>
</g>
<!-- Node1&#45;&gt;Node6 -->
<g id="edge5" class="edge"><title>Node1&#45;&gt;Node6</title>
<path fill="none" stroke="midnightblue" d="M729,-84.4986C729,-73.3464 729,-61.0805 729,-51.0139"/>
<polygon fill="midnightblue" stroke="midnightblue" points="725.5,-84.7415 729,-94.7416 732.5,-84.7416 725.5,-84.7415"/>
</g>
<!-- Node7 -->
<g id="node7" class="node"><title>Node7</title>
<g id="a_node7"><a xlink:href="media-overlays__smil__model_8cpp.xhtml" target="_top" xlink:title="/Users/rkwright/Documents\l/github/readium&#45;sdk&#45;D/ePub3\l/ePub/media&#45;overlays_smil\l_model.cpp">
<polygon fill="white" stroke="black" points="819.966,-1 819.966,-57 966.034,-57 966.034,-1 819.966,-1"/>
<text text-anchor="start" x="827.966" y="-43" font-family="Helvetica,sans-Serif" font-size="10.00">/Users/rkwright/Documents</text>
<text text-anchor="start" x="827.966" y="-31" font-family="Helvetica,sans-Serif" font-size="10.00">/github/readium&#45;sdk&#45;D/ePub3</text>
<text text-anchor="start" x="827.966" y="-19" font-family="Helvetica,sans-Serif" font-size="10.00">/ePub/media&#45;overlays_smil</text>
<text text-anchor="middle" x="893" y="-7" font-family="Helvetica,sans-Serif" font-size="10.00">_model.cpp</text>
</a>
</g>
</g>
<!-- Node1&#45;&gt;Node7 -->
<g id="edge6" class="edge"><title>Node1&#45;&gt;Node7</title>
<path fill="none" stroke="midnightblue" d="M778.073,-90.2665C798.09,-79.7698 821.246,-67.6271 841.505,-57.0035"/>
<polygon fill="midnightblue" stroke="midnightblue" points="776.35,-87.2182 769.119,-94.962 779.601,-93.4175 776.35,-87.2182"/>
</g>
<!-- Node8 -->
<g id="node8" class="node"><title>Node8</title>
<g id="a_node8"><a xlink:href="nav__table_8cpp.xhtml" target="_top" xlink:title="/Users/rkwright/Documents\l/github/readium&#45;sdk&#45;D/ePub3\l/ePub/nav_table.cpp">
<polygon fill="white" stroke="black" points="983.966,-7 983.966,-51 1130.03,-51 1130.03,-7 983.966,-7"/>
<text text-anchor="start" x="991.966" y="-37" font-family="Helvetica,sans-Serif" font-size="10.00">/Users/rkwright/Documents</text>
<text text-anchor="start" x="991.966" y="-25" font-family="Helvetica,sans-Serif" font-size="10.00">/github/readium&#45;sdk&#45;D/ePub3</text>
<text text-anchor="middle" x="1057" y="-13" font-family="Helvetica,sans-Serif" font-size="10.00">/ePub/nav_table.cpp</text>
</a>
</g>
</g>
<!-- Node1&#45;&gt;Node8 -->
<g id="edge7" class="edge"><title>Node1&#45;&gt;Node8</title>
<path fill="none" stroke="midnightblue" d="M812.156,-98.5126C860.069,-87.9098 921.264,-73.4692 975,-58 982.373,-55.8776 990.062,-53.4896 997.65,-51.026"/>
<polygon fill="midnightblue" stroke="midnightblue" points="811.155,-95.1489 802.141,-100.716 812.659,-101.985 811.155,-95.1489"/>
</g>
<!-- Node9 -->
<g id="node9" class="node"><title>Node9</title>
<g id="a_node9"><a xlink:href="package_8cpp.xhtml" target="_top" xlink:title="/Users/rkwright/Documents\l/github/readium&#45;sdk&#45;D/ePub3\l/ePub/package.cpp">
<polygon fill="white" stroke="black" points="1147.97,-7 1147.97,-51 1294.03,-51 1294.03,-7 1147.97,-7"/>
<text text-anchor="start" x="1155.97" y="-37" font-family="Helvetica,sans-Serif" font-size="10.00">/Users/rkwright/Documents</text>
<text text-anchor="start" x="1155.97" y="-25" font-family="Helvetica,sans-Serif" font-size="10.00">/github/readium&#45;sdk&#45;D/ePub3</text>
<text text-anchor="middle" x="1221" y="-13" font-family="Helvetica,sans-Serif" font-size="10.00">/ePub/package.cpp</text>
</a>
</g>
</g>
<!-- Node1&#45;&gt;Node9 -->
<g id="edge8" class="edge"><title>Node1&#45;&gt;Node9</title>
<path fill="none" stroke="midnightblue" d="M812.546,-108.837C896.011,-100.596 1027.59,-84.6507 1139,-58 1147.05,-56.0752 1155.42,-53.685 1163.61,-51.1183"/>
<polygon fill="midnightblue" stroke="midnightblue" points="811.972,-105.377 802.358,-109.829 812.65,-112.344 811.972,-105.377"/>
</g>
<!-- Node10 -->
<g id="node10" class="node"><title>Node10</title>
<g id="a_node10"><a xlink:href="error__handler_8cpp.xhtml" target="_top" xlink:title="/Users/rkwright/Documents\l/github/readium&#45;sdk&#45;D/ePub3\l/utilities/error_handler.cpp">
<polygon fill="white" stroke="black" points="1311.97,-7 1311.97,-51 1458.03,-51 1458.03,-7 1311.97,-7"/>
<text text-anchor="start" x="1319.97" y="-37" font-family="Helvetica,sans-Serif" font-size="10.00">/Users/rkwright/Documents</text>
<text text-anchor="start" x="1319.97" y="-25" font-family="Helvetica,sans-Serif" font-size="10.00">/github/readium&#45;sdk&#45;D/ePub3</text>
<text text-anchor="middle" x="1385" y="-13" font-family="Helvetica,sans-Serif" font-size="10.00">/utilities/error_handler.cpp</text>
</a>
</g>
</g>
<!-- Node1&#45;&gt;Node10 -->
<g id="edge9" class="edge"><title>Node1&#45;&gt;Node10</title>
<path fill="none" stroke="midnightblue" d="M812.593,-113.522C925.179,-108.834 1131.24,-95.4857 1303,-58 1311.52,-56.1396 1320.4,-53.6849 1329.02,-51.0008"/>
<polygon fill="midnightblue" stroke="midnightblue" points="812.177,-110.036 802.326,-113.936 812.459,-117.03 812.177,-110.036"/>
</g>
</g>
</svg>
