<?xml version="1.0" encoding="UTF-8" standalone="no"?>
<!DOCTYPE svg PUBLIC "-//W3C//DTD SVG 1.1//EN"
 "http://www.w3.org/Graphics/SVG/1.1/DTD/svg11.dtd">
<!-- Generated by graphviz version 2.30.0 (20130114.0426)
 -->
<!-- Title: /Users/rkwright/Documents/github/readium&#45;sdk&#45;D/ePub3/utilities/executor.h Pages: 1 -->
<svg width="1577pt" height="312pt"
 viewBox="0.00 0.00 1577.00 312.00" xmlns="http://www.w3.org/2000/svg" xmlns:xlink="http://www.w3.org/1999/xlink">
<g id="graph0" class="graph" transform="scale(1 1) rotate(0) translate(4 308)">
<title>/Users/rkwright/Documents/github/readium&#45;sdk&#45;D/ePub3/utilities/executor.h</title>
<polygon fill="white" stroke="white" points="-4,5 -4,-308 1574,-308 1574,5 -4,5"/>
<!-- Node1 -->
<g id="node1" class="node"><title>Node1</title>
<polygon fill="#bfbfbf" stroke="black" points="545.966,-259 545.966,-303 692.034,-303 692.034,-259 545.966,-259"/>
<text text-anchor="start" x="553.966" y="-289" font-family="Helvetica,sans-Serif" font-size="10.00">/Users/rkwright/Documents</text>
<text text-anchor="start" x="553.966" y="-277" font-family="Helvetica,sans-Serif" font-size="10.00">/github/readium&#45;sdk&#45;D/ePub3</text>
<text text-anchor="middle" x="619" y="-265" font-family="Helvetica,sans-Serif" font-size="10.00">/utilities/executor.h</text>
</g>
<!-- Node2 -->
<g id="node2" class="node"><title>Node2</title>
<g id="a_node2"><a xlink:href="filter__chain_8h.xhtml" target="_top" xlink:title="/Users/rkwright/Documents\l/github/readium&#45;sdk&#45;D/ePub3\l/ePub/filter_chain.h">
<polygon fill="white" stroke="black" points="545.966,-177 545.966,-221 692.034,-221 692.034,-177 545.966,-177"/>
<text text-anchor="start" x="553.966" y="-207" font-family="Helvetica,sans-Serif" font-size="10.00">/Users/rkwright/Documents</text>
<text text-anchor="start" x="553.966" y="-195" font-family="Helvetica,sans-Serif" font-size="10.00">/github/readium&#45;sdk&#45;D/ePub3</text>
<text text-anchor="middle" x="619" y="-183" font-family="Helvetica,sans-Serif" font-size="10.00">/ePub/filter_chain.h</text>
</a>
</g>
</g>
<!-- Node1&#45;&gt;Node2 -->
<g id="edge1" class="edge"><title>Node1&#45;&gt;Node2</title>
<path fill="none" stroke="midnightblue" d="M619,-248.896C619,-239.609 619,-229.649 619,-221.156"/>
<polygon fill="midnightblue" stroke="midnightblue" points="615.5,-248.981 619,-258.981 622.5,-248.981 615.5,-248.981"/>
</g>
<!-- Node6 -->
<g id="node6" class="node"><title>Node6</title>
<g id="a_node6"><a xlink:href="filter__chain__byte__stream_8h.xhtml" target="_top" xlink:title="/Users/rkwright/Documents\l/github/readium&#45;sdk&#45;D/ePub3\l/ePub/filter_chain_byte_stream.h">
<polygon fill="white" stroke="black" points="153.902,-177 153.902,-221 316.098,-221 316.098,-177 153.902,-177"/>
<text text-anchor="start" x="161.902" y="-207" font-family="Helvetica,sans-Serif" font-size="10.00">/Users/rkwright/Documents</text>
<text text-anchor="start" x="161.902" y="-195" font-family="Helvetica,sans-Serif" font-size="10.00">/github/readium&#45;sdk&#45;D/ePub3</text>
<text text-anchor="middle" x="235" y="-183" font-family="Helvetica,sans-Serif" font-size="10.00">/ePub/filter_chain_byte_stream.h</text>
</a>
</g>
</g>
<!-- Node1&#45;&gt;Node6 -->
<g id="edge5" class="edge"><title>Node1&#45;&gt;Node6</title>
<path fill="none" stroke="midnightblue" d="M535.703,-264.601C476.725,-253.446 395.836,-237.637 325,-222 322.173,-221.376 319.298,-220.731 316.397,-220.071"/>
<polygon fill="midnightblue" stroke="midnightblue" points="535.237,-268.075 545.713,-266.49 536.535,-261.196 535.237,-268.075"/>
</g>
<!-- Node8 -->
<g id="node8" class="node"><title>Node8</title>
<g id="a_node8"><a xlink:href="filter__chain__byte__stream__range_8h.xhtml" target="_top" xlink:title="/Users/rkwright/Documents\l/github/readium&#45;sdk&#45;D/ePub3\l/ePub/filter_chain_byte_stream_range.h">
<polygon fill="white" stroke="black" points="334.333,-177 334.333,-221 527.667,-221 527.667,-177 334.333,-177"/>
<text text-anchor="start" x="342.333" y="-207" font-family="Helvetica,sans-Serif" font-size="10.00">/Users/rkwright/Documents</text>
<text text-anchor="start" x="342.333" y="-195" font-family="Helvetica,sans-Serif" font-size="10.00">/github/readium&#45;sdk&#45;D/ePub3</text>
<text text-anchor="middle" x="431" y="-183" font-family="Helvetica,sans-Serif" font-size="10.00">/ePub/filter_chain_byte_stream_range.h</text>
</a>
</g>
</g>
<!-- Node1&#45;&gt;Node8 -->
<g id="edge8" class="edge"><title>Node1&#45;&gt;Node8</title>
<path fill="none" stroke="midnightblue" d="M560.353,-255.044C534.687,-244.122 504.904,-231.449 480.391,-221.017"/>
<polygon fill="midnightblue" stroke="midnightblue" points="559.033,-258.286 569.605,-258.981 561.774,-251.845 559.033,-258.286"/>
</g>
<!-- Node10 -->
<g id="node10" class="node"><title>Node10</title>
<g id="a_node10"><a xlink:href="executor_8cpp.xhtml" target="_top" xlink:title="/Users/rkwright/Documents\l/github/readium&#45;sdk&#45;D/ePub3\l/utilities/executor.cpp">
<polygon fill="white" stroke="black" points="897.966,-177 897.966,-221 1044.03,-221 1044.03,-177 897.966,-177"/>
<text text-anchor="start" x="905.966" y="-207" font-family="Helvetica,sans-Serif" font-size="10.00">/Users/rkwright/Documents</text>
<text text-anchor="start" x="905.966" y="-195" font-family="Helvetica,sans-Serif" font-size="10.00">/github/readium&#45;sdk&#45;D/ePub3</text>
<text text-anchor="middle" x="971" y="-183" font-family="Helvetica,sans-Serif" font-size="10.00">/utilities/executor.cpp</text>
</a>
</g>
</g>
<!-- Node1&#45;&gt;Node10 -->
<g id="edge11" class="edge"><title>Node1&#45;&gt;Node10</title>
<path fill="none" stroke="midnightblue" d="M702.399,-263.219C755.884,-252.178 826.717,-237.034 889,-222 891.866,-221.308 894.784,-220.59 897.729,-219.855"/>
<polygon fill="midnightblue" stroke="midnightblue" points="701.371,-259.857 692.281,-265.302 702.782,-266.714 701.371,-259.857"/>
</g>
<!-- Node11 -->
<g id="node11" class="node"><title>Node11</title>
<g id="a_node11"><a xlink:href="future_8h.xhtml" target="_top" xlink:title="/Users/rkwright/Documents\l/github/readium&#45;sdk&#45;D/ePub3\l/utilities/future.h">
<polygon fill="white" stroke="black" points="733.966,-177 733.966,-221 880.034,-221 880.034,-177 733.966,-177"/>
<text text-anchor="start" x="741.966" y="-207" font-family="Helvetica,sans-Serif" font-size="10.00">/Users/rkwright/Documents</text>
<text text-anchor="start" x="741.966" y="-195" font-family="Helvetica,sans-Serif" font-size="10.00">/github/readium&#45;sdk&#45;D/ePub3</text>
<text text-anchor="middle" x="807" y="-183" font-family="Helvetica,sans-Serif" font-size="10.00">/utilities/future.h</text>
</a>
</g>
</g>
<!-- Node1&#45;&gt;Node11 -->
<g id="edge12" class="edge"><title>Node1&#45;&gt;Node11</title>
<path fill="none" stroke="midnightblue" d="M677.647,-255.044C703.313,-244.122 733.096,-231.449 757.609,-221.017"/>
<polygon fill="midnightblue" stroke="midnightblue" points="676.226,-251.845 668.395,-258.981 678.967,-258.286 676.226,-251.845"/>
</g>
<!-- Node3 -->
<g id="node3" class="node"><title>Node3</title>
<g id="a_node3"><a xlink:href="filter__chain_8cpp.xhtml" target="_top" xlink:title="/Users/rkwright/Documents\l/github/readium&#45;sdk&#45;D/ePub3\l/ePub/filter_chain.cpp">
<polygon fill="white" stroke="black" points="189.966,-89 189.966,-133 336.034,-133 336.034,-89 189.966,-89"/>
<text text-anchor="start" x="197.966" y="-119" font-family="Helvetica,sans-Serif" font-size="10.00">/Users/rkwright/Documents</text>
<text text-anchor="start" x="197.966" y="-107" font-family="Helvetica,sans-Serif" font-size="10.00">/github/readium&#45;sdk&#45;D/ePub3</text>
<text text-anchor="middle" x="263" y="-95" font-family="Helvetica,sans-Serif" font-size="10.00">/ePub/filter_chain.cpp</text>
</a>
</g>
</g>
<!-- Node2&#45;&gt;Node3 -->
<g id="edge2" class="edge"><title>Node2&#45;&gt;Node3</title>
<path fill="none" stroke="midnightblue" d="M536.3,-176.068C536.2,-176.045 536.1,-176.023 536,-176 451.75,-156.921 428.532,-162.013 345,-140 337.29,-137.968 329.258,-135.578 321.368,-133.064"/>
<polygon fill="midnightblue" stroke="midnightblue" points="535.217,-179.409 545.751,-178.275 536.809,-172.593 535.217,-179.409"/>
</g>
<!-- Node4 -->
<g id="node4" class="node"><title>Node4</title>
<g id="a_node4"><a xlink:href="filter__manager__impl_8cpp.xhtml" target="_top" xlink:title="/Users/rkwright/Documents\l/github/readium&#45;sdk&#45;D/ePub3\l/ePub/filter_manager_impl.cpp">
<polygon fill="white" stroke="black" points="526.185,-89 526.185,-133 677.815,-133 677.815,-89 526.185,-89"/>
<text text-anchor="start" x="534.185" y="-119" font-family="Helvetica,sans-Serif" font-size="10.00">/Users/rkwright/Documents</text>
<text text-anchor="start" x="534.185" y="-107" font-family="Helvetica,sans-Serif" font-size="10.00">/github/readium&#45;sdk&#45;D/ePub3</text>
<text text-anchor="middle" x="602" y="-95" font-family="Helvetica,sans-Serif" font-size="10.00">/ePub/filter_manager_impl.cpp</text>
</a>
</g>
</g>
<!-- Node2&#45;&gt;Node4 -->
<g id="edge3" class="edge"><title>Node2&#45;&gt;Node4</title>
<path fill="none" stroke="midnightblue" d="M612.841,-166.843C610.619,-155.6 608.164,-143.184 606.154,-133.014"/>
<polygon fill="midnightblue" stroke="midnightblue" points="609.425,-167.61 614.798,-176.742 616.292,-166.253 609.425,-167.61"/>
</g>
<!-- Node5 -->
<g id="node5" class="node"><title>Node5</title>
<g id="a_node5"><a xlink:href="package_8cpp.xhtml" target="_top" xlink:title="/Users/rkwright/Documents\l/github/readium&#45;sdk&#45;D/ePub3\l/ePub/package.cpp">
<polygon fill="white" stroke="black" points="231.966,-1 231.966,-45 378.034,-45 378.034,-1 231.966,-1"/>
<text text-anchor="start" x="239.966" y="-31" font-family="Helvetica,sans-Serif" font-size="10.00">/Users/rkwright/Documents</text>
<text text-anchor="start" x="239.966" y="-19" font-family="Helvetica,sans-Serif" font-size="10.00">/github/readium&#45;sdk&#45;D/ePub3</text>
<text text-anchor="middle" x="305" y="-7" font-family="Helvetica,sans-Serif" font-size="10.00">/ePub/package.cpp</text>
</a>
</g>
</g>
<!-- Node2&#45;&gt;Node5 -->
<g id="edge4" class="edge"><title>Node2&#45;&gt;Node5</title>
<path fill="none" stroke="midnightblue" d="M661.944,-170.445C671.646,-161.951 680.652,-151.704 686,-140 696.714,-116.554 703.1,-101.29 686,-82 641.752,-32.085 453.508,-58.5755 388,-46 384.779,-45.3817 381.499,-44.7072 378.193,-43.9907"/>
<polygon fill="midnightblue" stroke="midnightblue" points="659.602,-167.838 654.07,-176.874 664.03,-173.26 659.602,-167.838"/>
</g>
<!-- Node6&#45;&gt;Node3 -->
<g id="edge6" class="edge"><title>Node6&#45;&gt;Node3</title>
<path fill="none" stroke="midnightblue" d="M245.032,-167.187C248.722,-155.853 252.813,-143.288 256.158,-133.014"/>
<polygon fill="midnightblue" stroke="midnightblue" points="241.689,-166.149 241.921,-176.742 248.345,-168.316 241.689,-166.149"/>
</g>
<!-- Node7 -->
<g id="node7" class="node"><title>Node7</title>
<g id="a_node7"><a xlink:href="filter__chain__byte__stream_8cpp.xhtml" target="_top" xlink:title="/Users/rkwright/Documents\l/github/readium&#45;sdk&#45;D/ePub3\l/ePub/filter_chain_byte_stream.cpp">
<polygon fill="white" stroke="black" points="-0.378906,-89 -0.378906,-133 172.379,-133 172.379,-89 -0.378906,-89"/>
<text text-anchor="start" x="7.62109" y="-119" font-family="Helvetica,sans-Serif" font-size="10.00">/Users/rkwright/Documents</text>
<text text-anchor="start" x="7.62109" y="-107" font-family="Helvetica,sans-Serif" font-size="10.00">/github/readium&#45;sdk&#45;D/ePub3</text>
<text text-anchor="middle" x="86" y="-95" font-family="Helvetica,sans-Serif" font-size="10.00">/ePub/filter_chain_byte_stream.cpp</text>
</a>
</g>
</g>
<!-- Node6&#45;&gt;Node7 -->
<g id="edge7" class="edge"><title>Node6&#45;&gt;Node7</title>
<path fill="none" stroke="midnightblue" d="M189.605,-171.799C168.126,-159.402 142.816,-144.793 122.59,-133.119"/>
<polygon fill="midnightblue" stroke="midnightblue" points="188.14,-174.994 198.55,-176.962 191.639,-168.932 188.14,-174.994"/>
</g>
<!-- Node8&#45;&gt;Node3 -->
<g id="edge9" class="edge"><title>Node8&#45;&gt;Node3</title>
<path fill="none" stroke="midnightblue" d="M380.788,-172.296C356.364,-159.793 327.367,-144.95 304.255,-133.119"/>
<polygon fill="midnightblue" stroke="midnightblue" points="379.406,-175.521 389.903,-176.962 382.596,-169.29 379.406,-175.521"/>
</g>
<!-- Node9 -->
<g id="node9" class="node"><title>Node9</title>
<g id="a_node9"><a xlink:href="filter__chain__byte__stream__range_8cpp.xhtml" target="_top" xlink:title="/Users/rkwright/Documents\l/github/readium&#45;sdk&#45;D/ePub3\l/ePub/filter_chain_byte_stream\l_range.cpp">
<polygon fill="white" stroke="black" points="354.072,-83 354.072,-139 507.928,-139 507.928,-83 354.072,-83"/>
<text text-anchor="start" x="362.072" y="-125" font-family="Helvetica,sans-Serif" font-size="10.00">/Users/rkwright/Documents</text>
<text text-anchor="start" x="362.072" y="-113" font-family="Helvetica,sans-Serif" font-size="10.00">/github/readium&#45;sdk&#45;D/ePub3</text>
<text text-anchor="start" x="362.072" y="-101" font-family="Helvetica,sans-Serif" font-size="10.00">/ePub/filter_chain_byte_stream</text>
<text text-anchor="middle" x="431" y="-89" font-family="Helvetica,sans-Serif" font-size="10.00">_range.cpp</text>
</a>
</g>
</g>
<!-- Node8&#45;&gt;Node9 -->
<g id="edge10" class="edge"><title>Node8&#45;&gt;Node9</title>
<path fill="none" stroke="midnightblue" d="M431,-166.627C431,-157.636 431,-147.911 431,-139.192"/>
<polygon fill="midnightblue" stroke="midnightblue" points="427.5,-166.742 431,-176.742 434.5,-166.742 427.5,-166.742"/>
</g>
<!-- Node12 -->
<g id="node12" class="node"><title>Node12</title>
<g id="a_node12"><a xlink:href="container_8h.xhtml" target="_top" xlink:title="/Users/rkwright/Documents\l/github/readium&#45;sdk&#45;D/ePub3\l/ePub/container.h">
<polygon fill="white" stroke="black" points="733.966,-89 733.966,-133 880.034,-133 880.034,-89 733.966,-89"/>
<text text-anchor="start" x="741.966" y="-119" font-family="Helvetica,sans-Serif" font-size="10.00">/Users/rkwright/Documents</text>
<text text-anchor="start" x="741.966" y="-107" font-family="Helvetica,sans-Serif" font-size="10.00">/github/readium&#45;sdk&#45;D/ePub3</text>
<text text-anchor="middle" x="807" y="-95" font-family="Helvetica,sans-Serif" font-size="10.00">/ePub/container.h</text>
</a>
</g>
</g>
<!-- Node11&#45;&gt;Node12 -->
<g id="edge13" class="edge"><title>Node11&#45;&gt;Node12</title>
<path fill="none" stroke="midnightblue" d="M807,-166.499C807,-155.346 807,-143.081 807,-133.014"/>
<polygon fill="midnightblue" stroke="midnightblue" points="803.5,-166.742 807,-176.742 810.5,-166.742 803.5,-166.742"/>
</g>
<!-- Node19 -->
<g id="node19" class="node"><title>Node19</title>
<g id="a_node19"><a xlink:href="content__module_8h.xhtml" target="_top" xlink:title="/Users/rkwright/Documents\l/github/readium&#45;sdk&#45;D/ePub3\l/ePub/content_module.h">
<polygon fill="white" stroke="black" points="897.966,-89 897.966,-133 1044.03,-133 1044.03,-89 897.966,-89"/>
<text text-anchor="start" x="905.966" y="-119" font-family="Helvetica,sans-Serif" font-size="10.00">/Users/rkwright/Documents</text>
<text text-anchor="start" x="905.966" y="-107" font-family="Helvetica,sans-Serif" font-size="10.00">/github/readium&#45;sdk&#45;D/ePub3</text>
<text text-anchor="middle" x="971" y="-95" font-family="Helvetica,sans-Serif" font-size="10.00">/ePub/content_module.h</text>
</a>
</g>
</g>
<!-- Node11&#45;&gt;Node19 -->
<g id="edge21" class="edge"><title>Node11&#45;&gt;Node19</title>
<path fill="none" stroke="midnightblue" d="M856.017,-172.296C879.859,-159.793 908.166,-144.95 930.727,-133.119"/>
<polygon fill="midnightblue" stroke="midnightblue" points="854.35,-169.218 847.119,-176.962 857.601,-175.418 854.35,-169.218"/>
</g>
<!-- Node21 -->
<g id="node21" class="node"><title>Node21</title>
<g id="a_node21"><a xlink:href="future_8cpp.xhtml" target="_top" xlink:title="/Users/rkwright/Documents\l/github/readium&#45;sdk&#45;D/ePub3\l/utilities/future.cpp">
<polygon fill="white" stroke="black" points="1061.97,-89 1061.97,-133 1208.03,-133 1208.03,-89 1061.97,-89"/>
<text text-anchor="start" x="1069.97" y="-119" font-family="Helvetica,sans-Serif" font-size="10.00">/Users/rkwright/Documents</text>
<text text-anchor="start" x="1069.97" y="-107" font-family="Helvetica,sans-Serif" font-size="10.00">/github/readium&#45;sdk&#45;D/ePub3</text>
<text text-anchor="middle" x="1135" y="-95" font-family="Helvetica,sans-Serif" font-size="10.00">/utilities/future.cpp</text>
</a>
</g>
</g>
<!-- Node11&#45;&gt;Node21 -->
<g id="edge23" class="edge"><title>Node11&#45;&gt;Node21</title>
<path fill="none" stroke="midnightblue" d="M890.413,-175.721C963.285,-158.438 984.219,-159.226 1053,-140 1060.39,-137.935 1068.09,-135.581 1075.68,-133.136"/>
<polygon fill="midnightblue" stroke="midnightblue" points="889.178,-172.418 880.275,-178.162 890.816,-179.224 889.178,-172.418"/>
</g>
<!-- Node13 -->
<g id="node13" class="node"><title>Node13</title>
<g id="a_node13"><a xlink:href="container_8cpp.xhtml" target="_top" xlink:title="/Users/rkwright/Documents\l/github/readium&#45;sdk&#45;D/ePub3\l/ePub/container.cpp">
<polygon fill="white" stroke="black" points="569.966,-1 569.966,-45 716.034,-45 716.034,-1 569.966,-1"/>
<text text-anchor="start" x="577.966" y="-31" font-family="Helvetica,sans-Serif" font-size="10.00">/Users/rkwright/Documents</text>
<text text-anchor="start" x="577.966" y="-19" font-family="Helvetica,sans-Serif" font-size="10.00">/github/readium&#45;sdk&#45;D/ePub3</text>
<text text-anchor="middle" x="643" y="-7" font-family="Helvetica,sans-Serif" font-size="10.00">/ePub/container.cpp</text>
</a>
</g>
</g>
<!-- Node12&#45;&gt;Node13 -->
<g id="edge14" class="edge"><title>Node12&#45;&gt;Node13</title>
<path fill="none" stroke="midnightblue" d="M757.983,-84.2961C734.141,-71.7934 705.834,-56.9497 683.273,-45.1188"/>
<polygon fill="midnightblue" stroke="midnightblue" points="756.399,-87.4175 766.881,-88.962 759.65,-81.2182 756.399,-87.4175"/>
</g>
<!-- Node14 -->
<g id="node14" class="node"><title>Node14</title>
<g id="a_node14"><a xlink:href="font__obfuscation_8cpp.xhtml" target="_top" xlink:title="/Users/rkwright/Documents\l/github/readium&#45;sdk&#45;D/ePub3\l/ePub/font_obfuscation.cpp">
<polygon fill="white" stroke="black" points="733.966,-1 733.966,-45 880.034,-45 880.034,-1 733.966,-1"/>
<text text-anchor="start" x="741.966" y="-31" font-family="Helvetica,sans-Serif" font-size="10.00">/Users/rkwright/Documents</text>
<text text-anchor="start" x="741.966" y="-19" font-family="Helvetica,sans-Serif" font-size="10.00">/github/readium&#45;sdk&#45;D/ePub3</text>
<text text-anchor="middle" x="807" y="-7" font-family="Helvetica,sans-Serif" font-size="10.00">/ePub/font_obfuscation.cpp</text>
</a>
</g>
</g>
<!-- Node12&#45;&gt;Node14 -->
<g id="edge15" class="edge"><title>Node12&#45;&gt;Node14</title>
<path fill="none" stroke="midnightblue" d="M807,-78.4986C807,-67.3464 807,-55.0805 807,-45.0139"/>
<polygon fill="midnightblue" stroke="midnightblue" points="803.5,-78.7415 807,-88.7416 810.5,-78.7416 803.5,-78.7415"/>
</g>
<!-- Node15 -->
<g id="node15" class="node"><title>Node15</title>
<g id="a_node15"><a xlink:href="e_pub_2library_8cpp.xhtml" target="_top" xlink:title="/Users/rkwright/Documents\l/github/readium&#45;sdk&#45;D/ePub3\l/ePub/library.cpp">
<polygon fill="white" stroke="black" points="897.966,-1 897.966,-45 1044.03,-45 1044.03,-1 897.966,-1"/>
<text text-anchor="start" x="905.966" y="-31" font-family="Helvetica,sans-Serif" font-size="10.00">/Users/rkwright/Documents</text>
<text text-anchor="start" x="905.966" y="-19" font-family="Helvetica,sans-Serif" font-size="10.00">/github/readium&#45;sdk&#45;D/ePub3</text>
<text text-anchor="middle" x="971" y="-7" font-family="Helvetica,sans-Serif" font-size="10.00">/ePub/library.cpp</text>
</a>
</g>
</g>
<!-- Node12&#45;&gt;Node15 -->
<g id="edge16" class="edge"><title>Node12&#45;&gt;Node15</title>
<path fill="none" stroke="midnightblue" d="M856.017,-84.2961C879.859,-71.7934 908.166,-56.9497 930.727,-45.1188"/>
<polygon fill="midnightblue" stroke="midnightblue" points="854.35,-81.2182 847.119,-88.962 857.601,-87.4175 854.35,-81.2182"/>
</g>
<!-- Node16 -->
<g id="node16" class="node"><title>Node16</title>
<g id="a_node16"><a xlink:href="manifest_8cpp.xhtml" target="_top" xlink:title="/Users/rkwright/Documents\l/github/readium&#45;sdk&#45;D/ePub3\l/ePub/manifest.cpp">
<polygon fill="white" stroke="black" points="1061.97,-1 1061.97,-45 1208.03,-45 1208.03,-1 1061.97,-1"/>
<text text-anchor="start" x="1069.97" y="-31" font-family="Helvetica,sans-Serif" font-size="10.00">/Users/rkwright/Documents</text>
<text text-anchor="start" x="1069.97" y="-19" font-family="Helvetica,sans-Serif" font-size="10.00">/github/readium&#45;sdk&#45;D/ePub3</text>
<text text-anchor="middle" x="1135" y="-7" font-family="Helvetica,sans-Serif" font-size="10.00">/ePub/manifest.cpp</text>
</a>
</g>
</g>
<!-- Node12&#45;&gt;Node16 -->
<g id="edge17" class="edge"><title>Node12&#45;&gt;Node16</title>
<path fill="none" stroke="midnightblue" d="M875.954,-85.8332C880.353,-84.4844 884.728,-83.194 889,-82 960.869,-61.9108 980.499,-63.6733 1053,-46 1055.86,-45.3018 1058.78,-44.5785 1061.73,-43.8382"/>
<polygon fill="midnightblue" stroke="midnightblue" points="874.808,-82.5246 866.319,-88.8642 876.909,-89.202 874.808,-82.5246"/>
</g>
<!-- Node12&#45;&gt;Node5 -->
<g id="edge18" class="edge"><title>Node12&#45;&gt;Node5</title>
<path fill="none" stroke="midnightblue" d="M737.302,-86.2062C731.488,-84.6377 725.667,-83.2061 720,-82 574.831,-51.1051 533.927,-73.0909 388,-46 384.775,-45.4014 381.492,-44.7432 378.184,-44.04"/>
<polygon fill="midnightblue" stroke="midnightblue" points="736.48,-89.6107 747.055,-88.959 738.382,-82.874 736.48,-89.6107"/>
</g>
<!-- Node17 -->
<g id="node17" class="node"><title>Node17</title>
<g id="a_node17"><a xlink:href="_pass_through_filter_8cpp.xhtml" target="_top" xlink:title="/Users/rkwright/Documents\l/github/readium&#45;sdk&#45;D/ePub3\l/ePub/PassThroughFilter.cpp">
<polygon fill="white" stroke="black" points="1225.97,-1 1225.97,-45 1372.03,-45 1372.03,-1 1225.97,-1"/>
<text text-anchor="start" x="1233.97" y="-31" font-family="Helvetica,sans-Serif" font-size="10.00">/Users/rkwright/Documents</text>
<text text-anchor="start" x="1233.97" y="-19" font-family="Helvetica,sans-Serif" font-size="10.00">/github/readium&#45;sdk&#45;D/ePub3</text>
<text text-anchor="middle" x="1299" y="-7" font-family="Helvetica,sans-Serif" font-size="10.00">/ePub/PassThroughFilter.cpp</text>
</a>
</g>
</g>
<!-- Node12&#45;&gt;Node17 -->
<g id="edge19" class="edge"><title>Node12&#45;&gt;Node17</title>
<path fill="none" stroke="midnightblue" d="M873.049,-86.0663C878.406,-84.5484 883.769,-83.1653 889,-82 1032.14,-50.1127 1072.87,-73.08 1217,-46 1219.9,-45.4557 1222.84,-44.8621 1225.81,-44.2303"/>
<polygon fill="midnightblue" stroke="midnightblue" points="872.028,-82.7183 863.443,-88.926 874.026,-89.4273 872.028,-82.7183"/>
</g>
<!-- Node18 -->
<g id="node18" class="node"><title>Node18</title>
<g id="a_node18"><a xlink:href="switch__preprocessor_8cpp.xhtml" target="_top" xlink:title="/Users/rkwright/Documents\l/github/readium&#45;sdk&#45;D/ePub3\l/ePub/switch_preprocessor.cpp">
<polygon fill="white" stroke="black" points="396.515,-1 396.515,-45 551.485,-45 551.485,-1 396.515,-1"/>
<text text-anchor="start" x="404.515" y="-31" font-family="Helvetica,sans-Serif" font-size="10.00">/Users/rkwright/Documents</text>
<text text-anchor="start" x="404.515" y="-19" font-family="Helvetica,sans-Serif" font-size="10.00">/github/readium&#45;sdk&#45;D/ePub3</text>
<text text-anchor="middle" x="474" y="-7" font-family="Helvetica,sans-Serif" font-size="10.00">/ePub/switch_preprocessor.cpp</text>
</a>
</g>
</g>
<!-- Node12&#45;&gt;Node18 -->
<g id="edge20" class="edge"><title>Node12&#45;&gt;Node18</title>
<path fill="none" stroke="midnightblue" d="M734.173,-86.0394C729.39,-84.6274 724.635,-83.2678 720,-82 650.112,-62.8824 631.461,-62.8828 561,-46 557.97,-45.274 554.882,-44.5271 551.764,-43.7671"/>
<polygon fill="midnightblue" stroke="midnightblue" points="733.414,-89.4661 743.999,-88.9986 735.433,-82.7635 733.414,-89.4661"/>
</g>
<!-- Node20 -->
<g id="node20" class="node"><title>Node20</title>
<g id="a_node20"><a xlink:href="content__module__manager_8cpp.xhtml" target="_top" xlink:title="/Users/rkwright/Documents\l/github/readium&#45;sdk&#45;D/ePub3\l/ePub/content_module_manager.cpp">
<polygon fill="white" stroke="black" points="1390.27,-1 1390.27,-45 1569.73,-45 1569.73,-1 1390.27,-1"/>
<text text-anchor="start" x="1398.27" y="-31" font-family="Helvetica,sans-Serif" font-size="10.00">/Users/rkwright/Documents</text>
<text text-anchor="start" x="1398.27" y="-19" font-family="Helvetica,sans-Serif" font-size="10.00">/github/readium&#45;sdk&#45;D/ePub3</text>
<text text-anchor="middle" x="1480" y="-7" font-family="Helvetica,sans-Serif" font-size="10.00">/ePub/content_module_manager.cpp</text>
</a>
</g>
</g>
<!-- Node19&#45;&gt;Node20 -->
<g id="edge22" class="edge"><title>Node19&#45;&gt;Node20</title>
<path fill="none" stroke="midnightblue" d="M1037.05,-86.0663C1042.41,-84.5484 1047.77,-83.1653 1053,-82 1196.14,-50.1127 1236.31,-69.9426 1381,-46 1384.04,-45.497 1387.13,-44.9599 1390.24,-44.3958"/>
<polygon fill="midnightblue" stroke="midnightblue" points="1036.03,-82.7183 1027.44,-88.926 1038.03,-89.4273 1036.03,-82.7183"/>
</g>
</g>
</svg>
