<?xml version="1.0" encoding="UTF-8" standalone="no"?>
<!DOCTYPE svg PUBLIC "-//W3C//DTD SVG 1.1//EN"
 "http://www.w3.org/Graphics/SVG/1.1/DTD/svg11.dtd">
<!-- Generated by graphviz version 2.30.0 (20130114.0426)
 -->
<!-- Title: /Users/rkwright/Documents/github/readium&#45;sdk&#45;D/ePub3/utilities/executor.cpp Pages: 1 -->
<svg width="2179pt" height="542pt"
 viewBox="0.00 0.00 2179.00 542.00" xmlns="http://www.w3.org/2000/svg" xmlns:xlink="http://www.w3.org/1999/xlink">
<g id="graph0" class="graph" transform="scale(1 1) rotate(0) translate(4 538)">
<title>/Users/rkwright/Documents/github/readium&#45;sdk&#45;D/ePub3/utilities/executor.cpp</title>
<polygon fill="white" stroke="white" points="-4,5 -4,-538 2176,-538 2176,5 -4,5"/>
<!-- Node1 -->
<g id="node1" class="node"><title>Node1</title>
<polygon fill="#bfbfbf" stroke="black" points="1176.97,-489 1176.97,-533 1323.03,-533 1323.03,-489 1176.97,-489"/>
<text text-anchor="start" x="1184.97" y="-519" font-family="Helvetica,sans-Serif" font-size="10.00">/Users/rkwright/Documents</text>
<text text-anchor="start" x="1184.97" y="-507" font-family="Helvetica,sans-Serif" font-size="10.00">/github/readium&#45;sdk&#45;D/ePub3</text>
<text text-anchor="middle" x="1250" y="-495" font-family="Helvetica,sans-Serif" font-size="10.00">/utilities/executor.cpp</text>
</g>
<!-- Node2 -->
<g id="node2" class="node"><title>Node2</title>
<g id="a_node2"><a xlink:href="epub3_8h.xhtml" target="_top" xlink:title="epub3.h">
<polygon fill="white" stroke="black" points="262.926,-431 262.926,-451 315.074,-451 315.074,-431 262.926,-431"/>
<text text-anchor="middle" x="289" y="-437" font-family="Helvetica,sans-Serif" font-size="10.00">epub3.h</text>
</a>
</g>
</g>
<!-- Node1&#45;&gt;Node2 -->
<g id="edge1" class="edge"><title>Node1&#45;&gt;Node2</title>
<path fill="none" stroke="midnightblue" d="M1176.58,-504.805C983.726,-491.159 467.843,-454.655 325.704,-444.597"/>
<polygon fill="midnightblue" stroke="midnightblue" points="325.59,-441.08 315.368,-443.866 325.096,-448.063 325.59,-441.08"/>
</g>
<!-- Node31 -->
<g id="node31" class="node"><title>Node31</title>
<g id="a_node31"><a xlink:href="executor_8h.xhtml" target="_top" xlink:title="executor.h">
<polygon fill="white" stroke="black" points="1376.93,-373 1376.93,-393 1439.07,-393 1439.07,-373 1376.93,-373"/>
<text text-anchor="middle" x="1408" y="-379" font-family="Helvetica,sans-Serif" font-size="10.00">executor.h</text>
</a>
</g>
</g>
<!-- Node1&#45;&gt;Node31 -->
<g id="edge40" class="edge"><title>Node1&#45;&gt;Node31</title>
<path fill="none" stroke="midnightblue" d="M1249.61,-488.683C1250.44,-470.865 1254.43,-445.886 1269,-430 1294.01,-402.734 1335.51,-391.603 1366.67,-387.073"/>
<polygon fill="midnightblue" stroke="midnightblue" points="1367.32,-390.518 1376.8,-385.776 1366.43,-383.574 1367.32,-390.518"/>
</g>
<!-- Node20 -->
<g id="node20" class="node"><title>Node20</title>
<polygon fill="white" stroke="#bfbfbf" points="934.828,-239 934.828,-259 989.172,-259 989.172,-239 934.828,-239"/>
<text text-anchor="middle" x="962" y="-245" font-family="Helvetica,sans-Serif" font-size="10.00">iostream</text>
</g>
<!-- Node1&#45;&gt;Node20 -->
<g id="edge54" class="edge"><title>Node1&#45;&gt;Node20</title>
<path fill="none" stroke="midnightblue" d="M1226.43,-488.723C1170.3,-438.049 1029.68,-311.099 979.85,-266.114"/>
<polygon fill="midnightblue" stroke="midnightblue" points="981.915,-263.264 972.147,-259.161 977.224,-268.46 981.915,-263.264"/>
</g>
<!-- Node42 -->
<g id="node42" class="node"><title>Node42</title>
<polygon fill="white" stroke="#bfbfbf" points="1278.21,-431 1278.21,-451 1319.79,-451 1319.79,-431 1278.21,-431"/>
<text text-anchor="middle" x="1299" y="-437" font-family="Helvetica,sans-Serif" font-size="10.00">future</text>
</g>
<!-- Node1&#45;&gt;Node42 -->
<g id="edge55" class="edge"><title>Node1&#45;&gt;Node42</title>
<path fill="none" stroke="midnightblue" d="M1265.24,-488.857C1272.06,-479.383 1280.01,-468.347 1286.49,-459.366"/>
<polygon fill="midnightblue" stroke="midnightblue" points="1289.36,-461.363 1292.37,-451.204 1283.68,-457.271 1289.36,-461.363"/>
</g>
<!-- Node43 -->
<g id="node43" class="node"><title>Node43</title>
<g id="a_node43"><a xlink:href="optional_8h.xhtml" target="_top" xlink:title="optional.h">
<polygon fill="white" stroke="black" points="1909.32,-373 1909.32,-393 1968.68,-393 1968.68,-373 1909.32,-373"/>
<text text-anchor="middle" x="1939" y="-379" font-family="Helvetica,sans-Serif" font-size="10.00">optional.h</text>
</a>
</g>
</g>
<!-- Node1&#45;&gt;Node43 -->
<g id="edge56" class="edge"><title>Node1&#45;&gt;Node43</title>
<path fill="none" stroke="midnightblue" d="M1323.08,-496.635C1468,-470.133 1787.43,-411.719 1899.33,-391.254"/>
<polygon fill="midnightblue" stroke="midnightblue" points="1899.99,-394.693 1909.19,-389.451 1898.73,-387.807 1899.99,-394.693"/>
</g>
<!-- Node3 -->
<g id="node3" class="node"><title>Node3</title>
<g id="a_node3"><a xlink:href="base_8h.xhtml" target="_top" xlink:title="ePub3/base.h">
<polygon fill="white" stroke="black" points="486.141,-175 486.141,-195 563.859,-195 563.859,-175 486.141,-175"/>
<text text-anchor="middle" x="525" y="-181" font-family="Helvetica,sans-Serif" font-size="10.00">ePub3/base.h</text>
</a>
</g>
</g>
<!-- Node2&#45;&gt;Node3 -->
<g id="edge2" class="edge"><title>Node2&#45;&gt;Node3</title>
<path fill="none" stroke="midnightblue" d="M292.534,-430.767C305.151,-398.915 350.995,-292.278 421,-232 438.614,-216.833 462.024,-205.888 482.172,-198.488"/>
<polygon fill="midnightblue" stroke="midnightblue" points="483.476,-201.74 491.762,-195.138 481.167,-195.132 483.476,-201.74"/>
</g>
<!-- Node8 -->
<g id="node8" class="node"><title>Node8</title>
<g id="a_node8"><a xlink:href="basic_8h.xhtml" target="_top" xlink:title="ePub3/utilities/basic.h">
<polygon fill="white" stroke="black" points="146.638,-309 146.638,-329 259.362,-329 259.362,-309 146.638,-309"/>
<text text-anchor="middle" x="203" y="-315" font-family="Helvetica,sans-Serif" font-size="10.00">ePub3/utilities/basic.h</text>
</a>
</g>
</g>
<!-- Node2&#45;&gt;Node8 -->
<g id="edge7" class="edge"><title>Node2&#45;&gt;Node8</title>
<path fill="none" stroke="midnightblue" d="M262.779,-438.146C212.253,-433.971 104.402,-421.927 82,-394 58.1997,-364.33 107.175,-343.523 149.766,-331.686"/>
<polygon fill="midnightblue" stroke="midnightblue" points="150.8,-335.033 159.566,-329.083 149.002,-328.268 150.8,-335.033"/>
</g>
<!-- Node14 -->
<g id="node14" class="node"><title>Node14</title>
<g id="a_node14"><a xlink:href="utfstring_8h.xhtml" target="_top" xlink:title="ePub3/utilities/utfstring.h">
<polygon fill="white" stroke="black" points="667.525,-373 667.525,-393 792.475,-393 792.475,-373 667.525,-373"/>
<text text-anchor="middle" x="730" y="-379" font-family="Helvetica,sans-Serif" font-size="10.00">ePub3/utilities/utfstring.h</text>
</a>
</g>
</g>
<!-- Node2&#45;&gt;Node14 -->
<g id="edge14" class="edge"><title>Node2&#45;&gt;Node14</title>
<path fill="none" stroke="midnightblue" d="M315.266,-436.665C381.507,-428.253 557.209,-405.942 657.38,-393.222"/>
<polygon fill="midnightblue" stroke="midnightblue" points="657.947,-396.678 667.426,-391.946 657.065,-389.734 657.947,-396.678"/>
</g>
<!-- Node18 -->
<g id="node18" class="node"><title>Node18</title>
<polygon fill="white" stroke="#bfbfbf" points="429.773,-239 429.773,-259 470.227,-259 470.227,-239 429.773,-239"/>
<text text-anchor="middle" x="450" y="-245" font-family="Helvetica,sans-Serif" font-size="10.00">string</text>
</g>
<!-- Node2&#45;&gt;Node18 -->
<g id="edge36" class="edge"><title>Node2&#45;&gt;Node18</title>
<path fill="none" stroke="midnightblue" d="M300.502,-430.693C311.224,-421.777 327.407,-407.69 340,-394 374.783,-356.185 378.781,-342.807 410,-302 418.885,-290.386 428.919,-277.342 436.715,-267.223"/>
<polygon fill="midnightblue" stroke="midnightblue" points="439.571,-269.251 442.904,-259.194 434.027,-264.977 439.571,-269.251"/>
</g>
<!-- Node10 -->
<g id="node10" class="node"><title>Node10</title>
<polygon fill="white" stroke="#bfbfbf" points="-0.780762,-239 -0.780762,-259 50.7808,-259 50.7808,-239 -0.780762,-239"/>
<text text-anchor="middle" x="25" y="-245" font-family="Helvetica,sans-Serif" font-size="10.00">sstream</text>
</g>
<!-- Node2&#45;&gt;Node10 -->
<g id="edge37" class="edge"><title>Node2&#45;&gt;Node10</title>
<path fill="none" stroke="midnightblue" d="M262.666,-437.684C211.216,-432.651 99.9272,-419.098 72,-394 35.7512,-361.423 27.354,-300.547 25.4803,-269.417"/>
<polygon fill="midnightblue" stroke="midnightblue" points="28.9617,-268.905 25.0372,-259.064 21.9681,-269.205 28.9617,-268.905"/>
</g>
<!-- Node29 -->
<g id="node29" class="node"><title>Node29</title>
<polygon fill="white" stroke="#bfbfbf" points="90.6948,-373 90.6948,-393 187.305,-393 187.305,-373 90.6948,-373"/>
<text text-anchor="middle" x="139" y="-379" font-family="Helvetica,sans-Serif" font-size="10.00">ePub3/xml/node.h</text>
</g>
<!-- Node2&#45;&gt;Node29 -->
<g id="edge38" class="edge"><title>Node2&#45;&gt;Node29</title>
<path fill="none" stroke="midnightblue" d="M264.566,-430.878C239.723,-421.603 201.026,-407.156 173.156,-396.752"/>
<polygon fill="midnightblue" stroke="midnightblue" points="174.016,-393.337 163.423,-393.118 171.568,-399.895 174.016,-393.337"/>
</g>
<!-- Node30 -->
<g id="node30" class="node"><title>Node30</title>
<polygon fill="white" stroke="#bfbfbf" points="205.646,-373 205.646,-393 298.354,-393 298.354,-373 205.646,-373"/>
<text text-anchor="middle" x="252" y="-379" font-family="Helvetica,sans-Serif" font-size="10.00">ePub3/Forward.h</text>
</g>
<!-- Node2&#45;&gt;Node30 -->
<g id="edge39" class="edge"><title>Node2&#45;&gt;Node30</title>
<path fill="none" stroke="midnightblue" d="M282.89,-430.753C277.664,-422.843 269.996,-411.237 263.608,-401.568"/>
<polygon fill="midnightblue" stroke="midnightblue" points="266.429,-399.489 257.996,-393.075 260.589,-403.348 266.429,-399.489"/>
</g>
<!-- Node4 -->
<g id="node4" class="node"><title>Node4</title>
<g id="a_node4"><a xlink:href="__config_8h.xhtml" target="_top" xlink:title="_config.h">
<polygon fill="white" stroke="black" points="461.707,-117 461.707,-137 518.293,-137 518.293,-117 461.707,-117"/>
<text text-anchor="middle" x="490" y="-123" font-family="Helvetica,sans-Serif" font-size="10.00">_config.h</text>
</a>
</g>
</g>
<!-- Node3&#45;&gt;Node4 -->
<g id="edge3" class="edge"><title>Node3&#45;&gt;Node4</title>
<path fill="none" stroke="midnightblue" d="M519.22,-174.753C514.277,-166.843 507.023,-155.237 500.98,-145.568"/>
<polygon fill="midnightblue" stroke="midnightblue" points="503.94,-143.7 495.672,-137.075 498.004,-147.41 503.94,-143.7"/>
</g>
<!-- Node7 -->
<g id="node7" class="node"><title>Node7</title>
<polygon fill="white" stroke="#bfbfbf" points="536.158,-117 536.158,-137 583.842,-137 583.842,-117 536.158,-117"/>
<text text-anchor="middle" x="560" y="-123" font-family="Helvetica,sans-Serif" font-size="10.00">stdlib.h</text>
</g>
<!-- Node3&#45;&gt;Node7 -->
<g id="edge6" class="edge"><title>Node3&#45;&gt;Node7</title>
<path fill="none" stroke="midnightblue" d="M530.78,-174.753C535.723,-166.843 542.977,-155.237 549.02,-145.568"/>
<polygon fill="midnightblue" stroke="midnightblue" points="551.996,-147.41 554.328,-137.075 546.06,-143.7 551.996,-147.41"/>
</g>
<!-- Node5 -->
<g id="node5" class="node"><title>Node5</title>
<g id="a_node5"><a xlink:href="__platform_8h.xhtml" target="_top" xlink:title="_platform.h">
<polygon fill="white" stroke="black" points="456.988,-59 456.988,-79 523.012,-79 523.012,-59 456.988,-59"/>
<text text-anchor="middle" x="490" y="-65" font-family="Helvetica,sans-Serif" font-size="10.00">_platform.h</text>
</a>
</g>
</g>
<!-- Node4&#45;&gt;Node5 -->
<g id="edge4" class="edge"><title>Node4&#45;&gt;Node5</title>
<path fill="none" stroke="midnightblue" d="M490,-116.753C490,-109.25 490,-98.4238 490,-89.0781"/>
<polygon fill="midnightblue" stroke="midnightblue" points="493.5,-89.0752 490,-79.0752 486.5,-89.0752 493.5,-89.0752"/>
</g>
<!-- Node6 -->
<g id="node6" class="node"><title>Node6</title>
<g id="a_node6"><a xlink:href="__compiler_8h.xhtml" target="_top" xlink:title="_compiler.h">
<polygon fill="white" stroke="black" points="456.429,-1 456.429,-21 523.571,-21 523.571,-1 456.429,-1"/>
<text text-anchor="middle" x="490" y="-7" font-family="Helvetica,sans-Serif" font-size="10.00">_compiler.h</text>
</a>
</g>
</g>
<!-- Node5&#45;&gt;Node6 -->
<g id="edge5" class="edge"><title>Node5&#45;&gt;Node6</title>
<path fill="none" stroke="midnightblue" d="M490,-58.7527C490,-51.2504 490,-40.4238 490,-31.0781"/>
<polygon fill="midnightblue" stroke="midnightblue" points="493.5,-31.0752 490,-21.0752 486.5,-31.0752 493.5,-31.0752"/>
</g>
<!-- Node8&#45;&gt;Node3 -->
<g id="edge8" class="edge"><title>Node8&#45;&gt;Node3</title>
<path fill="none" stroke="midnightblue" d="M216.949,-308.834C232.063,-298.758 256.732,-281.885 277,-266 295.099,-251.815 295.465,-242.349 316,-232 366.988,-206.303 432.076,-194.881 475.962,-189.856"/>
<polygon fill="midnightblue" stroke="midnightblue" points="476.521,-193.316 486.089,-188.767 475.772,-186.356 476.521,-193.316"/>
</g>
<!-- Node9 -->
<g id="node9" class="node"><title>Node9</title>
<polygon fill="white" stroke="#bfbfbf" points="106.815,-239 106.815,-259 221.185,-259 221.185,-239 106.815,-239"/>
<text text-anchor="middle" x="164" y="-245" font-family="Helvetica,sans-Serif" font-size="10.00">ePub3/xml/xmlstring.h</text>
</g>
<!-- Node8&#45;&gt;Node9 -->
<g id="edge9" class="edge"><title>Node8&#45;&gt;Node9</title>
<path fill="none" stroke="midnightblue" d="M197.74,-308.829C191.717,-298.327 181.709,-280.877 174.153,-267.702"/>
<polygon fill="midnightblue" stroke="midnightblue" points="177.188,-265.959 169.176,-259.025 171.115,-269.441 177.188,-265.959"/>
</g>
<!-- Node8&#45;&gt;Node10 -->
<g id="edge10" class="edge"><title>Node8&#45;&gt;Node10</title>
<path fill="none" stroke="midnightblue" d="M178.514,-308.943C150.881,-298.683 104.618,-281.386 65,-266 62.3201,-264.959 59.5432,-263.87 56.7589,-262.771"/>
<polygon fill="midnightblue" stroke="midnightblue" points="57.9793,-259.49 47.3936,-259.05 55.3943,-265.995 57.9793,-259.49"/>
</g>
<!-- Node11 -->
<g id="node11" class="node"><title>Node11</title>
<polygon fill="white" stroke="#bfbfbf" points="234.943,-175 234.943,-195 287.057,-195 287.057,-175 234.943,-175"/>
<text text-anchor="middle" x="261" y="-181" font-family="Helvetica,sans-Serif" font-size="10.00">memory</text>
</g>
<!-- Node8&#45;&gt;Node11 -->
<g id="edge11" class="edge"><title>Node8&#45;&gt;Node11</title>
<path fill="none" stroke="midnightblue" d="M161.865,-308.938C138.805,-301.527 111.946,-288.469 98,-266 90.0311,-253.161 88.8806,-244.049 98,-232 113.246,-211.856 181.462,-198.03 224.671,-191.115"/>
<polygon fill="midnightblue" stroke="midnightblue" points="225.458,-194.535 234.805,-189.546 224.387,-187.618 225.458,-194.535"/>
</g>
<!-- Node12 -->
<g id="node12" class="node"><title>Node12</title>
<polygon fill="white" stroke="#bfbfbf" points="325.384,-239 325.384,-259 368.616,-259 368.616,-239 325.384,-239"/>
<text text-anchor="middle" x="347" y="-245" font-family="Helvetica,sans-Serif" font-size="10.00">vector</text>
</g>
<!-- Node8&#45;&gt;Node12 -->
<g id="edge12" class="edge"><title>Node8&#45;&gt;Node12</title>
<path fill="none" stroke="midnightblue" d="M222.122,-308.97C246.867,-297.285 290.182,-276.831 318.731,-263.349"/>
<polygon fill="midnightblue" stroke="midnightblue" points="320.251,-266.502 327.799,-259.067 317.262,-260.172 320.251,-266.502"/>
</g>
<!-- Node13 -->
<g id="node13" class="node"><title>Node13</title>
<polygon fill="white" stroke="#bfbfbf" points="239.5,-239 239.5,-259 268.5,-259 268.5,-239 239.5,-239"/>
<text text-anchor="middle" x="253.611" y="-245" font-family="Helvetica,sans-Serif" font-size="10.00">list</text>
</g>
<!-- Node8&#45;&gt;Node13 -->
<g id="edge13" class="edge"><title>Node8&#45;&gt;Node13</title>
<path fill="none" stroke="midnightblue" d="M209.878,-308.829C217.831,-298.225 231.097,-280.537 241.01,-267.32"/>
<polygon fill="midnightblue" stroke="midnightblue" points="244.031,-269.126 247.231,-259.025 238.431,-264.925 244.031,-269.126"/>
</g>
<!-- Node14&#45;&gt;Node8 -->
<g id="edge15" class="edge"><title>Node14&#45;&gt;Node8</title>
<path fill="none" stroke="midnightblue" d="M667.477,-374.644C567.442,-362.875 372.261,-339.913 269.667,-327.843"/>
<polygon fill="midnightblue" stroke="midnightblue" points="269.772,-324.331 259.431,-326.639 268.954,-331.284 269.772,-324.331"/>
</g>
<!-- Node15 -->
<g id="node15" class="node"><title>Node15</title>
<g id="a_node15"><a xlink:href="integer__sequence_8h.xhtml" target="_top" xlink:title="ePub3/utilities/integer\l_sequence.h">
<polygon fill="white" stroke="black" points="782.192,-233 782.192,-265 893.808,-265 893.808,-233 782.192,-233"/>
<text text-anchor="start" x="790.192" y="-251" font-family="Helvetica,sans-Serif" font-size="10.00">ePub3/utilities/integer</text>
<text text-anchor="middle" x="838" y="-239" font-family="Helvetica,sans-Serif" font-size="10.00">_sequence.h</text>
</a>
</g>
</g>
<!-- Node14&#45;&gt;Node15 -->
<g id="edge16" class="edge"><title>Node14&#45;&gt;Node15</title>
<path fill="none" stroke="midnightblue" d="M792.629,-379.302C858.48,-374.995 955.731,-363.962 979,-336 1006.68,-302.734 952.707,-278.799 903.741,-264.756"/>
<polygon fill="midnightblue" stroke="midnightblue" points="904.611,-261.366 894.04,-262.08 902.749,-268.114 904.611,-261.366"/>
</g>
<!-- Node16 -->
<g id="node16" class="node"><title>Node16</title>
<g id="a_node16"><a xlink:href="string__view_8h.xhtml" target="_top" xlink:title="ePub3/utilities/string\l_view.h">
<polygon fill="white" stroke="black" points="556.254,-303 556.254,-335 661.746,-335 661.746,-303 556.254,-303"/>
<text text-anchor="start" x="564.254" y="-321" font-family="Helvetica,sans-Serif" font-size="10.00">ePub3/utilities/string</text>
<text text-anchor="middle" x="609" y="-309" font-family="Helvetica,sans-Serif" font-size="10.00">_view.h</text>
</a>
</g>
</g>
<!-- Node14&#45;&gt;Node16 -->
<g id="edge18" class="edge"><title>Node14&#45;&gt;Node16</title>
<path fill="none" stroke="midnightblue" d="M712.406,-372.985C695.429,-364.286 669.168,-350.83 647.359,-339.655"/>
<polygon fill="midnightblue" stroke="midnightblue" points="648.82,-336.471 638.324,-335.026 645.628,-342.701 648.82,-336.471"/>
</g>
<!-- Node14&#45;&gt;Node18 -->
<g id="edge27" class="edge"><title>Node14&#45;&gt;Node18</title>
<path fill="none" stroke="midnightblue" d="M667.463,-381.921C586.529,-380.335 452.166,-372.149 421,-336 403.947,-316.22 421.133,-286.002 435.37,-267.154"/>
<polygon fill="midnightblue" stroke="midnightblue" points="438.263,-269.141 441.765,-259.141 432.791,-264.774 438.263,-269.141"/>
</g>
<!-- Node23 -->
<g id="node23" class="node"><title>Node23</title>
<polygon fill="white" stroke="#bfbfbf" points="430.438,-309 430.438,-329 477.562,-329 477.562,-309 430.438,-309"/>
<text text-anchor="middle" x="454" y="-315" font-family="Helvetica,sans-Serif" font-size="10.00">iterator</text>
</g>
<!-- Node14&#45;&gt;Node23 -->
<g id="edge28" class="edge"><title>Node14&#45;&gt;Node23</title>
<path fill="none" stroke="midnightblue" d="M667.438,-374.788C617.671,-367.954 546.724,-355.743 487,-336 484.567,-335.196 482.083,-334.249 479.624,-333.224"/>
<polygon fill="midnightblue" stroke="midnightblue" points="480.98,-329.995 470.43,-329.022 478.071,-336.362 480.98,-329.995"/>
</g>
<!-- Node24 -->
<g id="node24" class="node"><title>Node24</title>
<polygon fill="white" stroke="#bfbfbf" points="495.936,-309 495.936,-329 538.064,-329 538.064,-309 495.936,-309"/>
<text text-anchor="middle" x="517" y="-315" font-family="Helvetica,sans-Serif" font-size="10.00">locale</text>
</g>
<!-- Node14&#45;&gt;Node24 -->
<g id="edge29" class="edge"><title>Node14&#45;&gt;Node24</title>
<path fill="none" stroke="midnightblue" d="M680.45,-372.958C643.05,-365.322 590.86,-352.916 547,-336 545.141,-335.283 543.251,-334.477 541.37,-333.618"/>
<polygon fill="midnightblue" stroke="midnightblue" points="542.74,-330.39 532.231,-329.046 539.609,-336.65 542.74,-330.39"/>
</g>
<!-- Node14&#45;&gt;Node12 -->
<g id="edge30" class="edge"><title>Node14&#45;&gt;Node12</title>
<path fill="none" stroke="midnightblue" d="M785.172,-372.922C806.636,-366.4 829.125,-355.207 842,-336 850.414,-323.448 852.22,-313.131 842,-302 810.248,-267.417 467.427,-272.975 421,-266 407.051,-263.904 391.794,-260.754 378.775,-257.802"/>
<polygon fill="midnightblue" stroke="midnightblue" points="379.416,-254.357 368.883,-255.5 377.83,-261.175 379.416,-254.357"/>
</g>
<!-- Node25 -->
<g id="node25" class="node"><title>Node25</title>
<polygon fill="white" stroke="#bfbfbf" points="679.766,-309 679.766,-329 780.234,-329 780.234,-309 679.766,-309"/>
<text text-anchor="middle" x="730" y="-315" font-family="Helvetica,sans-Serif" font-size="10.00">REGEX_INCLUDE</text>
</g>
<!-- Node14&#45;&gt;Node25 -->
<g id="edge31" class="edge"><title>Node14&#45;&gt;Node25</title>
<path fill="none" stroke="midnightblue" d="M730,-372.852C730,-364.06 730,-350.498 730,-339.313"/>
<polygon fill="midnightblue" stroke="midnightblue" points="733.5,-339.186 730,-329.186 726.5,-339.186 733.5,-339.186"/>
</g>
<!-- Node26 -->
<g id="node26" class="node"><title>Node26</title>
<polygon fill="white" stroke="#bfbfbf" points="798.273,-309 798.273,-329 833.727,-329 833.727,-309 798.273,-309"/>
<text text-anchor="middle" x="816" y="-315" font-family="Helvetica,sans-Serif" font-size="10.00">map</text>
</g>
<!-- Node14&#45;&gt;Node26 -->
<g id="edge32" class="edge"><title>Node14&#45;&gt;Node26</title>
<path fill="none" stroke="midnightblue" d="M742.69,-372.852C756.409,-362.961 778.503,-347.033 794.855,-335.244"/>
<polygon fill="midnightblue" stroke="midnightblue" points="797.193,-337.873 803.258,-329.186 793.1,-332.195 797.193,-337.873"/>
</g>
<!-- Node27 -->
<g id="node27" class="node"><title>Node27</title>
<polygon fill="white" stroke="#bfbfbf" points="1646.6,-309 1646.6,-329 1705.4,-329 1705.4,-309 1646.6,-309"/>
<text text-anchor="middle" x="1676" y="-315" font-family="Helvetica,sans-Serif" font-size="10.00">stdexcept</text>
</g>
<!-- Node14&#45;&gt;Node27 -->
<g id="edge33" class="edge"><title>Node14&#45;&gt;Node27</title>
<path fill="none" stroke="midnightblue" d="M792.632,-381.569C970.416,-379.909 1475.73,-372.063 1637,-336 1640.64,-335.185 1644.38,-334.061 1648.03,-332.781"/>
<polygon fill="midnightblue" stroke="midnightblue" points="1649.33,-336.033 1657.37,-329.141 1646.79,-329.511 1649.33,-336.033"/>
</g>
<!-- Node19 -->
<g id="node19" class="node"><title>Node19</title>
<polygon fill="white" stroke="#bfbfbf" points="679.613,-239 679.613,-259 718.387,-259 718.387,-239 679.613,-239"/>
<text text-anchor="middle" x="699" y="-245" font-family="Helvetica,sans-Serif" font-size="10.00">limits</text>
</g>
<!-- Node14&#45;&gt;Node19 -->
<g id="edge34" class="edge"><title>Node14&#45;&gt;Node19</title>
<path fill="none" stroke="midnightblue" d="M792.71,-380.423C875.899,-376.092 1006.97,-360.148 959,-302 932.208,-269.525 814.244,-274.449 773,-266 758.224,-262.973 741.826,-259.445 728.23,-256.473"/>
<polygon fill="midnightblue" stroke="midnightblue" points="728.969,-253.052 718.451,-254.327 727.468,-259.889 728.969,-253.052"/>
</g>
<!-- Node28 -->
<g id="node28" class="node"><title>Node28</title>
<polygon fill="white" stroke="#bfbfbf" points="889.761,-309 889.761,-329 950.239,-329 950.239,-309 889.761,-309"/>
<text text-anchor="middle" x="920" y="-315" font-family="Helvetica,sans-Serif" font-size="10.00">utf8/utf8.h</text>
</g>
<!-- Node14&#45;&gt;Node28 -->
<g id="edge35" class="edge"><title>Node14&#45;&gt;Node28</title>
<path fill="none" stroke="midnightblue" d="M760.043,-372.953C789.648,-363.939 836.11,-349.53 876,-336 879.156,-334.93 882.43,-333.792 885.702,-332.635"/>
<polygon fill="midnightblue" stroke="midnightblue" points="887.166,-335.829 895.399,-329.16 884.805,-329.239 887.166,-335.829"/>
</g>
<!-- Node15&#45;&gt;Node3 -->
<g id="edge17" class="edge"><title>Node15&#45;&gt;Node3</title>
<path fill="none" stroke="midnightblue" d="M782.042,-236.916C722.945,-225.21 630.679,-206.933 574.252,-195.756"/>
<polygon fill="midnightblue" stroke="midnightblue" points="574.639,-192.265 564.149,-193.755 573.279,-199.131 574.639,-192.265"/>
</g>
<!-- Node17 -->
<g id="node17" class="node"><title>Node17</title>
<polygon fill="white" stroke="#bfbfbf" points="1537.93,-239 1537.93,-259 1600.07,-259 1600.07,-239 1537.93,-239"/>
<text text-anchor="middle" x="1569" y="-245" font-family="Helvetica,sans-Serif" font-size="10.00">type_traits</text>
</g>
<!-- Node16&#45;&gt;Node17 -->
<g id="edge19" class="edge"><title>Node16&#45;&gt;Node17</title>
<path fill="none" stroke="midnightblue" d="M661.958,-303.61C665.005,-303.008 668.035,-302.464 671,-302 998.149,-250.816 1399.42,-248.747 1527.59,-249.546"/>
<polygon fill="midnightblue" stroke="midnightblue" points="1527.72,-253.046 1537.75,-249.619 1527.77,-246.047 1527.72,-253.046"/>
</g>
<!-- Node16&#45;&gt;Node18 -->
<g id="edge20" class="edge"><title>Node16&#45;&gt;Node18</title>
<path fill="none" stroke="midnightblue" d="M570.051,-302.93C544.754,-292.927 511.179,-279.246 482,-266 480.218,-265.191 478.391,-264.339 476.555,-263.467"/>
<polygon fill="midnightblue" stroke="midnightblue" points="478.013,-260.284 467.491,-259.042 474.942,-266.574 478.013,-260.284"/>
</g>
<!-- Node16&#45;&gt;Node19 -->
<g id="edge21" class="edge"><title>Node16&#45;&gt;Node19</title>
<path fill="none" stroke="midnightblue" d="M628.974,-302.909C643.866,-291.657 664.119,-276.354 679.014,-265.101"/>
<polygon fill="midnightblue" stroke="midnightblue" points="681.215,-267.824 687.084,-259.004 676.995,-262.239 681.215,-267.824"/>
</g>
<!-- Node16&#45;&gt;Node20 -->
<g id="edge22" class="edge"><title>Node16&#45;&gt;Node20</title>
<path fill="none" stroke="midnightblue" d="M662.02,-303.953C665.051,-303.264 668.061,-302.607 671,-302 772.76,-280.993 800.325,-287.416 902,-266 909.482,-264.424 917.423,-262.493 924.995,-260.525"/>
<polygon fill="midnightblue" stroke="midnightblue" points="925.908,-263.904 934.667,-257.943 924.102,-257.141 925.908,-263.904"/>
</g>
<!-- Node21 -->
<g id="node21" class="node"><title>Node21</title>
<polygon fill="white" stroke="#bfbfbf" points="580.436,-239 580.436,-259 637.564,-259 637.564,-239 580.436,-239"/>
<text text-anchor="middle" x="609" y="-245" font-family="Helvetica,sans-Serif" font-size="10.00">algorithm</text>
</g>
<!-- Node16&#45;&gt;Node21 -->
<g id="edge23" class="edge"><title>Node16&#45;&gt;Node21</title>
<path fill="none" stroke="midnightblue" d="M609,-302.909C609,-292.919 609,-279.736 609,-269.028"/>
<polygon fill="midnightblue" stroke="midnightblue" points="612.5,-269.004 609,-259.004 605.5,-269.004 612.5,-269.004"/>
</g>
<!-- Node22 -->
<g id="node22" class="node"><title>Node22</title>
<g id="a_node22"><a xlink:href="____strhash_8h.xhtml" target="_top" xlink:title="__strhash.h">
<polygon fill="white" stroke="black" points="490.872,-239 490.872,-259 559.128,-259 559.128,-239 490.872,-239"/>
<text text-anchor="middle" x="525" y="-245" font-family="Helvetica,sans-Serif" font-size="10.00">__strhash.h</text>
</a>
</g>
</g>
<!-- Node16&#45;&gt;Node22 -->
<g id="edge24" class="edge"><title>Node16&#45;&gt;Node22</title>
<path fill="none" stroke="midnightblue" d="M590.358,-302.909C576.588,-291.762 557.908,-276.64 544.045,-265.417"/>
<polygon fill="midnightblue" stroke="midnightblue" points="546.097,-262.575 536.122,-259.004 541.692,-268.016 546.097,-262.575"/>
</g>
<!-- Node22&#45;&gt;Node3 -->
<g id="edge25" class="edge"><title>Node22&#45;&gt;Node3</title>
<path fill="none" stroke="midnightblue" d="M525,-238.852C525,-230.06 525,-216.498 525,-205.313"/>
<polygon fill="midnightblue" stroke="midnightblue" points="528.5,-205.186 525,-195.186 521.5,-205.186 528.5,-205.186"/>
</g>
<!-- Node22&#45;&gt;Node11 -->
<g id="edge26" class="edge"><title>Node22&#45;&gt;Node11</title>
<path fill="none" stroke="midnightblue" d="M500.831,-238.949C493.844,-236.508 486.169,-233.994 479,-232 415.827,-214.425 340.726,-199.955 297.196,-192.184"/>
<polygon fill="midnightblue" stroke="midnightblue" points="297.553,-188.693 287.097,-190.401 296.336,-195.587 297.553,-188.693"/>
</g>
<!-- Node32 -->
<g id="node32" class="node"><title>Node32</title>
<polygon fill="white" stroke="#bfbfbf" points="1827.08,-309 1827.08,-329 1910.92,-329 1910.92,-309 1827.08,-309"/>
<text text-anchor="middle" x="1869" y="-315" font-family="Helvetica,sans-Serif" font-size="10.00">ePub3/epub3.h</text>
</g>
<!-- Node31&#45;&gt;Node32 -->
<g id="edge41" class="edge"><title>Node31&#45;&gt;Node32</title>
<path fill="none" stroke="midnightblue" d="M1439.18,-380.549C1508.14,-376.895 1678.53,-365.416 1818,-336 1823.15,-334.915 1828.51,-333.526 1833.75,-332.021"/>
<polygon fill="midnightblue" stroke="midnightblue" points="1835.02,-335.292 1843.57,-329.033 1832.99,-328.595 1835.02,-335.292"/>
</g>
<!-- Node33 -->
<g id="node33" class="node"><title>Node33</title>
<polygon fill="white" stroke="#bfbfbf" points="1703.6,-239 1703.6,-259 1762.4,-259 1762.4,-239 1703.6,-239"/>
<text text-anchor="middle" x="1733" y="-245" font-family="Helvetica,sans-Serif" font-size="10.00">functional</text>
</g>
<!-- Node31&#45;&gt;Node33 -->
<g id="edge42" class="edge"><title>Node31&#45;&gt;Node33</title>
<path fill="none" stroke="midnightblue" d="M1439.1,-381.64C1508.82,-380.174 1674.59,-372.807 1714,-336 1732.12,-319.074 1734.91,-289.081 1734.52,-269.368"/>
<polygon fill="midnightblue" stroke="midnightblue" points="1738,-268.942 1734.01,-259.127 1731.01,-269.287 1738,-268.942"/>
</g>
<!-- Node34 -->
<g id="node34" class="node"><title>Node34</title>
<polygon fill="white" stroke="#bfbfbf" points="1196.71,-309 1196.71,-329 1243.29,-329 1243.29,-309 1196.71,-309"/>
<text text-anchor="middle" x="1220" y="-315" font-family="Helvetica,sans-Serif" font-size="10.00">chrono</text>
</g>
<!-- Node31&#45;&gt;Node34 -->
<g id="edge43" class="edge"><title>Node31&#45;&gt;Node34</title>
<path fill="none" stroke="midnightblue" d="M1376.67,-374.505C1344.78,-366.472 1294.17,-352.607 1252,-336 1249.93,-335.186 1247.82,-334.288 1245.71,-333.344"/>
<polygon fill="midnightblue" stroke="midnightblue" points="1247.22,-330.184 1236.69,-329.04 1244.21,-336.503 1247.22,-330.184"/>
</g>
<!-- Node35 -->
<g id="node35" class="node"><title>Node35</title>
<polygon fill="white" stroke="#bfbfbf" points="1261.1,-309 1261.1,-329 1304.9,-329 1304.9,-309 1261.1,-309"/>
<text text-anchor="middle" x="1283" y="-315" font-family="Helvetica,sans-Serif" font-size="10.00">queue</text>
</g>
<!-- Node31&#45;&gt;Node35 -->
<g id="edge44" class="edge"><title>Node31&#45;&gt;Node35</title>
<path fill="none" stroke="midnightblue" d="M1389.22,-372.953C1370.2,-363.761 1339.97,-349.056 1314,-336 1312.47,-335.233 1310.91,-334.441 1309.33,-333.639"/>
<polygon fill="midnightblue" stroke="midnightblue" points="1310.84,-330.48 1300.35,-329.036 1307.65,-336.71 1310.84,-330.48"/>
</g>
<!-- Node36 -->
<g id="node36" class="node"><title>Node36</title>
<polygon fill="white" stroke="#bfbfbf" points="1323.27,-309 1323.27,-329 1368.73,-329 1368.73,-309 1323.27,-309"/>
<text text-anchor="middle" x="1346" y="-315" font-family="Helvetica,sans-Serif" font-size="10.00">atomic</text>
</g>
<!-- Node31&#45;&gt;Node36 -->
<g id="edge45" class="edge"><title>Node31&#45;&gt;Node36</title>
<path fill="none" stroke="midnightblue" d="M1398.85,-372.852C1389.33,-363.327 1374.2,-348.204 1362.57,-336.571"/>
<polygon fill="midnightblue" stroke="midnightblue" points="1364.73,-333.782 1355.19,-329.186 1359.78,-338.732 1364.73,-333.782"/>
</g>
<!-- Node37 -->
<g id="node37" class="node"><title>Node37</title>
<polygon fill="white" stroke="#bfbfbf" points="1386.38,-309 1386.38,-329 1429.62,-329 1429.62,-309 1386.38,-309"/>
<text text-anchor="middle" x="1408" y="-315" font-family="Helvetica,sans-Serif" font-size="10.00">mutex</text>
</g>
<!-- Node31&#45;&gt;Node37 -->
<g id="edge46" class="edge"><title>Node31&#45;&gt;Node37</title>
<path fill="none" stroke="midnightblue" d="M1408,-372.852C1408,-364.06 1408,-350.498 1408,-339.313"/>
<polygon fill="midnightblue" stroke="midnightblue" points="1411.5,-339.186 1408,-329.186 1404.5,-339.186 1411.5,-339.186"/>
</g>
<!-- Node38 -->
<g id="node38" class="node"><title>Node38</title>
<polygon fill="white" stroke="#bfbfbf" points="1447.82,-309 1447.82,-329 1492.18,-329 1492.18,-309 1447.82,-309"/>
<text text-anchor="middle" x="1470" y="-315" font-family="Helvetica,sans-Serif" font-size="10.00">thread</text>
</g>
<!-- Node31&#45;&gt;Node38 -->
<g id="edge47" class="edge"><title>Node31&#45;&gt;Node38</title>
<path fill="none" stroke="midnightblue" d="M1417.15,-372.852C1426.67,-363.327 1441.8,-348.204 1453.43,-336.571"/>
<polygon fill="midnightblue" stroke="midnightblue" points="1456.22,-338.732 1460.81,-329.186 1451.27,-333.782 1456.22,-338.732"/>
</g>
<!-- Node39 -->
<g id="node39" class="node"><title>Node39</title>
<polygon fill="white" stroke="#bfbfbf" points="1760.88,-309 1760.88,-329 1809.12,-329 1809.12,-309 1760.88,-309"/>
<text text-anchor="middle" x="1785" y="-315" font-family="Helvetica,sans-Serif" font-size="10.00">cassert</text>
</g>
<!-- Node31&#45;&gt;Node39 -->
<g id="edge48" class="edge"><title>Node31&#45;&gt;Node39</title>
<path fill="none" stroke="midnightblue" d="M1439.4,-380.502C1499.9,-377.014 1636.42,-366.21 1747,-336 1750.18,-335.132 1753.44,-334.06 1756.65,-332.884"/>
<polygon fill="midnightblue" stroke="midnightblue" points="1758.03,-336.105 1766.02,-329.149 1755.43,-329.603 1758.03,-336.105"/>
</g>
<!-- Node40 -->
<g id="node40" class="node"><title>Node40</title>
<polygon fill="white" stroke="#bfbfbf" points="1081.69,-309 1081.69,-329 1178.31,-329 1178.31,-309 1081.69,-309"/>
<text text-anchor="middle" x="1130" y="-315" font-family="Helvetica,sans-Serif" font-size="10.00">condition_variable</text>
</g>
<!-- Node31&#45;&gt;Node40 -->
<g id="edge49" class="edge"><title>Node31&#45;&gt;Node40</title>
<path fill="none" stroke="midnightblue" d="M1376.89,-376.137C1334.15,-367.936 1254.94,-352.213 1188,-336 1182.61,-334.694 1176.95,-333.24 1171.38,-331.758"/>
<polygon fill="midnightblue" stroke="midnightblue" points="1172.08,-328.321 1161.51,-329.082 1170.25,-335.077 1172.08,-328.321"/>
</g>
<!-- Node41 -->
<g id="node41" class="node"><title>Node41</title>
<g id="a_node41"><a xlink:href="invoke_8h.xhtml" target="_top" xlink:title="ePub3/utilities/invoke.h">
<polygon fill="white" stroke="black" points="1509.86,-309 1509.86,-329 1628.14,-329 1628.14,-309 1509.86,-309"/>
<text text-anchor="middle" x="1569" y="-315" font-family="Helvetica,sans-Serif" font-size="10.00">ePub3/utilities/invoke.h</text>
</a>
</g>
</g>
<!-- Node31&#45;&gt;Node41 -->
<g id="edge50" class="edge"><title>Node31&#45;&gt;Node41</title>
<path fill="none" stroke="midnightblue" d="M1431.41,-372.985C1458.95,-362.378 1504.87,-344.696 1536.01,-332.704"/>
<polygon fill="midnightblue" stroke="midnightblue" points="1537.49,-335.886 1545.56,-329.026 1534.97,-329.354 1537.49,-335.886"/>
</g>
<!-- Node41&#45;&gt;Node3 -->
<g id="edge51" class="edge"><title>Node41&#45;&gt;Node3</title>
<path fill="none" stroke="midnightblue" d="M1533.49,-308.987C1523.06,-306.52 1511.61,-303.982 1501,-302 1148.76,-236.198 717.671,-200.296 574.104,-189.517"/>
<polygon fill="midnightblue" stroke="midnightblue" points="574.104,-186.007 563.872,-188.755 573.584,-192.988 574.104,-186.007"/>
</g>
<!-- Node41&#45;&gt;Node17 -->
<g id="edge52" class="edge"><title>Node41&#45;&gt;Node17</title>
<path fill="none" stroke="midnightblue" d="M1569,-308.829C1569,-298.735 1569,-282.222 1569,-269.256"/>
<polygon fill="midnightblue" stroke="midnightblue" points="1572.5,-269.025 1569,-259.025 1565.5,-269.026 1572.5,-269.025"/>
</g>
<!-- Node41&#45;&gt;Node33 -->
<g id="edge53" class="edge"><title>Node41&#45;&gt;Node33</title>
<path fill="none" stroke="midnightblue" d="M1590.78,-308.97C1619.2,-297.183 1669.15,-276.474 1701.65,-262.999"/>
<polygon fill="midnightblue" stroke="midnightblue" points="1703.24,-266.131 1711.13,-259.067 1700.55,-259.664 1703.24,-266.131"/>
</g>
<!-- Node43&#45;&gt;Node32 -->
<g id="edge57" class="edge"><title>Node43&#45;&gt;Node32</title>
<path fill="none" stroke="midnightblue" d="M1928.67,-372.852C1917.71,-363.144 1900.18,-347.62 1886.96,-335.903"/>
<polygon fill="midnightblue" stroke="midnightblue" points="1889.18,-333.196 1879.37,-329.186 1884.54,-338.436 1889.18,-333.196"/>
</g>
<!-- Node44 -->
<g id="node44" class="node"><title>Node44</title>
<polygon fill="white" stroke="#bfbfbf" points="2132.61,-309 2132.61,-329 2171.39,-329 2171.39,-309 2132.61,-309"/>
<text text-anchor="middle" x="2152" y="-315" font-family="Helvetica,sans-Serif" font-size="10.00">utility</text>
</g>
<!-- Node43&#45;&gt;Node44 -->
<g id="edge58" class="edge"><title>Node43&#45;&gt;Node44</title>
<path fill="none" stroke="midnightblue" d="M1968.86,-376.294C2005.03,-368.946 2067.51,-354.844 2119,-336 2121.14,-335.218 2123.32,-334.342 2125.5,-333.414"/>
<polygon fill="midnightblue" stroke="midnightblue" points="2127.19,-336.491 2134.82,-329.14 2124.27,-330.128 2127.19,-336.491"/>
</g>
<!-- Node43&#45;&gt;Node17 -->
<g id="edge59" class="edge"><title>Node43&#45;&gt;Node17</title>
<path fill="none" stroke="midnightblue" d="M1944.83,-372.812C1954.38,-356.47 1970.63,-322.174 1953,-302 1950.18,-298.777 1709,-267.795 1610.35,-255.242"/>
<polygon fill="midnightblue" stroke="midnightblue" points="1610.52,-251.735 1600.15,-253.946 1609.63,-258.679 1610.52,-251.735"/>
</g>
<!-- Node45 -->
<g id="node45" class="node"><title>Node45</title>
<polygon fill="white" stroke="#bfbfbf" points="2004.66,-309 2004.66,-329 2077.34,-329 2077.34,-309 2004.66,-309"/>
<text text-anchor="middle" x="2041" y="-315" font-family="Helvetica,sans-Serif" font-size="10.00">initializer_list</text>
</g>
<!-- Node43&#45;&gt;Node45 -->
<g id="edge60" class="edge"><title>Node43&#45;&gt;Node45</title>
<path fill="none" stroke="midnightblue" d="M1954.05,-372.852C1970.7,-362.732 1997.75,-346.292 2017.26,-334.432"/>
<polygon fill="midnightblue" stroke="midnightblue" points="2019.16,-337.371 2025.89,-329.186 2015.52,-331.389 2019.16,-337.371"/>
</g>
<!-- Node43&#45;&gt;Node39 -->
<g id="edge61" class="edge"><title>Node43&#45;&gt;Node39</title>
<path fill="none" stroke="midnightblue" d="M1913.24,-372.955C1888.57,-364.113 1850.4,-349.979 1818,-336 1816.16,-335.205 1814.27,-334.364 1812.38,-333.5"/>
<polygon fill="midnightblue" stroke="midnightblue" points="1813.56,-330.189 1803.02,-329.093 1810.58,-336.521 1813.56,-330.189"/>
</g>
<!-- Node43&#45;&gt;Node33 -->
<g id="edge62" class="edge"><title>Node43&#45;&gt;Node33</title>
<path fill="none" stroke="midnightblue" d="M1968.81,-382.304C2003.42,-380.848 2059.16,-372.524 2086,-336 2094.95,-323.823 2095.88,-313.437 2086,-302 2045.87,-255.52 1856.16,-249.845 1772.63,-249.649"/>
<polygon fill="midnightblue" stroke="midnightblue" points="1772.52,-246.149 1762.52,-249.652 1772.52,-253.149 1772.52,-246.149"/>
</g>
<!-- Node43&#45;&gt;Node18 -->
<g id="edge63" class="edge"><title>Node43&#45;&gt;Node18</title>
<path fill="none" stroke="midnightblue" d="M1939.88,-372.988C1940.98,-355.973 1940.56,-319.276 1919,-302 1856.68,-252.07 559.486,-285.32 482,-266 479.324,-265.333 476.613,-264.416 473.96,-263.355"/>
<polygon fill="midnightblue" stroke="midnightblue" points="475.316,-260.125 464.773,-259.078 472.361,-266.471 475.316,-260.125"/>
</g>
<!-- Node43&#45;&gt;Node27 -->
<g id="edge64" class="edge"><title>Node43&#45;&gt;Node27</title>
<path fill="none" stroke="midnightblue" d="M1909.09,-374.948C1861.5,-363.731 1768.54,-341.816 1715.53,-329.318"/>
<polygon fill="midnightblue" stroke="midnightblue" points="1716.02,-325.838 1705.48,-326.95 1714.41,-332.652 1716.02,-325.838"/>
</g>
</g>
</svg>
