<?xml version="1.0" encoding="UTF-8" standalone="no"?>
<!DOCTYPE svg PUBLIC "-//W3C//DTD SVG 1.1//EN"
 "http://www.w3.org/Graphics/SVG/1.1/DTD/svg11.dtd">
<!-- Generated by graphviz version 2.30.0 (20130114.0426)
 -->
<!-- Title: /Users/rkwright/Documents/github/readium&#45;sdk&#45;D/ePub3/ePub/filter_manager.h Pages: 1 -->
<svg width="1155pt" height="136pt"
 viewBox="0.00 0.00 1155.00 136.00" xmlns="http://www.w3.org/2000/svg" xmlns:xlink="http://www.w3.org/1999/xlink">
<g id="graph0" class="graph" transform="scale(1 1) rotate(0) translate(4 132)">
<title>/Users/rkwright/Documents/github/readium&#45;sdk&#45;D/ePub3/ePub/filter_manager.h</title>
<polygon fill="white" stroke="white" points="-4,5 -4,-132 1152,-132 1152,5 -4,5"/>
<!-- Node1 -->
<g id="node1" class="node"><title>Node1</title>
<polygon fill="#bfbfbf" stroke="black" points="495.966,-83 495.966,-127 642.034,-127 642.034,-83 495.966,-83"/>
<text text-anchor="start" x="503.966" y="-113" font-family="Helvetica,sans-Serif" font-size="10.00">/Users/rkwright/Documents</text>
<text text-anchor="start" x="503.966" y="-101" font-family="Helvetica,sans-Serif" font-size="10.00">/github/readium&#45;sdk&#45;D/ePub3</text>
<text text-anchor="middle" x="569" y="-89" font-family="Helvetica,sans-Serif" font-size="10.00">/ePub/filter_manager.h</text>
</g>
<!-- Node2 -->
<g id="node2" class="node"><title>Node2</title>
<g id="a_node2"><a xlink:href="container_8cpp.xhtml" target="_top" xlink:title="/Users/rkwright/Documents\l/github/readium&#45;sdk&#45;D/ePub3\l/ePub/container.cpp">
<polygon fill="white" stroke="black" points="-0.0341797,-1 -0.0341797,-45 146.034,-45 146.034,-1 -0.0341797,-1"/>
<text text-anchor="start" x="7.96582" y="-31" font-family="Helvetica,sans-Serif" font-size="10.00">/Users/rkwright/Documents</text>
<text text-anchor="start" x="7.96582" y="-19" font-family="Helvetica,sans-Serif" font-size="10.00">/github/readium&#45;sdk&#45;D/ePub3</text>
<text text-anchor="middle" x="73" y="-7" font-family="Helvetica,sans-Serif" font-size="10.00">/ePub/container.cpp</text>
</a>
</g>
</g>
<!-- Node1&#45;&gt;Node2 -->
<g id="edge1" class="edge"><title>Node1&#45;&gt;Node2</title>
<path fill="none" stroke="midnightblue" d="M485.63,-95.3695C401.657,-85.9632 268.62,-69.1093 155,-46 152.111,-45.4124 149.173,-44.7824 146.212,-44.1201"/>
<polygon fill="midnightblue" stroke="midnightblue" points="485.297,-98.854 495.622,-96.4796 486.07,-91.8968 485.297,-98.854"/>
</g>
<!-- Node3 -->
<g id="node3" class="node"><title>Node3</title>
<g id="a_node3"><a xlink:href="filter__manager_8cpp.xhtml" target="_top" xlink:title="/Users/rkwright/Documents\l/github/readium&#45;sdk&#45;D/ePub3\l/ePub/filter_manager.cpp">
<polygon fill="white" stroke="black" points="163.966,-1 163.966,-45 310.034,-45 310.034,-1 163.966,-1"/>
<text text-anchor="start" x="171.966" y="-31" font-family="Helvetica,sans-Serif" font-size="10.00">/Users/rkwright/Documents</text>
<text text-anchor="start" x="171.966" y="-19" font-family="Helvetica,sans-Serif" font-size="10.00">/github/readium&#45;sdk&#45;D/ePub3</text>
<text text-anchor="middle" x="237" y="-7" font-family="Helvetica,sans-Serif" font-size="10.00">/ePub/filter_manager.cpp</text>
</a>
</g>
</g>
<!-- Node1&#45;&gt;Node3 -->
<g id="edge2" class="edge"><title>Node1&#45;&gt;Node3</title>
<path fill="none" stroke="midnightblue" d="M485.956,-85.4811C437.222,-74.4271 374.502,-59.8793 319,-46 316.14,-45.2848 313.227,-44.5471 310.285,-43.7948"/>
<polygon fill="midnightblue" stroke="midnightblue" points="485.296,-88.9203 495.822,-87.7147 486.842,-82.093 485.296,-88.9203"/>
</g>
<!-- Node4 -->
<g id="node4" class="node"><title>Node4</title>
<g id="a_node4"><a xlink:href="font__obfuscation_8cpp.xhtml" target="_top" xlink:title="/Users/rkwright/Documents\l/github/readium&#45;sdk&#45;D/ePub3\l/ePub/font_obfuscation.cpp">
<polygon fill="white" stroke="black" points="327.966,-1 327.966,-45 474.034,-45 474.034,-1 327.966,-1"/>
<text text-anchor="start" x="335.966" y="-31" font-family="Helvetica,sans-Serif" font-size="10.00">/Users/rkwright/Documents</text>
<text text-anchor="start" x="335.966" y="-19" font-family="Helvetica,sans-Serif" font-size="10.00">/github/readium&#45;sdk&#45;D/ePub3</text>
<text text-anchor="middle" x="401" y="-7" font-family="Helvetica,sans-Serif" font-size="10.00">/ePub/font_obfuscation.cpp</text>
</a>
</g>
</g>
<!-- Node1&#45;&gt;Node4 -->
<g id="edge3" class="edge"><title>Node1&#45;&gt;Node4</title>
<path fill="none" stroke="midnightblue" d="M515.685,-78.6117C492.957,-67.7888 466.754,-55.3113 445.137,-45.0174"/>
<polygon fill="midnightblue" stroke="midnightblue" points="514.327,-81.8416 524.86,-82.9809 517.336,-75.5215 514.327,-81.8416"/>
</g>
<!-- Node5 -->
<g id="node5" class="node"><title>Node5</title>
<g id="a_node5"><a xlink:href="object__preprocessor_8cpp.xhtml" target="_top" xlink:title="/Users/rkwright/Documents\l/github/readium&#45;sdk&#45;D/ePub3\l/ePub/object_preprocessor.cpp">
<polygon fill="white" stroke="black" points="492.064,-1 492.064,-45 645.936,-45 645.936,-1 492.064,-1"/>
<text text-anchor="start" x="500.064" y="-31" font-family="Helvetica,sans-Serif" font-size="10.00">/Users/rkwright/Documents</text>
<text text-anchor="start" x="500.064" y="-19" font-family="Helvetica,sans-Serif" font-size="10.00">/github/readium&#45;sdk&#45;D/ePub3</text>
<text text-anchor="middle" x="569" y="-7" font-family="Helvetica,sans-Serif" font-size="10.00">/ePub/object_preprocessor.cpp</text>
</a>
</g>
</g>
<!-- Node1&#45;&gt;Node5 -->
<g id="edge4" class="edge"><title>Node1&#45;&gt;Node5</title>
<path fill="none" stroke="midnightblue" d="M569,-72.8963C569,-63.6094 569,-53.6485 569,-45.1564"/>
<polygon fill="midnightblue" stroke="midnightblue" points="565.5,-72.9809 569,-82.9809 572.5,-72.981 565.5,-72.9809"/>
</g>
<!-- Node6 -->
<g id="node6" class="node"><title>Node6</title>
<g id="a_node6"><a xlink:href="package_8cpp.xhtml" target="_top" xlink:title="/Users/rkwright/Documents\l/github/readium&#45;sdk&#45;D/ePub3\l/ePub/package.cpp">
<polygon fill="white" stroke="black" points="663.966,-1 663.966,-45 810.034,-45 810.034,-1 663.966,-1"/>
<text text-anchor="start" x="671.966" y="-31" font-family="Helvetica,sans-Serif" font-size="10.00">/Users/rkwright/Documents</text>
<text text-anchor="start" x="671.966" y="-19" font-family="Helvetica,sans-Serif" font-size="10.00">/github/readium&#45;sdk&#45;D/ePub3</text>
<text text-anchor="middle" x="737" y="-7" font-family="Helvetica,sans-Serif" font-size="10.00">/ePub/package.cpp</text>
</a>
</g>
</g>
<!-- Node1&#45;&gt;Node6 -->
<g id="edge5" class="edge"><title>Node1&#45;&gt;Node6</title>
<path fill="none" stroke="midnightblue" d="M622.315,-78.6117C645.043,-67.7888 671.246,-55.3113 692.863,-45.0174"/>
<polygon fill="midnightblue" stroke="midnightblue" points="620.664,-75.5215 613.14,-82.9809 623.673,-81.8416 620.664,-75.5215"/>
</g>
<!-- Node7 -->
<g id="node7" class="node"><title>Node7</title>
<g id="a_node7"><a xlink:href="_pass_through_filter_8cpp.xhtml" target="_top" xlink:title="/Users/rkwright/Documents\l/github/readium&#45;sdk&#45;D/ePub3\l/ePub/PassThroughFilter.cpp">
<polygon fill="white" stroke="black" points="827.966,-1 827.966,-45 974.034,-45 974.034,-1 827.966,-1"/>
<text text-anchor="start" x="835.966" y="-31" font-family="Helvetica,sans-Serif" font-size="10.00">/Users/rkwright/Documents</text>
<text text-anchor="start" x="835.966" y="-19" font-family="Helvetica,sans-Serif" font-size="10.00">/github/readium&#45;sdk&#45;D/ePub3</text>
<text text-anchor="middle" x="901" y="-7" font-family="Helvetica,sans-Serif" font-size="10.00">/ePub/PassThroughFilter.cpp</text>
</a>
</g>
</g>
<!-- Node1&#45;&gt;Node7 -->
<g id="edge6" class="edge"><title>Node1&#45;&gt;Node7</title>
<path fill="none" stroke="midnightblue" d="M652.044,-85.4811C700.778,-74.4271 763.498,-59.8793 819,-46 821.86,-45.2848 824.773,-44.5471 827.715,-43.7948"/>
<polygon fill="midnightblue" stroke="midnightblue" points="651.158,-82.093 642.178,-87.7147 652.704,-88.9203 651.158,-82.093"/>
</g>
<!-- Node8 -->
<g id="node8" class="node"><title>Node8</title>
<g id="a_node8"><a xlink:href="switch__preprocessor_8cpp.xhtml" target="_top" xlink:title="/Users/rkwright/Documents\l/github/readium&#45;sdk&#45;D/ePub3\l/ePub/switch_preprocessor.cpp">
<polygon fill="white" stroke="black" points="992.515,-1 992.515,-45 1147.48,-45 1147.48,-1 992.515,-1"/>
<text text-anchor="start" x="1000.52" y="-31" font-family="Helvetica,sans-Serif" font-size="10.00">/Users/rkwright/Documents</text>
<text text-anchor="start" x="1000.52" y="-19" font-family="Helvetica,sans-Serif" font-size="10.00">/github/readium&#45;sdk&#45;D/ePub3</text>
<text text-anchor="middle" x="1070" y="-7" font-family="Helvetica,sans-Serif" font-size="10.00">/ePub/switch_preprocessor.cpp</text>
</a>
</g>
</g>
<!-- Node1&#45;&gt;Node8 -->
<g id="edge7" class="edge"><title>Node1&#45;&gt;Node8</title>
<path fill="none" stroke="midnightblue" d="M652.301,-95.0215C736.22,-85.3461 869.217,-68.2885 983,-46 986.058,-45.401 989.169,-44.7614 992.306,-44.091"/>
<polygon fill="midnightblue" stroke="midnightblue" points="651.852,-91.5499 642.315,-96.1647 652.648,-98.5045 651.852,-91.5499"/>
</g>
</g>
</svg>
