<?xml version="1.0" encoding="UTF-8" standalone="no"?>
<!DOCTYPE svg PUBLIC "-//W3C//DTD SVG 1.1//EN"
 "http://www.w3.org/Graphics/SVG/1.1/DTD/svg11.dtd">
<!-- Generated by graphviz version 2.30.0 (20130114.0426)
 -->
<!-- Title: /Users/rkwright/Documents/github/readium&#45;sdk&#45;D/ePub3/ePub/filter_manager_impl.h Pages: 1 -->
<svg width="158pt" height="136pt"
 viewBox="0.00 0.00 158.00 136.00" xmlns="http://www.w3.org/2000/svg" xmlns:xlink="http://www.w3.org/1999/xlink">
<g id="graph0" class="graph" transform="scale(1 1) rotate(0) translate(4 132)">
<title>/Users/rkwright/Documents/github/readium&#45;sdk&#45;D/ePub3/ePub/filter_manager_impl.h</title>
<polygon fill="white" stroke="white" points="-4,5 -4,-132 155,-132 155,5 -4,5"/>
<!-- Node1 -->
<g id="node1" class="node"><title>Node1</title>
<polygon fill="#bfbfbf" stroke="black" points="1.96582,-83 1.96582,-127 148.034,-127 148.034,-83 1.96582,-83"/>
<text text-anchor="start" x="9.96582" y="-113" font-family="Helvetica,sans-Serif" font-size="10.00">/Users/rkwright/Documents</text>
<text text-anchor="start" x="9.96582" y="-101" font-family="Helvetica,sans-Serif" font-size="10.00">/github/readium&#45;sdk&#45;D/ePub3</text>
<text text-anchor="middle" x="75" y="-89" font-family="Helvetica,sans-Serif" font-size="10.00">/ePub/filter_manager_impl.h</text>
</g>
<!-- Node2 -->
<g id="node2" class="node"><title>Node2</title>
<g id="a_node2"><a xlink:href="filter__manager__impl_8cpp.xhtml" target="_top" xlink:title="/Users/rkwright/Documents\l/github/readium&#45;sdk&#45;D/ePub3\l/ePub/filter_manager_impl.cpp">
<polygon fill="white" stroke="black" points="-0.814941,-1 -0.814941,-45 150.815,-45 150.815,-1 -0.814941,-1"/>
<text text-anchor="start" x="7.18506" y="-31" font-family="Helvetica,sans-Serif" font-size="10.00">/Users/rkwright/Documents</text>
<text text-anchor="start" x="7.18506" y="-19" font-family="Helvetica,sans-Serif" font-size="10.00">/github/readium&#45;sdk&#45;D/ePub3</text>
<text text-anchor="middle" x="75" y="-7" font-family="Helvetica,sans-Serif" font-size="10.00">/ePub/filter_manager_impl.cpp</text>
</a>
</g>
</g>
<!-- Node1&#45;&gt;Node2 -->
<g id="edge1" class="edge"><title>Node1&#45;&gt;Node2</title>
<path fill="none" stroke="midnightblue" d="M75,-72.8963C75,-63.6094 75,-53.6485 75,-45.1564"/>
<polygon fill="midnightblue" stroke="midnightblue" points="71.5001,-72.9809 75,-82.9809 78.5001,-72.981 71.5001,-72.9809"/>
</g>
</g>
</svg>
