<?xml version="1.0" encoding="UTF-8" standalone="no"?>
<!DOCTYPE svg PUBLIC "-//W3C//DTD SVG 1.1//EN"
 "http://www.w3.org/Graphics/SVG/1.1/DTD/svg11.dtd">
<!-- Generated by graphviz version 2.30.0 (20130114.0426)
 -->
<!-- Title: /Users/rkwright/Documents/github/readium&#45;sdk&#45;D/ePub3/ePub/filter.h Pages: 1 -->
<svg width="1684pt" height="612pt"
 viewBox="0.00 0.00 1684.00 612.00" xmlns="http://www.w3.org/2000/svg" xmlns:xlink="http://www.w3.org/1999/xlink">
<g id="graph0" class="graph" transform="scale(1 1) rotate(0) translate(4 608)">
<title>/Users/rkwright/Documents/github/readium&#45;sdk&#45;D/ePub3/ePub/filter.h</title>
<polygon fill="white" stroke="white" points="-4,5 -4,-608 1681,-608 1681,5 -4,5"/>
<!-- Node1 -->
<g id="node1" class="node"><title>Node1</title>
<polygon fill="#bfbfbf" stroke="black" points="704.966,-559 704.966,-603 851.034,-603 851.034,-559 704.966,-559"/>
<text text-anchor="start" x="712.966" y="-589" font-family="Helvetica,sans-Serif" font-size="10.00">/Users/rkwright/Documents</text>
<text text-anchor="start" x="712.966" y="-577" font-family="Helvetica,sans-Serif" font-size="10.00">/github/readium&#45;sdk&#45;D/ePub3</text>
<text text-anchor="middle" x="778" y="-565" font-family="Helvetica,sans-Serif" font-size="10.00">/ePub/filter.h</text>
</g>
<!-- Node2 -->
<g id="node2" class="node"><title>Node2</title>
<g id="a_node2"><a xlink:href="base_8h.xhtml" target="_top" xlink:title="ePub3/base.h">
<polygon fill="white" stroke="black" points="670.141,-175 670.141,-195 747.859,-195 747.859,-175 670.141,-175"/>
<text text-anchor="middle" x="709" y="-181" font-family="Helvetica,sans-Serif" font-size="10.00">ePub3/base.h</text>
</a>
</g>
</g>
<!-- Node1&#45;&gt;Node2 -->
<g id="edge1" class="edge"><title>Node1&#45;&gt;Node2</title>
<path fill="none" stroke="midnightblue" d="M704.542,-574.911C598.453,-566.76 408.146,-548.908 345,-522 288.552,-497.947 237,-497.359 237,-436 237,-436 237,-436 237,-306 237,-264.485 257.818,-252.354 294,-232 355.568,-197.366 563.928,-188.805 659.883,-186.692"/>
<polygon fill="midnightblue" stroke="midnightblue" points="659.986,-190.19 669.912,-186.485 659.842,-183.192 659.986,-190.19"/>
</g>
<!-- Node7 -->
<g id="node7" class="node"><title>Node7</title>
<g id="a_node7"><a xlink:href="basic_8h.xhtml" target="_top" xlink:title="ePub3/utilities/basic.h">
<polygon fill="white" stroke="black" points="398.638,-297 398.638,-317 511.362,-317 511.362,-297 398.638,-297"/>
<text text-anchor="middle" x="455" y="-303" font-family="Helvetica,sans-Serif" font-size="10.00">ePub3/utilities/basic.h</text>
</a>
</g>
</g>
<!-- Node1&#45;&gt;Node7 -->
<g id="edge6" class="edge"><title>Node1&#45;&gt;Node7</title>
<path fill="none" stroke="midnightblue" d="M704.733,-571.471C582.136,-555.526 343.909,-516.823 294,-452 250.658,-395.706 359.643,-343.868 419.232,-320.721"/>
<polygon fill="midnightblue" stroke="midnightblue" points="420.586,-323.951 428.69,-317.126 418.099,-317.407 420.586,-323.951"/>
</g>
<!-- Node13 -->
<g id="node13" class="node"><title>Node13</title>
<polygon fill="white" stroke="#bfbfbf" points="1462.09,-495 1462.09,-515 1555.91,-515 1555.91,-495 1462.09,-495"/>
<text text-anchor="middle" x="1509" y="-501" font-family="Helvetica,sans-Serif" font-size="10.00">ePub3/manifest.h</text>
</g>
<!-- Node1&#45;&gt;Node13 -->
<g id="edge13" class="edge"><title>Node1&#45;&gt;Node13</title>
<path fill="none" stroke="midnightblue" d="M851.393,-577.729C975.22,-572.989 1233.16,-559.197 1448,-522 1454.81,-520.82 1461.98,-519.249 1468.9,-517.551"/>
<polygon fill="midnightblue" stroke="midnightblue" points="1470,-520.883 1478.82,-515.003 1468.26,-514.103 1470,-520.883"/>
</g>
<!-- Node14 -->
<g id="node14" class="node"><title>Node14</title>
<polygon fill="white" stroke="#bfbfbf" points="1573.91,-495 1573.91,-515 1676.09,-515 1676.09,-495 1573.91,-495"/>
<text text-anchor="middle" x="1625" y="-501" font-family="Helvetica,sans-Serif" font-size="10.00">ePub3/encryption.h</text>
</g>
<!-- Node1&#45;&gt;Node14 -->
<g id="edge14" class="edge"><title>Node1&#45;&gt;Node14</title>
<path fill="none" stroke="midnightblue" d="M851.133,-579.054C990.676,-576.269 1304.18,-565.286 1564,-522 1570.82,-520.864 1577.99,-519.314 1584.92,-517.625"/>
<polygon fill="midnightblue" stroke="midnightblue" points="1586.01,-520.957 1594.83,-515.081 1584.27,-514.177 1586.01,-520.957"/>
</g>
<!-- Node15 -->
<g id="node15" class="node"><title>Node15</title>
<polygon fill="white" stroke="#bfbfbf" points="1207.77,-233 1207.77,-253 1248.23,-253 1248.23,-233 1207.77,-233"/>
<text text-anchor="middle" x="1228" y="-239" font-family="Helvetica,sans-Serif" font-size="10.00">string</text>
</g>
<!-- Node1&#45;&gt;Node15 -->
<g id="edge15" class="edge"><title>Node1&#45;&gt;Node15</title>
<path fill="none" stroke="midnightblue" d="M851.342,-579.244C1022.52,-575.499 1434,-554.204 1434,-436 1434,-436 1434,-436 1434,-370 1434,-288.698 1315.78,-258.268 1258.46,-248.291"/>
<polygon fill="midnightblue" stroke="midnightblue" points="1258.94,-244.823 1248.51,-246.659 1257.81,-251.731 1258.94,-244.823"/>
</g>
<!-- Node16 -->
<g id="node16" class="node"><title>Node16</title>
<polygon fill="white" stroke="#bfbfbf" points="931.596,-425 931.596,-445 990.404,-445 990.404,-425 931.596,-425"/>
<text text-anchor="middle" x="961" y="-431" font-family="Helvetica,sans-Serif" font-size="10.00">functional</text>
</g>
<!-- Node1&#45;&gt;Node16 -->
<g id="edge16" class="edge"><title>Node1&#45;&gt;Node16</title>
<path fill="none" stroke="midnightblue" d="M805.002,-558.752C842.239,-529.451 908.473,-477.333 941.355,-451.459"/>
<polygon fill="midnightblue" stroke="midnightblue" points="943.632,-454.12 949.327,-445.186 939.303,-448.619 943.632,-454.12"/>
</g>
<!-- Node10 -->
<g id="node10" class="node"><title>Node10</title>
<polygon fill="white" stroke="#bfbfbf" points="129.943,-175 129.943,-195 182.057,-195 182.057,-175 129.943,-175"/>
<text text-anchor="middle" x="156" y="-181" font-family="Helvetica,sans-Serif" font-size="10.00">memory</text>
</g>
<!-- Node1&#45;&gt;Node10 -->
<g id="edge17" class="edge"><title>Node1&#45;&gt;Node10</title>
<path fill="none" stroke="midnightblue" d="M704.808,-574.126C511.135,-557.606 0,-507.257 0,-436 0,-436 0,-436 0,-306 0,-245.676 74.1925,-211.483 120.246,-196.07"/>
<polygon fill="midnightblue" stroke="midnightblue" points="121.436,-199.364 129.889,-192.978 119.298,-192.699 121.436,-199.364"/>
</g>
<!-- Node17 -->
<g id="node17" class="node"><title>Node17</title>
<g id="a_node17"><a xlink:href="byte__stream_8h.xhtml" target="_top" xlink:title="ePub3/utilities/byte\l_stream.h">
<polygon fill="white" stroke="black" points="654.03,-489 654.03,-521 753.97,-521 753.97,-489 654.03,-489"/>
<text text-anchor="start" x="662.03" y="-507" font-family="Helvetica,sans-Serif" font-size="10.00">ePub3/utilities/byte</text>
<text text-anchor="middle" x="704" y="-495" font-family="Helvetica,sans-Serif" font-size="10.00">_stream.h</text>
</a>
</g>
</g>
<!-- Node1&#45;&gt;Node17 -->
<g id="edge18" class="edge"><title>Node1&#45;&gt;Node17</title>
<path fill="none" stroke="midnightblue" d="M756.993,-558.993C747.552,-549.552 736.391,-538.391 726.753,-528.753"/>
<polygon fill="midnightblue" stroke="midnightblue" points="728.957,-526.008 719.412,-521.412 724.008,-530.957 728.957,-526.008"/>
</g>
<!-- Node3 -->
<g id="node3" class="node"><title>Node3</title>
<g id="a_node3"><a xlink:href="__config_8h.xhtml" target="_top" xlink:title="_config.h">
<polygon fill="white" stroke="black" points="645.707,-117 645.707,-137 702.293,-137 702.293,-117 645.707,-117"/>
<text text-anchor="middle" x="674" y="-123" font-family="Helvetica,sans-Serif" font-size="10.00">_config.h</text>
</a>
</g>
</g>
<!-- Node2&#45;&gt;Node3 -->
<g id="edge2" class="edge"><title>Node2&#45;&gt;Node3</title>
<path fill="none" stroke="midnightblue" d="M703.22,-174.753C698.277,-166.843 691.023,-155.237 684.98,-145.568"/>
<polygon fill="midnightblue" stroke="midnightblue" points="687.94,-143.7 679.672,-137.075 682.004,-147.41 687.94,-143.7"/>
</g>
<!-- Node6 -->
<g id="node6" class="node"><title>Node6</title>
<polygon fill="white" stroke="#bfbfbf" points="720.158,-117 720.158,-137 767.842,-137 767.842,-117 720.158,-117"/>
<text text-anchor="middle" x="744" y="-123" font-family="Helvetica,sans-Serif" font-size="10.00">stdlib.h</text>
</g>
<!-- Node2&#45;&gt;Node6 -->
<g id="edge5" class="edge"><title>Node2&#45;&gt;Node6</title>
<path fill="none" stroke="midnightblue" d="M714.78,-174.753C719.723,-166.843 726.977,-155.237 733.02,-145.568"/>
<polygon fill="midnightblue" stroke="midnightblue" points="735.996,-147.41 738.328,-137.075 730.06,-143.7 735.996,-147.41"/>
</g>
<!-- Node4 -->
<g id="node4" class="node"><title>Node4</title>
<g id="a_node4"><a xlink:href="__platform_8h.xhtml" target="_top" xlink:title="_platform.h">
<polygon fill="white" stroke="black" points="640.988,-59 640.988,-79 707.012,-79 707.012,-59 640.988,-59"/>
<text text-anchor="middle" x="674" y="-65" font-family="Helvetica,sans-Serif" font-size="10.00">_platform.h</text>
</a>
</g>
</g>
<!-- Node3&#45;&gt;Node4 -->
<g id="edge3" class="edge"><title>Node3&#45;&gt;Node4</title>
<path fill="none" stroke="midnightblue" d="M674,-116.753C674,-109.25 674,-98.4238 674,-89.0781"/>
<polygon fill="midnightblue" stroke="midnightblue" points="677.5,-89.0752 674,-79.0752 670.5,-89.0752 677.5,-89.0752"/>
</g>
<!-- Node5 -->
<g id="node5" class="node"><title>Node5</title>
<g id="a_node5"><a xlink:href="__compiler_8h.xhtml" target="_top" xlink:title="_compiler.h">
<polygon fill="white" stroke="black" points="640.429,-1 640.429,-21 707.571,-21 707.571,-1 640.429,-1"/>
<text text-anchor="middle" x="674" y="-7" font-family="Helvetica,sans-Serif" font-size="10.00">_compiler.h</text>
</a>
</g>
</g>
<!-- Node4&#45;&gt;Node5 -->
<g id="edge4" class="edge"><title>Node4&#45;&gt;Node5</title>
<path fill="none" stroke="midnightblue" d="M674,-58.7527C674,-51.2504 674,-40.4238 674,-31.0781"/>
<polygon fill="midnightblue" stroke="midnightblue" points="677.5,-31.0752 674,-21.0752 670.5,-31.0752 677.5,-31.0752"/>
</g>
<!-- Node7&#45;&gt;Node2 -->
<g id="edge7" class="edge"><title>Node7&#45;&gt;Node2</title>
<path fill="none" stroke="midnightblue" d="M478.572,-296.839C503.236,-287.03 542.898,-270.621 576,-254 593.44,-245.243 596.762,-241.148 614,-232 635.779,-220.443 660.907,-208.328 679.847,-199.433"/>
<polygon fill="midnightblue" stroke="midnightblue" points="681.557,-202.498 689.137,-195.096 678.596,-196.155 681.557,-202.498"/>
</g>
<!-- Node8 -->
<g id="node8" class="node"><title>Node8</title>
<polygon fill="white" stroke="#bfbfbf" points="452.815,-233 452.815,-253 567.185,-253 567.185,-233 452.815,-233"/>
<text text-anchor="middle" x="510" y="-239" font-family="Helvetica,sans-Serif" font-size="10.00">ePub3/xml/xmlstring.h</text>
</g>
<!-- Node7&#45;&gt;Node8 -->
<g id="edge8" class="edge"><title>Node7&#45;&gt;Node8</title>
<path fill="none" stroke="midnightblue" d="M463.115,-296.852C471.483,-287.419 484.723,-272.495 495.002,-260.907"/>
<polygon fill="midnightblue" stroke="midnightblue" points="497.833,-262.989 501.851,-253.186 492.597,-258.344 497.833,-262.989"/>
</g>
<!-- Node9 -->
<g id="node9" class="node"><title>Node9</title>
<polygon fill="white" stroke="#bfbfbf" points="383.219,-233 383.219,-253 434.781,-253 434.781,-233 383.219,-233"/>
<text text-anchor="middle" x="409" y="-239" font-family="Helvetica,sans-Serif" font-size="10.00">sstream</text>
</g>
<!-- Node7&#45;&gt;Node9 -->
<g id="edge9" class="edge"><title>Node7&#45;&gt;Node9</title>
<path fill="none" stroke="midnightblue" d="M448.213,-296.852C441.282,-287.511 430.356,-272.784 421.795,-261.246"/>
<polygon fill="midnightblue" stroke="midnightblue" points="424.585,-259.131 415.815,-253.186 418.963,-263.302 424.585,-259.131"/>
</g>
<!-- Node7&#45;&gt;Node10 -->
<g id="edge10" class="edge"><title>Node7&#45;&gt;Node10</title>
<path fill="none" stroke="midnightblue" d="M422.433,-296.995C389.557,-287.554 337.555,-271.655 294,-254 253.701,-237.665 208.846,-214.604 181.529,-199.98"/>
<polygon fill="midnightblue" stroke="midnightblue" points="183.097,-196.849 172.634,-195.183 179.774,-203.01 183.097,-196.849"/>
</g>
<!-- Node11 -->
<g id="node11" class="node"><title>Node11</title>
<polygon fill="white" stroke="#bfbfbf" points="670.384,-233 670.384,-253 713.616,-253 713.616,-233 670.384,-233"/>
<text text-anchor="middle" x="692" y="-239" font-family="Helvetica,sans-Serif" font-size="10.00">vector</text>
</g>
<!-- Node7&#45;&gt;Node11 -->
<g id="edge11" class="edge"><title>Node7&#45;&gt;Node11</title>
<path fill="none" stroke="midnightblue" d="M493.927,-296.969C533.469,-287.619 596.662,-272.195 660.535,-253.997"/>
<polygon fill="midnightblue" stroke="midnightblue" points="661.728,-257.296 670.375,-251.173 659.797,-250.568 661.728,-257.296"/>
</g>
<!-- Node12 -->
<g id="node12" class="node"><title>Node12</title>
<polygon fill="white" stroke="#bfbfbf" points="623.5,-233 623.5,-253 652.5,-253 652.5,-233 623.5,-233"/>
<text text-anchor="middle" x="637.611" y="-239" font-family="Helvetica,sans-Serif" font-size="10.00">list</text>
</g>
<!-- Node7&#45;&gt;Node12 -->
<g id="edge12" class="edge"><title>Node7&#45;&gt;Node12</title>
<path fill="none" stroke="midnightblue" d="M482.002,-296.941C512.765,-286.606 564.533,-269.174 609,-254 610.449,-253.506 611.938,-252.996 613.441,-252.481"/>
<polygon fill="midnightblue" stroke="midnightblue" points="614.936,-255.668 623.253,-249.106 612.659,-249.049 614.936,-255.668"/>
</g>
<!-- Node18 -->
<g id="node18" class="node"><title>Node18</title>
<polygon fill="white" stroke="#bfbfbf" points="538.079,-361 538.079,-381 621.921,-381 621.921,-361 538.079,-361"/>
<text text-anchor="middle" x="580" y="-367" font-family="Helvetica,sans-Serif" font-size="10.00">ePub3/epub3.h</text>
</g>
<!-- Node17&#45;&gt;Node18 -->
<g id="edge19" class="edge"><title>Node17&#45;&gt;Node18</title>
<path fill="none" stroke="midnightblue" d="M713.986,-488.842C724.749,-470.404 738.4,-439.131 723,-418 716.982,-409.742 664.74,-394.356 625.125,-383.663"/>
<polygon fill="midnightblue" stroke="midnightblue" points="625.926,-380.255 615.361,-381.053 624.118,-387.017 625.926,-380.255"/>
</g>
<!-- Node19 -->
<g id="node19" class="node"><title>Node19</title>
<g id="a_node19"><a xlink:href="ring__buffer_8h.xhtml" target="_top" xlink:title="ePub3/utilities/ring\l_buffer.h">
<polygon fill="white" stroke="black" points="617.143,-419 617.143,-451 714.857,-451 714.857,-419 617.143,-419"/>
<text text-anchor="start" x="625.143" y="-437" font-family="Helvetica,sans-Serif" font-size="10.00">ePub3/utilities/ring</text>
<text text-anchor="middle" x="666" y="-425" font-family="Helvetica,sans-Serif" font-size="10.00">_buffer.h</text>
</a>
</g>
</g>
<!-- Node17&#45;&gt;Node19 -->
<g id="edge20" class="edge"><title>Node17&#45;&gt;Node19</title>
<path fill="none" stroke="midnightblue" d="M695.567,-488.909C690.794,-480.369 684.718,-469.496 679.317,-459.83"/>
<polygon fill="midnightblue" stroke="midnightblue" points="682.343,-458.071 674.41,-451.049 676.233,-461.486 682.343,-458.071"/>
</g>
<!-- Node17&#45;&gt;Node16 -->
<g id="edge24" class="edge"><title>Node17&#45;&gt;Node16</title>
<path fill="none" stroke="midnightblue" d="M754.393,-494.298C798.974,-485.169 865.524,-470.199 922,-452 924.969,-451.043 928.031,-449.961 931.072,-448.823"/>
<polygon fill="midnightblue" stroke="midnightblue" points="932.557,-452 940.577,-445.076 929.99,-445.487 932.557,-452"/>
</g>
<!-- Node21 -->
<g id="node21" class="node"><title>Node21</title>
<polygon fill="white" stroke="#bfbfbf" points="884.5,-425 884.5,-445 913.5,-445 913.5,-425 884.5,-425"/>
<text text-anchor="middle" x="898.892" y="-431" font-family="Helvetica,sans-Serif" font-size="10.00">ios</text>
</g>
<!-- Node17&#45;&gt;Node21 -->
<g id="edge25" class="edge"><title>Node17&#45;&gt;Node21</title>
<path fill="none" stroke="midnightblue" d="M754.071,-492.895C788.944,-484.18 836.006,-470.434 875,-452 875.996,-451.529 876.998,-451.021 877.998,-450.486"/>
<polygon fill="midnightblue" stroke="midnightblue" points="879.977,-453.379 886.705,-445.195 876.342,-447.396 879.977,-453.379"/>
</g>
<!-- Node22 -->
<g id="node22" class="node"><title>Node22</title>
<polygon fill="white" stroke="#bfbfbf" points="302.823,-425 302.823,-445 347.177,-445 347.177,-425 302.823,-425"/>
<text text-anchor="middle" x="325" y="-431" font-family="Helvetica,sans-Serif" font-size="10.00">thread</text>
</g>
<!-- Node17&#45;&gt;Node22 -->
<g id="edge26" class="edge"><title>Node17&#45;&gt;Node22</title>
<path fill="none" stroke="midnightblue" d="M653.846,-501.657C585.145,-497.299 458.601,-485.137 356,-452 353.714,-451.262 351.393,-450.368 349.102,-449.386"/>
<polygon fill="midnightblue" stroke="midnightblue" points="350.55,-446.198 340.022,-445.01 347.512,-452.504 350.55,-446.198"/>
</g>
<!-- Node23 -->
<g id="node23" class="node"><title>Node23</title>
<g id="a_node23"><a xlink:href="run__loop_8h.xhtml" target="_top" xlink:title="ePub3/utilities/run\l_loop.h">
<polygon fill="white" stroke="black" points="771.254,-419 771.254,-451 866.746,-451 866.746,-419 771.254,-419"/>
<text text-anchor="start" x="779.254" y="-437" font-family="Helvetica,sans-Serif" font-size="10.00">ePub3/utilities/run</text>
<text text-anchor="middle" x="819" y="-425" font-family="Helvetica,sans-Serif" font-size="10.00">_loop.h</text>
</a>
</g>
</g>
<!-- Node17&#45;&gt;Node23 -->
<g id="edge27" class="edge"><title>Node17&#45;&gt;Node23</title>
<path fill="none" stroke="midnightblue" d="M729.522,-488.909C745.751,-479.313 766.963,-466.77 784.66,-456.305"/>
<polygon fill="midnightblue" stroke="midnightblue" points="786.723,-459.152 793.549,-451.049 783.16,-453.126 786.723,-459.152"/>
</g>
<!-- Node43 -->
<g id="node43" class="node"><title>Node43</title>
<g id="a_node43"><a xlink:href="make__unique_8h.xhtml" target="_top" xlink:title="ePub3/utilities/make\l_unique.h">
<polygon fill="white" stroke="black" points="101.254,-291 101.254,-323 206.746,-323 206.746,-291 101.254,-291"/>
<text text-anchor="start" x="109.254" y="-309" font-family="Helvetica,sans-Serif" font-size="10.00">ePub3/utilities/make</text>
<text text-anchor="middle" x="154" y="-297" font-family="Helvetica,sans-Serif" font-size="10.00">_unique.h</text>
</a>
</g>
</g>
<!-- Node17&#45;&gt;Node43 -->
<g id="edge60" class="edge"><title>Node17&#45;&gt;Node43</title>
<path fill="none" stroke="midnightblue" d="M653.726,-501.757C558.573,-496.842 356.116,-482.994 294,-452 238.389,-424.252 192.349,-365.336 169.511,-332.105"/>
<polygon fill="midnightblue" stroke="midnightblue" points="172.181,-329.805 163.696,-323.461 166.373,-333.712 172.181,-329.805"/>
</g>
<!-- Node46 -->
<g id="node46" class="node"><title>Node46</title>
<polygon fill="white" stroke="#bfbfbf" points="365.244,-425 365.244,-445 480.756,-445 480.756,-425 365.244,-425"/>
<text text-anchor="middle" x="423" y="-431" font-family="Helvetica,sans-Serif" font-size="10.00">google&#45;url/url_canon.h</text>
</g>
<!-- Node17&#45;&gt;Node46 -->
<g id="edge66" class="edge"><title>Node17&#45;&gt;Node46</title>
<path fill="none" stroke="midnightblue" d="M653.606,-491.82C610.034,-481.286 545.359,-465.647 489,-452 482.909,-450.525 476.502,-448.973 470.172,-447.439"/>
<polygon fill="midnightblue" stroke="midnightblue" points="470.89,-444.012 460.347,-445.057 469.241,-450.815 470.89,-444.012"/>
</g>
<!-- Node47 -->
<g id="node47" class="node"><title>Node47</title>
<polygon fill="white" stroke="#bfbfbf" points="498.476,-425 498.476,-445 599.524,-445 599.524,-425 498.476,-425"/>
<text text-anchor="middle" x="549" y="-431" font-family="Helvetica,sans-Serif" font-size="10.00">google&#45;url/url_util.h</text>
</g>
<!-- Node17&#45;&gt;Node47 -->
<g id="edge67" class="edge"><title>Node17&#45;&gt;Node47</title>
<path fill="none" stroke="midnightblue" d="M669.6,-488.909C642.395,-476.973 604.801,-460.48 578.852,-449.096"/>
<polygon fill="midnightblue" stroke="midnightblue" points="580.086,-445.816 569.523,-445.004 577.274,-452.226 580.086,-445.816"/>
</g>
<!-- Node19&#45;&gt;Node18 -->
<g id="edge21" class="edge"><title>Node19&#45;&gt;Node18</title>
<path fill="none" stroke="midnightblue" d="M645.182,-418.992C631.725,-409.29 614.277,-396.711 600.82,-387.009"/>
<polygon fill="midnightblue" stroke="midnightblue" points="602.793,-384.118 592.635,-381.109 598.7,-389.796 602.793,-384.118"/>
</g>
<!-- Node19&#45;&gt;Node7 -->
<g id="edge22" class="edge"><title>Node19&#45;&gt;Node7</title>
<path fill="none" stroke="midnightblue" d="M620.147,-418.917C586.672,-407.474 544.541,-392.051 529,-382 504.836,-366.372 482.245,-341.755 468.531,-325.254"/>
<polygon fill="midnightblue" stroke="midnightblue" points="471.225,-323.019 462.208,-317.456 465.788,-327.428 471.225,-323.019"/>
</g>
<!-- Node20 -->
<g id="node20" class="node"><title>Node20</title>
<polygon fill="white" stroke="#bfbfbf" points="640.384,-361 640.384,-381 683.616,-381 683.616,-361 640.384,-361"/>
<text text-anchor="middle" x="662" y="-367" font-family="Helvetica,sans-Serif" font-size="10.00">mutex</text>
</g>
<!-- Node19&#45;&gt;Node20 -->
<g id="edge23" class="edge"><title>Node19&#45;&gt;Node20</title>
<path fill="none" stroke="midnightblue" d="M665.032,-418.992C664.498,-410.726 663.831,-400.373 663.257,-391.489"/>
<polygon fill="midnightblue" stroke="midnightblue" points="666.736,-391.044 662.599,-381.29 659.751,-391.495 666.736,-391.044"/>
</g>
<!-- Node23&#45;&gt;Node2 -->
<g id="edge28" class="edge"><title>Node23&#45;&gt;Node2</title>
<path fill="none" stroke="midnightblue" d="M867.048,-419.161C905.275,-407.136 955.478,-390.795 975,-382 992.793,-373.984 994.426,-365.987 1013,-360 1090.15,-335.131 1321.58,-384.082 1376,-324 1386.14,-312.8 1383.3,-303.231 1376,-290 1352.65,-247.677 1329.86,-247.258 1284,-232 1186.93,-199.708 878.602,-189.661 758.013,-186.92"/>
<polygon fill="midnightblue" stroke="midnightblue" points="758.032,-183.419 747.957,-186.698 757.878,-190.418 758.032,-183.419"/>
</g>
<!-- Node24 -->
<g id="node24" class="node"><title>Node24</title>
<polygon fill="white" stroke="#bfbfbf" points="1021.69,-361 1021.69,-381 1118.31,-381 1118.31,-361 1021.69,-361"/>
<text text-anchor="middle" x="1070" y="-367" font-family="Helvetica,sans-Serif" font-size="10.00">condition_variable</text>
</g>
<!-- Node23&#45;&gt;Node24 -->
<g id="edge29" class="edge"><title>Node23&#45;&gt;Node24</title>
<path fill="none" stroke="midnightblue" d="M866.921,-420.149C869.651,-419.41 872.358,-418.689 875,-418 923.767,-405.289 979.796,-392.231 1019.24,-383.291"/>
<polygon fill="midnightblue" stroke="midnightblue" points="1020.17,-386.67 1029.15,-381.053 1018.63,-379.842 1020.17,-386.67"/>
</g>
<!-- Node25 -->
<g id="node25" class="node"><title>Node25</title>
<polygon fill="white" stroke="#bfbfbf" points="1135.87,-361 1135.87,-381 1194.13,-381 1194.13,-361 1135.87,-361"/>
<text text-anchor="middle" x="1165" y="-367" font-family="Helvetica,sans-Serif" font-size="10.00">pthread.h</text>
</g>
<!-- Node23&#45;&gt;Node25 -->
<g id="edge30" class="edge"><title>Node23&#45;&gt;Node25</title>
<path fill="none" stroke="midnightblue" d="M866.853,-419.863C869.6,-419.197 872.33,-418.569 875,-418 982.516,-395.073 1014.32,-403.893 1125.68,-382.077"/>
<polygon fill="midnightblue" stroke="midnightblue" points="1126.5,-385.482 1135.62,-380.09 1125.13,-378.617 1126.5,-385.482"/>
</g>
<!-- Node26 -->
<g id="node26" class="node"><title>Node26</title>
<polygon fill="white" stroke="#bfbfbf" points="1212.38,-361 1212.38,-381 1255.62,-381 1255.62,-361 1212.38,-361"/>
<text text-anchor="middle" x="1234" y="-367" font-family="Helvetica,sans-Serif" font-size="10.00">time.h</text>
</g>
<!-- Node23&#45;&gt;Node26 -->
<g id="edge31" class="edge"><title>Node23&#45;&gt;Node26</title>
<path fill="none" stroke="midnightblue" d="M866.832,-419.759C869.584,-419.119 872.321,-418.526 875,-418 1015.68,-390.389 1057.71,-411.665 1202.02,-381.801"/>
<polygon fill="midnightblue" stroke="midnightblue" points="1203.08,-385.155 1212.13,-379.66 1201.63,-378.307 1203.08,-385.155"/>
</g>
<!-- Node23&#45;&gt;Node18 -->
<g id="edge32" class="edge"><title>Node23&#45;&gt;Node18</title>
<path fill="none" stroke="midnightblue" d="M771.209,-421.602C728.547,-410.535 666.535,-394.449 624.807,-383.624"/>
<polygon fill="midnightblue" stroke="midnightblue" points="625.48,-380.182 614.922,-381.059 623.722,-386.958 625.48,-380.182"/>
</g>
<!-- Node23&#45;&gt;Node7 -->
<g id="edge33" class="edge"><title>Node23&#45;&gt;Node7</title>
<path fill="none" stroke="midnightblue" d="M793.482,-418.855C757.965,-397.817 697.353,-362.076 692,-360 621.21,-332.547 599.122,-340.46 525,-324 518.295,-322.511 511.234,-320.922 504.281,-319.345"/>
<polygon fill="midnightblue" stroke="midnightblue" points="504.752,-315.863 494.225,-317.056 503.198,-322.688 504.752,-315.863"/>
</g>
<!-- Node27 -->
<g id="node27" class="node"><title>Node27</title>
<g id="a_node27"><a xlink:href="utfstring_8h.xhtml" target="_top" xlink:title="ePub3/utilities/utfstring.h">
<polygon fill="white" stroke="black" points="841.525,-361 841.525,-381 966.475,-381 966.475,-361 841.525,-361"/>
<text text-anchor="middle" x="904" y="-367" font-family="Helvetica,sans-Serif" font-size="10.00">ePub3/utilities/utfstring.h</text>
</a>
</g>
</g>
<!-- Node23&#45;&gt;Node27 -->
<g id="edge34" class="edge"><title>Node23&#45;&gt;Node27</title>
<path fill="none" stroke="midnightblue" d="M839.576,-418.992C852.796,-409.349 869.913,-396.864 883.18,-387.186"/>
<polygon fill="midnightblue" stroke="midnightblue" points="885.247,-390.011 891.263,-381.29 881.121,-384.356 885.247,-390.011"/>
</g>
<!-- Node41 -->
<g id="node41" class="node"><title>Node41</title>
<polygon fill="white" stroke="#bfbfbf" points="1273.71,-361 1273.71,-381 1320.29,-381 1320.29,-361 1273.71,-361"/>
<text text-anchor="middle" x="1297" y="-367" font-family="Helvetica,sans-Serif" font-size="10.00">chrono</text>
</g>
<!-- Node23&#45;&gt;Node41 -->
<g id="edge56" class="edge"><title>Node23&#45;&gt;Node41</title>
<path fill="none" stroke="midnightblue" d="M866.821,-419.704C869.576,-419.078 872.317,-418.503 875,-418 1042.49,-386.606 1091.78,-414.279 1263.82,-381.611"/>
<polygon fill="midnightblue" stroke="midnightblue" points="1264.56,-385.033 1273.71,-379.693 1263.23,-378.161 1264.56,-385.033"/>
</g>
<!-- Node23&#45;&gt;Node12 -->
<g id="edge57" class="edge"><title>Node23&#45;&gt;Node12</title>
<path fill="none" stroke="midnightblue" d="M818.273,-418.728C816.599,-401.733 811.201,-374.73 794,-360 722.741,-298.975 646.419,-395.774 586,-324 576.269,-312.44 579.793,-303.778 586,-290 592.016,-276.646 604.037,-265.605 615.007,-257.69"/>
<polygon fill="midnightblue" stroke="midnightblue" points="617.091,-260.507 623.444,-252.028 613.19,-254.694 617.091,-260.507"/>
</g>
<!-- Node23&#45;&gt;Node20 -->
<g id="edge58" class="edge"><title>Node23&#45;&gt;Node20</title>
<path fill="none" stroke="midnightblue" d="M780.995,-418.992C754.076,-408.361 718.408,-394.276 693.164,-384.307"/>
<polygon fill="midnightblue" stroke="midnightblue" points="694.293,-380.99 683.707,-380.572 691.722,-387.5 694.293,-380.99"/>
</g>
<!-- Node42 -->
<g id="node42" class="node"><title>Node42</title>
<polygon fill="white" stroke="#bfbfbf" points="740.273,-361 740.273,-381 785.727,-381 785.727,-361 740.273,-361"/>
<text text-anchor="middle" x="763" y="-367" font-family="Helvetica,sans-Serif" font-size="10.00">atomic</text>
</g>
<!-- Node23&#45;&gt;Node42 -->
<g id="edge59" class="edge"><title>Node23&#45;&gt;Node42</title>
<path fill="none" stroke="midnightblue" d="M805.444,-418.992C797.232,-409.9 786.738,-398.281 778.239,-388.872"/>
<polygon fill="midnightblue" stroke="midnightblue" points="780.692,-386.365 771.391,-381.29 775.497,-391.057 780.692,-386.365"/>
</g>
<!-- Node27&#45;&gt;Node7 -->
<g id="edge35" class="edge"><title>Node27&#45;&gt;Node7</title>
<path fill="none" stroke="midnightblue" d="M841.43,-361.807C773.011,-352.791 660.151,-337.748 563,-324 549.69,-322.116 535.465,-320.048 521.855,-318.043"/>
<polygon fill="midnightblue" stroke="midnightblue" points="521.996,-314.526 511.592,-316.525 520.972,-321.45 521.996,-314.526"/>
</g>
<!-- Node28 -->
<g id="node28" class="node"><title>Node28</title>
<g id="a_node28"><a xlink:href="integer__sequence_8h.xhtml" target="_top" xlink:title="ePub3/utilities/integer\l_sequence.h">
<polygon fill="white" stroke="black" points="1256.19,-291 1256.19,-323 1367.81,-323 1367.81,-291 1256.19,-291"/>
<text text-anchor="start" x="1264.19" y="-309" font-family="Helvetica,sans-Serif" font-size="10.00">ePub3/utilities/integer</text>
<text text-anchor="middle" x="1312" y="-297" font-family="Helvetica,sans-Serif" font-size="10.00">_sequence.h</text>
</a>
</g>
</g>
<!-- Node27&#45;&gt;Node28 -->
<g id="edge36" class="edge"><title>Node27&#45;&gt;Node28</title>
<path fill="none" stroke="midnightblue" d="M966.757,-361.607C1060.77,-349.012 1228.64,-326.432 1242,-324 1243.28,-323.768 1244.56,-323.528 1245.86,-323.282"/>
<polygon fill="midnightblue" stroke="midnightblue" points="1246.8,-326.663 1255.93,-321.281 1245.44,-319.798 1246.8,-326.663"/>
</g>
<!-- Node29 -->
<g id="node29" class="node"><title>Node29</title>
<g id="a_node29"><a xlink:href="string__view_8h.xhtml" target="_top" xlink:title="ePub3/utilities/string\l_view.h">
<polygon fill="white" stroke="black" points="851.254,-291 851.254,-323 956.746,-323 956.746,-291 851.254,-291"/>
<text text-anchor="start" x="859.254" y="-309" font-family="Helvetica,sans-Serif" font-size="10.00">ePub3/utilities/string</text>
<text text-anchor="middle" x="904" y="-297" font-family="Helvetica,sans-Serif" font-size="10.00">_view.h</text>
</a>
</g>
</g>
<!-- Node27&#45;&gt;Node29 -->
<g id="edge38" class="edge"><title>Node27&#45;&gt;Node29</title>
<path fill="none" stroke="midnightblue" d="M904,-360.852C904,-353.629 904,-343.185 904,-333.486"/>
<polygon fill="midnightblue" stroke="midnightblue" points="907.5,-333.44 904,-323.44 900.5,-333.44 907.5,-333.44"/>
</g>
<!-- Node27&#45;&gt;Node15 -->
<g id="edge47" class="edge"><title>Node27&#45;&gt;Node15</title>
<path fill="none" stroke="midnightblue" d="M966.778,-361.424C1054.75,-349.281 1204.55,-328.09 1209,-324 1225.71,-308.634 1228.99,-281.495 1229.08,-263.135"/>
<polygon fill="midnightblue" stroke="midnightblue" points="1232.57,-262.926 1228.81,-253.021 1225.58,-263.109 1232.57,-262.926"/>
</g>
<!-- Node35 -->
<g id="node35" class="node"><title>Node35</title>
<polygon fill="white" stroke="#bfbfbf" points="974.438,-297 974.438,-317 1021.56,-317 1021.56,-297 974.438,-297"/>
<text text-anchor="middle" x="998" y="-303" font-family="Helvetica,sans-Serif" font-size="10.00">iterator</text>
</g>
<!-- Node27&#45;&gt;Node35 -->
<g id="edge48" class="edge"><title>Node27&#45;&gt;Node35</title>
<path fill="none" stroke="midnightblue" d="M917.87,-360.852C933.004,-350.87 957.463,-334.737 975.383,-322.918"/>
<polygon fill="midnightblue" stroke="midnightblue" points="977.652,-325.614 984.073,-317.186 973.798,-319.77 977.652,-325.614"/>
</g>
<!-- Node36 -->
<g id="node36" class="node"><title>Node36</title>
<polygon fill="white" stroke="#bfbfbf" points="1039.94,-297 1039.94,-317 1082.06,-317 1082.06,-297 1039.94,-297"/>
<text text-anchor="middle" x="1061" y="-303" font-family="Helvetica,sans-Serif" font-size="10.00">locale</text>
</g>
<!-- Node27&#45;&gt;Node36 -->
<g id="edge49" class="edge"><title>Node27&#45;&gt;Node36</title>
<path fill="none" stroke="midnightblue" d="M931.926,-360.938C957.726,-352.301 996.943,-338.496 1030,-324 1031.79,-323.216 1033.62,-322.375 1035.45,-321.505"/>
<polygon fill="midnightblue" stroke="midnightblue" points="1037.06,-324.614 1044.46,-317.029 1033.94,-318.346 1037.06,-324.614"/>
</g>
<!-- Node27&#45;&gt;Node11 -->
<g id="edge50" class="edge"><title>Node27&#45;&gt;Node11</title>
<path fill="none" stroke="midnightblue" d="M841.21,-361.662C752.307,-349.71 599.993,-328.633 596,-324 586.136,-312.553 587.948,-302.787 596,-290 603.433,-278.196 635.482,-264.317 660.531,-254.916"/>
<polygon fill="midnightblue" stroke="midnightblue" points="661.877,-258.15 670.062,-251.424 659.469,-251.578 661.877,-258.15"/>
</g>
<!-- Node37 -->
<g id="node37" class="node"><title>Node37</title>
<polygon fill="white" stroke="#bfbfbf" points="1099.77,-297 1099.77,-317 1200.23,-317 1200.23,-297 1099.77,-297"/>
<text text-anchor="middle" x="1150" y="-303" font-family="Helvetica,sans-Serif" font-size="10.00">REGEX_INCLUDE</text>
</g>
<!-- Node27&#45;&gt;Node37 -->
<g id="edge51" class="edge"><title>Node27&#45;&gt;Node37</title>
<path fill="none" stroke="midnightblue" d="M942.03,-360.923C979.862,-351.829 1039.53,-337.307 1091,-324 1096.33,-322.622 1101.92,-321.145 1107.45,-319.667"/>
<polygon fill="midnightblue" stroke="midnightblue" points="1108.52,-323.003 1117.27,-317.024 1106.7,-316.244 1108.52,-323.003"/>
</g>
<!-- Node38 -->
<g id="node38" class="node"><title>Node38</title>
<polygon fill="white" stroke="#bfbfbf" points="605.273,-297 605.273,-317 640.727,-317 640.727,-297 605.273,-297"/>
<text text-anchor="middle" x="623" y="-303" font-family="Helvetica,sans-Serif" font-size="10.00">map</text>
</g>
<!-- Node27&#45;&gt;Node38 -->
<g id="edge52" class="edge"><title>Node27&#45;&gt;Node38</title>
<path fill="none" stroke="midnightblue" d="M841.34,-361.253C777.837,-351.924 684.22,-336.766 650,-324 648.386,-323.398 646.758,-322.7 645.145,-321.94"/>
<polygon fill="midnightblue" stroke="midnightblue" points="646.723,-318.814 636.263,-317.129 643.389,-324.969 646.723,-318.814"/>
</g>
<!-- Node39 -->
<g id="node39" class="node"><title>Node39</title>
<polygon fill="white" stroke="#bfbfbf" points="658.599,-297 658.599,-317 717.401,-317 717.401,-297 658.599,-297"/>
<text text-anchor="middle" x="688" y="-303" font-family="Helvetica,sans-Serif" font-size="10.00">stdexcept</text>
</g>
<!-- Node27&#45;&gt;Node39 -->
<g id="edge53" class="edge"><title>Node27&#45;&gt;Node39</title>
<path fill="none" stroke="midnightblue" d="M865.899,-360.99C830.641,-352.388 776.904,-338.606 731,-324 727.634,-322.929 724.144,-321.749 720.674,-320.53"/>
<polygon fill="midnightblue" stroke="midnightblue" points="721.661,-317.165 711.066,-317.048 719.276,-323.746 721.661,-317.165"/>
</g>
<!-- Node31 -->
<g id="node31" class="node"><title>Node31</title>
<polygon fill="white" stroke="#bfbfbf" points="731.613,-233 731.613,-253 770.387,-253 770.387,-233 731.613,-233"/>
<text text-anchor="middle" x="751" y="-239" font-family="Helvetica,sans-Serif" font-size="10.00">limits</text>
</g>
<!-- Node27&#45;&gt;Node31 -->
<g id="edge54" class="edge"><title>Node27&#45;&gt;Node31</title>
<path fill="none" stroke="midnightblue" d="M860.777,-360.961C824.551,-352.491 776.758,-338.927 764,-324 749.683,-307.249 748.018,-281.056 748.882,-263.24"/>
<polygon fill="midnightblue" stroke="midnightblue" points="752.38,-263.404 749.683,-253.158 745.402,-262.849 752.38,-263.404"/>
</g>
<!-- Node40 -->
<g id="node40" class="node"><title>Node40</title>
<polygon fill="white" stroke="#bfbfbf" points="772.761,-297 772.761,-317 833.239,-317 833.239,-297 772.761,-297"/>
<text text-anchor="middle" x="803" y="-303" font-family="Helvetica,sans-Serif" font-size="10.00">utf8/utf8.h</text>
</g>
<!-- Node27&#45;&gt;Node40 -->
<g id="edge55" class="edge"><title>Node27&#45;&gt;Node40</title>
<path fill="none" stroke="midnightblue" d="M889.097,-360.852C872.612,-350.732 845.83,-334.292 826.511,-322.432"/>
<polygon fill="midnightblue" stroke="midnightblue" points="828.317,-319.435 817.964,-317.186 824.655,-325.4 828.317,-319.435"/>
</g>
<!-- Node28&#45;&gt;Node2 -->
<g id="edge37" class="edge"><title>Node28&#45;&gt;Node2</title>
<path fill="none" stroke="midnightblue" d="M1305.45,-290.726C1297.04,-273.189 1280.64,-245.152 1257,-232 1213.99,-208.073 884.725,-192.847 758.256,-187.828"/>
<polygon fill="midnightblue" stroke="midnightblue" points="758.211,-184.324 748.082,-187.429 757.937,-191.319 758.211,-184.324"/>
</g>
<!-- Node30 -->
<g id="node30" class="node"><title>Node30</title>
<polygon fill="white" stroke="#bfbfbf" points="302.934,-233 302.934,-253 365.066,-253 365.066,-233 302.934,-233"/>
<text text-anchor="middle" x="334" y="-239" font-family="Helvetica,sans-Serif" font-size="10.00">type_traits</text>
</g>
<!-- Node29&#45;&gt;Node30 -->
<g id="edge39" class="edge"><title>Node29&#45;&gt;Node30</title>
<path fill="none" stroke="midnightblue" d="M851.031,-291.677C847.987,-291.058 844.961,-290.492 842,-290 639.423,-256.338 581.716,-286.445 375.283,-253.959"/>
<polygon fill="midnightblue" stroke="midnightblue" points="375.767,-250.492 365.339,-252.364 374.659,-257.404 375.767,-250.492"/>
</g>
<!-- Node29&#45;&gt;Node15 -->
<g id="edge40" class="edge"><title>Node29&#45;&gt;Node15</title>
<path fill="none" stroke="midnightblue" d="M956.836,-291.853C959.592,-291.206 962.326,-290.584 965,-290 1048.75,-271.726 1148.74,-255.849 1197.81,-248.442"/>
<polygon fill="midnightblue" stroke="midnightblue" points="1198.39,-251.894 1207.76,-246.951 1197.35,-244.971 1198.39,-251.894"/>
</g>
<!-- Node29&#45;&gt;Node31 -->
<g id="edge41" class="edge"><title>Node29&#45;&gt;Node31</title>
<path fill="none" stroke="midnightblue" d="M866.963,-290.992C840.224,-280.156 804.627,-265.731 779.958,-255.735"/>
<polygon fill="midnightblue" stroke="midnightblue" points="781.018,-252.388 770.436,-251.876 778.389,-258.875 781.018,-252.388"/>
</g>
<!-- Node32 -->
<g id="node32" class="node"><title>Node32</title>
<polygon fill="white" stroke="#bfbfbf" points="950.828,-233 950.828,-253 1005.17,-253 1005.17,-233 950.828,-233"/>
<text text-anchor="middle" x="978" y="-239" font-family="Helvetica,sans-Serif" font-size="10.00">iostream</text>
</g>
<!-- Node29&#45;&gt;Node32 -->
<g id="edge42" class="edge"><title>Node29&#45;&gt;Node32</title>
<path fill="none" stroke="midnightblue" d="M921.913,-290.992C933.203,-281.533 947.758,-269.338 959.211,-259.742"/>
<polygon fill="midnightblue" stroke="midnightblue" points="961.494,-262.395 966.911,-253.29 956.998,-257.03 961.494,-262.395"/>
</g>
<!-- Node33 -->
<g id="node33" class="node"><title>Node33</title>
<polygon fill="white" stroke="#bfbfbf" points="875.436,-233 875.436,-253 932.564,-253 932.564,-233 875.436,-233"/>
<text text-anchor="middle" x="904" y="-239" font-family="Helvetica,sans-Serif" font-size="10.00">algorithm</text>
</g>
<!-- Node29&#45;&gt;Node33 -->
<g id="edge43" class="edge"><title>Node29&#45;&gt;Node33</title>
<path fill="none" stroke="midnightblue" d="M904,-290.992C904,-282.726 904,-272.373 904,-263.489"/>
<polygon fill="midnightblue" stroke="midnightblue" points="907.5,-263.29 904,-253.29 900.5,-263.29 907.5,-263.29"/>
</g>
<!-- Node34 -->
<g id="node34" class="node"><title>Node34</title>
<g id="a_node34"><a xlink:href="____strhash_8h.xhtml" target="_top" xlink:title="__strhash.h">
<polygon fill="white" stroke="black" points="788.872,-233 788.872,-253 857.128,-253 857.128,-233 788.872,-233"/>
<text text-anchor="middle" x="823" y="-239" font-family="Helvetica,sans-Serif" font-size="10.00">__strhash.h</text>
</a>
</g>
</g>
<!-- Node29&#45;&gt;Node34 -->
<g id="edge44" class="edge"><title>Node29&#45;&gt;Node34</title>
<path fill="none" stroke="midnightblue" d="M884.392,-290.992C871.914,-281.441 855.793,-269.101 843.202,-259.463"/>
<polygon fill="midnightblue" stroke="midnightblue" points="845.206,-256.589 835.137,-253.29 840.951,-262.148 845.206,-256.589"/>
</g>
<!-- Node34&#45;&gt;Node2 -->
<g id="edge45" class="edge"><title>Node34&#45;&gt;Node2</title>
<path fill="none" stroke="midnightblue" d="M804.43,-232.878C786.047,-223.847 757.68,-209.913 736.647,-199.581"/>
<polygon fill="midnightblue" stroke="midnightblue" points="738.081,-196.386 727.562,-195.118 734.994,-202.669 738.081,-196.386"/>
</g>
<!-- Node34&#45;&gt;Node10 -->
<g id="edge46" class="edge"><title>Node34&#45;&gt;Node10</title>
<path fill="none" stroke="midnightblue" d="M788.506,-233.647C785.304,-233.027 782.099,-232.464 779,-232 557.759,-198.882 288.585,-189.269 192.352,-186.784"/>
<polygon fill="midnightblue" stroke="midnightblue" points="192.354,-183.283 182.27,-186.534 192.18,-190.281 192.354,-183.283"/>
</g>
<!-- Node43&#45;&gt;Node2 -->
<g id="edge61" class="edge"><title>Node43&#45;&gt;Node2</title>
<path fill="none" stroke="midnightblue" d="M163.262,-290.711C174.826,-273.159 196.365,-245.109 223,-232 298.891,-194.649 551.893,-187.578 659.682,-186.276"/>
<polygon fill="midnightblue" stroke="midnightblue" points="659.994,-189.773 669.955,-186.164 659.918,-182.773 659.994,-189.773"/>
</g>
<!-- Node44 -->
<g id="node44" class="node"><title>Node44</title>
<polygon fill="white" stroke="#bfbfbf" points="65.8794,-233 65.8794,-253 114.121,-253 114.121,-233 65.8794,-233"/>
<text text-anchor="middle" x="90" y="-239" font-family="Helvetica,sans-Serif" font-size="10.00">cstddef</text>
</g>
<!-- Node43&#45;&gt;Node44 -->
<g id="edge62" class="edge"><title>Node43&#45;&gt;Node44</title>
<path fill="none" stroke="midnightblue" d="M138.507,-290.992C128.933,-281.716 116.643,-269.811 106.83,-260.304"/>
<polygon fill="midnightblue" stroke="midnightblue" points="109.208,-257.735 99.5901,-253.29 104.337,-262.762 109.208,-257.735"/>
</g>
<!-- Node43&#45;&gt;Node10 -->
<g id="edge63" class="edge"><title>Node43&#45;&gt;Node10</title>
<path fill="none" stroke="midnightblue" d="M105.788,-290.931C73.7935,-278.193 40.4803,-257.892 57,-232 70.7905,-210.386 97.6519,-198.77 119.919,-192.621"/>
<polygon fill="midnightblue" stroke="midnightblue" points="120.908,-195.981 129.763,-190.164 119.213,-189.19 120.908,-195.981"/>
</g>
<!-- Node43&#45;&gt;Node30 -->
<g id="edge64" class="edge"><title>Node43&#45;&gt;Node30</title>
<path fill="none" stroke="midnightblue" d="M197.573,-290.992C228.38,-280.38 269.181,-266.327 298.114,-256.361"/>
<polygon fill="midnightblue" stroke="midnightblue" points="299.502,-259.584 307.817,-253.018 297.223,-252.966 299.502,-259.584"/>
</g>
<!-- Node45 -->
<g id="node45" class="node"><title>Node45</title>
<polygon fill="white" stroke="#bfbfbf" points="132.608,-233 132.608,-253 171.392,-253 171.392,-233 132.608,-233"/>
<text text-anchor="middle" x="152" y="-239" font-family="Helvetica,sans-Serif" font-size="10.00">utility</text>
</g>
<!-- Node43&#45;&gt;Node45 -->
<g id="edge65" class="edge"><title>Node43&#45;&gt;Node45</title>
<path fill="none" stroke="midnightblue" d="M153.516,-290.992C153.249,-282.726 152.915,-272.373 152.629,-263.489"/>
<polygon fill="midnightblue" stroke="midnightblue" points="156.12,-263.172 152.3,-253.29 149.124,-263.398 156.12,-263.172"/>
</g>
</g>
</svg>
