<?xml version="1.0" encoding="UTF-8" standalone="no"?>
<!DOCTYPE svg PUBLIC "-//W3C//DTD SVG 1.1//EN"
 "http://www.w3.org/Graphics/SVG/1.1/DTD/svg11.dtd">
<!-- Generated by graphviz version 2.30.0 (20130114.0426)
 -->
<!-- Title: /Users/rkwright/Documents/github/readium&#45;sdk&#45;D/ePub3/ePub/filter_manager_impl.h Pages: 1 -->
<svg width="266pt" height="112pt"
 viewBox="0.00 0.00 266.00 112.00" xmlns="http://www.w3.org/2000/svg" xmlns:xlink="http://www.w3.org/1999/xlink">
<g id="graph0" class="graph" transform="scale(1 1) rotate(0) translate(4 108)">
<title>/Users/rkwright/Documents/github/readium&#45;sdk&#45;D/ePub3/ePub/filter_manager_impl.h</title>
<polygon fill="white" stroke="white" points="-4,5 -4,-108 263,-108 263,5 -4,5"/>
<!-- Node1 -->
<g id="node1" class="node"><title>Node1</title>
<polygon fill="#bfbfbf" stroke="black" points="100.966,-59 100.966,-103 247.034,-103 247.034,-59 100.966,-59"/>
<text text-anchor="start" x="108.966" y="-89" font-family="Helvetica,sans-Serif" font-size="10.00">/Users/rkwright/Documents</text>
<text text-anchor="start" x="108.966" y="-77" font-family="Helvetica,sans-Serif" font-size="10.00">/github/readium&#45;sdk&#45;D/ePub3</text>
<text text-anchor="middle" x="174" y="-65" font-family="Helvetica,sans-Serif" font-size="10.00">/ePub/filter_manager_impl.h</text>
</g>
<!-- Node2 -->
<g id="node2" class="node"><title>Node2</title>
<polygon fill="white" stroke="#bfbfbf" points="-0.704102,-1 -0.704102,-21 118.704,-21 118.704,-1 -0.704102,-1"/>
<text text-anchor="middle" x="59" y="-7" font-family="Helvetica,sans-Serif" font-size="10.00">ePub3/filter_manager.h</text>
</g>
<!-- Node1&#45;&gt;Node2 -->
<g id="edge1" class="edge"><title>Node1&#45;&gt;Node2</title>
<path fill="none" stroke="midnightblue" d="M138.244,-58.8571C120.275,-48.2324 98.9851,-35.6434 82.9995,-26.191"/>
<polygon fill="midnightblue" stroke="midnightblue" points="84.6548,-23.1037 74.2655,-21.0266 81.0919,-29.1292 84.6548,-23.1037"/>
</g>
<!-- Node3 -->
<g id="node3" class="node"><title>Node3</title>
<polygon fill="white" stroke="#bfbfbf" points="136.811,-1 136.811,-21 211.189,-21 211.189,-1 136.811,-1"/>
<text text-anchor="middle" x="174" y="-7" font-family="Helvetica,sans-Serif" font-size="10.00">ePub3/filter.h</text>
</g>
<!-- Node1&#45;&gt;Node3 -->
<g id="edge2" class="edge"><title>Node1&#45;&gt;Node3</title>
<path fill="none" stroke="midnightblue" d="M174,-58.8571C174,-50.074 174,-39.9484 174,-31.3622"/>
<polygon fill="midnightblue" stroke="midnightblue" points="177.5,-31.2039 174,-21.2039 170.5,-31.204 177.5,-31.2039"/>
</g>
<!-- Node4 -->
<g id="node4" class="node"><title>Node4</title>
<polygon fill="white" stroke="#bfbfbf" points="229.33,-1 229.33,-21 258.67,-21 258.67,-1 229.33,-1"/>
<text text-anchor="middle" x="244" y="-7" font-family="Helvetica,sans-Serif" font-size="10.00">set</text>
</g>
<!-- Node1&#45;&gt;Node4 -->
<g id="edge3" class="edge"><title>Node1&#45;&gt;Node4</title>
<path fill="none" stroke="midnightblue" d="M195.765,-58.8571C205.924,-48.9884 217.827,-37.425 227.267,-28.2545"/>
<polygon fill="midnightblue" stroke="midnightblue" points="229.791,-30.6823 234.525,-21.2039 224.914,-25.6613 229.791,-30.6823"/>
</g>
</g>
</svg>
