<?xml version="1.0" encoding="UTF-8" standalone="no"?>
<!DOCTYPE svg PUBLIC "-//W3C//DTD SVG 1.1//EN"
 "http://www.w3.org/Graphics/SVG/1.1/DTD/svg11.dtd">
<!-- Generated by graphviz version 2.30.0 (20130114.0426)
 -->
<!-- Title: /Users/rkwright/Documents/github/readium&#45;sdk&#45;D/ePub3/ePub/filter_manager_impl.cpp Pages: 1 -->
<svg width="2155pt" height="496pt"
 viewBox="0.00 0.00 2155.00 496.00" xmlns="http://www.w3.org/2000/svg" xmlns:xlink="http://www.w3.org/1999/xlink">
<g id="graph0" class="graph" transform="scale(1 1) rotate(0) translate(4 492)">
<title>/Users/rkwright/Documents/github/readium&#45;sdk&#45;D/ePub3/ePub/filter_manager_impl.cpp</title>
<polygon fill="white" stroke="white" points="-4,5 -4,-492 2152,-492 2152,5 -4,5"/>
<!-- Node1 -->
<g id="node1" class="node"><title>Node1</title>
<polygon fill="#bfbfbf" stroke="black" points="524.185,-443 524.185,-487 675.815,-487 675.815,-443 524.185,-443"/>
<text text-anchor="start" x="532.185" y="-473" font-family="Helvetica,sans-Serif" font-size="10.00">/Users/rkwright/Documents</text>
<text text-anchor="start" x="532.185" y="-461" font-family="Helvetica,sans-Serif" font-size="10.00">/github/readium&#45;sdk&#45;D/ePub3</text>
<text text-anchor="middle" x="600" y="-449" font-family="Helvetica,sans-Serif" font-size="10.00">/ePub/filter_manager_impl.cpp</text>
</g>
<!-- Node2 -->
<g id="node2" class="node"><title>Node2</title>
<g id="a_node2"><a xlink:href="filter__manager__impl_8h.xhtml" target="_top" xlink:title="filter_manager_impl.h">
<polygon fill="white" stroke="black" points="129.921,-385 129.921,-405 242.079,-405 242.079,-385 129.921,-385"/>
<text text-anchor="middle" x="186" y="-391" font-family="Helvetica,sans-Serif" font-size="10.00">filter_manager_impl.h</text>
</a>
</g>
</g>
<!-- Node1&#45;&gt;Node2 -->
<g id="edge1" class="edge"><title>Node1&#45;&gt;Node2</title>
<path fill="none" stroke="midnightblue" d="M524.066,-451.528C445.811,-438.674 325.103,-418.848 251.082,-406.69"/>
<polygon fill="midnightblue" stroke="midnightblue" points="251.391,-403.194 240.956,-405.027 250.256,-410.101 251.391,-403.194"/>
</g>
<!-- Node6 -->
<g id="node6" class="node"><title>Node6</title>
<g id="a_node6"><a xlink:href="filter__chain_8h.xhtml" target="_top" xlink:title="filter_chain.h">
<polygon fill="white" stroke="black" points="563.65,-385 563.65,-405 636.35,-405 636.35,-385 563.65,-385"/>
<text text-anchor="middle" x="600" y="-391" font-family="Helvetica,sans-Serif" font-size="10.00">filter_chain.h</text>
</a>
</g>
</g>
<!-- Node1&#45;&gt;Node6 -->
<g id="edge5" class="edge"><title>Node1&#45;&gt;Node6</title>
<path fill="none" stroke="midnightblue" d="M600,-442.857C600,-434.074 600,-423.948 600,-415.362"/>
<polygon fill="midnightblue" stroke="midnightblue" points="603.5,-415.204 600,-405.204 596.5,-415.204 603.5,-415.204"/>
</g>
<!-- Node17 -->
<g id="node17" class="node"><title>Node17</title>
<polygon fill="white" stroke="#bfbfbf" points="2087.38,-59 2087.38,-79 2130.62,-79 2130.62,-59 2087.38,-59"/>
<text text-anchor="middle" x="2109" y="-65" font-family="Helvetica,sans-Serif" font-size="10.00">vector</text>
</g>
<!-- Node1&#45;&gt;Node17 -->
<g id="edge83" class="edge"><title>Node1&#45;&gt;Node17</title>
<path fill="none" stroke="midnightblue" d="M675.925,-461.547C986.907,-451.01 2147,-406.695 2147,-332 2147,-332 2147,-332 2147,-196 2147,-156.216 2129.42,-112.259 2118.17,-88.2124"/>
<polygon fill="midnightblue" stroke="midnightblue" points="2121.32,-86.6736 2113.81,-79.1957 2115.02,-89.7219 2121.32,-86.6736"/>
</g>
<!-- Node3 -->
<g id="node3" class="node"><title>Node3</title>
<polygon fill="white" stroke="#bfbfbf" points="-0.704102,-321 -0.704102,-341 118.704,-341 118.704,-321 -0.704102,-321"/>
<text text-anchor="middle" x="59" y="-327" font-family="Helvetica,sans-Serif" font-size="10.00">ePub3/filter_manager.h</text>
</g>
<!-- Node2&#45;&gt;Node3 -->
<g id="edge2" class="edge"><title>Node2&#45;&gt;Node3</title>
<path fill="none" stroke="midnightblue" d="M167.533,-384.985C146.276,-374.607 111.149,-357.458 86.6336,-345.49"/>
<polygon fill="midnightblue" stroke="midnightblue" points="88.011,-342.268 77.4892,-341.026 84.94,-348.559 88.011,-342.268"/>
</g>
<!-- Node4 -->
<g id="node4" class="node"><title>Node4</title>
<polygon fill="white" stroke="#bfbfbf" points="183.811,-321 183.811,-341 258.189,-341 258.189,-321 183.811,-321"/>
<text text-anchor="middle" x="221" y="-327" font-family="Helvetica,sans-Serif" font-size="10.00">ePub3/filter.h</text>
</g>
<!-- Node2&#45;&gt;Node4 -->
<g id="edge3" class="edge"><title>Node2&#45;&gt;Node4</title>
<path fill="none" stroke="midnightblue" d="M191.164,-384.852C196.334,-375.694 204.426,-361.359 210.879,-349.928"/>
<polygon fill="midnightblue" stroke="midnightblue" points="213.946,-351.615 215.814,-341.186 207.851,-348.174 213.946,-351.615"/>
</g>
<!-- Node5 -->
<g id="node5" class="node"><title>Node5</title>
<polygon fill="white" stroke="#bfbfbf" points="136.33,-321 136.33,-341 165.67,-341 165.67,-321 136.33,-321"/>
<text text-anchor="middle" x="151" y="-327" font-family="Helvetica,sans-Serif" font-size="10.00">set</text>
</g>
<!-- Node2&#45;&gt;Node5 -->
<g id="edge4" class="edge"><title>Node2&#45;&gt;Node5</title>
<path fill="none" stroke="midnightblue" d="M180.836,-384.852C175.666,-375.694 167.574,-361.359 161.121,-349.928"/>
<polygon fill="midnightblue" stroke="midnightblue" points="164.149,-348.174 156.186,-341.186 158.054,-351.615 164.149,-348.174"/>
</g>
<!-- Node7 -->
<g id="node7" class="node"><title>Node7</title>
<polygon fill="white" stroke="#bfbfbf" points="970.079,-187 970.079,-207 1053.92,-207 1053.92,-187 970.079,-187"/>
<text text-anchor="middle" x="1012" y="-193" font-family="Helvetica,sans-Serif" font-size="10.00">ePub3/epub3.h</text>
</g>
<!-- Node6&#45;&gt;Node7 -->
<g id="edge6" class="edge"><title>Node6&#45;&gt;Node7</title>
<path fill="none" stroke="midnightblue" d="M607.477,-384.744C629.601,-358.046 697.912,-280.478 773,-244 773.133,-243.936 889.552,-221.544 959.836,-208.029"/>
<polygon fill="midnightblue" stroke="midnightblue" points="960.692,-211.429 969.852,-206.103 959.371,-204.555 960.692,-211.429"/>
</g>
<!-- Node8 -->
<g id="node8" class="node"><title>Node8</title>
<g id="a_node8"><a xlink:href="byte__stream_8h.xhtml" target="_top" xlink:title="ePub3/utilities/byte\l_stream.h">
<polygon fill="white" stroke="black" points="740.03,-315 740.03,-347 839.97,-347 839.97,-315 740.03,-315"/>
<text text-anchor="start" x="748.03" y="-333" font-family="Helvetica,sans-Serif" font-size="10.00">ePub3/utilities/byte</text>
<text text-anchor="middle" x="790" y="-321" font-family="Helvetica,sans-Serif" font-size="10.00">_stream.h</text>
</a>
</g>
</g>
<!-- Node6&#45;&gt;Node8 -->
<g id="edge7" class="edge"><title>Node6&#45;&gt;Node8</title>
<path fill="none" stroke="midnightblue" d="M627.628,-384.985C655.474,-375.898 699.233,-361.619 734.31,-350.172"/>
<polygon fill="midnightblue" stroke="midnightblue" points="735.532,-353.455 743.953,-347.026 733.361,-346.801 735.532,-353.455"/>
</g>
<!-- Node23 -->
<g id="node23" class="node"><title>Node23</title>
<g id="a_node23"><a xlink:href="run__loop_8h.xhtml" target="_top" xlink:title="ePub3/utilities/run\l_loop.h">
<polygon fill="white" stroke="black" points="1250.25,-245 1250.25,-277 1345.75,-277 1345.75,-245 1250.25,-245"/>
<text text-anchor="start" x="1258.25" y="-263" font-family="Helvetica,sans-Serif" font-size="10.00">ePub3/utilities/run</text>
<text text-anchor="middle" x="1298" y="-251" font-family="Helvetica,sans-Serif" font-size="10.00">_loop.h</text>
</a>
</g>
</g>
<!-- Node6&#45;&gt;Node23 -->
<g id="edge60" class="edge"><title>Node6&#45;&gt;Node23</title>
<path fill="none" stroke="midnightblue" d="M636.599,-393.815C717.024,-392.682 914.757,-385.91 1075,-348 1141.21,-332.336 1214.09,-301.457 1257.93,-281.279"/>
<polygon fill="midnightblue" stroke="midnightblue" points="1259.5,-284.408 1267.1,-277.021 1256.56,-278.059 1259.5,-284.408"/>
</g>
<!-- Node46 -->
<g id="node46" class="node"><title>Node46</title>
<g id="a_node46"><a xlink:href="executor_8h.xhtml" target="_top" xlink:title="ePub3/utilities/executor.h">
<polygon fill="white" stroke="black" points="536.407,-251 536.407,-271 663.593,-271 663.593,-251 536.407,-251"/>
<text text-anchor="middle" x="600" y="-257" font-family="Helvetica,sans-Serif" font-size="10.00">ePub3/utilities/executor.h</text>
</a>
</g>
</g>
<!-- Node6&#45;&gt;Node46 -->
<g id="edge61" class="edge"><title>Node6&#45;&gt;Node46</title>
<path fill="none" stroke="midnightblue" d="M600,-384.927C600,-363.639 600,-310.104 600,-281.208"/>
<polygon fill="midnightblue" stroke="midnightblue" points="603.5,-281.136 600,-271.136 596.5,-281.136 603.5,-281.136"/>
</g>
<!-- Node50 -->
<g id="node50" class="node"><title>Node50</title>
<g id="a_node50"><a xlink:href="byte__buffer_8h.xhtml" target="_top" xlink:title="ePub3/utilities/byte\l_buffer.h">
<polygon fill="white" stroke="black" points="967.03,-315 967.03,-347 1066.97,-347 1066.97,-315 967.03,-315"/>
<text text-anchor="start" x="975.03" y="-333" font-family="Helvetica,sans-Serif" font-size="10.00">ePub3/utilities/byte</text>
<text text-anchor="middle" x="1017" y="-321" font-family="Helvetica,sans-Serif" font-size="10.00">_buffer.h</text>
</a>
</g>
</g>
<!-- Node6&#45;&gt;Node50 -->
<g id="edge75" class="edge"><title>Node6&#45;&gt;Node50</title>
<path fill="none" stroke="midnightblue" d="M636.64,-388.552C708.617,-377.851 869.077,-353.993 956.831,-340.946"/>
<polygon fill="midnightblue" stroke="midnightblue" points="957.526,-344.381 966.903,-339.448 956.497,-337.457 957.526,-344.381"/>
</g>
<!-- Node16 -->
<g id="node16" class="node"><title>Node16</title>
<polygon fill="white" stroke="#bfbfbf" points="562.943,-59 562.943,-79 615.057,-79 615.057,-59 562.943,-59"/>
<text text-anchor="middle" x="589" y="-65" font-family="Helvetica,sans-Serif" font-size="10.00">memory</text>
</g>
<!-- Node6&#45;&gt;Node16 -->
<g id="edge77" class="edge"><title>Node6&#45;&gt;Node16</title>
<path fill="none" stroke="midnightblue" d="M563.634,-392.922C488.688,-388.563 324,-367.034 324,-262 324,-262 324,-262 324,-196 324,-95.9773 479.883,-75.2648 552.535,-71.0431"/>
<polygon fill="midnightblue" stroke="midnightblue" points="552.812,-74.5336 562.622,-70.5324 552.458,-67.5426 552.812,-74.5336"/>
</g>
<!-- Node22 -->
<g id="node22" class="node"><title>Node22</title>
<polygon fill="white" stroke="#bfbfbf" points="389.823,-187 389.823,-207 434.177,-207 434.177,-187 389.823,-187"/>
<text text-anchor="middle" x="412" y="-193" font-family="Helvetica,sans-Serif" font-size="10.00">thread</text>
</g>
<!-- Node6&#45;&gt;Node22 -->
<g id="edge78" class="edge"><title>Node6&#45;&gt;Node22</title>
<path fill="none" stroke="midnightblue" d="M587.501,-384.671C575.82,-375.739 558.113,-361.641 544,-348 497.436,-302.992 448.587,-243.858 425.549,-215.135"/>
<polygon fill="midnightblue" stroke="midnightblue" points="428.23,-212.884 419.259,-207.247 422.757,-217.248 428.23,-212.884"/>
</g>
<!-- Node24 -->
<g id="node24" class="node"><title>Node24</title>
<polygon fill="white" stroke="#bfbfbf" points="451.695,-187 451.695,-207 548.305,-207 548.305,-187 451.695,-187"/>
<text text-anchor="middle" x="500" y="-193" font-family="Helvetica,sans-Serif" font-size="10.00">condition_variable</text>
</g>
<!-- Node6&#45;&gt;Node24 -->
<g id="edge79" class="edge"><title>Node6&#45;&gt;Node24</title>
<path fill="none" stroke="midnightblue" d="M593.148,-384.813C579.174,-365.743 547.016,-320.124 527,-278 517.492,-257.991 509.801,-233.727 505.094,-217.204"/>
<polygon fill="midnightblue" stroke="midnightblue" points="508.355,-215.862 502.327,-207.149 501.606,-217.72 508.355,-215.862"/>
</g>
<!-- Node33 -->
<g id="node33" class="node"><title>Node33</title>
<polygon fill="white" stroke="#bfbfbf" points="1509.44,-59 1509.44,-79 1566.56,-79 1566.56,-59 1509.44,-59"/>
<text text-anchor="middle" x="1538" y="-65" font-family="Helvetica,sans-Serif" font-size="10.00">algorithm</text>
</g>
<!-- Node6&#45;&gt;Node33 -->
<g id="edge80" class="edge"><title>Node6&#45;&gt;Node33</title>
<path fill="none" stroke="midnightblue" d="M636.595,-392.549C805.087,-385.395 1498,-350.588 1498,-262 1498,-262 1498,-262 1498,-196 1498,-156.037 1516.51,-112.145 1528.34,-88.1576"/>
<polygon fill="midnightblue" stroke="midnightblue" points="1531.5,-89.6631 1532.93,-79.1653 1525.27,-86.4799 1531.5,-89.6631"/>
</g>
<!-- Node43 -->
<g id="node43" class="node"><title>Node43</title>
<polygon fill="white" stroke="#bfbfbf" points="377.608,-59 377.608,-79 416.392,-79 416.392,-59 377.608,-59"/>
<text text-anchor="middle" x="397" y="-65" font-family="Helvetica,sans-Serif" font-size="10.00">utility</text>
</g>
<!-- Node6&#45;&gt;Node43 -->
<g id="edge81" class="edge"><title>Node6&#45;&gt;Node43</title>
<path fill="none" stroke="midnightblue" d="M563.366,-394.801C480.536,-394.514 286,-381.157 286,-262 286,-262 286,-262 286,-196 286,-144.837 338.167,-104.606 370.975,-84.3643"/>
<polygon fill="midnightblue" stroke="midnightblue" points="372.857,-87.3176 379.656,-79.1925 369.274,-81.304 372.857,-87.3176"/>
</g>
<!-- Node6&#45;&gt;Node4 -->
<g id="edge82" class="edge"><title>Node6&#45;&gt;Node4</title>
<path fill="none" stroke="midnightblue" d="M563.243,-390.837C502.208,-385.143 376.336,-371.514 272,-348 266.98,-346.869 261.742,-345.477 256.616,-343.99"/>
<polygon fill="midnightblue" stroke="midnightblue" points="257.568,-340.622 246.982,-341.058 255.53,-347.318 257.568,-340.622"/>
</g>
<!-- Node8&#45;&gt;Node7 -->
<g id="edge8" class="edge"><title>Node8&#45;&gt;Node7</title>
<path fill="none" stroke="midnightblue" d="M783.995,-314.728C777.691,-295.886 770.751,-263.907 787,-244 788.386,-242.302 894.174,-221.204 960.184,-208.179"/>
<polygon fill="midnightblue" stroke="midnightblue" points="960.881,-211.609 970.016,-206.24 959.527,-204.741 960.881,-211.609"/>
</g>
<!-- Node9 -->
<g id="node9" class="node"><title>Node9</title>
<g id="a_node9"><a xlink:href="ring__buffer_8h.xhtml" target="_top" xlink:title="ePub3/utilities/ring\l_buffer.h">
<polygon fill="white" stroke="black" points="1134.14,-245 1134.14,-277 1231.86,-277 1231.86,-245 1134.14,-245"/>
<text text-anchor="start" x="1142.14" y="-263" font-family="Helvetica,sans-Serif" font-size="10.00">ePub3/utilities/ring</text>
<text text-anchor="middle" x="1183" y="-251" font-family="Helvetica,sans-Serif" font-size="10.00">_buffer.h</text>
</a>
</g>
</g>
<!-- Node8&#45;&gt;Node9 -->
<g id="edge9" class="edge"><title>Node8&#45;&gt;Node9</title>
<path fill="none" stroke="midnightblue" d="M840.173,-321.319C912.754,-308.76 1046.78,-285.569 1124,-272.208"/>
<polygon fill="midnightblue" stroke="midnightblue" points="1124.79,-275.623 1134.05,-270.469 1123.6,-268.726 1124.79,-275.623"/>
</g>
<!-- Node20 -->
<g id="node20" class="node"><title>Node20</title>
<polygon fill="white" stroke="#bfbfbf" points="814.596,-123 814.596,-143 873.404,-143 873.404,-123 814.596,-123"/>
<text text-anchor="middle" x="844" y="-129" font-family="Helvetica,sans-Serif" font-size="10.00">functional</text>
</g>
<!-- Node8&#45;&gt;Node20 -->
<g id="edge21" class="edge"><title>Node8&#45;&gt;Node20</title>
<path fill="none" stroke="midnightblue" d="M780.993,-314.895C771.485,-296.79 759.588,-266.125 773,-244 790.931,-214.421 823.671,-237.334 842,-208 852.193,-191.687 851.151,-169.154 848.527,-153.25"/>
<polygon fill="midnightblue" stroke="midnightblue" points="851.874,-152.141 846.474,-143.025 845.011,-153.519 851.874,-152.141"/>
</g>
<!-- Node21 -->
<g id="node21" class="node"><title>Node21</title>
<polygon fill="white" stroke="#bfbfbf" points="796.5,-251 796.5,-271 825.5,-271 825.5,-251 796.5,-251"/>
<text text-anchor="middle" x="810.892" y="-257" font-family="Helvetica,sans-Serif" font-size="10.00">ios</text>
</g>
<!-- Node8&#45;&gt;Node21 -->
<g id="edge22" class="edge"><title>Node8&#45;&gt;Node21</title>
<path fill="none" stroke="midnightblue" d="M794.661,-314.909C797.778,-304.814 801.903,-291.458 805.228,-280.691"/>
<polygon fill="midnightblue" stroke="midnightblue" points="808.613,-281.591 808.219,-271.004 801.925,-279.526 808.613,-281.591"/>
</g>
<!-- Node8&#45;&gt;Node22 -->
<g id="edge23" class="edge"><title>Node8&#45;&gt;Node22</title>
<path fill="none" stroke="midnightblue" d="M739.869,-327.109C685.295,-322.393 596.526,-310.065 527,-278 504.876,-267.797 503.846,-258.132 484,-244 468.339,-232.848 450.081,-221.198 435.869,-212.412"/>
<polygon fill="midnightblue" stroke="midnightblue" points="437.537,-209.329 427.182,-207.086 433.878,-215.296 437.537,-209.329"/>
</g>
<!-- Node8&#45;&gt;Node23 -->
<g id="edge24" class="edge"><title>Node8&#45;&gt;Node23</title>
<path fill="none" stroke="midnightblue" d="M840.103,-325.195C940.755,-315.379 1164.35,-292.715 1240,-278 1240.1,-277.98 1240.21,-277.96 1240.31,-277.94"/>
<polygon fill="midnightblue" stroke="midnightblue" points="1240.99,-281.373 1250.03,-275.847 1239.52,-274.53 1240.99,-281.373"/>
</g>
<!-- Node41 -->
<g id="node41" class="node"><title>Node41</title>
<g id="a_node41"><a xlink:href="make__unique_8h.xhtml" target="_top" xlink:title="ePub3/utilities/make\l_unique.h">
<polygon fill="white" stroke="black" points="585.254,-117 585.254,-149 690.746,-149 690.746,-117 585.254,-117"/>
<text text-anchor="start" x="593.254" y="-135" font-family="Helvetica,sans-Serif" font-size="10.00">ePub3/utilities/make</text>
<text text-anchor="middle" x="638" y="-123" font-family="Helvetica,sans-Serif" font-size="10.00">_unique.h</text>
</a>
</g>
</g>
<!-- Node8&#45;&gt;Node41 -->
<g id="edge52" class="edge"><title>Node8&#45;&gt;Node41</title>
<path fill="none" stroke="midnightblue" d="M740.014,-328.021C677.929,-324.115 569.733,-312.503 484,-278 432.653,-257.335 406.899,-256.916 381,-208 376.425,-199.359 374.809,-193.569 381,-186 405.056,-156.59 507.015,-143.424 575.052,-137.823"/>
<polygon fill="midnightblue" stroke="midnightblue" points="575.553,-141.295 585.247,-137.019 575.003,-134.317 575.553,-141.295"/>
</g>
<!-- Node44 -->
<g id="node44" class="node"><title>Node44</title>
<polygon fill="white" stroke="#bfbfbf" points="843.244,-251 843.244,-271 958.756,-271 958.756,-251 843.244,-251"/>
<text text-anchor="middle" x="901" y="-257" font-family="Helvetica,sans-Serif" font-size="10.00">google&#45;url/url_canon.h</text>
</g>
<!-- Node8&#45;&gt;Node44 -->
<g id="edge58" class="edge"><title>Node8&#45;&gt;Node44</title>
<path fill="none" stroke="midnightblue" d="M814.634,-314.909C833.43,-303.394 859.151,-287.637 877.627,-276.318"/>
<polygon fill="midnightblue" stroke="midnightblue" points="879.604,-279.212 886.303,-271.004 875.948,-273.243 879.604,-279.212"/>
</g>
<!-- Node45 -->
<g id="node45" class="node"><title>Node45</title>
<polygon fill="white" stroke="#bfbfbf" points="976.476,-251 976.476,-271 1077.52,-271 1077.52,-251 976.476,-251"/>
<text text-anchor="middle" x="1027" y="-257" font-family="Helvetica,sans-Serif" font-size="10.00">google&#45;url/url_util.h</text>
</g>
<!-- Node8&#45;&gt;Node45 -->
<g id="edge59" class="edge"><title>Node8&#45;&gt;Node45</title>
<path fill="none" stroke="midnightblue" d="M839.972,-315.662C883.29,-303.233 945.223,-285.464 985.765,-273.831"/>
<polygon fill="midnightblue" stroke="midnightblue" points="986.94,-277.135 995.587,-271.013 985.009,-270.407 986.94,-277.135"/>
</g>
<!-- Node9&#45;&gt;Node7 -->
<g id="edge10" class="edge"><title>Node9&#45;&gt;Node7</title>
<path fill="none" stroke="midnightblue" d="M1141.61,-244.992C1112.55,-234.459 1074.15,-220.534 1046.7,-210.582"/>
<polygon fill="midnightblue" stroke="midnightblue" points="1047.72,-207.227 1037.12,-207.109 1045.33,-213.808 1047.72,-207.227"/>
</g>
<!-- Node10 -->
<g id="node10" class="node"><title>Node10</title>
<g id="a_node10"><a xlink:href="basic_8h.xhtml" target="_top" xlink:title="ePub3/utilities/basic.h">
<polygon fill="white" stroke="black" points="1357.64,-123 1357.64,-143 1470.36,-143 1470.36,-123 1357.64,-123"/>
<text text-anchor="middle" x="1414" y="-129" font-family="Helvetica,sans-Serif" font-size="10.00">ePub3/utilities/basic.h</text>
</a>
</g>
</g>
<!-- Node9&#45;&gt;Node10 -->
<g id="edge11" class="edge"><title>Node9&#45;&gt;Node10</title>
<path fill="none" stroke="midnightblue" d="M1172.54,-244.983C1162.63,-228.72 1151.14,-202.849 1165,-186 1217.65,-121.979 1267.03,-167.769 1348,-150 1354.58,-148.557 1361.5,-146.961 1368.3,-145.353"/>
<polygon fill="midnightblue" stroke="midnightblue" points="1369.19,-148.738 1378.1,-143.004 1367.56,-141.931 1369.19,-148.738"/>
</g>
<!-- Node19 -->
<g id="node19" class="node"><title>Node19</title>
<polygon fill="white" stroke="#bfbfbf" points="1174.38,-187 1174.38,-207 1217.62,-207 1217.62,-187 1174.38,-187"/>
<text text-anchor="middle" x="1196" y="-193" font-family="Helvetica,sans-Serif" font-size="10.00">mutex</text>
</g>
<!-- Node9&#45;&gt;Node19 -->
<g id="edge20" class="edge"><title>Node9&#45;&gt;Node19</title>
<path fill="none" stroke="midnightblue" d="M1186.15,-244.992C1187.9,-236.635 1190.1,-226.142 1191.98,-217.194"/>
<polygon fill="midnightblue" stroke="midnightblue" points="1195.43,-217.796 1194.05,-207.29 1188.57,-216.359 1195.43,-217.796"/>
</g>
<!-- Node11 -->
<g id="node11" class="node"><title>Node11</title>
<g id="a_node11"><a xlink:href="base_8h.xhtml" target="_top" xlink:title="ePub3/base.h">
<polygon fill="white" stroke="black" points="1123.14,-59 1123.14,-79 1200.86,-79 1200.86,-59 1123.14,-59"/>
<text text-anchor="middle" x="1162" y="-65" font-family="Helvetica,sans-Serif" font-size="10.00">ePub3/base.h</text>
</a>
</g>
</g>
<!-- Node10&#45;&gt;Node11 -->
<g id="edge12" class="edge"><title>Node10&#45;&gt;Node11</title>
<path fill="none" stroke="midnightblue" d="M1377.36,-122.985C1332.75,-112.01 1257.37,-93.4632 1208.66,-81.4788"/>
<polygon fill="midnightblue" stroke="midnightblue" points="1209.23,-78.0167 1198.69,-79.0262 1207.56,-84.814 1209.23,-78.0167"/>
</g>
<!-- Node14 -->
<g id="node14" class="node"><title>Node14</title>
<polygon fill="white" stroke="#bfbfbf" points="1307.82,-59 1307.82,-79 1422.18,-79 1422.18,-59 1307.82,-59"/>
<text text-anchor="middle" x="1365" y="-65" font-family="Helvetica,sans-Serif" font-size="10.00">ePub3/xml/xmlstring.h</text>
</g>
<!-- Node10&#45;&gt;Node14 -->
<g id="edge15" class="edge"><title>Node10&#45;&gt;Node14</title>
<path fill="none" stroke="midnightblue" d="M1406.77,-122.852C1399.39,-113.511 1387.75,-98.7838 1378.63,-87.2456"/>
<polygon fill="midnightblue" stroke="midnightblue" points="1381.21,-84.8613 1372.26,-79.1858 1375.71,-89.2017 1381.21,-84.8613"/>
</g>
<!-- Node15 -->
<g id="node15" class="node"><title>Node15</title>
<polygon fill="white" stroke="#bfbfbf" points="1440.22,-59 1440.22,-79 1491.78,-79 1491.78,-59 1440.22,-59"/>
<text text-anchor="middle" x="1466" y="-65" font-family="Helvetica,sans-Serif" font-size="10.00">sstream</text>
</g>
<!-- Node10&#45;&gt;Node15 -->
<g id="edge16" class="edge"><title>Node10&#45;&gt;Node15</title>
<path fill="none" stroke="midnightblue" d="M1421.67,-122.852C1429.58,-113.419 1442.1,-98.4945 1451.82,-86.9072"/>
<polygon fill="midnightblue" stroke="midnightblue" points="1454.55,-89.0969 1458.3,-79.1858 1449.19,-84.5986 1454.55,-89.0969"/>
</g>
<!-- Node10&#45;&gt;Node16 -->
<g id="edge17" class="edge"><title>Node10&#45;&gt;Node16</title>
<path fill="none" stroke="midnightblue" d="M1382.01,-122.963C1371.28,-120.277 1359.2,-117.622 1348,-116 1032.42,-70.3169 943.667,-131.322 625.199,-79.8263"/>
<polygon fill="midnightblue" stroke="midnightblue" points="625.661,-76.3554 615.226,-78.1893 624.527,-83.263 625.661,-76.3554"/>
</g>
<!-- Node10&#45;&gt;Node17 -->
<g id="edge18" class="edge"><title>Node10&#45;&gt;Node17</title>
<path fill="none" stroke="midnightblue" d="M1466.82,-123C1482.9,-120.475 1500.64,-117.903 1517,-116 1730.06,-91.211 1987.86,-76.3299 2076.92,-71.6267"/>
<polygon fill="midnightblue" stroke="midnightblue" points="2077.37,-75.1084 2087.17,-71.0913 2077,-68.1179 2077.37,-75.1084"/>
</g>
<!-- Node18 -->
<g id="node18" class="node"><title>Node18</title>
<polygon fill="white" stroke="#bfbfbf" points="1259.5,-59 1259.5,-79 1288.5,-79 1288.5,-59 1259.5,-59"/>
<text text-anchor="middle" x="1273.61" y="-65" font-family="Helvetica,sans-Serif" font-size="10.00">list</text>
</g>
<!-- Node10&#45;&gt;Node18 -->
<g id="edge19" class="edge"><title>Node10&#45;&gt;Node18</title>
<path fill="none" stroke="midnightblue" d="M1393.64,-122.985C1368.36,-111.787 1325.27,-92.7053 1298.29,-80.7556"/>
<polygon fill="midnightblue" stroke="midnightblue" points="1299.37,-77.4054 1288.8,-76.5563 1296.53,-83.8058 1299.37,-77.4054"/>
</g>
<!-- Node12 -->
<g id="node12" class="node"><title>Node12</title>
<g id="a_node12"><a xlink:href="__config_8h.xhtml" target="_top" xlink:title="_config.h">
<polygon fill="white" stroke="red" points="1098.71,-1 1098.71,-21 1155.29,-21 1155.29,-1 1098.71,-1"/>
<text text-anchor="middle" x="1127" y="-7" font-family="Helvetica,sans-Serif" font-size="10.00">_config.h</text>
</a>
</g>
</g>
<!-- Node11&#45;&gt;Node12 -->
<g id="edge13" class="edge"><title>Node11&#45;&gt;Node12</title>
<path fill="none" stroke="midnightblue" d="M1156.22,-58.7527C1151.28,-50.8427 1144.02,-39.2372 1137.98,-29.5683"/>
<polygon fill="midnightblue" stroke="midnightblue" points="1140.94,-27.7002 1132.67,-21.0752 1135,-31.4102 1140.94,-27.7002"/>
</g>
<!-- Node13 -->
<g id="node13" class="node"><title>Node13</title>
<polygon fill="white" stroke="#bfbfbf" points="1173.16,-1 1173.16,-21 1220.84,-21 1220.84,-1 1173.16,-1"/>
<text text-anchor="middle" x="1197" y="-7" font-family="Helvetica,sans-Serif" font-size="10.00">stdlib.h</text>
</g>
<!-- Node11&#45;&gt;Node13 -->
<g id="edge14" class="edge"><title>Node11&#45;&gt;Node13</title>
<path fill="none" stroke="midnightblue" d="M1167.78,-58.7527C1172.72,-50.8427 1179.98,-39.2372 1186.02,-29.5683"/>
<polygon fill="midnightblue" stroke="midnightblue" points="1189,-31.4102 1191.33,-21.0752 1183.06,-27.7002 1189,-31.4102"/>
</g>
<!-- Node23&#45;&gt;Node11 -->
<g id="edge25" class="edge"><title>Node23&#45;&gt;Node11</title>
<path fill="none" stroke="midnightblue" d="M1284.79,-244.841C1266.95,-224.08 1234.57,-185.34 1210,-150 1195.76,-129.516 1181.28,-104.72 1172,-88.2166"/>
<polygon fill="midnightblue" stroke="midnightblue" points="1174.86,-86.1645 1166.95,-79.1251 1168.75,-89.5659 1174.86,-86.1645"/>
</g>
<!-- Node23&#45;&gt;Node24 -->
<g id="edge26" class="edge"><title>Node23&#45;&gt;Node24</title>
<path fill="none" stroke="midnightblue" d="M1250.07,-245.918C1246.68,-245.187 1243.3,-244.536 1240,-244 943.32,-195.844 860.878,-241.282 558.83,-208.074"/>
<polygon fill="midnightblue" stroke="midnightblue" points="558.779,-204.546 548.452,-206.911 558,-211.503 558.779,-204.546"/>
</g>
<!-- Node25 -->
<g id="node25" class="node"><title>Node25</title>
<polygon fill="white" stroke="#bfbfbf" points="1349.87,-187 1349.87,-207 1408.13,-207 1408.13,-187 1349.87,-187"/>
<text text-anchor="middle" x="1379" y="-193" font-family="Helvetica,sans-Serif" font-size="10.00">pthread.h</text>
</g>
<!-- Node23&#45;&gt;Node25 -->
<g id="edge27" class="edge"><title>Node23&#45;&gt;Node25</title>
<path fill="none" stroke="midnightblue" d="M1317.61,-244.992C1330.09,-235.441 1346.21,-223.101 1358.8,-213.463"/>
<polygon fill="midnightblue" stroke="midnightblue" points="1361.05,-216.148 1366.86,-207.29 1356.79,-210.589 1361.05,-216.148"/>
</g>
<!-- Node26 -->
<g id="node26" class="node"><title>Node26</title>
<polygon fill="white" stroke="#bfbfbf" points="1426.38,-187 1426.38,-207 1469.62,-207 1469.62,-187 1426.38,-187"/>
<text text-anchor="middle" x="1448" y="-193" font-family="Helvetica,sans-Serif" font-size="10.00">time.h</text>
</g>
<!-- Node23&#45;&gt;Node26 -->
<g id="edge28" class="edge"><title>Node23&#45;&gt;Node26</title>
<path fill="none" stroke="midnightblue" d="M1334.31,-244.992C1359.46,-234.597 1392.6,-220.899 1416.6,-210.977"/>
<polygon fill="midnightblue" stroke="midnightblue" points="1418.06,-214.163 1425.96,-207.109 1415.38,-207.694 1418.06,-214.163"/>
</g>
<!-- Node23&#45;&gt;Node7 -->
<g id="edge29" class="edge"><title>Node23&#45;&gt;Node7</title>
<path fill="none" stroke="midnightblue" d="M1249.96,-246.469C1246.6,-245.607 1243.25,-244.775 1240,-244 1223.12,-239.973 1126.07,-220.607 1064.16,-208.322"/>
<polygon fill="midnightblue" stroke="midnightblue" points="1064.65,-204.852 1054.16,-206.34 1063.29,-211.718 1064.65,-204.852"/>
</g>
<!-- Node23&#45;&gt;Node10 -->
<g id="edge30" class="edge"><title>Node23&#45;&gt;Node10</title>
<path fill="none" stroke="midnightblue" d="M1304.44,-244.884C1311.71,-229.006 1324.68,-203.9 1341,-186 1354.71,-170.953 1373.48,-157.703 1388.55,-148.344"/>
<polygon fill="midnightblue" stroke="midnightblue" points="1390.61,-151.19 1397.38,-143.039 1387,-145.19 1390.61,-151.19"/>
</g>
<!-- Node27 -->
<g id="node27" class="node"><title>Node27</title>
<g id="a_node27"><a xlink:href="utfstring_8h.xhtml" target="_top" xlink:title="ePub3/utilities/utfstring.h">
<polygon fill="white" stroke="red" points="1698.52,-187 1698.52,-207 1823.48,-207 1823.48,-187 1698.52,-187"/>
<text text-anchor="middle" x="1761" y="-193" font-family="Helvetica,sans-Serif" font-size="10.00">ePub3/utilities/utfstring.h</text>
</a>
</g>
</g>
<!-- Node23&#45;&gt;Node27 -->
<g id="edge31" class="edge"><title>Node23&#45;&gt;Node27</title>
<path fill="none" stroke="midnightblue" d="M1345.81,-253.598C1427.06,-242.718 1592.58,-220.552 1688.27,-207.739"/>
<polygon fill="midnightblue" stroke="midnightblue" points="1689,-211.173 1698.45,-206.376 1688.07,-204.235 1689,-211.173"/>
</g>
<!-- Node39 -->
<g id="node39" class="node"><title>Node39</title>
<polygon fill="white" stroke="#bfbfbf" points="1071.71,-187 1071.71,-207 1118.29,-207 1118.29,-187 1071.71,-187"/>
<text text-anchor="middle" x="1095" y="-193" font-family="Helvetica,sans-Serif" font-size="10.00">chrono</text>
</g>
<!-- Node23&#45;&gt;Node39 -->
<g id="edge48" class="edge"><title>Node23&#45;&gt;Node39</title>
<path fill="none" stroke="midnightblue" d="M1250.15,-245.385C1212.54,-233.9 1161.15,-218.204 1128.01,-208.083"/>
<polygon fill="midnightblue" stroke="midnightblue" points="1128.94,-204.706 1118.35,-205.132 1126.89,-211.4 1128.94,-204.706"/>
</g>
<!-- Node23&#45;&gt;Node18 -->
<g id="edge49" class="edge"><title>Node23&#45;&gt;Node18</title>
<path fill="none" stroke="midnightblue" d="M1292.21,-244.858C1285.78,-229.182 1274.39,-204.449 1260,-186 1245.09,-166.877 1229,-172.091 1219,-150 1212.77,-136.234 1212.6,-129.69 1219,-116 1225.59,-101.891 1238.88,-90.5857 1250.74,-82.7137"/>
<polygon fill="midnightblue" stroke="midnightblue" points="1252.72,-85.602 1259.4,-77.3736 1249.05,-79.644 1252.72,-85.602"/>
</g>
<!-- Node23&#45;&gt;Node19 -->
<g id="edge50" class="edge"><title>Node23&#45;&gt;Node19</title>
<path fill="none" stroke="midnightblue" d="M1273.31,-244.992C1257.04,-235.105 1235.86,-222.231 1219.79,-212.458"/>
<polygon fill="midnightblue" stroke="midnightblue" points="1221.35,-209.312 1210.99,-207.109 1217.71,-215.294 1221.35,-209.312"/>
</g>
<!-- Node40 -->
<g id="node40" class="node"><title>Node40</title>
<polygon fill="white" stroke="#bfbfbf" points="906.273,-187 906.273,-207 951.727,-207 951.727,-187 906.273,-187"/>
<text text-anchor="middle" x="929" y="-193" font-family="Helvetica,sans-Serif" font-size="10.00">atomic</text>
</g>
<!-- Node23&#45;&gt;Node40 -->
<g id="edge51" class="edge"><title>Node23&#45;&gt;Node40</title>
<path fill="none" stroke="midnightblue" d="M1250.02,-246.203C1246.64,-245.405 1243.28,-244.66 1240,-244 1120.55,-219.941 1084.93,-233.99 961.752,-207.825"/>
<polygon fill="midnightblue" stroke="midnightblue" points="962.458,-204.396 951.943,-205.696 960.973,-211.237 962.458,-204.396"/>
</g>
<!-- Node27&#45;&gt;Node10 -->
<g id="edge32" class="edge"><title>Node27&#45;&gt;Node10</title>
<path fill="none" stroke="midnightblue" d="M1710.54,-186.985C1647.97,-175.804 1541.39,-156.762 1474.5,-144.809"/>
<polygon fill="midnightblue" stroke="midnightblue" points="1474.98,-141.34 1464.52,-143.026 1473.75,-148.231 1474.98,-141.34"/>
</g>
<!-- Node28 -->
<g id="node28" class="node"><title>Node28</title>
<g id="a_node28"><a xlink:href="integer__sequence_8h.xhtml" target="_top" xlink:title="ePub3/utilities/integer\l_sequence.h">
<polygon fill="white" stroke="black" points="1228.19,-117 1228.19,-149 1339.81,-149 1339.81,-117 1228.19,-117"/>
<text text-anchor="start" x="1236.19" y="-135" font-family="Helvetica,sans-Serif" font-size="10.00">ePub3/utilities/integer</text>
<text text-anchor="middle" x="1284" y="-123" font-family="Helvetica,sans-Serif" font-size="10.00">_sequence.h</text>
</a>
</g>
</g>
<!-- Node27&#45;&gt;Node28 -->
<g id="edge33" class="edge"><title>Node27&#45;&gt;Node28</title>
<path fill="none" stroke="midnightblue" d="M1698.52,-191.57C1619.54,-185.403 1479.29,-172.571 1350,-150.036"/>
<polygon fill="midnightblue" stroke="midnightblue" points="1350.38,-146.549 1339.92,-148.255 1349.16,-153.442 1350.38,-146.549"/>
</g>
<!-- Node29 -->
<g id="node29" class="node"><title>Node29</title>
<g id="a_node29"><a xlink:href="string__view_8h.xhtml" target="_top" xlink:title="ePub3/utilities/string\l_view.h">
<polygon fill="white" stroke="red" points="1526.25,-117 1526.25,-149 1631.75,-149 1631.75,-117 1526.25,-117"/>
<text text-anchor="start" x="1534.25" y="-135" font-family="Helvetica,sans-Serif" font-size="10.00">ePub3/utilities/string</text>
<text text-anchor="middle" x="1579" y="-123" font-family="Helvetica,sans-Serif" font-size="10.00">_view.h</text>
</a>
</g>
</g>
<!-- Node27&#45;&gt;Node29 -->
<g id="edge35" class="edge"><title>Node27&#45;&gt;Node29</title>
<path fill="none" stroke="midnightblue" d="M1734.54,-186.985C1707.98,-177.937 1666.3,-163.741 1632.78,-152.319"/>
<polygon fill="midnightblue" stroke="midnightblue" points="1633.7,-148.937 1623.11,-149.026 1631.45,-155.564 1633.7,-148.937"/>
</g>
<!-- Node31 -->
<g id="node31" class="node"><title>Node31</title>
<polygon fill="white" stroke="#bfbfbf" points="1661.77,-59 1661.77,-79 1702.23,-79 1702.23,-59 1661.77,-59"/>
<text text-anchor="middle" x="1682" y="-65" font-family="Helvetica,sans-Serif" font-size="10.00">string</text>
</g>
<!-- Node27&#45;&gt;Node31 -->
<g id="edge40" class="edge"><title>Node27&#45;&gt;Node31</title>
<path fill="none" stroke="midnightblue" d="M1764.69,-186.829C1770.39,-171.102 1779.34,-138.508 1766,-116 1754.38,-96.3884 1731.11,-84.5893 1712.01,-77.8596"/>
<polygon fill="midnightblue" stroke="midnightblue" points="1713.07,-74.5252 1702.48,-74.788 1710.92,-81.1876 1713.07,-74.5252"/>
</g>
<!-- Node34 -->
<g id="node34" class="node"><title>Node34</title>
<polygon fill="white" stroke="#bfbfbf" points="1649.44,-123 1649.44,-143 1696.56,-143 1696.56,-123 1649.44,-123"/>
<text text-anchor="middle" x="1673" y="-129" font-family="Helvetica,sans-Serif" font-size="10.00">iterator</text>
</g>
<!-- Node27&#45;&gt;Node34 -->
<g id="edge41" class="edge"><title>Node27&#45;&gt;Node34</title>
<path fill="none" stroke="midnightblue" d="M1748.02,-186.852C1733.98,-176.961 1711.37,-161.033 1694.64,-149.244"/>
<polygon fill="midnightblue" stroke="midnightblue" points="1696.23,-146.084 1686.04,-143.186 1692.2,-151.807 1696.23,-146.084"/>
</g>
<!-- Node35 -->
<g id="node35" class="node"><title>Node35</title>
<polygon fill="white" stroke="#bfbfbf" points="1714.94,-123 1714.94,-143 1757.06,-143 1757.06,-123 1714.94,-123"/>
<text text-anchor="middle" x="1736" y="-129" font-family="Helvetica,sans-Serif" font-size="10.00">locale</text>
</g>
<!-- Node27&#45;&gt;Node35 -->
<g id="edge42" class="edge"><title>Node27&#45;&gt;Node35</title>
<path fill="none" stroke="midnightblue" d="M1757.31,-186.852C1753.69,-177.877 1748.07,-163.931 1743.51,-152.617"/>
<polygon fill="midnightblue" stroke="midnightblue" points="1746.69,-151.151 1739.7,-143.186 1740.2,-153.769 1746.69,-151.151"/>
</g>
<!-- Node27&#45;&gt;Node17 -->
<g id="edge43" class="edge"><title>Node27&#45;&gt;Node17</title>
<path fill="none" stroke="midnightblue" d="M1823.75,-193.469C1902.5,-189.153 2031.89,-177.934 2070,-150 2090,-135.34 2100.25,-107.616 2105.12,-88.9724"/>
<polygon fill="midnightblue" stroke="midnightblue" points="2108.53,-89.7451 2107.39,-79.2117 2101.71,-88.1563 2108.53,-89.7451"/>
</g>
<!-- Node36 -->
<g id="node36" class="node"><title>Node36</title>
<polygon fill="white" stroke="#bfbfbf" points="1812.77,-123 1812.77,-143 1913.23,-143 1913.23,-123 1812.77,-123"/>
<text text-anchor="middle" x="1863" y="-129" font-family="Helvetica,sans-Serif" font-size="10.00">REGEX_INCLUDE</text>
</g>
<!-- Node27&#45;&gt;Node36 -->
<g id="edge44" class="edge"><title>Node27&#45;&gt;Node36</title>
<path fill="none" stroke="midnightblue" d="M1776.05,-186.852C1792.7,-176.732 1819.75,-160.292 1839.26,-148.432"/>
<polygon fill="midnightblue" stroke="midnightblue" points="1841.16,-151.371 1847.89,-143.186 1837.52,-145.389 1841.16,-151.371"/>
</g>
<!-- Node37 -->
<g id="node37" class="node"><title>Node37</title>
<polygon fill="white" stroke="#bfbfbf" points="1931.27,-123 1931.27,-143 1966.73,-143 1966.73,-123 1931.27,-123"/>
<text text-anchor="middle" x="1949" y="-129" font-family="Helvetica,sans-Serif" font-size="10.00">map</text>
</g>
<!-- Node27&#45;&gt;Node37 -->
<g id="edge45" class="edge"><title>Node27&#45;&gt;Node37</title>
<path fill="none" stroke="midnightblue" d="M1803.72,-186.958C1836.78,-179.215 1883.29,-166.671 1922,-150 1923.41,-149.394 1924.83,-148.728 1926.25,-148.022"/>
<polygon fill="midnightblue" stroke="midnightblue" points="1928.28,-150.903 1935.35,-143.011 1924.9,-144.772 1928.28,-150.903"/>
</g>
<!-- Node38 -->
<g id="node38" class="node"><title>Node38</title>
<polygon fill="white" stroke="#bfbfbf" points="1984.6,-123 1984.6,-143 2043.4,-143 2043.4,-123 1984.6,-123"/>
<text text-anchor="middle" x="2014" y="-129" font-family="Helvetica,sans-Serif" font-size="10.00">stdexcept</text>
</g>
<!-- Node27&#45;&gt;Node38 -->
<g id="edge46" class="edge"><title>Node27&#45;&gt;Node38</title>
<path fill="none" stroke="midnightblue" d="M1815.78,-186.997C1859.43,-179.163 1921.82,-166.48 1975,-150 1977.98,-149.077 1981.05,-148.017 1984.09,-146.892"/>
<polygon fill="midnightblue" stroke="midnightblue" points="1985.57,-150.073 1993.6,-143.165 1983.02,-143.555 1985.57,-150.073"/>
</g>
<!-- Node32 -->
<g id="node32" class="node"><title>Node32</title>
<polygon fill="white" stroke="#bfbfbf" points="1824.61,-59 1824.61,-79 1863.39,-79 1863.39,-59 1824.61,-59"/>
<text text-anchor="middle" x="1844" y="-65" font-family="Helvetica,sans-Serif" font-size="10.00">limits</text>
</g>
<!-- Node27&#45;&gt;Node32 -->
<g id="edge47" class="edge"><title>Node27&#45;&gt;Node32</title>
<path fill="none" stroke="midnightblue" d="M1823.54,-195.248C1900.12,-192.846 2023.22,-183.687 2052,-150 2102.93,-90.3855 1942.87,-75.022 1873.96,-71.2078"/>
<polygon fill="midnightblue" stroke="midnightblue" points="1873.9,-67.7 1863.73,-70.6897 1873.54,-74.691 1873.9,-67.7"/>
</g>
<!-- Node28&#45;&gt;Node11 -->
<g id="edge34" class="edge"><title>Node28&#45;&gt;Node11</title>
<path fill="none" stroke="midnightblue" d="M1254.47,-116.992C1234.47,-106.828 1208.26,-93.5066 1188.85,-83.6437"/>
<polygon fill="midnightblue" stroke="midnightblue" points="1190.42,-80.5191 1179.92,-79.1088 1187.25,-86.7595 1190.42,-80.5191"/>
</g>
<!-- Node30 -->
<g id="node30" class="node"><title>Node30</title>
<polygon fill="white" stroke="#bfbfbf" points="717.934,-59 717.934,-79 780.066,-79 780.066,-59 717.934,-59"/>
<text text-anchor="middle" x="749" y="-65" font-family="Helvetica,sans-Serif" font-size="10.00">type_traits</text>
</g>
<!-- Node29&#45;&gt;Node30 -->
<g id="edge36" class="edge"><title>Node29&#45;&gt;Node30</title>
<path fill="none" stroke="midnightblue" d="M1526.19,-122.582C1511,-120.136 1494.38,-117.711 1479,-116 1217.96,-86.9602 902.223,-74.8182 790.559,-71.2252"/>
<polygon fill="midnightblue" stroke="midnightblue" points="790.505,-67.7218 780.399,-70.9039 790.283,-74.7183 790.505,-67.7218"/>
</g>
<!-- Node29&#45;&gt;Node31 -->
<g id="edge37" class="edge"><title>Node29&#45;&gt;Node31</title>
<path fill="none" stroke="midnightblue" d="M1603.93,-116.992C1620.36,-107.105 1641.75,-94.2309 1657.98,-84.4583"/>
<polygon fill="midnightblue" stroke="midnightblue" points="1660.11,-87.2646 1666.87,-79.1088 1656.5,-81.2673 1660.11,-87.2646"/>
</g>
<!-- Node29&#45;&gt;Node32 -->
<g id="edge38" class="edge"><title>Node29&#45;&gt;Node32</title>
<path fill="none" stroke="midnightblue" d="M1631.87,-118.012C1634.62,-117.323 1637.34,-116.648 1640,-116 1702.01,-100.882 1775.05,-84.836 1814.73,-76.2651"/>
<polygon fill="midnightblue" stroke="midnightblue" points="1815.5,-79.6798 1824.54,-74.1525 1814.03,-72.8368 1815.5,-79.6798"/>
</g>
<!-- Node29&#45;&gt;Node33 -->
<g id="edge39" class="edge"><title>Node29&#45;&gt;Node33</title>
<path fill="none" stroke="midnightblue" d="M1569.08,-116.992C1563.25,-108.175 1555.84,-96.983 1549.73,-87.733"/>
<polygon fill="midnightblue" stroke="midnightblue" points="1552.58,-85.701 1544.14,-79.2904 1546.74,-89.5622 1552.58,-85.701"/>
</g>
<!-- Node41&#45;&gt;Node11 -->
<g id="edge53" class="edge"><title>Node41&#45;&gt;Node11</title>
<path fill="none" stroke="midnightblue" d="M690.894,-125.728C715.806,-122.775 745.929,-119.205 773,-116 895.138,-101.541 1038.85,-84.553 1112.7,-75.826"/>
<polygon fill="midnightblue" stroke="midnightblue" points="1113.55,-79.2491 1123.07,-74.5996 1112.73,-72.2975 1113.55,-79.2491"/>
</g>
<!-- Node42 -->
<g id="node42" class="node"><title>Node42</title>
<polygon fill="white" stroke="#bfbfbf" points="632.879,-59 632.879,-79 681.121,-79 681.121,-59 632.879,-59"/>
<text text-anchor="middle" x="657" y="-65" font-family="Helvetica,sans-Serif" font-size="10.00">cstddef</text>
</g>
<!-- Node41&#45;&gt;Node42 -->
<g id="edge54" class="edge"><title>Node41&#45;&gt;Node42</title>
<path fill="none" stroke="midnightblue" d="M642.599,-116.992C645.189,-108.543 648.446,-97.9116 651.208,-88.899"/>
<polygon fill="midnightblue" stroke="midnightblue" points="654.569,-89.8771 654.153,-79.2904 647.876,-87.826 654.569,-89.8771"/>
</g>
<!-- Node41&#45;&gt;Node16 -->
<g id="edge55" class="edge"><title>Node41&#45;&gt;Node16</title>
<path fill="none" stroke="midnightblue" d="M626.138,-116.992C619.026,-107.992 609.956,-96.5156 602.56,-87.1574"/>
<polygon fill="midnightblue" stroke="midnightblue" points="605.289,-84.9658 596.342,-79.2904 599.797,-89.3062 605.289,-84.9658"/>
</g>
<!-- Node41&#45;&gt;Node30 -->
<g id="edge56" class="edge"><title>Node41&#45;&gt;Node30</title>
<path fill="none" stroke="midnightblue" d="M664.87,-116.992C682.735,-107.013 706.05,-93.99 723.604,-84.1851"/>
<polygon fill="midnightblue" stroke="midnightblue" points="725.669,-87.0409 732.692,-79.1088 722.255,-80.9296 725.669,-87.0409"/>
</g>
<!-- Node41&#45;&gt;Node43 -->
<g id="edge57" class="edge"><title>Node41&#45;&gt;Node43</title>
<path fill="none" stroke="midnightblue" d="M585.112,-118.394C536.269,-105.829 465.516,-87.6265 426.173,-77.5051"/>
<polygon fill="midnightblue" stroke="midnightblue" points="426.973,-74.097 416.416,-74.995 425.229,-80.8762 426.973,-74.097"/>
</g>
<!-- Node46&#45;&gt;Node7 -->
<g id="edge62" class="edge"><title>Node46&#45;&gt;Node7</title>
<path fill="none" stroke="midnightblue" d="M641.182,-250.948C653.033,-248.508 666,-245.994 678,-244 802.642,-223.291 835.233,-227.94 960,-208 960.102,-207.984 960.204,-207.967 960.307,-207.951"/>
<polygon fill="midnightblue" stroke="midnightblue" points="960.76,-211.424 970.036,-206.305 959.593,-204.522 960.76,-211.424"/>
</g>
<!-- Node46&#45;&gt;Node20 -->
<g id="edge63" class="edge"><title>Node46&#45;&gt;Node20</title>
<path fill="none" stroke="midnightblue" d="M643.336,-250.955C705.806,-237.752 814.45,-214.106 821,-208 836.033,-193.988 841.314,-170.351 843.13,-153.564"/>
<polygon fill="midnightblue" stroke="midnightblue" points="846.646,-153.475 843.91,-143.239 839.666,-152.947 846.646,-153.475"/>
</g>
<!-- Node46&#45;&gt;Node39 -->
<g id="edge64" class="edge"><title>Node46&#45;&gt;Node39</title>
<path fill="none" stroke="midnightblue" d="M663.88,-254.262C768.201,-244.658 971.661,-224.888 1061.8,-207.619"/>
<polygon fill="midnightblue" stroke="midnightblue" points="1062.58,-211.031 1071.7,-205.635 1061.21,-204.168 1062.58,-211.031"/>
</g>
<!-- Node47 -->
<g id="node47" class="node"><title>Node47</title>
<polygon fill="white" stroke="#bfbfbf" points="566.096,-187 566.096,-207 609.904,-207 609.904,-187 566.096,-187"/>
<text text-anchor="middle" x="588" y="-193" font-family="Helvetica,sans-Serif" font-size="10.00">queue</text>
</g>
<!-- Node46&#45;&gt;Node47 -->
<g id="edge65" class="edge"><title>Node46&#45;&gt;Node47</title>
<path fill="none" stroke="midnightblue" d="M598.229,-250.852C596.528,-242.06 593.903,-228.498 591.738,-217.313"/>
<polygon fill="midnightblue" stroke="midnightblue" points="595.114,-216.339 589.778,-207.186 588.242,-217.669 595.114,-216.339"/>
</g>
<!-- Node46&#45;&gt;Node40 -->
<g id="edge66" class="edge"><title>Node46&#45;&gt;Node40</title>
<path fill="none" stroke="midnightblue" d="M643.288,-250.951C654.578,-248.638 666.737,-246.187 678,-244 756.034,-228.848 847.986,-212.338 896.011,-203.817"/>
<polygon fill="midnightblue" stroke="midnightblue" points="896.892,-207.216 906.128,-202.025 895.671,-200.323 896.892,-207.216"/>
</g>
<!-- Node46&#45;&gt;Node19 -->
<g id="edge67" class="edge"><title>Node46&#45;&gt;Node19</title>
<path fill="none" stroke="midnightblue" d="M663.783,-254.651C762.993,-246.119 960.216,-228.304 1127,-208 1139.14,-206.522 1152.45,-204.652 1164.11,-202.931"/>
<polygon fill="midnightblue" stroke="midnightblue" points="1164.91,-206.351 1174.28,-201.407 1163.87,-199.428 1164.91,-206.351"/>
</g>
<!-- Node46&#45;&gt;Node22 -->
<g id="edge68" class="edge"><title>Node46&#45;&gt;Node22</title>
<path fill="none" stroke="midnightblue" d="M572.663,-250.985C538.5,-239.718 480.134,-220.47 443.946,-208.535"/>
<polygon fill="midnightblue" stroke="midnightblue" points="444.959,-205.184 434.366,-205.376 442.767,-211.832 444.959,-205.184"/>
</g>
<!-- Node48 -->
<g id="node48" class="node"><title>Node48</title>
<polygon fill="white" stroke="#bfbfbf" points="627.884,-187 627.884,-207 676.116,-207 676.116,-187 627.884,-187"/>
<text text-anchor="middle" x="652" y="-193" font-family="Helvetica,sans-Serif" font-size="10.00">cassert</text>
</g>
<!-- Node46&#45;&gt;Node48 -->
<g id="edge69" class="edge"><title>Node46&#45;&gt;Node48</title>
<path fill="none" stroke="midnightblue" d="M607.673,-250.852C615.584,-241.419 628.101,-226.495 637.82,-214.907"/>
<polygon fill="midnightblue" stroke="midnightblue" points="640.551,-217.097 644.296,-207.186 635.188,-212.599 640.551,-217.097"/>
</g>
<!-- Node46&#45;&gt;Node24 -->
<g id="edge70" class="edge"><title>Node46&#45;&gt;Node24</title>
<path fill="none" stroke="midnightblue" d="M585.245,-250.852C568.997,-240.778 542.646,-224.441 523.538,-212.594"/>
<polygon fill="midnightblue" stroke="midnightblue" points="525.159,-209.481 514.816,-207.186 521.471,-215.43 525.159,-209.481"/>
</g>
<!-- Node49 -->
<g id="node49" class="node"><title>Node49</title>
<g id="a_node49"><a xlink:href="invoke_8h.xhtml" target="_top" xlink:title="ePub3/utilities/invoke.h">
<polygon fill="white" stroke="black" points="693.857,-187 693.857,-207 812.143,-207 812.143,-187 693.857,-187"/>
<text text-anchor="middle" x="753" y="-193" font-family="Helvetica,sans-Serif" font-size="10.00">ePub3/utilities/invoke.h</text>
</a>
</g>
</g>
<!-- Node46&#45;&gt;Node49 -->
<g id="edge71" class="edge"><title>Node46&#45;&gt;Node49</title>
<path fill="none" stroke="midnightblue" d="M622.248,-250.985C648.309,-240.424 691.678,-222.849 721.265,-210.86"/>
<polygon fill="midnightblue" stroke="midnightblue" points="722.772,-214.026 730.726,-207.026 720.143,-207.538 722.772,-214.026"/>
</g>
<!-- Node49&#45;&gt;Node11 -->
<g id="edge72" class="edge"><title>Node49&#45;&gt;Node11</title>
<path fill="none" stroke="midnightblue" d="M756.091,-186.939C762.443,-169.838 778.707,-133.001 806,-116 856.144,-84.7651 1027.27,-74.5649 1112.68,-71.3748"/>
<polygon fill="midnightblue" stroke="midnightblue" points="1113.04,-74.8644 1122.91,-71.0112 1112.79,-67.8688 1113.04,-74.8644"/>
</g>
<!-- Node49&#45;&gt;Node30 -->
<g id="edge73" class="edge"><title>Node49&#45;&gt;Node30</title>
<path fill="none" stroke="midnightblue" d="M752.712,-186.938C752.067,-166.605 750.491,-116.968 749.614,-89.3477"/>
<polygon fill="midnightblue" stroke="midnightblue" points="753.111,-89.2033 749.296,-79.3195 746.115,-89.4255 753.111,-89.2033"/>
</g>
<!-- Node49&#45;&gt;Node20 -->
<g id="edge74" class="edge"><title>Node49&#45;&gt;Node20</title>
<path fill="none" stroke="midnightblue" d="M766.427,-186.852C781.079,-176.87 804.757,-160.737 822.104,-148.918"/>
<polygon fill="midnightblue" stroke="midnightblue" points="824.224,-151.709 830.518,-143.186 820.283,-145.924 824.224,-151.709"/>
</g>
<!-- Node50&#45;&gt;Node7 -->
<g id="edge76" class="edge"><title>Node50&#45;&gt;Node7</title>
<path fill="none" stroke="midnightblue" d="M1048.29,-314.988C1062.57,-306.334 1078.04,-293.975 1086,-278 1092.74,-264.476 1093.34,-257.208 1086,-244 1077.86,-229.358 1062.92,-218.776 1048.58,-211.481"/>
<polygon fill="midnightblue" stroke="midnightblue" points="1049.86,-208.217 1039.32,-207.152 1046.89,-214.558 1049.86,-208.217"/>
</g>
</g>
</svg>
