<?xml version="1.0" encoding="UTF-8" standalone="no"?>
<!DOCTYPE svg PUBLIC "-//W3C//DTD SVG 1.1//EN"
 "http://www.w3.org/Graphics/SVG/1.1/DTD/svg11.dtd">
<!-- Generated by graphviz version 2.30.0 (20130114.0426)
 -->
<!-- Title: /Users/rkwright/Documents/github/readium&#45;sdk&#45;D/ePub3/ePub/filter_manager.h Pages: 1 -->
<svg width="298pt" height="112pt"
 viewBox="0.00 0.00 298.00 112.00" xmlns="http://www.w3.org/2000/svg" xmlns:xlink="http://www.w3.org/1999/xlink">
<g id="graph0" class="graph" transform="scale(1 1) rotate(0) translate(4 108)">
<title>/Users/rkwright/Documents/github/readium&#45;sdk&#45;D/ePub3/ePub/filter_manager.h</title>
<polygon fill="white" stroke="white" points="-4,5 -4,-108 295,-108 295,5 -4,5"/>
<!-- Node1 -->
<g id="node1" class="node"><title>Node1</title>
<polygon fill="#bfbfbf" stroke="black" points="64.9658,-59 64.9658,-103 211.034,-103 211.034,-59 64.9658,-59"/>
<text text-anchor="start" x="72.9658" y="-89" font-family="Helvetica,sans-Serif" font-size="10.00">/Users/rkwright/Documents</text>
<text text-anchor="start" x="72.9658" y="-77" font-family="Helvetica,sans-Serif" font-size="10.00">/github/readium&#45;sdk&#45;D/ePub3</text>
<text text-anchor="middle" x="138" y="-65" font-family="Helvetica,sans-Serif" font-size="10.00">/ePub/filter_manager.h</text>
</g>
<!-- Node2 -->
<g id="node2" class="node"><title>Node2</title>
<polygon fill="white" stroke="#bfbfbf" points="-0.920898,-1 -0.920898,-21 82.9209,-21 82.9209,-1 -0.920898,-1"/>
<text text-anchor="middle" x="41" y="-7" font-family="Helvetica,sans-Serif" font-size="10.00">ePub3/epub3.h</text>
</g>
<!-- Node1&#45;&gt;Node2 -->
<g id="edge1" class="edge"><title>Node1&#45;&gt;Node2</title>
<path fill="none" stroke="midnightblue" d="M107.84,-58.8571C93.1094,-48.5303 75.7314,-36.3478 62.3875,-26.9933"/>
<polygon fill="midnightblue" stroke="midnightblue" points="64.0736,-23.901 53.8762,-21.0266 60.0554,-29.6328 64.0736,-23.901"/>
</g>
<!-- Node3 -->
<g id="node3" class="node"><title>Node3</title>
<polygon fill="white" stroke="#bfbfbf" points="100.811,-1 100.811,-21 175.189,-21 175.189,-1 100.811,-1"/>
<text text-anchor="middle" x="138" y="-7" font-family="Helvetica,sans-Serif" font-size="10.00">ePub3/filter.h</text>
</g>
<!-- Node1&#45;&gt;Node3 -->
<g id="edge2" class="edge"><title>Node1&#45;&gt;Node3</title>
<path fill="none" stroke="midnightblue" d="M138,-58.8571C138,-50.074 138,-39.9484 138,-31.3622"/>
<polygon fill="midnightblue" stroke="midnightblue" points="141.5,-31.2039 138,-21.2039 134.5,-31.204 141.5,-31.2039"/>
</g>
<!-- Node4 -->
<g id="node4" class="node"><title>Node4</title>
<polygon fill="white" stroke="#bfbfbf" points="193.688,-1 193.688,-21 290.312,-21 290.312,-1 193.688,-1"/>
<text text-anchor="middle" x="242" y="-7" font-family="Helvetica,sans-Serif" font-size="10.00">ePub3/container.h</text>
</g>
<!-- Node1&#45;&gt;Node4 -->
<g id="edge3" class="edge"><title>Node1&#45;&gt;Node4</title>
<path fill="none" stroke="midnightblue" d="M170.336,-58.8571C186.282,-48.431 205.121,-36.1133 219.481,-26.7243"/>
<polygon fill="midnightblue" stroke="midnightblue" points="221.74,-29.4285 228.195,-21.0266 217.91,-23.5697 221.74,-29.4285"/>
</g>
</g>
</svg>
