<?xml version="1.0" encoding="UTF-8" standalone="no"?>
<!DOCTYPE svg PUBLIC "-//W3C//DTD SVG 1.1//EN"
 "http://www.w3.org/Graphics/SVG/1.1/DTD/svg11.dtd">
<!-- Generated by graphviz version 2.30.0 (20130114.0426)
 -->
<!-- Title: /Users/rkwright/Documents/github/readium&#45;sdk&#45;D/ePub3/ePub/filter_chain_byte_stream_range.h Pages: 1 -->
<svg width="325pt" height="148pt"
 viewBox="0.00 0.00 325.00 148.00" xmlns="http://www.w3.org/2000/svg" xmlns:xlink="http://www.w3.org/1999/xlink">
<g id="graph0" class="graph" transform="scale(1 1) rotate(0) translate(4 144)">
<title>/Users/rkwright/Documents/github/readium&#45;sdk&#45;D/ePub3/ePub/filter_chain_byte_stream_range.h</title>
<polygon fill="white" stroke="white" points="-4,5 -4,-144 322,-144 322,5 -4,5"/>
<!-- Node1 -->
<g id="node1" class="node"><title>Node1</title>
<polygon fill="#bfbfbf" stroke="black" points="60.333,-95 60.333,-139 253.667,-139 253.667,-95 60.333,-95"/>
<text text-anchor="start" x="68.333" y="-125" font-family="Helvetica,sans-Serif" font-size="10.00">/Users/rkwright/Documents</text>
<text text-anchor="start" x="68.333" y="-113" font-family="Helvetica,sans-Serif" font-size="10.00">/github/readium&#45;sdk&#45;D/ePub3</text>
<text text-anchor="middle" x="157" y="-101" font-family="Helvetica,sans-Serif" font-size="10.00">/ePub/filter_chain_byte_stream_range.h</text>
</g>
<!-- Node2 -->
<g id="node2" class="node"><title>Node2</title>
<g id="a_node2"><a xlink:href="filter__chain_8cpp.xhtml" target="_top" xlink:title="/Users/rkwright/Documents\l/github/readium&#45;sdk&#45;D/ePub3\l/ePub/filter_chain.cpp">
<polygon fill="white" stroke="black" points="-0.0341797,-7 -0.0341797,-51 146.034,-51 146.034,-7 -0.0341797,-7"/>
<text text-anchor="start" x="7.96582" y="-37" font-family="Helvetica,sans-Serif" font-size="10.00">/Users/rkwright/Documents</text>
<text text-anchor="start" x="7.96582" y="-25" font-family="Helvetica,sans-Serif" font-size="10.00">/github/readium&#45;sdk&#45;D/ePub3</text>
<text text-anchor="middle" x="73" y="-13" font-family="Helvetica,sans-Serif" font-size="10.00">/ePub/filter_chain.cpp</text>
</a>
</g>
</g>
<!-- Node1&#45;&gt;Node2 -->
<g id="edge1" class="edge"><title>Node1&#45;&gt;Node2</title>
<path fill="none" stroke="midnightblue" d="M129.233,-87.5715C117.58,-75.6415 104.27,-62.0145 93.5252,-51.0139"/>
<polygon fill="midnightblue" stroke="midnightblue" points="126.745,-90.0334 136.236,-94.7416 131.752,-85.1422 126.745,-90.0334"/>
</g>
<!-- Node3 -->
<g id="node3" class="node"><title>Node3</title>
<g id="a_node3"><a xlink:href="filter__chain__byte__stream__range_8cpp.xhtml" target="_top" xlink:title="/Users/rkwright/Documents\l/github/readium&#45;sdk&#45;D/ePub3\l/ePub/filter_chain_byte_stream\l_range.cpp">
<polygon fill="white" stroke="black" points="164.072,-1 164.072,-57 317.928,-57 317.928,-1 164.072,-1"/>
<text text-anchor="start" x="172.072" y="-43" font-family="Helvetica,sans-Serif" font-size="10.00">/Users/rkwright/Documents</text>
<text text-anchor="start" x="172.072" y="-31" font-family="Helvetica,sans-Serif" font-size="10.00">/github/readium&#45;sdk&#45;D/ePub3</text>
<text text-anchor="start" x="172.072" y="-19" font-family="Helvetica,sans-Serif" font-size="10.00">/ePub/filter_chain_byte_stream</text>
<text text-anchor="middle" x="241" y="-7" font-family="Helvetica,sans-Serif" font-size="10.00">_range.cpp</text>
</a>
</g>
</g>
<!-- Node1&#45;&gt;Node3 -->
<g id="edge2" class="edge"><title>Node1&#45;&gt;Node3</title>
<path fill="none" stroke="midnightblue" d="M184.807,-87.5311C194.349,-77.7617 204.999,-66.8581 214.44,-57.1925"/>
<polygon fill="midnightblue" stroke="midnightblue" points="182.248,-85.1422 177.764,-94.7416 187.255,-90.0334 182.248,-85.1422"/>
</g>
</g>
</svg>
