<?xml version="1.0" encoding="UTF-8" standalone="no"?>
<!DOCTYPE svg PUBLIC "-//W3C//DTD SVG 1.1//EN"
 "http://www.w3.org/Graphics/SVG/1.1/DTD/svg11.dtd">
<!-- Generated by graphviz version 2.30.0 (20130114.0426)
 -->
<!-- Title: /Users/rkwright/Documents/github/readium&#45;sdk&#45;D/ePub3/ePub/filter.h Pages: 1 -->
<svg width="515pt" height="148pt"
 viewBox="0.00 0.00 515.00 148.00" xmlns="http://www.w3.org/2000/svg" xmlns:xlink="http://www.w3.org/1999/xlink">
<g id="graph0" class="graph" transform="scale(1 1) rotate(0) translate(4 144)">
<title>/Users/rkwright/Documents/github/readium&#45;sdk&#45;D/ePub3/ePub/filter.h</title>
<polygon fill="white" stroke="white" points="-4,5 -4,-144 512,-144 512,5 -4,5"/>
<!-- Node1 -->
<g id="node1" class="node"><title>Node1</title>
<polygon fill="#bfbfbf" stroke="black" points="176.966,-95 176.966,-139 323.034,-139 323.034,-95 176.966,-95"/>
<text text-anchor="start" x="184.966" y="-125" font-family="Helvetica,sans-Serif" font-size="10.00">/Users/rkwright/Documents</text>
<text text-anchor="start" x="184.966" y="-113" font-family="Helvetica,sans-Serif" font-size="10.00">/github/readium&#45;sdk&#45;D/ePub3</text>
<text text-anchor="middle" x="250" y="-101" font-family="Helvetica,sans-Serif" font-size="10.00">/ePub/filter.h</text>
</g>
<!-- Node2 -->
<g id="node2" class="node"><title>Node2</title>
<g id="a_node2"><a xlink:href="filter__chain_8cpp.xhtml" target="_top" xlink:title="/Users/rkwright/Documents\l/github/readium&#45;sdk&#45;D/ePub3\l/ePub/filter_chain.cpp">
<polygon fill="white" stroke="black" points="-0.0341797,-7 -0.0341797,-51 146.034,-51 146.034,-7 -0.0341797,-7"/>
<text text-anchor="start" x="7.96582" y="-37" font-family="Helvetica,sans-Serif" font-size="10.00">/Users/rkwright/Documents</text>
<text text-anchor="start" x="7.96582" y="-25" font-family="Helvetica,sans-Serif" font-size="10.00">/github/readium&#45;sdk&#45;D/ePub3</text>
<text text-anchor="middle" x="73" y="-13" font-family="Helvetica,sans-Serif" font-size="10.00">/ePub/filter_chain.cpp</text>
</a>
</g>
</g>
<!-- Node1&#45;&gt;Node2 -->
<g id="edge1" class="edge"><title>Node1&#45;&gt;Node2</title>
<path fill="none" stroke="midnightblue" d="M197.437,-90.4611C171.635,-77.9242 140.922,-63.0019 116.466,-51.1188"/>
<polygon fill="midnightblue" stroke="midnightblue" points="196.177,-93.7398 206.701,-94.962 199.236,-87.4437 196.177,-93.7398"/>
</g>
<!-- Node3 -->
<g id="node3" class="node"><title>Node3</title>
<g id="a_node3"><a xlink:href="filter__chain__byte__stream_8cpp.xhtml" target="_top" xlink:title="/Users/rkwright/Documents\l/github/readium&#45;sdk&#45;D/ePub3\l/ePub/filter_chain_byte_stream.cpp">
<polygon fill="white" stroke="black" points="163.621,-7 163.621,-51 336.379,-51 336.379,-7 163.621,-7"/>
<text text-anchor="start" x="171.621" y="-37" font-family="Helvetica,sans-Serif" font-size="10.00">/Users/rkwright/Documents</text>
<text text-anchor="start" x="171.621" y="-25" font-family="Helvetica,sans-Serif" font-size="10.00">/github/readium&#45;sdk&#45;D/ePub3</text>
<text text-anchor="middle" x="250" y="-13" font-family="Helvetica,sans-Serif" font-size="10.00">/ePub/filter_chain_byte_stream.cpp</text>
</a>
</g>
</g>
<!-- Node1&#45;&gt;Node3 -->
<g id="edge2" class="edge"><title>Node1&#45;&gt;Node3</title>
<path fill="none" stroke="midnightblue" d="M250,-84.4986C250,-73.3464 250,-61.0805 250,-51.0139"/>
<polygon fill="midnightblue" stroke="midnightblue" points="246.5,-84.7415 250,-94.7416 253.5,-84.7416 246.5,-84.7415"/>
</g>
<!-- Node4 -->
<g id="node4" class="node"><title>Node4</title>
<g id="a_node4"><a xlink:href="filter__chain__byte__stream__range_8cpp.xhtml" target="_top" xlink:title="/Users/rkwright/Documents\l/github/readium&#45;sdk&#45;D/ePub3\l/ePub/filter_chain_byte_stream\l_range.cpp">
<polygon fill="white" stroke="black" points="354.072,-1 354.072,-57 507.928,-57 507.928,-1 354.072,-1"/>
<text text-anchor="start" x="362.072" y="-43" font-family="Helvetica,sans-Serif" font-size="10.00">/Users/rkwright/Documents</text>
<text text-anchor="start" x="362.072" y="-31" font-family="Helvetica,sans-Serif" font-size="10.00">/github/readium&#45;sdk&#45;D/ePub3</text>
<text text-anchor="start" x="362.072" y="-19" font-family="Helvetica,sans-Serif" font-size="10.00">/ePub/filter_chain_byte_stream</text>
<text text-anchor="middle" x="431" y="-7" font-family="Helvetica,sans-Serif" font-size="10.00">_range.cpp</text>
</a>
</g>
</g>
<!-- Node1&#45;&gt;Node4 -->
<g id="edge3" class="edge"><title>Node1&#45;&gt;Node4</title>
<path fill="none" stroke="midnightblue" d="M303.564,-90.5497C325.791,-79.9887 351.607,-67.7228 374.167,-57.0035"/>
<polygon fill="midnightblue" stroke="midnightblue" points="301.808,-87.5091 294.278,-94.962 304.812,-93.8317 301.808,-87.5091"/>
</g>
</g>
</svg>
