<?xml version="1.0" encoding="UTF-8" standalone="no"?>
<!DOCTYPE svg PUBLIC "-//W3C//DTD SVG 1.1//EN"
 "http://www.w3.org/Graphics/SVG/1.1/DTD/svg11.dtd">
<!-- Generated by graphviz version 2.30.0 (20130114.0426)
 -->
<!-- Title: /Users/rkwright/Documents/github/readium&#45;sdk&#45;D/ePub3/ePub/font_obfuscation.cpp Pages: 1 -->
<svg width="2646pt" height="484pt"
 viewBox="0.00 0.00 2645.63 484.00" xmlns="http://www.w3.org/2000/svg" xmlns:xlink="http://www.w3.org/1999/xlink">
<g id="graph0" class="graph" transform="scale(1 1) rotate(0) translate(4 480)">
<title>/Users/rkwright/Documents/github/readium&#45;sdk&#45;D/ePub3/ePub/font_obfuscation.cpp</title>
<polygon fill="white" stroke="white" points="-4,5 -4,-480 2642.63,-480 2642.63,5 -4,5"/>
<!-- Node1 -->
<g id="node1" class="node"><title>Node1</title>
<polygon fill="#bfbfbf" stroke="black" points="473.966,-431 473.966,-475 620.034,-475 620.034,-431 473.966,-431"/>
<text text-anchor="start" x="481.966" y="-461" font-family="Helvetica,sans-Serif" font-size="10.00">/Users/rkwright/Documents</text>
<text text-anchor="start" x="481.966" y="-449" font-family="Helvetica,sans-Serif" font-size="10.00">/github/readium&#45;sdk&#45;D/ePub3</text>
<text text-anchor="middle" x="547" y="-437" font-family="Helvetica,sans-Serif" font-size="10.00">/ePub/font_obfuscation.cpp</text>
</g>
<!-- Node2 -->
<g id="node2" class="node"><title>Node2</title>
<g id="a_node2"><a xlink:href="base_8h.xhtml" target="_top" xlink:title="ePub3/base.h">
<polygon fill="white" stroke="black" points="1446.14,-117 1446.14,-137 1523.86,-137 1523.86,-117 1446.14,-117"/>
<text text-anchor="middle" x="1485" y="-123" font-family="Helvetica,sans-Serif" font-size="10.00">ePub3/base.h</text>
</a>
</g>
</g>
<!-- Node1&#45;&gt;Node2 -->
<g id="edge1" class="edge"><title>Node1&#45;&gt;Node2</title>
<path fill="none" stroke="midnightblue" d="M620.181,-450.695C980.417,-443.922 2550.83,-410.207 2621,-336 2776.76,-171.281 1770.91,-135.267 1534.12,-129.106"/>
<polygon fill="midnightblue" stroke="midnightblue" points="1534.17,-125.606 1524.08,-128.851 1533.99,-132.604 1534.17,-125.606"/>
</g>
<!-- Node6 -->
<g id="node6" class="node"><title>Node6</title>
<polygon fill="white" stroke="#bfbfbf" points="302.146,-373 302.146,-393 379.854,-393 379.854,-373 302.146,-373"/>
<text text-anchor="middle" x="341" y="-379" font-family="Helvetica,sans-Serif" font-size="10.00">openssl/sha.h</text>
</g>
<!-- Node1&#45;&gt;Node6 -->
<g id="edge5" class="edge"><title>Node1&#45;&gt;Node6</title>
<path fill="none" stroke="midnightblue" d="M483.231,-430.95C448.772,-419.575 407.426,-405.927 378.217,-396.285"/>
<polygon fill="midnightblue" stroke="midnightblue" points="379.016,-392.863 368.423,-393.052 376.821,-399.51 379.016,-392.863"/>
</g>
<!-- Node7 -->
<g id="node7" class="node"><title>Node7</title>
<g id="a_node7"><a xlink:href="font__obfuscation_8h.xhtml" target="_top" xlink:title="font_obfuscation.h">
<polygon fill="white" stroke="black" points="398.136,-373 398.136,-393 495.864,-393 495.864,-373 398.136,-373"/>
<text text-anchor="middle" x="447" y="-379" font-family="Helvetica,sans-Serif" font-size="10.00">font_obfuscation.h</text>
</a>
</g>
</g>
<!-- Node1&#45;&gt;Node7 -->
<g id="edge6" class="edge"><title>Node1&#45;&gt;Node7</title>
<path fill="none" stroke="midnightblue" d="M515.908,-430.857C500.575,-420.431 482.461,-408.113 468.653,-398.724"/>
<polygon fill="midnightblue" stroke="midnightblue" points="470.512,-395.755 460.274,-393.027 466.576,-401.544 470.512,-395.755"/>
</g>
<!-- Node12 -->
<g id="node12" class="node"><title>Node12</title>
<g id="a_node12"><a xlink:href="container_8h.xhtml" target="_top" xlink:title="container.h">
<polygon fill="white" stroke="black" points="565.535,-373 565.535,-393 630.465,-393 630.465,-373 565.535,-373"/>
<text text-anchor="middle" x="598" y="-379" font-family="Helvetica,sans-Serif" font-size="10.00">container.h</text>
</a>
</g>
</g>
<!-- Node1&#45;&gt;Node12 -->
<g id="edge11" class="edge"><title>Node1&#45;&gt;Node12</title>
<path fill="none" stroke="midnightblue" d="M562.857,-430.857C569.963,-421.383 578.24,-410.347 584.975,-401.366"/>
<polygon fill="midnightblue" stroke="midnightblue" points="587.897,-403.304 591.097,-393.204 582.297,-399.104 587.897,-403.304"/>
</g>
<!-- Node37 -->
<g id="node37" class="node"><title>Node37</title>
<g id="a_node37"><a xlink:href="package_8h.xhtml" target="_top" xlink:title="package.h">
<polygon fill="white" stroke="black" points="1427.93,-373 1427.93,-393 1490.07,-393 1490.07,-373 1427.93,-373"/>
<text text-anchor="middle" x="1459" y="-379" font-family="Helvetica,sans-Serif" font-size="10.00">package.h</text>
</a>
</g>
</g>
<!-- Node1&#45;&gt;Node37 -->
<g id="edge51" class="edge"><title>Node1&#45;&gt;Node37</title>
<path fill="none" stroke="midnightblue" d="M620.091,-446.55C802.769,-432.93 1274.79,-397.735 1417.51,-387.093"/>
<polygon fill="midnightblue" stroke="midnightblue" points="1417.89,-390.575 1427.6,-386.341 1417.37,-383.595 1417.89,-390.575"/>
</g>
<!-- Node49 -->
<g id="node49" class="node"><title>Node49</title>
<g id="a_node49"><a xlink:href="filter__manager_8h.xhtml" target="_top" xlink:title="filter_manager.h">
<polygon fill="white" stroke="black" points="158.143,-373 158.143,-393 245.857,-393 245.857,-373 158.143,-373"/>
<text text-anchor="middle" x="202" y="-379" font-family="Helvetica,sans-Serif" font-size="10.00">filter_manager.h</text>
</a>
</g>
</g>
<!-- Node1&#45;&gt;Node49 -->
<g id="edge76" class="edge"><title>Node1&#45;&gt;Node49</title>
<path fill="none" stroke="midnightblue" d="M473.834,-437.579C408.713,-424.744 314.941,-406.261 256.292,-394.701"/>
<polygon fill="midnightblue" stroke="midnightblue" points="256.61,-391.196 246.122,-392.696 255.256,-398.064 256.61,-391.196"/>
</g>
<!-- Node3 -->
<g id="node3" class="node"><title>Node3</title>
<g id="a_node3"><a xlink:href="__config_8h.xhtml" target="_top" xlink:title="_config.h">
<polygon fill="white" stroke="black" points="1421.71,-59 1421.71,-79 1478.29,-79 1478.29,-59 1421.71,-59"/>
<text text-anchor="middle" x="1450" y="-65" font-family="Helvetica,sans-Serif" font-size="10.00">_config.h</text>
</a>
</g>
</g>
<!-- Node2&#45;&gt;Node3 -->
<g id="edge2" class="edge"><title>Node2&#45;&gt;Node3</title>
<path fill="none" stroke="midnightblue" d="M1479.22,-116.753C1474.28,-108.843 1467.02,-97.2372 1460.98,-87.5683"/>
<polygon fill="midnightblue" stroke="midnightblue" points="1463.94,-85.7002 1455.67,-79.0752 1458,-89.4102 1463.94,-85.7002"/>
</g>
<!-- Node5 -->
<g id="node5" class="node"><title>Node5</title>
<polygon fill="white" stroke="#bfbfbf" points="1496.16,-59 1496.16,-79 1543.84,-79 1543.84,-59 1496.16,-59"/>
<text text-anchor="middle" x="1520" y="-65" font-family="Helvetica,sans-Serif" font-size="10.00">stdlib.h</text>
</g>
<!-- Node2&#45;&gt;Node5 -->
<g id="edge4" class="edge"><title>Node2&#45;&gt;Node5</title>
<path fill="none" stroke="midnightblue" d="M1490.78,-116.753C1495.72,-108.843 1502.98,-97.2372 1509.02,-87.5683"/>
<polygon fill="midnightblue" stroke="midnightblue" points="1512,-89.4102 1514.33,-79.0752 1506.06,-85.7002 1512,-89.4102"/>
</g>
<!-- Node4 -->
<g id="node4" class="node"><title>Node4</title>
<g id="a_node4"><a xlink:href="__platform_8h.xhtml" target="_top" xlink:title="_platform.h">
<polygon fill="white" stroke="red" points="1416.99,-1 1416.99,-21 1483.01,-21 1483.01,-1 1416.99,-1"/>
<text text-anchor="middle" x="1450" y="-7" font-family="Helvetica,sans-Serif" font-size="10.00">_platform.h</text>
</a>
</g>
</g>
<!-- Node3&#45;&gt;Node4 -->
<g id="edge3" class="edge"><title>Node3&#45;&gt;Node4</title>
<path fill="none" stroke="midnightblue" d="M1450,-58.7527C1450,-51.2504 1450,-40.4238 1450,-31.0781"/>
<polygon fill="midnightblue" stroke="midnightblue" points="1453.5,-31.0752 1450,-21.0752 1446.5,-31.0752 1453.5,-31.0752"/>
</g>
<!-- Node8 -->
<g id="node8" class="node"><title>Node8</title>
<polygon fill="white" stroke="#bfbfbf" points="114.811,-309 114.811,-329 189.189,-329 189.189,-309 114.811,-309"/>
<text text-anchor="middle" x="152" y="-315" font-family="Helvetica,sans-Serif" font-size="10.00">ePub3/filter.h</text>
</g>
<!-- Node7&#45;&gt;Node8 -->
<g id="edge7" class="edge"><title>Node7&#45;&gt;Node8</title>
<path fill="none" stroke="midnightblue" d="M398.132,-373.385C331.178,-361.517 217.018,-341.033 198,-336 193.862,-334.905 189.562,-333.617 185.325,-332.256"/>
<polygon fill="midnightblue" stroke="midnightblue" points="186.256,-328.876 175.662,-329.002 184.022,-335.51 186.256,-328.876"/>
</g>
<!-- Node9 -->
<g id="node9" class="node"><title>Node9</title>
<polygon fill="white" stroke="#bfbfbf" points="744.914,-309 744.914,-329 847.086,-329 847.086,-309 744.914,-309"/>
<text text-anchor="middle" x="796" y="-315" font-family="Helvetica,sans-Serif" font-size="10.00">ePub3/encryption.h</text>
</g>
<!-- Node7&#45;&gt;Node9 -->
<g id="edge8" class="edge"><title>Node7&#45;&gt;Node9</title>
<path fill="none" stroke="midnightblue" d="M495.932,-375.676C553.449,-367.898 651.635,-353.546 735,-336 741.187,-334.698 747.687,-333.169 754.044,-331.582"/>
<polygon fill="midnightblue" stroke="midnightblue" points="755.034,-334.941 763.85,-329.064 753.293,-328.161 755.034,-334.941"/>
</g>
<!-- Node10 -->
<g id="node10" class="node"><title>Node10</title>
<polygon fill="white" stroke="#bfbfbf" points="757.766,-181 757.766,-201 858.234,-201 858.234,-181 757.766,-181"/>
<text text-anchor="middle" x="808" y="-187" font-family="Helvetica,sans-Serif" font-size="10.00">REGEX_INCLUDE</text>
</g>
<!-- Node7&#45;&gt;Node10 -->
<g id="edge9" class="edge"><title>Node7&#45;&gt;Node10</title>
<path fill="none" stroke="midnightblue" d="M414.754,-372.847C396.702,-365.887 375.723,-354.311 365,-336 357.364,-322.96 355.675,-313.891 365,-302 473.163,-164.081 578.203,-251.472 748,-208 753.418,-206.613 759.104,-205.131 764.726,-203.65"/>
<polygon fill="midnightblue" stroke="midnightblue" points="765.938,-206.949 774.707,-201.004 764.145,-200.183 765.938,-206.949"/>
</g>
<!-- Node11 -->
<g id="node11" class="node"><title>Node11</title>
<polygon fill="white" stroke="#bfbfbf" points="207.273,-309 207.273,-329 252.727,-329 252.727,-309 207.273,-309"/>
<text text-anchor="middle" x="230" y="-315" font-family="Helvetica,sans-Serif" font-size="10.00">cstring</text>
</g>
<!-- Node7&#45;&gt;Node11 -->
<g id="edge10" class="edge"><title>Node7&#45;&gt;Node11</title>
<path fill="none" stroke="midnightblue" d="M403.891,-372.997C367.072,-364.832 312.936,-351.692 267,-336 264.268,-335.067 261.456,-334.019 258.66,-332.918"/>
<polygon fill="midnightblue" stroke="midnightblue" points="259.938,-329.658 249.36,-329.056 257.253,-336.123 259.938,-329.658"/>
</g>
<!-- Node13 -->
<g id="node13" class="node"><title>Node13</title>
<polygon fill="white" stroke="#bfbfbf" points="385.079,-309 385.079,-329 468.921,-329 468.921,-309 385.079,-309"/>
<text text-anchor="middle" x="427" y="-315" font-family="Helvetica,sans-Serif" font-size="10.00">ePub3/epub3.h</text>
</g>
<!-- Node12&#45;&gt;Node13 -->
<g id="edge12" class="edge"><title>Node12&#45;&gt;Node13</title>
<path fill="none" stroke="midnightblue" d="M573.135,-372.985C543.754,-362.332 494.692,-344.543 461.609,-332.548"/>
<polygon fill="midnightblue" stroke="midnightblue" points="462.489,-329.144 451.895,-329.026 460.103,-335.725 462.489,-329.144"/>
</g>
<!-- Node12&#45;&gt;Node9 -->
<g id="edge13" class="edge"><title>Node12&#45;&gt;Node9</title>
<path fill="none" stroke="midnightblue" d="M626.791,-372.985C661.251,-362.194 719.093,-344.082 757.403,-332.086"/>
<polygon fill="midnightblue" stroke="midnightblue" points="758.677,-335.355 767.174,-329.026 756.585,-328.674 758.677,-335.355"/>
</g>
<!-- Node14 -->
<g id="node14" class="node"><title>Node14</title>
<polygon fill="white" stroke="#bfbfbf" points="487.079,-309 487.079,-329 580.921,-329 580.921,-309 487.079,-309"/>
<text text-anchor="middle" x="534" y="-315" font-family="Helvetica,sans-Serif" font-size="10.00">ePub3/package.h</text>
</g>
<!-- Node12&#45;&gt;Node14 -->
<g id="edge14" class="edge"><title>Node12&#45;&gt;Node14</title>
<path fill="none" stroke="midnightblue" d="M588.557,-372.852C578.631,-363.236 562.813,-347.913 550.76,-336.236"/>
<polygon fill="midnightblue" stroke="midnightblue" points="553.1,-333.63 543.482,-329.186 548.229,-338.658 553.1,-333.63"/>
</g>
<!-- Node15 -->
<g id="node15" class="node"><title>Node15</title>
<g id="a_node15"><a xlink:href="utfstring_8h.xhtml" target="_top" xlink:title="ePub3/utilities/utfstring.h">
<polygon fill="white" stroke="black" points="1385.52,-245 1385.52,-265 1510.48,-265 1510.48,-245 1385.52,-245"/>
<text text-anchor="middle" x="1448" y="-251" font-family="Helvetica,sans-Serif" font-size="10.00">ePub3/utilities/utfstring.h</text>
</a>
</g>
</g>
<!-- Node12&#45;&gt;Node15 -->
<g id="edge15" class="edge"><title>Node12&#45;&gt;Node15</title>
<path fill="none" stroke="midnightblue" d="M630.712,-381.804C681.47,-380.296 781.143,-372.453 856,-336 876.375,-326.078 873.183,-310.958 894,-302 978.588,-265.6 1244.91,-257.907 1375.02,-256.349"/>
<polygon fill="midnightblue" stroke="midnightblue" points="1375.33,-259.846 1385.29,-256.235 1375.25,-252.846 1375.33,-259.846"/>
</g>
<!-- Node30 -->
<g id="node30" class="node"><title>Node30</title>
<g id="a_node30"><a xlink:href="owned__by_8h.xhtml" target="_top" xlink:title="ePub3/utilities/owned_by.h">
<polygon fill="white" stroke="black" points="834.884,-245 834.884,-265 969.116,-265 969.116,-245 834.884,-245"/>
<text text-anchor="middle" x="902" y="-251" font-family="Helvetica,sans-Serif" font-size="10.00">ePub3/utilities/owned_by.h</text>
</a>
</g>
</g>
<!-- Node12&#45;&gt;Node30 -->
<g id="edge36" class="edge"><title>Node12&#45;&gt;Node30</title>
<path fill="none" stroke="midnightblue" d="M565.089,-377.494C506.22,-369.104 387.896,-350.614 376,-336 366.46,-324.281 365.791,-313.141 376,-302 405.662,-269.631 685.512,-259.947 824.476,-257.123"/>
<polygon fill="midnightblue" stroke="midnightblue" points="824.708,-260.62 834.638,-256.924 824.571,-253.621 824.708,-260.62"/>
</g>
<!-- Node31 -->
<g id="node31" class="node"><title>Node31</title>
<polygon fill="white" stroke="#bfbfbf" points="599.402,-309 599.402,-329 726.598,-329 726.598,-309 599.402,-309"/>
<text text-anchor="middle" x="663" y="-315" font-family="Helvetica,sans-Serif" font-size="10.00">ePub3/content_module.h</text>
</g>
<!-- Node12&#45;&gt;Node31 -->
<g id="edge39" class="edge"><title>Node12&#45;&gt;Node31</title>
<path fill="none" stroke="midnightblue" d="M607.591,-372.852C617.672,-363.236 633.737,-347.913 645.978,-336.236"/>
<polygon fill="midnightblue" stroke="midnightblue" points="648.549,-338.621 653.37,-329.186 643.718,-333.555 648.549,-338.621"/>
</g>
<!-- Node32 -->
<g id="node32" class="node"><title>Node32</title>
<polygon fill="white" stroke="#bfbfbf" points="902.695,-309 902.695,-329 999.305,-329 999.305,-309 902.695,-309"/>
<text text-anchor="middle" x="951" y="-315" font-family="Helvetica,sans-Serif" font-size="10.00">ePub3/xml/node.h</text>
</g>
<!-- Node12&#45;&gt;Node32 -->
<g id="edge40" class="edge"><title>Node12&#45;&gt;Node32</title>
<path fill="none" stroke="midnightblue" d="M630.48,-377.9C684.442,-370.857 795.85,-355.335 889,-336 895.286,-334.695 901.891,-333.165 908.351,-331.577"/>
<polygon fill="midnightblue" stroke="midnightblue" points="909.479,-334.902 918.317,-329.059 907.764,-328.116 909.479,-334.902"/>
</g>
<!-- Node18 -->
<g id="node18" class="node"><title>Node18</title>
<polygon fill="white" stroke="#bfbfbf" points="1810.38,-117 1810.38,-137 1853.62,-137 1853.62,-117 1810.38,-117"/>
<text text-anchor="middle" x="1832" y="-123" font-family="Helvetica,sans-Serif" font-size="10.00">vector</text>
</g>
<!-- Node12&#45;&gt;Node18 -->
<g id="edge41" class="edge"><title>Node12&#45;&gt;Node18</title>
<path fill="none" stroke="midnightblue" d="M630.686,-381.589C813.591,-379.175 1703.78,-365.918 1753,-336 1780.98,-318.992 1816.43,-239.316 1826,-208 1832.15,-187.87 1833.13,-163.628 1832.9,-147.143"/>
<polygon fill="midnightblue" stroke="midnightblue" points="1836.4,-147.006 1832.6,-137.116 1829.4,-147.218 1836.4,-147.006"/>
</g>
<!-- Node33 -->
<g id="node33" class="node"><title>Node33</title>
<g id="a_node33"><a xlink:href="future_8h.xhtml" target="_top" xlink:title="ePub3/utilities/future.h">
<polygon fill="white" stroke="red" points="624.525,-181 624.525,-201 739.475,-201 739.475,-181 624.525,-181"/>
<text text-anchor="middle" x="682" y="-187" font-family="Helvetica,sans-Serif" font-size="10.00">ePub3/utilities/future.h</text>
</a>
</g>
</g>
<!-- Node12&#45;&gt;Node33 -->
<g id="edge42" class="edge"><title>Node12&#45;&gt;Node33</title>
<path fill="none" stroke="midnightblue" d="M565.382,-377.869C504.302,-369.805 377.665,-351.409 365,-336 355.405,-324.326 356.24,-314.313 365,-302 421.365,-222.78 538.974,-200.1 614.013,-193.91"/>
<polygon fill="midnightblue" stroke="midnightblue" points="614.596,-197.376 624.308,-193.142 614.075,-190.396 614.596,-197.376"/>
</g>
<!-- Node16 -->
<g id="node16" class="node"><title>Node16</title>
<g id="a_node16"><a xlink:href="basic_8h.xhtml" target="_top" xlink:title="ePub3/utilities/basic.h">
<polygon fill="white" stroke="red" points="1281.64,-181 1281.64,-201 1394.36,-201 1394.36,-181 1281.64,-181"/>
<text text-anchor="middle" x="1338" y="-187" font-family="Helvetica,sans-Serif" font-size="10.00">ePub3/utilities/basic.h</text>
</a>
</g>
</g>
<!-- Node15&#45;&gt;Node16 -->
<g id="edge16" class="edge"><title>Node15&#45;&gt;Node16</title>
<path fill="none" stroke="midnightblue" d="M1431.77,-244.852C1413.65,-234.641 1384.12,-217.994 1363.04,-206.112"/>
<polygon fill="midnightblue" stroke="midnightblue" points="1364.73,-203.047 1354.3,-201.186 1361.29,-209.145 1364.73,-203.047"/>
</g>
<!-- Node20 -->
<g id="node20" class="node"><title>Node20</title>
<g id="a_node20"><a xlink:href="integer__sequence_8h.xhtml" target="_top" xlink:title="ePub3/utilities/integer\l_sequence.h">
<polygon fill="white" stroke="black" points="1576.19,-175 1576.19,-207 1687.81,-207 1687.81,-175 1576.19,-175"/>
<text text-anchor="start" x="1584.19" y="-193" font-family="Helvetica,sans-Serif" font-size="10.00">ePub3/utilities/integer</text>
<text text-anchor="middle" x="1632" y="-181" font-family="Helvetica,sans-Serif" font-size="10.00">_sequence.h</text>
</a>
</g>
</g>
<!-- Node15&#45;&gt;Node20 -->
<g id="edge21" class="edge"><title>Node15&#45;&gt;Node20</title>
<path fill="none" stroke="midnightblue" d="M1474.76,-244.985C1501.61,-235.937 1543.74,-221.741 1577.63,-210.319"/>
<polygon fill="midnightblue" stroke="midnightblue" points="1579.05,-213.536 1587.41,-207.026 1576.81,-206.902 1579.05,-213.536"/>
</g>
<!-- Node21 -->
<g id="node21" class="node"><title>Node21</title>
<g id="a_node21"><a xlink:href="string__view_8h.xhtml" target="_top" xlink:title="ePub3/utilities/string\l_view.h">
<polygon fill="white" stroke="red" points="1028.25,-175 1028.25,-207 1133.75,-207 1133.75,-175 1028.25,-175"/>
<text text-anchor="start" x="1036.25" y="-193" font-family="Helvetica,sans-Serif" font-size="10.00">ePub3/utilities/string</text>
<text text-anchor="middle" x="1081" y="-181" font-family="Helvetica,sans-Serif" font-size="10.00">_view.h</text>
</a>
</g>
</g>
<!-- Node15&#45;&gt;Node21 -->
<g id="edge23" class="edge"><title>Node15&#45;&gt;Node21</title>
<path fill="none" stroke="midnightblue" d="M1394.64,-244.985C1328.13,-233.749 1214.63,-214.575 1143.94,-202.633"/>
<polygon fill="midnightblue" stroke="midnightblue" points="1144.28,-199.14 1133.83,-200.926 1143.11,-206.043 1144.28,-199.14"/>
</g>
<!-- Node23 -->
<g id="node23" class="node"><title>Node23</title>
<polygon fill="white" stroke="#bfbfbf" points="1043.77,-117 1043.77,-137 1084.23,-137 1084.23,-117 1043.77,-117"/>
<text text-anchor="middle" x="1064" y="-123" font-family="Helvetica,sans-Serif" font-size="10.00">string</text>
</g>
<!-- Node15&#45;&gt;Node23 -->
<g id="edge27" class="edge"><title>Node15&#45;&gt;Node23</title>
<path fill="none" stroke="midnightblue" d="M1386.33,-244.954C1351.6,-238.138 1308.26,-226.671 1273,-208 1252.68,-197.238 1254.28,-184.835 1234,-174 1188.79,-149.846 1129.88,-137.6 1094.61,-132.024"/>
<polygon fill="midnightblue" stroke="midnightblue" points="1094.87,-128.524 1084.46,-130.502 1093.83,-135.447 1094.87,-128.524"/>
</g>
<!-- Node25 -->
<g id="node25" class="node"><title>Node25</title>
<polygon fill="white" stroke="#bfbfbf" points="1450.44,-181 1450.44,-201 1497.56,-201 1497.56,-181 1450.44,-181"/>
<text text-anchor="middle" x="1474" y="-187" font-family="Helvetica,sans-Serif" font-size="10.00">iterator</text>
</g>
<!-- Node15&#45;&gt;Node25 -->
<g id="edge28" class="edge"><title>Node15&#45;&gt;Node25</title>
<path fill="none" stroke="midnightblue" d="M1451.84,-244.852C1455.6,-235.877 1461.45,-221.931 1466.19,-210.617"/>
<polygon fill="midnightblue" stroke="midnightblue" points="1469.51,-211.761 1470.15,-201.186 1463.05,-209.054 1469.51,-211.761"/>
</g>
<!-- Node26 -->
<g id="node26" class="node"><title>Node26</title>
<polygon fill="white" stroke="#bfbfbf" points="1515.94,-181 1515.94,-201 1558.06,-201 1558.06,-181 1515.94,-181"/>
<text text-anchor="middle" x="1537" y="-187" font-family="Helvetica,sans-Serif" font-size="10.00">locale</text>
</g>
<!-- Node15&#45;&gt;Node26 -->
<g id="edge29" class="edge"><title>Node15&#45;&gt;Node26</title>
<path fill="none" stroke="midnightblue" d="M1461.13,-244.852C1475.46,-234.87 1498.62,-218.737 1515.59,-206.918"/>
<polygon fill="midnightblue" stroke="midnightblue" points="1517.61,-209.774 1523.81,-201.186 1513.61,-204.03 1517.61,-209.774"/>
</g>
<!-- Node15&#45;&gt;Node18 -->
<g id="edge30" class="edge"><title>Node15&#45;&gt;Node18</title>
<path fill="none" stroke="midnightblue" d="M1510.51,-251.044C1592.7,-246.176 1731.76,-234.261 1775,-208 1798.74,-193.585 1815.34,-165.139 1824.28,-146.344"/>
<polygon fill="midnightblue" stroke="midnightblue" points="1827.55,-147.603 1828.45,-137.046 1821.17,-144.735 1827.55,-147.603"/>
</g>
<!-- Node15&#45;&gt;Node10 -->
<g id="edge31" class="edge"><title>Node15&#45;&gt;Node10</title>
<path fill="none" stroke="midnightblue" d="M1385.47,-247.942C1262.45,-236.025 990.423,-209.672 868.812,-197.891"/>
<polygon fill="midnightblue" stroke="midnightblue" points="868.86,-194.38 858.569,-196.899 868.185,-201.347 868.86,-194.38"/>
</g>
<!-- Node27 -->
<g id="node27" class="node"><title>Node27</title>
<polygon fill="white" stroke="#bfbfbf" points="1190.27,-181 1190.27,-201 1225.73,-201 1225.73,-181 1190.27,-181"/>
<text text-anchor="middle" x="1208" y="-187" font-family="Helvetica,sans-Serif" font-size="10.00">map</text>
</g>
<!-- Node15&#45;&gt;Node27 -->
<g id="edge32" class="edge"><title>Node15&#45;&gt;Node27</title>
<path fill="none" stroke="midnightblue" d="M1389.09,-244.96C1346.85,-237.521 1288.98,-225.36 1240,-208 1237.86,-207.241 1235.68,-206.373 1233.51,-205.442"/>
<polygon fill="midnightblue" stroke="midnightblue" points="1234.81,-202.185 1224.27,-201.102 1231.83,-208.521 1234.81,-202.185"/>
</g>
<!-- Node28 -->
<g id="node28" class="node"><title>Node28</title>
<polygon fill="white" stroke="#bfbfbf" points="791.599,-117 791.599,-137 850.401,-137 850.401,-117 791.599,-117"/>
<text text-anchor="middle" x="821" y="-123" font-family="Helvetica,sans-Serif" font-size="10.00">stdexcept</text>
</g>
<!-- Node15&#45;&gt;Node28 -->
<g id="edge33" class="edge"><title>Node15&#45;&gt;Node28</title>
<path fill="none" stroke="midnightblue" d="M1385.25,-252.689C1300.82,-249.705 1146.52,-239.938 1019,-208 955.448,-192.084 885.291,-160.023 847.928,-141.689"/>
<polygon fill="midnightblue" stroke="midnightblue" points="849.239,-138.432 838.725,-137.124 846.128,-144.703 849.239,-138.432"/>
</g>
<!-- Node24 -->
<g id="node24" class="node"><title>Node24</title>
<polygon fill="white" stroke="#bfbfbf" points="1291.61,-117 1291.61,-137 1330.39,-137 1330.39,-117 1291.61,-117"/>
<text text-anchor="middle" x="1311" y="-123" font-family="Helvetica,sans-Serif" font-size="10.00">limits</text>
</g>
<!-- Node15&#45;&gt;Node24 -->
<g id="edge34" class="edge"><title>Node15&#45;&gt;Node24</title>
<path fill="none" stroke="midnightblue" d="M1444.94,-244.953C1439.09,-228.834 1424.92,-194.881 1403,-174 1385.16,-157.01 1359.83,-144.973 1340.27,-137.485"/>
<polygon fill="midnightblue" stroke="midnightblue" points="1341.22,-134.109 1330.63,-133.982 1338.83,-140.688 1341.22,-134.109"/>
</g>
<!-- Node29 -->
<g id="node29" class="node"><title>Node29</title>
<polygon fill="white" stroke="#bfbfbf" points="1705.76,-181 1705.76,-201 1766.24,-201 1766.24,-181 1705.76,-181"/>
<text text-anchor="middle" x="1736" y="-187" font-family="Helvetica,sans-Serif" font-size="10.00">utf8/utf8.h</text>
</g>
<!-- Node15&#45;&gt;Node29 -->
<g id="edge35" class="edge"><title>Node15&#45;&gt;Node29</title>
<path fill="none" stroke="midnightblue" d="M1510.71,-245.862C1561.33,-238.462 1634.07,-225.941 1696,-208 1699.33,-207.034 1702.77,-205.893 1706.17,-204.671"/>
<polygon fill="midnightblue" stroke="midnightblue" points="1707.42,-207.939 1715.51,-201.095 1704.92,-201.402 1707.42,-207.939"/>
</g>
<!-- Node16&#45;&gt;Node2 -->
<g id="edge17" class="edge"><title>Node16&#45;&gt;Node2</title>
<path fill="none" stroke="midnightblue" d="M1359.38,-180.985C1384.31,-170.47 1425.72,-153.002 1454.14,-141.017"/>
<polygon fill="midnightblue" stroke="midnightblue" points="1455.75,-144.137 1463.6,-137.026 1453.02,-137.688 1455.75,-144.137"/>
</g>
<!-- Node17 -->
<g id="node17" class="node"><title>Node17</title>
<polygon fill="white" stroke="#bfbfbf" points="867.943,-117 867.943,-137 920.057,-137 920.057,-117 867.943,-117"/>
<text text-anchor="middle" x="894" y="-123" font-family="Helvetica,sans-Serif" font-size="10.00">memory</text>
</g>
<!-- Node16&#45;&gt;Node17 -->
<g id="edge18" class="edge"><title>Node16&#45;&gt;Node17</title>
<path fill="none" stroke="midnightblue" d="M1281.64,-180.997C1266.21,-178.623 1249.47,-176.131 1234,-174 1102.71,-155.922 1068.56,-160.715 938,-138 935.501,-137.565 932.931,-137.081 930.347,-136.566"/>
<polygon fill="midnightblue" stroke="midnightblue" points="930.944,-133.114 920.436,-134.47 929.496,-139.963 930.944,-133.114"/>
</g>
<!-- Node16&#45;&gt;Node18 -->
<g id="edge19" class="edge"><title>Node16&#45;&gt;Node18</title>
<path fill="none" stroke="midnightblue" d="M1393.54,-180.987C1408.9,-178.6 1425.58,-176.104 1441,-174 1574.11,-155.837 1733.32,-138.447 1800.08,-131.351"/>
<polygon fill="midnightblue" stroke="midnightblue" points="1800.77,-134.797 1810.35,-130.263 1800.03,-127.836 1800.77,-134.797"/>
</g>
<!-- Node19 -->
<g id="node19" class="node"><title>Node19</title>
<polygon fill="white" stroke="#bfbfbf" points="1147.5,-117 1147.5,-137 1176.5,-137 1176.5,-117 1147.5,-117"/>
<text text-anchor="middle" x="1161.61" y="-123" font-family="Helvetica,sans-Serif" font-size="10.00">list</text>
</g>
<!-- Node16&#45;&gt;Node19 -->
<g id="edge20" class="edge"><title>Node16&#45;&gt;Node19</title>
<path fill="none" stroke="midnightblue" d="M1312.41,-180.985C1278.69,-169.105 1219.77,-148.351 1186.57,-136.654"/>
<polygon fill="midnightblue" stroke="midnightblue" points="1187.35,-133.219 1176.75,-133.198 1185.02,-139.822 1187.35,-133.219"/>
</g>
<!-- Node20&#45;&gt;Node2 -->
<g id="edge22" class="edge"><title>Node20&#45;&gt;Node2</title>
<path fill="none" stroke="midnightblue" d="M1596.42,-174.992C1571.88,-164.643 1539.58,-151.021 1516.08,-141.109"/>
<polygon fill="midnightblue" stroke="midnightblue" points="1517.17,-137.77 1506.6,-137.109 1514.45,-144.22 1517.17,-137.77"/>
</g>
<!-- Node22 -->
<g id="node22" class="node"><title>Node22</title>
<polygon fill="white" stroke="#bfbfbf" points="946.934,-117 946.934,-137 1009.07,-137 1009.07,-117 946.934,-117"/>
<text text-anchor="middle" x="978" y="-123" font-family="Helvetica,sans-Serif" font-size="10.00">type_traits</text>
</g>
<!-- Node21&#45;&gt;Node22 -->
<g id="edge24" class="edge"><title>Node21&#45;&gt;Node22</title>
<path fill="none" stroke="midnightblue" d="M1056.07,-174.992C1039.64,-165.105 1018.25,-152.231 1002.02,-142.458"/>
<polygon fill="midnightblue" stroke="midnightblue" points="1003.5,-139.267 993.132,-137.109 999.895,-145.265 1003.5,-139.267"/>
</g>
<!-- Node21&#45;&gt;Node23 -->
<g id="edge25" class="edge"><title>Node21&#45;&gt;Node23</title>
<path fill="none" stroke="midnightblue" d="M1076.88,-174.992C1074.59,-166.635 1071.72,-156.142 1069.26,-147.194"/>
<polygon fill="midnightblue" stroke="midnightblue" points="1072.57,-146.009 1066.55,-137.29 1065.82,-147.86 1072.57,-146.009"/>
</g>
<!-- Node21&#45;&gt;Node24 -->
<g id="edge26" class="edge"><title>Node21&#45;&gt;Node24</title>
<path fill="none" stroke="midnightblue" d="M1133.77,-175.776C1179.71,-163.391 1244.62,-145.893 1281.8,-135.872"/>
<polygon fill="midnightblue" stroke="midnightblue" points="1282.77,-139.236 1291.51,-133.254 1280.94,-132.477 1282.77,-139.236"/>
</g>
<!-- Node30&#45;&gt;Node17 -->
<g id="edge37" class="edge"><title>Node30&#45;&gt;Node17</title>
<path fill="none" stroke="midnightblue" d="M901.425,-244.938C900.134,-224.605 896.982,-174.968 895.228,-147.348"/>
<polygon fill="midnightblue" stroke="midnightblue" points="898.718,-147.078 894.592,-137.319 891.732,-147.521 898.718,-147.078"/>
</g>
<!-- Node30&#45;&gt;Node22 -->
<g id="edge38" class="edge"><title>Node30&#45;&gt;Node22</title>
<path fill="none" stroke="midnightblue" d="M907.214,-244.54C915.571,-229.466 932.595,-199.134 948,-174 953.854,-164.448 960.655,-153.974 966.299,-145.437"/>
<polygon fill="midnightblue" stroke="midnightblue" points="969.242,-147.331 971.871,-137.068 963.416,-143.452 969.242,-147.331"/>
</g>
<!-- Node33&#45;&gt;Node2 -->
<g id="edge43" class="edge"><title>Node33&#45;&gt;Node2</title>
<path fill="none" stroke="midnightblue" d="M714.834,-180.958C725.639,-178.306 737.763,-175.672 749,-174 1008.85,-135.344 1076.84,-154.976 1339,-138 1371.29,-135.909 1407.59,-133.424 1435.91,-131.454"/>
<polygon fill="midnightblue" stroke="midnightblue" points="1436.23,-134.94 1445.97,-130.753 1435.75,-127.957 1436.23,-134.94"/>
</g>
<!-- Node33&#45;&gt;Node19 -->
<g id="edge44" class="edge"><title>Node33&#45;&gt;Node19</title>
<path fill="none" stroke="midnightblue" d="M715.908,-180.997C726.452,-178.442 738.155,-175.854 749,-174 900.525,-148.092 940.458,-157.028 1093,-138 1107.73,-136.162 1124.19,-133.79 1137.33,-131.817"/>
<polygon fill="midnightblue" stroke="midnightblue" points="1138.12,-135.237 1147.48,-130.274 1137.07,-128.317 1138.12,-135.237"/>
</g>
<!-- Node33&#45;&gt;Node23 -->
<g id="edge45" class="edge"><title>Node33&#45;&gt;Node23</title>
<path fill="none" stroke="midnightblue" d="M716.977,-180.939C727.249,-178.471 738.536,-175.945 749,-174 867.591,-151.963 899.191,-158.829 1018,-138 1022.97,-137.129 1028.22,-136.096 1033.32,-135.03"/>
<polygon fill="midnightblue" stroke="midnightblue" points="1034.43,-138.372 1043.46,-132.838 1032.95,-131.531 1034.43,-138.372"/>
</g>
<!-- Node33&#45;&gt;Node28 -->
<g id="edge46" class="edge"><title>Node33&#45;&gt;Node28</title>
<path fill="none" stroke="midnightblue" d="M702.212,-180.985C725.683,-170.516 764.605,-153.154 791.465,-141.174"/>
<polygon fill="midnightblue" stroke="midnightblue" points="793.057,-144.296 800.764,-137.026 790.205,-137.903 793.057,-144.296"/>
</g>
<!-- Node34 -->
<g id="node34" class="node"><title>Node34</title>
<polygon fill="white" stroke="#bfbfbf" points="559.596,-117 559.596,-137 618.404,-137 618.404,-117 559.596,-117"/>
<text text-anchor="middle" x="589" y="-123" font-family="Helvetica,sans-Serif" font-size="10.00">exception</text>
</g>
<!-- Node33&#45;&gt;Node34 -->
<g id="edge47" class="edge"><title>Node33&#45;&gt;Node34</title>
<path fill="none" stroke="midnightblue" d="M668.278,-180.852C653.304,-170.87 629.106,-154.737 611.377,-142.918"/>
<polygon fill="midnightblue" stroke="midnightblue" points="613.041,-139.821 602.779,-137.186 609.158,-145.645 613.041,-139.821"/>
</g>
<!-- Node35 -->
<g id="node35" class="node"><title>Node35</title>
<polygon fill="white" stroke="#bfbfbf" points="636.828,-117 636.828,-137 711.172,-137 711.172,-117 636.828,-117"/>
<text text-anchor="middle" x="674" y="-123" font-family="Helvetica,sans-Serif" font-size="10.00">system_error</text>
</g>
<!-- Node33&#45;&gt;Node35 -->
<g id="edge48" class="edge"><title>Node33&#45;&gt;Node35</title>
<path fill="none" stroke="midnightblue" d="M680.82,-180.852C679.685,-172.06 677.935,-158.498 676.492,-147.313"/>
<polygon fill="midnightblue" stroke="midnightblue" points="679.936,-146.656 675.185,-137.186 672.994,-147.552 679.936,-146.656"/>
</g>
<!-- Node36 -->
<g id="node36" class="node"><title>Node36</title>
<polygon fill="white" stroke="#bfbfbf" points="728.823,-117 728.823,-137 773.177,-137 773.177,-117 728.823,-117"/>
<text text-anchor="middle" x="751" y="-123" font-family="Helvetica,sans-Serif" font-size="10.00">thread</text>
</g>
<!-- Node33&#45;&gt;Node36 -->
<g id="edge49" class="edge"><title>Node33&#45;&gt;Node36</title>
<path fill="none" stroke="midnightblue" d="M692.181,-180.852C702.985,-171.144 720.261,-155.62 733.301,-143.903"/>
<polygon fill="midnightblue" stroke="midnightblue" points="735.678,-146.473 740.777,-137.186 730.999,-141.266 735.678,-146.473"/>
</g>
<!-- Node33&#45;&gt;Node17 -->
<g id="edge50" class="edge"><title>Node33&#45;&gt;Node17</title>
<path fill="none" stroke="midnightblue" d="M712.827,-180.985C751.362,-169.715 817.208,-150.458 858.013,-138.525"/>
<polygon fill="midnightblue" stroke="midnightblue" points="859.2,-141.824 867.815,-135.658 857.235,-135.106 859.2,-141.824"/>
</g>
<!-- Node37&#45;&gt;Node13 -->
<g id="edge52" class="edge"><title>Node37&#45;&gt;Node13</title>
<path fill="none" stroke="midnightblue" d="M1427.64,-381.612C1281.54,-379.642 666.868,-369.477 478,-336 472.461,-335.018 466.685,-333.604 461.095,-332.017"/>
<polygon fill="midnightblue" stroke="midnightblue" points="461.912,-328.607 451.325,-329.031 459.866,-335.302 461.912,-328.607"/>
</g>
<!-- Node37&#45;&gt;Node23 -->
<g id="edge53" class="edge"><title>Node37&#45;&gt;Node23</title>
<path fill="none" stroke="midnightblue" d="M1427.74,-381.383C1350.55,-379.334 1153.25,-370.747 1099,-336 1042.51,-299.818 1037.49,-272.486 1019,-208 1014.83,-193.474 1013.29,-187.992 1019,-174 1023.84,-162.12 1033.4,-151.641 1042.46,-143.697"/>
<polygon fill="midnightblue" stroke="midnightblue" points="1044.96,-146.178 1050.5,-137.147 1040.54,-140.752 1044.96,-146.178"/>
</g>
<!-- Node37&#45;&gt;Node18 -->
<g id="edge54" class="edge"><title>Node37&#45;&gt;Node18</title>
<path fill="none" stroke="midnightblue" d="M1490.09,-381.97C1670.93,-381.647 2580.69,-377.939 2621,-336 2732.44,-220.065 2025.67,-146.171 1864.3,-130.934"/>
<polygon fill="midnightblue" stroke="midnightblue" points="1864.34,-127.422 1854.06,-129.976 1863.69,-134.392 1864.34,-127.422"/>
</g>
<!-- Node37&#45;&gt;Node27 -->
<g id="edge55" class="edge"><title>Node37&#45;&gt;Node27</title>
<path fill="none" stroke="midnightblue" d="M1427.49,-381.296C1364.58,-379.155 1226.99,-370.54 1198,-336 1168.03,-300.282 1186.91,-240.417 1199.46,-210.373"/>
<polygon fill="midnightblue" stroke="midnightblue" points="1202.72,-211.641 1203.54,-201.078 1196.32,-208.824 1202.72,-211.641"/>
</g>
<!-- Node37&#45;&gt;Node19 -->
<g id="edge56" class="edge"><title>Node37&#45;&gt;Node19</title>
<path fill="none" stroke="midnightblue" d="M1427.61,-381.478C1361.86,-379.678 1213.02,-371.664 1180,-336 1131.28,-283.373 1147.12,-187.845 1156.82,-147.169"/>
<polygon fill="midnightblue" stroke="midnightblue" points="1160.23,-147.992 1159.29,-137.44 1153.44,-146.276 1160.23,-147.992"/>
</g>
<!-- Node37&#45;&gt;Node32 -->
<g id="edge57" class="edge"><title>Node37&#45;&gt;Node32</title>
<path fill="none" stroke="midnightblue" d="M1427.68,-380.387C1354.58,-376.27 1167.19,-363.686 1013,-336 1006.24,-334.786 999.125,-333.225 992.227,-331.556"/>
<polygon fill="midnightblue" stroke="midnightblue" points="992.892,-328.114 982.34,-329.061 991.179,-334.901 992.892,-328.114"/>
</g>
<!-- Node37&#45;&gt;Node30 -->
<g id="edge58" class="edge"><title>Node37&#45;&gt;Node30</title>
<path fill="none" stroke="midnightblue" d="M1427.68,-380.691C1344.42,-376.861 1119.3,-364.128 1051,-336 1028.47,-326.722 1028.91,-314.51 1008,-302 985.56,-288.572 958.489,-276.892 937.321,-268.662"/>
<polygon fill="midnightblue" stroke="midnightblue" points="938.341,-265.305 927.75,-265.017 935.85,-271.847 938.341,-265.305"/>
</g>
<!-- Node37&#45;&gt;Node9 -->
<g id="edge59" class="edge"><title>Node37&#45;&gt;Node9</title>
<path fill="none" stroke="midnightblue" d="M1427.67,-380.338C1342,-375.602 1096.7,-360.758 894,-336 881.834,-334.514 868.868,-332.62 856.483,-330.658"/>
<polygon fill="midnightblue" stroke="midnightblue" points="856.678,-327.144 846.248,-329.002 855.56,-334.054 856.678,-327.144"/>
</g>
<!-- Node38 -->
<g id="node38" class="node"><title>Node38</title>
<polygon fill="white" stroke="#bfbfbf" points="1801.03,-309 1801.03,-329 1880.97,-329 1880.97,-309 1801.03,-309"/>
<text text-anchor="middle" x="1841" y="-315" font-family="Helvetica,sans-Serif" font-size="10.00">ePub3/spine.h</text>
</g>
<!-- Node37&#45;&gt;Node38 -->
<g id="edge60" class="edge"><title>Node37&#45;&gt;Node38</title>
<path fill="none" stroke="midnightblue" d="M1490.48,-379.158C1549.23,-373.508 1679.39,-359.353 1787,-336 1792.43,-334.821 1798.12,-333.376 1803.68,-331.841"/>
<polygon fill="midnightblue" stroke="midnightblue" points="1804.82,-335.155 1813.46,-329.02 1802.88,-328.429 1804.82,-335.155"/>
</g>
<!-- Node39 -->
<g id="node39" class="node"><title>Node39</title>
<polygon fill="white" stroke="#bfbfbf" points="1899.09,-309 1899.09,-329 1992.91,-329 1992.91,-309 1899.09,-309"/>
<text text-anchor="middle" x="1946" y="-315" font-family="Helvetica,sans-Serif" font-size="10.00">ePub3/manifest.h</text>
</g>
<!-- Node37&#45;&gt;Node39 -->
<g id="edge61" class="edge"><title>Node37&#45;&gt;Node39</title>
<path fill="none" stroke="midnightblue" d="M1490.29,-380.448C1561.59,-376.521 1741.36,-364.411 1889,-336 1895.01,-334.843 1901.31,-333.358 1907.44,-331.76"/>
<polygon fill="midnightblue" stroke="midnightblue" points="1908.8,-335.019 1917.52,-329.003 1906.95,-328.267 1908.8,-335.019"/>
</g>
<!-- Node40 -->
<g id="node40" class="node"><title>Node40</title>
<polygon fill="white" stroke="#bfbfbf" points="2010.98,-309 2010.98,-329 2077.02,-329 2077.02,-309 2010.98,-309"/>
<text text-anchor="middle" x="2044" y="-315" font-family="Helvetica,sans-Serif" font-size="10.00">ePub3/cfi.h</text>
</g>
<!-- Node37&#45;&gt;Node40 -->
<g id="edge62" class="edge"><title>Node37&#45;&gt;Node40</title>
<path fill="none" stroke="midnightblue" d="M1490.31,-382.288C1574.18,-382.43 1810.48,-378.693 2001,-336 2005,-335.105 2009.12,-333.924 2013.16,-332.608"/>
<polygon fill="midnightblue" stroke="midnightblue" points="2014.66,-335.79 2022.91,-329.146 2012.32,-329.194 2014.66,-335.79"/>
</g>
<!-- Node41 -->
<g id="node41" class="node"><title>Node41</title>
<polygon fill="white" stroke="#bfbfbf" points="2095.35,-309 2095.35,-329 2208.65,-329 2208.65,-309 2095.35,-309"/>
<text text-anchor="middle" x="2152" y="-315" font-family="Helvetica,sans-Serif" font-size="10.00">ePub3/nav_element.h</text>
</g>
<!-- Node37&#45;&gt;Node41 -->
<g id="edge63" class="edge"><title>Node37&#45;&gt;Node41</title>
<path fill="none" stroke="midnightblue" d="M1490.2,-381.524C1582.05,-379.734 1859.29,-371.549 2086,-336 2093.61,-334.806 2101.64,-333.179 2109.38,-331.418"/>
<polygon fill="midnightblue" stroke="midnightblue" points="2110.4,-334.772 2119.31,-329.05 2108.78,-327.963 2110.4,-334.772"/>
</g>
<!-- Node42 -->
<g id="node42" class="node"><title>Node42</title>
<polygon fill="white" stroke="#bfbfbf" points="2226.31,-309 2226.31,-329 2335.69,-329 2335.69,-309 2226.31,-309"/>
<text text-anchor="middle" x="2281" y="-315" font-family="Helvetica,sans-Serif" font-size="10.00">ePub3/archive_xml.h</text>
</g>
<!-- Node37&#45;&gt;Node42 -->
<g id="edge64" class="edge"><title>Node37&#45;&gt;Node42</title>
<path fill="none" stroke="midnightblue" d="M1490.27,-382.159C1594.22,-382.25 1937.5,-379.042 2217,-336 2224.48,-334.849 2232.36,-333.226 2239.93,-331.452"/>
<polygon fill="midnightblue" stroke="midnightblue" points="2240.78,-334.847 2249.66,-329.06 2239.11,-328.05 2240.78,-334.847"/>
</g>
<!-- Node37&#45;&gt;Node15 -->
<g id="edge65" class="edge"><title>Node37&#45;&gt;Node15</title>
<path fill="none" stroke="midnightblue" d="M1466.14,-372.762C1472.5,-363.894 1481.36,-349.84 1485,-336 1488.84,-321.386 1490.02,-316.253 1485,-302 1481.12,-290.98 1473.36,-280.653 1465.94,-272.587"/>
<polygon fill="midnightblue" stroke="midnightblue" points="1468.31,-270.001 1458.8,-265.332 1463.32,-274.913 1468.31,-270.001"/>
</g>
<!-- Node43 -->
<g id="node43" class="node"><title>Node43</title>
<g id="a_node43"><a xlink:href="iri_8h.xhtml" target="_top" xlink:title="ePub3/utilities/iri.h">
<polygon fill="white" stroke="red" points="1647.42,-309 1647.42,-329 1744.58,-329 1744.58,-309 1647.42,-309"/>
<text text-anchor="middle" x="1696" y="-315" font-family="Helvetica,sans-Serif" font-size="10.00">ePub3/utilities/iri.h</text>
</a>
</g>
</g>
<!-- Node37&#45;&gt;Node43 -->
<g id="edge66" class="edge"><title>Node37&#45;&gt;Node43</title>
<path fill="none" stroke="midnightblue" d="M1490.09,-374.188C1525.82,-365.166 1586.22,-349.794 1638,-336 1643.04,-334.656 1648.33,-333.228 1653.57,-331.798"/>
<polygon fill="midnightblue" stroke="midnightblue" points="1654.79,-335.091 1663.51,-329.071 1652.94,-328.341 1654.79,-335.091"/>
</g>
<!-- Node44 -->
<g id="node44" class="node"><title>Node44</title>
<polygon fill="white" stroke="#bfbfbf" points="2353.39,-309 2353.39,-329 2480.61,-329 2480.61,-309 2353.39,-309"/>
<text text-anchor="middle" x="2417" y="-315" font-family="Helvetica,sans-Serif" font-size="10.00">ePub3/content_handler.h</text>
</g>
<!-- Node37&#45;&gt;Node44 -->
<g id="edge69" class="edge"><title>Node37&#45;&gt;Node44</title>
<path fill="none" stroke="midnightblue" d="M1490.13,-382.22C1604.49,-382.641 2011.98,-380.708 2344,-336 2352.88,-334.805 2362.27,-333.091 2371.26,-331.225"/>
<polygon fill="midnightblue" stroke="midnightblue" points="2372.16,-334.612 2381.19,-329.073 2370.68,-327.771 2372.16,-334.612"/>
</g>
<!-- Node45 -->
<g id="node45" class="node"><title>Node45</title>
<polygon fill="white" stroke="#bfbfbf" points="2499.08,-303 2499.08,-335 2612.92,-335 2612.92,-303 2499.08,-303"/>
<text text-anchor="start" x="2507.08" y="-321" font-family="Helvetica,sans-Serif" font-size="10.00">ePub3/media_support</text>
<text text-anchor="middle" x="2556" y="-309" font-family="Helvetica,sans-Serif" font-size="10.00">_info.h</text>
</g>
<!-- Node37&#45;&gt;Node45 -->
<g id="edge70" class="edge"><title>Node37&#45;&gt;Node45</title>
<path fill="none" stroke="midnightblue" d="M1490.12,-381.407C1637.69,-378.474 2268.66,-364.558 2488.6,-335.806"/>
<polygon fill="midnightblue" stroke="midnightblue" points="2489.32,-339.24 2498.75,-334.426 2488.37,-332.304 2489.32,-339.24"/>
</g>
<!-- Node46 -->
<g id="node46" class="node"><title>Node46</title>
<polygon fill="white" stroke="#bfbfbf" points="1207.23,-309 1207.23,-329 1332.77,-329 1332.77,-309 1207.23,-309"/>
<text text-anchor="middle" x="1270" y="-315" font-family="Helvetica,sans-Serif" font-size="10.00">ePub3/property_holder.h</text>
</g>
<!-- Node37&#45;&gt;Node46 -->
<g id="edge71" class="edge"><title>Node37&#45;&gt;Node46</title>
<path fill="none" stroke="midnightblue" d="M1431.52,-372.985C1398.76,-362.24 1343.88,-344.236 1307.31,-332.239"/>
<polygon fill="midnightblue" stroke="midnightblue" points="1308.11,-328.818 1297.52,-329.026 1305.93,-335.469 1308.11,-328.818"/>
</g>
<!-- Node47 -->
<g id="node47" class="node"><title>Node47</title>
<polygon fill="white" stroke="#bfbfbf" points="1351.23,-309 1351.23,-329 1476.77,-329 1476.77,-309 1351.23,-309"/>
<text text-anchor="middle" x="1414" y="-315" font-family="Helvetica,sans-Serif" font-size="10.00">ePub3/epub_collection.h</text>
</g>
<!-- Node37&#45;&gt;Node47 -->
<g id="edge72" class="edge"><title>Node37&#45;&gt;Node47</title>
<path fill="none" stroke="midnightblue" d="M1452.36,-372.852C1445.65,-363.602 1435.1,-349.072 1426.76,-337.586"/>
<polygon fill="midnightblue" stroke="midnightblue" points="1429.37,-335.223 1420.67,-329.186 1423.71,-339.335 1429.37,-335.223"/>
</g>
<!-- Node48 -->
<g id="node48" class="node"><title>Node48</title>
<g id="a_node48"><a xlink:href="xml__identifiable_8h.xhtml" target="_top" xlink:title="ePub3/utilities/xml\l_identifiable.h">
<polygon fill="white" stroke="black" points="1532.7,-303 1532.7,-335 1629.3,-335 1629.3,-303 1532.7,-303"/>
<text text-anchor="start" x="1540.7" y="-321" font-family="Helvetica,sans-Serif" font-size="10.00">ePub3/utilities/xml</text>
<text text-anchor="middle" x="1581" y="-309" font-family="Helvetica,sans-Serif" font-size="10.00">_identifiable.h</text>
</a>
</g>
</g>
<!-- Node37&#45;&gt;Node48 -->
<g id="edge73" class="edge"><title>Node37&#45;&gt;Node48</title>
<path fill="none" stroke="midnightblue" d="M1476.74,-372.985C1493.86,-364.286 1520.34,-350.83 1542.32,-339.655"/>
<polygon fill="midnightblue" stroke="midnightblue" points="1544.1,-342.677 1551.43,-335.026 1540.93,-336.436 1544.1,-342.677"/>
</g>
<!-- Node37&#45;&gt;Node21 -->
<g id="edge75" class="edge"><title>Node37&#45;&gt;Node21</title>
<path fill="none" stroke="midnightblue" d="M1427.74,-381.788C1354.02,-380.656 1172.13,-373.986 1127,-336 1091.82,-306.392 1083.25,-249.867 1081.34,-217.134"/>
<polygon fill="midnightblue" stroke="midnightblue" points="1084.83,-216.864 1080.92,-207.018 1077.84,-217.155 1084.83,-216.864"/>
</g>
<!-- Node43&#45;&gt;Node15 -->
<g id="edge67" class="edge"><title>Node43&#45;&gt;Node15</title>
<path fill="none" stroke="midnightblue" d="M1663.84,-308.932C1655.44,-306.619 1646.39,-304.173 1638,-302 1590.2,-289.623 1535.36,-276.456 1496.92,-267.395"/>
<polygon fill="midnightblue" stroke="midnightblue" points="1497.56,-263.95 1487.03,-265.067 1495.96,-270.764 1497.56,-263.95"/>
</g>
<!-- Node43&#45;&gt;Node18 -->
<g id="edge68" class="edge"><title>Node43&#45;&gt;Node18</title>
<path fill="none" stroke="midnightblue" d="M1708.29,-308.777C1730.62,-291.42 1778.02,-251.692 1805,-208 1816.75,-188.97 1824.09,-164.206 1828.09,-147.303"/>
<polygon fill="midnightblue" stroke="midnightblue" points="1831.53,-147.989 1830.26,-137.47 1824.69,-146.482 1831.53,-147.989"/>
</g>
<!-- Node48&#45;&gt;Node15 -->
<g id="edge74" class="edge"><title>Node48&#45;&gt;Node15</title>
<path fill="none" stroke="midnightblue" d="M1548.8,-302.992C1526.8,-292.736 1497.91,-279.264 1476.69,-269.376"/>
<polygon fill="midnightblue" stroke="midnightblue" points="1478.08,-266.162 1467.54,-265.109 1475.12,-272.506 1478.08,-266.162"/>
</g>
<!-- Node49&#45;&gt;Node13 -->
<g id="edge77" class="edge"><title>Node49&#45;&gt;Node13</title>
<path fill="none" stroke="midnightblue" d="M234.717,-372.985C274.293,-362.079 341.008,-343.696 384.521,-331.705"/>
<polygon fill="midnightblue" stroke="midnightblue" points="385.533,-335.057 394.244,-329.026 383.673,-328.309 385.533,-335.057"/>
</g>
<!-- Node49&#45;&gt;Node8 -->
<g id="edge78" class="edge"><title>Node49&#45;&gt;Node8</title>
<path fill="none" stroke="midnightblue" d="M194.622,-372.852C187.089,-363.511 175.213,-348.784 165.908,-337.246"/>
<polygon fill="midnightblue" stroke="midnightblue" points="168.41,-334.773 159.408,-329.186 162.961,-339.167 168.41,-334.773"/>
</g>
<!-- Node50 -->
<g id="node50" class="node"><title>Node50</title>
<polygon fill="white" stroke="#bfbfbf" points="-0.3125,-309 -0.3125,-329 96.3125,-329 96.3125,-309 -0.3125,-309"/>
<text text-anchor="middle" x="48" y="-315" font-family="Helvetica,sans-Serif" font-size="10.00">ePub3/container.h</text>
</g>
<!-- Node49&#45;&gt;Node50 -->
<g id="edge79" class="edge"><title>Node49&#45;&gt;Node50</title>
<path fill="none" stroke="midnightblue" d="M179.607,-372.985C153.375,-362.424 109.722,-344.849 79.9423,-332.86"/>
<polygon fill="midnightblue" stroke="midnightblue" points="81.0035,-329.514 70.4199,-329.026 78.3892,-336.008 81.0035,-329.514"/>
</g>
</g>
</svg>
