<?xml version="1.0" encoding="UTF-8" standalone="no"?>
<!DOCTYPE svg PUBLIC "-//W3C//DTD SVG 1.1//EN"
 "http://www.w3.org/Graphics/SVG/1.1/DTD/svg11.dtd">
<!-- Generated by graphviz version 2.30.0 (20130114.0426)
 -->
<!-- Title: /Users/rkwright/Documents/github/readium&#45;sdk&#45;D/ePub3/utilities/future.h Pages: 1 -->
<svg width="1091pt" height="414pt"
 viewBox="0.00 0.00 1091.29 414.00" xmlns="http://www.w3.org/2000/svg" xmlns:xlink="http://www.w3.org/1999/xlink">
<g id="graph0" class="graph" transform="scale(1 1) rotate(0) translate(4 410)">
<title>/Users/rkwright/Documents/github/readium&#45;sdk&#45;D/ePub3/utilities/future.h</title>
<polygon fill="white" stroke="white" points="-4,5 -4,-410 1088.29,-410 1088.29,5 -4,5"/>
<!-- Node1 -->
<g id="node1" class="node"><title>Node1</title>
<polygon fill="#bfbfbf" stroke="black" points="273.127,-361 273.127,-405 419.195,-405 419.195,-361 273.127,-361"/>
<text text-anchor="start" x="281.127" y="-391" font-family="Helvetica,sans-Serif" font-size="10.00">/Users/rkwright/Documents</text>
<text text-anchor="start" x="281.127" y="-379" font-family="Helvetica,sans-Serif" font-size="10.00">/github/readium&#45;sdk&#45;D/ePub3</text>
<text text-anchor="middle" x="346.161" y="-367" font-family="Helvetica,sans-Serif" font-size="10.00">/utilities/future.h</text>
</g>
<!-- Node2 -->
<g id="node2" class="node"><title>Node2</title>
<g id="a_node2"><a xlink:href="base_8h.xhtml" target="_top" xlink:title="ePub3/base.h">
<polygon fill="white" stroke="black" points="377.302,-175 377.302,-195 455.02,-195 455.02,-175 377.302,-175"/>
<text text-anchor="middle" x="416.161" y="-181" font-family="Helvetica,sans-Serif" font-size="10.00">ePub3/base.h</text>
</a>
</g>
</g>
<!-- Node1&#45;&gt;Node2 -->
<g id="edge1" class="edge"><title>Node1&#45;&gt;Node2</title>
<path fill="none" stroke="midnightblue" d="M272.864,-380.113C183.568,-376.088 40.4605,-363.481 7.16102,-324 -2.5816,-312.449 -2.11457,-301.929 7.16102,-290 51.3026,-233.229 268.238,-202.372 367.013,-191.067"/>
<polygon fill="midnightblue" stroke="midnightblue" points="367.496,-194.535 377.042,-189.94 366.714,-187.579 367.496,-194.535"/>
</g>
<!-- Node7 -->
<g id="node7" class="node"><title>Node7</title>
<polygon fill="white" stroke="#bfbfbf" points="16.661,-297 16.661,-317 45.661,-317 45.661,-297 16.661,-297"/>
<text text-anchor="middle" x="30.7719" y="-303" font-family="Helvetica,sans-Serif" font-size="10.00">list</text>
</g>
<!-- Node1&#45;&gt;Node7 -->
<g id="edge6" class="edge"><title>Node1&#45;&gt;Node7</title>
<path fill="none" stroke="midnightblue" d="M273.013,-375.418C212.736,-368.133 125.966,-353.301 55.161,-324 53.9637,-323.505 52.7633,-322.946 51.5726,-322.342"/>
<polygon fill="midnightblue" stroke="midnightblue" points="53.2263,-319.252 42.8488,-317.117 49.6297,-325.258 53.2263,-319.252"/>
</g>
<!-- Node8 -->
<g id="node8" class="node"><title>Node8</title>
<polygon fill="white" stroke="#bfbfbf" points="63.9345,-297 63.9345,-317 104.388,-317 104.388,-297 63.9345,-297"/>
<text text-anchor="middle" x="84.161" y="-303" font-family="Helvetica,sans-Serif" font-size="10.00">string</text>
</g>
<!-- Node1&#45;&gt;Node8 -->
<g id="edge7" class="edge"><title>Node1&#45;&gt;Node8</title>
<path fill="none" stroke="midnightblue" d="M272.904,-368.491C226.527,-358.773 165.79,-343.875 114.161,-324 112.302,-323.284 110.411,-322.479 108.53,-321.621"/>
<polygon fill="midnightblue" stroke="midnightblue" points="109.9,-318.393 99.3906,-317.05 106.769,-324.653 109.9,-318.393"/>
</g>
<!-- Node9 -->
<g id="node9" class="node"><title>Node9</title>
<polygon fill="white" stroke="#bfbfbf" points="122.76,-297 122.76,-317 181.562,-317 181.562,-297 122.76,-297"/>
<text text-anchor="middle" x="152.161" y="-303" font-family="Helvetica,sans-Serif" font-size="10.00">stdexcept</text>
</g>
<!-- Node1&#45;&gt;Node9 -->
<g id="edge8" class="edge"><title>Node1&#45;&gt;Node9</title>
<path fill="none" stroke="midnightblue" d="M288.582,-360.941C259.324,-350.117 223.26,-336.586 191.161,-324 188.629,-323.007 186.011,-321.966 183.385,-320.91"/>
<polygon fill="midnightblue" stroke="midnightblue" points="184.559,-317.61 173.977,-317.091 181.926,-324.096 184.559,-317.61"/>
</g>
<!-- Node10 -->
<g id="node10" class="node"><title>Node10</title>
<polygon fill="white" stroke="#bfbfbf" points="199.757,-297 199.757,-317 258.565,-317 258.565,-297 199.757,-297"/>
<text text-anchor="middle" x="229.161" y="-303" font-family="Helvetica,sans-Serif" font-size="10.00">exception</text>
</g>
<!-- Node1&#45;&gt;Node10 -->
<g id="edge9" class="edge"><title>Node1&#45;&gt;Node10</title>
<path fill="none" stroke="midnightblue" d="M312.946,-360.993C293.565,-348.734 269.599,-333.576 252.271,-322.616"/>
<polygon fill="midnightblue" stroke="midnightblue" points="253.72,-319.392 243.398,-317.004 249.978,-325.308 253.72,-319.392"/>
</g>
<!-- Node11 -->
<g id="node11" class="node"><title>Node11</title>
<polygon fill="white" stroke="#bfbfbf" points="276.989,-297 276.989,-317 351.333,-317 351.333,-297 276.989,-297"/>
<text text-anchor="middle" x="314.161" y="-303" font-family="Helvetica,sans-Serif" font-size="10.00">system_error</text>
</g>
<!-- Node1&#45;&gt;Node11 -->
<g id="edge10" class="edge"><title>Node1&#45;&gt;Node11</title>
<path fill="none" stroke="midnightblue" d="M337.077,-360.993C332.365,-350.096 326.662,-336.909 322.124,-326.415"/>
<polygon fill="midnightblue" stroke="midnightblue" points="325.237,-324.794 318.055,-317.004 318.812,-327.572 325.237,-324.794"/>
</g>
<!-- Node12 -->
<g id="node12" class="node"><title>Node12</title>
<polygon fill="white" stroke="#bfbfbf" points="316.984,-233 316.984,-253 361.338,-253 361.338,-233 316.984,-233"/>
<text text-anchor="middle" x="339.161" y="-239" font-family="Helvetica,sans-Serif" font-size="10.00">thread</text>
</g>
<!-- Node1&#45;&gt;Node12 -->
<g id="edge11" class="edge"><title>Node1&#45;&gt;Node12</title>
<path fill="none" stroke="midnightblue" d="M353.799,-360.667C359.465,-341.931 365.379,-313.996 360.161,-290 358.066,-280.364 353.766,-270.328 349.6,-262.098"/>
<polygon fill="midnightblue" stroke="midnightblue" points="352.573,-260.238 344.741,-253.103 346.414,-263.565 352.573,-260.238"/>
</g>
<!-- Node13 -->
<g id="node13" class="node"><title>Node13</title>
<polygon fill="white" stroke="#bfbfbf" points="407.104,-297 407.104,-317 459.218,-317 459.218,-297 407.104,-297"/>
<text text-anchor="middle" x="433.161" y="-303" font-family="Helvetica,sans-Serif" font-size="10.00">memory</text>
</g>
<!-- Node1&#45;&gt;Node13 -->
<g id="edge12" class="edge"><title>Node1&#45;&gt;Node13</title>
<path fill="none" stroke="midnightblue" d="M370.859,-360.993C384.87,-349.075 402.104,-334.416 414.892,-323.539"/>
<polygon fill="midnightblue" stroke="midnightblue" points="417.225,-326.15 422.575,-317.004 412.69,-320.818 417.225,-326.15"/>
</g>
<!-- Node14 -->
<g id="node14" class="node"><title>Node14</title>
<polygon fill="white" stroke="#bfbfbf" points="379.434,-233 379.434,-253 424.888,-253 424.888,-233 379.434,-233"/>
<text text-anchor="middle" x="402.161" y="-239" font-family="Helvetica,sans-Serif" font-size="10.00">atomic</text>
</g>
<!-- Node1&#45;&gt;Node14 -->
<g id="edge13" class="edge"><title>Node1&#45;&gt;Node14</title>
<path fill="none" stroke="midnightblue" d="M419.305,-362.974C438.461,-354.31 456.887,-341.844 468.161,-324 476.233,-311.225 475.153,-303.396 468.161,-290 460.81,-275.916 446.961,-265.266 433.84,-257.779"/>
<polygon fill="midnightblue" stroke="midnightblue" points="435.439,-254.666 424.961,-253.098 432.174,-260.858 435.439,-254.666"/>
</g>
<!-- Node15 -->
<g id="node15" class="node"><title>Node15</title>
<g id="a_node15"><a xlink:href="invoke_8h.xhtml" target="_top" xlink:title="ePub3/utilities/invoke.h">
<polygon fill="white" stroke="black" points="443.018,-233 443.018,-253 561.304,-253 561.304,-233 443.018,-233"/>
<text text-anchor="middle" x="502.161" y="-239" font-family="Helvetica,sans-Serif" font-size="10.00">ePub3/utilities/invoke.h</text>
</a>
</g>
</g>
<!-- Node1&#45;&gt;Node15 -->
<g id="edge14" class="edge"><title>Node1&#45;&gt;Node15</title>
<path fill="none" stroke="midnightblue" d="M419.505,-366.057C443.606,-357.379 468.467,-344.126 485.161,-324 499.357,-306.885 502.546,-280.773 502.883,-263.076"/>
<polygon fill="midnightblue" stroke="midnightblue" points="506.383,-263.036 502.788,-253.07 499.383,-263.103 506.383,-263.036"/>
</g>
<!-- Node18 -->
<g id="node18" class="node"><title>Node18</title>
<g id="a_node18"><a xlink:href="executor_8h.xhtml" target="_top" xlink:title="ePub3/utilities/executor.h">
<polygon fill="white" stroke="black" points="576.568,-297 576.568,-317 703.754,-317 703.754,-297 576.568,-297"/>
<text text-anchor="middle" x="640.161" y="-303" font-family="Helvetica,sans-Serif" font-size="10.00">ePub3/utilities/executor.h</text>
</a>
</g>
</g>
<!-- Node1&#45;&gt;Node18 -->
<g id="edge18" class="edge"><title>Node1&#45;&gt;Node18</title>
<path fill="none" stroke="midnightblue" d="M419.213,-363.613C474.032,-349.815 547.403,-331.347 594.238,-319.559"/>
<polygon fill="midnightblue" stroke="midnightblue" points="595.257,-322.912 604.1,-317.076 593.549,-316.123 595.257,-322.912"/>
</g>
<!-- Node25 -->
<g id="node25" class="node"><title>Node25</title>
<g id="a_node25"><a xlink:href="condition__variable__any_8h.xhtml" target="_top" xlink:title="ePub3/utilities/condition\l_variable_any.h">
<polygon fill="white" stroke="black" points="916.627,-291 916.627,-323 1037.7,-323 1037.7,-291 916.627,-291"/>
<text text-anchor="start" x="924.627" y="-309" font-family="Helvetica,sans-Serif" font-size="10.00">ePub3/utilities/condition</text>
<text text-anchor="middle" x="977.161" y="-297" font-family="Helvetica,sans-Serif" font-size="10.00">_variable_any.h</text>
</a>
</g>
</g>
<!-- Node1&#45;&gt;Node25 -->
<g id="edge29" class="edge"><title>Node1&#45;&gt;Node25</title>
<path fill="none" stroke="midnightblue" d="M419.47,-373.403C541.749,-359.063 785.788,-330.443 906.371,-316.302"/>
<polygon fill="midnightblue" stroke="midnightblue" points="907.07,-319.744 916.594,-315.103 906.254,-312.792 907.07,-319.744"/>
</g>
<!-- Node3 -->
<g id="node3" class="node"><title>Node3</title>
<g id="a_node3"><a xlink:href="__config_8h.xhtml" target="_top" xlink:title="_config.h">
<polygon fill="white" stroke="black" points="762.868,-117 762.868,-137 819.454,-137 819.454,-117 762.868,-117"/>
<text text-anchor="middle" x="791.161" y="-123" font-family="Helvetica,sans-Serif" font-size="10.00">_config.h</text>
</a>
</g>
</g>
<!-- Node2&#45;&gt;Node3 -->
<g id="edge2" class="edge"><title>Node2&#45;&gt;Node3</title>
<path fill="none" stroke="midnightblue" d="M455.153,-175.653C458.196,-175.07 461.226,-174.512 464.161,-174 568.004,-155.899 691.361,-140.071 752.636,-132.587"/>
<polygon fill="midnightblue" stroke="midnightblue" points="753.126,-136.054 762.632,-131.374 752.283,-129.105 753.126,-136.054"/>
</g>
<!-- Node6 -->
<g id="node6" class="node"><title>Node6</title>
<polygon fill="white" stroke="#bfbfbf" points="392.319,-117 392.319,-137 440.003,-137 440.003,-117 392.319,-117"/>
<text text-anchor="middle" x="416.161" y="-123" font-family="Helvetica,sans-Serif" font-size="10.00">stdlib.h</text>
</g>
<!-- Node2&#45;&gt;Node6 -->
<g id="edge5" class="edge"><title>Node2&#45;&gt;Node6</title>
<path fill="none" stroke="midnightblue" d="M416.161,-174.753C416.161,-167.25 416.161,-156.424 416.161,-147.078"/>
<polygon fill="midnightblue" stroke="midnightblue" points="419.661,-147.075 416.161,-137.075 412.661,-147.075 419.661,-147.075"/>
</g>
<!-- Node4 -->
<g id="node4" class="node"><title>Node4</title>
<g id="a_node4"><a xlink:href="__platform_8h.xhtml" target="_top" xlink:title="_platform.h">
<polygon fill="white" stroke="black" points="758.149,-59 758.149,-79 824.173,-79 824.173,-59 758.149,-59"/>
<text text-anchor="middle" x="791.161" y="-65" font-family="Helvetica,sans-Serif" font-size="10.00">_platform.h</text>
</a>
</g>
</g>
<!-- Node3&#45;&gt;Node4 -->
<g id="edge3" class="edge"><title>Node3&#45;&gt;Node4</title>
<path fill="none" stroke="midnightblue" d="M791.161,-116.753C791.161,-109.25 791.161,-98.4238 791.161,-89.0781"/>
<polygon fill="midnightblue" stroke="midnightblue" points="794.661,-89.0752 791.161,-79.0752 787.661,-89.0752 794.661,-89.0752"/>
</g>
<!-- Node5 -->
<g id="node5" class="node"><title>Node5</title>
<g id="a_node5"><a xlink:href="__compiler_8h.xhtml" target="_top" xlink:title="_compiler.h">
<polygon fill="white" stroke="black" points="757.59,-1 757.59,-21 824.732,-21 824.732,-1 757.59,-1"/>
<text text-anchor="middle" x="791.161" y="-7" font-family="Helvetica,sans-Serif" font-size="10.00">_compiler.h</text>
</a>
</g>
</g>
<!-- Node4&#45;&gt;Node5 -->
<g id="edge4" class="edge"><title>Node4&#45;&gt;Node5</title>
<path fill="none" stroke="midnightblue" d="M791.161,-58.7527C791.161,-51.2504 791.161,-40.4238 791.161,-31.0781"/>
<polygon fill="midnightblue" stroke="midnightblue" points="794.661,-31.0752 791.161,-21.0752 787.661,-31.0752 794.661,-31.0752"/>
</g>
<!-- Node15&#45;&gt;Node2 -->
<g id="edge15" class="edge"><title>Node15&#45;&gt;Node2</title>
<path fill="none" stroke="midnightblue" d="M487.96,-232.753C474.56,-224.027 454.255,-210.805 438.653,-200.646"/>
<polygon fill="midnightblue" stroke="midnightblue" points="440.388,-197.599 430.098,-195.075 436.568,-203.465 440.388,-197.599"/>
</g>
<!-- Node16 -->
<g id="node16" class="node"><title>Node16</title>
<polygon fill="white" stroke="#bfbfbf" points="473.095,-175 473.095,-195 535.227,-195 535.227,-175 473.095,-175"/>
<text text-anchor="middle" x="504.161" y="-181" font-family="Helvetica,sans-Serif" font-size="10.00">type_traits</text>
</g>
<!-- Node15&#45;&gt;Node16 -->
<g id="edge16" class="edge"><title>Node15&#45;&gt;Node16</title>
<path fill="none" stroke="midnightblue" d="M502.491,-232.753C502.759,-225.25 503.146,-214.424 503.48,-205.078"/>
<polygon fill="midnightblue" stroke="midnightblue" points="506.978,-205.194 503.837,-195.075 499.982,-204.944 506.978,-205.194"/>
</g>
<!-- Node17 -->
<g id="node17" class="node"><title>Node17</title>
<polygon fill="white" stroke="#bfbfbf" points="555.757,-175 555.757,-195 614.565,-195 614.565,-175 555.757,-175"/>
<text text-anchor="middle" x="585.161" y="-181" font-family="Helvetica,sans-Serif" font-size="10.00">functional</text>
</g>
<!-- Node15&#45;&gt;Node17 -->
<g id="edge17" class="edge"><title>Node15&#45;&gt;Node17</title>
<path fill="none" stroke="midnightblue" d="M515.867,-232.753C528.678,-224.109 548.031,-211.052 563.031,-200.931"/>
<polygon fill="midnightblue" stroke="midnightblue" points="565.378,-203.57 571.71,-195.075 561.463,-197.767 565.378,-203.57"/>
</g>
<!-- Node19 -->
<g id="node19" class="node"><title>Node19</title>
<polygon fill="white" stroke="#bfbfbf" points="809.24,-233 809.24,-253 893.082,-253 893.082,-233 809.24,-233"/>
<text text-anchor="middle" x="851.161" y="-239" font-family="Helvetica,sans-Serif" font-size="10.00">ePub3/epub3.h</text>
</g>
<!-- Node18&#45;&gt;Node19 -->
<g id="edge19" class="edge"><title>Node18&#45;&gt;Node19</title>
<path fill="none" stroke="midnightblue" d="M670.842,-296.985C707.799,-286.125 769.993,-267.85 810.809,-255.857"/>
<polygon fill="midnightblue" stroke="midnightblue" points="811.835,-259.204 820.443,-253.026 809.862,-252.487 811.835,-259.204"/>
</g>
<!-- Node18&#45;&gt;Node17 -->
<g id="edge20" class="edge"><title>Node18&#45;&gt;Node17</title>
<path fill="none" stroke="midnightblue" d="M633.595,-296.777C626.604,-286.652 615.548,-269.737 608.161,-254 600.639,-237.977 594.384,-218.802 590.305,-204.905"/>
<polygon fill="midnightblue" stroke="midnightblue" points="593.608,-203.722 587.518,-195.052 586.872,-205.627 593.608,-203.722"/>
</g>
<!-- Node20 -->
<g id="node20" class="node"><title>Node20</title>
<polygon fill="white" stroke="#bfbfbf" points="616.873,-233 616.873,-253 663.449,-253 663.449,-233 616.873,-233"/>
<text text-anchor="middle" x="640.161" y="-239" font-family="Helvetica,sans-Serif" font-size="10.00">chrono</text>
</g>
<!-- Node18&#45;&gt;Node20 -->
<g id="edge21" class="edge"><title>Node18&#45;&gt;Node20</title>
<path fill="none" stroke="midnightblue" d="M640.161,-296.852C640.161,-288.06 640.161,-274.498 640.161,-263.313"/>
<polygon fill="midnightblue" stroke="midnightblue" points="643.661,-263.186 640.161,-253.186 636.661,-263.186 643.661,-263.186"/>
</g>
<!-- Node21 -->
<g id="node21" class="node"><title>Node21</title>
<polygon fill="white" stroke="#bfbfbf" points="681.257,-233 681.257,-253 725.065,-253 725.065,-233 681.257,-233"/>
<text text-anchor="middle" x="703.161" y="-239" font-family="Helvetica,sans-Serif" font-size="10.00">queue</text>
</g>
<!-- Node18&#45;&gt;Node21 -->
<g id="edge22" class="edge"><title>Node18&#45;&gt;Node21</title>
<path fill="none" stroke="midnightblue" d="M649.457,-296.852C659.228,-287.236 674.798,-271.913 686.663,-260.236"/>
<polygon fill="midnightblue" stroke="midnightblue" points="689.155,-262.695 693.827,-253.186 684.245,-257.706 689.155,-262.695"/>
</g>
<!-- Node18&#45;&gt;Node14 -->
<g id="edge23" class="edge"><title>Node18&#45;&gt;Node14</title>
<path fill="none" stroke="midnightblue" d="M601.645,-296.955C562.159,-287.532 498.773,-271.992 435.007,-254.132"/>
<polygon fill="midnightblue" stroke="midnightblue" points="435.762,-250.708 425.187,-251.364 433.862,-257.446 435.762,-250.708"/>
</g>
<!-- Node22 -->
<g id="node22" class="node"><title>Node22</title>
<polygon fill="white" stroke="#bfbfbf" points="911.545,-233 911.545,-253 954.777,-253 954.777,-233 911.545,-233"/>
<text text-anchor="middle" x="933.161" y="-239" font-family="Helvetica,sans-Serif" font-size="10.00">mutex</text>
</g>
<!-- Node18&#45;&gt;Node22 -->
<g id="edge24" class="edge"><title>Node18&#45;&gt;Node22</title>
<path fill="none" stroke="midnightblue" d="M694.021,-296.994C747.059,-287.722 830.202,-272.102 901.161,-254 901.263,-253.974 901.366,-253.948 901.468,-253.921"/>
<polygon fill="midnightblue" stroke="midnightblue" points="902.527,-257.26 911.215,-251.195 900.642,-250.518 902.527,-257.26"/>
</g>
<!-- Node18&#45;&gt;Node12 -->
<g id="edge25" class="edge"><title>Node18&#45;&gt;Node12</title>
<path fill="none" stroke="midnightblue" d="M582.562,-296.998C529.843,-288.287 449.558,-273.842 371.428,-254.1"/>
<polygon fill="midnightblue" stroke="midnightblue" points="371.973,-250.626 361.417,-251.538 370.237,-257.408 371.973,-250.626"/>
</g>
<!-- Node23 -->
<g id="node23" class="node"><title>Node23</title>
<polygon fill="white" stroke="#bfbfbf" points="743.045,-233 743.045,-253 791.277,-253 791.277,-233 743.045,-233"/>
<text text-anchor="middle" x="767.161" y="-239" font-family="Helvetica,sans-Serif" font-size="10.00">cassert</text>
</g>
<!-- Node18&#45;&gt;Node23 -->
<g id="edge26" class="edge"><title>Node18&#45;&gt;Node23</title>
<path fill="none" stroke="midnightblue" d="M658.628,-296.985C679.885,-286.607 715.012,-269.458 739.527,-257.49"/>
<polygon fill="midnightblue" stroke="midnightblue" points="741.221,-260.559 748.672,-253.026 738.15,-254.268 741.221,-260.559"/>
</g>
<!-- Node24 -->
<g id="node24" class="node"><title>Node24</title>
<polygon fill="white" stroke="#bfbfbf" points="972.856,-233 972.856,-253 1069.47,-253 1069.47,-233 972.856,-233"/>
<text text-anchor="middle" x="1021.16" y="-239" font-family="Helvetica,sans-Serif" font-size="10.00">condition_variable</text>
</g>
<!-- Node18&#45;&gt;Node24 -->
<g id="edge27" class="edge"><title>Node18&#45;&gt;Node24</title>
<path fill="none" stroke="midnightblue" d="M697.372,-296.986C759.875,-287.095 863.23,-270.608 962.813,-254.043"/>
<polygon fill="midnightblue" stroke="midnightblue" points="963.458,-257.484 972.747,-252.389 962.308,-250.579 963.458,-257.484"/>
</g>
<!-- Node18&#45;&gt;Node15 -->
<g id="edge28" class="edge"><title>Node18&#45;&gt;Node15</title>
<path fill="none" stroke="midnightblue" d="M620.095,-296.985C596.792,-286.516 558.15,-269.154 531.484,-257.174"/>
<polygon fill="midnightblue" stroke="midnightblue" points="532.808,-253.932 522.252,-253.026 529.939,-260.317 532.808,-253.932"/>
</g>
<!-- Node25&#45;&gt;Node3 -->
<g id="edge30" class="edge"><title>Node25&#45;&gt;Node3</title>
<path fill="none" stroke="midnightblue" d="M1027.87,-290.883C1061.45,-278.119 1096.26,-257.806 1078.16,-232 1021.23,-150.822 894.234,-132.751 829.982,-128.904"/>
<polygon fill="midnightblue" stroke="midnightblue" points="830.024,-125.401 819.858,-128.385 829.666,-132.392 830.024,-125.401"/>
</g>
<!-- Node25&#45;&gt;Node22 -->
<g id="edge31" class="edge"><title>Node25&#45;&gt;Node22</title>
<path fill="none" stroke="midnightblue" d="M966.51,-290.992C960.253,-282.175 952.31,-270.983 945.746,-261.733"/>
<polygon fill="midnightblue" stroke="midnightblue" points="948.396,-259.42 939.754,-253.29 942.687,-263.471 948.396,-259.42"/>
</g>
<!-- Node25&#45;&gt;Node24 -->
<g id="edge32" class="edge"><title>Node25&#45;&gt;Node24</title>
<path fill="none" stroke="midnightblue" d="M987.812,-290.992C994.069,-282.175 1002.01,-270.983 1008.58,-261.733"/>
<polygon fill="midnightblue" stroke="midnightblue" points="1011.63,-263.471 1014.57,-253.29 1005.93,-259.42 1011.63,-263.471"/>
</g>
</g>
</svg>
