<?xml version="1.0" encoding="UTF-8" standalone="no"?>
<!DOCTYPE svg PUBLIC "-//W3C//DTD SVG 1.1//EN"
 "http://www.w3.org/Graphics/SVG/1.1/DTD/svg11.dtd">
<!-- Generated by graphviz version 2.30.0 (20130114.0426)
 -->
<!-- Title: /Users/rkwright/Documents/github/readium&#45;sdk&#45;D/ePub3/ePub/glossary.h Pages: 1 -->
<svg width="183pt" height="112pt"
 viewBox="0.00 0.00 183.00 112.00" xmlns="http://www.w3.org/2000/svg" xmlns:xlink="http://www.w3.org/1999/xlink">
<g id="graph0" class="graph" transform="scale(1 1) rotate(0) translate(4 108)">
<title>/Users/rkwright/Documents/github/readium&#45;sdk&#45;D/ePub3/ePub/glossary.h</title>
<polygon fill="white" stroke="white" points="-4,5 -4,-108 180,-108 180,5 -4,5"/>
<!-- Node1 -->
<g id="node1" class="node"><title>Node1</title>
<polygon fill="#bfbfbf" stroke="black" points="28.9658,-59 28.9658,-103 175.034,-103 175.034,-59 28.9658,-59"/>
<text text-anchor="start" x="36.9658" y="-89" font-family="Helvetica,sans-Serif" font-size="10.00">/Users/rkwright/Documents</text>
<text text-anchor="start" x="36.9658" y="-77" font-family="Helvetica,sans-Serif" font-size="10.00">/github/readium&#45;sdk&#45;D/ePub3</text>
<text text-anchor="middle" x="102" y="-65" font-family="Helvetica,sans-Serif" font-size="10.00">/ePub/glossary.h</text>
</g>
<!-- Node2 -->
<g id="node2" class="node"><title>Node2</title>
<polygon fill="white" stroke="#bfbfbf" points="-0.647461,-1 -0.647461,-21 112.647,-21 112.647,-1 -0.647461,-1"/>
<text text-anchor="middle" x="56" y="-7" font-family="Helvetica,sans-Serif" font-size="10.00">ePub3/nav_element.h</text>
</g>
<!-- Node1&#45;&gt;Node2 -->
<g id="edge1" class="edge"><title>Node1&#45;&gt;Node2</title>
<path fill="none" stroke="midnightblue" d="M87.6975,-58.8571C81.3554,-49.4819 73.9786,-38.5771 67.938,-29.6475"/>
<polygon fill="midnightblue" stroke="midnightblue" points="70.7283,-27.5257 62.2262,-21.2039 64.9303,-31.4479 70.7283,-27.5257"/>
</g>
<!-- Node3 -->
<g id="node3" class="node"><title>Node3</title>
<polygon fill="white" stroke="#bfbfbf" points="130.273,-1 130.273,-21 165.727,-21 165.727,-1 130.273,-1"/>
<text text-anchor="middle" x="148" y="-7" font-family="Helvetica,sans-Serif" font-size="10.00">map</text>
</g>
<!-- Node1&#45;&gt;Node3 -->
<g id="edge2" class="edge"><title>Node1&#45;&gt;Node3</title>
<path fill="none" stroke="midnightblue" d="M116.303,-58.8571C122.645,-49.4819 130.021,-38.5771 136.062,-29.6475"/>
<polygon fill="midnightblue" stroke="midnightblue" points="139.07,-31.4479 141.774,-21.2039 133.272,-27.5257 139.07,-31.4479"/>
</g>
</g>
</svg>
