<?xml version="1.0" encoding="UTF-8" standalone="no"?>
<!DOCTYPE svg PUBLIC "-//W3C//DTD SVG 1.1//EN"
 "http://www.w3.org/Graphics/SVG/1.1/DTD/svg11.dtd">
<!-- Generated by graphviz version 2.30.0 (20130114.0426)
 -->
<!-- Title: /Users/rkwright/Documents/github/readium&#45;sdk&#45;D/ePub3/ePub/glossary.cpp Pages: 1 -->
<svg width="586pt" height="414pt"
 viewBox="0.00 0.00 585.95 414.00" xmlns="http://www.w3.org/2000/svg" xmlns:xlink="http://www.w3.org/1999/xlink">
<g id="graph0" class="graph" transform="scale(1 1) rotate(0) translate(4 410)">
<title>/Users/rkwright/Documents/github/readium&#45;sdk&#45;D/ePub3/ePub/glossary.cpp</title>
<polygon fill="white" stroke="white" points="-4,5 -4,-410 582.953,-410 582.953,5 -4,5"/>
<!-- Node1 -->
<g id="node1" class="node"><title>Node1</title>
<polygon fill="#bfbfbf" stroke="black" points="340.966,-361 340.966,-405 487.034,-405 487.034,-361 340.966,-361"/>
<text text-anchor="start" x="348.966" y="-391" font-family="Helvetica,sans-Serif" font-size="10.00">/Users/rkwright/Documents</text>
<text text-anchor="start" x="348.966" y="-379" font-family="Helvetica,sans-Serif" font-size="10.00">/github/readium&#45;sdk&#45;D/ePub3</text>
<text text-anchor="middle" x="414" y="-367" font-family="Helvetica,sans-Serif" font-size="10.00">/ePub/glossary.cpp</text>
</g>
<!-- Node2 -->
<g id="node2" class="node"><title>Node2</title>
<g id="a_node2"><a xlink:href="glossary_8h.xhtml" target="_top" xlink:title="glossary.h">
<polygon fill="white" stroke="black" points="160.581,-297 160.581,-317 221.419,-317 221.419,-297 160.581,-297"/>
<text text-anchor="middle" x="191" y="-303" font-family="Helvetica,sans-Serif" font-size="10.00">glossary.h</text>
</a>
</g>
</g>
<!-- Node1&#45;&gt;Node2 -->
<g id="edge1" class="edge"><title>Node1&#45;&gt;Node2</title>
<path fill="none" stroke="midnightblue" d="M350.694,-360.993C311.017,-347.826 261.26,-331.315 227.924,-320.253"/>
<polygon fill="midnightblue" stroke="midnightblue" points="228.729,-316.832 218.135,-317.004 226.524,-323.476 228.729,-316.832"/>
</g>
<!-- Node5 -->
<g id="node5" class="node"><title>Node5</title>
<g id="a_node5"><a xlink:href="error__handler_8h.xhtml" target="_top" xlink:title="ePub3/utilities/error\l_handler.h">
<polygon fill="white" stroke="black" points="362.924,-291 362.924,-323 465.076,-323 465.076,-291 362.924,-291"/>
<text text-anchor="start" x="370.924" y="-309" font-family="Helvetica,sans-Serif" font-size="10.00">ePub3/utilities/error</text>
<text text-anchor="middle" x="414" y="-297" font-family="Helvetica,sans-Serif" font-size="10.00">_handler.h</text>
</a>
</g>
</g>
<!-- Node1&#45;&gt;Node5 -->
<g id="edge4" class="edge"><title>Node1&#45;&gt;Node5</title>
<path fill="none" stroke="midnightblue" d="M414,-360.993C414,-352.487 414,-342.584 414,-333.657"/>
<polygon fill="midnightblue" stroke="midnightblue" points="417.5,-333.411 414,-323.412 410.5,-333.412 417.5,-333.411"/>
</g>
<!-- Node16 -->
<g id="node16" class="node"><title>Node16</title>
<polygon fill="white" stroke="#bfbfbf" points="518.5,-175 518.5,-195 547.5,-195 547.5,-175 518.5,-175"/>
<text text-anchor="middle" x="532.611" y="-181" font-family="Helvetica,sans-Serif" font-size="10.00">list</text>
</g>
<!-- Node1&#45;&gt;Node16 -->
<g id="edge19" class="edge"><title>Node1&#45;&gt;Node16</title>
<path fill="none" stroke="midnightblue" d="M458.929,-360.82C497.695,-339.788 551.103,-303.528 575,-254 584.005,-235.336 568.21,-215.306 553.485,-201.856"/>
<polygon fill="midnightblue" stroke="midnightblue" points="555.459,-198.939 545.58,-195.111 550.915,-204.264 555.459,-198.939"/>
</g>
<!-- Node3 -->
<g id="node3" class="node"><title>Node3</title>
<polygon fill="white" stroke="#bfbfbf" points="42.3525,-233 42.3525,-253 155.647,-253 155.647,-233 42.3525,-233"/>
<text text-anchor="middle" x="99" y="-239" font-family="Helvetica,sans-Serif" font-size="10.00">ePub3/nav_element.h</text>
</g>
<!-- Node2&#45;&gt;Node3 -->
<g id="edge2" class="edge"><title>Node2&#45;&gt;Node3</title>
<path fill="none" stroke="midnightblue" d="M177.425,-296.852C162.613,-286.87 138.674,-270.737 121.136,-258.918"/>
<polygon fill="midnightblue" stroke="midnightblue" points="122.879,-255.872 112.631,-253.186 118.967,-261.677 122.879,-255.872"/>
</g>
<!-- Node4 -->
<g id="node4" class="node"><title>Node4</title>
<polygon fill="white" stroke="#bfbfbf" points="173.273,-233 173.273,-253 208.727,-253 208.727,-233 173.273,-233"/>
<text text-anchor="middle" x="191" y="-239" font-family="Helvetica,sans-Serif" font-size="10.00">map</text>
</g>
<!-- Node2&#45;&gt;Node4 -->
<g id="edge3" class="edge"><title>Node2&#45;&gt;Node4</title>
<path fill="none" stroke="midnightblue" d="M191,-296.852C191,-288.06 191,-274.498 191,-263.313"/>
<polygon fill="midnightblue" stroke="midnightblue" points="194.5,-263.186 191,-253.186 187.5,-263.186 194.5,-263.186"/>
</g>
<!-- Node6 -->
<g id="node6" class="node"><title>Node6</title>
<g id="a_node6"><a xlink:href="basic_8h.xhtml" target="_top" xlink:title="ePub3/utilities/basic.h">
<polygon fill="white" stroke="black" points="226.638,-233 226.638,-253 339.362,-253 339.362,-233 226.638,-233"/>
<text text-anchor="middle" x="283" y="-239" font-family="Helvetica,sans-Serif" font-size="10.00">ePub3/utilities/basic.h</text>
</a>
</g>
</g>
<!-- Node5&#45;&gt;Node6 -->
<g id="edge5" class="edge"><title>Node5&#45;&gt;Node6</title>
<path fill="none" stroke="midnightblue" d="M382.289,-290.992C360.717,-280.782 332.411,-267.385 311.544,-257.509"/>
<polygon fill="midnightblue" stroke="midnightblue" points="312.782,-254.223 302.246,-253.109 309.787,-260.55 312.782,-254.223"/>
</g>
<!-- Node17 -->
<g id="node17" class="node"><title>Node17</title>
<polygon fill="white" stroke="#bfbfbf" points="357.608,-233 357.608,-253 396.392,-253 396.392,-233 357.608,-233"/>
<text text-anchor="middle" x="377" y="-239" font-family="Helvetica,sans-Serif" font-size="10.00">array</text>
</g>
<!-- Node5&#45;&gt;Node17 -->
<g id="edge16" class="edge"><title>Node5&#45;&gt;Node17</title>
<path fill="none" stroke="midnightblue" d="M405.043,-290.992C399.837,-282.267 393.242,-271.216 387.755,-262.023"/>
<polygon fill="midnightblue" stroke="midnightblue" points="390.674,-260.084 382.544,-253.29 384.663,-263.671 390.674,-260.084"/>
</g>
<!-- Node18 -->
<g id="node18" class="node"><title>Node18</title>
<polygon fill="white" stroke="#bfbfbf" points="414.828,-233 414.828,-253 489.172,-253 489.172,-233 414.828,-233"/>
<text text-anchor="middle" x="452" y="-239" font-family="Helvetica,sans-Serif" font-size="10.00">system_error</text>
</g>
<!-- Node5&#45;&gt;Node18 -->
<g id="edge17" class="edge"><title>Node5&#45;&gt;Node18</title>
<path fill="none" stroke="midnightblue" d="M423.199,-290.992C428.546,-282.267 435.319,-271.216 440.954,-262.023"/>
<polygon fill="midnightblue" stroke="midnightblue" points="444.064,-263.645 446.306,-253.29 438.096,-259.987 444.064,-263.645"/>
</g>
<!-- Node19 -->
<g id="node19" class="node"><title>Node19</title>
<polygon fill="white" stroke="#bfbfbf" points="507.596,-233 507.596,-253 566.404,-253 566.404,-233 507.596,-233"/>
<text text-anchor="middle" x="537" y="-239" font-family="Helvetica,sans-Serif" font-size="10.00">functional</text>
</g>
<!-- Node5&#45;&gt;Node19 -->
<g id="edge18" class="edge"><title>Node5&#45;&gt;Node19</title>
<path fill="none" stroke="midnightblue" d="M443.775,-290.992C463.938,-280.828 490.366,-267.507 509.933,-257.644"/>
<polygon fill="midnightblue" stroke="midnightblue" points="511.575,-260.735 518.929,-253.109 508.424,-254.485 511.575,-260.735"/>
</g>
<!-- Node7 -->
<g id="node7" class="node"><title>Node7</title>
<g id="a_node7"><a xlink:href="base_8h.xhtml" target="_top" xlink:title="ePub3/base.h">
<polygon fill="white" stroke="black" points="29.1406,-175 29.1406,-195 106.859,-195 106.859,-175 29.1406,-175"/>
<text text-anchor="middle" x="68" y="-181" font-family="Helvetica,sans-Serif" font-size="10.00">ePub3/base.h</text>
</a>
</g>
</g>
<!-- Node6&#45;&gt;Node7 -->
<g id="edge6" class="edge"><title>Node6&#45;&gt;Node7</title>
<path fill="none" stroke="midnightblue" d="M247.978,-232.878C211.011,-223.249 152.641,-208.046 112.452,-197.578"/>
<polygon fill="midnightblue" stroke="midnightblue" points="113.21,-194.159 102.651,-195.025 111.446,-200.933 113.21,-194.159"/>
</g>
<!-- Node12 -->
<g id="node12" class="node"><title>Node12</title>
<polygon fill="white" stroke="#bfbfbf" points="124.815,-175 124.815,-195 239.185,-195 239.185,-175 124.815,-175"/>
<text text-anchor="middle" x="182" y="-181" font-family="Helvetica,sans-Serif" font-size="10.00">ePub3/xml/xmlstring.h</text>
</g>
<!-- Node6&#45;&gt;Node12 -->
<g id="edge11" class="edge"><title>Node6&#45;&gt;Node12</title>
<path fill="none" stroke="midnightblue" d="M266.322,-232.753C250.217,-223.823 225.619,-210.185 207.14,-199.939"/>
<polygon fill="midnightblue" stroke="midnightblue" points="208.811,-196.863 198.368,-195.075 205.416,-202.985 208.811,-196.863"/>
</g>
<!-- Node13 -->
<g id="node13" class="node"><title>Node13</title>
<polygon fill="white" stroke="#bfbfbf" points="257.219,-175 257.219,-195 308.781,-195 308.781,-175 257.219,-175"/>
<text text-anchor="middle" x="283" y="-181" font-family="Helvetica,sans-Serif" font-size="10.00">sstream</text>
</g>
<!-- Node6&#45;&gt;Node13 -->
<g id="edge12" class="edge"><title>Node6&#45;&gt;Node13</title>
<path fill="none" stroke="midnightblue" d="M283,-232.753C283,-225.25 283,-214.424 283,-205.078"/>
<polygon fill="midnightblue" stroke="midnightblue" points="286.5,-205.075 283,-195.075 279.5,-205.075 286.5,-205.075"/>
</g>
<!-- Node14 -->
<g id="node14" class="node"><title>Node14</title>
<polygon fill="white" stroke="#bfbfbf" points="326.943,-175 326.943,-195 379.057,-195 379.057,-175 326.943,-175"/>
<text text-anchor="middle" x="353" y="-181" font-family="Helvetica,sans-Serif" font-size="10.00">memory</text>
</g>
<!-- Node6&#45;&gt;Node14 -->
<g id="edge13" class="edge"><title>Node6&#45;&gt;Node14</title>
<path fill="none" stroke="midnightblue" d="M294.559,-232.753C305.16,-224.272 321.071,-211.543 333.616,-201.507"/>
<polygon fill="midnightblue" stroke="midnightblue" points="336.034,-204.055 341.656,-195.075 331.661,-198.589 336.034,-204.055"/>
</g>
<!-- Node15 -->
<g id="node15" class="node"><title>Node15</title>
<polygon fill="white" stroke="#bfbfbf" points="397.384,-175 397.384,-195 440.616,-195 440.616,-175 397.384,-175"/>
<text text-anchor="middle" x="419" y="-181" font-family="Helvetica,sans-Serif" font-size="10.00">vector</text>
</g>
<!-- Node6&#45;&gt;Node15 -->
<g id="edge14" class="edge"><title>Node6&#45;&gt;Node15</title>
<path fill="none" stroke="midnightblue" d="M305.153,-232.878C327.613,-223.63 362.562,-209.239 387.814,-198.841"/>
<polygon fill="midnightblue" stroke="midnightblue" points="389.392,-201.977 397.306,-194.933 386.726,-195.504 389.392,-201.977"/>
</g>
<!-- Node6&#45;&gt;Node16 -->
<g id="edge15" class="edge"><title>Node6&#45;&gt;Node16</title>
<path fill="none" stroke="midnightblue" d="M323.445,-232.94C375.805,-221.212 465.429,-201.136 508.49,-191.49"/>
<polygon fill="midnightblue" stroke="midnightblue" points="509.391,-194.875 518.384,-189.274 507.861,-188.044 509.391,-194.875"/>
</g>
<!-- Node8 -->
<g id="node8" class="node"><title>Node8</title>
<g id="a_node8"><a xlink:href="__config_8h.xhtml" target="_top" xlink:title="_config.h">
<polygon fill="white" stroke="black" points="4.70703,-117 4.70703,-137 61.293,-137 61.293,-117 4.70703,-117"/>
<text text-anchor="middle" x="33" y="-123" font-family="Helvetica,sans-Serif" font-size="10.00">_config.h</text>
</a>
</g>
</g>
<!-- Node7&#45;&gt;Node8 -->
<g id="edge7" class="edge"><title>Node7&#45;&gt;Node8</title>
<path fill="none" stroke="midnightblue" d="M62.2205,-174.753C57.2767,-166.843 50.0233,-155.237 43.9802,-145.568"/>
<polygon fill="midnightblue" stroke="midnightblue" points="46.94,-143.7 38.672,-137.075 41.004,-147.41 46.94,-143.7"/>
</g>
<!-- Node11 -->
<g id="node11" class="node"><title>Node11</title>
<polygon fill="white" stroke="#bfbfbf" points="79.1577,-117 79.1577,-137 126.842,-137 126.842,-117 79.1577,-117"/>
<text text-anchor="middle" x="103" y="-123" font-family="Helvetica,sans-Serif" font-size="10.00">stdlib.h</text>
</g>
<!-- Node7&#45;&gt;Node11 -->
<g id="edge10" class="edge"><title>Node7&#45;&gt;Node11</title>
<path fill="none" stroke="midnightblue" d="M73.7795,-174.753C78.7233,-166.843 85.9767,-155.237 92.0198,-145.568"/>
<polygon fill="midnightblue" stroke="midnightblue" points="94.996,-147.41 97.328,-137.075 89.06,-143.7 94.996,-147.41"/>
</g>
<!-- Node9 -->
<g id="node9" class="node"><title>Node9</title>
<g id="a_node9"><a xlink:href="__platform_8h.xhtml" target="_top" xlink:title="_platform.h">
<polygon fill="white" stroke="black" points="-0.012207,-59 -0.012207,-79 66.0122,-79 66.0122,-59 -0.012207,-59"/>
<text text-anchor="middle" x="33" y="-65" font-family="Helvetica,sans-Serif" font-size="10.00">_platform.h</text>
</a>
</g>
</g>
<!-- Node8&#45;&gt;Node9 -->
<g id="edge8" class="edge"><title>Node8&#45;&gt;Node9</title>
<path fill="none" stroke="midnightblue" d="M33,-116.753C33,-109.25 33,-98.4238 33,-89.0781"/>
<polygon fill="midnightblue" stroke="midnightblue" points="36.5001,-89.0752 33,-79.0752 29.5001,-89.0752 36.5001,-89.0752"/>
</g>
<!-- Node10 -->
<g id="node10" class="node"><title>Node10</title>
<g id="a_node10"><a xlink:href="__compiler_8h.xhtml" target="_top" xlink:title="_compiler.h">
<polygon fill="white" stroke="black" points="-0.571289,-1 -0.571289,-21 66.5713,-21 66.5713,-1 -0.571289,-1"/>
<text text-anchor="middle" x="33" y="-7" font-family="Helvetica,sans-Serif" font-size="10.00">_compiler.h</text>
</a>
</g>
</g>
<!-- Node9&#45;&gt;Node10 -->
<g id="edge9" class="edge"><title>Node9&#45;&gt;Node10</title>
<path fill="none" stroke="midnightblue" d="M33,-58.7527C33,-51.2504 33,-40.4238 33,-31.0781"/>
<polygon fill="midnightblue" stroke="midnightblue" points="36.5001,-31.0752 33,-21.0752 29.5001,-31.0752 36.5001,-31.0752"/>
</g>
</g>
</svg>
