<?xml version="1.0" encoding="UTF-8" standalone="no"?>
<!DOCTYPE svg PUBLIC "-//W3C//DTD SVG 1.1//EN"
 "http://www.w3.org/Graphics/SVG/1.1/DTD/svg11.dtd">
<!-- Generated by graphviz version 2.30.0 (20130114.0426)
 -->
<!-- Title: EPUB?? 3 Content Processing Pages: 1 -->
<svg width="454pt" height="106pt"
 viewBox="0.00 0.00 454.00 106.00" xmlns="http://www.w3.org/2000/svg" xmlns:xlink="http://www.w3.org/1999/xlink">
<g id="graph0" class="graph" transform="scale(1 1) rotate(0) translate(4 102)">
<title>EPUB?? 3 Content Processing</title>
<polygon fill="white" stroke="white" points="-4,5 -4,-102 451,-102 451,5 -4,5"/>
<!-- Node2 -->
<g id="node1" class="node"><title>Node2</title>
<g id="a_node1"><a xlink:href="group__filters.xhtml" target="_top" xlink:title="Content Filters">
<polygon fill="white" stroke="black" points="338.488,-78 338.488,-98 419.512,-98 419.512,-78 338.488,-78"/>
<text text-anchor="middle" x="379" y="-84" font-family="Helvetica,sans-Serif" font-size="10.00">Content Filters</text>
</a>
</g>
</g>
<!-- Node4 -->
<g id="node2" class="node"><title>Node4</title>
<g id="a_node2"><a xlink:href="group__security.xhtml" target="_top" xlink:title="Encryption and Signatures">
<polygon fill="white" stroke="black" points="312.353,-0 312.353,-20 445.647,-20 445.647,-0 312.353,-0"/>
<text text-anchor="middle" x="379" y="-6" font-family="Helvetica,sans-Serif" font-size="10.00">Encryption and Signatures</text>
</a>
</g>
</g>
<!-- Node1 -->
<g id="node3" class="node"><title>Node1</title>
<g id="a_node3"><a xlink:href="group__epub.xhtml" target="_top" xlink:title="EPUB 3 Engine">
<polygon fill="white" stroke="black" points="0.256348,-39 0.256348,-59 85.7437,-59 85.7437,-39 0.256348,-39"/>
<text text-anchor="middle" x="43" y="-45" font-family="Helvetica,sans-Serif" font-size="10.00">EPUB 3 Engine</text>
</a>
</g>
</g>
<!-- Node0 -->
<g id="node4" class="node"><title>Node0</title>
<polygon fill="#bfbfbf" stroke="black" points="122.628,-39 122.628,-59 275.372,-59 275.372,-39 122.628,-39"/>
<text text-anchor="middle" x="199" y="-45" font-family="Helvetica,sans-Serif" font-size="10.00">EPUB?? 3 Content Processing</text>
</g>
<!-- Node1&#45;&gt;Node0 -->
<g id="edge1" class="edge"><title>Node1&#45;&gt;Node0</title>
<path fill="none" stroke="midnightblue" d="M96.1767,-49C104.663,-49 113.599,-49 122.509,-49"/>
<polygon fill="midnightblue" stroke="midnightblue" points="96.0812,-45.5001 86.0812,-49 96.0811,-52.5001 96.0812,-45.5001"/>
</g>
<!-- Node0&#45;&gt;Node2 -->
<g id="edge2" class="edge"><title>Node0&#45;&gt;Node2</title>
<path fill="none" stroke="midnightblue" d="M255.849,-61.2367C282.629,-67.104 314.08,-73.995 338.361,-79.3151"/>
<polygon fill="midnightblue" stroke="midnightblue" points="256.357,-57.7649 245.839,-59.0435 254.859,-64.6027 256.357,-57.7649"/>
</g>
<!-- Node3 -->
<g id="node5" class="node"><title>Node3</title>
<g id="a_node5"><a xlink:href="group__media-handlers.xhtml" target="_top" xlink:title="Content Handlers">
<polygon fill="white" stroke="black" points="332.089,-39 332.089,-59 425.911,-59 425.911,-39 332.089,-39"/>
<text text-anchor="middle" x="379" y="-45" font-family="Helvetica,sans-Serif" font-size="10.00">Content Handlers</text>
</a>
</g>
</g>
<!-- Node0&#45;&gt;Node3 -->
<g id="edge3" class="edge"><title>Node0&#45;&gt;Node3</title>
<path fill="none" stroke="midnightblue" d="M285.919,-49C301.854,-49 317.92,-49 332.072,-49"/>
<polygon fill="midnightblue" stroke="midnightblue" points="285.488,-45.5001 275.488,-49 285.488,-52.5001 285.488,-45.5001"/>
</g>
<!-- Node0&#45;&gt;Node4 -->
<g id="edge4" class="edge"><title>Node0&#45;&gt;Node4</title>
<path fill="none" stroke="midnightblue" d="M255.768,-36.7812C280.393,-31.3858 308.981,-25.1221 332.316,-20.0094"/>
<polygon fill="midnightblue" stroke="midnightblue" points="254.859,-33.3973 245.839,-38.9565 256.357,-40.2351 254.859,-33.3973"/>
</g>
</g>
</svg>
