<?xml version="1.0" encoding="UTF-8" standalone="no"?>
<!DOCTYPE svg PUBLIC "-//W3C//DTD SVG 1.1//EN"
 "http://www.w3.org/Graphics/SVG/1.1/DTD/svg11.dtd">
<!-- Generated by graphviz version 2.30.0 (20130114.0426)
 -->
<!-- Title: EPUB 3 Engine Pages: 1 -->
<svg width="284pt" height="106pt"
 viewBox="0.00 0.00 284.00 106.00" xmlns="http://www.w3.org/2000/svg" xmlns:xlink="http://www.w3.org/1999/xlink">
<g id="graph0" class="graph" transform="scale(1 1) rotate(0) translate(4 102)">
<title>EPUB 3 Engine</title>
<polygon fill="white" stroke="white" points="-4,5 -4,-102 281,-102 281,5 -4,5"/>
<!-- Node1 -->
<g id="node1" class="node"><title>Node1</title>
<g id="a_node1"><a xlink:href="group__epub-model.xhtml" target="_top" xlink:title="EPUB 3 Model">
<polygon fill="white" stroke="black" points="158.207,-78 158.207,-98 239.793,-98 239.793,-78 158.207,-78"/>
<text text-anchor="middle" x="199" y="-84" font-family="Helvetica,sans-Serif" font-size="10.00">EPUB 3 Model</text>
</a>
</g>
</g>
<!-- Node0 -->
<g id="node2" class="node"><title>Node0</title>
<polygon fill="#bfbfbf" stroke="black" points="0.256348,-39 0.256348,-59 85.7437,-59 85.7437,-39 0.256348,-39"/>
<text text-anchor="middle" x="43" y="-45" font-family="Helvetica,sans-Serif" font-size="10.00">EPUB 3 Engine</text>
</g>
<!-- Node0&#45;&gt;Node1 -->
<g id="edge1" class="edge"><title>Node0&#45;&gt;Node1</title>
<path fill="none" stroke="midnightblue" d="M93.3881,-61.5074C114.431,-66.8365 138.646,-72.9688 158.476,-77.9906"/>
<polygon fill="midnightblue" stroke="midnightblue" points="94.2121,-58.1056 83.6588,-59.0435 92.4935,-64.8914 94.2121,-58.1056"/>
</g>
<!-- Node2 -->
<g id="node3" class="node"><title>Node2</title>
<g id="a_node3"><a xlink:href="group__content-proc.xhtml" target="_top" xlink:title="EPUB?? 3 Content Processing">
<polygon fill="white" stroke="black" points="122.628,-39 122.628,-59 275.372,-59 275.372,-39 122.628,-39"/>
<text text-anchor="middle" x="199" y="-45" font-family="Helvetica,sans-Serif" font-size="10.00">EPUB?? 3 Content Processing</text>
</a>
</g>
</g>
<!-- Node0&#45;&gt;Node2 -->
<g id="edge2" class="edge"><title>Node0&#45;&gt;Node2</title>
<path fill="none" stroke="midnightblue" d="M96.1767,-49C104.663,-49 113.599,-49 122.509,-49"/>
<polygon fill="midnightblue" stroke="midnightblue" points="96.0812,-45.5001 86.0812,-49 96.0811,-52.5001 96.0812,-45.5001"/>
</g>
<!-- Node3 -->
<g id="node4" class="node"><title>Node3</title>
<g id="a_node4"><a xlink:href="group__events.xhtml" target="_top" xlink:title="Events Mechanism">
<polygon fill="white" stroke="black" points="148.761,-0 148.761,-20 249.239,-20 249.239,-0 148.761,-0"/>
<text text-anchor="middle" x="199" y="-6" font-family="Helvetica,sans-Serif" font-size="10.00">Events Mechanism</text>
</a>
</g>
</g>
<!-- Node0&#45;&gt;Node3 -->
<g id="edge3" class="edge"><title>Node0&#45;&gt;Node3</title>
<path fill="none" stroke="midnightblue" d="M93.3881,-36.4926C114.431,-31.1635 138.646,-25.0312 158.476,-20.0094"/>
<polygon fill="midnightblue" stroke="midnightblue" points="92.4935,-33.1086 83.6588,-38.9565 94.2121,-39.8944 92.4935,-33.1086"/>
</g>
</g>
</svg>
