<?xml version="1.0" encoding="UTF-8" standalone="no"?>
<!DOCTYPE svg PUBLIC "-//W3C//DTD SVG 1.1//EN"
 "http://www.w3.org/Graphics/SVG/1.1/DTD/svg11.dtd">
<!-- Generated by graphviz version 2.30.0 (20130114.0426)
 -->
<!-- Title: EPUB 3 Model Pages: 1 -->
<svg width="312pt" height="28pt"
 viewBox="0.00 0.00 312.00 28.00" xmlns="http://www.w3.org/2000/svg" xmlns:xlink="http://www.w3.org/1999/xlink">
<g id="graph0" class="graph" transform="scale(1 1) rotate(0) translate(4 24)">
<title>EPUB 3 Model</title>
<polygon fill="white" stroke="white" points="-4,5 -4,-24 309,-24 309,5 -4,5"/>
<!-- Node0 -->
<g id="node1" class="node"><title>Node0</title>
<polygon fill="#bfbfbf" stroke="black" points="122.207,-0 122.207,-20 203.793,-20 203.793,-0 122.207,-0"/>
<text text-anchor="middle" x="163" y="-6" font-family="Helvetica,sans-Serif" font-size="10.00">EPUB 3 Model</text>
</g>
<!-- Node2 -->
<g id="node3" class="node"><title>Node2</title>
<g id="a_node3"><a xlink:href="group__navigation.xhtml" target="_top" xlink:title="Navigation">
<polygon fill="white" stroke="black" points="240.375,-0 240.375,-20 303.625,-20 303.625,-0 240.375,-0"/>
<text text-anchor="middle" x="272" y="-6" font-family="Helvetica,sans-Serif" font-size="10.00">Navigation</text>
</a>
</g>
</g>
<!-- Node0&#45;&gt;Node2 -->
<g id="edge2" class="edge"><title>Node0&#45;&gt;Node2</title>
<path fill="none" stroke="midnightblue" d="M213.855,-10C222.822,-10 231.927,-10 240.154,-10"/>
<polygon fill="midnightblue" stroke="midnightblue" points="213.843,-6.5001 203.843,-10 213.843,-13.5001 213.843,-6.5001"/>
</g>
<!-- Node1 -->
<g id="node2" class="node"><title>Node1</title>
<g id="a_node2"><a xlink:href="group__epub.xhtml" target="_top" xlink:title="EPUB 3 Engine">
<polygon fill="white" stroke="black" points="0.256348,-0 0.256348,-20 85.7437,-20 85.7437,-0 0.256348,-0"/>
<text text-anchor="middle" x="43" y="-6" font-family="Helvetica,sans-Serif" font-size="10.00">EPUB 3 Engine</text>
</a>
</g>
</g>
<!-- Node1&#45;&gt;Node0 -->
<g id="edge1" class="edge"><title>Node1&#45;&gt;Node0</title>
<path fill="none" stroke="midnightblue" d="M96.0726,-10C104.829,-10 113.793,-10 122.177,-10"/>
<polygon fill="midnightblue" stroke="midnightblue" points="95.9347,-6.5001 85.9346,-10 95.9346,-13.5001 95.9347,-6.5001"/>
</g>
</g>
</svg>
