<?xml version="1.0" encoding="UTF-8" standalone="no"?>
<!DOCTYPE svg PUBLIC "-//W3C//DTD SVG 1.1//EN"
 "http://www.w3.org/Graphics/SVG/1.1/DTD/svg11.dtd">
<!-- Generated by graphviz version 2.30.0 (20130114.0426)
 -->
<!-- Title: Graphical Class Hierarchy Pages: 1 -->
<svg width="288pt" height="91pt"
 viewBox="0.00 0.00 288.00 91.00" xmlns="http://www.w3.org/2000/svg" xmlns:xlink="http://www.w3.org/1999/xlink">
<g id="graph0" class="graph" transform="scale(1 1) rotate(0) translate(4 87)">
<title>Graphical Class Hierarchy</title>
<polygon fill="white" stroke="white" points="-4,5 -4,-87 285,-87 285,5 -4,5"/>
<!-- Node1 -->
<g id="node1" class="node"><title>Node1</title>
<g id="a_node1"><a xlink:href="struct____check__complete.xhtml" target="_top" xlink:title="__check_complete\&lt; _Hp \&gt;">
<polygon fill="white" stroke="black" points="0.517578,-54 0.517578,-74 135.482,-74 135.482,-54 0.517578,-54"/>
<text text-anchor="middle" x="68" y="-60" font-family="Helvetica,sans-Serif" font-size="10.00">__check_complete&lt; _Hp &gt;</text>
</a>
</g>
</g>
<!-- Node2 -->
<g id="node2" class="node"><title>Node2</title>
<g id="a_node2"><a xlink:href="struct____check__complete_3_01___hp_00_01___hp_01_4.xhtml" target="_top" xlink:title="__check_complete\&lt; \l_Hp, _Hp \&gt;">
<polygon fill="white" stroke="black" points="171.999,-51 171.999,-83 280.001,-83 280.001,-51 171.999,-51"/>
<text text-anchor="start" x="179.999" y="-69" font-family="Helvetica,sans-Serif" font-size="10.00">__check_complete&lt; </text>
<text text-anchor="middle" x="226" y="-57" font-family="Helvetica,sans-Serif" font-size="10.00">_Hp, _Hp &gt;</text>
</a>
</g>
</g>
<!-- Node1&#45;&gt;Node2 -->
<g id="edge1" class="edge"><title>Node1&#45;&gt;Node2</title>
<path fill="none" stroke="#8b1a1a" d="M145.874,-65.4783C154.647,-65.6471 163.439,-65.8161 171.806,-65.977"/>
<polygon fill="#8b1a1a" stroke="#8b1a1a" points="145.676,-61.974 135.611,-65.281 145.541,-68.9727 145.676,-61.974"/>
</g>
<!-- Node3 -->
<g id="node3" class="node"><title>Node3</title>
<g id="a_node3"><a xlink:href="struct____check__complete_3_01___hp_00_01___t0_00_01___tp_8_8_8_4.xhtml" target="_top" xlink:title="__check_complete\&lt; \l_Hp, _T0, _Tp...\&gt;">
<polygon fill="white" stroke="black" points="171.999,-0 171.999,-32 280.001,-32 280.001,-0 171.999,-0"/>
<text text-anchor="start" x="179.999" y="-18" font-family="Helvetica,sans-Serif" font-size="10.00">__check_complete&lt; </text>
<text text-anchor="middle" x="226" y="-6" font-family="Helvetica,sans-Serif" font-size="10.00">_Hp, _T0, _Tp...&gt;</text>
</a>
</g>
</g>
<!-- Node1&#45;&gt;Node3 -->
<g id="edge2" class="edge"><title>Node1&#45;&gt;Node3</title>
<path fill="none" stroke="#8b1a1a" d="M111.288,-50.9882C130.312,-45.1348 152.95,-38.1694 172.999,-32.0002"/>
<polygon fill="#8b1a1a" stroke="#8b1a1a" points="110.231,-47.6515 101.703,-53.9376 112.29,-54.3419 110.231,-47.6515"/>
</g>
<!-- Node4 -->
<g id="node4" class="node"><title>Node4</title>
<g id="a_node4"><a xlink:href="struct____check__complete.xhtml" target="_top" xlink:title="__check_complete\&lt; \l_T0, _Tp...\&gt;">
<polygon fill="white" stroke="black" points="13.999,-0 13.999,-32 122.001,-32 122.001,-0 13.999,-0"/>
<text text-anchor="start" x="21.999" y="-18" font-family="Helvetica,sans-Serif" font-size="10.00">__check_complete&lt; </text>
<text text-anchor="middle" x="68" y="-6" font-family="Helvetica,sans-Serif" font-size="10.00">_T0, _Tp...&gt;</text>
</a>
</g>
</g>
<!-- Node4&#45;&gt;Node3 -->
<g id="edge3" class="edge"><title>Node4&#45;&gt;Node3</title>
<path fill="none" stroke="#8b1a1a" d="M132.595,-16C145.68,-16 159.327,-16 171.99,-16"/>
<polygon fill="#8b1a1a" stroke="#8b1a1a" points="132.25,-12.5001 122.25,-16 132.25,-19.5001 132.25,-12.5001"/>
</g>
</g>
</svg>
