<?xml version="1.0" encoding="UTF-8" standalone="no"?>
<!DOCTYPE svg PUBLIC "-//W3C//DTD SVG 1.1//EN"
 "http://www.w3.org/Graphics/SVG/1.1/DTD/svg11.dtd">
<!-- Generated by graphviz version 2.30.0 (20130114.0426)
 -->
<!-- Title: Graphical Class Hierarchy Pages: 1 -->
<svg width="404pt" height="40pt"
 viewBox="0.00 0.00 404.00 40.00" xmlns="http://www.w3.org/2000/svg" xmlns:xlink="http://www.w3.org/1999/xlink">
<g id="graph0" class="graph" transform="scale(1 1) rotate(0) translate(4 36)">
<title>Graphical Class Hierarchy</title>
<polygon fill="white" stroke="white" points="-4,5 -4,-36 401,-36 401,5 -4,5"/>
<!-- Node1 -->
<g id="node1" class="node"><title>Node1</title>
<g id="a_node1"><a xlink:href="struct____optional__base.xhtml" target="_top" xlink:title="__optional_base\&lt; _Tp \&gt;">
<polygon fill="white" stroke="black" points="0.0668945,-6 0.0668945,-26 123.933,-26 123.933,-6 0.0668945,-6"/>
<text text-anchor="middle" x="62" y="-12" font-family="Helvetica,sans-Serif" font-size="10.00">__optional_base&lt; _Tp &gt;</text>
</a>
</g>
</g>
<!-- Node2 -->
<g id="node2" class="node"><title>Node2</title>
<g id="a_node2"><a xlink:href="class____optional__base__impl.xhtml" target="_top" xlink:title="__optional_base_impl\l\&lt; _Tp \&gt;">
<polygon fill="white" stroke="black" points="160.353,-0 160.353,-32 273.647,-32 273.647,-0 160.353,-0"/>
<text text-anchor="start" x="168.353" y="-18" font-family="Helvetica,sans-Serif" font-size="10.00">__optional_base_impl</text>
<text text-anchor="middle" x="217" y="-6" font-family="Helvetica,sans-Serif" font-size="10.00">&lt; _Tp &gt;</text>
</a>
</g>
</g>
<!-- Node1&#45;&gt;Node2 -->
<g id="edge1" class="edge"><title>Node1&#45;&gt;Node2</title>
<path fill="none" stroke="#8b1a1a" d="M134.403,-16C143.023,-16 151.73,-16 160.084,-16"/>
<polygon fill="#8b1a1a" stroke="#8b1a1a" points="134.349,-12.5001 124.349,-16 134.349,-19.5001 134.349,-12.5001"/>
</g>
<!-- Node3 -->
<g id="node3" class="node"><title>Node3</title>
<g id="a_node3"><a xlink:href="classoptional.xhtml" target="_top" xlink:title="optional\&lt; _Tp \&gt;">
<polygon fill="white" stroke="black" points="310.251,-6 310.251,-26 395.749,-26 395.749,-6 310.251,-6"/>
<text text-anchor="middle" x="353" y="-12" font-family="Helvetica,sans-Serif" font-size="10.00">optional&lt; _Tp &gt;</text>
</a>
</g>
</g>
<!-- Node2&#45;&gt;Node3 -->
<g id="edge2" class="edge"><title>Node2&#45;&gt;Node3</title>
<path fill="none" stroke="#8b1a1a" d="M283.773,-16C292.769,-16 301.794,-16 310.2,-16"/>
<polygon fill="#8b1a1a" stroke="#8b1a1a" points="283.664,-12.5001 273.664,-16 283.664,-19.5001 283.664,-12.5001"/>
</g>
</g>
</svg>
