<?xml version="1.0" encoding="UTF-8" standalone="no"?>
<!DOCTYPE svg PUBLIC "-//W3C//DTD SVG 1.1//EN"
 "http://www.w3.org/Graphics/SVG/1.1/DTD/svg11.dtd">
<!-- Generated by graphviz version 2.30.0 (20130114.0426)
 -->
<!-- Title: Graphical Class Hierarchy Pages: 1 -->
<svg width="350pt" height="184pt"
 viewBox="0.00 0.00 350.00 184.00" xmlns="http://www.w3.org/2000/svg" xmlns:xlink="http://www.w3.org/1999/xlink">
<g id="graph0" class="graph" transform="scale(1 1) rotate(0) translate(4 180)">
<title>Graphical Class Hierarchy</title>
<polygon fill="white" stroke="white" points="-4,5 -4,-180 347,-180 347,5 -4,5"/>
<!-- Node1 -->
<g id="node1" class="node"><title>Node1</title>
<polygon fill="white" stroke="#bfbfbf" points="0.519043,-58 0.519043,-78 77.481,-78 77.481,-58 0.519043,-58"/>
<text text-anchor="middle" x="39" y="-64" font-family="Helvetica,sans-Serif" font-size="10.00">WrapperBase</text>
</g>
<!-- Node2 -->
<g id="node2" class="node"><title>Node2</title>
<g id="a_node2"><a xlink:href="class_input_buffer.xhtml" target="_top" xlink:title="InputBuffer">
<polygon fill="white" stroke="black" points="124.627,-136 124.627,-156 189.373,-156 189.373,-136 124.627,-136"/>
<text text-anchor="middle" x="157" y="-142" font-family="Helvetica,sans-Serif" font-size="10.00">InputBuffer</text>
</a>
</g>
</g>
<!-- Node1&#45;&gt;Node2 -->
<g id="edge1" class="edge"><title>Node1&#45;&gt;Node2</title>
<path fill="none" stroke="midnightblue" d="M63.7012,-83.937C86.7924,-99.4639 121.203,-122.602 140.831,-135.8"/>
<polygon fill="midnightblue" stroke="midnightblue" points="65.4164,-80.8727 55.165,-78.1971 61.5104,-86.6816 65.4164,-80.8727"/>
</g>
<!-- Node4 -->
<g id="node4" class="node"><title>Node4</title>
<g id="a_node4"><a xlink:href="class_node.xhtml" target="_top" xlink:title="Node">
<polygon fill="white" stroke="black" points="137.047,-78 137.047,-98 176.953,-98 176.953,-78 137.047,-78"/>
<text text-anchor="middle" x="157" y="-84" font-family="Helvetica,sans-Serif" font-size="10.00">Node</text>
</a>
</g>
</g>
<!-- Node1&#45;&gt;Node4 -->
<g id="edge3" class="edge"><title>Node1&#45;&gt;Node4</title>
<path fill="none" stroke="midnightblue" d="M87.6749,-76.2198C105.014,-79.2093 123.625,-82.4181 137.038,-84.7306"/>
<polygon fill="midnightblue" stroke="midnightblue" points="88.1112,-72.7435 77.6619,-74.4934 86.9218,-79.6417 88.1112,-72.7435"/>
</g>
<!-- Node8 -->
<g id="node8" class="node"><title>Node8</title>
<g id="a_node8"><a xlink:href="class_output_buffer.xhtml" target="_top" xlink:title="OutputBuffer">
<polygon fill="white" stroke="black" points="120.738,-39 120.738,-59 193.262,-59 193.262,-39 120.738,-39"/>
<text text-anchor="middle" x="157" y="-45" font-family="Helvetica,sans-Serif" font-size="10.00">OutputBuffer</text>
</a>
</g>
</g>
<!-- Node1&#45;&gt;Node8 -->
<g id="edge7" class="edge"><title>Node1&#45;&gt;Node8</title>
<path fill="none" stroke="midnightblue" d="M87.5777,-60.2071C98.5851,-58.4042 110.11,-56.5164 120.497,-54.8152"/>
<polygon fill="midnightblue" stroke="midnightblue" points="86.9646,-56.7608 77.6619,-61.8312 88.0961,-63.6687 86.9646,-56.7608"/>
</g>
<!-- Node10 -->
<g id="node10" class="node"><title>Node10</title>
<g id="a_node10"><a xlink:href="class_x_path_evaluator.xhtml" target="_top" xlink:title="XPathEvaluator">
<polygon fill="white" stroke="black" points="114.256,-0 114.256,-20 199.744,-20 199.744,-0 114.256,-0"/>
<text text-anchor="middle" x="157" y="-6" font-family="Helvetica,sans-Serif" font-size="10.00">XPathEvaluator</text>
</a>
</g>
</g>
<!-- Node1&#45;&gt;Node10 -->
<g id="edge9" class="edge"><title>Node1&#45;&gt;Node10</title>
<path fill="none" stroke="midnightblue" d="M68.3626,-53.1836C82.0963,-46.0738 98.8547,-37.4926 114,-30 120.66,-26.7054 127.957,-23.1957 134.574,-20.0511"/>
<polygon fill="midnightblue" stroke="midnightblue" points="66.6576,-50.1252 59.395,-57.8392 69.8829,-56.3378 66.6576,-50.1252"/>
</g>
<!-- Node3 -->
<g id="node3" class="node"><title>Node3</title>
<g id="a_node3"><a xlink:href="class_stream_input_buffer.xhtml" target="_top" xlink:title="StreamInputBuffer">
<polygon fill="white" stroke="black" points="240.512,-156 240.512,-176 337.488,-176 337.488,-156 240.512,-156"/>
<text text-anchor="middle" x="289" y="-162" font-family="Helvetica,sans-Serif" font-size="10.00">StreamInputBuffer</text>
</a>
</g>
</g>
<!-- Node2&#45;&gt;Node3 -->
<g id="edge2" class="edge"><title>Node2&#45;&gt;Node3</title>
<path fill="none" stroke="midnightblue" d="M199.528,-152.389C212.515,-154.387 226.946,-156.607 240.322,-158.665"/>
<polygon fill="midnightblue" stroke="midnightblue" points="199.885,-148.903 189.469,-150.841 198.821,-155.821 199.885,-148.903"/>
</g>
<!-- Node5 -->
<g id="node5" class="node"><title>Node5</title>
<g id="a_node5"><a xlink:href="class_document.xhtml" target="_top" xlink:title="Document">
<polygon fill="white" stroke="black" points="258.212,-117 258.212,-137 319.788,-137 319.788,-117 258.212,-117"/>
<text text-anchor="middle" x="289" y="-123" font-family="Helvetica,sans-Serif" font-size="10.00">Document</text>
</a>
</g>
</g>
<!-- Node4&#45;&gt;Node5 -->
<g id="edge4" class="edge"><title>Node4&#45;&gt;Node5</title>
<path fill="none" stroke="midnightblue" d="M186.91,-96.6731C208.083,-103.025 236.735,-111.621 258.129,-118.039"/>
<polygon fill="midnightblue" stroke="midnightblue" points="187.766,-93.2757 177.182,-93.7546 185.754,-99.9805 187.766,-93.2757"/>
</g>
<!-- Node6 -->
<g id="node6" class="node"><title>Node6</title>
<g id="a_node6"><a xlink:href="class_d_t_d.xhtml" target="_top" xlink:title="DTD">
<polygon fill="white" stroke="black" points="270.724,-78 270.724,-98 307.276,-98 307.276,-78 270.724,-78"/>
<text text-anchor="middle" x="289" y="-84" font-family="Helvetica,sans-Serif" font-size="10.00">DTD</text>
</a>
</g>
</g>
<!-- Node4&#45;&gt;Node6 -->
<g id="edge5" class="edge"><title>Node4&#45;&gt;Node6</title>
<path fill="none" stroke="midnightblue" d="M187.409,-88C212.961,-88 249.121,-88 270.408,-88"/>
<polygon fill="midnightblue" stroke="midnightblue" points="187.182,-84.5001 177.182,-88 187.182,-91.5001 187.182,-84.5001"/>
</g>
<!-- Node7 -->
<g id="node7" class="node"><title>Node7</title>
<g id="a_node7"><a xlink:href="class_element.xhtml" target="_top" xlink:title="Element">
<polygon fill="white" stroke="black" points="262.658,-39 262.658,-59 315.342,-59 315.342,-39 262.658,-39"/>
<text text-anchor="middle" x="289" y="-45" font-family="Helvetica,sans-Serif" font-size="10.00">Element</text>
</a>
</g>
</g>
<!-- Node4&#45;&gt;Node7 -->
<g id="edge6" class="edge"><title>Node4&#45;&gt;Node7</title>
<path fill="none" stroke="midnightblue" d="M186.918,-79.3246C209.559,-72.5324 240.748,-63.1756 262.471,-56.6586"/>
<polygon fill="midnightblue" stroke="midnightblue" points="185.754,-76.0195 177.182,-82.2454 187.766,-82.7243 185.754,-76.0195"/>
</g>
<!-- Node9 -->
<g id="node9" class="node"><title>Node9</title>
<g id="a_node9"><a xlink:href="class_stream_output_buffer.xhtml" target="_top" xlink:title="StreamOutputBuffer">
<polygon fill="white" stroke="black" points="236.623,-0 236.623,-20 341.377,-20 341.377,-0 236.623,-0"/>
<text text-anchor="middle" x="289" y="-6" font-family="Helvetica,sans-Serif" font-size="10.00">StreamOutputBuffer</text>
</a>
</g>
</g>
<!-- Node8&#45;&gt;Node9 -->
<g id="edge8" class="edge"><title>Node8&#45;&gt;Node9</title>
<path fill="none" stroke="midnightblue" d="M201.387,-35.9839C218.746,-30.7761 238.426,-24.8721 254.635,-20.0094"/>
<polygon fill="midnightblue" stroke="midnightblue" points="200.051,-32.7306 191.478,-38.9565 202.062,-39.4354 200.051,-32.7306"/>
</g>
</g>
</svg>
