<?xml version="1.0" encoding="UTF-8" standalone="no"?>
<!DOCTYPE svg PUBLIC "-//W3C//DTD SVG 1.1//EN"
 "http://www.w3.org/Graphics/SVG/1.1/DTD/svg11.dtd">
<!-- Generated by graphviz version 2.30.0 (20130114.0426)
 -->
<!-- Title: Graphical Class Hierarchy Pages: 1 -->
<svg width="276pt" height="178pt"
 viewBox="0.00 0.00 276.00 178.00" xmlns="http://www.w3.org/2000/svg" xmlns:xlink="http://www.w3.org/1999/xlink">
<g id="graph0" class="graph" transform="scale(1 1) rotate(0) translate(4 174)">
<title>Graphical Class Hierarchy</title>
<polygon fill="white" stroke="white" points="-4,5 -4,-174 273,-174 273,5 -4,5"/>
<!-- Node1 -->
<g id="node1" class="node"><title>Node1</title>
<polygon fill="white" stroke="#bfbfbf" points="0.152832,-75 0.152832,-95 57.8472,-95 57.8472,-75 0.152832,-75"/>
<text text-anchor="middle" x="29" y="-81" font-family="Helvetica,sans-Serif" font-size="10.00">true_type</text>
</g>
<!-- Node2 -->
<g id="node2" class="node"><title>Node2</title>
<g id="a_node2"><a xlink:href="structstd_1_1is__error__code__enum_3_01e_pub3_1_1future__errc_01_4.xhtml" target="_top" xlink:title="std::is_error_code\l_enum\&lt; ePub3::future\l_errc \&gt;">
<polygon fill="white" stroke="black" points="123.381,-126 123.381,-170 238.619,-170 238.619,-126 123.381,-126"/>
<text text-anchor="start" x="131.381" y="-156" font-family="Helvetica,sans-Serif" font-size="10.00">std::is_error_code</text>
<text text-anchor="start" x="131.381" y="-144" font-family="Helvetica,sans-Serif" font-size="10.00">_enum&lt; ePub3::future</text>
<text text-anchor="middle" x="181" y="-132" font-family="Helvetica,sans-Serif" font-size="10.00">_errc &gt;</text>
</a>
</g>
</g>
<!-- Node1&#45;&gt;Node2 -->
<g id="edge1" class="edge"><title>Node1&#45;&gt;Node2</title>
<path fill="none" stroke="midnightblue" d="M58.7667,-99.652C69.6938,-105.027 82.3207,-111.012 94,-116 103.376,-120.005 113.439,-124.007 123.26,-127.758"/>
<polygon fill="midnightblue" stroke="midnightblue" points="60.1803,-96.4461 49.6681,-95.1257 57.0625,-102.713 60.1803,-96.4461"/>
</g>
<!-- Node3 -->
<g id="node3" class="node"><title>Node3</title>
<g id="a_node3"><a xlink:href="structstd_1_1uses__allocator_3_01_e_p_u_b3___n_a_m_e_s_p_a_c_e_1_1packaged__task_3_01___rp_01_4_00_01___alloc_01_4.xhtml" target="_top" xlink:title="std::uses_allocator\l\&lt; EPUB3_NAMESPACE::packaged\l_task\&lt; _Rp \&gt;, _Alloc \&gt;">
<polygon fill="white" stroke="black" points="94.0229,-63 94.0229,-107 267.977,-107 267.977,-63 94.0229,-63"/>
<text text-anchor="start" x="102.023" y="-93" font-family="Helvetica,sans-Serif" font-size="10.00">std::uses_allocator</text>
<text text-anchor="start" x="102.023" y="-81" font-family="Helvetica,sans-Serif" font-size="10.00">&lt; EPUB3_NAMESPACE::packaged</text>
<text text-anchor="middle" x="181" y="-69" font-family="Helvetica,sans-Serif" font-size="10.00">_task&lt; _Rp &gt;, _Alloc &gt;</text>
</a>
</g>
</g>
<!-- Node1&#45;&gt;Node3 -->
<g id="edge2" class="edge"><title>Node1&#45;&gt;Node3</title>
<path fill="none" stroke="midnightblue" d="M67.9974,-85C76.0768,-85 84.9207,-85 93.984,-85"/>
<polygon fill="midnightblue" stroke="midnightblue" points="67.8623,-81.5001 57.8623,-85 67.8623,-88.5001 67.8623,-81.5001"/>
</g>
<!-- Node4 -->
<g id="node4" class="node"><title>Node4</title>
<g id="a_node4"><a xlink:href="structstd_1_1uses__allocator_3_01_e_p_u_b3___n_a_m_e_s_p_a_c_e_1_1promise_3_01___rp_01_4_00_01___alloc_01_4.xhtml" target="_top" xlink:title="std::uses_allocator\l\&lt; EPUB3_NAMESPACE::promise\l\&lt; _Rp \&gt;, _Alloc \&gt;">
<polygon fill="white" stroke="black" points="97.9243,-0 97.9243,-44 264.076,-44 264.076,-0 97.9243,-0"/>
<text text-anchor="start" x="105.924" y="-30" font-family="Helvetica,sans-Serif" font-size="10.00">std::uses_allocator</text>
<text text-anchor="start" x="105.924" y="-18" font-family="Helvetica,sans-Serif" font-size="10.00">&lt; EPUB3_NAMESPACE::promise</text>
<text text-anchor="middle" x="181" y="-6" font-family="Helvetica,sans-Serif" font-size="10.00">&lt; _Rp &gt;, _Alloc &gt;</text>
</a>
</g>
</g>
<!-- Node1&#45;&gt;Node4 -->
<g id="edge3" class="edge"><title>Node1&#45;&gt;Node4</title>
<path fill="none" stroke="midnightblue" d="M58.7667,-70.348C69.6938,-64.973 82.3207,-58.9882 94,-54 101.911,-50.6212 110.311,-47.2439 118.642,-44.018"/>
<polygon fill="midnightblue" stroke="midnightblue" points="57.0625,-67.2866 49.6681,-74.8743 60.1803,-73.5539 57.0625,-67.2866"/>
</g>
</g>
</svg>
