<?xml version="1.0" encoding="UTF-8" standalone="no"?>
<!DOCTYPE svg PUBLIC "-//W3C//DTD SVG 1.1//EN"
 "http://www.w3.org/Graphics/SVG/1.1/DTD/svg11.dtd">
<!-- Generated by graphviz version 2.30.0 (20130114.0426)
 -->
<!-- Title: Graphical Class Hierarchy Pages: 1 -->
<svg width="206pt" height="142pt"
 viewBox="0.00 0.00 206.00 142.00" xmlns="http://www.w3.org/2000/svg" xmlns:xlink="http://www.w3.org/1999/xlink">
<g id="graph0" class="graph" transform="scale(1 1) rotate(0) translate(4 138)">
<title>Graphical Class Hierarchy</title>
<polygon fill="white" stroke="white" points="-4,5 -4,-138 203,-138 203,5 -4,5"/>
<!-- Node1 -->
<g id="node1" class="node"><title>Node1</title>
<polygon fill="white" stroke="#bfbfbf" points="0.384277,-82 0.384277,-102 33.6157,-102 33.6157,-82 0.384277,-82"/>
<text text-anchor="middle" x="17" y="-88" font-family="Helvetica,sans-Serif" font-size="10.00">_T1</text>
</g>
<!-- Node2 -->
<g id="node2" class="node"><title>Node2</title>
<g id="a_node2"><a xlink:href="class____epub3__compressed__pair__imp_3_01___t1_00_01___t2_00_011_01_4.xhtml" target="_top" xlink:title="__epub3_compressed\l_pair_imp\&lt; _T1, _T2, 1 \&gt;">
<polygon fill="white" stroke="black" points="69.8574,-102 69.8574,-134 198.143,-134 198.143,-102 69.8574,-102"/>
<text text-anchor="start" x="77.8574" y="-120" font-family="Helvetica,sans-Serif" font-size="10.00">__epub3_compressed</text>
<text text-anchor="middle" x="134" y="-108" font-family="Helvetica,sans-Serif" font-size="10.00">_pair_imp&lt; _T1, _T2, 1 &gt;</text>
</a>
</g>
</g>
<!-- Node1&#45;&gt;Node2 -->
<g id="edge1" class="edge"><title>Node1&#45;&gt;Node2</title>
<path fill="none" stroke="#8b1a1a" d="M43.8326,-97.8404C51.6273,-99.6027 60.5502,-101.62 69.6708,-103.682"/>
<polygon fill="#8b1a1a" stroke="#8b1a1a" points="44.5159,-94.4066 33.9903,-95.6152 42.9722,-101.234 44.5159,-94.4066"/>
</g>
<!-- Node3 -->
<g id="node3" class="node"><title>Node3</title>
<g id="a_node3"><a xlink:href="class____epub3__compressed__pair__imp_3_01___t1_00_01___t2_00_013_01_4.xhtml" target="_top" xlink:title="__epub3_compressed\l_pair_imp\&lt; _T1, _T2, 3 \&gt;">
<polygon fill="white" stroke="black" points="69.8574,-51 69.8574,-83 198.143,-83 198.143,-51 69.8574,-51"/>
<text text-anchor="start" x="77.8574" y="-69" font-family="Helvetica,sans-Serif" font-size="10.00">__epub3_compressed</text>
<text text-anchor="middle" x="134" y="-57" font-family="Helvetica,sans-Serif" font-size="10.00">_pair_imp&lt; _T1, _T2, 3 &gt;</text>
</a>
</g>
</g>
<!-- Node1&#45;&gt;Node3 -->
<g id="edge2" class="edge"><title>Node1&#45;&gt;Node3</title>
<path fill="none" stroke="#8b1a1a" d="M43.8326,-86.3842C51.6273,-84.6897 60.5502,-82.75 69.6708,-80.7672"/>
<polygon fill="#8b1a1a" stroke="#8b1a1a" points="43.0185,-82.9794 33.9903,-88.5239 44.5056,-89.8196 43.0185,-82.9794"/>
</g>
<!-- Node4 -->
<g id="node4" class="node"><title>Node4</title>
<polygon fill="white" stroke="#bfbfbf" points="0.384277,-24 0.384277,-44 33.6157,-44 33.6157,-24 0.384277,-24"/>
<text text-anchor="middle" x="17" y="-30" font-family="Helvetica,sans-Serif" font-size="10.00">_T2</text>
</g>
<!-- Node5 -->
<g id="node5" class="node"><title>Node5</title>
<g id="a_node5"><a xlink:href="class____epub3__compressed__pair__imp_3_01___t1_00_01___t2_00_012_01_4.xhtml" target="_top" xlink:title="__epub3_compressed\l_pair_imp\&lt; _T1, _T2, 2 \&gt;">
<polygon fill="white" stroke="black" points="69.8574,-0 69.8574,-32 198.143,-32 198.143,-0 69.8574,-0"/>
<text text-anchor="start" x="77.8574" y="-18" font-family="Helvetica,sans-Serif" font-size="10.00">__epub3_compressed</text>
<text text-anchor="middle" x="134" y="-6" font-family="Helvetica,sans-Serif" font-size="10.00">_pair_imp&lt; _T1, _T2, 2 &gt;</text>
</a>
</g>
</g>
<!-- Node4&#45;&gt;Node5 -->
<g id="edge3" class="edge"><title>Node4&#45;&gt;Node5</title>
<path fill="none" stroke="#8b1a1a" d="M44.0988,-29.915C51.8301,-28.7049 60.6539,-27.3237 69.6708,-25.9124"/>
<polygon fill="#8b1a1a" stroke="#8b1a1a" points="43.3287,-26.4928 33.9903,-31.4972 44.4112,-33.4086 43.3287,-26.4928"/>
</g>
<!-- Node4&#45;&gt;Node3 -->
<g id="edge4" class="edge"><title>Node4&#45;&gt;Node3</title>
<path fill="none" stroke="#8b1a1a" d="M43.6135,-41.3499C53.5753,-44.2086 65.4044,-47.603 77.1423,-50.9713"/>
<polygon fill="#8b1a1a" stroke="#8b1a1a" points="44.5678,-37.9826 33.9903,-38.5885 42.6369,-44.7111 44.5678,-37.9826"/>
</g>
</g>
</svg>
