<?xml version="1.0" encoding="UTF-8" standalone="no"?>
<!DOCTYPE svg PUBLIC "-//W3C//DTD SVG 1.1//EN"
 "http://www.w3.org/Graphics/SVG/1.1/DTD/svg11.dtd">
<!-- Generated by graphviz version 2.30.0 (20130114.0426)
 -->
<!-- Title: Graphical Class Hierarchy Pages: 1 -->
<svg width="250pt" height="52pt"
 viewBox="0.00 0.00 250.00 52.00" xmlns="http://www.w3.org/2000/svg" xmlns:xlink="http://www.w3.org/1999/xlink">
<g id="graph0" class="graph" transform="scale(1 1) rotate(0) translate(4 48)">
<title>Graphical Class Hierarchy</title>
<polygon fill="white" stroke="white" points="-4,5 -4,-48 247,-48 247,5 -4,5"/>
<!-- Node1 -->
<g id="node1" class="node"><title>Node1</title>
<polygon fill="white" stroke="#bfbfbf" points="0.199707,-12 0.199707,-32 81.8003,-32 81.8003,-12 0.199707,-12"/>
<text text-anchor="middle" x="41" y="-18" font-family="Helvetica,sans-Serif" font-size="10.00">unary_function</text>
</g>
<!-- Node2 -->
<g id="node2" class="node"><title>Node2</title>
<g id="a_node2"><a xlink:href="structstd_1_1hash_3_01e_pub3_1_1basic__string__view_3_01___char_t_00_01___traits_01_4_01_4.xhtml" target="_top" xlink:title="std::hash\&lt; ePub3::basic\l_string_view\&lt; _CharT,\l _Traits \&gt; \&gt;">
<polygon fill="white" stroke="black" points="118.492,-0 118.492,-44 241.508,-44 241.508,-0 118.492,-0"/>
<text text-anchor="start" x="126.492" y="-30" font-family="Helvetica,sans-Serif" font-size="10.00">std::hash&lt; ePub3::basic</text>
<text text-anchor="start" x="126.492" y="-18" font-family="Helvetica,sans-Serif" font-size="10.00">_string_view&lt; _CharT,</text>
<text text-anchor="middle" x="180" y="-6" font-family="Helvetica,sans-Serif" font-size="10.00"> _Traits &gt; &gt;</text>
</a>
</g>
</g>
<!-- Node1&#45;&gt;Node2 -->
<g id="edge1" class="edge"><title>Node1&#45;&gt;Node2</title>
<path fill="none" stroke="midnightblue" d="M92.1377,-22C100.652,-22 109.574,-22 118.324,-22"/>
<polygon fill="midnightblue" stroke="midnightblue" points="91.9944,-18.5001 81.9944,-22 91.9943,-25.5001 91.9944,-18.5001"/>
</g>
</g>
</svg>
