<?xml version="1.0" encoding="UTF-8" standalone="no"?>
<!DOCTYPE svg PUBLIC "-//W3C//DTD SVG 1.1//EN"
 "http://www.w3.org/Graphics/SVG/1.1/DTD/svg11.dtd">
<!-- Generated by graphviz version 2.30.0 (20130114.0426)
 -->
<!-- Title: Graphical Class Hierarchy Pages: 1 -->
<svg width="236pt" height="130pt"
 viewBox="0.00 0.00 236.00 130.00" xmlns="http://www.w3.org/2000/svg" xmlns:xlink="http://www.w3.org/1999/xlink">
<g id="graph0" class="graph" transform="scale(1 1) rotate(0) translate(4 126)">
<title>Graphical Class Hierarchy</title>
<polygon fill="white" stroke="white" points="-4,5 -4,-126 233,-126 233,5 -4,5"/>
<!-- Node1 -->
<g id="node1" class="node"><title>Node1</title>
<polygon fill="white" stroke="#bfbfbf" points="0.207031,-51 0.207031,-71 61.793,-71 61.793,-51 0.207031,-51"/>
<text text-anchor="middle" x="31" y="-57" font-family="Helvetica,sans-Serif" font-size="10.00">false_type</text>
</g>
<!-- Node2 -->
<g id="node2" class="node"><title>Node2</title>
<g id="a_node2"><a xlink:href="struct____is__nothrow__swappable.xhtml" target="_top" xlink:title="__is_nothrow_swappable\l\&lt; _Tp \&gt;">
<polygon fill="white" stroke="black" points="98.5718,-90 98.5718,-122 227.428,-122 227.428,-90 98.5718,-90"/>
<text text-anchor="start" x="106.572" y="-108" font-family="Helvetica,sans-Serif" font-size="10.00">__is_nothrow_swappable</text>
<text text-anchor="middle" x="163" y="-96" font-family="Helvetica,sans-Serif" font-size="10.00">&lt; _Tp &gt;</text>
</a>
</g>
</g>
<!-- Node1&#45;&gt;Node2 -->
<g id="edge1" class="edge"><title>Node1&#45;&gt;Node2</title>
<path fill="none" stroke="midnightblue" d="M70.9973,-74.4991C85.0214,-79.3536 100.979,-84.8774 115.573,-89.9292"/>
<polygon fill="midnightblue" stroke="midnightblue" points="71.7693,-71.0626 61.1745,-71.0989 69.4795,-77.6775 71.7693,-71.0626"/>
</g>
<!-- Node3 -->
<g id="node3" class="node"><title>Node3</title>
<g id="a_node3"><a xlink:href="structis__future__type.xhtml" target="_top" xlink:title="is_future_type\&lt; _Tp \&gt;">
<polygon fill="white" stroke="black" points="106.357,-51 106.357,-71 219.643,-71 219.643,-51 106.357,-51"/>
<text text-anchor="middle" x="163" y="-57" font-family="Helvetica,sans-Serif" font-size="10.00">is_future_type&lt; _Tp &gt;</text>
</a>
</g>
</g>
<!-- Node1&#45;&gt;Node3 -->
<g id="edge2" class="edge"><title>Node1&#45;&gt;Node3</title>
<path fill="none" stroke="midnightblue" d="M71.848,-61C82.7078,-61 94.6751,-61 106.244,-61"/>
<polygon fill="midnightblue" stroke="midnightblue" points="71.8247,-57.5001 61.8246,-61 71.8246,-64.5001 71.8247,-57.5001"/>
</g>
<!-- Node4 -->
<g id="node4" class="node"><title>Node4</title>
<g id="a_node4"><a xlink:href="structis__not__optional_3_01optional_3_01___tp_01_4_01_4.xhtml" target="_top" xlink:title="is_not_optional\&lt; optional\l\&lt; _Tp \&gt; \&gt;">
<polygon fill="white" stroke="black" points="99.5386,-0 99.5386,-32 226.461,-32 226.461,-0 99.5386,-0"/>
<text text-anchor="start" x="107.539" y="-18" font-family="Helvetica,sans-Serif" font-size="10.00">is_not_optional&lt; optional</text>
<text text-anchor="middle" x="163" y="-6" font-family="Helvetica,sans-Serif" font-size="10.00">&lt; _Tp &gt; &gt;</text>
</a>
</g>
</g>
<!-- Node1&#45;&gt;Node4 -->
<g id="edge3" class="edge"><title>Node1&#45;&gt;Node4</title>
<path fill="none" stroke="midnightblue" d="M70.9973,-47.5009C85.0214,-42.6464 100.979,-37.1226 115.573,-32.0708"/>
<polygon fill="midnightblue" stroke="midnightblue" points="69.4795,-44.3225 61.1745,-50.9011 71.7693,-50.9374 69.4795,-44.3225"/>
</g>
</g>
</svg>
