<?xml version="1.0" encoding="UTF-8" standalone="no"?>
<!DOCTYPE svg PUBLIC "-//W3C//DTD SVG 1.1//EN"
 "http://www.w3.org/Graphics/SVG/1.1/DTD/svg11.dtd">
<!-- Generated by graphviz version 2.30.0 (20130114.0426)
 -->
<!-- Title: Graphical Class Hierarchy Pages: 1 -->
<svg width="324pt" height="106pt"
 viewBox="0.00 0.00 324.00 106.00" xmlns="http://www.w3.org/2000/svg" xmlns:xlink="http://www.w3.org/1999/xlink">
<g id="graph0" class="graph" transform="scale(1 1) rotate(0) translate(4 102)">
<title>Graphical Class Hierarchy</title>
<polygon fill="white" stroke="white" points="-4,5 -4,-102 321,-102 321,5 -4,5"/>
<!-- Node1 -->
<g id="node1" class="node"><title>Node1</title>
<polygon fill="white" stroke="#bfbfbf" points="0.596191,-39 0.596191,-59 59.4038,-59 59.4038,-39 0.596191,-39"/>
<text text-anchor="middle" x="30" y="-45" font-family="Helvetica,sans-Serif" font-size="10.00">exception</text>
</g>
<!-- Node2 -->
<g id="node2" class="node"><title>Node2</title>
<g id="a_node2"><a xlink:href="classxml_1_1exception.xhtml" target="_top" xlink:title="xml::exception">
<polygon fill="white" stroke="black" points="96.042,-39 96.042,-59 175.958,-59 175.958,-39 96.042,-39"/>
<text text-anchor="middle" x="136" y="-45" font-family="Helvetica,sans-Serif" font-size="10.00">xml::exception</text>
</a>
</g>
</g>
<!-- Node1&#45;&gt;Node2 -->
<g id="edge1" class="edge"><title>Node1&#45;&gt;Node2</title>
<path fill="none" stroke="midnightblue" d="M69.5141,-49C78.0586,-49 87.1251,-49 95.7006,-49"/>
<polygon fill="midnightblue" stroke="midnightblue" points="69.4185,-45.5001 59.4185,-49 69.4184,-52.5001 69.4185,-45.5001"/>
</g>
<!-- Node3 -->
<g id="node3" class="node"><title>Node3</title>
<g id="a_node3"><a xlink:href="classxml_1_1_internal_error.xhtml" target="_top" xlink:title="xml::InternalError">
<polygon fill="white" stroke="black" points="217.658,-78 217.658,-98 310.342,-98 310.342,-78 217.658,-78"/>
<text text-anchor="middle" x="264" y="-84" font-family="Helvetica,sans-Serif" font-size="10.00">xml::InternalError</text>
</a>
</g>
</g>
<!-- Node2&#45;&gt;Node3 -->
<g id="edge2" class="edge"><title>Node2&#45;&gt;Node3</title>
<path fill="none" stroke="midnightblue" d="M179.052,-62.0161C195.877,-67.2239 214.952,-73.1279 230.662,-77.9906"/>
<polygon fill="midnightblue" stroke="midnightblue" points="180.036,-58.6569 169.448,-59.0435 177.966,-65.3439 180.036,-58.6569"/>
</g>
<!-- Node4 -->
<g id="node4" class="node"><title>Node4</title>
<g id="a_node4"><a xlink:href="classxml_1_1_parser_error.xhtml" target="_top" xlink:title="xml::ParserError">
<polygon fill="white" stroke="black" points="219.608,-39 219.608,-59 308.392,-59 308.392,-39 219.608,-39"/>
<text text-anchor="middle" x="264" y="-45" font-family="Helvetica,sans-Serif" font-size="10.00">xml::ParserError</text>
</a>
</g>
</g>
<!-- Node2&#45;&gt;Node4 -->
<g id="edge3" class="edge"><title>Node2&#45;&gt;Node4</title>
<path fill="none" stroke="midnightblue" d="M186.415,-49C197.324,-49 208.803,-49 219.459,-49"/>
<polygon fill="midnightblue" stroke="midnightblue" points="186.177,-45.5001 176.177,-49 186.176,-52.5001 186.177,-45.5001"/>
</g>
<!-- Node5 -->
<g id="node5" class="node"><title>Node5</title>
<g id="a_node5"><a xlink:href="classxml_1_1_validation_error.xhtml" target="_top" xlink:title="xml::ValidationError">
<polygon fill="white" stroke="black" points="212.743,-0 212.743,-20 315.257,-20 315.257,-0 212.743,-0"/>
<text text-anchor="middle" x="264" y="-6" font-family="Helvetica,sans-Serif" font-size="10.00">xml::ValidationError</text>
</a>
</g>
</g>
<!-- Node2&#45;&gt;Node5 -->
<g id="edge4" class="edge"><title>Node2&#45;&gt;Node5</title>
<path fill="none" stroke="midnightblue" d="M179.052,-35.9839C195.877,-30.7761 214.952,-24.8721 230.662,-20.0094"/>
<polygon fill="midnightblue" stroke="midnightblue" points="177.966,-32.6561 169.448,-38.9565 180.036,-39.3431 177.966,-32.6561"/>
</g>
</g>
</svg>
