<?xml version="1.0" encoding="UTF-8" standalone="no"?>
<!DOCTYPE svg PUBLIC "-//W3C//DTD SVG 1.1//EN"
 "http://www.w3.org/Graphics/SVG/1.1/DTD/svg11.dtd">
<!-- Generated by graphviz version 2.30.0 (20130114.0426)
 -->
<!-- Title: Graphical Class Hierarchy Pages: 1 -->
<svg width="222pt" height="130pt"
 viewBox="0.00 0.00 222.00 130.00" xmlns="http://www.w3.org/2000/svg" xmlns:xlink="http://www.w3.org/1999/xlink">
<g id="graph0" class="graph" transform="scale(1 1) rotate(0) translate(4 126)">
<title>Graphical Class Hierarchy</title>
<polygon fill="white" stroke="white" points="-4,5 -4,-126 219,-126 219,5 -4,5"/>
<!-- Node1 -->
<g id="node1" class="node"><title>Node1</title>
<polygon fill="white" stroke="#bfbfbf" points="0.152832,-45 0.152832,-65 57.8472,-65 57.8472,-45 0.152832,-45"/>
<text text-anchor="middle" x="29" y="-51" font-family="Helvetica,sans-Serif" font-size="10.00">true_type</text>
</g>
<!-- Node2 -->
<g id="node2" class="node"><title>Node2</title>
<g id="a_node2"><a xlink:href="structis__future__type_3_01future_3_01___tp_01_4_01_4.xhtml" target="_top" xlink:title="is_future_type\&lt; future\l\&lt; _Tp \&gt; \&gt;">
<polygon fill="white" stroke="black" points="97.4966,-90 97.4966,-122 210.503,-122 210.503,-90 97.4966,-90"/>
<text text-anchor="start" x="105.497" y="-108" font-family="Helvetica,sans-Serif" font-size="10.00">is_future_type&lt; future</text>
<text text-anchor="middle" x="154" y="-96" font-family="Helvetica,sans-Serif" font-size="10.00">&lt; _Tp &gt; &gt;</text>
</a>
</g>
</g>
<!-- Node1&#45;&gt;Node2 -->
<g id="edge1" class="edge"><title>Node1&#45;&gt;Node2</title>
<path fill="none" stroke="midnightblue" d="M63.6034,-68.9331C79.2582,-75.4241 97.9731,-83.184 114.224,-89.9223"/>
<polygon fill="midnightblue" stroke="midnightblue" points="64.8788,-65.6731 54.3008,-65.076 62.1977,-72.1393 64.8788,-65.6731"/>
</g>
<!-- Node3 -->
<g id="node3" class="node"><title>Node3</title>
<g id="a_node3"><a xlink:href="structis__future__type_3_01shared__future_3_01___tp_01_4_01_4.xhtml" target="_top" xlink:title="is_future_type\&lt; shared\l_future\&lt; _Tp \&gt; \&gt;">
<polygon fill="white" stroke="black" points="94.9941,-39 94.9941,-71 213.006,-71 213.006,-39 94.9941,-39"/>
<text text-anchor="start" x="102.994" y="-57" font-family="Helvetica,sans-Serif" font-size="10.00">is_future_type&lt; shared</text>
<text text-anchor="middle" x="154" y="-45" font-family="Helvetica,sans-Serif" font-size="10.00">_future&lt; _Tp &gt; &gt;</text>
</a>
</g>
</g>
<!-- Node1&#45;&gt;Node3 -->
<g id="edge2" class="edge"><title>Node1&#45;&gt;Node3</title>
<path fill="none" stroke="midnightblue" d="M68.1127,-55C76.5006,-55 85.5706,-55 94.5534,-55"/>
<polygon fill="midnightblue" stroke="midnightblue" points="67.9106,-51.5001 57.9106,-55 67.9106,-58.5001 67.9106,-51.5001"/>
</g>
<!-- Node4 -->
<g id="node4" class="node"><title>Node4</title>
<g id="a_node4"><a xlink:href="structis__not__optional.xhtml" target="_top" xlink:title="is_not_optional\&lt; _Up \&gt;">
<polygon fill="white" stroke="black" points="94.5718,-0 94.5718,-20 213.428,-20 213.428,-0 94.5718,-0"/>
<text text-anchor="middle" x="154" y="-6" font-family="Helvetica,sans-Serif" font-size="10.00">is_not_optional&lt; _Up &gt;</text>
</a>
</g>
</g>
<!-- Node1&#45;&gt;Node4 -->
<g id="edge3" class="edge"><title>Node1&#45;&gt;Node4</title>
<path fill="none" stroke="midnightblue" d="M64.4029,-41.2294C73.9541,-37.497 84.3514,-33.5178 94,-30 103.247,-26.6287 113.375,-23.1271 122.589,-20.0137"/>
<polygon fill="midnightblue" stroke="midnightblue" points="62.8462,-38.0807 54.8228,-44.9999 65.4098,-44.5944 62.8462,-38.0807"/>
</g>
</g>
</svg>
