<?xml version="1.0" encoding="UTF-8" standalone="no"?>
<!DOCTYPE svg PUBLIC "-//W3C//DTD SVG 1.1//EN"
 "http://www.w3.org/Graphics/SVG/1.1/DTD/svg11.dtd">
<!-- Generated by graphviz version 2.30.0 (20130114.0426)
 -->
<!-- Title: Graphical Class Hierarchy Pages: 1 -->
<svg width="276pt" height="40pt"
 viewBox="0.00 0.00 276.00 40.00" xmlns="http://www.w3.org/2000/svg" xmlns:xlink="http://www.w3.org/1999/xlink">
<g id="graph0" class="graph" transform="scale(1 1) rotate(0) translate(4 36)">
<title>Graphical Class Hierarchy</title>
<polygon fill="white" stroke="white" points="-4,5 -4,-36 273,-36 273,5 -4,5"/>
<!-- Node1 -->
<g id="node1" class="node"><title>Node1</title>
<g id="a_node1"><a xlink:href="struct____task__base__shared__state.xhtml" target="_top" xlink:title="__task_base_shared\l_state\&lt; void(_Args...)\&gt;">
<polygon fill="white" stroke="black" points="0.418945,-0 0.418945,-32 117.581,-32 117.581,-0 0.418945,-0"/>
<text text-anchor="start" x="8.41895" y="-18" font-family="Helvetica,sans-Serif" font-size="10.00">__task_base_shared</text>
<text text-anchor="middle" x="59" y="-6" font-family="Helvetica,sans-Serif" font-size="10.00">_state&lt; void(_Args...)&gt;</text>
</a>
</g>
</g>
<!-- Node2 -->
<g id="node2" class="node"><title>Node2</title>
<g id="a_node2"><a xlink:href="struct____task__shared__state_3_01___fp_00_01void_07___args_8_8_8_08_4.xhtml" target="_top" xlink:title="__task_shared_state\l\&lt; _Fp, void(_Args...)\&gt;">
<polygon fill="white" stroke="black" points="154.646,-0 154.646,-32 267.354,-32 267.354,-0 154.646,-0"/>
<text text-anchor="start" x="162.646" y="-18" font-family="Helvetica,sans-Serif" font-size="10.00">__task_shared_state</text>
<text text-anchor="middle" x="211" y="-6" font-family="Helvetica,sans-Serif" font-size="10.00">&lt; _Fp, void(_Args...)&gt;</text>
</a>
</g>
</g>
<!-- Node1&#45;&gt;Node2 -->
<g id="edge1" class="edge"><title>Node1&#45;&gt;Node2</title>
<path fill="none" stroke="midnightblue" d="M128.266,-16C137.091,-16 146.042,-16 154.623,-16"/>
<polygon fill="midnightblue" stroke="midnightblue" points="127.994,-12.5001 117.994,-16 127.994,-19.5001 127.994,-12.5001"/>
</g>
</g>
</svg>
