<?xml version="1.0" encoding="UTF-8" standalone="no"?>
<!DOCTYPE svg PUBLIC "-//W3C//DTD SVG 1.1//EN"
 "http://www.w3.org/Graphics/SVG/1.1/DTD/svg11.dtd">
<!-- Generated by graphviz version 2.30.0 (20130114.0426)
 -->
<!-- Title: Graphical Class Hierarchy Pages: 1 -->
<svg width="258pt" height="79pt"
 viewBox="0.00 0.00 258.00 79.00" xmlns="http://www.w3.org/2000/svg" xmlns:xlink="http://www.w3.org/1999/xlink">
<g id="graph0" class="graph" transform="scale(1 1) rotate(0) translate(4 75)">
<title>Graphical Class Hierarchy</title>
<polygon fill="white" stroke="white" points="-4,5 -4,-75 255,-75 255,5 -4,5"/>
<!-- Node1 -->
<g id="node1" class="node"><title>Node1</title>
<polygon fill="white" stroke="#bfbfbf" points="-0.0810547,-22 -0.0810547,-42 92.0811,-42 92.0811,-22 -0.0810547,-22"/>
<text text-anchor="middle" x="46" y="-28" font-family="Helvetica,sans-Serif" font-size="10.00">integral_constant</text>
</g>
<!-- Node2 -->
<g id="node2" class="node"><title>Node2</title>
<g id="a_node2"><a xlink:href="struct____invokable.xhtml" target="_top" xlink:title="__invokable\&lt; _Fp, \l_Args \&gt;">
<polygon fill="white" stroke="black" points="138.61,-39 138.61,-71 239.39,-71 239.39,-39 138.61,-39"/>
<text text-anchor="start" x="146.61" y="-57" font-family="Helvetica,sans-Serif" font-size="10.00">__invokable&lt; _Fp, </text>
<text text-anchor="middle" x="189" y="-45" font-family="Helvetica,sans-Serif" font-size="10.00">_Args &gt;</text>
</a>
</g>
</g>
<!-- Node1&#45;&gt;Node2 -->
<g id="edge1" class="edge"><title>Node1&#45;&gt;Node2</title>
<path fill="none" stroke="midnightblue" d="M102.569,-41.0645C114.364,-42.9885 126.744,-45.0079 138.304,-46.8936"/>
<polygon fill="midnightblue" stroke="midnightblue" points="102.822,-37.5596 92.3894,-39.4039 101.695,-44.4683 102.822,-37.5596"/>
</g>
<!-- Node3 -->
<g id="node3" class="node"><title>Node3</title>
<g id="a_node3"><a xlink:href="struct____is__swappable.xhtml" target="_top" xlink:title="__is_swappable\&lt; _Tp \&gt;">
<polygon fill="white" stroke="black" points="127.907,-0 127.907,-20 250.093,-20 250.093,-0 127.907,-0"/>
<text text-anchor="middle" x="189" y="-6" font-family="Helvetica,sans-Serif" font-size="10.00">__is_swappable&lt; _Tp &gt;</text>
</a>
</g>
</g>
<!-- Node1&#45;&gt;Node3 -->
<g id="edge2" class="edge"><title>Node1&#45;&gt;Node3</title>
<path fill="none" stroke="midnightblue" d="M102.377,-23.3596C110.712,-22.0591 119.344,-20.7123 127.775,-19.3968"/>
<polygon fill="midnightblue" stroke="midnightblue" points="101.73,-19.9181 92.3894,-24.918 102.809,-26.8344 101.73,-19.9181"/>
</g>
</g>
</svg>
