<?xml version="1.0" encoding="UTF-8" standalone="no"?>
<!DOCTYPE svg PUBLIC "-//W3C//DTD SVG 1.1//EN"
 "http://www.w3.org/Graphics/SVG/1.1/DTD/svg11.dtd">
<!-- Generated by graphviz version 2.30.0 (20130114.0426)
 -->
<!-- Title: Graphical Class Hierarchy Pages: 1 -->
<svg width="282pt" height="52pt"
 viewBox="0.00 0.00 282.00 52.00" xmlns="http://www.w3.org/2000/svg" xmlns:xlink="http://www.w3.org/1999/xlink">
<g id="graph0" class="graph" transform="scale(1 1) rotate(0) translate(4 48)">
<title>Graphical Class Hierarchy</title>
<polygon fill="white" stroke="white" points="-4,5 -4,-48 279,-48 279,5 -4,5"/>
<!-- Node1 -->
<g id="node1" class="node"><title>Node1</title>
<g id="a_node1"><a xlink:href="struct____invoke__of__imp.xhtml" target="_top" xlink:title="__invoke_of_imp\&lt; _\l_invokable\&lt; _Fp, _Args...\&gt;\l::value, _Fp, _Args...\&gt;">
<polygon fill="white" stroke="black" points="0.241699,-0 0.241699,-44 135.758,-44 135.758,-0 0.241699,-0"/>
<text text-anchor="start" x="8.2417" y="-30" font-family="Helvetica,sans-Serif" font-size="10.00">__invoke_of_imp&lt; _</text>
<text text-anchor="start" x="8.2417" y="-18" font-family="Helvetica,sans-Serif" font-size="10.00">_invokable&lt; _Fp, _Args...&gt;</text>
<text text-anchor="middle" x="68" y="-6" font-family="Helvetica,sans-Serif" font-size="10.00">::value, _Fp, _Args...&gt;</text>
</a>
</g>
</g>
<!-- Node2 -->
<g id="node2" class="node"><title>Node2</title>
<g id="a_node2"><a xlink:href="struct____invoke__of.xhtml" target="_top" xlink:title="__invoke_of\&lt; _Fp, \l_Args \&gt;">
<polygon fill="white" stroke="black" points="172.332,-6 172.332,-38 273.668,-38 273.668,-6 172.332,-6"/>
<text text-anchor="start" x="180.332" y="-24" font-family="Helvetica,sans-Serif" font-size="10.00">__invoke_of&lt; _Fp, </text>
<text text-anchor="middle" x="223" y="-12" font-family="Helvetica,sans-Serif" font-size="10.00">_Args &gt;</text>
</a>
</g>
</g>
<!-- Node1&#45;&gt;Node2 -->
<g id="edge1" class="edge"><title>Node1&#45;&gt;Node2</title>
<path fill="none" stroke="midnightblue" d="M146.318,-22C155.032,-22 163.733,-22 171.967,-22"/>
<polygon fill="midnightblue" stroke="midnightblue" points="146.108,-18.5001 136.108,-22 146.108,-25.5001 146.108,-18.5001"/>
</g>
</g>
</svg>
