<?xml version="1.0" encoding="UTF-8" standalone="no"?>
<!DOCTYPE svg PUBLIC "-//W3C//DTD SVG 1.1//EN"
 "http://www.w3.org/Graphics/SVG/1.1/DTD/svg11.dtd">
<!-- Generated by graphviz version 2.30.0 (20130114.0426)
 -->
<!-- Title: /Users/rkwright/Documents/github/readium&#45;sdk&#45;D/ePub3/ePub/initialization.cpp Pages: 1 -->
<svg width="1017pt" height="182pt"
 viewBox="0.00 0.00 1017.00 182.00" xmlns="http://www.w3.org/2000/svg" xmlns:xlink="http://www.w3.org/1999/xlink">
<g id="graph0" class="graph" transform="scale(1 1) rotate(0) translate(4 178)">
<title>/Users/rkwright/Documents/github/readium&#45;sdk&#45;D/ePub3/ePub/initialization.cpp</title>
<polygon fill="white" stroke="white" points="-4,5 -4,-178 1014,-178 1014,5 -4,5"/>
<!-- Node1 -->
<g id="node1" class="node"><title>Node1</title>
<polygon fill="#bfbfbf" stroke="black" points="316.966,-129 316.966,-173 463.034,-173 463.034,-129 316.966,-129"/>
<text text-anchor="start" x="324.966" y="-159" font-family="Helvetica,sans-Serif" font-size="10.00">/Users/rkwright/Documents</text>
<text text-anchor="start" x="324.966" y="-147" font-family="Helvetica,sans-Serif" font-size="10.00">/github/readium&#45;sdk&#45;D/ePub3</text>
<text text-anchor="middle" x="390" y="-135" font-family="Helvetica,sans-Serif" font-size="10.00">/ePub/initialization.cpp</text>
</g>
<!-- Node2 -->
<g id="node2" class="node"><title>Node2</title>
<g id="a_node2"><a xlink:href="initialization_8h.xhtml" target="_top" xlink:title="initialization.h">
<polygon fill="white" stroke="black" points="2.98291,-65 2.98291,-85 79.0171,-85 79.0171,-65 2.98291,-65"/>
<text text-anchor="middle" x="41" y="-71" font-family="Helvetica,sans-Serif" font-size="10.00">initialization.h</text>
</a>
</g>
</g>
<!-- Node1&#45;&gt;Node2 -->
<g id="edge1" class="edge"><title>Node1&#45;&gt;Node2</title>
<path fill="none" stroke="midnightblue" d="M316.747,-138.849C255.189,-128.784 165.155,-112.437 88,-92 83.8755,-90.9075 79.5889,-89.6393 75.3569,-88.3042"/>
<polygon fill="midnightblue" stroke="midnightblue" points="76.2767,-84.9223 65.6837,-85.1186 74.0871,-91.571 76.2767,-84.9223"/>
</g>
<!-- Node4 -->
<g id="node4" class="node"><title>Node4</title>
<polygon fill="white" stroke="#bfbfbf" points="97.3843,-65 97.3843,-85 140.616,-85 140.616,-65 97.3843,-65"/>
<text text-anchor="middle" x="119" y="-71" font-family="Helvetica,sans-Serif" font-size="10.00">mutex</text>
</g>
<!-- Node1&#45;&gt;Node4 -->
<g id="edge3" class="edge"><title>Node1&#45;&gt;Node4</title>
<path fill="none" stroke="midnightblue" d="M316.711,-137.03C268.474,-127.347 204.426,-112.287 150,-92 148.085,-91.2861 146.136,-90.4823 144.195,-89.6247"/>
<polygon fill="midnightblue" stroke="midnightblue" points="145.283,-86.2629 134.757,-85.0563 142.233,-92.5636 145.283,-86.2629"/>
</g>
<!-- Node5 -->
<g id="node5" class="node"><title>Node5</title>
<polygon fill="white" stroke="#bfbfbf" points="158.865,-65 158.865,-85 247.135,-85 247.135,-65 158.865,-65"/>
<text text-anchor="middle" x="203" y="-71" font-family="Helvetica,sans-Serif" font-size="10.00">ePub3/archive.h</text>
</g>
<!-- Node1&#45;&gt;Node5 -->
<g id="edge4" class="edge"><title>Node1&#45;&gt;Node5</title>
<path fill="none" stroke="midnightblue" d="M336.914,-128.993C304.073,-115.997 262.995,-99.7413 235.055,-88.6847"/>
<polygon fill="midnightblue" stroke="midnightblue" points="236.341,-85.4297 225.755,-85.0045 233.765,-91.9386 236.341,-85.4297"/>
</g>
<!-- Node6 -->
<g id="node6" class="node"><title>Node6</title>
<polygon fill="white" stroke="#bfbfbf" points="265.192,-59 265.192,-91 376.808,-91 376.808,-59 265.192,-59"/>
<text text-anchor="start" x="273.192" y="-77" font-family="Helvetica,sans-Serif" font-size="10.00">ePub3/filter_manager</text>
<text text-anchor="middle" x="321" y="-65" font-family="Helvetica,sans-Serif" font-size="10.00">_impl.h</text>
</g>
<!-- Node1&#45;&gt;Node6 -->
<g id="edge5" class="edge"><title>Node1&#45;&gt;Node6</title>
<path fill="none" stroke="midnightblue" d="M370.412,-128.993C361.609,-119.552 351.203,-108.391 342.216,-98.7529"/>
<polygon fill="midnightblue" stroke="midnightblue" points="344.75,-96.3385 335.37,-91.4115 339.63,-101.112 344.75,-96.3385"/>
</g>
<!-- Node7 -->
<g id="node7" class="node"><title>Node7</title>
<polygon fill="white" stroke="#bfbfbf" points="395.289,-65 395.289,-85 524.711,-85 524.711,-65 395.289,-65"/>
<text text-anchor="middle" x="460" y="-71" font-family="Helvetica,sans-Serif" font-size="10.00">ePub3/font_obfuscation.h</text>
</g>
<!-- Node1&#45;&gt;Node7 -->
<g id="edge6" class="edge"><title>Node1&#45;&gt;Node7</title>
<path fill="none" stroke="midnightblue" d="M409.872,-128.993C420.823,-117.415 434.221,-103.252 444.41,-92.4807"/>
<polygon fill="midnightblue" stroke="midnightblue" points="447.153,-94.6744 451.482,-85.0045 442.068,-89.864 447.153,-94.6744"/>
</g>
<!-- Node8 -->
<g id="node8" class="node"><title>Node8</title>
<polygon fill="white" stroke="#bfbfbf" points="542.404,-65 542.404,-85 689.596,-85 689.596,-65 542.404,-65"/>
<text text-anchor="middle" x="616" y="-71" font-family="Helvetica,sans-Serif" font-size="10.00">ePub3/switch_preprocessor.h</text>
</g>
<!-- Node1&#45;&gt;Node8 -->
<g id="edge7" class="edge"><title>Node1&#45;&gt;Node8</title>
<path fill="none" stroke="midnightblue" d="M454.158,-128.993C494.368,-115.826 544.795,-99.3148 578.579,-88.2528"/>
<polygon fill="midnightblue" stroke="midnightblue" points="580.085,-91.4426 588.5,-85.0045 577.907,-84.7901 580.085,-91.4426"/>
</g>
<!-- Node9 -->
<g id="node9" class="node"><title>Node9</title>
<polygon fill="white" stroke="#bfbfbf" points="707.954,-65 707.954,-85 854.046,-85 854.046,-65 707.954,-65"/>
<text text-anchor="middle" x="781" y="-71" font-family="Helvetica,sans-Serif" font-size="10.00">ePub3/object_preprocessor.h</text>
</g>
<!-- Node1&#45;&gt;Node9 -->
<g id="edge8" class="edge"><title>Node1&#45;&gt;Node9</title>
<path fill="none" stroke="midnightblue" d="M463.138,-136.319C525.555,-124.621 617.691,-107.302 698,-92 706.589,-90.3635 715.675,-88.6222 724.562,-86.9134"/>
<polygon fill="midnightblue" stroke="midnightblue" points="725.317,-90.3325 734.475,-85.0053 723.993,-83.4587 725.317,-90.3325"/>
</g>
<!-- Node10 -->
<g id="node10" class="node"><title>Node10</title>
<polygon fill="white" stroke="#bfbfbf" points="872.407,-65 872.407,-85 1009.59,-85 1009.59,-65 872.407,-65"/>
<text text-anchor="middle" x="941" y="-71" font-family="Helvetica,sans-Serif" font-size="10.00">ePub3/PassThroughFilter.h</text>
</g>
<!-- Node1&#45;&gt;Node10 -->
<g id="edge9" class="edge"><title>Node1&#45;&gt;Node10</title>
<path fill="none" stroke="midnightblue" d="M463.186,-142.868C556.36,-133.366 722.158,-115.042 863,-92 871.822,-90.5567 881.163,-88.8217 890.2,-87.0345"/>
<polygon fill="midnightblue" stroke="midnightblue" points="891.12,-90.4193 900.228,-85.0071 889.733,-83.5581 891.12,-90.4193"/>
</g>
<!-- Node3 -->
<g id="node3" class="node"><title>Node3</title>
<polygon fill="white" stroke="#bfbfbf" points="-0.920898,-1 -0.920898,-21 82.9209,-21 82.9209,-1 -0.920898,-1"/>
<text text-anchor="middle" x="41" y="-7" font-family="Helvetica,sans-Serif" font-size="10.00">ePub3/epub3.h</text>
</g>
<!-- Node2&#45;&gt;Node3 -->
<g id="edge2" class="edge"><title>Node2&#45;&gt;Node3</title>
<path fill="none" stroke="midnightblue" d="M41,-64.8517C41,-56.0601 41,-42.4977 41,-31.3131"/>
<polygon fill="midnightblue" stroke="midnightblue" points="44.5001,-31.1858 41,-21.1858 37.5001,-31.1859 44.5001,-31.1858"/>
</g>
</g>
</svg>
