<?xml version="1.0" encoding="UTF-8" standalone="no"?>
<!DOCTYPE svg PUBLIC "-//W3C//DTD SVG 1.1//EN"
 "http://www.w3.org/Graphics/SVG/1.1/DTD/svg11.dtd">
<!-- Generated by graphviz version 2.30.0 (20130114.0426)
 -->
<!-- Title: /Users/rkwright/Documents/github/readium&#45;sdk&#45;D/ePub3/utilities/invoke.h Pages: 1 -->
<svg width="271pt" height="286pt"
 viewBox="0.00 0.00 271.00 286.00" xmlns="http://www.w3.org/2000/svg" xmlns:xlink="http://www.w3.org/1999/xlink">
<g id="graph0" class="graph" transform="scale(1 1) rotate(0) translate(4 282)">
<title>/Users/rkwright/Documents/github/readium&#45;sdk&#45;D/ePub3/utilities/invoke.h</title>
<polygon fill="white" stroke="white" points="-4,5 -4,-282 268,-282 268,5 -4,5"/>
<!-- Node1 -->
<g id="node1" class="node"><title>Node1</title>
<polygon fill="#bfbfbf" stroke="black" points="82.9658,-233 82.9658,-277 229.034,-277 229.034,-233 82.9658,-233"/>
<text text-anchor="start" x="90.9658" y="-263" font-family="Helvetica,sans-Serif" font-size="10.00">/Users/rkwright/Documents</text>
<text text-anchor="start" x="90.9658" y="-251" font-family="Helvetica,sans-Serif" font-size="10.00">/github/readium&#45;sdk&#45;D/ePub3</text>
<text text-anchor="middle" x="156" y="-239" font-family="Helvetica,sans-Serif" font-size="10.00">/utilities/invoke.h</text>
</g>
<!-- Node2 -->
<g id="node2" class="node"><title>Node2</title>
<g id="a_node2"><a xlink:href="base_8h.xhtml" target="_top" xlink:title="ePub3/base.h">
<polygon fill="white" stroke="black" points="29.1406,-175 29.1406,-195 106.859,-195 106.859,-175 29.1406,-175"/>
<text text-anchor="middle" x="68" y="-181" font-family="Helvetica,sans-Serif" font-size="10.00">ePub3/base.h</text>
</a>
</g>
</g>
<!-- Node1&#45;&gt;Node2 -->
<g id="edge1" class="edge"><title>Node1&#45;&gt;Node2</title>
<path fill="none" stroke="midnightblue" d="M128.639,-232.857C115.484,-222.692 100.003,-210.73 87.9757,-201.436"/>
<polygon fill="midnightblue" stroke="midnightblue" points="89.9639,-198.549 79.911,-195.204 85.6838,-204.088 89.9639,-198.549"/>
</g>
<!-- Node7 -->
<g id="node7" class="node"><title>Node7</title>
<polygon fill="white" stroke="#bfbfbf" points="124.934,-175 124.934,-195 187.066,-195 187.066,-175 124.934,-175"/>
<text text-anchor="middle" x="156" y="-181" font-family="Helvetica,sans-Serif" font-size="10.00">type_traits</text>
</g>
<!-- Node1&#45;&gt;Node7 -->
<g id="edge6" class="edge"><title>Node1&#45;&gt;Node7</title>
<path fill="none" stroke="midnightblue" d="M156,-232.857C156,-224.074 156,-213.948 156,-205.362"/>
<polygon fill="midnightblue" stroke="midnightblue" points="159.5,-205.204 156,-195.204 152.5,-205.204 159.5,-205.204"/>
</g>
<!-- Node8 -->
<g id="node8" class="node"><title>Node8</title>
<polygon fill="white" stroke="#bfbfbf" points="204.596,-175 204.596,-195 263.404,-195 263.404,-175 204.596,-175"/>
<text text-anchor="middle" x="234" y="-181" font-family="Helvetica,sans-Serif" font-size="10.00">functional</text>
</g>
<!-- Node1&#45;&gt;Node8 -->
<g id="edge7" class="edge"><title>Node1&#45;&gt;Node8</title>
<path fill="none" stroke="midnightblue" d="M180.252,-232.857C191.685,-222.89 205.102,-211.194 215.67,-201.98"/>
<polygon fill="midnightblue" stroke="midnightblue" points="218.205,-204.414 223.443,-195.204 213.605,-199.137 218.205,-204.414"/>
</g>
<!-- Node3 -->
<g id="node3" class="node"><title>Node3</title>
<g id="a_node3"><a xlink:href="__config_8h.xhtml" target="_top" xlink:title="_config.h">
<polygon fill="white" stroke="black" points="4.70703,-117 4.70703,-137 61.293,-137 61.293,-117 4.70703,-117"/>
<text text-anchor="middle" x="33" y="-123" font-family="Helvetica,sans-Serif" font-size="10.00">_config.h</text>
</a>
</g>
</g>
<!-- Node2&#45;&gt;Node3 -->
<g id="edge2" class="edge"><title>Node2&#45;&gt;Node3</title>
<path fill="none" stroke="midnightblue" d="M62.2205,-174.753C57.2767,-166.843 50.0233,-155.237 43.9802,-145.568"/>
<polygon fill="midnightblue" stroke="midnightblue" points="46.94,-143.7 38.672,-137.075 41.004,-147.41 46.94,-143.7"/>
</g>
<!-- Node6 -->
<g id="node6" class="node"><title>Node6</title>
<polygon fill="white" stroke="#bfbfbf" points="79.1577,-117 79.1577,-137 126.842,-137 126.842,-117 79.1577,-117"/>
<text text-anchor="middle" x="103" y="-123" font-family="Helvetica,sans-Serif" font-size="10.00">stdlib.h</text>
</g>
<!-- Node2&#45;&gt;Node6 -->
<g id="edge5" class="edge"><title>Node2&#45;&gt;Node6</title>
<path fill="none" stroke="midnightblue" d="M73.7795,-174.753C78.7233,-166.843 85.9767,-155.237 92.0198,-145.568"/>
<polygon fill="midnightblue" stroke="midnightblue" points="94.996,-147.41 97.328,-137.075 89.06,-143.7 94.996,-147.41"/>
</g>
<!-- Node4 -->
<g id="node4" class="node"><title>Node4</title>
<g id="a_node4"><a xlink:href="__platform_8h.xhtml" target="_top" xlink:title="_platform.h">
<polygon fill="white" stroke="black" points="-0.012207,-59 -0.012207,-79 66.0122,-79 66.0122,-59 -0.012207,-59"/>
<text text-anchor="middle" x="33" y="-65" font-family="Helvetica,sans-Serif" font-size="10.00">_platform.h</text>
</a>
</g>
</g>
<!-- Node3&#45;&gt;Node4 -->
<g id="edge3" class="edge"><title>Node3&#45;&gt;Node4</title>
<path fill="none" stroke="midnightblue" d="M33,-116.753C33,-109.25 33,-98.4238 33,-89.0781"/>
<polygon fill="midnightblue" stroke="midnightblue" points="36.5001,-89.0752 33,-79.0752 29.5001,-89.0752 36.5001,-89.0752"/>
</g>
<!-- Node5 -->
<g id="node5" class="node"><title>Node5</title>
<g id="a_node5"><a xlink:href="__compiler_8h.xhtml" target="_top" xlink:title="_compiler.h">
<polygon fill="white" stroke="black" points="-0.571289,-1 -0.571289,-21 66.5713,-21 66.5713,-1 -0.571289,-1"/>
<text text-anchor="middle" x="33" y="-7" font-family="Helvetica,sans-Serif" font-size="10.00">_compiler.h</text>
</a>
</g>
</g>
<!-- Node4&#45;&gt;Node5 -->
<g id="edge4" class="edge"><title>Node4&#45;&gt;Node5</title>
<path fill="none" stroke="midnightblue" d="M33,-58.7527C33,-51.2504 33,-40.4238 33,-31.0781"/>
<polygon fill="midnightblue" stroke="midnightblue" points="36.5001,-31.0752 33,-21.0752 29.5001,-31.0752 36.5001,-31.0752"/>
</g>
</g>
</svg>
