<?xml version="1.0" encoding="UTF-8" standalone="no"?>
<!DOCTYPE svg PUBLIC "-//W3C//DTD SVG 1.1//EN"
 "http://www.w3.org/Graphics/SVG/1.1/DTD/svg11.dtd">
<!-- Generated by graphviz version 2.30.0 (20130114.0426)
 -->
<!-- Title: /Users/rkwright/Documents/github/readium&#45;sdk&#45;D/ePub3/utilities/invoke.h Pages: 1 -->
<svg width="1651pt" height="394pt"
 viewBox="0.00 0.00 1651.00 394.00" xmlns="http://www.w3.org/2000/svg" xmlns:xlink="http://www.w3.org/1999/xlink">
<g id="graph0" class="graph" transform="scale(1 1) rotate(0) translate(4 390)">
<title>/Users/rkwright/Documents/github/readium&#45;sdk&#45;D/ePub3/utilities/invoke.h</title>
<polygon fill="white" stroke="white" points="-4,5 -4,-390 1648,-390 1648,5 -4,5"/>
<!-- Node1 -->
<g id="node1" class="node"><title>Node1</title>
<polygon fill="#bfbfbf" stroke="black" points="700.966,-341 700.966,-385 847.034,-385 847.034,-341 700.966,-341"/>
<text text-anchor="start" x="708.966" y="-371" font-family="Helvetica,sans-Serif" font-size="10.00">/Users/rkwright/Documents</text>
<text text-anchor="start" x="708.966" y="-359" font-family="Helvetica,sans-Serif" font-size="10.00">/github/readium&#45;sdk&#45;D/ePub3</text>
<text text-anchor="middle" x="774" y="-347" font-family="Helvetica,sans-Serif" font-size="10.00">/utilities/invoke.h</text>
</g>
<!-- Node2 -->
<g id="node2" class="node"><title>Node2</title>
<g id="a_node2"><a xlink:href="executor_8h.xhtml" target="_top" xlink:title="/Users/rkwright/Documents\l/github/readium&#45;sdk&#45;D/ePub3\l/utilities/executor.h">
<polygon fill="white" stroke="black" points="593.966,-259 593.966,-303 740.034,-303 740.034,-259 593.966,-259"/>
<text text-anchor="start" x="601.966" y="-289" font-family="Helvetica,sans-Serif" font-size="10.00">/Users/rkwright/Documents</text>
<text text-anchor="start" x="601.966" y="-277" font-family="Helvetica,sans-Serif" font-size="10.00">/github/readium&#45;sdk&#45;D/ePub3</text>
<text text-anchor="middle" x="667" y="-265" font-family="Helvetica,sans-Serif" font-size="10.00">/utilities/executor.h</text>
</a>
</g>
</g>
<!-- Node1&#45;&gt;Node2 -->
<g id="edge1" class="edge"><title>Node1&#45;&gt;Node2</title>
<path fill="none" stroke="midnightblue" d="M737.547,-334.745C723.741,-324.423 708.243,-312.836 695.297,-303.156"/>
<polygon fill="midnightblue" stroke="midnightblue" points="735.782,-337.796 745.887,-340.981 739.974,-332.19 735.782,-337.796"/>
</g>
<!-- Node12 -->
<g id="node12" class="node"><title>Node12</title>
<g id="a_node12"><a xlink:href="future_8h.xhtml" target="_top" xlink:title="/Users/rkwright/Documents\l/github/readium&#45;sdk&#45;D/ePub3\l/utilities/future.h">
<polygon fill="white" stroke="black" points="864.966,-177 864.966,-221 1011.03,-221 1011.03,-177 864.966,-177"/>
<text text-anchor="start" x="872.966" y="-207" font-family="Helvetica,sans-Serif" font-size="10.00">/Users/rkwright/Documents</text>
<text text-anchor="start" x="872.966" y="-195" font-family="Helvetica,sans-Serif" font-size="10.00">/github/readium&#45;sdk&#45;D/ePub3</text>
<text text-anchor="middle" x="938" y="-183" font-family="Helvetica,sans-Serif" font-size="10.00">/utilities/future.h</text>
</a>
</g>
</g>
<!-- Node1&#45;&gt;Node12 -->
<g id="edge25" class="edge"><title>Node1&#45;&gt;Node12</title>
<path fill="none" stroke="midnightblue" d="M802.86,-333.492C835.369,-301.379 887.454,-249.929 916.555,-221.184"/>
<polygon fill="midnightblue" stroke="midnightblue" points="800.095,-331.304 795.44,-340.821 805.014,-336.284 800.095,-331.304"/>
</g>
<!-- Node3 -->
<g id="node3" class="node"><title>Node3</title>
<g id="a_node3"><a xlink:href="filter__chain_8h.xhtml" target="_top" xlink:title="/Users/rkwright/Documents\l/github/readium&#45;sdk&#45;D/ePub3\l/ePub/filter_chain.h">
<polygon fill="white" stroke="black" points="536.966,-177 536.966,-221 683.034,-221 683.034,-177 536.966,-177"/>
<text text-anchor="start" x="544.966" y="-207" font-family="Helvetica,sans-Serif" font-size="10.00">/Users/rkwright/Documents</text>
<text text-anchor="start" x="544.966" y="-195" font-family="Helvetica,sans-Serif" font-size="10.00">/github/readium&#45;sdk&#45;D/ePub3</text>
<text text-anchor="middle" x="610" y="-183" font-family="Helvetica,sans-Serif" font-size="10.00">/ePub/filter_chain.h</text>
</a>
</g>
</g>
<!-- Node2&#45;&gt;Node3 -->
<g id="edge2" class="edge"><title>Node2&#45;&gt;Node3</title>
<path fill="none" stroke="midnightblue" d="M646.113,-250.685C639.142,-240.901 631.515,-230.196 625.074,-221.156"/>
<polygon fill="midnightblue" stroke="midnightblue" points="643.371,-252.868 652.024,-258.981 649.072,-248.806 643.371,-252.868"/>
</g>
<!-- Node7 -->
<g id="node7" class="node"><title>Node7</title>
<g id="a_node7"><a xlink:href="filter__chain__byte__stream_8h.xhtml" target="_top" xlink:title="/Users/rkwright/Documents\l/github/readium&#45;sdk&#45;D/ePub3\l/ePub/filter_chain_byte_stream.h">
<polygon fill="white" stroke="black" points="144.902,-177 144.902,-221 307.098,-221 307.098,-177 144.902,-177"/>
<text text-anchor="start" x="152.902" y="-207" font-family="Helvetica,sans-Serif" font-size="10.00">/Users/rkwright/Documents</text>
<text text-anchor="start" x="152.902" y="-195" font-family="Helvetica,sans-Serif" font-size="10.00">/github/readium&#45;sdk&#45;D/ePub3</text>
<text text-anchor="middle" x="226" y="-183" font-family="Helvetica,sans-Serif" font-size="10.00">/ePub/filter_chain_byte_stream.h</text>
</a>
</g>
</g>
<!-- Node2&#45;&gt;Node7 -->
<g id="edge6" class="edge"><title>Node2&#45;&gt;Node7</title>
<path fill="none" stroke="midnightblue" d="M583.492,-268.027C512.17,-257.366 406.982,-240.609 316,-222 313.163,-221.42 310.281,-220.812 307.373,-220.185"/>
<polygon fill="midnightblue" stroke="midnightblue" points="583.357,-271.546 593.764,-269.556 584.388,-264.622 583.357,-271.546"/>
</g>
<!-- Node9 -->
<g id="node9" class="node"><title>Node9</title>
<g id="a_node9"><a xlink:href="filter__chain__byte__stream__range_8h.xhtml" target="_top" xlink:title="/Users/rkwright/Documents\l/github/readium&#45;sdk&#45;D/ePub3\l/ePub/filter_chain_byte_stream_range.h">
<polygon fill="white" stroke="black" points="325.333,-177 325.333,-221 518.667,-221 518.667,-177 325.333,-177"/>
<text text-anchor="start" x="333.333" y="-207" font-family="Helvetica,sans-Serif" font-size="10.00">/Users/rkwright/Documents</text>
<text text-anchor="start" x="333.333" y="-195" font-family="Helvetica,sans-Serif" font-size="10.00">/github/readium&#45;sdk&#45;D/ePub3</text>
<text text-anchor="middle" x="422" y="-183" font-family="Helvetica,sans-Serif" font-size="10.00">/ePub/filter_chain_byte_stream_range.h</text>
</a>
</g>
</g>
<!-- Node2&#45;&gt;Node9 -->
<g id="edge9" class="edge"><title>Node2&#45;&gt;Node9</title>
<path fill="none" stroke="midnightblue" d="M592.764,-255.76C558.829,-244.679 519.012,-231.677 486.366,-221.017"/>
<polygon fill="midnightblue" stroke="midnightblue" points="592.037,-259.204 602.629,-258.981 594.21,-252.55 592.037,-259.204"/>
</g>
<!-- Node11 -->
<g id="node11" class="node"><title>Node11</title>
<g id="a_node11"><a xlink:href="executor_8cpp.xhtml" target="_top" xlink:title="/Users/rkwright/Documents\l/github/readium&#45;sdk&#45;D/ePub3\l/utilities/executor.cpp">
<polygon fill="white" stroke="black" points="700.966,-177 700.966,-221 847.034,-221 847.034,-177 700.966,-177"/>
<text text-anchor="start" x="708.966" y="-207" font-family="Helvetica,sans-Serif" font-size="10.00">/Users/rkwright/Documents</text>
<text text-anchor="start" x="708.966" y="-195" font-family="Helvetica,sans-Serif" font-size="10.00">/github/readium&#45;sdk&#45;D/ePub3</text>
<text text-anchor="middle" x="774" y="-183" font-family="Helvetica,sans-Serif" font-size="10.00">/utilities/executor.cpp</text>
</a>
</g>
</g>
<!-- Node2&#45;&gt;Node11 -->
<g id="edge12" class="edge"><title>Node2&#45;&gt;Node11</title>
<path fill="none" stroke="midnightblue" d="M703.453,-252.745C717.259,-242.423 732.757,-230.836 745.703,-221.156"/>
<polygon fill="midnightblue" stroke="midnightblue" points="701.026,-250.19 695.113,-258.981 705.218,-255.796 701.026,-250.19"/>
</g>
<!-- Node2&#45;&gt;Node12 -->
<g id="edge13" class="edge"><title>Node2&#45;&gt;Node12</title>
<path fill="none" stroke="midnightblue" d="M748.149,-256.045C785.894,-244.902 830.383,-231.769 866.803,-221.017"/>
<polygon fill="midnightblue" stroke="midnightblue" points="746.802,-252.793 738.202,-258.981 748.784,-259.506 746.802,-252.793"/>
</g>
<!-- Node4 -->
<g id="node4" class="node"><title>Node4</title>
<g id="a_node4"><a xlink:href="filter__chain_8cpp.xhtml" target="_top" xlink:title="/Users/rkwright/Documents\l/github/readium&#45;sdk&#45;D/ePub3\l/ePub/filter_chain.cpp">
<polygon fill="white" stroke="black" points="189.966,-89 189.966,-133 336.034,-133 336.034,-89 189.966,-89"/>
<text text-anchor="start" x="197.966" y="-119" font-family="Helvetica,sans-Serif" font-size="10.00">/Users/rkwright/Documents</text>
<text text-anchor="start" x="197.966" y="-107" font-family="Helvetica,sans-Serif" font-size="10.00">/github/readium&#45;sdk&#45;D/ePub3</text>
<text text-anchor="middle" x="263" y="-95" font-family="Helvetica,sans-Serif" font-size="10.00">/ePub/filter_chain.cpp</text>
</a>
</g>
</g>
<!-- Node3&#45;&gt;Node4 -->
<g id="edge3" class="edge"><title>Node3&#45;&gt;Node4</title>
<path fill="none" stroke="midnightblue" d="M527.3,-176.069C527.2,-176.046 527.1,-176.023 527,-176 446.663,-157.427 424.639,-161.37 345,-140 337.445,-137.973 329.576,-135.614 321.832,-133.141"/>
<polygon fill="midnightblue" stroke="midnightblue" points="526.205,-179.407 536.743,-178.311 527.822,-172.596 526.205,-179.407"/>
</g>
<!-- Node5 -->
<g id="node5" class="node"><title>Node5</title>
<g id="a_node5"><a xlink:href="filter__manager__impl_8cpp.xhtml" target="_top" xlink:title="/Users/rkwright/Documents\l/github/readium&#45;sdk&#45;D/ePub3\l/ePub/filter_manager_impl.cpp">
<polygon fill="white" stroke="black" points="526.185,-89 526.185,-133 677.815,-133 677.815,-89 526.185,-89"/>
<text text-anchor="start" x="534.185" y="-119" font-family="Helvetica,sans-Serif" font-size="10.00">/Users/rkwright/Documents</text>
<text text-anchor="start" x="534.185" y="-107" font-family="Helvetica,sans-Serif" font-size="10.00">/github/readium&#45;sdk&#45;D/ePub3</text>
<text text-anchor="middle" x="602" y="-95" font-family="Helvetica,sans-Serif" font-size="10.00">/ePub/filter_manager_impl.cpp</text>
</a>
</g>
</g>
<!-- Node3&#45;&gt;Node5 -->
<g id="edge4" class="edge"><title>Node3&#45;&gt;Node5</title>
<path fill="none" stroke="midnightblue" d="M607.07,-166.499C606.032,-155.346 604.891,-143.081 603.955,-133.014"/>
<polygon fill="midnightblue" stroke="midnightblue" points="603.611,-167.109 608.022,-176.742 610.581,-166.46 603.611,-167.109"/>
</g>
<!-- Node6 -->
<g id="node6" class="node"><title>Node6</title>
<g id="a_node6"><a xlink:href="package_8cpp.xhtml" target="_top" xlink:title="/Users/rkwright/Documents\l/github/readium&#45;sdk&#45;D/ePub3\l/ePub/package.cpp">
<polygon fill="white" stroke="black" points="306.966,-1 306.966,-45 453.034,-45 453.034,-1 306.966,-1"/>
<text text-anchor="start" x="314.966" y="-31" font-family="Helvetica,sans-Serif" font-size="10.00">/Users/rkwright/Documents</text>
<text text-anchor="start" x="314.966" y="-19" font-family="Helvetica,sans-Serif" font-size="10.00">/github/readium&#45;sdk&#45;D/ePub3</text>
<text text-anchor="middle" x="380" y="-7" font-family="Helvetica,sans-Serif" font-size="10.00">/ePub/package.cpp</text>
</a>
</g>
</g>
<!-- Node3&#45;&gt;Node6 -->
<g id="edge5" class="edge"><title>Node3&#45;&gt;Node6</title>
<path fill="none" stroke="midnightblue" d="M659.52,-170.725C670.172,-162.352 680.017,-152.092 686,-140 697.432,-116.896 702.719,-101.621 686,-82 653.301,-43.6258 511.301,-56.5461 462,-46 459.117,-45.3834 456.185,-44.7288 453.227,-44.046"/>
<polygon fill="midnightblue" stroke="midnightblue" points="657.275,-168.031 651.268,-176.759 661.406,-173.682 657.275,-168.031"/>
</g>
<!-- Node7&#45;&gt;Node4 -->
<g id="edge7" class="edge"><title>Node7&#45;&gt;Node4</title>
<path fill="none" stroke="midnightblue" d="M239.109,-167.53C244.024,-156.107 249.494,-143.392 253.959,-133.014"/>
<polygon fill="midnightblue" stroke="midnightblue" points="235.883,-166.172 235.146,-176.742 242.313,-168.939 235.883,-166.172"/>
</g>
<!-- Node8 -->
<g id="node8" class="node"><title>Node8</title>
<g id="a_node8"><a xlink:href="filter__chain__byte__stream_8cpp.xhtml" target="_top" xlink:title="/Users/rkwright/Documents\l/github/readium&#45;sdk&#45;D/ePub3\l/ePub/filter_chain_byte_stream.cpp">
<polygon fill="white" stroke="black" points="-0.378906,-89 -0.378906,-133 172.379,-133 172.379,-89 -0.378906,-89"/>
<text text-anchor="start" x="7.62109" y="-119" font-family="Helvetica,sans-Serif" font-size="10.00">/Users/rkwright/Documents</text>
<text text-anchor="start" x="7.62109" y="-107" font-family="Helvetica,sans-Serif" font-size="10.00">/github/readium&#45;sdk&#45;D/ePub3</text>
<text text-anchor="middle" x="86" y="-95" font-family="Helvetica,sans-Serif" font-size="10.00">/ePub/filter_chain_byte_stream.cpp</text>
</a>
</g>
</g>
<!-- Node7&#45;&gt;Node8 -->
<g id="edge8" class="edge"><title>Node7&#45;&gt;Node8</title>
<path fill="none" stroke="midnightblue" d="M183.077,-171.633C162.953,-159.271 139.3,-144.741 120.38,-133.119"/>
<polygon fill="midnightblue" stroke="midnightblue" points="181.399,-174.71 191.752,-176.962 185.063,-168.746 181.399,-174.71"/>
</g>
<!-- Node9&#45;&gt;Node4 -->
<g id="edge10" class="edge"><title>Node9&#45;&gt;Node4</title>
<path fill="none" stroke="midnightblue" d="M374.172,-172.131C351.121,-159.663 323.822,-144.898 302.045,-133.119"/>
<polygon fill="midnightblue" stroke="midnightblue" points="372.643,-175.283 383.104,-176.962 375.974,-169.126 372.643,-175.283"/>
</g>
<!-- Node10 -->
<g id="node10" class="node"><title>Node10</title>
<g id="a_node10"><a xlink:href="filter__chain__byte__stream__range_8cpp.xhtml" target="_top" xlink:title="/Users/rkwright/Documents\l/github/readium&#45;sdk&#45;D/ePub3\l/ePub/filter_chain_byte_stream\l_range.cpp">
<polygon fill="white" stroke="black" points="354.072,-83 354.072,-139 507.928,-139 507.928,-83 354.072,-83"/>
<text text-anchor="start" x="362.072" y="-125" font-family="Helvetica,sans-Serif" font-size="10.00">/Users/rkwright/Documents</text>
<text text-anchor="start" x="362.072" y="-113" font-family="Helvetica,sans-Serif" font-size="10.00">/github/readium&#45;sdk&#45;D/ePub3</text>
<text text-anchor="start" x="362.072" y="-101" font-family="Helvetica,sans-Serif" font-size="10.00">/ePub/filter_chain_byte_stream</text>
<text text-anchor="middle" x="431" y="-89" font-family="Helvetica,sans-Serif" font-size="10.00">_range.cpp</text>
</a>
</g>
</g>
<!-- Node9&#45;&gt;Node10 -->
<g id="edge11" class="edge"><title>Node9&#45;&gt;Node10</title>
<path fill="none" stroke="midnightblue" d="M425.283,-166.627C426.224,-157.636 427.242,-147.911 428.154,-139.192"/>
<polygon fill="midnightblue" stroke="midnightblue" points="421.785,-166.432 424.225,-176.742 428.747,-167.16 421.785,-166.432"/>
</g>
<!-- Node13 -->
<g id="node13" class="node"><title>Node13</title>
<g id="a_node13"><a xlink:href="container_8h.xhtml" target="_top" xlink:title="/Users/rkwright/Documents\l/github/readium&#45;sdk&#45;D/ePub3\l/ePub/container.h">
<polygon fill="white" stroke="black" points="798.966,-89 798.966,-133 945.034,-133 945.034,-89 798.966,-89"/>
<text text-anchor="start" x="806.966" y="-119" font-family="Helvetica,sans-Serif" font-size="10.00">/Users/rkwright/Documents</text>
<text text-anchor="start" x="806.966" y="-107" font-family="Helvetica,sans-Serif" font-size="10.00">/github/readium&#45;sdk&#45;D/ePub3</text>
<text text-anchor="middle" x="872" y="-95" font-family="Helvetica,sans-Serif" font-size="10.00">/ePub/container.h</text>
</a>
</g>
</g>
<!-- Node12&#45;&gt;Node13 -->
<g id="edge14" class="edge"><title>Node12&#45;&gt;Node13</title>
<path fill="none" stroke="midnightblue" d="M915.402,-168.555C906.437,-156.872 896.33,-143.703 888.127,-133.014"/>
<polygon fill="midnightblue" stroke="midnightblue" points="912.821,-170.939 921.685,-176.742 918.374,-166.678 912.821,-170.939"/>
</g>
<!-- Node20 -->
<g id="node20" class="node"><title>Node20</title>
<g id="a_node20"><a xlink:href="content__module_8h.xhtml" target="_top" xlink:title="/Users/rkwright/Documents\l/github/readium&#45;sdk&#45;D/ePub3\l/ePub/content_module.h">
<polygon fill="white" stroke="black" points="962.966,-89 962.966,-133 1109.03,-133 1109.03,-89 962.966,-89"/>
<text text-anchor="start" x="970.966" y="-119" font-family="Helvetica,sans-Serif" font-size="10.00">/Users/rkwright/Documents</text>
<text text-anchor="start" x="970.966" y="-107" font-family="Helvetica,sans-Serif" font-size="10.00">/github/readium&#45;sdk&#45;D/ePub3</text>
<text text-anchor="middle" x="1036" y="-95" font-family="Helvetica,sans-Serif" font-size="10.00">/ePub/content_module.h</text>
</a>
</g>
</g>
<!-- Node12&#45;&gt;Node20 -->
<g id="edge22" class="edge"><title>Node12&#45;&gt;Node20</title>
<path fill="none" stroke="midnightblue" d="M969.763,-170.126C983.464,-158.103 999.225,-144.272 1011.93,-133.119"/>
<polygon fill="midnightblue" stroke="midnightblue" points="967.181,-167.735 961.973,-176.962 971.798,-172.997 967.181,-167.735"/>
</g>
<!-- Node22 -->
<g id="node22" class="node"><title>Node22</title>
<g id="a_node22"><a xlink:href="future_8cpp.xhtml" target="_top" xlink:title="/Users/rkwright/Documents\l/github/readium&#45;sdk&#45;D/ePub3\l/utilities/future.cpp">
<polygon fill="white" stroke="black" points="1126.97,-89 1126.97,-133 1273.03,-133 1273.03,-89 1126.97,-89"/>
<text text-anchor="start" x="1134.97" y="-119" font-family="Helvetica,sans-Serif" font-size="10.00">/Users/rkwright/Documents</text>
<text text-anchor="start" x="1134.97" y="-107" font-family="Helvetica,sans-Serif" font-size="10.00">/github/readium&#45;sdk&#45;D/ePub3</text>
<text text-anchor="middle" x="1200" y="-95" font-family="Helvetica,sans-Serif" font-size="10.00">/utilities/future.cpp</text>
</a>
</g>
</g>
<!-- Node12&#45;&gt;Node22 -->
<g id="edge24" class="edge"><title>Node12&#45;&gt;Node22</title>
<path fill="none" stroke="midnightblue" d="M1014.11,-173.796C1046.22,-163.504 1083.97,-151.291 1118,-140 1124.71,-137.773 1131.72,-135.421 1138.7,-133.063"/>
<polygon fill="midnightblue" stroke="midnightblue" points="1012.8,-170.543 1004.34,-176.926 1014.93,-177.209 1012.8,-170.543"/>
</g>
<!-- Node14 -->
<g id="node14" class="node"><title>Node14</title>
<g id="a_node14"><a xlink:href="container_8cpp.xhtml" target="_top" xlink:title="/Users/rkwright/Documents\l/github/readium&#45;sdk&#45;D/ePub3\l/ePub/container.cpp">
<polygon fill="white" stroke="black" points="470.966,-1 470.966,-45 617.034,-45 617.034,-1 470.966,-1"/>
<text text-anchor="start" x="478.966" y="-31" font-family="Helvetica,sans-Serif" font-size="10.00">/Users/rkwright/Documents</text>
<text text-anchor="start" x="478.966" y="-19" font-family="Helvetica,sans-Serif" font-size="10.00">/github/readium&#45;sdk&#45;D/ePub3</text>
<text text-anchor="middle" x="544" y="-7" font-family="Helvetica,sans-Serif" font-size="10.00">/ePub/container.cpp</text>
</a>
</g>
</g>
<!-- Node13&#45;&gt;Node14 -->
<g id="edge15" class="edge"><title>Node13&#45;&gt;Node14</title>
<path fill="none" stroke="midnightblue" d="M788.8,-88.5222C741.122,-76.1721 680.172,-60.3136 626,-46 623.15,-45.2469 620.245,-44.4773 617.31,-43.6982"/>
<polygon fill="midnightblue" stroke="midnightblue" points="788.207,-91.984 798.765,-91.1024 789.962,-85.2075 788.207,-91.984"/>
</g>
<!-- Node15 -->
<g id="node15" class="node"><title>Node15</title>
<g id="a_node15"><a xlink:href="font__obfuscation_8cpp.xhtml" target="_top" xlink:title="/Users/rkwright/Documents\l/github/readium&#45;sdk&#45;D/ePub3\l/ePub/font_obfuscation.cpp">
<polygon fill="white" stroke="black" points="634.966,-1 634.966,-45 781.034,-45 781.034,-1 634.966,-1"/>
<text text-anchor="start" x="642.966" y="-31" font-family="Helvetica,sans-Serif" font-size="10.00">/Users/rkwright/Documents</text>
<text text-anchor="start" x="642.966" y="-19" font-family="Helvetica,sans-Serif" font-size="10.00">/github/readium&#45;sdk&#45;D/ePub3</text>
<text text-anchor="middle" x="708" y="-7" font-family="Helvetica,sans-Serif" font-size="10.00">/ePub/font_obfuscation.cpp</text>
</a>
</g>
</g>
<!-- Node13&#45;&gt;Node15 -->
<g id="edge16" class="edge"><title>Node13&#45;&gt;Node15</title>
<path fill="none" stroke="midnightblue" d="M822.983,-84.2961C799.141,-71.7934 770.834,-56.9497 748.273,-45.1188"/>
<polygon fill="midnightblue" stroke="midnightblue" points="821.399,-87.4175 831.881,-88.962 824.65,-81.2182 821.399,-87.4175"/>
</g>
<!-- Node16 -->
<g id="node16" class="node"><title>Node16</title>
<g id="a_node16"><a xlink:href="e_pub_2library_8cpp.xhtml" target="_top" xlink:title="/Users/rkwright/Documents\l/github/readium&#45;sdk&#45;D/ePub3\l/ePub/library.cpp">
<polygon fill="white" stroke="black" points="798.966,-1 798.966,-45 945.034,-45 945.034,-1 798.966,-1"/>
<text text-anchor="start" x="806.966" y="-31" font-family="Helvetica,sans-Serif" font-size="10.00">/Users/rkwright/Documents</text>
<text text-anchor="start" x="806.966" y="-19" font-family="Helvetica,sans-Serif" font-size="10.00">/github/readium&#45;sdk&#45;D/ePub3</text>
<text text-anchor="middle" x="872" y="-7" font-family="Helvetica,sans-Serif" font-size="10.00">/ePub/library.cpp</text>
</a>
</g>
</g>
<!-- Node13&#45;&gt;Node16 -->
<g id="edge17" class="edge"><title>Node13&#45;&gt;Node16</title>
<path fill="none" stroke="midnightblue" d="M872,-78.4986C872,-67.3464 872,-55.0805 872,-45.0139"/>
<polygon fill="midnightblue" stroke="midnightblue" points="868.5,-78.7415 872,-88.7416 875.5,-78.7416 868.5,-78.7415"/>
</g>
<!-- Node17 -->
<g id="node17" class="node"><title>Node17</title>
<g id="a_node17"><a xlink:href="manifest_8cpp.xhtml" target="_top" xlink:title="/Users/rkwright/Documents\l/github/readium&#45;sdk&#45;D/ePub3\l/ePub/manifest.cpp">
<polygon fill="white" stroke="black" points="962.966,-1 962.966,-45 1109.03,-45 1109.03,-1 962.966,-1"/>
<text text-anchor="start" x="970.966" y="-31" font-family="Helvetica,sans-Serif" font-size="10.00">/Users/rkwright/Documents</text>
<text text-anchor="start" x="970.966" y="-19" font-family="Helvetica,sans-Serif" font-size="10.00">/github/readium&#45;sdk&#45;D/ePub3</text>
<text text-anchor="middle" x="1036" y="-7" font-family="Helvetica,sans-Serif" font-size="10.00">/ePub/manifest.cpp</text>
</a>
</g>
</g>
<!-- Node13&#45;&gt;Node17 -->
<g id="edge18" class="edge"><title>Node13&#45;&gt;Node17</title>
<path fill="none" stroke="midnightblue" d="M921.017,-84.2961C944.859,-71.7934 973.166,-56.9497 995.727,-45.1188"/>
<polygon fill="midnightblue" stroke="midnightblue" points="919.35,-81.2182 912.119,-88.962 922.601,-87.4175 919.35,-81.2182"/>
</g>
<!-- Node13&#45;&gt;Node6 -->
<g id="edge19" class="edge"><title>Node13&#45;&gt;Node6</title>
<path fill="none" stroke="midnightblue" d="M788.581,-93.9579C766.331,-89.864 742.281,-85.605 720,-82 605.709,-63.5083 575.461,-69.0445 462,-46 459.111,-45.4132 456.173,-44.7839 453.211,-44.1222"/>
<polygon fill="midnightblue" stroke="midnightblue" points="788.195,-97.4458 798.665,-95.8244 789.469,-90.5627 788.195,-97.4458"/>
</g>
<!-- Node18 -->
<g id="node18" class="node"><title>Node18</title>
<g id="a_node18"><a xlink:href="_pass_through_filter_8cpp.xhtml" target="_top" xlink:title="/Users/rkwright/Documents\l/github/readium&#45;sdk&#45;D/ePub3\l/ePub/PassThroughFilter.cpp">
<polygon fill="white" stroke="black" points="1126.97,-1 1126.97,-45 1273.03,-45 1273.03,-1 1126.97,-1"/>
<text text-anchor="start" x="1134.97" y="-31" font-family="Helvetica,sans-Serif" font-size="10.00">/Users/rkwright/Documents</text>
<text text-anchor="start" x="1134.97" y="-19" font-family="Helvetica,sans-Serif" font-size="10.00">/github/readium&#45;sdk&#45;D/ePub3</text>
<text text-anchor="middle" x="1200" y="-7" font-family="Helvetica,sans-Serif" font-size="10.00">/ePub/PassThroughFilter.cpp</text>
</a>
</g>
</g>
<!-- Node13&#45;&gt;Node18 -->
<g id="edge20" class="edge"><title>Node13&#45;&gt;Node18</title>
<path fill="none" stroke="midnightblue" d="M940.954,-85.8332C945.353,-84.4844 949.728,-83.194 954,-82 1025.87,-61.9108 1045.5,-63.6733 1118,-46 1120.86,-45.3018 1123.78,-44.5785 1126.73,-43.8382"/>
<polygon fill="midnightblue" stroke="midnightblue" points="939.808,-82.5246 931.319,-88.8642 941.909,-89.202 939.808,-82.5246"/>
</g>
<!-- Node19 -->
<g id="node19" class="node"><title>Node19</title>
<g id="a_node19"><a xlink:href="switch__preprocessor_8cpp.xhtml" target="_top" xlink:title="/Users/rkwright/Documents\l/github/readium&#45;sdk&#45;D/ePub3\l/ePub/switch_preprocessor.cpp">
<polygon fill="white" stroke="black" points="1291.52,-1 1291.52,-45 1446.48,-45 1446.48,-1 1291.52,-1"/>
<text text-anchor="start" x="1299.52" y="-31" font-family="Helvetica,sans-Serif" font-size="10.00">/Users/rkwright/Documents</text>
<text text-anchor="start" x="1299.52" y="-19" font-family="Helvetica,sans-Serif" font-size="10.00">/github/readium&#45;sdk&#45;D/ePub3</text>
<text text-anchor="middle" x="1369" y="-7" font-family="Helvetica,sans-Serif" font-size="10.00">/ePub/switch_preprocessor.cpp</text>
</a>
</g>
</g>
<!-- Node13&#45;&gt;Node19 -->
<g id="edge21" class="edge"><title>Node13&#45;&gt;Node19</title>
<path fill="none" stroke="midnightblue" d="M938.049,-86.0663C943.406,-84.5484 948.769,-83.1653 954,-82 1097.14,-50.1127 1137.68,-72.0388 1282,-46 1285.07,-45.4468 1288.18,-44.8457 1291.33,-44.2076"/>
<polygon fill="midnightblue" stroke="midnightblue" points="937.028,-82.7183 928.443,-88.926 939.026,-89.4273 937.028,-82.7183"/>
</g>
<!-- Node21 -->
<g id="node21" class="node"><title>Node21</title>
<g id="a_node21"><a xlink:href="content__module__manager_8cpp.xhtml" target="_top" xlink:title="/Users/rkwright/Documents\l/github/readium&#45;sdk&#45;D/ePub3\l/ePub/content_module_manager.cpp">
<polygon fill="white" stroke="black" points="1464.27,-1 1464.27,-45 1643.73,-45 1643.73,-1 1464.27,-1"/>
<text text-anchor="start" x="1472.27" y="-31" font-family="Helvetica,sans-Serif" font-size="10.00">/Users/rkwright/Documents</text>
<text text-anchor="start" x="1472.27" y="-19" font-family="Helvetica,sans-Serif" font-size="10.00">/github/readium&#45;sdk&#45;D/ePub3</text>
<text text-anchor="middle" x="1554" y="-7" font-family="Helvetica,sans-Serif" font-size="10.00">/ePub/content_module_manager.cpp</text>
</a>
</g>
</g>
<!-- Node20&#45;&gt;Node21 -->
<g id="edge23" class="edge"><title>Node20&#45;&gt;Node21</title>
<path fill="none" stroke="midnightblue" d="M1102.05,-86.0495C1107.4,-84.5354 1112.77,-83.1577 1118,-82 1265.07,-49.461 1306.36,-70.3765 1455,-46 1458.04,-45.5014 1461.13,-44.9681 1464.24,-44.4073"/>
<polygon fill="midnightblue" stroke="midnightblue" points="1101.03,-82.7008 1092.44,-88.904 1103.02,-89.4109 1101.03,-82.7008"/>
</g>
</g>
</svg>
