<?xml version="1.0" encoding="UTF-8" standalone="no"?>
<!DOCTYPE svg PUBLIC "-//W3C//DTD SVG 1.1//EN"
 "http://www.w3.org/Graphics/SVG/1.1/DTD/svg11.dtd">
<!-- Generated by graphviz version 2.30.0 (20130114.0426)
 -->
<!-- Title: /Users/rkwright/Documents/github/readium&#45;sdk&#45;D/ePub3/xml/utilities/io.cpp Pages: 1 -->
<svg width="490pt" height="170pt"
 viewBox="0.00 0.00 490.00 170.00" xmlns="http://www.w3.org/2000/svg" xmlns:xlink="http://www.w3.org/1999/xlink">
<g id="graph0" class="graph" transform="scale(1 1) rotate(0) translate(4 166)">
<title>/Users/rkwright/Documents/github/readium&#45;sdk&#45;D/ePub3/xml/utilities/io.cpp</title>
<polygon fill="white" stroke="white" points="-4,5 -4,-166 487,-166 487,5 -4,5"/>
<!-- Node1 -->
<g id="node1" class="node"><title>Node1</title>
<polygon fill="#bfbfbf" stroke="black" points="179.966,-117 179.966,-161 326.034,-161 326.034,-117 179.966,-117"/>
<text text-anchor="start" x="187.966" y="-147" font-family="Helvetica,sans-Serif" font-size="10.00">/Users/rkwright/Documents</text>
<text text-anchor="start" x="187.966" y="-135" font-family="Helvetica,sans-Serif" font-size="10.00">/github/readium&#45;sdk&#45;D/ePub3</text>
<text text-anchor="middle" x="253" y="-123" font-family="Helvetica,sans-Serif" font-size="10.00">/xml/utilities/io.cpp</text>
</g>
<!-- Node2 -->
<g id="node2" class="node"><title>Node2</title>
<g id="a_node2"><a xlink:href="io_8h.xhtml" target="_top" xlink:title="io.h">
<polygon fill="white" stroke="black" points="158.938,-59 158.938,-79 191.062,-79 191.062,-59 158.938,-59"/>
<text text-anchor="middle" x="175" y="-65" font-family="Helvetica,sans-Serif" font-size="10.00">io.h</text>
</a>
</g>
</g>
<!-- Node1&#45;&gt;Node2 -->
<g id="edge1" class="edge"><title>Node1&#45;&gt;Node2</title>
<path fill="none" stroke="midnightblue" d="M228.748,-116.857C217.315,-106.89 203.898,-95.1935 193.33,-85.9801"/>
<polygon fill="midnightblue" stroke="midnightblue" points="195.395,-83.1371 185.557,-79.2039 190.795,-88.4135 195.395,-83.1371"/>
</g>
<!-- Node6 -->
<g id="node6" class="node"><title>Node6</title>
<g id="a_node6"><a xlink:href="document_8h.xhtml" target="_top" xlink:title="../tree/document.h">
<polygon fill="white" stroke="black" points="249.7,-59 249.7,-79 346.3,-79 346.3,-59 249.7,-59"/>
<text text-anchor="middle" x="298" y="-65" font-family="Helvetica,sans-Serif" font-size="10.00">../tree/document.h</text>
</a>
</g>
</g>
<!-- Node1&#45;&gt;Node6 -->
<g id="edge5" class="edge"><title>Node1&#45;&gt;Node6</title>
<path fill="none" stroke="midnightblue" d="M266.992,-116.857C273.196,-107.482 280.412,-96.5771 286.321,-87.6475"/>
<polygon fill="midnightblue" stroke="midnightblue" points="289.309,-89.4748 291.909,-79.2039 283.472,-85.6117 289.309,-89.4748"/>
</g>
<!-- Node3 -->
<g id="node3" class="node"><title>Node3</title>
<polygon fill="white" stroke="#bfbfbf" points="-0.0244141,-1 -0.0244141,-21 96.0244,-21 96.0244,-1 -0.0244141,-1"/>
<text text-anchor="middle" x="48" y="-7" font-family="Helvetica,sans-Serif" font-size="10.00">ePub3/xml/base.h</text>
</g>
<!-- Node2&#45;&gt;Node3 -->
<g id="edge2" class="edge"><title>Node2&#45;&gt;Node3</title>
<path fill="none" stroke="midnightblue" d="M158.915,-60.9076C138.556,-51.9301 103.087,-36.2905 77.7392,-25.1134"/>
<polygon fill="midnightblue" stroke="midnightblue" points="79.1345,-21.9035 68.5724,-21.0713 76.3102,-28.3085 79.1345,-21.9035"/>
</g>
<!-- Node4 -->
<g id="node4" class="node"><title>Node4</title>
<polygon fill="white" stroke="#bfbfbf" points="113.828,-1 113.828,-21 168.172,-21 168.172,-1 113.828,-1"/>
<text text-anchor="middle" x="141" y="-7" font-family="Helvetica,sans-Serif" font-size="10.00">iostream</text>
</g>
<!-- Node2&#45;&gt;Node4 -->
<g id="edge3" class="edge"><title>Node2&#45;&gt;Node4</title>
<path fill="none" stroke="midnightblue" d="M169.386,-58.7527C164.633,-50.9242 157.682,-39.4761 151.848,-29.8679"/>
<polygon fill="midnightblue" stroke="midnightblue" points="154.692,-27.8066 146.51,-21.0752 148.708,-31.4395 154.692,-27.8066"/>
</g>
<!-- Node5 -->
<g id="node5" class="node"><title>Node5</title>
<polygon fill="white" stroke="#bfbfbf" points="186.549,-1 186.549,-21 231.451,-21 231.451,-1 186.549,-1"/>
<text text-anchor="middle" x="209" y="-7" font-family="Helvetica,sans-Serif" font-size="10.00">cstdint</text>
</g>
<!-- Node2&#45;&gt;Node5 -->
<g id="edge4" class="edge"><title>Node2&#45;&gt;Node5</title>
<path fill="none" stroke="midnightblue" d="M180.614,-58.7527C185.367,-50.9242 192.318,-39.4761 198.152,-29.8679"/>
<polygon fill="midnightblue" stroke="midnightblue" points="201.292,-31.4395 203.49,-21.0752 195.308,-27.8066 201.292,-31.4395"/>
</g>
<!-- Node7 -->
<g id="node7" class="node"><title>Node7</title>
<polygon fill="white" stroke="#bfbfbf" points="249.695,-1 249.695,-21 346.305,-21 346.305,-1 249.695,-1"/>
<text text-anchor="middle" x="298" y="-7" font-family="Helvetica,sans-Serif" font-size="10.00">ePub3/xml/node.h</text>
</g>
<!-- Node6&#45;&gt;Node7 -->
<g id="edge6" class="edge"><title>Node6&#45;&gt;Node7</title>
<path fill="none" stroke="midnightblue" d="M298,-58.7527C298,-51.2504 298,-40.4238 298,-31.0781"/>
<polygon fill="midnightblue" stroke="midnightblue" points="301.5,-31.0752 298,-21.0752 294.5,-31.0752 301.5,-31.0752"/>
</g>
<!-- Node8 -->
<g id="node8" class="node"><title>Node8</title>
<polygon fill="white" stroke="#bfbfbf" points="363.86,-1 363.86,-21 482.14,-21 482.14,-1 363.86,-1"/>
<text text-anchor="middle" x="423" y="-7" font-family="Helvetica,sans-Serif" font-size="10.00">ePub3/xml/document.h</text>
</g>
<!-- Node6&#45;&gt;Node8 -->
<g id="edge7" class="edge"><title>Node6&#45;&gt;Node8</title>
<path fill="none" stroke="midnightblue" d="M318.362,-58.878C338.701,-49.7661 370.184,-35.6617 393.306,-25.3028"/>
<polygon fill="midnightblue" stroke="midnightblue" points="394.952,-28.4007 402.647,-21.1181 392.09,-22.0125 394.952,-28.4007"/>
</g>
</g>
</svg>
