<?xml version="1.0" encoding="UTF-8" standalone="no"?>
<!DOCTYPE svg PUBLIC "-//W3C//DTD SVG 1.1//EN"
 "http://www.w3.org/Graphics/SVG/1.1/DTD/svg11.dtd">
<!-- Generated by graphviz version 2.30.0 (20130114.0426)
 -->
<!-- Title: /Users/rkwright/Documents/github/readium&#45;sdk&#45;D/ePub3/xml/utilities/io.h Pages: 1 -->
<svg width="239pt" height="112pt"
 viewBox="0.00 0.00 239.00 112.00" xmlns="http://www.w3.org/2000/svg" xmlns:xlink="http://www.w3.org/1999/xlink">
<g id="graph0" class="graph" transform="scale(1 1) rotate(0) translate(4 108)">
<title>/Users/rkwright/Documents/github/readium&#45;sdk&#45;D/ePub3/xml/utilities/io.h</title>
<polygon fill="white" stroke="white" points="-4,5 -4,-108 236,-108 236,5 -4,5"/>
<!-- Node1 -->
<g id="node1" class="node"><title>Node1</title>
<polygon fill="#bfbfbf" stroke="black" points="67.9658,-59 67.9658,-103 214.034,-103 214.034,-59 67.9658,-59"/>
<text text-anchor="start" x="75.9658" y="-89" font-family="Helvetica,sans-Serif" font-size="10.00">/Users/rkwright/Documents</text>
<text text-anchor="start" x="75.9658" y="-77" font-family="Helvetica,sans-Serif" font-size="10.00">/github/readium&#45;sdk&#45;D/ePub3</text>
<text text-anchor="middle" x="141" y="-65" font-family="Helvetica,sans-Serif" font-size="10.00">/xml/utilities/io.h</text>
</g>
<!-- Node2 -->
<g id="node2" class="node"><title>Node2</title>
<polygon fill="white" stroke="#bfbfbf" points="-0.0244141,-1 -0.0244141,-21 96.0244,-21 96.0244,-1 -0.0244141,-1"/>
<text text-anchor="middle" x="48" y="-7" font-family="Helvetica,sans-Serif" font-size="10.00">ePub3/xml/base.h</text>
</g>
<!-- Node1&#45;&gt;Node2 -->
<g id="edge1" class="edge"><title>Node1&#45;&gt;Node2</title>
<path fill="none" stroke="midnightblue" d="M112.084,-58.8571C98.0472,-48.5937 81.5035,-36.4972 68.7415,-27.1658"/>
<polygon fill="midnightblue" stroke="midnightblue" points="70.7259,-24.281 60.5877,-21.2039 66.5942,-29.9316 70.7259,-24.281"/>
</g>
<!-- Node3 -->
<g id="node3" class="node"><title>Node3</title>
<polygon fill="white" stroke="#bfbfbf" points="113.828,-1 113.828,-21 168.172,-21 168.172,-1 113.828,-1"/>
<text text-anchor="middle" x="141" y="-7" font-family="Helvetica,sans-Serif" font-size="10.00">iostream</text>
</g>
<!-- Node1&#45;&gt;Node3 -->
<g id="edge2" class="edge"><title>Node1&#45;&gt;Node3</title>
<path fill="none" stroke="midnightblue" d="M141,-58.8571C141,-50.074 141,-39.9484 141,-31.3622"/>
<polygon fill="midnightblue" stroke="midnightblue" points="144.5,-31.2039 141,-21.2039 137.5,-31.204 144.5,-31.2039"/>
</g>
<!-- Node4 -->
<g id="node4" class="node"><title>Node4</title>
<polygon fill="white" stroke="#bfbfbf" points="186.549,-1 186.549,-21 231.451,-21 231.451,-1 186.549,-1"/>
<text text-anchor="middle" x="209" y="-7" font-family="Helvetica,sans-Serif" font-size="10.00">cstdint</text>
</g>
<!-- Node1&#45;&gt;Node4 -->
<g id="edge3" class="edge"><title>Node1&#45;&gt;Node4</title>
<path fill="none" stroke="midnightblue" d="M162.143,-58.8571C171.913,-49.0871 183.344,-37.6561 192.47,-28.5303"/>
<polygon fill="midnightblue" stroke="midnightblue" points="195.2,-30.7499 199.796,-21.2039 190.25,-25.8001 195.2,-30.7499"/>
</g>
</g>
</svg>
