<?xml version="1.0" encoding="UTF-8" standalone="no"?>
<!DOCTYPE svg PUBLIC "-//W3C//DTD SVG 1.1//EN"
 "http://www.w3.org/Graphics/SVG/1.1/DTD/svg11.dtd">
<!-- Generated by graphviz version 2.30.0 (20130114.0426)
 -->
<!-- Title: /Users/rkwright/Documents/github/readium&#45;sdk&#45;D/ePub3/xml/utilities/io_win.cpp Pages: 1 -->
<svg width="832pt" height="170pt"
 viewBox="0.00 0.00 832.00 170.00" xmlns="http://www.w3.org/2000/svg" xmlns:xlink="http://www.w3.org/1999/xlink">
<g id="graph0" class="graph" transform="scale(1 1) rotate(0) translate(4 166)">
<title>/Users/rkwright/Documents/github/readium&#45;sdk&#45;D/ePub3/xml/utilities/io_win.cpp</title>
<polygon fill="white" stroke="white" points="-4,5 -4,-166 829,-166 829,5 -4,5"/>
<!-- Node1 -->
<g id="node1" class="node"><title>Node1</title>
<polygon fill="#bfbfbf" stroke="black" points="425.966,-117 425.966,-161 572.034,-161 572.034,-117 425.966,-117"/>
<text text-anchor="start" x="433.966" y="-147" font-family="Helvetica,sans-Serif" font-size="10.00">/Users/rkwright/Documents</text>
<text text-anchor="start" x="433.966" y="-135" font-family="Helvetica,sans-Serif" font-size="10.00">/github/readium&#45;sdk&#45;D/ePub3</text>
<text text-anchor="middle" x="499" y="-123" font-family="Helvetica,sans-Serif" font-size="10.00">/xml/utilities/io_win.cpp</text>
</g>
<!-- Node2 -->
<g id="node2" class="node"><title>Node2</title>
<g id="a_node2"><a xlink:href="io_8h.xhtml" target="_top" xlink:title="io.h">
<polygon fill="white" stroke="black" points="124.938,-59 124.938,-79 157.062,-79 157.062,-59 124.938,-59"/>
<text text-anchor="middle" x="141" y="-65" font-family="Helvetica,sans-Serif" font-size="10.00">io.h</text>
</a>
</g>
</g>
<!-- Node1&#45;&gt;Node2 -->
<g id="edge1" class="edge"><title>Node1&#45;&gt;Node2</title>
<path fill="none" stroke="midnightblue" d="M425.92,-129.719C360.052,-121.248 260.653,-105.966 166.877,-79.7946"/>
<polygon fill="midnightblue" stroke="midnightblue" points="167.813,-76.4219 157.237,-77.0594 165.902,-83.1561 167.813,-76.4219"/>
</g>
<!-- Node6 -->
<g id="node6" class="node"><title>Node6</title>
<polygon fill="white" stroke="#bfbfbf" points="174.86,-59 174.86,-79 293.14,-79 293.14,-59 174.86,-59"/>
<text text-anchor="middle" x="234" y="-65" font-family="Helvetica,sans-Serif" font-size="10.00">ePub3/xml/document.h</text>
</g>
<!-- Node1&#45;&gt;Node6 -->
<g id="edge5" class="edge"><title>Node1&#45;&gt;Node6</title>
<path fill="none" stroke="midnightblue" d="M425.886,-119.239C378.856,-107.171 319.24,-91.873 279.038,-81.557"/>
<polygon fill="midnightblue" stroke="midnightblue" points="279.811,-78.142 269.255,-79.0466 278.071,-84.9224 279.811,-78.142"/>
</g>
<!-- Node7 -->
<g id="node7" class="node"><title>Node7</title>
<polygon fill="white" stroke="#bfbfbf" points="311.488,-59 311.488,-79 372.512,-79 372.512,-59 311.488,-59"/>
<text text-anchor="middle" x="342" y="-65" font-family="Helvetica,sans-Serif" font-size="10.00">ppltasks.h</text>
</g>
<!-- Node1&#45;&gt;Node7 -->
<g id="edge6" class="edge"><title>Node1&#45;&gt;Node7</title>
<path fill="none" stroke="midnightblue" d="M450.185,-116.857C424.623,-105.786 394.136,-92.581 372.05,-83.0154"/>
<polygon fill="midnightblue" stroke="midnightblue" points="373.408,-79.7894 362.841,-79.0266 370.626,-86.2128 373.408,-79.7894"/>
</g>
<!-- Node8 -->
<g id="node8" class="node"><title>Node8</title>
<polygon fill="white" stroke="#bfbfbf" points="390.96,-59 390.96,-79 449.04,-79 449.04,-59 390.96,-59"/>
<text text-anchor="middle" x="420" y="-65" font-family="Helvetica,sans-Serif" font-size="10.00">robuffer.h</text>
</g>
<!-- Node1&#45;&gt;Node8 -->
<g id="edge7" class="edge"><title>Node1&#45;&gt;Node8</title>
<path fill="none" stroke="midnightblue" d="M474.437,-116.857C462.857,-106.89 449.269,-95.1935 438.565,-85.9801"/>
<polygon fill="midnightblue" stroke="midnightblue" points="440.555,-83.075 430.693,-79.2039 435.989,-88.3803 440.555,-83.075"/>
</g>
<!-- Node9 -->
<g id="node9" class="node"><title>Node9</title>
<polygon fill="white" stroke="#bfbfbf" points="467.382,-59 467.382,-79 530.618,-79 530.618,-59 467.382,-59"/>
<text text-anchor="middle" x="499" y="-65" font-family="Helvetica,sans-Serif" font-size="10.00">wrl/client.h</text>
</g>
<!-- Node1&#45;&gt;Node9 -->
<g id="edge8" class="edge"><title>Node1&#45;&gt;Node9</title>
<path fill="none" stroke="midnightblue" d="M499,-116.857C499,-108.074 499,-97.9484 499,-89.3622"/>
<polygon fill="midnightblue" stroke="midnightblue" points="502.5,-89.2039 499,-79.2039 495.5,-89.204 502.5,-89.2039"/>
</g>
<!-- Node10 -->
<g id="node10" class="node"><title>Node10</title>
<polygon fill="white" stroke="#bfbfbf" points="548.596,-59 548.596,-79 607.404,-79 607.404,-59 548.596,-59"/>
<text text-anchor="middle" x="578" y="-65" font-family="Helvetica,sans-Serif" font-size="10.00">functional</text>
</g>
<!-- Node1&#45;&gt;Node10 -->
<g id="edge9" class="edge"><title>Node1&#45;&gt;Node10</title>
<path fill="none" stroke="midnightblue" d="M523.563,-116.857C535.143,-106.89 548.731,-95.1935 559.435,-85.9801"/>
<polygon fill="midnightblue" stroke="midnightblue" points="562.011,-88.3803 567.307,-79.2039 557.445,-83.075 562.011,-88.3803"/>
</g>
<!-- Node11 -->
<g id="node11" class="node"><title>Node11</title>
<polygon fill="white" stroke="#bfbfbf" points="625.769,-59 625.769,-79 676.231,-79 676.231,-59 625.769,-59"/>
<text text-anchor="middle" x="651" y="-65" font-family="Helvetica,sans-Serif" font-size="10.00">codecvt</text>
</g>
<!-- Node1&#45;&gt;Node11 -->
<g id="edge10" class="edge"><title>Node1&#45;&gt;Node11</title>
<path fill="none" stroke="midnightblue" d="M546.261,-116.857C570.898,-105.835 600.26,-92.6994 621.619,-83.1443"/>
<polygon fill="midnightblue" stroke="midnightblue" points="623.124,-86.3052 630.823,-79.0266 620.265,-79.9154 623.124,-86.3052"/>
</g>
<!-- Node12 -->
<g id="node12" class="node"><title>Node12</title>
<polygon fill="white" stroke="#bfbfbf" points="694.219,-59 694.219,-79 745.781,-79 745.781,-59 694.219,-59"/>
<text text-anchor="middle" x="720" y="-65" font-family="Helvetica,sans-Serif" font-size="10.00">sstream</text>
</g>
<!-- Node1&#45;&gt;Node12 -->
<g id="edge11" class="edge"><title>Node1&#45;&gt;Node12</title>
<path fill="none" stroke="midnightblue" d="M567.412,-116.95C606.076,-105.054 652.821,-90.6704 684.301,-80.9844"/>
<polygon fill="midnightblue" stroke="midnightblue" points="685.427,-84.2999 693.955,-78.0138 683.368,-77.6095 685.427,-84.2999"/>
</g>
<!-- Node13 -->
<g id="node13" class="node"><title>Node13</title>
<polygon fill="white" stroke="#bfbfbf" points="763.773,-59 763.773,-79 824.227,-79 824.227,-59 763.773,-59"/>
<text text-anchor="middle" x="794" y="-65" font-family="Helvetica,sans-Serif" font-size="10.00">MsXml6.h</text>
</g>
<!-- Node1&#45;&gt;Node13 -->
<g id="edge12" class="edge"><title>Node1&#45;&gt;Node13</title>
<path fill="none" stroke="midnightblue" d="M572.192,-121.787C620.825,-110.913 686.351,-96.069 753.521,-80.0782"/>
<polygon fill="midnightblue" stroke="midnightblue" points="754.527,-83.4365 763.442,-77.7109 752.902,-76.6276 754.527,-83.4365"/>
</g>
<!-- Node3 -->
<g id="node3" class="node"><title>Node3</title>
<polygon fill="white" stroke="#bfbfbf" points="-0.0244141,-1 -0.0244141,-21 96.0244,-21 96.0244,-1 -0.0244141,-1"/>
<text text-anchor="middle" x="48" y="-7" font-family="Helvetica,sans-Serif" font-size="10.00">ePub3/xml/base.h</text>
</g>
<!-- Node2&#45;&gt;Node3 -->
<g id="edge2" class="edge"><title>Node2&#45;&gt;Node3</title>
<path fill="none" stroke="midnightblue" d="M125.643,-58.7527C111.017,-49.9457 88.783,-36.5575 71.8507,-26.3617"/>
<polygon fill="midnightblue" stroke="midnightblue" points="73.4436,-23.2354 63.0713,-21.0752 69.8326,-29.2321 73.4436,-23.2354"/>
</g>
<!-- Node4 -->
<g id="node4" class="node"><title>Node4</title>
<polygon fill="white" stroke="#bfbfbf" points="113.828,-1 113.828,-21 168.172,-21 168.172,-1 113.828,-1"/>
<text text-anchor="middle" x="141" y="-7" font-family="Helvetica,sans-Serif" font-size="10.00">iostream</text>
</g>
<!-- Node2&#45;&gt;Node4 -->
<g id="edge3" class="edge"><title>Node2&#45;&gt;Node4</title>
<path fill="none" stroke="midnightblue" d="M141,-58.7527C141,-51.2504 141,-40.4238 141,-31.0781"/>
<polygon fill="midnightblue" stroke="midnightblue" points="144.5,-31.0752 141,-21.0752 137.5,-31.0752 144.5,-31.0752"/>
</g>
<!-- Node5 -->
<g id="node5" class="node"><title>Node5</title>
<polygon fill="white" stroke="#bfbfbf" points="186.549,-1 186.549,-21 231.451,-21 231.451,-1 186.549,-1"/>
<text text-anchor="middle" x="209" y="-7" font-family="Helvetica,sans-Serif" font-size="10.00">cstdint</text>
</g>
<!-- Node2&#45;&gt;Node5 -->
<g id="edge4" class="edge"><title>Node2&#45;&gt;Node5</title>
<path fill="none" stroke="midnightblue" d="M152.229,-58.7527C162.527,-50.2718 177.984,-37.543 190.17,-27.5073"/>
<polygon fill="midnightblue" stroke="midnightblue" points="192.486,-30.1341 197.98,-21.0752 188.036,-24.7305 192.486,-30.1341"/>
</g>
</g>
</svg>
