<?xml version="1.0" encoding="UTF-8" standalone="no"?>
<!DOCTYPE svg PUBLIC "-//W3C//DTD SVG 1.1//EN"
 "http://www.w3.org/Graphics/SVG/1.1/DTD/svg11.dtd">
<!-- Generated by graphviz version 2.30.0 (20130114.0426)
 -->
<!-- Title: /Users/rkwright/Documents/github/readium&#45;sdk&#45;D/ePub3/ePub/link.cpp Pages: 1 -->
<svg width="2555pt" height="450pt"
 viewBox="0.00 0.00 2555.00 450.00" xmlns="http://www.w3.org/2000/svg" xmlns:xlink="http://www.w3.org/1999/xlink">
<g id="graph0" class="graph" transform="scale(1 1) rotate(0) translate(4 446)">
<title>/Users/rkwright/Documents/github/readium&#45;sdk&#45;D/ePub3/ePub/link.cpp</title>
<polygon fill="white" stroke="white" points="-4,5 -4,-446 2552,-446 2552,5 -4,5"/>
<!-- Node1 -->
<g id="node1" class="node"><title>Node1</title>
<polygon fill="#bfbfbf" stroke="black" points="465.966,-397 465.966,-441 612.034,-441 612.034,-397 465.966,-397"/>
<text text-anchor="start" x="473.966" y="-427" font-family="Helvetica,sans-Serif" font-size="10.00">/Users/rkwright/Documents</text>
<text text-anchor="start" x="473.966" y="-415" font-family="Helvetica,sans-Serif" font-size="10.00">/github/readium&#45;sdk&#45;D/ePub3</text>
<text text-anchor="middle" x="539" y="-403" font-family="Helvetica,sans-Serif" font-size="10.00">/ePub/link.cpp</text>
</g>
<!-- Node2 -->
<g id="node2" class="node"><title>Node2</title>
<g id="a_node2"><a xlink:href="link_8h.xhtml" target="_top" xlink:title="link.h">
<polygon fill="white" stroke="black" points="199.328,-333 199.328,-353 238.672,-353 238.672,-333 199.328,-333"/>
<text text-anchor="middle" x="219" y="-339" font-family="Helvetica,sans-Serif" font-size="10.00">link.h</text>
</a>
</g>
</g>
<!-- Node1&#45;&gt;Node2 -->
<g id="edge1" class="edge"><title>Node1&#45;&gt;Node2</title>
<path fill="none" stroke="midnightblue" d="M465.586,-401.023C396.994,-385.161 298.023,-362.274 248.94,-350.924"/>
<polygon fill="midnightblue" stroke="midnightblue" points="249.504,-347.462 238.973,-348.619 247.927,-354.282 249.504,-347.462"/>
</g>
<!-- Node14 -->
<g id="node14" class="node"><title>Node14</title>
<g id="a_node14"><a xlink:href="epub__collection_8h.xhtml" target="_top" xlink:title="epub_collection.h">
<polygon fill="white" stroke="black" points="367.082,-333 367.082,-353 460.918,-353 460.918,-333 367.082,-333"/>
<text text-anchor="middle" x="414" y="-339" font-family="Helvetica,sans-Serif" font-size="10.00">epub_collection.h</text>
</a>
</g>
</g>
<!-- Node1&#45;&gt;Node14 -->
<g id="edge13" class="edge"><title>Node1&#45;&gt;Node14</title>
<path fill="none" stroke="midnightblue" d="M503.514,-396.993C482.521,-384.564 456.491,-369.155 437.923,-358.162"/>
<polygon fill="midnightblue" stroke="midnightblue" points="439.598,-355.087 429.21,-353.004 436.032,-361.111 439.598,-355.087"/>
</g>
<!-- Node31 -->
<g id="node31" class="node"><title>Node31</title>
<g id="a_node31"><a xlink:href="package_8h.xhtml" target="_top" xlink:title="package.h">
<polygon fill="white" stroke="black" points="1114.93,-333 1114.93,-353 1177.07,-353 1177.07,-333 1114.93,-333"/>
<text text-anchor="middle" x="1146" y="-339" font-family="Helvetica,sans-Serif" font-size="10.00">package.h</text>
</a>
</g>
</g>
<!-- Node1&#45;&gt;Node31 -->
<g id="edge39" class="edge"><title>Node1&#45;&gt;Node31</title>
<path fill="none" stroke="midnightblue" d="M612.218,-409.074C740.735,-393.406 1002.89,-361.446 1104.48,-349.061"/>
<polygon fill="midnightblue" stroke="midnightblue" points="1105.15,-352.506 1114.65,-347.822 1104.3,-345.557 1105.15,-352.506"/>
</g>
<!-- Node46 -->
<g id="node46" class="node"><title>Node46</title>
<g id="a_node46"><a xlink:href="manifest_8h.xhtml" target="_top" xlink:title="manifest.h">
<polygon fill="white" stroke="black" points="507.934,-333 507.934,-353 570.066,-353 570.066,-333 507.934,-333"/>
<text text-anchor="middle" x="539" y="-339" font-family="Helvetica,sans-Serif" font-size="10.00">manifest.h</text>
</a>
</g>
</g>
<!-- Node1&#45;&gt;Node46 -->
<g id="edge70" class="edge"><title>Node1&#45;&gt;Node46</title>
<path fill="none" stroke="midnightblue" d="M539,-396.993C539,-386.323 539,-373.458 539,-363.075"/>
<polygon fill="midnightblue" stroke="midnightblue" points="542.5,-363.004 539,-353.004 535.5,-363.005 542.5,-363.004"/>
</g>
<!-- Node47 -->
<g id="node47" class="node"><title>Node47</title>
<g id="a_node47"><a xlink:href="error__handler_8h.xhtml" target="_top" xlink:title="ePub3/utilities/error\l_handler.h">
<polygon fill="white" stroke="black" points="2306.92,-327 2306.92,-359 2409.08,-359 2409.08,-327 2306.92,-327"/>
<text text-anchor="start" x="2314.92" y="-345" font-family="Helvetica,sans-Serif" font-size="10.00">ePub3/utilities/error</text>
<text text-anchor="middle" x="2358" y="-333" font-family="Helvetica,sans-Serif" font-size="10.00">_handler.h</text>
</a>
</g>
</g>
<!-- Node1&#45;&gt;Node47 -->
<g id="edge78" class="edge"><title>Node1&#45;&gt;Node47</title>
<path fill="none" stroke="midnightblue" d="M612.277,-415.019C909.438,-402.93 2021.9,-357.673 2296.45,-346.504"/>
<polygon fill="midnightblue" stroke="midnightblue" points="2296.78,-349.994 2306.63,-346.09 2296.49,-342.999 2296.78,-349.994"/>
</g>
<!-- Node3 -->
<g id="node3" class="node"><title>Node3</title>
<polygon fill="white" stroke="#bfbfbf" points="275.079,-263 275.079,-283 358.921,-283 358.921,-263 275.079,-263"/>
<text text-anchor="middle" x="317" y="-269" font-family="Helvetica,sans-Serif" font-size="10.00">ePub3/epub3.h</text>
</g>
<!-- Node2&#45;&gt;Node3 -->
<g id="edge2" class="edge"><title>Node2&#45;&gt;Node3</title>
<path fill="none" stroke="midnightblue" d="M232.217,-332.829C248.454,-321.563 276.217,-302.298 295.531,-288.897"/>
<polygon fill="midnightblue" stroke="midnightblue" points="297.772,-291.602 303.993,-283.025 293.781,-285.851 297.772,-291.602"/>
</g>
<!-- Node4 -->
<g id="node4" class="node"><title>Node4</title>
<polygon fill="white" stroke="#bfbfbf" points="-0.354492,-263 -0.354492,-283 92.3545,-283 92.3545,-263 -0.354492,-263"/>
<text text-anchor="middle" x="46" y="-269" font-family="Helvetica,sans-Serif" font-size="10.00">ePub3/Forward.h</text>
</g>
<!-- Node2&#45;&gt;Node4 -->
<g id="edge3" class="edge"><title>Node2&#45;&gt;Node4</title>
<path fill="none" stroke="midnightblue" d="M199.155,-334.2C169.706,-322.624 114.105,-300.77 78.6153,-286.82"/>
<polygon fill="midnightblue" stroke="midnightblue" points="79.7645,-283.511 69.1773,-283.11 77.2037,-290.026 79.7645,-283.511"/>
</g>
<!-- Node5 -->
<g id="node5" class="node"><title>Node5</title>
<g id="a_node5"><a xlink:href="string__view_8h.xhtml" target="_top" xlink:title="ePub3/utilities/string\l_view.h">
<polygon fill="white" stroke="black" points="201.254,-129 201.254,-161 306.746,-161 306.746,-129 201.254,-129"/>
<text text-anchor="start" x="209.254" y="-147" font-family="Helvetica,sans-Serif" font-size="10.00">ePub3/utilities/string</text>
<text text-anchor="middle" x="254" y="-135" font-family="Helvetica,sans-Serif" font-size="10.00">_view.h</text>
</a>
</g>
</g>
<!-- Node2&#45;&gt;Node5 -->
<g id="edge4" class="edge"><title>Node2&#45;&gt;Node5</title>
<path fill="none" stroke="midnightblue" d="M199.202,-334.572C181.132,-326.603 155.537,-312.038 144,-290 125.036,-253.775 122.121,-232.543 144,-198 154.878,-180.826 173.123,-169.215 191.659,-161.413"/>
<polygon fill="midnightblue" stroke="midnightblue" points="192.985,-164.652 201.045,-157.775 190.456,-158.125 192.985,-164.652"/>
</g>
<!-- Node6 -->
<g id="node6" class="node"><title>Node6</title>
<polygon fill="white" stroke="#bfbfbf" points="893.934,-65 893.934,-85 956.066,-85 956.066,-65 893.934,-65"/>
<text text-anchor="middle" x="925" y="-71" font-family="Helvetica,sans-Serif" font-size="10.00">type_traits</text>
</g>
<!-- Node5&#45;&gt;Node6 -->
<g id="edge5" class="edge"><title>Node5&#45;&gt;Node6</title>
<path fill="none" stroke="midnightblue" d="M306.827,-134.754C322.021,-132.31 338.638,-129.843 354,-128 552.33,-104.202 603.342,-112.89 802,-92 829.237,-89.1359 859.768,-85.1687 883.599,-81.9012"/>
<polygon fill="midnightblue" stroke="midnightblue" points="884.28,-85.3404 893.706,-80.5025 883.321,-78.4065 884.28,-85.3404"/>
</g>
<!-- Node7 -->
<g id="node7" class="node"><title>Node7</title>
<polygon fill="white" stroke="#bfbfbf" points="752.773,-65 752.773,-85 793.227,-85 793.227,-65 752.773,-65"/>
<text text-anchor="middle" x="773" y="-71" font-family="Helvetica,sans-Serif" font-size="10.00">string</text>
</g>
<!-- Node5&#45;&gt;Node7 -->
<g id="edge6" class="edge"><title>Node5&#45;&gt;Node7</title>
<path fill="none" stroke="midnightblue" d="M306.883,-135.183C322.078,-132.746 338.682,-130.175 354,-128 499.009,-107.408 672.909,-87.2822 742.262,-79.4396"/>
<polygon fill="midnightblue" stroke="midnightblue" points="742.93,-82.8865 752.474,-78.2881 742.145,-75.9306 742.93,-82.8865"/>
</g>
<!-- Node8 -->
<g id="node8" class="node"><title>Node8</title>
<polygon fill="white" stroke="#bfbfbf" points="461.613,-65 461.613,-85 500.387,-85 500.387,-65 461.613,-65"/>
<text text-anchor="middle" x="481" y="-71" font-family="Helvetica,sans-Serif" font-size="10.00">limits</text>
</g>
<!-- Node5&#45;&gt;Node8 -->
<g id="edge7" class="edge"><title>Node5&#45;&gt;Node8</title>
<path fill="none" stroke="midnightblue" d="M307.094,-130.776C361.016,-117.23 438.47,-97.4117 452,-92 453.652,-91.3393 455.328,-90.6047 456.998,-89.8235"/>
<polygon fill="midnightblue" stroke="midnightblue" points="459.008,-92.7254 466.294,-85.0335 455.801,-86.5029 459.008,-92.7254"/>
</g>
<!-- Node9 -->
<g id="node9" class="node"><title>Node9</title>
<polygon fill="white" stroke="#bfbfbf" points="226.828,-65 226.828,-85 281.172,-85 281.172,-65 226.828,-65"/>
<text text-anchor="middle" x="254" y="-71" font-family="Helvetica,sans-Serif" font-size="10.00">iostream</text>
</g>
<!-- Node5&#45;&gt;Node9 -->
<g id="edge8" class="edge"><title>Node5&#45;&gt;Node9</title>
<path fill="none" stroke="midnightblue" d="M254,-128.909C254,-118.919 254,-105.736 254,-95.0282"/>
<polygon fill="midnightblue" stroke="midnightblue" points="257.5,-95.0035 254,-85.0035 250.5,-95.0036 257.5,-95.0035"/>
</g>
<!-- Node10 -->
<g id="node10" class="node"><title>Node10</title>
<polygon fill="white" stroke="#bfbfbf" points="299.436,-65 299.436,-85 356.564,-85 356.564,-65 299.436,-65"/>
<text text-anchor="middle" x="328" y="-71" font-family="Helvetica,sans-Serif" font-size="10.00">algorithm</text>
</g>
<!-- Node5&#45;&gt;Node10 -->
<g id="edge9" class="edge"><title>Node5&#45;&gt;Node10</title>
<path fill="none" stroke="midnightblue" d="M270.423,-128.909C282.324,-117.972 298.39,-103.209 310.527,-92.0565"/>
<polygon fill="midnightblue" stroke="midnightblue" points="313.207,-94.347 318.202,-85.0035 308.471,-89.1927 313.207,-94.347"/>
</g>
<!-- Node11 -->
<g id="node11" class="node"><title>Node11</title>
<g id="a_node11"><a xlink:href="____strhash_8h.xhtml" target="_top" xlink:title="__strhash.h">
<polygon fill="white" stroke="black" points="374.872,-65 374.872,-85 443.128,-85 443.128,-65 374.872,-65"/>
<text text-anchor="middle" x="409" y="-71" font-family="Helvetica,sans-Serif" font-size="10.00">__strhash.h</text>
</a>
</g>
</g>
<!-- Node5&#45;&gt;Node11 -->
<g id="edge10" class="edge"><title>Node5&#45;&gt;Node11</title>
<path fill="none" stroke="midnightblue" d="M288.4,-128.909C315.605,-116.973 353.199,-100.48 379.148,-89.0963"/>
<polygon fill="midnightblue" stroke="midnightblue" points="380.726,-92.2262 388.477,-85.0035 377.914,-85.816 380.726,-92.2262"/>
</g>
<!-- Node12 -->
<g id="node12" class="node"><title>Node12</title>
<g id="a_node12"><a xlink:href="base_8h.xhtml" target="_top" xlink:title="ePub3/base.h">
<polygon fill="white" stroke="red" points="657.141,-1 657.141,-21 734.859,-21 734.859,-1 657.141,-1"/>
<text text-anchor="middle" x="696" y="-7" font-family="Helvetica,sans-Serif" font-size="10.00">ePub3/base.h</text>
</a>
</g>
</g>
<!-- Node11&#45;&gt;Node12 -->
<g id="edge11" class="edge"><title>Node11&#45;&gt;Node12</title>
<path fill="none" stroke="midnightblue" d="M431.611,-64.9851C438.413,-62.4891 445.946,-59.9367 453,-58 519.101,-39.8535 597.26,-26.4507 646.731,-18.9322"/>
<polygon fill="midnightblue" stroke="midnightblue" points="647.467,-22.3611 656.838,-17.4176 646.43,-15.4384 647.467,-22.3611"/>
</g>
<!-- Node13 -->
<g id="node13" class="node"><title>Node13</title>
<polygon fill="white" stroke="#bfbfbf" points="1075.94,-1 1075.94,-21 1128.06,-21 1128.06,-1 1075.94,-1"/>
<text text-anchor="middle" x="1102" y="-7" font-family="Helvetica,sans-Serif" font-size="10.00">memory</text>
</g>
<!-- Node11&#45;&gt;Node13 -->
<g id="edge12" class="edge"><title>Node11&#45;&gt;Node13</title>
<path fill="none" stroke="midnightblue" d="M430.134,-64.9666C437.272,-62.2811 445.368,-59.6249 453,-58 571.504,-32.7708 947.143,-17.5228 1065.75,-13.2443"/>
<polygon fill="midnightblue" stroke="midnightblue" points="1065.9,-16.7412 1075.77,-12.8869 1065.65,-9.74562 1065.9,-16.7412"/>
</g>
<!-- Node14&#45;&gt;Node3 -->
<g id="edge14" class="edge"><title>Node14&#45;&gt;Node3</title>
<path fill="none" stroke="midnightblue" d="M400.918,-332.829C384.847,-321.563 357.367,-302.298 338.25,-288.897"/>
<polygon fill="midnightblue" stroke="midnightblue" points="340.072,-285.9 329.875,-283.025 336.054,-291.632 340.072,-285.9"/>
</g>
<!-- Node15 -->
<g id="node15" class="node"><title>Node15</title>
<polygon fill="white" stroke="#bfbfbf" points="186.48,-263 186.48,-283 257.52,-283 257.52,-263 186.48,-263"/>
<text text-anchor="middle" x="222" y="-269" font-family="Helvetica,sans-Serif" font-size="10.00">ePub3/link.h</text>
</g>
<!-- Node14&#45;&gt;Node15 -->
<g id="edge15" class="edge"><title>Node14&#45;&gt;Node15</title>
<path fill="none" stroke="midnightblue" d="M388.037,-332.974C358.461,-322.669 308.699,-305.264 266,-290 262.862,-288.878 259.6,-287.705 256.335,-286.526"/>
<polygon fill="midnightblue" stroke="midnightblue" points="257.245,-283.133 246.65,-283.017 254.86,-289.715 257.245,-283.133"/>
</g>
<!-- Node16 -->
<g id="node16" class="node"><title>Node16</title>
<g id="a_node16"><a xlink:href="xml__identifiable_8h.xhtml" target="_top" xlink:title="ePub3/utilities/xml\l_identifiable.h">
<polygon fill="white" stroke="black" points="376.705,-257 376.705,-289 473.295,-289 473.295,-257 376.705,-257"/>
<text text-anchor="start" x="384.705" y="-275" font-family="Helvetica,sans-Serif" font-size="10.00">ePub3/utilities/xml</text>
<text text-anchor="middle" x="425" y="-263" font-family="Helvetica,sans-Serif" font-size="10.00">_identifiable.h</text>
</a>
</g>
</g>
<!-- Node14&#45;&gt;Node16 -->
<g id="edge16" class="edge"><title>Node14&#45;&gt;Node16</title>
<path fill="none" stroke="midnightblue" d="M415.484,-332.829C416.866,-324.281 418.994,-311.127 420.887,-299.424"/>
<polygon fill="midnightblue" stroke="midnightblue" points="424.39,-299.688 422.532,-289.258 417.48,-298.571 424.39,-299.688"/>
</g>
<!-- Node30 -->
<g id="node30" class="node"><title>Node30</title>
<polygon fill="white" stroke="#bfbfbf" points="567.234,-263 567.234,-283 692.766,-283 692.766,-263 567.234,-263"/>
<text text-anchor="middle" x="630" y="-269" font-family="Helvetica,sans-Serif" font-size="10.00">ePub3/property_holder.h</text>
</g>
<!-- Node14&#45;&gt;Node30 -->
<g id="edge37" class="edge"><title>Node14&#45;&gt;Node30</title>
<path fill="none" stroke="midnightblue" d="M442.683,-332.97C480.93,-320.929 548.754,-299.577 591.444,-286.138"/>
<polygon fill="midnightblue" stroke="midnightblue" points="592.711,-289.409 601.198,-283.067 590.609,-282.732 592.711,-289.409"/>
</g>
<!-- Node14&#45;&gt;Node5 -->
<g id="edge38" class="edge"><title>Node14&#45;&gt;Node5</title>
<path fill="none" stroke="midnightblue" d="M366.897,-338.499C304.717,-332.787 200.366,-319.049 177,-290 145.663,-251.042 194.047,-197.419 227.183,-167.826"/>
<polygon fill="midnightblue" stroke="midnightblue" points="229.562,-170.396 234.809,-161.192 224.967,-165.114 229.562,-170.396"/>
</g>
<!-- Node17 -->
<g id="node17" class="node"><title>Node17</title>
<g id="a_node17"><a xlink:href="utfstring_8h.xhtml" target="_top" xlink:title="ePub3/utilities/utfstring.h">
<polygon fill="white" stroke="black" points="525.525,-199 525.525,-219 650.475,-219 650.475,-199 525.525,-199"/>
<text text-anchor="middle" x="588" y="-205" font-family="Helvetica,sans-Serif" font-size="10.00">ePub3/utilities/utfstring.h</text>
</a>
</g>
</g>
<!-- Node16&#45;&gt;Node17 -->
<g id="edge17" class="edge"><title>Node16&#45;&gt;Node17</title>
<path fill="none" stroke="midnightblue" d="M464.458,-256.992C492.028,-246.505 528.437,-232.656 554.577,-222.713"/>
<polygon fill="midnightblue" stroke="midnightblue" points="555.95,-225.935 564.053,-219.109 553.462,-219.393 555.95,-225.935"/>
</g>
<!-- Node18 -->
<g id="node18" class="node"><title>Node18</title>
<g id="a_node18"><a xlink:href="basic_8h.xhtml" target="_top" xlink:title="ePub3/utilities/basic.h">
<polygon fill="white" stroke="black" points="1282.64,-135 1282.64,-155 1395.36,-155 1395.36,-135 1282.64,-135"/>
<text text-anchor="middle" x="1339" y="-141" font-family="Helvetica,sans-Serif" font-size="10.00">ePub3/utilities/basic.h</text>
</a>
</g>
</g>
<!-- Node17&#45;&gt;Node18 -->
<g id="edge18" class="edge"><title>Node17&#45;&gt;Node18</title>
<path fill="none" stroke="midnightblue" d="M650.521,-205.207C796.182,-198.472 1154.8,-180.523 1274,-162 1281.59,-160.821 1289.58,-159.186 1297.28,-157.407"/>
<polygon fill="midnightblue" stroke="midnightblue" points="1298.26,-160.77 1307.16,-155.014 1296.61,-153.967 1298.26,-160.77"/>
</g>
<!-- Node23 -->
<g id="node23" class="node"><title>Node23</title>
<g id="a_node23"><a xlink:href="integer__sequence_8h.xhtml" target="_top" xlink:title="ePub3/utilities/integer\l_sequence.h">
<polygon fill="white" stroke="black" points="97.1924,-59 97.1924,-91 208.808,-91 208.808,-59 97.1924,-59"/>
<text text-anchor="start" x="105.192" y="-77" font-family="Helvetica,sans-Serif" font-size="10.00">ePub3/utilities/integer</text>
<text text-anchor="middle" x="153" y="-65" font-family="Helvetica,sans-Serif" font-size="10.00">_sequence.h</text>
</a>
</g>
</g>
<!-- Node17&#45;&gt;Node23 -->
<g id="edge25" class="edge"><title>Node17&#45;&gt;Node23</title>
<path fill="none" stroke="midnightblue" d="M525.45,-208.056C427.491,-206.954 243.718,-199.736 192,-162 172.355,-147.666 162.381,-121.068 157.468,-101.231"/>
<polygon fill="midnightblue" stroke="midnightblue" points="160.85,-100.316 155.282,-91.302 154.014,-101.821 160.85,-100.316"/>
</g>
<!-- Node17&#45;&gt;Node5 -->
<g id="edge27" class="edge"><title>Node17&#45;&gt;Node5</title>
<path fill="none" stroke="midnightblue" d="M529.201,-198.975C474.966,-190.39 392.302,-176.64 321,-162 319.715,-161.736 318.417,-161.466 317.11,-161.189"/>
<polygon fill="midnightblue" stroke="midnightblue" points="317.477,-157.687 306.961,-158.977 315.986,-164.527 317.477,-157.687"/>
</g>
<!-- Node17&#45;&gt;Node7 -->
<g id="edge28" class="edge"><title>Node17&#45;&gt;Node7</title>
<path fill="none" stroke="midnightblue" d="M643.574,-198.92C685.669,-190.922 738.771,-178.057 754,-162 770.976,-144.101 774.101,-114.606 774.091,-95.2392"/>
<polygon fill="midnightblue" stroke="midnightblue" points="777.588,-95.0674 773.804,-85.1713 770.591,-95.2671 777.588,-95.0674"/>
</g>
<!-- Node24 -->
<g id="node24" class="node"><title>Node24</title>
<polygon fill="white" stroke="#bfbfbf" points="363.438,-135 363.438,-155 410.562,-155 410.562,-135 363.438,-135"/>
<text text-anchor="middle" x="387" y="-141" font-family="Helvetica,sans-Serif" font-size="10.00">iterator</text>
</g>
<!-- Node17&#45;&gt;Node24 -->
<g id="edge29" class="edge"><title>Node17&#45;&gt;Node24</title>
<path fill="none" stroke="midnightblue" d="M546.939,-198.995C512.507,-190.916 462.321,-177.899 420,-162 417.869,-161.2 415.69,-160.311 413.517,-159.374"/>
<polygon fill="midnightblue" stroke="midnightblue" points="414.753,-156.089 404.206,-155.082 411.823,-162.446 414.753,-156.089"/>
</g>
<!-- Node25 -->
<g id="node25" class="node"><title>Node25</title>
<polygon fill="white" stroke="#bfbfbf" points="428.936,-135 428.936,-155 471.064,-155 471.064,-135 428.936,-135"/>
<text text-anchor="middle" x="450" y="-141" font-family="Helvetica,sans-Serif" font-size="10.00">locale</text>
</g>
<!-- Node17&#45;&gt;Node25 -->
<g id="edge30" class="edge"><title>Node17&#45;&gt;Node25</title>
<path fill="none" stroke="midnightblue" d="M564.987,-198.879C542.944,-189.983 508.862,-175.811 480,-162 478.463,-161.264 476.89,-160.491 475.31,-159.698"/>
<polygon fill="midnightblue" stroke="midnightblue" points="476.861,-156.56 466.373,-155.064 473.64,-162.774 476.861,-156.56"/>
</g>
<!-- Node21 -->
<g id="node21" class="node"><title>Node21</title>
<polygon fill="white" stroke="#bfbfbf" points="1068.38,-65 1068.38,-85 1111.62,-85 1111.62,-65 1068.38,-65"/>
<text text-anchor="middle" x="1090" y="-71" font-family="Helvetica,sans-Serif" font-size="10.00">vector</text>
</g>
<!-- Node17&#45;&gt;Node21 -->
<g id="edge31" class="edge"><title>Node17&#45;&gt;Node21</title>
<path fill="none" stroke="midnightblue" d="M646.244,-198.991C684.45,-191.843 734.935,-180.012 777,-162 802.727,-150.984 804.051,-138.482 830,-128 871.271,-111.329 998.561,-90.1709 1058.36,-80.8184"/>
<polygon fill="midnightblue" stroke="midnightblue" points="1059.02,-84.2575 1068.36,-79.265 1057.95,-77.3404 1059.02,-84.2575"/>
</g>
<!-- Node26 -->
<g id="node26" class="node"><title>Node26</title>
<polygon fill="white" stroke="#bfbfbf" points="488.766,-135 488.766,-155 589.234,-155 589.234,-135 488.766,-135"/>
<text text-anchor="middle" x="539" y="-141" font-family="Helvetica,sans-Serif" font-size="10.00">REGEX_INCLUDE</text>
</g>
<!-- Node17&#45;&gt;Node26 -->
<g id="edge32" class="edge"><title>Node17&#45;&gt;Node26</title>
<path fill="none" stroke="midnightblue" d="M580.77,-198.852C573.387,-189.511 561.748,-174.784 552.63,-163.246"/>
<polygon fill="midnightblue" stroke="midnightblue" points="555.206,-160.861 546.26,-155.186 549.714,-165.202 555.206,-160.861"/>
</g>
<!-- Node27 -->
<g id="node27" class="node"><title>Node27</title>
<polygon fill="white" stroke="#bfbfbf" points="839.273,-135 839.273,-155 874.727,-155 874.727,-135 839.273,-135"/>
<text text-anchor="middle" x="857" y="-141" font-family="Helvetica,sans-Serif" font-size="10.00">map</text>
</g>
<!-- Node17&#45;&gt;Node27 -->
<g id="edge33" class="edge"><title>Node17&#45;&gt;Node27</title>
<path fill="none" stroke="midnightblue" d="M643.871,-198.959C703,-189.07 792.211,-173.146 825,-162 827.282,-161.224 829.608,-160.316 831.912,-159.333"/>
<polygon fill="midnightblue" stroke="midnightblue" points="833.526,-162.442 841.089,-155.022 830.55,-156.106 833.526,-162.442"/>
</g>
<!-- Node28 -->
<g id="node28" class="node"><title>Node28</title>
<polygon fill="white" stroke="#bfbfbf" points="607.599,-135 607.599,-155 666.401,-155 666.401,-135 607.599,-135"/>
<text text-anchor="middle" x="637" y="-141" font-family="Helvetica,sans-Serif" font-size="10.00">stdexcept</text>
</g>
<!-- Node17&#45;&gt;Node28 -->
<g id="edge34" class="edge"><title>Node17&#45;&gt;Node28</title>
<path fill="none" stroke="midnightblue" d="M595.23,-198.852C602.613,-189.511 614.252,-174.784 623.37,-163.246"/>
<polygon fill="midnightblue" stroke="midnightblue" points="626.286,-165.202 629.74,-155.186 620.794,-160.861 626.286,-165.202"/>
</g>
<!-- Node17&#45;&gt;Node8 -->
<g id="edge35" class="edge"><title>Node17&#45;&gt;Node8</title>
<path fill="none" stroke="midnightblue" d="M525.322,-199.82C459.779,-190.626 364.899,-175.25 354,-162 344.401,-150.33 345.351,-140.391 354,-128 380.558,-89.9506 409.786,-111.263 452,-92 453.546,-91.2943 455.123,-90.5382 456.701,-89.7528"/>
<polygon fill="midnightblue" stroke="midnightblue" points="458.355,-92.8375 465.571,-85.0802 455.092,-86.6441 458.355,-92.8375"/>
</g>
<!-- Node29 -->
<g id="node29" class="node"><title>Node29</title>
<polygon fill="white" stroke="#bfbfbf" points="684.761,-135 684.761,-155 745.239,-155 745.239,-135 684.761,-135"/>
<text text-anchor="middle" x="715" y="-141" font-family="Helvetica,sans-Serif" font-size="10.00">utf8/utf8.h</text>
</g>
<!-- Node17&#45;&gt;Node29 -->
<g id="edge36" class="edge"><title>Node17&#45;&gt;Node29</title>
<path fill="none" stroke="midnightblue" d="M606.467,-198.985C627.724,-188.607 662.851,-171.458 687.366,-159.49"/>
<polygon fill="midnightblue" stroke="midnightblue" points="689.06,-162.559 696.511,-155.026 685.989,-156.268 689.06,-162.559"/>
</g>
<!-- Node18&#45;&gt;Node12 -->
<g id="edge19" class="edge"><title>Node18&#45;&gt;Node12</title>
<path fill="none" stroke="midnightblue" d="M1320.8,-134.918C1283.93,-116.963 1197.35,-77.021 1120,-58 987.022,-25.2987 824.885,-15.8386 745.126,-13.1063"/>
<polygon fill="midnightblue" stroke="midnightblue" points="744.998,-9.60052 734.891,-12.7775 744.773,-16.5969 744.998,-9.60052"/>
</g>
<!-- Node19 -->
<g id="node19" class="node"><title>Node19</title>
<polygon fill="white" stroke="#bfbfbf" points="1362.82,-65 1362.82,-85 1477.18,-85 1477.18,-65 1362.82,-65"/>
<text text-anchor="middle" x="1420" y="-71" font-family="Helvetica,sans-Serif" font-size="10.00">ePub3/xml/xmlstring.h</text>
</g>
<!-- Node18&#45;&gt;Node19 -->
<g id="edge20" class="edge"><title>Node18&#45;&gt;Node19</title>
<path fill="none" stroke="midnightblue" d="M1349.92,-134.829C1363.04,-123.818 1385.26,-105.166 1401.16,-91.8151"/>
<polygon fill="midnightblue" stroke="midnightblue" points="1403.84,-94.1358 1409.25,-85.0255 1399.34,-88.7746 1403.84,-94.1358"/>
</g>
<!-- Node20 -->
<g id="node20" class="node"><title>Node20</title>
<polygon fill="white" stroke="#bfbfbf" points="1255.22,-65 1255.22,-85 1306.78,-85 1306.78,-65 1255.22,-65"/>
<text text-anchor="middle" x="1281" y="-71" font-family="Helvetica,sans-Serif" font-size="10.00">sstream</text>
</g>
<!-- Node18&#45;&gt;Node20 -->
<g id="edge21" class="edge"><title>Node18&#45;&gt;Node20</title>
<path fill="none" stroke="midnightblue" d="M1331.18,-134.829C1322.05,-124.124 1306.76,-106.196 1295.45,-92.9397"/>
<polygon fill="midnightblue" stroke="midnightblue" points="1297.85,-90.3625 1288.7,-85.0255 1292.52,-94.9052 1297.85,-90.3625"/>
</g>
<!-- Node18&#45;&gt;Node13 -->
<g id="edge22" class="edge"><title>Node18&#45;&gt;Node13</title>
<path fill="none" stroke="midnightblue" d="M1339.31,-134.939C1339.38,-117.377 1336.89,-78.6228 1315,-58 1289.9,-34.3462 1192.49,-21.0509 1138.52,-15.3584"/>
<polygon fill="midnightblue" stroke="midnightblue" points="1138.64,-11.8528 1128.34,-14.3204 1137.93,-18.8167 1138.64,-11.8528"/>
</g>
<!-- Node18&#45;&gt;Node21 -->
<g id="edge23" class="edge"><title>Node18&#45;&gt;Node21</title>
<path fill="none" stroke="midnightblue" d="M1305.93,-134.97C1257.74,-121.81 1168.82,-97.5259 1121.52,-84.6081"/>
<polygon fill="midnightblue" stroke="midnightblue" points="1122.38,-81.2152 1111.81,-81.9571 1120.54,-87.968 1122.38,-81.2152"/>
</g>
<!-- Node22 -->
<g id="node22" class="node"><title>Node22</title>
<polygon fill="white" stroke="#bfbfbf" points="1878.5,-65 1878.5,-85 1907.5,-85 1907.5,-65 1878.5,-65"/>
<text text-anchor="middle" x="1892.61" y="-71" font-family="Helvetica,sans-Serif" font-size="10.00">list</text>
</g>
<!-- Node18&#45;&gt;Node22 -->
<g id="edge24" class="edge"><title>Node18&#45;&gt;Node22</title>
<path fill="none" stroke="midnightblue" d="M1395.43,-137.074C1514.04,-122.514 1785.16,-89.2372 1868.3,-79.0319"/>
<polygon fill="midnightblue" stroke="midnightblue" points="1868.83,-82.4929 1878.33,-77.8006 1867.98,-75.545 1868.83,-82.4929"/>
</g>
<!-- Node23&#45;&gt;Node12 -->
<g id="edge26" class="edge"><title>Node23&#45;&gt;Node12</title>
<path fill="none" stroke="midnightblue" d="M208.912,-59.6898C211.977,-59.0764 215.021,-58.5072 218,-58 373.386,-31.5433 559.973,-19.0751 646.922,-14.3637"/>
<polygon fill="midnightblue" stroke="midnightblue" points="647.223,-17.8528 657.023,-13.8272 646.851,-10.8626 647.223,-17.8528"/>
</g>
<!-- Node31&#45;&gt;Node3 -->
<g id="edge40" class="edge"><title>Node31&#45;&gt;Node3</title>
<path fill="none" stroke="midnightblue" d="M1114.91,-342.549C1009.21,-343.86 654.394,-343.705 368,-290 362.528,-288.974 356.819,-287.55 351.285,-285.971"/>
<polygon fill="midnightblue" stroke="midnightblue" points="352.189,-282.587 341.603,-283.013 350.144,-289.282 352.189,-282.587"/>
</g>
<!-- Node31&#45;&gt;Node7 -->
<g id="edge41" class="edge"><title>Node31&#45;&gt;Node7</title>
<path fill="none" stroke="midnightblue" d="M1135.41,-332.805C1117.02,-316.9 1077.9,-283.33 1044,-256 990.71,-213.039 974.933,-205.399 922,-162 904.217,-147.42 902.244,-140.589 883,-128 857.439,-111.278 825.658,-96.8563 802.839,-87.4711"/>
<polygon fill="midnightblue" stroke="midnightblue" points="803.93,-84.1373 793.347,-83.6443 801.313,-90.6296 803.93,-84.1373"/>
</g>
<!-- Node31&#45;&gt;Node21 -->
<g id="edge42" class="edge"><title>Node31&#45;&gt;Node21</title>
<path fill="none" stroke="midnightblue" d="M1140.74,-332.733C1135.21,-322.57 1126.67,-305.624 1122,-290 1101.14,-220.197 1093.52,-133.338 1091.05,-95.3263"/>
<polygon fill="midnightblue" stroke="midnightblue" points="1094.54,-94.943 1090.44,-85.1707 1087.55,-95.3624 1094.54,-94.943"/>
</g>
<!-- Node31&#45;&gt;Node27 -->
<g id="edge43" class="edge"><title>Node31&#45;&gt;Node27</title>
<path fill="none" stroke="midnightblue" d="M1127.29,-332.862C1107.76,-323.072 1076.49,-306.679 1051,-290 1050.13,-289.428 932.843,-198.617 932,-198 914.534,-185.207 894.346,-171.256 879.318,-161.028"/>
<polygon fill="midnightblue" stroke="midnightblue" points="880.939,-157.899 870.698,-155.185 877.011,-163.693 880.939,-157.899"/>
</g>
<!-- Node31&#45;&gt;Node22 -->
<g id="edge44" class="edge"><title>Node31&#45;&gt;Node22</title>
<path fill="none" stroke="midnightblue" d="M1177.33,-341.733C1353.56,-340.081 2214.86,-329.977 2253,-290 2363.91,-173.76 2015.14,-98.749 1917.61,-80.3956"/>
<polygon fill="midnightblue" stroke="midnightblue" points="1918.21,-76.9468 1907.74,-78.5712 1916.94,-83.8302 1918.21,-76.9468"/>
</g>
<!-- Node32 -->
<g id="node32" class="node"><title>Node32</title>
<polygon fill="white" stroke="#bfbfbf" points="710.695,-263 710.695,-283 807.305,-283 807.305,-263 710.695,-263"/>
<text text-anchor="middle" x="759" y="-269" font-family="Helvetica,sans-Serif" font-size="10.00">ePub3/xml/node.h</text>
</g>
<!-- Node31&#45;&gt;Node32 -->
<g id="edge45" class="edge"><title>Node31&#45;&gt;Node32</title>
<path fill="none" stroke="midnightblue" d="M1114.9,-338.015C1056.84,-330.355 928.121,-312.34 821,-290 814.715,-288.689 808.111,-287.156 801.651,-285.567"/>
<polygon fill="midnightblue" stroke="midnightblue" points="802.238,-282.105 791.685,-283.048 800.523,-288.892 802.238,-282.105"/>
</g>
<!-- Node33 -->
<g id="node33" class="node"><title>Node33</title>
<g id="a_node33"><a xlink:href="owned__by_8h.xhtml" target="_top" xlink:title="ePub3/utilities/owned_by.h">
<polygon fill="white" stroke="black" points="1130.88,-135 1130.88,-155 1265.12,-155 1265.12,-135 1130.88,-135"/>
<text text-anchor="middle" x="1198" y="-141" font-family="Helvetica,sans-Serif" font-size="10.00">ePub3/utilities/owned_by.h</text>
</a>
</g>
</g>
<!-- Node31&#45;&gt;Node33 -->
<g id="edge46" class="edge"><title>Node31&#45;&gt;Node33</title>
<path fill="none" stroke="midnightblue" d="M1177.3,-340.281C1238.31,-336.207 1369.61,-323.649 1397,-290 1447.66,-227.775 1316.36,-179.231 1243.2,-157.871"/>
<polygon fill="midnightblue" stroke="midnightblue" points="1243.87,-154.421 1233.29,-155.039 1241.94,-161.152 1243.87,-154.421"/>
</g>
<!-- Node34 -->
<g id="node34" class="node"><title>Node34</title>
<polygon fill="white" stroke="#bfbfbf" points="1444.91,-263 1444.91,-283 1547.09,-283 1547.09,-263 1444.91,-263"/>
<text text-anchor="middle" x="1496" y="-269" font-family="Helvetica,sans-Serif" font-size="10.00">ePub3/encryption.h</text>
</g>
<!-- Node31&#45;&gt;Node34 -->
<g id="edge49" class="edge"><title>Node31&#45;&gt;Node34</title>
<path fill="none" stroke="midnightblue" d="M1177.33,-336.925C1229.94,-328.261 1339.28,-309.638 1431,-290 1437.57,-288.594 1444.48,-287.008 1451.25,-285.394"/>
<polygon fill="midnightblue" stroke="midnightblue" points="1452.11,-288.786 1461.01,-283.028 1450.46,-281.983 1452.11,-288.786"/>
</g>
<!-- Node35 -->
<g id="node35" class="node"><title>Node35</title>
<polygon fill="white" stroke="#bfbfbf" points="1565.03,-263 1565.03,-283 1644.97,-283 1644.97,-263 1565.03,-263"/>
<text text-anchor="middle" x="1605" y="-269" font-family="Helvetica,sans-Serif" font-size="10.00">ePub3/spine.h</text>
</g>
<!-- Node31&#45;&gt;Node35 -->
<g id="edge50" class="edge"><title>Node31&#45;&gt;Node35</title>
<path fill="none" stroke="midnightblue" d="M1177.21,-340.067C1246.21,-335.352 1416.69,-321.283 1556,-290 1560.77,-288.929 1565.73,-287.587 1570.59,-286.137"/>
<polygon fill="midnightblue" stroke="midnightblue" points="1571.84,-289.413 1580.33,-283.065 1569.74,-282.738 1571.84,-289.413"/>
</g>
<!-- Node36 -->
<g id="node36" class="node"><title>Node36</title>
<polygon fill="white" stroke="#bfbfbf" points="1663.09,-263 1663.09,-283 1756.91,-283 1756.91,-263 1663.09,-263"/>
<text text-anchor="middle" x="1710" y="-269" font-family="Helvetica,sans-Serif" font-size="10.00">ePub3/manifest.h</text>
</g>
<!-- Node31&#45;&gt;Node36 -->
<g id="edge51" class="edge"><title>Node31&#45;&gt;Node36</title>
<path fill="none" stroke="midnightblue" d="M1177.13,-340.666C1256.89,-336.848 1474.8,-323.889 1653,-290 1659.02,-288.856 1665.32,-287.378 1671.45,-285.783"/>
<polygon fill="midnightblue" stroke="midnightblue" points="1672.8,-289.042 1681.52,-283.027 1670.95,-282.29 1672.8,-289.042"/>
</g>
<!-- Node37 -->
<g id="node37" class="node"><title>Node37</title>
<polygon fill="white" stroke="#bfbfbf" points="1774.98,-263 1774.98,-283 1841.02,-283 1841.02,-263 1774.98,-263"/>
<text text-anchor="middle" x="1808" y="-269" font-family="Helvetica,sans-Serif" font-size="10.00">ePub3/cfi.h</text>
</g>
<!-- Node31&#45;&gt;Node37 -->
<g id="edge52" class="edge"><title>Node31&#45;&gt;Node37</title>
<path fill="none" stroke="midnightblue" d="M1177.37,-342.354C1269.04,-342.754 1543.99,-339.426 1765,-290 1769,-289.106 1773.12,-287.926 1777.16,-286.611"/>
<polygon fill="midnightblue" stroke="midnightblue" points="1778.66,-289.793 1786.91,-283.149 1776.32,-283.197 1778.66,-289.793"/>
</g>
<!-- Node38 -->
<g id="node38" class="node"><title>Node38</title>
<polygon fill="white" stroke="#bfbfbf" points="1859.35,-263 1859.35,-283 1972.65,-283 1972.65,-263 1859.35,-263"/>
<text text-anchor="middle" x="1916" y="-269" font-family="Helvetica,sans-Serif" font-size="10.00">ePub3/nav_element.h</text>
</g>
<!-- Node31&#45;&gt;Node38 -->
<g id="edge53" class="edge"><title>Node31&#45;&gt;Node38</title>
<path fill="none" stroke="midnightblue" d="M1177.09,-341.52C1276.01,-339.604 1592.12,-330.502 1850,-290 1857.61,-288.804 1865.64,-287.176 1873.37,-285.415"/>
<polygon fill="midnightblue" stroke="midnightblue" points="1874.4,-288.769 1883.31,-283.047 1872.78,-281.96 1874.4,-288.769"/>
</g>
<!-- Node39 -->
<g id="node39" class="node"><title>Node39</title>
<polygon fill="white" stroke="#bfbfbf" points="1990.31,-263 1990.31,-283 2099.69,-283 2099.69,-263 1990.31,-263"/>
<text text-anchor="middle" x="2045" y="-269" font-family="Helvetica,sans-Serif" font-size="10.00">ePub3/archive_xml.h</text>
</g>
<!-- Node31&#45;&gt;Node39 -->
<g id="edge54" class="edge"><title>Node31&#45;&gt;Node39</title>
<path fill="none" stroke="midnightblue" d="M1177.31,-342.104C1287.9,-342.037 1670.24,-338.107 1981,-290 1988.48,-288.843 1996.36,-287.217 2003.93,-285.443"/>
<polygon fill="midnightblue" stroke="midnightblue" points="2004.78,-288.837 2013.66,-283.05 2003.11,-282.04 2004.78,-288.837"/>
</g>
<!-- Node31&#45;&gt;Node17 -->
<g id="edge55" class="edge"><title>Node31&#45;&gt;Node17</title>
<path fill="none" stroke="midnightblue" d="M1114.85,-340.265C1065.46,-336.516 967.092,-324.939 892,-290 869.91,-279.722 871.229,-265.973 849,-256 789.055,-229.104 714.777,-217.901 660.807,-213.252"/>
<polygon fill="midnightblue" stroke="midnightblue" points="660.883,-209.747 650.634,-212.432 660.321,-216.724 660.883,-209.747"/>
</g>
<!-- Node40 -->
<g id="node40" class="node"><title>Node40</title>
<g id="a_node40"><a xlink:href="iri_8h.xhtml" target="_top" xlink:title="ePub3/utilities/iri.h">
<polygon fill="white" stroke="black" points="901.424,-263 901.424,-283 998.576,-283 998.576,-263 901.424,-263"/>
<text text-anchor="middle" x="950" y="-269" font-family="Helvetica,sans-Serif" font-size="10.00">ePub3/utilities/iri.h</text>
</a>
</g>
</g>
<!-- Node31&#45;&gt;Node40 -->
<g id="edge56" class="edge"><title>Node31&#45;&gt;Node40</title>
<path fill="none" stroke="midnightblue" d="M1119.97,-332.97C1085.56,-321.031 1024.76,-299.937 985.972,-286.48"/>
<polygon fill="midnightblue" stroke="midnightblue" points="986.73,-283.038 976.135,-283.067 984.435,-289.652 986.73,-283.038"/>
</g>
<!-- Node43 -->
<g id="node43" class="node"><title>Node43</title>
<polygon fill="white" stroke="#bfbfbf" points="2117.39,-263 2117.39,-283 2244.61,-283 2244.61,-263 2117.39,-263"/>
<text text-anchor="middle" x="2181" y="-269" font-family="Helvetica,sans-Serif" font-size="10.00">ePub3/content_handler.h</text>
</g>
<!-- Node31&#45;&gt;Node43 -->
<g id="edge64" class="edge"><title>Node31&#45;&gt;Node43</title>
<path fill="none" stroke="midnightblue" d="M1177.32,-342.142C1298.04,-342.3 1744.62,-339.314 2108,-290 2116.87,-288.796 2126.27,-287.078 2135.26,-285.211"/>
<polygon fill="midnightblue" stroke="midnightblue" points="2136.16,-288.597 2145.19,-283.058 2134.68,-281.756 2136.16,-288.597"/>
</g>
<!-- Node44 -->
<g id="node44" class="node"><title>Node44</title>
<polygon fill="white" stroke="#bfbfbf" points="1131.08,-257 1131.08,-289 1244.92,-289 1244.92,-257 1131.08,-257"/>
<text text-anchor="start" x="1139.08" y="-275" font-family="Helvetica,sans-Serif" font-size="10.00">ePub3/media_support</text>
<text text-anchor="middle" x="1188" y="-263" font-family="Helvetica,sans-Serif" font-size="10.00">_info.h</text>
</g>
<!-- Node31&#45;&gt;Node44 -->
<g id="edge65" class="edge"><title>Node31&#45;&gt;Node44</title>
<path fill="none" stroke="midnightblue" d="M1151.66,-332.829C1157.16,-323.932 1165.74,-310.046 1173.18,-297.999"/>
<polygon fill="midnightblue" stroke="midnightblue" points="1176.3,-299.605 1178.58,-289.258 1170.34,-295.927 1176.3,-299.605"/>
</g>
<!-- Node31&#45;&gt;Node30 -->
<g id="edge66" class="edge"><title>Node31&#45;&gt;Node30</title>
<path fill="none" stroke="midnightblue" d="M1114.89,-339.458C1042.27,-333.283 856.001,-316.059 702,-290 693.922,-288.633 685.384,-286.95 677.121,-285.194"/>
<polygon fill="midnightblue" stroke="midnightblue" points="677.744,-281.748 667.227,-283.032 676.249,-288.586 677.744,-281.748"/>
</g>
<!-- Node45 -->
<g id="node45" class="node"><title>Node45</title>
<polygon fill="white" stroke="#bfbfbf" points="1263.23,-263 1263.23,-283 1388.77,-283 1388.77,-263 1263.23,-263"/>
<text text-anchor="middle" x="1326" y="-269" font-family="Helvetica,sans-Serif" font-size="10.00">ePub3/epub_collection.h</text>
</g>
<!-- Node31&#45;&gt;Node45 -->
<g id="edge67" class="edge"><title>Node31&#45;&gt;Node45</title>
<path fill="none" stroke="midnightblue" d="M1169.9,-332.97C1201.37,-321.082 1256.87,-300.116 1292.51,-286.652"/>
<polygon fill="midnightblue" stroke="midnightblue" points="1293.88,-289.875 1302,-283.067 1291.41,-283.327 1293.88,-289.875"/>
</g>
<!-- Node31&#45;&gt;Node16 -->
<g id="edge68" class="edge"><title>Node31&#45;&gt;Node16</title>
<path fill="none" stroke="midnightblue" d="M1114.73,-339.584C1026.91,-332.722 770.521,-312.175 558,-290 533.619,-287.456 506.769,-284.295 483.615,-281.455"/>
<polygon fill="midnightblue" stroke="midnightblue" points="483.953,-277.971 473.599,-280.219 483.095,-284.918 483.953,-277.971"/>
</g>
<!-- Node31&#45;&gt;Node5 -->
<g id="edge69" class="edge"><title>Node31&#45;&gt;Node5</title>
<path fill="none" stroke="midnightblue" d="M1114.48,-342.691C1057.93,-342.635 936.904,-336.529 849,-290 830.388,-280.148 834.869,-265.35 816,-256 696.069,-196.569 648.258,-246.205 517,-220 444.242,-205.474 362.209,-181.073 309.398,-164.287"/>
<polygon fill="midnightblue" stroke="midnightblue" points="310.153,-160.853 299.562,-161.141 308.02,-167.521 310.153,-160.853"/>
</g>
<!-- Node33&#45;&gt;Node13 -->
<g id="edge47" class="edge"><title>Node33&#45;&gt;Node13</title>
<path fill="none" stroke="midnightblue" d="M1191.4,-134.927C1175.58,-113.168 1135.25,-57.7195 1114.6,-29.327"/>
<polygon fill="midnightblue" stroke="midnightblue" points="1117.36,-27.1651 1108.64,-21.1364 1111.7,-31.2824 1117.36,-27.1651"/>
</g>
<!-- Node33&#45;&gt;Node6 -->
<g id="edge48" class="edge"><title>Node33&#45;&gt;Node6</title>
<path fill="none" stroke="midnightblue" d="M1161.75,-134.97C1111.06,-122.344 1019.27,-99.4802 966.098,-86.2369"/>
<polygon fill="midnightblue" stroke="midnightblue" points="966.87,-82.8223 956.321,-83.8015 965.178,-89.6148 966.87,-82.8223"/>
</g>
<!-- Node40&#45;&gt;Node17 -->
<g id="edge57" class="edge"><title>Node40&#45;&gt;Node17</title>
<path fill="none" stroke="midnightblue" d="M916.788,-262.93C907.217,-260.489 896.731,-257.98 887,-256 810.373,-240.413 721.742,-227.397 660.988,-219.234"/>
<polygon fill="midnightblue" stroke="midnightblue" points="661.106,-215.719 650.731,-217.866 660.181,-222.657 661.106,-215.719"/>
</g>
<!-- Node41 -->
<g id="node41" class="node"><title>Node41</title>
<g id="a_node41"><a xlink:href="make__unique_8h.xhtml" target="_top" xlink:title="ePub3/utilities/make\l_unique.h">
<polygon fill="white" stroke="red" points="931.254,-129 931.254,-161 1036.75,-161 1036.75,-129 931.254,-129"/>
<text text-anchor="start" x="939.254" y="-147" font-family="Helvetica,sans-Serif" font-size="10.00">ePub3/utilities/make</text>
<text text-anchor="middle" x="984" y="-135" font-family="Helvetica,sans-Serif" font-size="10.00">_unique.h</text>
</a>
</g>
</g>
<!-- Node40&#45;&gt;Node41 -->
<g id="edge58" class="edge"><title>Node40&#45;&gt;Node41</title>
<path fill="none" stroke="midnightblue" d="M952.445,-262.938C957.576,-243.925 969.62,-199.29 977.256,-170.992"/>
<polygon fill="midnightblue" stroke="midnightblue" points="980.717,-171.601 979.943,-161.034 973.959,-169.777 980.717,-171.601"/>
</g>
<!-- Node42 -->
<g id="node42" class="node"><title>Node42</title>
<polygon fill="white" stroke="#bfbfbf" points="834.867,-199 834.867,-219 923.133,-219 923.133,-199 834.867,-199"/>
<text text-anchor="middle" x="879" y="-205" font-family="Helvetica,sans-Serif" font-size="10.00">google&#45;url/gurl.h</text>
</g>
<!-- Node40&#45;&gt;Node42 -->
<g id="edge62" class="edge"><title>Node40&#45;&gt;Node42</title>
<path fill="none" stroke="midnightblue" d="M939.524,-262.852C928.407,-253.144 910.63,-237.62 897.212,-225.903"/>
<polygon fill="midnightblue" stroke="midnightblue" points="899.354,-223.127 889.519,-219.186 894.749,-228.4 899.354,-223.127"/>
</g>
<!-- Node40&#45;&gt;Node21 -->
<g id="edge63" class="edge"><title>Node40&#45;&gt;Node21</title>
<path fill="none" stroke="midnightblue" d="M959.174,-262.892C977.109,-244.778 1017.47,-202.479 1045,-162 1059.97,-139.985 1073.6,-112.388 1081.85,-94.4833"/>
<polygon fill="midnightblue" stroke="midnightblue" points="1085.12,-95.7315 1086.05,-85.177 1078.74,-92.8519 1085.12,-95.7315"/>
</g>
<!-- Node41&#45;&gt;Node12 -->
<g id="edge59" class="edge"><title>Node41&#45;&gt;Node12</title>
<path fill="none" stroke="midnightblue" d="M985.329,-128.832C986.116,-109.489 984.26,-76.3554 965,-58 934.171,-28.6187 813.988,-17.8184 745.149,-13.9916"/>
<polygon fill="midnightblue" stroke="midnightblue" points="745.142,-10.4865 734.972,-13.4558 744.774,-17.4768 745.142,-10.4865"/>
</g>
<!-- Node41&#45;&gt;Node13 -->
<g id="edge60" class="edge"><title>Node41&#45;&gt;Node13</title>
<path fill="none" stroke="midnightblue" d="M996.852,-128.948C1011.67,-111.671 1036.83,-82.555 1059,-58 1067.97,-48.0606 1078.21,-37.1006 1086.44,-28.3726"/>
<polygon fill="midnightblue" stroke="midnightblue" points="1089.01,-30.7471 1093.34,-21.0779 1083.92,-25.9358 1089.01,-30.7471"/>
</g>
<!-- Node41&#45;&gt;Node6 -->
<g id="edge61" class="edge"><title>Node41&#45;&gt;Node6</title>
<path fill="none" stroke="midnightblue" d="M970.906,-128.909C961.6,-118.183 949.099,-103.776 939.493,-92.7039"/>
<polygon fill="midnightblue" stroke="midnightblue" points="942.009,-90.263 932.812,-85.0035 936.722,-94.8505 942.009,-90.263"/>
</g>
<!-- Node46&#45;&gt;Node3 -->
<g id="edge71" class="edge"><title>Node46&#45;&gt;Node3</title>
<path fill="none" stroke="midnightblue" d="M509.012,-332.968C474.85,-322.658 417.363,-305.248 368,-290 363.91,-288.737 359.639,-287.409 355.384,-286.082"/>
<polygon fill="midnightblue" stroke="midnightblue" points="356.167,-282.66 345.578,-283.014 354.077,-289.34 356.167,-282.66"/>
</g>
<!-- Node46&#45;&gt;Node17 -->
<g id="edge72" class="edge"><title>Node46&#45;&gt;Node17</title>
<path fill="none" stroke="midnightblue" d="M534.092,-332.908C525.999,-316.585 511.982,-281.624 525,-256 532.009,-242.204 545.313,-231.559 557.895,-224.001"/>
<polygon fill="midnightblue" stroke="midnightblue" points="559.784,-226.955 566.829,-219.042 556.387,-220.835 559.784,-226.955"/>
</g>
<!-- Node46&#45;&gt;Node40 -->
<g id="edge73" class="edge"><title>Node46&#45;&gt;Node40</title>
<path fill="none" stroke="midnightblue" d="M570.229,-336.833C638.683,-325.507 802.871,-298.343 891.272,-283.717"/>
<polygon fill="midnightblue" stroke="midnightblue" points="891.851,-287.168 901.146,-282.083 890.708,-280.262 891.851,-287.168"/>
</g>
<!-- Node46&#45;&gt;Node30 -->
<g id="edge74" class="edge"><title>Node46&#45;&gt;Node30</title>
<path fill="none" stroke="midnightblue" d="M551.273,-332.829C566.282,-321.614 591.897,-302.473 609.821,-289.079"/>
<polygon fill="midnightblue" stroke="midnightblue" points="612.006,-291.815 617.922,-283.025 607.816,-286.208 612.006,-291.815"/>
</g>
<!-- Node46&#45;&gt;Node16 -->
<g id="edge75" class="edge"><title>Node46&#45;&gt;Node16</title>
<path fill="none" stroke="midnightblue" d="M523.625,-332.829C507.246,-323.059 480.785,-307.275 459.393,-294.515"/>
<polygon fill="midnightblue" stroke="midnightblue" points="460.961,-291.375 450.579,-289.258 457.375,-297.387 460.961,-291.375"/>
</g>
<!-- Node46&#45;&gt;Node27 -->
<g id="edge76" class="edge"><title>Node46&#45;&gt;Node27</title>
<path fill="none" stroke="midnightblue" d="M538.339,-332.959C537.592,-315.772 538.476,-278.13 558,-256 589.527,-220.264 614.17,-236.166 659,-220 729.761,-194.483 747.857,-189.17 818,-162 821.807,-160.525 825.806,-158.934 829.734,-157.346"/>
<polygon fill="midnightblue" stroke="midnightblue" points="831.266,-160.501 839.197,-153.477 828.616,-154.022 831.266,-160.501"/>
</g>
<!-- Node46&#45;&gt;Node32 -->
<g id="edge77" class="edge"><title>Node46&#45;&gt;Node32</title>
<path fill="none" stroke="midnightblue" d="M568.214,-332.97C607.252,-320.904 676.541,-299.487 720.005,-286.053"/>
<polygon fill="midnightblue" stroke="midnightblue" points="721.144,-289.364 729.665,-283.067 719.077,-282.676 721.144,-289.364"/>
</g>
<!-- Node47&#45;&gt;Node18 -->
<g id="edge79" class="edge"><title>Node47&#45;&gt;Node18</title>
<path fill="none" stroke="midnightblue" d="M2344.82,-326.819C2326.47,-306.814 2291.15,-272.265 2253,-256 2099.6,-190.598 1588.96,-158.729 1405.42,-149.182"/>
<polygon fill="midnightblue" stroke="midnightblue" points="1405.53,-145.683 1395.36,-148.664 1405.17,-152.674 1405.53,-145.683"/>
</g>
<!-- Node48 -->
<g id="node48" class="node"><title>Node48</title>
<polygon fill="white" stroke="#bfbfbf" points="2338.61,-263 2338.61,-283 2377.39,-283 2377.39,-263 2338.61,-263"/>
<text text-anchor="middle" x="2358" y="-269" font-family="Helvetica,sans-Serif" font-size="10.00">array</text>
</g>
<!-- Node47&#45;&gt;Node48 -->
<g id="edge80" class="edge"><title>Node47&#45;&gt;Node48</title>
<path fill="none" stroke="midnightblue" d="M2358,-326.909C2358,-316.919 2358,-303.736 2358,-293.028"/>
<polygon fill="midnightblue" stroke="midnightblue" points="2361.5,-293.004 2358,-283.004 2354.5,-293.004 2361.5,-293.004"/>
</g>
<!-- Node49 -->
<g id="node49" class="node"><title>Node49</title>
<polygon fill="white" stroke="#bfbfbf" points="2395.83,-263 2395.83,-283 2470.17,-283 2470.17,-263 2395.83,-263"/>
<text text-anchor="middle" x="2433" y="-269" font-family="Helvetica,sans-Serif" font-size="10.00">system_error</text>
</g>
<!-- Node47&#45;&gt;Node49 -->
<g id="edge81" class="edge"><title>Node47&#45;&gt;Node49</title>
<path fill="none" stroke="midnightblue" d="M2374.64,-326.909C2386.82,-315.867 2403.3,-300.925 2415.64,-289.736"/>
<polygon fill="midnightblue" stroke="midnightblue" points="2418.01,-292.313 2423.07,-283.004 2413.31,-287.128 2418.01,-292.313"/>
</g>
<!-- Node50 -->
<g id="node50" class="node"><title>Node50</title>
<polygon fill="white" stroke="#bfbfbf" points="2488.6,-263 2488.6,-283 2547.4,-283 2547.4,-263 2488.6,-263"/>
<text text-anchor="middle" x="2518" y="-269" font-family="Helvetica,sans-Serif" font-size="10.00">functional</text>
</g>
<!-- Node47&#45;&gt;Node50 -->
<g id="edge82" class="edge"><title>Node47&#45;&gt;Node50</title>
<path fill="none" stroke="midnightblue" d="M2393.51,-326.909C2421.72,-314.921 2460.74,-298.335 2487.54,-286.946"/>
<polygon fill="midnightblue" stroke="midnightblue" points="2488.98,-290.136 2496.82,-283.004 2486.24,-283.694 2488.98,-290.136"/>
</g>
</g>
</svg>
