<?xml version="1.0" encoding="UTF-8" standalone="no"?>
<!DOCTYPE svg PUBLIC "-//W3C//DTD SVG 1.1//EN"
 "http://www.w3.org/Graphics/SVG/1.1/DTD/svg11.dtd">
<!-- Generated by graphviz version 2.30.0 (20130114.0426)
 -->
<!-- Title: /Users/rkwright/Documents/github/readium&#45;sdk&#45;D/ePub3/ePub/manifest.h Pages: 1 -->
<svg width="1177pt" height="148pt"
 viewBox="0.00 0.00 1177.00 148.00" xmlns="http://www.w3.org/2000/svg" xmlns:xlink="http://www.w3.org/1999/xlink">
<g id="graph0" class="graph" transform="scale(1 1) rotate(0) translate(4 144)">
<title>/Users/rkwright/Documents/github/readium&#45;sdk&#45;D/ePub3/ePub/manifest.h</title>
<polygon fill="white" stroke="white" points="-4,5 -4,-144 1174,-144 1174,5 -4,5"/>
<!-- Node1 -->
<g id="node1" class="node"><title>Node1</title>
<polygon fill="#bfbfbf" stroke="black" points="525.966,-95 525.966,-139 672.034,-139 672.034,-95 525.966,-95"/>
<text text-anchor="start" x="533.966" y="-125" font-family="Helvetica,sans-Serif" font-size="10.00">/Users/rkwright/Documents</text>
<text text-anchor="start" x="533.966" y="-113" font-family="Helvetica,sans-Serif" font-size="10.00">/github/readium&#45;sdk&#45;D/ePub3</text>
<text text-anchor="middle" x="599" y="-101" font-family="Helvetica,sans-Serif" font-size="10.00">/ePub/manifest.h</text>
</g>
<!-- Node2 -->
<g id="node2" class="node"><title>Node2</title>
<g id="a_node2"><a xlink:href="filter__chain_8cpp.xhtml" target="_top" xlink:title="/Users/rkwright/Documents\l/github/readium&#45;sdk&#45;D/ePub3\l/ePub/filter_chain.cpp">
<polygon fill="white" stroke="black" points="-0.0341797,-7 -0.0341797,-51 146.034,-51 146.034,-7 -0.0341797,-7"/>
<text text-anchor="start" x="7.96582" y="-37" font-family="Helvetica,sans-Serif" font-size="10.00">/Users/rkwright/Documents</text>
<text text-anchor="start" x="7.96582" y="-25" font-family="Helvetica,sans-Serif" font-size="10.00">/github/readium&#45;sdk&#45;D/ePub3</text>
<text text-anchor="middle" x="73" y="-13" font-family="Helvetica,sans-Serif" font-size="10.00">/ePub/filter_chain.cpp</text>
</a>
</g>
</g>
<!-- Node1&#45;&gt;Node2 -->
<g id="edge1" class="edge"><title>Node1&#45;&gt;Node2</title>
<path fill="none" stroke="midnightblue" d="M515.781,-110.105C425.895,-102.588 278.915,-86.945 155,-58 146.797,-56.0838 138.258,-53.6661 129.924,-51.058"/>
<polygon fill="midnightblue" stroke="midnightblue" points="515.661,-113.607 525.914,-110.939 516.235,-106.631 515.661,-113.607"/>
</g>
<!-- Node3 -->
<g id="node3" class="node"><title>Node3</title>
<g id="a_node3"><a xlink:href="filter__chain__byte__stream_8cpp.xhtml" target="_top" xlink:title="/Users/rkwright/Documents\l/github/readium&#45;sdk&#45;D/ePub3\l/ePub/filter_chain_byte_stream.cpp">
<polygon fill="white" stroke="black" points="163.621,-7 163.621,-51 336.379,-51 336.379,-7 163.621,-7"/>
<text text-anchor="start" x="171.621" y="-37" font-family="Helvetica,sans-Serif" font-size="10.00">/Users/rkwright/Documents</text>
<text text-anchor="start" x="171.621" y="-25" font-family="Helvetica,sans-Serif" font-size="10.00">/github/readium&#45;sdk&#45;D/ePub3</text>
<text text-anchor="middle" x="250" y="-13" font-family="Helvetica,sans-Serif" font-size="10.00">/ePub/filter_chain_byte_stream.cpp</text>
</a>
</g>
</g>
<!-- Node1&#45;&gt;Node3 -->
<g id="edge2" class="edge"><title>Node1&#45;&gt;Node3</title>
<path fill="none" stroke="midnightblue" d="M515.831,-98.3748C466.079,-87.4921 401.705,-72.8155 345,-58 336.765,-55.8485 328.163,-53.4821 319.644,-51.0644"/>
<polygon fill="midnightblue" stroke="midnightblue" points="515.383,-101.859 525.899,-100.569 516.873,-95.0197 515.383,-101.859"/>
</g>
<!-- Node4 -->
<g id="node4" class="node"><title>Node4</title>
<g id="a_node4"><a xlink:href="filter__chain__byte__stream__range_8cpp.xhtml" target="_top" xlink:title="/Users/rkwright/Documents\l/github/readium&#45;sdk&#45;D/ePub3\l/ePub/filter_chain_byte_stream\l_range.cpp">
<polygon fill="white" stroke="black" points="354.072,-1 354.072,-57 507.928,-57 507.928,-1 354.072,-1"/>
<text text-anchor="start" x="362.072" y="-43" font-family="Helvetica,sans-Serif" font-size="10.00">/Users/rkwright/Documents</text>
<text text-anchor="start" x="362.072" y="-31" font-family="Helvetica,sans-Serif" font-size="10.00">/github/readium&#45;sdk&#45;D/ePub3</text>
<text text-anchor="start" x="362.072" y="-19" font-family="Helvetica,sans-Serif" font-size="10.00">/ePub/filter_chain_byte_stream</text>
<text text-anchor="middle" x="431" y="-7" font-family="Helvetica,sans-Serif" font-size="10.00">_range.cpp</text>
</a>
</g>
</g>
<!-- Node1&#45;&gt;Node4 -->
<g id="edge3" class="edge"><title>Node1&#45;&gt;Node4</title>
<path fill="none" stroke="midnightblue" d="M548.73,-90.2665C528.225,-79.7698 504.504,-67.6271 483.751,-57.0035"/>
<polygon fill="midnightblue" stroke="midnightblue" points="547.406,-93.5208 557.903,-94.962 550.596,-87.2897 547.406,-93.5208"/>
</g>
<!-- Node5 -->
<g id="node5" class="node"><title>Node5</title>
<g id="a_node5"><a xlink:href="e_pub_2library_8cpp.xhtml" target="_top" xlink:title="/Users/rkwright/Documents\l/github/readium&#45;sdk&#45;D/ePub3\l/ePub/library.cpp">
<polygon fill="white" stroke="black" points="525.966,-7 525.966,-51 672.034,-51 672.034,-7 525.966,-7"/>
<text text-anchor="start" x="533.966" y="-37" font-family="Helvetica,sans-Serif" font-size="10.00">/Users/rkwright/Documents</text>
<text text-anchor="start" x="533.966" y="-25" font-family="Helvetica,sans-Serif" font-size="10.00">/github/readium&#45;sdk&#45;D/ePub3</text>
<text text-anchor="middle" x="599" y="-13" font-family="Helvetica,sans-Serif" font-size="10.00">/ePub/library.cpp</text>
</a>
</g>
</g>
<!-- Node1&#45;&gt;Node5 -->
<g id="edge4" class="edge"><title>Node1&#45;&gt;Node5</title>
<path fill="none" stroke="midnightblue" d="M599,-84.4986C599,-73.3464 599,-61.0805 599,-51.0139"/>
<polygon fill="midnightblue" stroke="midnightblue" points="595.5,-84.7415 599,-94.7416 602.5,-84.7416 595.5,-84.7415"/>
</g>
<!-- Node6 -->
<g id="node6" class="node"><title>Node6</title>
<g id="a_node6"><a xlink:href="link_8cpp.xhtml" target="_top" xlink:title="/Users/rkwright/Documents\l/github/readium&#45;sdk&#45;D/ePub3\l/ePub/link.cpp">
<polygon fill="white" stroke="black" points="689.966,-7 689.966,-51 836.034,-51 836.034,-7 689.966,-7"/>
<text text-anchor="start" x="697.966" y="-37" font-family="Helvetica,sans-Serif" font-size="10.00">/Users/rkwright/Documents</text>
<text text-anchor="start" x="697.966" y="-25" font-family="Helvetica,sans-Serif" font-size="10.00">/github/readium&#45;sdk&#45;D/ePub3</text>
<text text-anchor="middle" x="763" y="-13" font-family="Helvetica,sans-Serif" font-size="10.00">/ePub/link.cpp</text>
</a>
</g>
</g>
<!-- Node1&#45;&gt;Node6 -->
<g id="edge5" class="edge"><title>Node1&#45;&gt;Node6</title>
<path fill="none" stroke="midnightblue" d="M648.017,-90.2961C671.859,-77.7934 700.166,-62.9497 722.727,-51.1188"/>
<polygon fill="midnightblue" stroke="midnightblue" points="646.35,-87.2182 639.119,-94.962 649.601,-93.4175 646.35,-87.2182"/>
</g>
<!-- Node7 -->
<g id="node7" class="node"><title>Node7</title>
<g id="a_node7"><a xlink:href="manifest_8cpp.xhtml" target="_top" xlink:title="/Users/rkwright/Documents\l/github/readium&#45;sdk&#45;D/ePub3\l/ePub/manifest.cpp">
<polygon fill="white" stroke="black" points="853.966,-7 853.966,-51 1000.03,-51 1000.03,-7 853.966,-7"/>
<text text-anchor="start" x="861.966" y="-37" font-family="Helvetica,sans-Serif" font-size="10.00">/Users/rkwright/Documents</text>
<text text-anchor="start" x="861.966" y="-25" font-family="Helvetica,sans-Serif" font-size="10.00">/github/readium&#45;sdk&#45;D/ePub3</text>
<text text-anchor="middle" x="927" y="-13" font-family="Helvetica,sans-Serif" font-size="10.00">/ePub/manifest.cpp</text>
</a>
</g>
</g>
<!-- Node1&#45;&gt;Node7 -->
<g id="edge6" class="edge"><title>Node1&#45;&gt;Node7</title>
<path fill="none" stroke="midnightblue" d="M682.156,-98.5126C730.069,-87.9098 791.264,-73.4692 845,-58 852.373,-55.8776 860.062,-53.4896 867.65,-51.026"/>
<polygon fill="midnightblue" stroke="midnightblue" points="681.155,-95.1489 672.141,-100.716 682.659,-101.985 681.155,-95.1489"/>
</g>
<!-- Node8 -->
<g id="node8" class="node"><title>Node8</title>
<g id="a_node8"><a xlink:href="media__support__info_8cpp.xhtml" target="_top" xlink:title="/Users/rkwright/Documents\l/github/readium&#45;sdk&#45;D/ePub3\l/ePub/media_support_info.cpp">
<polygon fill="white" stroke="black" points="1018.18,-7 1018.18,-51 1169.82,-51 1169.82,-7 1018.18,-7"/>
<text text-anchor="start" x="1026.18" y="-37" font-family="Helvetica,sans-Serif" font-size="10.00">/Users/rkwright/Documents</text>
<text text-anchor="start" x="1026.18" y="-25" font-family="Helvetica,sans-Serif" font-size="10.00">/github/readium&#45;sdk&#45;D/ePub3</text>
<text text-anchor="middle" x="1094" y="-13" font-family="Helvetica,sans-Serif" font-size="10.00">/ePub/media_support_info.cpp</text>
</a>
</g>
</g>
<!-- Node1&#45;&gt;Node8 -->
<g id="edge7" class="edge"><title>Node1&#45;&gt;Node8</title>
<path fill="none" stroke="midnightblue" d="M682.485,-108.579C765.904,-100.14 897.442,-84.0468 1009,-58 1017.32,-56.0571 1025.99,-53.6566 1034.47,-51.0848"/>
<polygon fill="midnightblue" stroke="midnightblue" points="681.906,-105.119 672.303,-109.595 682.601,-112.085 681.906,-105.119"/>
</g>
</g>
</svg>
