<?xml version="1.0" encoding="UTF-8" standalone="no"?>
<!DOCTYPE svg PUBLIC "-//W3C//DTD SVG 1.1//EN"
 "http://www.w3.org/Graphics/SVG/1.1/DTD/svg11.dtd">
<!-- Generated by graphviz version 2.30.0 (20130114.0426)
 -->
<!-- Title: /Users/rkwright/Documents/github/readium&#45;sdk&#45;D/ePub3/ePub/manifest.h Pages: 1 -->
<svg width="1235pt" height="542pt"
 viewBox="0.00 0.00 1234.91 542.00" xmlns="http://www.w3.org/2000/svg" xmlns:xlink="http://www.w3.org/1999/xlink">
<g id="graph0" class="graph" transform="scale(1 1) rotate(0) translate(4 538)">
<title>/Users/rkwright/Documents/github/readium&#45;sdk&#45;D/ePub3/ePub/manifest.h</title>
<polygon fill="white" stroke="white" points="-4,5 -4,-538 1231.91,-538 1231.91,5 -4,5"/>
<!-- Node1 -->
<g id="node1" class="node"><title>Node1</title>
<polygon fill="#bfbfbf" stroke="black" points="558.966,-489 558.966,-533 705.034,-533 705.034,-489 558.966,-489"/>
<text text-anchor="start" x="566.966" y="-519" font-family="Helvetica,sans-Serif" font-size="10.00">/Users/rkwright/Documents</text>
<text text-anchor="start" x="566.966" y="-507" font-family="Helvetica,sans-Serif" font-size="10.00">/github/readium&#45;sdk&#45;D/ePub3</text>
<text text-anchor="middle" x="632" y="-495" font-family="Helvetica,sans-Serif" font-size="10.00">/ePub/manifest.h</text>
</g>
<!-- Node2 -->
<g id="node2" class="node"><title>Node2</title>
<polygon fill="white" stroke="#bfbfbf" points="238.079,-425 238.079,-445 321.921,-445 321.921,-425 238.079,-425"/>
<text text-anchor="middle" x="280" y="-431" font-family="Helvetica,sans-Serif" font-size="10.00">ePub3/epub3.h</text>
</g>
<!-- Node1&#45;&gt;Node2 -->
<g id="edge1" class="edge"><title>Node1&#45;&gt;Node2</title>
<path fill="none" stroke="midnightblue" d="M558.843,-498.479C497.343,-488.192 407.34,-471.725 330,-452 325.507,-450.854 320.825,-449.532 316.207,-448.148"/>
<polygon fill="midnightblue" stroke="midnightblue" points="316.885,-444.694 306.296,-445.067 314.806,-451.378 316.885,-444.694"/>
</g>
<!-- Node3 -->
<g id="node3" class="node"><title>Node3</title>
<g id="a_node3"><a xlink:href="utfstring_8h.xhtml" target="_top" xlink:title="ePub3/utilities/utfstring.h">
<polygon fill="white" stroke="black" points="605.525,-361 605.525,-381 730.475,-381 730.475,-361 605.525,-361"/>
<text text-anchor="middle" x="668" y="-367" font-family="Helvetica,sans-Serif" font-size="10.00">ePub3/utilities/utfstring.h</text>
</a>
</g>
</g>
<!-- Node1&#45;&gt;Node3 -->
<g id="edge2" class="edge"><title>Node1&#45;&gt;Node3</title>
<path fill="none" stroke="midnightblue" d="M669.864,-488.757C682.858,-479.332 695.906,-466.956 703,-452 709.476,-438.347 707.828,-432.319 703,-418 699.297,-407.017 691.811,-396.581 684.709,-388.434"/>
<polygon fill="midnightblue" stroke="midnightblue" points="687.267,-386.045 677.89,-381.114 682.145,-390.817 687.267,-386.045"/>
</g>
<!-- Node29 -->
<g id="node29" class="node"><title>Node29</title>
<g id="a_node29"><a xlink:href="iri_8h.xhtml" target="_top" xlink:title="ePub3/utilities/iri.h">
<polygon fill="white" stroke="black" points="339.424,-425 339.424,-445 436.576,-445 436.576,-425 339.424,-425"/>
<text text-anchor="middle" x="388" y="-431" font-family="Helvetica,sans-Serif" font-size="10.00">ePub3/utilities/iri.h</text>
</a>
</g>
</g>
<!-- Node1&#45;&gt;Node29 -->
<g id="edge34" class="edge"><title>Node1&#45;&gt;Node29</title>
<path fill="none" stroke="midnightblue" d="M562.732,-488.993C518.945,-475.713 463.936,-459.03 427.462,-447.968"/>
<polygon fill="midnightblue" stroke="midnightblue" points="428.276,-444.557 417.69,-445.004 426.244,-451.256 428.276,-444.557"/>
</g>
<!-- Node34 -->
<g id="node34" class="node"><title>Node34</title>
<polygon fill="white" stroke="#bfbfbf" points="569.234,-425 569.234,-445 694.766,-445 694.766,-425 569.234,-425"/>
<text text-anchor="middle" x="632" y="-431" font-family="Helvetica,sans-Serif" font-size="10.00">ePub3/property_holder.h</text>
</g>
<!-- Node1&#45;&gt;Node34 -->
<g id="edge44" class="edge"><title>Node1&#45;&gt;Node34</title>
<path fill="none" stroke="midnightblue" d="M632,-488.993C632,-478.323 632,-465.458 632,-455.075"/>
<polygon fill="midnightblue" stroke="midnightblue" points="635.5,-455.004 632,-445.004 628.5,-455.005 635.5,-455.004"/>
</g>
<!-- Node35 -->
<g id="node35" class="node"><title>Node35</title>
<g id="a_node35"><a xlink:href="xml__identifiable_8h.xhtml" target="_top" xlink:title="ePub3/utilities/xml\l_identifiable.h">
<polygon fill="white" stroke="black" points="454.705,-419 454.705,-451 551.295,-451 551.295,-419 454.705,-419"/>
<text text-anchor="start" x="462.705" y="-437" font-family="Helvetica,sans-Serif" font-size="10.00">ePub3/utilities/xml</text>
<text text-anchor="middle" x="503" y="-425" font-family="Helvetica,sans-Serif" font-size="10.00">_identifiable.h</text>
</a>
</g>
</g>
<!-- Node1&#45;&gt;Node35 -->
<g id="edge45" class="edge"><title>Node1&#45;&gt;Node35</title>
<path fill="none" stroke="midnightblue" d="M595.379,-488.993C577.491,-478.731 556.061,-466.438 538.347,-456.276"/>
<polygon fill="midnightblue" stroke="midnightblue" points="539.876,-453.119 529.46,-451.179 536.393,-459.191 539.876,-453.119"/>
</g>
<!-- Node26 -->
<g id="node26" class="node"><title>Node26</title>
<polygon fill="white" stroke="#bfbfbf" points="1190.27,-297 1190.27,-317 1225.73,-317 1225.73,-297 1190.27,-297"/>
<text text-anchor="middle" x="1208" y="-303" font-family="Helvetica,sans-Serif" font-size="10.00">map</text>
</g>
<!-- Node1&#45;&gt;Node26 -->
<g id="edge47" class="edge"><title>Node1&#45;&gt;Node26</title>
<path fill="none" stroke="midnightblue" d="M663.161,-488.952C699.113,-464.971 756.316,-427.824 780,-418 949.083,-347.862 1011.18,-392.341 1181,-324 1182.42,-323.428 1183.86,-322.788 1185.29,-322.103"/>
<polygon fill="midnightblue" stroke="midnightblue" points="1187.29,-324.998 1194.4,-317.148 1183.95,-318.848 1187.29,-324.998"/>
</g>
<!-- Node36 -->
<g id="node36" class="node"><title>Node36</title>
<polygon fill="white" stroke="#bfbfbf" points="788.695,-425 788.695,-445 885.305,-445 885.305,-425 788.695,-425"/>
<text text-anchor="middle" x="837" y="-431" font-family="Helvetica,sans-Serif" font-size="10.00">ePub3/xml/node.h</text>
</g>
<!-- Node1&#45;&gt;Node36 -->
<g id="edge48" class="edge"><title>Node1&#45;&gt;Node36</title>
<path fill="none" stroke="midnightblue" d="M690.196,-488.993C726.356,-475.94 771.624,-459.599 802.26,-448.54"/>
<polygon fill="midnightblue" stroke="midnightblue" points="803.838,-451.692 812.055,-445.004 801.461,-445.108 803.838,-451.692"/>
</g>
<!-- Node4 -->
<g id="node4" class="node"><title>Node4</title>
<g id="a_node4"><a xlink:href="basic_8h.xhtml" target="_top" xlink:title="ePub3/utilities/basic.h">
<polygon fill="white" stroke="black" points="1059.64,-297 1059.64,-317 1172.36,-317 1172.36,-297 1059.64,-297"/>
<text text-anchor="middle" x="1116" y="-303" font-family="Helvetica,sans-Serif" font-size="10.00">ePub3/utilities/basic.h</text>
</a>
</g>
</g>
<!-- Node3&#45;&gt;Node4 -->
<g id="edge3" class="edge"><title>Node3&#45;&gt;Node4</title>
<path fill="none" stroke="midnightblue" d="M730.523,-362.041C736.094,-361.345 741.648,-360.657 747,-360 881.604,-343.485 916.53,-348.018 1050,-324 1057.26,-322.694 1064.91,-321.07 1072.33,-319.363"/>
<polygon fill="midnightblue" stroke="midnightblue" points="1073.33,-322.723 1082.25,-317.004 1071.71,-315.913 1073.33,-322.723"/>
</g>
<!-- Node15 -->
<g id="node15" class="node"><title>Node15</title>
<g id="a_node15"><a xlink:href="integer__sequence_8h.xhtml" target="_top" xlink:title="ePub3/utilities/integer\l_sequence.h">
<polygon fill="white" stroke="black" points="930.192,-291 930.192,-323 1041.81,-323 1041.81,-291 930.192,-291"/>
<text text-anchor="start" x="938.192" y="-309" font-family="Helvetica,sans-Serif" font-size="10.00">ePub3/utilities/integer</text>
<text text-anchor="middle" x="986" y="-297" font-family="Helvetica,sans-Serif" font-size="10.00">_sequence.h</text>
</a>
</g>
</g>
<!-- Node3&#45;&gt;Node15 -->
<g id="edge14" class="edge"><title>Node3&#45;&gt;Node15</title>
<path fill="none" stroke="midnightblue" d="M720.375,-360.933C770.653,-352.077 848.676,-337.932 916,-324 917.27,-323.737 918.553,-323.469 919.845,-323.197"/>
<polygon fill="midnightblue" stroke="midnightblue" points="920.838,-326.564 929.881,-321.042 919.369,-319.72 920.838,-326.564"/>
</g>
<!-- Node16 -->
<g id="node16" class="node"><title>Node16</title>
<g id="a_node16"><a xlink:href="string__view_8h.xhtml" target="_top" xlink:title="ePub3/utilities/string\l_view.h">
<polygon fill="white" stroke="black" points="254.254,-291 254.254,-323 359.746,-323 359.746,-291 254.254,-291"/>
<text text-anchor="start" x="262.254" y="-309" font-family="Helvetica,sans-Serif" font-size="10.00">ePub3/utilities/string</text>
<text text-anchor="middle" x="307" y="-297" font-family="Helvetica,sans-Serif" font-size="10.00">_view.h</text>
</a>
</g>
</g>
<!-- Node3&#45;&gt;Node16 -->
<g id="edge16" class="edge"><title>Node3&#45;&gt;Node16</title>
<path fill="none" stroke="midnightblue" d="M615.508,-360.985C550.366,-349.797 439.396,-330.738 369.806,-318.787"/>
<polygon fill="midnightblue" stroke="midnightblue" points="370.298,-315.32 359.85,-317.077 369.113,-322.219 370.298,-315.32"/>
</g>
<!-- Node18 -->
<g id="node18" class="node"><title>Node18</title>
<polygon fill="white" stroke="#bfbfbf" points="569.773,-233 569.773,-253 610.227,-253 610.227,-233 569.773,-233"/>
<text text-anchor="middle" x="590" y="-239" font-family="Helvetica,sans-Serif" font-size="10.00">string</text>
</g>
<!-- Node3&#45;&gt;Node18 -->
<g id="edge25" class="edge"><title>Node3&#45;&gt;Node18</title>
<path fill="none" stroke="midnightblue" d="M650.904,-360.983C637.484,-353.022 619.387,-340.175 609,-324 597.217,-305.652 592.731,-280.718 591.029,-263.589"/>
<polygon fill="midnightblue" stroke="midnightblue" points="594.484,-262.863 590.24,-253.155 587.504,-263.391 594.484,-262.863"/>
</g>
<!-- Node23 -->
<g id="node23" class="node"><title>Node23</title>
<polygon fill="white" stroke="#bfbfbf" points="454.438,-297 454.438,-317 501.562,-317 501.562,-297 454.438,-297"/>
<text text-anchor="middle" x="478" y="-303" font-family="Helvetica,sans-Serif" font-size="10.00">iterator</text>
</g>
<!-- Node3&#45;&gt;Node23 -->
<g id="edge26" class="edge"><title>Node3&#45;&gt;Node23</title>
<path fill="none" stroke="midnightblue" d="M630.625,-360.924C598.446,-352.668 551.013,-339.438 511,-324 508.876,-323.181 506.702,-322.278 504.533,-321.332"/>
<polygon fill="midnightblue" stroke="midnightblue" points="505.774,-318.049 495.229,-317.022 502.832,-324.401 505.774,-318.049"/>
</g>
<!-- Node24 -->
<g id="node24" class="node"><title>Node24</title>
<polygon fill="white" stroke="#bfbfbf" points="519.936,-297 519.936,-317 562.064,-317 562.064,-297 519.936,-297"/>
<text text-anchor="middle" x="541" y="-303" font-family="Helvetica,sans-Serif" font-size="10.00">locale</text>
</g>
<!-- Node3&#45;&gt;Node24 -->
<g id="edge27" class="edge"><title>Node3&#45;&gt;Node24</title>
<path fill="none" stroke="midnightblue" d="M649.533,-360.985C628.276,-350.607 593.149,-333.458 568.634,-321.49"/>
<polygon fill="midnightblue" stroke="midnightblue" points="570.011,-318.268 559.489,-317.026 566.94,-324.559 570.011,-318.268"/>
</g>
<!-- Node13 -->
<g id="node13" class="node"><title>Node13</title>
<polygon fill="white" stroke="#bfbfbf" points="842.384,-233 842.384,-253 885.616,-253 885.616,-233 842.384,-233"/>
<text text-anchor="middle" x="864" y="-239" font-family="Helvetica,sans-Serif" font-size="10.00">vector</text>
</g>
<!-- Node3&#45;&gt;Node13 -->
<g id="edge28" class="edge"><title>Node3&#45;&gt;Node13</title>
<path fill="none" stroke="midnightblue" d="M728.635,-360.987C788.73,-351.437 873.219,-336.095 883,-324 897.39,-306.205 886.307,-279.325 876.01,-261.717"/>
<polygon fill="midnightblue" stroke="midnightblue" points="878.821,-259.611 870.538,-253.005 872.894,-263.335 878.821,-259.611"/>
</g>
<!-- Node25 -->
<g id="node25" class="node"><title>Node25</title>
<polygon fill="white" stroke="#bfbfbf" points="617.766,-297 617.766,-317 718.234,-317 718.234,-297 617.766,-297"/>
<text text-anchor="middle" x="668" y="-303" font-family="Helvetica,sans-Serif" font-size="10.00">REGEX_INCLUDE</text>
</g>
<!-- Node3&#45;&gt;Node25 -->
<g id="edge29" class="edge"><title>Node3&#45;&gt;Node25</title>
<path fill="none" stroke="midnightblue" d="M668,-360.852C668,-352.06 668,-338.498 668,-327.313"/>
<polygon fill="midnightblue" stroke="midnightblue" points="671.5,-327.186 668,-317.186 664.5,-327.186 671.5,-327.186"/>
</g>
<!-- Node3&#45;&gt;Node26 -->
<g id="edge30" class="edge"><title>Node3&#45;&gt;Node26</title>
<path fill="none" stroke="midnightblue" d="M730.499,-361.836C736.076,-361.184 741.638,-360.562 747,-360 939.499,-339.842 996.607,-382.834 1181,-324 1182.71,-323.453 1184.43,-322.782 1186.13,-322.027"/>
<polygon fill="midnightblue" stroke="midnightblue" points="1188.22,-324.879 1195.38,-317.074 1184.91,-318.707 1188.22,-324.879"/>
</g>
<!-- Node27 -->
<g id="node27" class="node"><title>Node27</title>
<polygon fill="white" stroke="#bfbfbf" points="736.599,-297 736.599,-317 795.401,-317 795.401,-297 736.599,-297"/>
<text text-anchor="middle" x="766" y="-303" font-family="Helvetica,sans-Serif" font-size="10.00">stdexcept</text>
</g>
<!-- Node3&#45;&gt;Node27 -->
<g id="edge31" class="edge"><title>Node3&#45;&gt;Node27</title>
<path fill="none" stroke="midnightblue" d="M682.46,-360.852C698.383,-350.778 724.207,-334.441 742.933,-322.594"/>
<polygon fill="midnightblue" stroke="midnightblue" points="744.901,-325.49 751.48,-317.186 741.158,-319.575 744.901,-325.49"/>
</g>
<!-- Node19 -->
<g id="node19" class="node"><title>Node19</title>
<polygon fill="white" stroke="#bfbfbf" points="512.613,-233 512.613,-253 551.387,-253 551.387,-233 512.613,-233"/>
<text text-anchor="middle" x="532" y="-239" font-family="Helvetica,sans-Serif" font-size="10.00">limits</text>
</g>
<!-- Node3&#45;&gt;Node19 -->
<g id="edge32" class="edge"><title>Node3&#45;&gt;Node19</title>
<path fill="none" stroke="midnightblue" d="M605.317,-365.737C546.578,-360.282 464.913,-348.44 445,-324 435.455,-312.285 437.202,-302.944 445,-290 451.635,-278.987 480.537,-265.025 503.232,-255.387"/>
<polygon fill="midnightblue" stroke="midnightblue" points="504.601,-258.608 512.495,-251.542 501.917,-252.143 504.601,-258.608"/>
</g>
<!-- Node28 -->
<g id="node28" class="node"><title>Node28</title>
<polygon fill="white" stroke="#bfbfbf" points="813.761,-297 813.761,-317 874.239,-317 874.239,-297 813.761,-297"/>
<text text-anchor="middle" x="844" y="-303" font-family="Helvetica,sans-Serif" font-size="10.00">utf8/utf8.h</text>
</g>
<!-- Node3&#45;&gt;Node28 -->
<g id="edge33" class="edge"><title>Node3&#45;&gt;Node28</title>
<path fill="none" stroke="midnightblue" d="M696.287,-360.929C723.906,-351.956 767.051,-337.627 804,-324 806.855,-322.947 809.813,-321.825 812.769,-320.681"/>
<polygon fill="midnightblue" stroke="midnightblue" points="814.053,-323.937 822.076,-317.018 811.489,-317.424 814.053,-323.937"/>
</g>
<!-- Node5 -->
<g id="node5" class="node"><title>Node5</title>
<g id="a_node5"><a xlink:href="base_8h.xhtml" target="_top" xlink:title="ePub3/base.h">
<polygon fill="white" stroke="black" points="653.141,-175 653.141,-195 730.859,-195 730.859,-175 653.141,-175"/>
<text text-anchor="middle" x="692" y="-181" font-family="Helvetica,sans-Serif" font-size="10.00">ePub3/base.h</text>
</a>
</g>
</g>
<!-- Node4&#45;&gt;Node5 -->
<g id="edge4" class="edge"><title>Node4&#45;&gt;Node5</title>
<path fill="none" stroke="midnightblue" d="M1148.86,-296.942C1188.32,-284.532 1246.13,-260.505 1220,-232 1187.99,-197.075 865.726,-188.572 740.965,-186.582"/>
<polygon fill="midnightblue" stroke="midnightblue" points="740.975,-183.082 730.922,-186.43 740.868,-190.081 740.975,-183.082"/>
</g>
<!-- Node10 -->
<g id="node10" class="node"><title>Node10</title>
<polygon fill="white" stroke="#bfbfbf" points="1096.82,-233 1096.82,-253 1211.18,-253 1211.18,-233 1096.82,-233"/>
<text text-anchor="middle" x="1154" y="-239" font-family="Helvetica,sans-Serif" font-size="10.00">ePub3/xml/xmlstring.h</text>
</g>
<!-- Node4&#45;&gt;Node10 -->
<g id="edge9" class="edge"><title>Node4&#45;&gt;Node10</title>
<path fill="none" stroke="midnightblue" d="M1121.61,-296.852C1127.22,-287.694 1136.01,-273.359 1143.01,-261.928"/>
<polygon fill="midnightblue" stroke="midnightblue" points="1146.13,-263.541 1148.37,-253.186 1140.16,-259.883 1146.13,-263.541"/>
</g>
<!-- Node11 -->
<g id="node11" class="node"><title>Node11</title>
<polygon fill="white" stroke="#bfbfbf" points="980.219,-233 980.219,-253 1031.78,-253 1031.78,-233 980.219,-233"/>
<text text-anchor="middle" x="1006" y="-239" font-family="Helvetica,sans-Serif" font-size="10.00">sstream</text>
</g>
<!-- Node4&#45;&gt;Node11 -->
<g id="edge10" class="edge"><title>Node4&#45;&gt;Node11</title>
<path fill="none" stroke="midnightblue" d="M1099.77,-296.852C1081.65,-286.641 1052.12,-269.994 1031.04,-258.112"/>
<polygon fill="midnightblue" stroke="midnightblue" points="1032.73,-255.047 1022.3,-253.186 1029.29,-261.145 1032.73,-255.047"/>
</g>
<!-- Node12 -->
<g id="node12" class="node"><title>Node12</title>
<polygon fill="white" stroke="#bfbfbf" points="361.943,-175 361.943,-195 414.057,-195 414.057,-175 361.943,-175"/>
<text text-anchor="middle" x="388" y="-181" font-family="Helvetica,sans-Serif" font-size="10.00">memory</text>
</g>
<!-- Node4&#45;&gt;Node12 -->
<g id="edge11" class="edge"><title>Node4&#45;&gt;Node12</title>
<path fill="none" stroke="midnightblue" d="M1091.18,-296.917C1041.84,-279 932.871,-240.131 894,-232 720.535,-195.715 507.693,-188.051 424.116,-186.433"/>
<polygon fill="midnightblue" stroke="midnightblue" points="424.175,-182.933 414.115,-186.257 424.052,-189.932 424.175,-182.933"/>
</g>
<!-- Node4&#45;&gt;Node13 -->
<g id="edge12" class="edge"><title>Node4&#45;&gt;Node13</title>
<path fill="none" stroke="midnightblue" d="M1079.36,-296.985C1029.86,-284.807 942.469,-263.306 895.674,-251.793"/>
<polygon fill="midnightblue" stroke="midnightblue" points="896.334,-248.351 885.787,-249.36 894.661,-255.148 896.334,-248.351"/>
</g>
<!-- Node14 -->
<g id="node14" class="node"><title>Node14</title>
<polygon fill="white" stroke="#bfbfbf" points="1049.5,-233 1049.5,-253 1078.5,-253 1078.5,-233 1049.5,-233"/>
<text text-anchor="middle" x="1063.61" y="-239" font-family="Helvetica,sans-Serif" font-size="10.00">list</text>
</g>
<!-- Node4&#45;&gt;Node14 -->
<g id="edge13" class="edge"><title>Node4&#45;&gt;Node14</title>
<path fill="none" stroke="midnightblue" d="M1108.33,-296.852C1100.42,-287.419 1087.9,-272.495 1078.18,-260.907"/>
<polygon fill="midnightblue" stroke="midnightblue" points="1080.81,-258.599 1071.7,-253.186 1075.45,-263.097 1080.81,-258.599"/>
</g>
<!-- Node6 -->
<g id="node6" class="node"><title>Node6</title>
<g id="a_node6"><a xlink:href="__config_8h.xhtml" target="_top" xlink:title="_config.h">
<polygon fill="white" stroke="black" points="628.707,-117 628.707,-137 685.293,-137 685.293,-117 628.707,-117"/>
<text text-anchor="middle" x="657" y="-123" font-family="Helvetica,sans-Serif" font-size="10.00">_config.h</text>
</a>
</g>
</g>
<!-- Node5&#45;&gt;Node6 -->
<g id="edge5" class="edge"><title>Node5&#45;&gt;Node6</title>
<path fill="none" stroke="midnightblue" d="M686.22,-174.753C681.277,-166.843 674.023,-155.237 667.98,-145.568"/>
<polygon fill="midnightblue" stroke="midnightblue" points="670.94,-143.7 662.672,-137.075 665.004,-147.41 670.94,-143.7"/>
</g>
<!-- Node9 -->
<g id="node9" class="node"><title>Node9</title>
<polygon fill="white" stroke="#bfbfbf" points="703.158,-117 703.158,-137 750.842,-137 750.842,-117 703.158,-117"/>
<text text-anchor="middle" x="727" y="-123" font-family="Helvetica,sans-Serif" font-size="10.00">stdlib.h</text>
</g>
<!-- Node5&#45;&gt;Node9 -->
<g id="edge8" class="edge"><title>Node5&#45;&gt;Node9</title>
<path fill="none" stroke="midnightblue" d="M697.78,-174.753C702.723,-166.843 709.977,-155.237 716.02,-145.568"/>
<polygon fill="midnightblue" stroke="midnightblue" points="718.996,-147.41 721.328,-137.075 713.06,-143.7 718.996,-147.41"/>
</g>
<!-- Node7 -->
<g id="node7" class="node"><title>Node7</title>
<g id="a_node7"><a xlink:href="__platform_8h.xhtml" target="_top" xlink:title="_platform.h">
<polygon fill="white" stroke="black" points="623.988,-59 623.988,-79 690.012,-79 690.012,-59 623.988,-59"/>
<text text-anchor="middle" x="657" y="-65" font-family="Helvetica,sans-Serif" font-size="10.00">_platform.h</text>
</a>
</g>
</g>
<!-- Node6&#45;&gt;Node7 -->
<g id="edge6" class="edge"><title>Node6&#45;&gt;Node7</title>
<path fill="none" stroke="midnightblue" d="M657,-116.753C657,-109.25 657,-98.4238 657,-89.0781"/>
<polygon fill="midnightblue" stroke="midnightblue" points="660.5,-89.0752 657,-79.0752 653.5,-89.0752 660.5,-89.0752"/>
</g>
<!-- Node8 -->
<g id="node8" class="node"><title>Node8</title>
<g id="a_node8"><a xlink:href="__compiler_8h.xhtml" target="_top" xlink:title="_compiler.h">
<polygon fill="white" stroke="black" points="623.429,-1 623.429,-21 690.571,-21 690.571,-1 623.429,-1"/>
<text text-anchor="middle" x="657" y="-7" font-family="Helvetica,sans-Serif" font-size="10.00">_compiler.h</text>
</a>
</g>
</g>
<!-- Node7&#45;&gt;Node8 -->
<g id="edge7" class="edge"><title>Node7&#45;&gt;Node8</title>
<path fill="none" stroke="midnightblue" d="M657,-58.7527C657,-51.2504 657,-40.4238 657,-31.0781"/>
<polygon fill="midnightblue" stroke="midnightblue" points="660.5,-31.0752 657,-21.0752 653.5,-31.0752 660.5,-31.0752"/>
</g>
<!-- Node15&#45;&gt;Node5 -->
<g id="edge15" class="edge"><title>Node15&#45;&gt;Node5</title>
<path fill="none" stroke="midnightblue" d="M971.546,-290.793C954.576,-273.858 924.814,-246.909 894,-232 844.947,-208.266 783.203,-196.513 740.972,-190.872"/>
<polygon fill="midnightblue" stroke="midnightblue" points="741.303,-187.386 730.941,-189.599 740.421,-194.331 741.303,-187.386"/>
</g>
<!-- Node17 -->
<g id="node17" class="node"><title>Node17</title>
<polygon fill="white" stroke="#bfbfbf" points="197.934,-233 197.934,-253 260.066,-253 260.066,-233 197.934,-233"/>
<text text-anchor="middle" x="229" y="-239" font-family="Helvetica,sans-Serif" font-size="10.00">type_traits</text>
</g>
<!-- Node16&#45;&gt;Node17 -->
<g id="edge17" class="edge"><title>Node16&#45;&gt;Node17</title>
<path fill="none" stroke="midnightblue" d="M288.118,-290.992C276.218,-281.533 260.877,-269.338 248.805,-259.742"/>
<polygon fill="midnightblue" stroke="midnightblue" points="250.694,-256.773 240.688,-253.29 246.338,-262.253 250.694,-256.773"/>
</g>
<!-- Node16&#45;&gt;Node18 -->
<g id="edge18" class="edge"><title>Node16&#45;&gt;Node18</title>
<path fill="none" stroke="midnightblue" d="M359.982,-293.124C364.716,-292.041 369.441,-290.985 374,-290 453.247,-272.877 476.819,-275.154 559.607,-253.818"/>
<polygon fill="midnightblue" stroke="midnightblue" points="560.661,-257.16 569.45,-251.243 558.889,-250.388 560.661,-257.16"/>
</g>
<!-- Node16&#45;&gt;Node19 -->
<g id="edge19" class="edge"><title>Node16&#45;&gt;Node19</title>
<path fill="none" stroke="midnightblue" d="M360.119,-293.02C397.473,-283.638 448.797,-270.242 502.677,-253.94"/>
<polygon fill="midnightblue" stroke="midnightblue" points="503.864,-257.237 512.408,-250.972 501.822,-250.542 503.864,-257.237"/>
</g>
<!-- Node20 -->
<g id="node20" class="node"><title>Node20</title>
<polygon fill="white" stroke="#bfbfbf" points="439.828,-233 439.828,-253 494.172,-253 494.172,-233 439.828,-233"/>
<text text-anchor="middle" x="467" y="-239" font-family="Helvetica,sans-Serif" font-size="10.00">iostream</text>
</g>
<!-- Node16&#45;&gt;Node20 -->
<g id="edge20" class="edge"><title>Node16&#45;&gt;Node20</title>
<path fill="none" stroke="midnightblue" d="M345.732,-290.992C372.675,-280.551 408.219,-266.778 433.853,-256.845"/>
<polygon fill="midnightblue" stroke="midnightblue" points="435.434,-259.986 443.494,-253.109 432.904,-253.458 435.434,-259.986"/>
</g>
<!-- Node21 -->
<g id="node21" class="node"><title>Node21</title>
<polygon fill="white" stroke="#bfbfbf" points="278.436,-233 278.436,-253 335.564,-253 335.564,-233 278.436,-233"/>
<text text-anchor="middle" x="307" y="-239" font-family="Helvetica,sans-Serif" font-size="10.00">algorithm</text>
</g>
<!-- Node16&#45;&gt;Node21 -->
<g id="edge21" class="edge"><title>Node16&#45;&gt;Node21</title>
<path fill="none" stroke="midnightblue" d="M307,-290.992C307,-282.726 307,-272.373 307,-263.489"/>
<polygon fill="midnightblue" stroke="midnightblue" points="310.5,-263.29 307,-253.29 303.5,-263.29 310.5,-263.29"/>
</g>
<!-- Node22 -->
<g id="node22" class="node"><title>Node22</title>
<g id="a_node22"><a xlink:href="____strhash_8h.xhtml" target="_top" xlink:title="__strhash.h">
<polygon fill="white" stroke="black" points="353.872,-233 353.872,-253 422.128,-253 422.128,-233 353.872,-233"/>
<text text-anchor="middle" x="388" y="-239" font-family="Helvetica,sans-Serif" font-size="10.00">__strhash.h</text>
</a>
</g>
</g>
<!-- Node16&#45;&gt;Node22 -->
<g id="edge22" class="edge"><title>Node16&#45;&gt;Node22</title>
<path fill="none" stroke="midnightblue" d="M326.608,-290.992C339.086,-281.441 355.207,-269.101 367.798,-259.463"/>
<polygon fill="midnightblue" stroke="midnightblue" points="370.049,-262.148 375.863,-253.29 365.794,-256.589 370.049,-262.148"/>
</g>
<!-- Node22&#45;&gt;Node5 -->
<g id="edge23" class="edge"><title>Node22&#45;&gt;Node5</title>
<path fill="none" stroke="midnightblue" d="M422.231,-233.864C425.193,-233.213 428.146,-232.583 431,-232 504.537,-216.98 590.332,-202.424 642.905,-193.84"/>
<polygon fill="midnightblue" stroke="midnightblue" points="643.654,-197.264 652.963,-192.204 642.531,-190.355 643.654,-197.264"/>
</g>
<!-- Node22&#45;&gt;Node12 -->
<g id="edge24" class="edge"><title>Node22&#45;&gt;Node12</title>
<path fill="none" stroke="midnightblue" d="M388,-232.753C388,-225.25 388,-214.424 388,-205.078"/>
<polygon fill="midnightblue" stroke="midnightblue" points="391.5,-205.075 388,-195.075 384.5,-205.075 391.5,-205.075"/>
</g>
<!-- Node29&#45;&gt;Node3 -->
<g id="edge35" class="edge"><title>Node29&#45;&gt;Node3</title>
<path fill="none" stroke="midnightblue" d="M419.208,-424.991C427.856,-422.604 437.267,-420.107 446,-418 501.315,-404.654 564.951,-391.712 609.871,-382.974"/>
<polygon fill="midnightblue" stroke="midnightblue" points="610.578,-386.402 619.73,-381.065 609.247,-379.53 610.578,-386.402"/>
</g>
<!-- Node30 -->
<g id="node30" class="node"><title>Node30</title>
<g id="a_node30"><a xlink:href="make__unique_8h.xhtml" target="_top" xlink:title="ePub3/utilities/make\l_unique.h">
<polygon fill="white" stroke="black" points="93.2539,-291 93.2539,-323 198.746,-323 198.746,-291 93.2539,-291"/>
<text text-anchor="start" x="101.254" y="-309" font-family="Helvetica,sans-Serif" font-size="10.00">ePub3/utilities/make</text>
<text text-anchor="middle" x="146" y="-297" font-family="Helvetica,sans-Serif" font-size="10.00">_unique.h</text>
</a>
</g>
</g>
<!-- Node29&#45;&gt;Node30 -->
<g id="edge36" class="edge"><title>Node29&#45;&gt;Node30</title>
<path fill="none" stroke="midnightblue" d="M362.528,-424.86C336.858,-415.314 296.373,-399.336 263,-382 232.173,-365.987 198.86,-344.467 175.695,-328.763"/>
<polygon fill="midnightblue" stroke="midnightblue" points="177.571,-325.806 167.34,-323.053 173.621,-331.585 177.571,-325.806"/>
</g>
<!-- Node33 -->
<g id="node33" class="node"><title>Node33</title>
<polygon fill="white" stroke="#bfbfbf" points="271.867,-361 271.867,-381 360.133,-381 360.133,-361 271.867,-361"/>
<text text-anchor="middle" x="316" y="-367" font-family="Helvetica,sans-Serif" font-size="10.00">google&#45;url/gurl.h</text>
</g>
<!-- Node29&#45;&gt;Node33 -->
<g id="edge42" class="edge"><title>Node29&#45;&gt;Node33</title>
<path fill="none" stroke="midnightblue" d="M377.376,-424.852C366.103,-415.144 348.075,-399.62 334.468,-387.903"/>
<polygon fill="midnightblue" stroke="midnightblue" points="336.529,-385.059 326.667,-381.186 331.961,-390.363 336.529,-385.059"/>
</g>
<!-- Node29&#45;&gt;Node13 -->
<g id="edge43" class="edge"><title>Node29&#45;&gt;Node13</title>
<path fill="none" stroke="midnightblue" d="M388.54,-424.667C390.602,-398.493 400.32,-324.08 445,-290 475.643,-266.626 739.578,-250.572 832.109,-245.618"/>
<polygon fill="midnightblue" stroke="midnightblue" points="832.467,-249.104 842.269,-245.082 832.098,-242.114 832.467,-249.104"/>
</g>
<!-- Node30&#45;&gt;Node5 -->
<g id="edge37" class="edge"><title>Node30&#45;&gt;Node5</title>
<path fill="none" stroke="midnightblue" d="M150.188,-290.848C155.871,-273.428 167.829,-245.504 189,-232 226.677,-207.967 523.284,-193.041 642.57,-187.957"/>
<polygon fill="midnightblue" stroke="midnightblue" points="643.03,-191.441 652.874,-187.524 642.736,-184.447 643.03,-191.441"/>
</g>
<!-- Node31 -->
<g id="node31" class="node"><title>Node31</title>
<polygon fill="white" stroke="#bfbfbf" points="-0.120605,-233 -0.120605,-253 48.1206,-253 48.1206,-233 -0.120605,-233"/>
<text text-anchor="middle" x="24" y="-239" font-family="Helvetica,sans-Serif" font-size="10.00">cstddef</text>
</g>
<!-- Node30&#45;&gt;Node31 -->
<g id="edge38" class="edge"><title>Node30&#45;&gt;Node31</title>
<path fill="none" stroke="midnightblue" d="M116.467,-290.992C96.4682,-280.828 70.255,-267.507 50.8474,-257.644"/>
<polygon fill="midnightblue" stroke="midnightblue" points="52.4242,-254.519 41.9237,-253.109 49.2529,-260.76 52.4242,-254.519"/>
</g>
<!-- Node30&#45;&gt;Node12 -->
<g id="edge39" class="edge"><title>Node30&#45;&gt;Node12</title>
<path fill="none" stroke="midnightblue" d="M123.397,-290.879C103.054,-275.438 78.6726,-251.091 95,-232 127.629,-193.849 280.538,-187.128 351.568,-186.092"/>
<polygon fill="midnightblue" stroke="midnightblue" points="351.873,-189.589 361.832,-185.974 351.792,-182.589 351.873,-189.589"/>
</g>
<!-- Node30&#45;&gt;Node17 -->
<g id="edge40" class="edge"><title>Node30&#45;&gt;Node17</title>
<path fill="none" stroke="midnightblue" d="M166.092,-290.992C178.878,-281.441 195.397,-269.101 208.299,-259.463"/>
<polygon fill="midnightblue" stroke="midnightblue" points="210.646,-262.079 216.563,-253.29 206.457,-256.471 210.646,-262.079"/>
</g>
<!-- Node32 -->
<g id="node32" class="node"><title>Node32</title>
<polygon fill="white" stroke="#bfbfbf" points="103.608,-233 103.608,-253 142.392,-253 142.392,-233 103.608,-233"/>
<text text-anchor="middle" x="123" y="-239" font-family="Helvetica,sans-Serif" font-size="10.00">utility</text>
</g>
<!-- Node30&#45;&gt;Node32 -->
<g id="edge41" class="edge"><title>Node30&#45;&gt;Node32</title>
<path fill="none" stroke="midnightblue" d="M140.432,-290.992C137.298,-282.543 133.354,-271.912 130.011,-262.899"/>
<polygon fill="midnightblue" stroke="midnightblue" points="133.206,-261.449 126.446,-253.29 126.643,-263.883 133.206,-261.449"/>
</g>
<!-- Node35&#45;&gt;Node3 -->
<g id="edge46" class="edge"><title>Node35&#45;&gt;Node3</title>
<path fill="none" stroke="midnightblue" d="M542.942,-418.992C570.85,-408.505 607.707,-394.656 634.167,-384.713"/>
<polygon fill="midnightblue" stroke="midnightblue" points="635.629,-387.903 643.759,-381.109 633.167,-381.35 635.629,-387.903"/>
</g>
</g>
</svg>
