<?xml version="1.0" encoding="UTF-8" standalone="no"?>
<!DOCTYPE svg PUBLIC "-//W3C//DTD SVG 1.1//EN"
 "http://www.w3.org/Graphics/SVG/1.1/DTD/svg11.dtd">
<!-- Generated by graphviz version 2.30.0 (20130114.0426)
 -->
<!-- Title: /Users/rkwright/Documents/github/readium&#45;sdk&#45;D/ePub3/ePub/media&#45;overlays_smil_data.h Pages: 1 -->
<svg width="452pt" height="170pt"
 viewBox="0.00 0.00 452.00 170.00" xmlns="http://www.w3.org/2000/svg" xmlns:xlink="http://www.w3.org/1999/xlink">
<g id="graph0" class="graph" transform="scale(1 1) rotate(0) translate(4 166)">
<title>/Users/rkwright/Documents/github/readium&#45;sdk&#45;D/ePub3/ePub/media&#45;overlays_smil_data.h</title>
<polygon fill="white" stroke="white" points="-4,5 -4,-166 449,-166 449,5 -4,5"/>
<!-- Node1 -->
<g id="node1" class="node"><title>Node1</title>
<polygon fill="#bfbfbf" stroke="black" points="149.293,-117 149.293,-161 318.707,-161 318.707,-117 149.293,-117"/>
<text text-anchor="start" x="157.293" y="-147" font-family="Helvetica,sans-Serif" font-size="10.00">/Users/rkwright/Documents</text>
<text text-anchor="start" x="157.293" y="-135" font-family="Helvetica,sans-Serif" font-size="10.00">/github/readium&#45;sdk&#45;D/ePub3</text>
<text text-anchor="middle" x="234" y="-123" font-family="Helvetica,sans-Serif" font-size="10.00">/ePub/media&#45;overlays_smil_data.h</text>
</g>
<!-- Node2 -->
<g id="node2" class="node"><title>Node2</title>
<polygon fill="white" stroke="#bfbfbf" points="-0.920898,-59 -0.920898,-79 82.9209,-79 82.9209,-59 -0.920898,-59"/>
<text text-anchor="middle" x="41" y="-65" font-family="Helvetica,sans-Serif" font-size="10.00">ePub3/epub3.h</text>
</g>
<!-- Node1&#45;&gt;Node2 -->
<g id="edge1" class="edge"><title>Node1&#45;&gt;Node2</title>
<path fill="none" stroke="midnightblue" d="M174.255,-116.95C142.112,-105.625 103.572,-92.0463 76.2274,-82.4117"/>
<polygon fill="midnightblue" stroke="midnightblue" points="77.2868,-79.0742 66.692,-79.0521 74.9606,-85.6764 77.2868,-79.0742"/>
</g>
<!-- Node3 -->
<g id="node3" class="node"><title>Node3</title>
<g id="a_node3"><a xlink:href="owned__by_8h.xhtml" target="_top" xlink:title="ePub3/utilities/owned_by.h">
<polygon fill="white" stroke="black" points="100.884,-59 100.884,-79 235.116,-79 235.116,-59 100.884,-59"/>
<text text-anchor="middle" x="168" y="-65" font-family="Helvetica,sans-Serif" font-size="10.00">ePub3/utilities/owned_by.h</text>
</a>
</g>
</g>
<!-- Node1&#45;&gt;Node3 -->
<g id="edge2" class="edge"><title>Node1&#45;&gt;Node3</title>
<path fill="none" stroke="midnightblue" d="M213.479,-116.857C203.996,-107.087 192.901,-95.6561 184.044,-86.5303"/>
<polygon fill="midnightblue" stroke="midnightblue" points="186.41,-83.9421 176.933,-79.2039 181.386,-88.8174 186.41,-83.9421"/>
</g>
<!-- Node6 -->
<g id="node6" class="node"><title>Node6</title>
<polygon fill="white" stroke="#bfbfbf" points="253.086,-59 253.086,-79 346.914,-79 346.914,-59 253.086,-59"/>
<text text-anchor="middle" x="300" y="-65" font-family="Helvetica,sans-Serif" font-size="10.00">ePub3/manifest.h</text>
</g>
<!-- Node1&#45;&gt;Node6 -->
<g id="edge5" class="edge"><title>Node1&#45;&gt;Node6</title>
<path fill="none" stroke="midnightblue" d="M254.521,-116.857C264.004,-107.087 275.099,-95.6561 283.956,-86.5303"/>
<polygon fill="midnightblue" stroke="midnightblue" points="286.614,-88.8174 291.067,-79.2039 281.59,-83.9421 286.614,-88.8174"/>
</g>
<!-- Node7 -->
<g id="node7" class="node"><title>Node7</title>
<polygon fill="white" stroke="#bfbfbf" points="365.03,-59 365.03,-79 444.97,-79 444.97,-59 365.03,-59"/>
<text text-anchor="middle" x="405" y="-65" font-family="Helvetica,sans-Serif" font-size="10.00">ePub3/spine.h</text>
</g>
<!-- Node1&#45;&gt;Node7 -->
<g id="edge6" class="edge"><title>Node1&#45;&gt;Node7</title>
<path fill="none" stroke="midnightblue" d="M287.168,-116.857C315.259,-105.686 348.811,-92.344 372.915,-82.7589"/>
<polygon fill="midnightblue" stroke="midnightblue" points="374.302,-85.9741 382.301,-79.0266 371.715,-79.4695 374.302,-85.9741"/>
</g>
<!-- Node4 -->
<g id="node4" class="node"><title>Node4</title>
<polygon fill="white" stroke="#bfbfbf" points="103.943,-1 103.943,-21 156.057,-21 156.057,-1 103.943,-1"/>
<text text-anchor="middle" x="130" y="-7" font-family="Helvetica,sans-Serif" font-size="10.00">memory</text>
</g>
<!-- Node3&#45;&gt;Node4 -->
<g id="edge3" class="edge"><title>Node3&#45;&gt;Node4</title>
<path fill="none" stroke="midnightblue" d="M161.725,-58.7527C156.358,-50.8427 148.482,-39.2372 141.921,-29.5683"/>
<polygon fill="midnightblue" stroke="midnightblue" points="144.669,-27.3847 136.158,-21.0752 138.877,-31.3152 144.669,-27.3847"/>
</g>
<!-- Node5 -->
<g id="node5" class="node"><title>Node5</title>
<polygon fill="white" stroke="#bfbfbf" points="173.934,-1 173.934,-21 236.066,-21 236.066,-1 173.934,-1"/>
<text text-anchor="middle" x="205" y="-7" font-family="Helvetica,sans-Serif" font-size="10.00">type_traits</text>
</g>
<!-- Node3&#45;&gt;Node5 -->
<g id="edge4" class="edge"><title>Node3&#45;&gt;Node5</title>
<path fill="none" stroke="midnightblue" d="M174.11,-58.7527C179.336,-50.8427 187.004,-39.2372 193.392,-29.5683"/>
<polygon fill="midnightblue" stroke="midnightblue" points="196.411,-31.348 199.004,-21.0752 190.571,-27.4891 196.411,-31.348"/>
</g>
</g>
</svg>
