<?xml version="1.0" encoding="UTF-8" standalone="no"?>
<!DOCTYPE svg PUBLIC "-//W3C//DTD SVG 1.1//EN"
 "http://www.w3.org/Graphics/SVG/1.1/DTD/svg11.dtd">
<!-- Generated by graphviz version 2.30.0 (20130114.0426)
 -->
<!-- Title: /Users/rkwright/Documents/github/readium&#45;sdk&#45;D/ePub3/ePub/media&#45;overlays_smil_model.h Pages: 1 -->
<svg width="2052pt" height="612pt"
 viewBox="0.00 0.00 2052.00 612.00" xmlns="http://www.w3.org/2000/svg" xmlns:xlink="http://www.w3.org/1999/xlink">
<g id="graph0" class="graph" transform="scale(1 1) rotate(0) translate(4 608)">
<title>/Users/rkwright/Documents/github/readium&#45;sdk&#45;D/ePub3/ePub/media&#45;overlays_smil_model.h</title>
<polygon fill="white" stroke="white" points="-4,5 -4,-608 2049,-608 2049,5 -4,5"/>
<!-- Node1 -->
<g id="node1" class="node"><title>Node1</title>
<polygon fill="#bfbfbf" stroke="black" points="215.407,-559 215.407,-603 392.593,-603 392.593,-559 215.407,-559"/>
<text text-anchor="start" x="223.407" y="-589" font-family="Helvetica,sans-Serif" font-size="10.00">/Users/rkwright/Documents</text>
<text text-anchor="start" x="223.407" y="-577" font-family="Helvetica,sans-Serif" font-size="10.00">/github/readium&#45;sdk&#45;D/ePub3</text>
<text text-anchor="middle" x="304" y="-565" font-family="Helvetica,sans-Serif" font-size="10.00">/ePub/media&#45;overlays_smil_model.h</text>
</g>
<!-- Node2 -->
<g id="node2" class="node"><title>Node2</title>
<polygon fill="white" stroke="#bfbfbf" points="-0.920898,-425 -0.920898,-445 82.9209,-445 82.9209,-425 -0.920898,-425"/>
<text text-anchor="middle" x="41" y="-431" font-family="Helvetica,sans-Serif" font-size="10.00">ePub3/epub3.h</text>
</g>
<!-- Node1&#45;&gt;Node2 -->
<g id="edge1" class="edge"><title>Node1&#45;&gt;Node2</title>
<path fill="none" stroke="midnightblue" d="M245.126,-558.902C219.597,-548.922 189.723,-536.101 164,-522 125.304,-500.786 83.9737,-470.001 60.4313,-451.593"/>
<polygon fill="midnightblue" stroke="midnightblue" points="62.3393,-448.64 52.3219,-445.19 58.0014,-454.134 62.3393,-448.64"/>
</g>
<!-- Node3 -->
<g id="node3" class="node"><title>Node3</title>
<g id="a_node3"><a xlink:href="owned__by_8h.xhtml" target="_top" xlink:title="ePub3/utilities/owned_by.h">
<polygon fill="white" stroke="black" points="310.884,-425 310.884,-445 445.116,-445 445.116,-425 310.884,-425"/>
<text text-anchor="middle" x="378" y="-431" font-family="Helvetica,sans-Serif" font-size="10.00">ePub3/utilities/owned_by.h</text>
</a>
</g>
</g>
<!-- Node1&#45;&gt;Node3 -->
<g id="edge2" class="edge"><title>Node1&#45;&gt;Node3</title>
<path fill="none" stroke="midnightblue" d="M314.919,-558.752C329.464,-530.449 354.95,-480.855 368.652,-454.19"/>
<polygon fill="midnightblue" stroke="midnightblue" points="371.822,-455.68 373.28,-445.186 365.596,-452.48 371.822,-455.68"/>
</g>
<!-- Node6 -->
<g id="node6" class="node"><title>Node6</title>
<polygon fill="white" stroke="#bfbfbf" points="101.086,-425 101.086,-445 194.914,-445 194.914,-425 101.086,-425"/>
<text text-anchor="middle" x="148" y="-431" font-family="Helvetica,sans-Serif" font-size="10.00">ePub3/manifest.h</text>
</g>
<!-- Node1&#45;&gt;Node6 -->
<g id="edge5" class="edge"><title>Node1&#45;&gt;Node6</title>
<path fill="none" stroke="midnightblue" d="M245.356,-558.996C225.959,-549.896 205.417,-537.671 190,-522 171.21,-502.9 159.427,-473.741 153.279,-454.773"/>
<polygon fill="midnightblue" stroke="midnightblue" points="156.62,-453.727 150.367,-445.173 149.921,-455.759 156.62,-453.727"/>
</g>
<!-- Node7 -->
<g id="node7" class="node"><title>Node7</title>
<polygon fill="white" stroke="#bfbfbf" points="462.695,-425 462.695,-445 559.305,-445 559.305,-425 462.695,-425"/>
<text text-anchor="middle" x="511" y="-431" font-family="Helvetica,sans-Serif" font-size="10.00">ePub3/xml/node.h</text>
</g>
<!-- Node1&#45;&gt;Node7 -->
<g id="edge6" class="edge"><title>Node1&#45;&gt;Node7</title>
<path fill="none" stroke="midnightblue" d="M334.544,-558.752C376.843,-529.326 452.222,-476.889 489.251,-451.13"/>
<polygon fill="midnightblue" stroke="midnightblue" points="491.585,-453.77 497.796,-445.186 487.588,-448.023 491.585,-453.77"/>
</g>
<!-- Node8 -->
<g id="node8" class="node"><title>Node8</title>
<g id="a_node8"><a xlink:href="media-overlays__smil__data_8h.xhtml" target="_top" xlink:title="media&#45;overlays_smil\l_data.h">
<polygon fill="white" stroke="black" points="199.431,-489 199.431,-521 306.569,-521 306.569,-489 199.431,-489"/>
<text text-anchor="start" x="207.431" y="-507" font-family="Helvetica,sans-Serif" font-size="10.00">media&#45;overlays_smil</text>
<text text-anchor="middle" x="253" y="-495" font-family="Helvetica,sans-Serif" font-size="10.00">_data.h</text>
</a>
</g>
</g>
<!-- Node1&#45;&gt;Node8 -->
<g id="edge7" class="edge"><title>Node1&#45;&gt;Node8</title>
<path fill="none" stroke="midnightblue" d="M289.522,-558.993C283.273,-549.926 275.931,-539.273 269.475,-529.905"/>
<polygon fill="midnightblue" stroke="midnightblue" points="272.178,-527.659 263.621,-521.412 266.414,-531.632 272.178,-527.659"/>
</g>
<!-- Node10 -->
<g id="node10" class="node"><title>Node10</title>
<g id="a_node10"><a xlink:href="package_8h.xhtml" target="_top" xlink:title="package.h">
<polygon fill="white" stroke="black" points="1039.93,-495 1039.93,-515 1102.07,-515 1102.07,-495 1039.93,-495"/>
<text text-anchor="middle" x="1071" y="-501" font-family="Helvetica,sans-Serif" font-size="10.00">package.h</text>
</a>
</g>
</g>
<!-- Node1&#45;&gt;Node10 -->
<g id="edge12" class="edge"><title>Node1&#45;&gt;Node10</title>
<path fill="none" stroke="midnightblue" d="M392.734,-571.439C558.477,-555.448 909.192,-521.611 1029.48,-510.005"/>
<polygon fill="midnightblue" stroke="midnightblue" points="1030.12,-513.461 1039.73,-509.016 1029.44,-506.493 1030.12,-513.461"/>
</g>
<!-- Node4 -->
<g id="node4" class="node"><title>Node4</title>
<polygon fill="white" stroke="#bfbfbf" points="859.943,-175 859.943,-195 912.057,-195 912.057,-175 859.943,-175"/>
<text text-anchor="middle" x="886" y="-181" font-family="Helvetica,sans-Serif" font-size="10.00">memory</text>
</g>
<!-- Node3&#45;&gt;Node4 -->
<g id="edge3" class="edge"><title>Node3&#45;&gt;Node4</title>
<path fill="none" stroke="midnightblue" d="M383.647,-424.729C404.22,-391.865 478.91,-280.325 573,-232 620.633,-207.535 777.293,-193.652 849.258,-188.424"/>
<polygon fill="midnightblue" stroke="midnightblue" points="849.918,-191.886 859.645,-187.687 849.422,-184.904 849.918,-191.886"/>
</g>
<!-- Node5 -->
<g id="node5" class="node"><title>Node5</title>
<polygon fill="white" stroke="#bfbfbf" points="752.934,-233 752.934,-253 815.066,-253 815.066,-233 752.934,-233"/>
<text text-anchor="middle" x="784" y="-239" font-family="Helvetica,sans-Serif" font-size="10.00">type_traits</text>
</g>
<!-- Node3&#45;&gt;Node5 -->
<g id="edge4" class="edge"><title>Node3&#45;&gt;Node5</title>
<path fill="none" stroke="midnightblue" d="M412.058,-424.883C468.365,-409.031 583.433,-373.303 672,-324 693.593,-311.979 695.977,-304.486 716,-290 730.918,-279.207 748.097,-267.593 761.455,-258.735"/>
<polygon fill="midnightblue" stroke="midnightblue" points="763.598,-261.514 770.018,-253.086 759.743,-255.671 763.598,-261.514"/>
</g>
<!-- Node8&#45;&gt;Node2 -->
<g id="edge8" class="edge"><title>Node8&#45;&gt;Node2</title>
<path fill="none" stroke="midnightblue" d="M206.213,-488.993C167.872,-476.695 114.312,-459.515 78.6866,-448.088"/>
<polygon fill="midnightblue" stroke="midnightblue" points="79.7329,-444.748 69.1417,-445.027 77.5948,-451.414 79.7329,-444.748"/>
</g>
<!-- Node8&#45;&gt;Node3 -->
<g id="edge9" class="edge"><title>Node8&#45;&gt;Node3</title>
<path fill="none" stroke="midnightblue" d="M280.742,-488.909C302.198,-477.236 331.668,-461.205 352.53,-449.856"/>
<polygon fill="midnightblue" stroke="midnightblue" points="354.338,-452.857 361.449,-445.004 350.992,-446.708 354.338,-452.857"/>
</g>
<!-- Node8&#45;&gt;Node6 -->
<g id="edge10" class="edge"><title>Node8&#45;&gt;Node6</title>
<path fill="none" stroke="midnightblue" d="M229.697,-488.909C211.998,-477.447 187.809,-461.781 170.349,-450.474"/>
<polygon fill="midnightblue" stroke="midnightblue" points="172.199,-447.502 161.903,-445.004 168.394,-453.377 172.199,-447.502"/>
</g>
<!-- Node9 -->
<g id="node9" class="node"><title>Node9</title>
<polygon fill="white" stroke="#bfbfbf" points="213.03,-425 213.03,-445 292.97,-445 292.97,-425 213.03,-425"/>
<text text-anchor="middle" x="253" y="-431" font-family="Helvetica,sans-Serif" font-size="10.00">ePub3/spine.h</text>
</g>
<!-- Node8&#45;&gt;Node9 -->
<g id="edge11" class="edge"><title>Node8&#45;&gt;Node9</title>
<path fill="none" stroke="midnightblue" d="M253,-488.909C253,-478.919 253,-465.736 253,-455.028"/>
<polygon fill="midnightblue" stroke="midnightblue" points="256.5,-455.004 253,-445.004 249.5,-455.004 256.5,-455.004"/>
</g>
<!-- Node10&#45;&gt;Node2 -->
<g id="edge13" class="edge"><title>Node10&#45;&gt;Node2</title>
<path fill="none" stroke="midnightblue" d="M1039.7,-503.393C893.891,-500.404 280.437,-486.004 92,-452 86.5207,-451.011 80.8083,-449.607 75.2731,-448.036"/>
<polygon fill="midnightblue" stroke="midnightblue" points="76.1757,-444.653 65.5896,-445.084 74.1338,-451.348 76.1757,-444.653"/>
</g>
<!-- Node11 -->
<g id="node11" class="node"><title>Node11</title>
<polygon fill="white" stroke="#bfbfbf" points="1763.77,-233 1763.77,-253 1804.23,-253 1804.23,-233 1763.77,-233"/>
<text text-anchor="middle" x="1784" y="-239" font-family="Helvetica,sans-Serif" font-size="10.00">string</text>
</g>
<!-- Node10&#45;&gt;Node11 -->
<g id="edge14" class="edge"><title>Node10&#45;&gt;Node11</title>
<path fill="none" stroke="midnightblue" d="M1102.35,-503.482C1238.57,-501.018 1775.14,-489.019 1840,-452 1904.41,-415.239 1923.02,-350.408 1880,-290 1864.54,-268.298 1836.05,-256.45 1814.1,-250.241"/>
<polygon fill="midnightblue" stroke="midnightblue" points="1814.81,-246.807 1804.25,-247.698 1813.06,-253.585 1814.81,-246.807"/>
</g>
<!-- Node12 -->
<g id="node12" class="node"><title>Node12</title>
<polygon fill="white" stroke="#bfbfbf" points="882.384,-233 882.384,-253 925.616,-253 925.616,-233 882.384,-233"/>
<text text-anchor="middle" x="904" y="-239" font-family="Helvetica,sans-Serif" font-size="10.00">vector</text>
</g>
<!-- Node10&#45;&gt;Node12 -->
<g id="edge15" class="edge"><title>Node10&#45;&gt;Node12</title>
<path fill="none" stroke="midnightblue" d="M1039.9,-502.876C940.445,-498.966 634.972,-484.393 606,-452 595.926,-440.737 598.476,-431.105 606,-418 636.055,-365.648 803.454,-287.895 873.341,-257.173"/>
<polygon fill="midnightblue" stroke="midnightblue" points="874.768,-260.369 882.53,-253.158 871.966,-253.955 874.768,-260.369"/>
</g>
<!-- Node13 -->
<g id="node13" class="node"><title>Node13</title>
<polygon fill="white" stroke="#bfbfbf" points="1812.27,-297 1812.27,-317 1847.73,-317 1847.73,-297 1812.27,-297"/>
<text text-anchor="middle" x="1830" y="-303" font-family="Helvetica,sans-Serif" font-size="10.00">map</text>
</g>
<!-- Node10&#45;&gt;Node13 -->
<g id="edge16" class="edge"><title>Node10&#45;&gt;Node13</title>
<path fill="none" stroke="midnightblue" d="M1102.32,-503.7C1232.39,-502.187 1725.67,-493.721 1780,-452 1819.07,-421.996 1827.76,-359.493 1829.59,-327.615"/>
<polygon fill="midnightblue" stroke="midnightblue" points="1833.1,-327.504 1830,-317.372 1826.1,-327.225 1833.1,-327.504"/>
</g>
<!-- Node14 -->
<g id="node14" class="node"><title>Node14</title>
<polygon fill="white" stroke="#bfbfbf" points="1403.5,-233 1403.5,-253 1432.5,-253 1432.5,-233 1403.5,-233"/>
<text text-anchor="middle" x="1417.61" y="-239" font-family="Helvetica,sans-Serif" font-size="10.00">list</text>
</g>
<!-- Node10&#45;&gt;Node14 -->
<g id="edge17" class="edge"><title>Node10&#45;&gt;Node14</title>
<path fill="none" stroke="midnightblue" d="M1102.08,-503.689C1234.67,-502.109 1748.87,-493.344 1807,-452 1868.3,-408.403 1906.83,-345.446 1856,-290 1795.6,-224.125 1548.36,-272.66 1442.8,-253.154"/>
<polygon fill="midnightblue" stroke="midnightblue" points="1443.25,-249.671 1432.74,-250.973 1441.77,-256.512 1443.25,-249.671"/>
</g>
<!-- Node10&#45;&gt;Node7 -->
<g id="edge18" class="edge"><title>Node10&#45;&gt;Node7</title>
<path fill="none" stroke="midnightblue" d="M1039.89,-502.361C961.177,-497.868 747.95,-483.528 573,-452 566.238,-450.781 559.126,-449.218 552.228,-447.548"/>
<polygon fill="midnightblue" stroke="midnightblue" points="552.894,-444.107 542.341,-445.053 551.18,-450.894 552.894,-444.107"/>
</g>
<!-- Node10&#45;&gt;Node3 -->
<g id="edge19" class="edge"><title>Node10&#45;&gt;Node3</title>
<path fill="none" stroke="midnightblue" d="M1039.71,-502.729C948.806,-498.744 677.085,-484.756 454,-452 445.083,-450.691 435.641,-448.974 426.556,-447.153"/>
<polygon fill="midnightblue" stroke="midnightblue" points="427,-443.67 416.498,-445.067 425.579,-450.525 427,-443.67"/>
</g>
<!-- Node15 -->
<g id="node15" class="node"><title>Node15</title>
<polygon fill="white" stroke="#bfbfbf" points="1941.91,-425 1941.91,-445 2044.09,-445 2044.09,-425 1941.91,-425"/>
<text text-anchor="middle" x="1993" y="-431" font-family="Helvetica,sans-Serif" font-size="10.00">ePub3/encryption.h</text>
</g>
<!-- Node10&#45;&gt;Node15 -->
<g id="edge20" class="edge"><title>Node10&#45;&gt;Node15</title>
<path fill="none" stroke="midnightblue" d="M1102.34,-504.134C1214.8,-504.186 1608.22,-500.65 1928,-452 1935.59,-450.845 1943.59,-449.221 1951.28,-447.447"/>
<polygon fill="midnightblue" stroke="midnightblue" points="1952.27,-450.81 1961.16,-445.055 1950.62,-444.007 1952.27,-450.81"/>
</g>
<!-- Node10&#45;&gt;Node9 -->
<g id="edge21" class="edge"><title>Node10&#45;&gt;Node9</title>
<path fill="none" stroke="midnightblue" d="M1039.52,-502.913C913.735,-498.41 446.993,-480.121 302,-452 296.861,-451.003 291.511,-449.627 286.316,-448.096"/>
<polygon fill="midnightblue" stroke="midnightblue" points="287.203,-444.705 276.613,-445.021 285.088,-451.378 287.203,-444.705"/>
</g>
<!-- Node10&#45;&gt;Node6 -->
<g id="edge22" class="edge"><title>Node10&#45;&gt;Node6</title>
<path fill="none" stroke="midnightblue" d="M1039.76,-503.041C904.612,-498.753 369.734,-480.296 204,-452 197.721,-450.928 191.141,-449.415 184.788,-447.742"/>
<polygon fill="midnightblue" stroke="midnightblue" points="185.642,-444.346 175.068,-445.023 183.756,-451.088 185.642,-444.346"/>
</g>
<!-- Node16 -->
<g id="node16" class="node"><title>Node16</title>
<polygon fill="white" stroke="#bfbfbf" points="614.983,-425 614.983,-445 681.017,-445 681.017,-425 614.983,-425"/>
<text text-anchor="middle" x="648" y="-431" font-family="Helvetica,sans-Serif" font-size="10.00">ePub3/cfi.h</text>
</g>
<!-- Node10&#45;&gt;Node16 -->
<g id="edge23" class="edge"><title>Node10&#45;&gt;Node16</title>
<path fill="none" stroke="midnightblue" d="M1039.92,-502.168C974.359,-497.78 817.433,-484.513 690,-452 686.305,-451.057 682.49,-449.891 678.735,-448.622"/>
<polygon fill="midnightblue" stroke="midnightblue" points="679.656,-445.232 669.062,-445.101 677.262,-451.81 679.656,-445.232"/>
</g>
<!-- Node17 -->
<g id="node17" class="node"><title>Node17</title>
<polygon fill="white" stroke="#bfbfbf" points="699.353,-425 699.353,-445 812.647,-445 812.647,-425 699.353,-425"/>
<text text-anchor="middle" x="756" y="-431" font-family="Helvetica,sans-Serif" font-size="10.00">ePub3/nav_element.h</text>
</g>
<!-- Node10&#45;&gt;Node17 -->
<g id="edge24" class="edge"><title>Node10&#45;&gt;Node17</title>
<path fill="none" stroke="midnightblue" d="M1039.74,-497.877C992.334,-488.505 899.466,-469.812 821,-452 814.753,-450.582 808.182,-449.033 801.717,-447.474"/>
<polygon fill="midnightblue" stroke="midnightblue" points="802.25,-444.002 791.705,-445.036 800.593,-450.803 802.25,-444.002"/>
</g>
<!-- Node18 -->
<g id="node18" class="node"><title>Node18</title>
<polygon fill="white" stroke="#bfbfbf" points="830.308,-425 830.308,-445 939.692,-445 939.692,-425 830.308,-425"/>
<text text-anchor="middle" x="885" y="-431" font-family="Helvetica,sans-Serif" font-size="10.00">ePub3/archive_xml.h</text>
</g>
<!-- Node10&#45;&gt;Node18 -->
<g id="edge25" class="edge"><title>Node10&#45;&gt;Node18</title>
<path fill="none" stroke="midnightblue" d="M1046.3,-494.97C1013.78,-483.082 956.436,-462.116 919.607,-448.652"/>
<polygon fill="midnightblue" stroke="midnightblue" points="920.395,-445.214 909.802,-445.067 917.992,-451.788 920.395,-445.214"/>
</g>
<!-- Node19 -->
<g id="node19" class="node"><title>Node19</title>
<g id="a_node19"><a xlink:href="utfstring_8h.xhtml" target="_top" xlink:title="ePub3/utilities/utfstring.h">
<polygon fill="white" stroke="black" points="1355.52,-361 1355.52,-381 1480.48,-381 1480.48,-361 1355.52,-361"/>
<text text-anchor="middle" x="1418" y="-367" font-family="Helvetica,sans-Serif" font-size="10.00">ePub3/utilities/utfstring.h</text>
</a>
</g>
</g>
<!-- Node10&#45;&gt;Node19 -->
<g id="edge26" class="edge"><title>Node10&#45;&gt;Node19</title>
<path fill="none" stroke="midnightblue" d="M1102.35,-504.011C1229.12,-503.736 1699.03,-499.5 1743,-452 1753.26,-440.91 1752.91,-429.409 1743,-418 1711,-381.151 1576.32,-373.019 1490.7,-371.672"/>
<polygon fill="midnightblue" stroke="midnightblue" points="1490.55,-368.17 1480.51,-371.54 1490.46,-375.17 1490.55,-368.17"/>
</g>
<!-- Node39 -->
<g id="node39" class="node"><title>Node39</title>
<g id="a_node39"><a xlink:href="iri_8h.xhtml" target="_top" xlink:title="ePub3/utilities/iri.h">
<polygon fill="white" stroke="black" points="957.424,-425 957.424,-445 1054.58,-445 1054.58,-425 957.424,-425"/>
<text text-anchor="middle" x="1006" y="-431" font-family="Helvetica,sans-Serif" font-size="10.00">ePub3/utilities/iri.h</text>
</a>
</g>
</g>
<!-- Node10&#45;&gt;Node39 -->
<g id="edge58" class="edge"><title>Node10&#45;&gt;Node39</title>
<path fill="none" stroke="midnightblue" d="M1062.23,-494.829C1051.9,-484.022 1034.54,-465.854 1021.83,-452.562"/>
<polygon fill="midnightblue" stroke="midnightblue" points="1024.07,-449.836 1014.63,-445.025 1019.01,-454.673 1024.07,-449.836"/>
</g>
<!-- Node44 -->
<g id="node44" class="node"><title>Node44</title>
<polygon fill="white" stroke="#bfbfbf" points="1072.39,-425 1072.39,-445 1199.61,-445 1199.61,-425 1072.39,-425"/>
<text text-anchor="middle" x="1136" y="-431" font-family="Helvetica,sans-Serif" font-size="10.00">ePub3/content_handler.h</text>
</g>
<!-- Node10&#45;&gt;Node44 -->
<g id="edge68" class="edge"><title>Node10&#45;&gt;Node44</title>
<path fill="none" stroke="midnightblue" d="M1079.77,-494.829C1090.1,-484.022 1107.46,-465.854 1120.17,-452.562"/>
<polygon fill="midnightblue" stroke="midnightblue" points="1122.99,-454.673 1127.37,-445.025 1117.93,-449.836 1122.99,-454.673"/>
</g>
<!-- Node45 -->
<g id="node45" class="node"><title>Node45</title>
<polygon fill="white" stroke="#bfbfbf" points="1218.08,-419 1218.08,-451 1331.92,-451 1331.92,-419 1218.08,-419"/>
<text text-anchor="start" x="1226.08" y="-437" font-family="Helvetica,sans-Serif" font-size="10.00">ePub3/media_support</text>
<text text-anchor="middle" x="1275" y="-425" font-family="Helvetica,sans-Serif" font-size="10.00">_info.h</text>
</g>
<!-- Node10&#45;&gt;Node45 -->
<g id="edge69" class="edge"><title>Node10&#45;&gt;Node45</title>
<path fill="none" stroke="midnightblue" d="M1098.09,-494.97C1129.06,-484.646 1180.58,-467.474 1220.05,-454.317"/>
<polygon fill="midnightblue" stroke="midnightblue" points="1221.43,-457.547 1229.81,-451.064 1219.21,-450.906 1221.43,-457.547"/>
</g>
<!-- Node46 -->
<g id="node46" class="node"><title>Node46</title>
<polygon fill="white" stroke="#bfbfbf" points="1350.23,-425 1350.23,-445 1475.77,-445 1475.77,-425 1350.23,-425"/>
<text text-anchor="middle" x="1413" y="-431" font-family="Helvetica,sans-Serif" font-size="10.00">ePub3/property_holder.h</text>
</g>
<!-- Node10&#45;&gt;Node46 -->
<g id="edge70" class="edge"><title>Node10&#45;&gt;Node46</title>
<path fill="none" stroke="midnightblue" d="M1102.12,-498.245C1152.27,-488.91 1254.05,-469.724 1340,-452 1347.33,-450.488 1355.07,-448.844 1362.66,-447.205"/>
<polygon fill="midnightblue" stroke="midnightblue" points="1363.47,-450.611 1372.49,-445.065 1361.98,-443.771 1363.47,-450.611"/>
</g>
<!-- Node47 -->
<g id="node47" class="node"><title>Node47</title>
<polygon fill="white" stroke="#bfbfbf" points="1494.23,-425 1494.23,-445 1619.77,-445 1619.77,-425 1494.23,-425"/>
<text text-anchor="middle" x="1557" y="-431" font-family="Helvetica,sans-Serif" font-size="10.00">ePub3/epub_collection.h</text>
</g>
<!-- Node10&#45;&gt;Node47 -->
<g id="edge71" class="edge"><title>Node10&#45;&gt;Node47</title>
<path fill="none" stroke="midnightblue" d="M1102.23,-501.043C1171.33,-494.288 1342.27,-476.402 1484,-452 1492.09,-450.607 1500.64,-448.925 1508.93,-447.182"/>
<polygon fill="midnightblue" stroke="midnightblue" points="1509.82,-450.57 1518.86,-445.042 1508.35,-443.727 1509.82,-450.57"/>
</g>
<!-- Node48 -->
<g id="node48" class="node"><title>Node48</title>
<g id="a_node48"><a xlink:href="xml__identifiable_8h.xhtml" target="_top" xlink:title="ePub3/utilities/xml\l_identifiable.h">
<polygon fill="white" stroke="black" points="1637.7,-419 1637.7,-451 1734.3,-451 1734.3,-419 1637.7,-419"/>
<text text-anchor="start" x="1645.7" y="-437" font-family="Helvetica,sans-Serif" font-size="10.00">ePub3/utilities/xml</text>
<text text-anchor="middle" x="1686" y="-425" font-family="Helvetica,sans-Serif" font-size="10.00">_identifiable.h</text>
</a>
</g>
</g>
<!-- Node10&#45;&gt;Node48 -->
<g id="edge72" class="edge"><title>Node10&#45;&gt;Node48</title>
<path fill="none" stroke="midnightblue" d="M1102.36,-503.006C1186.16,-499.941 1422.23,-488.632 1627.36,-451.898"/>
<polygon fill="midnightblue" stroke="midnightblue" points="1628.2,-455.303 1637.41,-450.072 1626.95,-448.416 1628.2,-455.303"/>
</g>
<!-- Node29 -->
<g id="node29" class="node"><title>Node29</title>
<g id="a_node29"><a xlink:href="string__view_8h.xhtml" target="_top" xlink:title="ePub3/utilities/string\l_view.h">
<polygon fill="white" stroke="black" points="1650.25,-291 1650.25,-323 1755.75,-323 1755.75,-291 1650.25,-291"/>
<text text-anchor="start" x="1658.25" y="-309" font-family="Helvetica,sans-Serif" font-size="10.00">ePub3/utilities/string</text>
<text text-anchor="middle" x="1703" y="-297" font-family="Helvetica,sans-Serif" font-size="10.00">_view.h</text>
</a>
</g>
</g>
<!-- Node10&#45;&gt;Node29 -->
<g id="edge74" class="edge"><title>Node10&#45;&gt;Node29</title>
<path fill="none" stroke="midnightblue" d="M1102.27,-504.075C1230.93,-504.064 1714.78,-500.761 1760,-452 1792.22,-417.253 1753.06,-362.095 1725.53,-331.101"/>
<polygon fill="midnightblue" stroke="midnightblue" points="1727.82,-328.419 1718.49,-323.403 1722.66,-333.144 1727.82,-328.419"/>
</g>
<!-- Node20 -->
<g id="node20" class="node"><title>Node20</title>
<g id="a_node20"><a xlink:href="basic_8h.xhtml" target="_top" xlink:title="ePub3/utilities/basic.h">
<polygon fill="white" stroke="black" points="1146.64,-297 1146.64,-317 1259.36,-317 1259.36,-297 1146.64,-297"/>
<text text-anchor="middle" x="1203" y="-303" font-family="Helvetica,sans-Serif" font-size="10.00">ePub3/utilities/basic.h</text>
</a>
</g>
</g>
<!-- Node19&#45;&gt;Node20 -->
<g id="edge27" class="edge"><title>Node19&#45;&gt;Node20</title>
<path fill="none" stroke="midnightblue" d="M1386.74,-360.985C1349.08,-350.125 1285.71,-331.85 1244.12,-319.857"/>
<polygon fill="midnightblue" stroke="midnightblue" points="1244.88,-316.434 1234.3,-317.026 1242.94,-323.16 1244.88,-316.434"/>
</g>
<!-- Node28 -->
<g id="node28" class="node"><title>Node28</title>
<g id="a_node28"><a xlink:href="integer__sequence_8h.xhtml" target="_top" xlink:title="ePub3/utilities/integer\l_sequence.h">
<polygon fill="white" stroke="black" points="1520.19,-291 1520.19,-323 1631.81,-323 1631.81,-291 1520.19,-291"/>
<text text-anchor="start" x="1528.19" y="-309" font-family="Helvetica,sans-Serif" font-size="10.00">ePub3/utilities/integer</text>
<text text-anchor="middle" x="1576" y="-297" font-family="Helvetica,sans-Serif" font-size="10.00">_sequence.h</text>
</a>
</g>
</g>
<!-- Node19&#45;&gt;Node28 -->
<g id="edge38" class="edge"><title>Node19&#45;&gt;Node28</title>
<path fill="none" stroke="midnightblue" d="M1440.97,-360.985C1463.74,-352.053 1499.28,-338.105 1528.19,-326.762"/>
<polygon fill="midnightblue" stroke="midnightblue" points="1529.68,-329.937 1537.71,-323.026 1527.12,-323.421 1529.68,-329.937"/>
</g>
<!-- Node19&#45;&gt;Node29 -->
<g id="edge40" class="edge"><title>Node19&#45;&gt;Node29</title>
<path fill="none" stroke="midnightblue" d="M1464.48,-360.994C1509.48,-352.125 1579.59,-337.922 1640,-324 1640.1,-323.976 1640.21,-323.952 1640.31,-323.929"/>
<polygon fill="midnightblue" stroke="midnightblue" points="1641.18,-327.32 1650.11,-321.615 1639.57,-320.507 1641.18,-327.32"/>
</g>
<!-- Node19&#45;&gt;Node11 -->
<g id="edge49" class="edge"><title>Node19&#45;&gt;Node11</title>
<path fill="none" stroke="midnightblue" d="M1480.62,-369.85C1568.79,-368.312 1723.32,-360.329 1764,-324 1780.98,-308.837 1784.58,-281.649 1784.87,-263.222"/>
<polygon fill="midnightblue" stroke="midnightblue" points="1788.37,-263.012 1784.72,-253.067 1781.37,-263.119 1788.37,-263.012"/>
</g>
<!-- Node34 -->
<g id="node34" class="node"><title>Node34</title>
<polygon fill="white" stroke="#bfbfbf" points="1394.44,-297 1394.44,-317 1441.56,-317 1441.56,-297 1394.44,-297"/>
<text text-anchor="middle" x="1418" y="-303" font-family="Helvetica,sans-Serif" font-size="10.00">iterator</text>
</g>
<!-- Node19&#45;&gt;Node34 -->
<g id="edge50" class="edge"><title>Node19&#45;&gt;Node34</title>
<path fill="none" stroke="midnightblue" d="M1418,-360.852C1418,-352.06 1418,-338.498 1418,-327.313"/>
<polygon fill="midnightblue" stroke="midnightblue" points="1421.5,-327.186 1418,-317.186 1414.5,-327.186 1421.5,-327.186"/>
</g>
<!-- Node35 -->
<g id="node35" class="node"><title>Node35</title>
<polygon fill="white" stroke="#bfbfbf" points="1459.94,-297 1459.94,-317 1502.06,-317 1502.06,-297 1459.94,-297"/>
<text text-anchor="middle" x="1481" y="-303" font-family="Helvetica,sans-Serif" font-size="10.00">locale</text>
</g>
<!-- Node19&#45;&gt;Node35 -->
<g id="edge51" class="edge"><title>Node19&#45;&gt;Node35</title>
<path fill="none" stroke="midnightblue" d="M1427.3,-360.852C1437.07,-351.236 1452.64,-335.913 1464.5,-324.236"/>
<polygon fill="midnightblue" stroke="midnightblue" points="1466.99,-326.695 1471.67,-317.186 1462.08,-321.706 1466.99,-326.695"/>
</g>
<!-- Node19&#45;&gt;Node12 -->
<g id="edge52" class="edge"><title>Node19&#45;&gt;Node12</title>
<path fill="none" stroke="midnightblue" d="M1355.44,-367.369C1233.97,-361.769 975.132,-347.247 942,-324 921.693,-309.751 911.889,-281.688 907.415,-262.882"/>
<polygon fill="midnightblue" stroke="midnightblue" points="910.832,-262.124 905.358,-253.053 903.981,-263.558 910.832,-262.124"/>
</g>
<!-- Node36 -->
<g id="node36" class="node"><title>Node36</title>
<polygon fill="white" stroke="#bfbfbf" points="950.766,-297 950.766,-317 1051.23,-317 1051.23,-297 950.766,-297"/>
<text text-anchor="middle" x="1001" y="-303" font-family="Helvetica,sans-Serif" font-size="10.00">REGEX_INCLUDE</text>
</g>
<!-- Node19&#45;&gt;Node36 -->
<g id="edge53" class="edge"><title>Node19&#45;&gt;Node36</title>
<path fill="none" stroke="midnightblue" d="M1355.36,-364.464C1283.76,-357.551 1163.24,-344.127 1061,-324 1054.68,-322.756 1048.05,-321.222 1041.59,-319.601"/>
<polygon fill="midnightblue" stroke="midnightblue" points="1042.21,-316.146 1031.65,-317.011 1040.44,-322.92 1042.21,-316.146"/>
</g>
<!-- Node19&#45;&gt;Node13 -->
<g id="edge54" class="edge"><title>Node19&#45;&gt;Node13</title>
<path fill="none" stroke="midnightblue" d="M1480.54,-368.951C1556.96,-366.196 1689.49,-356.623 1798,-324 1800.45,-323.265 1802.93,-322.352 1805.38,-321.339"/>
<polygon fill="midnightblue" stroke="midnightblue" points="1806.91,-324.49 1814.49,-317.093 1803.95,-318.146 1806.91,-324.49"/>
</g>
<!-- Node37 -->
<g id="node37" class="node"><title>Node37</title>
<polygon fill="white" stroke="#bfbfbf" points="1069.6,-297 1069.6,-317 1128.4,-317 1128.4,-297 1069.6,-297"/>
<text text-anchor="middle" x="1099" y="-303" font-family="Helvetica,sans-Serif" font-size="10.00">stdexcept</text>
</g>
<!-- Node19&#45;&gt;Node37 -->
<g id="edge55" class="edge"><title>Node19&#45;&gt;Node37</title>
<path fill="none" stroke="midnightblue" d="M1355.39,-363.824C1298.05,-357.206 1211.23,-344.746 1138,-324 1134.76,-323.082 1131.43,-321.978 1128.14,-320.783"/>
<polygon fill="midnightblue" stroke="midnightblue" points="1129.12,-317.411 1118.53,-317.026 1126.57,-323.929 1129.12,-317.411"/>
</g>
<!-- Node30 -->
<g id="node30" class="node"><title>Node30</title>
<polygon fill="white" stroke="#bfbfbf" points="1346.61,-233 1346.61,-253 1385.39,-253 1385.39,-233 1346.61,-233"/>
<text text-anchor="middle" x="1366" y="-239" font-family="Helvetica,sans-Serif" font-size="10.00">limits</text>
</g>
<!-- Node19&#45;&gt;Node30 -->
<g id="edge56" class="edge"><title>Node19&#45;&gt;Node30</title>
<path fill="none" stroke="midnightblue" d="M1409.74,-360.813C1402.22,-351.981 1391.36,-337.951 1385,-324 1376.05,-304.37 1371.05,-280.037 1368.45,-263.395"/>
<polygon fill="midnightblue" stroke="midnightblue" points="1371.88,-262.666 1367.01,-253.254 1364.95,-263.646 1371.88,-262.666"/>
</g>
<!-- Node38 -->
<g id="node38" class="node"><title>Node38</title>
<polygon fill="white" stroke="#bfbfbf" points="1277.76,-297 1277.76,-317 1338.24,-317 1338.24,-297 1277.76,-297"/>
<text text-anchor="middle" x="1308" y="-303" font-family="Helvetica,sans-Serif" font-size="10.00">utf8/utf8.h</text>
</g>
<!-- Node19&#45;&gt;Node38 -->
<g id="edge57" class="edge"><title>Node19&#45;&gt;Node38</title>
<path fill="none" stroke="midnightblue" d="M1401.77,-360.852C1383.65,-350.641 1354.12,-333.994 1333.04,-322.112"/>
<polygon fill="midnightblue" stroke="midnightblue" points="1334.73,-319.047 1324.3,-317.186 1331.29,-325.145 1334.73,-319.047"/>
</g>
<!-- Node21 -->
<g id="node21" class="node"><title>Node21</title>
<g id="a_node21"><a xlink:href="base_8h.xhtml" target="_top" xlink:title="ePub3/base.h">
<polygon fill="white" stroke="black" points="1253.14,-175 1253.14,-195 1330.86,-195 1330.86,-175 1253.14,-175"/>
<text text-anchor="middle" x="1292" y="-181" font-family="Helvetica,sans-Serif" font-size="10.00">ePub3/base.h</text>
</a>
</g>
</g>
<!-- Node20&#45;&gt;Node21 -->
<g id="edge28" class="edge"><title>Node20&#45;&gt;Node21</title>
<path fill="none" stroke="midnightblue" d="M1209.69,-296.98C1224.44,-277.087 1259.99,-229.163 1279.19,-203.279"/>
<polygon fill="midnightblue" stroke="midnightblue" points="1282.09,-205.241 1285.23,-195.124 1276.46,-201.071 1282.09,-205.241"/>
</g>
<!-- Node26 -->
<g id="node26" class="node"><title>Node26</title>
<polygon fill="white" stroke="#bfbfbf" points="1010.82,-233 1010.82,-253 1125.18,-253 1125.18,-233 1010.82,-233"/>
<text text-anchor="middle" x="1068" y="-239" font-family="Helvetica,sans-Serif" font-size="10.00">ePub3/xml/xmlstring.h</text>
</g>
<!-- Node20&#45;&gt;Node26 -->
<g id="edge33" class="edge"><title>Node20&#45;&gt;Node26</title>
<path fill="none" stroke="midnightblue" d="M1183.37,-296.985C1160.67,-286.561 1123.1,-269.307 1097.03,-257.332"/>
<polygon fill="midnightblue" stroke="midnightblue" points="1098.2,-254.019 1087.65,-253.026 1095.28,-260.38 1098.2,-254.019"/>
</g>
<!-- Node27 -->
<g id="node27" class="node"><title>Node27</title>
<polygon fill="white" stroke="#bfbfbf" points="1143.22,-233 1143.22,-253 1194.78,-253 1194.78,-233 1143.22,-233"/>
<text text-anchor="middle" x="1169" y="-239" font-family="Helvetica,sans-Serif" font-size="10.00">sstream</text>
</g>
<!-- Node20&#45;&gt;Node27 -->
<g id="edge34" class="edge"><title>Node20&#45;&gt;Node27</title>
<path fill="none" stroke="midnightblue" d="M1197.98,-296.852C1193.01,-287.785 1185.26,-273.645 1179.02,-262.272"/>
<polygon fill="midnightblue" stroke="midnightblue" points="1181.91,-260.271 1174.04,-253.186 1175.78,-263.637 1181.91,-260.271"/>
</g>
<!-- Node20&#45;&gt;Node4 -->
<g id="edge35" class="edge"><title>Node20&#45;&gt;Node4</title>
<path fill="none" stroke="midnightblue" d="M1206.35,-296.976C1211.4,-281.611 1218.8,-250.264 1203,-232 1167.1,-190.517 998.25,-185.653 922.699,-185.603"/>
<polygon fill="midnightblue" stroke="midnightblue" points="922.248,-182.104 912.256,-185.627 922.264,-189.104 922.248,-182.104"/>
</g>
<!-- Node20&#45;&gt;Node12 -->
<g id="edge36" class="edge"><title>Node20&#45;&gt;Node12</title>
<path fill="none" stroke="midnightblue" d="M1166.75,-296.917C1157.1,-294.58 1146.67,-292.126 1137,-290 1065.42,-274.265 980.911,-258.204 935.936,-249.856"/>
<polygon fill="midnightblue" stroke="midnightblue" points="936.379,-246.378 925.909,-248.001 935.105,-253.261 936.379,-246.378"/>
</g>
<!-- Node20&#45;&gt;Node14 -->
<g id="edge37" class="edge"><title>Node20&#45;&gt;Node14</title>
<path fill="none" stroke="midnightblue" d="M1238.52,-296.916C1285.39,-284.827 1365.31,-263.836 1394,-254 1394.1,-253.967 1394.19,-253.934 1394.29,-253.901"/>
<polygon fill="midnightblue" stroke="midnightblue" points="1395.29,-257.265 1403.39,-250.438 1392.8,-250.722 1395.29,-257.265"/>
</g>
<!-- Node22 -->
<g id="node22" class="node"><title>Node22</title>
<g id="a_node22"><a xlink:href="__config_8h.xhtml" target="_top" xlink:title="_config.h">
<polygon fill="white" stroke="black" points="1228.71,-117 1228.71,-137 1285.29,-137 1285.29,-117 1228.71,-117"/>
<text text-anchor="middle" x="1257" y="-123" font-family="Helvetica,sans-Serif" font-size="10.00">_config.h</text>
</a>
</g>
</g>
<!-- Node21&#45;&gt;Node22 -->
<g id="edge29" class="edge"><title>Node21&#45;&gt;Node22</title>
<path fill="none" stroke="midnightblue" d="M1286.22,-174.753C1281.28,-166.843 1274.02,-155.237 1267.98,-145.568"/>
<polygon fill="midnightblue" stroke="midnightblue" points="1270.94,-143.7 1262.67,-137.075 1265,-147.41 1270.94,-143.7"/>
</g>
<!-- Node25 -->
<g id="node25" class="node"><title>Node25</title>
<polygon fill="white" stroke="#bfbfbf" points="1303.16,-117 1303.16,-137 1350.84,-137 1350.84,-117 1303.16,-117"/>
<text text-anchor="middle" x="1327" y="-123" font-family="Helvetica,sans-Serif" font-size="10.00">stdlib.h</text>
</g>
<!-- Node21&#45;&gt;Node25 -->
<g id="edge32" class="edge"><title>Node21&#45;&gt;Node25</title>
<path fill="none" stroke="midnightblue" d="M1297.78,-174.753C1302.72,-166.843 1309.98,-155.237 1316.02,-145.568"/>
<polygon fill="midnightblue" stroke="midnightblue" points="1319,-147.41 1321.33,-137.075 1313.06,-143.7 1319,-147.41"/>
</g>
<!-- Node23 -->
<g id="node23" class="node"><title>Node23</title>
<g id="a_node23"><a xlink:href="__platform_8h.xhtml" target="_top" xlink:title="_platform.h">
<polygon fill="white" stroke="black" points="1223.99,-59 1223.99,-79 1290.01,-79 1290.01,-59 1223.99,-59"/>
<text text-anchor="middle" x="1257" y="-65" font-family="Helvetica,sans-Serif" font-size="10.00">_platform.h</text>
</a>
</g>
</g>
<!-- Node22&#45;&gt;Node23 -->
<g id="edge30" class="edge"><title>Node22&#45;&gt;Node23</title>
<path fill="none" stroke="midnightblue" d="M1257,-116.753C1257,-109.25 1257,-98.4238 1257,-89.0781"/>
<polygon fill="midnightblue" stroke="midnightblue" points="1260.5,-89.0752 1257,-79.0752 1253.5,-89.0752 1260.5,-89.0752"/>
</g>
<!-- Node24 -->
<g id="node24" class="node"><title>Node24</title>
<g id="a_node24"><a xlink:href="__compiler_8h.xhtml" target="_top" xlink:title="_compiler.h">
<polygon fill="white" stroke="black" points="1223.43,-1 1223.43,-21 1290.57,-21 1290.57,-1 1223.43,-1"/>
<text text-anchor="middle" x="1257" y="-7" font-family="Helvetica,sans-Serif" font-size="10.00">_compiler.h</text>
</a>
</g>
</g>
<!-- Node23&#45;&gt;Node24 -->
<g id="edge31" class="edge"><title>Node23&#45;&gt;Node24</title>
<path fill="none" stroke="midnightblue" d="M1257,-58.7527C1257,-51.2504 1257,-40.4238 1257,-31.0781"/>
<polygon fill="midnightblue" stroke="midnightblue" points="1260.5,-31.0752 1257,-21.0752 1253.5,-31.0752 1260.5,-31.0752"/>
</g>
<!-- Node28&#45;&gt;Node21 -->
<g id="edge39" class="edge"><title>Node28&#45;&gt;Node21</title>
<path fill="none" stroke="midnightblue" d="M1520.01,-292.082C1516.97,-291.367 1513.95,-290.669 1511,-290 1434.41,-272.611 1403.23,-297.734 1338,-254 1319.94,-241.89 1307.06,-220.06 1299.61,-204.398"/>
<polygon fill="midnightblue" stroke="midnightblue" points="1302.76,-202.871 1295.5,-195.161 1296.37,-205.72 1302.76,-202.871"/>
</g>
<!-- Node29&#45;&gt;Node5 -->
<g id="edge41" class="edge"><title>Node29&#45;&gt;Node5</title>
<path fill="none" stroke="midnightblue" d="M1650.22,-291.773C1646.78,-291.1 1643.35,-290.499 1640,-290 1302.46,-239.743 1213.19,-281.067 873,-254 857.384,-252.758 840.275,-250.944 825.266,-249.202"/>
<polygon fill="midnightblue" stroke="midnightblue" points="825.598,-245.717 815.256,-248.015 824.774,-252.668 825.598,-245.717"/>
</g>
<!-- Node29&#45;&gt;Node11 -->
<g id="edge42" class="edge"><title>Node29&#45;&gt;Node11</title>
<path fill="none" stroke="midnightblue" d="M1722.61,-290.992C1735.09,-281.441 1751.21,-269.101 1763.8,-259.463"/>
<polygon fill="midnightblue" stroke="midnightblue" points="1766.05,-262.148 1771.86,-253.29 1761.79,-256.589 1766.05,-262.148"/>
</g>
<!-- Node29&#45;&gt;Node30 -->
<g id="edge43" class="edge"><title>Node29&#45;&gt;Node30</title>
<path fill="none" stroke="midnightblue" d="M1650.15,-292.159C1646.73,-291.391 1643.32,-290.664 1640,-290 1535.24,-269.058 1503.76,-279.399 1395.52,-253.706"/>
<polygon fill="midnightblue" stroke="midnightblue" points="1396.05,-250.233 1385.51,-251.279 1394.4,-257.036 1396.05,-250.233"/>
</g>
<!-- Node31 -->
<g id="node31" class="node"><title>Node31</title>
<polygon fill="white" stroke="#bfbfbf" points="1683.83,-233 1683.83,-253 1738.17,-253 1738.17,-233 1683.83,-233"/>
<text text-anchor="middle" x="1711" y="-239" font-family="Helvetica,sans-Serif" font-size="10.00">iostream</text>
</g>
<!-- Node29&#45;&gt;Node31 -->
<g id="edge44" class="edge"><title>Node29&#45;&gt;Node31</title>
<path fill="none" stroke="midnightblue" d="M1704.94,-290.992C1706,-282.726 1707.34,-272.373 1708.49,-263.489"/>
<polygon fill="midnightblue" stroke="midnightblue" points="1711.99,-263.656 1709.8,-253.29 1705.05,-262.76 1711.99,-263.656"/>
</g>
<!-- Node32 -->
<g id="node32" class="node"><title>Node32</title>
<polygon fill="white" stroke="#bfbfbf" points="1608.44,-233 1608.44,-253 1665.56,-253 1665.56,-233 1608.44,-233"/>
<text text-anchor="middle" x="1637" y="-239" font-family="Helvetica,sans-Serif" font-size="10.00">algorithm</text>
</g>
<!-- Node29&#45;&gt;Node32 -->
<g id="edge45" class="edge"><title>Node29&#45;&gt;Node32</title>
<path fill="none" stroke="midnightblue" d="M1687.02,-290.992C1677.15,-281.716 1664.48,-269.811 1654.36,-260.304"/>
<polygon fill="midnightblue" stroke="midnightblue" points="1656.57,-257.586 1646.89,-253.29 1651.78,-262.688 1656.57,-257.586"/>
</g>
<!-- Node33 -->
<g id="node33" class="node"><title>Node33</title>
<g id="a_node33"><a xlink:href="____strhash_8h.xhtml" target="_top" xlink:title="__strhash.h">
<polygon fill="white" stroke="black" points="1450.87,-233 1450.87,-253 1519.13,-253 1519.13,-233 1450.87,-233"/>
<text text-anchor="middle" x="1485" y="-239" font-family="Helvetica,sans-Serif" font-size="10.00">__strhash.h</text>
</a>
</g>
</g>
<!-- Node29&#45;&gt;Node33 -->
<g id="edge46" class="edge"><title>Node29&#45;&gt;Node33</title>
<path fill="none" stroke="midnightblue" d="M1650.23,-290.992C1612.27,-280.195 1561.77,-265.835 1526.64,-255.842"/>
<polygon fill="midnightblue" stroke="midnightblue" points="1527.29,-252.388 1516.71,-253.018 1525.37,-259.121 1527.29,-252.388"/>
</g>
<!-- Node33&#45;&gt;Node21 -->
<g id="edge47" class="edge"><title>Node33&#45;&gt;Node21</title>
<path fill="none" stroke="midnightblue" d="M1453.56,-232.878C1420.66,-223.331 1368.87,-208.303 1332.82,-197.845"/>
<polygon fill="midnightblue" stroke="midnightblue" points="1333.68,-194.451 1323.11,-195.025 1331.73,-201.173 1333.68,-194.451"/>
</g>
<!-- Node33&#45;&gt;Node4 -->
<g id="edge48" class="edge"><title>Node33&#45;&gt;Node4</title>
<path fill="none" stroke="midnightblue" d="M1450.5,-233.677C1447.3,-233.05 1444.1,-232.478 1441,-232 1246.8,-202.036 1011.15,-190.656 922.26,-187.238"/>
<polygon fill="midnightblue" stroke="midnightblue" points="922.284,-183.737 912.16,-186.86 922.022,-190.732 922.284,-183.737"/>
</g>
<!-- Node39&#45;&gt;Node19 -->
<g id="edge59" class="edge"><title>Node39&#45;&gt;Node19</title>
<path fill="none" stroke="midnightblue" d="M1035.09,-424.958C1043.98,-422.432 1053.84,-419.87 1063,-418 1159.63,-398.285 1272.88,-385.336 1345.01,-378.34"/>
<polygon fill="midnightblue" stroke="midnightblue" points="1345.72,-381.788 1355.34,-377.351 1345.06,-374.82 1345.72,-381.788"/>
</g>
<!-- Node40 -->
<g id="node40" class="node"><title>Node40</title>
<g id="a_node40"><a xlink:href="make__unique_8h.xhtml" target="_top" xlink:title="ePub3/utilities/make\l_unique.h">
<polygon fill="white" stroke="black" points="558.254,-291 558.254,-323 663.746,-323 663.746,-291 558.254,-291"/>
<text text-anchor="start" x="566.254" y="-309" font-family="Helvetica,sans-Serif" font-size="10.00">ePub3/utilities/make</text>
<text text-anchor="middle" x="611" y="-297" font-family="Helvetica,sans-Serif" font-size="10.00">_unique.h</text>
</a>
</g>
</g>
<!-- Node39&#45;&gt;Node40 -->
<g id="edge60" class="edge"><title>Node39&#45;&gt;Node40</title>
<path fill="none" stroke="midnightblue" d="M977.593,-424.938C912.867,-404.292 753.428,-353.433 667.705,-326.088"/>
<polygon fill="midnightblue" stroke="midnightblue" points="668.722,-322.739 658.132,-323.034 666.595,-329.408 668.722,-322.739"/>
</g>
<!-- Node43 -->
<g id="node43" class="node"><title>Node43</title>
<polygon fill="white" stroke="#bfbfbf" points="961.867,-361 961.867,-381 1050.13,-381 1050.13,-361 961.867,-361"/>
<text text-anchor="middle" x="1006" y="-367" font-family="Helvetica,sans-Serif" font-size="10.00">google&#45;url/gurl.h</text>
</g>
<!-- Node39&#45;&gt;Node43 -->
<g id="edge66" class="edge"><title>Node39&#45;&gt;Node43</title>
<path fill="none" stroke="midnightblue" d="M1006,-424.852C1006,-416.06 1006,-402.498 1006,-391.313"/>
<polygon fill="midnightblue" stroke="midnightblue" points="1009.5,-391.186 1006,-381.186 1002.5,-391.186 1009.5,-391.186"/>
</g>
<!-- Node39&#45;&gt;Node12 -->
<g id="edge67" class="edge"><title>Node39&#45;&gt;Node12</title>
<path fill="none" stroke="midnightblue" d="M993.808,-424.751C972.391,-407.647 928.702,-368.711 912,-324 904.618,-304.239 903.164,-279.93 903.211,-263.329"/>
<polygon fill="midnightblue" stroke="midnightblue" points="906.713,-263.291 903.429,-253.218 899.714,-263.14 906.713,-263.291"/>
</g>
<!-- Node40&#45;&gt;Node21 -->
<g id="edge61" class="edge"><title>Node40&#45;&gt;Node21</title>
<path fill="none" stroke="midnightblue" d="M638.948,-290.93C657.925,-280.642 683.554,-266.638 706,-254 723.005,-244.425 725.381,-237.847 744,-232 836.398,-202.985 1126.51,-191.068 1242.94,-187.372"/>
<polygon fill="midnightblue" stroke="midnightblue" points="1243.11,-190.869 1252.99,-187.06 1242.89,-183.872 1243.11,-190.869"/>
</g>
<!-- Node41 -->
<g id="node41" class="node"><title>Node41</title>
<polygon fill="white" stroke="#bfbfbf" points="648.879,-233 648.879,-253 697.121,-253 697.121,-233 648.879,-233"/>
<text text-anchor="middle" x="673" y="-239" font-family="Helvetica,sans-Serif" font-size="10.00">cstddef</text>
</g>
<!-- Node40&#45;&gt;Node41 -->
<g id="edge62" class="edge"><title>Node40&#45;&gt;Node41</title>
<path fill="none" stroke="midnightblue" d="M626.008,-290.992C635.192,-281.808 646.954,-270.046 656.413,-260.587"/>
<polygon fill="midnightblue" stroke="midnightblue" points="659.113,-262.836 663.71,-253.29 654.164,-257.887 659.113,-262.836"/>
</g>
<!-- Node40&#45;&gt;Node4 -->
<g id="edge63" class="edge"><title>Node40&#45;&gt;Node4</title>
<path fill="none" stroke="midnightblue" d="M597.061,-290.817C583.936,-274.648 568.315,-249.083 583,-232 617.051,-192.39 777.106,-186.48 849.854,-185.877"/>
<polygon fill="midnightblue" stroke="midnightblue" points="849.947,-189.376 859.928,-185.823 849.909,-182.377 849.947,-189.376"/>
</g>
<!-- Node40&#45;&gt;Node5 -->
<g id="edge64" class="edge"><title>Node40&#45;&gt;Node5</title>
<path fill="none" stroke="midnightblue" d="M652.878,-290.992C682.358,-280.427 721.359,-266.449 749.145,-256.491"/>
<polygon fill="midnightblue" stroke="midnightblue" points="750.603,-259.687 758.836,-253.018 748.241,-253.097 750.603,-259.687"/>
</g>
<!-- Node42 -->
<g id="node42" class="node"><title>Node42</title>
<polygon fill="white" stroke="#bfbfbf" points="591.608,-233 591.608,-253 630.392,-253 630.392,-233 591.608,-233"/>
<text text-anchor="middle" x="611" y="-239" font-family="Helvetica,sans-Serif" font-size="10.00">utility</text>
</g>
<!-- Node40&#45;&gt;Node42 -->
<g id="edge65" class="edge"><title>Node40&#45;&gt;Node42</title>
<path fill="none" stroke="midnightblue" d="M611,-290.992C611,-282.726 611,-272.373 611,-263.489"/>
<polygon fill="midnightblue" stroke="midnightblue" points="614.5,-263.29 611,-253.29 607.5,-263.29 614.5,-263.29"/>
</g>
<!-- Node48&#45;&gt;Node19 -->
<g id="edge73" class="edge"><title>Node48&#45;&gt;Node19</title>
<path fill="none" stroke="midnightblue" d="M1637.63,-420.448C1634.38,-419.601 1631.14,-418.777 1628,-418 1575.34,-404.978 1514.78,-391.915 1472.27,-383.055"/>
<polygon fill="midnightblue" stroke="midnightblue" points="1472.91,-379.613 1462.41,-381.007 1471.49,-386.467 1472.91,-379.613"/>
</g>
</g>
</svg>
