<?xml version="1.0" encoding="UTF-8" standalone="no"?>
<!DOCTYPE svg PUBLIC "-//W3C//DTD SVG 1.1//EN"
 "http://www.w3.org/Graphics/SVG/1.1/DTD/svg11.dtd">
<!-- Generated by graphviz version 2.30.0 (20130114.0426)
 -->
<!-- Title: /Users/rkwright/Documents/github/readium&#45;sdk&#45;D/ePub3/ePub/media&#45;overlays_smil_data.cpp Pages: 1 -->
<svg width="452pt" height="252pt"
 viewBox="0.00 0.00 452.00 252.00" xmlns="http://www.w3.org/2000/svg" xmlns:xlink="http://www.w3.org/1999/xlink">
<g id="graph0" class="graph" transform="scale(1 1) rotate(0) translate(4 248)">
<title>/Users/rkwright/Documents/github/readium&#45;sdk&#45;D/ePub3/ePub/media&#45;overlays_smil_data.cpp</title>
<polygon fill="white" stroke="white" points="-4,5 -4,-248 449,-248 449,5 -4,5"/>
<!-- Node1 -->
<g id="node1" class="node"><title>Node1</title>
<polygon fill="#bfbfbf" stroke="black" points="160.966,-187 160.966,-243 307.034,-243 307.034,-187 160.966,-187"/>
<text text-anchor="start" x="168.966" y="-229" font-family="Helvetica,sans-Serif" font-size="10.00">/Users/rkwright/Documents</text>
<text text-anchor="start" x="168.966" y="-217" font-family="Helvetica,sans-Serif" font-size="10.00">/github/readium&#45;sdk&#45;D/ePub3</text>
<text text-anchor="start" x="168.966" y="-205" font-family="Helvetica,sans-Serif" font-size="10.00">/ePub/media&#45;overlays_smil</text>
<text text-anchor="middle" x="234" y="-193" font-family="Helvetica,sans-Serif" font-size="10.00">_data.cpp</text>
</g>
<!-- Node2 -->
<g id="node2" class="node"><title>Node2</title>
<g id="a_node2"><a xlink:href="media-overlays__smil__data_8h.xhtml" target="_top" xlink:title="media&#45;overlays_smil\l_data.h">
<polygon fill="white" stroke="black" points="180.431,-117 180.431,-149 287.569,-149 287.569,-117 180.431,-117"/>
<text text-anchor="start" x="188.431" y="-135" font-family="Helvetica,sans-Serif" font-size="10.00">media&#45;overlays_smil</text>
<text text-anchor="middle" x="234" y="-123" font-family="Helvetica,sans-Serif" font-size="10.00">_data.h</text>
</a>
</g>
</g>
<!-- Node1&#45;&gt;Node2 -->
<g id="edge1" class="edge"><title>Node1&#45;&gt;Node2</title>
<path fill="none" stroke="midnightblue" d="M234,-186.916C234,-178.021 234,-168.172 234,-159.407"/>
<polygon fill="midnightblue" stroke="midnightblue" points="237.5,-159.389 234,-149.389 230.5,-159.389 237.5,-159.389"/>
</g>
<!-- Node3 -->
<g id="node3" class="node"><title>Node3</title>
<polygon fill="white" stroke="#bfbfbf" points="-0.920898,-59 -0.920898,-79 82.9209,-79 82.9209,-59 -0.920898,-59"/>
<text text-anchor="middle" x="41" y="-65" font-family="Helvetica,sans-Serif" font-size="10.00">ePub3/epub3.h</text>
</g>
<!-- Node2&#45;&gt;Node3 -->
<g id="edge2" class="edge"><title>Node2&#45;&gt;Node3</title>
<path fill="none" stroke="midnightblue" d="M187.28,-116.992C153.96,-106.288 109.735,-92.0808 78.6677,-82.1005"/>
<polygon fill="midnightblue" stroke="midnightblue" points="79.6648,-78.7447 69.0735,-79.0184 77.5238,-85.4093 79.6648,-78.7447"/>
</g>
<!-- Node4 -->
<g id="node4" class="node"><title>Node4</title>
<g id="a_node4"><a xlink:href="owned__by_8h.xhtml" target="_top" xlink:title="ePub3/utilities/owned_by.h">
<polygon fill="white" stroke="black" points="100.884,-59 100.884,-79 235.116,-79 235.116,-59 100.884,-59"/>
<text text-anchor="middle" x="168" y="-65" font-family="Helvetica,sans-Serif" font-size="10.00">ePub3/utilities/owned_by.h</text>
</a>
</g>
</g>
<!-- Node2&#45;&gt;Node4 -->
<g id="edge3" class="edge"><title>Node2&#45;&gt;Node4</title>
<path fill="none" stroke="midnightblue" d="M218.023,-116.992C208.15,-107.716 195.476,-95.8107 185.356,-86.3041"/>
<polygon fill="midnightblue" stroke="midnightblue" points="187.575,-83.5862 177.89,-79.2904 182.782,-88.6882 187.575,-83.5862"/>
</g>
<!-- Node7 -->
<g id="node7" class="node"><title>Node7</title>
<polygon fill="white" stroke="#bfbfbf" points="253.086,-59 253.086,-79 346.914,-79 346.914,-59 253.086,-59"/>
<text text-anchor="middle" x="300" y="-65" font-family="Helvetica,sans-Serif" font-size="10.00">ePub3/manifest.h</text>
</g>
<!-- Node2&#45;&gt;Node7 -->
<g id="edge6" class="edge"><title>Node2&#45;&gt;Node7</title>
<path fill="none" stroke="midnightblue" d="M249.977,-116.992C259.85,-107.716 272.524,-95.8107 282.644,-86.3041"/>
<polygon fill="midnightblue" stroke="midnightblue" points="285.218,-88.6882 290.11,-79.2904 280.425,-83.5862 285.218,-88.6882"/>
</g>
<!-- Node8 -->
<g id="node8" class="node"><title>Node8</title>
<polygon fill="white" stroke="#bfbfbf" points="365.03,-59 365.03,-79 444.97,-79 444.97,-59 365.03,-59"/>
<text text-anchor="middle" x="405" y="-65" font-family="Helvetica,sans-Serif" font-size="10.00">ePub3/spine.h</text>
</g>
<!-- Node2&#45;&gt;Node8 -->
<g id="edge7" class="edge"><title>Node2&#45;&gt;Node8</title>
<path fill="none" stroke="midnightblue" d="M275.394,-116.992C304.445,-106.459 342.851,-92.5336 370.299,-82.5818"/>
<polygon fill="midnightblue" stroke="midnightblue" points="371.669,-85.8078 379.877,-79.1088 369.283,-79.227 371.669,-85.8078"/>
</g>
<!-- Node5 -->
<g id="node5" class="node"><title>Node5</title>
<polygon fill="white" stroke="#bfbfbf" points="103.943,-1 103.943,-21 156.057,-21 156.057,-1 103.943,-1"/>
<text text-anchor="middle" x="130" y="-7" font-family="Helvetica,sans-Serif" font-size="10.00">memory</text>
</g>
<!-- Node4&#45;&gt;Node5 -->
<g id="edge4" class="edge"><title>Node4&#45;&gt;Node5</title>
<path fill="none" stroke="midnightblue" d="M161.725,-58.7527C156.358,-50.8427 148.482,-39.2372 141.921,-29.5683"/>
<polygon fill="midnightblue" stroke="midnightblue" points="144.669,-27.3847 136.158,-21.0752 138.877,-31.3152 144.669,-27.3847"/>
</g>
<!-- Node6 -->
<g id="node6" class="node"><title>Node6</title>
<polygon fill="white" stroke="#bfbfbf" points="173.934,-1 173.934,-21 236.066,-21 236.066,-1 173.934,-1"/>
<text text-anchor="middle" x="205" y="-7" font-family="Helvetica,sans-Serif" font-size="10.00">type_traits</text>
</g>
<!-- Node4&#45;&gt;Node6 -->
<g id="edge5" class="edge"><title>Node4&#45;&gt;Node6</title>
<path fill="none" stroke="midnightblue" d="M174.11,-58.7527C179.336,-50.8427 187.004,-39.2372 193.392,-29.5683"/>
<polygon fill="midnightblue" stroke="midnightblue" points="196.411,-31.348 199.004,-21.0752 190.571,-27.4891 196.411,-31.348"/>
</g>
</g>
</svg>
