<?xml version="1.0" encoding="UTF-8" standalone="no"?>
<!DOCTYPE svg PUBLIC "-//W3C//DTD SVG 1.1//EN"
 "http://www.w3.org/Graphics/SVG/1.1/DTD/svg11.dtd">
<!-- Generated by graphviz version 2.30.0 (20130114.0426)
 -->
<!-- Title: /Users/rkwright/Documents/github/readium&#45;sdk&#45;D/ePub3/ePub/media&#45;overlays_smil_model.h Pages: 1 -->
<svg width="318pt" height="148pt"
 viewBox="0.00 0.00 318.00 148.00" xmlns="http://www.w3.org/2000/svg" xmlns:xlink="http://www.w3.org/1999/xlink">
<g id="graph0" class="graph" transform="scale(1 1) rotate(0) translate(4 144)">
<title>/Users/rkwright/Documents/github/readium&#45;sdk&#45;D/ePub3/ePub/media&#45;overlays_smil_model.h</title>
<polygon fill="white" stroke="white" points="-4,5 -4,-144 315,-144 315,5 -4,5"/>
<!-- Node1 -->
<g id="node1" class="node"><title>Node1</title>
<polygon fill="#bfbfbf" stroke="black" points="66.4067,-95 66.4067,-139 243.593,-139 243.593,-95 66.4067,-95"/>
<text text-anchor="start" x="74.4067" y="-125" font-family="Helvetica,sans-Serif" font-size="10.00">/Users/rkwright/Documents</text>
<text text-anchor="start" x="74.4067" y="-113" font-family="Helvetica,sans-Serif" font-size="10.00">/github/readium&#45;sdk&#45;D/ePub3</text>
<text text-anchor="middle" x="155" y="-101" font-family="Helvetica,sans-Serif" font-size="10.00">/ePub/media&#45;overlays_smil_model.h</text>
</g>
<!-- Node2 -->
<g id="node2" class="node"><title>Node2</title>
<g id="a_node2"><a xlink:href="media-overlays__smil__model_8cpp.xhtml" target="_top" xlink:title="/Users/rkwright/Documents\l/github/readium&#45;sdk&#45;D/ePub3\l/ePub/media&#45;overlays_smil\l_model.cpp">
<polygon fill="white" stroke="black" points="-0.0341797,-1 -0.0341797,-57 146.034,-57 146.034,-1 -0.0341797,-1"/>
<text text-anchor="start" x="7.96582" y="-43" font-family="Helvetica,sans-Serif" font-size="10.00">/Users/rkwright/Documents</text>
<text text-anchor="start" x="7.96582" y="-31" font-family="Helvetica,sans-Serif" font-size="10.00">/github/readium&#45;sdk&#45;D/ePub3</text>
<text text-anchor="start" x="7.96582" y="-19" font-family="Helvetica,sans-Serif" font-size="10.00">/ePub/media&#45;overlays_smil</text>
<text text-anchor="middle" x="73" y="-7" font-family="Helvetica,sans-Serif" font-size="10.00">_model.cpp</text>
</a>
</g>
</g>
<!-- Node1&#45;&gt;Node2 -->
<g id="edge1" class="edge"><title>Node1&#45;&gt;Node2</title>
<path fill="none" stroke="midnightblue" d="M127.581,-87.2435C118.336,-77.548 108.053,-66.7634 98.9277,-57.1925"/>
<polygon fill="midnightblue" stroke="midnightblue" points="125.296,-89.9194 134.73,-94.7416 130.363,-85.0889 125.296,-89.9194"/>
</g>
<!-- Node3 -->
<g id="node3" class="node"><title>Node3</title>
<g id="a_node3"><a xlink:href="package_8cpp.xhtml" target="_top" xlink:title="/Users/rkwright/Documents\l/github/readium&#45;sdk&#45;D/ePub3\l/ePub/package.cpp">
<polygon fill="white" stroke="black" points="163.966,-7 163.966,-51 310.034,-51 310.034,-7 163.966,-7"/>
<text text-anchor="start" x="171.966" y="-37" font-family="Helvetica,sans-Serif" font-size="10.00">/Users/rkwright/Documents</text>
<text text-anchor="start" x="171.966" y="-25" font-family="Helvetica,sans-Serif" font-size="10.00">/github/readium&#45;sdk&#45;D/ePub3</text>
<text text-anchor="middle" x="237" y="-13" font-family="Helvetica,sans-Serif" font-size="10.00">/ePub/package.cpp</text>
</a>
</g>
</g>
<!-- Node1&#45;&gt;Node3 -->
<g id="edge2" class="edge"><title>Node1&#45;&gt;Node3</title>
<path fill="none" stroke="midnightblue" d="M182.429,-87.2334C193.726,-75.3846 206.573,-61.9107 216.963,-51.0139"/>
<polygon fill="midnightblue" stroke="midnightblue" points="179.637,-85.0889 175.27,-94.7416 184.704,-89.9194 179.637,-85.0889"/>
</g>
</g>
</svg>
