<?xml version="1.0" encoding="UTF-8" standalone="no"?>
<!DOCTYPE svg PUBLIC "-//W3C//DTD SVG 1.1//EN"
 "http://www.w3.org/Graphics/SVG/1.1/DTD/svg11.dtd">
<!-- Generated by graphviz version 2.30.0 (20130114.0426)
 -->
<!-- Title: /Users/rkwright/Documents/github/readium&#45;sdk&#45;D/ePub3/ePub/media_support_info.h Pages: 1 -->
<svg width="343pt" height="170pt"
 viewBox="0.00 0.00 343.00 170.00" xmlns="http://www.w3.org/2000/svg" xmlns:xlink="http://www.w3.org/1999/xlink">
<g id="graph0" class="graph" transform="scale(1 1) rotate(0) translate(4 166)">
<title>/Users/rkwright/Documents/github/readium&#45;sdk&#45;D/ePub3/ePub/media_support_info.h</title>
<polygon fill="white" stroke="white" points="-4,5 -4,-166 340,-166 340,5 -4,5"/>
<!-- Node1 -->
<g id="node1" class="node"><title>Node1</title>
<polygon fill="#bfbfbf" stroke="black" points="145.966,-117 145.966,-161 292.034,-161 292.034,-117 145.966,-117"/>
<text text-anchor="start" x="153.966" y="-147" font-family="Helvetica,sans-Serif" font-size="10.00">/Users/rkwright/Documents</text>
<text text-anchor="start" x="153.966" y="-135" font-family="Helvetica,sans-Serif" font-size="10.00">/github/readium&#45;sdk&#45;D/ePub3</text>
<text text-anchor="middle" x="219" y="-123" font-family="Helvetica,sans-Serif" font-size="10.00">/ePub/media_support_info.h</text>
</g>
<!-- Node2 -->
<g id="node2" class="node"><title>Node2</title>
<polygon fill="white" stroke="#bfbfbf" points="-0.920898,-59 -0.920898,-79 82.9209,-79 82.9209,-59 -0.920898,-59"/>
<text text-anchor="middle" x="41" y="-65" font-family="Helvetica,sans-Serif" font-size="10.00">ePub3/epub3.h</text>
</g>
<!-- Node1&#45;&gt;Node2 -->
<g id="edge1" class="edge"><title>Node1&#45;&gt;Node2</title>
<path fill="none" stroke="midnightblue" d="M163.655,-116.857C134.284,-105.637 99.1781,-92.2253 74.0644,-82.6314"/>
<polygon fill="midnightblue" stroke="midnightblue" points="75.219,-79.3258 64.6284,-79.0266 72.7209,-85.8649 75.219,-79.3258"/>
</g>
<!-- Node3 -->
<g id="node3" class="node"><title>Node3</title>
<g id="a_node3"><a xlink:href="owned__by_8h.xhtml" target="_top" xlink:title="ePub3/utilities/owned_by.h">
<polygon fill="white" stroke="black" points="100.884,-59 100.884,-79 235.116,-79 235.116,-59 100.884,-59"/>
<text text-anchor="middle" x="168" y="-65" font-family="Helvetica,sans-Serif" font-size="10.00">ePub3/utilities/owned_by.h</text>
</a>
</g>
</g>
<!-- Node1&#45;&gt;Node3 -->
<g id="edge2" class="edge"><title>Node1&#45;&gt;Node3</title>
<path fill="none" stroke="midnightblue" d="M203.143,-116.857C196.037,-107.383 187.76,-96.3473 181.025,-87.3662"/>
<polygon fill="midnightblue" stroke="midnightblue" points="183.703,-85.1039 174.903,-79.2039 178.103,-89.304 183.703,-85.1039"/>
</g>
<!-- Node6 -->
<g id="node6" class="node"><title>Node6</title>
<polygon fill="white" stroke="#bfbfbf" points="253.273,-59 253.273,-79 288.727,-79 288.727,-59 253.273,-59"/>
<text text-anchor="middle" x="271" y="-65" font-family="Helvetica,sans-Serif" font-size="10.00">map</text>
</g>
<!-- Node1&#45;&gt;Node6 -->
<g id="edge5" class="edge"><title>Node1&#45;&gt;Node6</title>
<path fill="none" stroke="midnightblue" d="M235.168,-116.857C242.413,-107.383 250.852,-96.3473 257.72,-87.3662"/>
<polygon fill="midnightblue" stroke="midnightblue" points="260.667,-89.2736 263.962,-79.2039 255.107,-85.0214 260.667,-89.2736"/>
</g>
<!-- Node7 -->
<g id="node7" class="node"><title>Node7</title>
<polygon fill="white" stroke="#bfbfbf" points="306.5,-59 306.5,-79 335.5,-79 335.5,-59 306.5,-59"/>
<text text-anchor="middle" x="320.611" y="-65" font-family="Helvetica,sans-Serif" font-size="10.00">list</text>
</g>
<!-- Node1&#45;&gt;Node7 -->
<g id="edge6" class="edge"><title>Node1&#45;&gt;Node7</title>
<path fill="none" stroke="midnightblue" d="M250.714,-116.857C266.353,-106.431 284.83,-94.1133 298.914,-84.7243"/>
<polygon fill="midnightblue" stroke="midnightblue" points="301.081,-87.4858 307.46,-79.0266 297.198,-81.6614 301.081,-87.4858"/>
</g>
<!-- Node4 -->
<g id="node4" class="node"><title>Node4</title>
<polygon fill="white" stroke="#bfbfbf" points="103.943,-1 103.943,-21 156.057,-21 156.057,-1 103.943,-1"/>
<text text-anchor="middle" x="130" y="-7" font-family="Helvetica,sans-Serif" font-size="10.00">memory</text>
</g>
<!-- Node3&#45;&gt;Node4 -->
<g id="edge3" class="edge"><title>Node3&#45;&gt;Node4</title>
<path fill="none" stroke="midnightblue" d="M161.725,-58.7527C156.358,-50.8427 148.482,-39.2372 141.921,-29.5683"/>
<polygon fill="midnightblue" stroke="midnightblue" points="144.669,-27.3847 136.158,-21.0752 138.877,-31.3152 144.669,-27.3847"/>
</g>
<!-- Node5 -->
<g id="node5" class="node"><title>Node5</title>
<polygon fill="white" stroke="#bfbfbf" points="173.934,-1 173.934,-21 236.066,-21 236.066,-1 173.934,-1"/>
<text text-anchor="middle" x="205" y="-7" font-family="Helvetica,sans-Serif" font-size="10.00">type_traits</text>
</g>
<!-- Node3&#45;&gt;Node5 -->
<g id="edge4" class="edge"><title>Node3&#45;&gt;Node5</title>
<path fill="none" stroke="midnightblue" d="M174.11,-58.7527C179.336,-50.8427 187.004,-39.2372 193.392,-29.5683"/>
<polygon fill="midnightblue" stroke="midnightblue" points="196.411,-31.348 199.004,-21.0752 190.571,-27.4891 196.411,-31.348"/>
</g>
</g>
</svg>
