<?xml version="1.0" encoding="UTF-8" standalone="no"?>
<!DOCTYPE svg PUBLIC "-//W3C//DTD SVG 1.1//EN"
 "http://www.w3.org/Graphics/SVG/1.1/DTD/svg11.dtd">
<!-- Generated by graphviz version 2.30.0 (20130114.0426)
 -->
<!-- Title: /Users/rkwright/Documents/github/readium&#45;sdk&#45;D/ePub3/ePub/nav_point.h Pages: 1 -->
<svg width="1146pt" height="472pt"
 viewBox="0.00 0.00 1145.91 472.00" xmlns="http://www.w3.org/2000/svg" xmlns:xlink="http://www.w3.org/1999/xlink">
<g id="graph0" class="graph" transform="scale(1 1) rotate(0) translate(4 468)">
<title>/Users/rkwright/Documents/github/readium&#45;sdk&#45;D/ePub3/ePub/nav_point.h</title>
<polygon fill="white" stroke="white" points="-4,5 -4,-468 1142.91,-468 1142.91,5 -4,5"/>
<!-- Node1 -->
<g id="node1" class="node"><title>Node1</title>
<polygon fill="#bfbfbf" stroke="black" points="719.966,-419 719.966,-463 866.034,-463 866.034,-419 719.966,-419"/>
<text text-anchor="start" x="727.966" y="-449" font-family="Helvetica,sans-Serif" font-size="10.00">/Users/rkwright/Documents</text>
<text text-anchor="start" x="727.966" y="-437" font-family="Helvetica,sans-Serif" font-size="10.00">/github/readium&#45;sdk&#45;D/ePub3</text>
<text text-anchor="middle" x="793" y="-425" font-family="Helvetica,sans-Serif" font-size="10.00">/ePub/nav_point.h</text>
</g>
<!-- Node2 -->
<g id="node2" class="node"><title>Node2</title>
<polygon fill="white" stroke="#bfbfbf" points="331.079,-361 331.079,-381 414.921,-381 414.921,-361 331.079,-361"/>
<text text-anchor="middle" x="373" y="-367" font-family="Helvetica,sans-Serif" font-size="10.00">ePub3/epub3.h</text>
</g>
<!-- Node1&#45;&gt;Node2 -->
<g id="edge1" class="edge"><title>Node1&#45;&gt;Node2</title>
<path fill="none" stroke="midnightblue" d="M719.702,-429.311C647.402,-418.579 533.49,-401.163 425.132,-382.151"/>
<polygon fill="midnightblue" stroke="midnightblue" points="425.457,-378.654 415.001,-380.366 424.242,-385.548 425.457,-378.654"/>
</g>
<!-- Node3 -->
<g id="node3" class="node"><title>Node3</title>
<polygon fill="white" stroke="#bfbfbf" points="433.353,-361 433.353,-381 546.647,-381 546.647,-361 433.353,-361"/>
<text text-anchor="middle" x="490" y="-367" font-family="Helvetica,sans-Serif" font-size="10.00">ePub3/nav_element.h</text>
</g>
<!-- Node1&#45;&gt;Node3 -->
<g id="edge2" class="edge"><title>Node1&#45;&gt;Node3</title>
<path fill="none" stroke="midnightblue" d="M719.652,-423.539C664.058,-411.062 589.128,-394.247 540.206,-383.267"/>
<polygon fill="midnightblue" stroke="midnightblue" points="540.701,-379.791 530.177,-381.017 539.168,-386.622 540.701,-379.791"/>
</g>
<!-- Node4 -->
<g id="node4" class="node"><title>Node4</title>
<g id="a_node4"><a xlink:href="utfstring_8h.xhtml" target="_top" xlink:title="ePub3/utilities/utfstring.h">
<polygon fill="white" stroke="black" points="564.525,-361 564.525,-381 689.475,-381 689.475,-361 564.525,-361"/>
<text text-anchor="middle" x="627" y="-367" font-family="Helvetica,sans-Serif" font-size="10.00">ePub3/utilities/utfstring.h</text>
</a>
</g>
</g>
<!-- Node1&#45;&gt;Node4 -->
<g id="edge3" class="edge"><title>Node1&#45;&gt;Node4</title>
<path fill="none" stroke="midnightblue" d="M741.387,-418.857C714.238,-407.736 681.835,-394.463 658.459,-384.887"/>
<polygon fill="midnightblue" stroke="midnightblue" points="659.616,-381.579 649.035,-381.027 656.962,-388.056 659.616,-381.579"/>
</g>
<!-- Node30 -->
<g id="node30" class="node"><title>Node30</title>
<g id="a_node30"><a xlink:href="owned__by_8h.xhtml" target="_top" xlink:title="ePub3/utilities/owned_by.h">
<polygon fill="white" stroke="black" points="986.884,-297 986.884,-317 1121.12,-317 1121.12,-297 986.884,-297"/>
<text text-anchor="middle" x="1054" y="-303" font-family="Helvetica,sans-Serif" font-size="10.00">ePub3/utilities/owned_by.h</text>
</a>
</g>
</g>
<!-- Node1&#45;&gt;Node30 -->
<g id="edge35" class="edge"><title>Node1&#45;&gt;Node30</title>
<path fill="none" stroke="midnightblue" d="M866.067,-424.09C900.017,-414.823 940.063,-401.122 973,-382 999.372,-366.69 1024.44,-341.589 1039.52,-324.93"/>
<polygon fill="midnightblue" stroke="midnightblue" points="1042.45,-326.896 1046.45,-317.084 1037.2,-322.262 1042.45,-326.896"/>
</g>
<!-- Node14 -->
<g id="node14" class="node"><title>Node14</title>
<polygon fill="white" stroke="#bfbfbf" points="1014.38,-233 1014.38,-253 1057.62,-253 1057.62,-233 1014.38,-233"/>
<text text-anchor="middle" x="1036" y="-239" font-family="Helvetica,sans-Serif" font-size="10.00">vector</text>
</g>
<!-- Node1&#45;&gt;Node14 -->
<g id="edge38" class="edge"><title>Node1&#45;&gt;Node14</title>
<path fill="none" stroke="midnightblue" d="M820.77,-418.906C850.634,-396.032 899.311,-358.201 940,-324 957.348,-309.418 960.67,-304.603 978,-290 990.374,-279.573 1004.61,-268.276 1015.88,-259.486"/>
<polygon fill="midnightblue" stroke="midnightblue" points="1018.08,-262.205 1023.84,-253.31 1013.79,-256.675 1018.08,-262.205"/>
</g>
<!-- Node13 -->
<g id="node13" class="node"><title>Node13</title>
<polygon fill="white" stroke="#bfbfbf" points="1009.94,-175 1009.94,-195 1062.06,-195 1062.06,-175 1009.94,-175"/>
<text text-anchor="middle" x="1036" y="-181" font-family="Helvetica,sans-Serif" font-size="10.00">memory</text>
</g>
<!-- Node1&#45;&gt;Node13 -->
<g id="edge39" class="edge"><title>Node1&#45;&gt;Node13</title>
<path fill="none" stroke="midnightblue" d="M866.161,-439.172C947.189,-433.761 1073.8,-410.895 1130,-324 1159.32,-278.673 1096.24,-226.269 1059.68,-201.067"/>
<polygon fill="midnightblue" stroke="midnightblue" points="1061.28,-197.928 1051.03,-195.267 1057.39,-203.743 1061.28,-197.928"/>
</g>
<!-- Node5 -->
<g id="node5" class="node"><title>Node5</title>
<g id="a_node5"><a xlink:href="basic_8h.xhtml" target="_top" xlink:title="ePub3/utilities/basic.h">
<polygon fill="white" stroke="black" points="654.638,-297 654.638,-317 767.362,-317 767.362,-297 654.638,-297"/>
<text text-anchor="middle" x="711" y="-303" font-family="Helvetica,sans-Serif" font-size="10.00">ePub3/utilities/basic.h</text>
</a>
</g>
</g>
<!-- Node4&#45;&gt;Node5 -->
<g id="edge4" class="edge"><title>Node4&#45;&gt;Node5</title>
<path fill="none" stroke="midnightblue" d="M639.394,-360.852C652.795,-350.961 674.375,-335.033 690.346,-323.244"/>
<polygon fill="midnightblue" stroke="midnightblue" points="692.587,-325.94 698.555,-317.186 688.43,-320.308 692.587,-325.94"/>
</g>
<!-- Node16 -->
<g id="node16" class="node"><title>Node16</title>
<g id="a_node16"><a xlink:href="integer__sequence_8h.xhtml" target="_top" xlink:title="ePub3/utilities/integer\l_sequence.h">
<polygon fill="white" stroke="black" points="-0.807617,-291 -0.807617,-323 110.808,-323 110.808,-291 -0.807617,-291"/>
<text text-anchor="start" x="7.19238" y="-309" font-family="Helvetica,sans-Serif" font-size="10.00">ePub3/utilities/integer</text>
<text text-anchor="middle" x="55" y="-297" font-family="Helvetica,sans-Serif" font-size="10.00">_sequence.h</text>
</a>
</g>
</g>
<!-- Node4&#45;&gt;Node16 -->
<g id="edge15" class="edge"><title>Node4&#45;&gt;Node16</title>
<path fill="none" stroke="midnightblue" d="M564.197,-361.069C561.089,-360.692 558.01,-360.333 555,-360 365.48,-339.013 313.231,-354.725 121.056,-324.004"/>
<polygon fill="midnightblue" stroke="midnightblue" points="121.335,-320.503 110.903,-322.358 120.215,-327.413 121.335,-320.503"/>
</g>
<!-- Node17 -->
<g id="node17" class="node"><title>Node17</title>
<g id="a_node17"><a xlink:href="string__view_8h.xhtml" target="_top" xlink:title="ePub3/utilities/string\l_view.h">
<polygon fill="white" stroke="black" points="493.254,-291 493.254,-323 598.746,-323 598.746,-291 493.254,-291"/>
<text text-anchor="start" x="501.254" y="-309" font-family="Helvetica,sans-Serif" font-size="10.00">ePub3/utilities/string</text>
<text text-anchor="middle" x="546" y="-297" font-family="Helvetica,sans-Serif" font-size="10.00">_view.h</text>
</a>
</g>
</g>
<!-- Node4&#45;&gt;Node17 -->
<g id="edge17" class="edge"><title>Node4&#45;&gt;Node17</title>
<path fill="none" stroke="midnightblue" d="M615.048,-360.852C604.233,-352.573 587.891,-340.065 573.82,-329.294"/>
<polygon fill="midnightblue" stroke="midnightblue" points="575.925,-326.498 565.857,-323.199 571.67,-332.057 575.925,-326.498"/>
</g>
<!-- Node19 -->
<g id="node19" class="node"><title>Node19</title>
<polygon fill="white" stroke="#bfbfbf" points="549.773,-233 549.773,-253 590.227,-253 590.227,-233 549.773,-233"/>
<text text-anchor="middle" x="570" y="-239" font-family="Helvetica,sans-Serif" font-size="10.00">string</text>
</g>
<!-- Node4&#45;&gt;Node19 -->
<g id="edge26" class="edge"><title>Node4&#45;&gt;Node19</title>
<path fill="none" stroke="midnightblue" d="M625.99,-360.676C624.038,-345.272 618.85,-313.846 607,-290 601.664,-279.262 593.477,-268.73 586.159,-260.46"/>
<polygon fill="midnightblue" stroke="midnightblue" points="588.632,-257.979 579.27,-253.019 583.496,-262.735 588.632,-257.979"/>
</g>
<!-- Node24 -->
<g id="node24" class="node"><title>Node24</title>
<polygon fill="white" stroke="#bfbfbf" points="823.438,-297 823.438,-317 870.562,-317 870.562,-297 823.438,-297"/>
<text text-anchor="middle" x="847" y="-303" font-family="Helvetica,sans-Serif" font-size="10.00">iterator</text>
</g>
<!-- Node4&#45;&gt;Node24 -->
<g id="edge27" class="edge"><title>Node4&#45;&gt;Node24</title>
<path fill="none" stroke="midnightblue" d="M670.555,-360.935C707.762,-352.732 762.488,-339.571 809,-324 811.8,-323.063 814.684,-322.012 817.553,-320.909"/>
<polygon fill="midnightblue" stroke="midnightblue" points="819.145,-324.04 827.101,-317.044 816.519,-317.552 819.145,-324.04"/>
</g>
<!-- Node25 -->
<g id="node25" class="node"><title>Node25</title>
<polygon fill="white" stroke="#bfbfbf" points="888.936,-297 888.936,-317 931.064,-317 931.064,-297 888.936,-297"/>
<text text-anchor="middle" x="910" y="-303" font-family="Helvetica,sans-Serif" font-size="10.00">locale</text>
</g>
<!-- Node4&#45;&gt;Node25 -->
<g id="edge28" class="edge"><title>Node4&#45;&gt;Node25</title>
<path fill="none" stroke="midnightblue" d="M689.66,-363.782C741.453,-357.414 816.384,-345.343 879,-324 881.143,-323.27 883.32,-322.412 885.477,-321.479"/>
<polygon fill="midnightblue" stroke="midnightblue" points="887.135,-324.565 894.627,-317.073 884.098,-318.258 887.135,-324.565"/>
</g>
<!-- Node4&#45;&gt;Node14 -->
<g id="edge29" class="edge"><title>Node4&#45;&gt;Node14</title>
<path fill="none" stroke="midnightblue" d="M674.073,-360.942C704.491,-353.799 744.186,-341.991 776,-324 795.727,-312.845 793.725,-300.124 814,-290 887.381,-253.358 914.917,-271.722 995,-254 998.049,-253.325 1001.22,-252.598 1004.39,-251.854"/>
<polygon fill="midnightblue" stroke="midnightblue" points="1005.43,-255.204 1014.34,-249.468 1003.8,-248.397 1005.43,-255.204"/>
</g>
<!-- Node26 -->
<g id="node26" class="node"><title>Node26</title>
<polygon fill="white" stroke="#bfbfbf" points="128.766,-297 128.766,-317 229.234,-317 229.234,-297 128.766,-297"/>
<text text-anchor="middle" x="179" y="-303" font-family="Helvetica,sans-Serif" font-size="10.00">REGEX_INCLUDE</text>
</g>
<!-- Node4&#45;&gt;Node26 -->
<g id="edge30" class="edge"><title>Node4&#45;&gt;Node26</title>
<path fill="none" stroke="midnightblue" d="M564.184,-361.182C561.079,-360.775 558.005,-360.379 555,-360 414.321,-342.245 377.271,-350.633 238,-324 231.706,-322.796 225.1,-321.271 218.678,-319.642"/>
<polygon fill="midnightblue" stroke="midnightblue" points="219.373,-316.205 208.81,-317.028 217.58,-322.972 219.373,-316.205"/>
</g>
<!-- Node27 -->
<g id="node27" class="node"><title>Node27</title>
<polygon fill="white" stroke="#bfbfbf" points="247.273,-297 247.273,-317 282.727,-317 282.727,-297 247.273,-297"/>
<text text-anchor="middle" x="265" y="-303" font-family="Helvetica,sans-Serif" font-size="10.00">map</text>
</g>
<!-- Node4&#45;&gt;Node27 -->
<g id="edge31" class="edge"><title>Node4&#45;&gt;Node27</title>
<path fill="none" stroke="midnightblue" d="M564.172,-361.267C561.071,-360.838 558,-360.414 555,-360 438.127,-343.885 403.401,-362.843 292,-324 290.338,-323.42 288.665,-322.732 287.01,-321.972"/>
<polygon fill="midnightblue" stroke="midnightblue" points="288.406,-318.748 277.942,-317.087 285.086,-324.911 288.406,-318.748"/>
</g>
<!-- Node28 -->
<g id="node28" class="node"><title>Node28</title>
<polygon fill="white" stroke="#bfbfbf" points="300.599,-297 300.599,-317 359.401,-317 359.401,-297 300.599,-297"/>
<text text-anchor="middle" x="330" y="-303" font-family="Helvetica,sans-Serif" font-size="10.00">stdexcept</text>
</g>
<!-- Node4&#45;&gt;Node28 -->
<g id="edge32" class="edge"><title>Node4&#45;&gt;Node28</title>
<path fill="none" stroke="midnightblue" d="M570.463,-360.96C507.347,-350.656 409.303,-333.957 373,-324 369.327,-322.993 365.526,-321.803 361.774,-320.536"/>
<polygon fill="midnightblue" stroke="midnightblue" points="362.667,-317.138 352.072,-317.066 360.31,-323.729 362.667,-317.138"/>
</g>
<!-- Node20 -->
<g id="node20" class="node"><title>Node20</title>
<polygon fill="white" stroke="#bfbfbf" points="258.613,-233 258.613,-253 297.387,-253 297.387,-233 258.613,-233"/>
<text text-anchor="middle" x="278" y="-239" font-family="Helvetica,sans-Serif" font-size="10.00">limits</text>
</g>
<!-- Node4&#45;&gt;Node20 -->
<g id="edge33" class="edge"><title>Node4&#45;&gt;Node20</title>
<path fill="none" stroke="midnightblue" d="M566.26,-360.988C510.852,-352.116 433.55,-337.91 406,-324 385.77,-313.786 386.689,-302.819 368,-290 348.619,-276.707 324.884,-264.732 306.655,-256.335"/>
<polygon fill="midnightblue" stroke="midnightblue" points="307.972,-253.09 297.418,-252.168 305.093,-259.471 307.972,-253.09"/>
</g>
<!-- Node29 -->
<g id="node29" class="node"><title>Node29</title>
<polygon fill="white" stroke="#bfbfbf" points="414.761,-297 414.761,-317 475.239,-317 475.239,-297 414.761,-297"/>
<text text-anchor="middle" x="445" y="-303" font-family="Helvetica,sans-Serif" font-size="10.00">utf8/utf8.h</text>
</g>
<!-- Node4&#45;&gt;Node29 -->
<g id="edge34" class="edge"><title>Node4&#45;&gt;Node29</title>
<path fill="none" stroke="midnightblue" d="M596.638,-360.986C567.529,-352.168 522.458,-338.05 484,-324 481.293,-323.011 478.497,-321.948 475.702,-320.857"/>
<polygon fill="midnightblue" stroke="midnightblue" points="476.923,-317.576 466.339,-317.106 474.32,-324.074 476.923,-317.576"/>
</g>
<!-- Node6 -->
<g id="node6" class="node"><title>Node6</title>
<g id="a_node6"><a xlink:href="base_8h.xhtml" target="_top" xlink:title="ePub3/base.h">
<polygon fill="white" stroke="black" points="459.141,-175 459.141,-195 536.859,-195 536.859,-175 459.141,-175"/>
<text text-anchor="middle" x="498" y="-181" font-family="Helvetica,sans-Serif" font-size="10.00">ePub3/base.h</text>
</a>
</g>
</g>
<!-- Node5&#45;&gt;Node6 -->
<g id="edge5" class="edge"><title>Node5&#45;&gt;Node6</title>
<path fill="none" stroke="midnightblue" d="M698.638,-296.9C678.413,-282.229 636.72,-252.883 599,-232 576.546,-219.569 550.114,-207.62 529.923,-199.018"/>
<polygon fill="midnightblue" stroke="midnightblue" points="531.132,-195.729 520.558,-195.076 528.417,-202.181 531.132,-195.729"/>
</g>
<!-- Node11 -->
<g id="node11" class="node"><title>Node11</title>
<polygon fill="white" stroke="#bfbfbf" points="773.815,-233 773.815,-253 888.185,-253 888.185,-233 773.815,-233"/>
<text text-anchor="middle" x="831" y="-239" font-family="Helvetica,sans-Serif" font-size="10.00">ePub3/xml/xmlstring.h</text>
</g>
<!-- Node5&#45;&gt;Node11 -->
<g id="edge10" class="edge"><title>Node5&#45;&gt;Node11</title>
<path fill="none" stroke="midnightblue" d="M728.449,-296.985C748.445,-286.653 781.432,-269.61 804.581,-257.65"/>
<polygon fill="midnightblue" stroke="midnightblue" points="806.252,-260.726 813.53,-253.026 803.039,-254.507 806.252,-260.726"/>
</g>
<!-- Node12 -->
<g id="node12" class="node"><title>Node12</title>
<polygon fill="white" stroke="#bfbfbf" points="906.219,-233 906.219,-253 957.781,-253 957.781,-233 906.219,-233"/>
<text text-anchor="middle" x="932" y="-239" font-family="Helvetica,sans-Serif" font-size="10.00">sstream</text>
</g>
<!-- Node5&#45;&gt;Node12 -->
<g id="edge11" class="edge"><title>Node5&#45;&gt;Node12</title>
<path fill="none" stroke="midnightblue" d="M743.607,-296.944C778.798,-287.158 836.754,-271.003 896.092,-254.246"/>
<polygon fill="midnightblue" stroke="midnightblue" points="897.34,-257.531 906.011,-251.443 895.436,-250.795 897.34,-257.531"/>
</g>
<!-- Node5&#45;&gt;Node13 -->
<g id="edge12" class="edge"><title>Node5&#45;&gt;Node13</title>
<path fill="none" stroke="midnightblue" d="M749.462,-296.972C759.697,-294.635 770.755,-292.167 781,-290 862.951,-272.665 891.761,-292.796 966,-254 989.566,-241.685 1010.55,-218.914 1023.25,-203.134"/>
<polygon fill="midnightblue" stroke="midnightblue" points="1026.05,-205.241 1029.43,-195.198 1020.52,-200.943 1026.05,-205.241"/>
</g>
<!-- Node5&#45;&gt;Node14 -->
<g id="edge13" class="edge"><title>Node5&#45;&gt;Node14</title>
<path fill="none" stroke="midnightblue" d="M748.691,-296.936C759.128,-294.548 770.48,-292.065 781,-290 877.793,-271.001 903.672,-275.231 1000,-254 1001.28,-253.717 1002.59,-253.417 1003.9,-253.103"/>
<polygon fill="midnightblue" stroke="midnightblue" points="1005.19,-256.386 1014.01,-250.514 1003.45,-249.605 1005.19,-256.386"/>
</g>
<!-- Node15 -->
<g id="node15" class="node"><title>Node15</title>
<polygon fill="white" stroke="#bfbfbf" points="646.5,-233 646.5,-253 675.5,-253 675.5,-233 646.5,-233"/>
<text text-anchor="middle" x="660.611" y="-239" font-family="Helvetica,sans-Serif" font-size="10.00">list</text>
</g>
<!-- Node5&#45;&gt;Node15 -->
<g id="edge14" class="edge"><title>Node5&#45;&gt;Node15</title>
<path fill="none" stroke="midnightblue" d="M703.622,-296.852C696.089,-287.511 684.213,-272.784 674.908,-261.246"/>
<polygon fill="midnightblue" stroke="midnightblue" points="677.41,-258.773 668.408,-253.186 671.961,-263.167 677.41,-258.773"/>
</g>
<!-- Node7 -->
<g id="node7" class="node"><title>Node7</title>
<g id="a_node7"><a xlink:href="__config_8h.xhtml" target="_top" xlink:title="_config.h">
<polygon fill="white" stroke="black" points="434.707,-117 434.707,-137 491.293,-137 491.293,-117 434.707,-117"/>
<text text-anchor="middle" x="463" y="-123" font-family="Helvetica,sans-Serif" font-size="10.00">_config.h</text>
</a>
</g>
</g>
<!-- Node6&#45;&gt;Node7 -->
<g id="edge6" class="edge"><title>Node6&#45;&gt;Node7</title>
<path fill="none" stroke="midnightblue" d="M492.22,-174.753C487.277,-166.843 480.023,-155.237 473.98,-145.568"/>
<polygon fill="midnightblue" stroke="midnightblue" points="476.94,-143.7 468.672,-137.075 471.004,-147.41 476.94,-143.7"/>
</g>
<!-- Node10 -->
<g id="node10" class="node"><title>Node10</title>
<polygon fill="white" stroke="#bfbfbf" points="509.158,-117 509.158,-137 556.842,-137 556.842,-117 509.158,-117"/>
<text text-anchor="middle" x="533" y="-123" font-family="Helvetica,sans-Serif" font-size="10.00">stdlib.h</text>
</g>
<!-- Node6&#45;&gt;Node10 -->
<g id="edge9" class="edge"><title>Node6&#45;&gt;Node10</title>
<path fill="none" stroke="midnightblue" d="M503.78,-174.753C508.723,-166.843 515.977,-155.237 522.02,-145.568"/>
<polygon fill="midnightblue" stroke="midnightblue" points="524.996,-147.41 527.328,-137.075 519.06,-143.7 524.996,-147.41"/>
</g>
<!-- Node8 -->
<g id="node8" class="node"><title>Node8</title>
<g id="a_node8"><a xlink:href="__platform_8h.xhtml" target="_top" xlink:title="_platform.h">
<polygon fill="white" stroke="black" points="429.988,-59 429.988,-79 496.012,-79 496.012,-59 429.988,-59"/>
<text text-anchor="middle" x="463" y="-65" font-family="Helvetica,sans-Serif" font-size="10.00">_platform.h</text>
</a>
</g>
</g>
<!-- Node7&#45;&gt;Node8 -->
<g id="edge7" class="edge"><title>Node7&#45;&gt;Node8</title>
<path fill="none" stroke="midnightblue" d="M463,-116.753C463,-109.25 463,-98.4238 463,-89.0781"/>
<polygon fill="midnightblue" stroke="midnightblue" points="466.5,-89.0752 463,-79.0752 459.5,-89.0752 466.5,-89.0752"/>
</g>
<!-- Node9 -->
<g id="node9" class="node"><title>Node9</title>
<g id="a_node9"><a xlink:href="__compiler_8h.xhtml" target="_top" xlink:title="_compiler.h">
<polygon fill="white" stroke="black" points="429.429,-1 429.429,-21 496.571,-21 496.571,-1 429.429,-1"/>
<text text-anchor="middle" x="463" y="-7" font-family="Helvetica,sans-Serif" font-size="10.00">_compiler.h</text>
</a>
</g>
</g>
<!-- Node8&#45;&gt;Node9 -->
<g id="edge8" class="edge"><title>Node8&#45;&gt;Node9</title>
<path fill="none" stroke="midnightblue" d="M463,-58.7527C463,-51.2504 463,-40.4238 463,-31.0781"/>
<polygon fill="midnightblue" stroke="midnightblue" points="466.5,-31.0752 463,-21.0752 459.5,-31.0752 466.5,-31.0752"/>
</g>
<!-- Node16&#45;&gt;Node6 -->
<g id="edge16" class="edge"><title>Node16&#45;&gt;Node6</title>
<path fill="none" stroke="midnightblue" d="M89.2436,-290.853C127.7,-274.354 192.293,-248.161 250,-232 317.854,-212.998 398.391,-199.71 448.857,-192.46"/>
<polygon fill="midnightblue" stroke="midnightblue" points="449.434,-195.913 458.846,-191.047 448.454,-188.982 449.434,-195.913"/>
</g>
<!-- Node18 -->
<g id="node18" class="node"><title>Node18</title>
<polygon fill="white" stroke="#bfbfbf" points="693.934,-233 693.934,-253 756.066,-253 756.066,-233 693.934,-233"/>
<text text-anchor="middle" x="725" y="-239" font-family="Helvetica,sans-Serif" font-size="10.00">type_traits</text>
</g>
<!-- Node17&#45;&gt;Node18 -->
<g id="edge18" class="edge"><title>Node17&#45;&gt;Node18</title>
<path fill="none" stroke="midnightblue" d="M589.331,-290.992C619.967,-280.38 660.541,-266.327 689.314,-256.361"/>
<polygon fill="midnightblue" stroke="midnightblue" points="690.659,-259.599 698.963,-253.018 688.368,-252.984 690.659,-259.599"/>
</g>
<!-- Node17&#45;&gt;Node19 -->
<g id="edge19" class="edge"><title>Node17&#45;&gt;Node19</title>
<path fill="none" stroke="midnightblue" d="M551.81,-290.992C555.08,-282.543 559.196,-271.912 562.684,-262.899"/>
<polygon fill="midnightblue" stroke="midnightblue" points="566.058,-263.88 566.404,-253.29 559.53,-261.353 566.058,-263.88"/>
</g>
<!-- Node17&#45;&gt;Node20 -->
<g id="edge20" class="edge"><title>Node17&#45;&gt;Node20</title>
<path fill="none" stroke="midnightblue" d="M492.945,-292.115C489.922,-291.384 486.925,-290.674 484,-290 408.831,-272.669 386.2,-274.915 307.437,-253.821"/>
<polygon fill="midnightblue" stroke="midnightblue" points="308.115,-250.379 297.547,-251.13 306.277,-257.133 308.115,-250.379"/>
</g>
<!-- Node21 -->
<g id="node21" class="node"><title>Node21</title>
<polygon fill="white" stroke="#bfbfbf" points="315.828,-233 315.828,-253 370.172,-253 370.172,-233 315.828,-233"/>
<text text-anchor="middle" x="343" y="-239" font-family="Helvetica,sans-Serif" font-size="10.00">iostream</text>
</g>
<!-- Node17&#45;&gt;Node21 -->
<g id="edge21" class="edge"><title>Node17&#45;&gt;Node21</title>
<path fill="none" stroke="midnightblue" d="M496.859,-290.992C460.81,-279.981 412.626,-265.265 379.85,-255.255"/>
<polygon fill="midnightblue" stroke="midnightblue" points="380.789,-251.882 370.203,-252.308 378.745,-258.577 380.789,-251.882"/>
</g>
<!-- Node22 -->
<g id="node22" class="node"><title>Node22</title>
<polygon fill="white" stroke="#bfbfbf" points="388.436,-233 388.436,-253 445.564,-253 445.564,-233 388.436,-233"/>
<text text-anchor="middle" x="417" y="-239" font-family="Helvetica,sans-Serif" font-size="10.00">algorithm</text>
</g>
<!-- Node17&#45;&gt;Node22 -->
<g id="edge22" class="edge"><title>Node17&#45;&gt;Node22</title>
<path fill="none" stroke="midnightblue" d="M514.773,-290.992C493.53,-280.782 465.657,-267.385 445.108,-257.509"/>
<polygon fill="midnightblue" stroke="midnightblue" points="446.481,-254.286 435.952,-253.109 443.449,-260.595 446.481,-254.286"/>
</g>
<!-- Node23 -->
<g id="node23" class="node"><title>Node23</title>
<g id="a_node23"><a xlink:href="____strhash_8h.xhtml" target="_top" xlink:title="__strhash.h">
<polygon fill="white" stroke="black" points="463.872,-233 463.872,-253 532.128,-253 532.128,-233 463.872,-233"/>
<text text-anchor="middle" x="498" y="-239" font-family="Helvetica,sans-Serif" font-size="10.00">__strhash.h</text>
</a>
</g>
</g>
<!-- Node17&#45;&gt;Node23 -->
<g id="edge23" class="edge"><title>Node17&#45;&gt;Node23</title>
<path fill="none" stroke="midnightblue" d="M534.381,-290.992C527.484,-282.084 518.709,-270.75 511.505,-261.445"/>
<polygon fill="midnightblue" stroke="midnightblue" points="514.082,-259.055 505.193,-253.29 508.547,-263.34 514.082,-259.055"/>
</g>
<!-- Node23&#45;&gt;Node6 -->
<g id="edge24" class="edge"><title>Node23&#45;&gt;Node6</title>
<path fill="none" stroke="midnightblue" d="M498,-232.753C498,-225.25 498,-214.424 498,-205.078"/>
<polygon fill="midnightblue" stroke="midnightblue" points="501.5,-205.075 498,-195.075 494.5,-205.075 501.5,-205.075"/>
</g>
<!-- Node23&#45;&gt;Node13 -->
<g id="edge25" class="edge"><title>Node23&#45;&gt;Node13</title>
<path fill="none" stroke="midnightblue" d="M532.184,-233.609C535.156,-233.013 538.125,-232.466 541,-232 711.381,-204.403 917.639,-191.851 999.745,-187.679"/>
<polygon fill="midnightblue" stroke="midnightblue" points="999.999,-191.171 1009.81,-187.179 999.651,-184.18 999.999,-191.171"/>
</g>
<!-- Node30&#45;&gt;Node13 -->
<g id="edge36" class="edge"><title>Node30&#45;&gt;Node13</title>
<path fill="none" stroke="midnightblue" d="M1058.12,-296.717C1063.84,-282.529 1072.75,-254.705 1066,-232 1062.89,-221.53 1056.55,-211.219 1050.5,-203.021"/>
<polygon fill="midnightblue" stroke="midnightblue" points="1053.16,-200.733 1044.22,-195.047 1047.66,-205.067 1053.16,-200.733"/>
</g>
<!-- Node30&#45;&gt;Node18 -->
<g id="edge37" class="edge"><title>Node30&#45;&gt;Node18</title>
<path fill="none" stroke="midnightblue" d="M997.568,-296.995C941.323,-287.761 852.284,-272.447 766.32,-254.184"/>
<polygon fill="midnightblue" stroke="midnightblue" points="766.908,-250.731 756.397,-252.06 765.442,-257.576 766.908,-250.731"/>
</g>
</g>
</svg>
