<?xml version="1.0" encoding="UTF-8" standalone="no"?>
<!DOCTYPE svg PUBLIC "-//W3C//DTD SVG 1.1//EN"
 "http://www.w3.org/Graphics/SVG/1.1/DTD/svg11.dtd">
<!-- Generated by graphviz version 2.30.0 (20130114.0426)
 -->
<!-- Title: /Users/rkwright/Documents/github/readium&#45;sdk&#45;D/ePub3/ePub/nav_point.cpp Pages: 1 -->
<svg width="2315pt" height="542pt"
 viewBox="0.00 0.00 2315.00 542.00" xmlns="http://www.w3.org/2000/svg" xmlns:xlink="http://www.w3.org/1999/xlink">
<g id="graph0" class="graph" transform="scale(1 1) rotate(0) translate(4 538)">
<title>/Users/rkwright/Documents/github/readium&#45;sdk&#45;D/ePub3/ePub/nav_point.cpp</title>
<polygon fill="white" stroke="white" points="-4,5 -4,-538 2312,-538 2312,5 -4,5"/>
<!-- Node1 -->
<g id="node1" class="node"><title>Node1</title>
<polygon fill="#bfbfbf" stroke="black" points="434.966,-489 434.966,-533 581.034,-533 581.034,-489 434.966,-489"/>
<text text-anchor="start" x="442.966" y="-519" font-family="Helvetica,sans-Serif" font-size="10.00">/Users/rkwright/Documents</text>
<text text-anchor="start" x="442.966" y="-507" font-family="Helvetica,sans-Serif" font-size="10.00">/github/readium&#45;sdk&#45;D/ePub3</text>
<text text-anchor="middle" x="508" y="-495" font-family="Helvetica,sans-Serif" font-size="10.00">/ePub/nav_point.cpp</text>
</g>
<!-- Node2 -->
<g id="node2" class="node"><title>Node2</title>
<g id="a_node2"><a xlink:href="nav__point_8h.xhtml" target="_top" xlink:title="nav_point.h">
<polygon fill="white" stroke="black" points="241.146,-431 241.146,-451 308.854,-451 308.854,-431 241.146,-431"/>
<text text-anchor="middle" x="275" y="-437" font-family="Helvetica,sans-Serif" font-size="10.00">nav_point.h</text>
</a>
</g>
</g>
<!-- Node1&#45;&gt;Node2 -->
<g id="edge1" class="edge"><title>Node1&#45;&gt;Node2</title>
<path fill="none" stroke="midnightblue" d="M435.873,-488.95C396.387,-477.426 348.906,-463.569 315.804,-453.908"/>
<polygon fill="midnightblue" stroke="midnightblue" points="316.597,-450.494 306.017,-451.052 314.636,-457.214 316.597,-450.494"/>
</g>
<!-- Node31 -->
<g id="node31" class="node"><title>Node31</title>
<g id="a_node31"><a xlink:href="nav__table_8h.xhtml" target="_top" xlink:title="nav_table.h">
<polygon fill="white" stroke="black" points="421.146,-431 421.146,-451 488.854,-451 488.854,-431 421.146,-431"/>
<text text-anchor="middle" x="455" y="-437" font-family="Helvetica,sans-Serif" font-size="10.00">nav_table.h</text>
</a>
</g>
</g>
<!-- Node1&#45;&gt;Node31 -->
<g id="edge40" class="edge"><title>Node1&#45;&gt;Node31</title>
<path fill="none" stroke="midnightblue" d="M491.521,-488.857C484.137,-479.383 475.535,-468.347 468.535,-459.366"/>
<polygon fill="midnightblue" stroke="midnightblue" points="471.082,-456.94 462.174,-451.204 465.561,-461.243 471.082,-456.94"/>
</g>
<!-- Node34 -->
<g id="node34" class="node"><title>Node34</title>
<g id="a_node34"><a xlink:href="package_8h.xhtml" target="_top" xlink:title="package.h">
<polygon fill="white" stroke="black" points="1395.93,-431 1395.93,-451 1458.07,-451 1458.07,-431 1395.93,-431"/>
<text text-anchor="middle" x="1427" y="-437" font-family="Helvetica,sans-Serif" font-size="10.00">package.h</text>
</a>
</g>
</g>
<!-- Node1&#45;&gt;Node34 -->
<g id="edge45" class="edge"><title>Node1&#45;&gt;Node34</title>
<path fill="none" stroke="midnightblue" d="M581.266,-504.579C765.253,-490.965 1242.24,-455.671 1385.63,-445.061"/>
<polygon fill="midnightblue" stroke="midnightblue" points="1386.05,-448.54 1395.76,-444.311 1385.53,-441.559 1386.05,-448.54"/>
</g>
<!-- Node50 -->
<g id="node50" class="node"><title>Node50</title>
<g id="a_node50"><a xlink:href="path__help_8h.xhtml" target="_top" xlink:title="../utilities/path_help.h">
<polygon fill="white" stroke="black" points="507.025,-431 507.025,-451 616.975,-451 616.975,-431 507.025,-431"/>
<text text-anchor="middle" x="562" y="-437" font-family="Helvetica,sans-Serif" font-size="10.00">../utilities/path_help.h</text>
</a>
</g>
</g>
<!-- Node1&#45;&gt;Node50 -->
<g id="edge77" class="edge"><title>Node1&#45;&gt;Node50</title>
<path fill="none" stroke="midnightblue" d="M524.79,-488.857C532.392,-479.284 541.26,-468.117 548.432,-459.086"/>
<polygon fill="midnightblue" stroke="midnightblue" points="551.213,-461.212 554.691,-451.204 545.731,-456.858 551.213,-461.212"/>
</g>
<!-- Node3 -->
<g id="node3" class="node"><title>Node3</title>
<polygon fill="white" stroke="#bfbfbf" points="467.079,-367 467.079,-387 550.921,-387 550.921,-367 467.079,-367"/>
<text text-anchor="middle" x="509" y="-373" font-family="Helvetica,sans-Serif" font-size="10.00">ePub3/epub3.h</text>
</g>
<!-- Node2&#45;&gt;Node3 -->
<g id="edge2" class="edge"><title>Node2&#45;&gt;Node3</title>
<path fill="none" stroke="midnightblue" d="M309.016,-431.951C345.681,-423.147 405.688,-408.369 457,-394 461.417,-392.763 466.03,-391.42 470.604,-390.055"/>
<polygon fill="midnightblue" stroke="midnightblue" points="471.914,-393.315 480.469,-387.065 469.883,-386.616 471.914,-393.315"/>
</g>
<!-- Node4 -->
<g id="node4" class="node"><title>Node4</title>
<polygon fill="white" stroke="#bfbfbf" points="218.353,-367 218.353,-387 331.647,-387 331.647,-367 218.353,-367"/>
<text text-anchor="middle" x="275" y="-373" font-family="Helvetica,sans-Serif" font-size="10.00">ePub3/nav_element.h</text>
</g>
<!-- Node2&#45;&gt;Node4 -->
<g id="edge3" class="edge"><title>Node2&#45;&gt;Node4</title>
<path fill="none" stroke="midnightblue" d="M275,-430.852C275,-422.06 275,-408.498 275,-397.313"/>
<polygon fill="midnightblue" stroke="midnightblue" points="278.5,-397.186 275,-387.186 271.5,-397.186 278.5,-397.186"/>
</g>
<!-- Node5 -->
<g id="node5" class="node"><title>Node5</title>
<g id="a_node5"><a xlink:href="utfstring_8h.xhtml" target="_top" xlink:title="ePub3/utilities/utfstring.h">
<polygon fill="white" stroke="black" points="1188.52,-303 1188.52,-323 1313.48,-323 1313.48,-303 1188.52,-303"/>
<text text-anchor="middle" x="1251" y="-309" font-family="Helvetica,sans-Serif" font-size="10.00">ePub3/utilities/utfstring.h</text>
</a>
</g>
</g>
<!-- Node2&#45;&gt;Node5 -->
<g id="edge4" class="edge"><title>Node2&#45;&gt;Node5</title>
<path fill="none" stroke="midnightblue" d="M309.115,-437.474C427.666,-428.657 815.182,-399.481 827,-394 846.387,-385.008 841.77,-369.322 861,-360 915.364,-333.645 1081.37,-321.735 1178.39,-316.9"/>
<polygon fill="midnightblue" stroke="midnightblue" points="1178.6,-320.394 1188.42,-316.413 1178.26,-313.402 1178.6,-320.394"/>
</g>
<!-- Node30 -->
<g id="node30" class="node"><title>Node30</title>
<g id="a_node30"><a xlink:href="owned__by_8h.xhtml" target="_top" xlink:title="ePub3/utilities/owned_by.h">
<polygon fill="white" stroke="black" points="65.8838,-367 65.8838,-387 200.116,-387 200.116,-367 65.8838,-367"/>
<text text-anchor="middle" x="133" y="-373" font-family="Helvetica,sans-Serif" font-size="10.00">ePub3/utilities/owned_by.h</text>
</a>
</g>
</g>
<!-- Node2&#45;&gt;Node30 -->
<g id="edge35" class="edge"><title>Node2&#45;&gt;Node30</title>
<path fill="none" stroke="midnightblue" d="M254.352,-430.985C230.374,-420.516 190.612,-403.154 163.173,-391.174"/>
<polygon fill="midnightblue" stroke="midnightblue" points="164.238,-387.82 153.673,-387.026 161.437,-394.235 164.238,-387.82"/>
</g>
<!-- Node14 -->
<g id="node14" class="node"><title>Node14</title>
<polygon fill="white" stroke="#bfbfbf" points="670.384,-175 670.384,-195 713.616,-195 713.616,-175 670.384,-175"/>
<text text-anchor="middle" x="692" y="-181" font-family="Helvetica,sans-Serif" font-size="10.00">vector</text>
</g>
<!-- Node2&#45;&gt;Node14 -->
<g id="edge38" class="edge"><title>Node2&#45;&gt;Node14</title>
<path fill="none" stroke="midnightblue" d="M240.976,-439.384C168.26,-436.843 8.15744,-424.027 57,-360 132.718,-260.743 541.522,-204.19 659.879,-189.729"/>
<polygon fill="midnightblue" stroke="midnightblue" points="660.586,-193.169 670.095,-188.498 659.748,-186.22 660.586,-193.169"/>
</g>
<!-- Node13 -->
<g id="node13" class="node"><title>Node13</title>
<polygon fill="white" stroke="#bfbfbf" points="724.943,-117 724.943,-137 777.057,-137 777.057,-117 724.943,-117"/>
<text text-anchor="middle" x="751" y="-123" font-family="Helvetica,sans-Serif" font-size="10.00">memory</text>
</g>
<!-- Node2&#45;&gt;Node13 -->
<g id="edge39" class="edge"><title>Node2&#45;&gt;Node13</title>
<path fill="none" stroke="midnightblue" d="M240.876,-436.748C184.468,-430.8 74.9254,-416.655 44,-394 11.2655,-370.019 0,-354.579 0,-314 0,-314 0,-314 0,-248 0,-174.745 564.375,-138.318 714.623,-129.919"/>
<polygon fill="midnightblue" stroke="midnightblue" points="714.92,-133.408 724.712,-129.362 714.534,-126.418 714.92,-133.408"/>
</g>
<!-- Node6 -->
<g id="node6" class="node"><title>Node6</title>
<g id="a_node6"><a xlink:href="basic_8h.xhtml" target="_top" xlink:title="ePub3/utilities/basic.h">
<polygon fill="white" stroke="black" points="1194.64,-239 1194.64,-259 1307.36,-259 1307.36,-239 1194.64,-239"/>
<text text-anchor="middle" x="1251" y="-245" font-family="Helvetica,sans-Serif" font-size="10.00">ePub3/utilities/basic.h</text>
</a>
</g>
</g>
<!-- Node5&#45;&gt;Node6 -->
<g id="edge5" class="edge"><title>Node5&#45;&gt;Node6</title>
<path fill="none" stroke="midnightblue" d="M1251,-302.852C1251,-294.06 1251,-280.498 1251,-269.313"/>
<polygon fill="midnightblue" stroke="midnightblue" points="1254.5,-269.186 1251,-259.186 1247.5,-269.186 1254.5,-269.186"/>
</g>
<!-- Node16 -->
<g id="node16" class="node"><title>Node16</title>
<g id="a_node16"><a xlink:href="integer__sequence_8h.xhtml" target="_top" xlink:title="ePub3/utilities/integer\l_sequence.h">
<polygon fill="white" stroke="black" points="1451.19,-233 1451.19,-265 1562.81,-265 1562.81,-233 1451.19,-233"/>
<text text-anchor="start" x="1459.19" y="-251" font-family="Helvetica,sans-Serif" font-size="10.00">ePub3/utilities/integer</text>
<text text-anchor="middle" x="1507" y="-239" font-family="Helvetica,sans-Serif" font-size="10.00">_sequence.h</text>
</a>
</g>
</g>
<!-- Node5&#45;&gt;Node16 -->
<g id="edge15" class="edge"><title>Node5&#45;&gt;Node16</title>
<path fill="none" stroke="midnightblue" d="M1288.7,-302.979C1325.21,-294.231 1382.38,-280.496 1441.16,-266.199"/>
<polygon fill="midnightblue" stroke="midnightblue" points="1442.1,-269.573 1450.98,-263.807 1440.44,-262.772 1442.1,-269.573"/>
</g>
<!-- Node17 -->
<g id="node17" class="node"><title>Node17</title>
<g id="a_node17"><a xlink:href="string__view_8h.xhtml" target="_top" xlink:title="ePub3/utilities/string\l_view.h">
<polygon fill="white" stroke="black" points="1657.25,-233 1657.25,-265 1762.75,-265 1762.75,-233 1657.25,-233"/>
<text text-anchor="start" x="1665.25" y="-251" font-family="Helvetica,sans-Serif" font-size="10.00">ePub3/utilities/string</text>
<text text-anchor="middle" x="1710" y="-239" font-family="Helvetica,sans-Serif" font-size="10.00">_view.h</text>
</a>
</g>
</g>
<!-- Node5&#45;&gt;Node17 -->
<g id="edge17" class="edge"><title>Node5&#45;&gt;Node17</title>
<path fill="none" stroke="midnightblue" d="M1313.72,-304.273C1384.53,-295.451 1503.13,-280.378 1605,-266 1618.66,-264.071 1633.31,-261.903 1647.2,-259.8"/>
<polygon fill="midnightblue" stroke="midnightblue" points="1647.8,-263.25 1657.16,-258.285 1646.74,-256.33 1647.8,-263.25"/>
</g>
<!-- Node19 -->
<g id="node19" class="node"><title>Node19</title>
<polygon fill="white" stroke="#bfbfbf" points="1799.77,-175 1799.77,-195 1840.23,-195 1840.23,-175 1799.77,-175"/>
<text text-anchor="middle" x="1820" y="-181" font-family="Helvetica,sans-Serif" font-size="10.00">string</text>
</g>
<!-- Node5&#45;&gt;Node19 -->
<g id="edge26" class="edge"><title>Node5&#45;&gt;Node19</title>
<path fill="none" stroke="midnightblue" d="M1313.6,-309.605C1443.39,-304.188 1732.91,-289.6 1771,-266 1793.44,-252.095 1807.11,-223.726 1814.12,-204.785"/>
<polygon fill="midnightblue" stroke="midnightblue" points="1817.49,-205.737 1817.41,-195.142 1810.87,-203.472 1817.49,-205.737"/>
</g>
<!-- Node24 -->
<g id="node24" class="node"><title>Node24</title>
<polygon fill="white" stroke="#bfbfbf" points="1325.44,-239 1325.44,-259 1372.56,-259 1372.56,-239 1325.44,-239"/>
<text text-anchor="middle" x="1349" y="-245" font-family="Helvetica,sans-Serif" font-size="10.00">iterator</text>
</g>
<!-- Node5&#45;&gt;Node24 -->
<g id="edge27" class="edge"><title>Node5&#45;&gt;Node24</title>
<path fill="none" stroke="midnightblue" d="M1265.46,-302.852C1281.38,-292.778 1307.21,-276.441 1325.93,-264.594"/>
<polygon fill="midnightblue" stroke="midnightblue" points="1327.9,-267.49 1334.48,-259.186 1324.16,-261.575 1327.9,-267.49"/>
</g>
<!-- Node25 -->
<g id="node25" class="node"><title>Node25</title>
<polygon fill="white" stroke="#bfbfbf" points="1390.94,-239 1390.94,-259 1433.06,-259 1433.06,-239 1390.94,-239"/>
<text text-anchor="middle" x="1412" y="-245" font-family="Helvetica,sans-Serif" font-size="10.00">locale</text>
</g>
<!-- Node5&#45;&gt;Node25 -->
<g id="edge28" class="edge"><title>Node5&#45;&gt;Node25</title>
<path fill="none" stroke="midnightblue" d="M1280.09,-302.966C1306.73,-294.4 1347.05,-280.686 1381,-266 1382.79,-265.225 1384.63,-264.39 1386.46,-263.525"/>
<polygon fill="midnightblue" stroke="midnightblue" points="1388.06,-266.637 1395.47,-259.06 1384.95,-260.365 1388.06,-266.637"/>
</g>
<!-- Node5&#45;&gt;Node14 -->
<g id="edge29" class="edge"><title>Node5&#45;&gt;Node14</title>
<path fill="none" stroke="midnightblue" d="M1188.29,-309.172C1062.09,-303.059 786.277,-287.42 749,-266 724.921,-252.164 708.412,-223.56 699.585,-204.574"/>
<polygon fill="midnightblue" stroke="midnightblue" points="702.686,-202.93 695.472,-195.171 696.273,-205.735 702.686,-202.93"/>
</g>
<!-- Node26 -->
<g id="node26" class="node"><title>Node26</title>
<polygon fill="white" stroke="#bfbfbf" points="919.766,-239 919.766,-259 1020.23,-259 1020.23,-239 919.766,-239"/>
<text text-anchor="middle" x="970" y="-245" font-family="Helvetica,sans-Serif" font-size="10.00">REGEX_INCLUDE</text>
</g>
<!-- Node5&#45;&gt;Node26 -->
<g id="edge30" class="edge"><title>Node5&#45;&gt;Node26</title>
<path fill="none" stroke="midnightblue" d="M1203.84,-302.97C1158.98,-294.195 1089.68,-280.156 1030,-266 1024.29,-264.645 1018.29,-263.143 1012.39,-261.617"/>
<polygon fill="midnightblue" stroke="midnightblue" points="1013.17,-258.204 1002.61,-259.049 1011.4,-264.975 1013.17,-258.204"/>
</g>
<!-- Node27 -->
<g id="node27" class="node"><title>Node27</title>
<polygon fill="white" stroke="#bfbfbf" points="1819.27,-239 1819.27,-259 1854.73,-259 1854.73,-239 1819.27,-239"/>
<text text-anchor="middle" x="1837" y="-245" font-family="Helvetica,sans-Serif" font-size="10.00">map</text>
</g>
<!-- Node5&#45;&gt;Node27 -->
<g id="edge31" class="edge"><title>Node5&#45;&gt;Node27</title>
<path fill="none" stroke="midnightblue" d="M1313.5,-309.791C1438.27,-304.894 1714.04,-291.491 1805,-266 1807.51,-265.296 1810.06,-264.392 1812.57,-263.373"/>
<polygon fill="midnightblue" stroke="midnightblue" points="1814.26,-266.444 1821.85,-259.052 1811.31,-260.098 1814.26,-266.444"/>
</g>
<!-- Node28 -->
<g id="node28" class="node"><title>Node28</title>
<polygon fill="white" stroke="#bfbfbf" points="1038.6,-239 1038.6,-259 1097.4,-259 1097.4,-239 1038.6,-239"/>
<text text-anchor="middle" x="1068" y="-245" font-family="Helvetica,sans-Serif" font-size="10.00">stdexcept</text>
</g>
<!-- Node5&#45;&gt;Node28 -->
<g id="edge32" class="edge"><title>Node5&#45;&gt;Node28</title>
<path fill="none" stroke="midnightblue" d="M1220.14,-302.924C1190.82,-294.117 1145.59,-280.055 1107,-266 1104.29,-265.014 1101.49,-263.953 1098.7,-262.863"/>
<polygon fill="midnightblue" stroke="midnightblue" points="1099.92,-259.581 1089.34,-259.114 1097.32,-266.08 1099.92,-259.581"/>
</g>
<!-- Node20 -->
<g id="node20" class="node"><title>Node20</title>
<polygon fill="white" stroke="#bfbfbf" points="1508.61,-175 1508.61,-195 1547.39,-195 1547.39,-175 1508.61,-175"/>
<text text-anchor="middle" x="1528" y="-181" font-family="Helvetica,sans-Serif" font-size="10.00">limits</text>
</g>
<!-- Node5&#45;&gt;Node20 -->
<g id="edge33" class="edge"><title>Node5&#45;&gt;Node20</title>
<path fill="none" stroke="midnightblue" d="M1313.61,-312.296C1397.16,-311.201 1538.38,-303.645 1571,-266 1587.83,-246.572 1565.79,-219.444 1547.55,-202.302"/>
<polygon fill="midnightblue" stroke="midnightblue" points="1549.39,-199.247 1539.6,-195.193 1544.72,-204.466 1549.39,-199.247"/>
</g>
<!-- Node29 -->
<g id="node29" class="node"><title>Node29</title>
<polygon fill="white" stroke="#bfbfbf" points="1115.76,-239 1115.76,-259 1176.24,-259 1176.24,-239 1115.76,-239"/>
<text text-anchor="middle" x="1146" y="-245" font-family="Helvetica,sans-Serif" font-size="10.00">utf8/utf8.h</text>
</g>
<!-- Node5&#45;&gt;Node29 -->
<g id="edge34" class="edge"><title>Node5&#45;&gt;Node29</title>
<path fill="none" stroke="midnightblue" d="M1235.51,-302.852C1218.29,-292.686 1190.27,-276.143 1170.17,-264.272"/>
<polygon fill="midnightblue" stroke="midnightblue" points="1171.95,-261.257 1161.56,-259.186 1168.39,-267.284 1171.95,-261.257"/>
</g>
<!-- Node7 -->
<g id="node7" class="node"><title>Node7</title>
<g id="a_node7"><a xlink:href="base_8h.xhtml" target="_top" xlink:title="ePub3/base.h">
<polygon fill="white" stroke="black" points="1342.14,-117 1342.14,-137 1419.86,-137 1419.86,-117 1342.14,-117"/>
<text text-anchor="middle" x="1381" y="-123" font-family="Helvetica,sans-Serif" font-size="10.00">ePub3/base.h</text>
</a>
</g>
</g>
<!-- Node6&#45;&gt;Node7 -->
<g id="edge6" class="edge"><title>Node6&#45;&gt;Node7</title>
<path fill="none" stroke="midnightblue" d="M1260.77,-238.98C1282.7,-218.74 1336.06,-169.48 1363.73,-143.943"/>
<polygon fill="midnightblue" stroke="midnightblue" points="1366.14,-146.479 1371.12,-137.124 1361.39,-141.335 1366.14,-146.479"/>
</g>
<!-- Node11 -->
<g id="node11" class="node"><title>Node11</title>
<polygon fill="white" stroke="#bfbfbf" points="1110.82,-175 1110.82,-195 1225.18,-195 1225.18,-175 1110.82,-175"/>
<text text-anchor="middle" x="1168" y="-181" font-family="Helvetica,sans-Serif" font-size="10.00">ePub3/xml/xmlstring.h</text>
</g>
<!-- Node6&#45;&gt;Node11 -->
<g id="edge10" class="edge"><title>Node6&#45;&gt;Node11</title>
<path fill="none" stroke="midnightblue" d="M1238.75,-238.852C1225.51,-228.961 1204.19,-213.033 1188.41,-201.244"/>
<polygon fill="midnightblue" stroke="midnightblue" points="1190.4,-198.366 1180.3,-195.186 1186.21,-203.974 1190.4,-198.366"/>
</g>
<!-- Node12 -->
<g id="node12" class="node"><title>Node12</title>
<polygon fill="white" stroke="#bfbfbf" points="1243.22,-175 1243.22,-195 1294.78,-195 1294.78,-175 1243.22,-175"/>
<text text-anchor="middle" x="1269" y="-181" font-family="Helvetica,sans-Serif" font-size="10.00">sstream</text>
</g>
<!-- Node6&#45;&gt;Node12 -->
<g id="edge11" class="edge"><title>Node6&#45;&gt;Node12</title>
<path fill="none" stroke="midnightblue" d="M1253.66,-238.852C1256.23,-229.969 1260.23,-216.215 1263.49,-204.964"/>
<polygon fill="midnightblue" stroke="midnightblue" points="1266.91,-205.765 1266.33,-195.186 1260.18,-203.813 1266.91,-205.765"/>
</g>
<!-- Node6&#45;&gt;Node13 -->
<g id="edge12" class="edge"><title>Node6&#45;&gt;Node13</title>
<path fill="none" stroke="midnightblue" d="M1225.37,-238.944C1181.78,-223.809 1090.26,-193.151 1011,-174 932.171,-154.951 838.123,-140.262 787.539,-133.004"/>
<polygon fill="midnightblue" stroke="midnightblue" points="787.818,-129.509 777.425,-131.569 786.834,-136.439 787.818,-129.509"/>
</g>
<!-- Node6&#45;&gt;Node14 -->
<g id="edge13" class="edge"><title>Node6&#45;&gt;Node14</title>
<path fill="none" stroke="midnightblue" d="M1217.96,-238.954C1207.49,-236.366 1195.82,-233.771 1185,-232 1002.29,-202.105 954.078,-215.776 770,-196 754.856,-194.373 738.098,-192.265 724.009,-190.404"/>
<polygon fill="midnightblue" stroke="midnightblue" points="724.202,-186.899 713.826,-189.041 723.273,-193.837 724.202,-186.899"/>
</g>
<!-- Node15 -->
<g id="node15" class="node"><title>Node15</title>
<polygon fill="white" stroke="#bfbfbf" points="1453.5,-175 1453.5,-195 1482.5,-195 1482.5,-175 1453.5,-175"/>
<text text-anchor="middle" x="1467.61" y="-181" font-family="Helvetica,sans-Serif" font-size="10.00">list</text>
</g>
<!-- Node6&#45;&gt;Node15 -->
<g id="edge14" class="edge"><title>Node6&#45;&gt;Node15</title>
<path fill="none" stroke="midnightblue" d="M1282.55,-238.985C1326.16,-226.525 1403.94,-204.303 1443.47,-193.008"/>
<polygon fill="midnightblue" stroke="midnightblue" points="1444.67,-196.305 1453.33,-190.193 1442.75,-189.575 1444.67,-196.305"/>
</g>
<!-- Node8 -->
<g id="node8" class="node"><title>Node8</title>
<g id="a_node8"><a xlink:href="__config_8h.xhtml" target="_top" xlink:title="_config.h">
<polygon fill="white" stroke="black" points="1317.71,-59 1317.71,-79 1374.29,-79 1374.29,-59 1317.71,-59"/>
<text text-anchor="middle" x="1346" y="-65" font-family="Helvetica,sans-Serif" font-size="10.00">_config.h</text>
</a>
</g>
</g>
<!-- Node7&#45;&gt;Node8 -->
<g id="edge7" class="edge"><title>Node7&#45;&gt;Node8</title>
<path fill="none" stroke="midnightblue" d="M1375.22,-116.753C1370.28,-108.843 1363.02,-97.2372 1356.98,-87.5683"/>
<polygon fill="midnightblue" stroke="midnightblue" points="1359.94,-85.7002 1351.67,-79.0752 1354,-89.4102 1359.94,-85.7002"/>
</g>
<!-- Node10 -->
<g id="node10" class="node"><title>Node10</title>
<polygon fill="white" stroke="#bfbfbf" points="1392.16,-59 1392.16,-79 1439.84,-79 1439.84,-59 1392.16,-59"/>
<text text-anchor="middle" x="1416" y="-65" font-family="Helvetica,sans-Serif" font-size="10.00">stdlib.h</text>
</g>
<!-- Node7&#45;&gt;Node10 -->
<g id="edge9" class="edge"><title>Node7&#45;&gt;Node10</title>
<path fill="none" stroke="midnightblue" d="M1386.78,-116.753C1391.72,-108.843 1398.98,-97.2372 1405.02,-87.5683"/>
<polygon fill="midnightblue" stroke="midnightblue" points="1408,-89.4102 1410.33,-79.0752 1402.06,-85.7002 1408,-89.4102"/>
</g>
<!-- Node9 -->
<g id="node9" class="node"><title>Node9</title>
<g id="a_node9"><a xlink:href="__platform_8h.xhtml" target="_top" xlink:title="_platform.h">
<polygon fill="white" stroke="red" points="1312.99,-1 1312.99,-21 1379.01,-21 1379.01,-1 1312.99,-1"/>
<text text-anchor="middle" x="1346" y="-7" font-family="Helvetica,sans-Serif" font-size="10.00">_platform.h</text>
</a>
</g>
</g>
<!-- Node8&#45;&gt;Node9 -->
<g id="edge8" class="edge"><title>Node8&#45;&gt;Node9</title>
<path fill="none" stroke="midnightblue" d="M1346,-58.7527C1346,-51.2504 1346,-40.4238 1346,-31.0781"/>
<polygon fill="midnightblue" stroke="midnightblue" points="1349.5,-31.0752 1346,-21.0752 1342.5,-31.0752 1349.5,-31.0752"/>
</g>
<!-- Node16&#45;&gt;Node7 -->
<g id="edge16" class="edge"><title>Node16&#45;&gt;Node7</title>
<path fill="none" stroke="midnightblue" d="M1487.41,-232.941C1474.68,-222.887 1457.92,-209.145 1444,-196 1426.56,-179.529 1408.07,-159.184 1395.66,-145.061"/>
<polygon fill="midnightblue" stroke="midnightblue" points="1398,-142.409 1388.79,-137.162 1392.72,-147.004 1398,-142.409"/>
</g>
<!-- Node18 -->
<g id="node18" class="node"><title>Node18</title>
<polygon fill="white" stroke="#bfbfbf" points="939.934,-175 939.934,-195 1002.07,-195 1002.07,-175 939.934,-175"/>
<text text-anchor="middle" x="971" y="-181" font-family="Helvetica,sans-Serif" font-size="10.00">type_traits</text>
</g>
<!-- Node17&#45;&gt;Node18 -->
<g id="edge18" class="edge"><title>Node17&#45;&gt;Node18</title>
<path fill="none" stroke="midnightblue" d="M1657.25,-241.449C1631.29,-238.348 1599.53,-234.735 1571,-232 1564.03,-231.332 1147.73,-199.506 1012.75,-189.19"/>
<polygon fill="midnightblue" stroke="midnightblue" points="1012.65,-185.673 1002.42,-188.401 1012.12,-192.652 1012.65,-185.673"/>
</g>
<!-- Node17&#45;&gt;Node19 -->
<g id="edge19" class="edge"><title>Node17&#45;&gt;Node19</title>
<path fill="none" stroke="midnightblue" d="M1736.63,-232.992C1754.33,-223.013 1777.44,-209.99 1794.83,-200.185"/>
<polygon fill="midnightblue" stroke="midnightblue" points="1796.85,-203.068 1803.84,-195.109 1793.41,-196.97 1796.85,-203.068"/>
</g>
<!-- Node17&#45;&gt;Node20 -->
<g id="edge20" class="edge"><title>Node17&#45;&gt;Node20</title>
<path fill="none" stroke="midnightblue" d="M1665.46,-232.921C1637.07,-223.296 1599.27,-210.455 1557.25,-196.077"/>
<polygon fill="midnightblue" stroke="midnightblue" points="1558.25,-192.718 1547.65,-192.79 1555.98,-199.34 1558.25,-192.718"/>
</g>
<!-- Node21 -->
<g id="node21" class="node"><title>Node21</title>
<polygon fill="white" stroke="#bfbfbf" points="1727.83,-175 1727.83,-195 1782.17,-195 1782.17,-175 1727.83,-175"/>
<text text-anchor="middle" x="1755" y="-181" font-family="Helvetica,sans-Serif" font-size="10.00">iostream</text>
</g>
<!-- Node17&#45;&gt;Node21 -->
<g id="edge21" class="edge"><title>Node17&#45;&gt;Node21</title>
<path fill="none" stroke="midnightblue" d="M1720.89,-232.992C1727.36,-224.084 1735.59,-212.75 1742.34,-203.445"/>
<polygon fill="midnightblue" stroke="midnightblue" points="1745.22,-205.439 1748.26,-195.29 1739.55,-201.328 1745.22,-205.439"/>
</g>
<!-- Node22 -->
<g id="node22" class="node"><title>Node22</title>
<polygon fill="white" stroke="#bfbfbf" points="1652.44,-175 1652.44,-195 1709.56,-195 1709.56,-175 1652.44,-175"/>
<text text-anchor="middle" x="1681" y="-181" font-family="Helvetica,sans-Serif" font-size="10.00">algorithm</text>
</g>
<!-- Node17&#45;&gt;Node22 -->
<g id="edge22" class="edge"><title>Node17&#45;&gt;Node22</title>
<path fill="none" stroke="midnightblue" d="M1702.98,-232.992C1698.99,-224.451 1693.95,-213.68 1689.7,-204.606"/>
<polygon fill="midnightblue" stroke="midnightblue" points="1692.75,-202.866 1685.35,-195.29 1686.41,-205.831 1692.75,-202.866"/>
</g>
<!-- Node23 -->
<g id="node23" class="node"><title>Node23</title>
<g id="a_node23"><a xlink:href="____strhash_8h.xhtml" target="_top" xlink:title="__strhash.h">
<polygon fill="white" stroke="black" points="1565.87,-175 1565.87,-195 1634.13,-195 1634.13,-175 1565.87,-175"/>
<text text-anchor="middle" x="1600" y="-181" font-family="Helvetica,sans-Serif" font-size="10.00">__strhash.h</text>
</a>
</g>
</g>
<!-- Node17&#45;&gt;Node23 -->
<g id="edge23" class="edge"><title>Node17&#45;&gt;Node23</title>
<path fill="none" stroke="midnightblue" d="M1683.37,-232.992C1665.67,-223.013 1642.56,-209.99 1625.17,-200.185"/>
<polygon fill="midnightblue" stroke="midnightblue" points="1626.59,-196.97 1616.16,-195.109 1623.15,-203.068 1626.59,-196.97"/>
</g>
<!-- Node23&#45;&gt;Node7 -->
<g id="edge24" class="edge"><title>Node23&#45;&gt;Node7</title>
<path fill="none" stroke="midnightblue" d="M1565.78,-175.25C1528.22,-165.645 1467.74,-150.181 1426.28,-139.577"/>
<polygon fill="midnightblue" stroke="midnightblue" points="1426.98,-136.146 1416.43,-137.06 1425.25,-142.928 1426.98,-136.146"/>
</g>
<!-- Node23&#45;&gt;Node13 -->
<g id="edge25" class="edge"><title>Node23&#45;&gt;Node13</title>
<path fill="none" stroke="midnightblue" d="M1565.51,-175.592C1562.31,-174.983 1559.1,-174.438 1556,-174 1261.59,-132.428 901.576,-128.174 787.48,-127.931"/>
<polygon fill="midnightblue" stroke="midnightblue" points="787.221,-124.431 777.217,-127.919 787.213,-131.431 787.221,-124.431"/>
</g>
<!-- Node30&#45;&gt;Node13 -->
<g id="edge36" class="edge"><title>Node30&#45;&gt;Node13</title>
<path fill="none" stroke="midnightblue" d="M155.728,-366.879C249.805,-329.127 608.931,-185.012 718.843,-140.905"/>
<polygon fill="midnightblue" stroke="midnightblue" points="720.415,-144.045 728.392,-137.072 717.808,-137.548 720.415,-144.045"/>
</g>
<!-- Node30&#45;&gt;Node18 -->
<g id="edge37" class="edge"><title>Node30&#45;&gt;Node18</title>
<path fill="none" stroke="midnightblue" d="M173.528,-366.945C184.968,-364.532 197.447,-362.033 209,-360 502.111,-308.427 601.346,-389.776 872,-266 892.912,-256.436 893.2,-246.558 911,-232 923.792,-221.537 938.515,-210.239 950.175,-201.458"/>
<polygon fill="midnightblue" stroke="midnightblue" points="952.505,-204.086 958.411,-195.29 948.309,-198.483 952.505,-204.086"/>
</g>
<!-- Node31&#45;&gt;Node3 -->
<g id="edge41" class="edge"><title>Node31&#45;&gt;Node3</title>
<path fill="none" stroke="midnightblue" d="M462.968,-430.852C471.183,-421.419 484.182,-406.495 494.274,-394.907"/>
<polygon fill="midnightblue" stroke="midnightblue" points="497.071,-397.025 500.999,-387.186 491.792,-392.428 497.071,-397.025"/>
</g>
<!-- Node32 -->
<g id="node32" class="node"><title>Node32</title>
<polygon fill="white" stroke="#bfbfbf" points="349.298,-367 349.298,-387 448.702,-387 448.702,-367 349.298,-367"/>
<text text-anchor="middle" x="399" y="-373" font-family="Helvetica,sans-Serif" font-size="10.00">ePub3/nav_point.h</text>
</g>
<!-- Node31&#45;&gt;Node32 -->
<g id="edge42" class="edge"><title>Node31&#45;&gt;Node32</title>
<path fill="none" stroke="midnightblue" d="M446.737,-430.852C438.217,-421.419 424.737,-406.495 414.271,-394.907"/>
<polygon fill="midnightblue" stroke="midnightblue" points="416.597,-392.261 407.297,-387.186 411.402,-396.953 416.597,-392.261"/>
</g>
<!-- Node31&#45;&gt;Node30 -->
<g id="edge43" class="edge"><title>Node31&#45;&gt;Node30</title>
<path fill="none" stroke="midnightblue" d="M421.13,-433.917C373.654,-425.334 284.642,-409.033 209,-394 201.282,-392.466 193.133,-390.8 185.151,-389.142"/>
<polygon fill="midnightblue" stroke="midnightblue" points="185.679,-385.677 175.175,-387.056 184.247,-392.529 185.679,-385.677"/>
</g>
<!-- Node33 -->
<g id="node33" class="node"><title>Node33</title>
<polygon fill="white" stroke="#bfbfbf" points="568.695,-367 568.695,-387 665.305,-387 665.305,-367 568.695,-367"/>
<text text-anchor="middle" x="617" y="-373" font-family="Helvetica,sans-Serif" font-size="10.00">ePub3/xml/node.h</text>
</g>
<!-- Node31&#45;&gt;Node33 -->
<g id="edge44" class="edge"><title>Node31&#45;&gt;Node33</title>
<path fill="none" stroke="midnightblue" d="M478.556,-430.985C506.271,-420.378 552.471,-402.696 583.806,-390.704"/>
<polygon fill="midnightblue" stroke="midnightblue" points="585.327,-393.869 593.415,-387.026 582.825,-387.332 585.327,-393.869"/>
</g>
<!-- Node34&#45;&gt;Node3 -->
<g id="edge46" class="edge"><title>Node34&#45;&gt;Node3</title>
<path fill="none" stroke="midnightblue" d="M1395.74,-439.392C1260.52,-436.599 725.396,-423.842 560,-394 554.521,-393.011 548.808,-391.607 543.273,-390.037"/>
<polygon fill="midnightblue" stroke="midnightblue" points="544.176,-386.653 533.59,-387.084 542.134,-393.349 544.176,-386.653"/>
</g>
<!-- Node34&#45;&gt;Node19 -->
<g id="edge47" class="edge"><title>Node34&#45;&gt;Node19</title>
<path fill="none" stroke="midnightblue" d="M1458.24,-440.564C1542.25,-441.452 1770.43,-439.516 1827,-394 1884.47,-347.766 1890.07,-300.608 1863,-232 1858.39,-220.322 1849.26,-209.864 1840.6,-201.882"/>
<polygon fill="midnightblue" stroke="midnightblue" points="1842.78,-199.143 1832.92,-195.283 1838.22,-204.453 1842.78,-199.143"/>
</g>
<!-- Node34&#45;&gt;Node14 -->
<g id="edge48" class="edge"><title>Node34&#45;&gt;Node14</title>
<path fill="none" stroke="midnightblue" d="M1395.6,-440.303C1264.07,-441.265 761.95,-441.766 712,-394 659.883,-344.162 676.642,-246.316 686.739,-205.062"/>
<polygon fill="midnightblue" stroke="midnightblue" points="690.168,-205.782 689.29,-195.223 683.392,-204.025 690.168,-205.782"/>
</g>
<!-- Node34&#45;&gt;Node27 -->
<g id="edge49" class="edge"><title>Node34&#45;&gt;Node27</title>
<path fill="none" stroke="midnightblue" d="M1458.26,-440.558C1538.95,-441.336 1751.47,-438.968 1802,-394 1837.78,-362.163 1840.03,-300.493 1838.6,-269.205"/>
<polygon fill="midnightblue" stroke="midnightblue" points="1842.08,-268.921 1837.96,-259.164 1835.1,-269.367 1842.08,-268.921"/>
</g>
<!-- Node34&#45;&gt;Node15 -->
<g id="edge50" class="edge"><title>Node34&#45;&gt;Node15</title>
<path fill="none" stroke="midnightblue" d="M1458.18,-440.122C1527.98,-439.663 1693.43,-434.255 1728,-394 1799.88,-310.303 1778.19,-359.602 1571,-232 1545.49,-216.29 1513.69,-202.931 1492.23,-194.722"/>
<polygon fill="midnightblue" stroke="midnightblue" points="1493.18,-191.343 1482.59,-191.118 1490.73,-197.899 1493.18,-191.343"/>
</g>
<!-- Node34&#45;&gt;Node33 -->
<g id="edge51" class="edge"><title>Node34&#45;&gt;Node33</title>
<path fill="none" stroke="midnightblue" d="M1395.77,-440.206C1292.72,-440.434 954.325,-437.581 679,-394 671.992,-392.891 664.624,-391.34 657.512,-389.637"/>
<polygon fill="midnightblue" stroke="midnightblue" points="657.899,-386.124 647.346,-387.066 656.183,-392.911 657.899,-386.124"/>
</g>
<!-- Node34&#45;&gt;Node30 -->
<g id="edge52" class="edge"><title>Node34&#45;&gt;Node30</title>
<path fill="none" stroke="midnightblue" d="M1395.89,-439.541C1230.07,-436.987 448.817,-423.555 209,-394 199.465,-392.825 189.35,-391.065 179.718,-389.136"/>
<polygon fill="midnightblue" stroke="midnightblue" points="180.403,-385.703 169.898,-387.082 178.97,-392.555 180.403,-385.703"/>
</g>
<!-- Node35 -->
<g id="node35" class="node"><title>Node35</title>
<polygon fill="white" stroke="#bfbfbf" points="1910.91,-367 1910.91,-387 2013.09,-387 2013.09,-367 1910.91,-367"/>
<text text-anchor="middle" x="1962" y="-373" font-family="Helvetica,sans-Serif" font-size="10.00">ePub3/encryption.h</text>
</g>
<!-- Node34&#45;&gt;Node35 -->
<g id="edge53" class="edge"><title>Node34&#45;&gt;Node35</title>
<path fill="none" stroke="midnightblue" d="M1458.28,-438.496C1534.03,-434.516 1733.15,-422.034 1897,-394 1904.25,-392.76 1911.88,-391.157 1919.27,-389.444"/>
<polygon fill="midnightblue" stroke="midnightblue" points="1920.23,-392.813 1929.13,-387.066 1918.58,-386.008 1920.23,-392.813"/>
</g>
<!-- Node36 -->
<g id="node36" class="node"><title>Node36</title>
<polygon fill="white" stroke="#bfbfbf" points="2031.03,-367 2031.03,-387 2110.97,-387 2110.97,-367 2031.03,-367"/>
<text text-anchor="middle" x="2071" y="-373" font-family="Helvetica,sans-Serif" font-size="10.00">ePub3/spine.h</text>
</g>
<!-- Node34&#45;&gt;Node36 -->
<g id="edge54" class="edge"><title>Node34&#45;&gt;Node36</title>
<path fill="none" stroke="midnightblue" d="M1458.33,-440.19C1547.44,-440.174 1809.62,-436.252 2022,-394 2027.08,-392.989 2032.37,-391.617 2037.51,-390.099"/>
<polygon fill="midnightblue" stroke="midnightblue" points="2038.65,-393.41 2047.13,-387.057 2036.54,-386.736 2038.65,-393.41"/>
</g>
<!-- Node37 -->
<g id="node37" class="node"><title>Node37</title>
<polygon fill="white" stroke="#bfbfbf" points="2129.09,-367 2129.09,-387 2222.91,-387 2222.91,-367 2129.09,-367"/>
<text text-anchor="middle" x="2176" y="-373" font-family="Helvetica,sans-Serif" font-size="10.00">ePub3/manifest.h</text>
</g>
<!-- Node34&#45;&gt;Node37 -->
<g id="edge55" class="edge"><title>Node34&#45;&gt;Node37</title>
<path fill="none" stroke="midnightblue" d="M1458.31,-440.217C1556.49,-440.408 1866.83,-437.291 2119,-394 2125.32,-392.916 2131.94,-391.411 2138.34,-389.754"/>
<polygon fill="midnightblue" stroke="midnightblue" points="2139.42,-393.085 2148.14,-387.065 2137.57,-386.335 2139.42,-393.085"/>
</g>
<!-- Node38 -->
<g id="node38" class="node"><title>Node38</title>
<polygon fill="white" stroke="#bfbfbf" points="2240.98,-367 2240.98,-387 2307.02,-387 2307.02,-367 2240.98,-367"/>
<text text-anchor="middle" x="2274" y="-373" font-family="Helvetica,sans-Serif" font-size="10.00">ePub3/cfi.h</text>
</g>
<!-- Node34&#45;&gt;Node38 -->
<g id="edge56" class="edge"><title>Node34&#45;&gt;Node38</title>
<path fill="none" stroke="midnightblue" d="M1458.18,-439.458C1587.15,-437.027 2079.28,-425.812 2231,-394 2235.21,-393.117 2239.56,-391.895 2243.8,-390.516"/>
<polygon fill="midnightblue" stroke="midnightblue" points="2245.13,-393.755 2253.38,-387.099 2242.78,-387.162 2245.13,-393.755"/>
</g>
<!-- Node34&#45;&gt;Node4 -->
<g id="edge57" class="edge"><title>Node34&#45;&gt;Node4</title>
<path fill="none" stroke="midnightblue" d="M1395.72,-439.517C1240.48,-436.992 551.88,-424.253 340,-394 332.153,-392.88 323.874,-391.221 315.95,-389.389"/>
<polygon fill="midnightblue" stroke="midnightblue" points="316.705,-385.971 306.161,-387.005 315.049,-392.772 316.705,-385.971"/>
</g>
<!-- Node39 -->
<g id="node39" class="node"><title>Node39</title>
<polygon fill="white" stroke="#bfbfbf" points="913.308,-367 913.308,-387 1022.69,-387 1022.69,-367 913.308,-367"/>
<text text-anchor="middle" x="968" y="-373" font-family="Helvetica,sans-Serif" font-size="10.00">ePub3/archive_xml.h</text>
</g>
<!-- Node34&#45;&gt;Node39 -->
<g id="edge58" class="edge"><title>Node34&#45;&gt;Node39</title>
<path fill="none" stroke="midnightblue" d="M1395.82,-437.745C1328.82,-432.599 1166.31,-418.503 1032,-394 1025.11,-392.743 1017.86,-391.174 1010.82,-389.514"/>
<polygon fill="midnightblue" stroke="midnightblue" points="1011.26,-386.017 1000.71,-387.041 1009.59,-392.817 1011.26,-386.017"/>
</g>
<!-- Node34&#45;&gt;Node5 -->
<g id="edge59" class="edge"><title>Node34&#45;&gt;Node5</title>
<path fill="none" stroke="midnightblue" d="M1458.18,-439.803C1525.05,-438.65 1678.79,-431.847 1711,-394 1720.79,-382.492 1721.14,-371.204 1711,-360 1685.56,-331.891 1447.11,-320.217 1323.92,-316.029"/>
<polygon fill="midnightblue" stroke="midnightblue" points="1323.93,-312.528 1313.82,-315.694 1323.69,-319.524 1323.93,-312.528"/>
</g>
<!-- Node40 -->
<g id="node40" class="node"><title>Node40</title>
<g id="a_node40"><a xlink:href="iri_8h.xhtml" target="_top" xlink:title="ePub3/utilities/iri.h">
<polygon fill="white" stroke="black" points="721.424,-367 721.424,-387 818.576,-387 818.576,-367 721.424,-367"/>
<text text-anchor="middle" x="770" y="-373" font-family="Helvetica,sans-Serif" font-size="10.00">ePub3/utilities/iri.h</text>
</a>
</g>
</g>
<!-- Node34&#45;&gt;Node40 -->
<g id="edge60" class="edge"><title>Node34&#45;&gt;Node40</title>
<path fill="none" stroke="midnightblue" d="M1395.72,-437.591C1314.52,-431.261 1090.31,-413.312 904,-394 879.335,-391.443 852.161,-388.266 828.768,-385.418"/>
<polygon fill="midnightblue" stroke="midnightblue" points="829.003,-381.921 818.652,-384.178 828.152,-388.869 829.003,-381.921"/>
</g>
<!-- Node45 -->
<g id="node45" class="node"><title>Node45</title>
<polygon fill="white" stroke="#bfbfbf" points="1155.39,-367 1155.39,-387 1282.61,-387 1282.61,-367 1155.39,-367"/>
<text text-anchor="middle" x="1219" y="-373" font-family="Helvetica,sans-Serif" font-size="10.00">ePub3/content_handler.h</text>
</g>
<!-- Node34&#45;&gt;Node45 -->
<g id="edge70" class="edge"><title>Node34&#45;&gt;Node45</title>
<path fill="none" stroke="midnightblue" d="M1396.76,-430.985C1360.4,-420.148 1299.27,-401.928 1259.03,-389.933"/>
<polygon fill="midnightblue" stroke="midnightblue" points="1259.86,-386.529 1249.28,-387.026 1257.86,-393.237 1259.86,-386.529"/>
</g>
<!-- Node46 -->
<g id="node46" class="node"><title>Node46</title>
<polygon fill="white" stroke="#bfbfbf" points="1301.08,-361 1301.08,-393 1414.92,-393 1414.92,-361 1301.08,-361"/>
<text text-anchor="start" x="1309.08" y="-379" font-family="Helvetica,sans-Serif" font-size="10.00">ePub3/media_support</text>
<text text-anchor="middle" x="1358" y="-367" font-family="Helvetica,sans-Serif" font-size="10.00">_info.h</text>
</g>
<!-- Node34&#45;&gt;Node46 -->
<g id="edge71" class="edge"><title>Node34&#45;&gt;Node46</title>
<path fill="none" stroke="midnightblue" d="M1416.82,-430.852C1407.78,-422.728 1394.2,-410.531 1382.37,-399.9"/>
<polygon fill="midnightblue" stroke="midnightblue" points="1384.69,-397.279 1374.92,-393.199 1380.01,-402.486 1384.69,-397.279"/>
</g>
<!-- Node47 -->
<g id="node47" class="node"><title>Node47</title>
<polygon fill="white" stroke="#bfbfbf" points="1433.23,-367 1433.23,-387 1558.77,-387 1558.77,-367 1433.23,-367"/>
<text text-anchor="middle" x="1496" y="-373" font-family="Helvetica,sans-Serif" font-size="10.00">ePub3/property_holder.h</text>
</g>
<!-- Node34&#45;&gt;Node47 -->
<g id="edge72" class="edge"><title>Node34&#45;&gt;Node47</title>
<path fill="none" stroke="midnightblue" d="M1437.18,-430.852C1447.98,-421.144 1465.26,-405.62 1478.3,-393.903"/>
<polygon fill="midnightblue" stroke="midnightblue" points="1480.68,-396.473 1485.78,-387.186 1476,-391.266 1480.68,-396.473"/>
</g>
<!-- Node48 -->
<g id="node48" class="node"><title>Node48</title>
<polygon fill="white" stroke="#bfbfbf" points="1577.23,-367 1577.23,-387 1702.77,-387 1702.77,-367 1577.23,-367"/>
<text text-anchor="middle" x="1640" y="-373" font-family="Helvetica,sans-Serif" font-size="10.00">ePub3/epub_collection.h</text>
</g>
<!-- Node34&#45;&gt;Node48 -->
<g id="edge73" class="edge"><title>Node34&#45;&gt;Node48</title>
<path fill="none" stroke="midnightblue" d="M1457.97,-430.985C1495.28,-420.125 1558.06,-401.85 1599.27,-389.857"/>
<polygon fill="midnightblue" stroke="midnightblue" points="1600.37,-393.182 1608.99,-387.026 1598.41,-386.461 1600.37,-393.182"/>
</g>
<!-- Node49 -->
<g id="node49" class="node"><title>Node49</title>
<g id="a_node49"><a xlink:href="xml__identifiable_8h.xhtml" target="_top" xlink:title="ePub3/utilities/xml\l_identifiable.h">
<polygon fill="white" stroke="black" points="1040.7,-361 1040.7,-393 1137.3,-393 1137.3,-361 1040.7,-361"/>
<text text-anchor="start" x="1048.7" y="-379" font-family="Helvetica,sans-Serif" font-size="10.00">ePub3/utilities/xml</text>
<text text-anchor="middle" x="1089" y="-367" font-family="Helvetica,sans-Serif" font-size="10.00">_identifiable.h</text>
</a>
</g>
</g>
<!-- Node34&#45;&gt;Node49 -->
<g id="edge74" class="edge"><title>Node34&#45;&gt;Node49</title>
<path fill="none" stroke="midnightblue" d="M1395.6,-436.023C1345.16,-429.384 1242.86,-414.888 1147.24,-394.146"/>
<polygon fill="midnightblue" stroke="midnightblue" points="1147.94,-390.715 1137.42,-391.987 1146.43,-397.551 1147.94,-390.715"/>
</g>
<!-- Node34&#45;&gt;Node17 -->
<g id="edge76" class="edge"><title>Node34&#45;&gt;Node17</title>
<path fill="none" stroke="midnightblue" d="M1458.19,-438.287C1541.03,-433.421 1761.66,-418.28 1783,-394 1815.81,-356.679 1768.17,-301.988 1735.77,-271.884"/>
<polygon fill="midnightblue" stroke="midnightblue" points="1738.08,-269.257 1728.32,-265.14 1733.38,-274.446 1738.08,-269.257"/>
</g>
<!-- Node40&#45;&gt;Node5 -->
<g id="edge61" class="edge"><title>Node40&#45;&gt;Node5</title>
<path fill="none" stroke="midnightblue" d="M801.861,-366.992C811.775,-364.437 822.784,-361.85 833,-360 952.995,-338.269 1094.35,-325.313 1178.11,-318.932"/>
<polygon fill="midnightblue" stroke="midnightblue" points="1178.58,-322.407 1188.29,-318.167 1178.05,-315.426 1178.58,-322.407"/>
</g>
<!-- Node41 -->
<g id="node41" class="node"><title>Node41</title>
<g id="a_node41"><a xlink:href="make__unique_8h.xhtml" target="_top" xlink:title="ePub3/utilities/make\l_unique.h">
<polygon fill="white" stroke="black" points="758.254,-233 758.254,-265 863.746,-265 863.746,-233 758.254,-233"/>
<text text-anchor="start" x="766.254" y="-251" font-family="Helvetica,sans-Serif" font-size="10.00">ePub3/utilities/make</text>
<text text-anchor="middle" x="811" y="-239" font-family="Helvetica,sans-Serif" font-size="10.00">_unique.h</text>
</a>
</g>
</g>
<!-- Node40&#45;&gt;Node41 -->
<g id="edge62" class="edge"><title>Node40&#45;&gt;Node41</title>
<path fill="none" stroke="midnightblue" d="M772.949,-366.938C779.163,-347.841 793.788,-302.897 802.989,-274.619"/>
<polygon fill="midnightblue" stroke="midnightblue" points="806.342,-275.627 806.108,-265.034 799.685,-273.461 806.342,-275.627"/>
</g>
<!-- Node44 -->
<g id="node44" class="node"><title>Node44</title>
<polygon fill="white" stroke="#bfbfbf" points="919.867,-303 919.867,-323 1008.13,-323 1008.13,-303 919.867,-303"/>
<text text-anchor="middle" x="964" y="-309" font-family="Helvetica,sans-Serif" font-size="10.00">google&#45;url/gurl.h</text>
</g>
<!-- Node40&#45;&gt;Node44 -->
<g id="edge68" class="edge"><title>Node40&#45;&gt;Node44</title>
<path fill="none" stroke="midnightblue" d="M798.209,-366.985C831.973,-356.194 888.647,-338.082 926.182,-326.086"/>
<polygon fill="midnightblue" stroke="midnightblue" points="927.297,-329.404 935.757,-323.026 925.166,-322.737 927.297,-329.404"/>
</g>
<!-- Node40&#45;&gt;Node14 -->
<g id="edge69" class="edge"><title>Node40&#45;&gt;Node14</title>
<path fill="none" stroke="midnightblue" d="M764.25,-366.938C752.816,-348.564 727.031,-305.324 712,-266 704.275,-245.79 698.701,-221.562 695.43,-205.103"/>
<polygon fill="midnightblue" stroke="midnightblue" points="698.834,-204.269 693.536,-195.094 691.957,-205.571 698.834,-204.269"/>
</g>
<!-- Node41&#45;&gt;Node7 -->
<g id="edge63" class="edge"><title>Node41&#45;&gt;Node7</title>
<path fill="none" stroke="midnightblue" d="M834.791,-232.95C868.259,-211.835 925.771,-175.775 931,-174 1004.17,-149.164 1230.75,-135.33 1331.65,-130.258"/>
<polygon fill="midnightblue" stroke="midnightblue" points="1332.07,-133.742 1341.88,-129.753 1331.72,-126.751 1332.07,-133.742"/>
</g>
<!-- Node42 -->
<g id="node42" class="node"><title>Node42</title>
<polygon fill="white" stroke="#bfbfbf" points="778.879,-175 778.879,-195 827.121,-195 827.121,-175 778.879,-175"/>
<text text-anchor="middle" x="803" y="-181" font-family="Helvetica,sans-Serif" font-size="10.00">cstddef</text>
</g>
<!-- Node41&#45;&gt;Node42 -->
<g id="edge64" class="edge"><title>Node41&#45;&gt;Node42</title>
<path fill="none" stroke="midnightblue" d="M809.063,-232.992C807.997,-224.726 806.661,-214.373 805.515,-205.489"/>
<polygon fill="midnightblue" stroke="midnightblue" points="808.95,-204.76 804.199,-195.29 802.007,-205.656 808.95,-204.76"/>
</g>
<!-- Node41&#45;&gt;Node13 -->
<g id="edge65" class="edge"><title>Node41&#45;&gt;Node13</title>
<path fill="none" stroke="midnightblue" d="M796.299,-232.741C787.559,-222.932 776.874,-209.529 770,-196 762.114,-180.478 757.13,-161.249 754.255,-147.203"/>
<polygon fill="midnightblue" stroke="midnightblue" points="757.667,-146.405 752.387,-137.22 750.787,-147.693 757.667,-146.405"/>
</g>
<!-- Node41&#45;&gt;Node18 -->
<g id="edge66" class="edge"><title>Node41&#45;&gt;Node18</title>
<path fill="none" stroke="midnightblue" d="M849.732,-232.992C876.675,-222.551 912.219,-208.778 937.853,-198.845"/>
<polygon fill="midnightblue" stroke="midnightblue" points="939.434,-201.986 947.494,-195.109 936.904,-195.458 939.434,-201.986"/>
</g>
<!-- Node43 -->
<g id="node43" class="node"><title>Node43</title>
<polygon fill="white" stroke="#bfbfbf" points="845.608,-175 845.608,-195 884.392,-195 884.392,-175 845.608,-175"/>
<text text-anchor="middle" x="865" y="-181" font-family="Helvetica,sans-Serif" font-size="10.00">utility</text>
</g>
<!-- Node41&#45;&gt;Node43 -->
<g id="edge67" class="edge"><title>Node41&#45;&gt;Node43</title>
<path fill="none" stroke="midnightblue" d="M824.072,-232.992C831.99,-223.9 842.11,-212.281 850.305,-202.872"/>
<polygon fill="midnightblue" stroke="midnightblue" points="852.98,-205.13 856.908,-195.29 847.701,-200.533 852.98,-205.13"/>
</g>
<!-- Node49&#45;&gt;Node5 -->
<g id="edge75" class="edge"><title>Node49&#45;&gt;Node5</title>
<path fill="none" stroke="midnightblue" d="M1128.22,-360.992C1155.62,-350.505 1191.8,-336.656 1217.78,-326.713"/>
<polygon fill="midnightblue" stroke="midnightblue" points="1219.11,-329.952 1227.2,-323.109 1216.61,-323.414 1219.11,-329.952"/>
</g>
<!-- Node50&#45;&gt;Node3 -->
<g id="edge78" class="edge"><title>Node50&#45;&gt;Node3</title>
<path fill="none" stroke="midnightblue" d="M554.18,-430.852C546.116,-421.419 533.358,-406.495 523.453,-394.907"/>
<polygon fill="midnightblue" stroke="midnightblue" points="526.011,-392.513 516.852,-387.186 520.69,-397.061 526.011,-392.513"/>
</g>
<!-- Node50&#45;&gt;Node5 -->
<g id="edge79" class="edge"><title>Node50&#45;&gt;Node5</title>
<path fill="none" stroke="midnightblue" d="M617.245,-439.852C679.079,-437.824 781.071,-428.82 861,-394 883.336,-384.27 881.564,-369.497 904,-360 951.977,-339.692 1091.35,-325.952 1178.17,-319.092"/>
<polygon fill="midnightblue" stroke="midnightblue" points="1178.52,-322.575 1188.22,-318.31 1177.98,-315.596 1178.52,-322.575"/>
</g>
</g>
</svg>
