<?xml version="1.0" encoding="UTF-8" standalone="no"?>
<!DOCTYPE svg PUBLIC "-//W3C//DTD SVG 1.1//EN"
 "http://www.w3.org/Graphics/SVG/1.1/DTD/svg11.dtd">
<!-- Generated by graphviz version 2.30.0 (20130114.0426)
 -->
<!-- Title: /Users/rkwright/Documents/github/readium&#45;sdk&#45;D/ePub3/ePub/nav_table.cpp Pages: 1 -->
<svg width="2590pt" height="426pt"
 viewBox="0.00 0.00 2590.00 426.00" xmlns="http://www.w3.org/2000/svg" xmlns:xlink="http://www.w3.org/1999/xlink">
<g id="graph0" class="graph" transform="scale(1 1) rotate(0) translate(4 422)">
<title>/Users/rkwright/Documents/github/readium&#45;sdk&#45;D/ePub3/ePub/nav_table.cpp</title>
<polygon fill="white" stroke="white" points="-4,5 -4,-422 2587,-422 2587,5 -4,5"/>
<!-- Node1 -->
<g id="node1" class="node"><title>Node1</title>
<polygon fill="#bfbfbf" stroke="black" points="875.966,-373 875.966,-417 1022.03,-417 1022.03,-373 875.966,-373"/>
<text text-anchor="start" x="883.966" y="-403" font-family="Helvetica,sans-Serif" font-size="10.00">/Users/rkwright/Documents</text>
<text text-anchor="start" x="883.966" y="-391" font-family="Helvetica,sans-Serif" font-size="10.00">/github/readium&#45;sdk&#45;D/ePub3</text>
<text text-anchor="middle" x="949" y="-379" font-family="Helvetica,sans-Serif" font-size="10.00">/ePub/nav_table.cpp</text>
</g>
<!-- Node2 -->
<g id="node2" class="node"><title>Node2</title>
<g id="a_node2"><a xlink:href="nav__table_8h.xhtml" target="_top" xlink:title="nav_table.h">
<polygon fill="white" stroke="black" points="279.146,-315 279.146,-335 346.854,-335 346.854,-315 279.146,-315"/>
<text text-anchor="middle" x="313" y="-321" font-family="Helvetica,sans-Serif" font-size="10.00">nav_table.h</text>
</a>
</g>
</g>
<!-- Node1&#45;&gt;Node2 -->
<g id="edge1" class="edge"><title>Node1&#45;&gt;Node2</title>
<path fill="none" stroke="midnightblue" d="M875.732,-386.166C742.651,-371.938 465.026,-342.254 357.176,-330.723"/>
<polygon fill="midnightblue" stroke="midnightblue" points="357.294,-327.216 346.978,-329.633 356.55,-334.176 357.294,-327.216"/>
</g>
<!-- Node9 -->
<g id="node9" class="node"><title>Node9</title>
<g id="a_node9"><a xlink:href="xpath__wrangler_8h.xhtml" target="_top" xlink:title="xpath_wrangler.h">
<polygon fill="white" stroke="black" points="445.917,-315 445.917,-335 538.083,-335 538.083,-315 445.917,-315"/>
<text text-anchor="middle" x="492" y="-321" font-family="Helvetica,sans-Serif" font-size="10.00">xpath_wrangler.h</text>
</a>
</g>
</g>
<!-- Node1&#45;&gt;Node9 -->
<g id="edge8" class="edge"><title>Node1&#45;&gt;Node9</title>
<path fill="none" stroke="midnightblue" d="M875.829,-383.112C784.572,-369.534 630.551,-346.616 548.09,-334.346"/>
<polygon fill="midnightblue" stroke="midnightblue" points="548.562,-330.878 538.155,-332.868 547.531,-337.801 548.562,-330.878"/>
</g>
<!-- Node31 -->
<g id="node31" class="node"><title>Node31</title>
<g id="a_node31"><a xlink:href="package_8h.xhtml" target="_top" xlink:title="package.h">
<polygon fill="white" stroke="black" points="1330.93,-315 1330.93,-335 1393.07,-335 1393.07,-315 1330.93,-315"/>
<text text-anchor="middle" x="1362" y="-321" font-family="Helvetica,sans-Serif" font-size="10.00">package.h</text>
</a>
</g>
</g>
<!-- Node1&#45;&gt;Node31 -->
<g id="edge41" class="edge"><title>Node1&#45;&gt;Node31</title>
<path fill="none" stroke="midnightblue" d="M1022.36,-381.921C1109.23,-367.619 1250.89,-344.293 1320.6,-332.817"/>
<polygon fill="midnightblue" stroke="midnightblue" points="1321.45,-336.224 1330.75,-331.146 1320.31,-329.317 1321.45,-336.224"/>
</g>
<!-- Node47 -->
<g id="node47" class="node"><title>Node47</title>
<g id="a_node47"><a xlink:href="error__handler_8h.xhtml" target="_top" xlink:title="error_handler.h">
<polygon fill="white" stroke="black" points="2361.09,-315 2361.09,-335 2444.91,-335 2444.91,-315 2361.09,-315"/>
<text text-anchor="middle" x="2403" y="-321" font-family="Helvetica,sans-Serif" font-size="10.00">error_handler.h</text>
</a>
</g>
</g>
<!-- Node1&#45;&gt;Node47 -->
<g id="edge72" class="edge"><title>Node1&#45;&gt;Node47</title>
<path fill="none" stroke="midnightblue" d="M1022.1,-390.581C1278.06,-378.611 2130.28,-338.755 2350.63,-328.449"/>
<polygon fill="midnightblue" stroke="midnightblue" points="2351.12,-331.93 2360.94,-327.967 2350.79,-324.938 2351.12,-331.93"/>
</g>
<!-- Node3 -->
<g id="node3" class="node"><title>Node3</title>
<polygon fill="white" stroke="#bfbfbf" points="271.079,-251 271.079,-271 354.921,-271 354.921,-251 271.079,-251"/>
<text text-anchor="middle" x="313" y="-257" font-family="Helvetica,sans-Serif" font-size="10.00">ePub3/epub3.h</text>
</g>
<!-- Node2&#45;&gt;Node3 -->
<g id="edge2" class="edge"><title>Node2&#45;&gt;Node3</title>
<path fill="none" stroke="midnightblue" d="M313,-314.852C313,-306.06 313,-292.498 313,-281.313"/>
<polygon fill="midnightblue" stroke="midnightblue" points="316.5,-281.186 313,-271.186 309.5,-281.186 316.5,-281.186"/>
</g>
<!-- Node4 -->
<g id="node4" class="node"><title>Node4</title>
<polygon fill="white" stroke="#bfbfbf" points="-0.70166,-251 -0.70166,-271 98.7017,-271 98.7017,-251 -0.70166,-251"/>
<text text-anchor="middle" x="49" y="-257" font-family="Helvetica,sans-Serif" font-size="10.00">ePub3/nav_point.h</text>
</g>
<!-- Node2&#45;&gt;Node4 -->
<g id="edge3" class="edge"><title>Node2&#45;&gt;Node4</title>
<path fill="none" stroke="midnightblue" d="M278.982,-316.382C239.148,-307.413 171.204,-291.968 113,-278 106.934,-276.544 100.552,-274.984 94.2629,-273.429"/>
<polygon fill="midnightblue" stroke="midnightblue" points="95.0647,-270.022 84.5156,-271.006 93.376,-276.815 95.0647,-270.022"/>
</g>
<!-- Node5 -->
<g id="node5" class="node"><title>Node5</title>
<g id="a_node5"><a xlink:href="owned__by_8h.xhtml" target="_top" xlink:title="ePub3/utilities/owned_by.h">
<polygon fill="white" stroke="black" points="300.884,-187 300.884,-207 435.116,-207 435.116,-187 300.884,-187"/>
<text text-anchor="middle" x="368" y="-193" font-family="Helvetica,sans-Serif" font-size="10.00">ePub3/utilities/owned_by.h</text>
</a>
</g>
</g>
<!-- Node2&#45;&gt;Node5 -->
<g id="edge4" class="edge"><title>Node2&#45;&gt;Node5</title>
<path fill="none" stroke="midnightblue" d="M279.137,-320.416C219.864,-312.825 107.134,-291.744 146,-244 164.196,-221.647 234.232,-209.815 290.837,-203.781"/>
<polygon fill="midnightblue" stroke="midnightblue" points="291.281,-207.254 300.873,-202.756 290.569,-200.29 291.281,-207.254"/>
</g>
<!-- Node8 -->
<g id="node8" class="node"><title>Node8</title>
<polygon fill="white" stroke="#bfbfbf" points="410.695,-251 410.695,-271 507.305,-271 507.305,-251 410.695,-251"/>
<text text-anchor="middle" x="459" y="-257" font-family="Helvetica,sans-Serif" font-size="10.00">ePub3/xml/node.h</text>
</g>
<!-- Node2&#45;&gt;Node8 -->
<g id="edge7" class="edge"><title>Node2&#45;&gt;Node8</title>
<path fill="none" stroke="midnightblue" d="M334.23,-314.985C358.991,-304.47 400.124,-287.002 428.348,-275.017"/>
<polygon fill="midnightblue" stroke="midnightblue" points="429.908,-278.157 437.745,-271.026 427.172,-271.713 429.908,-278.157"/>
</g>
<!-- Node6 -->
<g id="node6" class="node"><title>Node6</title>
<polygon fill="white" stroke="#bfbfbf" points="818.943,-1 818.943,-21 871.057,-21 871.057,-1 818.943,-1"/>
<text text-anchor="middle" x="845" y="-7" font-family="Helvetica,sans-Serif" font-size="10.00">memory</text>
</g>
<!-- Node5&#45;&gt;Node6 -->
<g id="edge5" class="edge"><title>Node5&#45;&gt;Node6</title>
<path fill="none" stroke="midnightblue" d="M366.43,-186.755C362.733,-161.511 356.485,-91.091 395,-58 426.174,-31.216 707.278,-17.4765 808.711,-13.358"/>
<polygon fill="midnightblue" stroke="midnightblue" points="808.933,-16.852 818.785,-12.9567 808.654,-9.85755 808.933,-16.852"/>
</g>
<!-- Node7 -->
<g id="node7" class="node"><title>Node7</title>
<polygon fill="white" stroke="#bfbfbf" points="545.934,-59 545.934,-79 608.066,-79 608.066,-59 545.934,-59"/>
<text text-anchor="middle" x="577" y="-65" font-family="Helvetica,sans-Serif" font-size="10.00">type_traits</text>
</g>
<!-- Node5&#45;&gt;Node7 -->
<g id="edge6" class="edge"><title>Node5&#45;&gt;Node7</title>
<path fill="none" stroke="midnightblue" d="M411.803,-186.936C439.497,-179.838 475.181,-168.082 503,-150 528.801,-133.229 551.688,-105.476 564.949,-87.4652"/>
<polygon fill="midnightblue" stroke="midnightblue" points="568.001,-89.2146 570.971,-79.0445 562.307,-85.1429 568.001,-89.2146"/>
</g>
<!-- Node9&#45;&gt;Node3 -->
<g id="edge9" class="edge"><title>Node9&#45;&gt;Node3</title>
<path fill="none" stroke="midnightblue" d="M465.972,-314.985C435.084,-304.286 383.415,-286.39 348.782,-274.394"/>
<polygon fill="midnightblue" stroke="midnightblue" points="349.654,-270.992 339.06,-271.026 347.363,-277.606 349.654,-270.992"/>
</g>
<!-- Node10 -->
<g id="node10" class="node"><title>Node10</title>
<g id="a_node10"><a xlink:href="utfstring_8h.xhtml" target="_top" xlink:title="ePub3/utilities/utfstring.h">
<polygon fill="white" stroke="black" points="1057.52,-187 1057.52,-207 1182.48,-207 1182.48,-187 1057.52,-187"/>
<text text-anchor="middle" x="1120" y="-193" font-family="Helvetica,sans-Serif" font-size="10.00">ePub3/utilities/utfstring.h</text>
</a>
</g>
</g>
<!-- Node9&#45;&gt;Node10 -->
<g id="edge10" class="edge"><title>Node9&#45;&gt;Node10</title>
<path fill="none" stroke="midnightblue" d="M538.135,-324.446C597.512,-323.331 702.594,-315.549 783,-278 803.835,-268.27 801.147,-253.692 822,-244 893.837,-210.611 984.873,-200.622 1047.31,-198.036"/>
<polygon fill="midnightblue" stroke="midnightblue" points="1047.59,-201.528 1057.46,-197.67 1047.34,-194.533 1047.59,-201.528"/>
</g>
<!-- Node30 -->
<g id="node30" class="node"><title>Node30</title>
<polygon fill="white" stroke="#bfbfbf" points="154.586,-251 154.586,-271 253.414,-271 253.414,-251 154.586,-251"/>
<text text-anchor="middle" x="204" y="-257" font-family="Helvetica,sans-Serif" font-size="10.00">ePub3/xml/xpath.h</text>
</g>
<!-- Node9&#45;&gt;Node30 -->
<g id="edge38" class="edge"><title>Node9&#45;&gt;Node30</title>
<path fill="none" stroke="midnightblue" d="M445.531,-315.719C398.923,-307.176 325.191,-293.015 262,-278 256.538,-276.702 250.812,-275.244 245.175,-273.75"/>
<polygon fill="midnightblue" stroke="midnightblue" points="245.766,-270.284 235.199,-271.049 243.937,-277.041 245.766,-270.284"/>
</g>
<!-- Node27 -->
<g id="node27" class="node"><title>Node27</title>
<polygon fill="white" stroke="#bfbfbf" points="589.273,-123 589.273,-143 624.727,-143 624.727,-123 589.273,-123"/>
<text text-anchor="middle" x="607" y="-129" font-family="Helvetica,sans-Serif" font-size="10.00">map</text>
</g>
<!-- Node9&#45;&gt;Node27 -->
<g id="edge39" class="edge"><title>Node9&#45;&gt;Node27</title>
<path fill="none" stroke="midnightblue" d="M497.547,-314.836C515.498,-285.178 572.23,-191.446 596.172,-151.89"/>
<polygon fill="midnightblue" stroke="midnightblue" points="599.325,-153.439 601.509,-143.072 593.337,-149.815 599.325,-153.439"/>
</g>
<!-- Node15 -->
<g id="node15" class="node"><title>Node15</title>
<polygon fill="white" stroke="#bfbfbf" points="769.384,-59 769.384,-79 812.616,-79 812.616,-59 769.384,-59"/>
<text text-anchor="middle" x="791" y="-65" font-family="Helvetica,sans-Serif" font-size="10.00">vector</text>
</g>
<!-- Node9&#45;&gt;Node15 -->
<g id="edge40" class="edge"><title>Node9&#45;&gt;Node15</title>
<path fill="none" stroke="midnightblue" d="M454.412,-314.889C435.175,-308.115 413.449,-296.709 402,-278 394.113,-265.111 395.028,-257.407 402,-244 410.391,-227.864 521.356,-160.785 536,-150 555.899,-135.344 557.601,-126.443 580,-116 639.676,-88.1773 716.773,-76.8799 759.306,-72.5283"/>
<polygon fill="midnightblue" stroke="midnightblue" points="759.722,-76.0045 769.343,-71.5658 759.054,-69.0365 759.722,-76.0045"/>
</g>
<!-- Node11 -->
<g id="node11" class="node"><title>Node11</title>
<g id="a_node11"><a xlink:href="basic_8h.xhtml" target="_top" xlink:title="ePub3/utilities/basic.h">
<polygon fill="white" stroke="black" points="1624.64,-123 1624.64,-143 1737.36,-143 1737.36,-123 1624.64,-123"/>
<text text-anchor="middle" x="1681" y="-129" font-family="Helvetica,sans-Serif" font-size="10.00">ePub3/utilities/basic.h</text>
</a>
</g>
</g>
<!-- Node10&#45;&gt;Node11 -->
<g id="edge11" class="edge"><title>Node10&#45;&gt;Node11</title>
<path fill="none" stroke="midnightblue" d="M1182.58,-190.746C1270.72,-183.107 1436.39,-167.88 1577,-150 1589.58,-148.4 1602.99,-146.491 1615.85,-144.558"/>
<polygon fill="midnightblue" stroke="midnightblue" points="1616.66,-147.975 1626.02,-143.008 1615.61,-141.054 1616.66,-147.975"/>
</g>
<!-- Node17 -->
<g id="node17" class="node"><title>Node17</title>
<g id="a_node17"><a xlink:href="integer__sequence_8h.xhtml" target="_top" xlink:title="ePub3/utilities/integer\l_sequence.h">
<polygon fill="white" stroke="black" points="1457.19,-117 1457.19,-149 1568.81,-149 1568.81,-117 1457.19,-117"/>
<text text-anchor="start" x="1465.19" y="-135" font-family="Helvetica,sans-Serif" font-size="10.00">ePub3/utilities/integer</text>
<text text-anchor="middle" x="1513" y="-123" font-family="Helvetica,sans-Serif" font-size="10.00">_sequence.h</text>
</a>
</g>
</g>
<!-- Node10&#45;&gt;Node17 -->
<g id="edge18" class="edge"><title>Node10&#45;&gt;Node17</title>
<path fill="none" stroke="midnightblue" d="M1182.78,-188.632C1248.04,-180.603 1353.05,-166.655 1443,-150 1444.28,-149.764 1445.56,-149.52 1446.86,-149.271"/>
<polygon fill="midnightblue" stroke="midnightblue" points="1447.81,-152.651 1456.92,-147.25 1446.43,-145.788 1447.81,-152.651"/>
</g>
<!-- Node18 -->
<g id="node18" class="node"><title>Node18</title>
<g id="a_node18"><a xlink:href="string__view_8h.xhtml" target="_top" xlink:title="ePub3/utilities/string\l_view.h">
<polygon fill="white" stroke="black" points="1295.25,-117 1295.25,-149 1400.75,-149 1400.75,-117 1295.25,-117"/>
<text text-anchor="start" x="1303.25" y="-135" font-family="Helvetica,sans-Serif" font-size="10.00">ePub3/utilities/string</text>
<text text-anchor="middle" x="1348" y="-123" font-family="Helvetica,sans-Serif" font-size="10.00">_view.h</text>
</a>
</g>
</g>
<!-- Node10&#45;&gt;Node18 -->
<g id="edge20" class="edge"><title>Node10&#45;&gt;Node18</title>
<path fill="none" stroke="midnightblue" d="M1153.15,-186.985C1187.64,-177.606 1242.47,-162.697 1285.19,-151.079"/>
<polygon fill="midnightblue" stroke="midnightblue" points="1286.21,-154.43 1294.94,-148.428 1284.37,-147.675 1286.21,-154.43"/>
</g>
<!-- Node19 -->
<g id="node19" class="node"><title>Node19</title>
<polygon fill="white" stroke="#bfbfbf" points="1410.77,-59 1410.77,-79 1451.23,-79 1451.23,-59 1410.77,-59"/>
<text text-anchor="middle" x="1431" y="-65" font-family="Helvetica,sans-Serif" font-size="10.00">string</text>
</g>
<!-- Node10&#45;&gt;Node19 -->
<g id="edge29" class="edge"><title>Node10&#45;&gt;Node19</title>
<path fill="none" stroke="midnightblue" d="M1182.74,-193.788C1257.52,-189.858 1376.49,-179.099 1409,-150 1426.06,-134.724 1430.42,-107.563 1431.27,-89.1734"/>
<polygon fill="midnightblue" stroke="midnightblue" points="1434.77,-89.0948 1431.43,-79.0413 1427.77,-88.9854 1434.77,-89.0948"/>
</g>
<!-- Node24 -->
<g id="node24" class="node"><title>Node24</title>
<polygon fill="white" stroke="#bfbfbf" points="857.438,-123 857.438,-143 904.562,-143 904.562,-123 857.438,-123"/>
<text text-anchor="middle" x="881" y="-129" font-family="Helvetica,sans-Serif" font-size="10.00">iterator</text>
</g>
<!-- Node10&#45;&gt;Node24 -->
<g id="edge30" class="edge"><title>Node10&#45;&gt;Node24</title>
<path fill="none" stroke="midnightblue" d="M1063.06,-186.953C1021.14,-179.415 963.133,-167.136 914,-150 911.717,-149.204 909.386,-148.292 907.07,-147.316"/>
<polygon fill="midnightblue" stroke="midnightblue" points="908.356,-144.056 897.807,-143.077 905.444,-150.421 908.356,-144.056"/>
</g>
<!-- Node25 -->
<g id="node25" class="node"><title>Node25</title>
<polygon fill="white" stroke="#bfbfbf" points="922.936,-123 922.936,-143 965.064,-143 965.064,-123 922.936,-123"/>
<text text-anchor="middle" x="944" y="-129" font-family="Helvetica,sans-Serif" font-size="10.00">locale</text>
</g>
<!-- Node10&#45;&gt;Node25 -->
<g id="edge31" class="edge"><title>Node10&#45;&gt;Node25</title>
<path fill="none" stroke="midnightblue" d="M1088.84,-186.945C1060.03,-178.312 1016.18,-164.509 979,-150 976.742,-149.119 974.421,-148.166 972.1,-147.18"/>
<polygon fill="midnightblue" stroke="midnightblue" points="973.284,-143.876 962.723,-143.033 970.453,-150.278 973.284,-143.876"/>
</g>
<!-- Node10&#45;&gt;Node15 -->
<g id="edge32" class="edge"><title>Node10&#45;&gt;Node15</title>
<path fill="none" stroke="midnightblue" d="M1057.45,-190.972C988.263,-184.454 882.042,-171.325 848,-150 824.587,-135.334 807.981,-107.193 798.942,-88.505"/>
<polygon fill="midnightblue" stroke="midnightblue" points="802.046,-86.8783 794.703,-79.2408 795.681,-89.7904 802.046,-86.8783"/>
</g>
<!-- Node26 -->
<g id="node26" class="node"><title>Node26</title>
<polygon fill="white" stroke="#bfbfbf" points="1020.77,-123 1020.77,-143 1121.23,-143 1121.23,-123 1020.77,-123"/>
<text text-anchor="middle" x="1071" y="-129" font-family="Helvetica,sans-Serif" font-size="10.00">REGEX_INCLUDE</text>
</g>
<!-- Node10&#45;&gt;Node26 -->
<g id="edge33" class="edge"><title>Node10&#45;&gt;Node26</title>
<path fill="none" stroke="midnightblue" d="M1112.77,-186.852C1105.39,-177.511 1093.75,-162.784 1084.63,-151.246"/>
<polygon fill="midnightblue" stroke="midnightblue" points="1087.21,-148.861 1078.26,-143.186 1081.71,-153.202 1087.21,-148.861"/>
</g>
<!-- Node10&#45;&gt;Node27 -->
<g id="edge34" class="edge"><title>Node10&#45;&gt;Node27</title>
<path fill="none" stroke="midnightblue" d="M1057.35,-188.429C945.54,-174.915 715.804,-147.15 635.481,-137.442"/>
<polygon fill="midnightblue" stroke="midnightblue" points="635.514,-133.921 625.167,-136.196 634.674,-140.87 635.514,-133.921"/>
</g>
<!-- Node28 -->
<g id="node28" class="node"><title>Node28</title>
<polygon fill="white" stroke="#bfbfbf" points="1139.6,-123 1139.6,-143 1198.4,-143 1198.4,-123 1139.6,-123"/>
<text text-anchor="middle" x="1169" y="-129" font-family="Helvetica,sans-Serif" font-size="10.00">stdexcept</text>
</g>
<!-- Node10&#45;&gt;Node28 -->
<g id="edge35" class="edge"><title>Node10&#45;&gt;Node28</title>
<path fill="none" stroke="midnightblue" d="M1127.23,-186.852C1134.61,-177.511 1146.25,-162.784 1155.37,-151.246"/>
<polygon fill="midnightblue" stroke="midnightblue" points="1158.29,-153.202 1161.74,-143.186 1152.79,-148.861 1158.29,-153.202"/>
</g>
<!-- Node20 -->
<g id="node20" class="node"><title>Node20</title>
<polygon fill="white" stroke="#bfbfbf" points="1046.61,-59 1046.61,-79 1085.39,-79 1085.39,-59 1046.61,-59"/>
<text text-anchor="middle" x="1066" y="-65" font-family="Helvetica,sans-Serif" font-size="10.00">limits</text>
</g>
<!-- Node10&#45;&gt;Node20 -->
<g id="edge36" class="edge"><title>Node10&#45;&gt;Node20</title>
<path fill="none" stroke="midnightblue" d="M1068.44,-186.959C1047.23,-180.426 1024.7,-169.212 1012,-150 1003.67,-137.394 1005.66,-129.719 1012,-116 1017.95,-103.119 1029.48,-92.5161 1040.36,-84.749"/>
<polygon fill="midnightblue" stroke="midnightblue" points="1042.43,-87.5785 1048.83,-79.1387 1038.56,-81.7424 1042.43,-87.5785"/>
</g>
<!-- Node29 -->
<g id="node29" class="node"><title>Node29</title>
<polygon fill="white" stroke="#bfbfbf" points="1216.76,-123 1216.76,-143 1277.24,-143 1277.24,-123 1216.76,-123"/>
<text text-anchor="middle" x="1247" y="-129" font-family="Helvetica,sans-Serif" font-size="10.00">utf8/utf8.h</text>
</g>
<!-- Node10&#45;&gt;Node29 -->
<g id="edge37" class="edge"><title>Node10&#45;&gt;Node29</title>
<path fill="none" stroke="midnightblue" d="M1138.47,-186.985C1159.72,-176.607 1194.85,-159.458 1219.37,-147.49"/>
<polygon fill="midnightblue" stroke="midnightblue" points="1221.06,-150.559 1228.51,-143.026 1217.99,-144.268 1221.06,-150.559"/>
</g>
<!-- Node12 -->
<g id="node12" class="node"><title>Node12</title>
<g id="a_node12"><a xlink:href="base_8h.xhtml" target="_top" xlink:title="ePub3/base.h">
<polygon fill="white" stroke="red" points="1315.14,-1 1315.14,-21 1392.86,-21 1392.86,-1 1315.14,-1"/>
<text text-anchor="middle" x="1354" y="-7" font-family="Helvetica,sans-Serif" font-size="10.00">ePub3/base.h</text>
</a>
</g>
</g>
<!-- Node11&#45;&gt;Node12 -->
<g id="edge12" class="edge"><title>Node11&#45;&gt;Node12</title>
<path fill="none" stroke="midnightblue" d="M1669.12,-122.774C1648.37,-107.104 1603.64,-75.3081 1561,-58 1509.16,-36.9563 1445.92,-24.6867 1403.09,-18.1898"/>
<polygon fill="midnightblue" stroke="midnightblue" points="1403.33,-14.6876 1392.92,-16.6988 1402.31,-21.6135 1403.33,-14.6876"/>
</g>
<!-- Node13 -->
<g id="node13" class="node"><title>Node13</title>
<polygon fill="white" stroke="#bfbfbf" points="1621.82,-59 1621.82,-79 1736.18,-79 1736.18,-59 1621.82,-59"/>
<text text-anchor="middle" x="1679" y="-65" font-family="Helvetica,sans-Serif" font-size="10.00">ePub3/xml/xmlstring.h</text>
</g>
<!-- Node11&#45;&gt;Node13 -->
<g id="edge13" class="edge"><title>Node11&#45;&gt;Node13</title>
<path fill="none" stroke="midnightblue" d="M1680.7,-122.852C1680.42,-114.06 1679.98,-100.498 1679.62,-89.3131"/>
<polygon fill="midnightblue" stroke="midnightblue" points="1683.12,-89.0678 1679.3,-79.1858 1676.12,-89.2935 1683.12,-89.0678"/>
</g>
<!-- Node14 -->
<g id="node14" class="node"><title>Node14</title>
<polygon fill="white" stroke="#bfbfbf" points="1754.22,-59 1754.22,-79 1805.78,-79 1805.78,-59 1754.22,-59"/>
<text text-anchor="middle" x="1780" y="-65" font-family="Helvetica,sans-Serif" font-size="10.00">sstream</text>
</g>
<!-- Node11&#45;&gt;Node14 -->
<g id="edge14" class="edge"><title>Node11&#45;&gt;Node14</title>
<path fill="none" stroke="midnightblue" d="M1695.61,-122.852C1711.69,-112.778 1737.78,-96.4406 1756.7,-84.5937"/>
<polygon fill="midnightblue" stroke="midnightblue" points="1758.71,-87.4599 1765.33,-79.1858 1755,-81.5273 1758.71,-87.4599"/>
</g>
<!-- Node11&#45;&gt;Node6 -->
<g id="edge15" class="edge"><title>Node11&#45;&gt;Node6</title>
<path fill="none" stroke="midnightblue" d="M1659.84,-122.937C1621.04,-106.77 1535.56,-73.229 1460,-58 1243.5,-14.366 976.623,-11.1832 881.101,-11.5934"/>
<polygon fill="midnightblue" stroke="midnightblue" points="881.071,-8.09338 871.092,-11.6527 881.113,-15.0933 881.071,-8.09338"/>
</g>
<!-- Node11&#45;&gt;Node15 -->
<g id="edge16" class="edge"><title>Node11&#45;&gt;Node15</title>
<path fill="none" stroke="midnightblue" d="M1628.75,-122.978C1612.24,-120.391 1593.89,-117.79 1577,-116 1426.92,-100.1 950.96,-77.4051 822.958,-71.467"/>
<polygon fill="midnightblue" stroke="midnightblue" points="822.82,-67.9569 812.669,-70.991 822.497,-74.9495 822.82,-67.9569"/>
</g>
<!-- Node16 -->
<g id="node16" class="node"><title>Node16</title>
<polygon fill="white" stroke="#bfbfbf" points="2059.5,-59 2059.5,-79 2088.5,-79 2088.5,-59 2059.5,-59"/>
<text text-anchor="middle" x="2073.61" y="-65" font-family="Helvetica,sans-Serif" font-size="10.00">list</text>
</g>
<!-- Node11&#45;&gt;Node16 -->
<g id="edge17" class="edge"><title>Node11&#45;&gt;Node16</title>
<path fill="none" stroke="midnightblue" d="M1737.73,-123.051C1824.75,-109.321 1987.62,-83.6269 2049.39,-73.882"/>
<polygon fill="midnightblue" stroke="midnightblue" points="2050.06,-77.3209 2059.39,-72.3052 2048.96,-70.4064 2050.06,-77.3209"/>
</g>
<!-- Node17&#45;&gt;Node12 -->
<g id="edge19" class="edge"><title>Node17&#45;&gt;Node12</title>
<path fill="none" stroke="midnightblue" d="M1505.36,-116.806C1496.44,-100.388 1480.29,-74.382 1460,-58 1441.27,-42.8756 1416.81,-31.8231 1396.11,-24.3482"/>
<polygon fill="midnightblue" stroke="midnightblue" points="1397.19,-21.0178 1386.59,-21.0641 1394.9,-27.6349 1397.19,-21.0178"/>
</g>
<!-- Node18&#45;&gt;Node7 -->
<g id="edge21" class="edge"><title>Node18&#45;&gt;Node7</title>
<path fill="none" stroke="midnightblue" d="M1295.04,-117.635C1291.99,-117.026 1288.96,-116.474 1286,-116 1220.2,-105.471 760.307,-79.9412 618.52,-72.2375"/>
<polygon fill="midnightblue" stroke="midnightblue" points="618.659,-68.74 608.485,-71.6931 618.28,-75.7297 618.659,-68.74"/>
</g>
<!-- Node18&#45;&gt;Node19 -->
<g id="edge22" class="edge"><title>Node18&#45;&gt;Node19</title>
<path fill="none" stroke="midnightblue" d="M1368.09,-116.992C1380.88,-107.441 1397.4,-95.1011 1410.3,-85.4635"/>
<polygon fill="midnightblue" stroke="midnightblue" points="1412.65,-88.079 1418.56,-79.2904 1408.46,-82.4709 1412.65,-88.079"/>
</g>
<!-- Node18&#45;&gt;Node20 -->
<g id="edge23" class="edge"><title>Node18&#45;&gt;Node20</title>
<path fill="none" stroke="midnightblue" d="M1294.94,-118.134C1291.92,-117.399 1288.92,-116.682 1286,-116 1218.04,-100.135 1137.66,-83.9866 1095.39,-75.6935"/>
<polygon fill="midnightblue" stroke="midnightblue" points="1095.98,-72.2425 1085.49,-73.7593 1094.63,-79.1125 1095.98,-72.2425"/>
</g>
<!-- Node21 -->
<g id="node21" class="node"><title>Node21</title>
<polygon fill="white" stroke="#bfbfbf" points="1262.83,-59 1262.83,-79 1317.17,-79 1317.17,-59 1262.83,-59"/>
<text text-anchor="middle" x="1290" y="-65" font-family="Helvetica,sans-Serif" font-size="10.00">iostream</text>
</g>
<!-- Node18&#45;&gt;Node21 -->
<g id="edge24" class="edge"><title>Node18&#45;&gt;Node21</title>
<path fill="none" stroke="midnightblue" d="M1333.96,-116.992C1325.45,-107.9 1314.59,-96.2811 1305.78,-86.8716"/>
<polygon fill="midnightblue" stroke="midnightblue" points="1308.08,-84.2021 1298.69,-79.2904 1302.97,-88.9842 1308.08,-84.2021"/>
</g>
<!-- Node22 -->
<g id="node22" class="node"><title>Node22</title>
<polygon fill="white" stroke="#bfbfbf" points="1335.44,-59 1335.44,-79 1392.56,-79 1392.56,-59 1335.44,-59"/>
<text text-anchor="middle" x="1364" y="-65" font-family="Helvetica,sans-Serif" font-size="10.00">algorithm</text>
</g>
<!-- Node18&#45;&gt;Node22 -->
<g id="edge25" class="edge"><title>Node18&#45;&gt;Node22</title>
<path fill="none" stroke="midnightblue" d="M1351.87,-116.992C1354.03,-108.635 1356.74,-98.1424 1359.05,-89.1935"/>
<polygon fill="midnightblue" stroke="midnightblue" points="1362.49,-89.8478 1361.6,-79.2904 1355.71,-88.0986 1362.49,-89.8478"/>
</g>
<!-- Node23 -->
<g id="node23" class="node"><title>Node23</title>
<g id="a_node23"><a xlink:href="____strhash_8h.xhtml" target="_top" xlink:title="__strhash.h">
<polygon fill="white" stroke="black" points="1176.87,-59 1176.87,-79 1245.13,-79 1245.13,-59 1176.87,-59"/>
<text text-anchor="middle" x="1211" y="-65" font-family="Helvetica,sans-Serif" font-size="10.00">__strhash.h</text>
</a>
</g>
</g>
<!-- Node18&#45;&gt;Node23 -->
<g id="edge26" class="edge"><title>Node18&#45;&gt;Node23</title>
<path fill="none" stroke="midnightblue" d="M1314.84,-116.992C1292.07,-106.689 1262.14,-93.1427 1240.26,-83.2422"/>
<polygon fill="midnightblue" stroke="midnightblue" points="1241.68,-80.0431 1231.13,-79.1088 1238.79,-86.4205 1241.68,-80.0431"/>
</g>
<!-- Node23&#45;&gt;Node12 -->
<g id="edge27" class="edge"><title>Node23&#45;&gt;Node12</title>
<path fill="none" stroke="midnightblue" d="M1234.29,-58.878C1257.87,-49.6441 1294.55,-35.283 1321.09,-24.8887"/>
<polygon fill="midnightblue" stroke="midnightblue" points="1322.68,-28.0236 1330.72,-21.1181 1320.13,-21.5056 1322.68,-28.0236"/>
</g>
<!-- Node23&#45;&gt;Node6 -->
<g id="edge28" class="edge"><title>Node23&#45;&gt;Node6</title>
<path fill="none" stroke="midnightblue" d="M1176.57,-62.7317C1107.51,-52.1653 952.649,-28.4709 881.732,-17.6201"/>
<polygon fill="midnightblue" stroke="midnightblue" points="881.911,-14.1069 871.497,-16.0541 880.852,-21.0264 881.911,-14.1069"/>
</g>
<!-- Node31&#45;&gt;Node3 -->
<g id="edge42" class="edge"><title>Node31&#45;&gt;Node3</title>
<path fill="none" stroke="midnightblue" d="M1330.8,-323.976C1210.53,-323.572 765.508,-319.207 402,-278 389.935,-276.632 377.036,-274.631 364.909,-272.503"/>
<polygon fill="midnightblue" stroke="midnightblue" points="365.403,-269.035 354.939,-270.697 364.155,-275.923 365.403,-269.035"/>
</g>
<!-- Node31&#45;&gt;Node19 -->
<g id="edge43" class="edge"><title>Node31&#45;&gt;Node19</title>
<path fill="none" stroke="midnightblue" d="M1393.23,-320.841C1442.54,-315.19 1535.08,-301.67 1557,-278 1606.29,-224.774 1620.37,-174.154 1577,-116 1545.36,-73.571 1512.89,-95.5648 1460.97,-81.3191"/>
<polygon fill="midnightblue" stroke="midnightblue" points="1462,-77.9717 1451.41,-78.3393 1459.91,-84.655 1462,-77.9717"/>
</g>
<!-- Node31&#45;&gt;Node15 -->
<g id="edge44" class="edge"><title>Node31&#45;&gt;Node15</title>
<path fill="none" stroke="midnightblue" d="M1330.51,-324.375C1200.96,-325.593 713.742,-326.875 668,-278 640.06,-248.146 651.801,-223.543 668,-186 687.918,-139.838 736.244,-103.52 766.048,-84.537"/>
<polygon fill="midnightblue" stroke="midnightblue" points="767.991,-87.4506 774.651,-79.2107 764.306,-81.4989 767.991,-87.4506"/>
</g>
<!-- Node31&#45;&gt;Node27 -->
<g id="edge45" class="edge"><title>Node31&#45;&gt;Node27</title>
<path fill="none" stroke="midnightblue" d="M1330.63,-324.229C1198.01,-324.902 687.843,-324.437 635,-278 599.39,-246.706 600.761,-184.789 604.162,-153.326"/>
<polygon fill="midnightblue" stroke="midnightblue" points="607.657,-153.587 605.442,-143.226 600.712,-152.707 607.657,-153.587"/>
</g>
<!-- Node31&#45;&gt;Node16 -->
<g id="edge46" class="edge"><title>Node31&#45;&gt;Node16</title>
<path fill="none" stroke="midnightblue" d="M1393.22,-323.643C1551.23,-321.688 2256.48,-311.124 2288,-278 2363.57,-198.581 2168.02,-108.349 2097.9,-79.4355"/>
<polygon fill="midnightblue" stroke="midnightblue" points="2099.1,-76.143 2088.52,-75.623 2096.47,-82.6286 2099.1,-76.143"/>
</g>
<!-- Node31&#45;&gt;Node8 -->
<g id="edge47" class="edge"><title>Node31&#45;&gt;Node8</title>
<path fill="none" stroke="midnightblue" d="M1330.84,-324.507C1219.93,-325.845 834.212,-326.491 521,-278 513.749,-276.877 506.117,-275.27 498.78,-273.503"/>
<polygon fill="midnightblue" stroke="midnightblue" points="499.578,-270.094 489.024,-271.024 497.854,-276.879 499.578,-270.094"/>
</g>
<!-- Node31&#45;&gt;Node5 -->
<g id="edge48" class="edge"><title>Node31&#45;&gt;Node5</title>
<path fill="none" stroke="midnightblue" d="M1330.62,-323.518C1205.22,-321.375 740.031,-311.3 597,-278 558.974,-269.147 552.684,-257.365 516,-244 480.68,-231.132 439.833,-218.609 410.01,-209.887"/>
<polygon fill="midnightblue" stroke="midnightblue" points="410.922,-206.507 400.343,-207.08 408.97,-213.23 410.922,-206.507"/>
</g>
<!-- Node32 -->
<g id="node32" class="node"><title>Node32</title>
<polygon fill="white" stroke="#bfbfbf" points="1624.91,-251 1624.91,-271 1727.09,-271 1727.09,-251 1624.91,-251"/>
<text text-anchor="middle" x="1676" y="-257" font-family="Helvetica,sans-Serif" font-size="10.00">ePub3/encryption.h</text>
</g>
<!-- Node31&#45;&gt;Node32 -->
<g id="edge49" class="edge"><title>Node31&#45;&gt;Node32</title>
<path fill="none" stroke="midnightblue" d="M1393.17,-318.846C1440.44,-310.895 1533,-294.79 1611,-278 1617.56,-276.587 1624.48,-274.997 1631.25,-273.381"/>
<polygon fill="midnightblue" stroke="midnightblue" points="1632.11,-276.773 1641,-271.014 1630.46,-269.97 1632.11,-276.773"/>
</g>
<!-- Node33 -->
<g id="node33" class="node"><title>Node33</title>
<polygon fill="white" stroke="#bfbfbf" points="1745.03,-251 1745.03,-271 1824.97,-271 1824.97,-251 1745.03,-251"/>
<text text-anchor="middle" x="1785" y="-257" font-family="Helvetica,sans-Serif" font-size="10.00">ePub3/spine.h</text>
</g>
<!-- Node31&#45;&gt;Node33 -->
<g id="edge50" class="edge"><title>Node31&#45;&gt;Node33</title>
<path fill="none" stroke="midnightblue" d="M1393.38,-322.195C1458.1,-318.022 1610.84,-305.857 1736,-278 1740.82,-276.926 1745.85,-275.572 1750.76,-274.107"/>
<polygon fill="midnightblue" stroke="midnightblue" points="1752.1,-277.352 1760.58,-271 1749.99,-270.678 1752.1,-277.352"/>
</g>
<!-- Node34 -->
<g id="node34" class="node"><title>Node34</title>
<polygon fill="white" stroke="#bfbfbf" points="1843.09,-251 1843.09,-271 1936.91,-271 1936.91,-251 1843.09,-251"/>
<text text-anchor="middle" x="1890" y="-257" font-family="Helvetica,sans-Serif" font-size="10.00">ePub3/manifest.h</text>
</g>
<!-- Node31&#45;&gt;Node34 -->
<g id="edge51" class="edge"><title>Node31&#45;&gt;Node34</title>
<path fill="none" stroke="midnightblue" d="M1393.13,-322.857C1468.96,-319.662 1669.08,-308.763 1833,-278 1839.02,-276.871 1845.32,-275.4 1851.45,-273.809"/>
<polygon fill="midnightblue" stroke="midnightblue" points="1852.8,-277.068 1861.53,-271.055 1850.96,-270.316 1852.8,-277.068"/>
</g>
<!-- Node35 -->
<g id="node35" class="node"><title>Node35</title>
<polygon fill="white" stroke="#bfbfbf" points="1954.98,-251 1954.98,-271 2021.02,-271 2021.02,-251 1954.98,-251"/>
<text text-anchor="middle" x="1988" y="-257" font-family="Helvetica,sans-Serif" font-size="10.00">ePub3/cfi.h</text>
</g>
<!-- Node31&#45;&gt;Node35 -->
<g id="edge52" class="edge"><title>Node31&#45;&gt;Node35</title>
<path fill="none" stroke="midnightblue" d="M1393.1,-324.551C1480.95,-325.468 1738.05,-323.731 1945,-278 1949.2,-277.072 1953.54,-275.823 1957.78,-274.431"/>
<polygon fill="midnightblue" stroke="midnightblue" points="1959.12,-277.668 1967.36,-271.004 1956.76,-271.078 1959.12,-277.668"/>
</g>
<!-- Node36 -->
<g id="node36" class="node"><title>Node36</title>
<polygon fill="white" stroke="#bfbfbf" points="2039.35,-251 2039.35,-271 2152.65,-271 2152.65,-251 2039.35,-251"/>
<text text-anchor="middle" x="2096" y="-257" font-family="Helvetica,sans-Serif" font-size="10.00">ePub3/nav_element.h</text>
</g>
<!-- Node31&#45;&gt;Node36 -->
<g id="edge53" class="edge"><title>Node31&#45;&gt;Node36</title>
<path fill="none" stroke="midnightblue" d="M1393.17,-323.721C1488.87,-322.466 1786.73,-315.586 2030,-278 2037.62,-276.823 2045.64,-275.205 2053.38,-273.446"/>
<polygon fill="midnightblue" stroke="midnightblue" points="2054.4,-276.801 2063.32,-271.079 2052.78,-269.991 2054.4,-276.801"/>
</g>
<!-- Node37 -->
<g id="node37" class="node"><title>Node37</title>
<polygon fill="white" stroke="#bfbfbf" points="2170.31,-251 2170.31,-271 2279.69,-271 2279.69,-251 2170.31,-251"/>
<text text-anchor="middle" x="2225" y="-257" font-family="Helvetica,sans-Serif" font-size="10.00">ePub3/archive_xml.h</text>
</g>
<!-- Node31&#45;&gt;Node37 -->
<g id="edge54" class="edge"><title>Node31&#45;&gt;Node37</title>
<path fill="none" stroke="midnightblue" d="M1393.44,-324.298C1501.15,-324.871 1864.99,-323.114 2161,-278 2168.48,-276.86 2176.36,-275.243 2183.94,-273.471"/>
<polygon fill="midnightblue" stroke="midnightblue" points="2184.79,-276.867 2193.66,-271.08 2183.12,-270.069 2184.79,-276.867"/>
</g>
<!-- Node31&#45;&gt;Node10 -->
<g id="edge55" class="edge"><title>Node31&#45;&gt;Node10</title>
<path fill="none" stroke="midnightblue" d="M1369.88,-314.751C1382.65,-298.614 1404.72,-265.033 1387,-244 1362.59,-215.028 1263.19,-204.303 1192.84,-200.333"/>
<polygon fill="midnightblue" stroke="midnightblue" points="1192.85,-196.829 1182.68,-199.795 1192.48,-203.819 1192.85,-196.829"/>
</g>
<!-- Node38 -->
<g id="node38" class="node"><title>Node38</title>
<g id="a_node38"><a xlink:href="iri_8h.xhtml" target="_top" xlink:title="ePub3/utilities/iri.h">
<polygon fill="white" stroke="black" points="677.424,-251 677.424,-271 774.576,-271 774.576,-251 677.424,-251"/>
<text text-anchor="middle" x="726" y="-257" font-family="Helvetica,sans-Serif" font-size="10.00">ePub3/utilities/iri.h</text>
</a>
</g>
</g>
<!-- Node31&#45;&gt;Node38 -->
<g id="edge56" class="edge"><title>Node31&#45;&gt;Node38</title>
<path fill="none" stroke="midnightblue" d="M1330.86,-322.224C1247.91,-317.303 1014.78,-302.236 822,-278 809.95,-276.485 797.1,-274.56 784.847,-272.574"/>
<polygon fill="midnightblue" stroke="midnightblue" points="785.164,-269.078 774.727,-270.899 784.021,-275.985 785.164,-269.078"/>
</g>
<!-- Node42 -->
<g id="node42" class="node"><title>Node42</title>
<polygon fill="white" stroke="#bfbfbf" points="831.395,-251 831.395,-271 958.605,-271 958.605,-251 831.395,-251"/>
<text text-anchor="middle" x="895" y="-257" font-family="Helvetica,sans-Serif" font-size="10.00">ePub3/content_handler.h</text>
</g>
<!-- Node31&#45;&gt;Node42 -->
<g id="edge65" class="edge"><title>Node31&#45;&gt;Node42</title>
<path fill="none" stroke="midnightblue" d="M1330.69,-321.412C1263.81,-315.65 1102.14,-300.474 968,-278 959.812,-276.628 951.157,-274.943 942.78,-273.186"/>
<polygon fill="midnightblue" stroke="midnightblue" points="943.262,-269.71 932.749,-271.024 941.787,-276.552 943.262,-269.71"/>
</g>
<!-- Node43 -->
<g id="node43" class="node"><title>Node43</title>
<polygon fill="white" stroke="#bfbfbf" points="977.077,-245 977.077,-277 1090.92,-277 1090.92,-245 977.077,-245"/>
<text text-anchor="start" x="985.077" y="-263" font-family="Helvetica,sans-Serif" font-size="10.00">ePub3/media_support</text>
<text text-anchor="middle" x="1034" y="-251" font-family="Helvetica,sans-Serif" font-size="10.00">_info.h</text>
</g>
<!-- Node31&#45;&gt;Node43 -->
<g id="edge66" class="edge"><title>Node31&#45;&gt;Node43</title>
<path fill="none" stroke="midnightblue" d="M1330.82,-319.189C1283.38,-311.724 1190.02,-296.473 1101.16,-278.171"/>
<polygon fill="midnightblue" stroke="midnightblue" points="1101.69,-274.707 1091.19,-276.101 1100.27,-281.561 1101.69,-274.707"/>
</g>
<!-- Node44 -->
<g id="node44" class="node"><title>Node44</title>
<polygon fill="white" stroke="#bfbfbf" points="1109.23,-251 1109.23,-271 1234.77,-271 1234.77,-251 1109.23,-251"/>
<text text-anchor="middle" x="1172" y="-257" font-family="Helvetica,sans-Serif" font-size="10.00">ePub3/property_holder.h</text>
</g>
<!-- Node31&#45;&gt;Node44 -->
<g id="edge67" class="edge"><title>Node31&#45;&gt;Node44</title>
<path fill="none" stroke="midnightblue" d="M1334.37,-314.985C1301.45,-304.24 1246.27,-286.236 1209.51,-274.239"/>
<polygon fill="midnightblue" stroke="midnightblue" points="1210.25,-270.801 1199.66,-271.026 1208.08,-277.456 1210.25,-270.801"/>
</g>
<!-- Node45 -->
<g id="node45" class="node"><title>Node45</title>
<polygon fill="white" stroke="#bfbfbf" points="1253.23,-251 1253.23,-271 1378.77,-271 1378.77,-251 1253.23,-251"/>
<text text-anchor="middle" x="1316" y="-257" font-family="Helvetica,sans-Serif" font-size="10.00">ePub3/epub_collection.h</text>
</g>
<!-- Node31&#45;&gt;Node45 -->
<g id="edge68" class="edge"><title>Node31&#45;&gt;Node45</title>
<path fill="none" stroke="midnightblue" d="M1355.21,-314.852C1348.28,-305.511 1337.36,-290.784 1328.8,-279.246"/>
<polygon fill="midnightblue" stroke="midnightblue" points="1331.58,-277.131 1322.82,-271.186 1325.96,-281.302 1331.58,-277.131"/>
</g>
<!-- Node46 -->
<g id="node46" class="node"><title>Node46</title>
<g id="a_node46"><a xlink:href="xml__identifiable_8h.xhtml" target="_top" xlink:title="ePub3/utilities/xml\l_identifiable.h">
<polygon fill="white" stroke="black" points="1434.7,-245 1434.7,-277 1531.3,-277 1531.3,-245 1434.7,-245"/>
<text text-anchor="start" x="1442.7" y="-263" font-family="Helvetica,sans-Serif" font-size="10.00">ePub3/utilities/xml</text>
<text text-anchor="middle" x="1483" y="-251" font-family="Helvetica,sans-Serif" font-size="10.00">_identifiable.h</text>
</a>
</g>
</g>
<!-- Node31&#45;&gt;Node46 -->
<g id="edge69" class="edge"><title>Node31&#45;&gt;Node46</title>
<path fill="none" stroke="midnightblue" d="M1379.59,-314.985C1396.57,-306.286 1422.83,-292.83 1444.64,-281.655"/>
<polygon fill="midnightblue" stroke="midnightblue" points="1446.37,-284.701 1453.68,-277.026 1443.18,-278.471 1446.37,-284.701"/>
</g>
<!-- Node31&#45;&gt;Node18 -->
<g id="edge71" class="edge"><title>Node31&#45;&gt;Node18</title>
<path fill="none" stroke="midnightblue" d="M1393.15,-322.274C1452.51,-317.658 1573.13,-301.16 1540,-244 1512.36,-196.313 1455.4,-167.527 1410.66,-151.435"/>
<polygon fill="midnightblue" stroke="midnightblue" points="1411.62,-148.064 1401.02,-148.095 1409.33,-154.677 1411.62,-148.064"/>
</g>
<!-- Node38&#45;&gt;Node10 -->
<g id="edge57" class="edge"><title>Node38&#45;&gt;Node10</title>
<path fill="none" stroke="midnightblue" d="M758.868,-250.921C768.526,-248.452 779.144,-245.93 789,-244 877.274,-226.712 980.032,-213.492 1047.35,-205.754"/>
<polygon fill="midnightblue" stroke="midnightblue" points="1047.89,-209.215 1057.43,-204.605 1047.1,-202.26 1047.89,-209.215"/>
</g>
<!-- Node39 -->
<g id="node39" class="node"><title>Node39</title>
<g id="a_node39"><a xlink:href="make__unique_8h.xhtml" target="_top" xlink:title="ePub3/utilities/make\l_unique.h">
<polygon fill="white" stroke="red" points="389.254,-117 389.254,-149 494.746,-149 494.746,-117 389.254,-117"/>
<text text-anchor="start" x="397.254" y="-135" font-family="Helvetica,sans-Serif" font-size="10.00">ePub3/utilities/make</text>
<text text-anchor="middle" x="442" y="-123" font-family="Helvetica,sans-Serif" font-size="10.00">_unique.h</text>
</a>
</g>
</g>
<!-- Node38&#45;&gt;Node39 -->
<g id="edge58" class="edge"><title>Node38&#45;&gt;Node39</title>
<path fill="none" stroke="midnightblue" d="M705.575,-250.938C659.605,-230.543 547.184,-180.666 485.044,-153.097"/>
<polygon fill="midnightblue" stroke="midnightblue" points="486.447,-149.891 475.887,-149.034 483.608,-156.289 486.447,-149.891"/>
</g>
<!-- Node41 -->
<g id="node41" class="node"><title>Node41</title>
<polygon fill="white" stroke="#bfbfbf" points="676.867,-187 676.867,-207 765.133,-207 765.133,-187 676.867,-187"/>
<text text-anchor="middle" x="721" y="-193" font-family="Helvetica,sans-Serif" font-size="10.00">google&#45;url/gurl.h</text>
</g>
<!-- Node38&#45;&gt;Node41 -->
<g id="edge63" class="edge"><title>Node38&#45;&gt;Node41</title>
<path fill="none" stroke="midnightblue" d="M725.262,-250.852C724.553,-242.06 723.459,-228.498 722.558,-217.313"/>
<polygon fill="midnightblue" stroke="midnightblue" points="726.033,-216.872 721.741,-207.186 719.056,-217.435 726.033,-216.872"/>
</g>
<!-- Node38&#45;&gt;Node15 -->
<g id="edge64" class="edge"><title>Node38&#45;&gt;Node15</title>
<path fill="none" stroke="midnightblue" d="M738.128,-250.716C749.466,-241.292 765.837,-225.612 774,-208 792.119,-168.906 793.235,-117.237 792.251,-89.5359"/>
<polygon fill="midnightblue" stroke="midnightblue" points="795.732,-89.0538 791.744,-79.2381 788.74,-89.3981 795.732,-89.0538"/>
</g>
<!-- Node39&#45;&gt;Node12 -->
<g id="edge59" class="edge"><title>Node39&#45;&gt;Node12</title>
<path fill="none" stroke="midnightblue" d="M460.236,-116.835C485.285,-96.1565 528.241,-61.287 537,-58 608.664,-31.1066 1138.71,-16.8925 1304.55,-13.0695"/>
<polygon fill="midnightblue" stroke="midnightblue" points="1305.02,-16.5598 1314.94,-12.8327 1304.86,-9.56164 1305.02,-16.5598"/>
</g>
<!-- Node40 -->
<g id="node40" class="node"><title>Node40</title>
<polygon fill="white" stroke="#bfbfbf" points="403.879,-59 403.879,-79 452.121,-79 452.121,-59 403.879,-59"/>
<text text-anchor="middle" x="428" y="-65" font-family="Helvetica,sans-Serif" font-size="10.00">cstddef</text>
</g>
<!-- Node39&#45;&gt;Node40 -->
<g id="edge60" class="edge"><title>Node39&#45;&gt;Node40</title>
<path fill="none" stroke="midnightblue" d="M438.611,-116.992C436.724,-108.635 434.355,-98.1424 432.334,-89.1935"/>
<polygon fill="midnightblue" stroke="midnightblue" points="435.715,-88.2739 430.098,-79.2904 428.886,-89.8158 435.715,-88.2739"/>
</g>
<!-- Node39&#45;&gt;Node6 -->
<g id="edge61" class="edge"><title>Node39&#45;&gt;Node6</title>
<path fill="none" stroke="midnightblue" d="M450.02,-116.907C460.119,-99.5429 479.193,-71.6728 504,-58 555.841,-29.4266 731.774,-17.5254 808.604,-13.607"/>
<polygon fill="midnightblue" stroke="midnightblue" points="808.949,-17.0943 818.764,-13.1061 808.604,-10.1028 808.949,-17.0943"/>
</g>
<!-- Node39&#45;&gt;Node7 -->
<g id="edge62" class="edge"><title>Node39&#45;&gt;Node7</title>
<path fill="none" stroke="midnightblue" d="M474.68,-116.992C497.011,-106.736 526.344,-93.2642 547.876,-83.3756"/>
<polygon fill="midnightblue" stroke="midnightblue" points="549.54,-86.4629 557.166,-79.1088 546.618,-80.1017 549.54,-86.4629"/>
</g>
<!-- Node46&#45;&gt;Node10 -->
<g id="edge70" class="edge"><title>Node46&#45;&gt;Node10</title>
<path fill="none" stroke="midnightblue" d="M1434.37,-246.956C1429.86,-245.897 1425.36,-244.893 1421,-244 1343.49,-228.118 1253.73,-215.084 1192.53,-206.996"/>
<polygon fill="midnightblue" stroke="midnightblue" points="1192.96,-203.521 1182.59,-205.691 1192.05,-210.462 1192.96,-203.521"/>
</g>
<!-- Node47&#45;&gt;Node11 -->
<g id="edge73" class="edge"><title>Node47&#45;&gt;Node11</title>
<path fill="none" stroke="midnightblue" d="M2393.12,-314.857C2374.25,-297.953 2331.13,-261.906 2288,-244 2102.21,-166.862 1862.28,-143.701 1747.68,-136.837"/>
<polygon fill="midnightblue" stroke="midnightblue" points="1747.84,-133.34 1737.65,-136.258 1747.43,-140.328 1747.84,-133.34"/>
</g>
<!-- Node48 -->
<g id="node48" class="node"><title>Node48</title>
<polygon fill="white" stroke="#bfbfbf" points="2450.61,-251 2450.61,-271 2489.39,-271 2489.39,-251 2450.61,-251"/>
<text text-anchor="middle" x="2470" y="-257" font-family="Helvetica,sans-Serif" font-size="10.00">array</text>
</g>
<!-- Node47&#45;&gt;Node48 -->
<g id="edge74" class="edge"><title>Node47&#45;&gt;Node48</title>
<path fill="none" stroke="midnightblue" d="M2412.89,-314.852C2423.28,-305.236 2439.84,-289.913 2452.45,-278.236"/>
<polygon fill="midnightblue" stroke="midnightblue" points="2455.11,-280.547 2460.07,-271.186 2450.36,-275.409 2455.11,-280.547"/>
</g>
<!-- Node49 -->
<g id="node49" class="node"><title>Node49</title>
<polygon fill="white" stroke="#bfbfbf" points="2507.83,-251 2507.83,-271 2582.17,-271 2582.17,-251 2507.83,-251"/>
<text text-anchor="middle" x="2545" y="-257" font-family="Helvetica,sans-Serif" font-size="10.00">system_error</text>
</g>
<!-- Node47&#45;&gt;Node49 -->
<g id="edge75" class="edge"><title>Node47&#45;&gt;Node49</title>
<path fill="none" stroke="midnightblue" d="M2423.65,-314.985C2447.63,-304.516 2487.39,-287.154 2514.83,-275.174"/>
<polygon fill="midnightblue" stroke="midnightblue" points="2516.56,-278.235 2524.33,-271.026 2513.76,-271.82 2516.56,-278.235"/>
</g>
<!-- Node50 -->
<g id="node50" class="node"><title>Node50</title>
<polygon fill="white" stroke="#bfbfbf" points="2373.6,-251 2373.6,-271 2432.4,-271 2432.4,-251 2373.6,-251"/>
<text text-anchor="middle" x="2403" y="-257" font-family="Helvetica,sans-Serif" font-size="10.00">functional</text>
</g>
<!-- Node47&#45;&gt;Node50 -->
<g id="edge76" class="edge"><title>Node47&#45;&gt;Node50</title>
<path fill="none" stroke="midnightblue" d="M2403,-314.852C2403,-306.06 2403,-292.498 2403,-281.313"/>
<polygon fill="midnightblue" stroke="midnightblue" points="2406.5,-281.186 2403,-271.186 2399.5,-281.186 2406.5,-281.186"/>
</g>
</g>
</svg>
