<?xml version="1.0" encoding="UTF-8" standalone="no"?>
<!DOCTYPE svg PUBLIC "-//W3C//DTD SVG 1.1//EN"
 "http://www.w3.org/Graphics/SVG/1.1/DTD/svg11.dtd">
<!-- Generated by graphviz version 2.30.0 (20130114.0426)
 -->
<!-- Title: /Users/rkwright/Documents/github/readium&#45;sdk&#45;D/ePub3/xml/tree/node_win.cpp Pages: 1 -->
<svg width="1028pt" height="170pt"
 viewBox="0.00 0.00 1028.00 170.00" xmlns="http://www.w3.org/2000/svg" xmlns:xlink="http://www.w3.org/1999/xlink">
<g id="graph0" class="graph" transform="scale(1 1) rotate(0) translate(4 166)">
<title>/Users/rkwright/Documents/github/readium&#45;sdk&#45;D/ePub3/xml/tree/node_win.cpp</title>
<polygon fill="white" stroke="white" points="-4,5 -4,-166 1025,-166 1025,5 -4,5"/>
<!-- Node1 -->
<g id="node1" class="node"><title>Node1</title>
<polygon fill="#bfbfbf" stroke="black" points="556.966,-117 556.966,-161 703.034,-161 703.034,-117 556.966,-117"/>
<text text-anchor="start" x="564.966" y="-147" font-family="Helvetica,sans-Serif" font-size="10.00">/Users/rkwright/Documents</text>
<text text-anchor="start" x="564.966" y="-135" font-family="Helvetica,sans-Serif" font-size="10.00">/github/readium&#45;sdk&#45;D/ePub3</text>
<text text-anchor="middle" x="630" y="-123" font-family="Helvetica,sans-Serif" font-size="10.00">/xml/tree/node_win.cpp</text>
</g>
<!-- Node2 -->
<g id="node2" class="node"><title>Node2</title>
<g id="a_node2"><a xlink:href="node_8h.xhtml" target="_top" xlink:title="node.h">
<polygon fill="white" stroke="black" points="649.707,-59 649.707,-79 696.293,-79 696.293,-59 649.707,-59"/>
<text text-anchor="middle" x="673" y="-65" font-family="Helvetica,sans-Serif" font-size="10.00">node.h</text>
</a>
</g>
</g>
<!-- Node1&#45;&gt;Node2 -->
<g id="edge1" class="edge"><title>Node1&#45;&gt;Node2</title>
<path fill="none" stroke="midnightblue" d="M643.37,-116.857C649.236,-107.581 656.049,-96.8065 661.662,-87.9302"/>
<polygon fill="midnightblue" stroke="midnightblue" points="664.793,-89.5265 667.18,-79.2039 658.877,-85.7853 664.793,-89.5265"/>
</g>
<!-- Node11 -->
<g id="node11" class="node"><title>Node11</title>
<g id="a_node11"><a xlink:href="ns_8h.xhtml" target="_top" xlink:title="../validation/ns.h">
<polygon fill="white" stroke="black" points="543.867,-59 543.867,-79 632.133,-79 632.133,-59 543.867,-59"/>
<text text-anchor="middle" x="588" y="-65" font-family="Helvetica,sans-Serif" font-size="10.00">../validation/ns.h</text>
</a>
</g>
</g>
<!-- Node1&#45;&gt;Node11 -->
<g id="edge10" class="edge"><title>Node1&#45;&gt;Node11</title>
<path fill="none" stroke="midnightblue" d="M616.941,-116.857C611.212,-107.581 604.557,-96.8065 599.075,-87.9302"/>
<polygon fill="midnightblue" stroke="midnightblue" points="601.918,-85.8727 593.685,-79.2039 595.962,-89.5512 601.918,-85.8727"/>
</g>
<!-- Node12 -->
<g id="node12" class="node"><title>Node12</title>
<g id="a_node12"><a xlink:href="xpath_8h.xhtml" target="_top" xlink:title="xpath.h">
<polygon fill="white" stroke="black" points="124.599,-59 124.599,-79 173.401,-79 173.401,-59 124.599,-59"/>
<text text-anchor="middle" x="149" y="-65" font-family="Helvetica,sans-Serif" font-size="10.00">xpath.h</text>
</a>
</g>
</g>
<!-- Node1&#45;&gt;Node12 -->
<g id="edge14" class="edge"><title>Node1&#45;&gt;Node12</title>
<path fill="none" stroke="midnightblue" d="M556.907,-128.755C472.495,-117.899 329.516,-98.9554 207,-80 199.347,-78.8159 191.142,-77.4565 183.382,-76.1293"/>
<polygon fill="midnightblue" stroke="midnightblue" points="183.973,-72.6796 173.522,-74.4206 182.778,-79.5768 183.973,-72.6796"/>
</g>
<!-- Node15 -->
<g id="node15" class="node"><title>Node15</title>
<g id="a_node15"><a xlink:href="element_8h.xhtml" target="_top" xlink:title="element.h">
<polygon fill="white" stroke="black" points="446.042,-59 446.042,-79 505.958,-79 505.958,-59 446.042,-59"/>
<text text-anchor="middle" x="476" y="-65" font-family="Helvetica,sans-Serif" font-size="10.00">element.h</text>
</a>
</g>
</g>
<!-- Node1&#45;&gt;Node15 -->
<g id="edge18" class="edge"><title>Node1&#45;&gt;Node15</title>
<path fill="none" stroke="midnightblue" d="M582.118,-116.857C557.156,-105.835 527.407,-92.6994 505.768,-83.1443"/>
<polygon fill="midnightblue" stroke="midnightblue" points="507.004,-79.8642 496.443,-79.0266 504.177,-86.2677 507.004,-79.8642"/>
</g>
<!-- Node16 -->
<g id="node16" class="node"><title>Node16</title>
<g id="a_node16"><a xlink:href="document_8h.xhtml" target="_top" xlink:title="document.h">
<polygon fill="white" stroke="black" points="215.872,-59 215.872,-79 284.128,-79 284.128,-59 215.872,-59"/>
<text text-anchor="middle" x="250" y="-65" font-family="Helvetica,sans-Serif" font-size="10.00">document.h</text>
</a>
</g>
</g>
<!-- Node1&#45;&gt;Node16 -->
<g id="edge22" class="edge"><title>Node1&#45;&gt;Node16</title>
<path fill="none" stroke="midnightblue" d="M556.732,-124.889C479.099,-110.997 359.015,-89.5079 294.542,-77.9707"/>
<polygon fill="midnightblue" stroke="midnightblue" points="294.769,-74.4557 284.309,-76.1394 293.536,-81.3463 294.769,-74.4557"/>
</g>
<!-- Node18 -->
<g id="node18" class="node"><title>Node18</title>
<g id="a_node18"><a xlink:href="dtd_8h.xhtml" target="_top" xlink:title="../validation/dtd.h">
<polygon fill="white" stroke="black" points="329.197,-59 329.197,-79 420.803,-79 420.803,-59 329.197,-59"/>
<text text-anchor="middle" x="375" y="-65" font-family="Helvetica,sans-Serif" font-size="10.00">../validation/dtd.h</text>
</a>
</g>
</g>
<!-- Node1&#45;&gt;Node18 -->
<g id="edge25" class="edge"><title>Node1&#45;&gt;Node18</title>
<path fill="none" stroke="midnightblue" d="M556.927,-118.514C512.209,-106.589 456.495,-91.7321 418.585,-81.6227"/>
<polygon fill="midnightblue" stroke="midnightblue" points="419.433,-78.2267 408.869,-79.0318 417.63,-84.9903 419.433,-78.2267"/>
</g>
<!-- Node7 -->
<g id="node7" class="node"><title>Node7</title>
<polygon fill="white" stroke="#bfbfbf" points="979.773,-1 979.773,-21 1020.23,-21 1020.23,-1 979.773,-1"/>
<text text-anchor="middle" x="1000" y="-7" font-family="Helvetica,sans-Serif" font-size="10.00">string</text>
</g>
<!-- Node1&#45;&gt;Node7 -->
<g id="edge28" class="edge"><title>Node1&#45;&gt;Node7</title>
<path fill="none" stroke="midnightblue" d="M656.72,-116.922C684.006,-95.8003 724.856,-65.3874 743,-58 834.652,-20.6829 868.634,-44.6248 969.499,-21.705"/>
<polygon fill="midnightblue" stroke="midnightblue" points="970.552,-25.0523 979.473,-19.337 968.935,-18.2416 970.552,-25.0523"/>
</g>
<!-- Node19 -->
<g id="node19" class="node"><title>Node19</title>
<polygon fill="white" stroke="#bfbfbf" points="752.219,-59 752.219,-79 803.781,-79 803.781,-59 752.219,-59"/>
<text text-anchor="middle" x="778" y="-65" font-family="Helvetica,sans-Serif" font-size="10.00">sstream</text>
</g>
<!-- Node1&#45;&gt;Node19 -->
<g id="edge29" class="edge"><title>Node1&#45;&gt;Node19</title>
<path fill="none" stroke="midnightblue" d="M676.017,-116.857C699.898,-105.885 728.338,-92.8177 749.11,-83.2737"/>
<polygon fill="midnightblue" stroke="midnightblue" points="750.728,-86.382 758.354,-79.0266 747.806,-80.0213 750.728,-86.382"/>
</g>
<!-- Node20 -->
<g id="node20" class="node"><title>Node20</title>
<polygon fill="white" stroke="#bfbfbf" points="821.828,-59 821.828,-79 866.172,-79 866.172,-59 821.828,-59"/>
<text text-anchor="middle" x="844" y="-65" font-family="Helvetica,sans-Serif" font-size="10.00">cstdlib</text>
</g>
<!-- Node1&#45;&gt;Node20 -->
<g id="edge30" class="edge"><title>Node1&#45;&gt;Node20</title>
<path fill="none" stroke="midnightblue" d="M696.245,-116.95C734.735,-104.72 781.497,-89.8608 811.963,-80.1799"/>
<polygon fill="midnightblue" stroke="midnightblue" points="813.165,-83.4707 821.635,-77.1066 811.045,-76.7994 813.165,-83.4707"/>
</g>
<!-- Node21 -->
<g id="node21" class="node"><title>Node21</title>
<polygon fill="white" stroke="#bfbfbf" points="883.985,-59 883.985,-79 950.015,-79 950.015,-59 883.985,-59"/>
<text text-anchor="middle" x="917" y="-65" font-family="Helvetica,sans-Serif" font-size="10.00">collection.h</text>
</g>
<!-- Node1&#45;&gt;Node21 -->
<g id="edge31" class="edge"><title>Node1&#45;&gt;Node21</title>
<path fill="none" stroke="midnightblue" d="M703.174,-120.703C749.399,-109.77 810.669,-95.2683 873.444,-80.3675"/>
<polygon fill="midnightblue" stroke="midnightblue" points="874.609,-83.6883 883.53,-77.9731 872.992,-76.8776 874.609,-83.6883"/>
</g>
<!-- Node3 -->
<g id="node3" class="node"><title>Node3</title>
<polygon fill="white" stroke="#bfbfbf" points="326.976,-1 326.976,-21 423.024,-21 423.024,-1 326.976,-1"/>
<text text-anchor="middle" x="375" y="-7" font-family="Helvetica,sans-Serif" font-size="10.00">ePub3/xml/base.h</text>
</g>
<!-- Node2&#45;&gt;Node3 -->
<g id="edge2" class="edge"><title>Node2&#45;&gt;Node3</title>
<path fill="none" stroke="midnightblue" d="M649.681,-60.3213C646.774,-59.4799 643.829,-58.6825 641,-58 552.414,-36.6284 526.565,-38.0213 433.077,-22.1635"/>
<polygon fill="midnightblue" stroke="midnightblue" points="433.648,-18.7104 423.2,-20.467 432.463,-25.6094 433.648,-18.7104"/>
</g>
<!-- Node4 -->
<g id="node4" class="node"><title>Node4</title>
<polygon fill="white" stroke="#bfbfbf" points="440.537,-1 440.537,-21 525.463,-21 525.463,-1 440.537,-1"/>
<text text-anchor="middle" x="483" y="-7" font-family="Helvetica,sans-Serif" font-size="10.00">ePub3/xml/ns.h</text>
</g>
<!-- Node2&#45;&gt;Node4 -->
<g id="edge3" class="edge"><title>Node2&#45;&gt;Node4</title>
<path fill="none" stroke="midnightblue" d="M649.598,-60.6288C646.705,-59.7347 643.786,-58.8408 641,-58 601.635,-46.1202 556.593,-33.0588 524.699,-23.8993"/>
<polygon fill="midnightblue" stroke="midnightblue" points="525.408,-20.4613 514.83,-21.069 523.478,-27.1901 525.408,-20.4613"/>
</g>
<!-- Node5 -->
<g id="node5" class="node"><title>Node5</title>
<polygon fill="white" stroke="#bfbfbf" points="543.815,-1 543.815,-21 658.185,-21 658.185,-1 543.815,-1"/>
<text text-anchor="middle" x="601" y="-7" font-family="Helvetica,sans-Serif" font-size="10.00">ePub3/xml/xmlstring.h</text>
</g>
<!-- Node2&#45;&gt;Node5 -->
<g id="edge4" class="edge"><title>Node2&#45;&gt;Node5</title>
<path fill="none" stroke="midnightblue" d="M661.111,-58.7527C650.102,-50.1903 633.526,-37.2978 620.567,-27.2186"/>
<polygon fill="midnightblue" stroke="midnightblue" points="622.71,-24.4519 612.668,-21.0752 618.413,-29.9774 622.71,-24.4519"/>
</g>
<!-- Node6 -->
<g id="node6" class="node"><title>Node6</title>
<polygon fill="white" stroke="#bfbfbf" points="738.079,-1 738.079,-21 861.921,-21 861.921,-1 738.079,-1"/>
<text text-anchor="middle" x="800" y="-7" font-family="Helvetica,sans-Serif" font-size="10.00">ePub3/xml/node_traits.h</text>
</g>
<!-- Node2&#45;&gt;Node6 -->
<g id="edge5" class="edge"><title>Node2&#45;&gt;Node6</title>
<path fill="none" stroke="midnightblue" d="M693.687,-58.878C714.444,-49.7255 746.624,-35.5357 770.145,-25.1643"/>
<polygon fill="midnightblue" stroke="midnightblue" points="771.584,-28.3553 779.321,-21.1181 768.759,-21.9503 771.584,-28.3553"/>
</g>
<!-- Node2&#45;&gt;Node7 -->
<g id="edge6" class="edge"><title>Node2&#45;&gt;Node7</title>
<path fill="none" stroke="midnightblue" d="M696.381,-61.2018C700.877,-60.0309 705.566,-58.9024 710,-58 821.189,-35.3712 854.589,-47.8296 969.59,-21.6895"/>
<polygon fill="midnightblue" stroke="midnightblue" points="970.537,-25.0629 979.486,-19.3917 968.954,-18.2442 970.537,-25.0629"/>
</g>
<!-- Node8 -->
<g id="node8" class="node"><title>Node8</title>
<polygon fill="white" stroke="#bfbfbf" points="879.5,-1 879.5,-21 908.5,-21 908.5,-1 879.5,-1"/>
<text text-anchor="middle" x="893.611" y="-7" font-family="Helvetica,sans-Serif" font-size="10.00">list</text>
</g>
<!-- Node2&#45;&gt;Node8 -->
<g id="edge7" class="edge"><title>Node2&#45;&gt;Node8</title>
<path fill="none" stroke="midnightblue" d="M696.449,-61.5008C700.938,-60.3023 705.608,-59.0871 710,-58 780.754,-40.4873 800.542,-44.1002 870,-22 870.097,-21.9692 870.194,-21.9382 870.291,-21.9069"/>
<polygon fill="midnightblue" stroke="midnightblue" points="871.251,-25.283 879.427,-18.5447 868.834,-18.7137 871.251,-25.283"/>
</g>
<!-- Node9 -->
<g id="node9" class="node"><title>Node9</title>
<polygon fill="white" stroke="#bfbfbf" points="926.273,-1 926.273,-21 961.727,-21 961.727,-1 926.273,-1"/>
<text text-anchor="middle" x="944" y="-7" font-family="Helvetica,sans-Serif" font-size="10.00">map</text>
</g>
<!-- Node2&#45;&gt;Node9 -->
<g id="edge8" class="edge"><title>Node2&#45;&gt;Node9</title>
<path fill="none" stroke="midnightblue" d="M696.408,-61.3257C700.901,-60.1434 705.582,-58.9789 710,-58 798.053,-38.4873 825.009,-45.7685 916.21,-21.7988"/>
<polygon fill="midnightblue" stroke="midnightblue" points="917.388,-25.1065 926.139,-19.134 915.574,-18.3457 917.388,-25.1065"/>
</g>
<!-- Node10 -->
<g id="node10" class="node"><title>Node10</title>
<polygon fill="white" stroke="#bfbfbf" points="676.384,-1 676.384,-21 719.616,-21 719.616,-1 676.384,-1"/>
<text text-anchor="middle" x="698" y="-7" font-family="Helvetica,sans-Serif" font-size="10.00">vector</text>
</g>
<!-- Node2&#45;&gt;Node10 -->
<g id="edge9" class="edge"><title>Node2&#45;&gt;Node10</title>
<path fill="none" stroke="midnightblue" d="M677.128,-58.7527C680.55,-51.0873 685.522,-39.9515 689.754,-30.4708"/>
<polygon fill="midnightblue" stroke="midnightblue" points="693.068,-31.6334 693.949,-21.0752 686.676,-28.7798 693.068,-31.6334"/>
</g>
<!-- Node11&#45;&gt;Node3 -->
<g id="edge11" class="edge"><title>Node11&#45;&gt;Node3</title>
<path fill="none" stroke="midnightblue" d="M553.304,-58.878C516.681,-49.2494 458.854,-34.046 419.039,-23.5783"/>
<polygon fill="midnightblue" stroke="midnightblue" points="419.89,-20.1831 409.328,-21.0253 418.11,-26.953 419.89,-20.1831"/>
</g>
<!-- Node11&#45;&gt;Node5 -->
<g id="edge12" class="edge"><title>Node11&#45;&gt;Node5</title>
<path fill="none" stroke="midnightblue" d="M590.147,-58.7527C591.888,-51.2504 594.402,-40.4238 596.571,-31.0781"/>
<polygon fill="midnightblue" stroke="midnightblue" points="600.041,-31.6076 598.893,-21.0752 593.223,-30.0247 600.041,-31.6076"/>
</g>
<!-- Node11&#45;&gt;Node10 -->
<g id="edge13" class="edge"><title>Node11&#45;&gt;Node10</title>
<path fill="none" stroke="midnightblue" d="M606.164,-58.7527C623.864,-49.7418 650.984,-35.9353 671.17,-25.6589"/>
<polygon fill="midnightblue" stroke="midnightblue" points="672.85,-28.7312 680.174,-21.0752 669.674,-22.493 672.85,-28.7312"/>
</g>
<!-- Node12&#45;&gt;Node3 -->
<g id="edge15" class="edge"><title>Node12&#45;&gt;Node3</title>
<path fill="none" stroke="midnightblue" d="M173.616,-61.9004C210.707,-52.7098 281.574,-35.1499 328.568,-23.5052"/>
<polygon fill="midnightblue" stroke="midnightblue" points="329.64,-26.8455 338.505,-21.0431 327.957,-20.051 329.64,-26.8455"/>
</g>
<!-- Node13 -->
<g id="node13" class="node"><title>Node13</title>
<polygon fill="white" stroke="#bfbfbf" points="76.6948,-1 76.6948,-21 173.305,-21 173.305,-1 76.6948,-1"/>
<text text-anchor="middle" x="125" y="-7" font-family="Helvetica,sans-Serif" font-size="10.00">ePub3/xml/node.h</text>
</g>
<!-- Node12&#45;&gt;Node13 -->
<g id="edge16" class="edge"><title>Node12&#45;&gt;Node13</title>
<path fill="none" stroke="midnightblue" d="M145.037,-58.7527C141.752,-51.0873 136.979,-39.9515 132.916,-30.4708"/>
<polygon fill="midnightblue" stroke="midnightblue" points="136.046,-28.8879 128.889,-21.0752 129.612,-31.6454 136.046,-28.8879"/>
</g>
<!-- Node14 -->
<g id="node14" class="node"><title>Node14</title>
<polygon fill="white" stroke="#bfbfbf" points="-0.403809,-1 -0.403809,-21 58.4038,-21 58.4038,-1 -0.403809,-1"/>
<text text-anchor="middle" x="29" y="-7" font-family="Helvetica,sans-Serif" font-size="10.00">functional</text>
</g>
<!-- Node12&#45;&gt;Node14 -->
<g id="edge17" class="edge"><title>Node12&#45;&gt;Node14</title>
<path fill="none" stroke="midnightblue" d="M129.453,-58.878C110.015,-49.8068 79.9734,-35.7876 57.8038,-25.4418"/>
<polygon fill="midnightblue" stroke="midnightblue" points="59.0807,-22.1754 48.5388,-21.1181 56.1205,-28.5187 59.0807,-22.1754"/>
</g>
<!-- Node15&#45;&gt;Node3 -->
<g id="edge19" class="edge"><title>Node15&#45;&gt;Node3</title>
<path fill="none" stroke="midnightblue" d="M459.322,-58.7527C443.217,-49.8233 418.619,-36.1848 400.14,-25.9388"/>
<polygon fill="midnightblue" stroke="midnightblue" points="401.811,-22.8633 391.368,-21.0752 398.416,-28.9853 401.811,-22.8633"/>
</g>
<!-- Node15&#45;&gt;Node13 -->
<g id="edge20" class="edge"><title>Node15&#45;&gt;Node13</title>
<path fill="none" stroke="midnightblue" d="M445.969,-61.3073C440.343,-60.1396 434.502,-58.9852 429,-58 322.998,-39.0191 293.26,-39.5378 183.642,-22.2235"/>
<polygon fill="midnightblue" stroke="midnightblue" points="183.92,-18.7238 173.494,-20.606 182.818,-25.6365 183.92,-18.7238"/>
</g>
<!-- Node15&#45;&gt;Node4 -->
<g id="edge21" class="edge"><title>Node15&#45;&gt;Node4</title>
<path fill="none" stroke="midnightblue" d="M477.156,-58.7527C478.094,-51.2504 479.447,-40.4238 480.615,-31.0781"/>
<polygon fill="midnightblue" stroke="midnightblue" points="484.098,-31.4321 481.866,-21.0752 477.152,-30.5638 484.098,-31.4321"/>
</g>
<!-- Node16&#45;&gt;Node13 -->
<g id="edge23" class="edge"><title>Node16&#45;&gt;Node13</title>
<path fill="none" stroke="midnightblue" d="M229.638,-58.878C209.299,-49.7661 177.816,-35.6617 154.694,-25.3028"/>
<polygon fill="midnightblue" stroke="midnightblue" points="155.91,-22.0125 145.353,-21.1181 153.048,-28.4007 155.91,-22.0125"/>
</g>
<!-- Node17 -->
<g id="node17" class="node"><title>Node17</title>
<polygon fill="white" stroke="#bfbfbf" points="190.86,-1 190.86,-21 309.14,-21 309.14,-1 190.86,-1"/>
<text text-anchor="middle" x="250" y="-7" font-family="Helvetica,sans-Serif" font-size="10.00">ePub3/xml/document.h</text>
</g>
<!-- Node16&#45;&gt;Node17 -->
<g id="edge24" class="edge"><title>Node16&#45;&gt;Node17</title>
<path fill="none" stroke="midnightblue" d="M250,-58.7527C250,-51.2504 250,-40.4238 250,-31.0781"/>
<polygon fill="midnightblue" stroke="midnightblue" points="253.5,-31.0752 250,-21.0752 246.5,-31.0752 253.5,-31.0752"/>
</g>
<!-- Node18&#45;&gt;Node3 -->
<g id="edge26" class="edge"><title>Node18&#45;&gt;Node3</title>
<path fill="none" stroke="midnightblue" d="M375,-58.7527C375,-51.2504 375,-40.4238 375,-31.0781"/>
<polygon fill="midnightblue" stroke="midnightblue" points="378.5,-31.0752 375,-21.0752 371.5,-31.0752 378.5,-31.0752"/>
</g>
<!-- Node18&#45;&gt;Node17 -->
<g id="edge27" class="edge"><title>Node18&#45;&gt;Node17</title>
<path fill="none" stroke="midnightblue" d="M354.638,-58.878C334.299,-49.7661 302.816,-35.6617 279.694,-25.3028"/>
<polygon fill="midnightblue" stroke="midnightblue" points="280.91,-22.0125 270.353,-21.1181 278.048,-28.4007 280.91,-22.0125"/>
</g>
</g>
</svg>
