<?xml version="1.0" encoding="UTF-8" standalone="no"?>
<!DOCTYPE svg PUBLIC "-//W3C//DTD SVG 1.1//EN"
 "http://www.w3.org/Graphics/SVG/1.1/DTD/svg11.dtd">
<!-- Generated by graphviz version 2.30.0 (20130114.0426)
 -->
<!-- Title: /Users/rkwright/Documents/github/readium&#45;sdk&#45;D/ePub3/xml/tree/node.h Pages: 1 -->
<svg width="700pt" height="112pt"
 viewBox="0.00 0.00 700.00 112.00" xmlns="http://www.w3.org/2000/svg" xmlns:xlink="http://www.w3.org/1999/xlink">
<g id="graph0" class="graph" transform="scale(1 1) rotate(0) translate(4 108)">
<title>/Users/rkwright/Documents/github/readium&#45;sdk&#45;D/ePub3/xml/tree/node.h</title>
<polygon fill="white" stroke="white" points="-4,5 -4,-108 697,-108 697,5 -4,5"/>
<!-- Node1 -->
<g id="node1" class="node"><title>Node1</title>
<polygon fill="#bfbfbf" stroke="black" points="387.966,-59 387.966,-103 534.034,-103 534.034,-59 387.966,-59"/>
<text text-anchor="start" x="395.966" y="-89" font-family="Helvetica,sans-Serif" font-size="10.00">/Users/rkwright/Documents</text>
<text text-anchor="start" x="395.966" y="-77" font-family="Helvetica,sans-Serif" font-size="10.00">/github/readium&#45;sdk&#45;D/ePub3</text>
<text text-anchor="middle" x="461" y="-65" font-family="Helvetica,sans-Serif" font-size="10.00">/xml/tree/node.h</text>
</g>
<!-- Node2 -->
<g id="node2" class="node"><title>Node2</title>
<polygon fill="white" stroke="#bfbfbf" points="-0.0244141,-1 -0.0244141,-21 96.0244,-21 96.0244,-1 -0.0244141,-1"/>
<text text-anchor="middle" x="48" y="-7" font-family="Helvetica,sans-Serif" font-size="10.00">ePub3/xml/base.h</text>
</g>
<!-- Node1&#45;&gt;Node2 -->
<g id="edge1" class="edge"><title>Node1&#45;&gt;Node2</title>
<path fill="none" stroke="midnightblue" d="M387.662,-68.3189C317.905,-57.147 209.728,-39.6642 106.198,-22.1887"/>
<polygon fill="midnightblue" stroke="midnightblue" points="106.638,-18.7135 96.1949,-20.4977 105.472,-25.6156 106.638,-18.7135"/>
</g>
<!-- Node3 -->
<g id="node3" class="node"><title>Node3</title>
<polygon fill="white" stroke="#bfbfbf" points="113.537,-1 113.537,-21 198.463,-21 198.463,-1 113.537,-1"/>
<text text-anchor="middle" x="156" y="-7" font-family="Helvetica,sans-Serif" font-size="10.00">ePub3/xml/ns.h</text>
</g>
<!-- Node1&#45;&gt;Node3 -->
<g id="edge2" class="edge"><title>Node1&#45;&gt;Node3</title>
<path fill="none" stroke="midnightblue" d="M387.945,-63.7123C331.888,-51.2143 255.96,-34.2861 206.488,-23.2562"/>
<polygon fill="midnightblue" stroke="midnightblue" points="207.176,-19.824 196.654,-21.0639 205.653,-26.6562 207.176,-19.824"/>
</g>
<!-- Node4 -->
<g id="node4" class="node"><title>Node4</title>
<polygon fill="white" stroke="#bfbfbf" points="216.815,-1 216.815,-21 331.185,-21 331.185,-1 216.815,-1"/>
<text text-anchor="middle" x="274" y="-7" font-family="Helvetica,sans-Serif" font-size="10.00">ePub3/xml/xmlstring.h</text>
</g>
<!-- Node1&#45;&gt;Node4 -->
<g id="edge3" class="edge"><title>Node1&#45;&gt;Node4</title>
<path fill="none" stroke="midnightblue" d="M403.113,-58.9501C372.105,-47.6747 334.955,-34.1653 308.482,-24.5387"/>
<polygon fill="midnightblue" stroke="midnightblue" points="309.487,-21.1803 298.893,-21.0521 307.095,-27.7589 309.487,-21.1803"/>
</g>
<!-- Node5 -->
<g id="node5" class="node"><title>Node5</title>
<polygon fill="white" stroke="#bfbfbf" points="349.079,-1 349.079,-21 472.921,-21 472.921,-1 349.079,-1"/>
<text text-anchor="middle" x="411" y="-7" font-family="Helvetica,sans-Serif" font-size="10.00">ePub3/xml/node_traits.h</text>
</g>
<!-- Node1&#45;&gt;Node5 -->
<g id="edge4" class="edge"><title>Node1&#45;&gt;Node5</title>
<path fill="none" stroke="midnightblue" d="M445.454,-58.8571C438.488,-49.3832 430.373,-38.3473 423.769,-29.3662"/>
<polygon fill="midnightblue" stroke="midnightblue" points="426.511,-27.1871 417.768,-21.2039 420.872,-31.3338 426.511,-27.1871"/>
</g>
<!-- Node6 -->
<g id="node6" class="node"><title>Node6</title>
<polygon fill="white" stroke="#bfbfbf" points="490.773,-1 490.773,-21 531.227,-21 531.227,-1 490.773,-1"/>
<text text-anchor="middle" x="511" y="-7" font-family="Helvetica,sans-Serif" font-size="10.00">string</text>
</g>
<!-- Node1&#45;&gt;Node6 -->
<g id="edge5" class="edge"><title>Node1&#45;&gt;Node6</title>
<path fill="none" stroke="midnightblue" d="M476.546,-58.8571C483.512,-49.3832 491.627,-38.3473 498.231,-29.3662"/>
<polygon fill="midnightblue" stroke="midnightblue" points="501.128,-31.3338 504.232,-21.2039 495.489,-27.1871 501.128,-31.3338"/>
</g>
<!-- Node7 -->
<g id="node7" class="node"><title>Node7</title>
<polygon fill="white" stroke="#bfbfbf" points="549.5,-1 549.5,-21 578.5,-21 578.5,-1 549.5,-1"/>
<text text-anchor="middle" x="563.611" y="-7" font-family="Helvetica,sans-Serif" font-size="10.00">list</text>
</g>
<!-- Node1&#45;&gt;Node7 -->
<g id="edge6" class="edge"><title>Node1&#45;&gt;Node7</title>
<path fill="none" stroke="midnightblue" d="M493.025,-58.8571C508.818,-48.431 527.475,-36.1133 541.697,-26.7243"/>
<polygon fill="midnightblue" stroke="midnightblue" points="543.91,-29.4571 550.327,-21.0266 540.054,-23.6153 543.91,-29.4571"/>
</g>
<!-- Node8 -->
<g id="node8" class="node"><title>Node8</title>
<polygon fill="white" stroke="#bfbfbf" points="596.273,-1 596.273,-21 631.727,-21 631.727,-1 596.273,-1"/>
<text text-anchor="middle" x="614" y="-7" font-family="Helvetica,sans-Serif" font-size="10.00">map</text>
</g>
<!-- Node1&#45;&gt;Node8 -->
<g id="edge7" class="edge"><title>Node1&#45;&gt;Node8</title>
<path fill="none" stroke="midnightblue" d="M508.571,-58.8571C534.284,-47.4295 565.109,-33.7295 586.766,-24.104"/>
<polygon fill="midnightblue" stroke="midnightblue" points="588.304,-27.2508 596.02,-19.991 585.461,-20.8541 588.304,-27.2508"/>
</g>
<!-- Node9 -->
<g id="node9" class="node"><title>Node9</title>
<polygon fill="white" stroke="#bfbfbf" points="649.384,-1 649.384,-21 692.616,-21 692.616,-1 649.384,-1"/>
<text text-anchor="middle" x="671" y="-7" font-family="Helvetica,sans-Serif" font-size="10.00">vector</text>
</g>
<!-- Node1&#45;&gt;Node9 -->
<g id="edge8" class="edge"><title>Node1&#45;&gt;Node9</title>
<path fill="none" stroke="midnightblue" d="M526.007,-58.9501C563.721,-46.7379 609.528,-31.9052 639.428,-22.2233"/>
<polygon fill="midnightblue" stroke="midnightblue" points="640.866,-25.4368 649.301,-19.0263 638.709,-18.7772 640.866,-25.4368"/>
</g>
</g>
</svg>
