<?xml version="1.0" encoding="UTF-8" standalone="no"?>
<!DOCTYPE svg PUBLIC "-//W3C//DTD SVG 1.1//EN"
 "http://www.w3.org/Graphics/SVG/1.1/DTD/svg11.dtd">
<!-- Generated by graphviz version 2.30.0 (20130114.0426)
 -->
<!-- Title: /Users/rkwright/Documents/github/readium&#45;sdk&#45;D/ePub3/xml/validation/ns.cpp Pages: 1 -->
<svg width="333pt" height="170pt"
 viewBox="0.00 0.00 333.00 170.00" xmlns="http://www.w3.org/2000/svg" xmlns:xlink="http://www.w3.org/1999/xlink">
<g id="graph0" class="graph" transform="scale(1 1) rotate(0) translate(4 166)">
<title>/Users/rkwright/Documents/github/readium&#45;sdk&#45;D/ePub3/xml/validation/ns.cpp</title>
<polygon fill="white" stroke="white" points="-4,5 -4,-166 330,-166 330,5 -4,5"/>
<!-- Node1 -->
<g id="node1" class="node"><title>Node1</title>
<polygon fill="#bfbfbf" stroke="black" points="144.966,-117 144.966,-161 291.034,-161 291.034,-117 144.966,-117"/>
<text text-anchor="start" x="152.966" y="-147" font-family="Helvetica,sans-Serif" font-size="10.00">/Users/rkwright/Documents</text>
<text text-anchor="start" x="152.966" y="-135" font-family="Helvetica,sans-Serif" font-size="10.00">/github/readium&#45;sdk&#45;D/ePub3</text>
<text text-anchor="middle" x="218" y="-123" font-family="Helvetica,sans-Serif" font-size="10.00">/xml/validation/ns.cpp</text>
</g>
<!-- Node2 -->
<g id="node2" class="node"><title>Node2</title>
<g id="a_node2"><a xlink:href="ns_8h.xhtml" target="_top" xlink:title="ns.h">
<polygon fill="white" stroke="black" points="153.549,-59 153.549,-79 188.451,-79 188.451,-59 153.549,-59"/>
<text text-anchor="middle" x="171" y="-65" font-family="Helvetica,sans-Serif" font-size="10.00">ns.h</text>
</a>
</g>
</g>
<!-- Node1&#45;&gt;Node2 -->
<g id="edge1" class="edge"><title>Node1&#45;&gt;Node2</title>
<path fill="none" stroke="midnightblue" d="M203.387,-116.857C196.907,-107.482 189.369,-96.5771 183.198,-87.6475"/>
<polygon fill="midnightblue" stroke="midnightblue" points="185.927,-85.4402 177.362,-79.2039 180.168,-89.4203 185.927,-85.4402"/>
</g>
<!-- Node6 -->
<g id="node6" class="node"><title>Node6</title>
<polygon fill="white" stroke="#bfbfbf" points="206.86,-59 206.86,-79 325.14,-79 325.14,-59 206.86,-59"/>
<text text-anchor="middle" x="266" y="-65" font-family="Helvetica,sans-Serif" font-size="10.00">ePub3/xml/document.h</text>
</g>
<!-- Node1&#45;&gt;Node6 -->
<g id="edge5" class="edge"><title>Node1&#45;&gt;Node6</title>
<path fill="none" stroke="midnightblue" d="M232.924,-116.857C239.542,-107.482 247.24,-96.5771 253.543,-87.6475"/>
<polygon fill="midnightblue" stroke="midnightblue" points="256.596,-89.392 259.503,-79.2039 250.877,-85.3552 256.596,-89.392"/>
</g>
<!-- Node3 -->
<g id="node3" class="node"><title>Node3</title>
<polygon fill="white" stroke="#bfbfbf" points="-0.0244141,-1 -0.0244141,-21 96.0244,-21 96.0244,-1 -0.0244141,-1"/>
<text text-anchor="middle" x="48" y="-7" font-family="Helvetica,sans-Serif" font-size="10.00">ePub3/xml/base.h</text>
</g>
<!-- Node2&#45;&gt;Node3 -->
<g id="edge2" class="edge"><title>Node2&#45;&gt;Node3</title>
<path fill="none" stroke="midnightblue" d="M153.377,-59.9766C133.527,-50.9391 100.951,-36.108 77.2669,-25.3248"/>
<polygon fill="midnightblue" stroke="midnightblue" points="78.5915,-22.0822 68.0401,-21.124 75.691,-28.453 78.5915,-22.0822"/>
</g>
<!-- Node4 -->
<g id="node4" class="node"><title>Node4</title>
<polygon fill="white" stroke="#bfbfbf" points="113.815,-1 113.815,-21 228.185,-21 228.185,-1 113.815,-1"/>
<text text-anchor="middle" x="171" y="-7" font-family="Helvetica,sans-Serif" font-size="10.00">ePub3/xml/xmlstring.h</text>
</g>
<!-- Node2&#45;&gt;Node4 -->
<g id="edge3" class="edge"><title>Node2&#45;&gt;Node4</title>
<path fill="none" stroke="midnightblue" d="M171,-58.7527C171,-51.2504 171,-40.4238 171,-31.0781"/>
<polygon fill="midnightblue" stroke="midnightblue" points="174.5,-31.0752 171,-21.0752 167.5,-31.0752 174.5,-31.0752"/>
</g>
<!-- Node5 -->
<g id="node5" class="node"><title>Node5</title>
<polygon fill="white" stroke="#bfbfbf" points="246.384,-1 246.384,-21 289.616,-21 289.616,-1 246.384,-1"/>
<text text-anchor="middle" x="268" y="-7" font-family="Helvetica,sans-Serif" font-size="10.00">vector</text>
</g>
<!-- Node2&#45;&gt;Node5 -->
<g id="edge4" class="edge"><title>Node2&#45;&gt;Node5</title>
<path fill="none" stroke="midnightblue" d="M187.018,-58.7527C202.414,-49.8641 225.893,-36.3092 243.613,-26.0793"/>
<polygon fill="midnightblue" stroke="midnightblue" points="245.37,-29.1062 252.28,-21.0752 241.87,-23.0439 245.37,-29.1062"/>
</g>
</g>
</svg>
