<?xml version="1.0" encoding="UTF-8" standalone="no"?>
<!DOCTYPE svg PUBLIC "-//W3C//DTD SVG 1.1//EN"
 "http://www.w3.org/Graphics/SVG/1.1/DTD/svg11.dtd">
<!-- Generated by graphviz version 2.30.0 (20130114.0426)
 -->
<!-- Title: /Users/rkwright/Documents/github/readium&#45;sdk&#45;D/ePub3/xml/validation/ns.h Pages: 1 -->
<svg width="297pt" height="112pt"
 viewBox="0.00 0.00 297.00 112.00" xmlns="http://www.w3.org/2000/svg" xmlns:xlink="http://www.w3.org/1999/xlink">
<g id="graph0" class="graph" transform="scale(1 1) rotate(0) translate(4 108)">
<title>/Users/rkwright/Documents/github/readium&#45;sdk&#45;D/ePub3/xml/validation/ns.h</title>
<polygon fill="white" stroke="white" points="-4,5 -4,-108 294,-108 294,5 -4,5"/>
<!-- Node1 -->
<g id="node1" class="node"><title>Node1</title>
<polygon fill="#bfbfbf" stroke="black" points="97.9658,-59 97.9658,-103 244.034,-103 244.034,-59 97.9658,-59"/>
<text text-anchor="start" x="105.966" y="-89" font-family="Helvetica,sans-Serif" font-size="10.00">/Users/rkwright/Documents</text>
<text text-anchor="start" x="105.966" y="-77" font-family="Helvetica,sans-Serif" font-size="10.00">/github/readium&#45;sdk&#45;D/ePub3</text>
<text text-anchor="middle" x="171" y="-65" font-family="Helvetica,sans-Serif" font-size="10.00">/xml/validation/ns.h</text>
</g>
<!-- Node2 -->
<g id="node2" class="node"><title>Node2</title>
<polygon fill="white" stroke="#bfbfbf" points="-0.0244141,-1 -0.0244141,-21 96.0244,-21 96.0244,-1 -0.0244141,-1"/>
<text text-anchor="middle" x="48" y="-7" font-family="Helvetica,sans-Serif" font-size="10.00">ePub3/xml/base.h</text>
</g>
<!-- Node1&#45;&gt;Node2 -->
<g id="edge1" class="edge"><title>Node1&#45;&gt;Node2</title>
<path fill="none" stroke="midnightblue" d="M132.756,-58.8571C113.358,-48.1331 90.3408,-35.4079 73.1911,-25.9268"/>
<polygon fill="midnightblue" stroke="midnightblue" points="74.7726,-22.8019 64.3275,-21.0266 71.3857,-28.928 74.7726,-22.8019"/>
</g>
<!-- Node3 -->
<g id="node3" class="node"><title>Node3</title>
<polygon fill="white" stroke="#bfbfbf" points="113.815,-1 113.815,-21 228.185,-21 228.185,-1 113.815,-1"/>
<text text-anchor="middle" x="171" y="-7" font-family="Helvetica,sans-Serif" font-size="10.00">ePub3/xml/xmlstring.h</text>
</g>
<!-- Node1&#45;&gt;Node3 -->
<g id="edge2" class="edge"><title>Node1&#45;&gt;Node3</title>
<path fill="none" stroke="midnightblue" d="M171,-58.8571C171,-50.074 171,-39.9484 171,-31.3622"/>
<polygon fill="midnightblue" stroke="midnightblue" points="174.5,-31.2039 171,-21.2039 167.5,-31.204 174.5,-31.2039"/>
</g>
<!-- Node4 -->
<g id="node4" class="node"><title>Node4</title>
<polygon fill="white" stroke="#bfbfbf" points="246.384,-1 246.384,-21 289.616,-21 289.616,-1 246.384,-1"/>
<text text-anchor="middle" x="268" y="-7" font-family="Helvetica,sans-Serif" font-size="10.00">vector</text>
</g>
<!-- Node1&#45;&gt;Node4 -->
<g id="edge3" class="edge"><title>Node1&#45;&gt;Node4</title>
<path fill="none" stroke="midnightblue" d="M201.16,-58.8571C215.891,-48.5303 233.269,-36.3478 246.612,-26.9933"/>
<polygon fill="midnightblue" stroke="midnightblue" points="248.945,-29.6328 255.124,-21.0266 244.926,-23.901 248.945,-29.6328"/>
</g>
</g>
</svg>
