<?xml version="1.0" encoding="UTF-8" standalone="no"?>
<!DOCTYPE svg PUBLIC "-//W3C//DTD SVG 1.1//EN"
 "http://www.w3.org/Graphics/SVG/1.1/DTD/svg11.dtd">
<!-- Generated by graphviz version 2.30.0 (20130114.0426)
 -->
<!-- Title: /Users/rkwright/Documents/github/readium&#45;sdk&#45;D/ePub3/ePub/object_preprocessor.cpp Pages: 1 -->
<svg width="2184pt" height="542pt"
 viewBox="0.00 0.00 2184.00 542.00" xmlns="http://www.w3.org/2000/svg" xmlns:xlink="http://www.w3.org/1999/xlink">
<g id="graph0" class="graph" transform="scale(1 1) rotate(0) translate(4 538)">
<title>/Users/rkwright/Documents/github/readium&#45;sdk&#45;D/ePub3/ePub/object_preprocessor.cpp</title>
<polygon fill="white" stroke="white" points="-4,5 -4,-538 2181,-538 2181,5 -4,5"/>
<!-- Node1 -->
<g id="node1" class="node"><title>Node1</title>
<polygon fill="#bfbfbf" stroke="black" points="210.064,-489 210.064,-533 363.936,-533 363.936,-489 210.064,-489"/>
<text text-anchor="start" x="218.064" y="-519" font-family="Helvetica,sans-Serif" font-size="10.00">/Users/rkwright/Documents</text>
<text text-anchor="start" x="218.064" y="-507" font-family="Helvetica,sans-Serif" font-size="10.00">/github/readium&#45;sdk&#45;D/ePub3</text>
<text text-anchor="middle" x="287" y="-495" font-family="Helvetica,sans-Serif" font-size="10.00">/ePub/object_preprocessor.cpp</text>
</g>
<!-- Node2 -->
<g id="node2" class="node"><title>Node2</title>
<g id="a_node2"><a xlink:href="object__preprocessor_8h.xhtml" target="_top" xlink:title="object_preprocessor.h">
<polygon fill="white" stroke="black" points="229.801,-431 229.801,-451 344.199,-451 344.199,-431 229.801,-431"/>
<text text-anchor="middle" x="287" y="-437" font-family="Helvetica,sans-Serif" font-size="10.00">object_preprocessor.h</text>
</a>
</g>
</g>
<!-- Node1&#45;&gt;Node2 -->
<g id="edge1" class="edge"><title>Node1&#45;&gt;Node2</title>
<path fill="none" stroke="midnightblue" d="M287,-488.857C287,-480.074 287,-469.948 287,-461.362"/>
<polygon fill="midnightblue" stroke="midnightblue" points="290.5,-461.204 287,-451.204 283.5,-461.204 290.5,-461.204"/>
</g>
<!-- Node36 -->
<g id="node36" class="node"><title>Node36</title>
<g id="a_node36"><a xlink:href="package_8h.xhtml" target="_top" xlink:title="package.h">
<polygon fill="white" stroke="black" points="1215.93,-431 1215.93,-451 1278.07,-451 1278.07,-431 1215.93,-431"/>
<text text-anchor="middle" x="1247" y="-437" font-family="Helvetica,sans-Serif" font-size="10.00">package.h</text>
</a>
</g>
</g>
<!-- Node1&#45;&gt;Node36 -->
<g id="edge46" class="edge"><title>Node1&#45;&gt;Node36</title>
<path fill="none" stroke="midnightblue" d="M363.938,-504.55C557.292,-490.854 1058.59,-455.346 1205.79,-444.919"/>
<polygon fill="midnightblue" stroke="midnightblue" points="1206.04,-448.41 1215.76,-444.213 1205.54,-441.428 1206.04,-448.41"/>
</g>
<!-- Node49 -->
<g id="node49" class="node"><title>Node49</title>
<g id="a_node49"><a xlink:href="filter__manager_8h.xhtml" target="_top" xlink:title="filter_manager.h">
<polygon fill="white" stroke="black" points="116.143,-431 116.143,-451 203.857,-451 203.857,-431 116.143,-431"/>
<text text-anchor="middle" x="160" y="-437" font-family="Helvetica,sans-Serif" font-size="10.00">filter_manager.h</text>
</a>
</g>
</g>
<!-- Node1&#45;&gt;Node49 -->
<g id="edge71" class="edge"><title>Node1&#45;&gt;Node49</title>
<path fill="none" stroke="midnightblue" d="M247.513,-488.857C227.484,-478.133 203.718,-465.408 186.01,-455.927"/>
<polygon fill="midnightblue" stroke="midnightblue" points="187.326,-452.661 176.858,-451.027 184.022,-458.832 187.326,-452.661"/>
</g>
<!-- Node3 -->
<g id="node3" class="node"><title>Node3</title>
<polygon fill="white" stroke="#bfbfbf" points="245.079,-367 245.079,-387 328.921,-387 328.921,-367 245.079,-367"/>
<text text-anchor="middle" x="287" y="-373" font-family="Helvetica,sans-Serif" font-size="10.00">ePub3/epub3.h</text>
</g>
<!-- Node2&#45;&gt;Node3 -->
<g id="edge2" class="edge"><title>Node2&#45;&gt;Node3</title>
<path fill="none" stroke="midnightblue" d="M287,-430.852C287,-422.06 287,-408.498 287,-397.313"/>
<polygon fill="midnightblue" stroke="midnightblue" points="290.5,-397.186 287,-387.186 283.5,-397.186 290.5,-397.186"/>
</g>
<!-- Node4 -->
<g id="node4" class="node"><title>Node4</title>
<polygon fill="white" stroke="#bfbfbf" points="114.811,-367 114.811,-387 189.189,-387 189.189,-367 114.811,-367"/>
<text text-anchor="middle" x="152" y="-373" font-family="Helvetica,sans-Serif" font-size="10.00">ePub3/filter.h</text>
</g>
<!-- Node2&#45;&gt;Node4 -->
<g id="edge3" class="edge"><title>Node2&#45;&gt;Node4</title>
<path fill="none" stroke="midnightblue" d="M267.37,-430.985C244.674,-420.561 207.103,-403.307 181.029,-391.332"/>
<polygon fill="midnightblue" stroke="midnightblue" points="182.202,-388.019 171.654,-387.026 179.281,-394.38 182.202,-388.019"/>
</g>
<!-- Node5 -->
<g id="node5" class="node"><title>Node5</title>
<g id="a_node5"><a xlink:href="iri_8h.xhtml" target="_top" xlink:title="ePub3/utilities/iri.h">
<polygon fill="white" stroke="black" points="492.424,-367 492.424,-387 589.576,-387 589.576,-367 492.424,-367"/>
<text text-anchor="middle" x="541" y="-373" font-family="Helvetica,sans-Serif" font-size="10.00">ePub3/utilities/iri.h</text>
</a>
</g>
</g>
<!-- Node2&#45;&gt;Node5 -->
<g id="edge4" class="edge"><title>Node2&#45;&gt;Node5</title>
<path fill="none" stroke="midnightblue" d="M327.653,-430.941C367.371,-421.977 429.49,-407.655 483,-394 488.314,-392.644 493.887,-391.171 499.391,-389.687"/>
<polygon fill="midnightblue" stroke="midnightblue" points="500.423,-393.033 509.149,-387.025 498.581,-386.28 500.423,-393.033"/>
</g>
<!-- Node35 -->
<g id="node35" class="node"><title>Node35</title>
<polygon fill="white" stroke="#bfbfbf" points="347.395,-367 347.395,-387 474.605,-387 474.605,-367 347.395,-367"/>
<text text-anchor="middle" x="411" y="-373" font-family="Helvetica,sans-Serif" font-size="10.00">ePub3/content_handler.h</text>
</g>
<!-- Node2&#45;&gt;Node35 -->
<g id="edge44" class="edge"><title>Node2&#45;&gt;Node35</title>
<path fill="none" stroke="midnightblue" d="M305.031,-430.985C325.693,-420.653 359.78,-403.61 383.701,-391.65"/>
<polygon fill="midnightblue" stroke="midnightblue" points="385.569,-394.629 392.948,-387.026 382.438,-388.368 385.569,-394.629"/>
</g>
<!-- Node27 -->
<g id="node27" class="node"><title>Node27</title>
<polygon fill="white" stroke="#bfbfbf" points="362.766,-239 362.766,-259 463.234,-259 463.234,-239 362.766,-239"/>
<text text-anchor="middle" x="413" y="-245" font-family="Helvetica,sans-Serif" font-size="10.00">REGEX_INCLUDE</text>
</g>
<!-- Node2&#45;&gt;Node27 -->
<g id="edge45" class="edge"><title>Node2&#45;&gt;Node27</title>
<path fill="none" stroke="midnightblue" d="M271.257,-430.956C259.096,-422.98 243.171,-410.124 236,-394 218.024,-353.577 239.445,-329.624 274,-302 298.466,-282.441 331.042,-269.732 358.507,-261.778"/>
<polygon fill="midnightblue" stroke="midnightblue" points="359.66,-265.09 368.37,-259.058 357.8,-258.342 359.66,-265.09"/>
</g>
<!-- Node6 -->
<g id="node6" class="node"><title>Node6</title>
<g id="a_node6"><a xlink:href="utfstring_8h.xhtml" target="_top" xlink:title="ePub3/utilities/utfstring.h">
<polygon fill="white" stroke="black" points="909.525,-303 909.525,-323 1034.48,-323 1034.48,-303 909.525,-303"/>
<text text-anchor="middle" x="972" y="-309" font-family="Helvetica,sans-Serif" font-size="10.00">ePub3/utilities/utfstring.h</text>
</a>
</g>
</g>
<!-- Node5&#45;&gt;Node6 -->
<g id="edge5" class="edge"><title>Node5&#45;&gt;Node6</title>
<path fill="none" stroke="midnightblue" d="M589.794,-367.589C604.911,-365.059 621.632,-362.335 637,-360 727.123,-346.305 831.167,-332.3 899.087,-323.399"/>
<polygon fill="midnightblue" stroke="midnightblue" points="899.793,-326.837 909.254,-322.069 898.885,-319.896 899.793,-326.837"/>
</g>
<!-- Node31 -->
<g id="node31" class="node"><title>Node31</title>
<g id="a_node31"><a xlink:href="make__unique_8h.xhtml" target="_top" xlink:title="ePub3/utilities/make\l_unique.h">
<polygon fill="white" stroke="black" points="201.254,-233 201.254,-265 306.746,-265 306.746,-233 201.254,-233"/>
<text text-anchor="start" x="209.254" y="-251" font-family="Helvetica,sans-Serif" font-size="10.00">ePub3/utilities/make</text>
<text text-anchor="middle" x="254" y="-239" font-family="Helvetica,sans-Serif" font-size="10.00">_unique.h</text>
</a>
</g>
</g>
<!-- Node5&#45;&gt;Node31 -->
<g id="edge36" class="edge"><title>Node5&#45;&gt;Node31</title>
<path fill="none" stroke="midnightblue" d="M510.439,-366.962C501.628,-364.522 491.971,-362.005 483,-360 391.012,-339.442 343.688,-387.466 274,-324 260.649,-311.841 255.833,-291.783 254.254,-275.614"/>
<polygon fill="midnightblue" stroke="midnightblue" points="257.72,-274.954 253.613,-265.187 250.733,-275.383 257.72,-274.954"/>
</g>
<!-- Node34 -->
<g id="node34" class="node"><title>Node34</title>
<polygon fill="white" stroke="#bfbfbf" points="282.867,-303 282.867,-323 371.133,-323 371.133,-303 282.867,-303"/>
<text text-anchor="middle" x="327" y="-309" font-family="Helvetica,sans-Serif" font-size="10.00">google&#45;url/gurl.h</text>
</g>
<!-- Node5&#45;&gt;Node34 -->
<g id="edge42" class="edge"><title>Node5&#45;&gt;Node34</title>
<path fill="none" stroke="midnightblue" d="M509.883,-366.985C472.4,-356.125 409.322,-337.85 367.926,-325.857"/>
<polygon fill="midnightblue" stroke="midnightblue" points="368.734,-322.447 358.155,-323.026 366.786,-329.171 368.734,-322.447"/>
</g>
<!-- Node15 -->
<g id="node15" class="node"><title>Node15</title>
<polygon fill="white" stroke="#bfbfbf" points="587.384,-175 587.384,-195 630.616,-195 630.616,-175 587.384,-175"/>
<text text-anchor="middle" x="609" y="-181" font-family="Helvetica,sans-Serif" font-size="10.00">vector</text>
</g>
<!-- Node5&#45;&gt;Node15 -->
<g id="edge43" class="edge"><title>Node5&#45;&gt;Node15</title>
<path fill="none" stroke="midnightblue" d="M506.131,-367C461.664,-353.437 386.632,-323.054 354,-266 346.498,-252.883 344.31,-243.595 354,-232 361.154,-223.44 510.359,-200.522 577.154,-190.64"/>
<polygon fill="midnightblue" stroke="midnightblue" points="577.749,-194.09 587.133,-189.17 576.729,-187.165 577.749,-194.09"/>
</g>
<!-- Node7 -->
<g id="node7" class="node"><title>Node7</title>
<g id="a_node7"><a xlink:href="basic_8h.xhtml" target="_top" xlink:title="ePub3/utilities/basic.h">
<polygon fill="white" stroke="black" points="686.638,-239 686.638,-259 799.362,-259 799.362,-239 686.638,-239"/>
<text text-anchor="middle" x="743" y="-245" font-family="Helvetica,sans-Serif" font-size="10.00">ePub3/utilities/basic.h</text>
</a>
</g>
</g>
<!-- Node6&#45;&gt;Node7 -->
<g id="edge6" class="edge"><title>Node6&#45;&gt;Node7</title>
<path fill="none" stroke="midnightblue" d="M938.701,-302.985C898.422,-292.079 830.521,-273.696 786.234,-261.705"/>
<polygon fill="midnightblue" stroke="midnightblue" points="786.906,-258.261 776.339,-259.026 785.077,-265.018 786.906,-258.261"/>
</g>
<!-- Node17 -->
<g id="node17" class="node"><title>Node17</title>
<g id="a_node17"><a xlink:href="integer__sequence_8h.xhtml" target="_top" xlink:title="ePub3/utilities/integer\l_sequence.h">
<polygon fill="white" stroke="black" points="481.192,-233 481.192,-265 592.808,-265 592.808,-233 481.192,-233"/>
<text text-anchor="start" x="489.192" y="-251" font-family="Helvetica,sans-Serif" font-size="10.00">ePub3/utilities/integer</text>
<text text-anchor="middle" x="537" y="-239" font-family="Helvetica,sans-Serif" font-size="10.00">_sequence.h</text>
</a>
</g>
</g>
<!-- Node6&#45;&gt;Node17 -->
<g id="edge16" class="edge"><title>Node6&#45;&gt;Node17</title>
<path fill="none" stroke="midnightblue" d="M909.293,-303.318C843.452,-294.169 736.921,-279.274 645,-266 631.414,-264.038 616.871,-261.906 603,-259.856"/>
<polygon fill="midnightblue" stroke="midnightblue" points="603.447,-256.384 593.043,-258.382 602.422,-263.309 603.447,-256.384"/>
</g>
<!-- Node18 -->
<g id="node18" class="node"><title>Node18</title>
<g id="a_node18"><a xlink:href="string__view_8h.xhtml" target="_top" xlink:title="ePub3/utilities/string\l_view.h">
<polygon fill="white" stroke="black" points="1174.25,-233 1174.25,-265 1279.75,-265 1279.75,-233 1174.25,-233"/>
<text text-anchor="start" x="1182.25" y="-251" font-family="Helvetica,sans-Serif" font-size="10.00">ePub3/utilities/string</text>
<text text-anchor="middle" x="1227" y="-239" font-family="Helvetica,sans-Serif" font-size="10.00">_view.h</text>
</a>
</g>
</g>
<!-- Node6&#45;&gt;Node18 -->
<g id="edge18" class="edge"><title>Node6&#45;&gt;Node18</title>
<path fill="none" stroke="midnightblue" d="M1009.08,-302.985C1049.66,-293.119 1115.41,-277.132 1164.09,-265.296"/>
<polygon fill="midnightblue" stroke="midnightblue" points="1165.01,-268.675 1173.9,-262.912 1163.35,-261.873 1165.01,-268.675"/>
</g>
<!-- Node20 -->
<g id="node20" class="node"><title>Node20</title>
<polygon fill="white" stroke="#bfbfbf" points="1345.77,-175 1345.77,-195 1386.23,-195 1386.23,-175 1345.77,-175"/>
<text text-anchor="middle" x="1366" y="-181" font-family="Helvetica,sans-Serif" font-size="10.00">string</text>
</g>
<!-- Node6&#45;&gt;Node20 -->
<g id="edge27" class="edge"><title>Node6&#45;&gt;Node20</title>
<path fill="none" stroke="midnightblue" d="M1034.59,-307.66C1113.73,-301.357 1244.9,-287.963 1288,-266 1303.04,-258.336 1333.67,-224.124 1351.75,-202.999"/>
<polygon fill="midnightblue" stroke="midnightblue" points="1354.64,-205.007 1358.44,-195.116 1349.3,-200.48 1354.64,-205.007"/>
</g>
<!-- Node25 -->
<g id="node25" class="node"><title>Node25</title>
<polygon fill="white" stroke="#bfbfbf" points="817.438,-239 817.438,-259 864.562,-259 864.562,-239 817.438,-239"/>
<text text-anchor="middle" x="841" y="-245" font-family="Helvetica,sans-Serif" font-size="10.00">iterator</text>
</g>
<!-- Node6&#45;&gt;Node25 -->
<g id="edge28" class="edge"><title>Node6&#45;&gt;Node25</title>
<path fill="none" stroke="midnightblue" d="M952.442,-302.908C932.637,-293.68 901.141,-278.949 874,-266 872.233,-265.157 870.414,-264.286 868.582,-263.405"/>
<polygon fill="midnightblue" stroke="midnightblue" points="870.008,-260.207 859.481,-259.011 866.965,-266.511 870.008,-260.207"/>
</g>
<!-- Node26 -->
<g id="node26" class="node"><title>Node26</title>
<polygon fill="white" stroke="#bfbfbf" points="882.936,-239 882.936,-259 925.064,-259 925.064,-239 882.936,-239"/>
<text text-anchor="middle" x="904" y="-245" font-family="Helvetica,sans-Serif" font-size="10.00">locale</text>
</g>
<!-- Node6&#45;&gt;Node26 -->
<g id="edge29" class="edge"><title>Node6&#45;&gt;Node26</title>
<path fill="none" stroke="midnightblue" d="M961.966,-302.852C951.42,-293.236 934.614,-277.913 921.807,-266.236"/>
<polygon fill="midnightblue" stroke="midnightblue" points="923.823,-263.337 914.075,-259.186 919.106,-268.51 923.823,-263.337"/>
</g>
<!-- Node6&#45;&gt;Node15 -->
<g id="edge30" class="edge"><title>Node6&#45;&gt;Node15</title>
<path fill="none" stroke="midnightblue" d="M909.383,-307.278C835.164,-300.81 716.668,-287.485 678,-266 651.65,-251.359 630.694,-222.544 619.067,-203.789"/>
<polygon fill="midnightblue" stroke="midnightblue" points="621.976,-201.834 613.858,-195.027 615.959,-205.411 621.976,-201.834"/>
</g>
<!-- Node6&#45;&gt;Node27 -->
<g id="edge31" class="edge"><title>Node6&#45;&gt;Node27</title>
<path fill="none" stroke="midnightblue" d="M909.172,-309.709C813.957,-305.453 627.71,-294.058 472,-266 465.625,-264.851 458.937,-263.341 452.447,-261.707"/>
<polygon fill="midnightblue" stroke="midnightblue" points="453.047,-258.245 442.484,-259.071 451.256,-265.012 453.047,-258.245"/>
</g>
<!-- Node28 -->
<g id="node28" class="node"><title>Node28</title>
<polygon fill="white" stroke="#bfbfbf" points="1336.27,-239 1336.27,-259 1371.73,-259 1371.73,-239 1336.27,-239"/>
<text text-anchor="middle" x="1354" y="-245" font-family="Helvetica,sans-Serif" font-size="10.00">map</text>
</g>
<!-- Node6&#45;&gt;Node28 -->
<g id="edge32" class="edge"><title>Node6&#45;&gt;Node28</title>
<path fill="none" stroke="midnightblue" d="M1034.65,-310.02C1105.72,-306.35 1224.43,-295.879 1322,-266 1324.44,-265.252 1326.93,-264.331 1329.37,-263.313"/>
<polygon fill="midnightblue" stroke="midnightblue" points="1330.9,-266.462 1338.48,-259.059 1327.94,-260.12 1330.9,-266.462"/>
</g>
<!-- Node29 -->
<g id="node29" class="node"><title>Node29</title>
<polygon fill="white" stroke="#bfbfbf" points="942.599,-239 942.599,-259 1001.4,-259 1001.4,-239 942.599,-239"/>
<text text-anchor="middle" x="972" y="-245" font-family="Helvetica,sans-Serif" font-size="10.00">stdexcept</text>
</g>
<!-- Node6&#45;&gt;Node29 -->
<g id="edge33" class="edge"><title>Node6&#45;&gt;Node29</title>
<path fill="none" stroke="midnightblue" d="M972,-302.852C972,-294.06 972,-280.498 972,-269.313"/>
<polygon fill="midnightblue" stroke="midnightblue" points="975.5,-269.186 972,-259.186 968.5,-269.186 975.5,-269.186"/>
</g>
<!-- Node21 -->
<g id="node21" class="node"><title>Node21</title>
<polygon fill="white" stroke="#bfbfbf" points="975.613,-175 975.613,-195 1014.39,-195 1014.39,-175 975.613,-175"/>
<text text-anchor="middle" x="995" y="-181" font-family="Helvetica,sans-Serif" font-size="10.00">limits</text>
</g>
<!-- Node6&#45;&gt;Node21 -->
<g id="edge34" class="edge"><title>Node6&#45;&gt;Node21</title>
<path fill="none" stroke="midnightblue" d="M1031.71,-302.913C1053.46,-296.397 1075.91,-285.21 1089,-266 1097.51,-253.512 1097,-244.82 1089,-232 1085.2,-225.918 1050.36,-209.849 1024.19,-198.421"/>
<polygon fill="midnightblue" stroke="midnightblue" points="1025.24,-195.06 1014.67,-194.299 1022.46,-201.484 1025.24,-195.06"/>
</g>
<!-- Node30 -->
<g id="node30" class="node"><title>Node30</title>
<polygon fill="white" stroke="#bfbfbf" points="1019.76,-239 1019.76,-259 1080.24,-259 1080.24,-239 1019.76,-239"/>
<text text-anchor="middle" x="1050" y="-245" font-family="Helvetica,sans-Serif" font-size="10.00">utf8/utf8.h</text>
</g>
<!-- Node6&#45;&gt;Node30 -->
<g id="edge35" class="edge"><title>Node6&#45;&gt;Node30</title>
<path fill="none" stroke="midnightblue" d="M983.509,-302.852C995.837,-293.053 1015.62,-277.327 1030.41,-265.573"/>
<polygon fill="midnightblue" stroke="midnightblue" points="1032.79,-268.148 1038.44,-259.186 1028.44,-262.668 1032.79,-268.148"/>
</g>
<!-- Node8 -->
<g id="node8" class="node"><title>Node8</title>
<g id="a_node8"><a xlink:href="base_8h.xhtml" target="_top" xlink:title="ePub3/base.h">
<polygon fill="white" stroke="black" points="564.141,-117 564.141,-137 641.859,-137 641.859,-117 564.141,-117"/>
<text text-anchor="middle" x="603" y="-123" font-family="Helvetica,sans-Serif" font-size="10.00">ePub3/base.h</text>
</a>
</g>
</g>
<!-- Node7&#45;&gt;Node8 -->
<g id="edge7" class="edge"><title>Node7&#45;&gt;Node8</title>
<path fill="none" stroke="midnightblue" d="M730.839,-238.635C717.643,-228.388 696.041,-211.37 678,-196 657.906,-178.882 635.576,-158.445 620.549,-144.475"/>
<polygon fill="midnightblue" stroke="midnightblue" points="622.711,-141.705 613.012,-137.441 617.935,-146.823 622.711,-141.705"/>
</g>
<!-- Node12 -->
<g id="node12" class="node"><title>Node12</title>
<polygon fill="white" stroke="#bfbfbf" points="686.815,-175 686.815,-195 801.185,-195 801.185,-175 686.815,-175"/>
<text text-anchor="middle" x="744" y="-181" font-family="Helvetica,sans-Serif" font-size="10.00">ePub3/xml/xmlstring.h</text>
</g>
<!-- Node7&#45;&gt;Node12 -->
<g id="edge11" class="edge"><title>Node7&#45;&gt;Node12</title>
<path fill="none" stroke="midnightblue" d="M743.148,-238.852C743.289,-230.06 743.508,-216.498 743.688,-205.313"/>
<polygon fill="midnightblue" stroke="midnightblue" points="747.19,-205.241 743.852,-195.186 740.191,-205.128 747.19,-205.241"/>
</g>
<!-- Node13 -->
<g id="node13" class="node"><title>Node13</title>
<polygon fill="white" stroke="#bfbfbf" points="819.219,-175 819.219,-195 870.781,-195 870.781,-175 819.219,-175"/>
<text text-anchor="middle" x="845" y="-181" font-family="Helvetica,sans-Serif" font-size="10.00">sstream</text>
</g>
<!-- Node7&#45;&gt;Node13 -->
<g id="edge12" class="edge"><title>Node7&#45;&gt;Node13</title>
<path fill="none" stroke="midnightblue" d="M758.05,-238.852C774.699,-228.732 801.746,-212.292 821.256,-200.432"/>
<polygon fill="midnightblue" stroke="midnightblue" points="823.161,-203.371 829.888,-195.186 819.525,-197.389 823.161,-203.371"/>
</g>
<!-- Node14 -->
<g id="node14" class="node"><title>Node14</title>
<polygon fill="white" stroke="#bfbfbf" points="996.943,-117 996.943,-137 1049.06,-137 1049.06,-117 996.943,-117"/>
<text text-anchor="middle" x="1023" y="-123" font-family="Helvetica,sans-Serif" font-size="10.00">memory</text>
</g>
<!-- Node7&#45;&gt;Node14 -->
<g id="edge13" class="edge"><title>Node7&#45;&gt;Node14</title>
<path fill="none" stroke="midnightblue" d="M769.773,-238.992C797.529,-229.37 841.961,-213.168 879,-196 897.408,-187.468 900.817,-183.001 919,-174 942.981,-162.129 970.721,-149.934 991.517,-141.086"/>
<polygon fill="midnightblue" stroke="midnightblue" points="992.985,-144.265 1000.83,-137.148 990.259,-137.818 992.985,-144.265"/>
</g>
<!-- Node7&#45;&gt;Node15 -->
<g id="edge14" class="edge"><title>Node7&#45;&gt;Node15</title>
<path fill="none" stroke="midnightblue" d="M723.515,-238.985C700.988,-228.561 663.695,-211.307 637.814,-199.332"/>
<polygon fill="midnightblue" stroke="midnightblue" points="639.054,-196.049 628.508,-195.026 636.114,-202.402 639.054,-196.049"/>
</g>
<!-- Node16 -->
<g id="node16" class="node"><title>Node16</title>
<polygon fill="white" stroke="#bfbfbf" points="928.5,-175 928.5,-195 957.5,-195 957.5,-175 928.5,-175"/>
<text text-anchor="middle" x="942.611" y="-181" font-family="Helvetica,sans-Serif" font-size="10.00">list</text>
</g>
<!-- Node7&#45;&gt;Node16 -->
<g id="edge15" class="edge"><title>Node7&#45;&gt;Node16</title>
<path fill="none" stroke="midnightblue" d="M773.999,-238.947C808.339,-228.832 865.298,-211.796 914,-196 915.456,-195.528 916.951,-195.035 918.458,-194.533"/>
<polygon fill="midnightblue" stroke="midnightblue" points="919.941,-197.726 928.282,-191.193 917.688,-191.098 919.941,-197.726"/>
</g>
<!-- Node9 -->
<g id="node9" class="node"><title>Node9</title>
<g id="a_node9"><a xlink:href="__config_8h.xhtml" target="_top" xlink:title="_config.h">
<polygon fill="white" stroke="black" points="539.707,-59 539.707,-79 596.293,-79 596.293,-59 539.707,-59"/>
<text text-anchor="middle" x="568" y="-65" font-family="Helvetica,sans-Serif" font-size="10.00">_config.h</text>
</a>
</g>
</g>
<!-- Node8&#45;&gt;Node9 -->
<g id="edge8" class="edge"><title>Node8&#45;&gt;Node9</title>
<path fill="none" stroke="midnightblue" d="M597.22,-116.753C592.277,-108.843 585.023,-97.2372 578.98,-87.5683"/>
<polygon fill="midnightblue" stroke="midnightblue" points="581.94,-85.7002 573.672,-79.0752 576.004,-89.4102 581.94,-85.7002"/>
</g>
<!-- Node11 -->
<g id="node11" class="node"><title>Node11</title>
<polygon fill="white" stroke="#bfbfbf" points="614.158,-59 614.158,-79 661.842,-79 661.842,-59 614.158,-59"/>
<text text-anchor="middle" x="638" y="-65" font-family="Helvetica,sans-Serif" font-size="10.00">stdlib.h</text>
</g>
<!-- Node8&#45;&gt;Node11 -->
<g id="edge10" class="edge"><title>Node8&#45;&gt;Node11</title>
<path fill="none" stroke="midnightblue" d="M608.78,-116.753C613.723,-108.843 620.977,-97.2372 627.02,-87.5683"/>
<polygon fill="midnightblue" stroke="midnightblue" points="629.996,-89.4102 632.328,-79.0752 624.06,-85.7002 629.996,-89.4102"/>
</g>
<!-- Node10 -->
<g id="node10" class="node"><title>Node10</title>
<g id="a_node10"><a xlink:href="__platform_8h.xhtml" target="_top" xlink:title="_platform.h">
<polygon fill="white" stroke="red" points="534.988,-1 534.988,-21 601.012,-21 601.012,-1 534.988,-1"/>
<text text-anchor="middle" x="568" y="-7" font-family="Helvetica,sans-Serif" font-size="10.00">_platform.h</text>
</a>
</g>
</g>
<!-- Node9&#45;&gt;Node10 -->
<g id="edge9" class="edge"><title>Node9&#45;&gt;Node10</title>
<path fill="none" stroke="midnightblue" d="M568,-58.7527C568,-51.2504 568,-40.4238 568,-31.0781"/>
<polygon fill="midnightblue" stroke="midnightblue" points="571.5,-31.0752 568,-21.0752 564.5,-31.0752 571.5,-31.0752"/>
</g>
<!-- Node17&#45;&gt;Node8 -->
<g id="edge17" class="edge"><title>Node17&#45;&gt;Node8</title>
<path fill="none" stroke="midnightblue" d="M545.359,-232.802C557.499,-210.728 579.977,-169.86 592.986,-146.207"/>
<polygon fill="midnightblue" stroke="midnightblue" points="596.171,-147.678 597.924,-137.229 590.038,-144.305 596.171,-147.678"/>
</g>
<!-- Node19 -->
<g id="node19" class="node"><title>Node19</title>
<polygon fill="white" stroke="#bfbfbf" points="1031.93,-175 1031.93,-195 1094.07,-195 1094.07,-175 1031.93,-175"/>
<text text-anchor="middle" x="1063" y="-181" font-family="Helvetica,sans-Serif" font-size="10.00">type_traits</text>
</g>
<!-- Node18&#45;&gt;Node19 -->
<g id="edge19" class="edge"><title>Node18&#45;&gt;Node19</title>
<path fill="none" stroke="midnightblue" d="M1187.3,-232.992C1159.56,-222.505 1122.93,-208.656 1096.63,-198.713"/>
<polygon fill="midnightblue" stroke="midnightblue" points="1097.69,-195.371 1087.09,-195.109 1095.21,-201.919 1097.69,-195.371"/>
</g>
<!-- Node18&#45;&gt;Node20 -->
<g id="edge20" class="edge"><title>Node18&#45;&gt;Node20</title>
<path fill="none" stroke="midnightblue" d="M1260.65,-232.992C1283.74,-222.689 1314.12,-209.143 1336.31,-199.242"/>
<polygon fill="midnightblue" stroke="midnightblue" points="1337.87,-202.379 1345.58,-195.109 1335.02,-195.986 1337.87,-202.379"/>
</g>
<!-- Node18&#45;&gt;Node21 -->
<g id="edge21" class="edge"><title>Node18&#45;&gt;Node21</title>
<path fill="none" stroke="midnightblue" d="M1174.25,-235.149C1127.81,-223.736 1062.74,-207.481 1024.18,-196.143"/>
<polygon fill="midnightblue" stroke="midnightblue" points="1025.09,-192.763 1014.5,-193.228 1023.07,-199.465 1025.09,-192.763"/>
</g>
<!-- Node22 -->
<g id="node22" class="node"><title>Node22</title>
<polygon fill="white" stroke="#bfbfbf" points="1273.83,-175 1273.83,-195 1328.17,-195 1328.17,-175 1273.83,-175"/>
<text text-anchor="middle" x="1301" y="-181" font-family="Helvetica,sans-Serif" font-size="10.00">iostream</text>
</g>
<!-- Node18&#45;&gt;Node22 -->
<g id="edge22" class="edge"><title>Node18&#45;&gt;Node22</title>
<path fill="none" stroke="midnightblue" d="M1244.91,-232.992C1256.2,-223.533 1270.76,-211.338 1282.21,-201.742"/>
<polygon fill="midnightblue" stroke="midnightblue" points="1284.49,-204.395 1289.91,-195.29 1280,-199.03 1284.49,-204.395"/>
</g>
<!-- Node23 -->
<g id="node23" class="node"><title>Node23</title>
<polygon fill="white" stroke="#bfbfbf" points="1198.44,-175 1198.44,-195 1255.56,-195 1255.56,-175 1198.44,-175"/>
<text text-anchor="middle" x="1227" y="-181" font-family="Helvetica,sans-Serif" font-size="10.00">algorithm</text>
</g>
<!-- Node18&#45;&gt;Node23 -->
<g id="edge23" class="edge"><title>Node18&#45;&gt;Node23</title>
<path fill="none" stroke="midnightblue" d="M1227,-232.992C1227,-224.726 1227,-214.373 1227,-205.489"/>
<polygon fill="midnightblue" stroke="midnightblue" points="1230.5,-205.29 1227,-195.29 1223.5,-205.29 1230.5,-205.29"/>
</g>
<!-- Node24 -->
<g id="node24" class="node"><title>Node24</title>
<g id="a_node24"><a xlink:href="____strhash_8h.xhtml" target="_top" xlink:title="__strhash.h">
<polygon fill="white" stroke="black" points="1111.87,-175 1111.87,-195 1180.13,-195 1180.13,-175 1111.87,-175"/>
<text text-anchor="middle" x="1146" y="-181" font-family="Helvetica,sans-Serif" font-size="10.00">__strhash.h</text>
</a>
</g>
</g>
<!-- Node18&#45;&gt;Node24 -->
<g id="edge24" class="edge"><title>Node18&#45;&gt;Node24</title>
<path fill="none" stroke="midnightblue" d="M1207.39,-232.992C1194.91,-223.441 1178.79,-211.101 1166.2,-201.463"/>
<polygon fill="midnightblue" stroke="midnightblue" points="1168.21,-198.589 1158.14,-195.29 1163.95,-204.148 1168.21,-198.589"/>
</g>
<!-- Node24&#45;&gt;Node8 -->
<g id="edge25" class="edge"><title>Node24&#45;&gt;Node8</title>
<path fill="none" stroke="midnightblue" d="M1111.82,-175.606C1108.84,-175.011 1105.88,-174.464 1103,-174 939.097,-147.529 742.322,-134.985 652.308,-130.296"/>
<polygon fill="midnightblue" stroke="midnightblue" points="652.293,-126.791 642.127,-129.776 651.935,-133.782 652.293,-126.791"/>
</g>
<!-- Node24&#45;&gt;Node14 -->
<g id="edge26" class="edge"><title>Node24&#45;&gt;Node14</title>
<path fill="none" stroke="midnightblue" d="M1125.96,-174.878C1105.95,-165.766 1074.97,-151.662 1052.22,-141.303"/>
<polygon fill="midnightblue" stroke="midnightblue" points="1053.58,-138.076 1043.03,-137.118 1050.68,-144.447 1053.58,-138.076"/>
</g>
<!-- Node31&#45;&gt;Node8 -->
<g id="edge37" class="edge"><title>Node31&#45;&gt;Node8</title>
<path fill="none" stroke="midnightblue" d="M294.297,-232.952C335.523,-217.676 401.504,-193.553 459,-174 494.34,-161.982 534.861,-149.119 563.897,-140.059"/>
<polygon fill="midnightblue" stroke="midnightblue" points="565.152,-143.334 573.661,-137.021 563.072,-136.65 565.152,-143.334"/>
</g>
<!-- Node32 -->
<g id="node32" class="node"><title>Node32</title>
<polygon fill="white" stroke="#bfbfbf" points="260.879,-175 260.879,-195 309.121,-195 309.121,-175 260.879,-175"/>
<text text-anchor="middle" x="285" y="-181" font-family="Helvetica,sans-Serif" font-size="10.00">cstddef</text>
</g>
<!-- Node31&#45;&gt;Node32 -->
<g id="edge38" class="edge"><title>Node31&#45;&gt;Node32</title>
<path fill="none" stroke="midnightblue" d="M261.504,-232.992C265.82,-224.359 271.276,-213.448 275.843,-204.314"/>
<polygon fill="midnightblue" stroke="midnightblue" points="279.013,-205.8 280.355,-195.29 272.752,-202.669 279.013,-205.8"/>
</g>
<!-- Node31&#45;&gt;Node14 -->
<g id="edge39" class="edge"><title>Node31&#45;&gt;Node14</title>
<path fill="none" stroke="midnightblue" d="M307.016,-235.275C311.743,-234.16 316.457,-233.055 321,-232 435.06,-205.512 462.447,-192.942 578,-174 728.797,-149.28 910.648,-135.387 986.751,-130.279"/>
<polygon fill="midnightblue" stroke="midnightblue" points="987.027,-133.769 996.774,-129.617 986.565,-126.784 987.027,-133.769"/>
</g>
<!-- Node31&#45;&gt;Node19 -->
<g id="edge40" class="edge"><title>Node31&#45;&gt;Node19</title>
<path fill="none" stroke="midnightblue" d="M306.797,-238.491C321.991,-236.043 338.615,-233.64 354,-232 646.761,-200.789 726.762,-239.425 1021.54,-195.947"/>
<polygon fill="midnightblue" stroke="midnightblue" points="1022.3,-199.373 1031.67,-194.434 1021.26,-192.45 1022.3,-199.373"/>
</g>
<!-- Node33 -->
<g id="node33" class="node"><title>Node33</title>
<polygon fill="white" stroke="#bfbfbf" points="203.608,-175 203.608,-195 242.392,-195 242.392,-175 203.608,-175"/>
<text text-anchor="middle" x="223" y="-181" font-family="Helvetica,sans-Serif" font-size="10.00">utility</text>
</g>
<!-- Node31&#45;&gt;Node33 -->
<g id="edge41" class="edge"><title>Node31&#45;&gt;Node33</title>
<path fill="none" stroke="midnightblue" d="M246.496,-232.992C242.18,-224.359 236.724,-213.448 232.157,-204.314"/>
<polygon fill="midnightblue" stroke="midnightblue" points="235.248,-202.669 227.645,-195.29 228.987,-205.8 235.248,-202.669"/>
</g>
<!-- Node36&#45;&gt;Node3 -->
<g id="edge47" class="edge"><title>Node36&#45;&gt;Node3</title>
<path fill="none" stroke="midnightblue" d="M1215.64,-439.478C1076.24,-436.995 512.008,-425.176 338,-394 332.462,-393.008 326.687,-391.588 321.098,-389.999"/>
<polygon fill="midnightblue" stroke="midnightblue" points="321.915,-386.589 311.329,-387.012 319.868,-393.284 321.915,-386.589"/>
</g>
<!-- Node36&#45;&gt;Node20 -->
<g id="edge48" class="edge"><title>Node36&#45;&gt;Node20</title>
<path fill="none" stroke="midnightblue" d="M1258.1,-430.934C1285.9,-407.358 1357.89,-340.744 1380,-266 1386.1,-245.37 1379.96,-220.914 1374,-204.52"/>
<polygon fill="midnightblue" stroke="midnightblue" points="1377.17,-203.039 1370.24,-195.032 1370.67,-205.618 1377.17,-203.039"/>
</g>
<!-- Node36&#45;&gt;Node15 -->
<g id="edge49" class="edge"><title>Node36&#45;&gt;Node15</title>
<path fill="none" stroke="midnightblue" d="M1215.92,-439.9C1097.55,-439.22 679.398,-433.986 637,-394 609.997,-368.534 608.24,-251.863 608.648,-205.285"/>
<polygon fill="midnightblue" stroke="midnightblue" points="612.151,-205.097 608.784,-195.052 605.151,-205.004 612.151,-205.097"/>
</g>
<!-- Node36&#45;&gt;Node28 -->
<g id="edge50" class="edge"><title>Node36&#45;&gt;Node28</title>
<path fill="none" stroke="midnightblue" d="M1252.16,-430.836C1268.86,-401.178 1321.65,-307.446 1343.93,-267.89"/>
<polygon fill="midnightblue" stroke="midnightblue" points="1347.03,-269.503 1348.89,-259.072 1340.93,-266.068 1347.03,-269.503"/>
</g>
<!-- Node36&#45;&gt;Node16 -->
<g id="edge51" class="edge"><title>Node36&#45;&gt;Node16</title>
<path fill="none" stroke="midnightblue" d="M1243.64,-430.627C1237.87,-415.155 1225.11,-383.632 1209,-360 1165.08,-295.566 1155.39,-272.911 1089,-232 1040.87,-202.34 1020.28,-214.899 967,-196 966.904,-195.966 966.808,-195.932 966.712,-195.898"/>
<polygon fill="midnightblue" stroke="midnightblue" points="968.215,-192.726 957.625,-192.388 965.693,-199.256 968.215,-192.726"/>
</g>
<!-- Node37 -->
<g id="node37" class="node"><title>Node37</title>
<polygon fill="white" stroke="#bfbfbf" points="1369.69,-367 1369.69,-387 1466.31,-387 1466.31,-367 1369.69,-367"/>
<text text-anchor="middle" x="1418" y="-373" font-family="Helvetica,sans-Serif" font-size="10.00">ePub3/xml/node.h</text>
</g>
<!-- Node36&#45;&gt;Node37 -->
<g id="edge52" class="edge"><title>Node36&#45;&gt;Node37</title>
<path fill="none" stroke="midnightblue" d="M1271.86,-430.985C1301.25,-420.332 1350.31,-402.543 1383.39,-390.548"/>
<polygon fill="midnightblue" stroke="midnightblue" points="1384.9,-393.725 1393.11,-387.026 1382.51,-387.144 1384.9,-393.725"/>
</g>
<!-- Node38 -->
<g id="node38" class="node"><title>Node38</title>
<g id="a_node38"><a xlink:href="owned__by_8h.xhtml" target="_top" xlink:title="ePub3/utilities/owned_by.h">
<polygon fill="white" stroke="black" points="1427.88,-239 1427.88,-259 1562.12,-259 1562.12,-239 1427.88,-239"/>
<text text-anchor="middle" x="1495" y="-245" font-family="Helvetica,sans-Serif" font-size="10.00">ePub3/utilities/owned_by.h</text>
</a>
</g>
</g>
<!-- Node36&#45;&gt;Node38 -->
<g id="edge53" class="edge"><title>Node36&#45;&gt;Node38</title>
<path fill="none" stroke="midnightblue" d="M1278.08,-438.074C1334.07,-433.931 1448.51,-422.162 1475,-394 1506.9,-360.093 1503.21,-300.298 1498.66,-269.518"/>
<polygon fill="midnightblue" stroke="midnightblue" points="1502.05,-268.543 1496.95,-259.256 1495.14,-269.696 1502.05,-268.543"/>
</g>
<!-- Node39 -->
<g id="node39" class="node"><title>Node39</title>
<polygon fill="white" stroke="#bfbfbf" points="1521.91,-367 1521.91,-387 1624.09,-387 1624.09,-367 1521.91,-367"/>
<text text-anchor="middle" x="1573" y="-373" font-family="Helvetica,sans-Serif" font-size="10.00">ePub3/encryption.h</text>
</g>
<!-- Node36&#45;&gt;Node39 -->
<g id="edge56" class="edge"><title>Node36&#45;&gt;Node39</title>
<path fill="none" stroke="midnightblue" d="M1278.47,-435.152C1327.64,-427.418 1425.61,-411.38 1508,-394 1514.57,-392.614 1521.49,-391.038 1528.26,-389.43"/>
<polygon fill="midnightblue" stroke="midnightblue" points="1529.12,-392.822 1538.02,-387.067 1527.47,-386.019 1529.12,-392.822"/>
</g>
<!-- Node40 -->
<g id="node40" class="node"><title>Node40</title>
<polygon fill="white" stroke="#bfbfbf" points="1642.03,-367 1642.03,-387 1721.97,-387 1721.97,-367 1642.03,-367"/>
<text text-anchor="middle" x="1682" y="-373" font-family="Helvetica,sans-Serif" font-size="10.00">ePub3/spine.h</text>
</g>
<!-- Node36&#45;&gt;Node40 -->
<g id="edge57" class="edge"><title>Node36&#45;&gt;Node40</title>
<path fill="none" stroke="midnightblue" d="M1278.12,-438.375C1344.17,-434.471 1503.01,-422.676 1633,-394 1637.83,-392.936 1642.85,-391.586 1647.76,-390.124"/>
<polygon fill="midnightblue" stroke="midnightblue" points="1649.11,-393.369 1657.59,-387.019 1647,-386.695 1649.11,-393.369"/>
</g>
<!-- Node41 -->
<g id="node41" class="node"><title>Node41</title>
<polygon fill="white" stroke="#bfbfbf" points="1740.09,-367 1740.09,-387 1833.91,-387 1833.91,-367 1740.09,-367"/>
<text text-anchor="middle" x="1787" y="-373" font-family="Helvetica,sans-Serif" font-size="10.00">ePub3/manifest.h</text>
</g>
<!-- Node36&#45;&gt;Node41 -->
<g id="edge58" class="edge"><title>Node36&#45;&gt;Node41</title>
<path fill="none" stroke="midnightblue" d="M1278.35,-438.953C1355.68,-435.952 1561.49,-425.414 1730,-394 1736.02,-392.878 1742.33,-391.411 1748.46,-389.822"/>
<polygon fill="midnightblue" stroke="midnightblue" points="1749.81,-393.081 1758.53,-387.069 1747.96,-386.329 1749.81,-393.081"/>
</g>
<!-- Node42 -->
<g id="node42" class="node"><title>Node42</title>
<polygon fill="white" stroke="#bfbfbf" points="1851.98,-367 1851.98,-387 1918.02,-387 1918.02,-367 1851.98,-367"/>
<text text-anchor="middle" x="1885" y="-373" font-family="Helvetica,sans-Serif" font-size="10.00">ePub3/cfi.h</text>
</g>
<!-- Node36&#45;&gt;Node42 -->
<g id="edge59" class="edge"><title>Node36&#45;&gt;Node42</title>
<path fill="none" stroke="midnightblue" d="M1278.1,-440.621C1367.14,-441.757 1630.27,-440.611 1842,-394 1846.2,-393.075 1850.54,-391.829 1854.78,-390.437"/>
<polygon fill="midnightblue" stroke="midnightblue" points="1856.12,-393.675 1864.36,-387.011 1853.76,-387.084 1856.12,-393.675"/>
</g>
<!-- Node43 -->
<g id="node43" class="node"><title>Node43</title>
<polygon fill="white" stroke="#bfbfbf" points="1936.35,-367 1936.35,-387 2049.65,-387 2049.65,-367 1936.35,-367"/>
<text text-anchor="middle" x="1993" y="-373" font-family="Helvetica,sans-Serif" font-size="10.00">ePub3/nav_element.h</text>
</g>
<!-- Node36&#45;&gt;Node43 -->
<g id="edge60" class="edge"><title>Node36&#45;&gt;Node43</title>
<path fill="none" stroke="midnightblue" d="M1278.39,-439.772C1375.44,-438.662 1679.07,-432.154 1927,-394 1934.78,-392.802 1943,-391.14 1950.89,-389.338"/>
<polygon fill="midnightblue" stroke="midnightblue" points="1951.74,-392.732 1960.66,-387.004 1950.12,-385.924 1951.74,-392.732"/>
</g>
<!-- Node44 -->
<g id="node44" class="node"><title>Node44</title>
<polygon fill="white" stroke="#bfbfbf" points="2067.31,-367 2067.31,-387 2176.69,-387 2176.69,-367 2067.31,-367"/>
<text text-anchor="middle" x="2122" y="-373" font-family="Helvetica,sans-Serif" font-size="10.00">ePub3/archive_xml.h</text>
</g>
<!-- Node36&#45;&gt;Node44 -->
<g id="edge61" class="edge"><title>Node36&#45;&gt;Node44</title>
<path fill="none" stroke="midnightblue" d="M1278.15,-440.334C1386.53,-441.05 1756.84,-439.768 2058,-394 2065.56,-392.851 2073.53,-391.214 2081.18,-389.421"/>
<polygon fill="midnightblue" stroke="midnightblue" points="2082.12,-392.794 2090.99,-387.002 2080.44,-385.997 2082.12,-392.794"/>
</g>
<!-- Node36&#45;&gt;Node6 -->
<g id="edge62" class="edge"><title>Node36&#45;&gt;Node6</title>
<path fill="none" stroke="midnightblue" d="M1215.78,-434.577C1183.95,-428.146 1133.84,-415.493 1095,-394 1074.88,-382.866 1074.86,-373.155 1056,-360 1038.44,-347.755 1017.3,-336.193 1000.62,-327.724"/>
<polygon fill="midnightblue" stroke="midnightblue" points="1001.89,-324.444 991.377,-323.112 998.763,-330.708 1001.89,-324.444"/>
</g>
<!-- Node36&#45;&gt;Node5 -->
<g id="edge63" class="edge"><title>Node36&#45;&gt;Node5</title>
<path fill="none" stroke="midnightblue" d="M1215.66,-439.72C1122.1,-438.465 836.851,-431.593 604,-394 596.8,-392.838 589.221,-391.243 581.912,-389.507"/>
<polygon fill="midnightblue" stroke="midnightblue" points="582.724,-386.103 572.175,-387.081 581.032,-392.895 582.724,-386.103"/>
</g>
<!-- Node36&#45;&gt;Node35 -->
<g id="edge64" class="edge"><title>Node36&#45;&gt;Node35</title>
<path fill="none" stroke="midnightblue" d="M1215.89,-439.89C1111.69,-439.148 765.59,-433.651 483,-394 474.247,-392.772 464.98,-391.043 456.113,-389.172"/>
<polygon fill="midnightblue" stroke="midnightblue" points="456.837,-385.748 446.319,-387.02 455.335,-392.585 456.837,-385.748"/>
</g>
<!-- Node45 -->
<g id="node45" class="node"><title>Node45</title>
<polygon fill="white" stroke="#bfbfbf" points="646.077,-361 646.077,-393 759.923,-393 759.923,-361 646.077,-361"/>
<text text-anchor="start" x="654.077" y="-379" font-family="Helvetica,sans-Serif" font-size="10.00">ePub3/media_support</text>
<text text-anchor="middle" x="703" y="-367" font-family="Helvetica,sans-Serif" font-size="10.00">_info.h</text>
</g>
<!-- Node36&#45;&gt;Node45 -->
<g id="edge65" class="edge"><title>Node36&#45;&gt;Node45</title>
<path fill="none" stroke="midnightblue" d="M1215.76,-438.531C1140.63,-434.671 943.783,-422.619 770.216,-394.058"/>
<polygon fill="midnightblue" stroke="midnightblue" points="770.574,-390.57 760.135,-392.376 769.422,-397.474 770.574,-390.57"/>
</g>
<!-- Node46 -->
<g id="node46" class="node"><title>Node46</title>
<polygon fill="white" stroke="#bfbfbf" points="778.234,-367 778.234,-387 903.766,-387 903.766,-367 778.234,-367"/>
<text text-anchor="middle" x="841" y="-373" font-family="Helvetica,sans-Serif" font-size="10.00">ePub3/property_holder.h</text>
</g>
<!-- Node36&#45;&gt;Node46 -->
<g id="edge66" class="edge"><title>Node36&#45;&gt;Node46</title>
<path fill="none" stroke="midnightblue" d="M1215.55,-436.539C1156.18,-429.812 1023.61,-413.873 913,-394 905.202,-392.599 896.967,-390.94 888.962,-389.231"/>
<polygon fill="midnightblue" stroke="midnightblue" points="889.513,-385.769 878.997,-387.054 888.019,-392.607 889.513,-385.769"/>
</g>
<!-- Node47 -->
<g id="node47" class="node"><title>Node47</title>
<polygon fill="white" stroke="#bfbfbf" points="922.234,-367 922.234,-387 1047.77,-387 1047.77,-367 922.234,-367"/>
<text text-anchor="middle" x="985" y="-373" font-family="Helvetica,sans-Serif" font-size="10.00">ePub3/epub_collection.h</text>
</g>
<!-- Node36&#45;&gt;Node47 -->
<g id="edge67" class="edge"><title>Node36&#45;&gt;Node47</title>
<path fill="none" stroke="midnightblue" d="M1215.92,-432.644C1170.71,-421.947 1086.42,-402 1033.14,-389.393"/>
<polygon fill="midnightblue" stroke="midnightblue" points="1033.79,-385.948 1023.25,-387.051 1032.17,-392.76 1033.79,-385.948"/>
</g>
<!-- Node48 -->
<g id="node48" class="node"><title>Node48</title>
<g id="a_node48"><a xlink:href="xml__identifiable_8h.xhtml" target="_top" xlink:title="ePub3/utilities/xml\l_identifiable.h">
<polygon fill="white" stroke="black" points="1103.7,-361 1103.7,-393 1200.3,-393 1200.3,-361 1103.7,-361"/>
<text text-anchor="start" x="1111.7" y="-379" font-family="Helvetica,sans-Serif" font-size="10.00">ePub3/utilities/xml</text>
<text text-anchor="middle" x="1152" y="-367" font-family="Helvetica,sans-Serif" font-size="10.00">_identifiable.h</text>
</a>
</g>
</g>
<!-- Node36&#45;&gt;Node48 -->
<g id="edge68" class="edge"><title>Node36&#45;&gt;Node48</title>
<path fill="none" stroke="midnightblue" d="M1232.98,-430.852C1220.06,-422.419 1200.41,-409.596 1183.71,-398.692"/>
<polygon fill="midnightblue" stroke="midnightblue" points="1185.58,-395.734 1175.29,-393.199 1181.75,-401.596 1185.58,-395.734"/>
</g>
<!-- Node36&#45;&gt;Node18 -->
<g id="edge70" class="edge"><title>Node36&#45;&gt;Node18</title>
<path fill="none" stroke="midnightblue" d="M1246.64,-430.622C1246.01,-415.661 1244.53,-385.48 1242,-360 1239.1,-330.826 1234.35,-297.486 1230.97,-275.23"/>
<polygon fill="midnightblue" stroke="midnightblue" points="1234.42,-274.613 1229.44,-265.262 1227.5,-275.678 1234.42,-274.613"/>
</g>
<!-- Node38&#45;&gt;Node14 -->
<g id="edge54" class="edge"><title>Node38&#45;&gt;Node14</title>
<path fill="none" stroke="midnightblue" d="M1486.09,-238.816C1469.73,-222.612 1433.11,-189.223 1395,-174 1334.42,-149.799 1140.55,-135.29 1059.33,-130.136"/>
<polygon fill="midnightblue" stroke="midnightblue" points="1059.29,-126.627 1049.1,-129.499 1058.86,-133.614 1059.29,-126.627"/>
</g>
<!-- Node38&#45;&gt;Node19 -->
<g id="edge55" class="edge"><title>Node38&#45;&gt;Node19</title>
<path fill="none" stroke="midnightblue" d="M1430.84,-238.97C1414.28,-236.667 1396.48,-234.217 1380,-232 1260.21,-215.882 1226.73,-218.915 1104.5,-196.116"/>
<polygon fill="midnightblue" stroke="midnightblue" points="1104.84,-192.62 1094.37,-194.206 1103.55,-199.499 1104.84,-192.62"/>
</g>
<!-- Node48&#45;&gt;Node6 -->
<g id="edge69" class="edge"><title>Node48&#45;&gt;Node6</title>
<path fill="none" stroke="midnightblue" d="M1108.43,-360.992C1077.62,-350.38 1036.82,-336.327 1007.89,-326.361"/>
<polygon fill="midnightblue" stroke="midnightblue" points="1008.78,-322.966 998.183,-323.018 1006.5,-329.584 1008.78,-322.966"/>
</g>
<!-- Node49&#45;&gt;Node3 -->
<g id="edge72" class="edge"><title>Node49&#45;&gt;Node3</title>
<path fill="none" stroke="midnightblue" d="M178.467,-430.985C199.724,-420.607 234.851,-403.458 259.366,-391.49"/>
<polygon fill="midnightblue" stroke="midnightblue" points="261.06,-394.559 268.511,-387.026 257.989,-388.268 261.06,-394.559"/>
</g>
<!-- Node49&#45;&gt;Node4 -->
<g id="edge73" class="edge"><title>Node49&#45;&gt;Node4</title>
<path fill="none" stroke="midnightblue" d="M158.82,-430.852C157.685,-422.06 155.935,-408.498 154.492,-397.313"/>
<polygon fill="midnightblue" stroke="midnightblue" points="157.936,-396.656 153.185,-387.186 150.994,-397.552 157.936,-396.656"/>
</g>
<!-- Node50 -->
<g id="node50" class="node"><title>Node50</title>
<polygon fill="white" stroke="#bfbfbf" points="-0.3125,-367 -0.3125,-387 96.3125,-387 96.3125,-367 -0.3125,-367"/>
<text text-anchor="middle" x="48" y="-373" font-family="Helvetica,sans-Serif" font-size="10.00">ePub3/container.h</text>
</g>
<!-- Node49&#45;&gt;Node50 -->
<g id="edge74" class="edge"><title>Node49&#45;&gt;Node50</title>
<path fill="none" stroke="midnightblue" d="M143.474,-430.852C125.028,-420.641 94.9566,-403.994 73.4919,-392.112"/>
<polygon fill="midnightblue" stroke="midnightblue" points="75.0379,-388.967 64.5938,-387.186 71.6476,-395.091 75.0379,-388.967"/>
</g>
</g>
</svg>
