<?xml version="1.0" encoding="UTF-8" standalone="no"?>
<!DOCTYPE svg PUBLIC "-//W3C//DTD SVG 1.1//EN"
 "http://www.w3.org/Graphics/SVG/1.1/DTD/svg11.dtd">
<!-- Generated by graphviz version 2.30.0 (20130114.0426)
 -->
<!-- Title: /Users/rkwright/Documents/github/readium&#45;sdk&#45;D/ePub3/utilities/optional.h Pages: 1 -->
<svg width="596pt" height="112pt"
 viewBox="0.00 0.00 596.00 112.00" xmlns="http://www.w3.org/2000/svg" xmlns:xlink="http://www.w3.org/1999/xlink">
<g id="graph0" class="graph" transform="scale(1 1) rotate(0) translate(4 108)">
<title>/Users/rkwright/Documents/github/readium&#45;sdk&#45;D/ePub3/utilities/optional.h</title>
<polygon fill="white" stroke="white" points="-4,5 -4,-108 593,-108 593,5 -4,5"/>
<!-- Node1 -->
<g id="node1" class="node"><title>Node1</title>
<polygon fill="#bfbfbf" stroke="black" points="238.966,-59 238.966,-103 385.034,-103 385.034,-59 238.966,-59"/>
<text text-anchor="start" x="246.966" y="-89" font-family="Helvetica,sans-Serif" font-size="10.00">/Users/rkwright/Documents</text>
<text text-anchor="start" x="246.966" y="-77" font-family="Helvetica,sans-Serif" font-size="10.00">/github/readium&#45;sdk&#45;D/ePub3</text>
<text text-anchor="middle" x="312" y="-65" font-family="Helvetica,sans-Serif" font-size="10.00">/utilities/optional.h</text>
</g>
<!-- Node2 -->
<g id="node2" class="node"><title>Node2</title>
<polygon fill="white" stroke="#bfbfbf" points="-0.920898,-1 -0.920898,-21 82.9209,-21 82.9209,-1 -0.920898,-1"/>
<text text-anchor="middle" x="41" y="-7" font-family="Helvetica,sans-Serif" font-size="10.00">ePub3/epub3.h</text>
</g>
<!-- Node1&#45;&gt;Node2 -->
<g id="edge1" class="edge"><title>Node1&#45;&gt;Node2</title>
<path fill="none" stroke="midnightblue" d="M238.663,-61.5982C190.296,-49.4617 128.436,-33.9398 86.9136,-23.5208"/>
<polygon fill="midnightblue" stroke="midnightblue" points="87.6276,-20.0915 77.0764,-21.0524 85.9239,-26.881 87.6276,-20.0915"/>
</g>
<!-- Node3 -->
<g id="node3" class="node"><title>Node3</title>
<polygon fill="white" stroke="#bfbfbf" points="100.608,-1 100.608,-21 139.392,-21 139.392,-1 100.608,-1"/>
<text text-anchor="middle" x="120" y="-7" font-family="Helvetica,sans-Serif" font-size="10.00">utility</text>
</g>
<!-- Node1&#45;&gt;Node3 -->
<g id="edge2" class="edge"><title>Node1&#45;&gt;Node3</title>
<path fill="none" stroke="midnightblue" d="M252.391,-58.9686C223.582,-48.7924 188.277,-36.3049 149.08,-22.3781"/>
<polygon fill="midnightblue" stroke="midnightblue" points="150.174,-19.0525 139.579,-19.0013 147.83,-25.6483 150.174,-19.0525"/>
</g>
<!-- Node4 -->
<g id="node4" class="node"><title>Node4</title>
<polygon fill="white" stroke="#bfbfbf" points="156.934,-1 156.934,-21 219.066,-21 219.066,-1 156.934,-1"/>
<text text-anchor="middle" x="188" y="-7" font-family="Helvetica,sans-Serif" font-size="10.00">type_traits</text>
</g>
<!-- Node1&#45;&gt;Node4 -->
<g id="edge3" class="edge"><title>Node1&#45;&gt;Node4</title>
<path fill="none" stroke="midnightblue" d="M273.445,-58.8571C253.89,-48.1331 230.685,-35.4079 213.396,-25.9268"/>
<polygon fill="midnightblue" stroke="midnightblue" points="214.911,-22.7661 204.46,-21.0266 211.545,-28.9038 214.911,-22.7661"/>
</g>
<!-- Node5 -->
<g id="node5" class="node"><title>Node5</title>
<polygon fill="white" stroke="#bfbfbf" points="236.658,-1 236.658,-21 309.342,-21 309.342,-1 236.658,-1"/>
<text text-anchor="middle" x="273" y="-7" font-family="Helvetica,sans-Serif" font-size="10.00">initializer_list</text>
</g>
<!-- Node1&#45;&gt;Node5 -->
<g id="edge4" class="edge"><title>Node1&#45;&gt;Node5</title>
<path fill="none" stroke="midnightblue" d="M299.874,-58.8571C294.554,-49.5806 288.374,-38.8065 283.283,-29.9302"/>
<polygon fill="midnightblue" stroke="midnightblue" points="286.29,-28.1372 278.279,-21.2039 280.218,-31.6198 286.29,-28.1372"/>
</g>
<!-- Node6 -->
<g id="node6" class="node"><title>Node6</title>
<polygon fill="white" stroke="#bfbfbf" points="326.884,-1 326.884,-21 375.116,-21 375.116,-1 326.884,-1"/>
<text text-anchor="middle" x="351" y="-7" font-family="Helvetica,sans-Serif" font-size="10.00">cassert</text>
</g>
<!-- Node1&#45;&gt;Node6 -->
<g id="edge5" class="edge"><title>Node1&#45;&gt;Node6</title>
<path fill="none" stroke="midnightblue" d="M324.126,-58.8571C329.446,-49.5806 335.626,-38.8065 340.717,-29.9302"/>
<polygon fill="midnightblue" stroke="midnightblue" points="343.782,-31.6198 345.721,-21.2039 337.71,-28.1372 343.782,-31.6198"/>
</g>
<!-- Node7 -->
<g id="node7" class="node"><title>Node7</title>
<polygon fill="white" stroke="#bfbfbf" points="393.596,-1 393.596,-21 452.404,-21 452.404,-1 393.596,-1"/>
<text text-anchor="middle" x="423" y="-7" font-family="Helvetica,sans-Serif" font-size="10.00">functional</text>
</g>
<!-- Node1&#45;&gt;Node7 -->
<g id="edge6" class="edge"><title>Node1&#45;&gt;Node7</title>
<path fill="none" stroke="midnightblue" d="M346.513,-58.8571C363.694,-48.3317 384.022,-35.8785 399.401,-26.4568"/>
<polygon fill="midnightblue" stroke="midnightblue" points="401.567,-29.2349 408.265,-21.0266 397.91,-23.266 401.567,-29.2349"/>
</g>
<!-- Node8 -->
<g id="node8" class="node"><title>Node8</title>
<polygon fill="white" stroke="#bfbfbf" points="470.773,-1 470.773,-21 511.227,-21 511.227,-1 470.773,-1"/>
<text text-anchor="middle" x="491" y="-7" font-family="Helvetica,sans-Serif" font-size="10.00">string</text>
</g>
<!-- Node1&#45;&gt;Node8 -->
<g id="edge7" class="edge"><title>Node1&#45;&gt;Node8</title>
<path fill="none" stroke="midnightblue" d="M367.656,-58.8571C398.46,-47.1548 435.538,-33.0694 460.947,-23.4169"/>
<polygon fill="midnightblue" stroke="midnightblue" points="462.301,-26.6465 470.406,-19.8233 459.815,-20.1027 462.301,-26.6465"/>
</g>
<!-- Node9 -->
<g id="node9" class="node"><title>Node9</title>
<polygon fill="white" stroke="#bfbfbf" points="529.599,-1 529.599,-21 588.401,-21 588.401,-1 529.599,-1"/>
<text text-anchor="middle" x="559" y="-7" font-family="Helvetica,sans-Serif" font-size="10.00">stdexcept</text>
</g>
<!-- Node1&#45;&gt;Node9 -->
<g id="edge8" class="edge"><title>Node1&#45;&gt;Node9</title>
<path fill="none" stroke="midnightblue" d="M385.106,-59.8738C429.186,-47.7384 483.604,-32.7568 519.702,-22.819"/>
<polygon fill="midnightblue" stroke="midnightblue" points="520.661,-26.1851 529.373,-20.1563 518.803,-19.4362 520.661,-26.1851"/>
</g>
</g>
</svg>
