<?xml version="1.0" encoding="UTF-8" standalone="no"?>
<!DOCTYPE svg PUBLIC "-//W3C//DTD SVG 1.1//EN"
 "http://www.w3.org/Graphics/SVG/1.1/DTD/svg11.dtd">
<!-- Generated by graphviz version 2.30.0 (20130114.0426)
 -->
<!-- Title: /Users/rkwright/Documents/github/readium&#45;sdk&#45;D/ePub3/utilities/optional.cpp Pages: 1 -->
<svg width="596pt" height="170pt"
 viewBox="0.00 0.00 596.00 170.00" xmlns="http://www.w3.org/2000/svg" xmlns:xlink="http://www.w3.org/1999/xlink">
<g id="graph0" class="graph" transform="scale(1 1) rotate(0) translate(4 166)">
<title>/Users/rkwright/Documents/github/readium&#45;sdk&#45;D/ePub3/utilities/optional.cpp</title>
<polygon fill="white" stroke="white" points="-4,5 -4,-166 593,-166 593,5 -4,5"/>
<!-- Node1 -->
<g id="node1" class="node"><title>Node1</title>
<polygon fill="#bfbfbf" stroke="black" points="238.966,-117 238.966,-161 385.034,-161 385.034,-117 238.966,-117"/>
<text text-anchor="start" x="246.966" y="-147" font-family="Helvetica,sans-Serif" font-size="10.00">/Users/rkwright/Documents</text>
<text text-anchor="start" x="246.966" y="-135" font-family="Helvetica,sans-Serif" font-size="10.00">/github/readium&#45;sdk&#45;D/ePub3</text>
<text text-anchor="middle" x="312" y="-123" font-family="Helvetica,sans-Serif" font-size="10.00">/utilities/optional.cpp</text>
</g>
<!-- Node2 -->
<g id="node2" class="node"><title>Node2</title>
<g id="a_node2"><a xlink:href="optional_8h.xhtml" target="_top" xlink:title="optional.h">
<polygon fill="white" stroke="black" points="282.315,-59 282.315,-79 341.685,-79 341.685,-59 282.315,-59"/>
<text text-anchor="middle" x="312" y="-65" font-family="Helvetica,sans-Serif" font-size="10.00">optional.h</text>
</a>
</g>
</g>
<!-- Node1&#45;&gt;Node2 -->
<g id="edge1" class="edge"><title>Node1&#45;&gt;Node2</title>
<path fill="none" stroke="midnightblue" d="M312,-116.857C312,-108.074 312,-97.9484 312,-89.3622"/>
<polygon fill="midnightblue" stroke="midnightblue" points="315.5,-89.2039 312,-79.2039 308.5,-89.204 315.5,-89.2039"/>
</g>
<!-- Node3 -->
<g id="node3" class="node"><title>Node3</title>
<polygon fill="white" stroke="#bfbfbf" points="-0.920898,-1 -0.920898,-21 82.9209,-21 82.9209,-1 -0.920898,-1"/>
<text text-anchor="middle" x="41" y="-7" font-family="Helvetica,sans-Serif" font-size="10.00">ePub3/epub3.h</text>
</g>
<!-- Node2&#45;&gt;Node3 -->
<g id="edge2" class="edge"><title>Node2&#45;&gt;Node3</title>
<path fill="none" stroke="midnightblue" d="M282.223,-61.8468C236.789,-52.4583 149.527,-34.4263 93.3503,-22.8178"/>
<polygon fill="midnightblue" stroke="midnightblue" points="93.7411,-19.3247 83.2397,-20.7285 92.3245,-26.1798 93.7411,-19.3247"/>
</g>
<!-- Node4 -->
<g id="node4" class="node"><title>Node4</title>
<polygon fill="white" stroke="#bfbfbf" points="100.608,-1 100.608,-21 139.392,-21 139.392,-1 100.608,-1"/>
<text text-anchor="middle" x="120" y="-7" font-family="Helvetica,sans-Serif" font-size="10.00">utility</text>
</g>
<!-- Node2&#45;&gt;Node4 -->
<g id="edge3" class="edge"><title>Node2&#45;&gt;Node4</title>
<path fill="none" stroke="midnightblue" d="M282.189,-60.3062C251.116,-52.1414 200.827,-38.5196 149.179,-22.2383"/>
<polygon fill="midnightblue" stroke="midnightblue" points="150.114,-18.863 139.523,-19.168 147.992,-25.5339 150.114,-18.863"/>
</g>
<!-- Node5 -->
<g id="node5" class="node"><title>Node5</title>
<polygon fill="white" stroke="#bfbfbf" points="156.934,-1 156.934,-21 219.066,-21 219.066,-1 156.934,-1"/>
<text text-anchor="middle" x="188" y="-7" font-family="Helvetica,sans-Serif" font-size="10.00">type_traits</text>
</g>
<!-- Node2&#45;&gt;Node5 -->
<g id="edge4" class="edge"><title>Node2&#45;&gt;Node5</title>
<path fill="none" stroke="midnightblue" d="M291.801,-58.878C271.625,-49.7661 240.394,-35.6617 217.456,-25.3028"/>
<polygon fill="midnightblue" stroke="midnightblue" points="218.744,-22.0442 208.19,-21.1181 215.863,-28.4238 218.744,-22.0442"/>
</g>
<!-- Node6 -->
<g id="node6" class="node"><title>Node6</title>
<polygon fill="white" stroke="#bfbfbf" points="236.658,-1 236.658,-21 309.342,-21 309.342,-1 236.658,-1"/>
<text text-anchor="middle" x="273" y="-7" font-family="Helvetica,sans-Serif" font-size="10.00">initializer_list</text>
</g>
<!-- Node2&#45;&gt;Node6 -->
<g id="edge5" class="edge"><title>Node2&#45;&gt;Node6</title>
<path fill="none" stroke="midnightblue" d="M305.56,-58.7527C300.051,-50.8427 291.969,-39.2372 285.235,-29.5683"/>
<polygon fill="midnightblue" stroke="midnightblue" points="287.907,-27.281 279.32,-21.0752 282.163,-31.2815 287.907,-27.281"/>
</g>
<!-- Node7 -->
<g id="node7" class="node"><title>Node7</title>
<polygon fill="white" stroke="#bfbfbf" points="326.884,-1 326.884,-21 375.116,-21 375.116,-1 326.884,-1"/>
<text text-anchor="middle" x="351" y="-7" font-family="Helvetica,sans-Serif" font-size="10.00">cassert</text>
</g>
<!-- Node2&#45;&gt;Node7 -->
<g id="edge6" class="edge"><title>Node2&#45;&gt;Node7</title>
<path fill="none" stroke="midnightblue" d="M318.44,-58.7527C323.949,-50.8427 332.031,-39.2372 338.765,-29.5683"/>
<polygon fill="midnightblue" stroke="midnightblue" points="341.837,-31.2815 344.68,-21.0752 336.093,-27.281 341.837,-31.2815"/>
</g>
<!-- Node8 -->
<g id="node8" class="node"><title>Node8</title>
<polygon fill="white" stroke="#bfbfbf" points="393.596,-1 393.596,-21 452.404,-21 452.404,-1 393.596,-1"/>
<text text-anchor="middle" x="423" y="-7" font-family="Helvetica,sans-Serif" font-size="10.00">functional</text>
</g>
<!-- Node2&#45;&gt;Node8 -->
<g id="edge7" class="edge"><title>Node2&#45;&gt;Node8</title>
<path fill="none" stroke="midnightblue" d="M330.329,-58.7527C348.19,-49.7418 375.557,-35.9353 395.926,-25.6589"/>
<polygon fill="midnightblue" stroke="midnightblue" points="397.66,-28.7044 405.012,-21.0752 394.507,-22.4547 397.66,-28.7044"/>
</g>
<!-- Node9 -->
<g id="node9" class="node"><title>Node9</title>
<polygon fill="white" stroke="#bfbfbf" points="470.773,-1 470.773,-21 511.227,-21 511.227,-1 470.773,-1"/>
<text text-anchor="middle" x="491" y="-7" font-family="Helvetica,sans-Serif" font-size="10.00">string</text>
</g>
<!-- Node2&#45;&gt;Node9 -->
<g id="edge8" class="edge"><title>Node2&#45;&gt;Node9</title>
<path fill="none" stroke="midnightblue" d="M341.745,-59.0304C371.864,-49.8977 419.756,-35.2386 461,-22 461.098,-21.9685 461.196,-21.937 461.295,-21.9054"/>
<polygon fill="midnightblue" stroke="midnightblue" points="462.267,-25.2698 470.687,-18.8391 460.094,-18.6155 462.267,-25.2698"/>
</g>
<!-- Node10 -->
<g id="node10" class="node"><title>Node10</title>
<polygon fill="white" stroke="#bfbfbf" points="529.599,-1 529.599,-21 588.401,-21 588.401,-1 529.599,-1"/>
<text text-anchor="middle" x="559" y="-7" font-family="Helvetica,sans-Serif" font-size="10.00">stdexcept</text>
</g>
<!-- Node2&#45;&gt;Node10 -->
<g id="edge9" class="edge"><title>Node2&#45;&gt;Node10</title>
<path fill="none" stroke="midnightblue" d="M341.694,-61.7588C380.301,-53.5731 450.057,-38.5425 519.432,-22.0783"/>
<polygon fill="midnightblue" stroke="midnightblue" points="520.299,-25.4696 529.215,-19.7461 518.676,-18.6604 520.299,-25.4696"/>
</g>
</g>
</svg>
