<?xml version="1.0" encoding="UTF-8" standalone="no"?>
<!DOCTYPE svg PUBLIC "-//W3C//DTD SVG 1.1//EN"
 "http://www.w3.org/Graphics/SVG/1.1/DTD/svg11.dtd">
<!-- Generated by graphviz version 2.30.0 (20130114.0426)
 -->
<!-- Title: /Users/rkwright/Documents/github/readium&#45;sdk&#45;D/ePub3/utilities/owned_by.h Pages: 1 -->
<svg width="154pt" height="112pt"
 viewBox="0.00 0.00 154.00 112.00" xmlns="http://www.w3.org/2000/svg" xmlns:xlink="http://www.w3.org/1999/xlink">
<g id="graph0" class="graph" transform="scale(1 1) rotate(0) translate(4 108)">
<title>/Users/rkwright/Documents/github/readium&#45;sdk&#45;D/ePub3/utilities/owned_by.h</title>
<polygon fill="white" stroke="white" points="-4,5 -4,-108 151,-108 151,5 -4,5"/>
<!-- Node1 -->
<g id="node1" class="node"><title>Node1</title>
<polygon fill="#bfbfbf" stroke="black" points="-0.0341797,-59 -0.0341797,-103 146.034,-103 146.034,-59 -0.0341797,-59"/>
<text text-anchor="start" x="7.96582" y="-89" font-family="Helvetica,sans-Serif" font-size="10.00">/Users/rkwright/Documents</text>
<text text-anchor="start" x="7.96582" y="-77" font-family="Helvetica,sans-Serif" font-size="10.00">/github/readium&#45;sdk&#45;D/ePub3</text>
<text text-anchor="middle" x="73" y="-65" font-family="Helvetica,sans-Serif" font-size="10.00">/utilities/owned_by.h</text>
</g>
<!-- Node2 -->
<g id="node2" class="node"><title>Node2</title>
<polygon fill="white" stroke="#bfbfbf" points="9.94336,-1 9.94336,-21 62.0566,-21 62.0566,-1 9.94336,-1"/>
<text text-anchor="middle" x="36" y="-7" font-family="Helvetica,sans-Serif" font-size="10.00">memory</text>
</g>
<!-- Node1&#45;&gt;Node2 -->
<g id="edge1" class="edge"><title>Node1&#45;&gt;Node2</title>
<path fill="none" stroke="midnightblue" d="M61.4958,-58.8571C56.5019,-49.6792 50.7105,-39.0355 45.9106,-30.2141"/>
<polygon fill="midnightblue" stroke="midnightblue" points="48.8619,-28.315 41.008,-21.2039 42.7132,-31.6607 48.8619,-28.315"/>
</g>
<!-- Node3 -->
<g id="node3" class="node"><title>Node3</title>
<polygon fill="white" stroke="#bfbfbf" points="79.9336,-1 79.9336,-21 142.066,-21 142.066,-1 79.9336,-1"/>
<text text-anchor="middle" x="111" y="-7" font-family="Helvetica,sans-Serif" font-size="10.00">type_traits</text>
</g>
<!-- Node1&#45;&gt;Node3 -->
<g id="edge2" class="edge"><title>Node1&#45;&gt;Node3</title>
<path fill="none" stroke="midnightblue" d="M84.8151,-58.8571C89.944,-49.6792 95.8919,-39.0355 100.822,-30.2141"/>
<polygon fill="midnightblue" stroke="midnightblue" points="104.034,-31.6408 105.857,-21.2039 97.9231,-28.226 104.034,-31.6408"/>
</g>
</g>
</svg>
