<?xml version="1.0" encoding="UTF-8" standalone="no"?>
<!DOCTYPE svg PUBLIC "-//W3C//DTD SVG 1.1//EN"
 "http://www.w3.org/Graphics/SVG/1.1/DTD/svg11.dtd">
<!-- Generated by graphviz version 2.30.0 (20130114.0426)
 -->
<!-- Title: /Users/rkwright/Documents/github/readium&#45;sdk&#45;D/ePub3/utilities/owned_by.h Pages: 1 -->
<svg width="3636pt" height="324pt"
 viewBox="0.00 0.00 3636.08 324.00" xmlns="http://www.w3.org/2000/svg" xmlns:xlink="http://www.w3.org/1999/xlink">
<g id="graph0" class="graph" transform="scale(1 1) rotate(0) translate(4 320)">
<title>/Users/rkwright/Documents/github/readium&#45;sdk&#45;D/ePub3/utilities/owned_by.h</title>
<polygon fill="white" stroke="white" points="-4,5 -4,-320 3633.08,-320 3633.08,5 -4,5"/>
<!-- Node1 -->
<g id="node1" class="node"><title>Node1</title>
<polygon fill="#bfbfbf" stroke="black" points="2428.05,-271 2428.05,-315 2574.12,-315 2574.12,-271 2428.05,-271"/>
<text text-anchor="start" x="2436.05" y="-301" font-family="Helvetica,sans-Serif" font-size="10.00">/Users/rkwright/Documents</text>
<text text-anchor="start" x="2436.05" y="-289" font-family="Helvetica,sans-Serif" font-size="10.00">/github/readium&#45;sdk&#45;D/ePub3</text>
<text text-anchor="middle" x="2501.08" y="-277" font-family="Helvetica,sans-Serif" font-size="10.00">/utilities/owned_by.h</text>
</g>
<!-- Node2 -->
<g id="node2" class="node"><title>Node2</title>
<g id="a_node2"><a xlink:href="package_8h.xhtml" target="_top" xlink:title="/Users/rkwright/Documents\l/github/readium&#45;sdk&#45;D/ePub3\l/ePub/package.h">
<polygon fill="white" stroke="black" points="1403.05,-189 1403.05,-233 1549.12,-233 1549.12,-189 1403.05,-189"/>
<text text-anchor="start" x="1411.05" y="-219" font-family="Helvetica,sans-Serif" font-size="10.00">/Users/rkwright/Documents</text>
<text text-anchor="start" x="1411.05" y="-207" font-family="Helvetica,sans-Serif" font-size="10.00">/github/readium&#45;sdk&#45;D/ePub3</text>
<text text-anchor="middle" x="1476.08" y="-195" font-family="Helvetica,sans-Serif" font-size="10.00">/ePub/package.h</text>
</a>
</g>
</g>
<!-- Node1&#45;&gt;Node2 -->
<g id="edge1" class="edge"><title>Node1&#45;&gt;Node2</title>
<path fill="none" stroke="midnightblue" d="M2417.54,-285.479C2221.48,-270.177 1734.48,-232.167 1549.21,-217.708"/>
<polygon fill="midnightblue" stroke="midnightblue" points="2417.54,-288.99 2427.78,-286.279 2418.08,-282.011 2417.54,-288.99"/>
</g>
<!-- Node20 -->
<g id="node20" class="node"><title>Node20</title>
<g id="a_node20"><a xlink:href="container_8h.xhtml" target="_top" xlink:title="/Users/rkwright/Documents\l/github/readium&#45;sdk&#45;D/ePub3\l/ePub/container.h">
<polygon fill="white" stroke="black" points="440.048,-189 440.048,-233 586.116,-233 586.116,-189 440.048,-189"/>
<text text-anchor="start" x="448.048" y="-219" font-family="Helvetica,sans-Serif" font-size="10.00">/Users/rkwright/Documents</text>
<text text-anchor="start" x="448.048" y="-207" font-family="Helvetica,sans-Serif" font-size="10.00">/github/readium&#45;sdk&#45;D/ePub3</text>
<text text-anchor="middle" x="513.082" y="-195" font-family="Helvetica,sans-Serif" font-size="10.00">/ePub/container.h</text>
</a>
</g>
</g>
<!-- Node1&#45;&gt;Node20 -->
<g id="edge21" class="edge"><title>Node1&#45;&gt;Node20</title>
<path fill="none" stroke="midnightblue" d="M2417.57,-288.691C2195.2,-279.873 1570.2,-255.049 1050.08,-234 884.364,-227.293 689.885,-219.294 586.477,-215.03"/>
<polygon fill="midnightblue" stroke="midnightblue" points="2417.72,-292.2 2427.85,-289.099 2418,-285.205 2417.72,-292.2"/>
</g>
<!-- Node21 -->
<g id="node21" class="node"><title>Node21</title>
<g id="a_node21"><a xlink:href="content__handler_8h.xhtml" target="_top" xlink:title="/Users/rkwright/Documents\l/github/readium&#45;sdk&#45;D/ePub3\l/ePub/content_handler.h">
<polygon fill="white" stroke="black" points="2107.05,-189 2107.05,-233 2253.12,-233 2253.12,-189 2107.05,-189"/>
<text text-anchor="start" x="2115.05" y="-219" font-family="Helvetica,sans-Serif" font-size="10.00">/Users/rkwright/Documents</text>
<text text-anchor="start" x="2115.05" y="-207" font-family="Helvetica,sans-Serif" font-size="10.00">/github/readium&#45;sdk&#45;D/ePub3</text>
<text text-anchor="middle" x="2180.08" y="-195" font-family="Helvetica,sans-Serif" font-size="10.00">/ePub/content_handler.h</text>
</a>
</g>
</g>
<!-- Node1&#45;&gt;Node21 -->
<g id="edge29" class="edge"><title>Node1&#45;&gt;Node21</title>
<path fill="none" stroke="midnightblue" d="M2418.08,-272.377C2372.05,-261.364 2313.82,-247.217 2262.08,-234 2259.23,-233.27 2256.32,-232.521 2253.38,-231.758"/>
<polygon fill="midnightblue" stroke="midnightblue" points="2417.47,-275.829 2428.01,-274.749 2419.1,-269.021 2417.47,-275.829"/>
</g>
<!-- Node22 -->
<g id="node22" class="node"><title>Node22</title>
<g id="a_node22"><a xlink:href="encryption_8h.xhtml" target="_top" xlink:title="/Users/rkwright/Documents\l/github/readium&#45;sdk&#45;D/ePub3\l/ePub/encryption.h">
<polygon fill="white" stroke="black" points="2661.05,-189 2661.05,-233 2807.12,-233 2807.12,-189 2661.05,-189"/>
<text text-anchor="start" x="2669.05" y="-219" font-family="Helvetica,sans-Serif" font-size="10.00">/Users/rkwright/Documents</text>
<text text-anchor="start" x="2669.05" y="-207" font-family="Helvetica,sans-Serif" font-size="10.00">/github/readium&#45;sdk&#45;D/ePub3</text>
<text text-anchor="middle" x="2734.08" y="-195" font-family="Helvetica,sans-Serif" font-size="10.00">/ePub/encryption.h</text>
</a>
</g>
</g>
<!-- Node1&#45;&gt;Node22 -->
<g id="edge31" class="edge"><title>Node1&#45;&gt;Node22</title>
<path fill="none" stroke="midnightblue" d="M2572.1,-267.617C2604.28,-256.567 2641.95,-243.632 2672.87,-233.017"/>
<polygon fill="midnightblue" stroke="midnightblue" points="2570.62,-264.423 2562.3,-270.981 2572.89,-271.044 2570.62,-264.423"/>
</g>
<!-- Node24 -->
<g id="node24" class="node"><title>Node24</title>
<g id="a_node24"><a xlink:href="_forward_8h.xhtml" target="_top" xlink:title="/Users/rkwright/Documents\l/github/readium&#45;sdk&#45;D/ePub3\l/ePub/Forward.h">
<polygon fill="white" stroke="black" points="2825.05,-189 2825.05,-233 2971.12,-233 2971.12,-189 2825.05,-189"/>
<text text-anchor="start" x="2833.05" y="-219" font-family="Helvetica,sans-Serif" font-size="10.00">/Users/rkwright/Documents</text>
<text text-anchor="start" x="2833.05" y="-207" font-family="Helvetica,sans-Serif" font-size="10.00">/github/readium&#45;sdk&#45;D/ePub3</text>
<text text-anchor="middle" x="2898.08" y="-195" font-family="Helvetica,sans-Serif" font-size="10.00">/ePub/Forward.h</text>
</a>
</g>
</g>
<!-- Node1&#45;&gt;Node24 -->
<g id="edge33" class="edge"><title>Node1&#45;&gt;Node24</title>
<path fill="none" stroke="midnightblue" d="M2584.3,-278.548C2648.02,-267.795 2737.95,-251.644 2816.08,-234 2818.96,-233.351 2821.88,-232.668 2824.84,-231.963"/>
<polygon fill="midnightblue" stroke="midnightblue" points="2583.58,-275.118 2574.3,-280.226 2584.74,-282.022 2583.58,-275.118"/>
</g>
<!-- Node25 -->
<g id="node25" class="node"><title>Node25</title>
<g id="a_node25"><a xlink:href="media-overlays__smil__data_8h.xhtml" target="_top" xlink:title="/Users/rkwright/Documents\l/github/readium&#45;sdk&#45;D/ePub3\l/ePub/media&#45;overlays_smil_data.h">
<polygon fill="white" stroke="black" points="2473.38,-189 2473.38,-233 2642.79,-233 2642.79,-189 2473.38,-189"/>
<text text-anchor="start" x="2481.38" y="-219" font-family="Helvetica,sans-Serif" font-size="10.00">/Users/rkwright/Documents</text>
<text text-anchor="start" x="2481.38" y="-207" font-family="Helvetica,sans-Serif" font-size="10.00">/github/readium&#45;sdk&#45;D/ePub3</text>
<text text-anchor="middle" x="2558.08" y="-195" font-family="Helvetica,sans-Serif" font-size="10.00">/ePub/media&#45;overlays_smil_data.h</text>
</a>
</g>
</g>
<!-- Node1&#45;&gt;Node25 -->
<g id="edge34" class="edge"><title>Node1&#45;&gt;Node25</title>
<path fill="none" stroke="midnightblue" d="M2521.97,-262.685C2528.94,-252.901 2536.57,-242.196 2543.01,-233.156"/>
<polygon fill="midnightblue" stroke="midnightblue" points="2519.01,-260.806 2516.06,-270.981 2524.71,-264.868 2519.01,-260.806"/>
</g>
<!-- Node10 -->
<g id="node10" class="node"><title>Node10</title>
<g id="a_node10"><a xlink:href="media-overlays__smil__model_8h.xhtml" target="_top" xlink:title="/Users/rkwright/Documents\l/github/readium&#45;sdk&#45;D/ePub3\l/ePub/media&#45;overlays_smil_model.h">
<polygon fill="white" stroke="black" points="2455.49,-101 2455.49,-145 2632.68,-145 2632.68,-101 2455.49,-101"/>
<text text-anchor="start" x="2463.49" y="-131" font-family="Helvetica,sans-Serif" font-size="10.00">/Users/rkwright/Documents</text>
<text text-anchor="start" x="2463.49" y="-119" font-family="Helvetica,sans-Serif" font-size="10.00">/github/readium&#45;sdk&#45;D/ePub3</text>
<text text-anchor="middle" x="2544.08" y="-107" font-family="Helvetica,sans-Serif" font-size="10.00">/ePub/media&#45;overlays_smil_model.h</text>
</a>
</g>
</g>
<!-- Node1&#45;&gt;Node10 -->
<g id="edge37" class="edge"><title>Node1&#45;&gt;Node10</title>
<path fill="none" stroke="midnightblue" d="M2478.02,-262.186C2464.61,-241.018 2452.46,-212.182 2464.08,-188 2472.63,-170.206 2488.81,-155.81 2504.39,-145.211"/>
<polygon fill="midnightblue" stroke="midnightblue" points="2475.29,-264.403 2483.77,-270.753 2481.1,-260.5 2475.29,-264.403"/>
</g>
<!-- Node27 -->
<g id="node27" class="node"><title>Node27</title>
<g id="a_node27"><a xlink:href="media__support__info_8h.xhtml" target="_top" xlink:title="/Users/rkwright/Documents\l/github/readium&#45;sdk&#45;D/ePub3\l/ePub/media_support_info.h">
<polygon fill="white" stroke="black" points="2271.05,-189 2271.05,-233 2417.12,-233 2417.12,-189 2271.05,-189"/>
<text text-anchor="start" x="2279.05" y="-219" font-family="Helvetica,sans-Serif" font-size="10.00">/Users/rkwright/Documents</text>
<text text-anchor="start" x="2279.05" y="-207" font-family="Helvetica,sans-Serif" font-size="10.00">/github/readium&#45;sdk&#45;D/ePub3</text>
<text text-anchor="middle" x="2344.08" y="-195" font-family="Helvetica,sans-Serif" font-size="10.00">/ePub/media_support_info.h</text>
</a>
</g>
</g>
<!-- Node1&#45;&gt;Node27 -->
<g id="edge38" class="edge"><title>Node1&#45;&gt;Node27</title>
<path fill="none" stroke="midnightblue" d="M2450.69,-266.323C2429.58,-255.567 2405.35,-243.22 2385.33,-233.017"/>
<polygon fill="midnightblue" stroke="midnightblue" points="2449.33,-269.559 2459.83,-270.981 2452.51,-263.322 2449.33,-269.559"/>
</g>
<!-- Node28 -->
<g id="node28" class="node"><title>Node28</title>
<g id="a_node28"><a xlink:href="nav__element_8h.xhtml" target="_top" xlink:title="/Users/rkwright/Documents\l/github/readium&#45;sdk&#45;D/ePub3\l/ePub/nav_element.h">
<polygon fill="white" stroke="black" points="2989.05,-189 2989.05,-233 3135.12,-233 3135.12,-189 2989.05,-189"/>
<text text-anchor="start" x="2997.05" y="-219" font-family="Helvetica,sans-Serif" font-size="10.00">/Users/rkwright/Documents</text>
<text text-anchor="start" x="2997.05" y="-207" font-family="Helvetica,sans-Serif" font-size="10.00">/github/readium&#45;sdk&#45;D/ePub3</text>
<text text-anchor="middle" x="3062.08" y="-195" font-family="Helvetica,sans-Serif" font-size="10.00">/ePub/nav_element.h</text>
</a>
</g>
</g>
<!-- Node1&#45;&gt;Node28 -->
<g id="edge40" class="edge"><title>Node1&#45;&gt;Node28</title>
<path fill="none" stroke="midnightblue" d="M2584.44,-285.512C2680.44,-277.209 2842.61,-260.625 2980.08,-234 2982.98,-233.439 2985.92,-232.832 2988.88,-232.189"/>
<polygon fill="midnightblue" stroke="midnightblue" points="2583.88,-282.047 2574.21,-286.387 2584.47,-289.022 2583.88,-282.047"/>
</g>
<!-- Node29 -->
<g id="node29" class="node"><title>Node29</title>
<g id="a_node29"><a xlink:href="nav__point_8h.xhtml" target="_top" xlink:title="/Users/rkwright/Documents\l/github/readium&#45;sdk&#45;D/ePub3\l/ePub/nav_point.h">
<polygon fill="white" stroke="black" points="1233.05,-189 1233.05,-233 1379.12,-233 1379.12,-189 1233.05,-189"/>
<text text-anchor="start" x="1241.05" y="-219" font-family="Helvetica,sans-Serif" font-size="10.00">/Users/rkwright/Documents</text>
<text text-anchor="start" x="1241.05" y="-207" font-family="Helvetica,sans-Serif" font-size="10.00">/github/readium&#45;sdk&#45;D/ePub3</text>
<text text-anchor="middle" x="1306.08" y="-195" font-family="Helvetica,sans-Serif" font-size="10.00">/ePub/nav_point.h</text>
</a>
</g>
</g>
<!-- Node1&#45;&gt;Node29 -->
<g id="edge41" class="edge"><title>Node1&#45;&gt;Node29</title>
<path fill="none" stroke="midnightblue" d="M2417.67,-289.713C2195.22,-283.279 1591.39,-263.55 1394.08,-234 1389.25,-233.277 1384.3,-232.406 1379.33,-231.435"/>
<polygon fill="midnightblue" stroke="midnightblue" points="2417.87,-293.22 2427.97,-290.009 2418.07,-286.223 2417.87,-293.22"/>
</g>
<!-- Node30 -->
<g id="node30" class="node"><title>Node30</title>
<g id="a_node30"><a xlink:href="nav__table_8h.xhtml" target="_top" xlink:title="/Users/rkwright/Documents\l/github/readium&#45;sdk&#45;D/ePub3\l/ePub/nav_table.h">
<polygon fill="white" stroke="black" points="1059.05,-189 1059.05,-233 1205.12,-233 1205.12,-189 1059.05,-189"/>
<text text-anchor="start" x="1067.05" y="-219" font-family="Helvetica,sans-Serif" font-size="10.00">/Users/rkwright/Documents</text>
<text text-anchor="start" x="1067.05" y="-207" font-family="Helvetica,sans-Serif" font-size="10.00">/github/readium&#45;sdk&#45;D/ePub3</text>
<text text-anchor="middle" x="1132.08" y="-195" font-family="Helvetica,sans-Serif" font-size="10.00">/ePub/nav_table.h</text>
</a>
</g>
</g>
<!-- Node1&#45;&gt;Node30 -->
<g id="edge43" class="edge"><title>Node1&#45;&gt;Node30</title>
<path fill="none" stroke="midnightblue" d="M2417.54,-290.272C2172.06,-284.866 1455.76,-266.661 1224.08,-234 1217.9,-233.129 1211.53,-232.032 1205.16,-230.794"/>
<polygon fill="midnightblue" stroke="midnightblue" points="2417.74,-293.777 2427.82,-290.497 2417.9,-286.779 2417.74,-293.777"/>
</g>
<!-- Node31 -->
<g id="node31" class="node"><title>Node31</title>
<g id="a_node31"><a xlink:href="property_8h.xhtml" target="_top" xlink:title="/Users/rkwright/Documents\l/github/readium&#45;sdk&#45;D/ePub3\l/ePub/property.h">
<polygon fill="white" stroke="black" points="3153.05,-189 3153.05,-233 3299.12,-233 3299.12,-189 3153.05,-189"/>
<text text-anchor="start" x="3161.05" y="-219" font-family="Helvetica,sans-Serif" font-size="10.00">/Users/rkwright/Documents</text>
<text text-anchor="start" x="3161.05" y="-207" font-family="Helvetica,sans-Serif" font-size="10.00">/github/readium&#45;sdk&#45;D/ePub3</text>
<text text-anchor="middle" x="3226.08" y="-195" font-family="Helvetica,sans-Serif" font-size="10.00">/ePub/property.h</text>
</a>
</g>
</g>
<!-- Node1&#45;&gt;Node31 -->
<g id="edge47" class="edge"><title>Node1&#45;&gt;Node31</title>
<path fill="none" stroke="midnightblue" d="M2584.55,-289.059C2707.77,-283.683 2945.24,-269.37 3144.08,-234 3146.98,-233.484 3149.93,-232.914 3152.9,-232.302"/>
<polygon fill="midnightblue" stroke="midnightblue" points="2584.27,-285.567 2574.43,-289.491 2584.57,-292.561 2584.27,-285.567"/>
</g>
<!-- Node33 -->
<g id="node33" class="node"><title>Node33</title>
<g id="a_node33"><a xlink:href="property__extension_8h.xhtml" target="_top" xlink:title="/Users/rkwright/Documents\l/github/readium&#45;sdk&#45;D/ePub3\l/ePub/property_extension.h">
<polygon fill="white" stroke="black" points="3317.05,-189 3317.05,-233 3463.12,-233 3463.12,-189 3317.05,-189"/>
<text text-anchor="start" x="3325.05" y="-219" font-family="Helvetica,sans-Serif" font-size="10.00">/Users/rkwright/Documents</text>
<text text-anchor="start" x="3325.05" y="-207" font-family="Helvetica,sans-Serif" font-size="10.00">/github/readium&#45;sdk&#45;D/ePub3</text>
<text text-anchor="middle" x="3390.08" y="-195" font-family="Helvetica,sans-Serif" font-size="10.00">/ePub/property_extension.h</text>
</a>
</g>
</g>
<!-- Node1&#45;&gt;Node33 -->
<g id="edge49" class="edge"><title>Node1&#45;&gt;Node33</title>
<path fill="none" stroke="midnightblue" d="M2584.55,-291.219C2731.71,-288.686 3046.51,-278.075 3308.08,-234 3310.99,-233.51 3313.94,-232.963 3316.92,-232.369"/>
<polygon fill="midnightblue" stroke="midnightblue" points="2584.19,-287.725 2574.25,-291.388 2584.3,-294.724 2584.19,-287.725"/>
</g>
<!-- Node34 -->
<g id="node34" class="node"><title>Node34</title>
<g id="a_node34"><a xlink:href="property__holder_8h.xhtml" target="_top" xlink:title="/Users/rkwright/Documents\l/github/readium&#45;sdk&#45;D/ePub3\l/ePub/property_holder.h">
<polygon fill="white" stroke="black" points="3481.05,-189 3481.05,-233 3627.12,-233 3627.12,-189 3481.05,-189"/>
<text text-anchor="start" x="3489.05" y="-219" font-family="Helvetica,sans-Serif" font-size="10.00">/Users/rkwright/Documents</text>
<text text-anchor="start" x="3489.05" y="-207" font-family="Helvetica,sans-Serif" font-size="10.00">/github/readium&#45;sdk&#45;D/ePub3</text>
<text text-anchor="middle" x="3554.08" y="-195" font-family="Helvetica,sans-Serif" font-size="10.00">/ePub/property_holder.h</text>
</a>
</g>
</g>
<!-- Node1&#45;&gt;Node34 -->
<g id="edge51" class="edge"><title>Node1&#45;&gt;Node34</title>
<path fill="none" stroke="midnightblue" d="M2584.47,-292.676C2753.22,-292.802 3146.79,-286.792 3472.08,-234 3474.99,-233.528 3477.95,-232.995 3480.92,-232.414"/>
<polygon fill="midnightblue" stroke="midnightblue" points="2584.42,-289.176 2574.42,-292.661 2584.41,-296.176 2584.42,-289.176"/>
</g>
<!-- Node3 -->
<g id="node3" class="node"><title>Node3</title>
<g id="a_node3"><a xlink:href="container_8cpp.xhtml" target="_top" xlink:title="/Users/rkwright/Documents\l/github/readium&#45;sdk&#45;D/ePub3\l/ePub/container.cpp">
<polygon fill="white" stroke="black" points="524.048,-101 524.048,-145 670.116,-145 670.116,-101 524.048,-101"/>
<text text-anchor="start" x="532.048" y="-131" font-family="Helvetica,sans-Serif" font-size="10.00">/Users/rkwright/Documents</text>
<text text-anchor="start" x="532.048" y="-119" font-family="Helvetica,sans-Serif" font-size="10.00">/github/readium&#45;sdk&#45;D/ePub3</text>
<text text-anchor="middle" x="597.082" y="-107" font-family="Helvetica,sans-Serif" font-size="10.00">/ePub/container.cpp</text>
</a>
</g>
</g>
<!-- Node2&#45;&gt;Node3 -->
<g id="edge2" class="edge"><title>Node2&#45;&gt;Node3</title>
<path fill="none" stroke="midnightblue" d="M1392.64,-188.722C1391.11,-188.468 1389.59,-188.227 1388.08,-188 1092.75,-143.58 1012.75,-194.093 717.082,-152 701.833,-149.829 685.669,-146.664 670.311,-143.237"/>
<polygon fill="midnightblue" stroke="midnightblue" points="1392.36,-192.229 1402.83,-190.572 1393.61,-185.342 1392.36,-192.229"/>
</g>
<!-- Node4 -->
<g id="node4" class="node"><title>Node4</title>
<g id="a_node4"><a xlink:href="content__handler_8cpp.xhtml" target="_top" xlink:title="/Users/rkwright/Documents\l/github/readium&#45;sdk&#45;D/ePub3\l/ePub/content_handler.cpp">
<polygon fill="white" stroke="black" points="2122.05,-101 2122.05,-145 2268.12,-145 2268.12,-101 2122.05,-101"/>
<text text-anchor="start" x="2130.05" y="-131" font-family="Helvetica,sans-Serif" font-size="10.00">/Users/rkwright/Documents</text>
<text text-anchor="start" x="2130.05" y="-119" font-family="Helvetica,sans-Serif" font-size="10.00">/github/readium&#45;sdk&#45;D/ePub3</text>
<text text-anchor="middle" x="2195.08" y="-107" font-family="Helvetica,sans-Serif" font-size="10.00">/ePub/content_handler.cpp</text>
</a>
</g>
</g>
<!-- Node2&#45;&gt;Node4 -->
<g id="edge3" class="edge"><title>Node2&#45;&gt;Node4</title>
<path fill="none" stroke="midnightblue" d="M1559.35,-208.172C1681.04,-204.194 1914.09,-191.616 2108.08,-152 2117.1,-150.159 2126.5,-147.714 2135.64,-145.035"/>
<polygon fill="midnightblue" stroke="midnightblue" points="1559.23,-204.674 1549.35,-208.487 1559.46,-211.67 1559.23,-204.674"/>
</g>
<!-- Node5 -->
<g id="node5" class="node"><title>Node5</title>
<g id="a_node5"><a xlink:href="epub__collection_8cpp.xhtml" target="_top" xlink:title="/Users/rkwright/Documents\l/github/readium&#45;sdk&#45;D/ePub3\l/ePub/epub_collection.cpp">
<polygon fill="white" stroke="black" points="1756.05,-101 1756.05,-145 1902.12,-145 1902.12,-101 1756.05,-101"/>
<text text-anchor="start" x="1764.05" y="-131" font-family="Helvetica,sans-Serif" font-size="10.00">/Users/rkwright/Documents</text>
<text text-anchor="start" x="1764.05" y="-119" font-family="Helvetica,sans-Serif" font-size="10.00">/github/readium&#45;sdk&#45;D/ePub3</text>
<text text-anchor="middle" x="1829.08" y="-107" font-family="Helvetica,sans-Serif" font-size="10.00">/ePub/epub_collection.cpp</text>
</a>
</g>
</g>
<!-- Node2&#45;&gt;Node5 -->
<g id="edge4" class="edge"><title>Node2&#45;&gt;Node5</title>
<path fill="none" stroke="midnightblue" d="M1559.26,-194.842C1613.2,-184.366 1684.76,-169.243 1747.08,-152 1754.62,-149.914 1762.48,-147.52 1770.22,-145.029"/>
<polygon fill="midnightblue" stroke="midnightblue" points="1558.56,-191.414 1549.4,-196.744 1559.88,-198.287 1558.56,-191.414"/>
</g>
<!-- Node6 -->
<g id="node6" class="node"><title>Node6</title>
<g id="a_node6"><a xlink:href="font__obfuscation_8cpp.xhtml" target="_top" xlink:title="/Users/rkwright/Documents\l/github/readium&#45;sdk&#45;D/ePub3\l/ePub/font_obfuscation.cpp">
<polygon fill="white" stroke="black" points="890.048,-101 890.048,-145 1036.12,-145 1036.12,-101 890.048,-101"/>
<text text-anchor="start" x="898.048" y="-131" font-family="Helvetica,sans-Serif" font-size="10.00">/Users/rkwright/Documents</text>
<text text-anchor="start" x="898.048" y="-119" font-family="Helvetica,sans-Serif" font-size="10.00">/github/readium&#45;sdk&#45;D/ePub3</text>
<text text-anchor="middle" x="963.082" y="-107" font-family="Helvetica,sans-Serif" font-size="10.00">/ePub/font_obfuscation.cpp</text>
</a>
</g>
</g>
<!-- Node2&#45;&gt;Node6 -->
<g id="edge5" class="edge"><title>Node2&#45;&gt;Node6</title>
<path fill="none" stroke="midnightblue" d="M1392.62,-188.829C1391.1,-188.542 1389.58,-188.265 1388.08,-188 1237.14,-161.346 1194.77,-184.974 1045.08,-152 1036.71,-150.155 1028,-147.744 1019.52,-145.11"/>
<polygon fill="midnightblue" stroke="midnightblue" points="1392.29,-192.331 1402.78,-190.857 1393.66,-185.467 1392.29,-192.331"/>
</g>
<!-- Node7 -->
<g id="node7" class="node"><title>Node7</title>
<g id="a_node7"><a xlink:href="e_pub_2library_8cpp.xhtml" target="_top" xlink:title="/Users/rkwright/Documents\l/github/readium&#45;sdk&#45;D/ePub3\l/ePub/library.cpp">
<polygon fill="white" stroke="black" points="22.0476,-101 22.0476,-145 168.116,-145 168.116,-101 22.0476,-101"/>
<text text-anchor="start" x="30.0476" y="-131" font-family="Helvetica,sans-Serif" font-size="10.00">/Users/rkwright/Documents</text>
<text text-anchor="start" x="30.0476" y="-119" font-family="Helvetica,sans-Serif" font-size="10.00">/github/readium&#45;sdk&#45;D/ePub3</text>
<text text-anchor="middle" x="95.0818" y="-107" font-family="Helvetica,sans-Serif" font-size="10.00">/ePub/library.cpp</text>
</a>
</g>
</g>
<!-- Node2&#45;&gt;Node7 -->
<g id="edge6" class="edge"><title>Node2&#45;&gt;Node7</title>
<path fill="none" stroke="midnightblue" d="M1392.65,-188.672C1391.12,-188.433 1389.59,-188.209 1388.08,-188 1121.39,-151.138 441.992,-200.037 177.082,-152 167.905,-150.336 158.363,-147.835 149.172,-145.001"/>
<polygon fill="midnightblue" stroke="midnightblue" points="1392.4,-192.181 1402.85,-190.439 1393.59,-185.284 1392.4,-192.181"/>
</g>
<!-- Node8 -->
<g id="node8" class="node"><title>Node8</title>
<g id="a_node8"><a xlink:href="link_8cpp.xhtml" target="_top" xlink:title="/Users/rkwright/Documents\l/github/readium&#45;sdk&#45;D/ePub3\l/ePub/link.cpp">
<polygon fill="white" stroke="black" points="1920.05,-101 1920.05,-145 2066.12,-145 2066.12,-101 1920.05,-101"/>
<text text-anchor="start" x="1928.05" y="-131" font-family="Helvetica,sans-Serif" font-size="10.00">/Users/rkwright/Documents</text>
<text text-anchor="start" x="1928.05" y="-119" font-family="Helvetica,sans-Serif" font-size="10.00">/github/readium&#45;sdk&#45;D/ePub3</text>
<text text-anchor="middle" x="1993.08" y="-107" font-family="Helvetica,sans-Serif" font-size="10.00">/ePub/link.cpp</text>
</a>
</g>
</g>
<!-- Node2&#45;&gt;Node8 -->
<g id="edge7" class="edge"><title>Node2&#45;&gt;Node8</title>
<path fill="none" stroke="midnightblue" d="M1559.44,-203.784C1647.66,-196.07 1790.51,-180.333 1911.08,-152 1919.28,-150.073 1927.82,-147.649 1936.15,-145.038"/>
<polygon fill="midnightblue" stroke="midnightblue" points="1558.89,-200.318 1549.22,-204.663 1559.49,-207.293 1558.89,-200.318"/>
</g>
<!-- Node9 -->
<g id="node9" class="node"><title>Node9</title>
<g id="a_node9"><a xlink:href="manifest_8cpp.xhtml" target="_top" xlink:title="/Users/rkwright/Documents\l/github/readium&#45;sdk&#45;D/ePub3\l/ePub/manifest.cpp">
<polygon fill="white" stroke="black" points="186.048,-101 186.048,-145 332.116,-145 332.116,-101 186.048,-101"/>
<text text-anchor="start" x="194.048" y="-131" font-family="Helvetica,sans-Serif" font-size="10.00">/Users/rkwright/Documents</text>
<text text-anchor="start" x="194.048" y="-119" font-family="Helvetica,sans-Serif" font-size="10.00">/github/readium&#45;sdk&#45;D/ePub3</text>
<text text-anchor="middle" x="259.082" y="-107" font-family="Helvetica,sans-Serif" font-size="10.00">/ePub/manifest.cpp</text>
</a>
</g>
</g>
<!-- Node2&#45;&gt;Node9 -->
<g id="edge8" class="edge"><title>Node2&#45;&gt;Node9</title>
<path fill="none" stroke="midnightblue" d="M1392.65,-188.682C1391.11,-188.44 1389.59,-188.212 1388.08,-188 927.449,-123.232 799.74,-235.224 342.082,-152 332.955,-150.34 323.465,-147.882 314.303,-145.099"/>
<polygon fill="midnightblue" stroke="midnightblue" points="1392.39,-192.19 1402.84,-190.465 1393.6,-185.295 1392.39,-192.19"/>
</g>
<!-- Node2&#45;&gt;Node10 -->
<g id="edge9" class="edge"><title>Node2&#45;&gt;Node10</title>
<path fill="none" stroke="midnightblue" d="M1559.46,-207.357C1762.17,-200.553 2276.61,-180.918 2446.08,-152 2456.46,-150.229 2467.31,-147.769 2477.85,-145.035"/>
<polygon fill="midnightblue" stroke="midnightblue" points="1559.34,-203.859 1549.46,-207.69 1559.58,-210.855 1559.34,-203.859"/>
</g>
<!-- Node11 -->
<g id="node11" class="node"><title>Node11</title>
<g id="a_node11"><a xlink:href="media-overlays__smil__model_8cpp.xhtml" target="_top" xlink:title="/Users/rkwright/Documents\l/github/readium&#45;sdk&#45;D/ePub3\l/ePub/media&#45;overlays_smil\l_model.cpp">
<polygon fill="white" stroke="black" points="2246.05,-1 2246.05,-57 2392.12,-57 2392.12,-1 2246.05,-1"/>
<text text-anchor="start" x="2254.05" y="-43" font-family="Helvetica,sans-Serif" font-size="10.00">/Users/rkwright/Documents</text>
<text text-anchor="start" x="2254.05" y="-31" font-family="Helvetica,sans-Serif" font-size="10.00">/github/readium&#45;sdk&#45;D/ePub3</text>
<text text-anchor="start" x="2254.05" y="-19" font-family="Helvetica,sans-Serif" font-size="10.00">/ePub/media&#45;overlays_smil</text>
<text text-anchor="middle" x="2319.08" y="-7" font-family="Helvetica,sans-Serif" font-size="10.00">_model.cpp</text>
</a>
</g>
</g>
<!-- Node2&#45;&gt;Node11 -->
<g id="edge12" class="edge"><title>Node2&#45;&gt;Node11</title>
<path fill="none" stroke="midnightblue" d="M1559.3,-210.658C1702.99,-210.381 1990.38,-203.194 2075.08,-152 2101.46,-136.059 2088.47,-112.552 2113.08,-94 2151.66,-64.9167 2203.66,-48.893 2245.77,-40.1521"/>
<polygon fill="midnightblue" stroke="midnightblue" points="1559.2,-207.158 1549.2,-210.666 1559.21,-214.158 1559.2,-207.158"/>
</g>
<!-- Node13 -->
<g id="node13" class="node"><title>Node13</title>
<g id="a_node13"><a xlink:href="media__support__info_8cpp.xhtml" target="_top" xlink:title="/Users/rkwright/Documents\l/github/readium&#45;sdk&#45;D/ePub3\l/ePub/media_support_info.cpp">
<polygon fill="white" stroke="black" points="2286.26,-101 2286.26,-145 2437.91,-145 2437.91,-101 2286.26,-101"/>
<text text-anchor="start" x="2294.26" y="-131" font-family="Helvetica,sans-Serif" font-size="10.00">/Users/rkwright/Documents</text>
<text text-anchor="start" x="2294.26" y="-119" font-family="Helvetica,sans-Serif" font-size="10.00">/github/readium&#45;sdk&#45;D/ePub3</text>
<text text-anchor="middle" x="2362.08" y="-107" font-family="Helvetica,sans-Serif" font-size="10.00">/ePub/media_support_info.cpp</text>
</a>
</g>
</g>
<!-- Node2&#45;&gt;Node13 -->
<g id="edge13" class="edge"><title>Node2&#45;&gt;Node13</title>
<path fill="none" stroke="midnightblue" d="M1559.49,-210.665C1706.1,-210.353 2018.95,-203.05 2277.08,-152 2286.07,-150.222 2295.44,-147.776 2304.52,-145.064"/>
<polygon fill="midnightblue" stroke="midnightblue" points="1559.22,-207.166 1549.22,-210.676 1559.23,-214.166 1559.22,-207.166"/>
</g>
<!-- Node14 -->
<g id="node14" class="node"><title>Node14</title>
<g id="a_node14"><a xlink:href="nav__point_8cpp.xhtml" target="_top" xlink:title="/Users/rkwright/Documents\l/github/readium&#45;sdk&#45;D/ePub3\l/ePub/nav_point.cpp">
<polygon fill="white" stroke="black" points="1054.05,-101 1054.05,-145 1200.12,-145 1200.12,-101 1054.05,-101"/>
<text text-anchor="start" x="1062.05" y="-131" font-family="Helvetica,sans-Serif" font-size="10.00">/Users/rkwright/Documents</text>
<text text-anchor="start" x="1062.05" y="-119" font-family="Helvetica,sans-Serif" font-size="10.00">/github/readium&#45;sdk&#45;D/ePub3</text>
<text text-anchor="middle" x="1127.08" y="-107" font-family="Helvetica,sans-Serif" font-size="10.00">/ePub/nav_point.cpp</text>
</a>
</g>
</g>
<!-- Node2&#45;&gt;Node14 -->
<g id="edge14" class="edge"><title>Node2&#45;&gt;Node14</title>
<path fill="none" stroke="midnightblue" d="M1392.58,-189.024C1391.07,-188.677 1389.57,-188.335 1388.08,-188 1308.92,-170.154 1287.42,-173.156 1209.08,-152 1201.53,-149.961 1193.66,-147.594 1185.92,-145.118"/>
<polygon fill="midnightblue" stroke="midnightblue" points="1392.14,-192.515 1402.68,-191.378 1393.73,-185.698 1392.14,-192.515"/>
</g>
<!-- Node15 -->
<g id="node15" class="node"><title>Node15</title>
<g id="a_node15"><a xlink:href="nav__table_8cpp.xhtml" target="_top" xlink:title="/Users/rkwright/Documents\l/github/readium&#45;sdk&#45;D/ePub3\l/ePub/nav_table.cpp">
<polygon fill="white" stroke="black" points="1218.05,-101 1218.05,-145 1364.12,-145 1364.12,-101 1218.05,-101"/>
<text text-anchor="start" x="1226.05" y="-131" font-family="Helvetica,sans-Serif" font-size="10.00">/Users/rkwright/Documents</text>
<text text-anchor="start" x="1226.05" y="-119" font-family="Helvetica,sans-Serif" font-size="10.00">/github/readium&#45;sdk&#45;D/ePub3</text>
<text text-anchor="middle" x="1291.08" y="-107" font-family="Helvetica,sans-Serif" font-size="10.00">/ePub/nav_table.cpp</text>
</a>
</g>
</g>
<!-- Node2&#45;&gt;Node15 -->
<g id="edge15" class="edge"><title>Node2&#45;&gt;Node15</title>
<path fill="none" stroke="midnightblue" d="M1421.5,-184.626C1394.46,-172.055 1362.19,-157.054 1336.51,-145.119"/>
<polygon fill="midnightblue" stroke="midnightblue" points="1420.28,-187.92 1430.83,-188.962 1423.23,-181.573 1420.28,-187.92"/>
</g>
<!-- Node16 -->
<g id="node16" class="node"><title>Node16</title>
<g id="a_node16"><a xlink:href="object__preprocessor_8cpp.xhtml" target="_top" xlink:title="/Users/rkwright/Documents\l/github/readium&#45;sdk&#45;D/ePub3\l/ePub/object_preprocessor.cpp">
<polygon fill="white" stroke="black" points="1420.15,-101 1420.15,-145 1574.02,-145 1574.02,-101 1420.15,-101"/>
<text text-anchor="start" x="1428.15" y="-131" font-family="Helvetica,sans-Serif" font-size="10.00">/Users/rkwright/Documents</text>
<text text-anchor="start" x="1428.15" y="-119" font-family="Helvetica,sans-Serif" font-size="10.00">/github/readium&#45;sdk&#45;D/ePub3</text>
<text text-anchor="middle" x="1497.08" y="-107" font-family="Helvetica,sans-Serif" font-size="10.00">/ePub/object_preprocessor.cpp</text>
</a>
</g>
</g>
<!-- Node2&#45;&gt;Node16 -->
<g id="edge16" class="edge"><title>Node2&#45;&gt;Node16</title>
<path fill="none" stroke="midnightblue" d="M1483.69,-178.843C1486.44,-167.6 1489.47,-155.184 1491.95,-145.014"/>
<polygon fill="midnightblue" stroke="midnightblue" points="1480.24,-178.197 1481.27,-188.742 1487.05,-179.857 1480.24,-178.197"/>
</g>
<!-- Node12 -->
<g id="node12" class="node"><title>Node12</title>
<g id="a_node12"><a xlink:href="package_8cpp.xhtml" target="_top" xlink:title="/Users/rkwright/Documents\l/github/readium&#45;sdk&#45;D/ePub3\l/ePub/package.cpp">
<polygon fill="white" stroke="black" points="972.048,-7 972.048,-51 1118.12,-51 1118.12,-7 972.048,-7"/>
<text text-anchor="start" x="980.048" y="-37" font-family="Helvetica,sans-Serif" font-size="10.00">/Users/rkwright/Documents</text>
<text text-anchor="start" x="980.048" y="-25" font-family="Helvetica,sans-Serif" font-size="10.00">/github/readium&#45;sdk&#45;D/ePub3</text>
<text text-anchor="middle" x="1045.08" y="-13" font-family="Helvetica,sans-Serif" font-size="10.00">/ePub/package.cpp</text>
</a>
</g>
</g>
<!-- Node2&#45;&gt;Node12 -->
<g id="edge17" class="edge"><title>Node2&#45;&gt;Node12</title>
<path fill="none" stroke="midnightblue" d="M1441.56,-182.197C1431.22,-173.097 1420.21,-162.592 1411.08,-152 1390.97,-128.652 1398.66,-111.19 1373.08,-94 1332.27,-66.5721 1201.71,-47.4078 1118.14,-37.5885"/>
<polygon fill="midnightblue" stroke="midnightblue" points="1439.44,-184.987 1449.3,-188.859 1444,-179.682 1439.44,-184.987"/>
</g>
<!-- Node17 -->
<g id="node17" class="node"><title>Node17</title>
<g id="a_node17"><a xlink:href="_pass_through_filter_8cpp.xhtml" target="_top" xlink:title="/Users/rkwright/Documents\l/github/readium&#45;sdk&#45;D/ePub3\l/ePub/PassThroughFilter.cpp">
<polygon fill="white" stroke="black" points="726.048,-101 726.048,-145 872.116,-145 872.116,-101 726.048,-101"/>
<text text-anchor="start" x="734.048" y="-131" font-family="Helvetica,sans-Serif" font-size="10.00">/Users/rkwright/Documents</text>
<text text-anchor="start" x="734.048" y="-119" font-family="Helvetica,sans-Serif" font-size="10.00">/github/readium&#45;sdk&#45;D/ePub3</text>
<text text-anchor="middle" x="799.082" y="-107" font-family="Helvetica,sans-Serif" font-size="10.00">/ePub/PassThroughFilter.cpp</text>
</a>
</g>
</g>
<!-- Node2&#45;&gt;Node17 -->
<g id="edge18" class="edge"><title>Node2&#45;&gt;Node17</title>
<path fill="none" stroke="midnightblue" d="M1392.63,-188.758C1391.11,-188.493 1389.59,-188.24 1388.08,-188 1164.99,-152.471 1102.48,-196.873 881.082,-152 872.383,-150.237 863.339,-147.799 854.569,-145.092"/>
<polygon fill="midnightblue" stroke="midnightblue" points="1392.34,-192.264 1402.81,-190.669 1393.63,-185.384 1392.34,-192.264"/>
</g>
<!-- Node18 -->
<g id="node18" class="node"><title>Node18</title>
<g id="a_node18"><a xlink:href="spine_8cpp.xhtml" target="_top" xlink:title="/Users/rkwright/Documents\l/github/readium&#45;sdk&#45;D/ePub3\l/ePub/spine.cpp">
<polygon fill="white" stroke="black" points="1592.05,-101 1592.05,-145 1738.12,-145 1738.12,-101 1592.05,-101"/>
<text text-anchor="start" x="1600.05" y="-131" font-family="Helvetica,sans-Serif" font-size="10.00">/Users/rkwright/Documents</text>
<text text-anchor="start" x="1600.05" y="-119" font-family="Helvetica,sans-Serif" font-size="10.00">/github/readium&#45;sdk&#45;D/ePub3</text>
<text text-anchor="middle" x="1665.08" y="-107" font-family="Helvetica,sans-Serif" font-size="10.00">/ePub/spine.cpp</text>
</a>
</g>
</g>
<!-- Node2&#45;&gt;Node18 -->
<g id="edge19" class="edge"><title>Node2&#45;&gt;Node18</title>
<path fill="none" stroke="midnightblue" d="M1531.48,-184.791C1559.18,-172.186 1592.33,-157.106 1618.67,-145.119"/>
<polygon fill="midnightblue" stroke="midnightblue" points="1529.97,-181.635 1522.32,-188.962 1532.87,-188.006 1529.97,-181.635"/>
</g>
<!-- Node19 -->
<g id="node19" class="node"><title>Node19</title>
<g id="a_node19"><a xlink:href="switch__preprocessor_8cpp.xhtml" target="_top" xlink:title="/Users/rkwright/Documents\l/github/readium&#45;sdk&#45;D/ePub3\l/ePub/switch_preprocessor.cpp">
<polygon fill="white" stroke="black" points="350.597,-101 350.597,-145 505.567,-145 505.567,-101 350.597,-101"/>
<text text-anchor="start" x="358.597" y="-131" font-family="Helvetica,sans-Serif" font-size="10.00">/Users/rkwright/Documents</text>
<text text-anchor="start" x="358.597" y="-119" font-family="Helvetica,sans-Serif" font-size="10.00">/github/readium&#45;sdk&#45;D/ePub3</text>
<text text-anchor="middle" x="428.082" y="-107" font-family="Helvetica,sans-Serif" font-size="10.00">/ePub/switch_preprocessor.cpp</text>
</a>
</g>
</g>
<!-- Node2&#45;&gt;Node19 -->
<g id="edge20" class="edge"><title>Node2&#45;&gt;Node19</title>
<path fill="none" stroke="midnightblue" d="M1392.64,-188.696C1391.11,-188.45 1389.59,-188.218 1388.08,-188 1003.72,-132.621 897.393,-220.105 515.082,-152 505.553,-150.303 495.625,-147.824 486.03,-145.034"/>
<polygon fill="midnightblue" stroke="midnightblue" points="1392.38,-192.204 1402.84,-190.503 1393.6,-185.312 1392.38,-192.204"/>
</g>
<!-- Node10&#45;&gt;Node11 -->
<g id="edge10" class="edge"><title>Node10&#45;&gt;Node11</title>
<path fill="none" stroke="midnightblue" d="M2482.9,-96.9832C2452.72,-84.6434 2416.27,-69.7396 2385.42,-57.1263"/>
<polygon fill="midnightblue" stroke="midnightblue" points="2481.88,-100.348 2492.46,-100.893 2484.53,-93.8689 2481.88,-100.348"/>
</g>
<!-- Node10&#45;&gt;Node12 -->
<g id="edge11" class="edge"><title>Node10&#45;&gt;Node12</title>
<path fill="none" stroke="midnightblue" d="M2468.54,-98.5346C2461.01,-96.7623 2453.43,-95.2004 2446.08,-94 2186.71,-51.6174 1368.54,-35.2043 1118.43,-31.1003"/>
<polygon fill="midnightblue" stroke="midnightblue" points="2467.85,-101.969 2478.4,-100.973 2469.53,-95.1742 2467.85,-101.969"/>
</g>
<!-- Node20&#45;&gt;Node3 -->
<g id="edge22" class="edge"><title>Node20&#45;&gt;Node3</title>
<path fill="none" stroke="midnightblue" d="M540.849,-181.571C552.502,-169.642 565.812,-156.015 576.557,-145.014"/>
<polygon fill="midnightblue" stroke="midnightblue" points="538.329,-179.142 533.846,-188.742 543.337,-184.033 538.329,-179.142"/>
</g>
<!-- Node20&#45;&gt;Node6 -->
<g id="edge23" class="edge"><title>Node20&#45;&gt;Node6</title>
<path fill="none" stroke="midnightblue" d="M596.785,-200.988C671.912,-191.914 784.843,-175.825 881.082,-152 889.113,-150.012 897.478,-147.585 905.663,-145.001"/>
<polygon fill="midnightblue" stroke="midnightblue" points="595.956,-197.562 586.441,-202.222 596.785,-204.513 595.956,-197.562"/>
</g>
<!-- Node20&#45;&gt;Node7 -->
<g id="edge24" class="edge"><title>Node20&#45;&gt;Node7</title>
<path fill="none" stroke="midnightblue" d="M429.662,-199.343C361.2,-189.704 262.052,-173.696 177.082,-152 169.211,-149.99 161.012,-147.583 152.974,-145.034"/>
<polygon fill="midnightblue" stroke="midnightblue" points="429.569,-202.863 439.956,-200.777 430.535,-195.93 429.569,-202.863"/>
</g>
<!-- Node20&#45;&gt;Node9 -->
<g id="edge25" class="edge"><title>Node20&#45;&gt;Node9</title>
<path fill="none" stroke="midnightblue" d="M441.043,-185.609C403.34,-172.843 357.63,-157.367 321.456,-145.119"/>
<polygon fill="midnightblue" stroke="midnightblue" points="440.352,-189.07 450.946,-188.962 442.597,-182.44 440.352,-189.07"/>
</g>
<!-- Node20&#45;&gt;Node12 -->
<g id="edge26" class="edge"><title>Node20&#45;&gt;Node12</title>
<path fill="none" stroke="midnightblue" d="M429.621,-206.28C294.53,-199.394 40.2549,-182.507 13.0818,-152 -4.06358,-132.751 -4.57274,-112.783 13.0818,-94 45.892,-59.092 741.763,-37.8955 971.909,-31.8198"/>
<polygon fill="midnightblue" stroke="midnightblue" points="429.767,-209.792 439.93,-206.798 430.118,-202.8 429.767,-209.792"/>
</g>
<!-- Node20&#45;&gt;Node17 -->
<g id="edge27" class="edge"><title>Node20&#45;&gt;Node17</title>
<path fill="none" stroke="midnightblue" d="M592.844,-186.015C635.553,-173.173 687.685,-157.497 728.849,-145.119"/>
<polygon fill="midnightblue" stroke="midnightblue" points="591.614,-182.731 583.045,-188.962 593.63,-189.434 591.614,-182.731"/>
</g>
<!-- Node20&#45;&gt;Node19 -->
<g id="edge28" class="edge"><title>Node20&#45;&gt;Node19</title>
<path fill="none" stroke="midnightblue" d="M484.984,-181.571C473.193,-169.642 459.724,-156.015 448.851,-145.014"/>
<polygon fill="midnightblue" stroke="midnightblue" points="482.552,-184.09 492.071,-188.742 487.53,-179.169 482.552,-184.09"/>
</g>
<!-- Node21&#45;&gt;Node4 -->
<g id="edge30" class="edge"><title>Node21&#45;&gt;Node4</title>
<path fill="none" stroke="midnightblue" d="M2185.52,-178.843C2187.48,-167.6 2189.64,-155.184 2191.42,-145.014"/>
<polygon fill="midnightblue" stroke="midnightblue" points="2182.06,-178.289 2183.79,-188.742 2188.96,-179.492 2182.06,-178.289"/>
</g>
<!-- Node23 -->
<g id="node23" class="node"><title>Node23</title>
<g id="a_node23"><a xlink:href="encryption_8cpp.xhtml" target="_top" xlink:title="/Users/rkwright/Documents\l/github/readium&#45;sdk&#45;D/ePub3\l/ePub/encryption.cpp">
<polygon fill="white" stroke="black" points="2815.05,-101 2815.05,-145 2961.12,-145 2961.12,-101 2815.05,-101"/>
<text text-anchor="start" x="2823.05" y="-131" font-family="Helvetica,sans-Serif" font-size="10.00">/Users/rkwright/Documents</text>
<text text-anchor="start" x="2823.05" y="-119" font-family="Helvetica,sans-Serif" font-size="10.00">/github/readium&#45;sdk&#45;D/ePub3</text>
<text text-anchor="middle" x="2888.08" y="-107" font-family="Helvetica,sans-Serif" font-size="10.00">/ePub/encryption.cpp</text>
</a>
</g>
</g>
<!-- Node22&#45;&gt;Node23 -->
<g id="edge32" class="edge"><title>Node22&#45;&gt;Node23</title>
<path fill="none" stroke="midnightblue" d="M2780.7,-183.965C2802.97,-171.532 2829.27,-156.846 2850.26,-145.119"/>
<polygon fill="midnightblue" stroke="midnightblue" points="2778.78,-181.031 2771.75,-188.962 2782.19,-187.142 2778.78,-181.031"/>
</g>
<!-- Node26 -->
<g id="node26" class="node"><title>Node26</title>
<g id="a_node26"><a xlink:href="media-overlays__smil__data_8cpp.xhtml" target="_top" xlink:title="/Users/rkwright/Documents\l/github/readium&#45;sdk&#45;D/ePub3\l/ePub/media&#45;overlays_smil\l_data.cpp">
<polygon fill="white" stroke="black" points="2651.05,-95 2651.05,-151 2797.12,-151 2797.12,-95 2651.05,-95"/>
<text text-anchor="start" x="2659.05" y="-137" font-family="Helvetica,sans-Serif" font-size="10.00">/Users/rkwright/Documents</text>
<text text-anchor="start" x="2659.05" y="-125" font-family="Helvetica,sans-Serif" font-size="10.00">/github/readium&#45;sdk&#45;D/ePub3</text>
<text text-anchor="start" x="2659.05" y="-113" font-family="Helvetica,sans-Serif" font-size="10.00">/ePub/media&#45;overlays_smil</text>
<text text-anchor="middle" x="2724.08" y="-101" font-family="Helvetica,sans-Serif" font-size="10.00">_data.cpp</text>
</a>
</g>
</g>
<!-- Node25&#45;&gt;Node26 -->
<g id="edge35" class="edge"><title>Node25&#45;&gt;Node26</title>
<path fill="none" stroke="midnightblue" d="M2607.75,-184.266C2628.01,-173.77 2651.45,-161.627 2671.96,-151.004"/>
<polygon fill="midnightblue" stroke="midnightblue" points="2605.96,-181.254 2598.69,-188.962 2609.18,-187.47 2605.96,-181.254"/>
</g>
<!-- Node25&#45;&gt;Node10 -->
<g id="edge36" class="edge"><title>Node25&#45;&gt;Node10</title>
<path fill="none" stroke="midnightblue" d="M2553.01,-178.843C2551.18,-167.6 2549.16,-155.184 2547.5,-145.014"/>
<polygon fill="midnightblue" stroke="midnightblue" points="2549.56,-179.434 2554.62,-188.742 2556.47,-178.309 2549.56,-179.434"/>
</g>
<!-- Node27&#45;&gt;Node13 -->
<g id="edge39" class="edge"><title>Node27&#45;&gt;Node13</title>
<path fill="none" stroke="midnightblue" d="M2350.6,-178.843C2352.96,-167.6 2355.55,-155.184 2357.68,-145.014"/>
<polygon fill="midnightblue" stroke="midnightblue" points="2347.15,-178.237 2348.53,-188.742 2354.01,-179.671 2347.15,-178.237"/>
</g>
<!-- Node29&#45;&gt;Node14 -->
<g id="edge42" class="edge"><title>Node29&#45;&gt;Node14</title>
<path fill="none" stroke="midnightblue" d="M1253.27,-184.626C1227.1,-172.055 1195.88,-157.054 1171.04,-145.119"/>
<polygon fill="midnightblue" stroke="midnightblue" points="1251.76,-187.786 1262.29,-188.962 1254.8,-181.477 1251.76,-187.786"/>
</g>
<!-- Node30&#45;&gt;Node14 -->
<g id="edge44" class="edge"><title>Node30&#45;&gt;Node14</title>
<path fill="none" stroke="midnightblue" d="M1130.25,-178.499C1129.6,-167.346 1128.89,-155.081 1128.3,-145.014"/>
<polygon fill="midnightblue" stroke="midnightblue" points="1126.77,-178.962 1130.85,-188.742 1133.76,-178.555 1126.77,-178.962"/>
</g>
<!-- Node30&#45;&gt;Node15 -->
<g id="edge45" class="edge"><title>Node30&#45;&gt;Node15</title>
<path fill="none" stroke="midnightblue" d="M1179.91,-184.131C1202.96,-171.663 1230.26,-156.898 1252.04,-145.119"/>
<polygon fill="midnightblue" stroke="midnightblue" points="1178.11,-181.126 1170.98,-188.962 1181.44,-187.283 1178.11,-181.126"/>
</g>
<!-- Node30&#45;&gt;Node12 -->
<g id="edge46" class="edge"><title>Node30&#45;&gt;Node12</title>
<path fill="none" stroke="midnightblue" d="M1048.72,-210.704C940.137,-209.634 759.175,-200.385 717.082,-152 642.213,-65.9395 853.584,-40.4917 971.609,-33.0398"/>
<polygon fill="midnightblue" stroke="midnightblue" points="1048.97,-214.206 1058.99,-210.783 1049.02,-207.206 1048.97,-214.206"/>
</g>
<!-- Node32 -->
<g id="node32" class="node"><title>Node32</title>
<g id="a_node32"><a xlink:href="property__extension_8cpp.xhtml" target="_top" xlink:title="/Users/rkwright/Documents\l/github/readium&#45;sdk&#45;D/ePub3\l/ePub/property_extension.cpp">
<polygon fill="white" stroke="black" points="3315.65,-101 3315.65,-145 3464.51,-145 3464.51,-101 3315.65,-101"/>
<text text-anchor="start" x="3323.65" y="-131" font-family="Helvetica,sans-Serif" font-size="10.00">/Users/rkwright/Documents</text>
<text text-anchor="start" x="3323.65" y="-119" font-family="Helvetica,sans-Serif" font-size="10.00">/github/readium&#45;sdk&#45;D/ePub3</text>
<text text-anchor="middle" x="3390.08" y="-107" font-family="Helvetica,sans-Serif" font-size="10.00">/ePub/property_extension.cpp</text>
</a>
</g>
</g>
<!-- Node31&#45;&gt;Node32 -->
<g id="edge48" class="edge"><title>Node31&#45;&gt;Node32</title>
<path fill="none" stroke="midnightblue" d="M3275.1,-184.296C3298.94,-171.793 3327.25,-156.95 3349.81,-145.119"/>
<polygon fill="midnightblue" stroke="midnightblue" points="3273.43,-181.218 3266.2,-188.962 3276.68,-187.418 3273.43,-181.218"/>
</g>
<!-- Node33&#45;&gt;Node32 -->
<g id="edge50" class="edge"><title>Node33&#45;&gt;Node32</title>
<path fill="none" stroke="midnightblue" d="M3390.08,-178.499C3390.08,-167.346 3390.08,-155.081 3390.08,-145.014"/>
<polygon fill="midnightblue" stroke="midnightblue" points="3386.58,-178.742 3390.08,-188.742 3393.58,-178.742 3386.58,-178.742"/>
</g>
<!-- Node34&#45;&gt;Node32 -->
<g id="edge52" class="edge"><title>Node34&#45;&gt;Node32</title>
<path fill="none" stroke="midnightblue" d="M3505.06,-184.296C3481.22,-171.793 3452.92,-156.95 3430.35,-145.119"/>
<polygon fill="midnightblue" stroke="midnightblue" points="3503.48,-187.418 3513.96,-188.962 3506.73,-181.218 3503.48,-187.418"/>
</g>
<!-- Node35 -->
<g id="node35" class="node"><title>Node35</title>
<g id="a_node35"><a xlink:href="property__holder_8cpp.xhtml" target="_top" xlink:title="/Users/rkwright/Documents\l/github/readium&#45;sdk&#45;D/ePub3\l/ePub/property_holder.cpp">
<polygon fill="white" stroke="black" points="3482.05,-101 3482.05,-145 3628.12,-145 3628.12,-101 3482.05,-101"/>
<text text-anchor="start" x="3490.05" y="-131" font-family="Helvetica,sans-Serif" font-size="10.00">/Users/rkwright/Documents</text>
<text text-anchor="start" x="3490.05" y="-119" font-family="Helvetica,sans-Serif" font-size="10.00">/github/readium&#45;sdk&#45;D/ePub3</text>
<text text-anchor="middle" x="3555.08" y="-107" font-family="Helvetica,sans-Serif" font-size="10.00">/ePub/property_holder.cpp</text>
</a>
</g>
</g>
<!-- Node34&#45;&gt;Node35 -->
<g id="edge53" class="edge"><title>Node34&#45;&gt;Node35</title>
<path fill="none" stroke="midnightblue" d="M3554.45,-178.499C3554.58,-167.346 3554.72,-155.081 3554.84,-145.014"/>
<polygon fill="midnightblue" stroke="midnightblue" points="3550.95,-178.702 3554.33,-188.742 3557.95,-178.783 3550.95,-178.702"/>
</g>
</g>
</svg>
