<?xml version="1.0" encoding="UTF-8" standalone="no"?>
<!DOCTYPE svg PUBLIC "-//W3C//DTD SVG 1.1//EN"
 "http://www.w3.org/Graphics/SVG/1.1/DTD/svg11.dtd">
<!-- Generated by graphviz version 2.30.0 (20130114.0426)
 -->
<!-- Title: /Users/rkwright/Documents/github/readium&#45;sdk&#45;D/ePub3/ePub/package.h Pages: 1 -->
<svg width="2580pt" height="230pt"
 viewBox="0.00 0.00 2580.00 230.00" xmlns="http://www.w3.org/2000/svg" xmlns:xlink="http://www.w3.org/1999/xlink">
<g id="graph0" class="graph" transform="scale(1 1) rotate(0) translate(4 226)">
<title>/Users/rkwright/Documents/github/readium&#45;sdk&#45;D/ePub3/ePub/package.h</title>
<polygon fill="white" stroke="white" points="-4,5 -4,-226 2577,-226 2577,5 -4,5"/>
<!-- Node1 -->
<g id="node1" class="node"><title>Node1</title>
<polygon fill="#bfbfbf" stroke="black" points="1201.97,-177 1201.97,-221 1348.03,-221 1348.03,-177 1201.97,-177"/>
<text text-anchor="start" x="1209.97" y="-207" font-family="Helvetica,sans-Serif" font-size="10.00">/Users/rkwright/Documents</text>
<text text-anchor="start" x="1209.97" y="-195" font-family="Helvetica,sans-Serif" font-size="10.00">/github/readium&#45;sdk&#45;D/ePub3</text>
<text text-anchor="middle" x="1275" y="-183" font-family="Helvetica,sans-Serif" font-size="10.00">/ePub/package.h</text>
</g>
<!-- Node2 -->
<g id="node2" class="node"><title>Node2</title>
<g id="a_node2"><a xlink:href="container_8cpp.xhtml" target="_top" xlink:title="/Users/rkwright/Documents\l/github/readium&#45;sdk&#45;D/ePub3\l/ePub/container.cpp">
<polygon fill="white" stroke="black" points="-0.0341797,-95 -0.0341797,-139 146.034,-139 146.034,-95 -0.0341797,-95"/>
<text text-anchor="start" x="7.96582" y="-125" font-family="Helvetica,sans-Serif" font-size="10.00">/Users/rkwright/Documents</text>
<text text-anchor="start" x="7.96582" y="-113" font-family="Helvetica,sans-Serif" font-size="10.00">/github/readium&#45;sdk&#45;D/ePub3</text>
<text text-anchor="middle" x="73" y="-101" font-family="Helvetica,sans-Serif" font-size="10.00">/ePub/container.cpp</text>
</a>
</g>
</g>
<!-- Node1&#45;&gt;Node2 -->
<g id="edge1" class="edge"><title>Node1&#45;&gt;Node2</title>
<path fill="none" stroke="midnightblue" d="M1191.71,-195.958C967.505,-190.1 354.7,-171.599 155,-140 152.088,-139.539 149.131,-139.016 146.153,-138.444"/>
<polygon fill="midnightblue" stroke="midnightblue" points="1191.68,-199.459 1201.77,-196.22 1191.86,-192.461 1191.68,-199.459"/>
</g>
<!-- Node3 -->
<g id="node3" class="node"><title>Node3</title>
<g id="a_node3"><a xlink:href="content__handler_8cpp.xhtml" target="_top" xlink:title="/Users/rkwright/Documents\l/github/readium&#45;sdk&#45;D/ePub3\l/ePub/content_handler.cpp">
<polygon fill="white" stroke="black" points="163.966,-95 163.966,-139 310.034,-139 310.034,-95 163.966,-95"/>
<text text-anchor="start" x="171.966" y="-125" font-family="Helvetica,sans-Serif" font-size="10.00">/Users/rkwright/Documents</text>
<text text-anchor="start" x="171.966" y="-113" font-family="Helvetica,sans-Serif" font-size="10.00">/github/readium&#45;sdk&#45;D/ePub3</text>
<text text-anchor="middle" x="237" y="-101" font-family="Helvetica,sans-Serif" font-size="10.00">/ePub/content_handler.cpp</text>
</a>
</g>
</g>
<!-- Node1&#45;&gt;Node3 -->
<g id="edge2" class="edge"><title>Node1&#45;&gt;Node3</title>
<path fill="none" stroke="midnightblue" d="M1191.7,-198.563C1024.91,-198.456 638.494,-192.005 319,-140 316.09,-139.526 313.135,-138.993 310.158,-138.411"/>
<polygon fill="midnightblue" stroke="midnightblue" points="1191.89,-202.063 1201.89,-198.561 1191.89,-195.063 1191.89,-202.063"/>
</g>
<!-- Node4 -->
<g id="node4" class="node"><title>Node4</title>
<g id="a_node4"><a xlink:href="epub__collection_8cpp.xhtml" target="_top" xlink:title="/Users/rkwright/Documents\l/github/readium&#45;sdk&#45;D/ePub3\l/ePub/epub_collection.cpp">
<polygon fill="white" stroke="black" points="327.966,-95 327.966,-139 474.034,-139 474.034,-95 327.966,-95"/>
<text text-anchor="start" x="335.966" y="-125" font-family="Helvetica,sans-Serif" font-size="10.00">/Users/rkwright/Documents</text>
<text text-anchor="start" x="335.966" y="-113" font-family="Helvetica,sans-Serif" font-size="10.00">/github/readium&#45;sdk&#45;D/ePub3</text>
<text text-anchor="middle" x="401" y="-101" font-family="Helvetica,sans-Serif" font-size="10.00">/ePub/epub_collection.cpp</text>
</a>
</g>
</g>
<!-- Node1&#45;&gt;Node4 -->
<g id="edge3" class="edge"><title>Node1&#45;&gt;Node4</title>
<path fill="none" stroke="midnightblue" d="M1191.68,-197.06C1046.66,-194.278 738.876,-183.294 483,-140 480.093,-139.508 477.14,-138.959 474.166,-138.364"/>
<polygon fill="midnightblue" stroke="midnightblue" points="1191.77,-200.562 1201.83,-197.247 1191.9,-193.564 1191.77,-200.562"/>
</g>
<!-- Node5 -->
<g id="node5" class="node"><title>Node5</title>
<g id="a_node5"><a xlink:href="font__obfuscation_8cpp.xhtml" target="_top" xlink:title="/Users/rkwright/Documents\l/github/readium&#45;sdk&#45;D/ePub3\l/ePub/font_obfuscation.cpp">
<polygon fill="white" stroke="black" points="491.966,-95 491.966,-139 638.034,-139 638.034,-95 491.966,-95"/>
<text text-anchor="start" x="499.966" y="-125" font-family="Helvetica,sans-Serif" font-size="10.00">/Users/rkwright/Documents</text>
<text text-anchor="start" x="499.966" y="-113" font-family="Helvetica,sans-Serif" font-size="10.00">/github/readium&#45;sdk&#45;D/ePub3</text>
<text text-anchor="middle" x="565" y="-101" font-family="Helvetica,sans-Serif" font-size="10.00">/ePub/font_obfuscation.cpp</text>
</a>
</g>
</g>
<!-- Node1&#45;&gt;Node5 -->
<g id="edge4" class="edge"><title>Node1&#45;&gt;Node5</title>
<path fill="none" stroke="midnightblue" d="M1191.65,-194.813C1070.8,-189.173 840.221,-174.583 647,-140 644.098,-139.481 641.149,-138.908 638.178,-138.294"/>
<polygon fill="midnightblue" stroke="midnightblue" points="1191.79,-198.322 1201.94,-195.283 1192.11,-191.33 1191.79,-198.322"/>
</g>
<!-- Node6 -->
<g id="node6" class="node"><title>Node6</title>
<g id="a_node6"><a xlink:href="e_pub_2library_8cpp.xhtml" target="_top" xlink:title="/Users/rkwright/Documents\l/github/readium&#45;sdk&#45;D/ePub3\l/ePub/library.cpp">
<polygon fill="white" stroke="black" points="655.966,-95 655.966,-139 802.034,-139 802.034,-95 655.966,-95"/>
<text text-anchor="start" x="663.966" y="-125" font-family="Helvetica,sans-Serif" font-size="10.00">/Users/rkwright/Documents</text>
<text text-anchor="start" x="663.966" y="-113" font-family="Helvetica,sans-Serif" font-size="10.00">/github/readium&#45;sdk&#45;D/ePub3</text>
<text text-anchor="middle" x="729" y="-101" font-family="Helvetica,sans-Serif" font-size="10.00">/ePub/library.cpp</text>
</a>
</g>
</g>
<!-- Node1&#45;&gt;Node6 -->
<g id="edge5" class="edge"><title>Node1&#45;&gt;Node6</title>
<path fill="none" stroke="midnightblue" d="M1191.55,-191.06C1098.23,-182.492 942.891,-165.808 811,-140 808.107,-139.434 805.165,-138.822 802.201,-138.175"/>
<polygon fill="midnightblue" stroke="midnightblue" points="1191.5,-194.57 1201.77,-191.989 1192.13,-187.599 1191.5,-194.57"/>
</g>
<!-- Node7 -->
<g id="node7" class="node"><title>Node7</title>
<g id="a_node7"><a xlink:href="link_8cpp.xhtml" target="_top" xlink:title="/Users/rkwright/Documents\l/github/readium&#45;sdk&#45;D/ePub3\l/ePub/link.cpp">
<polygon fill="white" stroke="black" points="819.966,-95 819.966,-139 966.034,-139 966.034,-95 819.966,-95"/>
<text text-anchor="start" x="827.966" y="-125" font-family="Helvetica,sans-Serif" font-size="10.00">/Users/rkwright/Documents</text>
<text text-anchor="start" x="827.966" y="-113" font-family="Helvetica,sans-Serif" font-size="10.00">/github/readium&#45;sdk&#45;D/ePub3</text>
<text text-anchor="middle" x="893" y="-101" font-family="Helvetica,sans-Serif" font-size="10.00">/ePub/link.cpp</text>
</a>
</g>
</g>
<!-- Node1&#45;&gt;Node7 -->
<g id="edge6" class="edge"><title>Node1&#45;&gt;Node7</title>
<path fill="none" stroke="midnightblue" d="M1192.08,-183.607C1131.66,-172.721 1047.96,-156.818 975,-140 972.127,-139.338 969.203,-138.645 966.253,-137.93"/>
<polygon fill="midnightblue" stroke="midnightblue" points="1191.49,-187.056 1201.95,-185.377 1192.72,-180.166 1191.49,-187.056"/>
</g>
<!-- Node8 -->
<g id="node8" class="node"><title>Node8</title>
<g id="a_node8"><a xlink:href="manifest_8cpp.xhtml" target="_top" xlink:title="/Users/rkwright/Documents\l/github/readium&#45;sdk&#45;D/ePub3\l/ePub/manifest.cpp">
<polygon fill="white" stroke="black" points="983.966,-95 983.966,-139 1130.03,-139 1130.03,-95 983.966,-95"/>
<text text-anchor="start" x="991.966" y="-125" font-family="Helvetica,sans-Serif" font-size="10.00">/Users/rkwright/Documents</text>
<text text-anchor="start" x="991.966" y="-113" font-family="Helvetica,sans-Serif" font-size="10.00">/github/readium&#45;sdk&#45;D/ePub3</text>
<text text-anchor="middle" x="1057" y="-101" font-family="Helvetica,sans-Serif" font-size="10.00">/ePub/manifest.cpp</text>
</a>
</g>
</g>
<!-- Node1&#45;&gt;Node8 -->
<g id="edge7" class="edge"><title>Node1&#45;&gt;Node8</title>
<path fill="none" stroke="midnightblue" d="M1208.17,-173.474C1178.14,-162.456 1143.07,-149.586 1114.27,-139.017"/>
<polygon fill="midnightblue" stroke="midnightblue" points="1207.13,-176.822 1217.72,-176.981 1209.54,-170.25 1207.13,-176.822"/>
</g>
<!-- Node9 -->
<g id="node9" class="node"><title>Node9</title>
<g id="a_node9"><a xlink:href="media-overlays__smil__model_8h.xhtml" target="_top" xlink:title="/Users/rkwright/Documents\l/github/readium&#45;sdk&#45;D/ePub3\l/ePub/media&#45;overlays_smil_model.h">
<polygon fill="white" stroke="black" points="1186.41,-95 1186.41,-139 1363.59,-139 1363.59,-95 1186.41,-95"/>
<text text-anchor="start" x="1194.41" y="-125" font-family="Helvetica,sans-Serif" font-size="10.00">/Users/rkwright/Documents</text>
<text text-anchor="start" x="1194.41" y="-113" font-family="Helvetica,sans-Serif" font-size="10.00">/github/readium&#45;sdk&#45;D/ePub3</text>
<text text-anchor="middle" x="1275" y="-101" font-family="Helvetica,sans-Serif" font-size="10.00">/ePub/media&#45;overlays_smil_model.h</text>
</a>
</g>
</g>
<!-- Node1&#45;&gt;Node9 -->
<g id="edge8" class="edge"><title>Node1&#45;&gt;Node9</title>
<path fill="none" stroke="midnightblue" d="M1275,-166.896C1275,-157.609 1275,-147.649 1275,-139.156"/>
<polygon fill="midnightblue" stroke="midnightblue" points="1271.5,-166.981 1275,-176.981 1278.5,-166.981 1271.5,-166.981"/>
</g>
<!-- Node10 -->
<g id="node10" class="node"><title>Node10</title>
<g id="a_node10"><a xlink:href="media-overlays__smil__model_8cpp.xhtml" target="_top" xlink:title="/Users/rkwright/Documents\l/github/readium&#45;sdk&#45;D/ePub3\l/ePub/media&#45;overlays_smil\l_model.cpp">
<polygon fill="white" stroke="black" points="1142.97,-1 1142.97,-57 1289.03,-57 1289.03,-1 1142.97,-1"/>
<text text-anchor="start" x="1150.97" y="-43" font-family="Helvetica,sans-Serif" font-size="10.00">/Users/rkwright/Documents</text>
<text text-anchor="start" x="1150.97" y="-31" font-family="Helvetica,sans-Serif" font-size="10.00">/github/readium&#45;sdk&#45;D/ePub3</text>
<text text-anchor="start" x="1150.97" y="-19" font-family="Helvetica,sans-Serif" font-size="10.00">/ePub/media&#45;overlays_smil</text>
<text text-anchor="middle" x="1216" y="-7" font-family="Helvetica,sans-Serif" font-size="10.00">_model.cpp</text>
</a>
</g>
</g>
<!-- Node1&#45;&gt;Node10 -->
<g id="edge11" class="edge"><title>Node1&#45;&gt;Node10</title>
<path fill="none" stroke="midnightblue" d="M1208.81,-171.65C1196.09,-163.459 1184.44,-153.047 1177,-140 1161.95,-113.597 1177.92,-80.3697 1193.73,-57.3799"/>
<polygon fill="midnightblue" stroke="midnightblue" points="1207.35,-174.859 1217.74,-176.97 1210.94,-168.845 1207.35,-174.859"/>
</g>
<!-- Node12 -->
<g id="node12" class="node"><title>Node12</title>
<g id="a_node12"><a xlink:href="media__support__info_8cpp.xhtml" target="_top" xlink:title="/Users/rkwright/Documents\l/github/readium&#45;sdk&#45;D/ePub3\l/ePub/media_support_info.cpp">
<polygon fill="white" stroke="black" points="1381.18,-95 1381.18,-139 1532.82,-139 1532.82,-95 1381.18,-95"/>
<text text-anchor="start" x="1389.18" y="-125" font-family="Helvetica,sans-Serif" font-size="10.00">/Users/rkwright/Documents</text>
<text text-anchor="start" x="1389.18" y="-113" font-family="Helvetica,sans-Serif" font-size="10.00">/github/readium&#45;sdk&#45;D/ePub3</text>
<text text-anchor="middle" x="1457" y="-101" font-family="Helvetica,sans-Serif" font-size="10.00">/ePub/media_support_info.cpp</text>
</a>
</g>
</g>
<!-- Node1&#45;&gt;Node12 -->
<g id="edge12" class="edge"><title>Node1&#45;&gt;Node12</title>
<path fill="none" stroke="midnightblue" d="M1332.1,-172.9C1356.88,-162.011 1385.56,-149.403 1409.19,-139.017"/>
<polygon fill="midnightblue" stroke="midnightblue" points="1330.56,-169.753 1322.82,-176.981 1333.38,-176.161 1330.56,-169.753"/>
</g>
<!-- Node13 -->
<g id="node13" class="node"><title>Node13</title>
<g id="a_node13"><a xlink:href="nav__point_8cpp.xhtml" target="_top" xlink:title="/Users/rkwright/Documents\l/github/readium&#45;sdk&#45;D/ePub3\l/ePub/nav_point.cpp">
<polygon fill="white" stroke="black" points="1550.97,-95 1550.97,-139 1697.03,-139 1697.03,-95 1550.97,-95"/>
<text text-anchor="start" x="1558.97" y="-125" font-family="Helvetica,sans-Serif" font-size="10.00">/Users/rkwright/Documents</text>
<text text-anchor="start" x="1558.97" y="-113" font-family="Helvetica,sans-Serif" font-size="10.00">/github/readium&#45;sdk&#45;D/ePub3</text>
<text text-anchor="middle" x="1624" y="-101" font-family="Helvetica,sans-Serif" font-size="10.00">/ePub/nav_point.cpp</text>
</a>
</g>
</g>
<!-- Node1&#45;&gt;Node13 -->
<g id="edge13" class="edge"><title>Node1&#45;&gt;Node13</title>
<path fill="none" stroke="midnightblue" d="M1358.25,-180.84C1410.8,-169.763 1480.03,-154.719 1541,-140 1544.19,-139.23 1547.44,-138.43 1550.72,-137.611"/>
<polygon fill="midnightblue" stroke="midnightblue" points="1357.37,-177.448 1348.3,-182.931 1358.81,-184.298 1357.37,-177.448"/>
</g>
<!-- Node14 -->
<g id="node14" class="node"><title>Node14</title>
<g id="a_node14"><a xlink:href="nav__table_8cpp.xhtml" target="_top" xlink:title="/Users/rkwright/Documents\l/github/readium&#45;sdk&#45;D/ePub3\l/ePub/nav_table.cpp">
<polygon fill="white" stroke="black" points="1714.97,-95 1714.97,-139 1861.03,-139 1861.03,-95 1714.97,-95"/>
<text text-anchor="start" x="1722.97" y="-125" font-family="Helvetica,sans-Serif" font-size="10.00">/Users/rkwright/Documents</text>
<text text-anchor="start" x="1722.97" y="-113" font-family="Helvetica,sans-Serif" font-size="10.00">/github/readium&#45;sdk&#45;D/ePub3</text>
<text text-anchor="middle" x="1788" y="-101" font-family="Helvetica,sans-Serif" font-size="10.00">/ePub/nav_table.cpp</text>
</a>
</g>
</g>
<!-- Node1&#45;&gt;Node14 -->
<g id="edge14" class="edge"><title>Node1&#45;&gt;Node14</title>
<path fill="none" stroke="midnightblue" d="M1358.4,-189.985C1445.61,-180.857 1586.19,-164.03 1706,-140 1708.89,-139.42 1711.83,-138.797 1714.79,-138.14"/>
<polygon fill="midnightblue" stroke="midnightblue" points="1357.89,-186.52 1348.3,-191.033 1358.61,-193.483 1357.89,-186.52"/>
</g>
<!-- Node15 -->
<g id="node15" class="node"><title>Node15</title>
<g id="a_node15"><a xlink:href="object__preprocessor_8cpp.xhtml" target="_top" xlink:title="/Users/rkwright/Documents\l/github/readium&#45;sdk&#45;D/ePub3\l/ePub/object_preprocessor.cpp">
<polygon fill="white" stroke="black" points="1879.06,-95 1879.06,-139 2032.94,-139 2032.94,-95 1879.06,-95"/>
<text text-anchor="start" x="1887.06" y="-125" font-family="Helvetica,sans-Serif" font-size="10.00">/Users/rkwright/Documents</text>
<text text-anchor="start" x="1887.06" y="-113" font-family="Helvetica,sans-Serif" font-size="10.00">/github/readium&#45;sdk&#45;D/ePub3</text>
<text text-anchor="middle" x="1956" y="-101" font-family="Helvetica,sans-Serif" font-size="10.00">/ePub/object_preprocessor.cpp</text>
</a>
</g>
</g>
<!-- Node1&#45;&gt;Node15 -->
<g id="edge15" class="edge"><title>Node1&#45;&gt;Node15</title>
<path fill="none" stroke="midnightblue" d="M1358.5,-193.905C1474.11,-187.318 1689.15,-171.753 1870,-140 1872.88,-139.494 1875.81,-138.941 1878.77,-138.352"/>
<polygon fill="midnightblue" stroke="midnightblue" points="1358.09,-190.422 1348.31,-194.477 1358.49,-197.411 1358.09,-190.422"/>
</g>
<!-- Node11 -->
<g id="node11" class="node"><title>Node11</title>
<g id="a_node11"><a xlink:href="package_8cpp.xhtml" target="_top" xlink:title="/Users/rkwright/Documents\l/github/readium&#45;sdk&#45;D/ePub3\l/ePub/package.cpp">
<polygon fill="white" stroke="black" points="1675.97,-7 1675.97,-51 1822.03,-51 1822.03,-7 1675.97,-7"/>
<text text-anchor="start" x="1683.97" y="-37" font-family="Helvetica,sans-Serif" font-size="10.00">/Users/rkwright/Documents</text>
<text text-anchor="start" x="1683.97" y="-25" font-family="Helvetica,sans-Serif" font-size="10.00">/github/readium&#45;sdk&#45;D/ePub3</text>
<text text-anchor="middle" x="1749" y="-13" font-family="Helvetica,sans-Serif" font-size="10.00">/ePub/package.cpp</text>
</a>
</g>
</g>
<!-- Node1&#45;&gt;Node11 -->
<g id="edge16" class="edge"><title>Node1&#45;&gt;Node11</title>
<path fill="none" stroke="midnightblue" d="M1358.39,-197.931C1547.34,-196.904 1995.34,-189.247 2041,-140 2108.59,-67.1041 1929.25,-42.1935 1822.26,-33.9306"/>
<polygon fill="midnightblue" stroke="midnightblue" points="1358.21,-194.431 1348.22,-197.981 1358.24,-201.431 1358.21,-194.431"/>
</g>
<!-- Node16 -->
<g id="node16" class="node"><title>Node16</title>
<g id="a_node16"><a xlink:href="_pass_through_filter_8cpp.xhtml" target="_top" xlink:title="/Users/rkwright/Documents\l/github/readium&#45;sdk&#45;D/ePub3\l/ePub/PassThroughFilter.cpp">
<polygon fill="white" stroke="black" points="2088.97,-95 2088.97,-139 2235.03,-139 2235.03,-95 2088.97,-95"/>
<text text-anchor="start" x="2096.97" y="-125" font-family="Helvetica,sans-Serif" font-size="10.00">/Users/rkwright/Documents</text>
<text text-anchor="start" x="2096.97" y="-113" font-family="Helvetica,sans-Serif" font-size="10.00">/github/readium&#45;sdk&#45;D/ePub3</text>
<text text-anchor="middle" x="2162" y="-101" font-family="Helvetica,sans-Serif" font-size="10.00">/ePub/PassThroughFilter.cpp</text>
</a>
</g>
</g>
<!-- Node1&#45;&gt;Node16 -->
<g id="edge17" class="edge"><title>Node1&#45;&gt;Node16</title>
<path fill="none" stroke="midnightblue" d="M1358.53,-196.752C1504.68,-193.501 1815.89,-181.822 2075,-140 2079.46,-139.28 2084.03,-138.441 2088.62,-137.519"/>
<polygon fill="midnightblue" stroke="midnightblue" points="1358.22,-193.258 1348.3,-196.972 1358.37,-200.256 1358.22,-193.258"/>
</g>
<!-- Node17 -->
<g id="node17" class="node"><title>Node17</title>
<g id="a_node17"><a xlink:href="spine_8cpp.xhtml" target="_top" xlink:title="/Users/rkwright/Documents\l/github/readium&#45;sdk&#45;D/ePub3\l/ePub/spine.cpp">
<polygon fill="white" stroke="black" points="2252.97,-95 2252.97,-139 2399.03,-139 2399.03,-95 2252.97,-95"/>
<text text-anchor="start" x="2260.97" y="-125" font-family="Helvetica,sans-Serif" font-size="10.00">/Users/rkwright/Documents</text>
<text text-anchor="start" x="2260.97" y="-113" font-family="Helvetica,sans-Serif" font-size="10.00">/github/readium&#45;sdk&#45;D/ePub3</text>
<text text-anchor="middle" x="2326" y="-101" font-family="Helvetica,sans-Serif" font-size="10.00">/ePub/spine.cpp</text>
</a>
</g>
</g>
<!-- Node1&#45;&gt;Node17 -->
<g id="edge18" class="edge"><title>Node1&#45;&gt;Node17</title>
<path fill="none" stroke="midnightblue" d="M1358.22,-198.661C1526.62,-198.76 1919.38,-192.704 2244,-140 2246.91,-139.528 2249.87,-138.995 2252.84,-138.414"/>
<polygon fill="midnightblue" stroke="midnightblue" points="1358.19,-195.161 1348.18,-198.647 1358.18,-202.161 1358.19,-195.161"/>
</g>
<!-- Node18 -->
<g id="node18" class="node"><title>Node18</title>
<g id="a_node18"><a xlink:href="switch__preprocessor_8cpp.xhtml" target="_top" xlink:title="/Users/rkwright/Documents\l/github/readium&#45;sdk&#45;D/ePub3\l/ePub/switch_preprocessor.cpp">
<polygon fill="white" stroke="black" points="2417.52,-95 2417.52,-139 2572.48,-139 2572.48,-95 2417.52,-95"/>
<text text-anchor="start" x="2425.52" y="-125" font-family="Helvetica,sans-Serif" font-size="10.00">/Users/rkwright/Documents</text>
<text text-anchor="start" x="2425.52" y="-113" font-family="Helvetica,sans-Serif" font-size="10.00">/github/readium&#45;sdk&#45;D/ePub3</text>
<text text-anchor="middle" x="2495" y="-101" font-family="Helvetica,sans-Serif" font-size="10.00">/ePub/switch_preprocessor.cpp</text>
</a>
</g>
</g>
<!-- Node1&#45;&gt;Node18 -->
<g id="edge19" class="edge"><title>Node1&#45;&gt;Node18</title>
<path fill="none" stroke="midnightblue" d="M1358.43,-195.857C1584.51,-189.71 2205.51,-170.481 2408,-140 2411.08,-139.536 2414.21,-139.011 2417.37,-138.436"/>
<polygon fill="midnightblue" stroke="midnightblue" points="1358.19,-192.362 1348.29,-196.131 1358.38,-199.36 1358.19,-192.362"/>
</g>
<!-- Node9&#45;&gt;Node10 -->
<g id="edge9" class="edge"><title>Node9&#45;&gt;Node10</title>
<path fill="none" stroke="midnightblue" d="M1254.68,-86.3767C1248.18,-76.9084 1241.03,-66.4791 1234.66,-57.1925"/>
<polygon fill="midnightblue" stroke="midnightblue" points="1251.87,-88.4756 1260.42,-94.7416 1257.64,-84.5155 1251.87,-88.4756"/>
</g>
<!-- Node9&#45;&gt;Node11 -->
<g id="edge10" class="edge"><title>Node9&#45;&gt;Node11</title>
<path fill="none" stroke="midnightblue" d="M1373.75,-93.6919C1484.31,-71.9966 1601.92,-52.7954 1675.81,-41.2061"/>
<polygon fill="midnightblue" stroke="midnightblue" points="1372.9,-90.2932 1363.76,-95.6629 1374.25,-97.1608 1372.9,-90.2932"/>
</g>
</g>
</svg>
