<?xml version="1.0" encoding="UTF-8" standalone="no"?>
<!DOCTYPE svg PUBLIC "-//W3C//DTD SVG 1.1//EN"
 "http://www.w3.org/Graphics/SVG/1.1/DTD/svg11.dtd">
<!-- Generated by graphviz version 2.30.0 (20130114.0426)
 -->
<!-- Title: /Users/rkwright/Documents/github/readium&#45;sdk&#45;D/ePub3/utilities/path_help.h Pages: 1 -->
<svg width="1105pt" height="472pt"
 viewBox="0.00 0.00 1105.00 472.00" xmlns="http://www.w3.org/2000/svg" xmlns:xlink="http://www.w3.org/1999/xlink">
<g id="graph0" class="graph" transform="scale(1 1) rotate(0) translate(4 468)">
<title>/Users/rkwright/Documents/github/readium&#45;sdk&#45;D/ePub3/utilities/path_help.h</title>
<polygon fill="white" stroke="white" points="-4,5 -4,-468 1102,-468 1102,5 -4,5"/>
<!-- Node1 -->
<g id="node1" class="node"><title>Node1</title>
<polygon fill="#bfbfbf" stroke="black" points="525.966,-419 525.966,-463 672.034,-463 672.034,-419 525.966,-419"/>
<text text-anchor="start" x="533.966" y="-449" font-family="Helvetica,sans-Serif" font-size="10.00">/Users/rkwright/Documents</text>
<text text-anchor="start" x="533.966" y="-437" font-family="Helvetica,sans-Serif" font-size="10.00">/github/readium&#45;sdk&#45;D/ePub3</text>
<text text-anchor="middle" x="599" y="-425" font-family="Helvetica,sans-Serif" font-size="10.00">/utilities/path_help.h</text>
</g>
<!-- Node2 -->
<g id="node2" class="node"><title>Node2</title>
<polygon fill="white" stroke="#bfbfbf" points="496.079,-361 496.079,-381 579.921,-381 579.921,-361 496.079,-361"/>
<text text-anchor="middle" x="538" y="-367" font-family="Helvetica,sans-Serif" font-size="10.00">ePub3/epub3.h</text>
</g>
<!-- Node1&#45;&gt;Node2 -->
<g id="edge1" class="edge"><title>Node1&#45;&gt;Node2</title>
<path fill="none" stroke="midnightblue" d="M580.034,-418.857C571.358,-409.186 561.222,-397.887 553.077,-388.808"/>
<polygon fill="midnightblue" stroke="midnightblue" points="555.539,-386.311 546.256,-381.204 550.329,-390.985 555.539,-386.311"/>
</g>
<!-- Node3 -->
<g id="node3" class="node"><title>Node3</title>
<g id="a_node3"><a xlink:href="utfstring_8h.xhtml" target="_top" xlink:title="ePub3/utilities/utfstring.h">
<polygon fill="white" stroke="black" points="597.525,-361 597.525,-381 722.475,-381 722.475,-361 597.525,-361"/>
<text text-anchor="middle" x="660" y="-367" font-family="Helvetica,sans-Serif" font-size="10.00">ePub3/utilities/utfstring.h</text>
</a>
</g>
</g>
<!-- Node1&#45;&gt;Node3 -->
<g id="edge2" class="edge"><title>Node1&#45;&gt;Node3</title>
<path fill="none" stroke="midnightblue" d="M617.966,-418.857C626.642,-409.186 636.778,-397.887 644.923,-388.808"/>
<polygon fill="midnightblue" stroke="midnightblue" points="647.671,-390.985 651.744,-381.204 642.461,-386.311 647.671,-390.985"/>
</g>
<!-- Node4 -->
<g id="node4" class="node"><title>Node4</title>
<g id="a_node4"><a xlink:href="basic_8h.xhtml" target="_top" xlink:title="ePub3/utilities/basic.h">
<polygon fill="white" stroke="black" points="493.638,-297 493.638,-317 606.362,-317 606.362,-297 493.638,-297"/>
<text text-anchor="middle" x="550" y="-303" font-family="Helvetica,sans-Serif" font-size="10.00">ePub3/utilities/basic.h</text>
</a>
</g>
</g>
<!-- Node3&#45;&gt;Node4 -->
<g id="edge3" class="edge"><title>Node3&#45;&gt;Node4</title>
<path fill="none" stroke="midnightblue" d="M643.769,-360.852C625.653,-350.641 596.118,-333.994 575.037,-322.112"/>
<polygon fill="midnightblue" stroke="midnightblue" points="576.728,-319.047 566.297,-317.186 573.29,-325.145 576.728,-319.047"/>
</g>
<!-- Node15 -->
<g id="node15" class="node"><title>Node15</title>
<g id="a_node15"><a xlink:href="integer__sequence_8h.xhtml" target="_top" xlink:title="ePub3/utilities/integer\l_sequence.h">
<polygon fill="white" stroke="black" points="-0.807617,-291 -0.807617,-323 110.808,-323 110.808,-291 -0.807617,-291"/>
<text text-anchor="start" x="7.19238" y="-309" font-family="Helvetica,sans-Serif" font-size="10.00">ePub3/utilities/integer</text>
<text text-anchor="middle" x="55" y="-297" font-family="Helvetica,sans-Serif" font-size="10.00">_sequence.h</text>
</a>
</g>
</g>
<!-- Node3&#45;&gt;Node15 -->
<g id="edge14" class="edge"><title>Node3&#45;&gt;Node15</title>
<path fill="none" stroke="midnightblue" d="M597.195,-361.086C594.088,-360.705 591.01,-360.341 588,-360 405.797,-339.381 359.28,-343.927 177,-324 158.724,-322.002 138.948,-319.539 120.746,-317.15"/>
<polygon fill="midnightblue" stroke="midnightblue" points="121.189,-313.678 110.815,-315.833 120.269,-320.617 121.189,-313.678"/>
</g>
<!-- Node16 -->
<g id="node16" class="node"><title>Node16</title>
<g id="a_node16"><a xlink:href="string__view_8h.xhtml" target="_top" xlink:title="ePub3/utilities/string\l_view.h">
<polygon fill="white" stroke="black" points="245.254,-291 245.254,-323 350.746,-323 350.746,-291 245.254,-291"/>
<text text-anchor="start" x="253.254" y="-309" font-family="Helvetica,sans-Serif" font-size="10.00">ePub3/utilities/string</text>
<text text-anchor="middle" x="298" y="-297" font-family="Helvetica,sans-Serif" font-size="10.00">_view.h</text>
</a>
</g>
</g>
<!-- Node3&#45;&gt;Node16 -->
<g id="edge16" class="edge"><title>Node3&#45;&gt;Node16</title>
<path fill="none" stroke="midnightblue" d="M607.362,-360.985C542.04,-349.797 430.763,-330.738 360.98,-318.787"/>
<polygon fill="midnightblue" stroke="midnightblue" points="361.443,-315.315 350.996,-317.077 360.262,-322.215 361.443,-315.315"/>
</g>
<!-- Node18 -->
<g id="node18" class="node"><title>Node18</title>
<polygon fill="white" stroke="#bfbfbf" points="56.7734,-233 56.7734,-253 97.2266,-253 97.2266,-233 56.7734,-233"/>
<text text-anchor="middle" x="77" y="-239" font-family="Helvetica,sans-Serif" font-size="10.00">string</text>
</g>
<!-- Node3&#45;&gt;Node18 -->
<g id="edge25" class="edge"><title>Node3&#45;&gt;Node18</title>
<path fill="none" stroke="midnightblue" d="M597.189,-361.14C594.083,-360.745 591.007,-360.362 588,-360 431.87,-341.18 386.959,-368.07 236,-324 184.341,-308.919 129.385,-277.334 99.5243,-258.679"/>
<polygon fill="midnightblue" stroke="midnightblue" points="101.067,-255.513 90.7472,-253.114 97.3184,-261.425 101.067,-255.513"/>
</g>
<!-- Node23 -->
<g id="node23" class="node"><title>Node23</title>
<polygon fill="white" stroke="#bfbfbf" points="662.438,-297 662.438,-317 709.562,-317 709.562,-297 662.438,-297"/>
<text text-anchor="middle" x="686" y="-303" font-family="Helvetica,sans-Serif" font-size="10.00">iterator</text>
</g>
<!-- Node3&#45;&gt;Node23 -->
<g id="edge26" class="edge"><title>Node3&#45;&gt;Node23</title>
<path fill="none" stroke="midnightblue" d="M663.836,-360.852C667.6,-351.877 673.448,-337.931 678.193,-326.617"/>
<polygon fill="midnightblue" stroke="midnightblue" points="681.508,-327.761 682.148,-317.186 675.053,-325.054 681.508,-327.761"/>
</g>
<!-- Node24 -->
<g id="node24" class="node"><title>Node24</title>
<polygon fill="white" stroke="#bfbfbf" points="727.936,-297 727.936,-317 770.064,-317 770.064,-297 727.936,-297"/>
<text text-anchor="middle" x="749" y="-303" font-family="Helvetica,sans-Serif" font-size="10.00">locale</text>
</g>
<!-- Node3&#45;&gt;Node24 -->
<g id="edge27" class="edge"><title>Node3&#45;&gt;Node24</title>
<path fill="none" stroke="midnightblue" d="M673.132,-360.852C687.461,-350.87 710.619,-334.737 727.586,-322.918"/>
<polygon fill="midnightblue" stroke="midnightblue" points="729.609,-325.774 735.814,-317.186 725.608,-320.03 729.609,-325.774"/>
</g>
<!-- Node13 -->
<g id="node13" class="node"><title>Node13</title>
<polygon fill="white" stroke="#bfbfbf" points="811.384,-233 811.384,-253 854.616,-253 854.616,-233 811.384,-233"/>
<text text-anchor="middle" x="833" y="-239" font-family="Helvetica,sans-Serif" font-size="10.00">vector</text>
</g>
<!-- Node3&#45;&gt;Node13 -->
<g id="edge28" class="edge"><title>Node3&#45;&gt;Node13</title>
<path fill="none" stroke="midnightblue" d="M655.604,-360.961C648.478,-344.855 636.752,-310.922 653,-290 657.606,-284.069 750.788,-262.419 801.222,-251.062"/>
<polygon fill="midnightblue" stroke="midnightblue" points="802.296,-254.408 811.288,-248.805 800.764,-247.578 802.296,-254.408"/>
</g>
<!-- Node25 -->
<g id="node25" class="node"><title>Node25</title>
<polygon fill="white" stroke="#bfbfbf" points="787.766,-297 787.766,-317 888.234,-317 888.234,-297 787.766,-297"/>
<text text-anchor="middle" x="838" y="-303" font-family="Helvetica,sans-Serif" font-size="10.00">REGEX_INCLUDE</text>
</g>
<!-- Node3&#45;&gt;Node25 -->
<g id="edge29" class="edge"><title>Node3&#45;&gt;Node25</title>
<path fill="none" stroke="midnightblue" d="M685.883,-360.985C716.598,-350.286 767.978,-332.39 802.418,-320.394"/>
<polygon fill="midnightblue" stroke="midnightblue" points="803.794,-323.621 812.086,-317.026 801.491,-317.01 803.794,-323.621"/>
</g>
<!-- Node26 -->
<g id="node26" class="node"><title>Node26</title>
<polygon fill="white" stroke="#bfbfbf" points="906.273,-297 906.273,-317 941.727,-317 941.727,-297 906.273,-297"/>
<text text-anchor="middle" x="924" y="-303" font-family="Helvetica,sans-Serif" font-size="10.00">map</text>
</g>
<!-- Node3&#45;&gt;Node26 -->
<g id="edge30" class="edge"><title>Node3&#45;&gt;Node26</title>
<path fill="none" stroke="midnightblue" d="M722.488,-363.802C771.232,-357.57 839.997,-345.673 897,-324 898.611,-323.388 900.235,-322.682 901.846,-321.916"/>
<polygon fill="midnightblue" stroke="midnightblue" points="903.608,-324.942 910.724,-317.093 900.266,-318.792 903.608,-324.942"/>
</g>
<!-- Node27 -->
<g id="node27" class="node"><title>Node27</title>
<polygon fill="white" stroke="#bfbfbf" points="959.599,-297 959.599,-317 1018.4,-317 1018.4,-297 959.599,-297"/>
<text text-anchor="middle" x="989" y="-303" font-family="Helvetica,sans-Serif" font-size="10.00">stdexcept</text>
</g>
<!-- Node3&#45;&gt;Node27 -->
<g id="edge31" class="edge"><title>Node3&#45;&gt;Node27</title>
<path fill="none" stroke="midnightblue" d="M722.559,-364.314C781.907,-357.931 873.183,-345.534 950,-324 953.242,-323.091 956.577,-321.993 959.869,-320.801"/>
<polygon fill="midnightblue" stroke="midnightblue" points="961.432,-323.948 969.472,-317.048 958.884,-317.428 961.432,-323.948"/>
</g>
<!-- Node19 -->
<g id="node19" class="node"><title>Node19</title>
<polygon fill="white" stroke="#bfbfbf" points="429.613,-233 429.613,-253 468.387,-253 468.387,-233 429.613,-233"/>
<text text-anchor="middle" x="449" y="-239" font-family="Helvetica,sans-Serif" font-size="10.00">limits</text>
</g>
<!-- Node3&#45;&gt;Node19 -->
<g id="edge32" class="edge"><title>Node3&#45;&gt;Node19</title>
<path fill="none" stroke="midnightblue" d="M605.405,-360.949C561.117,-352.663 503.162,-339.375 485,-324 466.527,-308.361 457.116,-281.31 452.635,-263.042"/>
<polygon fill="midnightblue" stroke="midnightblue" points="456.043,-262.241 450.49,-253.218 449.204,-263.735 456.043,-262.241"/>
</g>
<!-- Node28 -->
<g id="node28" class="node"><title>Node28</title>
<polygon fill="white" stroke="#bfbfbf" points="1036.76,-297 1036.76,-317 1097.24,-317 1097.24,-297 1036.76,-297"/>
<text text-anchor="middle" x="1067" y="-303" font-family="Helvetica,sans-Serif" font-size="10.00">utf8/utf8.h</text>
</g>
<!-- Node3&#45;&gt;Node28 -->
<g id="edge33" class="edge"><title>Node3&#45;&gt;Node28</title>
<path fill="none" stroke="midnightblue" d="M722.597,-367.029C796.386,-362.414 922.233,-351.041 1027,-324 1030.62,-323.067 1034.34,-321.888 1038,-320.597"/>
<polygon fill="midnightblue" stroke="midnightblue" points="1039.31,-323.844 1047.4,-317.002 1036.81,-317.307 1039.31,-323.844"/>
</g>
<!-- Node5 -->
<g id="node5" class="node"><title>Node5</title>
<g id="a_node5"><a xlink:href="base_8h.xhtml" target="_top" xlink:title="ePub3/base.h">
<polygon fill="white" stroke="black" points="338.141,-175 338.141,-195 415.859,-195 415.859,-175 338.141,-175"/>
<text text-anchor="middle" x="377" y="-181" font-family="Helvetica,sans-Serif" font-size="10.00">ePub3/base.h</text>
</a>
</g>
</g>
<!-- Node4&#45;&gt;Node5 -->
<g id="edge4" class="edge"><title>Node4&#45;&gt;Node5</title>
<path fill="none" stroke="midnightblue" d="M542.775,-296.751C530.565,-281.605 504.48,-251.275 477,-232 457.236,-218.137 432.627,-206.755 412.767,-198.78"/>
<polygon fill="midnightblue" stroke="midnightblue" points="414.029,-195.516 403.441,-195.143 411.486,-202.038 414.029,-195.516"/>
</g>
<!-- Node10 -->
<g id="node10" class="node"><title>Node10</title>
<polygon fill="white" stroke="#bfbfbf" points="640.815,-233 640.815,-253 755.185,-253 755.185,-233 640.815,-233"/>
<text text-anchor="middle" x="698" y="-239" font-family="Helvetica,sans-Serif" font-size="10.00">ePub3/xml/xmlstring.h</text>
</g>
<!-- Node4&#45;&gt;Node10 -->
<g id="edge9" class="edge"><title>Node4&#45;&gt;Node10</title>
<path fill="none" stroke="midnightblue" d="M571.52,-296.985C596.621,-286.47 638.318,-269.002 666.928,-257.017"/>
<polygon fill="midnightblue" stroke="midnightblue" points="668.583,-260.118 676.454,-253.026 665.878,-253.662 668.583,-260.118"/>
</g>
<!-- Node11 -->
<g id="node11" class="node"><title>Node11</title>
<polygon fill="white" stroke="#bfbfbf" points="524.219,-233 524.219,-253 575.781,-253 575.781,-233 524.219,-233"/>
<text text-anchor="middle" x="550" y="-239" font-family="Helvetica,sans-Serif" font-size="10.00">sstream</text>
</g>
<!-- Node4&#45;&gt;Node11 -->
<g id="edge10" class="edge"><title>Node4&#45;&gt;Node11</title>
<path fill="none" stroke="midnightblue" d="M550,-296.852C550,-288.06 550,-274.498 550,-263.313"/>
<polygon fill="midnightblue" stroke="midnightblue" points="553.5,-263.186 550,-253.186 546.5,-263.186 553.5,-263.186"/>
</g>
<!-- Node12 -->
<g id="node12" class="node"><title>Node12</title>
<polygon fill="white" stroke="#bfbfbf" points="594.943,-175 594.943,-195 647.057,-195 647.057,-175 594.943,-175"/>
<text text-anchor="middle" x="621" y="-181" font-family="Helvetica,sans-Serif" font-size="10.00">memory</text>
</g>
<!-- Node4&#45;&gt;Node12 -->
<g id="edge11" class="edge"><title>Node4&#45;&gt;Node12</title>
<path fill="none" stroke="midnightblue" d="M588.449,-296.971C649.675,-282.549 762.623,-255.752 764,-254 794.994,-214.573 709.194,-196.806 657.32,-189.851"/>
<polygon fill="midnightblue" stroke="midnightblue" points="657.491,-186.345 647.131,-188.564 656.614,-193.29 657.491,-186.345"/>
</g>
<!-- Node4&#45;&gt;Node13 -->
<g id="edge12" class="edge"><title>Node4&#45;&gt;Node13</title>
<path fill="none" stroke="midnightblue" d="M588.84,-296.947C598.972,-294.634 609.886,-292.184 620,-290 698.469,-273.055 718.944,-272.754 797,-254 798.459,-253.65 799.947,-253.281 801.449,-252.9"/>
<polygon fill="midnightblue" stroke="midnightblue" points="802.591,-256.218 811.362,-250.276 800.799,-249.451 802.591,-256.218"/>
</g>
<!-- Node14 -->
<g id="node14" class="node"><title>Node14</title>
<polygon fill="white" stroke="#bfbfbf" points="593.5,-233 593.5,-253 622.5,-253 622.5,-233 593.5,-233"/>
<text text-anchor="middle" x="607.611" y="-239" font-family="Helvetica,sans-Serif" font-size="10.00">list</text>
</g>
<!-- Node4&#45;&gt;Node14 -->
<g id="edge13" class="edge"><title>Node4&#45;&gt;Node14</title>
<path fill="none" stroke="midnightblue" d="M558.558,-296.852C567.468,-287.327 581.615,-272.204 592.498,-260.571"/>
<polygon fill="midnightblue" stroke="midnightblue" points="595.131,-262.88 599.407,-253.186 590.019,-258.098 595.131,-262.88"/>
</g>
<!-- Node6 -->
<g id="node6" class="node"><title>Node6</title>
<g id="a_node6"><a xlink:href="__config_8h.xhtml" target="_top" xlink:title="_config.h">
<polygon fill="white" stroke="black" points="313.707,-117 313.707,-137 370.293,-137 370.293,-117 313.707,-117"/>
<text text-anchor="middle" x="342" y="-123" font-family="Helvetica,sans-Serif" font-size="10.00">_config.h</text>
</a>
</g>
</g>
<!-- Node5&#45;&gt;Node6 -->
<g id="edge5" class="edge"><title>Node5&#45;&gt;Node6</title>
<path fill="none" stroke="midnightblue" d="M371.22,-174.753C366.277,-166.843 359.023,-155.237 352.98,-145.568"/>
<polygon fill="midnightblue" stroke="midnightblue" points="355.94,-143.7 347.672,-137.075 350.004,-147.41 355.94,-143.7"/>
</g>
<!-- Node9 -->
<g id="node9" class="node"><title>Node9</title>
<polygon fill="white" stroke="#bfbfbf" points="388.158,-117 388.158,-137 435.842,-137 435.842,-117 388.158,-117"/>
<text text-anchor="middle" x="412" y="-123" font-family="Helvetica,sans-Serif" font-size="10.00">stdlib.h</text>
</g>
<!-- Node5&#45;&gt;Node9 -->
<g id="edge8" class="edge"><title>Node5&#45;&gt;Node9</title>
<path fill="none" stroke="midnightblue" d="M382.78,-174.753C387.723,-166.843 394.977,-155.237 401.02,-145.568"/>
<polygon fill="midnightblue" stroke="midnightblue" points="403.996,-147.41 406.328,-137.075 398.06,-143.7 403.996,-147.41"/>
</g>
<!-- Node7 -->
<g id="node7" class="node"><title>Node7</title>
<g id="a_node7"><a xlink:href="__platform_8h.xhtml" target="_top" xlink:title="_platform.h">
<polygon fill="white" stroke="black" points="308.988,-59 308.988,-79 375.012,-79 375.012,-59 308.988,-59"/>
<text text-anchor="middle" x="342" y="-65" font-family="Helvetica,sans-Serif" font-size="10.00">_platform.h</text>
</a>
</g>
</g>
<!-- Node6&#45;&gt;Node7 -->
<g id="edge6" class="edge"><title>Node6&#45;&gt;Node7</title>
<path fill="none" stroke="midnightblue" d="M342,-116.753C342,-109.25 342,-98.4238 342,-89.0781"/>
<polygon fill="midnightblue" stroke="midnightblue" points="345.5,-89.0752 342,-79.0752 338.5,-89.0752 345.5,-89.0752"/>
</g>
<!-- Node8 -->
<g id="node8" class="node"><title>Node8</title>
<g id="a_node8"><a xlink:href="__compiler_8h.xhtml" target="_top" xlink:title="_compiler.h">
<polygon fill="white" stroke="black" points="308.429,-1 308.429,-21 375.571,-21 375.571,-1 308.429,-1"/>
<text text-anchor="middle" x="342" y="-7" font-family="Helvetica,sans-Serif" font-size="10.00">_compiler.h</text>
</a>
</g>
</g>
<!-- Node7&#45;&gt;Node8 -->
<g id="edge7" class="edge"><title>Node7&#45;&gt;Node8</title>
<path fill="none" stroke="midnightblue" d="M342,-58.7527C342,-51.2504 342,-40.4238 342,-31.0781"/>
<polygon fill="midnightblue" stroke="midnightblue" points="345.5,-31.0752 342,-21.0752 338.5,-31.0752 345.5,-31.0752"/>
</g>
<!-- Node15&#45;&gt;Node5 -->
<g id="edge15" class="edge"><title>Node15&#45;&gt;Node5</title>
<path fill="none" stroke="midnightblue" d="M47.7997,-290.985C41.0577,-274.479 33.9404,-248.162 48,-232 83.6649,-191.002 245.088,-185.436 327.805,-185.354"/>
<polygon fill="midnightblue" stroke="midnightblue" points="327.965,-188.854 337.971,-185.371 327.977,-181.854 327.965,-188.854"/>
</g>
<!-- Node17 -->
<g id="node17" class="node"><title>Node17</title>
<polygon fill="white" stroke="#bfbfbf" points="190.934,-233 190.934,-253 253.066,-253 253.066,-233 190.934,-233"/>
<text text-anchor="middle" x="222" y="-239" font-family="Helvetica,sans-Serif" font-size="10.00">type_traits</text>
</g>
<!-- Node16&#45;&gt;Node17 -->
<g id="edge17" class="edge"><title>Node16&#45;&gt;Node17</title>
<path fill="none" stroke="midnightblue" d="M279.603,-290.992C268.008,-281.533 253.06,-269.338 241.297,-259.742"/>
<polygon fill="midnightblue" stroke="midnightblue" points="243.349,-256.9 233.388,-253.29 238.924,-262.324 243.349,-256.9"/>
</g>
<!-- Node16&#45;&gt;Node18 -->
<g id="edge18" class="edge"><title>Node16&#45;&gt;Node18</title>
<path fill="none" stroke="midnightblue" d="M245.163,-292.716C208.71,-283.317 158.954,-270.029 107.219,-254.249"/>
<polygon fill="midnightblue" stroke="midnightblue" points="108.126,-250.867 97.5388,-251.274 106.069,-257.558 108.126,-250.867"/>
</g>
<!-- Node16&#45;&gt;Node19 -->
<g id="edge19" class="edge"><title>Node16&#45;&gt;Node19</title>
<path fill="none" stroke="midnightblue" d="M334.553,-290.992C360.789,-280.219 395.665,-265.899 419.995,-255.91"/>
<polygon fill="midnightblue" stroke="midnightblue" points="421.479,-259.084 429.4,-252.048 418.82,-252.608 421.479,-259.084"/>
</g>
<!-- Node20 -->
<g id="node20" class="node"><title>Node20</title>
<polygon fill="white" stroke="#bfbfbf" points="270.828,-233 270.828,-253 325.172,-253 325.172,-233 270.828,-233"/>
<text text-anchor="middle" x="298" y="-239" font-family="Helvetica,sans-Serif" font-size="10.00">iostream</text>
</g>
<!-- Node16&#45;&gt;Node20 -->
<g id="edge20" class="edge"><title>Node16&#45;&gt;Node20</title>
<path fill="none" stroke="midnightblue" d="M298,-290.992C298,-282.726 298,-272.373 298,-263.489"/>
<polygon fill="midnightblue" stroke="midnightblue" points="301.5,-263.29 298,-253.29 294.5,-263.29 301.5,-263.29"/>
</g>
<!-- Node21 -->
<g id="node21" class="node"><title>Node21</title>
<polygon fill="white" stroke="#bfbfbf" points="115.436,-233 115.436,-253 172.564,-253 172.564,-233 115.436,-233"/>
<text text-anchor="middle" x="144" y="-239" font-family="Helvetica,sans-Serif" font-size="10.00">algorithm</text>
</g>
<!-- Node16&#45;&gt;Node21 -->
<g id="edge21" class="edge"><title>Node16&#45;&gt;Node21</title>
<path fill="none" stroke="midnightblue" d="M260.721,-290.992C234.788,-280.551 200.577,-266.778 175.904,-256.845"/>
<polygon fill="midnightblue" stroke="midnightblue" points="177.209,-253.597 166.625,-253.109 174.594,-260.09 177.209,-253.597"/>
</g>
<!-- Node22 -->
<g id="node22" class="node"><title>Node22</title>
<g id="a_node22"><a xlink:href="____strhash_8h.xhtml" target="_top" xlink:title="__strhash.h">
<polygon fill="white" stroke="black" points="342.872,-233 342.872,-253 411.128,-253 411.128,-233 342.872,-233"/>
<text text-anchor="middle" x="377" y="-239" font-family="Helvetica,sans-Serif" font-size="10.00">__strhash.h</text>
</a>
</g>
</g>
<!-- Node16&#45;&gt;Node22 -->
<g id="edge22" class="edge"><title>Node16&#45;&gt;Node22</title>
<path fill="none" stroke="midnightblue" d="M317.124,-290.992C329.176,-281.533 344.714,-269.338 356.941,-259.742"/>
<polygon fill="midnightblue" stroke="midnightblue" points="359.456,-262.218 365.162,-253.29 355.135,-256.711 359.456,-262.218"/>
</g>
<!-- Node22&#45;&gt;Node5 -->
<g id="edge23" class="edge"><title>Node22&#45;&gt;Node5</title>
<path fill="none" stroke="midnightblue" d="M377,-232.753C377,-225.25 377,-214.424 377,-205.078"/>
<polygon fill="midnightblue" stroke="midnightblue" points="380.5,-205.075 377,-195.075 373.5,-205.075 380.5,-205.075"/>
</g>
<!-- Node22&#45;&gt;Node12 -->
<g id="edge24" class="edge"><title>Node22&#45;&gt;Node12</title>
<path fill="none" stroke="midnightblue" d="M411.184,-234.154C457.032,-223.632 538.077,-205.031 584.888,-194.288"/>
<polygon fill="midnightblue" stroke="midnightblue" points="585.928,-197.64 594.891,-191.992 584.362,-190.818 585.928,-197.64"/>
</g>
</g>
</svg>
