<?xml version="1.0" encoding="UTF-8" standalone="no"?>
<!DOCTYPE svg PUBLIC "-//W3C//DTD SVG 1.1//EN"
 "http://www.w3.org/Graphics/SVG/1.1/DTD/svg11.dtd">
<!-- Generated by graphviz version 2.30.0 (20130114.0426)
 -->
<!-- Title: /Users/rkwright/Documents/github/readium&#45;sdk&#45;D/ePub3/utilities/pointer_type.h Pages: 1 -->
<svg width="241pt" height="112pt"
 viewBox="0.00 0.00 241.00 112.00" xmlns="http://www.w3.org/2000/svg" xmlns:xlink="http://www.w3.org/1999/xlink">
<g id="graph0" class="graph" transform="scale(1 1) rotate(0) translate(4 108)">
<title>/Users/rkwright/Documents/github/readium&#45;sdk&#45;D/ePub3/utilities/pointer_type.h</title>
<polygon fill="white" stroke="white" points="-4,5 -4,-108 238,-108 238,5 -4,5"/>
<!-- Node1 -->
<g id="node1" class="node"><title>Node1</title>
<polygon fill="#bfbfbf" stroke="black" points="53.9658,-59 53.9658,-103 200.034,-103 200.034,-59 53.9658,-59"/>
<text text-anchor="start" x="61.9658" y="-89" font-family="Helvetica,sans-Serif" font-size="10.00">/Users/rkwright/Documents</text>
<text text-anchor="start" x="61.9658" y="-77" font-family="Helvetica,sans-Serif" font-size="10.00">/github/readium&#45;sdk&#45;D/ePub3</text>
<text text-anchor="middle" x="127" y="-65" font-family="Helvetica,sans-Serif" font-size="10.00">/utilities/pointer_type.h</text>
</g>
<!-- Node2 -->
<g id="node2" class="node"><title>Node2</title>
<polygon fill="white" stroke="#bfbfbf" points="-0.920898,-1 -0.920898,-21 82.9209,-21 82.9209,-1 -0.920898,-1"/>
<text text-anchor="middle" x="41" y="-7" font-family="Helvetica,sans-Serif" font-size="10.00">ePub3/epub3.h</text>
</g>
<!-- Node1&#45;&gt;Node2 -->
<g id="edge1" class="edge"><title>Node1&#45;&gt;Node2</title>
<path fill="none" stroke="midnightblue" d="M100.26,-58.8571C87.4051,-48.6924 72.2757,-36.7296 60.5217,-27.4358"/>
<polygon fill="midnightblue" stroke="midnightblue" points="62.6553,-24.6609 52.6403,-21.2039 58.3136,-30.1518 62.6553,-24.6609"/>
</g>
<!-- Node3 -->
<g id="node3" class="node"><title>Node3</title>
<polygon fill="white" stroke="#bfbfbf" points="100.943,-1 100.943,-21 153.057,-21 153.057,-1 100.943,-1"/>
<text text-anchor="middle" x="127" y="-7" font-family="Helvetica,sans-Serif" font-size="10.00">memory</text>
</g>
<!-- Node1&#45;&gt;Node3 -->
<g id="edge2" class="edge"><title>Node1&#45;&gt;Node3</title>
<path fill="none" stroke="midnightblue" d="M127,-58.8571C127,-50.074 127,-39.9484 127,-31.3622"/>
<polygon fill="midnightblue" stroke="midnightblue" points="130.5,-31.2039 127,-21.2039 123.5,-31.204 130.5,-31.2039"/>
</g>
<!-- Node4 -->
<g id="node4" class="node"><title>Node4</title>
<polygon fill="white" stroke="#bfbfbf" points="170.934,-1 170.934,-21 233.066,-21 233.066,-1 170.934,-1"/>
<text text-anchor="middle" x="202" y="-7" font-family="Helvetica,sans-Serif" font-size="10.00">type_traits</text>
</g>
<!-- Node1&#45;&gt;Node4 -->
<g id="edge3" class="edge"><title>Node1&#45;&gt;Node4</title>
<path fill="none" stroke="midnightblue" d="M150.319,-58.8571C161.313,-48.8897 174.213,-37.1935 184.375,-27.9801"/>
<polygon fill="midnightblue" stroke="midnightblue" points="186.791,-30.5138 191.849,-21.2039 182.089,-25.3279 186.791,-30.5138"/>
</g>
</g>
</svg>
