<?xml version="1.0" encoding="UTF-8" standalone="no"?>
<!DOCTYPE svg PUBLIC "-//W3C//DTD SVG 1.1//EN"
 "http://www.w3.org/Graphics/SVG/1.1/DTD/svg11.dtd">
<!-- Generated by graphviz version 2.30.0 (20130114.0426)
 -->
<!-- Title: /Users/rkwright/Documents/github/readium&#45;sdk&#45;D/ePub3/ePub/property_holder.h Pages: 1 -->
<svg width="320pt" height="136pt"
 viewBox="0.00 0.00 320.00 136.00" xmlns="http://www.w3.org/2000/svg" xmlns:xlink="http://www.w3.org/1999/xlink">
<g id="graph0" class="graph" transform="scale(1 1) rotate(0) translate(4 132)">
<title>/Users/rkwright/Documents/github/readium&#45;sdk&#45;D/ePub3/ePub/property_holder.h</title>
<polygon fill="white" stroke="white" points="-4,5 -4,-132 317,-132 317,5 -4,5"/>
<!-- Node1 -->
<g id="node1" class="node"><title>Node1</title>
<polygon fill="#bfbfbf" stroke="black" points="82.9658,-83 82.9658,-127 229.034,-127 229.034,-83 82.9658,-83"/>
<text text-anchor="start" x="90.9658" y="-113" font-family="Helvetica,sans-Serif" font-size="10.00">/Users/rkwright/Documents</text>
<text text-anchor="start" x="90.9658" y="-101" font-family="Helvetica,sans-Serif" font-size="10.00">/github/readium&#45;sdk&#45;D/ePub3</text>
<text text-anchor="middle" x="156" y="-89" font-family="Helvetica,sans-Serif" font-size="10.00">/ePub/property_holder.h</text>
</g>
<!-- Node2 -->
<g id="node2" class="node"><title>Node2</title>
<g id="a_node2"><a xlink:href="property__extension_8cpp.xhtml" target="_top" xlink:title="/Users/rkwright/Documents\l/github/readium&#45;sdk&#45;D/ePub3\l/ePub/property_extension.cpp">
<polygon fill="white" stroke="black" points="-0.433105,-1 -0.433105,-45 148.433,-45 148.433,-1 -0.433105,-1"/>
<text text-anchor="start" x="7.56689" y="-31" font-family="Helvetica,sans-Serif" font-size="10.00">/Users/rkwright/Documents</text>
<text text-anchor="start" x="7.56689" y="-19" font-family="Helvetica,sans-Serif" font-size="10.00">/github/readium&#45;sdk&#45;D/ePub3</text>
<text text-anchor="middle" x="74" y="-7" font-family="Helvetica,sans-Serif" font-size="10.00">/ePub/property_extension.cpp</text>
</a>
</g>
</g>
<!-- Node1&#45;&gt;Node2 -->
<g id="edge1" class="edge"><title>Node1&#45;&gt;Node2</title>
<path fill="none" stroke="midnightblue" d="M127.163,-75.866C116.813,-65.7685 105.326,-54.5617 95.6853,-45.1564"/>
<polygon fill="midnightblue" stroke="midnightblue" points="124.853,-78.5029 134.455,-82.9809 129.742,-73.4924 124.853,-78.5029"/>
</g>
<!-- Node3 -->
<g id="node3" class="node"><title>Node3</title>
<g id="a_node3"><a xlink:href="property__holder_8cpp.xhtml" target="_top" xlink:title="/Users/rkwright/Documents\l/github/readium&#45;sdk&#45;D/ePub3\l/ePub/property_holder.cpp">
<polygon fill="white" stroke="black" points="165.966,-1 165.966,-45 312.034,-45 312.034,-1 165.966,-1"/>
<text text-anchor="start" x="173.966" y="-31" font-family="Helvetica,sans-Serif" font-size="10.00">/Users/rkwright/Documents</text>
<text text-anchor="start" x="173.966" y="-19" font-family="Helvetica,sans-Serif" font-size="10.00">/github/readium&#45;sdk&#45;D/ePub3</text>
<text text-anchor="middle" x="239" y="-7" font-family="Helvetica,sans-Serif" font-size="10.00">/ePub/property_holder.cpp</text>
</a>
</g>
</g>
<!-- Node1&#45;&gt;Node3 -->
<g id="edge2" class="edge"><title>Node1&#45;&gt;Node3</title>
<path fill="none" stroke="midnightblue" d="M185.189,-75.866C195.665,-65.7685 207.292,-54.5617 217.05,-45.1564"/>
<polygon fill="midnightblue" stroke="midnightblue" points="182.578,-73.5212 177.807,-82.9809 187.436,-78.5612 182.578,-73.5212"/>
</g>
</g>
</svg>
