<?xml version="1.0" encoding="UTF-8" standalone="no"?>
<!DOCTYPE svg PUBLIC "-//W3C//DTD SVG 1.1//EN"
 "http://www.w3.org/Graphics/SVG/1.1/DTD/svg11.dtd">
<!-- Generated by graphviz version 2.30.0 (20130114.0426)
 -->
<!-- Title: /Users/rkwright/Documents/github/readium&#45;sdk&#45;D/ePub3/ePub/property_holder.cpp Pages: 1 -->
<svg width="659pt" height="402pt"
 viewBox="0.00 0.00 659.00 402.00" xmlns="http://www.w3.org/2000/svg" xmlns:xlink="http://www.w3.org/1999/xlink">
<g id="graph0" class="graph" transform="scale(1 1) rotate(0) translate(4 398)">
<title>/Users/rkwright/Documents/github/readium&#45;sdk&#45;D/ePub3/ePub/property_holder.cpp</title>
<polygon fill="white" stroke="white" points="-4,5 -4,-398 656,-398 656,5 -4,5"/>
<!-- Node1 -->
<g id="node1" class="node"><title>Node1</title>
<polygon fill="#bfbfbf" stroke="black" points="458.966,-349 458.966,-393 605.034,-393 605.034,-349 458.966,-349"/>
<text text-anchor="start" x="466.966" y="-379" font-family="Helvetica,sans-Serif" font-size="10.00">/Users/rkwright/Documents</text>
<text text-anchor="start" x="466.966" y="-367" font-family="Helvetica,sans-Serif" font-size="10.00">/github/readium&#45;sdk&#45;D/ePub3</text>
<text text-anchor="middle" x="532" y="-355" font-family="Helvetica,sans-Serif" font-size="10.00">/ePub/property_holder.cpp</text>
</g>
<!-- Node2 -->
<g id="node2" class="node"><title>Node2</title>
<g id="a_node2"><a xlink:href="property__holder_8h.xhtml" target="_top" xlink:title="property_holder.h">
<polygon fill="white" stroke="black" points="428.082,-291 428.082,-311 521.918,-311 521.918,-291 428.082,-291"/>
<text text-anchor="middle" x="475" y="-297" font-family="Helvetica,sans-Serif" font-size="10.00">property_holder.h</text>
</a>
</g>
</g>
<!-- Node1&#45;&gt;Node2 -->
<g id="edge1" class="edge"><title>Node1&#45;&gt;Node2</title>
<path fill="none" stroke="midnightblue" d="M514.277,-348.857C506.253,-339.284 496.892,-328.117 489.322,-319.086"/>
<polygon fill="midnightblue" stroke="midnightblue" points="491.821,-316.619 482.715,-311.204 486.457,-321.116 491.821,-316.619"/>
</g>
<!-- Node17 -->
<g id="node17" class="node"><title>Node17</title>
<polygon fill="white" stroke="#bfbfbf" points="539.766,-291 539.766,-311 640.234,-311 640.234,-291 539.766,-291"/>
<text text-anchor="middle" x="590" y="-297" font-family="Helvetica,sans-Serif" font-size="10.00">REGEX_INCLUDE</text>
</g>
<!-- Node1&#45;&gt;Node17 -->
<g id="edge17" class="edge"><title>Node1&#45;&gt;Node17</title>
<path fill="none" stroke="midnightblue" d="M550.034,-348.857C558.199,-339.284 567.724,-328.117 575.426,-319.086"/>
<polygon fill="midnightblue" stroke="midnightblue" points="578.323,-321.084 582.15,-311.204 572.997,-316.541 578.323,-321.084"/>
</g>
<!-- Node3 -->
<g id="node3" class="node"><title>Node3</title>
<g id="a_node3"><a xlink:href="basic_8h.xhtml" target="_top" xlink:title="ePub3/utilities/basic.h">
<polygon fill="white" stroke="black" points="277.638,-233 277.638,-253 390.362,-253 390.362,-233 277.638,-233"/>
<text text-anchor="middle" x="334" y="-239" font-family="Helvetica,sans-Serif" font-size="10.00">ePub3/utilities/basic.h</text>
</a>
</g>
</g>
<!-- Node2&#45;&gt;Node3 -->
<g id="edge2" class="edge"><title>Node2&#45;&gt;Node3</title>
<path fill="none" stroke="midnightblue" d="M452.032,-290.878C428.782,-281.644 392.623,-267.283 366.452,-256.889"/>
<polygon fill="midnightblue" stroke="midnightblue" points="367.544,-253.556 356.958,-253.118 364.96,-260.062 367.544,-253.556"/>
</g>
<!-- Node14 -->
<g id="node14" class="node"><title>Node14</title>
<g id="a_node14"><a xlink:href="owned__by_8h.xhtml" target="_top" xlink:title="ePub3/utilities/owned_by.h">
<polygon fill="white" stroke="black" points="407.884,-233 407.884,-253 542.116,-253 542.116,-233 407.884,-233"/>
<text text-anchor="middle" x="475" y="-239" font-family="Helvetica,sans-Serif" font-size="10.00">ePub3/utilities/owned_by.h</text>
</a>
</g>
</g>
<!-- Node2&#45;&gt;Node14 -->
<g id="edge13" class="edge"><title>Node2&#45;&gt;Node14</title>
<path fill="none" stroke="midnightblue" d="M475,-290.753C475,-283.25 475,-272.424 475,-263.078"/>
<polygon fill="midnightblue" stroke="midnightblue" points="478.5,-263.075 475,-253.075 471.5,-263.075 478.5,-263.075"/>
</g>
<!-- Node16 -->
<g id="node16" class="node"><title>Node16</title>
<polygon fill="white" stroke="#bfbfbf" points="560.009,-233 560.009,-253 651.991,-253 651.991,-233 560.009,-233"/>
<text text-anchor="middle" x="606" y="-239" font-family="Helvetica,sans-Serif" font-size="10.00">ePub3/property.h</text>
</g>
<!-- Node2&#45;&gt;Node16 -->
<g id="edge16" class="edge"><title>Node2&#45;&gt;Node16</title>
<path fill="none" stroke="midnightblue" d="M496.339,-290.878C517.749,-281.725 550.943,-267.536 575.205,-257.164"/>
<polygon fill="midnightblue" stroke="midnightblue" points="576.851,-260.267 584.67,-253.118 574.099,-253.831 576.851,-260.267"/>
</g>
<!-- Node4 -->
<g id="node4" class="node"><title>Node4</title>
<g id="a_node4"><a xlink:href="base_8h.xhtml" target="_top" xlink:title="ePub3/base.h">
<polygon fill="white" stroke="black" points="29.1406,-175 29.1406,-195 106.859,-195 106.859,-175 29.1406,-175"/>
<text text-anchor="middle" x="68" y="-181" font-family="Helvetica,sans-Serif" font-size="10.00">ePub3/base.h</text>
</a>
</g>
</g>
<!-- Node3&#45;&gt;Node4 -->
<g id="edge3" class="edge"><title>Node3&#45;&gt;Node4</title>
<path fill="none" stroke="midnightblue" d="M290.967,-232.94C243.371,-222.92 166.836,-206.808 116.978,-196.311"/>
<polygon fill="midnightblue" stroke="midnightblue" points="117.578,-192.861 107.072,-194.226 116.136,-199.711 117.578,-192.861"/>
</g>
<!-- Node9 -->
<g id="node9" class="node"><title>Node9</title>
<polygon fill="white" stroke="#bfbfbf" points="124.815,-175 124.815,-195 239.185,-195 239.185,-175 124.815,-175"/>
<text text-anchor="middle" x="182" y="-181" font-family="Helvetica,sans-Serif" font-size="10.00">ePub3/xml/xmlstring.h</text>
</g>
<!-- Node3&#45;&gt;Node9 -->
<g id="edge8" class="edge"><title>Node3&#45;&gt;Node9</title>
<path fill="none" stroke="midnightblue" d="M309.24,-232.878C283.956,-223.563 244.509,-209.03 216.24,-198.615"/>
<polygon fill="midnightblue" stroke="midnightblue" points="217.343,-195.291 206.749,-195.118 214.923,-201.859 217.343,-195.291"/>
</g>
<!-- Node10 -->
<g id="node10" class="node"><title>Node10</title>
<polygon fill="white" stroke="#bfbfbf" points="257.219,-175 257.219,-195 308.781,-195 308.781,-175 257.219,-175"/>
<text text-anchor="middle" x="283" y="-181" font-family="Helvetica,sans-Serif" font-size="10.00">sstream</text>
</g>
<!-- Node3&#45;&gt;Node10 -->
<g id="edge9" class="edge"><title>Node3&#45;&gt;Node10</title>
<path fill="none" stroke="midnightblue" d="M325.578,-232.753C318.152,-224.598 307.148,-212.516 298.188,-202.677"/>
<polygon fill="midnightblue" stroke="midnightblue" points="300.586,-200.112 291.265,-195.075 295.411,-204.825 300.586,-200.112"/>
</g>
<!-- Node11 -->
<g id="node11" class="node"><title>Node11</title>
<polygon fill="white" stroke="#bfbfbf" points="434.943,-175 434.943,-195 487.057,-195 487.057,-175 434.943,-175"/>
<text text-anchor="middle" x="461" y="-181" font-family="Helvetica,sans-Serif" font-size="10.00">memory</text>
</g>
<!-- Node3&#45;&gt;Node11 -->
<g id="edge10" class="edge"><title>Node3&#45;&gt;Node11</title>
<path fill="none" stroke="midnightblue" d="M354.687,-232.878C375.444,-223.725 407.624,-209.536 431.145,-199.164"/>
<polygon fill="midnightblue" stroke="midnightblue" points="432.584,-202.355 440.321,-195.118 429.759,-195.95 432.584,-202.355"/>
</g>
<!-- Node12 -->
<g id="node12" class="node"><title>Node12</title>
<polygon fill="white" stroke="#bfbfbf" points="326.384,-175 326.384,-195 369.616,-195 369.616,-175 326.384,-175"/>
<text text-anchor="middle" x="348" y="-181" font-family="Helvetica,sans-Serif" font-size="10.00">vector</text>
</g>
<!-- Node3&#45;&gt;Node12 -->
<g id="edge11" class="edge"><title>Node3&#45;&gt;Node12</title>
<path fill="none" stroke="midnightblue" d="M336.312,-232.753C338.187,-225.25 340.894,-214.424 343.23,-205.078"/>
<polygon fill="midnightblue" stroke="midnightblue" points="346.701,-205.626 345.731,-195.075 339.91,-203.928 346.701,-205.626"/>
</g>
<!-- Node13 -->
<g id="node13" class="node"><title>Node13</title>
<polygon fill="white" stroke="#bfbfbf" points="387.5,-175 387.5,-195 416.5,-195 416.5,-175 387.5,-175"/>
<text text-anchor="middle" x="401.611" y="-181" font-family="Helvetica,sans-Serif" font-size="10.00">list</text>
</g>
<!-- Node3&#45;&gt;Node13 -->
<g id="edge12" class="edge"><title>Node3&#45;&gt;Node13</title>
<path fill="none" stroke="midnightblue" d="M345.229,-232.753C355.527,-224.272 370.984,-211.543 383.17,-201.507"/>
<polygon fill="midnightblue" stroke="midnightblue" points="385.486,-204.134 390.98,-195.075 381.036,-198.731 385.486,-204.134"/>
</g>
<!-- Node5 -->
<g id="node5" class="node"><title>Node5</title>
<g id="a_node5"><a xlink:href="__config_8h.xhtml" target="_top" xlink:title="_config.h">
<polygon fill="white" stroke="black" points="4.70703,-117 4.70703,-137 61.293,-137 61.293,-117 4.70703,-117"/>
<text text-anchor="middle" x="33" y="-123" font-family="Helvetica,sans-Serif" font-size="10.00">_config.h</text>
</a>
</g>
</g>
<!-- Node4&#45;&gt;Node5 -->
<g id="edge4" class="edge"><title>Node4&#45;&gt;Node5</title>
<path fill="none" stroke="midnightblue" d="M62.2205,-174.753C57.2767,-166.843 50.0233,-155.237 43.9802,-145.568"/>
<polygon fill="midnightblue" stroke="midnightblue" points="46.94,-143.7 38.672,-137.075 41.004,-147.41 46.94,-143.7"/>
</g>
<!-- Node8 -->
<g id="node8" class="node"><title>Node8</title>
<polygon fill="white" stroke="#bfbfbf" points="79.1577,-117 79.1577,-137 126.842,-137 126.842,-117 79.1577,-117"/>
<text text-anchor="middle" x="103" y="-123" font-family="Helvetica,sans-Serif" font-size="10.00">stdlib.h</text>
</g>
<!-- Node4&#45;&gt;Node8 -->
<g id="edge7" class="edge"><title>Node4&#45;&gt;Node8</title>
<path fill="none" stroke="midnightblue" d="M73.7795,-174.753C78.7233,-166.843 85.9767,-155.237 92.0198,-145.568"/>
<polygon fill="midnightblue" stroke="midnightblue" points="94.996,-147.41 97.328,-137.075 89.06,-143.7 94.996,-147.41"/>
</g>
<!-- Node6 -->
<g id="node6" class="node"><title>Node6</title>
<g id="a_node6"><a xlink:href="__platform_8h.xhtml" target="_top" xlink:title="_platform.h">
<polygon fill="white" stroke="black" points="-0.012207,-59 -0.012207,-79 66.0122,-79 66.0122,-59 -0.012207,-59"/>
<text text-anchor="middle" x="33" y="-65" font-family="Helvetica,sans-Serif" font-size="10.00">_platform.h</text>
</a>
</g>
</g>
<!-- Node5&#45;&gt;Node6 -->
<g id="edge5" class="edge"><title>Node5&#45;&gt;Node6</title>
<path fill="none" stroke="midnightblue" d="M33,-116.753C33,-109.25 33,-98.4238 33,-89.0781"/>
<polygon fill="midnightblue" stroke="midnightblue" points="36.5001,-89.0752 33,-79.0752 29.5001,-89.0752 36.5001,-89.0752"/>
</g>
<!-- Node7 -->
<g id="node7" class="node"><title>Node7</title>
<g id="a_node7"><a xlink:href="__compiler_8h.xhtml" target="_top" xlink:title="_compiler.h">
<polygon fill="white" stroke="black" points="-0.571289,-1 -0.571289,-21 66.5713,-21 66.5713,-1 -0.571289,-1"/>
<text text-anchor="middle" x="33" y="-7" font-family="Helvetica,sans-Serif" font-size="10.00">_compiler.h</text>
</a>
</g>
</g>
<!-- Node6&#45;&gt;Node7 -->
<g id="edge6" class="edge"><title>Node6&#45;&gt;Node7</title>
<path fill="none" stroke="midnightblue" d="M33,-58.7527C33,-51.2504 33,-40.4238 33,-31.0781"/>
<polygon fill="midnightblue" stroke="midnightblue" points="36.5001,-31.0752 33,-21.0752 29.5001,-31.0752 36.5001,-31.0752"/>
</g>
<!-- Node14&#45;&gt;Node11 -->
<g id="edge14" class="edge"><title>Node14&#45;&gt;Node11</title>
<path fill="none" stroke="midnightblue" d="M472.688,-232.753C470.813,-225.25 468.106,-214.424 465.77,-205.078"/>
<polygon fill="midnightblue" stroke="midnightblue" points="469.09,-203.928 463.269,-195.075 462.299,-205.626 469.09,-203.928"/>
</g>
<!-- Node15 -->
<g id="node15" class="node"><title>Node15</title>
<polygon fill="white" stroke="#bfbfbf" points="504.934,-175 504.934,-195 567.066,-195 567.066,-175 504.934,-175"/>
<text text-anchor="middle" x="536" y="-181" font-family="Helvetica,sans-Serif" font-size="10.00">type_traits</text>
</g>
<!-- Node14&#45;&gt;Node15 -->
<g id="edge15" class="edge"><title>Node14&#45;&gt;Node15</title>
<path fill="none" stroke="midnightblue" d="M485.073,-232.753C494.133,-224.435 507.645,-212.031 518.474,-202.089"/>
<polygon fill="midnightblue" stroke="midnightblue" points="521.115,-204.416 526.115,-195.075 516.381,-199.26 521.115,-204.416"/>
</g>
</g>
</svg>
