<?xml version="1.0" encoding="UTF-8" standalone="no"?>
<!DOCTYPE svg PUBLIC "-//W3C//DTD SVG 1.1//EN"
 "http://www.w3.org/Graphics/SVG/1.1/DTD/svg11.dtd">
<!-- Generated by graphviz version 2.30.0 (20130114.0426)
 -->
<!-- Title: /Users/rkwright/Documents/github/readium&#45;sdk&#45;D/ePub3/utilities/ref_counted.cpp Pages: 1 -->
<svg width="154pt" height="124pt"
 viewBox="0.00 0.00 154.00 124.00" xmlns="http://www.w3.org/2000/svg" xmlns:xlink="http://www.w3.org/1999/xlink">
<g id="graph0" class="graph" transform="scale(1 1) rotate(0) translate(4 120)">
<title>/Users/rkwright/Documents/github/readium&#45;sdk&#45;D/ePub3/utilities/ref_counted.cpp</title>
<polygon fill="white" stroke="white" points="-4,5 -4,-120 151,-120 151,5 -4,5"/>
<!-- Node1 -->
<g id="node1" class="node"><title>Node1</title>
<polygon fill="#bfbfbf" stroke="black" points="-0.0341797,-71 -0.0341797,-115 146.034,-115 146.034,-71 -0.0341797,-71"/>
<text text-anchor="start" x="7.96582" y="-101" font-family="Helvetica,sans-Serif" font-size="10.00">/Users/rkwright/Documents</text>
<text text-anchor="start" x="7.96582" y="-89" font-family="Helvetica,sans-Serif" font-size="10.00">/github/readium&#45;sdk&#45;D/ePub3</text>
<text text-anchor="middle" x="73" y="-77" font-family="Helvetica,sans-Serif" font-size="10.00">/utilities/ref_counted.cpp</text>
</g>
<!-- Node2 -->
<g id="node2" class="node"><title>Node2</title>
<polygon fill="white" stroke="#bfbfbf" points="26.6455,-1 26.6455,-33 119.354,-33 119.354,-1 26.6455,-1"/>
<text text-anchor="start" x="34.6455" y="-19" font-family="Helvetica,sans-Serif" font-size="10.00">ePub3/utilities/ref</text>
<text text-anchor="middle" x="73" y="-7" font-family="Helvetica,sans-Serif" font-size="10.00">_counted.h</text>
</g>
<!-- Node1&#45;&gt;Node2 -->
<g id="edge1" class="edge"><title>Node1&#45;&gt;Node2</title>
<path fill="none" stroke="midnightblue" d="M73,-70.9925C73,-62.4866 73,-52.5844 73,-43.6574"/>
<polygon fill="midnightblue" stroke="midnightblue" points="76.5001,-43.4115 73,-33.4115 69.5001,-43.4115 76.5001,-43.4115"/>
</g>
</g>
</svg>
