<?xml version="1.0" encoding="UTF-8" standalone="no"?>
<!DOCTYPE svg PUBLIC "-//W3C//DTD SVG 1.1//EN"
 "http://www.w3.org/Graphics/SVG/1.1/DTD/svg11.dtd">
<!-- Generated by graphviz version 2.30.0 (20130114.0426)
 -->
<!-- Title: /Users/rkwright/Documents/github/readium&#45;sdk&#45;D/ePub3/utilities/ring_buffer.h Pages: 1 -->
<svg width="1770pt" height="312pt"
 viewBox="0.00 0.00 1770.00 312.00" xmlns="http://www.w3.org/2000/svg" xmlns:xlink="http://www.w3.org/1999/xlink">
<g id="graph0" class="graph" transform="scale(1 1) rotate(0) translate(4 308)">
<title>/Users/rkwright/Documents/github/readium&#45;sdk&#45;D/ePub3/utilities/ring_buffer.h</title>
<polygon fill="white" stroke="white" points="-4,5 -4,-308 1767,-308 1767,5 -4,5"/>
<!-- Node1 -->
<g id="node1" class="node"><title>Node1</title>
<polygon fill="#bfbfbf" stroke="black" points="952.966,-259 952.966,-303 1099.03,-303 1099.03,-259 952.966,-259"/>
<text text-anchor="start" x="960.966" y="-289" font-family="Helvetica,sans-Serif" font-size="10.00">/Users/rkwright/Documents</text>
<text text-anchor="start" x="960.966" y="-277" font-family="Helvetica,sans-Serif" font-size="10.00">/github/readium&#45;sdk&#45;D/ePub3</text>
<text text-anchor="middle" x="1026" y="-265" font-family="Helvetica,sans-Serif" font-size="10.00">/utilities/ring_buffer.h</text>
</g>
<!-- Node2 -->
<g id="node2" class="node"><title>Node2</title>
<g id="a_node2"><a xlink:href="byte__stream_8h.xhtml" target="_top" xlink:title="/Users/rkwright/Documents\l/github/readium&#45;sdk&#45;D/ePub3\l/utilities/byte_stream.h">
<polygon fill="white" stroke="black" points="870.966,-177 870.966,-221 1017.03,-221 1017.03,-177 870.966,-177"/>
<text text-anchor="start" x="878.966" y="-207" font-family="Helvetica,sans-Serif" font-size="10.00">/Users/rkwright/Documents</text>
<text text-anchor="start" x="878.966" y="-195" font-family="Helvetica,sans-Serif" font-size="10.00">/github/readium&#45;sdk&#45;D/ePub3</text>
<text text-anchor="middle" x="944" y="-183" font-family="Helvetica,sans-Serif" font-size="10.00">/utilities/byte_stream.h</text>
</a>
</g>
</g>
<!-- Node1&#45;&gt;Node2 -->
<g id="edge1" class="edge"><title>Node1&#45;&gt;Node2</title>
<path fill="none" stroke="midnightblue" d="M997.163,-251.866C986.813,-241.768 975.326,-230.562 965.685,-221.156"/>
<polygon fill="midnightblue" stroke="midnightblue" points="994.853,-254.503 1004.46,-258.981 999.742,-249.492 994.853,-254.503"/>
</g>
<!-- Node21 -->
<g id="node21" class="node"><title>Node21</title>
<g id="a_node21"><a xlink:href="ring__buffer_8cpp.xhtml" target="_top" xlink:title="/Users/rkwright/Documents\l/github/readium&#45;sdk&#45;D/ePub3\l/utilities/ring_buffer.cpp">
<polygon fill="white" stroke="black" points="1034.97,-177 1034.97,-221 1181.03,-221 1181.03,-177 1034.97,-177"/>
<text text-anchor="start" x="1042.97" y="-207" font-family="Helvetica,sans-Serif" font-size="10.00">/Users/rkwright/Documents</text>
<text text-anchor="start" x="1042.97" y="-195" font-family="Helvetica,sans-Serif" font-size="10.00">/github/readium&#45;sdk&#45;D/ePub3</text>
<text text-anchor="middle" x="1108" y="-183" font-family="Helvetica,sans-Serif" font-size="10.00">/utilities/ring_buffer.cpp</text>
</a>
</g>
</g>
<!-- Node1&#45;&gt;Node21 -->
<g id="edge27" class="edge"><title>Node1&#45;&gt;Node21</title>
<path fill="none" stroke="midnightblue" d="M1054.84,-251.866C1065.19,-241.768 1076.67,-230.562 1086.31,-221.156"/>
<polygon fill="midnightblue" stroke="midnightblue" points="1052.26,-249.492 1047.54,-258.981 1057.15,-254.503 1052.26,-249.492"/>
</g>
<!-- Node3 -->
<g id="node3" class="node"><title>Node3</title>
<g id="a_node3"><a xlink:href="container_8cpp.xhtml" target="_top" xlink:title="/Users/rkwright/Documents\l/github/readium&#45;sdk&#45;D/ePub3\l/ePub/container.cpp">
<polygon fill="white" stroke="black" points="-0.0341797,-95 -0.0341797,-139 146.034,-139 146.034,-95 -0.0341797,-95"/>
<text text-anchor="start" x="7.96582" y="-125" font-family="Helvetica,sans-Serif" font-size="10.00">/Users/rkwright/Documents</text>
<text text-anchor="start" x="7.96582" y="-113" font-family="Helvetica,sans-Serif" font-size="10.00">/github/readium&#45;sdk&#45;D/ePub3</text>
<text text-anchor="middle" x="73" y="-101" font-family="Helvetica,sans-Serif" font-size="10.00">/ePub/container.cpp</text>
</a>
</g>
</g>
<!-- Node2&#45;&gt;Node3 -->
<g id="edge2" class="edge"><title>Node2&#45;&gt;Node3</title>
<path fill="none" stroke="midnightblue" d="M860.711,-197.028C716.124,-194.196 409.741,-183.138 155,-140 152.093,-139.508 149.141,-138.958 146.166,-138.363"/>
<polygon fill="midnightblue" stroke="midnightblue" points="860.774,-200.53 870.838,-197.218 860.906,-193.531 860.774,-200.53"/>
</g>
<!-- Node4 -->
<g id="node4" class="node"><title>Node4</title>
<g id="a_node4"><a xlink:href="filter_8h.xhtml" target="_top" xlink:title="/Users/rkwright/Documents\l/github/readium&#45;sdk&#45;D/ePub3\l/ePub/filter.h">
<polygon fill="white" stroke="black" points="163.966,-95 163.966,-139 310.034,-139 310.034,-95 163.966,-95"/>
<text text-anchor="start" x="171.966" y="-125" font-family="Helvetica,sans-Serif" font-size="10.00">/Users/rkwright/Documents</text>
<text text-anchor="start" x="171.966" y="-113" font-family="Helvetica,sans-Serif" font-size="10.00">/github/readium&#45;sdk&#45;D/ePub3</text>
<text text-anchor="middle" x="237" y="-101" font-family="Helvetica,sans-Serif" font-size="10.00">/ePub/filter.h</text>
</a>
</g>
</g>
<!-- Node2&#45;&gt;Node4 -->
<g id="edge3" class="edge"><title>Node2&#45;&gt;Node4</title>
<path fill="none" stroke="midnightblue" d="M860.56,-194.757C740.151,-189.061 511.037,-174.415 319,-140 316.098,-139.48 313.15,-138.907 310.179,-138.292"/>
<polygon fill="midnightblue" stroke="midnightblue" points="860.656,-198.265 870.808,-195.232 860.981,-191.272 860.656,-198.265"/>
</g>
<!-- Node8 -->
<g id="node8" class="node"><title>Node8</title>
<g id="a_node8"><a xlink:href="filter__chain_8h.xhtml" target="_top" xlink:title="/Users/rkwright/Documents\l/github/readium&#45;sdk&#45;D/ePub3\l/ePub/filter_chain.h">
<polygon fill="white" stroke="black" points="719.966,-95 719.966,-139 866.034,-139 866.034,-95 719.966,-95"/>
<text text-anchor="start" x="727.966" y="-125" font-family="Helvetica,sans-Serif" font-size="10.00">/Users/rkwright/Documents</text>
<text text-anchor="start" x="727.966" y="-113" font-family="Helvetica,sans-Serif" font-size="10.00">/github/readium&#45;sdk&#45;D/ePub3</text>
<text text-anchor="middle" x="793" y="-101" font-family="Helvetica,sans-Serif" font-size="10.00">/ePub/filter_chain.h</text>
</a>
</g>
</g>
<!-- Node2&#45;&gt;Node8 -->
<g id="edge7" class="edge"><title>Node2&#45;&gt;Node8</title>
<path fill="none" stroke="midnightblue" d="M895.261,-172.178C875.024,-161.456 851.841,-149.174 832.67,-139.017"/>
<polygon fill="midnightblue" stroke="midnightblue" points="893.851,-175.392 904.327,-176.981 897.129,-169.207 893.851,-175.392"/>
</g>
<!-- Node11 -->
<g id="node11" class="node"><title>Node11</title>
<g id="a_node11"><a xlink:href="filter__chain__byte__stream_8h.xhtml" target="_top" xlink:title="/Users/rkwright/Documents\l/github/readium&#45;sdk&#45;D/ePub3\l/ePub/filter_chain_byte_stream.h">
<polygon fill="white" stroke="black" points="327.902,-95 327.902,-139 490.098,-139 490.098,-95 327.902,-95"/>
<text text-anchor="start" x="335.902" y="-125" font-family="Helvetica,sans-Serif" font-size="10.00">/Users/rkwright/Documents</text>
<text text-anchor="start" x="335.902" y="-113" font-family="Helvetica,sans-Serif" font-size="10.00">/github/readium&#45;sdk&#45;D/ePub3</text>
<text text-anchor="middle" x="409" y="-101" font-family="Helvetica,sans-Serif" font-size="10.00">/ePub/filter_chain_byte_stream.h</text>
</a>
</g>
</g>
<!-- Node2&#45;&gt;Node11 -->
<g id="edge11" class="edge"><title>Node2&#45;&gt;Node11</title>
<path fill="none" stroke="midnightblue" d="M860.653,-189.908C770.917,-180.552 624.18,-163.384 499,-140 496.154,-139.468 493.263,-138.903 490.348,-138.31"/>
<polygon fill="midnightblue" stroke="midnightblue" points="860.463,-193.407 870.77,-190.955 861.184,-186.444 860.463,-193.407"/>
</g>
<!-- Node12 -->
<g id="node12" class="node"><title>Node12</title>
<g id="a_node12"><a xlink:href="filter__chain__byte__stream__range_8h.xhtml" target="_top" xlink:title="/Users/rkwright/Documents\l/github/readium&#45;sdk&#45;D/ePub3\l/ePub/filter_chain_byte_stream_range.h">
<polygon fill="white" stroke="black" points="508.333,-95 508.333,-139 701.667,-139 701.667,-95 508.333,-95"/>
<text text-anchor="start" x="516.333" y="-125" font-family="Helvetica,sans-Serif" font-size="10.00">/Users/rkwright/Documents</text>
<text text-anchor="start" x="516.333" y="-113" font-family="Helvetica,sans-Serif" font-size="10.00">/github/readium&#45;sdk&#45;D/ePub3</text>
<text text-anchor="middle" x="605" y="-101" font-family="Helvetica,sans-Serif" font-size="10.00">/ePub/filter_chain_byte_stream_range.h</text>
</a>
</g>
</g>
<!-- Node2&#45;&gt;Node12 -->
<g id="edge14" class="edge"><title>Node2&#45;&gt;Node12</title>
<path fill="none" stroke="midnightblue" d="M860.949,-178.401C810.425,-166.478 745.907,-151.252 694.288,-139.071"/>
<polygon fill="midnightblue" stroke="midnightblue" points="860.323,-181.849 870.859,-180.74 861.931,-175.036 860.323,-181.849"/>
</g>
<!-- Node13 -->
<g id="node13" class="node"><title>Node13</title>
<g id="a_node13"><a xlink:href="library_8h.xhtml" target="_top" xlink:title="/Users/rkwright/Documents\l/github/readium&#45;sdk&#45;D/ePub3\l/ePub/library.h">
<polygon fill="white" stroke="black" points="921.966,-95 921.966,-139 1068.03,-139 1068.03,-95 921.966,-95"/>
<text text-anchor="start" x="929.966" y="-125" font-family="Helvetica,sans-Serif" font-size="10.00">/Users/rkwright/Documents</text>
<text text-anchor="start" x="929.966" y="-113" font-family="Helvetica,sans-Serif" font-size="10.00">/github/readium&#45;sdk&#45;D/ePub3</text>
<text text-anchor="middle" x="995" y="-101" font-family="Helvetica,sans-Serif" font-size="10.00">/ePub/library.h</text>
</a>
</g>
</g>
<!-- Node2&#45;&gt;Node13 -->
<g id="edge17" class="edge"><title>Node2&#45;&gt;Node13</title>
<path fill="none" stroke="midnightblue" d="M962.878,-168.388C969.064,-158.685 975.808,-148.105 981.513,-139.156"/>
<polygon fill="midnightblue" stroke="midnightblue" points="959.824,-166.667 957.4,-176.981 965.727,-170.43 959.824,-166.667"/>
</g>
<!-- Node16 -->
<g id="node16" class="node"><title>Node16</title>
<g id="a_node16"><a xlink:href="manifest_8cpp.xhtml" target="_top" xlink:title="/Users/rkwright/Documents\l/github/readium&#45;sdk&#45;D/ePub3\l/ePub/manifest.cpp">
<polygon fill="white" stroke="black" points="1085.97,-95 1085.97,-139 1232.03,-139 1232.03,-95 1085.97,-95"/>
<text text-anchor="start" x="1093.97" y="-125" font-family="Helvetica,sans-Serif" font-size="10.00">/Users/rkwright/Documents</text>
<text text-anchor="start" x="1093.97" y="-113" font-family="Helvetica,sans-Serif" font-size="10.00">/github/readium&#45;sdk&#45;D/ePub3</text>
<text text-anchor="middle" x="1159" y="-101" font-family="Helvetica,sans-Serif" font-size="10.00">/ePub/manifest.cpp</text>
</a>
</g>
</g>
<!-- Node2&#45;&gt;Node16 -->
<g id="edge20" class="edge"><title>Node2&#45;&gt;Node16</title>
<path fill="none" stroke="midnightblue" d="M1009.91,-173.474C1039.52,-162.456 1074.11,-149.586 1102.52,-139.017"/>
<polygon fill="midnightblue" stroke="midnightblue" points="1008.64,-170.213 1000.49,-176.981 1011.08,-176.774 1008.64,-170.213"/>
</g>
<!-- Node10 -->
<g id="node10" class="node"><title>Node10</title>
<g id="a_node10"><a xlink:href="package_8cpp.xhtml" target="_top" xlink:title="/Users/rkwright/Documents\l/github/readium&#45;sdk&#45;D/ePub3\l/ePub/package.cpp">
<polygon fill="white" stroke="black" points="795.966,-7 795.966,-51 942.034,-51 942.034,-7 795.966,-7"/>
<text text-anchor="start" x="803.966" y="-37" font-family="Helvetica,sans-Serif" font-size="10.00">/Users/rkwright/Documents</text>
<text text-anchor="start" x="803.966" y="-25" font-family="Helvetica,sans-Serif" font-size="10.00">/github/readium&#45;sdk&#45;D/ePub3</text>
<text text-anchor="middle" x="869" y="-13" font-family="Helvetica,sans-Serif" font-size="10.00">/ePub/package.cpp</text>
</a>
</g>
</g>
<!-- Node2&#45;&gt;Node10 -->
<g id="edge21" class="edge"><title>Node2&#45;&gt;Node10</title>
<path fill="none" stroke="midnightblue" d="M927.12,-167.936C922.349,-159.043 917.291,-149.219 913,-140 898.938,-109.792 885.053,-73.7663 876.753,-51.3828"/>
<polygon fill="midnightblue" stroke="midnightblue" points="924.09,-169.691 931.944,-176.801 930.239,-166.345 924.09,-169.691"/>
</g>
<!-- Node17 -->
<g id="node17" class="node"><title>Node17</title>
<g id="a_node17"><a xlink:href="_pass_through_filter_8h.xhtml" target="_top" xlink:title="/Users/rkwright/Documents\l/github/readium&#45;sdk&#45;D/ePub3\l/ePub/PassThroughFilter.h">
<polygon fill="white" stroke="black" points="1287.97,-95 1287.97,-139 1434.03,-139 1434.03,-95 1287.97,-95"/>
<text text-anchor="start" x="1295.97" y="-125" font-family="Helvetica,sans-Serif" font-size="10.00">/Users/rkwright/Documents</text>
<text text-anchor="start" x="1295.97" y="-113" font-family="Helvetica,sans-Serif" font-size="10.00">/github/readium&#45;sdk&#45;D/ePub3</text>
<text text-anchor="middle" x="1361" y="-101" font-family="Helvetica,sans-Serif" font-size="10.00">/ePub/PassThroughFilter.h</text>
</a>
</g>
</g>
<!-- Node2&#45;&gt;Node17 -->
<g id="edge22" class="edge"><title>Node2&#45;&gt;Node17</title>
<path fill="none" stroke="midnightblue" d="M1027.02,-175.905C1136.83,-153.968 1167.85,-161.067 1274,-140 1278.43,-139.12 1282.98,-138.158 1287.55,-137.142"/>
<polygon fill="midnightblue" stroke="midnightblue" points="1026.32,-172.476 1017.22,-177.898 1027.71,-179.336 1026.32,-172.476"/>
</g>
<!-- Node18 -->
<g id="node18" class="node"><title>Node18</title>
<g id="a_node18"><a xlink:href="_pass_through_filter_8cpp.xhtml" target="_top" xlink:title="/Users/rkwright/Documents\l/github/readium&#45;sdk&#45;D/ePub3\l/ePub/PassThroughFilter.cpp">
<polygon fill="white" stroke="black" points="1287.97,-7 1287.97,-51 1434.03,-51 1434.03,-7 1287.97,-7"/>
<text text-anchor="start" x="1295.97" y="-37" font-family="Helvetica,sans-Serif" font-size="10.00">/Users/rkwright/Documents</text>
<text text-anchor="start" x="1295.97" y="-25" font-family="Helvetica,sans-Serif" font-size="10.00">/github/readium&#45;sdk&#45;D/ePub3</text>
<text text-anchor="middle" x="1361" y="-13" font-family="Helvetica,sans-Serif" font-size="10.00">/ePub/PassThroughFilter.cpp</text>
</a>
</g>
</g>
<!-- Node2&#45;&gt;Node18 -->
<g id="edge24" class="edge"><title>Node2&#45;&gt;Node18</title>
<path fill="none" stroke="midnightblue" d="M1027.03,-175.966C1123.07,-157.464 1159.78,-186.843 1241,-140 1263.97,-126.752 1259.99,-112.489 1279,-94 1295.05,-78.3867 1314.79,-62.8831 1330.88,-51.0462"/>
<polygon fill="midnightblue" stroke="midnightblue" points="1026.32,-172.538 1017.23,-177.978 1027.73,-179.394 1026.32,-172.538"/>
</g>
<!-- Node19 -->
<g id="node19" class="node"><title>Node19</title>
<g id="a_node19"><a xlink:href="zip__archive_8cpp.xhtml" target="_top" xlink:title="/Users/rkwright/Documents\l/github/readium&#45;sdk&#45;D/ePub3\l/ePub/zip_archive.cpp">
<polygon fill="white" stroke="black" points="1451.97,-95 1451.97,-139 1598.03,-139 1598.03,-95 1451.97,-95"/>
<text text-anchor="start" x="1459.97" y="-125" font-family="Helvetica,sans-Serif" font-size="10.00">/Users/rkwright/Documents</text>
<text text-anchor="start" x="1459.97" y="-113" font-family="Helvetica,sans-Serif" font-size="10.00">/github/readium&#45;sdk&#45;D/ePub3</text>
<text text-anchor="middle" x="1525" y="-101" font-family="Helvetica,sans-Serif" font-size="10.00">/ePub/zip_archive.cpp</text>
</a>
</g>
</g>
<!-- Node2&#45;&gt;Node19 -->
<g id="edge25" class="edge"><title>Node2&#45;&gt;Node19</title>
<path fill="none" stroke="midnightblue" d="M1027.17,-175.953C1211.03,-144.755 1263.01,-171.66 1443,-140 1445.9,-139.489 1448.85,-138.924 1451.83,-138.316"/>
<polygon fill="midnightblue" stroke="midnightblue" points="1026.43,-172.529 1017.17,-177.684 1027.63,-179.426 1026.43,-172.529"/>
</g>
<!-- Node20 -->
<g id="node20" class="node"><title>Node20</title>
<g id="a_node20"><a xlink:href="byte__stream_8cpp.xhtml" target="_top" xlink:title="/Users/rkwright/Documents\l/github/readium&#45;sdk&#45;D/ePub3\l/utilities/byte_stream.cpp">
<polygon fill="white" stroke="black" points="1615.97,-95 1615.97,-139 1762.03,-139 1762.03,-95 1615.97,-95"/>
<text text-anchor="start" x="1623.97" y="-125" font-family="Helvetica,sans-Serif" font-size="10.00">/Users/rkwright/Documents</text>
<text text-anchor="start" x="1623.97" y="-113" font-family="Helvetica,sans-Serif" font-size="10.00">/github/readium&#45;sdk&#45;D/ePub3</text>
<text text-anchor="middle" x="1689" y="-101" font-family="Helvetica,sans-Serif" font-size="10.00">/utilities/byte_stream.cpp</text>
</a>
</g>
</g>
<!-- Node2&#45;&gt;Node20 -->
<g id="edge26" class="edge"><title>Node2&#45;&gt;Node20</title>
<path fill="none" stroke="midnightblue" d="M1027.13,-175.988C1283.15,-135.461 1354.91,-181.2 1607,-140 1609.91,-139.525 1612.86,-138.989 1615.84,-138.406"/>
<polygon fill="midnightblue" stroke="midnightblue" points="1026.47,-172.548 1017.16,-177.594 1027.59,-179.458 1026.47,-172.548"/>
</g>
<!-- Node5 -->
<g id="node5" class="node"><title>Node5</title>
<g id="a_node5"><a xlink:href="filter__chain_8cpp.xhtml" target="_top" xlink:title="/Users/rkwright/Documents\l/github/readium&#45;sdk&#45;D/ePub3\l/ePub/filter_chain.cpp">
<polygon fill="white" stroke="black" points="461.966,-7 461.966,-51 608.034,-51 608.034,-7 461.966,-7"/>
<text text-anchor="start" x="469.966" y="-37" font-family="Helvetica,sans-Serif" font-size="10.00">/Users/rkwright/Documents</text>
<text text-anchor="start" x="469.966" y="-25" font-family="Helvetica,sans-Serif" font-size="10.00">/github/readium&#45;sdk&#45;D/ePub3</text>
<text text-anchor="middle" x="535" y="-13" font-family="Helvetica,sans-Serif" font-size="10.00">/ePub/filter_chain.cpp</text>
</a>
</g>
</g>
<!-- Node4&#45;&gt;Node5 -->
<g id="edge4" class="edge"><title>Node4&#45;&gt;Node5</title>
<path fill="none" stroke="midnightblue" d="M320.15,-93.6963C377.775,-78.2184 445.322,-60.025 452,-58 459.131,-55.8376 466.573,-53.4771 473.946,-51.0737"/>
<polygon fill="midnightblue" stroke="midnightblue" points="319.012,-90.3778 310.262,-96.3517 320.828,-97.1382 319.012,-90.3778"/>
</g>
<!-- Node6 -->
<g id="node6" class="node"><title>Node6</title>
<g id="a_node6"><a xlink:href="filter__chain__byte__stream_8cpp.xhtml" target="_top" xlink:title="/Users/rkwright/Documents\l/github/readium&#45;sdk&#45;D/ePub3\l/ePub/filter_chain_byte_stream.cpp">
<polygon fill="white" stroke="black" points="99.6211,-7 99.6211,-51 272.379,-51 272.379,-7 99.6211,-7"/>
<text text-anchor="start" x="107.621" y="-37" font-family="Helvetica,sans-Serif" font-size="10.00">/Users/rkwright/Documents</text>
<text text-anchor="start" x="107.621" y="-25" font-family="Helvetica,sans-Serif" font-size="10.00">/github/readium&#45;sdk&#45;D/ePub3</text>
<text text-anchor="middle" x="186" y="-13" font-family="Helvetica,sans-Serif" font-size="10.00">/ePub/filter_chain_byte_stream.cpp</text>
</a>
</g>
</g>
<!-- Node4&#45;&gt;Node6 -->
<g id="edge5" class="edge"><title>Node4&#45;&gt;Node6</title>
<path fill="none" stroke="midnightblue" d="M219.134,-85.8724C212.308,-74.3618 204.678,-61.4956 198.462,-51.0139"/>
<polygon fill="midnightblue" stroke="midnightblue" points="216.282,-87.9255 224.393,-94.7416 222.303,-84.355 216.282,-87.9255"/>
</g>
<!-- Node7 -->
<g id="node7" class="node"><title>Node7</title>
<g id="a_node7"><a xlink:href="filter__chain__byte__stream__range_8cpp.xhtml" target="_top" xlink:title="/Users/rkwright/Documents\l/github/readium&#45;sdk&#45;D/ePub3\l/ePub/filter_chain_byte_stream\l_range.cpp">
<polygon fill="white" stroke="black" points="290.072,-1 290.072,-57 443.928,-57 443.928,-1 290.072,-1"/>
<text text-anchor="start" x="298.072" y="-43" font-family="Helvetica,sans-Serif" font-size="10.00">/Users/rkwright/Documents</text>
<text text-anchor="start" x="298.072" y="-31" font-family="Helvetica,sans-Serif" font-size="10.00">/github/readium&#45;sdk&#45;D/ePub3</text>
<text text-anchor="start" x="298.072" y="-19" font-family="Helvetica,sans-Serif" font-size="10.00">/ePub/filter_chain_byte_stream</text>
<text text-anchor="middle" x="367" y="-7" font-family="Helvetica,sans-Serif" font-size="10.00">_range.cpp</text>
</a>
</g>
</g>
<!-- Node4&#45;&gt;Node7 -->
<g id="edge6" class="edge"><title>Node4&#45;&gt;Node7</title>
<path fill="none" stroke="midnightblue" d="M277.191,-89.4118C292.757,-79.1146 310.556,-67.3399 326.181,-57.0035"/>
<polygon fill="midnightblue" stroke="midnightblue" points="275.211,-86.5256 268.802,-94.962 279.073,-92.3637 275.211,-86.5256"/>
</g>
<!-- Node8&#45;&gt;Node5 -->
<g id="edge8" class="edge"><title>Node8&#45;&gt;Node5</title>
<path fill="none" stroke="midnightblue" d="M719.002,-91.8095C687.532,-81.471 650.446,-69.2211 617,-58 610.297,-55.7511 603.291,-53.3843 596.32,-51.0185"/>
<polygon fill="midnightblue" stroke="midnightblue" points="717.986,-95.1594 728.579,-94.9533 720.169,-88.5087 717.986,-95.1594"/>
</g>
<!-- Node9 -->
<g id="node9" class="node"><title>Node9</title>
<g id="a_node9"><a xlink:href="filter__manager__impl_8cpp.xhtml" target="_top" xlink:title="/Users/rkwright/Documents\l/github/readium&#45;sdk&#45;D/ePub3\l/ePub/filter_manager_impl.cpp">
<polygon fill="white" stroke="black" points="626.185,-7 626.185,-51 777.815,-51 777.815,-7 626.185,-7"/>
<text text-anchor="start" x="634.185" y="-37" font-family="Helvetica,sans-Serif" font-size="10.00">/Users/rkwright/Documents</text>
<text text-anchor="start" x="634.185" y="-25" font-family="Helvetica,sans-Serif" font-size="10.00">/github/readium&#45;sdk&#45;D/ePub3</text>
<text text-anchor="middle" x="702" y="-13" font-family="Helvetica,sans-Serif" font-size="10.00">/ePub/filter_manager_impl.cpp</text>
</a>
</g>
</g>
<!-- Node8&#45;&gt;Node9 -->
<g id="edge9" class="edge"><title>Node8&#45;&gt;Node9</title>
<path fill="none" stroke="midnightblue" d="M762.919,-87.5715C750.295,-75.6415 735.876,-62.0145 724.236,-51.0139"/>
<polygon fill="midnightblue" stroke="midnightblue" points="760.834,-90.4167 770.506,-94.7416 765.642,-85.3292 760.834,-90.4167"/>
</g>
<!-- Node8&#45;&gt;Node10 -->
<g id="edge10" class="edge"><title>Node8&#45;&gt;Node10</title>
<path fill="none" stroke="midnightblue" d="M818.422,-87.2334C828.893,-75.3846 840.8,-61.9107 850.43,-51.0139"/>
<polygon fill="midnightblue" stroke="midnightblue" points="815.786,-84.9305 811.787,-94.7416 821.031,-89.566 815.786,-84.9305"/>
</g>
<!-- Node11&#45;&gt;Node5 -->
<g id="edge12" class="edge"><title>Node11&#45;&gt;Node5</title>
<path fill="none" stroke="midnightblue" d="M448.363,-89.1329C466.314,-76.8808 487.259,-62.5849 504.058,-51.1188"/>
<polygon fill="midnightblue" stroke="midnightblue" points="446.109,-86.4337 439.823,-94.962 450.056,-92.2154 446.109,-86.4337"/>
</g>
<!-- Node11&#45;&gt;Node6 -->
<g id="edge13" class="edge"><title>Node11&#45;&gt;Node6</title>
<path fill="none" stroke="midnightblue" d="M344.907,-91.2824C311.97,-78.5802 272.25,-63.2624 240.762,-51.1188"/>
<polygon fill="midnightblue" stroke="midnightblue" points="343.858,-94.6293 354.448,-94.962 346.377,-88.0982 343.858,-94.6293"/>
</g>
<!-- Node12&#45;&gt;Node5 -->
<g id="edge15" class="edge"><title>Node12&#45;&gt;Node5</title>
<path fill="none" stroke="midnightblue" d="M581.309,-86.8944C571.732,-75.1282 560.889,-61.807 552.104,-51.0139"/>
<polygon fill="midnightblue" stroke="midnightblue" points="578.669,-89.1954 587.697,-94.7416 584.098,-84.7765 578.669,-89.1954"/>
</g>
<!-- Node12&#45;&gt;Node7 -->
<g id="edge16" class="edge"><title>Node12&#45;&gt;Node7</title>
<path fill="none" stroke="midnightblue" d="M537.294,-91.5347C507.467,-80.7569 472.323,-68.0577 441.731,-57.0035"/>
<polygon fill="midnightblue" stroke="midnightblue" points="536.184,-94.8553 546.779,-94.962 538.563,-88.2719 536.184,-94.8553"/>
</g>
<!-- Node14 -->
<g id="node14" class="node"><title>Node14</title>
<g id="a_node14"><a xlink:href="e_pub_2library_8cpp.xhtml" target="_top" xlink:title="/Users/rkwright/Documents\l/github/readium&#45;sdk&#45;D/ePub3\l/ePub/library.cpp">
<polygon fill="white" stroke="black" points="959.966,-7 959.966,-51 1106.03,-51 1106.03,-7 959.966,-7"/>
<text text-anchor="start" x="967.966" y="-37" font-family="Helvetica,sans-Serif" font-size="10.00">/Users/rkwright/Documents</text>
<text text-anchor="start" x="967.966" y="-25" font-family="Helvetica,sans-Serif" font-size="10.00">/github/readium&#45;sdk&#45;D/ePub3</text>
<text text-anchor="middle" x="1033" y="-13" font-family="Helvetica,sans-Serif" font-size="10.00">/ePub/library.cpp</text>
</a>
</g>
</g>
<!-- Node13&#45;&gt;Node14 -->
<g id="edge18" class="edge"><title>Node13&#45;&gt;Node14</title>
<path fill="none" stroke="midnightblue" d="M1008.46,-85.5301C1013.51,-74.1073 1019.13,-61.3919 1023.71,-51.0139"/>
<polygon fill="midnightblue" stroke="midnightblue" points="1005.23,-84.1801 1004.39,-94.7416 1011.64,-87.0093 1005.23,-84.1801"/>
</g>
<!-- Node15 -->
<g id="node15" class="node"><title>Node15</title>
<g id="a_node15"><a xlink:href="utilities_2library_8cpp.xhtml" target="_top" xlink:title="/Users/rkwright/Documents\l/github/readium&#45;sdk&#45;D/ePub3\l/utilities/Library.cpp">
<polygon fill="white" stroke="black" points="1123.97,-7 1123.97,-51 1270.03,-51 1270.03,-7 1123.97,-7"/>
<text text-anchor="start" x="1131.97" y="-37" font-family="Helvetica,sans-Serif" font-size="10.00">/Users/rkwright/Documents</text>
<text text-anchor="start" x="1131.97" y="-25" font-family="Helvetica,sans-Serif" font-size="10.00">/github/readium&#45;sdk&#45;D/ePub3</text>
<text text-anchor="middle" x="1197" y="-13" font-family="Helvetica,sans-Serif" font-size="10.00">/utilities/Library.cpp</text>
</a>
</g>
</g>
<!-- Node13&#45;&gt;Node15 -->
<g id="edge19" class="edge"><title>Node13&#45;&gt;Node15</title>
<path fill="none" stroke="midnightblue" d="M1053.83,-90.9548C1083.51,-78.3175 1119.12,-63.1582 1147.4,-51.1188"/>
<polygon fill="midnightblue" stroke="midnightblue" points="1052.24,-87.8245 1044.41,-94.962 1054.99,-94.2651 1052.24,-87.8245"/>
</g>
<!-- Node17&#45;&gt;Node18 -->
<g id="edge23" class="edge"><title>Node17&#45;&gt;Node18</title>
<path fill="none" stroke="midnightblue" d="M1361,-84.4986C1361,-73.3464 1361,-61.0805 1361,-51.0139"/>
<polygon fill="midnightblue" stroke="midnightblue" points="1357.5,-84.7415 1361,-94.7416 1364.5,-84.7416 1357.5,-84.7415"/>
</g>
</g>
</svg>
