<?xml version="1.0" encoding="UTF-8" standalone="no"?>
<!DOCTYPE svg PUBLIC "-//W3C//DTD SVG 1.1//EN"
 "http://www.w3.org/Graphics/SVG/1.1/DTD/svg11.dtd">
<!-- Generated by graphviz version 2.30.0 (20130114.0426)
 -->
<!-- Title: /Users/rkwright/Documents/github/readium&#45;sdk&#45;D/ePub3/utilities/run_loop.h Pages: 1 -->
<svg width="2603pt" height="312pt"
 viewBox="0.00 0.00 2603.00 312.00" xmlns="http://www.w3.org/2000/svg" xmlns:xlink="http://www.w3.org/1999/xlink">
<g id="graph0" class="graph" transform="scale(1 1) rotate(0) translate(4 308)">
<title>/Users/rkwright/Documents/github/readium&#45;sdk&#45;D/ePub3/utilities/run_loop.h</title>
<polygon fill="white" stroke="white" points="-4,5 -4,-308 2600,-308 2600,5 -4,5"/>
<!-- Node1 -->
<g id="node1" class="node"><title>Node1</title>
<polygon fill="#bfbfbf" stroke="black" points="1396.97,-259 1396.97,-303 1543.03,-303 1543.03,-259 1396.97,-259"/>
<text text-anchor="start" x="1404.97" y="-289" font-family="Helvetica,sans-Serif" font-size="10.00">/Users/rkwright/Documents</text>
<text text-anchor="start" x="1404.97" y="-277" font-family="Helvetica,sans-Serif" font-size="10.00">/github/readium&#45;sdk&#45;D/ePub3</text>
<text text-anchor="middle" x="1470" y="-265" font-family="Helvetica,sans-Serif" font-size="10.00">/utilities/run_loop.h</text>
</g>
<!-- Node2 -->
<g id="node2" class="node"><title>Node2</title>
<g id="a_node2"><a xlink:href="filter__chain_8h.xhtml" target="_top" xlink:title="/Users/rkwright/Documents\l/github/readium&#45;sdk&#45;D/ePub3\l/ePub/filter_chain.h">
<polygon fill="white" stroke="black" points="328.966,-95 328.966,-139 475.034,-139 475.034,-95 328.966,-95"/>
<text text-anchor="start" x="336.966" y="-125" font-family="Helvetica,sans-Serif" font-size="10.00">/Users/rkwright/Documents</text>
<text text-anchor="start" x="336.966" y="-113" font-family="Helvetica,sans-Serif" font-size="10.00">/github/readium&#45;sdk&#45;D/ePub3</text>
<text text-anchor="middle" x="402" y="-101" font-family="Helvetica,sans-Serif" font-size="10.00">/ePub/filter_chain.h</text>
</a>
</g>
</g>
<!-- Node1&#45;&gt;Node2 -->
<g id="edge1" class="edge"><title>Node1&#45;&gt;Node2</title>
<path fill="none" stroke="midnightblue" d="M1386.67,-274.353C1273.39,-266.071 1064.65,-248.66 888,-222 706.835,-194.659 662.342,-181.981 484,-140 481.131,-139.325 478.209,-138.62 475.261,-137.896"/>
<polygon fill="midnightblue" stroke="midnightblue" points="1386.44,-277.845 1396.66,-275.078 1386.94,-270.863 1386.44,-277.845"/>
</g>
<!-- Node6 -->
<g id="node6" class="node"><title>Node6</title>
<g id="a_node6"><a xlink:href="filter__chain__byte__stream_8h.xhtml" target="_top" xlink:title="/Users/rkwright/Documents\l/github/readium&#45;sdk&#45;D/ePub3\l/ePub/filter_chain_byte_stream.h">
<polygon fill="white" stroke="black" points="1388.9,-95 1388.9,-139 1551.1,-139 1551.1,-95 1388.9,-95"/>
<text text-anchor="start" x="1396.9" y="-125" font-family="Helvetica,sans-Serif" font-size="10.00">/Users/rkwright/Documents</text>
<text text-anchor="start" x="1396.9" y="-113" font-family="Helvetica,sans-Serif" font-size="10.00">/github/readium&#45;sdk&#45;D/ePub3</text>
<text text-anchor="middle" x="1470" y="-101" font-family="Helvetica,sans-Serif" font-size="10.00">/ePub/filter_chain_byte_stream.h</text>
</a>
</g>
</g>
<!-- Node1&#45;&gt;Node6 -->
<g id="edge5" class="edge"><title>Node1&#45;&gt;Node6</title>
<path fill="none" stroke="midnightblue" d="M1470,-248.597C1470,-216.36 1470,-167.08 1470,-139.184"/>
<polygon fill="midnightblue" stroke="midnightblue" points="1466.5,-248.821 1470,-258.821 1473.5,-248.821 1466.5,-248.821"/>
</g>
<!-- Node8 -->
<g id="node8" class="node"><title>Node8</title>
<g id="a_node8"><a xlink:href="filter__chain__byte__stream__range_8h.xhtml" target="_top" xlink:title="/Users/rkwright/Documents\l/github/readium&#45;sdk&#45;D/ePub3\l/ePub/filter_chain_byte_stream_range.h">
<polygon fill="white" stroke="black" points="1733.33,-95 1733.33,-139 1926.67,-139 1926.67,-95 1733.33,-95"/>
<text text-anchor="start" x="1741.33" y="-125" font-family="Helvetica,sans-Serif" font-size="10.00">/Users/rkwright/Documents</text>
<text text-anchor="start" x="1741.33" y="-113" font-family="Helvetica,sans-Serif" font-size="10.00">/github/readium&#45;sdk&#45;D/ePub3</text>
<text text-anchor="middle" x="1830" y="-101" font-family="Helvetica,sans-Serif" font-size="10.00">/ePub/filter_chain_byte_stream_range.h</text>
</a>
</g>
</g>
<!-- Node1&#45;&gt;Node8 -->
<g id="edge8" class="edge"><title>Node1&#45;&gt;Node8</title>
<path fill="none" stroke="midnightblue" d="M1525.9,-254.843C1596.58,-223.038 1716.99,-168.855 1783.1,-139.104"/>
<polygon fill="midnightblue" stroke="midnightblue" points="1524.38,-251.692 1516.69,-258.987 1527.25,-258.075 1524.38,-251.692"/>
</g>
<!-- Node10 -->
<g id="node10" class="node"><title>Node10</title>
<g id="a_node10"><a xlink:href="byte__stream_8h.xhtml" target="_top" xlink:title="/Users/rkwright/Documents\l/github/readium&#45;sdk&#45;D/ePub3\l/utilities/byte_stream.h">
<polygon fill="white" stroke="black" points="896.966,-177 896.966,-221 1043.03,-221 1043.03,-177 896.966,-177"/>
<text text-anchor="start" x="904.966" y="-207" font-family="Helvetica,sans-Serif" font-size="10.00">/Users/rkwright/Documents</text>
<text text-anchor="start" x="904.966" y="-195" font-family="Helvetica,sans-Serif" font-size="10.00">/github/readium&#45;sdk&#45;D/ePub3</text>
<text text-anchor="middle" x="970" y="-183" font-family="Helvetica,sans-Serif" font-size="10.00">/utilities/byte_stream.h</text>
</a>
</g>
</g>
<!-- Node1&#45;&gt;Node10 -->
<g id="edge11" class="edge"><title>Node1&#45;&gt;Node10</title>
<path fill="none" stroke="midnightblue" d="M1386.82,-266.691C1290.97,-251.355 1134.96,-226.393 1043.44,-211.75"/>
<polygon fill="midnightblue" stroke="midnightblue" points="1386.33,-270.158 1396.76,-268.282 1387.44,-263.246 1386.33,-270.158"/>
</g>
<!-- Node21 -->
<g id="node21" class="node"><title>Node21</title>
<g id="a_node21"><a xlink:href="run__loop__common_8ipp.xhtml" target="_top" xlink:title="/Users/rkwright/Documents\l/github/readium&#45;sdk&#45;D/ePub3\l/utilities/run_loop_common.ipp">
<polygon fill="white" stroke="black" points="2108.46,-177 2108.46,-221 2259.54,-221 2259.54,-177 2108.46,-177"/>
<text text-anchor="start" x="2116.46" y="-207" font-family="Helvetica,sans-Serif" font-size="10.00">/Users/rkwright/Documents</text>
<text text-anchor="start" x="2116.46" y="-195" font-family="Helvetica,sans-Serif" font-size="10.00">/github/readium&#45;sdk&#45;D/ePub3</text>
<text text-anchor="middle" x="2184" y="-183" font-family="Helvetica,sans-Serif" font-size="10.00">/utilities/run_loop_common.ipp</text>
</a>
</g>
</g>
<!-- Node1&#45;&gt;Node21 -->
<g id="edge30" class="edge"><title>Node1&#45;&gt;Node21</title>
<path fill="none" stroke="midnightblue" d="M1553.3,-270.667C1693.3,-254.98 1973.68,-223.566 2108.36,-208.475"/>
<polygon fill="midnightblue" stroke="midnightblue" points="1552.6,-267.223 1543.06,-271.815 1553.38,-274.179 1552.6,-267.223"/>
</g>
<!-- Node3 -->
<g id="node3" class="node"><title>Node3</title>
<g id="a_node3"><a xlink:href="filter__chain_8cpp.xhtml" target="_top" xlink:title="/Users/rkwright/Documents\l/github/readium&#45;sdk&#45;D/ePub3\l/ePub/filter_chain.cpp">
<polygon fill="white" stroke="black" points="1393.97,-7 1393.97,-51 1540.03,-51 1540.03,-7 1393.97,-7"/>
<text text-anchor="start" x="1401.97" y="-37" font-family="Helvetica,sans-Serif" font-size="10.00">/Users/rkwright/Documents</text>
<text text-anchor="start" x="1401.97" y="-25" font-family="Helvetica,sans-Serif" font-size="10.00">/github/readium&#45;sdk&#45;D/ePub3</text>
<text text-anchor="middle" x="1467" y="-13" font-family="Helvetica,sans-Serif" font-size="10.00">/ePub/filter_chain.cpp</text>
</a>
</g>
</g>
<!-- Node2&#45;&gt;Node3 -->
<g id="edge2" class="edge"><title>Node2&#45;&gt;Node3</title>
<path fill="none" stroke="midnightblue" d="M485.189,-94.0025C677.967,-64.2466 1200.26,-40.834 1393.73,-32.8952"/>
<polygon fill="midnightblue" stroke="midnightblue" points="484.483,-90.5707 475.161,-95.6057 485.588,-97.483 484.483,-90.5707"/>
</g>
<!-- Node4 -->
<g id="node4" class="node"><title>Node4</title>
<g id="a_node4"><a xlink:href="filter__manager__impl_8cpp.xhtml" target="_top" xlink:title="/Users/rkwright/Documents\l/github/readium&#45;sdk&#45;D/ePub3\l/ePub/filter_manager_impl.cpp">
<polygon fill="white" stroke="black" points="328.185,-7 328.185,-51 479.815,-51 479.815,-7 328.185,-7"/>
<text text-anchor="start" x="336.185" y="-37" font-family="Helvetica,sans-Serif" font-size="10.00">/Users/rkwright/Documents</text>
<text text-anchor="start" x="336.185" y="-25" font-family="Helvetica,sans-Serif" font-size="10.00">/github/readium&#45;sdk&#45;D/ePub3</text>
<text text-anchor="middle" x="404" y="-13" font-family="Helvetica,sans-Serif" font-size="10.00">/ePub/filter_manager_impl.cpp</text>
</a>
</g>
</g>
<!-- Node2&#45;&gt;Node4 -->
<g id="edge3" class="edge"><title>Node2&#45;&gt;Node4</title>
<path fill="none" stroke="midnightblue" d="M402.733,-84.4986C402.992,-73.3464 403.277,-61.0805 403.511,-51.0139"/>
<polygon fill="midnightblue" stroke="midnightblue" points="399.228,-84.6629 402.494,-94.7416 406.226,-84.8257 399.228,-84.6629"/>
</g>
<!-- Node5 -->
<g id="node5" class="node"><title>Node5</title>
<g id="a_node5"><a xlink:href="package_8cpp.xhtml" target="_top" xlink:title="/Users/rkwright/Documents\l/github/readium&#45;sdk&#45;D/ePub3\l/ePub/package.cpp">
<polygon fill="white" stroke="black" points="529.966,-7 529.966,-51 676.034,-51 676.034,-7 529.966,-7"/>
<text text-anchor="start" x="537.966" y="-37" font-family="Helvetica,sans-Serif" font-size="10.00">/Users/rkwright/Documents</text>
<text text-anchor="start" x="537.966" y="-25" font-family="Helvetica,sans-Serif" font-size="10.00">/github/readium&#45;sdk&#45;D/ePub3</text>
<text text-anchor="middle" x="603" y="-13" font-family="Helvetica,sans-Serif" font-size="10.00">/ePub/package.cpp</text>
</a>
</g>
</g>
<!-- Node2&#45;&gt;Node5 -->
<g id="edge4" class="edge"><title>Node2&#45;&gt;Node5</title>
<path fill="none" stroke="midnightblue" d="M460.536,-90.9548C490.072,-78.3175 525.502,-63.1582 553.641,-51.1188"/>
<polygon fill="midnightblue" stroke="midnightblue" points="458.987,-87.8105 451.17,-94.962 461.741,-94.2461 458.987,-87.8105"/>
</g>
<!-- Node6&#45;&gt;Node3 -->
<g id="edge6" class="edge"><title>Node6&#45;&gt;Node3</title>
<path fill="none" stroke="midnightblue" d="M1468.9,-84.4986C1468.51,-73.3464 1468.08,-61.0805 1467.73,-51.0139"/>
<polygon fill="midnightblue" stroke="midnightblue" points="1465.41,-84.8697 1469.26,-94.7416 1472.41,-84.6256 1465.41,-84.8697"/>
</g>
<!-- Node7 -->
<g id="node7" class="node"><title>Node7</title>
<g id="a_node7"><a xlink:href="filter__chain__byte__stream_8cpp.xhtml" target="_top" xlink:title="/Users/rkwright/Documents\l/github/readium&#45;sdk&#45;D/ePub3\l/ePub/filter_chain_byte_stream.cpp">
<polygon fill="white" stroke="black" points="1557.62,-7 1557.62,-51 1730.38,-51 1730.38,-7 1557.62,-7"/>
<text text-anchor="start" x="1565.62" y="-37" font-family="Helvetica,sans-Serif" font-size="10.00">/Users/rkwright/Documents</text>
<text text-anchor="start" x="1565.62" y="-25" font-family="Helvetica,sans-Serif" font-size="10.00">/github/readium&#45;sdk&#45;D/ePub3</text>
<text text-anchor="middle" x="1644" y="-13" font-family="Helvetica,sans-Serif" font-size="10.00">/ePub/filter_chain_byte_stream.cpp</text>
</a>
</g>
</g>
<!-- Node6&#45;&gt;Node7 -->
<g id="edge7" class="edge"><title>Node6&#45;&gt;Node7</title>
<path fill="none" stroke="midnightblue" d="M1521.67,-90.4611C1547.04,-77.9242 1577.23,-63.0019 1601.27,-51.1188"/>
<polygon fill="midnightblue" stroke="midnightblue" points="1519.98,-87.3934 1512.57,-94.962 1523.08,-93.6688 1519.98,-87.3934"/>
</g>
<!-- Node8&#45;&gt;Node3 -->
<g id="edge9" class="edge"><title>Node8&#45;&gt;Node3</title>
<path fill="none" stroke="midnightblue" d="M1723.34,-93.8875C1644.54,-77.9718 1622.62,-78.0561 1549,-58 1541.45,-55.9439 1533.59,-53.5679 1525.85,-51.0866"/>
<polygon fill="midnightblue" stroke="midnightblue" points="1722.74,-97.3373 1733.24,-95.9102 1724.14,-90.479 1722.74,-97.3373"/>
</g>
<!-- Node9 -->
<g id="node9" class="node"><title>Node9</title>
<g id="a_node9"><a xlink:href="filter__chain__byte__stream__range_8cpp.xhtml" target="_top" xlink:title="/Users/rkwright/Documents\l/github/readium&#45;sdk&#45;D/ePub3\l/ePub/filter_chain_byte_stream\l_range.cpp">
<polygon fill="white" stroke="black" points="1751.07,-1 1751.07,-57 1904.93,-57 1904.93,-1 1751.07,-1"/>
<text text-anchor="start" x="1759.07" y="-43" font-family="Helvetica,sans-Serif" font-size="10.00">/Users/rkwright/Documents</text>
<text text-anchor="start" x="1759.07" y="-31" font-family="Helvetica,sans-Serif" font-size="10.00">/github/readium&#45;sdk&#45;D/ePub3</text>
<text text-anchor="start" x="1759.07" y="-19" font-family="Helvetica,sans-Serif" font-size="10.00">/ePub/filter_chain_byte_stream</text>
<text text-anchor="middle" x="1828" y="-7" font-family="Helvetica,sans-Serif" font-size="10.00">_range.cpp</text>
</a>
</g>
</g>
<!-- Node8&#45;&gt;Node9 -->
<g id="edge10" class="edge"><title>Node8&#45;&gt;Node9</title>
<path fill="none" stroke="midnightblue" d="M1829.27,-84.6273C1829.06,-75.6356 1828.84,-65.9105 1828.63,-57.1925"/>
<polygon fill="midnightblue" stroke="midnightblue" points="1825.77,-84.8257 1829.51,-94.7416 1832.77,-84.6629 1825.77,-84.8257"/>
</g>
<!-- Node11 -->
<g id="node11" class="node"><title>Node11</title>
<g id="a_node11"><a xlink:href="container_8cpp.xhtml" target="_top" xlink:title="/Users/rkwright/Documents\l/github/readium&#45;sdk&#45;D/ePub3\l/ePub/container.cpp">
<polygon fill="white" stroke="black" points="1224.97,-95 1224.97,-139 1371.03,-139 1371.03,-95 1224.97,-95"/>
<text text-anchor="start" x="1232.97" y="-125" font-family="Helvetica,sans-Serif" font-size="10.00">/Users/rkwright/Documents</text>
<text text-anchor="start" x="1232.97" y="-113" font-family="Helvetica,sans-Serif" font-size="10.00">/github/readium&#45;sdk&#45;D/ePub3</text>
<text text-anchor="middle" x="1298" y="-101" font-family="Helvetica,sans-Serif" font-size="10.00">/ePub/container.cpp</text>
</a>
</g>
</g>
<!-- Node10&#45;&gt;Node11 -->
<g id="edge12" class="edge"><title>Node10&#45;&gt;Node11</title>
<path fill="none" stroke="midnightblue" d="M1053.05,-179.085C1100.8,-168.042 1161.88,-153.638 1216,-140 1218.86,-139.28 1221.77,-138.538 1224.71,-137.782"/>
<polygon fill="midnightblue" stroke="midnightblue" points="1052.03,-175.729 1043.07,-181.389 1053.6,-182.55 1052.03,-175.729"/>
</g>
<!-- Node12 -->
<g id="node12" class="node"><title>Node12</title>
<g id="a_node12"><a xlink:href="filter_8h.xhtml" target="_top" xlink:title="/Users/rkwright/Documents\l/github/readium&#45;sdk&#45;D/ePub3\l/ePub/filter.h">
<polygon fill="white" stroke="black" points="1568.97,-95 1568.97,-139 1715.03,-139 1715.03,-95 1568.97,-95"/>
<text text-anchor="start" x="1576.97" y="-125" font-family="Helvetica,sans-Serif" font-size="10.00">/Users/rkwright/Documents</text>
<text text-anchor="start" x="1576.97" y="-113" font-family="Helvetica,sans-Serif" font-size="10.00">/github/readium&#45;sdk&#45;D/ePub3</text>
<text text-anchor="middle" x="1642" y="-101" font-family="Helvetica,sans-Serif" font-size="10.00">/ePub/filter.h</text>
</a>
</g>
</g>
<!-- Node10&#45;&gt;Node12 -->
<g id="edge13" class="edge"><title>Node10&#45;&gt;Node12</title>
<path fill="none" stroke="midnightblue" d="M1053.32,-194.124C1168.14,-187.805 1381.11,-172.564 1560,-140 1562.9,-139.472 1565.85,-138.892 1568.82,-138.272"/>
<polygon fill="midnightblue" stroke="midnightblue" points="1052.99,-190.636 1043.2,-194.672 1053.37,-197.626 1052.99,-190.636"/>
</g>
<!-- Node10&#45;&gt;Node2 -->
<g id="edge17" class="edge"><title>Node10&#45;&gt;Node2</title>
<path fill="none" stroke="midnightblue" d="M886.561,-191.703C789.301,-183.52 624.017,-166.993 484,-140 481.105,-139.442 478.163,-138.837 475.197,-138.195"/>
<polygon fill="midnightblue" stroke="midnightblue" points="886.372,-195.2 896.628,-192.541 886.952,-188.224 886.372,-195.2"/>
</g>
<!-- Node10&#45;&gt;Node6 -->
<g id="edge18" class="edge"><title>Node10&#45;&gt;Node6</title>
<path fill="none" stroke="midnightblue" d="M1053.46,-188.655C1136.59,-178.769 1267.68,-161.618 1380,-140 1382.84,-139.453 1385.73,-138.874 1388.64,-138.27"/>
<polygon fill="midnightblue" stroke="midnightblue" points="1052.83,-185.204 1043.31,-189.854 1053.66,-192.156 1052.83,-185.204"/>
</g>
<!-- Node10&#45;&gt;Node8 -->
<g id="edge19" class="edge"><title>Node10&#45;&gt;Node8</title>
<path fill="none" stroke="midnightblue" d="M1053.3,-195.075C1192.7,-189.401 1481.78,-174.309 1724,-140 1727.07,-139.565 1730.19,-139.095 1733.33,-138.596"/>
<polygon fill="midnightblue" stroke="midnightblue" points="1052.98,-191.585 1043.12,-195.483 1053.26,-198.579 1052.98,-191.585"/>
</g>
<!-- Node13 -->
<g id="node13" class="node"><title>Node13</title>
<g id="a_node13"><a xlink:href="library_8h.xhtml" target="_top" xlink:title="/Users/rkwright/Documents\l/github/readium&#45;sdk&#45;D/ePub3\l/ePub/library.h">
<polygon fill="white" stroke="black" points="163.966,-95 163.966,-139 310.034,-139 310.034,-95 163.966,-95"/>
<text text-anchor="start" x="171.966" y="-125" font-family="Helvetica,sans-Serif" font-size="10.00">/Users/rkwright/Documents</text>
<text text-anchor="start" x="171.966" y="-113" font-family="Helvetica,sans-Serif" font-size="10.00">/github/readium&#45;sdk&#45;D/ePub3</text>
<text text-anchor="middle" x="237" y="-101" font-family="Helvetica,sans-Serif" font-size="10.00">/ePub/library.h</text>
</a>
</g>
</g>
<!-- Node10&#45;&gt;Node13 -->
<g id="edge20" class="edge"><title>Node10&#45;&gt;Node13</title>
<path fill="none" stroke="midnightblue" d="M886.647,-195.097C762.393,-189.749 521.6,-175.447 320,-140 316.77,-139.432 313.482,-138.799 310.17,-138.117"/>
<polygon fill="midnightblue" stroke="midnightblue" points="886.707,-198.603 896.846,-195.527 887.002,-191.609 886.707,-198.603"/>
</g>
<!-- Node16 -->
<g id="node16" class="node"><title>Node16</title>
<g id="a_node16"><a xlink:href="manifest_8cpp.xhtml" target="_top" xlink:title="/Users/rkwright/Documents\l/github/readium&#45;sdk&#45;D/ePub3\l/ePub/manifest.cpp">
<polygon fill="white" stroke="black" points="492.966,-95 492.966,-139 639.034,-139 639.034,-95 492.966,-95"/>
<text text-anchor="start" x="500.966" y="-125" font-family="Helvetica,sans-Serif" font-size="10.00">/Users/rkwright/Documents</text>
<text text-anchor="start" x="500.966" y="-113" font-family="Helvetica,sans-Serif" font-size="10.00">/github/readium&#45;sdk&#45;D/ePub3</text>
<text text-anchor="middle" x="566" y="-101" font-family="Helvetica,sans-Serif" font-size="10.00">/ePub/manifest.cpp</text>
</a>
</g>
</g>
<!-- Node10&#45;&gt;Node16 -->
<g id="edge23" class="edge"><title>Node10&#45;&gt;Node16</title>
<path fill="none" stroke="midnightblue" d="M886.643,-184.312C822.536,-173.408 731.876,-157.169 653,-140 648.585,-139.039 644.054,-138.014 639.49,-136.95"/>
<polygon fill="midnightblue" stroke="midnightblue" points="886.254,-187.796 896.698,-186.016 887.423,-180.895 886.254,-187.796"/>
</g>
<!-- Node10&#45;&gt;Node5 -->
<g id="edge24" class="edge"><title>Node10&#45;&gt;Node5</title>
<path fill="none" stroke="midnightblue" d="M886.599,-196.383C826.704,-191.724 746.246,-178.017 686,-140 676.82,-134.207 638.936,-81.3358 617.664,-51.0537"/>
<polygon fill="midnightblue" stroke="midnightblue" points="886.557,-199.888 896.779,-197.103 887.052,-192.906 886.557,-199.888"/>
</g>
<!-- Node17 -->
<g id="node17" class="node"><title>Node17</title>
<g id="a_node17"><a xlink:href="_pass_through_filter_8h.xhtml" target="_top" xlink:title="/Users/rkwright/Documents\l/github/readium&#45;sdk&#45;D/ePub3\l/ePub/PassThroughFilter.h">
<polygon fill="white" stroke="black" points="694.966,-95 694.966,-139 841.034,-139 841.034,-95 694.966,-95"/>
<text text-anchor="start" x="702.966" y="-125" font-family="Helvetica,sans-Serif" font-size="10.00">/Users/rkwright/Documents</text>
<text text-anchor="start" x="702.966" y="-113" font-family="Helvetica,sans-Serif" font-size="10.00">/github/readium&#45;sdk&#45;D/ePub3</text>
<text text-anchor="middle" x="768" y="-101" font-family="Helvetica,sans-Serif" font-size="10.00">/ePub/PassThroughFilter.h</text>
</a>
</g>
</g>
<!-- Node10&#45;&gt;Node17 -->
<g id="edge25" class="edge"><title>Node10&#45;&gt;Node17</title>
<path fill="none" stroke="midnightblue" d="M907.348,-173.187C879.689,-162.233 847.523,-149.494 821.069,-139.017"/>
<polygon fill="midnightblue" stroke="midnightblue" points="906.341,-176.553 916.927,-176.981 908.918,-170.045 906.341,-176.553"/>
</g>
<!-- Node18 -->
<g id="node18" class="node"><title>Node18</title>
<g id="a_node18"><a xlink:href="_pass_through_filter_8cpp.xhtml" target="_top" xlink:title="/Users/rkwright/Documents\l/github/readium&#45;sdk&#45;D/ePub3\l/ePub/PassThroughFilter.cpp">
<polygon fill="white" stroke="black" points="725.966,-7 725.966,-51 872.034,-51 872.034,-7 725.966,-7"/>
<text text-anchor="start" x="733.966" y="-37" font-family="Helvetica,sans-Serif" font-size="10.00">/Users/rkwright/Documents</text>
<text text-anchor="start" x="733.966" y="-25" font-family="Helvetica,sans-Serif" font-size="10.00">/github/readium&#45;sdk&#45;D/ePub3</text>
<text text-anchor="middle" x="799" y="-13" font-family="Helvetica,sans-Serif" font-size="10.00">/ePub/PassThroughFilter.cpp</text>
</a>
</g>
</g>
<!-- Node10&#45;&gt;Node18 -->
<g id="edge27" class="edge"><title>Node10&#45;&gt;Node18</title>
<path fill="none" stroke="midnightblue" d="M927.21,-171.042C914.044,-161.896 899.897,-151.152 888,-140 883.911,-136.168 840.421,-81.8959 815.785,-51.048"/>
<polygon fill="midnightblue" stroke="midnightblue" points="925.451,-174.078 935.687,-176.81 929.388,-168.29 925.451,-174.078"/>
</g>
<!-- Node19 -->
<g id="node19" class="node"><title>Node19</title>
<g id="a_node19"><a xlink:href="zip__archive_8cpp.xhtml" target="_top" xlink:title="/Users/rkwright/Documents\l/github/readium&#45;sdk&#45;D/ePub3\l/ePub/zip_archive.cpp">
<polygon fill="white" stroke="black" points="896.966,-95 896.966,-139 1043.03,-139 1043.03,-95 896.966,-95"/>
<text text-anchor="start" x="904.966" y="-125" font-family="Helvetica,sans-Serif" font-size="10.00">/Users/rkwright/Documents</text>
<text text-anchor="start" x="904.966" y="-113" font-family="Helvetica,sans-Serif" font-size="10.00">/github/readium&#45;sdk&#45;D/ePub3</text>
<text text-anchor="middle" x="970" y="-101" font-family="Helvetica,sans-Serif" font-size="10.00">/ePub/zip_archive.cpp</text>
</a>
</g>
</g>
<!-- Node10&#45;&gt;Node19 -->
<g id="edge28" class="edge"><title>Node10&#45;&gt;Node19</title>
<path fill="none" stroke="midnightblue" d="M970,-166.896C970,-157.609 970,-147.649 970,-139.156"/>
<polygon fill="midnightblue" stroke="midnightblue" points="966.5,-166.981 970,-176.981 973.5,-166.981 966.5,-166.981"/>
</g>
<!-- Node20 -->
<g id="node20" class="node"><title>Node20</title>
<g id="a_node20"><a xlink:href="byte__stream_8cpp.xhtml" target="_top" xlink:title="/Users/rkwright/Documents\l/github/readium&#45;sdk&#45;D/ePub3\l/utilities/byte_stream.cpp">
<polygon fill="white" stroke="black" points="1060.97,-95 1060.97,-139 1207.03,-139 1207.03,-95 1060.97,-95"/>
<text text-anchor="start" x="1068.97" y="-125" font-family="Helvetica,sans-Serif" font-size="10.00">/Users/rkwright/Documents</text>
<text text-anchor="start" x="1068.97" y="-113" font-family="Helvetica,sans-Serif" font-size="10.00">/github/readium&#45;sdk&#45;D/ePub3</text>
<text text-anchor="middle" x="1134" y="-101" font-family="Helvetica,sans-Serif" font-size="10.00">/utilities/byte_stream.cpp</text>
</a>
</g>
</g>
<!-- Node10&#45;&gt;Node20 -->
<g id="edge29" class="edge"><title>Node10&#45;&gt;Node20</title>
<path fill="none" stroke="midnightblue" d="M1022.34,-172.467C1044.46,-161.678 1069.91,-149.266 1090.91,-139.017"/>
<polygon fill="midnightblue" stroke="midnightblue" points="1020.54,-169.451 1013.09,-176.981 1023.61,-175.742 1020.54,-169.451"/>
</g>
<!-- Node12&#45;&gt;Node3 -->
<g id="edge14" class="edge"><title>Node12&#45;&gt;Node3</title>
<path fill="none" stroke="midnightblue" d="M1590.03,-90.4611C1564.52,-77.9242 1534.15,-63.0019 1509.97,-51.1188"/>
<polygon fill="midnightblue" stroke="midnightblue" points="1588.67,-93.6927 1599.19,-94.962 1591.76,-87.4103 1588.67,-93.6927"/>
</g>
<!-- Node12&#45;&gt;Node7 -->
<g id="edge15" class="edge"><title>Node12&#45;&gt;Node7</title>
<path fill="none" stroke="midnightblue" d="M1642.73,-84.4986C1642.99,-73.3464 1643.28,-61.0805 1643.51,-51.0139"/>
<polygon fill="midnightblue" stroke="midnightblue" points="1639.23,-84.6629 1642.49,-94.7416 1646.23,-84.8257 1639.23,-84.6629"/>
</g>
<!-- Node12&#45;&gt;Node9 -->
<g id="edge16" class="edge"><title>Node12&#45;&gt;Node9</title>
<path fill="none" stroke="midnightblue" d="M1696.74,-90.6911C1719.65,-80.0983 1746.31,-67.7706 1769.6,-57.0035"/>
<polygon fill="midnightblue" stroke="midnightblue" points="1695.11,-87.5883 1687.5,-94.962 1698.05,-93.9421 1695.11,-87.5883"/>
</g>
<!-- Node14 -->
<g id="node14" class="node"><title>Node14</title>
<g id="a_node14"><a xlink:href="e_pub_2library_8cpp.xhtml" target="_top" xlink:title="/Users/rkwright/Documents\l/github/readium&#45;sdk&#45;D/ePub3\l/ePub/library.cpp">
<polygon fill="white" stroke="black" points="-0.0341797,-7 -0.0341797,-51 146.034,-51 146.034,-7 -0.0341797,-7"/>
<text text-anchor="start" x="7.96582" y="-37" font-family="Helvetica,sans-Serif" font-size="10.00">/Users/rkwright/Documents</text>
<text text-anchor="start" x="7.96582" y="-25" font-family="Helvetica,sans-Serif" font-size="10.00">/github/readium&#45;sdk&#45;D/ePub3</text>
<text text-anchor="middle" x="73" y="-13" font-family="Helvetica,sans-Serif" font-size="10.00">/ePub/library.cpp</text>
</a>
</g>
</g>
<!-- Node13&#45;&gt;Node14 -->
<g id="edge21" class="edge"><title>Node13&#45;&gt;Node14</title>
<path fill="none" stroke="midnightblue" d="M187.983,-90.2961C164.141,-77.7934 135.834,-62.9497 113.273,-51.1188"/>
<polygon fill="midnightblue" stroke="midnightblue" points="186.399,-93.4175 196.881,-94.962 189.65,-87.2182 186.399,-93.4175"/>
</g>
<!-- Node15 -->
<g id="node15" class="node"><title>Node15</title>
<g id="a_node15"><a xlink:href="utilities_2library_8cpp.xhtml" target="_top" xlink:title="/Users/rkwright/Documents\l/github/readium&#45;sdk&#45;D/ePub3\l/utilities/Library.cpp">
<polygon fill="white" stroke="black" points="163.966,-7 163.966,-51 310.034,-51 310.034,-7 163.966,-7"/>
<text text-anchor="start" x="171.966" y="-37" font-family="Helvetica,sans-Serif" font-size="10.00">/Users/rkwright/Documents</text>
<text text-anchor="start" x="171.966" y="-25" font-family="Helvetica,sans-Serif" font-size="10.00">/github/readium&#45;sdk&#45;D/ePub3</text>
<text text-anchor="middle" x="237" y="-13" font-family="Helvetica,sans-Serif" font-size="10.00">/utilities/Library.cpp</text>
</a>
</g>
</g>
<!-- Node13&#45;&gt;Node15 -->
<g id="edge22" class="edge"><title>Node13&#45;&gt;Node15</title>
<path fill="none" stroke="midnightblue" d="M237,-84.4986C237,-73.3464 237,-61.0805 237,-51.0139"/>
<polygon fill="midnightblue" stroke="midnightblue" points="233.5,-84.7415 237,-94.7416 240.5,-84.7416 233.5,-84.7415"/>
</g>
<!-- Node17&#45;&gt;Node18 -->
<g id="edge26" class="edge"><title>Node17&#45;&gt;Node18</title>
<path fill="none" stroke="midnightblue" d="M779.107,-85.187C783.192,-73.8532 787.722,-61.2881 791.425,-51.0139"/>
<polygon fill="midnightblue" stroke="midnightblue" points="775.761,-84.1472 775.663,-94.7416 782.347,-86.521 775.761,-84.1472"/>
</g>
<!-- Node22 -->
<g id="node22" class="node"><title>Node22</title>
<g id="a_node22"><a xlink:href="run__loop__android_8cpp.xhtml" target="_top" xlink:title="/Users/rkwright/Documents\l/github/readium&#45;sdk&#45;D/ePub3\l/utilities/run_loop_android.cpp">
<polygon fill="white" stroke="black" points="1944.57,-95 1944.57,-139 2093.43,-139 2093.43,-95 1944.57,-95"/>
<text text-anchor="start" x="1952.57" y="-125" font-family="Helvetica,sans-Serif" font-size="10.00">/Users/rkwright/Documents</text>
<text text-anchor="start" x="1952.57" y="-113" font-family="Helvetica,sans-Serif" font-size="10.00">/github/readium&#45;sdk&#45;D/ePub3</text>
<text text-anchor="middle" x="2019" y="-101" font-family="Helvetica,sans-Serif" font-size="10.00">/utilities/run_loop_android.cpp</text>
</a>
</g>
</g>
<!-- Node21&#45;&gt;Node22 -->
<g id="edge31" class="edge"><title>Node21&#45;&gt;Node22</title>
<path fill="none" stroke="midnightblue" d="M2131.64,-172.612C2109.31,-161.789 2083.58,-149.311 2062.35,-139.017"/>
<polygon fill="midnightblue" stroke="midnightblue" points="2130.12,-175.768 2140.65,-176.981 2133.18,-169.469 2130.12,-175.768"/>
</g>
<!-- Node23 -->
<g id="node23" class="node"><title>Node23</title>
<g id="a_node23"><a xlink:href="run__loop__cf_8cpp.xhtml" target="_top" xlink:title="/Users/rkwright/Documents\l/github/readium&#45;sdk&#45;D/ePub3\l/utilities/run_loop_cf.cpp">
<polygon fill="white" stroke="black" points="2110.97,-95 2110.97,-139 2257.03,-139 2257.03,-95 2110.97,-95"/>
<text text-anchor="start" x="2118.97" y="-125" font-family="Helvetica,sans-Serif" font-size="10.00">/Users/rkwright/Documents</text>
<text text-anchor="start" x="2118.97" y="-113" font-family="Helvetica,sans-Serif" font-size="10.00">/github/readium&#45;sdk&#45;D/ePub3</text>
<text text-anchor="middle" x="2184" y="-101" font-family="Helvetica,sans-Serif" font-size="10.00">/utilities/run_loop_cf.cpp</text>
</a>
</g>
</g>
<!-- Node21&#45;&gt;Node23 -->
<g id="edge32" class="edge"><title>Node21&#45;&gt;Node23</title>
<path fill="none" stroke="midnightblue" d="M2184,-166.896C2184,-157.609 2184,-147.649 2184,-139.156"/>
<polygon fill="midnightblue" stroke="midnightblue" points="2180.5,-166.981 2184,-176.981 2187.5,-166.981 2180.5,-166.981"/>
</g>
<!-- Node24 -->
<g id="node24" class="node"><title>Node24</title>
<g id="a_node24"><a xlink:href="run__loop__generic_8cpp.xhtml" target="_top" xlink:title="/Users/rkwright/Documents\l/github/readium&#45;sdk&#45;D/ePub3\l/utilities/run_loop_generic.cpp">
<polygon fill="white" stroke="black" points="2274.85,-95 2274.85,-139 2423.15,-139 2423.15,-95 2274.85,-95"/>
<text text-anchor="start" x="2282.85" y="-125" font-family="Helvetica,sans-Serif" font-size="10.00">/Users/rkwright/Documents</text>
<text text-anchor="start" x="2282.85" y="-113" font-family="Helvetica,sans-Serif" font-size="10.00">/github/readium&#45;sdk&#45;D/ePub3</text>
<text text-anchor="middle" x="2349" y="-101" font-family="Helvetica,sans-Serif" font-size="10.00">/utilities/run_loop_generic.cpp</text>
</a>
</g>
</g>
<!-- Node21&#45;&gt;Node24 -->
<g id="edge33" class="edge"><title>Node21&#45;&gt;Node24</title>
<path fill="none" stroke="midnightblue" d="M2236.36,-172.612C2258.69,-161.789 2284.42,-149.311 2305.65,-139.017"/>
<polygon fill="midnightblue" stroke="midnightblue" points="2234.82,-169.469 2227.35,-176.981 2237.88,-175.768 2234.82,-169.469"/>
</g>
<!-- Node25 -->
<g id="node25" class="node"><title>Node25</title>
<g id="a_node25"><a xlink:href="run__loop__windows_8cpp.xhtml" target="_top" xlink:title="/Users/rkwright/Documents\l/github/readium&#45;sdk&#45;D/ePub3\l/utilities/run_loop_windows.cpp">
<polygon fill="white" stroke="black" points="2441.07,-95 2441.07,-139 2594.93,-139 2594.93,-95 2441.07,-95"/>
<text text-anchor="start" x="2449.07" y="-125" font-family="Helvetica,sans-Serif" font-size="10.00">/Users/rkwright/Documents</text>
<text text-anchor="start" x="2449.07" y="-113" font-family="Helvetica,sans-Serif" font-size="10.00">/github/readium&#45;sdk&#45;D/ePub3</text>
<text text-anchor="middle" x="2518" y="-101" font-family="Helvetica,sans-Serif" font-size="10.00">/utilities/run_loop_windows.cpp</text>
</a>
</g>
</g>
<!-- Node21&#45;&gt;Node25 -->
<g id="edge34" class="edge"><title>Node21&#45;&gt;Node25</title>
<path fill="none" stroke="midnightblue" d="M2269.8,-178.394C2317.6,-167.355 2378.17,-153.178 2432,-140 2434.84,-139.304 2437.74,-138.59 2440.66,-137.864"/>
<polygon fill="midnightblue" stroke="midnightblue" points="2268.76,-175.043 2259.8,-180.701 2270.33,-181.863 2268.76,-175.043"/>
</g>
</g>
</svg>
