<?xml version="1.0" encoding="UTF-8" standalone="no"?>
<!DOCTYPE svg PUBLIC "-//W3C//DTD SVG 1.1//EN"
 "http://www.w3.org/Graphics/SVG/1.1/DTD/svg11.dtd">
<!-- Generated by graphviz version 2.30.0 (20130114.0426)
 -->
<!-- Title: /Users/rkwright/Documents/github/readium&#45;sdk&#45;D/ePub3/utilities/run_loop.h Pages: 1 -->
<svg width="1453pt" height="472pt"
 viewBox="0.00 0.00 1452.94 472.00" xmlns="http://www.w3.org/2000/svg" xmlns:xlink="http://www.w3.org/1999/xlink">
<g id="graph0" class="graph" transform="scale(1 1) rotate(0) translate(4 468)">
<title>/Users/rkwright/Documents/github/readium&#45;sdk&#45;D/ePub3/utilities/run_loop.h</title>
<polygon fill="white" stroke="white" points="-4,5 -4,-468 1449.94,-468 1449.94,5 -4,5"/>
<!-- Node1 -->
<g id="node1" class="node"><title>Node1</title>
<polygon fill="#bfbfbf" stroke="black" points="990.91,-419 990.91,-463 1136.98,-463 1136.98,-419 990.91,-419"/>
<text text-anchor="start" x="998.91" y="-449" font-family="Helvetica,sans-Serif" font-size="10.00">/Users/rkwright/Documents</text>
<text text-anchor="start" x="998.91" y="-437" font-family="Helvetica,sans-Serif" font-size="10.00">/github/readium&#45;sdk&#45;D/ePub3</text>
<text text-anchor="middle" x="1063.94" y="-425" font-family="Helvetica,sans-Serif" font-size="10.00">/utilities/run_loop.h</text>
</g>
<!-- Node2 -->
<g id="node2" class="node"><title>Node2</title>
<g id="a_node2"><a xlink:href="base_8h.xhtml" target="_top" xlink:title="ePub3/base.h">
<polygon fill="white" stroke="black" points="286.085,-175 286.085,-195 363.804,-195 363.804,-175 286.085,-175"/>
<text text-anchor="middle" x="324.944" y="-181" font-family="Helvetica,sans-Serif" font-size="10.00">ePub3/base.h</text>
</a>
</g>
</g>
<!-- Node1&#45;&gt;Node2 -->
<g id="edge1" class="edge"><title>Node1&#45;&gt;Node2</title>
<path fill="none" stroke="midnightblue" d="M990.653,-440.867C783.099,-441.922 196.665,-434.798 46.9442,-324 11.7783,-297.976 -16.653,-265.107 11.9442,-232 45.4452,-193.216 196.438,-186.532 275.819,-185.759"/>
<polygon fill="midnightblue" stroke="midnightblue" points="276.086,-189.257 286.061,-185.688 276.037,-182.257 276.086,-189.257"/>
</g>
<!-- Node7 -->
<g id="node7" class="node"><title>Node7</title>
<polygon fill="white" stroke="#bfbfbf" points="920.639,-361 920.639,-381 1017.25,-381 1017.25,-361 920.639,-361"/>
<text text-anchor="middle" x="968.944" y="-367" font-family="Helvetica,sans-Serif" font-size="10.00">condition_variable</text>
</g>
<!-- Node1&#45;&gt;Node7 -->
<g id="edge6" class="edge"><title>Node1&#45;&gt;Node7</title>
<path fill="none" stroke="midnightblue" d="M1034.41,-418.857C1020.07,-408.594 1003.17,-396.497 990.132,-387.166"/>
<polygon fill="midnightblue" stroke="midnightblue" points="991.971,-384.178 981.803,-381.204 987.897,-389.87 991.971,-384.178"/>
</g>
<!-- Node8 -->
<g id="node8" class="node"><title>Node8</title>
<polygon fill="white" stroke="#bfbfbf" points="1034.82,-361 1034.82,-381 1093.07,-381 1093.07,-361 1034.82,-361"/>
<text text-anchor="middle" x="1063.94" y="-367" font-family="Helvetica,sans-Serif" font-size="10.00">pthread.h</text>
</g>
<!-- Node1&#45;&gt;Node8 -->
<g id="edge7" class="edge"><title>Node1&#45;&gt;Node8</title>
<path fill="none" stroke="midnightblue" d="M1063.94,-418.857C1063.94,-410.074 1063.94,-399.948 1063.94,-391.362"/>
<polygon fill="midnightblue" stroke="midnightblue" points="1067.44,-391.204 1063.94,-381.204 1060.44,-391.204 1067.44,-391.204"/>
</g>
<!-- Node9 -->
<g id="node9" class="node"><title>Node9</title>
<polygon fill="white" stroke="#bfbfbf" points="1111.33,-361 1111.33,-381 1154.56,-381 1154.56,-361 1111.33,-361"/>
<text text-anchor="middle" x="1132.94" y="-367" font-family="Helvetica,sans-Serif" font-size="10.00">time.h</text>
</g>
<!-- Node1&#45;&gt;Node9 -->
<g id="edge8" class="edge"><title>Node1&#45;&gt;Node9</title>
<path fill="none" stroke="midnightblue" d="M1085.4,-418.857C1095.41,-408.988 1107.15,-397.425 1116.45,-388.255"/>
<polygon fill="midnightblue" stroke="midnightblue" points="1118.94,-390.716 1123.6,-381.204 1114.03,-385.73 1118.94,-390.716"/>
</g>
<!-- Node10 -->
<g id="node10" class="node"><title>Node10</title>
<polygon fill="white" stroke="#bfbfbf" points="1173.02,-361 1173.02,-381 1256.87,-381 1256.87,-361 1173.02,-361"/>
<text text-anchor="middle" x="1214.94" y="-367" font-family="Helvetica,sans-Serif" font-size="10.00">ePub3/epub3.h</text>
</g>
<!-- Node1&#45;&gt;Node10 -->
<g id="edge9" class="edge"><title>Node1&#45;&gt;Node10</title>
<path fill="none" stroke="midnightblue" d="M1110.89,-418.857C1135.37,-407.835 1164.54,-394.699 1185.76,-385.144"/>
<polygon fill="midnightblue" stroke="midnightblue" points="1187.22,-388.324 1194.9,-381.027 1184.34,-381.941 1187.22,-388.324"/>
</g>
<!-- Node11 -->
<g id="node11" class="node"><title>Node11</title>
<g id="a_node11"><a xlink:href="basic_8h.xhtml" target="_top" xlink:title="ePub3/utilities/basic.h">
<polygon fill="white" stroke="black" points="55.5823,-297 55.5823,-317 168.306,-317 168.306,-297 55.5823,-297"/>
<text text-anchor="middle" x="111.944" y="-303" font-family="Helvetica,sans-Serif" font-size="10.00">ePub3/utilities/basic.h</text>
</a>
</g>
</g>
<!-- Node1&#45;&gt;Node11 -->
<g id="edge10" class="edge"><title>Node1&#45;&gt;Node11</title>
<path fill="none" stroke="midnightblue" d="M990.909,-434.097C838.481,-420.979 475.835,-385.601 176.944,-324 170.291,-322.629 163.287,-321.05 156.44,-319.429"/>
<polygon fill="midnightblue" stroke="midnightblue" points="157.121,-315.993 146.578,-317.044 155.475,-322.797 157.121,-315.993"/>
</g>
<!-- Node17 -->
<g id="node17" class="node"><title>Node17</title>
<g id="a_node17"><a xlink:href="utfstring_8h.xhtml" target="_top" xlink:title="ePub3/utilities/utfstring.h">
<polygon fill="white" stroke="black" points="533.469,-361 533.469,-381 658.419,-381 658.419,-361 533.469,-361"/>
<text text-anchor="middle" x="595.944" y="-367" font-family="Helvetica,sans-Serif" font-size="10.00">ePub3/utilities/utfstring.h</text>
</a>
</g>
</g>
<!-- Node1&#45;&gt;Node17 -->
<g id="edge17" class="edge"><title>Node1&#45;&gt;Node17</title>
<path fill="none" stroke="midnightblue" d="M990.819,-429.375C902.784,-416.584 755.869,-395.237 668.216,-382.501"/>
<polygon fill="midnightblue" stroke="midnightblue" points="668.49,-379.004 658.091,-381.03 667.484,-385.931 668.49,-379.004"/>
</g>
<!-- Node32 -->
<g id="node32" class="node"><title>Node32</title>
<polygon fill="white" stroke="#bfbfbf" points="1274.66,-361 1274.66,-381 1321.23,-381 1321.23,-361 1274.66,-361"/>
<text text-anchor="middle" x="1297.94" y="-367" font-family="Helvetica,sans-Serif" font-size="10.00">chrono</text>
</g>
<!-- Node1&#45;&gt;Node32 -->
<g id="edge39" class="edge"><title>Node1&#45;&gt;Node32</title>
<path fill="none" stroke="midnightblue" d="M1137.05,-419.158C1172.82,-408.9 1216.74,-396.218 1264.84,-382.003"/>
<polygon fill="midnightblue" stroke="midnightblue" points="1265.92,-385.334 1274.52,-379.14 1263.94,-378.621 1265.92,-385.334"/>
</g>
<!-- Node16 -->
<g id="node16" class="node"><title>Node16</title>
<polygon fill="white" stroke="#bfbfbf" points="360.444,-233 360.444,-253 389.444,-253 389.444,-233 360.444,-233"/>
<text text-anchor="middle" x="374.555" y="-239" font-family="Helvetica,sans-Serif" font-size="10.00">list</text>
</g>
<!-- Node1&#45;&gt;Node16 -->
<g id="edge40" class="edge"><title>Node1&#45;&gt;Node16</title>
<path fill="none" stroke="midnightblue" d="M990.742,-425.001C963.261,-416.297 933.497,-402.781 911.944,-382 879.974,-351.174 908.804,-316.2 872.944,-290 834.42,-261.854 494.94,-248.13 399.694,-244.811"/>
<polygon fill="midnightblue" stroke="midnightblue" points="399.677,-241.308 389.563,-244.465 399.438,-248.304 399.677,-241.308"/>
</g>
<!-- Node33 -->
<g id="node33" class="node"><title>Node33</title>
<polygon fill="white" stroke="#bfbfbf" points="1339.33,-361 1339.33,-381 1382.56,-381 1382.56,-361 1339.33,-361"/>
<text text-anchor="middle" x="1360.94" y="-367" font-family="Helvetica,sans-Serif" font-size="10.00">mutex</text>
</g>
<!-- Node1&#45;&gt;Node33 -->
<g id="edge41" class="edge"><title>Node1&#45;&gt;Node33</title>
<path fill="none" stroke="midnightblue" d="M1137.23,-426.02C1188.5,-415.776 1258.72,-400.828 1329.08,-382.044"/>
<polygon fill="midnightblue" stroke="midnightblue" points="1330.26,-385.35 1339.01,-379.368 1328.44,-378.591 1330.26,-385.35"/>
</g>
<!-- Node34 -->
<g id="node34" class="node"><title>Node34</title>
<polygon fill="white" stroke="#bfbfbf" points="1400.22,-361 1400.22,-381 1445.67,-381 1445.67,-361 1400.22,-361"/>
<text text-anchor="middle" x="1422.94" y="-367" font-family="Helvetica,sans-Serif" font-size="10.00">atomic</text>
</g>
<!-- Node1&#45;&gt;Node34 -->
<g id="edge42" class="edge"><title>Node1&#45;&gt;Node34</title>
<path fill="none" stroke="midnightblue" d="M1137.23,-429.734C1201.59,-420.095 1297.83,-404.173 1390.18,-381.947"/>
<polygon fill="midnightblue" stroke="midnightblue" points="1391.08,-385.33 1399.97,-379.564 1389.43,-378.529 1391.08,-385.33"/>
</g>
<!-- Node3 -->
<g id="node3" class="node"><title>Node3</title>
<g id="a_node3"><a xlink:href="__config_8h.xhtml" target="_top" xlink:title="_config.h">
<polygon fill="white" stroke="black" points="261.651,-117 261.651,-137 318.237,-137 318.237,-117 261.651,-117"/>
<text text-anchor="middle" x="289.944" y="-123" font-family="Helvetica,sans-Serif" font-size="10.00">_config.h</text>
</a>
</g>
</g>
<!-- Node2&#45;&gt;Node3 -->
<g id="edge2" class="edge"><title>Node2&#45;&gt;Node3</title>
<path fill="none" stroke="midnightblue" d="M319.165,-174.753C314.221,-166.843 306.967,-155.237 300.924,-145.568"/>
<polygon fill="midnightblue" stroke="midnightblue" points="303.884,-143.7 295.616,-137.075 297.948,-147.41 303.884,-143.7"/>
</g>
<!-- Node6 -->
<g id="node6" class="node"><title>Node6</title>
<polygon fill="white" stroke="#bfbfbf" points="336.102,-117 336.102,-137 383.786,-137 383.786,-117 336.102,-117"/>
<text text-anchor="middle" x="359.944" y="-123" font-family="Helvetica,sans-Serif" font-size="10.00">stdlib.h</text>
</g>
<!-- Node2&#45;&gt;Node6 -->
<g id="edge5" class="edge"><title>Node2&#45;&gt;Node6</title>
<path fill="none" stroke="midnightblue" d="M330.724,-174.753C335.667,-166.843 342.921,-155.237 348.964,-145.568"/>
<polygon fill="midnightblue" stroke="midnightblue" points="351.94,-147.41 354.272,-137.075 346.004,-143.7 351.94,-147.41"/>
</g>
<!-- Node4 -->
<g id="node4" class="node"><title>Node4</title>
<g id="a_node4"><a xlink:href="__platform_8h.xhtml" target="_top" xlink:title="_platform.h">
<polygon fill="white" stroke="black" points="256.932,-59 256.932,-79 322.956,-79 322.956,-59 256.932,-59"/>
<text text-anchor="middle" x="289.944" y="-65" font-family="Helvetica,sans-Serif" font-size="10.00">_platform.h</text>
</a>
</g>
</g>
<!-- Node3&#45;&gt;Node4 -->
<g id="edge3" class="edge"><title>Node3&#45;&gt;Node4</title>
<path fill="none" stroke="midnightblue" d="M289.944,-116.753C289.944,-109.25 289.944,-98.4238 289.944,-89.0781"/>
<polygon fill="midnightblue" stroke="midnightblue" points="293.444,-89.0752 289.944,-79.0752 286.444,-89.0752 293.444,-89.0752"/>
</g>
<!-- Node5 -->
<g id="node5" class="node"><title>Node5</title>
<g id="a_node5"><a xlink:href="__compiler_8h.xhtml" target="_top" xlink:title="_compiler.h">
<polygon fill="white" stroke="black" points="256.373,-1 256.373,-21 323.515,-21 323.515,-1 256.373,-1"/>
<text text-anchor="middle" x="289.944" y="-7" font-family="Helvetica,sans-Serif" font-size="10.00">_compiler.h</text>
</a>
</g>
</g>
<!-- Node4&#45;&gt;Node5 -->
<g id="edge4" class="edge"><title>Node4&#45;&gt;Node5</title>
<path fill="none" stroke="midnightblue" d="M289.944,-58.7527C289.944,-51.2504 289.944,-40.4238 289.944,-31.0781"/>
<polygon fill="midnightblue" stroke="midnightblue" points="293.444,-31.0752 289.944,-21.0752 286.444,-31.0752 293.444,-31.0752"/>
</g>
<!-- Node11&#45;&gt;Node2 -->
<g id="edge11" class="edge"><title>Node11&#45;&gt;Node2</title>
<path fill="none" stroke="midnightblue" d="M130.976,-296.851C151.641,-286.79 185.503,-269.929 213.944,-254 244.999,-236.607 279.857,-214.876 302.084,-200.729"/>
<polygon fill="midnightblue" stroke="midnightblue" points="304.247,-203.5 310.788,-195.165 300.477,-197.602 304.247,-203.5"/>
</g>
<!-- Node12 -->
<g id="node12" class="node"><title>Node12</title>
<polygon fill="white" stroke="#bfbfbf" points="90.7596,-233 90.7596,-253 205.129,-253 205.129,-233 90.7596,-233"/>
<text text-anchor="middle" x="147.944" y="-239" font-family="Helvetica,sans-Serif" font-size="10.00">ePub3/xml/xmlstring.h</text>
</g>
<!-- Node11&#45;&gt;Node12 -->
<g id="edge12" class="edge"><title>Node11&#45;&gt;Node12</title>
<path fill="none" stroke="midnightblue" d="M117.256,-296.852C122.574,-287.694 130.897,-273.359 137.534,-261.928"/>
<polygon fill="midnightblue" stroke="midnightblue" points="140.616,-263.591 142.61,-253.186 134.562,-260.076 140.616,-263.591"/>
</g>
<!-- Node13 -->
<g id="node13" class="node"><title>Node13</title>
<polygon fill="white" stroke="#bfbfbf" points="21.1634,-233 21.1634,-253 72.7249,-253 72.7249,-233 21.1634,-233"/>
<text text-anchor="middle" x="46.9442" y="-239" font-family="Helvetica,sans-Serif" font-size="10.00">sstream</text>
</g>
<!-- Node11&#45;&gt;Node13 -->
<g id="edge13" class="edge"><title>Node11&#45;&gt;Node13</title>
<path fill="none" stroke="midnightblue" d="M102.353,-296.852C92.2721,-287.236 76.2076,-271.913 63.9658,-260.236"/>
<polygon fill="midnightblue" stroke="midnightblue" points="66.2263,-257.555 56.5745,-253.186 61.3948,-262.621 66.2263,-257.555"/>
</g>
<!-- Node14 -->
<g id="node14" class="node"><title>Node14</title>
<polygon fill="white" stroke="#bfbfbf" points="610.888,-175 610.888,-195 663.001,-195 663.001,-175 610.888,-175"/>
<text text-anchor="middle" x="636.944" y="-181" font-family="Helvetica,sans-Serif" font-size="10.00">memory</text>
</g>
<!-- Node11&#45;&gt;Node14 -->
<g id="edge14" class="edge"><title>Node11&#45;&gt;Node14</title>
<path fill="none" stroke="midnightblue" d="M137.903,-296.921C165.33,-287.117 209.682,-270.653 246.944,-254 266.543,-245.241 269.451,-238.392 289.944,-232 399.578,-197.804 536.443,-189.028 600.591,-186.776"/>
<polygon fill="midnightblue" stroke="midnightblue" points="600.727,-190.274 610.611,-186.458 600.504,-183.277 600.727,-190.274"/>
</g>
<!-- Node15 -->
<g id="node15" class="node"><title>Node15</title>
<polygon fill="white" stroke="#bfbfbf" points="299.328,-233 299.328,-253 342.56,-253 342.56,-233 299.328,-233"/>
<text text-anchor="middle" x="320.944" y="-239" font-family="Helvetica,sans-Serif" font-size="10.00">vector</text>
</g>
<!-- Node11&#45;&gt;Node15 -->
<g id="edge15" class="edge"><title>Node11&#45;&gt;Node15</title>
<path fill="none" stroke="midnightblue" d="M142.335,-296.985C181.598,-285.337 249.62,-265.158 289.426,-253.35"/>
<polygon fill="midnightblue" stroke="midnightblue" points="290.551,-256.667 299.142,-250.468 288.56,-249.956 290.551,-256.667"/>
</g>
<!-- Node11&#45;&gt;Node16 -->
<g id="edge16" class="edge"><title>Node11&#45;&gt;Node16</title>
<path fill="none" stroke="midnightblue" d="M147.648,-296.957C157.152,-294.62 167.423,-292.156 176.944,-290 253.965,-272.559 275.486,-277.293 350.944,-254 351.041,-253.97 351.138,-253.94 351.236,-253.909"/>
<polygon fill="midnightblue" stroke="midnightblue" points="352.18,-257.29 360.384,-250.586 349.79,-250.711 352.18,-257.29"/>
</g>
<!-- Node17&#45;&gt;Node11 -->
<g id="edge18" class="edge"><title>Node17&#45;&gt;Node11</title>
<path fill="none" stroke="midnightblue" d="M533.462,-365.729C451.261,-359.52 302.505,-346.246 176.944,-324 169.785,-322.732 162.243,-321.128 154.933,-319.428"/>
<polygon fill="midnightblue" stroke="midnightblue" points="155.707,-316.014 145.166,-317.073 154.067,-322.819 155.707,-316.014"/>
</g>
<!-- Node18 -->
<g id="node18" class="node"><title>Node18</title>
<g id="a_node18"><a xlink:href="integer__sequence_8h.xhtml" target="_top" xlink:title="ePub3/utilities/integer\l_sequence.h">
<polygon fill="white" stroke="black" points="186.137,-291 186.137,-323 297.752,-323 297.752,-291 186.137,-291"/>
<text text-anchor="start" x="194.137" y="-309" font-family="Helvetica,sans-Serif" font-size="10.00">ePub3/utilities/integer</text>
<text text-anchor="middle" x="241.944" y="-297" font-family="Helvetica,sans-Serif" font-size="10.00">_sequence.h</text>
</a>
</g>
</g>
<!-- Node17&#45;&gt;Node18 -->
<g id="edge19" class="edge"><title>Node17&#45;&gt;Node18</title>
<path fill="none" stroke="midnightblue" d="M533.38,-361.58C476.897,-353.63 391.324,-340.72 307.806,-324.081"/>
<polygon fill="midnightblue" stroke="midnightblue" points="308.391,-320.629 297.897,-322.088 307.01,-327.491 308.391,-320.629"/>
</g>
<!-- Node19 -->
<g id="node19" class="node"><title>Node19</title>
<g id="a_node19"><a xlink:href="string__view_8h.xhtml" target="_top" xlink:title="ePub3/utilities/string\l_view.h">
<polygon fill="white" stroke="black" points="921.198,-291 921.198,-323 1026.69,-323 1026.69,-291 921.198,-291"/>
<text text-anchor="start" x="929.198" y="-309" font-family="Helvetica,sans-Serif" font-size="10.00">ePub3/utilities/string</text>
<text text-anchor="middle" x="973.944" y="-297" font-family="Helvetica,sans-Serif" font-size="10.00">_view.h</text>
</a>
</g>
</g>
<!-- Node17&#45;&gt;Node19 -->
<g id="edge21" class="edge"><title>Node17&#45;&gt;Node19</title>
<path fill="none" stroke="midnightblue" d="M650.909,-360.985C720.04,-349.646 838.463,-330.222 911.111,-318.306"/>
<polygon fill="midnightblue" stroke="midnightblue" points="911.747,-321.749 921.048,-316.676 910.614,-314.841 911.747,-321.749"/>
</g>
<!-- Node21 -->
<g id="node21" class="node"><title>Node21</title>
<polygon fill="white" stroke="#bfbfbf" points="682.718,-233 682.718,-253 723.171,-253 723.171,-233 682.718,-233"/>
<text text-anchor="middle" x="702.944" y="-239" font-family="Helvetica,sans-Serif" font-size="10.00">string</text>
</g>
<!-- Node17&#45;&gt;Node21 -->
<g id="edge30" class="edge"><title>Node17&#45;&gt;Node21</title>
<path fill="none" stroke="midnightblue" d="M607.298,-360.742C617.865,-351.86 633.769,-337.797 645.944,-324 663.489,-304.119 680.748,-278.877 691.597,-262.12"/>
<polygon fill="midnightblue" stroke="midnightblue" points="694.771,-263.652 697.197,-253.339 688.869,-259.888 694.771,-263.652"/>
</g>
<!-- Node26 -->
<g id="node26" class="node"><title>Node26</title>
<polygon fill="white" stroke="#bfbfbf" points="509.383,-297 509.383,-317 556.506,-317 556.506,-297 509.383,-297"/>
<text text-anchor="middle" x="532.944" y="-303" font-family="Helvetica,sans-Serif" font-size="10.00">iterator</text>
</g>
<!-- Node17&#45;&gt;Node26 -->
<g id="edge31" class="edge"><title>Node17&#45;&gt;Node26</title>
<path fill="none" stroke="midnightblue" d="M586.648,-360.852C576.877,-351.236 561.307,-335.913 549.442,-324.236"/>
<polygon fill="midnightblue" stroke="midnightblue" points="551.861,-321.706 542.278,-317.186 546.951,-326.695 551.861,-321.706"/>
</g>
<!-- Node27 -->
<g id="node27" class="node"><title>Node27</title>
<polygon fill="white" stroke="#bfbfbf" points="574.88,-297 574.88,-317 617.008,-317 617.008,-297 574.88,-297"/>
<text text-anchor="middle" x="595.944" y="-303" font-family="Helvetica,sans-Serif" font-size="10.00">locale</text>
</g>
<!-- Node17&#45;&gt;Node27 -->
<g id="edge32" class="edge"><title>Node17&#45;&gt;Node27</title>
<path fill="none" stroke="midnightblue" d="M595.944,-360.852C595.944,-352.06 595.944,-338.498 595.944,-327.313"/>
<polygon fill="midnightblue" stroke="midnightblue" points="599.444,-327.186 595.944,-317.186 592.444,-327.186 599.444,-327.186"/>
</g>
<!-- Node17&#45;&gt;Node15 -->
<g id="edge33" class="edge"><title>Node17&#45;&gt;Node15</title>
<path fill="none" stroke="midnightblue" d="M572.458,-360.949C552.387,-352.709 523.158,-339.488 499.944,-324 481.093,-311.422 481.591,-301.295 461.944,-290 419.616,-265.666 402.274,-269.601 352.293,-254.319"/>
<polygon fill="midnightblue" stroke="midnightblue" points="353.158,-250.922 342.567,-251.231 351.039,-257.593 353.158,-250.922"/>
</g>
<!-- Node28 -->
<g id="node28" class="node"><title>Node28</title>
<polygon fill="white" stroke="#bfbfbf" points="710.71,-297 710.71,-317 811.178,-317 811.178,-297 710.71,-297"/>
<text text-anchor="middle" x="760.944" y="-303" font-family="Helvetica,sans-Serif" font-size="10.00">REGEX_INCLUDE</text>
</g>
<!-- Node17&#45;&gt;Node28 -->
<g id="edge34" class="edge"><title>Node17&#45;&gt;Node28</title>
<path fill="none" stroke="midnightblue" d="M619.937,-360.985C648.287,-350.332 695.628,-332.543 727.549,-320.548"/>
<polygon fill="midnightblue" stroke="midnightblue" points="728.793,-323.82 736.923,-317.026 726.331,-317.267 728.793,-323.82"/>
</g>
<!-- Node29 -->
<g id="node29" class="node"><title>Node29</title>
<polygon fill="white" stroke="#bfbfbf" points="829.218,-297 829.218,-317 864.671,-317 864.671,-297 829.218,-297"/>
<text text-anchor="middle" x="846.944" y="-303" font-family="Helvetica,sans-Serif" font-size="10.00">map</text>
</g>
<!-- Node17&#45;&gt;Node29 -->
<g id="edge35" class="edge"><title>Node17&#45;&gt;Node29</title>
<path fill="none" stroke="midnightblue" d="M658.844,-362.777C704.635,-356.167 767.544,-344.249 819.944,-324 821.551,-323.379 823.174,-322.667 824.783,-321.896"/>
<polygon fill="midnightblue" stroke="midnightblue" points="826.55,-324.92 833.656,-317.061 823.2,-318.773 826.55,-324.92"/>
</g>
<!-- Node30 -->
<g id="node30" class="node"><title>Node30</title>
<polygon fill="white" stroke="#bfbfbf" points="315.543,-297 315.543,-317 374.346,-317 374.346,-297 315.543,-297"/>
<text text-anchor="middle" x="344.944" y="-303" font-family="Helvetica,sans-Serif" font-size="10.00">stdexcept</text>
</g>
<!-- Node17&#45;&gt;Node30 -->
<g id="edge36" class="edge"><title>Node17&#45;&gt;Node30</title>
<path fill="none" stroke="midnightblue" d="M541.682,-360.944C498.443,-353.08 436.63,-340.384 383.944,-324 380.965,-323.074 377.897,-322.012 374.852,-320.886"/>
<polygon fill="midnightblue" stroke="midnightblue" points="375.929,-317.549 365.342,-317.157 373.374,-324.066 375.929,-317.549"/>
</g>
<!-- Node22 -->
<g id="node22" class="node"><title>Node22</title>
<polygon fill="white" stroke="#bfbfbf" points="625.557,-233 625.557,-253 664.331,-253 664.331,-233 625.557,-233"/>
<text text-anchor="middle" x="644.944" y="-239" font-family="Helvetica,sans-Serif" font-size="10.00">limits</text>
</g>
<!-- Node17&#45;&gt;Node22 -->
<g id="edge37" class="edge"><title>Node17&#45;&gt;Node22</title>
<path fill="none" stroke="midnightblue" d="M603.415,-360.683C610.22,-351.759 620.076,-337.667 625.944,-324 634.455,-304.176 639.539,-279.878 642.276,-263.297"/>
<polygon fill="midnightblue" stroke="midnightblue" points="645.768,-263.613 643.809,-253.201 638.847,-262.562 645.768,-263.613"/>
</g>
<!-- Node31 -->
<g id="node31" class="node"><title>Node31</title>
<polygon fill="white" stroke="#bfbfbf" points="392.705,-297 392.705,-317 453.183,-317 453.183,-297 392.705,-297"/>
<text text-anchor="middle" x="422.944" y="-303" font-family="Helvetica,sans-Serif" font-size="10.00">utf8/utf8.h</text>
</g>
<!-- Node17&#45;&gt;Node31 -->
<g id="edge38" class="edge"><title>Node17&#45;&gt;Node31</title>
<path fill="none" stroke="midnightblue" d="M570.228,-360.883C544.18,-351.636 502.737,-336.889 466.944,-324 463.885,-322.898 460.708,-321.75 457.524,-320.598"/>
<polygon fill="midnightblue" stroke="midnightblue" points="458.658,-317.286 448.064,-317.165 456.27,-323.866 458.658,-317.286"/>
</g>
<!-- Node18&#45;&gt;Node2 -->
<g id="edge20" class="edge"><title>Node18&#45;&gt;Node2</title>
<path fill="none" stroke="midnightblue" d="M297.237,-290.983C339.551,-278.936 391.705,-262.656 397.944,-254 413.548,-232.351 383.925,-212.129 357.864,-199.458"/>
<polygon fill="midnightblue" stroke="midnightblue" points="359.061,-196.156 348.514,-195.143 356.127,-202.512 359.061,-196.156"/>
</g>
<!-- Node20 -->
<g id="node20" class="node"><title>Node20</title>
<polygon fill="white" stroke="#bfbfbf" points="866.878,-233 866.878,-253 929.011,-253 929.011,-233 866.878,-233"/>
<text text-anchor="middle" x="897.944" y="-239" font-family="Helvetica,sans-Serif" font-size="10.00">type_traits</text>
</g>
<!-- Node19&#45;&gt;Node20 -->
<g id="edge22" class="edge"><title>Node19&#45;&gt;Node20</title>
<path fill="none" stroke="midnightblue" d="M955.547,-290.992C943.952,-281.533 929.004,-269.338 917.241,-259.742"/>
<polygon fill="midnightblue" stroke="midnightblue" points="919.294,-256.9 909.332,-253.29 914.869,-262.324 919.294,-256.9"/>
</g>
<!-- Node19&#45;&gt;Node21 -->
<g id="edge23" class="edge"><title>Node19&#45;&gt;Node21</title>
<path fill="none" stroke="midnightblue" d="M920.95,-293.182C916.218,-292.086 911.497,-291.012 906.944,-290 832.456,-273.449 810.246,-274.844 733.122,-254.078"/>
<polygon fill="midnightblue" stroke="midnightblue" points="734.006,-250.691 723.437,-251.433 732.161,-257.444 734.006,-250.691"/>
</g>
<!-- Node19&#45;&gt;Node22 -->
<g id="edge24" class="edge"><title>Node19&#45;&gt;Node22</title>
<path fill="none" stroke="midnightblue" d="M921.001,-292.938C916.258,-291.895 911.521,-290.898 906.944,-290 807.235,-270.425 777.45,-278.64 674.333,-253.694"/>
<polygon fill="midnightblue" stroke="midnightblue" points="675.004,-250.255 664.457,-251.259 673.329,-257.051 675.004,-250.255"/>
</g>
<!-- Node23 -->
<g id="node23" class="node"><title>Node23</title>
<polygon fill="white" stroke="#bfbfbf" points="946.772,-233 946.772,-253 1001.12,-253 1001.12,-233 946.772,-233"/>
<text text-anchor="middle" x="973.944" y="-239" font-family="Helvetica,sans-Serif" font-size="10.00">iostream</text>
</g>
<!-- Node19&#45;&gt;Node23 -->
<g id="edge25" class="edge"><title>Node19&#45;&gt;Node23</title>
<path fill="none" stroke="midnightblue" d="M973.944,-290.992C973.944,-282.726 973.944,-272.373 973.944,-263.489"/>
<polygon fill="midnightblue" stroke="midnightblue" points="977.444,-263.29 973.944,-253.29 970.444,-263.29 977.444,-263.29"/>
</g>
<!-- Node24 -->
<g id="node24" class="node"><title>Node24</title>
<polygon fill="white" stroke="#bfbfbf" points="1019.38,-233 1019.38,-253 1076.51,-253 1076.51,-233 1019.38,-233"/>
<text text-anchor="middle" x="1047.94" y="-239" font-family="Helvetica,sans-Serif" font-size="10.00">algorithm</text>
</g>
<!-- Node19&#45;&gt;Node24 -->
<g id="edge26" class="edge"><title>Node19&#45;&gt;Node24</title>
<path fill="none" stroke="midnightblue" d="M991.857,-290.992C1003.15,-281.533 1017.7,-269.338 1029.16,-259.742"/>
<polygon fill="midnightblue" stroke="midnightblue" points="1031.44,-262.395 1036.86,-253.29 1026.94,-257.03 1031.44,-262.395"/>
</g>
<!-- Node25 -->
<g id="node25" class="node"><title>Node25</title>
<g id="a_node25"><a xlink:href="____strhash_8h.xhtml" target="_top" xlink:title="__strhash.h">
<polygon fill="white" stroke="black" points="740.816,-233 740.816,-253 809.072,-253 809.072,-233 740.816,-233"/>
<text text-anchor="middle" x="774.944" y="-239" font-family="Helvetica,sans-Serif" font-size="10.00">__strhash.h</text>
</a>
</g>
</g>
<!-- Node19&#45;&gt;Node25 -->
<g id="edge27" class="edge"><title>Node19&#45;&gt;Node25</title>
<path fill="none" stroke="midnightblue" d="M925.772,-290.992C891.416,-280.288 845.816,-266.081 813.783,-256.1"/>
<polygon fill="midnightblue" stroke="midnightblue" points="814.479,-252.651 803.89,-253.018 812.397,-259.335 814.479,-252.651"/>
</g>
<!-- Node25&#45;&gt;Node2 -->
<g id="edge28" class="edge"><title>Node25&#45;&gt;Node2</title>
<path fill="none" stroke="midnightblue" d="M740.749,-233.671C737.78,-233.062 734.814,-232.494 731.944,-232 603.773,-209.93 450.999,-195.916 374.199,-189.712"/>
<polygon fill="midnightblue" stroke="midnightblue" points="374.124,-186.195 363.877,-188.888 373.567,-193.172 374.124,-186.195"/>
</g>
<!-- Node25&#45;&gt;Node14 -->
<g id="edge29" class="edge"><title>Node25&#45;&gt;Node14</title>
<path fill="none" stroke="midnightblue" d="M752.465,-232.878C729.71,-223.644 694.32,-209.283 668.706,-198.889"/>
<polygon fill="midnightblue" stroke="midnightblue" points="669.996,-195.635 659.414,-195.118 667.364,-202.121 669.996,-195.635"/>
</g>
</g>
</svg>
