<?xml version="1.0" encoding="UTF-8" standalone="no"?>
<!DOCTYPE svg PUBLIC "-//W3C//DTD SVG 1.1//EN"
 "http://www.w3.org/Graphics/SVG/1.1/DTD/svg11.dtd">
<!-- Generated by graphviz version 2.30.0 (20130114.0426)
 -->
<!-- Title: /Users/rkwright/Documents/github/readium&#45;sdk&#45;D/ePub3/utilities/run_loop_cf.cpp Pages: 1 -->
<svg width="1168pt" height="588pt"
 viewBox="0.00 0.00 1168.00 588.00" xmlns="http://www.w3.org/2000/svg" xmlns:xlink="http://www.w3.org/1999/xlink">
<g id="graph0" class="graph" transform="scale(1 1) rotate(0) translate(4 584)">
<title>/Users/rkwright/Documents/github/readium&#45;sdk&#45;D/ePub3/utilities/run_loop_cf.cpp</title>
<polygon fill="white" stroke="white" points="-4,5 -4,-584 1165,-584 1165,5 -4,5"/>
<!-- Node1 -->
<g id="node1" class="node"><title>Node1</title>
<polygon fill="#bfbfbf" stroke="black" points="165.966,-535 165.966,-579 312.034,-579 312.034,-535 165.966,-535"/>
<text text-anchor="start" x="173.966" y="-565" font-family="Helvetica,sans-Serif" font-size="10.00">/Users/rkwright/Documents</text>
<text text-anchor="start" x="173.966" y="-553" font-family="Helvetica,sans-Serif" font-size="10.00">/github/readium&#45;sdk&#45;D/ePub3</text>
<text text-anchor="middle" x="239" y="-541" font-family="Helvetica,sans-Serif" font-size="10.00">/utilities/run_loop_cf.cpp</text>
</g>
<!-- Node2 -->
<g id="node2" class="node"><title>Node2</title>
<g id="a_node2"><a xlink:href="run__loop__common_8ipp.xhtml" target="_top" xlink:title="run_loop_common.ipp">
<polygon fill="white" stroke="black" points="181.525,-477 181.525,-497 296.475,-497 296.475,-477 181.525,-477"/>
<text text-anchor="middle" x="239" y="-483" font-family="Helvetica,sans-Serif" font-size="10.00">run_loop_common.ipp</text>
</a>
</g>
</g>
<!-- Node1&#45;&gt;Node2 -->
<g id="edge1" class="edge"><title>Node1&#45;&gt;Node2</title>
<path fill="none" stroke="midnightblue" d="M239,-534.857C239,-526.074 239,-515.948 239,-507.362"/>
<polygon fill="midnightblue" stroke="midnightblue" points="242.5,-507.204 239,-497.204 235.5,-507.204 242.5,-507.204"/>
</g>
<!-- Node3 -->
<g id="node3" class="node"><title>Node3</title>
<g id="a_node3"><a xlink:href="run__loop_8h.xhtml" target="_top" xlink:title="run_loop.h">
<polygon fill="white" stroke="black" points="284.37,-419 284.37,-439 347.63,-439 347.63,-419 284.37,-419"/>
<text text-anchor="middle" x="316" y="-425" font-family="Helvetica,sans-Serif" font-size="10.00">run_loop.h</text>
</a>
</g>
</g>
<!-- Node2&#45;&gt;Node3 -->
<g id="edge2" class="edge"><title>Node2&#45;&gt;Node3</title>
<path fill="none" stroke="midnightblue" d="M251.715,-476.753C263.488,-468.19 281.216,-455.298 295.074,-445.219"/>
<polygon fill="midnightblue" stroke="midnightblue" points="297.493,-447.788 303.522,-439.075 293.376,-442.126 297.493,-447.788"/>
</g>
<!-- Node10 -->
<g id="node10" class="node"><title>Node10</title>
<polygon fill="white" stroke="#bfbfbf" points="-0.12793,-361 -0.12793,-381 58.1279,-381 58.1279,-361 -0.12793,-361"/>
<text text-anchor="middle" x="29" y="-367" font-family="Helvetica,sans-Serif" font-size="10.00">pthread.h</text>
</g>
<!-- Node2&#45;&gt;Node10 -->
<g id="edge45" class="edge"><title>Node2&#45;&gt;Node10</title>
<path fill="none" stroke="midnightblue" d="M222.17,-476.864C185.446,-456.928 97.9416,-409.425 54.4453,-385.813"/>
<polygon fill="midnightblue" stroke="midnightblue" points="56.0772,-382.717 45.6188,-381.022 52.7376,-388.869 56.0772,-382.717"/>
</g>
<!-- Node4 -->
<g id="node4" class="node"><title>Node4</title>
<g id="a_node4"><a xlink:href="base_8h.xhtml" target="_top" xlink:title="ePub3/base.h">
<polygon fill="white" stroke="black" points="409.141,-175 409.141,-195 486.859,-195 486.859,-175 409.141,-175"/>
<text text-anchor="middle" x="448" y="-181" font-family="Helvetica,sans-Serif" font-size="10.00">ePub3/base.h</text>
</a>
</g>
</g>
<!-- Node3&#45;&gt;Node4 -->
<g id="edge3" class="edge"><title>Node3&#45;&gt;Node4</title>
<path fill="none" stroke="midnightblue" d="M296.996,-418.757C268.237,-403.572 214.713,-370.34 193,-324 175.601,-286.867 159.63,-263.404 186,-232 212.659,-200.253 330.784,-190.41 398.973,-187.363"/>
<polygon fill="midnightblue" stroke="midnightblue" points="399.214,-190.856 409.061,-186.945 398.924,-183.862 399.214,-190.856"/>
</g>
<!-- Node9 -->
<g id="node9" class="node"><title>Node9</title>
<polygon fill="white" stroke="#bfbfbf" points="699.695,-361 699.695,-381 796.305,-381 796.305,-361 699.695,-361"/>
<text text-anchor="middle" x="748" y="-367" font-family="Helvetica,sans-Serif" font-size="10.00">condition_variable</text>
</g>
<!-- Node3&#45;&gt;Node9 -->
<g id="edge8" class="edge"><title>Node3&#45;&gt;Node9</title>
<path fill="none" stroke="midnightblue" d="M348.089,-424.583C411.275,-417.739 556.48,-401.45 689.635,-381.99"/>
<polygon fill="midnightblue" stroke="midnightblue" points="690.223,-385.442 699.607,-380.524 689.205,-378.516 690.223,-385.442"/>
</g>
<!-- Node3&#45;&gt;Node10 -->
<g id="edge9" class="edge"><title>Node3&#45;&gt;Node10</title>
<path fill="none" stroke="midnightblue" d="M284.007,-422.875C238.273,-415.379 151.382,-400.506 68.2584,-382.165"/>
<polygon fill="midnightblue" stroke="midnightblue" points="68.9272,-378.728 58.4054,-379.97 67.4053,-385.56 68.9272,-378.728"/>
</g>
<!-- Node11 -->
<g id="node11" class="node"><title>Node11</title>
<polygon fill="white" stroke="#bfbfbf" points="814.384,-361 814.384,-381 857.616,-381 857.616,-361 814.384,-361"/>
<text text-anchor="middle" x="836" y="-367" font-family="Helvetica,sans-Serif" font-size="10.00">time.h</text>
</g>
<!-- Node3&#45;&gt;Node11 -->
<g id="edge10" class="edge"><title>Node3&#45;&gt;Node11</title>
<path fill="none" stroke="midnightblue" d="M347.818,-427.402C424.832,-425.448 627.333,-417.281 804.143,-381.748"/>
<polygon fill="midnightblue" stroke="midnightblue" points="805.047,-385.136 814.143,-379.703 803.644,-378.278 805.047,-385.136"/>
</g>
<!-- Node12 -->
<g id="node12" class="node"><title>Node12</title>
<polygon fill="white" stroke="#bfbfbf" points="76.0791,-361 76.0791,-381 159.921,-381 159.921,-361 76.0791,-361"/>
<text text-anchor="middle" x="118" y="-367" font-family="Helvetica,sans-Serif" font-size="10.00">ePub3/epub3.h</text>
</g>
<!-- Node3&#45;&gt;Node12 -->
<g id="edge11" class="edge"><title>Node3&#45;&gt;Node12</title>
<path fill="none" stroke="midnightblue" d="M284.188,-419.003C250.514,-409.479 197.204,-394.401 160.075,-383.9"/>
<polygon fill="midnightblue" stroke="midnightblue" points="160.637,-380.422 150.061,-381.068 158.731,-387.157 160.637,-380.422"/>
</g>
<!-- Node13 -->
<g id="node13" class="node"><title>Node13</title>
<g id="a_node13"><a xlink:href="basic_8h.xhtml" target="_top" xlink:title="ePub3/utilities/basic.h">
<polygon fill="white" stroke="black" points="201.638,-297 201.638,-317 314.362,-317 314.362,-297 201.638,-297"/>
<text text-anchor="middle" x="258" y="-303" font-family="Helvetica,sans-Serif" font-size="10.00">ePub3/utilities/basic.h</text>
</a>
</g>
</g>
<!-- Node3&#45;&gt;Node13 -->
<g id="edge12" class="edge"><title>Node3&#45;&gt;Node13</title>
<path fill="none" stroke="midnightblue" d="M297.693,-418.907C284.28,-411.137 267.064,-398.582 259,-382 250.68,-364.892 251.65,-342.82 253.946,-327.248"/>
<polygon fill="midnightblue" stroke="midnightblue" points="257.424,-327.683 255.739,-317.223 250.533,-326.45 257.424,-327.683"/>
</g>
<!-- Node19 -->
<g id="node19" class="node"><title>Node19</title>
<g id="a_node19"><a xlink:href="utfstring_8h.xhtml" target="_top" xlink:title="ePub3/utilities/utfstring.h">
<polygon fill="white" stroke="black" points="556.525,-361 556.525,-381 681.475,-381 681.475,-361 556.525,-361"/>
<text text-anchor="middle" x="619" y="-367" font-family="Helvetica,sans-Serif" font-size="10.00">ePub3/utilities/utfstring.h</text>
</a>
</g>
</g>
<!-- Node3&#45;&gt;Node19 -->
<g id="edge19" class="edge"><title>Node3&#45;&gt;Node19</title>
<path fill="none" stroke="midnightblue" d="M347.854,-422.113C398.188,-412.81 496.901,-394.566 560.315,-382.846"/>
<polygon fill="midnightblue" stroke="midnightblue" points="560.98,-386.283 570.177,-381.023 559.708,-379.399 560.98,-386.283"/>
</g>
<!-- Node34 -->
<g id="node34" class="node"><title>Node34</title>
<polygon fill="white" stroke="#bfbfbf" points="267.712,-361 267.712,-381 314.288,-381 314.288,-361 267.712,-361"/>
<text text-anchor="middle" x="291" y="-367" font-family="Helvetica,sans-Serif" font-size="10.00">chrono</text>
</g>
<!-- Node3&#45;&gt;Node34 -->
<g id="edge41" class="edge"><title>Node3&#45;&gt;Node34</title>
<path fill="none" stroke="midnightblue" d="M311.872,-418.753C308.45,-411.087 303.478,-399.952 299.246,-390.471"/>
<polygon fill="midnightblue" stroke="midnightblue" points="302.324,-388.78 295.051,-381.075 295.932,-391.633 302.324,-388.78"/>
</g>
<!-- Node18 -->
<g id="node18" class="node"><title>Node18</title>
<polygon fill="white" stroke="#bfbfbf" points="473.5,-233 473.5,-253 502.5,-253 502.5,-233 473.5,-233"/>
<text text-anchor="middle" x="487.611" y="-239" font-family="Helvetica,sans-Serif" font-size="10.00">list</text>
</g>
<!-- Node3&#45;&gt;Node18 -->
<g id="edge42" class="edge"><title>Node3&#45;&gt;Node18</title>
<path fill="none" stroke="midnightblue" d="M317.884,-418.872C323.752,-391.236 342.419,-309.191 361,-290 368.354,-282.404 428.374,-262.682 463.207,-251.688"/>
<polygon fill="midnightblue" stroke="midnightblue" points="464.627,-254.911 473.122,-248.579 462.533,-248.231 464.627,-254.911"/>
</g>
<!-- Node35 -->
<g id="node35" class="node"><title>Node35</title>
<polygon fill="white" stroke="#bfbfbf" points="370.384,-361 370.384,-381 413.616,-381 413.616,-361 370.384,-361"/>
<text text-anchor="middle" x="392" y="-367" font-family="Helvetica,sans-Serif" font-size="10.00">mutex</text>
</g>
<!-- Node3&#45;&gt;Node35 -->
<g id="edge43" class="edge"><title>Node3&#45;&gt;Node35</title>
<path fill="none" stroke="midnightblue" d="M328.55,-418.753C340.17,-410.19 357.667,-397.298 371.346,-387.219"/>
<polygon fill="midnightblue" stroke="midnightblue" points="373.709,-389.825 379.684,-381.075 369.557,-384.19 373.709,-389.825"/>
</g>
<!-- Node36 -->
<g id="node36" class="node"><title>Node36</title>
<polygon fill="white" stroke="#bfbfbf" points="431.273,-361 431.273,-381 476.727,-381 476.727,-361 431.273,-361"/>
<text text-anchor="middle" x="454" y="-367" font-family="Helvetica,sans-Serif" font-size="10.00">atomic</text>
</g>
<!-- Node3&#45;&gt;Node36 -->
<g id="edge44" class="edge"><title>Node3&#45;&gt;Node36</title>
<path fill="none" stroke="midnightblue" d="M338.479,-418.878C361.234,-409.644 396.624,-395.283 422.239,-384.889"/>
<polygon fill="midnightblue" stroke="midnightblue" points="423.58,-388.121 431.53,-381.118 420.948,-381.635 423.58,-388.121"/>
</g>
<!-- Node5 -->
<g id="node5" class="node"><title>Node5</title>
<g id="a_node5"><a xlink:href="__config_8h.xhtml" target="_top" xlink:title="_config.h">
<polygon fill="white" stroke="black" points="384.707,-117 384.707,-137 441.293,-137 441.293,-117 384.707,-117"/>
<text text-anchor="middle" x="413" y="-123" font-family="Helvetica,sans-Serif" font-size="10.00">_config.h</text>
</a>
</g>
</g>
<!-- Node4&#45;&gt;Node5 -->
<g id="edge4" class="edge"><title>Node4&#45;&gt;Node5</title>
<path fill="none" stroke="midnightblue" d="M442.22,-174.753C437.277,-166.843 430.023,-155.237 423.98,-145.568"/>
<polygon fill="midnightblue" stroke="midnightblue" points="426.94,-143.7 418.672,-137.075 421.004,-147.41 426.94,-143.7"/>
</g>
<!-- Node8 -->
<g id="node8" class="node"><title>Node8</title>
<polygon fill="white" stroke="#bfbfbf" points="459.158,-117 459.158,-137 506.842,-137 506.842,-117 459.158,-117"/>
<text text-anchor="middle" x="483" y="-123" font-family="Helvetica,sans-Serif" font-size="10.00">stdlib.h</text>
</g>
<!-- Node4&#45;&gt;Node8 -->
<g id="edge7" class="edge"><title>Node4&#45;&gt;Node8</title>
<path fill="none" stroke="midnightblue" d="M453.78,-174.753C458.723,-166.843 465.977,-155.237 472.02,-145.568"/>
<polygon fill="midnightblue" stroke="midnightblue" points="474.996,-147.41 477.328,-137.075 469.06,-143.7 474.996,-147.41"/>
</g>
<!-- Node6 -->
<g id="node6" class="node"><title>Node6</title>
<g id="a_node6"><a xlink:href="__platform_8h.xhtml" target="_top" xlink:title="_platform.h">
<polygon fill="white" stroke="black" points="379.988,-59 379.988,-79 446.012,-79 446.012,-59 379.988,-59"/>
<text text-anchor="middle" x="413" y="-65" font-family="Helvetica,sans-Serif" font-size="10.00">_platform.h</text>
</a>
</g>
</g>
<!-- Node5&#45;&gt;Node6 -->
<g id="edge5" class="edge"><title>Node5&#45;&gt;Node6</title>
<path fill="none" stroke="midnightblue" d="M413,-116.753C413,-109.25 413,-98.4238 413,-89.0781"/>
<polygon fill="midnightblue" stroke="midnightblue" points="416.5,-89.0752 413,-79.0752 409.5,-89.0752 416.5,-89.0752"/>
</g>
<!-- Node7 -->
<g id="node7" class="node"><title>Node7</title>
<g id="a_node7"><a xlink:href="__compiler_8h.xhtml" target="_top" xlink:title="_compiler.h">
<polygon fill="white" stroke="black" points="379.429,-1 379.429,-21 446.571,-21 446.571,-1 379.429,-1"/>
<text text-anchor="middle" x="413" y="-7" font-family="Helvetica,sans-Serif" font-size="10.00">_compiler.h</text>
</a>
</g>
</g>
<!-- Node6&#45;&gt;Node7 -->
<g id="edge6" class="edge"><title>Node6&#45;&gt;Node7</title>
<path fill="none" stroke="midnightblue" d="M413,-58.7527C413,-51.2504 413,-40.4238 413,-31.0781"/>
<polygon fill="midnightblue" stroke="midnightblue" points="416.5,-31.0752 413,-21.0752 409.5,-31.0752 416.5,-31.0752"/>
</g>
<!-- Node13&#45;&gt;Node4 -->
<g id="edge13" class="edge"><title>Node13&#45;&gt;Node4</title>
<path fill="none" stroke="midnightblue" d="M291.881,-296.997C319.193,-288.688 357.736,-274.514 387,-254 406.788,-240.129 424.631,-218.679 435.834,-203.587"/>
<polygon fill="midnightblue" stroke="midnightblue" points="438.914,-205.299 441.909,-195.136 433.23,-201.213 438.914,-205.299"/>
</g>
<!-- Node14 -->
<g id="node14" class="node"><title>Node14</title>
<polygon fill="white" stroke="#bfbfbf" points="194.815,-233 194.815,-253 309.185,-253 309.185,-233 194.815,-233"/>
<text text-anchor="middle" x="252" y="-239" font-family="Helvetica,sans-Serif" font-size="10.00">ePub3/xml/xmlstring.h</text>
</g>
<!-- Node13&#45;&gt;Node14 -->
<g id="edge14" class="edge"><title>Node13&#45;&gt;Node14</title>
<path fill="none" stroke="midnightblue" d="M257.115,-296.852C256.264,-288.06 254.951,-274.498 253.869,-263.313"/>
<polygon fill="midnightblue" stroke="midnightblue" points="257.336,-262.802 252.889,-253.186 250.369,-263.477 257.336,-262.802"/>
</g>
<!-- Node15 -->
<g id="node15" class="node"><title>Node15</title>
<polygon fill="white" stroke="#bfbfbf" points="327.219,-233 327.219,-253 378.781,-253 378.781,-233 327.219,-233"/>
<text text-anchor="middle" x="353" y="-239" font-family="Helvetica,sans-Serif" font-size="10.00">sstream</text>
</g>
<!-- Node13&#45;&gt;Node15 -->
<g id="edge15" class="edge"><title>Node13&#45;&gt;Node15</title>
<path fill="none" stroke="midnightblue" d="M272.018,-296.852C287.313,-286.87 312.032,-270.737 330.142,-258.918"/>
<polygon fill="midnightblue" stroke="midnightblue" points="332.463,-261.582 338.925,-253.186 328.638,-255.72 332.463,-261.582"/>
</g>
<!-- Node16 -->
<g id="node16" class="node"><title>Node16</title>
<polygon fill="white" stroke="#bfbfbf" points="586.943,-175 586.943,-195 639.057,-195 639.057,-175 586.943,-175"/>
<text text-anchor="middle" x="613" y="-181" font-family="Helvetica,sans-Serif" font-size="10.00">memory</text>
</g>
<!-- Node13&#45;&gt;Node16 -->
<g id="edge16" class="edge"><title>Node13&#45;&gt;Node16</title>
<path fill="none" stroke="midnightblue" d="M287.907,-296.938C319.526,-287.147 370.717,-270.695 414,-254 436.652,-245.263 441.252,-240.484 464,-232 502.059,-217.806 546.688,-204.449 577.112,-195.823"/>
<polygon fill="midnightblue" stroke="midnightblue" points="578.175,-199.16 586.855,-193.085 576.281,-192.421 578.175,-199.16"/>
</g>
<!-- Node17 -->
<g id="node17" class="node"><title>Node17</title>
<polygon fill="white" stroke="#bfbfbf" points="520.384,-233 520.384,-253 563.616,-253 563.616,-233 520.384,-233"/>
<text text-anchor="middle" x="542" y="-239" font-family="Helvetica,sans-Serif" font-size="10.00">vector</text>
</g>
<!-- Node13&#45;&gt;Node17 -->
<g id="edge17" class="edge"><title>Node13&#45;&gt;Node17</title>
<path fill="none" stroke="midnightblue" d="M310.232,-296.99C359.451,-288.113 435.394,-273.422 510.03,-254.04"/>
<polygon fill="midnightblue" stroke="midnightblue" points="511.29,-257.328 520.072,-251.401 509.511,-250.557 511.29,-257.328"/>
</g>
<!-- Node13&#45;&gt;Node18 -->
<g id="edge18" class="edge"><title>Node13&#45;&gt;Node18</title>
<path fill="none" stroke="midnightblue" d="M296.784,-296.929C337.45,-287.193 403.09,-270.843 459,-254 460.466,-253.558 461.969,-253.09 463.481,-252.606"/>
<polygon fill="midnightblue" stroke="midnightblue" points="464.947,-255.806 473.32,-249.314 462.726,-249.168 464.947,-255.806"/>
</g>
<!-- Node19&#45;&gt;Node13 -->
<g id="edge20" class="edge"><title>Node19&#45;&gt;Node13</title>
<path fill="none" stroke="midnightblue" d="M566.508,-360.985C501.273,-349.781 390.078,-330.684 320.508,-318.735"/>
<polygon fill="midnightblue" stroke="midnightblue" points="321.004,-315.269 310.556,-317.026 319.819,-322.168 321.004,-315.269"/>
</g>
<!-- Node20 -->
<g id="node20" class="node"><title>Node20</title>
<g id="a_node20"><a xlink:href="integer__sequence_8h.xhtml" target="_top" xlink:title="ePub3/utilities/integer\l_sequence.h">
<polygon fill="white" stroke="black" points="563.192,-291 563.192,-323 674.808,-323 674.808,-291 563.192,-291"/>
<text text-anchor="start" x="571.192" y="-309" font-family="Helvetica,sans-Serif" font-size="10.00">ePub3/utilities/integer</text>
<text text-anchor="middle" x="619" y="-297" font-family="Helvetica,sans-Serif" font-size="10.00">_sequence.h</text>
</a>
</g>
</g>
<!-- Node19&#45;&gt;Node20 -->
<g id="edge21" class="edge"><title>Node19&#45;&gt;Node20</title>
<path fill="none" stroke="midnightblue" d="M619,-360.852C619,-353.629 619,-343.185 619,-333.486"/>
<polygon fill="midnightblue" stroke="midnightblue" points="622.5,-333.44 619,-323.44 615.5,-333.44 622.5,-333.44"/>
</g>
<!-- Node21 -->
<g id="node21" class="node"><title>Node21</title>
<g id="a_node21"><a xlink:href="string__view_8h.xhtml" target="_top" xlink:title="ePub3/utilities/string\l_view.h">
<polygon fill="white" stroke="black" points="818.254,-291 818.254,-323 923.746,-323 923.746,-291 818.254,-291"/>
<text text-anchor="start" x="826.254" y="-309" font-family="Helvetica,sans-Serif" font-size="10.00">ePub3/utilities/string</text>
<text text-anchor="middle" x="871" y="-297" font-family="Helvetica,sans-Serif" font-size="10.00">_view.h</text>
</a>
</g>
</g>
<!-- Node19&#45;&gt;Node21 -->
<g id="edge23" class="edge"><title>Node19&#45;&gt;Node21</title>
<path fill="none" stroke="midnightblue" d="M657.253,-360.917C693.628,-352.24 750.131,-338.66 808.488,-324.109"/>
<polygon fill="midnightblue" stroke="midnightblue" points="809.395,-327.49 818.249,-321.671 807.698,-320.699 809.395,-327.49"/>
</g>
<!-- Node23 -->
<g id="node23" class="node"><title>Node23</title>
<polygon fill="white" stroke="#bfbfbf" points="1119.77,-233 1119.77,-253 1160.23,-253 1160.23,-233 1119.77,-233"/>
<text text-anchor="middle" x="1140" y="-239" font-family="Helvetica,sans-Serif" font-size="10.00">string</text>
</g>
<!-- Node19&#45;&gt;Node23 -->
<g id="edge32" class="edge"><title>Node19&#45;&gt;Node23</title>
<path fill="none" stroke="midnightblue" d="M681.803,-361.072C684.911,-360.695 687.99,-360.335 691,-360 738.651,-354.7 1084.66,-355.273 1121,-324 1138.2,-309.195 1141.37,-281.92 1141.29,-263.376"/>
<polygon fill="midnightblue" stroke="midnightblue" points="1144.78,-263.016 1140.93,-253.148 1137.79,-263.267 1144.78,-263.016"/>
</g>
<!-- Node28 -->
<g id="node28" class="node"><title>Node28</title>
<polygon fill="white" stroke="#bfbfbf" points="692.438,-297 692.438,-317 739.562,-317 739.562,-297 692.438,-297"/>
<text text-anchor="middle" x="716" y="-303" font-family="Helvetica,sans-Serif" font-size="10.00">iterator</text>
</g>
<!-- Node19&#45;&gt;Node28 -->
<g id="edge33" class="edge"><title>Node19&#45;&gt;Node28</title>
<path fill="none" stroke="midnightblue" d="M633.313,-360.852C649.073,-350.778 674.633,-334.441 693.168,-322.594"/>
<polygon fill="midnightblue" stroke="midnightblue" points="695.088,-325.521 701.629,-317.186 691.318,-319.622 695.088,-325.521"/>
</g>
<!-- Node29 -->
<g id="node29" class="node"><title>Node29</title>
<polygon fill="white" stroke="#bfbfbf" points="757.936,-297 757.936,-317 800.064,-317 800.064,-297 757.936,-297"/>
<text text-anchor="middle" x="779" y="-303" font-family="Helvetica,sans-Serif" font-size="10.00">locale</text>
</g>
<!-- Node19&#45;&gt;Node29 -->
<g id="edge34" class="edge"><title>Node19&#45;&gt;Node29</title>
<path fill="none" stroke="midnightblue" d="M647.864,-360.938C674.292,-352.353 714.302,-338.626 748,-324 749.792,-323.222 751.624,-322.387 753.458,-321.52"/>
<polygon fill="midnightblue" stroke="midnightblue" points="755.062,-324.631 762.466,-317.053 751.952,-318.36 755.062,-324.631"/>
</g>
<!-- Node19&#45;&gt;Node17 -->
<g id="edge35" class="edge"><title>Node19&#45;&gt;Node17</title>
<path fill="none" stroke="midnightblue" d="M598.245,-360.864C583.432,-353.215 564.365,-340.834 554,-324 542.752,-305.733 540.655,-280.783 540.792,-263.628"/>
<polygon fill="midnightblue" stroke="midnightblue" points="544.306,-263.293 541.16,-253.176 537.311,-263.047 544.306,-263.293"/>
</g>
<!-- Node30 -->
<g id="node30" class="node"><title>Node30</title>
<polygon fill="white" stroke="#bfbfbf" points="941.766,-297 941.766,-317 1042.23,-317 1042.23,-297 941.766,-297"/>
<text text-anchor="middle" x="992" y="-303" font-family="Helvetica,sans-Serif" font-size="10.00">REGEX_INCLUDE</text>
</g>
<!-- Node19&#45;&gt;Node30 -->
<g id="edge36" class="edge"><title>Node19&#45;&gt;Node30</title>
<path fill="none" stroke="midnightblue" d="M681.798,-361.165C766.09,-349.246 908.062,-328.934 932,-324 938.167,-322.729 944.643,-321.205 950.966,-319.61"/>
<polygon fill="midnightblue" stroke="midnightblue" points="951.916,-322.979 960.71,-317.07 950.151,-316.205 951.916,-322.979"/>
</g>
<!-- Node31 -->
<g id="node31" class="node"><title>Node31</title>
<polygon fill="white" stroke="#bfbfbf" points="1060.27,-297 1060.27,-317 1095.73,-317 1095.73,-297 1060.27,-297"/>
<text text-anchor="middle" x="1078" y="-303" font-family="Helvetica,sans-Serif" font-size="10.00">map</text>
</g>
<!-- Node19&#45;&gt;Node31 -->
<g id="edge37" class="edge"><title>Node19&#45;&gt;Node31</title>
<path fill="none" stroke="midnightblue" d="M681.81,-361.132C684.916,-360.739 687.993,-360.359 691,-360 850.664,-340.936 898.229,-374.171 1051,-324 1052.71,-323.439 1054.42,-322.757 1056.12,-321.994"/>
<polygon fill="midnightblue" stroke="midnightblue" points="1058.21,-324.841 1065.37,-317.025 1054.9,-318.675 1058.21,-324.841"/>
</g>
<!-- Node32 -->
<g id="node32" class="node"><title>Node32</title>
<polygon fill="white" stroke="#bfbfbf" points="369.599,-297 369.599,-317 428.401,-317 428.401,-297 369.599,-297"/>
<text text-anchor="middle" x="399" y="-303" font-family="Helvetica,sans-Serif" font-size="10.00">stdexcept</text>
</g>
<!-- Node19&#45;&gt;Node32 -->
<g id="edge38" class="edge"><title>Node19&#45;&gt;Node32</title>
<path fill="none" stroke="midnightblue" d="M576.458,-360.966C539.468,-352.691 484.641,-339.409 438,-324 435.038,-323.021 431.981,-321.925 428.943,-320.777"/>
<polygon fill="midnightblue" stroke="midnightblue" points="430.029,-317.443 419.442,-317.018 427.453,-323.952 430.029,-317.443"/>
</g>
<!-- Node24 -->
<g id="node24" class="node"><title>Node24</title>
<polygon fill="white" stroke="#bfbfbf" points="1040.61,-233 1040.61,-253 1079.39,-253 1079.39,-233 1040.61,-233"/>
<text text-anchor="middle" x="1060" y="-239" font-family="Helvetica,sans-Serif" font-size="10.00">limits</text>
</g>
<!-- Node19&#45;&gt;Node24 -->
<g id="edge39" class="edge"><title>Node19&#45;&gt;Node24</title>
<path fill="none" stroke="midnightblue" d="M681.805,-361.085C684.912,-360.704 687.99,-360.34 691,-360 736.772,-354.83 1072.87,-357.956 1104,-324 1121.71,-304.676 1098.18,-276.934 1079.3,-259.713"/>
<polygon fill="midnightblue" stroke="midnightblue" points="1081.46,-256.959 1071.62,-253.033 1076.87,-262.239 1081.46,-256.959"/>
</g>
<!-- Node33 -->
<g id="node33" class="node"><title>Node33</title>
<polygon fill="white" stroke="#bfbfbf" points="446.761,-297 446.761,-317 507.239,-317 507.239,-297 446.761,-297"/>
<text text-anchor="middle" x="477" y="-303" font-family="Helvetica,sans-Serif" font-size="10.00">utf8/utf8.h</text>
</g>
<!-- Node19&#45;&gt;Node33 -->
<g id="edge40" class="edge"><title>Node19&#45;&gt;Node33</title>
<path fill="none" stroke="midnightblue" d="M598.352,-360.985C574.374,-350.516 534.612,-333.154 507.173,-321.174"/>
<polygon fill="midnightblue" stroke="midnightblue" points="508.238,-317.82 497.673,-317.026 505.437,-324.235 508.238,-317.82"/>
</g>
<!-- Node20&#45;&gt;Node4 -->
<g id="edge22" class="edge"><title>Node20&#45;&gt;Node4</title>
<path fill="none" stroke="midnightblue" d="M612.941,-290.883C605.574,-274.286 591.643,-247.888 572,-232 550.346,-214.486 521.377,-203.243 496.884,-196.259"/>
<polygon fill="midnightblue" stroke="midnightblue" points="497.612,-192.83 487.046,-193.609 495.792,-199.589 497.612,-192.83"/>
</g>
<!-- Node22 -->
<g id="node22" class="node"><title>Node22</title>
<polygon fill="white" stroke="#bfbfbf" points="917.934,-233 917.934,-253 980.066,-253 980.066,-233 917.934,-233"/>
<text text-anchor="middle" x="949" y="-239" font-family="Helvetica,sans-Serif" font-size="10.00">type_traits</text>
</g>
<!-- Node21&#45;&gt;Node22 -->
<g id="edge24" class="edge"><title>Node21&#45;&gt;Node22</title>
<path fill="none" stroke="midnightblue" d="M889.882,-290.992C901.782,-281.533 917.123,-269.338 929.195,-259.742"/>
<polygon fill="midnightblue" stroke="midnightblue" points="931.662,-262.253 937.312,-253.29 927.306,-256.773 931.662,-262.253"/>
</g>
<!-- Node21&#45;&gt;Node23 -->
<g id="edge25" class="edge"><title>Node21&#45;&gt;Node23</title>
<path fill="none" stroke="midnightblue" d="M924.07,-292.178C927.089,-291.431 930.081,-290.701 933,-290 995.599,-274.972 1069.27,-259.01 1109.67,-250.403"/>
<polygon fill="midnightblue" stroke="midnightblue" points="1110.62,-253.78 1119.67,-248.278 1109.16,-246.933 1110.62,-253.78"/>
</g>
<!-- Node21&#45;&gt;Node24 -->
<g id="edge26" class="edge"><title>Node21&#45;&gt;Node24</title>
<path fill="none" stroke="midnightblue" d="M916.752,-290.992C952.283,-279.336 1000.48,-263.527 1030.91,-253.544"/>
<polygon fill="midnightblue" stroke="midnightblue" points="1032.09,-256.839 1040.5,-250.396 1029.91,-250.188 1032.09,-256.839"/>
</g>
<!-- Node25 -->
<g id="node25" class="node"><title>Node25</title>
<polygon fill="white" stroke="#bfbfbf" points="769.828,-233 769.828,-253 824.172,-253 824.172,-233 769.828,-233"/>
<text text-anchor="middle" x="797" y="-239" font-family="Helvetica,sans-Serif" font-size="10.00">iostream</text>
</g>
<!-- Node21&#45;&gt;Node25 -->
<g id="edge27" class="edge"><title>Node21&#45;&gt;Node25</title>
<path fill="none" stroke="midnightblue" d="M853.087,-290.992C841.797,-281.533 827.242,-269.338 815.789,-259.742"/>
<polygon fill="midnightblue" stroke="midnightblue" points="818.002,-257.03 808.089,-253.29 813.506,-262.395 818.002,-257.03"/>
</g>
<!-- Node26 -->
<g id="node26" class="node"><title>Node26</title>
<polygon fill="white" stroke="#bfbfbf" points="842.436,-233 842.436,-253 899.564,-253 899.564,-233 842.436,-233"/>
<text text-anchor="middle" x="871" y="-239" font-family="Helvetica,sans-Serif" font-size="10.00">algorithm</text>
</g>
<!-- Node21&#45;&gt;Node26 -->
<g id="edge28" class="edge"><title>Node21&#45;&gt;Node26</title>
<path fill="none" stroke="midnightblue" d="M871,-290.992C871,-282.726 871,-272.373 871,-263.489"/>
<polygon fill="midnightblue" stroke="midnightblue" points="874.5,-263.29 871,-253.29 867.5,-263.29 874.5,-263.29"/>
</g>
<!-- Node27 -->
<g id="node27" class="node"><title>Node27</title>
<g id="a_node27"><a xlink:href="____strhash_8h.xhtml" target="_top" xlink:title="__strhash.h">
<polygon fill="white" stroke="black" points="619.872,-233 619.872,-253 688.128,-253 688.128,-233 619.872,-233"/>
<text text-anchor="middle" x="654" y="-239" font-family="Helvetica,sans-Serif" font-size="10.00">__strhash.h</text>
</a>
</g>
</g>
<!-- Node21&#45;&gt;Node27 -->
<g id="edge29" class="edge"><title>Node21&#45;&gt;Node27</title>
<path fill="none" stroke="midnightblue" d="M818.47,-290.992C780.682,-280.195 730.421,-265.835 695.448,-255.842"/>
<polygon fill="midnightblue" stroke="midnightblue" points="696.141,-252.4 685.565,-253.018 694.218,-259.131 696.141,-252.4"/>
</g>
<!-- Node27&#45;&gt;Node4 -->
<g id="edge30" class="edge"><title>Node27&#45;&gt;Node4</title>
<path fill="none" stroke="midnightblue" d="M620.444,-232.878C585.175,-223.29 529.572,-208.175 491.082,-197.712"/>
<polygon fill="midnightblue" stroke="midnightblue" points="491.768,-194.271 481.2,-195.025 489.932,-201.026 491.768,-194.271"/>
</g>
<!-- Node27&#45;&gt;Node16 -->
<g id="edge31" class="edge"><title>Node27&#45;&gt;Node16</title>
<path fill="none" stroke="midnightblue" d="M647.23,-232.753C641.379,-224.761 632.766,-212.998 625.644,-203.27"/>
<polygon fill="midnightblue" stroke="midnightblue" points="628.376,-201.076 619.644,-195.075 622.728,-205.211 628.376,-201.076"/>
</g>
</g>
</svg>
