<?xml version="1.0" encoding="UTF-8" standalone="no"?>
<!DOCTYPE svg PUBLIC "-//W3C//DTD SVG 1.1//EN"
 "http://www.w3.org/Graphics/SVG/1.1/DTD/svg11.dtd">
<!-- Generated by graphviz version 2.30.0 (20130114.0426)
 -->
<!-- Title: /Users/rkwright/Documents/github/readium&#45;sdk&#45;D/ePub3/xml/validation/schema.cpp Pages: 1 -->
<svg width="467pt" height="112pt"
 viewBox="0.00 0.00 467.00 112.00" xmlns="http://www.w3.org/2000/svg" xmlns:xlink="http://www.w3.org/1999/xlink">
<g id="graph0" class="graph" transform="scale(1 1) rotate(0) translate(4 108)">
<title>/Users/rkwright/Documents/github/readium&#45;sdk&#45;D/ePub3/xml/validation/schema.cpp</title>
<polygon fill="white" stroke="white" points="-4,5 -4,-108 464,-108 464,5 -4,5"/>
<!-- Node1 -->
<g id="node1" class="node"><title>Node1</title>
<polygon fill="#bfbfbf" stroke="black" points="168.966,-59 168.966,-103 315.034,-103 315.034,-59 168.966,-59"/>
<text text-anchor="start" x="176.966" y="-89" font-family="Helvetica,sans-Serif" font-size="10.00">/Users/rkwright/Documents</text>
<text text-anchor="start" x="176.966" y="-77" font-family="Helvetica,sans-Serif" font-size="10.00">/github/readium&#45;sdk&#45;D/ePub3</text>
<text text-anchor="middle" x="242" y="-65" font-family="Helvetica,sans-Serif" font-size="10.00">/xml/validation/schema.cpp</text>
</g>
<!-- Node2 -->
<g id="node2" class="node"><title>Node2</title>
<polygon fill="white" stroke="#bfbfbf" points="-0.689453,-1 -0.689453,-21 108.689,-21 108.689,-1 -0.689453,-1"/>
<text text-anchor="middle" x="54" y="-7" font-family="Helvetica,sans-Serif" font-size="10.00">ePub3/xml/schema.h</text>
</g>
<!-- Node1&#45;&gt;Node2 -->
<g id="edge1" class="edge"><title>Node1&#45;&gt;Node2</title>
<path fill="none" stroke="midnightblue" d="M183.803,-58.9501C152.63,-47.6747 115.281,-34.1653 88.6659,-24.5387"/>
<polygon fill="midnightblue" stroke="midnightblue" points="89.6207,-21.1622 79.0264,-21.0521 87.2397,-27.7449 89.6207,-21.1622"/>
</g>
<!-- Node3 -->
<g id="node3" class="node"><title>Node3</title>
<polygon fill="white" stroke="#bfbfbf" points="126.86,-1 126.86,-21 245.14,-21 245.14,-1 126.86,-1"/>
<text text-anchor="middle" x="186" y="-7" font-family="Helvetica,sans-Serif" font-size="10.00">ePub3/xml/document.h</text>
</g>
<!-- Node1&#45;&gt;Node3 -->
<g id="edge2" class="edge"><title>Node1&#45;&gt;Node3</title>
<path fill="none" stroke="midnightblue" d="M224.588,-58.8571C216.705,-49.2845 207.508,-38.1172 200.071,-29.0862"/>
<polygon fill="midnightblue" stroke="midnightblue" points="202.639,-26.6983 193.58,-21.2039 197.235,-31.1482 202.639,-26.6983"/>
</g>
<!-- Node4 -->
<g id="node4" class="node"><title>Node4</title>
<polygon fill="white" stroke="#bfbfbf" points="263.047,-1 263.047,-21 332.953,-21 332.953,-1 263.047,-1"/>
<text text-anchor="middle" x="298" y="-7" font-family="Helvetica,sans-Serif" font-size="10.00">libxml/tree.h</text>
</g>
<!-- Node1&#45;&gt;Node4 -->
<g id="edge3" class="edge"><title>Node1&#45;&gt;Node4</title>
<path fill="none" stroke="midnightblue" d="M259.412,-58.8571C267.295,-49.2845 276.492,-38.1172 283.929,-29.0862"/>
<polygon fill="midnightblue" stroke="midnightblue" points="286.765,-31.1482 290.42,-21.2039 281.361,-26.6983 286.765,-31.1482"/>
</g>
<!-- Node5 -->
<g id="node5" class="node"><title>Node5</title>
<polygon fill="white" stroke="#bfbfbf" points="350.879,-1 350.879,-21 459.121,-21 459.121,-1 350.879,-1"/>
<text text-anchor="middle" x="405" y="-7" font-family="Helvetica,sans-Serif" font-size="10.00">libxml/xmlschemas.h</text>
</g>
<!-- Node1&#45;&gt;Node5 -->
<g id="edge4" class="edge"><title>Node1&#45;&gt;Node5</title>
<path fill="none" stroke="midnightblue" d="M292.681,-58.8571C319.339,-47.736 351.156,-34.4625 374.109,-24.887"/>
<polygon fill="midnightblue" stroke="midnightblue" points="375.481,-28.107 383.363,-21.0266 372.786,-21.6466 375.481,-28.107"/>
</g>
</g>
</svg>
