<?xml version="1.0" encoding="UTF-8" standalone="no"?>
<!DOCTYPE svg PUBLIC "-//W3C//DTD SVG 1.1//EN"
 "http://www.w3.org/Graphics/SVG/1.1/DTD/svg11.dtd">
<!-- Generated by graphviz version 2.30.0 (20130114.0426)
 -->
<!-- Title: /Users/rkwright/Documents/github/readium&#45;sdk&#45;D/ePub3/ePub/spine.h Pages: 1 -->
<svg width="1504pt" height="542pt"
 viewBox="0.00 0.00 1504.00 542.00" xmlns="http://www.w3.org/2000/svg" xmlns:xlink="http://www.w3.org/1999/xlink">
<g id="graph0" class="graph" transform="scale(1 1) rotate(0) translate(4 538)">
<title>/Users/rkwright/Documents/github/readium&#45;sdk&#45;D/ePub3/ePub/spine.h</title>
<polygon fill="white" stroke="white" points="-4,5 -4,-538 1501,-538 1501,5 -4,5"/>
<!-- Node1 -->
<g id="node1" class="node"><title>Node1</title>
<polygon fill="#bfbfbf" stroke="black" points="1116.97,-489 1116.97,-533 1263.03,-533 1263.03,-489 1116.97,-489"/>
<text text-anchor="start" x="1124.97" y="-519" font-family="Helvetica,sans-Serif" font-size="10.00">/Users/rkwright/Documents</text>
<text text-anchor="start" x="1124.97" y="-507" font-family="Helvetica,sans-Serif" font-size="10.00">/github/readium&#45;sdk&#45;D/ePub3</text>
<text text-anchor="middle" x="1190" y="-495" font-family="Helvetica,sans-Serif" font-size="10.00">/ePub/spine.h</text>
</g>
<!-- Node2 -->
<g id="node2" class="node"><title>Node2</title>
<polygon fill="white" stroke="#bfbfbf" points="964.079,-425 964.079,-445 1047.92,-445 1047.92,-425 964.079,-425"/>
<text text-anchor="middle" x="1006" y="-431" font-family="Helvetica,sans-Serif" font-size="10.00">ePub3/epub3.h</text>
</g>
<!-- Node1&#45;&gt;Node2 -->
<g id="edge1" class="edge"><title>Node1&#45;&gt;Node2</title>
<path fill="none" stroke="midnightblue" d="M1137.77,-488.993C1105.59,-476.053 1065.39,-459.883 1037.9,-448.83"/>
<polygon fill="midnightblue" stroke="midnightblue" points="1038.97,-445.489 1028.39,-445.004 1036.36,-451.983 1038.97,-445.489"/>
</g>
<!-- Node3 -->
<g id="node3" class="node"><title>Node3</title>
<g id="a_node3"><a xlink:href="utfstring_8h.xhtml" target="_top" xlink:title="ePub3/utilities/utfstring.h">
<polygon fill="white" stroke="black" points="795.525,-361 795.525,-381 920.475,-381 920.475,-361 795.525,-361"/>
<text text-anchor="middle" x="858" y="-367" font-family="Helvetica,sans-Serif" font-size="10.00">ePub3/utilities/utfstring.h</text>
</a>
</g>
</g>
<!-- Node1&#45;&gt;Node3 -->
<g id="edge2" class="edge"><title>Node1&#45;&gt;Node3</title>
<path fill="none" stroke="midnightblue" d="M1152.06,-488.824C1134.28,-478.404 1113.08,-465.253 1095,-452 1076.45,-438.405 1076.47,-428.468 1056,-418 1017.2,-398.164 969.775,-386.762 931.063,-380.272"/>
<polygon fill="midnightblue" stroke="midnightblue" points="931.334,-376.771 920.906,-378.647 930.228,-383.683 931.334,-376.771"/>
</g>
<!-- Node29 -->
<g id="node29" class="node"><title>Node29</title>
<g id="a_node29"><a xlink:href="xml__identifiable_8h.xhtml" target="_top" xlink:title="ePub3/utilities/xml\l_identifiable.h">
<polygon fill="white" stroke="black" points="1103.7,-419 1103.7,-451 1200.3,-451 1200.3,-419 1103.7,-419"/>
<text text-anchor="start" x="1111.7" y="-437" font-family="Helvetica,sans-Serif" font-size="10.00">ePub3/utilities/xml</text>
<text text-anchor="middle" x="1152" y="-425" font-family="Helvetica,sans-Serif" font-size="10.00">_identifiable.h</text>
</a>
</g>
</g>
<!-- Node1&#45;&gt;Node29 -->
<g id="edge34" class="edge"><title>Node1&#45;&gt;Node29</title>
<path fill="none" stroke="midnightblue" d="M1179.21,-488.993C1174.65,-480.113 1169.31,-469.711 1164.57,-460.486"/>
<polygon fill="midnightblue" stroke="midnightblue" points="1167.6,-458.708 1159.91,-451.412 1161.37,-461.906 1167.6,-458.708"/>
</g>
<!-- Node30 -->
<g id="node30" class="node"><title>Node30</title>
<polygon fill="white" stroke="#bfbfbf" points="1256.23,-425 1256.23,-445 1381.77,-445 1381.77,-425 1256.23,-425"/>
<text text-anchor="middle" x="1319" y="-431" font-family="Helvetica,sans-Serif" font-size="10.00">ePub3/property_holder.h</text>
</g>
<!-- Node1&#45;&gt;Node30 -->
<g id="edge36" class="edge"><title>Node1&#45;&gt;Node30</title>
<path fill="none" stroke="midnightblue" d="M1226.62,-488.993C1248.39,-476.507 1275.39,-461.014 1294.57,-450.012"/>
<polygon fill="midnightblue" stroke="midnightblue" points="1296.37,-453.016 1303.3,-445.004 1292.89,-446.944 1296.37,-453.016"/>
</g>
<!-- Node13 -->
<g id="node13" class="node"><title>Node13</title>
<polygon fill="white" stroke="#bfbfbf" points="1168.38,-233 1168.38,-253 1211.62,-253 1211.62,-233 1168.38,-233"/>
<text text-anchor="middle" x="1190" y="-239" font-family="Helvetica,sans-Serif" font-size="10.00">vector</text>
</g>
<!-- Node1&#45;&gt;Node13 -->
<g id="edge37" class="edge"><title>Node1&#45;&gt;Node13</title>
<path fill="none" stroke="midnightblue" d="M1198.69,-488.916C1202.7,-478.085 1207,-464.556 1209,-452 1220.03,-382.879 1203.63,-299.736 1194.89,-263.017"/>
<polygon fill="midnightblue" stroke="midnightblue" points="1198.25,-262.049 1192.46,-253.178 1191.46,-263.725 1198.25,-262.049"/>
</g>
<!-- Node31 -->
<g id="node31" class="node"><title>Node31</title>
<polygon fill="white" stroke="#bfbfbf" points="1399.69,-425 1399.69,-445 1496.31,-445 1496.31,-425 1399.69,-425"/>
<text text-anchor="middle" x="1448" y="-431" font-family="Helvetica,sans-Serif" font-size="10.00">ePub3/xml/node.h</text>
</g>
<!-- Node1&#45;&gt;Node31 -->
<g id="edge38" class="edge"><title>Node1&#45;&gt;Node31</title>
<path fill="none" stroke="midnightblue" d="M1263.24,-488.993C1309.74,-475.656 1368.2,-458.887 1406.77,-447.826"/>
<polygon fill="midnightblue" stroke="midnightblue" points="1407.96,-451.126 1416.61,-445.004 1406.03,-444.397 1407.96,-451.126"/>
</g>
<!-- Node4 -->
<g id="node4" class="node"><title>Node4</title>
<g id="a_node4"><a xlink:href="basic_8h.xhtml" target="_top" xlink:title="ePub3/utilities/basic.h">
<polygon fill="white" stroke="black" points="467.638,-297 467.638,-317 580.362,-317 580.362,-297 467.638,-297"/>
<text text-anchor="middle" x="524" y="-303" font-family="Helvetica,sans-Serif" font-size="10.00">ePub3/utilities/basic.h</text>
</a>
</g>
</g>
<!-- Node3&#45;&gt;Node4 -->
<g id="edge3" class="edge"><title>Node3&#45;&gt;Node4</title>
<path fill="none" stroke="midnightblue" d="M797.936,-360.998C743.267,-352.503 660.431,-338.879 589,-324 582.35,-322.615 575.347,-321.028 568.501,-319.404"/>
<polygon fill="midnightblue" stroke="midnightblue" points="569.183,-315.968 558.64,-317.017 567.536,-322.771 569.183,-315.968"/>
</g>
<!-- Node15 -->
<g id="node15" class="node"><title>Node15</title>
<g id="a_node15"><a xlink:href="integer__sequence_8h.xhtml" target="_top" xlink:title="ePub3/utilities/integer\l_sequence.h">
<polygon fill="white" stroke="black" points="598.192,-291 598.192,-323 709.808,-323 709.808,-291 598.192,-291"/>
<text text-anchor="start" x="606.192" y="-309" font-family="Helvetica,sans-Serif" font-size="10.00">ePub3/utilities/integer</text>
<text text-anchor="middle" x="654" y="-297" font-family="Helvetica,sans-Serif" font-size="10.00">_sequence.h</text>
</a>
</g>
</g>
<!-- Node3&#45;&gt;Node15 -->
<g id="edge14" class="edge"><title>Node3&#45;&gt;Node15</title>
<path fill="none" stroke="midnightblue" d="M828.337,-360.985C798.31,-351.859 751.053,-337.497 713.311,-326.026"/>
<polygon fill="midnightblue" stroke="midnightblue" points="714.025,-322.585 703.44,-323.026 711.99,-329.282 714.025,-322.585"/>
</g>
<!-- Node16 -->
<g id="node16" class="node"><title>Node16</title>
<g id="a_node16"><a xlink:href="string__view_8h.xhtml" target="_top" xlink:title="ePub3/utilities/string\l_view.h">
<polygon fill="white" stroke="black" points="188.254,-291 188.254,-323 293.746,-323 293.746,-291 188.254,-291"/>
<text text-anchor="start" x="196.254" y="-309" font-family="Helvetica,sans-Serif" font-size="10.00">ePub3/utilities/string</text>
<text text-anchor="middle" x="241" y="-297" font-family="Helvetica,sans-Serif" font-size="10.00">_view.h</text>
</a>
</g>
</g>
<!-- Node3&#45;&gt;Node16 -->
<g id="edge16" class="edge"><title>Node3&#45;&gt;Node16</title>
<path fill="none" stroke="midnightblue" d="M795.443,-363.714C677.261,-351.838 422.428,-326.231 303.946,-314.325"/>
<polygon fill="midnightblue" stroke="midnightblue" points="304.241,-310.837 293.941,-313.32 303.541,-317.802 304.241,-310.837"/>
</g>
<!-- Node18 -->
<g id="node18" class="node"><title>Node18</title>
<polygon fill="white" stroke="#bfbfbf" points="-0.226562,-233 -0.226562,-253 40.2266,-253 40.2266,-233 -0.226562,-233"/>
<text text-anchor="middle" x="20" y="-239" font-family="Helvetica,sans-Serif" font-size="10.00">string</text>
</g>
<!-- Node3&#45;&gt;Node18 -->
<g id="edge25" class="edge"><title>Node3&#45;&gt;Node18</title>
<path fill="none" stroke="midnightblue" d="M795.475,-368.924C650.32,-365.918 294.108,-355.474 179,-324 126.821,-309.733 71.6556,-277.57 41.9865,-258.658"/>
<polygon fill="midnightblue" stroke="midnightblue" points="43.5817,-255.521 33.2857,-253.022 39.7763,-261.396 43.5817,-255.521"/>
</g>
<!-- Node23 -->
<g id="node23" class="node"><title>Node23</title>
<polygon fill="white" stroke="#bfbfbf" points="727.438,-297 727.438,-317 774.562,-317 774.562,-297 727.438,-297"/>
<text text-anchor="middle" x="751" y="-303" font-family="Helvetica,sans-Serif" font-size="10.00">iterator</text>
</g>
<!-- Node3&#45;&gt;Node23 -->
<g id="edge26" class="edge"><title>Node3&#45;&gt;Node23</title>
<path fill="none" stroke="midnightblue" d="M842.212,-360.852C824.668,-350.686 796.118,-334.143 775.63,-322.272"/>
<polygon fill="midnightblue" stroke="midnightblue" points="777.26,-319.171 766.853,-317.186 773.751,-325.228 777.26,-319.171"/>
</g>
<!-- Node24 -->
<g id="node24" class="node"><title>Node24</title>
<polygon fill="white" stroke="#bfbfbf" points="792.936,-297 792.936,-317 835.064,-317 835.064,-297 792.936,-297"/>
<text text-anchor="middle" x="814" y="-303" font-family="Helvetica,sans-Serif" font-size="10.00">locale</text>
</g>
<!-- Node3&#45;&gt;Node24 -->
<g id="edge27" class="edge"><title>Node3&#45;&gt;Node24</title>
<path fill="none" stroke="midnightblue" d="M851.508,-360.852C844.943,-351.602 834.632,-337.072 826.48,-325.586"/>
<polygon fill="midnightblue" stroke="midnightblue" points="829.161,-323.315 820.519,-317.186 823.452,-327.367 829.161,-323.315"/>
</g>
<!-- Node3&#45;&gt;Node13 -->
<g id="edge28" class="edge"><title>Node3&#45;&gt;Node13</title>
<path fill="none" stroke="midnightblue" d="M920.499,-368.886C1001.17,-366.124 1135.42,-356.607 1171,-324 1187.73,-308.666 1191.01,-281.519 1191.09,-263.148"/>
<polygon fill="midnightblue" stroke="midnightblue" points="1194.59,-262.931 1190.82,-253.028 1187.59,-263.118 1194.59,-262.931"/>
</g>
<!-- Node25 -->
<g id="node25" class="node"><title>Node25</title>
<polygon fill="white" stroke="#bfbfbf" points="852.766,-297 852.766,-317 953.234,-317 953.234,-297 852.766,-297"/>
<text text-anchor="middle" x="903" y="-303" font-family="Helvetica,sans-Serif" font-size="10.00">REGEX_INCLUDE</text>
</g>
<!-- Node3&#45;&gt;Node25 -->
<g id="edge29" class="edge"><title>Node3&#45;&gt;Node25</title>
<path fill="none" stroke="midnightblue" d="M864.64,-360.852C871.353,-351.602 881.899,-337.072 890.236,-325.586"/>
<polygon fill="midnightblue" stroke="midnightblue" points="893.291,-327.335 896.333,-317.186 887.626,-323.223 893.291,-327.335"/>
</g>
<!-- Node26 -->
<g id="node26" class="node"><title>Node26</title>
<polygon fill="white" stroke="#bfbfbf" points="971.273,-297 971.273,-317 1006.73,-317 1006.73,-297 971.273,-297"/>
<text text-anchor="middle" x="989" y="-303" font-family="Helvetica,sans-Serif" font-size="10.00">map</text>
</g>
<!-- Node3&#45;&gt;Node26 -->
<g id="edge30" class="edge"><title>Node3&#45;&gt;Node26</title>
<path fill="none" stroke="midnightblue" d="M880.676,-360.883C901.991,-352.101 934.621,-338.105 962,-324 963.144,-323.41 964.307,-322.794 965.476,-322.159"/>
<polygon fill="midnightblue" stroke="midnightblue" points="967.364,-325.112 974.323,-317.124 963.901,-319.028 967.364,-325.112"/>
</g>
<!-- Node27 -->
<g id="node27" class="node"><title>Node27</title>
<polygon fill="white" stroke="#bfbfbf" points="1024.6,-297 1024.6,-317 1083.4,-317 1083.4,-297 1024.6,-297"/>
<text text-anchor="middle" x="1054" y="-303" font-family="Helvetica,sans-Serif" font-size="10.00">stdexcept</text>
</g>
<!-- Node3&#45;&gt;Node27 -->
<g id="edge31" class="edge"><title>Node3&#45;&gt;Node27</title>
<path fill="none" stroke="midnightblue" d="M892.63,-360.97C924.663,-352.355 973.454,-338.564 1015,-324 1017.88,-322.991 1020.85,-321.888 1023.81,-320.746"/>
<polygon fill="midnightblue" stroke="midnightblue" points="1025.11,-323.996 1033.1,-317.042 1022.52,-317.494 1025.11,-323.996"/>
</g>
<!-- Node19 -->
<g id="node19" class="node"><title>Node19</title>
<polygon fill="white" stroke="#bfbfbf" points="372.613,-233 372.613,-253 411.387,-253 411.387,-233 372.613,-233"/>
<text text-anchor="middle" x="392" y="-239" font-family="Helvetica,sans-Serif" font-size="10.00">limits</text>
</g>
<!-- Node3&#45;&gt;Node19 -->
<g id="edge32" class="edge"><title>Node3&#45;&gt;Node19</title>
<path fill="none" stroke="midnightblue" d="M795.264,-368.38C697.878,-364.936 515.629,-354.511 459,-324 432.788,-309.877 412.617,-280.915 401.534,-261.988"/>
<polygon fill="midnightblue" stroke="midnightblue" points="404.52,-260.156 396.583,-253.137 398.411,-263.573 404.52,-260.156"/>
</g>
<!-- Node28 -->
<g id="node28" class="node"><title>Node28</title>
<polygon fill="white" stroke="#bfbfbf" points="1101.76,-297 1101.76,-317 1162.24,-317 1162.24,-297 1101.76,-297"/>
<text text-anchor="middle" x="1132" y="-303" font-family="Helvetica,sans-Serif" font-size="10.00">utf8/utf8.h</text>
</g>
<!-- Node3&#45;&gt;Node28 -->
<g id="edge33" class="edge"><title>Node3&#45;&gt;Node28</title>
<path fill="none" stroke="midnightblue" d="M920.345,-360.991C967.932,-353.337 1034.82,-340.894 1092,-324 1095.33,-323.016 1098.76,-321.864 1102.16,-320.635"/>
<polygon fill="midnightblue" stroke="midnightblue" points="1103.42,-323.902 1111.5,-317.052 1100.91,-317.367 1103.42,-323.902"/>
</g>
<!-- Node5 -->
<g id="node5" class="node"><title>Node5</title>
<g id="a_node5"><a xlink:href="base_8h.xhtml" target="_top" xlink:title="ePub3/base.h">
<polygon fill="white" stroke="black" points="687.141,-175 687.141,-195 764.859,-195 764.859,-175 687.141,-175"/>
<text text-anchor="middle" x="726" y="-181" font-family="Helvetica,sans-Serif" font-size="10.00">ePub3/base.h</text>
</a>
</g>
</g>
<!-- Node4&#45;&gt;Node5 -->
<g id="edge4" class="edge"><title>Node4&#45;&gt;Node5</title>
<path fill="none" stroke="midnightblue" d="M559.077,-296.908C610.45,-283.459 700.679,-259.28 706,-254 718.808,-241.291 723.505,-220.833 725.181,-205.672"/>
<polygon fill="midnightblue" stroke="midnightblue" points="728.699,-205.561 725.958,-195.326 721.719,-205.036 728.699,-205.561"/>
</g>
<!-- Node10 -->
<g id="node10" class="node"><title>Node10</title>
<polygon fill="white" stroke="#bfbfbf" points="466.815,-233 466.815,-253 581.185,-253 581.185,-233 466.815,-233"/>
<text text-anchor="middle" x="524" y="-239" font-family="Helvetica,sans-Serif" font-size="10.00">ePub3/xml/xmlstring.h</text>
</g>
<!-- Node4&#45;&gt;Node10 -->
<g id="edge9" class="edge"><title>Node4&#45;&gt;Node10</title>
<path fill="none" stroke="midnightblue" d="M524,-296.852C524,-288.06 524,-274.498 524,-263.313"/>
<polygon fill="midnightblue" stroke="midnightblue" points="527.5,-263.186 524,-253.186 520.5,-263.186 527.5,-263.186"/>
</g>
<!-- Node11 -->
<g id="node11" class="node"><title>Node11</title>
<polygon fill="white" stroke="#bfbfbf" points="599.219,-233 599.219,-253 650.781,-253 650.781,-233 599.219,-233"/>
<text text-anchor="middle" x="625" y="-239" font-family="Helvetica,sans-Serif" font-size="10.00">sstream</text>
</g>
<!-- Node4&#45;&gt;Node11 -->
<g id="edge10" class="edge"><title>Node4&#45;&gt;Node11</title>
<path fill="none" stroke="midnightblue" d="M538.903,-296.852C555.388,-286.732 582.17,-270.292 601.489,-258.432"/>
<polygon fill="midnightblue" stroke="midnightblue" points="603.345,-261.4 610.036,-253.186 599.683,-255.435 603.345,-261.4"/>
</g>
<!-- Node12 -->
<g id="node12" class="node"><title>Node12</title>
<polygon fill="white" stroke="#bfbfbf" points="353.943,-175 353.943,-195 406.057,-195 406.057,-175 353.943,-175"/>
<text text-anchor="middle" x="380" y="-181" font-family="Helvetica,sans-Serif" font-size="10.00">memory</text>
</g>
<!-- Node4&#45;&gt;Node12 -->
<g id="edge11" class="edge"><title>Node4&#45;&gt;Node12</title>
<path fill="none" stroke="midnightblue" d="M512.176,-296.968C498.859,-286.731 476.643,-269.454 458,-254 437.228,-236.78 413.982,-216.361 398.315,-202.423"/>
<polygon fill="midnightblue" stroke="midnightblue" points="400.246,-199.455 390.454,-195.408 395.585,-204.677 400.246,-199.455"/>
</g>
<!-- Node4&#45;&gt;Node13 -->
<g id="edge12" class="edge"><title>Node4&#45;&gt;Node13</title>
<path fill="none" stroke="midnightblue" d="M556.186,-296.964C566.584,-294.345 578.213,-291.728 589,-290 804.71,-255.438 1068.28,-246.655 1158.2,-244.59"/>
<polygon fill="midnightblue" stroke="midnightblue" points="1158.37,-248.088 1168.29,-244.371 1158.21,-241.089 1158.37,-248.088"/>
</g>
<!-- Node14 -->
<g id="node14" class="node"><title>Node14</title>
<polygon fill="white" stroke="#bfbfbf" points="668.5,-233 668.5,-253 697.5,-253 697.5,-233 668.5,-233"/>
<text text-anchor="middle" x="682.611" y="-239" font-family="Helvetica,sans-Serif" font-size="10.00">list</text>
</g>
<!-- Node4&#45;&gt;Node14 -->
<g id="edge13" class="edge"><title>Node4&#45;&gt;Node14</title>
<path fill="none" stroke="midnightblue" d="M547.975,-296.99C575.026,-286.772 620.301,-269.512 659,-254 659.094,-253.962 659.189,-253.924 659.283,-253.886"/>
<polygon fill="midnightblue" stroke="midnightblue" points="660.372,-257.223 668.303,-250.198 657.722,-250.744 660.372,-257.223"/>
</g>
<!-- Node6 -->
<g id="node6" class="node"><title>Node6</title>
<g id="a_node6"><a xlink:href="__config_8h.xhtml" target="_top" xlink:title="_config.h">
<polygon fill="white" stroke="black" points="662.707,-117 662.707,-137 719.293,-137 719.293,-117 662.707,-117"/>
<text text-anchor="middle" x="691" y="-123" font-family="Helvetica,sans-Serif" font-size="10.00">_config.h</text>
</a>
</g>
</g>
<!-- Node5&#45;&gt;Node6 -->
<g id="edge5" class="edge"><title>Node5&#45;&gt;Node6</title>
<path fill="none" stroke="midnightblue" d="M720.22,-174.753C715.277,-166.843 708.023,-155.237 701.98,-145.568"/>
<polygon fill="midnightblue" stroke="midnightblue" points="704.94,-143.7 696.672,-137.075 699.004,-147.41 704.94,-143.7"/>
</g>
<!-- Node9 -->
<g id="node9" class="node"><title>Node9</title>
<polygon fill="white" stroke="#bfbfbf" points="737.158,-117 737.158,-137 784.842,-137 784.842,-117 737.158,-117"/>
<text text-anchor="middle" x="761" y="-123" font-family="Helvetica,sans-Serif" font-size="10.00">stdlib.h</text>
</g>
<!-- Node5&#45;&gt;Node9 -->
<g id="edge8" class="edge"><title>Node5&#45;&gt;Node9</title>
<path fill="none" stroke="midnightblue" d="M731.78,-174.753C736.723,-166.843 743.977,-155.237 750.02,-145.568"/>
<polygon fill="midnightblue" stroke="midnightblue" points="752.996,-147.41 755.328,-137.075 747.06,-143.7 752.996,-147.41"/>
</g>
<!-- Node7 -->
<g id="node7" class="node"><title>Node7</title>
<g id="a_node7"><a xlink:href="__platform_8h.xhtml" target="_top" xlink:title="_platform.h">
<polygon fill="white" stroke="black" points="657.988,-59 657.988,-79 724.012,-79 724.012,-59 657.988,-59"/>
<text text-anchor="middle" x="691" y="-65" font-family="Helvetica,sans-Serif" font-size="10.00">_platform.h</text>
</a>
</g>
</g>
<!-- Node6&#45;&gt;Node7 -->
<g id="edge6" class="edge"><title>Node6&#45;&gt;Node7</title>
<path fill="none" stroke="midnightblue" d="M691,-116.753C691,-109.25 691,-98.4238 691,-89.0781"/>
<polygon fill="midnightblue" stroke="midnightblue" points="694.5,-89.0752 691,-79.0752 687.5,-89.0752 694.5,-89.0752"/>
</g>
<!-- Node8 -->
<g id="node8" class="node"><title>Node8</title>
<g id="a_node8"><a xlink:href="__compiler_8h.xhtml" target="_top" xlink:title="_compiler.h">
<polygon fill="white" stroke="black" points="657.429,-1 657.429,-21 724.571,-21 724.571,-1 657.429,-1"/>
<text text-anchor="middle" x="691" y="-7" font-family="Helvetica,sans-Serif" font-size="10.00">_compiler.h</text>
</a>
</g>
</g>
<!-- Node7&#45;&gt;Node8 -->
<g id="edge7" class="edge"><title>Node7&#45;&gt;Node8</title>
<path fill="none" stroke="midnightblue" d="M691,-58.7527C691,-51.2504 691,-40.4238 691,-31.0781"/>
<polygon fill="midnightblue" stroke="midnightblue" points="694.5,-31.0752 691,-21.0752 687.5,-31.0752 694.5,-31.0752"/>
</g>
<!-- Node15&#45;&gt;Node5 -->
<g id="edge15" class="edge"><title>Node15&#45;&gt;Node5</title>
<path fill="none" stroke="midnightblue" d="M696.811,-290.864C713.368,-282.669 730.572,-270.717 740,-254 748.576,-238.793 742.965,-219.026 736.477,-204.727"/>
<polygon fill="midnightblue" stroke="midnightblue" points="739.414,-202.778 731.787,-195.424 733.163,-205.929 739.414,-202.778"/>
</g>
<!-- Node17 -->
<g id="node17" class="node"><title>Node17</title>
<polygon fill="white" stroke="#bfbfbf" points="133.934,-233 133.934,-253 196.066,-253 196.066,-233 133.934,-233"/>
<text text-anchor="middle" x="165" y="-239" font-family="Helvetica,sans-Serif" font-size="10.00">type_traits</text>
</g>
<!-- Node16&#45;&gt;Node17 -->
<g id="edge17" class="edge"><title>Node16&#45;&gt;Node17</title>
<path fill="none" stroke="midnightblue" d="M222.603,-290.992C211.008,-281.533 196.06,-269.338 184.297,-259.742"/>
<polygon fill="midnightblue" stroke="midnightblue" points="186.349,-256.9 176.388,-253.29 181.924,-262.324 186.349,-256.9"/>
</g>
<!-- Node16&#45;&gt;Node18 -->
<g id="edge18" class="edge"><title>Node16&#45;&gt;Node18</title>
<path fill="none" stroke="midnightblue" d="M188.163,-292.716C151.71,-283.317 101.954,-270.029 50.2191,-254.249"/>
<polygon fill="midnightblue" stroke="midnightblue" points="51.1258,-250.867 40.5388,-251.274 49.0693,-257.558 51.1258,-250.867"/>
</g>
<!-- Node16&#45;&gt;Node19 -->
<g id="edge19" class="edge"><title>Node16&#45;&gt;Node19</title>
<path fill="none" stroke="midnightblue" d="M277.553,-290.992C303.789,-280.219 338.665,-265.899 362.995,-255.91"/>
<polygon fill="midnightblue" stroke="midnightblue" points="364.479,-259.084 372.4,-252.048 361.82,-252.608 364.479,-259.084"/>
</g>
<!-- Node20 -->
<g id="node20" class="node"><title>Node20</title>
<polygon fill="white" stroke="#bfbfbf" points="213.828,-233 213.828,-253 268.172,-253 268.172,-233 213.828,-233"/>
<text text-anchor="middle" x="241" y="-239" font-family="Helvetica,sans-Serif" font-size="10.00">iostream</text>
</g>
<!-- Node16&#45;&gt;Node20 -->
<g id="edge20" class="edge"><title>Node16&#45;&gt;Node20</title>
<path fill="none" stroke="midnightblue" d="M241,-290.992C241,-282.726 241,-272.373 241,-263.489"/>
<polygon fill="midnightblue" stroke="midnightblue" points="244.5,-263.29 241,-253.29 237.5,-263.29 244.5,-263.29"/>
</g>
<!-- Node21 -->
<g id="node21" class="node"><title>Node21</title>
<polygon fill="white" stroke="#bfbfbf" points="58.436,-233 58.436,-253 115.564,-253 115.564,-233 58.436,-233"/>
<text text-anchor="middle" x="87" y="-239" font-family="Helvetica,sans-Serif" font-size="10.00">algorithm</text>
</g>
<!-- Node16&#45;&gt;Node21 -->
<g id="edge21" class="edge"><title>Node16&#45;&gt;Node21</title>
<path fill="none" stroke="midnightblue" d="M203.721,-290.992C177.788,-280.551 143.577,-266.778 118.904,-256.845"/>
<polygon fill="midnightblue" stroke="midnightblue" points="120.209,-253.597 109.625,-253.109 117.594,-260.09 120.209,-253.597"/>
</g>
<!-- Node22 -->
<g id="node22" class="node"><title>Node22</title>
<g id="a_node22"><a xlink:href="____strhash_8h.xhtml" target="_top" xlink:title="__strhash.h">
<polygon fill="white" stroke="black" points="285.872,-233 285.872,-253 354.128,-253 354.128,-233 285.872,-233"/>
<text text-anchor="middle" x="320" y="-239" font-family="Helvetica,sans-Serif" font-size="10.00">__strhash.h</text>
</a>
</g>
</g>
<!-- Node16&#45;&gt;Node22 -->
<g id="edge22" class="edge"><title>Node16&#45;&gt;Node22</title>
<path fill="none" stroke="midnightblue" d="M260.124,-290.992C272.176,-281.533 287.714,-269.338 299.941,-259.742"/>
<polygon fill="midnightblue" stroke="midnightblue" points="302.456,-262.218 308.162,-253.29 298.135,-256.711 302.456,-262.218"/>
</g>
<!-- Node22&#45;&gt;Node5 -->
<g id="edge23" class="edge"><title>Node22&#45;&gt;Node5</title>
<path fill="none" stroke="midnightblue" d="M354.523,-233.821C357.719,-233.164 360.914,-232.545 364,-232 475.113,-212.362 606.839,-197.783 676.713,-190.73"/>
<polygon fill="midnightblue" stroke="midnightblue" points="677.372,-194.182 686.974,-189.704 676.675,-187.217 677.372,-194.182"/>
</g>
<!-- Node22&#45;&gt;Node12 -->
<g id="edge24" class="edge"><title>Node22&#45;&gt;Node12</title>
<path fill="none" stroke="midnightblue" d="M329.908,-232.753C338.82,-224.435 352.11,-212.031 362.762,-202.089"/>
<polygon fill="midnightblue" stroke="midnightblue" points="365.354,-204.457 370.277,-195.075 360.578,-199.34 365.354,-204.457"/>
</g>
<!-- Node29&#45;&gt;Node3 -->
<g id="edge35" class="edge"><title>Node29&#45;&gt;Node3</title>
<path fill="none" stroke="midnightblue" d="M1103.66,-421.243C1099.05,-420.112 1094.44,-419.013 1090,-418 1031.82,-404.735 964.921,-391.706 917.96,-382.92"/>
<polygon fill="midnightblue" stroke="midnightblue" points="918.427,-379.447 907.955,-381.056 917.145,-386.328 918.427,-379.447"/>
</g>
</g>
</svg>
