<?xml version="1.0" encoding="UTF-8" standalone="no"?>
<!DOCTYPE svg PUBLIC "-//W3C//DTD SVG 1.1//EN"
 "http://www.w3.org/Graphics/SVG/1.1/DTD/svg11.dtd">
<!-- Generated by graphviz version 2.30.0 (20130114.0426)
 -->
<!-- Title: __future_deferred_shared_state&lt; _Rp &amp;, _Fp &gt; Pages: 1 -->
<svg width="138pt" height="240pt"
 viewBox="0.00 0.00 138.00 240.00" xmlns="http://www.w3.org/2000/svg" xmlns:xlink="http://www.w3.org/1999/xlink">
<g id="graph0" class="graph" transform="scale(1 1) rotate(0) translate(4 236)">
<title>__future_deferred_shared_state&lt; _Rp &amp;, _Fp &gt;</title>
<polygon fill="white" stroke="white" points="-4,5 -4,-236 135,-236 135,5 -4,5"/>
<!-- Node1 -->
<g id="node1" class="node"><title>Node1</title>
<polygon fill="#bfbfbf" stroke="black" points="-0.819824,-1 -0.819824,-33 130.82,-33 130.82,-1 -0.819824,-1"/>
<text text-anchor="start" x="7.18018" y="-19" font-family="Helvetica,sans-Serif" font-size="10.00">__future_deferred_shared</text>
<text text-anchor="middle" x="65" y="-7" font-family="Helvetica,sans-Serif" font-size="10.00">_state&lt; _Rp &amp;, _Fp &gt;</text>
</g>
<!-- Node2 -->
<g id="node2" class="node"><title>Node2</title>
<g id="a_node2"><a xlink:href="struct____shared__state.xhtml" target="_top" xlink:title="__shared_state\&lt; _Rp &amp; \&gt;">
<polygon fill="white" stroke="black" points="0.0151367,-71 0.0151367,-91 129.985,-91 129.985,-71 0.0151367,-71"/>
<text text-anchor="middle" x="65" y="-77" font-family="Helvetica,sans-Serif" font-size="10.00">__shared_state&lt; _Rp &amp; &gt;</text>
</a>
</g>
</g>
<!-- Node2&#45;&gt;Node1 -->
<g id="edge1" class="edge"><title>Node2&#45;&gt;Node1</title>
<path fill="none" stroke="midnightblue" d="M65,-60.7747C65,-51.9863 65,-41.715 65,-33.4404"/>
<polygon fill="midnightblue" stroke="midnightblue" points="61.5001,-60.8517 65,-70.8517 68.5001,-60.8517 61.5001,-60.8517"/>
</g>
<!-- Node3 -->
<g id="node3" class="node"><title>Node3</title>
<g id="a_node3"><a xlink:href="struct____shared__state__base.xhtml" target="_top" xlink:title="__shared_state_base">
<polygon fill="white" stroke="black" points="8.90674,-129 8.90674,-149 121.093,-149 121.093,-129 8.90674,-129"/>
<text text-anchor="middle" x="65" y="-135" font-family="Helvetica,sans-Serif" font-size="10.00">__shared_state_base</text>
</a>
</g>
</g>
<!-- Node3&#45;&gt;Node2 -->
<g id="edge2" class="edge"><title>Node3&#45;&gt;Node2</title>
<path fill="none" stroke="midnightblue" d="M65,-118.707C65,-109.338 65,-98.5262 65,-91.0752"/>
<polygon fill="midnightblue" stroke="midnightblue" points="61.5001,-118.753 65,-128.753 68.5001,-118.753 61.5001,-118.753"/>
</g>
<!-- Node4 -->
<g id="node4" class="node"><title>Node4</title>
<polygon fill="white" stroke="#bfbfbf" points="8.49902,-187 8.49902,-231 121.501,-231 121.501,-187 8.49902,-187"/>
<text text-anchor="start" x="16.499" y="-217" font-family="Helvetica,sans-Serif" font-size="10.00">std::enable_shared</text>
<text text-anchor="start" x="16.499" y="-205" font-family="Helvetica,sans-Serif" font-size="10.00">_from_this&lt; __shared</text>
<text text-anchor="middle" x="65" y="-193" font-family="Helvetica,sans-Serif" font-size="10.00">_state_base &gt;</text>
</g>
<!-- Node4&#45;&gt;Node3 -->
<g id="edge3" class="edge"><title>Node4&#45;&gt;Node3</title>
<path fill="none" stroke="midnightblue" d="M65,-176.68C65,-166.665 65,-156.338 65,-149.204"/>
<polygon fill="midnightblue" stroke="midnightblue" points="61.5001,-176.857 65,-186.857 68.5001,-176.857 61.5001,-176.857"/>
</g>
</g>
</svg>
