<?xml version="1.0" encoding="UTF-8" standalone="no"?>
<!DOCTYPE svg PUBLIC "-//W3C//DTD SVG 1.1//EN"
 "http://www.w3.org/Graphics/SVG/1.1/DTD/svg11.dtd">
<!-- Generated by graphviz version 2.30.0 (20130114.0426)
 -->
<!-- Title: __future_executor_continuation_shared_state&lt; _Fut, _Rp, _Fp &gt; Pages: 1 -->
<svg width="170pt" height="240pt"
 viewBox="0.00 0.00 170.00 240.00" xmlns="http://www.w3.org/2000/svg" xmlns:xlink="http://www.w3.org/1999/xlink">
<g id="graph0" class="graph" transform="scale(1 1) rotate(0) translate(4 236)">
<title>__future_executor_continuation_shared_state&lt; _Fut, _Rp, _Fp &gt;</title>
<polygon fill="white" stroke="white" points="-4,5 -4,-236 167,-236 167,5 -4,5"/>
<!-- Node1 -->
<g id="node1" class="node"><title>Node1</title>
<polygon fill="#bfbfbf" stroke="black" points="-0.657227,-1 -0.657227,-33 162.657,-33 162.657,-1 -0.657227,-1"/>
<text text-anchor="start" x="7.34277" y="-19" font-family="Helvetica,sans-Serif" font-size="10.00">__future_executor_continuation</text>
<text text-anchor="middle" x="81" y="-7" font-family="Helvetica,sans-Serif" font-size="10.00">_shared_state&lt; _Fut, _Rp, _Fp &gt;</text>
</g>
<!-- Node2 -->
<g id="node2" class="node"><title>Node2</title>
<g id="a_node2"><a xlink:href="struct____shared__state.xhtml" target="_top" xlink:title="__shared_state\&lt; _Rp \&gt;">
<polygon fill="white" stroke="black" points="20.7393,-71 20.7393,-91 141.261,-91 141.261,-71 20.7393,-71"/>
<text text-anchor="middle" x="81" y="-77" font-family="Helvetica,sans-Serif" font-size="10.00">__shared_state&lt; _Rp &gt;</text>
</a>
</g>
</g>
<!-- Node2&#45;&gt;Node1 -->
<g id="edge1" class="edge"><title>Node2&#45;&gt;Node1</title>
<path fill="none" stroke="midnightblue" d="M81,-60.7747C81,-51.9863 81,-41.715 81,-33.4404"/>
<polygon fill="midnightblue" stroke="midnightblue" points="77.5001,-60.8517 81,-70.8517 84.5001,-60.8517 77.5001,-60.8517"/>
</g>
<!-- Node3 -->
<g id="node3" class="node"><title>Node3</title>
<g id="a_node3"><a xlink:href="struct____shared__state__base.xhtml" target="_top" xlink:title="__shared_state_base">
<polygon fill="white" stroke="black" points="24.9067,-129 24.9067,-149 137.093,-149 137.093,-129 24.9067,-129"/>
<text text-anchor="middle" x="81" y="-135" font-family="Helvetica,sans-Serif" font-size="10.00">__shared_state_base</text>
</a>
</g>
</g>
<!-- Node3&#45;&gt;Node2 -->
<g id="edge2" class="edge"><title>Node3&#45;&gt;Node2</title>
<path fill="none" stroke="midnightblue" d="M81,-118.707C81,-109.338 81,-98.5262 81,-91.0752"/>
<polygon fill="midnightblue" stroke="midnightblue" points="77.5001,-118.753 81,-128.753 84.5001,-118.753 77.5001,-118.753"/>
</g>
<!-- Node4 -->
<g id="node4" class="node"><title>Node4</title>
<polygon fill="white" stroke="#bfbfbf" points="24.499,-187 24.499,-231 137.501,-231 137.501,-187 24.499,-187"/>
<text text-anchor="start" x="32.499" y="-217" font-family="Helvetica,sans-Serif" font-size="10.00">std::enable_shared</text>
<text text-anchor="start" x="32.499" y="-205" font-family="Helvetica,sans-Serif" font-size="10.00">_from_this&lt; __shared</text>
<text text-anchor="middle" x="81" y="-193" font-family="Helvetica,sans-Serif" font-size="10.00">_state_base &gt;</text>
</g>
<!-- Node4&#45;&gt;Node3 -->
<g id="edge3" class="edge"><title>Node4&#45;&gt;Node3</title>
<path fill="none" stroke="midnightblue" d="M81,-176.68C81,-166.665 81,-156.338 81,-149.204"/>
<polygon fill="midnightblue" stroke="midnightblue" points="77.5001,-176.857 81,-186.857 84.5001,-176.857 77.5001,-176.857"/>
</g>
</g>
</svg>
