<?xml version="1.0" encoding="UTF-8" standalone="no"?>
<!DOCTYPE svg PUBLIC "-//W3C//DTD SVG 1.1//EN"
 "http://www.w3.org/Graphics/SVG/1.1/DTD/svg11.dtd">
<!-- Generated by graphviz version 2.30.0 (20130114.0426)
 -->
<!-- Title: std::uses_allocator&lt; EPUB3_NAMESPACE::promise&lt; _Rp &gt;, _Alloc &gt; Pages: 1 -->
<svg width="174pt" height="112pt"
 viewBox="0.00 0.00 174.00 112.00" xmlns="http://www.w3.org/2000/svg" xmlns:xlink="http://www.w3.org/1999/xlink">
<g id="graph0" class="graph" transform="scale(1 1) rotate(0) translate(4 108)">
<title>std::uses_allocator&lt; EPUB3_NAMESPACE::promise&lt; _Rp &gt;, _Alloc &gt;</title>
<polygon fill="white" stroke="white" points="-4,5 -4,-108 171,-108 171,5 -4,5"/>
<!-- Node1 -->
<g id="node1" class="node"><title>Node1</title>
<polygon fill="#bfbfbf" stroke="black" points="-0.0756836,-1 -0.0756836,-45 166.076,-45 166.076,-1 -0.0756836,-1"/>
<text text-anchor="start" x="7.92432" y="-31" font-family="Helvetica,sans-Serif" font-size="10.00">std::uses_allocator</text>
<text text-anchor="start" x="7.92432" y="-19" font-family="Helvetica,sans-Serif" font-size="10.00">&lt; EPUB3_NAMESPACE::promise</text>
<text text-anchor="middle" x="83" y="-7" font-family="Helvetica,sans-Serif" font-size="10.00">&lt; _Rp &gt;, _Alloc &gt;</text>
</g>
<!-- Node2 -->
<g id="node2" class="node"><title>Node2</title>
<polygon fill="white" stroke="#bfbfbf" points="54.1528,-83 54.1528,-103 111.847,-103 111.847,-83 54.1528,-83"/>
<text text-anchor="middle" x="83" y="-89" font-family="Helvetica,sans-Serif" font-size="10.00">true_type</text>
</g>
<!-- Node2&#45;&gt;Node1 -->
<g id="edge1" class="edge"><title>Node2&#45;&gt;Node1</title>
<path fill="none" stroke="midnightblue" d="M83,-72.6289C83,-64.0025 83,-53.8236 83,-45.0137"/>
<polygon fill="midnightblue" stroke="midnightblue" points="79.5001,-72.8292 83,-82.8292 86.5001,-72.8293 79.5001,-72.8292"/>
</g>
</g>
</svg>
