<?xml version="1.0" encoding="UTF-8" standalone="no"?>
<!DOCTYPE svg PUBLIC "-//W3C//DTD SVG 1.1//EN"
 "http://www.w3.org/Graphics/SVG/1.1/DTD/svg11.dtd">
<!-- Generated by graphviz version 2.30.0 (20130114.0426)
 -->
<!-- Title: __task_base_shared_state&lt; _Rp(_Args...)&gt; Pages: 1 -->
<svg width="752pt" height="103pt"
 viewBox="0.00 0.00 752.00 103.00" xmlns="http://www.w3.org/2000/svg" xmlns:xlink="http://www.w3.org/1999/xlink">
<g id="graph0" class="graph" transform="scale(1 1) rotate(0) translate(4 99)">
<title>__task_base_shared_state&lt; _Rp(_Args...)&gt;</title>
<polygon fill="white" stroke="white" points="-4,5 -4,-99 749,-99 749,5 -4,5"/>
<!-- Node1 -->
<g id="node1" class="node"><title>Node1</title>
<polygon fill="#bfbfbf" stroke="black" points="456.419,-34 456.419,-66 573.581,-66 573.581,-34 456.419,-34"/>
<text text-anchor="start" x="464.419" y="-52" font-family="Helvetica,sans-Serif" font-size="10.00">__task_base_shared</text>
<text text-anchor="middle" x="515" y="-40" font-family="Helvetica,sans-Serif" font-size="10.00">_state&lt; _Rp(_Args...)&gt;</text>
</g>
<!-- Node5 -->
<g id="node5" class="node"><title>Node5</title>
<g id="a_node5"><a xlink:href="struct____task__shared__state_3_01___fp_00_01___rp_07___args_8_8_8_08_4.xhtml" target="_top" xlink:title="__task_shared_state\l\&lt; _Fp, _Rp(_Args...)\&gt;">
<polygon fill="white" stroke="black" points="620.646,-63 620.646,-95 733.354,-95 733.354,-63 620.646,-63"/>
<text text-anchor="start" x="628.646" y="-81" font-family="Helvetica,sans-Serif" font-size="10.00">__task_shared_state</text>
<text text-anchor="middle" x="677" y="-69" font-family="Helvetica,sans-Serif" font-size="10.00">&lt; _Fp, _Rp(_Args...)&gt;</text>
</a>
</g>
</g>
<!-- Node1&#45;&gt;Node5 -->
<g id="edge4" class="edge"><title>Node1&#45;&gt;Node5</title>
<path fill="none" stroke="midnightblue" d="M583.892,-62.3053C596.087,-64.5157 608.666,-66.7957 620.461,-68.9335"/>
<polygon fill="midnightblue" stroke="midnightblue" points="584.228,-58.8093 573.764,-60.4697 582.979,-65.6971 584.228,-58.8093"/>
</g>
<!-- Node6 -->
<g id="node6" class="node"><title>Node6</title>
<g id="a_node6"><a xlink:href="struct____task__shared__state_3_01std_1_1function_3_01___rp_07___args_8_8_8_08_4_00_01___rp_07___args_8_8_8_08_4.xhtml" target="_top" xlink:title="__task_shared_state\l\&lt; std::function\&lt; _Rp\l(_Args...)\&gt;, _Rp(_Args...)\&gt;">
<polygon fill="white" stroke="black" points="610.091,-0 610.091,-44 743.909,-44 743.909,-0 610.091,-0"/>
<text text-anchor="start" x="618.091" y="-30" font-family="Helvetica,sans-Serif" font-size="10.00">__task_shared_state</text>
<text text-anchor="start" x="618.091" y="-18" font-family="Helvetica,sans-Serif" font-size="10.00">&lt; std::function&lt; _Rp</text>
<text text-anchor="middle" x="677" y="-6" font-family="Helvetica,sans-Serif" font-size="10.00">(_Args...)&gt;, _Rp(_Args...)&gt;</text>
</a>
</g>
</g>
<!-- Node1&#45;&gt;Node6 -->
<g id="edge5" class="edge"><title>Node1&#45;&gt;Node6</title>
<path fill="none" stroke="midnightblue" d="M583.797,-38.1355C592.441,-36.6228 601.28,-35.076 609.897,-33.568"/>
<polygon fill="midnightblue" stroke="midnightblue" points="583.011,-34.7199 573.764,-39.8914 584.217,-41.6151 583.011,-34.7199"/>
</g>
<!-- Node2 -->
<g id="node2" class="node"><title>Node2</title>
<g id="a_node2"><a xlink:href="struct____shared__state.xhtml" target="_top" xlink:title="__shared_state\&lt; _Rp \&gt;">
<polygon fill="white" stroke="black" points="298.739,-40 298.739,-60 419.261,-60 419.261,-40 298.739,-40"/>
<text text-anchor="middle" x="359" y="-46" font-family="Helvetica,sans-Serif" font-size="10.00">__shared_state&lt; _Rp &gt;</text>
</a>
</g>
</g>
<!-- Node2&#45;&gt;Node1 -->
<g id="edge1" class="edge"><title>Node2&#45;&gt;Node1</title>
<path fill="none" stroke="midnightblue" d="M429.579,-50C438.545,-50 447.646,-50 456.39,-50"/>
<polygon fill="midnightblue" stroke="midnightblue" points="429.54,-46.5001 419.54,-50 429.54,-53.5001 429.54,-46.5001"/>
</g>
<!-- Node3 -->
<g id="node3" class="node"><title>Node3</title>
<g id="a_node3"><a xlink:href="struct____shared__state__base.xhtml" target="_top" xlink:title="__shared_state_base">
<polygon fill="white" stroke="black" points="149.907,-40 149.907,-60 262.093,-60 262.093,-40 149.907,-40"/>
<text text-anchor="middle" x="206" y="-46" font-family="Helvetica,sans-Serif" font-size="10.00">__shared_state_base</text>
</a>
</g>
</g>
<!-- Node3&#45;&gt;Node2 -->
<g id="edge2" class="edge"><title>Node3&#45;&gt;Node2</title>
<path fill="none" stroke="midnightblue" d="M272.451,-50C281.134,-50 289.998,-50 298.571,-50"/>
<polygon fill="midnightblue" stroke="midnightblue" points="272.369,-46.5001 262.369,-50 272.369,-53.5001 272.369,-46.5001"/>
</g>
<!-- Node4 -->
<g id="node4" class="node"><title>Node4</title>
<polygon fill="white" stroke="#bfbfbf" points="0.499023,-28 0.499023,-72 113.501,-72 113.501,-28 0.499023,-28"/>
<text text-anchor="start" x="8.49902" y="-58" font-family="Helvetica,sans-Serif" font-size="10.00">std::enable_shared</text>
<text text-anchor="start" x="8.49902" y="-46" font-family="Helvetica,sans-Serif" font-size="10.00">_from_this&lt; __shared</text>
<text text-anchor="middle" x="57" y="-34" font-family="Helvetica,sans-Serif" font-size="10.00">_state_base &gt;</text>
</g>
<!-- Node4&#45;&gt;Node3 -->
<g id="edge3" class="edge"><title>Node4&#45;&gt;Node3</title>
<path fill="none" stroke="midnightblue" d="M123.718,-50C132.442,-50 141.314,-50 149.835,-50"/>
<polygon fill="midnightblue" stroke="midnightblue" points="123.574,-46.5001 113.574,-50 123.574,-53.5001 123.574,-46.5001"/>
</g>
</g>
</svg>
