<?xml version="1.0" encoding="UTF-8" standalone="no"?>
<!DOCTYPE svg PUBLIC "-//W3C//DTD SVG 1.1//EN"
 "http://www.w3.org/Graphics/SVG/1.1/DTD/svg11.dtd">
<!-- Generated by graphviz version 2.30.0 (20130114.0426)
 -->
<!-- Title: __future_executor_continuation_shared_state&lt; _Fut, _Rp, _Fp &gt; Pages: 1 -->
<svg width="256pt" height="268pt"
 viewBox="0.00 0.00 256.00 268.00" xmlns="http://www.w3.org/2000/svg" xmlns:xlink="http://www.w3.org/1999/xlink">
<g id="graph0" class="graph" transform="scale(1 1) rotate(0) translate(4 264)">
<title>__future_executor_continuation_shared_state&lt; _Fut, _Rp, _Fp &gt;</title>
<polygon fill="white" stroke="white" points="-4,5 -4,-264 253,-264 253,5 -4,5"/>
<!-- Node1 -->
<g id="node1" class="node"><title>Node1</title>
<polygon fill="#bfbfbf" stroke="black" points="55.3428,-1 55.3428,-33 218.657,-33 218.657,-1 55.3428,-1"/>
<text text-anchor="start" x="63.3428" y="-19" font-family="Helvetica,sans-Serif" font-size="10.00">__future_executor_continuation</text>
<text text-anchor="middle" x="137" y="-7" font-family="Helvetica,sans-Serif" font-size="10.00">_shared_state&lt; _Fut, _Rp, _Fp &gt;</text>
</g>
<!-- Node2 -->
<g id="node2" class="node"><title>Node2</title>
<g id="a_node2"><a xlink:href="struct____shared__state.xhtml" target="_top" xlink:title="__shared_state\&lt; _Rp \&gt;">
<polygon fill="white" stroke="black" points="6.73926,-83 6.73926,-103 127.261,-103 127.261,-83 6.73926,-83"/>
<text text-anchor="middle" x="67" y="-89" font-family="Helvetica,sans-Serif" font-size="10.00">__shared_state&lt; _Rp &gt;</text>
</a>
</g>
</g>
<!-- Node2&#45;&gt;Node1 -->
<g id="edge1" class="edge"><title>Node2&#45;&gt;Node1</title>
<path fill="none" stroke="midnightblue" d="M82.7447,-75.3556C94.7503,-62.664 111.144,-45.3331 122.761,-33.053"/>
<polygon fill="midnightblue" stroke="midnightblue" points="79.9128,-73.2562 75.5834,-82.9261 84.9981,-78.0666 79.9128,-73.2562"/>
</g>
<!-- Node3 -->
<g id="node3" class="node"><title>Node3</title>
<g id="a_node3"><a xlink:href="struct____shared__state__base.xhtml" target="_top" xlink:title="__shared_state_base">
<polygon fill="white" stroke="black" points="-0.0932617,-149 -0.0932617,-169 112.093,-169 112.093,-149 -0.0932617,-149"/>
<text text-anchor="middle" x="56" y="-155" font-family="Helvetica,sans-Serif" font-size="10.00">__shared_state_base</text>
</a>
</g>
</g>
<!-- Node3&#45;&gt;Node2 -->
<g id="edge2" class="edge"><title>Node3&#45;&gt;Node2</title>
<path fill="none" stroke="midnightblue" d="M59.3283,-138.635C61.3521,-126.86 63.8433,-112.366 65.4269,-103.153"/>
<polygon fill="midnightblue" stroke="midnightblue" points="55.8206,-138.382 57.576,-148.83 62.7194,-139.568 55.8206,-138.382"/>
</g>
<!-- Node4 -->
<g id="node4" class="node"><title>Node4</title>
<polygon fill="white" stroke="#bfbfbf" points="-0.500977,-215 -0.500977,-259 112.501,-259 112.501,-215 -0.500977,-215"/>
<text text-anchor="start" x="7.49902" y="-245" font-family="Helvetica,sans-Serif" font-size="10.00">std::enable_shared</text>
<text text-anchor="start" x="7.49902" y="-233" font-family="Helvetica,sans-Serif" font-size="10.00">_from_this&lt; __shared</text>
<text text-anchor="middle" x="56" y="-221" font-family="Helvetica,sans-Serif" font-size="10.00">_state_base &gt;</text>
</g>
<!-- Node4&#45;&gt;Node3 -->
<g id="edge3" class="edge"><title>Node4&#45;&gt;Node3</title>
<path fill="none" stroke="midnightblue" d="M56,-204.535C56,-191.845 56,-178.153 56,-169.35"/>
<polygon fill="midnightblue" stroke="midnightblue" points="52.5001,-204.83 56,-214.83 59.5001,-204.83 52.5001,-204.83"/>
</g>
<!-- Node5 -->
<g id="node5" class="node"><title>Node5</title>
<g id="a_node5"><a xlink:href="classexecutor.xhtml" target="_top" xlink:title="executor">
<polygon fill="white" stroke="black" points="158.823,-83 158.823,-103 213.177,-103 213.177,-83 158.823,-83"/>
<text text-anchor="middle" x="186" y="-89" font-family="Helvetica,sans-Serif" font-size="10.00">executor</text>
</a>
</g>
</g>
<!-- Node5&#45;&gt;Node1 -->
<g id="edge4" class="edge"><title>Node5&#45;&gt;Node1</title>
<path fill="none" stroke="#9a32cd" stroke-dasharray="5,2" d="M174.251,-74.2566C165.922,-61.6777 154.867,-44.9822 146.968,-33.053"/>
<polygon fill="#9a32cd" stroke="#9a32cd" points="171.552,-76.5207 179.992,-82.9261 177.389,-72.656 171.552,-76.5207"/>
<text text-anchor="middle" x="189.517" y="-54" font-family="Helvetica,sans-Serif" font-size="10.00"> __target_</text>
</g>
<!-- Node6 -->
<g id="node6" class="node"><title>Node6</title>
<polygon fill="white" stroke="#bfbfbf" points="129.862,-143 129.862,-175 248.138,-175 248.138,-143 129.862,-143"/>
<text text-anchor="start" x="137.862" y="-161" font-family="Helvetica,sans-Serif" font-size="10.00">std::enable_shared</text>
<text text-anchor="middle" x="189" y="-149" font-family="Helvetica,sans-Serif" font-size="10.00">_from_this&lt; executor &gt;</text>
</g>
<!-- Node6&#45;&gt;Node5 -->
<g id="edge5" class="edge"><title>Node6&#45;&gt;Node5</title>
<path fill="none" stroke="midnightblue" d="M187.81,-132.611C187.326,-122.286 186.797,-111.001 186.437,-103.313"/>
<polygon fill="midnightblue" stroke="midnightblue" points="184.325,-133.008 188.289,-142.833 191.317,-132.68 184.325,-133.008"/>
</g>
</g>
</svg>
