<?xml version="1.0" encoding="UTF-8" standalone="no"?>
<!DOCTYPE svg PUBLIC "-//W3C//DTD SVG 1.1//EN"
 "http://www.w3.org/Graphics/SVG/1.1/DTD/svg11.dtd">
<!-- Generated by graphviz version 2.30.0 (20130114.0426)
 -->
<!-- Title: std::is_error_code_enum&lt; ePub3::future_errc &gt; Pages: 1 -->
<svg width="122pt" height="112pt"
 viewBox="0.00 0.00 122.00 112.00" xmlns="http://www.w3.org/2000/svg" xmlns:xlink="http://www.w3.org/1999/xlink">
<g id="graph0" class="graph" transform="scale(1 1) rotate(0) translate(4 108)">
<title>std::is_error_code_enum&lt; ePub3::future_errc &gt;</title>
<polygon fill="white" stroke="white" points="-4,5 -4,-108 119,-108 119,5 -4,5"/>
<!-- Node1 -->
<g id="node1" class="node"><title>Node1</title>
<polygon fill="#bfbfbf" stroke="black" points="-0.619141,-1 -0.619141,-45 114.619,-45 114.619,-1 -0.619141,-1"/>
<text text-anchor="start" x="7.38086" y="-31" font-family="Helvetica,sans-Serif" font-size="10.00">std::is_error_code</text>
<text text-anchor="start" x="7.38086" y="-19" font-family="Helvetica,sans-Serif" font-size="10.00">_enum&lt; ePub3::future</text>
<text text-anchor="middle" x="57" y="-7" font-family="Helvetica,sans-Serif" font-size="10.00">_errc &gt;</text>
</g>
<!-- Node2 -->
<g id="node2" class="node"><title>Node2</title>
<polygon fill="white" stroke="#bfbfbf" points="28.1528,-83 28.1528,-103 85.8472,-103 85.8472,-83 28.1528,-83"/>
<text text-anchor="middle" x="57" y="-89" font-family="Helvetica,sans-Serif" font-size="10.00">true_type</text>
</g>
<!-- Node2&#45;&gt;Node1 -->
<g id="edge1" class="edge"><title>Node2&#45;&gt;Node1</title>
<path fill="none" stroke="midnightblue" d="M57,-72.6289C57,-64.0025 57,-53.8236 57,-45.0137"/>
<polygon fill="midnightblue" stroke="midnightblue" points="53.5001,-72.8292 57,-82.8292 60.5001,-72.8293 53.5001,-72.8292"/>
</g>
</g>
</svg>
