<?xml version="1.0" encoding="UTF-8" standalone="no"?>
<!DOCTYPE svg PUBLIC "-//W3C//DTD SVG 1.1//EN"
 "http://www.w3.org/Graphics/SVG/1.1/DTD/svg11.dtd">
<!-- Generated by graphviz version 2.30.0 (20130114.0426)
 -->
<!-- Title: doj::alphanum_less&lt; Ty &gt; Pages: 1 -->
<svg width="110pt" height="112pt"
 viewBox="0.00 0.00 110.00 112.00" xmlns="http://www.w3.org/2000/svg" xmlns:xlink="http://www.w3.org/1999/xlink">
<g id="graph0" class="graph" transform="scale(1 1) rotate(0) translate(4 108)">
<title>doj::alphanum_less&lt; Ty &gt;</title>
<polygon fill="white" stroke="white" points="-4,5 -4,-108 107,-108 107,5 -4,5"/>
<!-- Node1 -->
<g id="node1" class="node"><title>Node1</title>
<polygon fill="#bfbfbf" stroke="black" points="-0.0834961,-1 -0.0834961,-33 102.083,-33 102.083,-1 -0.0834961,-1"/>
<text text-anchor="start" x="7.9165" y="-19" font-family="Helvetica,sans-Serif" font-size="10.00">doj::alphanum_less</text>
<text text-anchor="middle" x="51" y="-7" font-family="Helvetica,sans-Serif" font-size="10.00">&lt; Ty &gt;</text>
</g>
<!-- Node2 -->
<g id="node2" class="node"><title>Node2</title>
<polygon fill="white" stroke="#bfbfbf" points="-0.359375,-71 -0.359375,-103 102.359,-103 102.359,-71 -0.359375,-71"/>
<text text-anchor="start" x="7.64062" y="-89" font-family="Helvetica,sans-Serif" font-size="10.00">std::binary_function</text>
<text text-anchor="middle" x="51" y="-77" font-family="Helvetica,sans-Serif" font-size="10.00">&lt; Ty, Ty, bool &gt;</text>
</g>
<!-- Node2&#45;&gt;Node1 -->
<g id="edge1" class="edge"><title>Node2&#45;&gt;Node1</title>
<path fill="none" stroke="midnightblue" d="M51,-60.6174C51,-51.3378 51,-41.1413 51,-33.0492"/>
<polygon fill="midnightblue" stroke="midnightblue" points="47.5001,-60.9086 51,-70.9086 54.5001,-60.9086 47.5001,-60.9086"/>
</g>
</g>
</svg>
