<?xml version="1.0" encoding="UTF-8" standalone="no"?>
<!DOCTYPE svg PUBLIC "-//W3C//DTD SVG 1.1//EN"
 "http://www.w3.org/Graphics/SVG/1.1/DTD/svg11.dtd">
<!-- Generated by graphviz version 2.30.0 (20130114.0426)
 -->
<!-- Title: __future_async_shared_state&lt; _Rp &amp;, _Fp &gt; Pages: 1 -->
<svg width="136pt" height="310pt"
 viewBox="0.00 0.00 136.00 310.00" xmlns="http://www.w3.org/2000/svg" xmlns:xlink="http://www.w3.org/1999/xlink">
<g id="graph0" class="graph" transform="scale(1 1) rotate(0) translate(4 306)">
<title>__future_async_shared_state&lt; _Rp &amp;, _Fp &gt;</title>
<polygon fill="white" stroke="white" points="-4,5 -4,-306 133,-306 133,5 -4,5"/>
<!-- Node1 -->
<g id="node1" class="node"><title>Node1</title>
<polygon fill="#bfbfbf" stroke="black" points="3.7417,-1 3.7417,-33 124.258,-33 124.258,-1 3.7417,-1"/>
<text text-anchor="start" x="11.7417" y="-19" font-family="Helvetica,sans-Serif" font-size="10.00">__future_async_shared</text>
<text text-anchor="middle" x="64" y="-7" font-family="Helvetica,sans-Serif" font-size="10.00">_state&lt; _Rp &amp;, _Fp &gt;</text>
</g>
<!-- Node2 -->
<g id="node2" class="node"><title>Node2</title>
<g id="a_node2"><a xlink:href="struct____future__async__shared__state__base.xhtml" target="_top" xlink:title="__future_async_shared\l_state_base\&lt; _Rp &amp; \&gt;">
<polygon fill="white" stroke="black" points="3.7417,-71 3.7417,-103 124.258,-103 124.258,-71 3.7417,-71"/>
<text text-anchor="start" x="11.7417" y="-89" font-family="Helvetica,sans-Serif" font-size="10.00">__future_async_shared</text>
<text text-anchor="middle" x="64" y="-77" font-family="Helvetica,sans-Serif" font-size="10.00">_state_base&lt; _Rp &amp; &gt;</text>
</a>
</g>
</g>
<!-- Node2&#45;&gt;Node1 -->
<g id="edge1" class="edge"><title>Node2&#45;&gt;Node1</title>
<path fill="none" stroke="midnightblue" d="M64,-60.6174C64,-51.3378 64,-41.1413 64,-33.0492"/>
<polygon fill="midnightblue" stroke="midnightblue" points="60.5001,-60.9086 64,-70.9086 67.5001,-60.9086 60.5001,-60.9086"/>
</g>
<!-- Node3 -->
<g id="node3" class="node"><title>Node3</title>
<g id="a_node3"><a xlink:href="struct____shared__state.xhtml" target="_top" xlink:title="__shared_state\&lt; _Rp &amp; \&gt;">
<polygon fill="white" stroke="black" points="-0.984863,-141 -0.984863,-161 128.985,-161 128.985,-141 -0.984863,-141"/>
<text text-anchor="middle" x="64" y="-147" font-family="Helvetica,sans-Serif" font-size="10.00">__shared_state&lt; _Rp &amp; &gt;</text>
</a>
</g>
</g>
<!-- Node3&#45;&gt;Node2 -->
<g id="edge2" class="edge"><title>Node3&#45;&gt;Node2</title>
<path fill="none" stroke="midnightblue" d="M64,-130.775C64,-121.986 64,-111.715 64,-103.44"/>
<polygon fill="midnightblue" stroke="midnightblue" points="60.5001,-130.852 64,-140.852 67.5001,-130.852 60.5001,-130.852"/>
</g>
<!-- Node4 -->
<g id="node4" class="node"><title>Node4</title>
<g id="a_node4"><a xlink:href="struct____shared__state__base.xhtml" target="_top" xlink:title="__shared_state_base">
<polygon fill="white" stroke="black" points="7.90674,-199 7.90674,-219 120.093,-219 120.093,-199 7.90674,-199"/>
<text text-anchor="middle" x="64" y="-205" font-family="Helvetica,sans-Serif" font-size="10.00">__shared_state_base</text>
</a>
</g>
</g>
<!-- Node4&#45;&gt;Node3 -->
<g id="edge3" class="edge"><title>Node4&#45;&gt;Node3</title>
<path fill="none" stroke="midnightblue" d="M64,-188.707C64,-179.338 64,-168.526 64,-161.075"/>
<polygon fill="midnightblue" stroke="midnightblue" points="60.5001,-188.753 64,-198.753 67.5001,-188.753 60.5001,-188.753"/>
</g>
<!-- Node5 -->
<g id="node5" class="node"><title>Node5</title>
<polygon fill="white" stroke="#bfbfbf" points="7.49902,-257 7.49902,-301 120.501,-301 120.501,-257 7.49902,-257"/>
<text text-anchor="start" x="15.499" y="-287" font-family="Helvetica,sans-Serif" font-size="10.00">std::enable_shared</text>
<text text-anchor="start" x="15.499" y="-275" font-family="Helvetica,sans-Serif" font-size="10.00">_from_this&lt; __shared</text>
<text text-anchor="middle" x="64" y="-263" font-family="Helvetica,sans-Serif" font-size="10.00">_state_base &gt;</text>
</g>
<!-- Node5&#45;&gt;Node4 -->
<g id="edge4" class="edge"><title>Node5&#45;&gt;Node4</title>
<path fill="none" stroke="midnightblue" d="M64,-246.68C64,-236.665 64,-226.338 64,-219.204"/>
<polygon fill="midnightblue" stroke="midnightblue" points="60.5001,-246.857 64,-256.857 67.5001,-246.857 60.5001,-246.857"/>
</g>
</g>
</svg>
