<?xml version="1.0" encoding="UTF-8" standalone="no"?>
<!DOCTYPE svg PUBLIC "-//W3C//DTD SVG 1.1//EN"
 "http://www.w3.org/Graphics/SVG/1.1/DTD/svg11.dtd">
<!-- Generated by graphviz version 2.30.0 (20130114.0426)
 -->
<!-- Title: __check_complete&lt; _Hp, _T0, _Tp...&gt; Pages: 1 -->
<svg width="268pt" height="112pt"
 viewBox="0.00 0.00 268.00 112.00" xmlns="http://www.w3.org/2000/svg" xmlns:xlink="http://www.w3.org/1999/xlink">
<g id="graph0" class="graph" transform="scale(1 1) rotate(0) translate(4 108)">
<title>__check_complete&lt; _Hp, _T0, _Tp...&gt;</title>
<polygon fill="white" stroke="white" points="-4,5 -4,-108 265,-108 265,5 -4,5"/>
<!-- Node1 -->
<g id="node1" class="node"><title>Node1</title>
<polygon fill="#bfbfbf" stroke="black" points="81.999,-1 81.999,-33 190.001,-33 190.001,-1 81.999,-1"/>
<text text-anchor="start" x="89.999" y="-19" font-family="Helvetica,sans-Serif" font-size="10.00">__check_complete&lt; </text>
<text text-anchor="middle" x="136" y="-7" font-family="Helvetica,sans-Serif" font-size="10.00">_Hp, _T0, _Tp...&gt;</text>
</g>
<!-- Node2 -->
<g id="node2" class="node"><title>Node2</title>
<g id="a_node2"><a xlink:href="struct____check__complete.xhtml" target="_top" xlink:title="__check_complete\&lt; _Hp \&gt;">
<polygon fill="white" stroke="black" points="-0.482422,-77 -0.482422,-97 134.482,-97 134.482,-77 -0.482422,-77"/>
<text text-anchor="middle" x="67" y="-83" font-family="Helvetica,sans-Serif" font-size="10.00">__check_complete&lt; _Hp &gt;</text>
</a>
</g>
</g>
<!-- Node2&#45;&gt;Node1 -->
<g id="edge1" class="edge"><title>Node2&#45;&gt;Node1</title>
<path fill="none" stroke="#8b1a1a" d="M83.4291,-69.809C94.6722,-58.7289 109.483,-44.133 120.518,-33.2579"/>
<polygon fill="#8b1a1a" stroke="#8b1a1a" points="80.9714,-67.317 76.3056,-76.8292 85.8849,-72.3028 80.9714,-67.317"/>
</g>
<!-- Node3 -->
<g id="node3" class="node"><title>Node3</title>
<g id="a_node3"><a xlink:href="struct____check__complete.xhtml" target="_top" xlink:title="__check_complete\&lt; \l_T0, _Tp...\&gt;">
<polygon fill="white" stroke="black" points="151.999,-71 151.999,-103 260.001,-103 260.001,-71 151.999,-71"/>
<text text-anchor="start" x="159.999" y="-89" font-family="Helvetica,sans-Serif" font-size="10.00">__check_complete&lt; </text>
<text text-anchor="middle" x="206" y="-77" font-family="Helvetica,sans-Serif" font-size="10.00">_T0, _Tp...&gt;</text>
</a>
</g>
</g>
<!-- Node3&#45;&gt;Node1 -->
<g id="edge2" class="edge"><title>Node3&#45;&gt;Node1</title>
<path fill="none" stroke="#8b1a1a" d="M183.251,-63.9014C172.859,-53.8062 160.818,-42.1089 151.492,-33.0492"/>
<polygon fill="#8b1a1a" stroke="#8b1a1a" points="180.853,-66.4512 190.465,-70.9086 185.731,-61.4302 180.853,-66.4512"/>
</g>
</g>
</svg>
