<?xml version="1.0" encoding="UTF-8" standalone="no"?>
<!DOCTYPE svg PUBLIC "-//W3C//DTD SVG 1.1//EN"
 "http://www.w3.org/Graphics/SVG/1.1/DTD/svg11.dtd">
<!-- Generated by graphviz version 2.30.0 (20130114.0426)
 -->
<!-- Title: __shared_state&lt; void &gt; Pages: 1 -->
<svg width="828pt" height="218pt"
 viewBox="0.00 0.00 828.00 218.00" xmlns="http://www.w3.org/2000/svg" xmlns:xlink="http://www.w3.org/1999/xlink">
<g id="graph0" class="graph" transform="scale(1 1) rotate(0) translate(4 214)">
<title>__shared_state&lt; void &gt;</title>
<polygon fill="white" stroke="white" points="-4,5 -4,-214 825,-214 825,5 -4,5"/>
<!-- Node1 -->
<g id="node1" class="node"><title>Node1</title>
<polygon fill="#bfbfbf" stroke="black" points="298.739,-82 298.739,-102 419.261,-102 419.261,-82 298.739,-82"/>
<text text-anchor="middle" x="359" y="-88" font-family="Helvetica,sans-Serif" font-size="10.00">__shared_state&lt; void &gt;</text>
</g>
<!-- Node4 -->
<g id="node4" class="node"><title>Node4</title>
<g id="a_node4"><a xlink:href="struct____future__async__shared__state__base.xhtml" target="_top" xlink:title="__future_async_shared\l_state_base\&lt; void \&gt;">
<polygon fill="white" stroke="black" points="477.742,-153 477.742,-185 598.258,-185 598.258,-153 477.742,-153"/>
<text text-anchor="start" x="485.742" y="-171" font-family="Helvetica,sans-Serif" font-size="10.00">__future_async_shared</text>
<text text-anchor="middle" x="538" y="-159" font-family="Helvetica,sans-Serif" font-size="10.00">_state_base&lt; void &gt;</text>
</a>
</g>
</g>
<!-- Node1&#45;&gt;Node4 -->
<g id="edge3" class="edge"><title>Node1&#45;&gt;Node4</title>
<path fill="none" stroke="midnightblue" d="M385.55,-107.179C404.551,-118.067 431.346,-132.592 456,-143 464.436,-146.561 473.537,-149.923 482.486,-152.972"/>
<polygon fill="midnightblue" stroke="midnightblue" points="387.299,-104.147 376.892,-102.16 383.788,-110.204 387.299,-104.147"/>
</g>
<!-- Node7 -->
<g id="node7" class="node"><title>Node7</title>
<g id="a_node7"><a xlink:href="struct____future__deferred__continuation__shared__state_3_01___fut_00_01void_00_01___fp_01_4.xhtml" target="_top" xlink:title="__future_deferred_continuation\l_shared_state\&lt; _Fut, void, _Fp \&gt;">
<polygon fill="white" stroke="black" points="456.343,-102 456.343,-134 619.657,-134 619.657,-102 456.343,-102"/>
<text text-anchor="start" x="464.343" y="-120" font-family="Helvetica,sans-Serif" font-size="10.00">__future_deferred_continuation</text>
<text text-anchor="middle" x="538" y="-108" font-family="Helvetica,sans-Serif" font-size="10.00">_shared_state&lt; _Fut, void, _Fp &gt;</text>
</a>
</g>
</g>
<!-- Node1&#45;&gt;Node7 -->
<g id="edge6" class="edge"><title>Node1&#45;&gt;Node7</title>
<path fill="none" stroke="midnightblue" d="M429.594,-102.223C438.371,-103.512 447.409,-104.84 456.34,-106.152"/>
<polygon fill="midnightblue" stroke="midnightblue" points="429.833,-98.7205 419.431,-100.73 428.816,-105.646 429.833,-98.7205"/>
</g>
<!-- Node8 -->
<g id="node8" class="node"><title>Node8</title>
<g id="a_node8"><a xlink:href="struct____future__deferred__shared__state_3_01void_00_01___fp_01_4.xhtml" target="_top" xlink:title="__future_deferred_shared\l_state\&lt; void, _Fp \&gt;">
<polygon fill="white" stroke="black" points="472.18,-51 472.18,-83 603.82,-83 603.82,-51 472.18,-51"/>
<text text-anchor="start" x="480.18" y="-69" font-family="Helvetica,sans-Serif" font-size="10.00">__future_deferred_shared</text>
<text text-anchor="middle" x="538" y="-57" font-family="Helvetica,sans-Serif" font-size="10.00">_state&lt; void, _Fp &gt;</text>
</a>
</g>
</g>
<!-- Node1&#45;&gt;Node8 -->
<g id="edge7" class="edge"><title>Node1&#45;&gt;Node8</title>
<path fill="none" stroke="midnightblue" d="M429.477,-82.1868C443.465,-80.2112 458.118,-78.1415 471.948,-76.1882"/>
<polygon fill="midnightblue" stroke="midnightblue" points="428.843,-78.7416 419.431,-83.6058 429.822,-85.6728 428.843,-78.7416"/>
</g>
<!-- Node9 -->
<g id="node9" class="node"><title>Node9</title>
<g id="a_node9"><a xlink:href="struct____future__executor__continuation__shared__state_3_01___fut_00_01void_00_01___fp_01_4.xhtml" target="_top" xlink:title="__future_executor_continuation\l_shared_state\&lt; _Fut, void, _Fp \&gt;">
<polygon fill="white" stroke="black" points="456.343,-0 456.343,-32 619.657,-32 619.657,-0 456.343,-0"/>
<text text-anchor="start" x="464.343" y="-18" font-family="Helvetica,sans-Serif" font-size="10.00">__future_executor_continuation</text>
<text text-anchor="middle" x="538" y="-6" font-family="Helvetica,sans-Serif" font-size="10.00">_shared_state&lt; _Fut, void, _Fp &gt;</text>
</a>
</g>
</g>
<!-- Node1&#45;&gt;Node9 -->
<g id="edge8" class="edge"><title>Node1&#45;&gt;Node9</title>
<path fill="none" stroke="midnightblue" d="M385.171,-76.9364C404.174,-65.9855 431.138,-51.3316 456,-41 463.611,-37.8373 471.767,-34.862 479.868,-32.1435"/>
<polygon fill="midnightblue" stroke="midnightblue" points="383.4,-73.9175 376.526,-81.9796 386.927,-79.9639 383.4,-73.9175"/>
</g>
<!-- Node2 -->
<g id="node2" class="node"><title>Node2</title>
<g id="a_node2"><a xlink:href="struct____shared__state__base.xhtml" target="_top" xlink:title="__shared_state_base">
<polygon fill="white" stroke="black" points="149.907,-82 149.907,-102 262.093,-102 262.093,-82 149.907,-82"/>
<text text-anchor="middle" x="206" y="-88" font-family="Helvetica,sans-Serif" font-size="10.00">__shared_state_base</text>
</a>
</g>
</g>
<!-- Node2&#45;&gt;Node1 -->
<g id="edge1" class="edge"><title>Node2&#45;&gt;Node1</title>
<path fill="none" stroke="midnightblue" d="M272.451,-92C281.134,-92 289.998,-92 298.571,-92"/>
<polygon fill="midnightblue" stroke="midnightblue" points="272.369,-88.5001 262.369,-92 272.369,-95.5001 272.369,-88.5001"/>
</g>
<!-- Node3 -->
<g id="node3" class="node"><title>Node3</title>
<polygon fill="white" stroke="#bfbfbf" points="0.499023,-70 0.499023,-114 113.501,-114 113.501,-70 0.499023,-70"/>
<text text-anchor="start" x="8.49902" y="-100" font-family="Helvetica,sans-Serif" font-size="10.00">std::enable_shared</text>
<text text-anchor="start" x="8.49902" y="-88" font-family="Helvetica,sans-Serif" font-size="10.00">_from_this&lt; __shared</text>
<text text-anchor="middle" x="57" y="-76" font-family="Helvetica,sans-Serif" font-size="10.00">_state_base &gt;</text>
</g>
<!-- Node3&#45;&gt;Node2 -->
<g id="edge2" class="edge"><title>Node3&#45;&gt;Node2</title>
<path fill="none" stroke="midnightblue" d="M123.718,-92C132.442,-92 141.314,-92 149.835,-92"/>
<polygon fill="midnightblue" stroke="midnightblue" points="123.574,-88.5001 113.574,-92 123.574,-95.5001 123.574,-88.5001"/>
</g>
<!-- Node5 -->
<g id="node5" class="node"><title>Node5</title>
<g id="a_node5"><a xlink:href="struct____future__async__continuation__shared__state_3_01___fut_00_01void_00_01___fp_01_4.xhtml" target="_top" xlink:title="__future_async_continuation\l_shared_state\&lt; _Fut, void, _Fp \&gt;">
<polygon fill="white" stroke="black" points="656.343,-178 656.343,-210 819.657,-210 819.657,-178 656.343,-178"/>
<text text-anchor="start" x="664.343" y="-196" font-family="Helvetica,sans-Serif" font-size="10.00">__future_async_continuation</text>
<text text-anchor="middle" x="738" y="-184" font-family="Helvetica,sans-Serif" font-size="10.00">_shared_state&lt; _Fut, void, _Fp &gt;</text>
</a>
</g>
</g>
<!-- Node4&#45;&gt;Node5 -->
<g id="edge4" class="edge"><title>Node4&#45;&gt;Node5</title>
<path fill="none" stroke="midnightblue" d="M608.357,-177.757C623.757,-179.702 640.212,-181.779 656.031,-183.777"/>
<polygon fill="midnightblue" stroke="midnightblue" points="608.766,-174.281 598.407,-176.501 607.889,-181.226 608.766,-174.281"/>
</g>
<!-- Node6 -->
<g id="node6" class="node"><title>Node6</title>
<g id="a_node6"><a xlink:href="struct____future__async__shared__state_3_01void_00_01___fp_01_4.xhtml" target="_top" xlink:title="__future_async_shared\l_state\&lt; void, _Fp \&gt;">
<polygon fill="white" stroke="black" points="677.742,-127 677.742,-159 798.258,-159 798.258,-127 677.742,-127"/>
<text text-anchor="start" x="685.742" y="-145" font-family="Helvetica,sans-Serif" font-size="10.00">__future_async_shared</text>
<text text-anchor="middle" x="738" y="-133" font-family="Helvetica,sans-Serif" font-size="10.00">_state&lt; void, _Fp &gt;</text>
</a>
</g>
</g>
<!-- Node4&#45;&gt;Node6 -->
<g id="edge5" class="edge"><title>Node4&#45;&gt;Node6</title>
<path fill="none" stroke="midnightblue" d="M608.587,-159.862C631.128,-156.902 655.907,-153.649 677.635,-150.795"/>
<polygon fill="midnightblue" stroke="midnightblue" points="607.866,-156.427 598.407,-161.199 608.777,-163.367 607.866,-156.427"/>
</g>
</g>
</svg>
