<?xml version="1.0" encoding="UTF-8" standalone="no"?>
<!DOCTYPE svg PUBLIC "-//W3C//DTD SVG 1.1//EN"
 "http://www.w3.org/Graphics/SVG/1.1/DTD/svg11.dtd">
<!-- Generated by graphviz version 2.30.0 (20130114.0426)
 -->
<!-- Title: __task_base_shared_state&lt; _Rp(_Args...)&gt; Pages: 1 -->
<svg width="128pt" height="240pt"
 viewBox="0.00 0.00 128.00 240.00" xmlns="http://www.w3.org/2000/svg" xmlns:xlink="http://www.w3.org/1999/xlink">
<g id="graph0" class="graph" transform="scale(1 1) rotate(0) translate(4 236)">
<title>__task_base_shared_state&lt; _Rp(_Args...)&gt;</title>
<polygon fill="white" stroke="white" points="-4,5 -4,-236 125,-236 125,5 -4,5"/>
<!-- Node1 -->
<g id="node1" class="node"><title>Node1</title>
<polygon fill="#bfbfbf" stroke="black" points="1.41895,-1 1.41895,-33 118.581,-33 118.581,-1 1.41895,-1"/>
<text text-anchor="start" x="9.41895" y="-19" font-family="Helvetica,sans-Serif" font-size="10.00">__task_base_shared</text>
<text text-anchor="middle" x="60" y="-7" font-family="Helvetica,sans-Serif" font-size="10.00">_state&lt; _Rp(_Args...)&gt;</text>
</g>
<!-- Node2 -->
<g id="node2" class="node"><title>Node2</title>
<g id="a_node2"><a xlink:href="struct____shared__state.xhtml" target="_top" xlink:title="__shared_state\&lt; _Rp \&gt;">
<polygon fill="white" stroke="black" points="-0.260742,-71 -0.260742,-91 120.261,-91 120.261,-71 -0.260742,-71"/>
<text text-anchor="middle" x="60" y="-77" font-family="Helvetica,sans-Serif" font-size="10.00">__shared_state&lt; _Rp &gt;</text>
</a>
</g>
</g>
<!-- Node2&#45;&gt;Node1 -->
<g id="edge1" class="edge"><title>Node2&#45;&gt;Node1</title>
<path fill="none" stroke="midnightblue" d="M60,-60.7747C60,-51.9863 60,-41.715 60,-33.4404"/>
<polygon fill="midnightblue" stroke="midnightblue" points="56.5001,-60.8517 60,-70.8517 63.5001,-60.8517 56.5001,-60.8517"/>
</g>
<!-- Node3 -->
<g id="node3" class="node"><title>Node3</title>
<g id="a_node3"><a xlink:href="struct____shared__state__base.xhtml" target="_top" xlink:title="__shared_state_base">
<polygon fill="white" stroke="black" points="3.90674,-129 3.90674,-149 116.093,-149 116.093,-129 3.90674,-129"/>
<text text-anchor="middle" x="60" y="-135" font-family="Helvetica,sans-Serif" font-size="10.00">__shared_state_base</text>
</a>
</g>
</g>
<!-- Node3&#45;&gt;Node2 -->
<g id="edge2" class="edge"><title>Node3&#45;&gt;Node2</title>
<path fill="none" stroke="midnightblue" d="M60,-118.707C60,-109.338 60,-98.5262 60,-91.0752"/>
<polygon fill="midnightblue" stroke="midnightblue" points="56.5001,-118.753 60,-128.753 63.5001,-118.753 56.5001,-118.753"/>
</g>
<!-- Node4 -->
<g id="node4" class="node"><title>Node4</title>
<polygon fill="white" stroke="#bfbfbf" points="3.49902,-187 3.49902,-231 116.501,-231 116.501,-187 3.49902,-187"/>
<text text-anchor="start" x="11.499" y="-217" font-family="Helvetica,sans-Serif" font-size="10.00">std::enable_shared</text>
<text text-anchor="start" x="11.499" y="-205" font-family="Helvetica,sans-Serif" font-size="10.00">_from_this&lt; __shared</text>
<text text-anchor="middle" x="60" y="-193" font-family="Helvetica,sans-Serif" font-size="10.00">_state_base &gt;</text>
</g>
<!-- Node4&#45;&gt;Node3 -->
<g id="edge3" class="edge"><title>Node4&#45;&gt;Node3</title>
<path fill="none" stroke="midnightblue" d="M60,-176.68C60,-166.665 60,-156.338 60,-149.204"/>
<polygon fill="midnightblue" stroke="midnightblue" points="56.5001,-176.857 60,-186.857 63.5001,-176.857 56.5001,-176.857"/>
</g>
</g>
</svg>
