<?xml version="1.0" encoding="UTF-8" standalone="no"?>
<!DOCTYPE svg PUBLIC "-//W3C//DTD SVG 1.1//EN"
 "http://www.w3.org/Graphics/SVG/1.1/DTD/svg11.dtd">
<!-- Generated by graphviz version 2.30.0 (20130114.0426)
 -->
<!-- Title: __invokable&lt; _Fp, _Args &gt; Pages: 1 -->
<svg width="132pt" height="124pt"
 viewBox="0.00 0.00 132.00 124.00" xmlns="http://www.w3.org/2000/svg" xmlns:xlink="http://www.w3.org/1999/xlink">
<g id="graph0" class="graph" transform="scale(1 1) rotate(0) translate(4 120)">
<title>__invokable&lt; _Fp, _Args &gt;</title>
<polygon fill="white" stroke="white" points="-4,5 -4,-120 129,-120 129,5 -4,5"/>
<!-- Node1 -->
<g id="node1" class="node"><title>Node1</title>
<polygon fill="#bfbfbf" stroke="black" points="11.6099,-1 11.6099,-33 112.39,-33 112.39,-1 11.6099,-1"/>
<text text-anchor="start" x="19.6099" y="-19" font-family="Helvetica,sans-Serif" font-size="10.00">__invokable&lt; _Fp, </text>
<text text-anchor="middle" x="62" y="-7" font-family="Helvetica,sans-Serif" font-size="10.00">_Args &gt;</text>
</g>
<!-- Node2 -->
<g id="node2" class="node"><title>Node2</title>
<polygon fill="white" stroke="#bfbfbf" points="-0.892578,-71 -0.892578,-115 124.893,-115 124.893,-71 -0.892578,-71"/>
<text text-anchor="start" x="7.10742" y="-101" font-family="Helvetica,sans-Serif" font-size="10.00">std::integral_constant</text>
<text text-anchor="start" x="7.10742" y="-89" font-family="Helvetica,sans-Serif" font-size="10.00">&lt; bool, __invokable_imp</text>
<text text-anchor="middle" x="62" y="-77" font-family="Helvetica,sans-Serif" font-size="10.00">&lt; _Fp, _Args...&gt;::value &gt;</text>
</g>
<!-- Node2&#45;&gt;Node1 -->
<g id="edge1" class="edge"><title>Node2&#45;&gt;Node1</title>
<path fill="none" stroke="midnightblue" d="M62,-60.6933C62,-51.2613 62,-41.3236 62,-33.4115"/>
<polygon fill="midnightblue" stroke="midnightblue" points="58.5001,-60.9925 62,-70.9925 65.5001,-60.9925 58.5001,-60.9925"/>
</g>
</g>
</svg>
