<?xml version="1.0" encoding="UTF-8" standalone="no"?>
<!DOCTYPE svg PUBLIC "-//W3C//DTD SVG 1.1//EN"
 "http://www.w3.org/Graphics/SVG/1.1/DTD/svg11.dtd">
<!-- Generated by graphviz version 2.30.0 (20130114.0426)
 -->
<!-- Title: __future_async_continuation_shared_state&lt; _Fut, _Rp, _Fp &gt; Pages: 1 -->
<svg width="170pt" height="310pt"
 viewBox="0.00 0.00 170.00 310.00" xmlns="http://www.w3.org/2000/svg" xmlns:xlink="http://www.w3.org/1999/xlink">
<g id="graph0" class="graph" transform="scale(1 1) rotate(0) translate(4 306)">
<title>__future_async_continuation_shared_state&lt; _Fut, _Rp, _Fp &gt;</title>
<polygon fill="white" stroke="white" points="-4,5 -4,-306 167,-306 167,5 -4,5"/>
<!-- Node1 -->
<g id="node1" class="node"><title>Node1</title>
<polygon fill="#bfbfbf" stroke="black" points="-0.657227,-1 -0.657227,-33 162.657,-33 162.657,-1 -0.657227,-1"/>
<text text-anchor="start" x="7.34277" y="-19" font-family="Helvetica,sans-Serif" font-size="10.00">__future_async_continuation</text>
<text text-anchor="middle" x="81" y="-7" font-family="Helvetica,sans-Serif" font-size="10.00">_shared_state&lt; _Fut, _Rp, _Fp &gt;</text>
</g>
<!-- Node2 -->
<g id="node2" class="node"><title>Node2</title>
<g id="a_node2"><a xlink:href="struct____future__async__shared__state__base.xhtml" target="_top" xlink:title="__future_async_shared\l_state_base\&lt; _Rp \&gt;">
<polygon fill="white" stroke="black" points="20.7417,-71 20.7417,-103 141.258,-103 141.258,-71 20.7417,-71"/>
<text text-anchor="start" x="28.7417" y="-89" font-family="Helvetica,sans-Serif" font-size="10.00">__future_async_shared</text>
<text text-anchor="middle" x="81" y="-77" font-family="Helvetica,sans-Serif" font-size="10.00">_state_base&lt; _Rp &gt;</text>
</a>
</g>
</g>
<!-- Node2&#45;&gt;Node1 -->
<g id="edge1" class="edge"><title>Node2&#45;&gt;Node1</title>
<path fill="none" stroke="midnightblue" d="M81,-60.6174C81,-51.3378 81,-41.1413 81,-33.0492"/>
<polygon fill="midnightblue" stroke="midnightblue" points="77.5001,-60.9086 81,-70.9086 84.5001,-60.9086 77.5001,-60.9086"/>
</g>
<!-- Node3 -->
<g id="node3" class="node"><title>Node3</title>
<g id="a_node3"><a xlink:href="struct____shared__state.xhtml" target="_top" xlink:title="__shared_state\&lt; _Rp \&gt;">
<polygon fill="white" stroke="black" points="20.7393,-141 20.7393,-161 141.261,-161 141.261,-141 20.7393,-141"/>
<text text-anchor="middle" x="81" y="-147" font-family="Helvetica,sans-Serif" font-size="10.00">__shared_state&lt; _Rp &gt;</text>
</a>
</g>
</g>
<!-- Node3&#45;&gt;Node2 -->
<g id="edge2" class="edge"><title>Node3&#45;&gt;Node2</title>
<path fill="none" stroke="midnightblue" d="M81,-130.775C81,-121.986 81,-111.715 81,-103.44"/>
<polygon fill="midnightblue" stroke="midnightblue" points="77.5001,-130.852 81,-140.852 84.5001,-130.852 77.5001,-130.852"/>
</g>
<!-- Node4 -->
<g id="node4" class="node"><title>Node4</title>
<g id="a_node4"><a xlink:href="struct____shared__state__base.xhtml" target="_top" xlink:title="__shared_state_base">
<polygon fill="white" stroke="black" points="24.9067,-199 24.9067,-219 137.093,-219 137.093,-199 24.9067,-199"/>
<text text-anchor="middle" x="81" y="-205" font-family="Helvetica,sans-Serif" font-size="10.00">__shared_state_base</text>
</a>
</g>
</g>
<!-- Node4&#45;&gt;Node3 -->
<g id="edge3" class="edge"><title>Node4&#45;&gt;Node3</title>
<path fill="none" stroke="midnightblue" d="M81,-188.707C81,-179.338 81,-168.526 81,-161.075"/>
<polygon fill="midnightblue" stroke="midnightblue" points="77.5001,-188.753 81,-198.753 84.5001,-188.753 77.5001,-188.753"/>
</g>
<!-- Node5 -->
<g id="node5" class="node"><title>Node5</title>
<polygon fill="white" stroke="#bfbfbf" points="24.499,-257 24.499,-301 137.501,-301 137.501,-257 24.499,-257"/>
<text text-anchor="start" x="32.499" y="-287" font-family="Helvetica,sans-Serif" font-size="10.00">std::enable_shared</text>
<text text-anchor="start" x="32.499" y="-275" font-family="Helvetica,sans-Serif" font-size="10.00">_from_this&lt; __shared</text>
<text text-anchor="middle" x="81" y="-263" font-family="Helvetica,sans-Serif" font-size="10.00">_state_base &gt;</text>
</g>
<!-- Node5&#45;&gt;Node4 -->
<g id="edge4" class="edge"><title>Node5&#45;&gt;Node4</title>
<path fill="none" stroke="midnightblue" d="M81,-246.68C81,-236.665 81,-226.338 81,-219.204"/>
<polygon fill="midnightblue" stroke="midnightblue" points="77.5001,-246.857 81,-256.857 84.5001,-246.857 77.5001,-246.857"/>
</g>
</g>
</svg>
