<?xml version="1.0" encoding="UTF-8" standalone="no"?>
<!DOCTYPE svg PUBLIC "-//W3C//DTD SVG 1.1//EN"
 "http://www.w3.org/Graphics/SVG/1.1/DTD/svg11.dtd">
<!-- Generated by graphviz version 2.30.0 (20130114.0426)
 -->
<!-- Title: __check_complete&lt; _Rp(_Class::*)(_Param...)&gt; Pages: 1 -->
<svg width="144pt" height="112pt"
 viewBox="0.00 0.00 144.00 112.00" xmlns="http://www.w3.org/2000/svg" xmlns:xlink="http://www.w3.org/1999/xlink">
<g id="graph0" class="graph" transform="scale(1 1) rotate(0) translate(4 108)">
<title>__check_complete&lt; _Rp(_Class::*)(_Param...)&gt;</title>
<polygon fill="white" stroke="white" points="-4,5 -4,-108 141,-108 141,5 -4,5"/>
<!-- Node1 -->
<g id="node1" class="node"><title>Node1</title>
<polygon fill="#bfbfbf" stroke="black" points="-0.43457,-1 -0.43457,-33 136.435,-33 136.435,-1 -0.43457,-1"/>
<text text-anchor="start" x="7.56543" y="-19" font-family="Helvetica,sans-Serif" font-size="10.00">__check_complete&lt; </text>
<text text-anchor="middle" x="68" y="-7" font-family="Helvetica,sans-Serif" font-size="10.00">_Rp(_Class::*)(_Param...)&gt;</text>
</g>
<!-- Node2 -->
<g id="node2" class="node"><title>Node2</title>
<g id="a_node2"><a xlink:href="struct____check__complete.xhtml" target="_top" xlink:title="__check_complete\&lt; \l_Class \&gt;">
<polygon fill="white" stroke="black" points="13.999,-71 13.999,-103 122.001,-103 122.001,-71 13.999,-71"/>
<text text-anchor="start" x="21.999" y="-89" font-family="Helvetica,sans-Serif" font-size="10.00">__check_complete&lt; </text>
<text text-anchor="middle" x="68" y="-77" font-family="Helvetica,sans-Serif" font-size="10.00">_Class &gt;</text>
</a>
</g>
</g>
<!-- Node2&#45;&gt;Node1 -->
<g id="edge1" class="edge"><title>Node2&#45;&gt;Node1</title>
<path fill="none" stroke="#8b1a1a" d="M68,-60.6174C68,-51.3378 68,-41.1413 68,-33.0492"/>
<polygon fill="#8b1a1a" stroke="#8b1a1a" points="64.5001,-60.9086 68,-70.9086 71.5001,-60.9086 64.5001,-60.9086"/>
</g>
</g>
</svg>
