<?xml version="1.0" encoding="UTF-8" standalone="no"?>
<!DOCTYPE svg PUBLIC "-//W3C//DTD SVG 1.1//EN"
 "http://www.w3.org/Graphics/SVG/1.1/DTD/svg11.dtd">
<!-- Generated by graphviz version 2.30.0 (20130114.0426)
 -->
<!-- Title: __shared_state&lt; void &gt; Pages: 1 -->
<svg width="128pt" height="170pt"
 viewBox="0.00 0.00 128.00 170.00" xmlns="http://www.w3.org/2000/svg" xmlns:xlink="http://www.w3.org/1999/xlink">
<g id="graph0" class="graph" transform="scale(1 1) rotate(0) translate(4 166)">
<title>__shared_state&lt; void &gt;</title>
<polygon fill="white" stroke="white" points="-4,5 -4,-166 125,-166 125,5 -4,5"/>
<!-- Node1 -->
<g id="node1" class="node"><title>Node1</title>
<polygon fill="#bfbfbf" stroke="black" points="-0.260742,-1 -0.260742,-21 120.261,-21 120.261,-1 -0.260742,-1"/>
<text text-anchor="middle" x="60" y="-7" font-family="Helvetica,sans-Serif" font-size="10.00">__shared_state&lt; void &gt;</text>
</g>
<!-- Node2 -->
<g id="node2" class="node"><title>Node2</title>
<g id="a_node2"><a xlink:href="struct____shared__state__base.xhtml" target="_top" xlink:title="__shared_state_base">
<polygon fill="white" stroke="black" points="3.90674,-59 3.90674,-79 116.093,-79 116.093,-59 3.90674,-59"/>
<text text-anchor="middle" x="60" y="-65" font-family="Helvetica,sans-Serif" font-size="10.00">__shared_state_base</text>
</a>
</g>
</g>
<!-- Node2&#45;&gt;Node1 -->
<g id="edge1" class="edge"><title>Node2&#45;&gt;Node1</title>
<path fill="none" stroke="midnightblue" d="M60,-48.7065C60,-39.3384 60,-28.5262 60,-21.0752"/>
<polygon fill="midnightblue" stroke="midnightblue" points="56.5001,-48.7527 60,-58.7527 63.5001,-48.7528 56.5001,-48.7527"/>
</g>
<!-- Node3 -->
<g id="node3" class="node"><title>Node3</title>
<polygon fill="white" stroke="#bfbfbf" points="3.49902,-117 3.49902,-161 116.501,-161 116.501,-117 3.49902,-117"/>
<text text-anchor="start" x="11.499" y="-147" font-family="Helvetica,sans-Serif" font-size="10.00">std::enable_shared</text>
<text text-anchor="start" x="11.499" y="-135" font-family="Helvetica,sans-Serif" font-size="10.00">_from_this&lt; __shared</text>
<text text-anchor="middle" x="60" y="-123" font-family="Helvetica,sans-Serif" font-size="10.00">_state_base &gt;</text>
</g>
<!-- Node3&#45;&gt;Node2 -->
<g id="edge2" class="edge"><title>Node3&#45;&gt;Node2</title>
<path fill="none" stroke="midnightblue" d="M60,-106.68C60,-96.6654 60,-86.3383 60,-79.2039"/>
<polygon fill="midnightblue" stroke="midnightblue" points="56.5001,-106.857 60,-116.857 63.5001,-106.857 56.5001,-106.857"/>
</g>
</g>
</svg>
