<?xml version="1.0" encoding="UTF-8" standalone="no"?>
<!DOCTYPE svg PUBLIC "-//W3C//DTD SVG 1.1//EN"
 "http://www.w3.org/Graphics/SVG/1.1/DTD/svg11.dtd">
<!-- Generated by graphviz version 2.30.0 (20130114.0426)
 -->
<!-- Title: __future_async_shared_state_base&lt; _Rp &gt; Pages: 1 -->
<svg width="766pt" height="91pt"
 viewBox="0.00 0.00 766.00 91.00" xmlns="http://www.w3.org/2000/svg" xmlns:xlink="http://www.w3.org/1999/xlink">
<g id="graph0" class="graph" transform="scale(1 1) rotate(0) translate(4 87)">
<title>__future_async_shared_state_base&lt; _Rp &gt;</title>
<polygon fill="white" stroke="white" points="-4,5 -4,-87 763,-87 763,5 -4,5"/>
<!-- Node1 -->
<g id="node1" class="node"><title>Node1</title>
<polygon fill="#bfbfbf" stroke="black" points="456.742,-25 456.742,-57 577.258,-57 577.258,-25 456.742,-25"/>
<text text-anchor="start" x="464.742" y="-43" font-family="Helvetica,sans-Serif" font-size="10.00">__future_async_shared</text>
<text text-anchor="middle" x="517" y="-31" font-family="Helvetica,sans-Serif" font-size="10.00">_state_base&lt; _Rp &gt;</text>
</g>
<!-- Node5 -->
<g id="node5" class="node"><title>Node5</title>
<g id="a_node5"><a xlink:href="struct____future__async__continuation__shared__state.xhtml" target="_top" xlink:title="__future_async_continuation\l_shared_state\&lt; _Rp \&gt;">
<polygon fill="white" stroke="black" points="614.064,-51 614.064,-83 757.936,-83 757.936,-51 614.064,-51"/>
<text text-anchor="start" x="622.064" y="-69" font-family="Helvetica,sans-Serif" font-size="10.00">__future_async_continuation</text>
<text text-anchor="middle" x="686" y="-57" font-family="Helvetica,sans-Serif" font-size="10.00">_shared_state&lt; _Rp &gt;</text>
</a>
</g>
</g>
<!-- Node1&#45;&gt;Node5 -->
<g id="edge4" class="edge"><title>Node1&#45;&gt;Node5</title>
<path fill="none" stroke="midnightblue" d="M587.459,-51.814C596.174,-53.1708 605.099,-54.5604 613.84,-55.9212"/>
<polygon fill="midnightblue" stroke="midnightblue" points="587.768,-48.3199 577.348,-50.2398 586.691,-55.2366 587.768,-48.3199"/>
</g>
<!-- Node6 -->
<g id="node6" class="node"><title>Node6</title>
<g id="a_node6"><a xlink:href="struct____future__async__shared__state.xhtml" target="_top" xlink:title="__future_async_shared\l_state\&lt; _Rp \&gt;">
<polygon fill="white" stroke="black" points="625.742,-0 625.742,-32 746.258,-32 746.258,-0 625.742,-0"/>
<text text-anchor="start" x="633.742" y="-18" font-family="Helvetica,sans-Serif" font-size="10.00">__future_async_shared</text>
<text text-anchor="middle" x="686" y="-6" font-family="Helvetica,sans-Serif" font-size="10.00">_state&lt; _Rp &gt;</text>
</a>
</g>
</g>
<!-- Node1&#45;&gt;Node6 -->
<g id="edge5" class="edge"><title>Node1&#45;&gt;Node6</title>
<path fill="none" stroke="midnightblue" d="M587.398,-30.6111C600.078,-28.7129 613.204,-26.7479 625.562,-24.8979"/>
<polygon fill="midnightblue" stroke="midnightblue" points="586.72,-27.1735 577.348,-32.1155 587.756,-34.0964 586.72,-27.1735"/>
</g>
<!-- Node2 -->
<g id="node2" class="node"><title>Node2</title>
<g id="a_node2"><a xlink:href="struct____shared__state.xhtml" target="_top" xlink:title="__shared_state\&lt; _Rp \&gt;">
<polygon fill="white" stroke="black" points="298.739,-31 298.739,-51 419.261,-51 419.261,-31 298.739,-31"/>
<text text-anchor="middle" x="359" y="-37" font-family="Helvetica,sans-Serif" font-size="10.00">__shared_state&lt; _Rp &gt;</text>
</a>
</g>
</g>
<!-- Node2&#45;&gt;Node1 -->
<g id="edge1" class="edge"><title>Node2&#45;&gt;Node1</title>
<path fill="none" stroke="midnightblue" d="M429.498,-41C438.503,-41 447.662,-41 456.485,-41"/>
<polygon fill="midnightblue" stroke="midnightblue" points="429.422,-37.5001 419.422,-41 429.422,-44.5001 429.422,-37.5001"/>
</g>
<!-- Node3 -->
<g id="node3" class="node"><title>Node3</title>
<g id="a_node3"><a xlink:href="struct____shared__state__base.xhtml" target="_top" xlink:title="__shared_state_base">
<polygon fill="white" stroke="black" points="149.907,-31 149.907,-51 262.093,-51 262.093,-31 149.907,-31"/>
<text text-anchor="middle" x="206" y="-37" font-family="Helvetica,sans-Serif" font-size="10.00">__shared_state_base</text>
</a>
</g>
</g>
<!-- Node3&#45;&gt;Node2 -->
<g id="edge2" class="edge"><title>Node3&#45;&gt;Node2</title>
<path fill="none" stroke="midnightblue" d="M272.451,-41C281.134,-41 289.998,-41 298.571,-41"/>
<polygon fill="midnightblue" stroke="midnightblue" points="272.369,-37.5001 262.369,-41 272.369,-44.5001 272.369,-37.5001"/>
</g>
<!-- Node4 -->
<g id="node4" class="node"><title>Node4</title>
<polygon fill="white" stroke="#bfbfbf" points="0.499023,-19 0.499023,-63 113.501,-63 113.501,-19 0.499023,-19"/>
<text text-anchor="start" x="8.49902" y="-49" font-family="Helvetica,sans-Serif" font-size="10.00">std::enable_shared</text>
<text text-anchor="start" x="8.49902" y="-37" font-family="Helvetica,sans-Serif" font-size="10.00">_from_this&lt; __shared</text>
<text text-anchor="middle" x="57" y="-25" font-family="Helvetica,sans-Serif" font-size="10.00">_state_base &gt;</text>
</g>
<!-- Node4&#45;&gt;Node3 -->
<g id="edge3" class="edge"><title>Node4&#45;&gt;Node3</title>
<path fill="none" stroke="midnightblue" d="M123.718,-41C132.442,-41 141.314,-41 149.835,-41"/>
<polygon fill="midnightblue" stroke="midnightblue" points="123.574,-37.5001 113.574,-41 123.574,-44.5001 123.574,-37.5001"/>
</g>
</g>
</svg>
