<?xml version="1.0" encoding="UTF-8" standalone="no"?>
<!DOCTYPE svg PUBLIC "-//W3C//DTD SVG 1.1//EN"
 "http://www.w3.org/Graphics/SVG/1.1/DTD/svg11.dtd">
<!-- Generated by graphviz version 2.30.0 (20130114.0426)
 -->
<!-- Title: __invoke_of&lt; _Fp, _Args &gt; Pages: 1 -->
<svg width="142pt" height="124pt"
 viewBox="0.00 0.00 142.00 124.00" xmlns="http://www.w3.org/2000/svg" xmlns:xlink="http://www.w3.org/1999/xlink">
<g id="graph0" class="graph" transform="scale(1 1) rotate(0) translate(4 120)">
<title>__invoke_of&lt; _Fp, _Args &gt;</title>
<polygon fill="white" stroke="white" points="-4,5 -4,-120 139,-120 139,5 -4,5"/>
<!-- Node1 -->
<g id="node1" class="node"><title>Node1</title>
<polygon fill="#bfbfbf" stroke="black" points="16.3315,-1 16.3315,-33 117.668,-33 117.668,-1 16.3315,-1"/>
<text text-anchor="start" x="24.3315" y="-19" font-family="Helvetica,sans-Serif" font-size="10.00">__invoke_of&lt; _Fp, </text>
<text text-anchor="middle" x="67" y="-7" font-family="Helvetica,sans-Serif" font-size="10.00">_Args &gt;</text>
</g>
<!-- Node2 -->
<g id="node2" class="node"><title>Node2</title>
<g id="a_node2"><a xlink:href="struct____invoke__of__imp.xhtml" target="_top" xlink:title="__invoke_of_imp\&lt; _\l_invokable\&lt; _Fp, _Args...\&gt;\l::value, _Fp, _Args...\&gt;">
<polygon fill="white" stroke="black" points="-0.758301,-71 -0.758301,-115 134.758,-115 134.758,-71 -0.758301,-71"/>
<text text-anchor="start" x="7.2417" y="-101" font-family="Helvetica,sans-Serif" font-size="10.00">__invoke_of_imp&lt; _</text>
<text text-anchor="start" x="7.2417" y="-89" font-family="Helvetica,sans-Serif" font-size="10.00">_invokable&lt; _Fp, _Args...&gt;</text>
<text text-anchor="middle" x="67" y="-77" font-family="Helvetica,sans-Serif" font-size="10.00">::value, _Fp, _Args...&gt;</text>
</a>
</g>
</g>
<!-- Node2&#45;&gt;Node1 -->
<g id="edge1" class="edge"><title>Node2&#45;&gt;Node1</title>
<path fill="none" stroke="midnightblue" d="M67,-60.6933C67,-51.2613 67,-41.3236 67,-33.4115"/>
<polygon fill="midnightblue" stroke="midnightblue" points="63.5001,-60.9925 67,-70.9925 70.5001,-60.9925 63.5001,-60.9925"/>
</g>
</g>
</svg>
