<?xml version="1.0" encoding="UTF-8" standalone="no"?>
<!DOCTYPE svg PUBLIC "-//W3C//DTD SVG 1.1//EN"
 "http://www.w3.org/Graphics/SVG/1.1/DTD/svg11.dtd">
<!-- Generated by graphviz version 2.30.0 (20130114.0426)
 -->
<!-- Title: std::hash&lt; ePub3::basic_string_view&lt; _CharT, _Traits &gt; &gt; Pages: 1 -->
<svg width="130pt" height="148pt"
 viewBox="0.00 0.00 130.00 148.00" xmlns="http://www.w3.org/2000/svg" xmlns:xlink="http://www.w3.org/1999/xlink">
<g id="graph0" class="graph" transform="scale(1 1) rotate(0) translate(4 144)">
<title>std::hash&lt; ePub3::basic_string_view&lt; _CharT, _Traits &gt; &gt;</title>
<polygon fill="white" stroke="white" points="-4,5 -4,-144 127,-144 127,5 -4,5"/>
<!-- Node1 -->
<g id="node1" class="node"><title>Node1</title>
<polygon fill="#bfbfbf" stroke="black" points="-0.508301,-1 -0.508301,-45 122.508,-45 122.508,-1 -0.508301,-1"/>
<text text-anchor="start" x="7.4917" y="-31" font-family="Helvetica,sans-Serif" font-size="10.00">std::hash&lt; ePub3::basic</text>
<text text-anchor="start" x="7.4917" y="-19" font-family="Helvetica,sans-Serif" font-size="10.00">_string_view&lt; _CharT,</text>
<text text-anchor="middle" x="61" y="-7" font-family="Helvetica,sans-Serif" font-size="10.00"> _Traits &gt; &gt;</text>
</g>
<!-- Node2 -->
<g id="node2" class="node"><title>Node2</title>
<polygon fill="white" stroke="#bfbfbf" points="0.382812,-83 0.382812,-139 121.617,-139 121.617,-83 0.382812,-83"/>
<text text-anchor="start" x="8.38281" y="-125" font-family="Helvetica,sans-Serif" font-size="10.00">std::unary_function</text>
<text text-anchor="start" x="8.38281" y="-113" font-family="Helvetica,sans-Serif" font-size="10.00">&lt;::ePub3::basic_string</text>
<text text-anchor="start" x="8.38281" y="-101" font-family="Helvetica,sans-Serif" font-size="10.00">_view&lt;_CharT, _Traits&gt;</text>
<text text-anchor="middle" x="61" y="-89" font-family="Helvetica,sans-Serif" font-size="10.00">, std::size_t&gt;</text>
</g>
<!-- Node2&#45;&gt;Node1 -->
<g id="edge1" class="edge"><title>Node2&#45;&gt;Node1</title>
<path fill="none" stroke="midnightblue" d="M61,-72.7364C61,-63.2526 61,-53.3898 61,-45.038"/>
<polygon fill="midnightblue" stroke="midnightblue" points="57.5001,-72.789 61,-82.7891 64.5001,-72.7891 57.5001,-72.789"/>
</g>
</g>
</svg>
