<?xml version="1.0" encoding="UTF-8" standalone="no"?>
<!DOCTYPE svg PUBLIC "-//W3C//DTD SVG 1.1//EN"
 "http://www.w3.org/Graphics/SVG/1.1/DTD/svg11.dtd">
<!-- Generated by graphviz version 2.30.0 (20130114.0426)
 -->
<!-- Title: __shared_state_base Pages: 1 -->
<svg width="120pt" height="112pt"
 viewBox="0.00 0.00 120.00 112.00" xmlns="http://www.w3.org/2000/svg" xmlns:xlink="http://www.w3.org/1999/xlink">
<g id="graph0" class="graph" transform="scale(1 1) rotate(0) translate(4 108)">
<title>__shared_state_base</title>
<polygon fill="white" stroke="white" points="-4,5 -4,-108 117,-108 117,5 -4,5"/>
<!-- Node1 -->
<g id="node1" class="node"><title>Node1</title>
<polygon fill="#bfbfbf" stroke="black" points="-0.0932617,-1 -0.0932617,-21 112.093,-21 112.093,-1 -0.0932617,-1"/>
<text text-anchor="middle" x="56" y="-7" font-family="Helvetica,sans-Serif" font-size="10.00">__shared_state_base</text>
</g>
<!-- Node2 -->
<g id="node2" class="node"><title>Node2</title>
<polygon fill="white" stroke="#bfbfbf" points="-0.500977,-59 -0.500977,-103 112.501,-103 112.501,-59 -0.500977,-59"/>
<text text-anchor="start" x="7.49902" y="-89" font-family="Helvetica,sans-Serif" font-size="10.00">std::enable_shared</text>
<text text-anchor="start" x="7.49902" y="-77" font-family="Helvetica,sans-Serif" font-size="10.00">_from_this&lt; __shared</text>
<text text-anchor="middle" x="56" y="-65" font-family="Helvetica,sans-Serif" font-size="10.00">_state_base &gt;</text>
</g>
<!-- Node2&#45;&gt;Node1 -->
<g id="edge1" class="edge"><title>Node2&#45;&gt;Node1</title>
<path fill="none" stroke="midnightblue" d="M56,-48.6803C56,-38.6654 56,-28.3383 56,-21.2039"/>
<polygon fill="midnightblue" stroke="midnightblue" points="52.5001,-48.8571 56,-58.8571 59.5001,-48.8572 52.5001,-48.8571"/>
</g>
</g>
</svg>
