<?xml version="1.0" encoding="UTF-8" standalone="no"?>
<!DOCTYPE svg PUBLIC "-//W3C//DTD SVG 1.1//EN"
 "http://www.w3.org/Graphics/SVG/1.1/DTD/svg11.dtd">
<!-- Generated by graphviz version 2.30.0 (20130114.0426)
 -->
<!-- Title: __is_swappable&lt; _Tp &gt; Pages: 1 -->
<svg width="152pt" height="112pt"
 viewBox="0.00 0.00 152.00 112.00" xmlns="http://www.w3.org/2000/svg" xmlns:xlink="http://www.w3.org/1999/xlink">
<g id="graph0" class="graph" transform="scale(1 1) rotate(0) translate(4 108)">
<title>__is_swappable&lt; _Tp &gt;</title>
<polygon fill="white" stroke="white" points="-4,5 -4,-108 149,-108 149,5 -4,5"/>
<!-- Node1 -->
<g id="node1" class="node"><title>Node1</title>
<polygon fill="#bfbfbf" stroke="black" points="10.9067,-1 10.9067,-21 133.093,-21 133.093,-1 10.9067,-1"/>
<text text-anchor="middle" x="72" y="-7" font-family="Helvetica,sans-Serif" font-size="10.00">__is_swappable&lt; _Tp &gt;</text>
</g>
<!-- Node2 -->
<g id="node2" class="node"><title>Node2</title>
<polygon fill="white" stroke="#bfbfbf" points="-0.912109,-59 -0.912109,-103 144.912,-103 144.912,-59 -0.912109,-59"/>
<text text-anchor="start" x="7.08789" y="-89" font-family="Helvetica,sans-Serif" font-size="10.00">std::integral_constant</text>
<text text-anchor="start" x="7.08789" y="-77" font-family="Helvetica,sans-Serif" font-size="10.00">&lt;bool, __detail::__swappable</text>
<text text-anchor="middle" x="72" y="-65" font-family="Helvetica,sans-Serif" font-size="10.00">&lt;_Tp&gt;::value&gt;</text>
</g>
<!-- Node2&#45;&gt;Node1 -->
<g id="edge1" class="edge"><title>Node2&#45;&gt;Node1</title>
<path fill="none" stroke="midnightblue" d="M72,-48.6803C72,-38.6654 72,-28.3383 72,-21.2039"/>
<polygon fill="midnightblue" stroke="midnightblue" points="68.5001,-48.8571 72,-58.8571 75.5001,-48.8572 68.5001,-48.8571"/>
</g>
</g>
</svg>
