<?xml version="1.0" encoding="UTF-8" standalone="no"?>
<!DOCTYPE svg PUBLIC "-//W3C//DTD SVG 1.1//EN"
 "http://www.w3.org/Graphics/SVG/1.1/DTD/svg11.dtd">
<!-- Generated by graphviz version 2.30.0 (20130114.0426)
 -->
<!-- Title: __task_shared_state&lt; _Fp, void(_Args...)&gt; Pages: 1 -->
<svg width="124pt" height="112pt"
 viewBox="0.00 0.00 124.00 112.00" xmlns="http://www.w3.org/2000/svg" xmlns:xlink="http://www.w3.org/1999/xlink">
<g id="graph0" class="graph" transform="scale(1 1) rotate(0) translate(4 108)">
<title>__task_shared_state&lt; _Fp, void(_Args...)&gt;</title>
<polygon fill="white" stroke="white" points="-4,5 -4,-108 121,-108 121,5 -4,5"/>
<!-- Node1 -->
<g id="node1" class="node"><title>Node1</title>
<polygon fill="#bfbfbf" stroke="black" points="1.64551,-1 1.64551,-33 114.354,-33 114.354,-1 1.64551,-1"/>
<text text-anchor="start" x="9.64551" y="-19" font-family="Helvetica,sans-Serif" font-size="10.00">__task_shared_state</text>
<text text-anchor="middle" x="58" y="-7" font-family="Helvetica,sans-Serif" font-size="10.00">&lt; _Fp, void(_Args...)&gt;</text>
</g>
<!-- Node2 -->
<g id="node2" class="node"><title>Node2</title>
<g id="a_node2"><a xlink:href="struct____task__base__shared__state.xhtml" target="_top" xlink:title="__task_base_shared\l_state\&lt; void(_Args...)\&gt;">
<polygon fill="white" stroke="black" points="-0.581055,-71 -0.581055,-103 116.581,-103 116.581,-71 -0.581055,-71"/>
<text text-anchor="start" x="7.41895" y="-89" font-family="Helvetica,sans-Serif" font-size="10.00">__task_base_shared</text>
<text text-anchor="middle" x="58" y="-77" font-family="Helvetica,sans-Serif" font-size="10.00">_state&lt; void(_Args...)&gt;</text>
</a>
</g>
</g>
<!-- Node2&#45;&gt;Node1 -->
<g id="edge1" class="edge"><title>Node2&#45;&gt;Node1</title>
<path fill="none" stroke="midnightblue" d="M58,-60.6174C58,-51.3378 58,-41.1413 58,-33.0492"/>
<polygon fill="midnightblue" stroke="midnightblue" points="54.5001,-60.9086 58,-70.9086 61.5001,-60.9086 54.5001,-60.9086"/>
</g>
</g>
</svg>
