<?xml version="1.0" encoding="UTF-8" standalone="no"?>
<!DOCTYPE svg PUBLIC "-//W3C//DTD SVG 1.1//EN"
 "http://www.w3.org/Graphics/SVG/1.1/DTD/svg11.dtd">
<!-- Generated by graphviz version 2.30.0 (20130114.0426)
 -->
<!-- Title: /Users/rkwright/Documents/github/readium&#45;sdk&#45;D/ePub3/ePub/switch_preprocessor.h Pages: 1 -->
<svg width="363pt" height="112pt"
 viewBox="0.00 0.00 363.00 112.00" xmlns="http://www.w3.org/2000/svg" xmlns:xlink="http://www.w3.org/1999/xlink">
<g id="graph0" class="graph" transform="scale(1 1) rotate(0) translate(4 108)">
<title>/Users/rkwright/Documents/github/readium&#45;sdk&#45;D/ePub3/ePub/switch_preprocessor.h</title>
<polygon fill="white" stroke="white" points="-4,5 -4,-108 360,-108 360,5 -4,5"/>
<!-- Node1 -->
<g id="node1" class="node"><title>Node1</title>
<polygon fill="#bfbfbf" stroke="black" points="102.966,-59 102.966,-103 249.034,-103 249.034,-59 102.966,-59"/>
<text text-anchor="start" x="110.966" y="-89" font-family="Helvetica,sans-Serif" font-size="10.00">/Users/rkwright/Documents</text>
<text text-anchor="start" x="110.966" y="-77" font-family="Helvetica,sans-Serif" font-size="10.00">/github/readium&#45;sdk&#45;D/ePub3</text>
<text text-anchor="middle" x="176" y="-65" font-family="Helvetica,sans-Serif" font-size="10.00">/ePub/switch_preprocessor.h</text>
</g>
<!-- Node2 -->
<g id="node2" class="node"><title>Node2</title>
<polygon fill="white" stroke="#bfbfbf" points="-0.920898,-1 -0.920898,-21 82.9209,-21 82.9209,-1 -0.920898,-1"/>
<text text-anchor="middle" x="41" y="-7" font-family="Helvetica,sans-Serif" font-size="10.00">ePub3/epub3.h</text>
</g>
<!-- Node1&#45;&gt;Node2 -->
<g id="edge1" class="edge"><title>Node1&#45;&gt;Node2</title>
<path fill="none" stroke="midnightblue" d="M134.025,-58.8571C112.439,-47.9842 86.769,-35.054 67.8682,-25.5336"/>
<polygon fill="midnightblue" stroke="midnightblue" points="69.426,-22.3994 58.9204,-21.0266 66.2769,-28.6511 69.426,-22.3994"/>
</g>
<!-- Node3 -->
<g id="node3" class="node"><title>Node3</title>
<polygon fill="white" stroke="#bfbfbf" points="100.811,-1 100.811,-21 175.189,-21 175.189,-1 100.811,-1"/>
<text text-anchor="middle" x="138" y="-7" font-family="Helvetica,sans-Serif" font-size="10.00">ePub3/filter.h</text>
</g>
<!-- Node1&#45;&gt;Node3 -->
<g id="edge2" class="edge"><title>Node1&#45;&gt;Node3</title>
<path fill="none" stroke="midnightblue" d="M164.185,-58.8571C159.056,-49.6792 153.108,-39.0355 148.178,-30.2141"/>
<polygon fill="midnightblue" stroke="midnightblue" points="151.077,-28.226 143.143,-21.2039 144.966,-31.6408 151.077,-28.226"/>
</g>
<!-- Node4 -->
<g id="node4" class="node"><title>Node4</title>
<polygon fill="white" stroke="#bfbfbf" points="193.384,-1 193.384,-21 236.616,-21 236.616,-1 193.384,-1"/>
<text text-anchor="middle" x="215" y="-7" font-family="Helvetica,sans-Serif" font-size="10.00">vector</text>
</g>
<!-- Node1&#45;&gt;Node4 -->
<g id="edge3" class="edge"><title>Node1&#45;&gt;Node4</title>
<path fill="none" stroke="midnightblue" d="M188.126,-58.8571C193.446,-49.5806 199.626,-38.8065 204.717,-29.9302"/>
<polygon fill="midnightblue" stroke="midnightblue" points="207.782,-31.6198 209.721,-21.2039 201.71,-28.1372 207.782,-31.6198"/>
</g>
<!-- Node5 -->
<g id="node5" class="node"><title>Node5</title>
<polygon fill="white" stroke="#bfbfbf" points="254.766,-1 254.766,-21 355.234,-21 355.234,-1 254.766,-1"/>
<text text-anchor="middle" x="305" y="-7" font-family="Helvetica,sans-Serif" font-size="10.00">REGEX_INCLUDE</text>
</g>
<!-- Node1&#45;&gt;Node5 -->
<g id="edge4" class="edge"><title>Node1&#45;&gt;Node5</title>
<path fill="none" stroke="midnightblue" d="M216.109,-58.8571C236.453,-48.1331 260.594,-35.4079 278.58,-25.9268"/>
<polygon fill="midnightblue" stroke="midnightblue" points="280.662,-28.7859 287.876,-21.0266 277.398,-22.5936 280.662,-28.7859"/>
</g>
</g>
</svg>
