<?xml version="1.0" encoding="UTF-8" standalone="no"?>
<!DOCTYPE svg PUBLIC "-//W3C//DTD SVG 1.1//EN"
 "http://www.w3.org/Graphics/SVG/1.1/DTD/svg11.dtd">
<!-- Generated by graphviz version 2.30.0 (20130114.0426)
 -->
<!-- Title: /Users/rkwright/Documents/github/readium&#45;sdk&#45;D/ePub3/utilities/utfstring.cpp Pages: 1 -->
<svg width="1091pt" height="472pt"
 viewBox="0.00 0.00 1091.00 472.00" xmlns="http://www.w3.org/2000/svg" xmlns:xlink="http://www.w3.org/1999/xlink">
<g id="graph0" class="graph" transform="scale(1 1) rotate(0) translate(4 468)">
<title>/Users/rkwright/Documents/github/readium&#45;sdk&#45;D/ePub3/utilities/utfstring.cpp</title>
<polygon fill="white" stroke="white" points="-4,5 -4,-468 1088,-468 1088,5 -4,5"/>
<!-- Node1 -->
<g id="node1" class="node"><title>Node1</title>
<polygon fill="#bfbfbf" stroke="black" points="399.966,-419 399.966,-463 546.034,-463 546.034,-419 399.966,-419"/>
<text text-anchor="start" x="407.966" y="-449" font-family="Helvetica,sans-Serif" font-size="10.00">/Users/rkwright/Documents</text>
<text text-anchor="start" x="407.966" y="-437" font-family="Helvetica,sans-Serif" font-size="10.00">/github/readium&#45;sdk&#45;D/ePub3</text>
<text text-anchor="middle" x="473" y="-425" font-family="Helvetica,sans-Serif" font-size="10.00">/utilities/utfstring.cpp</text>
</g>
<!-- Node2 -->
<g id="node2" class="node"><title>Node2</title>
<g id="a_node2"><a xlink:href="utfstring_8h.xhtml" target="_top" xlink:title="utfstring.h">
<polygon fill="white" stroke="black" points="443.044,-361 443.044,-381 502.956,-381 502.956,-361 443.044,-361"/>
<text text-anchor="middle" x="473" y="-367" font-family="Helvetica,sans-Serif" font-size="10.00">utfstring.h</text>
</a>
</g>
</g>
<!-- Node1&#45;&gt;Node2 -->
<g id="edge1" class="edge"><title>Node1&#45;&gt;Node2</title>
<path fill="none" stroke="midnightblue" d="M473,-418.857C473,-410.074 473,-399.948 473,-391.362"/>
<polygon fill="midnightblue" stroke="midnightblue" points="476.5,-391.204 473,-381.204 469.5,-391.204 476.5,-391.204"/>
</g>
<!-- Node14 -->
<g id="node14" class="node"><title>Node14</title>
<g id="a_node14"><a xlink:href="integer__sequence_8h.xhtml" target="_top" xlink:title="ePub3/utilities/integer\l_sequence.h">
<polygon fill="white" stroke="black" points="-0.807617,-291 -0.807617,-323 110.808,-323 110.808,-291 -0.807617,-291"/>
<text text-anchor="start" x="7.19238" y="-309" font-family="Helvetica,sans-Serif" font-size="10.00">ePub3/utilities/integer</text>
<text text-anchor="middle" x="55" y="-297" font-family="Helvetica,sans-Serif" font-size="10.00">_sequence.h</text>
</a>
</g>
</g>
<!-- Node1&#45;&gt;Node14 -->
<g id="edge33" class="edge"><title>Node1&#45;&gt;Node14</title>
<path fill="none" stroke="midnightblue" d="M406.304,-418.938C325.127,-393.303 189.405,-350.444 112.587,-326.185"/>
<polygon fill="midnightblue" stroke="midnightblue" points="113.196,-322.707 102.606,-323.034 111.088,-329.383 113.196,-322.707"/>
</g>
<!-- Node23 -->
<g id="node23" class="node"><title>Node23</title>
<polygon fill="white" stroke="#bfbfbf" points="889.936,-297 889.936,-317 932.064,-317 932.064,-297 889.936,-297"/>
<text text-anchor="middle" x="911" y="-303" font-family="Helvetica,sans-Serif" font-size="10.00">locale</text>
</g>
<!-- Node1&#45;&gt;Node23 -->
<g id="edge34" class="edge"><title>Node1&#45;&gt;Node23</title>
<path fill="none" stroke="midnightblue" d="M546.117,-422.441C627.674,-402.055 762.999,-365.828 876,-324 878.273,-323.159 880.605,-322.234 882.933,-321.267"/>
<polygon fill="midnightblue" stroke="midnightblue" points="884.567,-324.373 892.325,-317.157 881.76,-317.96 884.567,-324.373"/>
</g>
<!-- Node3 -->
<g id="node3" class="node"><title>Node3</title>
<g id="a_node3"><a xlink:href="basic_8h.xhtml" target="_top" xlink:title="ePub3/utilities/basic.h">
<polygon fill="white" stroke="black" points="721.638,-297 721.638,-317 834.362,-317 834.362,-297 721.638,-297"/>
<text text-anchor="middle" x="778" y="-303" font-family="Helvetica,sans-Serif" font-size="10.00">ePub3/utilities/basic.h</text>
</a>
</g>
</g>
<!-- Node2&#45;&gt;Node3 -->
<g id="edge2" class="edge"><title>Node2&#45;&gt;Node3</title>
<path fill="none" stroke="midnightblue" d="M503.277,-364.651C548.735,-356.512 637.264,-340.241 712,-324 718.58,-322.57 725.508,-320.982 732.303,-319.377"/>
<polygon fill="midnightblue" stroke="midnightblue" points="733.195,-322.763 742.105,-317.031 731.565,-315.955 733.195,-322.763"/>
</g>
<!-- Node2&#45;&gt;Node14 -->
<g id="edge13" class="edge"><title>Node2&#45;&gt;Node14</title>
<path fill="none" stroke="midnightblue" d="M442.596,-366.946C381.932,-360.641 241.658,-344.995 125,-324 123.723,-323.77 122.435,-323.533 121.137,-323.288"/>
<polygon fill="midnightblue" stroke="midnightblue" points="121.558,-319.804 111.069,-321.3 120.202,-326.671 121.558,-319.804"/>
</g>
<!-- Node15 -->
<g id="node15" class="node"><title>Node15</title>
<g id="a_node15"><a xlink:href="string__view_8h.xhtml" target="_top" xlink:title="ePub3/utilities/string\l_view.h">
<polygon fill="white" stroke="black" points="598.254,-291 598.254,-323 703.746,-323 703.746,-291 598.254,-291"/>
<text text-anchor="start" x="606.254" y="-309" font-family="Helvetica,sans-Serif" font-size="10.00">ePub3/utilities/string</text>
<text text-anchor="middle" x="651" y="-297" font-family="Helvetica,sans-Serif" font-size="10.00">_view.h</text>
</a>
</g>
</g>
<!-- Node2&#45;&gt;Node15 -->
<g id="edge15" class="edge"><title>Node2&#45;&gt;Node15</title>
<path fill="none" stroke="midnightblue" d="M498.883,-360.985C524.859,-351.937 565.616,-337.741 598.406,-326.319"/>
<polygon fill="midnightblue" stroke="midnightblue" points="599.569,-329.62 607.861,-323.026 597.267,-323.01 599.569,-329.62"/>
</g>
<!-- Node17 -->
<g id="node17" class="node"><title>Node17</title>
<polygon fill="white" stroke="#bfbfbf" points="341.773,-233 341.773,-253 382.227,-253 382.227,-233 341.773,-233"/>
<text text-anchor="middle" x="362" y="-239" font-family="Helvetica,sans-Serif" font-size="10.00">string</text>
</g>
<!-- Node2&#45;&gt;Node17 -->
<g id="edge24" class="edge"><title>Node2&#45;&gt;Node17</title>
<path fill="none" stroke="midnightblue" d="M502.534,-360.921C519.981,-353.863 540.629,-342.156 551,-324 558.495,-310.879 560.44,-301.8 551,-290 507.423,-235.529 464.93,-270.583 392.452,-253.951"/>
<polygon fill="midnightblue" stroke="midnightblue" points="393.063,-250.494 382.506,-251.385 391.315,-257.272 393.063,-250.494"/>
</g>
<!-- Node22 -->
<g id="node22" class="node"><title>Node22</title>
<polygon fill="white" stroke="#bfbfbf" points="167.438,-297 167.438,-317 214.562,-317 214.562,-297 167.438,-297"/>
<text text-anchor="middle" x="191" y="-303" font-family="Helvetica,sans-Serif" font-size="10.00">iterator</text>
</g>
<!-- Node2&#45;&gt;Node22 -->
<g id="edge25" class="edge"><title>Node2&#45;&gt;Node22</title>
<path fill="none" stroke="midnightblue" d="M442.841,-367.073C395.349,-361.88 300.647,-349.151 224,-324 221.565,-323.201 219.08,-322.258 216.621,-321.235"/>
<polygon fill="midnightblue" stroke="midnightblue" points="217.975,-318.006 207.425,-317.037 215.068,-324.374 217.975,-318.006"/>
</g>
<!-- Node2&#45;&gt;Node23 -->
<g id="edge26" class="edge"><title>Node2&#45;&gt;Node23</title>
<path fill="none" stroke="midnightblue" d="M503.191,-369.771C571.088,-368.566 740.479,-361.684 876,-324 878.836,-323.211 881.733,-322.22 884.586,-321.12"/>
<polygon fill="midnightblue" stroke="midnightblue" points="886.154,-324.255 893.96,-317.091 883.391,-317.823 886.154,-324.255"/>
</g>
<!-- Node12 -->
<g id="node12" class="node"><title>Node12</title>
<polygon fill="white" stroke="#bfbfbf" points="1039.38,-233 1039.38,-253 1082.62,-253 1082.62,-233 1039.38,-233"/>
<text text-anchor="middle" x="1061" y="-239" font-family="Helvetica,sans-Serif" font-size="10.00">vector</text>
</g>
<!-- Node2&#45;&gt;Node12 -->
<g id="edge27" class="edge"><title>Node2&#45;&gt;Node12</title>
<path fill="none" stroke="midnightblue" d="M503.164,-368.565C580.201,-364.536 782.382,-351.566 843,-324 863.629,-314.619 860.935,-300.535 881,-290 938.609,-259.752 962.273,-271.293 1029.59,-253.861"/>
<polygon fill="midnightblue" stroke="midnightblue" points="1030.65,-257.199 1039.38,-251.202 1028.81,-250.444 1030.65,-257.199"/>
</g>
<!-- Node24 -->
<g id="node24" class="node"><title>Node24</title>
<polygon fill="white" stroke="#bfbfbf" points="232.766,-297 232.766,-317 333.234,-317 333.234,-297 232.766,-297"/>
<text text-anchor="middle" x="283" y="-303" font-family="Helvetica,sans-Serif" font-size="10.00">REGEX_INCLUDE</text>
</g>
<!-- Node2&#45;&gt;Node24 -->
<g id="edge28" class="edge"><title>Node2&#45;&gt;Node24</title>
<path fill="none" stroke="midnightblue" d="M445.372,-360.985C412.445,-350.24 357.271,-332.236 320.508,-320.239"/>
<polygon fill="midnightblue" stroke="midnightblue" points="321.253,-316.801 310.661,-317.026 319.082,-323.456 321.253,-316.801"/>
</g>
<!-- Node25 -->
<g id="node25" class="node"><title>Node25</title>
<polygon fill="white" stroke="#bfbfbf" points="351.273,-297 351.273,-317 386.727,-317 386.727,-297 351.273,-297"/>
<text text-anchor="middle" x="369" y="-303" font-family="Helvetica,sans-Serif" font-size="10.00">map</text>
</g>
<!-- Node2&#45;&gt;Node25 -->
<g id="edge29" class="edge"><title>Node2&#45;&gt;Node25</title>
<path fill="none" stroke="midnightblue" d="M457.654,-360.852C440.68,-350.732 413.103,-334.292 393.209,-322.432"/>
<polygon fill="midnightblue" stroke="midnightblue" points="394.79,-319.3 384.409,-317.186 391.206,-325.313 394.79,-319.3"/>
</g>
<!-- Node26 -->
<g id="node26" class="node"><title>Node26</title>
<polygon fill="white" stroke="#bfbfbf" points="404.599,-297 404.599,-317 463.401,-317 463.401,-297 404.599,-297"/>
<text text-anchor="middle" x="434" y="-303" font-family="Helvetica,sans-Serif" font-size="10.00">stdexcept</text>
</g>
<!-- Node2&#45;&gt;Node26 -->
<g id="edge30" class="edge"><title>Node2&#45;&gt;Node26</title>
<path fill="none" stroke="midnightblue" d="M467.245,-360.852C461.485,-351.694 452.468,-337.359 445.277,-325.928"/>
<polygon fill="midnightblue" stroke="midnightblue" points="448.065,-323.787 439.778,-317.186 442.14,-327.514 448.065,-323.787"/>
</g>
<!-- Node18 -->
<g id="node18" class="node"><title>Node18</title>
<polygon fill="white" stroke="#bfbfbf" points="236.613,-233 236.613,-253 275.387,-253 275.387,-233 236.613,-233"/>
<text text-anchor="middle" x="256" y="-239" font-family="Helvetica,sans-Serif" font-size="10.00">limits</text>
</g>
<!-- Node2&#45;&gt;Node18 -->
<g id="edge31" class="edge"><title>Node2&#45;&gt;Node18</title>
<path fill="none" stroke="midnightblue" d="M442.957,-367.823C367.841,-362.075 176.548,-345.453 158,-324 148.117,-312.569 149.897,-302.755 158,-290 172.945,-266.475 203.459,-254.769 226.49,-249.084"/>
<polygon fill="midnightblue" stroke="midnightblue" points="227.456,-252.454 236.463,-246.874 225.942,-245.62 227.456,-252.454"/>
</g>
<!-- Node27 -->
<g id="node27" class="node"><title>Node27</title>
<polygon fill="white" stroke="#bfbfbf" points="481.761,-297 481.761,-317 542.239,-317 542.239,-297 481.761,-297"/>
<text text-anchor="middle" x="512" y="-303" font-family="Helvetica,sans-Serif" font-size="10.00">utf8/utf8.h</text>
</g>
<!-- Node2&#45;&gt;Node27 -->
<g id="edge32" class="edge"><title>Node2&#45;&gt;Node27</title>
<path fill="none" stroke="midnightblue" d="M478.755,-360.852C484.515,-351.694 493.532,-337.359 500.723,-325.928"/>
<polygon fill="midnightblue" stroke="midnightblue" points="503.86,-327.514 506.222,-317.186 497.935,-323.787 503.86,-327.514"/>
</g>
<!-- Node4 -->
<g id="node4" class="node"><title>Node4</title>
<g id="a_node4"><a xlink:href="base_8h.xhtml" target="_top" xlink:title="ePub3/base.h">
<polygon fill="white" stroke="black" points="623.141,-175 623.141,-195 700.859,-195 700.859,-175 623.141,-175"/>
<text text-anchor="middle" x="662" y="-181" font-family="Helvetica,sans-Serif" font-size="10.00">ePub3/base.h</text>
</a>
</g>
</g>
<!-- Node3&#45;&gt;Node4 -->
<g id="edge3" class="edge"><title>Node3&#45;&gt;Node4</title>
<path fill="none" stroke="midnightblue" d="M769.281,-296.98C749.883,-276.914 702.913,-228.324 678.052,-202.605"/>
<polygon fill="midnightblue" stroke="midnightblue" points="680.287,-199.881 670.82,-195.124 675.254,-204.747 680.287,-199.881"/>
</g>
<!-- Node9 -->
<g id="node9" class="node"><title>Node9</title>
<polygon fill="white" stroke="#bfbfbf" points="837.815,-233 837.815,-253 952.185,-253 952.185,-233 837.815,-233"/>
<text text-anchor="middle" x="895" y="-239" font-family="Helvetica,sans-Serif" font-size="10.00">ePub3/xml/xmlstring.h</text>
</g>
<!-- Node3&#45;&gt;Node9 -->
<g id="edge8" class="edge"><title>Node3&#45;&gt;Node9</title>
<path fill="none" stroke="midnightblue" d="M795.013,-296.985C814.422,-286.699 846.386,-269.761 868.94,-257.809"/>
<polygon fill="midnightblue" stroke="midnightblue" points="870.769,-260.801 877.967,-253.026 867.492,-254.616 870.769,-260.801"/>
</g>
<!-- Node10 -->
<g id="node10" class="node"><title>Node10</title>
<polygon fill="white" stroke="#bfbfbf" points="970.219,-233 970.219,-253 1021.78,-253 1021.78,-233 970.219,-233"/>
<text text-anchor="middle" x="996" y="-239" font-family="Helvetica,sans-Serif" font-size="10.00">sstream</text>
</g>
<!-- Node3&#45;&gt;Node10 -->
<g id="edge9" class="edge"><title>Node3&#45;&gt;Node10</title>
<path fill="none" stroke="midnightblue" d="M809.741,-296.996C844.315,-287.184 901.515,-270.943 960.197,-254.226"/>
<polygon fill="midnightblue" stroke="midnightblue" points="961.349,-257.537 970.008,-251.431 959.431,-250.805 961.349,-257.537"/>
</g>
<!-- Node11 -->
<g id="node11" class="node"><title>Node11</title>
<polygon fill="white" stroke="#bfbfbf" points="750.943,-175 750.943,-195 803.057,-195 803.057,-175 750.943,-175"/>
<text text-anchor="middle" x="777" y="-181" font-family="Helvetica,sans-Serif" font-size="10.00">memory</text>
</g>
<!-- Node3&#45;&gt;Node11 -->
<g id="edge10" class="edge"><title>Node3&#45;&gt;Node11</title>
<path fill="none" stroke="midnightblue" d="M781.244,-296.907C785.815,-282.967 793.252,-255.463 790,-232 788.733,-222.855 786.112,-212.971 783.553,-204.718"/>
<polygon fill="midnightblue" stroke="midnightblue" points="786.805,-203.403 780.344,-195.006 780.158,-205.599 786.805,-203.403"/>
</g>
<!-- Node3&#45;&gt;Node12 -->
<g id="edge11" class="edge"><title>Node3&#45;&gt;Node12</title>
<path fill="none" stroke="midnightblue" d="M816.466,-296.994C826.701,-294.656 837.758,-292.183 848,-290 925.495,-273.483 948.41,-274.575 1028.96,-254.036"/>
<polygon fill="midnightblue" stroke="midnightblue" points="1030.27,-257.312 1039.08,-251.421 1028.52,-250.535 1030.27,-257.312"/>
</g>
<!-- Node13 -->
<g id="node13" class="node"><title>Node13</title>
<polygon fill="white" stroke="#bfbfbf" points="752.5,-233 752.5,-253 781.5,-253 781.5,-233 752.5,-233"/>
<text text-anchor="middle" x="766.611" y="-239" font-family="Helvetica,sans-Serif" font-size="10.00">list</text>
</g>
<!-- Node3&#45;&gt;Node13 -->
<g id="edge12" class="edge"><title>Node3&#45;&gt;Node13</title>
<path fill="none" stroke="midnightblue" d="M776.377,-296.852C774.817,-288.06 772.411,-274.498 770.427,-263.313"/>
<polygon fill="midnightblue" stroke="midnightblue" points="773.823,-262.421 768.63,-253.186 766.931,-263.644 773.823,-262.421"/>
</g>
<!-- Node5 -->
<g id="node5" class="node"><title>Node5</title>
<g id="a_node5"><a xlink:href="__config_8h.xhtml" target="_top" xlink:title="_config.h">
<polygon fill="white" stroke="black" points="598.707,-117 598.707,-137 655.293,-137 655.293,-117 598.707,-117"/>
<text text-anchor="middle" x="627" y="-123" font-family="Helvetica,sans-Serif" font-size="10.00">_config.h</text>
</a>
</g>
</g>
<!-- Node4&#45;&gt;Node5 -->
<g id="edge4" class="edge"><title>Node4&#45;&gt;Node5</title>
<path fill="none" stroke="midnightblue" d="M656.22,-174.753C651.277,-166.843 644.023,-155.237 637.98,-145.568"/>
<polygon fill="midnightblue" stroke="midnightblue" points="640.94,-143.7 632.672,-137.075 635.004,-147.41 640.94,-143.7"/>
</g>
<!-- Node8 -->
<g id="node8" class="node"><title>Node8</title>
<polygon fill="white" stroke="#bfbfbf" points="673.158,-117 673.158,-137 720.842,-137 720.842,-117 673.158,-117"/>
<text text-anchor="middle" x="697" y="-123" font-family="Helvetica,sans-Serif" font-size="10.00">stdlib.h</text>
</g>
<!-- Node4&#45;&gt;Node8 -->
<g id="edge7" class="edge"><title>Node4&#45;&gt;Node8</title>
<path fill="none" stroke="midnightblue" d="M667.78,-174.753C672.723,-166.843 679.977,-155.237 686.02,-145.568"/>
<polygon fill="midnightblue" stroke="midnightblue" points="688.996,-147.41 691.328,-137.075 683.06,-143.7 688.996,-147.41"/>
</g>
<!-- Node6 -->
<g id="node6" class="node"><title>Node6</title>
<g id="a_node6"><a xlink:href="__platform_8h.xhtml" target="_top" xlink:title="_platform.h">
<polygon fill="white" stroke="black" points="593.988,-59 593.988,-79 660.012,-79 660.012,-59 593.988,-59"/>
<text text-anchor="middle" x="627" y="-65" font-family="Helvetica,sans-Serif" font-size="10.00">_platform.h</text>
</a>
</g>
</g>
<!-- Node5&#45;&gt;Node6 -->
<g id="edge5" class="edge"><title>Node5&#45;&gt;Node6</title>
<path fill="none" stroke="midnightblue" d="M627,-116.753C627,-109.25 627,-98.4238 627,-89.0781"/>
<polygon fill="midnightblue" stroke="midnightblue" points="630.5,-89.0752 627,-79.0752 623.5,-89.0752 630.5,-89.0752"/>
</g>
<!-- Node7 -->
<g id="node7" class="node"><title>Node7</title>
<g id="a_node7"><a xlink:href="__compiler_8h.xhtml" target="_top" xlink:title="_compiler.h">
<polygon fill="white" stroke="black" points="593.429,-1 593.429,-21 660.571,-21 660.571,-1 593.429,-1"/>
<text text-anchor="middle" x="627" y="-7" font-family="Helvetica,sans-Serif" font-size="10.00">_compiler.h</text>
</a>
</g>
</g>
<!-- Node6&#45;&gt;Node7 -->
<g id="edge6" class="edge"><title>Node6&#45;&gt;Node7</title>
<path fill="none" stroke="midnightblue" d="M627,-58.7527C627,-51.2504 627,-40.4238 627,-31.0781"/>
<polygon fill="midnightblue" stroke="midnightblue" points="630.5,-31.0752 627,-21.0752 623.5,-31.0752 630.5,-31.0752"/>
</g>
<!-- Node14&#45;&gt;Node4 -->
<g id="edge14" class="edge"><title>Node14&#45;&gt;Node4</title>
<path fill="none" stroke="midnightblue" d="M82.8506,-290.992C116.294,-273.711 174.576,-245.92 228,-232 364.131,-196.529 531.083,-188.313 612.546,-186.476"/>
<polygon fill="midnightblue" stroke="midnightblue" points="613.064,-189.967 622.992,-186.266 612.923,-182.968 613.064,-189.967"/>
</g>
<!-- Node16 -->
<g id="node16" class="node"><title>Node16</title>
<polygon fill="white" stroke="#bfbfbf" points="475.934,-233 475.934,-253 538.066,-253 538.066,-233 475.934,-233"/>
<text text-anchor="middle" x="507" y="-239" font-family="Helvetica,sans-Serif" font-size="10.00">type_traits</text>
</g>
<!-- Node15&#45;&gt;Node16 -->
<g id="edge16" class="edge"><title>Node15&#45;&gt;Node16</title>
<path fill="none" stroke="midnightblue" d="M616.142,-290.992C592.107,-280.643 560.469,-267.021 537.447,-257.109"/>
<polygon fill="midnightblue" stroke="midnightblue" points="538.725,-253.849 528.156,-253.109 535.957,-260.278 538.725,-253.849"/>
</g>
<!-- Node15&#45;&gt;Node17 -->
<g id="edge17" class="edge"><title>Node15&#45;&gt;Node17</title>
<path fill="none" stroke="midnightblue" d="M598.025,-293.091C593.289,-292.015 588.562,-290.97 584,-290 501.733,-272.516 477.128,-275.993 392.282,-254.058"/>
<polygon fill="midnightblue" stroke="midnightblue" points="393.041,-250.638 382.48,-251.481 391.261,-257.408 393.041,-250.638"/>
</g>
<!-- Node15&#45;&gt;Node18 -->
<g id="edge18" class="edge"><title>Node15&#45;&gt;Node18</title>
<path fill="none" stroke="midnightblue" d="M598.07,-297.491C582.875,-295.059 566.283,-292.414 551,-290 454.004,-274.678 339.012,-256.842 285.779,-248.604"/>
<polygon fill="midnightblue" stroke="midnightblue" points="286.1,-245.112 275.682,-247.042 285.03,-252.029 286.1,-245.112"/>
</g>
<!-- Node19 -->
<g id="node19" class="node"><title>Node19</title>
<polygon fill="white" stroke="#bfbfbf" points="555.828,-233 555.828,-253 610.172,-253 610.172,-233 555.828,-233"/>
<text text-anchor="middle" x="583" y="-239" font-family="Helvetica,sans-Serif" font-size="10.00">iostream</text>
</g>
<!-- Node15&#45;&gt;Node19 -->
<g id="edge19" class="edge"><title>Node15&#45;&gt;Node19</title>
<path fill="none" stroke="midnightblue" d="M634.539,-290.992C624.366,-281.716 611.308,-269.811 600.882,-260.304"/>
<polygon fill="midnightblue" stroke="midnightblue" points="602.937,-257.442 593.189,-253.29 598.221,-262.614 602.937,-257.442"/>
</g>
<!-- Node20 -->
<g id="node20" class="node"><title>Node20</title>
<polygon fill="white" stroke="#bfbfbf" points="400.436,-233 400.436,-253 457.564,-253 457.564,-233 400.436,-233"/>
<text text-anchor="middle" x="429" y="-239" font-family="Helvetica,sans-Serif" font-size="10.00">algorithm</text>
</g>
<!-- Node15&#45;&gt;Node20 -->
<g id="edge20" class="edge"><title>Node15&#45;&gt;Node20</title>
<path fill="none" stroke="midnightblue" d="M598.108,-291.228C557.899,-279.999 503.523,-264.813 467.408,-254.726"/>
<polygon fill="midnightblue" stroke="midnightblue" points="468.305,-251.343 457.732,-252.024 466.422,-258.085 468.305,-251.343"/>
</g>
<!-- Node21 -->
<g id="node21" class="node"><title>Node21</title>
<g id="a_node21"><a xlink:href="____strhash_8h.xhtml" target="_top" xlink:title="__strhash.h">
<polygon fill="white" stroke="black" points="627.872,-233 627.872,-253 696.128,-253 696.128,-233 627.872,-233"/>
<text text-anchor="middle" x="662" y="-239" font-family="Helvetica,sans-Serif" font-size="10.00">__strhash.h</text>
</a>
</g>
</g>
<!-- Node15&#45;&gt;Node21 -->
<g id="edge21" class="edge"><title>Node15&#45;&gt;Node21</title>
<path fill="none" stroke="midnightblue" d="M653.663,-290.992C655.145,-282.635 657.007,-272.142 658.595,-263.194"/>
<polygon fill="midnightblue" stroke="midnightblue" points="662.051,-263.748 660.352,-253.29 655.159,-262.525 662.051,-263.748"/>
</g>
<!-- Node21&#45;&gt;Node4 -->
<g id="edge22" class="edge"><title>Node21&#45;&gt;Node4</title>
<path fill="none" stroke="midnightblue" d="M662,-232.753C662,-225.25 662,-214.424 662,-205.078"/>
<polygon fill="midnightblue" stroke="midnightblue" points="665.5,-205.075 662,-195.075 658.5,-205.075 665.5,-205.075"/>
</g>
<!-- Node21&#45;&gt;Node11 -->
<g id="edge23" class="edge"><title>Node21&#45;&gt;Node11</title>
<path fill="none" stroke="midnightblue" d="M680.733,-232.878C699.277,-223.847 727.893,-209.913 749.11,-199.581"/>
<polygon fill="midnightblue" stroke="midnightblue" points="750.817,-202.643 758.275,-195.118 747.752,-196.349 750.817,-202.643"/>
</g>
</g>
</svg>
