<?xml version="1.0" encoding="UTF-8" standalone="no"?>
<!DOCTYPE svg PUBLIC "-//W3C//DTD SVG 1.1//EN"
 "http://www.w3.org/Graphics/SVG/1.1/DTD/svg11.dtd">
<!-- Generated by graphviz version 2.30.0 (20130114.0426)
 -->
<!-- Title: /Users/rkwright/Documents/github/readium&#45;sdk&#45;D/ePub3/utilities/Library.cpp Pages: 1 -->
<svg width="1734pt" height="554pt"
 viewBox="0.00 0.00 1734.00 554.00" xmlns="http://www.w3.org/2000/svg" xmlns:xlink="http://www.w3.org/1999/xlink">
<g id="graph0" class="graph" transform="scale(1 1) rotate(0) translate(4 550)">
<title>/Users/rkwright/Documents/github/readium&#45;sdk&#45;D/ePub3/utilities/Library.cpp</title>
<polygon fill="white" stroke="white" points="-4,5 -4,-550 1731,-550 1731,5 -4,5"/>
<!-- Node1 -->
<g id="node1" class="node"><title>Node1</title>
<polygon fill="#bfbfbf" stroke="black" points="1477.97,-501 1477.97,-545 1624.03,-545 1624.03,-501 1477.97,-501"/>
<text text-anchor="start" x="1485.97" y="-531" font-family="Helvetica,sans-Serif" font-size="10.00">/Users/rkwright/Documents</text>
<text text-anchor="start" x="1485.97" y="-519" font-family="Helvetica,sans-Serif" font-size="10.00">/github/readium&#45;sdk&#45;D/ePub3</text>
<text text-anchor="middle" x="1551" y="-507" font-family="Helvetica,sans-Serif" font-size="10.00">/utilities/Library.cpp</text>
</g>
<!-- Node2 -->
<g id="node2" class="node"><title>Node2</title>
<g id="a_node2"><a xlink:href="library_8h.xhtml" target="_top" xlink:title="Library.h">
<polygon fill="white" stroke="black" points="1439.92,-443 1439.92,-463 1494.08,-463 1494.08,-443 1439.92,-443"/>
<text text-anchor="middle" x="1467" y="-449" font-family="Helvetica,sans-Serif" font-size="10.00">Library.h</text>
</a>
</g>
</g>
<!-- Node1&#45;&gt;Node2 -->
<g id="edge1" class="edge"><title>Node1&#45;&gt;Node2</title>
<path fill="none" stroke="midnightblue" d="M1524.88,-500.857C1512.45,-490.791 1497.84,-478.962 1486.4,-469.707"/>
<polygon fill="midnightblue" stroke="midnightblue" points="1488.34,-466.776 1478.37,-463.204 1483.94,-472.216 1488.34,-466.776"/>
</g>
<!-- Node48 -->
<g id="node48" class="node"><title>Node48</title>
<polygon fill="white" stroke="#bfbfbf" points="1617.21,-443 1617.21,-463 1678.79,-463 1678.79,-443 1617.21,-443"/>
<text text-anchor="middle" x="1648" y="-449" font-family="Helvetica,sans-Serif" font-size="10.00">Streams.h</text>
</g>
<!-- Node1&#45;&gt;Node48 -->
<g id="edge66" class="edge"><title>Node1&#45;&gt;Node48</title>
<path fill="none" stroke="midnightblue" d="M1581.16,-500.857C1595.89,-490.53 1613.27,-478.348 1626.61,-468.993"/>
<polygon fill="midnightblue" stroke="midnightblue" points="1628.94,-471.633 1635.12,-463.027 1624.93,-465.901 1628.94,-471.633"/>
</g>
<!-- Node5 -->
<g id="node5" class="node"><title>Node5</title>
<polygon fill="white" stroke="#bfbfbf" points="1632.08,-379 1632.08,-399 1725.92,-399 1725.92,-379 1632.08,-379"/>
<text text-anchor="middle" x="1679" y="-385" font-family="Helvetica,sans-Serif" font-size="10.00">ePub3/package.h</text>
</g>
<!-- Node1&#45;&gt;Node5 -->
<g id="edge67" class="edge"><title>Node1&#45;&gt;Node5</title>
<path fill="none" stroke="midnightblue" d="M1563.41,-500.89C1573.99,-483.895 1590.27,-459.963 1608,-442 1622.22,-427.592 1640.74,-414.168 1655.3,-404.57"/>
<polygon fill="midnightblue" stroke="midnightblue" points="1657.26,-407.468 1663.78,-399.113 1653.48,-401.581 1657.26,-407.468"/>
</g>
<!-- Node4 -->
<g id="node4" class="node"><title>Node4</title>
<polygon fill="white" stroke="#bfbfbf" points="1517.69,-379 1517.69,-399 1614.31,-399 1614.31,-379 1517.69,-379"/>
<text text-anchor="middle" x="1566" y="-385" font-family="Helvetica,sans-Serif" font-size="10.00">ePub3/container.h</text>
</g>
<!-- Node1&#45;&gt;Node4 -->
<g id="edge68" class="edge"><title>Node1&#45;&gt;Node4</title>
<path fill="none" stroke="midnightblue" d="M1553.41,-500.792C1556.28,-475.501 1561.05,-433.594 1563.82,-409.215"/>
<polygon fill="midnightblue" stroke="midnightblue" points="1567.32,-409.419 1564.97,-399.088 1560.36,-408.628 1567.32,-409.419"/>
</g>
<!-- Node49 -->
<g id="node49" class="node"><title>Node49</title>
<g id="a_node49"><a xlink:href="iri_8h.xhtml" target="_top" xlink:title="ePub3/utilities/iri.h">
<polygon fill="white" stroke="black" points="84.4238,-309 84.4238,-329 181.576,-329 181.576,-309 84.4238,-309"/>
<text text-anchor="middle" x="133" y="-315" font-family="Helvetica,sans-Serif" font-size="10.00">ePub3/utilities/iri.h</text>
</a>
</g>
</g>
<!-- Node1&#45;&gt;Node49 -->
<g id="edge69" class="edge"><title>Node1&#45;&gt;Node49</title>
<path fill="none" stroke="midnightblue" d="M1477.75,-511.565C1228.64,-476.078 417.212,-360.487 191.647,-328.355"/>
<polygon fill="midnightblue" stroke="midnightblue" points="192.06,-324.878 181.666,-326.933 191.073,-331.808 192.06,-324.878"/>
</g>
<!-- Node3 -->
<g id="node3" class="node"><title>Node3</title>
<polygon fill="white" stroke="#bfbfbf" points="1369.08,-245 1369.08,-265 1452.92,-265 1452.92,-245 1369.08,-245"/>
<text text-anchor="middle" x="1411" y="-251" font-family="Helvetica,sans-Serif" font-size="10.00">ePub3/epub3.h</text>
</g>
<!-- Node2&#45;&gt;Node3 -->
<g id="edge2" class="edge"><title>Node2&#45;&gt;Node3</title>
<path fill="none" stroke="midnightblue" d="M1464.37,-442.809C1455.76,-412.657 1428.23,-316.321 1416.44,-275.056"/>
<polygon fill="midnightblue" stroke="midnightblue" points="1419.8,-274.052 1413.69,-265.399 1413.07,-275.976 1419.8,-274.052"/>
</g>
<!-- Node2&#45;&gt;Node4 -->
<g id="edge3" class="edge"><title>Node2&#45;&gt;Node4</title>
<path fill="none" stroke="midnightblue" d="M1481.61,-442.852C1497.69,-432.778 1523.78,-416.441 1542.7,-404.594"/>
<polygon fill="midnightblue" stroke="midnightblue" points="1544.71,-407.46 1551.33,-399.186 1541,-401.527 1544.71,-407.46"/>
</g>
<!-- Node2&#45;&gt;Node5 -->
<g id="edge4" class="edge"><title>Node2&#45;&gt;Node5</title>
<path fill="none" stroke="midnightblue" d="M1494.28,-444.022C1530.83,-433.333 1595.98,-414.281 1638.32,-401.896"/>
<polygon fill="midnightblue" stroke="midnightblue" points="1639.43,-405.22 1648.04,-399.053 1637.46,-398.501 1639.43,-405.22"/>
</g>
<!-- Node6 -->
<g id="node6" class="node"><title>Node6</title>
<polygon fill="white" stroke="#bfbfbf" points="959.983,-379 959.983,-399 1026.02,-399 1026.02,-379 959.983,-379"/>
<text text-anchor="middle" x="993" y="-385" font-family="Helvetica,sans-Serif" font-size="10.00">ePub3/cfi.h</text>
</g>
<!-- Node2&#45;&gt;Node6 -->
<g id="edge5" class="edge"><title>Node2&#45;&gt;Node6</title>
<path fill="none" stroke="midnightblue" d="M1439.8,-451.525C1371.02,-449.805 1185,-441.919 1035,-406 1031.1,-405.066 1027.07,-403.862 1023.12,-402.534"/>
<polygon fill="midnightblue" stroke="midnightblue" points="1024.2,-399.199 1013.6,-399.061 1021.8,-405.775 1024.2,-399.199"/>
</g>
<!-- Node7 -->
<g id="node7" class="node"><title>Node7</title>
<g id="a_node7"><a xlink:href="utfstring_8h.xhtml" target="_top" xlink:title="ePub3/utilities/utfstring.h">
<polygon fill="white" stroke="black" points="586.525,-245 586.525,-265 711.475,-265 711.475,-245 586.525,-245"/>
<text text-anchor="middle" x="649" y="-251" font-family="Helvetica,sans-Serif" font-size="10.00">ePub3/utilities/utfstring.h</text>
</a>
</g>
</g>
<!-- Node2&#45;&gt;Node7 -->
<g id="edge6" class="edge"><title>Node2&#45;&gt;Node7</title>
<path fill="none" stroke="midnightblue" d="M1439.85,-451.618C1362.62,-450.095 1135.38,-442.588 951,-406 848.692,-385.698 815.896,-390.56 727,-336 700.11,-319.496 675.903,-291.671 661.825,-273.572"/>
<polygon fill="midnightblue" stroke="midnightblue" points="664.247,-270.972 655.425,-265.105 658.663,-275.193 664.247,-270.972"/>
</g>
<!-- Node31 -->
<g id="node31" class="node"><title>Node31</title>
<g id="a_node31"><a xlink:href="byte__stream_8h.xhtml" target="_top" xlink:title="ePub3/utilities/byte\l_stream.h">
<polygon fill="white" stroke="black" points="1044.03,-373 1044.03,-405 1143.97,-405 1143.97,-373 1044.03,-373"/>
<text text-anchor="start" x="1052.03" y="-391" font-family="Helvetica,sans-Serif" font-size="10.00">ePub3/utilities/byte</text>
<text text-anchor="middle" x="1094" y="-379" font-family="Helvetica,sans-Serif" font-size="10.00">_stream.h</text>
</a>
</g>
</g>
<!-- Node2&#45;&gt;Node31 -->
<g id="edge36" class="edge"><title>Node2&#45;&gt;Node31</title>
<path fill="none" stroke="midnightblue" d="M1439.87,-447.491C1380.17,-437.567 1236.17,-413.632 1154.04,-399.98"/>
<polygon fill="midnightblue" stroke="midnightblue" points="1154.53,-396.514 1144.09,-398.327 1153.39,-403.419 1154.53,-396.514"/>
</g>
<!-- Node28 -->
<g id="node28" class="node"><title>Node28</title>
<polygon fill="white" stroke="#bfbfbf" points="1119.27,-181 1119.27,-201 1154.73,-201 1154.73,-181 1119.27,-181"/>
<text text-anchor="middle" x="1137" y="-187" font-family="Helvetica,sans-Serif" font-size="10.00">map</text>
</g>
<!-- Node2&#45;&gt;Node28 -->
<g id="edge65" class="edge"><title>Node2&#45;&gt;Node28</title>
<path fill="none" stroke="midnightblue" d="M1470.38,-442.648C1481.36,-410.407 1512.47,-302.652 1461,-244 1422.31,-199.91 1236.21,-193.105 1164.9,-192.13"/>
<polygon fill="midnightblue" stroke="midnightblue" points="1164.89,-188.629 1154.86,-192.021 1164.82,-195.629 1164.89,-188.629"/>
</g>
<!-- Node8 -->
<g id="node8" class="node"><title>Node8</title>
<g id="a_node8"><a xlink:href="basic_8h.xhtml" target="_top" xlink:title="ePub3/utilities/basic.h">
<polygon fill="white" stroke="black" points="966.638,-181 966.638,-201 1079.36,-201 1079.36,-181 966.638,-181"/>
<text text-anchor="middle" x="1023" y="-187" font-family="Helvetica,sans-Serif" font-size="10.00">ePub3/utilities/basic.h</text>
</a>
</g>
</g>
<!-- Node7&#45;&gt;Node8 -->
<g id="edge7" class="edge"><title>Node7&#45;&gt;Node8</title>
<path fill="none" stroke="midnightblue" d="M703.383,-244.985C771.105,-233.758 886.638,-214.606 958.684,-202.662"/>
<polygon fill="midnightblue" stroke="midnightblue" points="959.259,-206.115 968.552,-201.026 958.114,-199.209 959.259,-206.115"/>
</g>
<!-- Node17 -->
<g id="node17" class="node"><title>Node17</title>
<g id="a_node17"><a xlink:href="integer__sequence_8h.xhtml" target="_top" xlink:title="ePub3/utilities/integer\l_sequence.h">
<polygon fill="white" stroke="black" points="799.192,-175 799.192,-207 910.808,-207 910.808,-175 799.192,-175"/>
<text text-anchor="start" x="807.192" y="-193" font-family="Helvetica,sans-Serif" font-size="10.00">ePub3/utilities/integer</text>
<text text-anchor="middle" x="855" y="-181" font-family="Helvetica,sans-Serif" font-size="10.00">_sequence.h</text>
</a>
</g>
</g>
<!-- Node7&#45;&gt;Node17 -->
<g id="edge16" class="edge"><title>Node7&#45;&gt;Node17</title>
<path fill="none" stroke="midnightblue" d="M678.954,-244.985C709.275,-235.859 756.995,-221.497 795.108,-210.026"/>
<polygon fill="midnightblue" stroke="midnightblue" points="796.509,-213.259 805.076,-207.026 794.491,-206.556 796.509,-213.259"/>
</g>
<!-- Node18 -->
<g id="node18" class="node"><title>Node18</title>
<g id="a_node18"><a xlink:href="string__view_8h.xhtml" target="_top" xlink:title="ePub3/utilities/string\l_view.h">
<polygon fill="white" stroke="black" points="599.254,-175 599.254,-207 704.746,-207 704.746,-175 599.254,-175"/>
<text text-anchor="start" x="607.254" y="-193" font-family="Helvetica,sans-Serif" font-size="10.00">ePub3/utilities/string</text>
<text text-anchor="middle" x="652" y="-181" font-family="Helvetica,sans-Serif" font-size="10.00">_view.h</text>
</a>
</g>
</g>
<!-- Node7&#45;&gt;Node18 -->
<g id="edge18" class="edge"><title>Node7&#45;&gt;Node18</title>
<path fill="none" stroke="midnightblue" d="M649.443,-244.852C649.792,-237.629 650.298,-227.185 650.767,-217.486"/>
<polygon fill="midnightblue" stroke="midnightblue" points="654.265,-217.598 651.253,-207.44 647.274,-217.26 654.265,-217.598"/>
</g>
<!-- Node20 -->
<g id="node20" class="node"><title>Node20</title>
<polygon fill="white" stroke="#bfbfbf" points="699.773,-117 699.773,-137 740.227,-137 740.227,-117 699.773,-117"/>
<text text-anchor="middle" x="720" y="-123" font-family="Helvetica,sans-Serif" font-size="10.00">string</text>
</g>
<!-- Node7&#45;&gt;Node20 -->
<g id="edge27" class="edge"><title>Node7&#45;&gt;Node20</title>
<path fill="none" stroke="midnightblue" d="M669.743,-244.965C684.486,-237.366 703.321,-225.006 713,-208 723.534,-189.492 723.99,-164.588 722.643,-147.511"/>
<polygon fill="midnightblue" stroke="midnightblue" points="726.074,-146.682 721.525,-137.113 719.114,-147.43 726.074,-146.682"/>
</g>
<!-- Node25 -->
<g id="node25" class="node"><title>Node25</title>
<polygon fill="white" stroke="#bfbfbf" points="199.438,-181 199.438,-201 246.562,-201 246.562,-181 199.438,-181"/>
<text text-anchor="middle" x="223" y="-187" font-family="Helvetica,sans-Serif" font-size="10.00">iterator</text>
</g>
<!-- Node7&#45;&gt;Node25 -->
<g id="edge28" class="edge"><title>Node7&#45;&gt;Node25</title>
<path fill="none" stroke="midnightblue" d="M586.386,-245.672C581.857,-245.097 577.359,-244.534 573,-244 432.259,-226.75 392.183,-247.494 256,-208 253.395,-207.245 250.744,-206.298 248.133,-205.244"/>
<polygon fill="midnightblue" stroke="midnightblue" points="249.567,-202.051 239.014,-201.11 246.677,-208.426 249.567,-202.051"/>
</g>
<!-- Node26 -->
<g id="node26" class="node"><title>Node26</title>
<polygon fill="white" stroke="#bfbfbf" points="264.936,-181 264.936,-201 307.064,-201 307.064,-181 264.936,-181"/>
<text text-anchor="middle" x="286" y="-187" font-family="Helvetica,sans-Serif" font-size="10.00">locale</text>
</g>
<!-- Node7&#45;&gt;Node26 -->
<g id="edge29" class="edge"><title>Node7&#45;&gt;Node26</title>
<path fill="none" stroke="midnightblue" d="M586.309,-245.622C491.619,-232.928 322.384,-210.071 316,-208 313.856,-207.305 311.684,-206.461 309.54,-205.528"/>
<polygon fill="midnightblue" stroke="midnightblue" points="311.011,-202.351 300.495,-201.056 307.908,-208.626 311.011,-202.351"/>
</g>
<!-- Node15 -->
<g id="node15" class="node"><title>Node15</title>
<polygon fill="white" stroke="#bfbfbf" points="274.384,-117 274.384,-137 317.616,-137 317.616,-117 274.384,-117"/>
<text text-anchor="middle" x="296" y="-123" font-family="Helvetica,sans-Serif" font-size="10.00">vector</text>
</g>
<!-- Node7&#45;&gt;Node15 -->
<g id="edge30" class="edge"><title>Node7&#45;&gt;Node15</title>
<path fill="none" stroke="midnightblue" d="M586.397,-245.576C581.866,-245.023 577.364,-244.492 573,-244 530.526,-239.211 218.775,-239.607 190,-208 179.827,-196.826 181.71,-186.634 190,-174 194.425,-167.257 235.122,-150.832 264.773,-139.551"/>
<polygon fill="midnightblue" stroke="midnightblue" points="266.215,-142.748 274.336,-135.944 263.744,-136.198 266.215,-142.748"/>
</g>
<!-- Node27 -->
<g id="node27" class="node"><title>Node27</title>
<polygon fill="white" stroke="#bfbfbf" points="324.766,-181 324.766,-201 425.234,-201 425.234,-181 324.766,-181"/>
<text text-anchor="middle" x="375" y="-187" font-family="Helvetica,sans-Serif" font-size="10.00">REGEX_INCLUDE</text>
</g>
<!-- Node7&#45;&gt;Node27 -->
<g id="edge31" class="edge"><title>Node7&#45;&gt;Node27</title>
<path fill="none" stroke="midnightblue" d="M603.766,-244.946C560.352,-236.098 493.006,-221.96 435,-208 429.293,-206.626 423.298,-205.113 417.398,-203.582"/>
<polygon fill="midnightblue" stroke="midnightblue" points="418.185,-200.17 407.623,-201.01 416.403,-206.94 418.185,-200.17"/>
</g>
<!-- Node7&#45;&gt;Node28 -->
<g id="edge32" class="edge"><title>Node7&#45;&gt;Node28</title>
<path fill="none" stroke="midnightblue" d="M711.727,-248.168C824.266,-237.594 1052.12,-215.648 1088,-208 1095.06,-206.496 1102.53,-204.352 1109.45,-202.121"/>
<polygon fill="midnightblue" stroke="midnightblue" points="1110.75,-205.377 1119.1,-198.854 1108.5,-198.747 1110.75,-205.377"/>
</g>
<!-- Node29 -->
<g id="node29" class="node"><title>Node29</title>
<polygon fill="white" stroke="#bfbfbf" points="443.599,-181 443.599,-201 502.401,-201 502.401,-181 443.599,-181"/>
<text text-anchor="middle" x="473" y="-187" font-family="Helvetica,sans-Serif" font-size="10.00">stdexcept</text>
</g>
<!-- Node7&#45;&gt;Node29 -->
<g id="edge33" class="edge"><title>Node7&#45;&gt;Node29</title>
<path fill="none" stroke="midnightblue" d="M620.208,-244.938C592.352,-236.028 549.03,-221.796 512,-208 509.3,-206.994 506.507,-205.919 503.715,-204.82"/>
<polygon fill="midnightblue" stroke="midnightblue" points="504.941,-201.54 494.357,-201.056 502.329,-208.035 504.941,-201.54"/>
</g>
<!-- Node21 -->
<g id="node21" class="node"><title>Node21</title>
<polygon fill="white" stroke="#bfbfbf" points="758.613,-117 758.613,-137 797.387,-137 797.387,-117 758.613,-117"/>
<text text-anchor="middle" x="778" y="-123" font-family="Helvetica,sans-Serif" font-size="10.00">limits</text>
</g>
<!-- Node7&#45;&gt;Node21 -->
<g id="edge34" class="edge"><title>Node7&#45;&gt;Node21</title>
<path fill="none" stroke="midnightblue" d="M673.051,-244.846C690.945,-237.117 715.093,-224.642 732,-208 749.87,-190.409 763.084,-164.424 770.655,-146.885"/>
<polygon fill="midnightblue" stroke="midnightblue" points="774.069,-147.786 774.631,-137.206 767.594,-145.126 774.069,-147.786"/>
</g>
<!-- Node30 -->
<g id="node30" class="node"><title>Node30</title>
<polygon fill="white" stroke="#bfbfbf" points="520.761,-181 520.761,-201 581.239,-201 581.239,-181 520.761,-181"/>
<text text-anchor="middle" x="551" y="-187" font-family="Helvetica,sans-Serif" font-size="10.00">utf8/utf8.h</text>
</g>
<!-- Node7&#45;&gt;Node30 -->
<g id="edge35" class="edge"><title>Node7&#45;&gt;Node30</title>
<path fill="none" stroke="midnightblue" d="M634.54,-244.852C618.617,-234.778 592.793,-218.441 574.067,-206.594"/>
<polygon fill="midnightblue" stroke="midnightblue" points="575.842,-203.575 565.52,-201.186 572.099,-209.49 575.842,-203.575"/>
</g>
<!-- Node9 -->
<g id="node9" class="node"><title>Node9</title>
<g id="a_node9"><a xlink:href="base_8h.xhtml" target="_top" xlink:title="ePub3/base.h">
<polygon fill="white" stroke="black" points="792.141,-59 792.141,-79 869.859,-79 869.859,-59 792.141,-59"/>
<text text-anchor="middle" x="831" y="-65" font-family="Helvetica,sans-Serif" font-size="10.00">ePub3/base.h</text>
</a>
</g>
</g>
<!-- Node8&#45;&gt;Node9 -->
<g id="edge8" class="edge"><title>Node8&#45;&gt;Node9</title>
<path fill="none" stroke="midnightblue" d="M1061.44,-180.953C1103.97,-169.19 1163.25,-146.489 1137,-116 1104.42,-78.1567 957.791,-71.018 879.935,-69.946"/>
<polygon fill="midnightblue" stroke="midnightblue" points="879.918,-66.4457 869.881,-69.836 879.842,-73.4452 879.918,-66.4457"/>
</g>
<!-- Node12 -->
<g id="node12" class="node"><title>Node12</title>
<polygon fill="white" stroke="#bfbfbf" points="944.815,-117 944.815,-137 1059.18,-137 1059.18,-117 944.815,-117"/>
<text text-anchor="middle" x="1002" y="-123" font-family="Helvetica,sans-Serif" font-size="10.00">ePub3/xml/xmlstring.h</text>
</g>
<!-- Node8&#45;&gt;Node12 -->
<g id="edge11" class="edge"><title>Node8&#45;&gt;Node12</title>
<path fill="none" stroke="midnightblue" d="M1019.9,-180.852C1016.89,-171.969 1012.23,-158.215 1008.42,-146.964"/>
<polygon fill="midnightblue" stroke="midnightblue" points="1011.63,-145.534 1005.11,-137.186 1005,-147.78 1011.63,-145.534"/>
</g>
<!-- Node13 -->
<g id="node13" class="node"><title>Node13</title>
<polygon fill="white" stroke="#bfbfbf" points="1077.22,-117 1077.22,-137 1128.78,-137 1128.78,-117 1077.22,-117"/>
<text text-anchor="middle" x="1103" y="-123" font-family="Helvetica,sans-Serif" font-size="10.00">sstream</text>
</g>
<!-- Node8&#45;&gt;Node13 -->
<g id="edge12" class="edge"><title>Node8&#45;&gt;Node13</title>
<path fill="none" stroke="midnightblue" d="M1034.8,-180.852C1047.45,-171.053 1067.74,-155.327 1082.91,-143.573"/>
<polygon fill="midnightblue" stroke="midnightblue" points="1085.39,-146.078 1091.15,-137.186 1081.1,-140.545 1085.39,-146.078"/>
</g>
<!-- Node14 -->
<g id="node14" class="node"><title>Node14</title>
<polygon fill="white" stroke="#bfbfbf" points="473.943,-59 473.943,-79 526.057,-79 526.057,-59 473.943,-59"/>
<text text-anchor="middle" x="500" y="-65" font-family="Helvetica,sans-Serif" font-size="10.00">memory</text>
</g>
<!-- Node8&#45;&gt;Node14 -->
<g id="edge13" class="edge"><title>Node8&#45;&gt;Node14</title>
<path fill="none" stroke="midnightblue" d="M1007.93,-180.926C975.802,-161.608 902.984,-118.004 897,-116 769.65,-73.3458 607.916,-68.8958 536.6,-69.2624"/>
<polygon fill="midnightblue" stroke="midnightblue" points="536.318,-65.7646 526.349,-69.3524 536.379,-72.7643 536.318,-65.7646"/>
</g>
<!-- Node8&#45;&gt;Node15 -->
<g id="edge14" class="edge"><title>Node8&#45;&gt;Node15</title>
<path fill="none" stroke="midnightblue" d="M969.666,-180.968C953.433,-178.442 935.518,-175.877 919,-174 802.459,-160.754 438.107,-137.053 327.897,-130.02"/>
<polygon fill="midnightblue" stroke="midnightblue" points="327.953,-126.517 317.751,-129.374 327.508,-133.503 327.953,-126.517"/>
</g>
<!-- Node16 -->
<g id="node16" class="node"><title>Node16</title>
<polygon fill="white" stroke="#bfbfbf" points="859.5,-117 859.5,-137 888.5,-137 888.5,-117 859.5,-117"/>
<text text-anchor="middle" x="873.611" y="-123" font-family="Helvetica,sans-Serif" font-size="10.00">list</text>
</g>
<!-- Node8&#45;&gt;Node16 -->
<g id="edge15" class="edge"><title>Node8&#45;&gt;Node16</title>
<path fill="none" stroke="midnightblue" d="M1001.33,-180.985C973.898,-169.568 926.766,-149.956 898.184,-138.063"/>
<polygon fill="midnightblue" stroke="midnightblue" points="899.488,-134.815 888.911,-134.205 896.799,-141.278 899.488,-134.815"/>
</g>
<!-- Node10 -->
<g id="node10" class="node"><title>Node10</title>
<g id="a_node10"><a xlink:href="__config_8h.xhtml" target="_top" xlink:title="_config.h">
<polygon fill="white" stroke="red" points="767.707,-1 767.707,-21 824.293,-21 824.293,-1 767.707,-1"/>
<text text-anchor="middle" x="796" y="-7" font-family="Helvetica,sans-Serif" font-size="10.00">_config.h</text>
</a>
</g>
</g>
<!-- Node9&#45;&gt;Node10 -->
<g id="edge9" class="edge"><title>Node9&#45;&gt;Node10</title>
<path fill="none" stroke="midnightblue" d="M825.22,-58.7527C820.277,-50.8427 813.023,-39.2372 806.98,-29.5683"/>
<polygon fill="midnightblue" stroke="midnightblue" points="809.94,-27.7002 801.672,-21.0752 804.004,-31.4102 809.94,-27.7002"/>
</g>
<!-- Node11 -->
<g id="node11" class="node"><title>Node11</title>
<polygon fill="white" stroke="#bfbfbf" points="842.158,-1 842.158,-21 889.842,-21 889.842,-1 842.158,-1"/>
<text text-anchor="middle" x="866" y="-7" font-family="Helvetica,sans-Serif" font-size="10.00">stdlib.h</text>
</g>
<!-- Node9&#45;&gt;Node11 -->
<g id="edge10" class="edge"><title>Node9&#45;&gt;Node11</title>
<path fill="none" stroke="midnightblue" d="M836.78,-58.7527C841.723,-50.8427 848.977,-39.2372 855.02,-29.5683"/>
<polygon fill="midnightblue" stroke="midnightblue" points="857.996,-31.4102 860.328,-21.0752 852.06,-27.7002 857.996,-31.4102"/>
</g>
<!-- Node17&#45;&gt;Node9 -->
<g id="edge17" class="edge"><title>Node17&#45;&gt;Node9</title>
<path fill="none" stroke="midnightblue" d="M851.96,-174.802C847.605,-153.024 839.59,-112.951 834.833,-89.1666"/>
<polygon fill="midnightblue" stroke="midnightblue" points="838.239,-88.3487 832.846,-79.2293 831.375,-89.7216 838.239,-88.3487"/>
</g>
<!-- Node19 -->
<g id="node19" class="node"><title>Node19</title>
<polygon fill="white" stroke="#bfbfbf" points="193.934,-117 193.934,-137 256.066,-137 256.066,-117 193.934,-117"/>
<text text-anchor="middle" x="225" y="-123" font-family="Helvetica,sans-Serif" font-size="10.00">type_traits</text>
</g>
<!-- Node18&#45;&gt;Node19 -->
<g id="edge19" class="edge"><title>Node18&#45;&gt;Node19</title>
<path fill="none" stroke="midnightblue" d="M599.01,-175.797C595.971,-175.147 592.952,-174.542 590,-174 450.268,-148.366 409.846,-162.989 266.409,-138.046"/>
<polygon fill="midnightblue" stroke="midnightblue" points="266.814,-134.563 256.357,-136.263 265.592,-141.456 266.814,-134.563"/>
</g>
<!-- Node18&#45;&gt;Node20 -->
<g id="edge20" class="edge"><title>Node18&#45;&gt;Node20</title>
<path fill="none" stroke="midnightblue" d="M668.461,-174.992C678.634,-165.716 691.692,-153.811 702.118,-144.304"/>
<polygon fill="midnightblue" stroke="midnightblue" points="704.779,-146.614 709.811,-137.29 700.063,-141.442 704.779,-146.614"/>
</g>
<!-- Node18&#45;&gt;Node21 -->
<g id="edge21" class="edge"><title>Node18&#45;&gt;Node21</title>
<path fill="none" stroke="midnightblue" d="M682.501,-174.992C703.156,-164.828 730.228,-151.507 750.272,-141.644"/>
<polygon fill="midnightblue" stroke="midnightblue" points="752.061,-144.664 759.489,-137.109 748.971,-138.383 752.061,-144.664"/>
</g>
<!-- Node22 -->
<g id="node22" class="node"><title>Node22</title>
<polygon fill="white" stroke="#bfbfbf" points="627.828,-117 627.828,-137 682.172,-137 682.172,-117 627.828,-117"/>
<text text-anchor="middle" x="655" y="-123" font-family="Helvetica,sans-Serif" font-size="10.00">iostream</text>
</g>
<!-- Node18&#45;&gt;Node22 -->
<g id="edge22" class="edge"><title>Node18&#45;&gt;Node22</title>
<path fill="none" stroke="midnightblue" d="M652.726,-174.992C653.126,-166.726 653.627,-156.373 654.057,-147.489"/>
<polygon fill="midnightblue" stroke="midnightblue" points="657.563,-147.448 654.55,-137.29 650.571,-147.11 657.563,-147.448"/>
</g>
<!-- Node23 -->
<g id="node23" class="node"><title>Node23</title>
<polygon fill="white" stroke="#bfbfbf" points="552.436,-117 552.436,-137 609.564,-137 609.564,-117 552.436,-117"/>
<text text-anchor="middle" x="581" y="-123" font-family="Helvetica,sans-Serif" font-size="10.00">algorithm</text>
</g>
<!-- Node18&#45;&gt;Node23 -->
<g id="edge23" class="edge"><title>Node18&#45;&gt;Node23</title>
<path fill="none" stroke="midnightblue" d="M634.813,-174.992C624.086,-165.624 610.287,-153.575 599.348,-144.022"/>
<polygon fill="midnightblue" stroke="midnightblue" points="601.474,-141.232 591.639,-137.29 596.869,-146.504 601.474,-141.232"/>
</g>
<!-- Node24 -->
<g id="node24" class="node"><title>Node24</title>
<g id="a_node24"><a xlink:href="____strhash_8h.xhtml" target="_top" xlink:title="__strhash.h">
<polygon fill="white" stroke="black" points="465.872,-117 465.872,-137 534.128,-137 534.128,-117 465.872,-117"/>
<text text-anchor="middle" x="500" y="-123" font-family="Helvetica,sans-Serif" font-size="10.00">__strhash.h</text>
</a>
</g>
</g>
<!-- Node18&#45;&gt;Node24 -->
<g id="edge24" class="edge"><title>Node18&#45;&gt;Node24</title>
<path fill="none" stroke="midnightblue" d="M615.205,-174.992C589.722,-164.597 556.141,-150.899 531.814,-140.977"/>
<polygon fill="midnightblue" stroke="midnightblue" points="532.912,-137.645 522.331,-137.109 530.269,-144.126 532.912,-137.645"/>
</g>
<!-- Node24&#45;&gt;Node9 -->
<g id="edge25" class="edge"><title>Node24&#45;&gt;Node9</title>
<path fill="none" stroke="midnightblue" d="M534.221,-117.814C537.185,-117.174 540.142,-116.56 543,-116 626.437,-99.6555 724.327,-84.9614 781.811,-76.7848"/>
<polygon fill="midnightblue" stroke="midnightblue" points="782.305,-80.2499 791.716,-75.3836 781.325,-73.3189 782.305,-80.2499"/>
</g>
<!-- Node24&#45;&gt;Node14 -->
<g id="edge26" class="edge"><title>Node24&#45;&gt;Node14</title>
<path fill="none" stroke="midnightblue" d="M500,-116.753C500,-109.25 500,-98.4238 500,-89.0781"/>
<polygon fill="midnightblue" stroke="midnightblue" points="503.5,-89.0752 500,-79.0752 496.5,-89.0752 503.5,-89.0752"/>
</g>
<!-- Node31&#45;&gt;Node3 -->
<g id="edge37" class="edge"><title>Node31&#45;&gt;Node3</title>
<path fill="none" stroke="midnightblue" d="M1144.15,-385.945C1220.07,-381.772 1359.06,-369.64 1394,-336 1410.18,-320.422 1412.85,-293.554 1412.54,-275.294"/>
<polygon fill="midnightblue" stroke="midnightblue" points="1416.03,-275.033 1412.05,-265.215 1409.04,-275.373 1416.03,-275.033"/>
</g>
<!-- Node32 -->
<g id="node32" class="node"><title>Node32</title>
<g id="a_node32"><a xlink:href="ring__buffer_8h.xhtml" target="_top" xlink:title="ePub3/utilities/ring\l_buffer.h">
<polygon fill="white" stroke="black" points="1288.14,-303 1288.14,-335 1385.86,-335 1385.86,-303 1288.14,-303"/>
<text text-anchor="start" x="1296.14" y="-321" font-family="Helvetica,sans-Serif" font-size="10.00">ePub3/utilities/ring</text>
<text text-anchor="middle" x="1337" y="-309" font-family="Helvetica,sans-Serif" font-size="10.00">_buffer.h</text>
</a>
</g>
</g>
<!-- Node31&#45;&gt;Node32 -->
<g id="edge38" class="edge"><title>Node31&#45;&gt;Node32</title>
<path fill="none" stroke="midnightblue" d="M1144.06,-373.993C1182.95,-363.11 1236.98,-347.988 1277.98,-336.515"/>
<polygon fill="midnightblue" stroke="midnightblue" points="1279.15,-339.822 1287.84,-333.756 1277.27,-333.081 1279.15,-339.822"/>
</g>
<!-- Node34 -->
<g id="node34" class="node"><title>Node34</title>
<polygon fill="white" stroke="#bfbfbf" points="849.596,-309 849.596,-329 908.404,-329 908.404,-309 849.596,-309"/>
<text text-anchor="middle" x="879" y="-315" font-family="Helvetica,sans-Serif" font-size="10.00">functional</text>
</g>
<!-- Node31&#45;&gt;Node34 -->
<g id="edge42" class="edge"><title>Node31&#45;&gt;Node34</title>
<path fill="none" stroke="midnightblue" d="M1044.01,-373.993C1000.34,-361.634 940.383,-344.328 917,-336 914.282,-335.032 911.477,-333.972 908.681,-332.873"/>
<polygon fill="midnightblue" stroke="midnightblue" points="909.925,-329.601 899.344,-329.064 907.281,-336.082 909.925,-329.601"/>
</g>
<!-- Node35 -->
<g id="node35" class="node"><title>Node35</title>
<polygon fill="white" stroke="#bfbfbf" points="926.5,-309 926.5,-329 955.5,-329 955.5,-309 926.5,-309"/>
<text text-anchor="middle" x="940.892" y="-315" font-family="Helvetica,sans-Serif" font-size="10.00">ios</text>
</g>
<!-- Node31&#45;&gt;Node35 -->
<g id="edge43" class="edge"><title>Node31&#45;&gt;Node35</title>
<path fill="none" stroke="midnightblue" d="M1050.3,-372.929C1024.84,-363.527 992.442,-350.482 965,-336 964.186,-335.571 963.366,-335.12 962.543,-334.654"/>
<polygon fill="midnightblue" stroke="midnightblue" points="964.25,-331.595 953.906,-329.304 960.564,-337.545 964.25,-331.595"/>
</g>
<!-- Node36 -->
<g id="node36" class="node"><title>Node36</title>
<polygon fill="white" stroke="#bfbfbf" points="973.823,-309 973.823,-329 1018.18,-329 1018.18,-309 973.823,-309"/>
<text text-anchor="middle" x="996" y="-315" font-family="Helvetica,sans-Serif" font-size="10.00">thread</text>
</g>
<!-- Node31&#45;&gt;Node36 -->
<g id="edge44" class="edge"><title>Node31&#45;&gt;Node36</title>
<path fill="none" stroke="midnightblue" d="M1072.25,-372.909C1055.88,-361.552 1033.57,-346.068 1017.31,-334.786"/>
<polygon fill="midnightblue" stroke="midnightblue" points="1019.19,-331.829 1008.98,-329.004 1015.2,-337.58 1019.19,-331.829"/>
</g>
<!-- Node37 -->
<g id="node37" class="node"><title>Node37</title>
<g id="a_node37"><a xlink:href="run__loop_8h.xhtml" target="_top" xlink:title="ePub3/utilities/run\l_loop.h">
<polygon fill="white" stroke="black" points="736.254,-303 736.254,-335 831.746,-335 831.746,-303 736.254,-303"/>
<text text-anchor="start" x="744.254" y="-321" font-family="Helvetica,sans-Serif" font-size="10.00">ePub3/utilities/run</text>
<text text-anchor="middle" x="784" y="-309" font-family="Helvetica,sans-Serif" font-size="10.00">_loop.h</text>
</a>
</g>
</g>
<!-- Node31&#45;&gt;Node37 -->
<g id="edge45" class="edge"><title>Node31&#45;&gt;Node37</title>
<path fill="none" stroke="midnightblue" d="M1043.86,-374.104C1040.87,-373.368 1037.9,-372.661 1035,-372 952.589,-353.212 928.163,-355.657 841.794,-336.058"/>
<polygon fill="midnightblue" stroke="midnightblue" points="842.344,-332.593 831.813,-333.759 840.772,-339.414 842.344,-332.593"/>
</g>
<!-- Node43 -->
<g id="node43" class="node"><title>Node43</title>
<g id="a_node43"><a xlink:href="make__unique_8h.xhtml" target="_top" xlink:title="ePub3/utilities/make\l_unique.h">
<polygon fill="white" stroke="black" points="-0.746094,-175 -0.746094,-207 104.746,-207 104.746,-175 -0.746094,-175"/>
<text text-anchor="start" x="7.25391" y="-193" font-family="Helvetica,sans-Serif" font-size="10.00">ePub3/utilities/make</text>
<text text-anchor="middle" x="52" y="-181" font-family="Helvetica,sans-Serif" font-size="10.00">_unique.h</text>
</a>
</g>
</g>
<!-- Node31&#45;&gt;Node43 -->
<g id="edge57" class="edge"><title>Node31&#45;&gt;Node43</title>
<path fill="none" stroke="midnightblue" d="M1043.91,-373.872C1040.9,-373.194 1037.92,-372.563 1035,-372 899.675,-345.892 862.988,-358.402 727,-336 500.107,-298.623 234.069,-236.363 115.079,-207.53"/>
<polygon fill="midnightblue" stroke="midnightblue" points="115.598,-204.055 105.054,-205.096 113.946,-210.857 115.598,-204.055"/>
</g>
<!-- Node46 -->
<g id="node46" class="node"><title>Node46</title>
<polygon fill="white" stroke="#bfbfbf" points="1036.24,-309 1036.24,-329 1151.76,-329 1151.76,-309 1036.24,-309"/>
<text text-anchor="middle" x="1094" y="-315" font-family="Helvetica,sans-Serif" font-size="10.00">google&#45;url/url_canon.h</text>
</g>
<!-- Node31&#45;&gt;Node46 -->
<g id="edge63" class="edge"><title>Node31&#45;&gt;Node46</title>
<path fill="none" stroke="midnightblue" d="M1094,-372.909C1094,-362.919 1094,-349.736 1094,-339.028"/>
<polygon fill="midnightblue" stroke="midnightblue" points="1097.5,-339.004 1094,-329.004 1090.5,-339.004 1097.5,-339.004"/>
</g>
<!-- Node47 -->
<g id="node47" class="node"><title>Node47</title>
<polygon fill="white" stroke="#bfbfbf" points="1169.48,-309 1169.48,-329 1270.52,-329 1270.52,-309 1169.48,-309"/>
<text text-anchor="middle" x="1220" y="-315" font-family="Helvetica,sans-Serif" font-size="10.00">google&#45;url/url_util.h</text>
</g>
<!-- Node31&#45;&gt;Node47 -->
<g id="edge64" class="edge"><title>Node31&#45;&gt;Node47</title>
<path fill="none" stroke="midnightblue" d="M1121.96,-372.909C1143.59,-361.236 1173.3,-345.205 1194.33,-333.856"/>
<polygon fill="midnightblue" stroke="midnightblue" points="1196.18,-336.833 1203.32,-329.004 1192.85,-330.673 1196.18,-336.833"/>
</g>
<!-- Node32&#45;&gt;Node3 -->
<g id="edge39" class="edge"><title>Node32&#45;&gt;Node3</title>
<path fill="none" stroke="midnightblue" d="M1354.91,-302.992C1366.2,-293.533 1380.76,-281.338 1392.21,-271.742"/>
<polygon fill="midnightblue" stroke="midnightblue" points="1394.49,-274.395 1399.91,-265.29 1390,-269.03 1394.49,-274.395"/>
</g>
<!-- Node32&#45;&gt;Node8 -->
<g id="edge40" class="edge"><title>Node32&#45;&gt;Node8</title>
<path fill="none" stroke="midnightblue" d="M1331.03,-302.882C1323.46,-285.766 1308.71,-258.395 1287,-244 1282.69,-241.139 1157.73,-217.301 1081.3,-202.913"/>
<polygon fill="midnightblue" stroke="midnightblue" points="1081.79,-199.444 1071.31,-201.035 1080.49,-206.323 1081.79,-199.444"/>
</g>
<!-- Node33 -->
<g id="node33" class="node"><title>Node33</title>
<polygon fill="white" stroke="#bfbfbf" points="1235.38,-245 1235.38,-265 1278.62,-265 1278.62,-245 1235.38,-245"/>
<text text-anchor="middle" x="1257" y="-251" font-family="Helvetica,sans-Serif" font-size="10.00">mutex</text>
</g>
<!-- Node32&#45;&gt;Node33 -->
<g id="edge41" class="edge"><title>Node32&#45;&gt;Node33</title>
<path fill="none" stroke="midnightblue" d="M1317.63,-302.992C1305.31,-293.441 1289.39,-281.101 1276.95,-271.463"/>
<polygon fill="midnightblue" stroke="midnightblue" points="1279.04,-268.65 1268.99,-265.29 1274.75,-274.183 1279.04,-268.65"/>
</g>
<!-- Node37&#45;&gt;Node9 -->
<g id="edge46" class="edge"><title>Node37&#45;&gt;Node9</title>
<path fill="none" stroke="midnightblue" d="M831.756,-303.973C834.871,-303.251 837.972,-302.584 841,-302 914.301,-287.864 1125.12,-321.543 1175,-266 1204.06,-233.644 1297.93,-256.945 1155,-116 1117.16,-78.681 961.564,-71.3407 880.552,-70.0929"/>
<polygon fill="midnightblue" stroke="midnightblue" points="880.152,-66.5876 870.109,-69.9595 880.063,-73.587 880.152,-66.5876"/>
</g>
<!-- Node38 -->
<g id="node38" class="node"><title>Node38</title>
<polygon fill="white" stroke="#bfbfbf" points="932.695,-245 932.695,-265 1029.31,-265 1029.31,-245 932.695,-245"/>
<text text-anchor="middle" x="981" y="-251" font-family="Helvetica,sans-Serif" font-size="10.00">condition_variable</text>
</g>
<!-- Node37&#45;&gt;Node38 -->
<g id="edge47" class="edge"><title>Node37&#45;&gt;Node38</title>
<path fill="none" stroke="midnightblue" d="M831.688,-302.992C865.699,-292.288 910.84,-278.081 942.552,-268.1"/>
<polygon fill="midnightblue" stroke="midnightblue" points="943.857,-271.359 952.345,-265.018 941.755,-264.682 943.857,-271.359"/>
</g>
<!-- Node39 -->
<g id="node39" class="node"><title>Node39</title>
<polygon fill="white" stroke="#bfbfbf" points="1046.87,-245 1046.87,-265 1105.13,-265 1105.13,-245 1046.87,-245"/>
<text text-anchor="middle" x="1076" y="-251" font-family="Helvetica,sans-Serif" font-size="10.00">pthread.h</text>
</g>
<!-- Node37&#45;&gt;Node39 -->
<g id="edge48" class="edge"><title>Node37&#45;&gt;Node39</title>
<path fill="none" stroke="midnightblue" d="M831.811,-304.232C834.913,-303.446 837.996,-302.695 841,-302 924.669,-282.656 949.397,-285.131 1036.79,-266.139"/>
<polygon fill="midnightblue" stroke="midnightblue" points="1037.58,-269.548 1046.6,-263.976 1036.08,-262.712 1037.58,-269.548"/>
</g>
<!-- Node40 -->
<g id="node40" class="node"><title>Node40</title>
<polygon fill="white" stroke="#bfbfbf" points="1123.38,-245 1123.38,-265 1166.62,-265 1166.62,-245 1123.38,-245"/>
<text text-anchor="middle" x="1145" y="-251" font-family="Helvetica,sans-Serif" font-size="10.00">time.h</text>
</g>
<!-- Node37&#45;&gt;Node40 -->
<g id="edge49" class="edge"><title>Node37&#45;&gt;Node40</title>
<path fill="none" stroke="midnightblue" d="M831.773,-304.057C834.884,-303.314 837.979,-302.62 841,-302 957.725,-278.049 992.77,-292.107 1113.15,-265.825"/>
<polygon fill="midnightblue" stroke="midnightblue" points="1114.12,-269.194 1123.12,-263.599 1112.6,-262.362 1114.12,-269.194"/>
</g>
<!-- Node37&#45;&gt;Node3 -->
<g id="edge50" class="edge"><title>Node37&#45;&gt;Node3</title>
<path fill="none" stroke="midnightblue" d="M832.05,-303.808C835.065,-303.137 838.066,-302.525 841,-302 841.397,-301.929 1217.6,-271.593 1358.53,-260.23"/>
<polygon fill="midnightblue" stroke="midnightblue" points="1358.97,-263.706 1368.66,-259.414 1358.41,-256.729 1358.97,-263.706"/>
</g>
<!-- Node37&#45;&gt;Node8 -->
<g id="edge51" class="edge"><title>Node37&#45;&gt;Node8</title>
<path fill="none" stroke="midnightblue" d="M814.209,-302.826C834.362,-292.611 861.391,-278.73 885,-266 902.517,-256.555 906.522,-253.517 924,-244 948.323,-230.755 976.281,-216.124 996.269,-205.765"/>
<polygon fill="midnightblue" stroke="midnightblue" points="998.116,-208.75 1005.39,-201.047 994.9,-202.533 998.116,-208.75"/>
</g>
<!-- Node37&#45;&gt;Node7 -->
<g id="edge52" class="edge"><title>Node37&#45;&gt;Node7</title>
<path fill="none" stroke="midnightblue" d="M751.32,-302.992C728.989,-292.736 699.656,-279.264 678.124,-269.376"/>
<polygon fill="midnightblue" stroke="midnightblue" points="679.382,-266.102 668.834,-265.109 676.46,-272.463 679.382,-266.102"/>
</g>
<!-- Node41 -->
<g id="node41" class="node"><title>Node41</title>
<polygon fill="white" stroke="#bfbfbf" points="766.712,-245 766.712,-265 813.288,-265 813.288,-245 766.712,-245"/>
<text text-anchor="middle" x="790" y="-251" font-family="Helvetica,sans-Serif" font-size="10.00">chrono</text>
</g>
<!-- Node37&#45;&gt;Node41 -->
<g id="edge53" class="edge"><title>Node37&#45;&gt;Node41</title>
<path fill="none" stroke="midnightblue" d="M785.452,-302.992C786.252,-294.726 787.254,-284.373 788.114,-275.489"/>
<polygon fill="midnightblue" stroke="midnightblue" points="791.621,-275.581 789.101,-265.29 784.654,-274.907 791.621,-275.581"/>
</g>
<!-- Node37&#45;&gt;Node16 -->
<g id="edge54" class="edge"><title>Node37&#45;&gt;Node16</title>
<path fill="none" stroke="midnightblue" d="M770.93,-302.951C758.635,-286.897 744.038,-261.429 758,-244 803.842,-186.775 873.158,-265.225 919,-208 935.302,-187.65 912.381,-160.632 893.717,-143.783"/>
<polygon fill="midnightblue" stroke="midnightblue" points="895.969,-141.103 886.106,-137.234 891.403,-146.409 895.969,-141.103"/>
</g>
<!-- Node37&#45;&gt;Node33 -->
<g id="edge55" class="edge"><title>Node37&#45;&gt;Node33</title>
<path fill="none" stroke="midnightblue" d="M831.75,-303.938C834.866,-303.224 837.969,-302.569 841,-302 1002.51,-271.676 1046.54,-290.795 1209,-266 1214.23,-265.202 1219.75,-264.202 1225.11,-263.145"/>
<polygon fill="midnightblue" stroke="midnightblue" points="1226.02,-266.531 1235.11,-261.08 1224.6,-259.675 1226.02,-266.531"/>
</g>
<!-- Node42 -->
<g id="node42" class="node"><title>Node42</title>
<polygon fill="white" stroke="#bfbfbf" points="831.273,-245 831.273,-265 876.727,-265 876.727,-245 831.273,-245"/>
<text text-anchor="middle" x="854" y="-251" font-family="Helvetica,sans-Serif" font-size="10.00">atomic</text>
</g>
<!-- Node37&#45;&gt;Node42 -->
<g id="edge56" class="edge"><title>Node37&#45;&gt;Node42</title>
<path fill="none" stroke="midnightblue" d="M800.945,-302.992C811.521,-293.624 825.125,-281.575 835.91,-272.022"/>
<polygon fill="midnightblue" stroke="midnightblue" points="838.346,-274.541 843.511,-265.29 833.704,-269.301 838.346,-274.541"/>
</g>
<!-- Node43&#45;&gt;Node9 -->
<g id="edge58" class="edge"><title>Node43&#45;&gt;Node9</title>
<path fill="none" stroke="midnightblue" d="M79.9484,-174.93C98.9253,-164.642 124.554,-150.638 147,-138 164.005,-128.425 166.345,-121.729 185,-116 241.493,-98.6521 640.887,-78.7735 781.87,-72.2211"/>
<polygon fill="midnightblue" stroke="midnightblue" points="782.131,-75.7128 791.959,-71.7545 781.808,-68.7203 782.131,-75.7128"/>
</g>
<!-- Node44 -->
<g id="node44" class="node"><title>Node44</title>
<polygon fill="white" stroke="#bfbfbf" points="89.8794,-117 89.8794,-137 138.121,-137 138.121,-117 89.8794,-117"/>
<text text-anchor="middle" x="114" y="-123" font-family="Helvetica,sans-Serif" font-size="10.00">cstddef</text>
</g>
<!-- Node43&#45;&gt;Node44 -->
<g id="edge59" class="edge"><title>Node43&#45;&gt;Node44</title>
<path fill="none" stroke="midnightblue" d="M67.0085,-174.992C76.192,-165.808 87.9538,-154.046 97.4128,-144.587"/>
<polygon fill="midnightblue" stroke="midnightblue" points="100.113,-146.836 104.71,-137.29 95.1636,-141.887 100.113,-146.836"/>
</g>
<!-- Node43&#45;&gt;Node14 -->
<g id="edge60" class="edge"><title>Node43&#45;&gt;Node14</title>
<path fill="none" stroke="midnightblue" d="M38.1257,-174.957C24.7999,-158.67 8.76396,-132.779 24,-116 53.4075,-83.6136 357.028,-73.3749 463.416,-70.7677"/>
<polygon fill="midnightblue" stroke="midnightblue" points="463.746,-74.2609 473.66,-70.5255 463.58,-67.2629 463.746,-74.2609"/>
</g>
<!-- Node43&#45;&gt;Node19 -->
<g id="edge61" class="edge"><title>Node43&#45;&gt;Node19</title>
<path fill="none" stroke="midnightblue" d="M93.8785,-174.992C123.358,-164.427 162.359,-150.449 190.145,-140.491"/>
<polygon fill="midnightblue" stroke="midnightblue" points="191.603,-143.687 199.836,-137.018 189.241,-137.097 191.603,-143.687"/>
</g>
<!-- Node45 -->
<g id="node45" class="node"><title>Node45</title>
<polygon fill="white" stroke="#bfbfbf" points="32.6084,-117 32.6084,-137 71.3916,-137 71.3916,-117 32.6084,-117"/>
<text text-anchor="middle" x="52" y="-123" font-family="Helvetica,sans-Serif" font-size="10.00">utility</text>
</g>
<!-- Node43&#45;&gt;Node45 -->
<g id="edge62" class="edge"><title>Node43&#45;&gt;Node45</title>
<path fill="none" stroke="midnightblue" d="M52,-174.992C52,-166.726 52,-156.373 52,-147.489"/>
<polygon fill="midnightblue" stroke="midnightblue" points="55.5001,-147.29 52,-137.29 48.5001,-147.29 55.5001,-147.29"/>
</g>
<!-- Node49&#45;&gt;Node7 -->
<g id="edge70" class="edge"><title>Node49&#45;&gt;Node7</title>
<path fill="none" stroke="midnightblue" d="M182.009,-312.111C273.277,-301.145 469.677,-277.547 576.393,-264.724"/>
<polygon fill="midnightblue" stroke="midnightblue" points="576.923,-268.186 586.434,-263.518 576.087,-261.236 576.923,-268.186"/>
</g>
<!-- Node49&#45;&gt;Node43 -->
<g id="edge71" class="edge"><title>Node49&#45;&gt;Node43</title>
<path fill="none" stroke="midnightblue" d="M84.2877,-311.082C56.9256,-304.431 24.9564,-291.419 8,-266 -3.40489,-248.903 10.135,-228.824 25.1136,-213.899"/>
<polygon fill="midnightblue" stroke="midnightblue" points="27.5588,-216.404 32.4794,-207.021 22.7815,-211.288 27.5588,-216.404"/>
</g>
<!-- Node50 -->
<g id="node50" class="node"><title>Node50</title>
<polygon fill="white" stroke="#bfbfbf" points="16.8672,-245 16.8672,-265 105.133,-265 105.133,-245 16.8672,-245"/>
<text text-anchor="middle" x="61" y="-251" font-family="Helvetica,sans-Serif" font-size="10.00">google&#45;url/gurl.h</text>
</g>
<!-- Node49&#45;&gt;Node50 -->
<g id="edge72" class="edge"><title>Node49&#45;&gt;Node50</title>
<path fill="none" stroke="midnightblue" d="M122.376,-308.852C111.103,-299.144 93.0754,-283.62 79.4685,-271.903"/>
<polygon fill="midnightblue" stroke="midnightblue" points="81.529,-269.059 71.6674,-265.186 76.9613,-274.363 81.529,-269.059"/>
</g>
<!-- Node49&#45;&gt;Node15 -->
<g id="edge73" class="edge"><title>Node49&#45;&gt;Node15</title>
<path fill="none" stroke="midnightblue" d="M133.387,-308.915C134.925,-284.01 142.54,-213.86 180,-174 186.118,-167.49 232.505,-150.274 264.731,-138.85"/>
<polygon fill="midnightblue" stroke="midnightblue" points="265.949,-142.132 274.218,-135.508 263.623,-135.529 265.949,-142.132"/>
</g>
</g>
</svg>
