<?xml version="1.0" encoding="UTF-8" standalone="no"?>
<!DOCTYPE svg PUBLIC "-//W3C//DTD SVG 1.1//EN"
 "http://www.w3.org/Graphics/SVG/1.1/DTD/svg11.dtd">
<!-- Generated by graphviz version 2.30.0 (20130114.0426)
 -->
<!-- Title: /Users/rkwright/Documents/github/readium&#45;sdk&#45;D/ePub3/utilities/xml_identifiable.h Pages: 1 -->
<svg width="3274pt" height="324pt"
 viewBox="0.00 0.00 3274.00 324.00" xmlns="http://www.w3.org/2000/svg" xmlns:xlink="http://www.w3.org/1999/xlink">
<g id="graph0" class="graph" transform="scale(1 1) rotate(0) translate(4 320)">
<title>/Users/rkwright/Documents/github/readium&#45;sdk&#45;D/ePub3/utilities/xml_identifiable.h</title>
<polygon fill="white" stroke="white" points="-4,5 -4,-320 3271,-320 3271,5 -4,5"/>
<!-- Node1 -->
<g id="node1" class="node"><title>Node1</title>
<polygon fill="#bfbfbf" stroke="black" points="2039.97,-271 2039.97,-315 2186.03,-315 2186.03,-271 2039.97,-271"/>
<text text-anchor="start" x="2047.97" y="-301" font-family="Helvetica,sans-Serif" font-size="10.00">/Users/rkwright/Documents</text>
<text text-anchor="start" x="2047.97" y="-289" font-family="Helvetica,sans-Serif" font-size="10.00">/github/readium&#45;sdk&#45;D/ePub3</text>
<text text-anchor="middle" x="2113" y="-277" font-family="Helvetica,sans-Serif" font-size="10.00">/utilities/xml_identifiable.h</text>
</g>
<!-- Node2 -->
<g id="node2" class="node"><title>Node2</title>
<g id="a_node2"><a xlink:href="package_8h.xhtml" target="_top" xlink:title="/Users/rkwright/Documents\l/github/readium&#45;sdk&#45;D/ePub3\l/ePub/package.h">
<polygon fill="white" stroke="black" points="1909.97,-189 1909.97,-233 2056.03,-233 2056.03,-189 1909.97,-189"/>
<text text-anchor="start" x="1917.97" y="-219" font-family="Helvetica,sans-Serif" font-size="10.00">/Users/rkwright/Documents</text>
<text text-anchor="start" x="1917.97" y="-207" font-family="Helvetica,sans-Serif" font-size="10.00">/github/readium&#45;sdk&#45;D/ePub3</text>
<text text-anchor="middle" x="1983" y="-195" font-family="Helvetica,sans-Serif" font-size="10.00">/ePub/package.h</text>
</a>
</g>
</g>
<!-- Node1&#45;&gt;Node2 -->
<g id="edge1" class="edge"><title>Node1&#45;&gt;Node2</title>
<path fill="none" stroke="midnightblue" d="M2070.13,-265.619C2053.01,-255.08 2033.55,-243.11 2017.38,-233.156"/>
<polygon fill="midnightblue" stroke="midnightblue" points="2068.49,-268.721 2078.84,-270.981 2072.16,-262.759 2068.49,-268.721"/>
</g>
<!-- Node20 -->
<g id="node20" class="node"><title>Node20</title>
<g id="a_node20"><a xlink:href="epub__collection_8h.xhtml" target="_top" xlink:title="/Users/rkwright/Documents\l/github/readium&#45;sdk&#45;D/ePub3\l/ePub/epub_collection.h">
<polygon fill="white" stroke="black" points="353.966,-189 353.966,-233 500.034,-233 500.034,-189 353.966,-189"/>
<text text-anchor="start" x="361.966" y="-219" font-family="Helvetica,sans-Serif" font-size="10.00">/Users/rkwright/Documents</text>
<text text-anchor="start" x="361.966" y="-207" font-family="Helvetica,sans-Serif" font-size="10.00">/github/readium&#45;sdk&#45;D/ePub3</text>
<text text-anchor="middle" x="427" y="-195" font-family="Helvetica,sans-Serif" font-size="10.00">/ePub/epub_collection.h</text>
</a>
</g>
</g>
<!-- Node1&#45;&gt;Node20 -->
<g id="edge21" class="edge"><title>Node1&#45;&gt;Node20</title>
<path fill="none" stroke="midnightblue" d="M2029.7,-289.072C1818.04,-281.491 1242.38,-259.989 763,-234 672.377,-229.087 568.097,-222.042 500.053,-217.258"/>
<polygon fill="midnightblue" stroke="midnightblue" points="2029.68,-292.574 2039.8,-289.433 2029.93,-285.578 2029.68,-292.574"/>
</g>
<!-- Node21 -->
<g id="node21" class="node"><title>Node21</title>
<g id="a_node21"><a xlink:href="manifest_8h.xhtml" target="_top" xlink:title="/Users/rkwright/Documents\l/github/readium&#45;sdk&#45;D/ePub3\l/ePub/manifest.h">
<polygon fill="white" stroke="black" points="771.966,-189 771.966,-233 918.034,-233 918.034,-189 771.966,-189"/>
<text text-anchor="start" x="779.966" y="-219" font-family="Helvetica,sans-Serif" font-size="10.00">/Users/rkwright/Documents</text>
<text text-anchor="start" x="779.966" y="-207" font-family="Helvetica,sans-Serif" font-size="10.00">/github/readium&#45;sdk&#45;D/ePub3</text>
<text text-anchor="middle" x="845" y="-195" font-family="Helvetica,sans-Serif" font-size="10.00">/ePub/manifest.h</text>
</a>
</g>
</g>
<!-- Node1&#45;&gt;Node21 -->
<g id="edge24" class="edge"><title>Node1&#45;&gt;Node21</title>
<path fill="none" stroke="midnightblue" d="M2029.68,-286.744C1796.28,-272.018 1138.69,-230.529 918.144,-216.615"/>
<polygon fill="midnightblue" stroke="midnightblue" points="2029.61,-290.246 2039.81,-287.382 2030.05,-283.26 2029.61,-290.246"/>
</g>
<!-- Node25 -->
<g id="node25" class="node"><title>Node25</title>
<g id="a_node25"><a xlink:href="property_8h.xhtml" target="_top" xlink:title="/Users/rkwright/Documents\l/github/readium&#45;sdk&#45;D/ePub3\l/ePub/property.h">
<polygon fill="white" stroke="black" points="2524.97,-189 2524.97,-233 2671.03,-233 2671.03,-189 2524.97,-189"/>
<text text-anchor="start" x="2532.97" y="-219" font-family="Helvetica,sans-Serif" font-size="10.00">/Users/rkwright/Documents</text>
<text text-anchor="start" x="2532.97" y="-207" font-family="Helvetica,sans-Serif" font-size="10.00">/github/readium&#45;sdk&#45;D/ePub3</text>
<text text-anchor="middle" x="2598" y="-195" font-family="Helvetica,sans-Serif" font-size="10.00">/ePub/property.h</text>
</a>
</g>
</g>
<!-- Node1&#45;&gt;Node25 -->
<g id="edge32" class="edge"><title>Node1&#45;&gt;Node25</title>
<path fill="none" stroke="midnightblue" d="M2196.01,-278.308C2288.42,-263.064 2436.36,-238.662 2524.67,-224.096"/>
<polygon fill="midnightblue" stroke="midnightblue" points="2195.43,-274.856 2186.13,-279.937 2196.57,-281.762 2195.43,-274.856"/>
</g>
<!-- Node27 -->
<g id="node27" class="node"><title>Node27</title>
<g id="a_node27"><a xlink:href="property__extension_8h.xhtml" target="_top" xlink:title="/Users/rkwright/Documents\l/github/readium&#45;sdk&#45;D/ePub3\l/ePub/property_extension.h">
<polygon fill="white" stroke="black" points="3070.97,-189 3070.97,-233 3217.03,-233 3217.03,-189 3070.97,-189"/>
<text text-anchor="start" x="3078.97" y="-219" font-family="Helvetica,sans-Serif" font-size="10.00">/Users/rkwright/Documents</text>
<text text-anchor="start" x="3078.97" y="-207" font-family="Helvetica,sans-Serif" font-size="10.00">/github/readium&#45;sdk&#45;D/ePub3</text>
<text text-anchor="middle" x="3144" y="-195" font-family="Helvetica,sans-Serif" font-size="10.00">/ePub/property_extension.h</text>
</a>
</g>
</g>
<!-- Node1&#45;&gt;Node27 -->
<g id="edge34" class="edge"><title>Node1&#45;&gt;Node27</title>
<path fill="none" stroke="midnightblue" d="M2196.32,-285.535C2393.15,-270.262 2884.33,-232.149 3070.71,-217.687"/>
<polygon fill="midnightblue" stroke="midnightblue" points="2196.02,-282.048 2186.32,-286.311 2196.56,-289.027 2196.02,-282.048"/>
</g>
<!-- Node28 -->
<g id="node28" class="node"><title>Node28</title>
<g id="a_node28"><a xlink:href="spine_8h.xhtml" target="_top" xlink:title="/Users/rkwright/Documents\l/github/readium&#45;sdk&#45;D/ePub3\l/ePub/spine.h">
<polygon fill="white" stroke="black" points="2169.97,-189 2169.97,-233 2316.03,-233 2316.03,-189 2169.97,-189"/>
<text text-anchor="start" x="2177.97" y="-219" font-family="Helvetica,sans-Serif" font-size="10.00">/Users/rkwright/Documents</text>
<text text-anchor="start" x="2177.97" y="-207" font-family="Helvetica,sans-Serif" font-size="10.00">/github/readium&#45;sdk&#45;D/ePub3</text>
<text text-anchor="middle" x="2243" y="-195" font-family="Helvetica,sans-Serif" font-size="10.00">/ePub/spine.h</text>
</a>
</g>
</g>
<!-- Node1&#45;&gt;Node28 -->
<g id="edge36" class="edge"><title>Node1&#45;&gt;Node28</title>
<path fill="none" stroke="midnightblue" d="M2155.87,-265.619C2172.99,-255.08 2192.45,-243.11 2208.62,-233.156"/>
<polygon fill="midnightblue" stroke="midnightblue" points="2153.84,-262.759 2147.16,-270.981 2157.51,-268.721 2153.84,-262.759"/>
</g>
<!-- Node3 -->
<g id="node3" class="node"><title>Node3</title>
<g id="a_node3"><a xlink:href="container_8cpp.xhtml" target="_top" xlink:title="/Users/rkwright/Documents\l/github/readium&#45;sdk&#45;D/ePub3\l/ePub/container.cpp">
<polygon fill="white" stroke="black" points="1861.97,-101 1861.97,-145 2008.03,-145 2008.03,-101 1861.97,-101"/>
<text text-anchor="start" x="1869.97" y="-131" font-family="Helvetica,sans-Serif" font-size="10.00">/Users/rkwright/Documents</text>
<text text-anchor="start" x="1869.97" y="-119" font-family="Helvetica,sans-Serif" font-size="10.00">/github/readium&#45;sdk&#45;D/ePub3</text>
<text text-anchor="middle" x="1935" y="-107" font-family="Helvetica,sans-Serif" font-size="10.00">/ePub/container.cpp</text>
</a>
</g>
</g>
<!-- Node2&#45;&gt;Node3 -->
<g id="edge2" class="edge"><title>Node2&#45;&gt;Node3</title>
<path fill="none" stroke="midnightblue" d="M1966.18,-179.872C1959.76,-168.362 1952.58,-155.496 1946.73,-145.014"/>
<polygon fill="midnightblue" stroke="midnightblue" points="1963.2,-181.715 1971.13,-188.742 1969.32,-178.304 1963.2,-181.715"/>
</g>
<!-- Node4 -->
<g id="node4" class="node"><title>Node4</title>
<g id="a_node4"><a xlink:href="content__handler_8cpp.xhtml" target="_top" xlink:title="/Users/rkwright/Documents\l/github/readium&#45;sdk&#45;D/ePub3\l/ePub/content_handler.cpp">
<polygon fill="white" stroke="black" points="2025.97,-101 2025.97,-145 2172.03,-145 2172.03,-101 2025.97,-101"/>
<text text-anchor="start" x="2033.97" y="-131" font-family="Helvetica,sans-Serif" font-size="10.00">/Users/rkwright/Documents</text>
<text text-anchor="start" x="2033.97" y="-119" font-family="Helvetica,sans-Serif" font-size="10.00">/github/readium&#45;sdk&#45;D/ePub3</text>
<text text-anchor="middle" x="2099" y="-107" font-family="Helvetica,sans-Serif" font-size="10.00">/ePub/content_handler.cpp</text>
</a>
</g>
</g>
<!-- Node2&#45;&gt;Node4 -->
<g id="edge3" class="edge"><title>Node2&#45;&gt;Node4</title>
<path fill="none" stroke="midnightblue" d="M2019.69,-182.798C2036.12,-170.621 2055.19,-156.481 2070.51,-145.119"/>
<polygon fill="midnightblue" stroke="midnightblue" points="2017.33,-180.195 2011.38,-188.962 2021.49,-185.818 2017.33,-180.195"/>
</g>
<!-- Node5 -->
<g id="node5" class="node"><title>Node5</title>
<g id="a_node5"><a xlink:href="epub__collection_8cpp.xhtml" target="_top" xlink:title="/Users/rkwright/Documents\l/github/readium&#45;sdk&#45;D/ePub3\l/ePub/epub_collection.cpp">
<polygon fill="white" stroke="black" points="189.966,-101 189.966,-145 336.034,-145 336.034,-101 189.966,-101"/>
<text text-anchor="start" x="197.966" y="-131" font-family="Helvetica,sans-Serif" font-size="10.00">/Users/rkwright/Documents</text>
<text text-anchor="start" x="197.966" y="-119" font-family="Helvetica,sans-Serif" font-size="10.00">/github/readium&#45;sdk&#45;D/ePub3</text>
<text text-anchor="middle" x="263" y="-107" font-family="Helvetica,sans-Serif" font-size="10.00">/ePub/epub_collection.cpp</text>
</a>
</g>
</g>
<!-- Node2&#45;&gt;Node5 -->
<g id="edge4" class="edge"><title>Node2&#45;&gt;Node5</title>
<path fill="none" stroke="midnightblue" d="M1899.63,-208.481C1587.53,-202.597 498.179,-180.226 345,-152 335.976,-150.337 326.596,-147.877 317.543,-145.094"/>
<polygon fill="midnightblue" stroke="midnightblue" points="1899.9,-211.986 1909.96,-208.675 1900.03,-204.988 1899.9,-211.986"/>
</g>
<!-- Node6 -->
<g id="node6" class="node"><title>Node6</title>
<g id="a_node6"><a xlink:href="font__obfuscation_8cpp.xhtml" target="_top" xlink:title="/Users/rkwright/Documents\l/github/readium&#45;sdk&#45;D/ePub3\l/ePub/font_obfuscation.cpp">
<polygon fill="white" stroke="black" points="2189.97,-101 2189.97,-145 2336.03,-145 2336.03,-101 2189.97,-101"/>
<text text-anchor="start" x="2197.97" y="-131" font-family="Helvetica,sans-Serif" font-size="10.00">/Users/rkwright/Documents</text>
<text text-anchor="start" x="2197.97" y="-119" font-family="Helvetica,sans-Serif" font-size="10.00">/github/readium&#45;sdk&#45;D/ePub3</text>
<text text-anchor="middle" x="2263" y="-107" font-family="Helvetica,sans-Serif" font-size="10.00">/ePub/font_obfuscation.cpp</text>
</a>
</g>
</g>
<!-- Node2&#45;&gt;Node6 -->
<g id="edge5" class="edge"><title>Node2&#45;&gt;Node6</title>
<path fill="none" stroke="midnightblue" d="M2065.96,-186.582C2101.49,-176.323 2143.39,-163.923 2181,-152 2187.88,-149.818 2195.07,-147.47 2202.2,-145.094"/>
<polygon fill="midnightblue" stroke="midnightblue" points="2064.75,-183.287 2056.11,-189.417 2066.69,-190.013 2064.75,-183.287"/>
</g>
<!-- Node7 -->
<g id="node7" class="node"><title>Node7</title>
<g id="a_node7"><a xlink:href="e_pub_2library_8cpp.xhtml" target="_top" xlink:title="/Users/rkwright/Documents\l/github/readium&#45;sdk&#45;D/ePub3\l/ePub/library.cpp">
<polygon fill="white" stroke="black" points="853.966,-101 853.966,-145 1000.03,-145 1000.03,-101 853.966,-101"/>
<text text-anchor="start" x="861.966" y="-131" font-family="Helvetica,sans-Serif" font-size="10.00">/Users/rkwright/Documents</text>
<text text-anchor="start" x="861.966" y="-119" font-family="Helvetica,sans-Serif" font-size="10.00">/github/readium&#45;sdk&#45;D/ePub3</text>
<text text-anchor="middle" x="927" y="-107" font-family="Helvetica,sans-Serif" font-size="10.00">/ePub/library.cpp</text>
</a>
</g>
</g>
<!-- Node2&#45;&gt;Node7 -->
<g id="edge6" class="edge"><title>Node2&#45;&gt;Node7</title>
<path fill="none" stroke="midnightblue" d="M1899.91,-207.926C1696.65,-202.39 1178.58,-185.364 1009,-152 1000.14,-150.258 990.935,-147.794 982.024,-145.043"/>
<polygon fill="midnightblue" stroke="midnightblue" points="1899.85,-211.425 1909.94,-208.197 1900.03,-204.428 1899.85,-211.425"/>
</g>
<!-- Node8 -->
<g id="node8" class="node"><title>Node8</title>
<g id="a_node8"><a xlink:href="link_8cpp.xhtml" target="_top" xlink:title="/Users/rkwright/Documents\l/github/readium&#45;sdk&#45;D/ePub3\l/ePub/link.cpp">
<polygon fill="white" stroke="black" points="353.966,-101 353.966,-145 500.034,-145 500.034,-101 353.966,-101"/>
<text text-anchor="start" x="361.966" y="-131" font-family="Helvetica,sans-Serif" font-size="10.00">/Users/rkwright/Documents</text>
<text text-anchor="start" x="361.966" y="-119" font-family="Helvetica,sans-Serif" font-size="10.00">/github/readium&#45;sdk&#45;D/ePub3</text>
<text text-anchor="middle" x="427" y="-107" font-family="Helvetica,sans-Serif" font-size="10.00">/ePub/link.cpp</text>
</a>
</g>
</g>
<!-- Node2&#45;&gt;Node8 -->
<g id="edge7" class="edge"><title>Node2&#45;&gt;Node8</title>
<path fill="none" stroke="midnightblue" d="M1899.52,-208.125C1607.98,-201.384 645.461,-177.423 509,-152 499.979,-150.319 490.601,-147.85 481.549,-145.063"/>
<polygon fill="midnightblue" stroke="midnightblue" points="1899.52,-211.626 1909.6,-208.358 1899.69,-204.628 1899.52,-211.626"/>
</g>
<!-- Node9 -->
<g id="node9" class="node"><title>Node9</title>
<g id="a_node9"><a xlink:href="manifest_8cpp.xhtml" target="_top" xlink:title="/Users/rkwright/Documents\l/github/readium&#45;sdk&#45;D/ePub3\l/ePub/manifest.cpp">
<polygon fill="white" stroke="black" points="1017.97,-101 1017.97,-145 1164.03,-145 1164.03,-101 1017.97,-101"/>
<text text-anchor="start" x="1025.97" y="-131" font-family="Helvetica,sans-Serif" font-size="10.00">/Users/rkwright/Documents</text>
<text text-anchor="start" x="1025.97" y="-119" font-family="Helvetica,sans-Serif" font-size="10.00">/github/readium&#45;sdk&#45;D/ePub3</text>
<text text-anchor="middle" x="1091" y="-107" font-family="Helvetica,sans-Serif" font-size="10.00">/ePub/manifest.cpp</text>
</a>
</g>
</g>
<!-- Node2&#45;&gt;Node9 -->
<g id="edge8" class="edge"><title>Node2&#45;&gt;Node9</title>
<path fill="none" stroke="midnightblue" d="M1899.58,-206.752C1721.69,-199.38 1310.15,-179.839 1173,-152 1164.3,-150.234 1155.26,-147.795 1146.49,-145.087"/>
<polygon fill="midnightblue" stroke="midnightblue" points="1899.53,-210.253 1909.67,-207.167 1899.82,-203.259 1899.53,-210.253"/>
</g>
<!-- Node10 -->
<g id="node10" class="node"><title>Node10</title>
<g id="a_node10"><a xlink:href="media-overlays__smil__model_8h.xhtml" target="_top" xlink:title="/Users/rkwright/Documents\l/github/readium&#45;sdk&#45;D/ePub3\l/ePub/media&#45;overlays_smil_model.h">
<polygon fill="white" stroke="black" points="2392.41,-101 2392.41,-145 2569.59,-145 2569.59,-101 2392.41,-101"/>
<text text-anchor="start" x="2400.41" y="-131" font-family="Helvetica,sans-Serif" font-size="10.00">/Users/rkwright/Documents</text>
<text text-anchor="start" x="2400.41" y="-119" font-family="Helvetica,sans-Serif" font-size="10.00">/github/readium&#45;sdk&#45;D/ePub3</text>
<text text-anchor="middle" x="2481" y="-107" font-family="Helvetica,sans-Serif" font-size="10.00">/ePub/media&#45;overlays_smil_model.h</text>
</a>
</g>
</g>
<!-- Node2&#45;&gt;Node10 -->
<g id="edge9" class="edge"><title>Node2&#45;&gt;Node10</title>
<path fill="none" stroke="midnightblue" d="M2066.45,-198.942C2164.21,-185.777 2320.17,-164.062 2378,-152 2387.71,-149.976 2397.85,-147.575 2407.83,-145.043"/>
<polygon fill="midnightblue" stroke="midnightblue" points="2065.74,-195.506 2056.3,-200.307 2066.67,-202.443 2065.74,-195.506"/>
</g>
<!-- Node11 -->
<g id="node11" class="node"><title>Node11</title>
<g id="a_node11"><a xlink:href="media-overlays__smil__model_8cpp.xhtml" target="_top" xlink:title="/Users/rkwright/Documents\l/github/readium&#45;sdk&#45;D/ePub3\l/ePub/media&#45;overlays_smil\l_model.cpp">
<polygon fill="white" stroke="black" points="2307.97,-1 2307.97,-57 2454.03,-57 2454.03,-1 2307.97,-1"/>
<text text-anchor="start" x="2315.97" y="-43" font-family="Helvetica,sans-Serif" font-size="10.00">/Users/rkwright/Documents</text>
<text text-anchor="start" x="2315.97" y="-31" font-family="Helvetica,sans-Serif" font-size="10.00">/github/readium&#45;sdk&#45;D/ePub3</text>
<text text-anchor="start" x="2315.97" y="-19" font-family="Helvetica,sans-Serif" font-size="10.00">/ePub/media&#45;overlays_smil</text>
<text text-anchor="middle" x="2381" y="-7" font-family="Helvetica,sans-Serif" font-size="10.00">_model.cpp</text>
</a>
</g>
</g>
<!-- Node2&#45;&gt;Node11 -->
<g id="edge12" class="edge"><title>Node2&#45;&gt;Node11</title>
<path fill="none" stroke="midnightblue" d="M2066.21,-198.94C2169.82,-184.836 2334.56,-161.178 2345,-152 2372.03,-128.228 2379.23,-85.268 2380.9,-57.1922"/>
<polygon fill="midnightblue" stroke="midnightblue" points="2065.51,-195.503 2056.07,-200.316 2066.45,-202.439 2065.51,-195.503"/>
</g>
<!-- Node13 -->
<g id="node13" class="node"><title>Node13</title>
<g id="a_node13"><a xlink:href="media__support__info_8cpp.xhtml" target="_top" xlink:title="/Users/rkwright/Documents\l/github/readium&#45;sdk&#45;D/ePub3\l/ePub/media_support_info.cpp">
<polygon fill="white" stroke="black" points="1182.18,-101 1182.18,-145 1333.82,-145 1333.82,-101 1182.18,-101"/>
<text text-anchor="start" x="1190.18" y="-131" font-family="Helvetica,sans-Serif" font-size="10.00">/Users/rkwright/Documents</text>
<text text-anchor="start" x="1190.18" y="-119" font-family="Helvetica,sans-Serif" font-size="10.00">/github/readium&#45;sdk&#45;D/ePub3</text>
<text text-anchor="middle" x="1258" y="-107" font-family="Helvetica,sans-Serif" font-size="10.00">/ePub/media_support_info.cpp</text>
</a>
</g>
</g>
<!-- Node2&#45;&gt;Node13 -->
<g id="edge13" class="edge"><title>Node2&#45;&gt;Node13</title>
<path fill="none" stroke="midnightblue" d="M1899.64,-208.483C1776.65,-204.89 1539.84,-192.784 1343,-152 1334.18,-150.172 1324.99,-147.735 1316.05,-145.059"/>
<polygon fill="midnightblue" stroke="midnightblue" points="1899.65,-211.985 1909.74,-208.766 1899.85,-204.987 1899.65,-211.985"/>
</g>
<!-- Node14 -->
<g id="node14" class="node"><title>Node14</title>
<g id="a_node14"><a xlink:href="nav__point_8cpp.xhtml" target="_top" xlink:title="/Users/rkwright/Documents\l/github/readium&#45;sdk&#45;D/ePub3\l/ePub/nav_point.cpp">
<polygon fill="white" stroke="black" points="2625.97,-101 2625.97,-145 2772.03,-145 2772.03,-101 2625.97,-101"/>
<text text-anchor="start" x="2633.97" y="-131" font-family="Helvetica,sans-Serif" font-size="10.00">/Users/rkwright/Documents</text>
<text text-anchor="start" x="2633.97" y="-119" font-family="Helvetica,sans-Serif" font-size="10.00">/github/readium&#45;sdk&#45;D/ePub3</text>
<text text-anchor="middle" x="2699" y="-107" font-family="Helvetica,sans-Serif" font-size="10.00">/ePub/nav_point.cpp</text>
</a>
</g>
</g>
<!-- Node2&#45;&gt;Node14 -->
<g id="edge14" class="edge"><title>Node2&#45;&gt;Node14</title>
<path fill="none" stroke="midnightblue" d="M2066.07,-198.976C2095.97,-195.209 2129.97,-191.155 2161,-188 2361.05,-167.663 2414.75,-191.064 2612,-152 2621.03,-150.212 2630.43,-147.797 2639.57,-145.131"/>
<polygon fill="midnightblue" stroke="midnightblue" points="2065.58,-195.51 2056.1,-200.241 2066.46,-202.455 2065.58,-195.51"/>
</g>
<!-- Node15 -->
<g id="node15" class="node"><title>Node15</title>
<g id="a_node15"><a xlink:href="nav__table_8cpp.xhtml" target="_top" xlink:title="/Users/rkwright/Documents\l/github/readium&#45;sdk&#45;D/ePub3\l/ePub/nav_table.cpp">
<polygon fill="white" stroke="black" points="2789.97,-101 2789.97,-145 2936.03,-145 2936.03,-101 2789.97,-101"/>
<text text-anchor="start" x="2797.97" y="-131" font-family="Helvetica,sans-Serif" font-size="10.00">/Users/rkwright/Documents</text>
<text text-anchor="start" x="2797.97" y="-119" font-family="Helvetica,sans-Serif" font-size="10.00">/github/readium&#45;sdk&#45;D/ePub3</text>
<text text-anchor="middle" x="2863" y="-107" font-family="Helvetica,sans-Serif" font-size="10.00">/ePub/nav_table.cpp</text>
</a>
</g>
</g>
<!-- Node2&#45;&gt;Node15 -->
<g id="edge15" class="edge"><title>Node2&#45;&gt;Node15</title>
<path fill="none" stroke="midnightblue" d="M2066.03,-198.603C2095.93,-194.8 2129.93,-190.819 2161,-188 2435.89,-163.058 2510.13,-205.084 2781,-152 2789.86,-150.264 2799.07,-147.804 2807.98,-145.054"/>
<polygon fill="midnightblue" stroke="midnightblue" points="2065.54,-195.138 2056.06,-199.883 2066.43,-202.081 2065.54,-195.138"/>
</g>
<!-- Node16 -->
<g id="node16" class="node"><title>Node16</title>
<g id="a_node16"><a xlink:href="object__preprocessor_8cpp.xhtml" target="_top" xlink:title="/Users/rkwright/Documents\l/github/readium&#45;sdk&#45;D/ePub3\l/ePub/object_preprocessor.cpp">
<polygon fill="white" stroke="black" points="1352.06,-101 1352.06,-145 1505.94,-145 1505.94,-101 1352.06,-101"/>
<text text-anchor="start" x="1360.06" y="-131" font-family="Helvetica,sans-Serif" font-size="10.00">/Users/rkwright/Documents</text>
<text text-anchor="start" x="1360.06" y="-119" font-family="Helvetica,sans-Serif" font-size="10.00">/github/readium&#45;sdk&#45;D/ePub3</text>
<text text-anchor="middle" x="1429" y="-107" font-family="Helvetica,sans-Serif" font-size="10.00">/ePub/object_preprocessor.cpp</text>
</a>
</g>
</g>
<!-- Node2&#45;&gt;Node16 -->
<g id="edge16" class="edge"><title>Node2&#45;&gt;Node16</title>
<path fill="none" stroke="midnightblue" d="M1899.66,-204.51C1805.43,-197.187 1647.82,-181.565 1515,-152 1506.42,-150.089 1497.47,-147.675 1488.74,-145.068"/>
<polygon fill="midnightblue" stroke="midnightblue" points="1899.47,-208.005 1909.71,-205.278 1900,-201.026 1899.47,-208.005"/>
</g>
<!-- Node12 -->
<g id="node12" class="node"><title>Node12</title>
<g id="a_node12"><a xlink:href="package_8cpp.xhtml" target="_top" xlink:title="/Users/rkwright/Documents\l/github/readium&#45;sdk&#45;D/ePub3\l/ePub/package.cpp">
<polygon fill="white" stroke="black" points="2506.97,-7 2506.97,-51 2653.03,-51 2653.03,-7 2506.97,-7"/>
<text text-anchor="start" x="2514.97" y="-37" font-family="Helvetica,sans-Serif" font-size="10.00">/Users/rkwright/Documents</text>
<text text-anchor="start" x="2514.97" y="-25" font-family="Helvetica,sans-Serif" font-size="10.00">/github/readium&#45;sdk&#45;D/ePub3</text>
<text text-anchor="middle" x="2580" y="-13" font-family="Helvetica,sans-Serif" font-size="10.00">/ePub/package.cpp</text>
</a>
</g>
</g>
<!-- Node2&#45;&gt;Node12 -->
<g id="edge17" class="edge"><title>Node2&#45;&gt;Node12</title>
<path fill="none" stroke="midnightblue" d="M2066.08,-199.088C2095.98,-195.331 2129.98,-191.255 2161,-188 2207.25,-183.147 2546.28,-186.011 2578,-152 2603.14,-125.044 2595.03,-78.3704 2587.25,-51.2357"/>
<polygon fill="midnightblue" stroke="midnightblue" points="2065.59,-195.622 2056.11,-200.348 2066.47,-202.566 2065.59,-195.622"/>
</g>
<!-- Node17 -->
<g id="node17" class="node"><title>Node17</title>
<g id="a_node17"><a xlink:href="_pass_through_filter_8cpp.xhtml" target="_top" xlink:title="/Users/rkwright/Documents\l/github/readium&#45;sdk&#45;D/ePub3\l/ePub/PassThroughFilter.cpp">
<polygon fill="white" stroke="black" points="1523.97,-101 1523.97,-145 1670.03,-145 1670.03,-101 1523.97,-101"/>
<text text-anchor="start" x="1531.97" y="-131" font-family="Helvetica,sans-Serif" font-size="10.00">/Users/rkwright/Documents</text>
<text text-anchor="start" x="1531.97" y="-119" font-family="Helvetica,sans-Serif" font-size="10.00">/github/readium&#45;sdk&#45;D/ePub3</text>
<text text-anchor="middle" x="1597" y="-107" font-family="Helvetica,sans-Serif" font-size="10.00">/ePub/PassThroughFilter.cpp</text>
</a>
</g>
</g>
<!-- Node2&#45;&gt;Node17 -->
<g id="edge18" class="edge"><title>Node2&#45;&gt;Node17</title>
<path fill="none" stroke="midnightblue" d="M1899.82,-197.218C1838.56,-187.046 1753.48,-171.33 1680,-152 1672.21,-149.949 1664.08,-147.548 1656.1,-145.028"/>
<polygon fill="midnightblue" stroke="midnightblue" points="1899.39,-200.694 1909.83,-198.866 1900.53,-193.787 1899.39,-200.694"/>
</g>
<!-- Node18 -->
<g id="node18" class="node"><title>Node18</title>
<g id="a_node18"><a xlink:href="spine_8cpp.xhtml" target="_top" xlink:title="/Users/rkwright/Documents\l/github/readium&#45;sdk&#45;D/ePub3\l/ePub/spine.cpp">
<polygon fill="white" stroke="black" points="2953.97,-101 2953.97,-145 3100.03,-145 3100.03,-101 2953.97,-101"/>
<text text-anchor="start" x="2961.97" y="-131" font-family="Helvetica,sans-Serif" font-size="10.00">/Users/rkwright/Documents</text>
<text text-anchor="start" x="2961.97" y="-119" font-family="Helvetica,sans-Serif" font-size="10.00">/github/readium&#45;sdk&#45;D/ePub3</text>
<text text-anchor="middle" x="3027" y="-107" font-family="Helvetica,sans-Serif" font-size="10.00">/ePub/spine.cpp</text>
</a>
</g>
</g>
<!-- Node2&#45;&gt;Node18 -->
<g id="edge19" class="edge"><title>Node2&#45;&gt;Node18</title>
<path fill="none" stroke="midnightblue" d="M2066.02,-198.394C2095.91,-194.571 2129.92,-190.63 2161,-188 2508.57,-158.585 2602.3,-217.009 2945,-152 2954.02,-150.29 2963.39,-147.805 2972.44,-145.011"/>
<polygon fill="midnightblue" stroke="midnightblue" points="2065.52,-194.929 2056.05,-199.683 2066.41,-201.871 2065.52,-194.929"/>
</g>
<!-- Node19 -->
<g id="node19" class="node"><title>Node19</title>
<g id="a_node19"><a xlink:href="switch__preprocessor_8cpp.xhtml" target="_top" xlink:title="/Users/rkwright/Documents\l/github/readium&#45;sdk&#45;D/ePub3\l/ePub/switch_preprocessor.cpp">
<polygon fill="white" stroke="black" points="1688.52,-101 1688.52,-145 1843.48,-145 1843.48,-101 1688.52,-101"/>
<text text-anchor="start" x="1696.52" y="-131" font-family="Helvetica,sans-Serif" font-size="10.00">/Users/rkwright/Documents</text>
<text text-anchor="start" x="1696.52" y="-119" font-family="Helvetica,sans-Serif" font-size="10.00">/github/readium&#45;sdk&#45;D/ePub3</text>
<text text-anchor="middle" x="1766" y="-107" font-family="Helvetica,sans-Serif" font-size="10.00">/ePub/switch_preprocessor.cpp</text>
</a>
</g>
</g>
<!-- Node2&#45;&gt;Node19 -->
<g id="edge20" class="edge"><title>Node2&#45;&gt;Node19</title>
<path fill="none" stroke="midnightblue" d="M1920.22,-185.119C1888.25,-172.449 1849.8,-157.21 1819.29,-145.119"/>
<polygon fill="midnightblue" stroke="midnightblue" points="1919.33,-188.531 1929.92,-188.962 1921.91,-182.024 1919.33,-188.531"/>
</g>
<!-- Node10&#45;&gt;Node11 -->
<g id="edge10" class="edge"><title>Node10&#45;&gt;Node11</title>
<path fill="none" stroke="midnightblue" d="M2450.23,-93.6884C2437.59,-82.0667 2423.03,-68.668 2410.53,-57.1675"/>
<polygon fill="midnightblue" stroke="midnightblue" points="2448.08,-96.4673 2457.81,-100.662 2452.82,-91.3157 2448.08,-96.4673"/>
</g>
<!-- Node10&#45;&gt;Node12 -->
<g id="edge11" class="edge"><title>Node10&#45;&gt;Node12</title>
<path fill="none" stroke="midnightblue" d="M2511.4,-93.7531C2526.14,-80.0471 2543.57,-63.8572 2557.16,-51.2222"/>
<polygon fill="midnightblue" stroke="midnightblue" points="2508.9,-91.2909 2503.96,-100.662 2513.67,-96.4186 2508.9,-91.2909"/>
</g>
<!-- Node20&#45;&gt;Node5 -->
<g id="edge22" class="edge"><title>Node20&#45;&gt;Node5</title>
<path fill="none" stroke="midnightblue" d="M377.983,-184.296C354.141,-171.793 325.834,-156.95 303.273,-145.119"/>
<polygon fill="midnightblue" stroke="midnightblue" points="376.399,-187.418 386.881,-188.962 379.65,-181.218 376.399,-187.418"/>
</g>
<!-- Node20&#45;&gt;Node8 -->
<g id="edge23" class="edge"><title>Node20&#45;&gt;Node8</title>
<path fill="none" stroke="midnightblue" d="M427,-178.499C427,-167.346 427,-155.081 427,-145.014"/>
<polygon fill="midnightblue" stroke="midnightblue" points="423.5,-178.742 427,-188.742 430.5,-178.742 423.5,-178.742"/>
</g>
<!-- Node22 -->
<g id="node22" class="node"><title>Node22</title>
<g id="a_node22"><a xlink:href="filter__chain_8cpp.xhtml" target="_top" xlink:title="/Users/rkwright/Documents\l/github/readium&#45;sdk&#45;D/ePub3\l/ePub/filter_chain.cpp">
<polygon fill="white" stroke="black" points="689.966,-101 689.966,-145 836.034,-145 836.034,-101 689.966,-101"/>
<text text-anchor="start" x="697.966" y="-131" font-family="Helvetica,sans-Serif" font-size="10.00">/Users/rkwright/Documents</text>
<text text-anchor="start" x="697.966" y="-119" font-family="Helvetica,sans-Serif" font-size="10.00">/github/readium&#45;sdk&#45;D/ePub3</text>
<text text-anchor="middle" x="763" y="-107" font-family="Helvetica,sans-Serif" font-size="10.00">/ePub/filter_chain.cpp</text>
</a>
</g>
</g>
<!-- Node21&#45;&gt;Node22 -->
<g id="edge25" class="edge"><title>Node21&#45;&gt;Node22</title>
<path fill="none" stroke="midnightblue" d="M817.571,-181.233C806.274,-169.385 793.427,-155.911 783.037,-145.014"/>
<polygon fill="midnightblue" stroke="midnightblue" points="815.296,-183.919 824.73,-188.742 820.363,-179.089 815.296,-183.919"/>
</g>
<!-- Node23 -->
<g id="node23" class="node"><title>Node23</title>
<g id="a_node23"><a xlink:href="filter__chain__byte__stream_8cpp.xhtml" target="_top" xlink:title="/Users/rkwright/Documents\l/github/readium&#45;sdk&#45;D/ePub3\l/ePub/filter_chain_byte_stream.cpp">
<polygon fill="white" stroke="black" points="-0.378906,-101 -0.378906,-145 172.379,-145 172.379,-101 -0.378906,-101"/>
<text text-anchor="start" x="7.62109" y="-131" font-family="Helvetica,sans-Serif" font-size="10.00">/Users/rkwright/Documents</text>
<text text-anchor="start" x="7.62109" y="-119" font-family="Helvetica,sans-Serif" font-size="10.00">/github/readium&#45;sdk&#45;D/ePub3</text>
<text text-anchor="middle" x="86" y="-107" font-family="Helvetica,sans-Serif" font-size="10.00">/ePub/filter_chain_byte_stream.cpp</text>
</a>
</g>
</g>
<!-- Node21&#45;&gt;Node23 -->
<g id="edge26" class="edge"><title>Node21&#45;&gt;Node23</title>
<path fill="none" stroke="midnightblue" d="M761.631,-204.802C608.958,-194.936 290.134,-172.635 181,-152 171.201,-150.147 160.965,-147.697 150.995,-145.014"/>
<polygon fill="midnightblue" stroke="midnightblue" points="761.683,-208.312 771.887,-205.462 762.133,-201.327 761.683,-208.312"/>
</g>
<!-- Node24 -->
<g id="node24" class="node"><title>Node24</title>
<g id="a_node24"><a xlink:href="filter__chain__byte__stream__range_8cpp.xhtml" target="_top" xlink:title="/Users/rkwright/Documents\l/github/readium&#45;sdk&#45;D/ePub3\l/ePub/filter_chain_byte_stream\l_range.cpp">
<polygon fill="white" stroke="black" points="518.072,-95 518.072,-151 671.928,-151 671.928,-95 518.072,-95"/>
<text text-anchor="start" x="526.072" y="-137" font-family="Helvetica,sans-Serif" font-size="10.00">/Users/rkwright/Documents</text>
<text text-anchor="start" x="526.072" y="-125" font-family="Helvetica,sans-Serif" font-size="10.00">/github/readium&#45;sdk&#45;D/ePub3</text>
<text text-anchor="start" x="526.072" y="-113" font-family="Helvetica,sans-Serif" font-size="10.00">/ePub/filter_chain_byte_stream</text>
<text text-anchor="middle" x="595" y="-101" font-family="Helvetica,sans-Serif" font-size="10.00">_range.cpp</text>
</a>
</g>
</g>
<!-- Node21&#45;&gt;Node24 -->
<g id="edge27" class="edge"><title>Node21&#45;&gt;Node24</title>
<path fill="none" stroke="midnightblue" d="M774.159,-185.631C742.316,-174.677 704.66,-161.723 672.108,-150.525"/>
<polygon fill="midnightblue" stroke="midnightblue" points="773.248,-189.019 783.843,-188.962 775.526,-182.399 773.248,-189.019"/>
</g>
<!-- Node21&#45;&gt;Node7 -->
<g id="edge28" class="edge"><title>Node21&#45;&gt;Node7</title>
<path fill="none" stroke="midnightblue" d="M872.429,-181.233C883.726,-169.385 896.573,-155.911 906.963,-145.014"/>
<polygon fill="midnightblue" stroke="midnightblue" points="869.637,-179.089 865.27,-188.742 874.704,-183.919 869.637,-179.089"/>
</g>
<!-- Node21&#45;&gt;Node8 -->
<g id="edge29" class="edge"><title>Node21&#45;&gt;Node8</title>
<path fill="none" stroke="midnightblue" d="M761.58,-199.343C693.118,-189.704 593.97,-173.696 509,-152 501.129,-149.99 492.93,-147.583 484.892,-145.034"/>
<polygon fill="midnightblue" stroke="midnightblue" points="761.487,-202.863 771.874,-200.777 762.453,-195.93 761.487,-202.863"/>
</g>
<!-- Node21&#45;&gt;Node9 -->
<g id="edge30" class="edge"><title>Node21&#45;&gt;Node9</title>
<path fill="none" stroke="midnightblue" d="M914.77,-185.609C951.285,-172.843 995.556,-157.367 1030.59,-145.119"/>
<polygon fill="midnightblue" stroke="midnightblue" points="913.463,-182.358 905.178,-188.962 915.773,-188.966 913.463,-182.358"/>
</g>
<!-- Node21&#45;&gt;Node13 -->
<g id="edge31" class="edge"><title>Node21&#45;&gt;Node13</title>
<path fill="none" stroke="midnightblue" d="M928.303,-198.639C995.019,-188.735 1090.72,-172.713 1173,-152 1180.99,-149.99 1189.31,-147.612 1197.48,-145.104"/>
<polygon fill="midnightblue" stroke="midnightblue" points="927.647,-195.198 918.263,-200.116 928.666,-202.123 927.647,-195.198"/>
</g>
<!-- Node26 -->
<g id="node26" class="node"><title>Node26</title>
<g id="a_node26"><a xlink:href="property__extension_8cpp.xhtml" target="_top" xlink:title="/Users/rkwright/Documents\l/github/readium&#45;sdk&#45;D/ePub3\l/ePub/property_extension.cpp">
<polygon fill="white" stroke="black" points="3117.57,-101 3117.57,-145 3266.43,-145 3266.43,-101 3117.57,-101"/>
<text text-anchor="start" x="3125.57" y="-131" font-family="Helvetica,sans-Serif" font-size="10.00">/Users/rkwright/Documents</text>
<text text-anchor="start" x="3125.57" y="-119" font-family="Helvetica,sans-Serif" font-size="10.00">/github/readium&#45;sdk&#45;D/ePub3</text>
<text text-anchor="middle" x="3192" y="-107" font-family="Helvetica,sans-Serif" font-size="10.00">/ePub/property_extension.cpp</text>
</a>
</g>
</g>
<!-- Node25&#45;&gt;Node26 -->
<g id="edge33" class="edge"><title>Node25&#45;&gt;Node26</title>
<path fill="none" stroke="midnightblue" d="M2681.39,-205.978C2783.29,-199.82 2960.5,-185.081 3109,-152 3117.46,-150.115 3126.27,-147.682 3134.85,-145.037"/>
<polygon fill="midnightblue" stroke="midnightblue" points="2680.93,-202.499 2671.16,-206.583 2681.35,-209.487 2680.93,-202.499"/>
</g>
<!-- Node27&#45;&gt;Node26 -->
<g id="edge35" class="edge"><title>Node27&#45;&gt;Node26</title>
<path fill="none" stroke="midnightblue" d="M3160.82,-179.872C3167.24,-168.362 3174.42,-155.496 3180.27,-145.014"/>
<polygon fill="midnightblue" stroke="midnightblue" points="3157.68,-178.304 3155.87,-188.742 3163.8,-181.715 3157.68,-178.304"/>
</g>
<!-- Node28&#45;&gt;Node18 -->
<g id="edge37" class="edge"><title>Node28&#45;&gt;Node18</title>
<path fill="none" stroke="midnightblue" d="M2326.39,-203.243C2510.78,-188.285 2937.5,-153.566 2945,-152 2953.69,-150.187 2962.73,-147.722 2971.49,-145.003"/>
<polygon fill="midnightblue" stroke="midnightblue" points="2325.88,-199.773 2316.2,-204.07 2326.45,-206.75 2325.88,-199.773"/>
</g>
</g>
</svg>
