<?xml version="1.0" encoding="UTF-8" standalone="no"?>
<!DOCTYPE svg PUBLIC "-//W3C//DTD SVG 1.1//EN"
 "http://www.w3.org/Graphics/SVG/1.1/DTD/svg11.dtd">
<!-- Generated by graphviz version 2.30.0 (20130114.0426)
 -->
<!-- Title: /Users/rkwright/Documents/github/readium&#45;sdk&#45;D/ePub3/xml/utilities/xmlstring.h Pages: 1 -->
<svg width="172pt" height="112pt"
 viewBox="0.00 0.00 172.00 112.00" xmlns="http://www.w3.org/2000/svg" xmlns:xlink="http://www.w3.org/1999/xlink">
<g id="graph0" class="graph" transform="scale(1 1) rotate(0) translate(4 108)">
<title>/Users/rkwright/Documents/github/readium&#45;sdk&#45;D/ePub3/xml/utilities/xmlstring.h</title>
<polygon fill="white" stroke="white" points="-4,5 -4,-108 169,-108 169,5 -4,5"/>
<!-- Node1 -->
<g id="node1" class="node"><title>Node1</title>
<polygon fill="#bfbfbf" stroke="black" points="17.9658,-59 17.9658,-103 164.034,-103 164.034,-59 17.9658,-59"/>
<text text-anchor="start" x="25.9658" y="-89" font-family="Helvetica,sans-Serif" font-size="10.00">/Users/rkwright/Documents</text>
<text text-anchor="start" x="25.9658" y="-77" font-family="Helvetica,sans-Serif" font-size="10.00">/github/readium&#45;sdk&#45;D/ePub3</text>
<text text-anchor="middle" x="91" y="-65" font-family="Helvetica,sans-Serif" font-size="10.00">/xml/utilities/xmlstring.h</text>
</g>
<!-- Node2 -->
<g id="node2" class="node"><title>Node2</title>
<polygon fill="white" stroke="#bfbfbf" points="-0.0244141,-1 -0.0244141,-21 96.0244,-21 96.0244,-1 -0.0244141,-1"/>
<text text-anchor="middle" x="48" y="-7" font-family="Helvetica,sans-Serif" font-size="10.00">ePub3/xml/base.h</text>
</g>
<!-- Node1&#45;&gt;Node2 -->
<g id="edge1" class="edge"><title>Node1&#45;&gt;Node2</title>
<path fill="none" stroke="midnightblue" d="M77.6302,-58.8571C71.7642,-49.5806 64.9512,-38.8065 59.3382,-29.9302"/>
<polygon fill="midnightblue" stroke="midnightblue" points="62.123,-27.7853 53.8201,-21.2039 56.2066,-31.5265 62.123,-27.7853"/>
</g>
<!-- Node3 -->
<g id="node3" class="node"><title>Node3</title>
<polygon fill="white" stroke="#bfbfbf" points="113.773,-1 113.773,-21 154.227,-21 154.227,-1 113.773,-1"/>
<text text-anchor="middle" x="134" y="-7" font-family="Helvetica,sans-Serif" font-size="10.00">string</text>
</g>
<!-- Node1&#45;&gt;Node3 -->
<g id="edge2" class="edge"><title>Node1&#45;&gt;Node3</title>
<path fill="none" stroke="midnightblue" d="M104.37,-58.8571C110.236,-49.5806 117.049,-38.8065 122.662,-29.9302"/>
<polygon fill="midnightblue" stroke="midnightblue" points="125.793,-31.5265 128.18,-21.2039 119.877,-27.7853 125.793,-31.5265"/>
</g>
</g>
</svg>
