<?xml version="1.0" encoding="UTF-8" standalone="no"?>
<!DOCTYPE svg PUBLIC "-//W3C//DTD SVG 1.1//EN"
 "http://www.w3.org/Graphics/SVG/1.1/DTD/svg11.dtd">
<!-- Generated by graphviz version 2.30.0 (20130114.0426)
 -->
<!-- Title: /Users/rkwright/Documents/github/readium&#45;sdk&#45;D/ePub3/ePub/xpath_wrangler.cpp Pages: 1 -->
<svg width="1339pt" height="530pt"
 viewBox="0.00 0.00 1339.00 530.00" xmlns="http://www.w3.org/2000/svg" xmlns:xlink="http://www.w3.org/1999/xlink">
<g id="graph0" class="graph" transform="scale(1 1) rotate(0) translate(4 526)">
<title>/Users/rkwright/Documents/github/readium&#45;sdk&#45;D/ePub3/ePub/xpath_wrangler.cpp</title>
<polygon fill="white" stroke="white" points="-4,5 -4,-526 1336,-526 1336,5 -4,5"/>
<!-- Node1 -->
<g id="node1" class="node"><title>Node1</title>
<polygon fill="#bfbfbf" stroke="black" points="1110.97,-477 1110.97,-521 1257.03,-521 1257.03,-477 1110.97,-477"/>
<text text-anchor="start" x="1118.97" y="-507" font-family="Helvetica,sans-Serif" font-size="10.00">/Users/rkwright/Documents</text>
<text text-anchor="start" x="1118.97" y="-495" font-family="Helvetica,sans-Serif" font-size="10.00">/github/readium&#45;sdk&#45;D/ePub3</text>
<text text-anchor="middle" x="1184" y="-483" font-family="Helvetica,sans-Serif" font-size="10.00">/ePub/xpath_wrangler.cpp</text>
</g>
<!-- Node2 -->
<g id="node2" class="node"><title>Node2</title>
<g id="a_node2"><a xlink:href="xpath__wrangler_8h.xhtml" target="_top" xlink:title="xpath_wrangler.h">
<polygon fill="white" stroke="black" points="1011.92,-419 1011.92,-439 1104.08,-439 1104.08,-419 1011.92,-419"/>
<text text-anchor="middle" x="1058" y="-425" font-family="Helvetica,sans-Serif" font-size="10.00">xpath_wrangler.h</text>
</a>
</g>
</g>
<!-- Node1&#45;&gt;Node2 -->
<g id="edge1" class="edge"><title>Node1&#45;&gt;Node2</title>
<path fill="none" stroke="midnightblue" d="M1144.82,-476.857C1124.95,-466.133 1101.37,-453.408 1083.81,-443.927"/>
<polygon fill="midnightblue" stroke="midnightblue" points="1085.19,-440.696 1074.73,-439.027 1081.86,-446.856 1085.19,-440.696"/>
</g>
<!-- Node30 -->
<g id="node30" class="node"><title>Node30</title>
<polygon fill="white" stroke="#bfbfbf" points="1161.59,-361 1161.59,-381 1260.41,-381 1260.41,-361 1161.59,-361"/>
<text text-anchor="middle" x="1211" y="-367" font-family="Helvetica,sans-Serif" font-size="10.00">ePub3/xml/xpath.h</text>
</g>
<!-- Node1&#45;&gt;Node30 -->
<g id="edge38" class="edge"><title>Node1&#45;&gt;Node30</title>
<path fill="none" stroke="midnightblue" d="M1188.52,-476.91C1193.65,-452.949 1201.96,-414.184 1206.91,-391.087"/>
<polygon fill="midnightblue" stroke="midnightblue" points="1210.37,-391.651 1209.04,-381.14 1203.52,-390.185 1210.37,-391.651"/>
</g>
<!-- Node31 -->
<g id="node31" class="node"><title>Node31</title>
<polygon fill="white" stroke="#bfbfbf" points="1211.86,-419 1211.86,-439 1330.14,-439 1330.14,-419 1211.86,-419"/>
<text text-anchor="middle" x="1271" y="-425" font-family="Helvetica,sans-Serif" font-size="10.00">ePub3/xml/document.h</text>
</g>
<!-- Node1&#45;&gt;Node31 -->
<g id="edge39" class="edge"><title>Node1&#45;&gt;Node31</title>
<path fill="none" stroke="midnightblue" d="M1211.05,-476.857C1224.06,-466.692 1239.36,-454.73 1251.25,-445.436"/>
<polygon fill="midnightblue" stroke="midnightblue" points="1253.5,-448.12 1259.22,-439.204 1249.19,-442.605 1253.5,-448.12"/>
</g>
<!-- Node3 -->
<g id="node3" class="node"><title>Node3</title>
<polygon fill="white" stroke="#bfbfbf" points="1060.08,-361 1060.08,-381 1143.92,-381 1143.92,-361 1060.08,-361"/>
<text text-anchor="middle" x="1102" y="-367" font-family="Helvetica,sans-Serif" font-size="10.00">ePub3/epub3.h</text>
</g>
<!-- Node2&#45;&gt;Node3 -->
<g id="edge2" class="edge"><title>Node2&#45;&gt;Node3</title>
<path fill="none" stroke="midnightblue" d="M1065.27,-418.753C1071.61,-410.68 1080.98,-398.757 1088.66,-388.973"/>
<polygon fill="midnightblue" stroke="midnightblue" points="1091.44,-391.101 1094.87,-381.075 1085.94,-386.776 1091.44,-391.101"/>
</g>
<!-- Node4 -->
<g id="node4" class="node"><title>Node4</title>
<g id="a_node4"><a xlink:href="utfstring_8h.xhtml" target="_top" xlink:title="ePub3/utilities/utfstring.h">
<polygon fill="white" stroke="black" points="480.525,-361 480.525,-381 605.475,-381 605.475,-361 480.525,-361"/>
<text text-anchor="middle" x="543" y="-367" font-family="Helvetica,sans-Serif" font-size="10.00">ePub3/utilities/utfstring.h</text>
</a>
</g>
</g>
<!-- Node2&#45;&gt;Node4 -->
<g id="edge3" class="edge"><title>Node2&#45;&gt;Node4</title>
<path fill="none" stroke="midnightblue" d="M1011.84,-422.981C922.154,-413.228 723.706,-391.65 615.989,-379.937"/>
<polygon fill="midnightblue" stroke="midnightblue" points="616.174,-376.436 605.854,-378.835 615.417,-383.395 616.174,-376.436"/>
</g>
<!-- Node2&#45;&gt;Node30 -->
<g id="edge35" class="edge"><title>Node2&#45;&gt;Node30</title>
<path fill="none" stroke="midnightblue" d="M1082.92,-418.878C1108.45,-409.535 1148.32,-394.943 1176.79,-384.522"/>
<polygon fill="midnightblue" stroke="midnightblue" points="1178.15,-387.749 1186.34,-381.025 1175.75,-381.176 1178.15,-387.749"/>
</g>
<!-- Node27 -->
<g id="node27" class="node"><title>Node27</title>
<polygon fill="white" stroke="#bfbfbf" points="968.273,-297 968.273,-317 1003.73,-317 1003.73,-297 968.273,-297"/>
<text text-anchor="middle" x="986" y="-303" font-family="Helvetica,sans-Serif" font-size="10.00">map</text>
</g>
<!-- Node2&#45;&gt;Node27 -->
<g id="edge36" class="edge"><title>Node2&#45;&gt;Node27</title>
<path fill="none" stroke="midnightblue" d="M1048.48,-418.822C1039.73,-409.996 1026.8,-395.971 1018,-382 1006.85,-364.292 997.81,-342.03 992.218,-326.572"/>
<polygon fill="midnightblue" stroke="midnightblue" points="995.511,-325.386 988.913,-317.096 988.901,-327.691 995.511,-325.386"/>
</g>
<!-- Node14 -->
<g id="node14" class="node"><title>Node14</title>
<polygon fill="white" stroke="#bfbfbf" points="918.384,-233 918.384,-253 961.616,-253 961.616,-233 918.384,-233"/>
<text text-anchor="middle" x="940" y="-239" font-family="Helvetica,sans-Serif" font-size="10.00">vector</text>
</g>
<!-- Node2&#45;&gt;Node14 -->
<g id="edge37" class="edge"><title>Node2&#45;&gt;Node14</title>
<path fill="none" stroke="midnightblue" d="M1057.08,-418.96C1054.28,-395.387 1043.98,-331.034 1012,-290 1001.23,-276.179 985.068,-265.319 970.785,-257.63"/>
<polygon fill="midnightblue" stroke="midnightblue" points="972.246,-254.446 961.746,-253.036 969.074,-260.687 972.246,-254.446"/>
</g>
<!-- Node5 -->
<g id="node5" class="node"><title>Node5</title>
<g id="a_node5"><a xlink:href="basic_8h.xhtml" target="_top" xlink:title="ePub3/utilities/basic.h">
<polygon fill="white" stroke="black" points="590.638,-297 590.638,-317 703.362,-317 703.362,-297 590.638,-297"/>
<text text-anchor="middle" x="647" y="-303" font-family="Helvetica,sans-Serif" font-size="10.00">ePub3/utilities/basic.h</text>
</a>
</g>
</g>
<!-- Node4&#45;&gt;Node5 -->
<g id="edge4" class="edge"><title>Node4&#45;&gt;Node5</title>
<path fill="none" stroke="midnightblue" d="M558.346,-360.852C575.32,-350.732 602.897,-334.292 622.791,-322.432"/>
<polygon fill="midnightblue" stroke="midnightblue" points="624.794,-325.313 631.591,-317.186 621.21,-319.3 624.794,-325.313"/>
</g>
<!-- Node16 -->
<g id="node16" class="node"><title>Node16</title>
<g id="a_node16"><a xlink:href="integer__sequence_8h.xhtml" target="_top" xlink:title="ePub3/utilities/integer\l_sequence.h">
<polygon fill="white" stroke="black" points="800.192,-291 800.192,-323 911.808,-323 911.808,-291 800.192,-291"/>
<text text-anchor="start" x="808.192" y="-309" font-family="Helvetica,sans-Serif" font-size="10.00">ePub3/utilities/integer</text>
<text text-anchor="middle" x="856" y="-297" font-family="Helvetica,sans-Serif" font-size="10.00">_sequence.h</text>
</a>
</g>
</g>
<!-- Node4&#45;&gt;Node16 -->
<g id="edge15" class="edge"><title>Node4&#45;&gt;Node16</title>
<path fill="none" stroke="midnightblue" d="M596.878,-360.934C644.973,-352.632 717.555,-339.59 789.834,-324.185"/>
<polygon fill="midnightblue" stroke="midnightblue" points="790.986,-327.518 800.028,-321.996 789.516,-320.674 790.986,-327.518"/>
</g>
<!-- Node17 -->
<g id="node17" class="node"><title>Node17</title>
<g id="a_node17"><a xlink:href="string__view_8h.xhtml" target="_top" xlink:title="ePub3/utilities/string\l_view.h">
<polygon fill="white" stroke="black" points="108.254,-291 108.254,-323 213.746,-323 213.746,-291 108.254,-291"/>
<text text-anchor="start" x="116.254" y="-309" font-family="Helvetica,sans-Serif" font-size="10.00">ePub3/utilities/string</text>
<text text-anchor="middle" x="161" y="-297" font-family="Helvetica,sans-Serif" font-size="10.00">_view.h</text>
</a>
</g>
</g>
<!-- Node4&#45;&gt;Node17 -->
<g id="edge17" class="edge"><title>Node4&#45;&gt;Node17</title>
<path fill="none" stroke="midnightblue" d="M480.502,-363.186C417.768,-355.864 318.213,-342.934 223.816,-324.253"/>
<polygon fill="midnightblue" stroke="midnightblue" points="224.308,-320.782 213.815,-322.248 222.932,-327.645 224.308,-320.782"/>
</g>
<!-- Node19 -->
<g id="node19" class="node"><title>Node19</title>
<polygon fill="white" stroke="#bfbfbf" points="-0.226562,-233 -0.226562,-253 40.2266,-253 40.2266,-233 -0.226562,-233"/>
<text text-anchor="middle" x="20" y="-239" font-family="Helvetica,sans-Serif" font-size="10.00">string</text>
</g>
<!-- Node4&#45;&gt;Node19 -->
<g id="edge26" class="edge"><title>Node4&#45;&gt;Node19</title>
<path fill="none" stroke="midnightblue" d="M480.408,-368.684C374.453,-365.606 164.849,-355.603 99,-324 69.8125,-309.992 45.2845,-280.555 31.63,-261.561"/>
<polygon fill="midnightblue" stroke="midnightblue" points="34.4007,-259.414 25.8277,-253.189 28.6474,-263.401 34.4007,-259.414"/>
</g>
<!-- Node24 -->
<g id="node24" class="node"><title>Node24</title>
<polygon fill="white" stroke="#bfbfbf" points="231.438,-297 231.438,-317 278.562,-317 278.562,-297 231.438,-297"/>
<text text-anchor="middle" x="255" y="-303" font-family="Helvetica,sans-Serif" font-size="10.00">iterator</text>
</g>
<!-- Node4&#45;&gt;Node24 -->
<g id="edge27" class="edge"><title>Node4&#45;&gt;Node24</title>
<path fill="none" stroke="midnightblue" d="M480.523,-363.557C428.169,-357.022 351.945,-344.834 288,-324 285.563,-323.206 283.077,-322.266 280.617,-321.246"/>
<polygon fill="midnightblue" stroke="midnightblue" points="281.971,-318.017 271.42,-317.052 279.066,-324.386 281.971,-318.017"/>
</g>
<!-- Node25 -->
<g id="node25" class="node"><title>Node25</title>
<polygon fill="white" stroke="#bfbfbf" points="296.936,-297 296.936,-317 339.064,-317 339.064,-297 296.936,-297"/>
<text text-anchor="middle" x="318" y="-303" font-family="Helvetica,sans-Serif" font-size="10.00">locale</text>
</g>
<!-- Node4&#45;&gt;Node25 -->
<g id="edge28" class="edge"><title>Node4&#45;&gt;Node25</title>
<path fill="none" stroke="midnightblue" d="M494.639,-360.957C455.797,-353.061 400.147,-340.316 353,-324 350.569,-323.159 348.078,-322.209 345.599,-321.202"/>
<polygon fill="midnightblue" stroke="midnightblue" points="346.824,-317.918 336.258,-317.144 344.035,-324.338 346.824,-317.918"/>
</g>
<!-- Node4&#45;&gt;Node14 -->
<g id="edge29" class="edge"><title>Node4&#45;&gt;Node14</title>
<path fill="none" stroke="midnightblue" d="M605.676,-370.659C700.619,-370.322 874.663,-364.055 920,-324 937.059,-308.929 940.643,-281.718 940.909,-263.261"/>
<polygon fill="midnightblue" stroke="midnightblue" points="944.406,-263.027 940.737,-253.088 937.407,-263.145 944.406,-263.027"/>
</g>
<!-- Node26 -->
<g id="node26" class="node"><title>Node26</title>
<polygon fill="white" stroke="#bfbfbf" points="394.766,-297 394.766,-317 495.234,-317 495.234,-297 394.766,-297"/>
<text text-anchor="middle" x="445" y="-303" font-family="Helvetica,sans-Serif" font-size="10.00">REGEX_INCLUDE</text>
</g>
<!-- Node4&#45;&gt;Node26 -->
<g id="edge30" class="edge"><title>Node4&#45;&gt;Node26</title>
<path fill="none" stroke="midnightblue" d="M528.54,-360.852C512.617,-350.778 486.793,-334.441 468.067,-322.594"/>
<polygon fill="midnightblue" stroke="midnightblue" points="469.842,-319.575 459.52,-317.186 466.099,-325.49 469.842,-319.575"/>
</g>
<!-- Node4&#45;&gt;Node27 -->
<g id="edge31" class="edge"><title>Node4&#45;&gt;Node27</title>
<path fill="none" stroke="midnightblue" d="M605.617,-369.77C687.38,-367.949 834.198,-359.431 954,-324 956.45,-323.276 958.938,-322.371 961.389,-321.363"/>
<polygon fill="midnightblue" stroke="midnightblue" points="962.911,-324.515 970.501,-317.123 959.958,-318.168 962.911,-324.515"/>
</g>
<!-- Node28 -->
<g id="node28" class="node"><title>Node28</title>
<polygon fill="white" stroke="#bfbfbf" points="513.599,-297 513.599,-317 572.401,-317 572.401,-297 513.599,-297"/>
<text text-anchor="middle" x="543" y="-303" font-family="Helvetica,sans-Serif" font-size="10.00">stdexcept</text>
</g>
<!-- Node4&#45;&gt;Node28 -->
<g id="edge32" class="edge"><title>Node4&#45;&gt;Node28</title>
<path fill="none" stroke="midnightblue" d="M543,-360.852C543,-352.06 543,-338.498 543,-327.313"/>
<polygon fill="midnightblue" stroke="midnightblue" points="546.5,-327.186 543,-317.186 539.5,-327.186 546.5,-327.186"/>
</g>
<!-- Node20 -->
<g id="node20" class="node"><title>Node20</title>
<polygon fill="white" stroke="#bfbfbf" points="372.613,-233 372.613,-253 411.387,-253 411.387,-233 372.613,-233"/>
<text text-anchor="middle" x="392" y="-239" font-family="Helvetica,sans-Serif" font-size="10.00">limits</text>
</g>
<!-- Node4&#45;&gt;Node20 -->
<g id="edge33" class="edge"><title>Node4&#45;&gt;Node20</title>
<path fill="none" stroke="midnightblue" d="M487.422,-360.931C447.41,-353.136 398.388,-340.538 386,-324 372.931,-306.553 378.085,-280.536 384.065,-262.95"/>
<polygon fill="midnightblue" stroke="midnightblue" points="387.473,-263.833 387.739,-253.242 380.926,-261.355 387.473,-263.833"/>
</g>
<!-- Node29 -->
<g id="node29" class="node"><title>Node29</title>
<polygon fill="white" stroke="#bfbfbf" points="721.761,-297 721.761,-317 782.239,-317 782.239,-297 721.761,-297"/>
<text text-anchor="middle" x="752" y="-303" font-family="Helvetica,sans-Serif" font-size="10.00">utf8/utf8.h</text>
</g>
<!-- Node4&#45;&gt;Node29 -->
<g id="edge34" class="edge"><title>Node4&#45;&gt;Node29</title>
<path fill="none" stroke="midnightblue" d="M580.96,-360.993C615.458,-352.495 667.596,-338.869 712,-324 714.954,-323.011 718.006,-321.92 721.046,-320.786"/>
<polygon fill="midnightblue" stroke="midnightblue" points="722.518,-323.97 730.579,-317.094 719.99,-317.442 722.518,-323.97"/>
</g>
<!-- Node6 -->
<g id="node6" class="node"><title>Node6</title>
<g id="a_node6"><a xlink:href="base_8h.xhtml" target="_top" xlink:title="ePub3/base.h">
<polygon fill="white" stroke="black" points="696.141,-175 696.141,-195 773.859,-195 773.859,-175 696.141,-175"/>
<text text-anchor="middle" x="735" y="-181" font-family="Helvetica,sans-Serif" font-size="10.00">ePub3/base.h</text>
</a>
</g>
</g>
<!-- Node5&#45;&gt;Node6 -->
<g id="edge5" class="edge"><title>Node5&#45;&gt;Node6</title>
<path fill="none" stroke="midnightblue" d="M664.31,-296.97C679.778,-288.044 701.955,-272.986 715,-254 725.008,-239.435 730.081,-219.812 732.607,-205.389"/>
<polygon fill="midnightblue" stroke="midnightblue" points="736.123,-205.54 734.132,-195.134 729.199,-204.51 736.123,-205.54"/>
</g>
<!-- Node11 -->
<g id="node11" class="node"><title>Node11</title>
<polygon fill="white" stroke="#bfbfbf" points="475.815,-233 475.815,-253 590.185,-253 590.185,-233 475.815,-233"/>
<text text-anchor="middle" x="533" y="-239" font-family="Helvetica,sans-Serif" font-size="10.00">ePub3/xml/xmlstring.h</text>
</g>
<!-- Node5&#45;&gt;Node11 -->
<g id="edge10" class="edge"><title>Node5&#45;&gt;Node11</title>
<path fill="none" stroke="midnightblue" d="M630.179,-296.852C611.404,-286.641 580.795,-269.994 558.947,-258.112"/>
<polygon fill="midnightblue" stroke="midnightblue" points="560.347,-254.889 549.89,-253.186 557.003,-261.038 560.347,-254.889"/>
</g>
<!-- Node12 -->
<g id="node12" class="node"><title>Node12</title>
<polygon fill="white" stroke="#bfbfbf" points="608.219,-233 608.219,-253 659.781,-253 659.781,-233 608.219,-233"/>
<text text-anchor="middle" x="634" y="-239" font-family="Helvetica,sans-Serif" font-size="10.00">sstream</text>
</g>
<!-- Node5&#45;&gt;Node12 -->
<g id="edge11" class="edge"><title>Node5&#45;&gt;Node12</title>
<path fill="none" stroke="midnightblue" d="M645.082,-296.852C643.238,-288.06 640.395,-274.498 638.05,-263.313"/>
<polygon fill="midnightblue" stroke="midnightblue" points="641.404,-262.255 635.926,-253.186 634.553,-263.691 641.404,-262.255"/>
</g>
<!-- Node13 -->
<g id="node13" class="node"><title>Node13</title>
<polygon fill="white" stroke="#bfbfbf" points="356.943,-175 356.943,-195 409.057,-195 409.057,-175 356.943,-175"/>
<text text-anchor="middle" x="383" y="-181" font-family="Helvetica,sans-Serif" font-size="10.00">memory</text>
</g>
<!-- Node5&#45;&gt;Node13 -->
<g id="edge12" class="edge"><title>Node5&#45;&gt;Node13</title>
<path fill="none" stroke="midnightblue" d="M609.196,-296.961C564.108,-285.855 491.729,-266.902 467,-254 440.935,-240.401 415.309,-217.975 399.349,-202.622"/>
<polygon fill="midnightblue" stroke="midnightblue" points="401.515,-199.842 391.933,-195.322 396.604,-204.831 401.515,-199.842"/>
</g>
<!-- Node5&#45;&gt;Node14 -->
<g id="edge13" class="edge"><title>Node5&#45;&gt;Node14</title>
<path fill="none" stroke="midnightblue" d="M683.253,-296.95C692.903,-294.612 703.333,-292.151 713,-290 782.441,-274.553 864.314,-258.487 908.274,-250.035"/>
<polygon fill="midnightblue" stroke="midnightblue" points="909.184,-253.425 918.346,-248.105 907.866,-246.55 909.184,-253.425"/>
</g>
<!-- Node15 -->
<g id="node15" class="node"><title>Node15</title>
<polygon fill="white" stroke="#bfbfbf" points="677.5,-233 677.5,-253 706.5,-253 706.5,-233 677.5,-233"/>
<text text-anchor="middle" x="691.611" y="-239" font-family="Helvetica,sans-Serif" font-size="10.00">list</text>
</g>
<!-- Node5&#45;&gt;Node15 -->
<g id="edge14" class="edge"><title>Node5&#45;&gt;Node15</title>
<path fill="none" stroke="midnightblue" d="M653.64,-296.852C660.353,-287.602 670.899,-273.072 679.236,-261.586"/>
<polygon fill="midnightblue" stroke="midnightblue" points="682.291,-263.335 685.333,-253.186 676.626,-259.223 682.291,-263.335"/>
</g>
<!-- Node7 -->
<g id="node7" class="node"><title>Node7</title>
<g id="a_node7"><a xlink:href="__config_8h.xhtml" target="_top" xlink:title="_config.h">
<polygon fill="white" stroke="black" points="671.707,-117 671.707,-137 728.293,-137 728.293,-117 671.707,-117"/>
<text text-anchor="middle" x="700" y="-123" font-family="Helvetica,sans-Serif" font-size="10.00">_config.h</text>
</a>
</g>
</g>
<!-- Node6&#45;&gt;Node7 -->
<g id="edge6" class="edge"><title>Node6&#45;&gt;Node7</title>
<path fill="none" stroke="midnightblue" d="M729.22,-174.753C724.277,-166.843 717.023,-155.237 710.98,-145.568"/>
<polygon fill="midnightblue" stroke="midnightblue" points="713.94,-143.7 705.672,-137.075 708.004,-147.41 713.94,-143.7"/>
</g>
<!-- Node10 -->
<g id="node10" class="node"><title>Node10</title>
<polygon fill="white" stroke="#bfbfbf" points="746.158,-117 746.158,-137 793.842,-137 793.842,-117 746.158,-117"/>
<text text-anchor="middle" x="770" y="-123" font-family="Helvetica,sans-Serif" font-size="10.00">stdlib.h</text>
</g>
<!-- Node6&#45;&gt;Node10 -->
<g id="edge9" class="edge"><title>Node6&#45;&gt;Node10</title>
<path fill="none" stroke="midnightblue" d="M740.78,-174.753C745.723,-166.843 752.977,-155.237 759.02,-145.568"/>
<polygon fill="midnightblue" stroke="midnightblue" points="761.996,-147.41 764.328,-137.075 756.06,-143.7 761.996,-147.41"/>
</g>
<!-- Node8 -->
<g id="node8" class="node"><title>Node8</title>
<g id="a_node8"><a xlink:href="__platform_8h.xhtml" target="_top" xlink:title="_platform.h">
<polygon fill="white" stroke="black" points="666.988,-59 666.988,-79 733.012,-79 733.012,-59 666.988,-59"/>
<text text-anchor="middle" x="700" y="-65" font-family="Helvetica,sans-Serif" font-size="10.00">_platform.h</text>
</a>
</g>
</g>
<!-- Node7&#45;&gt;Node8 -->
<g id="edge7" class="edge"><title>Node7&#45;&gt;Node8</title>
<path fill="none" stroke="midnightblue" d="M700,-116.753C700,-109.25 700,-98.4238 700,-89.0781"/>
<polygon fill="midnightblue" stroke="midnightblue" points="703.5,-89.0752 700,-79.0752 696.5,-89.0752 703.5,-89.0752"/>
</g>
<!-- Node9 -->
<g id="node9" class="node"><title>Node9</title>
<g id="a_node9"><a xlink:href="__compiler_8h.xhtml" target="_top" xlink:title="_compiler.h">
<polygon fill="white" stroke="black" points="666.429,-1 666.429,-21 733.571,-21 733.571,-1 666.429,-1"/>
<text text-anchor="middle" x="700" y="-7" font-family="Helvetica,sans-Serif" font-size="10.00">_compiler.h</text>
</a>
</g>
</g>
<!-- Node8&#45;&gt;Node9 -->
<g id="edge8" class="edge"><title>Node8&#45;&gt;Node9</title>
<path fill="none" stroke="midnightblue" d="M700,-58.7527C700,-51.2504 700,-40.4238 700,-31.0781"/>
<polygon fill="midnightblue" stroke="midnightblue" points="703.5,-31.0752 700,-21.0752 696.5,-31.0752 703.5,-31.0752"/>
</g>
<!-- Node16&#45;&gt;Node6 -->
<g id="edge16" class="edge"><title>Node16&#45;&gt;Node6</title>
<path fill="none" stroke="midnightblue" d="M840.675,-290.802C817.822,-268.137 774.987,-225.657 751.48,-202.344"/>
<polygon fill="midnightblue" stroke="midnightblue" points="753.871,-199.786 744.306,-195.229 748.942,-204.756 753.871,-199.786"/>
</g>
<!-- Node18 -->
<g id="node18" class="node"><title>Node18</title>
<polygon fill="white" stroke="#bfbfbf" points="57.9336,-233 57.9336,-253 120.066,-253 120.066,-233 57.9336,-233"/>
<text text-anchor="middle" x="89" y="-239" font-family="Helvetica,sans-Serif" font-size="10.00">type_traits</text>
</g>
<!-- Node17&#45;&gt;Node18 -->
<g id="edge18" class="edge"><title>Node17&#45;&gt;Node18</title>
<path fill="none" stroke="midnightblue" d="M143.571,-290.992C132.693,-281.624 118.7,-269.575 107.607,-260.022"/>
<polygon fill="midnightblue" stroke="midnightblue" points="109.65,-257.163 99.7889,-253.29 105.083,-262.468 109.65,-257.163"/>
</g>
<!-- Node17&#45;&gt;Node19 -->
<g id="edge19" class="edge"><title>Node17&#45;&gt;Node19</title>
<path fill="none" stroke="midnightblue" d="M126.868,-290.992C103.297,-280.627 72.2574,-266.978 49.7069,-257.063"/>
<polygon fill="midnightblue" stroke="midnightblue" points="50.868,-253.75 40.3051,-252.928 48.0503,-260.158 50.868,-253.75"/>
</g>
<!-- Node17&#45;&gt;Node20 -->
<g id="edge20" class="edge"><title>Node17&#45;&gt;Node20</title>
<path fill="none" stroke="midnightblue" d="M213.896,-292.103C216.636,-291.39 219.35,-290.686 222,-290 281.679,-274.555 299.401,-272.707 362.73,-253.899"/>
<polygon fill="midnightblue" stroke="midnightblue" points="363.84,-257.22 372.415,-250.997 361.831,-250.514 363.84,-257.22"/>
</g>
<!-- Node21 -->
<g id="node21" class="node"><title>Node21</title>
<polygon fill="white" stroke="#bfbfbf" points="137.828,-233 137.828,-253 192.172,-253 192.172,-233 137.828,-233"/>
<text text-anchor="middle" x="165" y="-239" font-family="Helvetica,sans-Serif" font-size="10.00">iostream</text>
</g>
<!-- Node17&#45;&gt;Node21 -->
<g id="edge21" class="edge"><title>Node17&#45;&gt;Node21</title>
<path fill="none" stroke="midnightblue" d="M161.968,-290.992C162.502,-282.726 163.169,-272.373 163.743,-263.489"/>
<polygon fill="midnightblue" stroke="midnightblue" points="167.249,-263.495 164.401,-253.29 160.264,-263.044 167.249,-263.495"/>
</g>
<!-- Node22 -->
<g id="node22" class="node"><title>Node22</title>
<polygon fill="white" stroke="#bfbfbf" points="210.436,-233 210.436,-253 267.564,-253 267.564,-233 210.436,-233"/>
<text text-anchor="middle" x="239" y="-239" font-family="Helvetica,sans-Serif" font-size="10.00">algorithm</text>
</g>
<!-- Node17&#45;&gt;Node22 -->
<g id="edge22" class="edge"><title>Node17&#45;&gt;Node22</title>
<path fill="none" stroke="midnightblue" d="M179.882,-290.992C191.782,-281.533 207.123,-269.338 219.195,-259.742"/>
<polygon fill="midnightblue" stroke="midnightblue" points="221.662,-262.253 227.312,-253.29 217.306,-256.773 221.662,-262.253"/>
</g>
<!-- Node23 -->
<g id="node23" class="node"><title>Node23</title>
<g id="a_node23"><a xlink:href="____strhash_8h.xhtml" target="_top" xlink:title="__strhash.h">
<polygon fill="white" stroke="black" points="285.872,-233 285.872,-253 354.128,-253 354.128,-233 285.872,-233"/>
<text text-anchor="middle" x="320" y="-239" font-family="Helvetica,sans-Serif" font-size="10.00">__strhash.h</text>
</a>
</g>
</g>
<!-- Node17&#45;&gt;Node23 -->
<g id="edge23" class="edge"><title>Node17&#45;&gt;Node23</title>
<path fill="none" stroke="midnightblue" d="M199.489,-290.992C226.265,-280.551 261.586,-266.778 287.06,-256.845"/>
<polygon fill="midnightblue" stroke="midnightblue" points="288.595,-260.003 296.64,-253.109 286.052,-253.481 288.595,-260.003"/>
</g>
<!-- Node23&#45;&gt;Node6 -->
<g id="edge24" class="edge"><title>Node23&#45;&gt;Node6</title>
<path fill="none" stroke="midnightblue" d="M354.521,-233.811C357.717,-233.157 360.914,-232.541 364,-232 478.706,-211.906 614.87,-197.382 686.065,-190.491"/>
<polygon fill="midnightblue" stroke="midnightblue" points="686.467,-193.969 696.087,-189.53 685.799,-187.001 686.467,-193.969"/>
</g>
<!-- Node23&#45;&gt;Node13 -->
<g id="edge25" class="edge"><title>Node23&#45;&gt;Node13</title>
<path fill="none" stroke="midnightblue" d="M330.403,-232.753C339.852,-224.353 353.989,-211.787 365.228,-201.798"/>
<polygon fill="midnightblue" stroke="midnightblue" points="367.642,-204.335 372.79,-195.075 362.991,-199.103 367.642,-204.335"/>
</g>
</g>
</svg>
