<?xml version="1.0" encoding="UTF-8" standalone="no"?>
<!DOCTYPE svg PUBLIC "-//W3C//DTD SVG 1.1//EN"
 "http://www.w3.org/Graphics/SVG/1.1/DTD/svg11.dtd">
<!-- Generated by graphviz version 2.30.0 (20130114.0426)
 -->
<!-- Title: /Users/rkwright/Documents/github/readium&#45;sdk&#45;D/ePub3/ePub/xpath_wrangler.h Pages: 1 -->
<svg width="1025pt" height="472pt"
 viewBox="0.00 0.00 1025.50 472.00" xmlns="http://www.w3.org/2000/svg" xmlns:xlink="http://www.w3.org/1999/xlink">
<g id="graph0" class="graph" transform="scale(1 1) rotate(0) translate(4 468)">
<title>/Users/rkwright/Documents/github/readium&#45;sdk&#45;D/ePub3/ePub/xpath_wrangler.h</title>
<polygon fill="white" stroke="white" points="-4,5 -4,-468 1022.5,-468 1022.5,5 -4,5"/>
<!-- Node1 -->
<g id="node1" class="node"><title>Node1</title>
<polygon fill="#bfbfbf" stroke="black" points="743.966,-419 743.966,-463 890.034,-463 890.034,-419 743.966,-419"/>
<text text-anchor="start" x="751.966" y="-449" font-family="Helvetica,sans-Serif" font-size="10.00">/Users/rkwright/Documents</text>
<text text-anchor="start" x="751.966" y="-437" font-family="Helvetica,sans-Serif" font-size="10.00">/github/readium&#45;sdk&#45;D/ePub3</text>
<text text-anchor="middle" x="817" y="-425" font-family="Helvetica,sans-Serif" font-size="10.00">/ePub/xpath_wrangler.h</text>
</g>
<!-- Node2 -->
<g id="node2" class="node"><title>Node2</title>
<polygon fill="white" stroke="#bfbfbf" points="431.079,-361 431.079,-381 514.921,-381 514.921,-361 431.079,-361"/>
<text text-anchor="middle" x="473" y="-367" font-family="Helvetica,sans-Serif" font-size="10.00">ePub3/epub3.h</text>
</g>
<!-- Node1&#45;&gt;Node2 -->
<g id="edge1" class="edge"><title>Node1&#45;&gt;Node2</title>
<path fill="none" stroke="midnightblue" d="M743.625,-425.496C677.916,-412.507 583.201,-393.784 525.007,-382.281"/>
<polygon fill="midnightblue" stroke="midnightblue" points="525.423,-378.795 514.935,-380.289 524.066,-385.662 525.423,-378.795"/>
</g>
<!-- Node3 -->
<g id="node3" class="node"><title>Node3</title>
<g id="a_node3"><a xlink:href="utfstring_8h.xhtml" target="_top" xlink:title="ePub3/utilities/utfstring.h">
<polygon fill="white" stroke="black" points="532.525,-361 532.525,-381 657.475,-381 657.475,-361 532.525,-361"/>
<text text-anchor="middle" x="595" y="-367" font-family="Helvetica,sans-Serif" font-size="10.00">ePub3/utilities/utfstring.h</text>
</a>
</g>
</g>
<!-- Node1&#45;&gt;Node3 -->
<g id="edge2" class="edge"><title>Node1&#45;&gt;Node3</title>
<path fill="none" stroke="midnightblue" d="M748.278,-418.95C710.819,-407.476 665.807,-393.689 634.286,-384.033"/>
<polygon fill="midnightblue" stroke="midnightblue" points="635.139,-380.634 624.552,-381.052 633.089,-387.327 635.139,-380.634"/>
</g>
<!-- Node29 -->
<g id="node29" class="node"><title>Node29</title>
<polygon fill="white" stroke="#bfbfbf" points="767.586,-361 767.586,-381 866.414,-381 866.414,-361 767.586,-361"/>
<text text-anchor="middle" x="817" y="-367" font-family="Helvetica,sans-Serif" font-size="10.00">ePub3/xml/xpath.h</text>
</g>
<!-- Node1&#45;&gt;Node29 -->
<g id="edge34" class="edge"><title>Node1&#45;&gt;Node29</title>
<path fill="none" stroke="midnightblue" d="M817,-418.857C817,-410.074 817,-399.948 817,-391.362"/>
<polygon fill="midnightblue" stroke="midnightblue" points="820.5,-391.204 817,-381.204 813.5,-391.204 820.5,-391.204"/>
</g>
<!-- Node26 -->
<g id="node26" class="node"><title>Node26</title>
<polygon fill="white" stroke="#bfbfbf" points="968.273,-297 968.273,-317 1003.73,-317 1003.73,-297 968.273,-297"/>
<text text-anchor="middle" x="986" y="-303" font-family="Helvetica,sans-Serif" font-size="10.00">map</text>
</g>
<!-- Node1&#45;&gt;Node26 -->
<g id="edge35" class="edge"><title>Node1&#45;&gt;Node26</title>
<path fill="none" stroke="midnightblue" d="M844.153,-418.792C878.292,-392.127 936.076,-346.994 966.277,-323.405"/>
<polygon fill="midnightblue" stroke="midnightblue" points="968.639,-326.001 974.365,-317.088 964.33,-320.485 968.639,-326.001"/>
</g>
<!-- Node13 -->
<g id="node13" class="node"><title>Node13</title>
<polygon fill="white" stroke="#bfbfbf" points="918.384,-233 918.384,-253 961.616,-253 961.616,-233 918.384,-233"/>
<text text-anchor="middle" x="940" y="-239" font-family="Helvetica,sans-Serif" font-size="10.00">vector</text>
</g>
<!-- Node1&#45;&gt;Node13 -->
<g id="edge36" class="edge"><title>Node1&#45;&gt;Node13</title>
<path fill="none" stroke="midnightblue" d="M886.7,-418.848C931.311,-401.252 985.607,-371.298 1012,-324 1019.36,-310.804 1019.26,-303.253 1012,-290 1003.21,-273.948 986.163,-262.683 970.865,-255.32"/>
<polygon fill="midnightblue" stroke="midnightblue" points="972.215,-252.09 961.655,-251.232 969.375,-258.488 972.215,-252.09"/>
</g>
<!-- Node4 -->
<g id="node4" class="node"><title>Node4</title>
<g id="a_node4"><a xlink:href="basic_8h.xhtml" target="_top" xlink:title="ePub3/utilities/basic.h">
<polygon fill="white" stroke="black" points="590.638,-297 590.638,-317 703.362,-317 703.362,-297 590.638,-297"/>
<text text-anchor="middle" x="647" y="-303" font-family="Helvetica,sans-Serif" font-size="10.00">ePub3/utilities/basic.h</text>
</a>
</g>
</g>
<!-- Node3&#45;&gt;Node4 -->
<g id="edge3" class="edge"><title>Node3&#45;&gt;Node4</title>
<path fill="none" stroke="midnightblue" d="M602.673,-360.852C610.584,-351.419 623.101,-336.495 632.82,-324.907"/>
<polygon fill="midnightblue" stroke="midnightblue" points="635.551,-327.097 639.296,-317.186 630.188,-322.599 635.551,-327.097"/>
</g>
<!-- Node15 -->
<g id="node15" class="node"><title>Node15</title>
<g id="a_node15"><a xlink:href="integer__sequence_8h.xhtml" target="_top" xlink:title="ePub3/utilities/integer\l_sequence.h">
<polygon fill="white" stroke="black" points="800.192,-291 800.192,-323 911.808,-323 911.808,-291 800.192,-291"/>
<text text-anchor="start" x="808.192" y="-309" font-family="Helvetica,sans-Serif" font-size="10.00">ePub3/utilities/integer</text>
<text text-anchor="middle" x="856" y="-297" font-family="Helvetica,sans-Serif" font-size="10.00">_sequence.h</text>
</a>
</g>
</g>
<!-- Node3&#45;&gt;Node15 -->
<g id="edge14" class="edge"><title>Node3&#45;&gt;Node15</title>
<path fill="none" stroke="midnightblue" d="M634.076,-360.96C671.569,-352.258 730.049,-338.608 789.972,-324.234"/>
<polygon fill="midnightblue" stroke="midnightblue" points="791.084,-327.567 799.99,-321.828 789.449,-320.761 791.084,-327.567"/>
</g>
<!-- Node16 -->
<g id="node16" class="node"><title>Node16</title>
<g id="a_node16"><a xlink:href="string__view_8h.xhtml" target="_top" xlink:title="ePub3/utilities/string\l_view.h">
<polygon fill="white" stroke="black" points="108.254,-291 108.254,-323 213.746,-323 213.746,-291 108.254,-291"/>
<text text-anchor="start" x="116.254" y="-309" font-family="Helvetica,sans-Serif" font-size="10.00">ePub3/utilities/string</text>
<text text-anchor="middle" x="161" y="-297" font-family="Helvetica,sans-Serif" font-size="10.00">_view.h</text>
</a>
</g>
</g>
<!-- Node3&#45;&gt;Node16 -->
<g id="edge16" class="edge"><title>Node3&#45;&gt;Node16</title>
<path fill="none" stroke="midnightblue" d="M532.181,-361.204C529.077,-360.791 526.004,-360.388 523,-360 392.642,-343.153 356.131,-348.852 223.909,-324.23"/>
<polygon fill="midnightblue" stroke="midnightblue" points="224.275,-320.738 213.8,-322.324 222.978,-327.616 224.275,-320.738"/>
</g>
<!-- Node18 -->
<g id="node18" class="node"><title>Node18</title>
<polygon fill="white" stroke="#bfbfbf" points="-0.226562,-233 -0.226562,-253 40.2266,-253 40.2266,-233 -0.226562,-233"/>
<text text-anchor="middle" x="20" y="-239" font-family="Helvetica,sans-Serif" font-size="10.00">string</text>
</g>
<!-- Node3&#45;&gt;Node18 -->
<g id="edge25" class="edge"><title>Node3&#45;&gt;Node18</title>
<path fill="none" stroke="midnightblue" d="M532.196,-361.076C529.089,-360.698 526.01,-360.337 523,-360 429.024,-349.492 184.627,-364.123 99,-324 69.6839,-310.263 45.194,-280.745 31.5822,-261.662"/>
<polygon fill="midnightblue" stroke="midnightblue" points="34.348,-259.506 25.8005,-253.246 28.5785,-263.47 34.348,-259.506"/>
</g>
<!-- Node23 -->
<g id="node23" class="node"><title>Node23</title>
<polygon fill="white" stroke="#bfbfbf" points="231.438,-297 231.438,-317 278.562,-317 278.562,-297 231.438,-297"/>
<text text-anchor="middle" x="255" y="-303" font-family="Helvetica,sans-Serif" font-size="10.00">iterator</text>
</g>
<!-- Node3&#45;&gt;Node23 -->
<g id="edge26" class="edge"><title>Node3&#45;&gt;Node23</title>
<path fill="none" stroke="midnightblue" d="M532.236,-361.089C445.838,-348.752 299.552,-327.575 288,-324 285.552,-323.242 283.058,-322.328 280.593,-321.324"/>
<polygon fill="midnightblue" stroke="midnightblue" points="281.941,-318.092 271.388,-317.154 279.053,-324.468 281.941,-318.092"/>
</g>
<!-- Node24 -->
<g id="node24" class="node"><title>Node24</title>
<polygon fill="white" stroke="#bfbfbf" points="296.936,-297 296.936,-317 339.064,-317 339.064,-297 296.936,-297"/>
<text text-anchor="middle" x="318" y="-303" font-family="Helvetica,sans-Serif" font-size="10.00">locale</text>
</g>
<!-- Node3&#45;&gt;Node24 -->
<g id="edge27" class="edge"><title>Node3&#45;&gt;Node24</title>
<path fill="none" stroke="midnightblue" d="M539.113,-360.98C478.812,-350.964 386.873,-334.787 353,-324 350.404,-323.173 347.747,-322.204 345.114,-321.158"/>
<polygon fill="midnightblue" stroke="midnightblue" points="346.405,-317.904 335.837,-317.156 343.632,-324.331 346.405,-317.904"/>
</g>
<!-- Node3&#45;&gt;Node13 -->
<g id="edge28" class="edge"><title>Node3&#45;&gt;Node13</title>
<path fill="none" stroke="midnightblue" d="M657.775,-364.88C746.735,-357.063 900.867,-341.234 920,-324 936.914,-308.766 940.532,-281.595 940.847,-263.191"/>
<polygon fill="midnightblue" stroke="midnightblue" points="944.344,-263.001 940.704,-253.051 937.345,-263.099 944.344,-263.001"/>
</g>
<!-- Node25 -->
<g id="node25" class="node"><title>Node25</title>
<polygon fill="white" stroke="#bfbfbf" points="394.766,-297 394.766,-317 495.234,-317 495.234,-297 394.766,-297"/>
<text text-anchor="middle" x="445" y="-303" font-family="Helvetica,sans-Serif" font-size="10.00">REGEX_INCLUDE</text>
</g>
<!-- Node3&#45;&gt;Node25 -->
<g id="edge29" class="edge"><title>Node3&#45;&gt;Node25</title>
<path fill="none" stroke="midnightblue" d="M573.189,-360.985C547.638,-350.424 505.119,-332.849 476.113,-320.86"/>
<polygon fill="midnightblue" stroke="midnightblue" points="477.416,-317.612 466.838,-317.026 474.742,-324.081 477.416,-317.612"/>
</g>
<!-- Node3&#45;&gt;Node26 -->
<g id="edge30" class="edge"><title>Node3&#45;&gt;Node26</title>
<path fill="none" stroke="midnightblue" d="M657.562,-364.532C745.257,-356.432 900.05,-340.426 954,-324 956.444,-323.256 958.928,-322.338 961.377,-321.321"/>
<polygon fill="midnightblue" stroke="midnightblue" points="962.904,-324.471 970.485,-317.07 959.943,-318.128 962.904,-324.471"/>
</g>
<!-- Node27 -->
<g id="node27" class="node"><title>Node27</title>
<polygon fill="white" stroke="#bfbfbf" points="513.599,-297 513.599,-317 572.401,-317 572.401,-297 513.599,-297"/>
<text text-anchor="middle" x="543" y="-303" font-family="Helvetica,sans-Serif" font-size="10.00">stdexcept</text>
</g>
<!-- Node3&#45;&gt;Node27 -->
<g id="edge31" class="edge"><title>Node3&#45;&gt;Node27</title>
<path fill="none" stroke="midnightblue" d="M587.327,-360.852C579.416,-351.419 566.899,-336.495 557.18,-324.907"/>
<polygon fill="midnightblue" stroke="midnightblue" points="559.812,-322.599 550.704,-317.186 554.449,-327.097 559.812,-322.599"/>
</g>
<!-- Node19 -->
<g id="node19" class="node"><title>Node19</title>
<polygon fill="white" stroke="#bfbfbf" points="372.613,-233 372.613,-253 411.387,-253 411.387,-233 372.613,-233"/>
<text text-anchor="middle" x="392" y="-239" font-family="Helvetica,sans-Serif" font-size="10.00">limits</text>
</g>
<!-- Node3&#45;&gt;Node19 -->
<g id="edge32" class="edge"><title>Node3&#45;&gt;Node19</title>
<path fill="none" stroke="midnightblue" d="M536.586,-360.959C478.127,-351.317 395.515,-335.836 386,-324 372.27,-306.92 377.684,-280.614 383.896,-262.876"/>
<polygon fill="midnightblue" stroke="midnightblue" points="387.337,-263.686 387.703,-253.098 380.814,-261.146 387.337,-263.686"/>
</g>
<!-- Node28 -->
<g id="node28" class="node"><title>Node28</title>
<polygon fill="white" stroke="#bfbfbf" points="721.761,-297 721.761,-317 782.239,-317 782.239,-297 721.761,-297"/>
<text text-anchor="middle" x="752" y="-303" font-family="Helvetica,sans-Serif" font-size="10.00">utf8/utf8.h</text>
</g>
<!-- Node3&#45;&gt;Node28 -->
<g id="edge33" class="edge"><title>Node3&#45;&gt;Node28</title>
<path fill="none" stroke="midnightblue" d="M618.325,-360.876C641.95,-351.624 679.538,-336.874 712,-324 714.52,-323 717.129,-321.963 719.75,-320.919"/>
<polygon fill="midnightblue" stroke="midnightblue" points="721.174,-324.119 729.164,-317.161 718.579,-317.618 721.174,-324.119"/>
</g>
<!-- Node5 -->
<g id="node5" class="node"><title>Node5</title>
<g id="a_node5"><a xlink:href="base_8h.xhtml" target="_top" xlink:title="ePub3/base.h">
<polygon fill="white" stroke="black" points="706.141,-175 706.141,-195 783.859,-195 783.859,-175 706.141,-175"/>
<text text-anchor="middle" x="745" y="-181" font-family="Helvetica,sans-Serif" font-size="10.00">ePub3/base.h</text>
</a>
</g>
</g>
<!-- Node4&#45;&gt;Node5 -->
<g id="edge4" class="edge"><title>Node4&#45;&gt;Node5</title>
<path fill="none" stroke="midnightblue" d="M668.25,-296.922C685.914,-288.328 710.434,-273.793 725,-254 735.578,-239.626 740.59,-219.714 742.947,-205.152"/>
<polygon fill="midnightblue" stroke="midnightblue" points="746.416,-205.617 744.28,-195.239 739.478,-204.683 746.416,-205.617"/>
</g>
<!-- Node10 -->
<g id="node10" class="node"><title>Node10</title>
<polygon fill="white" stroke="#bfbfbf" points="485.815,-233 485.815,-253 600.185,-253 600.185,-233 485.815,-233"/>
<text text-anchor="middle" x="543" y="-239" font-family="Helvetica,sans-Serif" font-size="10.00">ePub3/xml/xmlstring.h</text>
</g>
<!-- Node4&#45;&gt;Node10 -->
<g id="edge9" class="edge"><title>Node4&#45;&gt;Node10</title>
<path fill="none" stroke="midnightblue" d="M631.654,-296.852C614.68,-286.732 587.103,-270.292 567.209,-258.432"/>
<polygon fill="midnightblue" stroke="midnightblue" points="568.79,-255.3 558.409,-253.186 565.206,-261.313 568.79,-255.3"/>
</g>
<!-- Node11 -->
<g id="node11" class="node"><title>Node11</title>
<polygon fill="white" stroke="#bfbfbf" points="618.219,-233 618.219,-253 669.781,-253 669.781,-233 618.219,-233"/>
<text text-anchor="middle" x="644" y="-239" font-family="Helvetica,sans-Serif" font-size="10.00">sstream</text>
</g>
<!-- Node4&#45;&gt;Node11 -->
<g id="edge10" class="edge"><title>Node4&#45;&gt;Node11</title>
<path fill="none" stroke="midnightblue" d="M646.557,-296.852C646.132,-288.06 645.476,-274.498 644.935,-263.313"/>
<polygon fill="midnightblue" stroke="midnightblue" points="648.424,-263.005 644.444,-253.186 641.432,-263.343 648.424,-263.005"/>
</g>
<!-- Node12 -->
<g id="node12" class="node"><title>Node12</title>
<polygon fill="white" stroke="#bfbfbf" points="359.943,-175 359.943,-195 412.057,-195 412.057,-175 359.943,-175"/>
<text text-anchor="middle" x="386" y="-181" font-family="Helvetica,sans-Serif" font-size="10.00">memory</text>
</g>
<!-- Node4&#45;&gt;Node12 -->
<g id="edge11" class="edge"><title>Node4&#45;&gt;Node12</title>
<path fill="none" stroke="midnightblue" d="M612.486,-296.954C570.076,-285.577 500.811,-266.074 477,-254 449.186,-239.896 421.013,-217.272 403.537,-202.034"/>
<polygon fill="midnightblue" stroke="midnightblue" points="405.665,-199.243 395.865,-195.216 401.015,-204.475 405.665,-199.243"/>
</g>
<!-- Node4&#45;&gt;Node13 -->
<g id="edge12" class="edge"><title>Node4&#45;&gt;Node13</title>
<path fill="none" stroke="midnightblue" d="M683.253,-296.95C692.903,-294.612 703.333,-292.151 713,-290 782.441,-274.553 864.314,-258.487 908.274,-250.035"/>
<polygon fill="midnightblue" stroke="midnightblue" points="909.184,-253.425 918.346,-248.105 907.866,-246.55 909.184,-253.425"/>
</g>
<!-- Node14 -->
<g id="node14" class="node"><title>Node14</title>
<polygon fill="white" stroke="#bfbfbf" points="687.5,-233 687.5,-253 716.5,-253 716.5,-233 687.5,-233"/>
<text text-anchor="middle" x="701.611" y="-239" font-family="Helvetica,sans-Serif" font-size="10.00">list</text>
</g>
<!-- Node4&#45;&gt;Node14 -->
<g id="edge13" class="edge"><title>Node4&#45;&gt;Node14</title>
<path fill="none" stroke="midnightblue" d="M655.115,-296.852C663.483,-287.419 676.723,-272.495 687.002,-260.907"/>
<polygon fill="midnightblue" stroke="midnightblue" points="689.833,-262.989 693.851,-253.186 684.597,-258.344 689.833,-262.989"/>
</g>
<!-- Node6 -->
<g id="node6" class="node"><title>Node6</title>
<g id="a_node6"><a xlink:href="__config_8h.xhtml" target="_top" xlink:title="_config.h">
<polygon fill="white" stroke="black" points="681.707,-117 681.707,-137 738.293,-137 738.293,-117 681.707,-117"/>
<text text-anchor="middle" x="710" y="-123" font-family="Helvetica,sans-Serif" font-size="10.00">_config.h</text>
</a>
</g>
</g>
<!-- Node5&#45;&gt;Node6 -->
<g id="edge5" class="edge"><title>Node5&#45;&gt;Node6</title>
<path fill="none" stroke="midnightblue" d="M739.22,-174.753C734.277,-166.843 727.023,-155.237 720.98,-145.568"/>
<polygon fill="midnightblue" stroke="midnightblue" points="723.94,-143.7 715.672,-137.075 718.004,-147.41 723.94,-143.7"/>
</g>
<!-- Node9 -->
<g id="node9" class="node"><title>Node9</title>
<polygon fill="white" stroke="#bfbfbf" points="756.158,-117 756.158,-137 803.842,-137 803.842,-117 756.158,-117"/>
<text text-anchor="middle" x="780" y="-123" font-family="Helvetica,sans-Serif" font-size="10.00">stdlib.h</text>
</g>
<!-- Node5&#45;&gt;Node9 -->
<g id="edge8" class="edge"><title>Node5&#45;&gt;Node9</title>
<path fill="none" stroke="midnightblue" d="M750.78,-174.753C755.723,-166.843 762.977,-155.237 769.02,-145.568"/>
<polygon fill="midnightblue" stroke="midnightblue" points="771.996,-147.41 774.328,-137.075 766.06,-143.7 771.996,-147.41"/>
</g>
<!-- Node7 -->
<g id="node7" class="node"><title>Node7</title>
<g id="a_node7"><a xlink:href="__platform_8h.xhtml" target="_top" xlink:title="_platform.h">
<polygon fill="white" stroke="black" points="676.988,-59 676.988,-79 743.012,-79 743.012,-59 676.988,-59"/>
<text text-anchor="middle" x="710" y="-65" font-family="Helvetica,sans-Serif" font-size="10.00">_platform.h</text>
</a>
</g>
</g>
<!-- Node6&#45;&gt;Node7 -->
<g id="edge6" class="edge"><title>Node6&#45;&gt;Node7</title>
<path fill="none" stroke="midnightblue" d="M710,-116.753C710,-109.25 710,-98.4238 710,-89.0781"/>
<polygon fill="midnightblue" stroke="midnightblue" points="713.5,-89.0752 710,-79.0752 706.5,-89.0752 713.5,-89.0752"/>
</g>
<!-- Node8 -->
<g id="node8" class="node"><title>Node8</title>
<g id="a_node8"><a xlink:href="__compiler_8h.xhtml" target="_top" xlink:title="_compiler.h">
<polygon fill="white" stroke="black" points="676.429,-1 676.429,-21 743.571,-21 743.571,-1 676.429,-1"/>
<text text-anchor="middle" x="710" y="-7" font-family="Helvetica,sans-Serif" font-size="10.00">_compiler.h</text>
</a>
</g>
</g>
<!-- Node7&#45;&gt;Node8 -->
<g id="edge7" class="edge"><title>Node7&#45;&gt;Node8</title>
<path fill="none" stroke="midnightblue" d="M710,-58.7527C710,-51.2504 710,-40.4238 710,-31.0781"/>
<polygon fill="midnightblue" stroke="midnightblue" points="713.5,-31.0752 710,-21.0752 706.5,-31.0752 713.5,-31.0752"/>
</g>
<!-- Node15&#45;&gt;Node5 -->
<g id="edge15" class="edge"><title>Node15&#45;&gt;Node5</title>
<path fill="none" stroke="midnightblue" d="M841.942,-290.802C821.068,-268.236 782.024,-226.026 760.401,-202.649"/>
<polygon fill="midnightblue" stroke="midnightblue" points="762.897,-200.194 753.537,-195.229 757.758,-204.947 762.897,-200.194"/>
</g>
<!-- Node17 -->
<g id="node17" class="node"><title>Node17</title>
<polygon fill="white" stroke="#bfbfbf" points="57.9336,-233 57.9336,-253 120.066,-253 120.066,-233 57.9336,-233"/>
<text text-anchor="middle" x="89" y="-239" font-family="Helvetica,sans-Serif" font-size="10.00">type_traits</text>
</g>
<!-- Node16&#45;&gt;Node17 -->
<g id="edge17" class="edge"><title>Node16&#45;&gt;Node17</title>
<path fill="none" stroke="midnightblue" d="M143.571,-290.992C132.693,-281.624 118.7,-269.575 107.607,-260.022"/>
<polygon fill="midnightblue" stroke="midnightblue" points="109.65,-257.163 99.7889,-253.29 105.083,-262.468 109.65,-257.163"/>
</g>
<!-- Node16&#45;&gt;Node18 -->
<g id="edge18" class="edge"><title>Node16&#45;&gt;Node18</title>
<path fill="none" stroke="midnightblue" d="M126.868,-290.992C103.297,-280.627 72.2574,-266.978 49.7069,-257.063"/>
<polygon fill="midnightblue" stroke="midnightblue" points="50.868,-253.75 40.3051,-252.928 48.0503,-260.158 50.868,-253.75"/>
</g>
<!-- Node16&#45;&gt;Node19 -->
<g id="edge19" class="edge"><title>Node16&#45;&gt;Node19</title>
<path fill="none" stroke="midnightblue" d="M213.896,-292.103C216.636,-291.39 219.35,-290.686 222,-290 281.679,-274.555 299.401,-272.707 362.73,-253.899"/>
<polygon fill="midnightblue" stroke="midnightblue" points="363.84,-257.22 372.415,-250.997 361.831,-250.514 363.84,-257.22"/>
</g>
<!-- Node20 -->
<g id="node20" class="node"><title>Node20</title>
<polygon fill="white" stroke="#bfbfbf" points="137.828,-233 137.828,-253 192.172,-253 192.172,-233 137.828,-233"/>
<text text-anchor="middle" x="165" y="-239" font-family="Helvetica,sans-Serif" font-size="10.00">iostream</text>
</g>
<!-- Node16&#45;&gt;Node20 -->
<g id="edge20" class="edge"><title>Node16&#45;&gt;Node20</title>
<path fill="none" stroke="midnightblue" d="M161.968,-290.992C162.502,-282.726 163.169,-272.373 163.743,-263.489"/>
<polygon fill="midnightblue" stroke="midnightblue" points="167.249,-263.495 164.401,-253.29 160.264,-263.044 167.249,-263.495"/>
</g>
<!-- Node21 -->
<g id="node21" class="node"><title>Node21</title>
<polygon fill="white" stroke="#bfbfbf" points="210.436,-233 210.436,-253 267.564,-253 267.564,-233 210.436,-233"/>
<text text-anchor="middle" x="239" y="-239" font-family="Helvetica,sans-Serif" font-size="10.00">algorithm</text>
</g>
<!-- Node16&#45;&gt;Node21 -->
<g id="edge21" class="edge"><title>Node16&#45;&gt;Node21</title>
<path fill="none" stroke="midnightblue" d="M179.882,-290.992C191.782,-281.533 207.123,-269.338 219.195,-259.742"/>
<polygon fill="midnightblue" stroke="midnightblue" points="221.662,-262.253 227.312,-253.29 217.306,-256.773 221.662,-262.253"/>
</g>
<!-- Node22 -->
<g id="node22" class="node"><title>Node22</title>
<g id="a_node22"><a xlink:href="____strhash_8h.xhtml" target="_top" xlink:title="__strhash.h">
<polygon fill="white" stroke="black" points="285.872,-233 285.872,-253 354.128,-253 354.128,-233 285.872,-233"/>
<text text-anchor="middle" x="320" y="-239" font-family="Helvetica,sans-Serif" font-size="10.00">__strhash.h</text>
</a>
</g>
</g>
<!-- Node16&#45;&gt;Node22 -->
<g id="edge22" class="edge"><title>Node16&#45;&gt;Node22</title>
<path fill="none" stroke="midnightblue" d="M199.489,-290.992C226.265,-280.551 261.586,-266.778 287.06,-256.845"/>
<polygon fill="midnightblue" stroke="midnightblue" points="288.595,-260.003 296.64,-253.109 286.052,-253.481 288.595,-260.003"/>
</g>
<!-- Node22&#45;&gt;Node5 -->
<g id="edge23" class="edge"><title>Node22&#45;&gt;Node5</title>
<path fill="none" stroke="midnightblue" d="M354.519,-233.8C357.716,-233.148 360.913,-232.536 364,-232 482.41,-211.453 623.11,-197.023 695.902,-190.292"/>
<polygon fill="midnightblue" stroke="midnightblue" points="696.499,-193.752 706.138,-189.354 695.86,-186.781 696.499,-193.752"/>
</g>
<!-- Node22&#45;&gt;Node12 -->
<g id="edge24" class="edge"><title>Node22&#45;&gt;Node12</title>
<path fill="none" stroke="midnightblue" d="M330.899,-232.753C340.798,-224.353 355.608,-211.787 367.381,-201.798"/>
<polygon fill="midnightblue" stroke="midnightblue" points="369.944,-204.214 375.304,-195.075 365.415,-198.876 369.944,-204.214"/>
</g>
</g>
</svg>
