<?xml version="1.0" encoding="UTF-8" standalone="no"?>
<!DOCTYPE svg PUBLIC "-//W3C//DTD SVG 1.1//EN"
 "http://www.w3.org/Graphics/SVG/1.1/DTD/svg11.dtd">
<!-- Generated by graphviz version 2.30.0 (20130114.0426)
 -->
<!-- Title: /Users/rkwright/Documents/github/readium&#45;sdk&#45;D/ePub3/ePub/xpath_wrangler.h Pages: 1 -->
<svg width="974pt" height="148pt"
 viewBox="0.00 0.00 974.00 148.00" xmlns="http://www.w3.org/2000/svg" xmlns:xlink="http://www.w3.org/1999/xlink">
<g id="graph0" class="graph" transform="scale(1 1) rotate(0) translate(4 144)">
<title>/Users/rkwright/Documents/github/readium&#45;sdk&#45;D/ePub3/ePub/xpath_wrangler.h</title>
<polygon fill="white" stroke="white" points="-4,5 -4,-144 971,-144 971,5 -4,5"/>
<!-- Node1 -->
<g id="node1" class="node"><title>Node1</title>
<polygon fill="#bfbfbf" stroke="black" points="409.966,-95 409.966,-139 556.034,-139 556.034,-95 409.966,-95"/>
<text text-anchor="start" x="417.966" y="-125" font-family="Helvetica,sans-Serif" font-size="10.00">/Users/rkwright/Documents</text>
<text text-anchor="start" x="417.966" y="-113" font-family="Helvetica,sans-Serif" font-size="10.00">/github/readium&#45;sdk&#45;D/ePub3</text>
<text text-anchor="middle" x="483" y="-101" font-family="Helvetica,sans-Serif" font-size="10.00">/ePub/xpath_wrangler.h</text>
</g>
<!-- Node2 -->
<g id="node2" class="node"><title>Node2</title>
<g id="a_node2"><a xlink:href="container_8cpp.xhtml" target="_top" xlink:title="/Users/rkwright/Documents\l/github/readium&#45;sdk&#45;D/ePub3\l/ePub/container.cpp">
<polygon fill="white" stroke="black" points="-0.0341797,-7 -0.0341797,-51 146.034,-51 146.034,-7 -0.0341797,-7"/>
<text text-anchor="start" x="7.96582" y="-37" font-family="Helvetica,sans-Serif" font-size="10.00">/Users/rkwright/Documents</text>
<text text-anchor="start" x="7.96582" y="-25" font-family="Helvetica,sans-Serif" font-size="10.00">/github/readium&#45;sdk&#45;D/ePub3</text>
<text text-anchor="middle" x="73" y="-13" font-family="Helvetica,sans-Serif" font-size="10.00">/ePub/container.cpp</text>
</a>
</g>
</g>
<!-- Node1&#45;&gt;Node2 -->
<g id="edge1" class="edge"><title>Node1&#45;&gt;Node2</title>
<path fill="none" stroke="midnightblue" d="M399.635,-104.883C332.885,-95.1149 237.164,-79.158 155,-58 147.133,-55.9742 138.937,-53.5573 130.9,-51.0042"/>
<polygon fill="midnightblue" stroke="midnightblue" points="399.282,-108.368 409.68,-106.338 400.285,-101.44 399.282,-108.368"/>
</g>
<!-- Node3 -->
<g id="node3" class="node"><title>Node3</title>
<g id="a_node3"><a xlink:href="encryption_8cpp.xhtml" target="_top" xlink:title="/Users/rkwright/Documents\l/github/readium&#45;sdk&#45;D/ePub3\l/ePub/encryption.cpp">
<polygon fill="white" stroke="black" points="163.966,-7 163.966,-51 310.034,-51 310.034,-7 163.966,-7"/>
<text text-anchor="start" x="171.966" y="-37" font-family="Helvetica,sans-Serif" font-size="10.00">/Users/rkwright/Documents</text>
<text text-anchor="start" x="171.966" y="-25" font-family="Helvetica,sans-Serif" font-size="10.00">/github/readium&#45;sdk&#45;D/ePub3</text>
<text text-anchor="middle" x="237" y="-13" font-family="Helvetica,sans-Serif" font-size="10.00">/ePub/encryption.cpp</text>
</a>
</g>
</g>
<!-- Node1&#45;&gt;Node3 -->
<g id="edge2" class="edge"><title>Node1&#45;&gt;Node3</title>
<path fill="none" stroke="midnightblue" d="M413.23,-91.609C376.715,-78.8434 332.444,-63.3667 297.41,-51.1188"/>
<polygon fill="midnightblue" stroke="midnightblue" points="412.227,-94.9658 422.822,-94.962 414.537,-88.358 412.227,-94.9658"/>
</g>
<!-- Node4 -->
<g id="node4" class="node"><title>Node4</title>
<g id="a_node4"><a xlink:href="media-overlays__smil__model_8cpp.xhtml" target="_top" xlink:title="/Users/rkwright/Documents\l/github/readium&#45;sdk&#45;D/ePub3\l/ePub/media&#45;overlays_smil\l_model.cpp">
<polygon fill="white" stroke="black" points="327.966,-1 327.966,-57 474.034,-57 474.034,-1 327.966,-1"/>
<text text-anchor="start" x="335.966" y="-43" font-family="Helvetica,sans-Serif" font-size="10.00">/Users/rkwright/Documents</text>
<text text-anchor="start" x="335.966" y="-31" font-family="Helvetica,sans-Serif" font-size="10.00">/github/readium&#45;sdk&#45;D/ePub3</text>
<text text-anchor="start" x="335.966" y="-19" font-family="Helvetica,sans-Serif" font-size="10.00">/ePub/media&#45;overlays_smil</text>
<text text-anchor="middle" x="401" y="-7" font-family="Helvetica,sans-Serif" font-size="10.00">_model.cpp</text>
</a>
</g>
</g>
<!-- Node1&#45;&gt;Node4 -->
<g id="edge3" class="edge"><title>Node1&#45;&gt;Node4</title>
<path fill="none" stroke="midnightblue" d="M455.581,-87.2435C446.336,-77.548 436.053,-66.7634 426.928,-57.1925"/>
<polygon fill="midnightblue" stroke="midnightblue" points="453.296,-89.9194 462.73,-94.7416 458.363,-85.0889 453.296,-89.9194"/>
</g>
<!-- Node5 -->
<g id="node5" class="node"><title>Node5</title>
<g id="a_node5"><a xlink:href="nav__table_8cpp.xhtml" target="_top" xlink:title="/Users/rkwright/Documents\l/github/readium&#45;sdk&#45;D/ePub3\l/ePub/nav_table.cpp">
<polygon fill="white" stroke="black" points="491.966,-7 491.966,-51 638.034,-51 638.034,-7 491.966,-7"/>
<text text-anchor="start" x="499.966" y="-37" font-family="Helvetica,sans-Serif" font-size="10.00">/Users/rkwright/Documents</text>
<text text-anchor="start" x="499.966" y="-25" font-family="Helvetica,sans-Serif" font-size="10.00">/github/readium&#45;sdk&#45;D/ePub3</text>
<text text-anchor="middle" x="565" y="-13" font-family="Helvetica,sans-Serif" font-size="10.00">/ePub/nav_table.cpp</text>
</a>
</g>
</g>
<!-- Node1&#45;&gt;Node5 -->
<g id="edge4" class="edge"><title>Node1&#45;&gt;Node5</title>
<path fill="none" stroke="midnightblue" d="M510.429,-87.2334C521.726,-75.3846 534.573,-61.9107 544.963,-51.0139"/>
<polygon fill="midnightblue" stroke="midnightblue" points="507.637,-85.0889 503.27,-94.7416 512.704,-89.9194 507.637,-85.0889"/>
</g>
<!-- Node6 -->
<g id="node6" class="node"><title>Node6</title>
<g id="a_node6"><a xlink:href="package_8cpp.xhtml" target="_top" xlink:title="/Users/rkwright/Documents\l/github/readium&#45;sdk&#45;D/ePub3\l/ePub/package.cpp">
<polygon fill="white" stroke="black" points="655.966,-7 655.966,-51 802.034,-51 802.034,-7 655.966,-7"/>
<text text-anchor="start" x="663.966" y="-37" font-family="Helvetica,sans-Serif" font-size="10.00">/Users/rkwright/Documents</text>
<text text-anchor="start" x="663.966" y="-25" font-family="Helvetica,sans-Serif" font-size="10.00">/github/readium&#45;sdk&#45;D/ePub3</text>
<text text-anchor="middle" x="729" y="-13" font-family="Helvetica,sans-Serif" font-size="10.00">/ePub/package.cpp</text>
</a>
</g>
</g>
<!-- Node1&#45;&gt;Node6 -->
<g id="edge5" class="edge"><title>Node1&#45;&gt;Node6</title>
<path fill="none" stroke="midnightblue" d="M552.77,-91.609C589.285,-78.8434 633.556,-63.3667 668.59,-51.1188"/>
<polygon fill="midnightblue" stroke="midnightblue" points="551.463,-88.358 543.178,-94.962 553.773,-94.9658 551.463,-88.358"/>
</g>
<!-- Node7 -->
<g id="node7" class="node"><title>Node7</title>
<g id="a_node7"><a xlink:href="xpath__wrangler_8cpp.xhtml" target="_top" xlink:title="/Users/rkwright/Documents\l/github/readium&#45;sdk&#45;D/ePub3\l/ePub/xpath_wrangler.cpp">
<polygon fill="white" stroke="black" points="819.966,-7 819.966,-51 966.034,-51 966.034,-7 819.966,-7"/>
<text text-anchor="start" x="827.966" y="-37" font-family="Helvetica,sans-Serif" font-size="10.00">/Users/rkwright/Documents</text>
<text text-anchor="start" x="827.966" y="-25" font-family="Helvetica,sans-Serif" font-size="10.00">/github/readium&#45;sdk&#45;D/ePub3</text>
<text text-anchor="middle" x="893" y="-13" font-family="Helvetica,sans-Serif" font-size="10.00">/ePub/xpath_wrangler.cpp</text>
</a>
</g>
</g>
<!-- Node1&#45;&gt;Node7 -->
<g id="edge6" class="edge"><title>Node1&#45;&gt;Node7</title>
<path fill="none" stroke="midnightblue" d="M566.365,-104.883C633.115,-95.1149 728.836,-79.158 811,-58 818.867,-55.9742 827.063,-53.5573 835.1,-51.0042"/>
<polygon fill="midnightblue" stroke="midnightblue" points="565.715,-101.44 556.32,-106.338 566.718,-108.368 565.715,-101.44"/>
</g>
</g>
</svg>
