<?xml version="1.0" encoding="UTF-8" standalone="no"?>
<!DOCTYPE svg PUBLIC "-//W3C//DTD SVG 1.1//EN"
 "http://www.w3.org/Graphics/SVG/1.1/DTD/svg11.dtd">
<!-- Generated by graphviz version 2.30.0 (20130114.0426)
 -->
<!-- Title: /Users/rkwright/Documents/github/readium&#45;sdk&#45;D/ePub3/ePub/zip_archive.cpp Pages: 1 -->
<svg width="1548pt" height="542pt"
 viewBox="0.00 0.00 1548.25 542.00" xmlns="http://www.w3.org/2000/svg" xmlns:xlink="http://www.w3.org/1999/xlink">
<g id="graph0" class="graph" transform="scale(1 1) rotate(0) translate(4 538)">
<title>/Users/rkwright/Documents/github/readium&#45;sdk&#45;D/ePub3/ePub/zip_archive.cpp</title>
<polygon fill="white" stroke="white" points="-4,5 -4,-538 1545.25,-538 1545.25,5 -4,5"/>
<!-- Node1 -->
<g id="node1" class="node"><title>Node1</title>
<polygon fill="#bfbfbf" stroke="black" points="1107.21,-489 1107.21,-533 1253.28,-533 1253.28,-489 1107.21,-489"/>
<text text-anchor="start" x="1115.21" y="-519" font-family="Helvetica,sans-Serif" font-size="10.00">/Users/rkwright/Documents</text>
<text text-anchor="start" x="1115.21" y="-507" font-family="Helvetica,sans-Serif" font-size="10.00">/github/readium&#45;sdk&#45;D/ePub3</text>
<text text-anchor="middle" x="1180.25" y="-495" font-family="Helvetica,sans-Serif" font-size="10.00">/ePub/zip_archive.cpp</text>
</g>
<!-- Node2 -->
<g id="node2" class="node"><title>Node2</title>
<g id="a_node2"><a xlink:href="zip__archive_8h.xhtml" target="_top" xlink:title="zip_archive.h">
<polygon fill="white" stroke="black" points="347.787,-431 347.787,-451 422.707,-451 422.707,-431 347.787,-431"/>
<text text-anchor="middle" x="385.247" y="-437" font-family="Helvetica,sans-Serif" font-size="10.00">zip_archive.h</text>
</a>
</g>
</g>
<!-- Node1&#45;&gt;Node2 -->
<g id="edge1" class="edge"><title>Node1&#45;&gt;Node2</title>
<path fill="none" stroke="midnightblue" d="M1106.98,-505.832C975.545,-497.984 691.115,-479.309 452.247,-452 445.959,-451.281 439.354,-450.423 432.844,-449.515"/>
<polygon fill="midnightblue" stroke="midnightblue" points="433.146,-446.022 422.749,-448.061 432.148,-452.951 433.146,-446.022"/>
</g>
<!-- Node6 -->
<g id="node6" class="node"><title>Node6</title>
<polygon fill="white" stroke="#bfbfbf" points="1339.62,-431 1339.62,-451 1412.87,-451 1412.87,-431 1339.62,-431"/>
<text text-anchor="middle" x="1376.25" y="-437" font-family="Helvetica,sans-Serif" font-size="10.00">libzip/zipint.h</text>
</g>
<!-- Node1&#45;&gt;Node6 -->
<g id="edge5" class="edge"><title>Node1&#45;&gt;Node6</title>
<path fill="none" stroke="midnightblue" d="M1240.92,-488.95C1273.56,-477.625 1312.7,-464.046 1340.47,-454.412"/>
<polygon fill="midnightblue" stroke="midnightblue" points="1341.86,-457.637 1350.16,-451.052 1339.56,-451.023 1341.86,-457.637"/>
</g>
<!-- Node7 -->
<g id="node7" class="node"><title>Node7</title>
<g id="a_node7"><a xlink:href="byte__stream_8h.xhtml" target="_top" xlink:title="byte_stream.h">
<polygon fill="white" stroke="black" points="1009.56,-431 1009.56,-451 1088.93,-451 1088.93,-431 1009.56,-431"/>
<text text-anchor="middle" x="1049.25" y="-437" font-family="Helvetica,sans-Serif" font-size="10.00">byte_stream.h</text>
</a>
</g>
</g>
<!-- Node1&#45;&gt;Node7 -->
<g id="edge6" class="edge"><title>Node1&#45;&gt;Node7</title>
<path fill="none" stroke="midnightblue" d="M1139.52,-488.857C1118.67,-478.034 1093.89,-465.172 1075.57,-455.664"/>
<polygon fill="midnightblue" stroke="midnightblue" points="1077.12,-452.527 1066.64,-451.027 1073.9,-458.74 1077.12,-452.527"/>
</g>
<!-- Node44 -->
<g id="node44" class="node"><title>Node44</title>
<g id="a_node44"><a xlink:href="make__unique_8h.xhtml" target="_top" xlink:title="ePub3/utilities/make\l_unique.h">
<polygon fill="white" stroke="black" points="149.501,-233 149.501,-265 254.993,-265 254.993,-233 149.501,-233"/>
<text text-anchor="start" x="157.501" y="-251" font-family="Helvetica,sans-Serif" font-size="10.00">ePub3/utilities/make</text>
<text text-anchor="middle" x="202.247" y="-239" font-family="Helvetica,sans-Serif" font-size="10.00">_unique.h</text>
</a>
</g>
</g>
<!-- Node1&#45;&gt;Node44 -->
<g id="edge65" class="edge"><title>Node1&#45;&gt;Node44</title>
<path fill="none" stroke="midnightblue" d="M1107.06,-497.214C1001.54,-478.163 800.917,-439.63 633.247,-394 493.084,-355.856 331.584,-298.089 251.947,-268.659"/>
<polygon fill="midnightblue" stroke="midnightblue" points="252.779,-265.235 242.186,-265.042 250.347,-271.799 252.779,-265.235"/>
</g>
<!-- Node16 -->
<g id="node16" class="node"><title>Node16</title>
<polygon fill="white" stroke="#bfbfbf" points="1422.47,-175 1422.47,-195 1474.03,-195 1474.03,-175 1422.47,-175"/>
<text text-anchor="middle" x="1448.25" y="-181" font-family="Helvetica,sans-Serif" font-size="10.00">sstream</text>
</g>
<!-- Node1&#45;&gt;Node16 -->
<g id="edge66" class="edge"><title>Node1&#45;&gt;Node16</title>
<path fill="none" stroke="midnightblue" d="M1217.35,-488.96C1247.41,-472.222 1291.05,-448.605 1330.25,-430 1367.68,-412.231 1388.73,-424.978 1416.25,-394 1464.05,-340.185 1457.23,-246.009 1451.55,-205.468"/>
<polygon fill="midnightblue" stroke="midnightblue" points="1454.97,-204.677 1449.99,-195.326 1448.05,-205.742 1454.97,-204.677"/>
</g>
<!-- Node49 -->
<g id="node49" class="node"><title>Node49</title>
<polygon fill="white" stroke="#bfbfbf" points="1430.58,-431 1430.58,-451 1479.92,-451 1479.92,-431 1430.58,-431"/>
<text text-anchor="middle" x="1455.25" y="-437" font-family="Helvetica,sans-Serif" font-size="10.00">fstream</text>
</g>
<!-- Node1&#45;&gt;Node49 -->
<g id="edge67" class="edge"><title>Node1&#45;&gt;Node49</title>
<path fill="none" stroke="midnightblue" d="M1253.52,-493.367C1298.97,-482.815 1358.78,-468.511 1420.49,-452.112"/>
<polygon fill="midnightblue" stroke="midnightblue" points="1421.65,-455.425 1430.4,-449.462 1419.84,-448.662 1421.65,-455.425"/>
</g>
<!-- Node33 -->
<g id="node33" class="node"><title>Node33</title>
<polygon fill="white" stroke="#bfbfbf" points="142.075,-175 142.075,-195 196.419,-195 196.419,-175 142.075,-175"/>
<text text-anchor="middle" x="169.247" y="-181" font-family="Helvetica,sans-Serif" font-size="10.00">iostream</text>
</g>
<!-- Node1&#45;&gt;Node33 -->
<g id="edge68" class="edge"><title>Node1&#45;&gt;Node33</title>
<path fill="none" stroke="midnightblue" d="M1106.99,-501.116C1026.21,-490.928 892.522,-472.91 778.247,-452 661.358,-430.611 631.676,-426.038 517.247,-394 506.597,-391.018 146.689,-274.99 140.247,-266 126.471,-246.775 141.267,-220.309 154.286,-203.177"/>
<polygon fill="midnightblue" stroke="midnightblue" points="157.205,-205.133 160.771,-195.156 151.762,-200.731 157.205,-205.133"/>
</g>
<!-- Node50 -->
<g id="node50" class="node"><title>Node50</title>
<polygon fill="white" stroke="#bfbfbf" points="1497.91,-431 1497.91,-451 1540.59,-451 1540.59,-431 1497.91,-431"/>
<text text-anchor="middle" x="1519.25" y="-437" font-family="Helvetica,sans-Serif" font-size="10.00">fcntl.h</text>
</g>
<!-- Node1&#45;&gt;Node50 -->
<g id="edge69" class="edge"><title>Node1&#45;&gt;Node50</title>
<path fill="none" stroke="midnightblue" d="M1253.31,-498.904C1313.75,-489.117 1401.92,-473.438 1487.76,-451.865"/>
<polygon fill="midnightblue" stroke="midnightblue" points="1488.84,-455.201 1497.67,-449.344 1487.11,-448.417 1488.84,-455.201"/>
</g>
<!-- Node3 -->
<g id="node3" class="node"><title>Node3</title>
<polygon fill="white" stroke="#bfbfbf" points="232.112,-367 232.112,-387 320.382,-387 320.382,-367 232.112,-367"/>
<text text-anchor="middle" x="276.247" y="-373" font-family="Helvetica,sans-Serif" font-size="10.00">ePub3/archive.h</text>
</g>
<!-- Node2&#45;&gt;Node3 -->
<g id="edge2" class="edge"><title>Node2&#45;&gt;Node3</title>
<path fill="none" stroke="midnightblue" d="M369.164,-430.852C351.292,-420.686 322.208,-404.143 301.338,-392.272"/>
<polygon fill="midnightblue" stroke="midnightblue" points="302.819,-389.088 292.396,-387.186 299.358,-395.172 302.819,-389.088"/>
</g>
<!-- Node4 -->
<g id="node4" class="node"><title>Node4</title>
<polygon fill="white" stroke="#bfbfbf" points="337.902,-367 337.902,-387 400.592,-387 400.592,-367 337.902,-367"/>
<text text-anchor="middle" x="369.247" y="-373" font-family="Helvetica,sans-Serif" font-size="10.00">libzip/zip.h</text>
</g>
<!-- Node2&#45;&gt;Node4 -->
<g id="edge3" class="edge"><title>Node2&#45;&gt;Node4</title>
<path fill="none" stroke="midnightblue" d="M382.886,-430.852C380.594,-421.969 377.044,-408.215 374.141,-396.964"/>
<polygon fill="midnightblue" stroke="midnightblue" points="377.505,-395.994 371.618,-387.186 370.727,-397.743 377.505,-395.994"/>
</g>
<!-- Node5 -->
<g id="node5" class="node"><title>Node5</title>
<polygon fill="white" stroke="#bfbfbf" points="1120.75,-175 1120.75,-195 1149.75,-195 1149.75,-175 1120.75,-175"/>
<text text-anchor="middle" x="1134.86" y="-181" font-family="Helvetica,sans-Serif" font-size="10.00">list</text>
</g>
<!-- Node2&#45;&gt;Node5 -->
<g id="edge4" class="edge"><title>Node2&#45;&gt;Node5</title>
<path fill="none" stroke="midnightblue" d="M415.321,-430.972C472.599,-413.357 600.766,-371.907 703.247,-324 720.926,-315.736 722.704,-308.081 741.247,-302 881.018,-256.163 941.07,-336.358 1070.25,-266 1096.08,-251.932 1115.53,-222.954 1126.15,-204.009"/>
<polygon fill="midnightblue" stroke="midnightblue" points="1129.26,-205.618 1130.89,-195.149 1123.09,-202.319 1129.26,-205.618"/>
</g>
<!-- Node8 -->
<g id="node8" class="node"><title>Node8</title>
<polygon fill="white" stroke="#bfbfbf" points="1344.33,-303 1344.33,-323 1428.17,-323 1428.17,-303 1344.33,-303"/>
<text text-anchor="middle" x="1386.25" y="-309" font-family="Helvetica,sans-Serif" font-size="10.00">ePub3/epub3.h</text>
</g>
<!-- Node7&#45;&gt;Node8 -->
<g id="edge7" class="edge"><title>Node7&#45;&gt;Node8</title>
<path fill="none" stroke="midnightblue" d="M1089.15,-437.658C1176.42,-432.128 1378.1,-416.976 1398.25,-394 1413.02,-377.15 1404.72,-350.223 1396.36,-332.329"/>
<polygon fill="midnightblue" stroke="midnightblue" points="1399.38,-330.545 1391.74,-323.21 1393.14,-333.711 1399.38,-330.545"/>
</g>
<!-- Node9 -->
<g id="node9" class="node"><title>Node9</title>
<g id="a_node9"><a xlink:href="ring__buffer_8h.xhtml" target="_top" xlink:title="ePub3/utilities/ring\l_buffer.h">
<polygon fill="white" stroke="black" points="1292.39,-361 1292.39,-393 1390.1,-393 1390.1,-361 1292.39,-361"/>
<text text-anchor="start" x="1300.39" y="-379" font-family="Helvetica,sans-Serif" font-size="10.00">ePub3/utilities/ring</text>
<text text-anchor="middle" x="1341.25" y="-367" font-family="Helvetica,sans-Serif" font-size="10.00">_buffer.h</text>
</a>
</g>
</g>
<!-- Node7&#45;&gt;Node9 -->
<g id="edge8" class="edge"><title>Node7&#45;&gt;Node9</title>
<path fill="none" stroke="midnightblue" d="M1089.19,-433.091C1133.92,-425.145 1208.77,-411.23 1282.36,-394.115"/>
<polygon fill="midnightblue" stroke="midnightblue" points="1283.33,-397.483 1292.27,-391.79 1281.73,-390.668 1283.33,-397.483"/>
</g>
<!-- Node20 -->
<g id="node20" class="node"><title>Node20</title>
<polygon fill="white" stroke="#bfbfbf" points="740.843,-367 740.843,-387 799.651,-387 799.651,-367 740.843,-367"/>
<text text-anchor="middle" x="770.247" y="-373" font-family="Helvetica,sans-Serif" font-size="10.00">functional</text>
</g>
<!-- Node7&#45;&gt;Node20 -->
<g id="edge21" class="edge"><title>Node7&#45;&gt;Node20</title>
<path fill="none" stroke="midnightblue" d="M1009.39,-435.008C961.094,-428.363 877.562,-414.954 808.247,-394 805.26,-393.097 802.188,-392.038 799.148,-390.901"/>
<polygon fill="midnightblue" stroke="midnightblue" points="800.265,-387.578 789.681,-387.106 797.66,-394.076 800.265,-387.578"/>
</g>
<!-- Node21 -->
<g id="node21" class="node"><title>Node21</title>
<polygon fill="white" stroke="#bfbfbf" points="817.747,-367 817.747,-387 846.747,-387 846.747,-367 817.747,-367"/>
<text text-anchor="middle" x="832.139" y="-373" font-family="Helvetica,sans-Serif" font-size="10.00">ios</text>
</g>
<!-- Node7&#45;&gt;Node21 -->
<g id="edge22" class="edge"><title>Node7&#45;&gt;Node21</title>
<path fill="none" stroke="midnightblue" d="M1009.2,-434.979C968.95,-428.918 905.81,-416.599 855.247,-394 854.226,-393.543 853.202,-393.04 852.185,-392.501"/>
<polygon fill="midnightblue" stroke="midnightblue" points="853.776,-389.368 843.441,-387.038 850.067,-395.305 853.776,-389.368"/>
</g>
<!-- Node22 -->
<g id="node22" class="node"><title>Node22</title>
<polygon fill="white" stroke="#bfbfbf" points="978.07,-367 978.07,-387 1022.42,-387 1022.42,-367 978.07,-367"/>
<text text-anchor="middle" x="1000.25" y="-373" font-family="Helvetica,sans-Serif" font-size="10.00">thread</text>
</g>
<!-- Node7&#45;&gt;Node22 -->
<g id="edge23" class="edge"><title>Node7&#45;&gt;Node22</title>
<path fill="none" stroke="midnightblue" d="M1042.02,-430.852C1034.63,-421.511 1023,-406.784 1013.88,-395.246"/>
<polygon fill="midnightblue" stroke="midnightblue" points="1016.45,-392.861 1007.51,-387.186 1010.96,-397.202 1016.45,-392.861"/>
</g>
<!-- Node23 -->
<g id="node23" class="node"><title>Node23</title>
<g id="a_node23"><a xlink:href="run__loop_8h.xhtml" target="_top" xlink:title="ePub3/utilities/run\l_loop.h">
<polygon fill="white" stroke="black" points="864.501,-361 864.501,-393 959.993,-393 959.993,-361 864.501,-361"/>
<text text-anchor="start" x="872.501" y="-379" font-family="Helvetica,sans-Serif" font-size="10.00">ePub3/utilities/run</text>
<text text-anchor="middle" x="912.247" y="-367" font-family="Helvetica,sans-Serif" font-size="10.00">_loop.h</text>
</a>
</g>
</g>
<!-- Node7&#45;&gt;Node23 -->
<g id="edge24" class="edge"><title>Node7&#45;&gt;Node23</title>
<path fill="none" stroke="midnightblue" d="M1029.33,-430.985C1009.85,-422.17 979.572,-408.468 954.688,-397.207"/>
<polygon fill="midnightblue" stroke="midnightblue" points="956.003,-393.96 945.449,-393.026 953.117,-400.337 956.003,-393.96"/>
</g>
<!-- Node7&#45;&gt;Node44 -->
<g id="edge57" class="edge"><title>Node7&#45;&gt;Node44</title>
<path fill="none" stroke="midnightblue" d="M1009.32,-437.349C948.592,-432.617 829.757,-420.601 732.247,-394 653.021,-372.387 635.868,-358.288 561.247,-324 541.741,-315.037 538.655,-308.66 518.247,-302 421.555,-270.446 392.544,-282.902 292.247,-266 283.398,-264.509 274.067,-262.896 264.899,-261.287"/>
<polygon fill="midnightblue" stroke="midnightblue" points="265.5,-257.839 255.044,-259.55 264.285,-264.733 265.5,-257.839"/>
</g>
<!-- Node47 -->
<g id="node47" class="node"><title>Node47</title>
<polygon fill="white" stroke="#bfbfbf" points="1040.49,-367 1040.49,-387 1156,-387 1156,-367 1040.49,-367"/>
<text text-anchor="middle" x="1098.25" y="-373" font-family="Helvetica,sans-Serif" font-size="10.00">google&#45;url/url_canon.h</text>
</g>
<!-- Node7&#45;&gt;Node47 -->
<g id="edge63" class="edge"><title>Node7&#45;&gt;Node47</title>
<path fill="none" stroke="midnightblue" d="M1056.48,-430.852C1063.86,-421.511 1075.5,-406.784 1084.62,-395.246"/>
<polygon fill="midnightblue" stroke="midnightblue" points="1087.53,-397.202 1090.99,-387.186 1082.04,-392.861 1087.53,-397.202"/>
</g>
<!-- Node48 -->
<g id="node48" class="node"><title>Node48</title>
<polygon fill="white" stroke="#bfbfbf" points="1173.72,-367 1173.72,-387 1274.77,-387 1274.77,-367 1173.72,-367"/>
<text text-anchor="middle" x="1224.25" y="-373" font-family="Helvetica,sans-Serif" font-size="10.00">google&#45;url/url_util.h</text>
</g>
<!-- Node7&#45;&gt;Node48 -->
<g id="edge64" class="edge"><title>Node7&#45;&gt;Node48</title>
<path fill="none" stroke="midnightblue" d="M1074.69,-430.985C1104.89,-420.286 1155.41,-402.39 1189.27,-390.394"/>
<polygon fill="midnightblue" stroke="midnightblue" points="1190.51,-393.665 1198.77,-387.026 1188.18,-387.067 1190.51,-393.665"/>
</g>
<!-- Node9&#45;&gt;Node8 -->
<g id="edge9" class="edge"><title>Node9&#45;&gt;Node8</title>
<path fill="none" stroke="midnightblue" d="M1352.14,-360.992C1358.61,-352.084 1366.83,-340.75 1373.59,-331.445"/>
<polygon fill="midnightblue" stroke="midnightblue" points="1376.46,-333.439 1379.5,-323.29 1370.8,-329.328 1376.46,-333.439"/>
</g>
<!-- Node10 -->
<g id="node10" class="node"><title>Node10</title>
<g id="a_node10"><a xlink:href="basic_8h.xhtml" target="_top" xlink:title="ePub3/utilities/basic.h">
<polygon fill="white" stroke="black" points="1205.89,-239 1205.89,-259 1318.61,-259 1318.61,-239 1205.89,-239"/>
<text text-anchor="middle" x="1262.25" y="-245" font-family="Helvetica,sans-Serif" font-size="10.00">ePub3/utilities/basic.h</text>
</a>
</g>
</g>
<!-- Node9&#45;&gt;Node10 -->
<g id="edge10" class="edge"><title>Node9&#45;&gt;Node10</title>
<path fill="none" stroke="midnightblue" d="M1332.25,-360.888C1323.27,-345.87 1309,-322.221 1296.25,-302 1289.01,-290.523 1280.67,-277.77 1274.07,-267.765"/>
<polygon fill="midnightblue" stroke="midnightblue" points="1276.8,-265.549 1268.36,-259.147 1270.96,-269.416 1276.8,-265.549"/>
</g>
<!-- Node19 -->
<g id="node19" class="node"><title>Node19</title>
<polygon fill="white" stroke="#bfbfbf" points="1244.63,-303 1244.63,-323 1287.86,-323 1287.86,-303 1244.63,-303"/>
<text text-anchor="middle" x="1266.25" y="-309" font-family="Helvetica,sans-Serif" font-size="10.00">mutex</text>
</g>
<!-- Node9&#45;&gt;Node19 -->
<g id="edge20" class="edge"><title>Node9&#45;&gt;Node19</title>
<path fill="none" stroke="midnightblue" d="M1323.09,-360.992C1311.65,-351.533 1296.9,-339.338 1285.29,-329.742"/>
<polygon fill="midnightblue" stroke="midnightblue" points="1287.42,-326.964 1277.49,-323.29 1282.96,-332.36 1287.42,-326.964"/>
</g>
<!-- Node11 -->
<g id="node11" class="node"><title>Node11</title>
<g id="a_node11"><a xlink:href="base_8h.xhtml" target="_top" xlink:title="ePub3/base.h">
<polygon fill="white" stroke="black" points="580.388,-117 580.388,-137 658.106,-137 658.106,-117 580.388,-117"/>
<text text-anchor="middle" x="619.247" y="-123" font-family="Helvetica,sans-Serif" font-size="10.00">ePub3/base.h</text>
</a>
</g>
</g>
<!-- Node10&#45;&gt;Node11 -->
<g id="edge11" class="edge"><title>Node10&#45;&gt;Node11</title>
<path fill="none" stroke="midnightblue" d="M1295.5,-238.895C1335.44,-226.434 1393.91,-202.35 1367.25,-174 1343.28,-148.51 831.263,-133.374 668.473,-129.193"/>
<polygon fill="midnightblue" stroke="midnightblue" points="668.35,-125.689 658.265,-128.933 668.172,-132.686 668.35,-125.689"/>
</g>
<!-- Node15 -->
<g id="node15" class="node"><title>Node15</title>
<polygon fill="white" stroke="#bfbfbf" points="1244.06,-175 1244.06,-195 1358.43,-195 1358.43,-175 1244.06,-175"/>
<text text-anchor="middle" x="1301.25" y="-181" font-family="Helvetica,sans-Serif" font-size="10.00">ePub3/xml/xmlstring.h</text>
</g>
<!-- Node10&#45;&gt;Node15 -->
<g id="edge15" class="edge"><title>Node10&#45;&gt;Node15</title>
<path fill="none" stroke="midnightblue" d="M1268,-238.852C1273.76,-229.694 1282.78,-215.359 1289.97,-203.928"/>
<polygon fill="midnightblue" stroke="midnightblue" points="1293.11,-205.514 1295.47,-195.186 1287.18,-201.787 1293.11,-205.514"/>
</g>
<!-- Node10&#45;&gt;Node16 -->
<g id="edge16" class="edge"><title>Node10&#45;&gt;Node16</title>
<path fill="none" stroke="midnightblue" d="M1289.29,-238.985C1321.9,-228.117 1376.78,-209.823 1412.76,-197.831"/>
<polygon fill="midnightblue" stroke="midnightblue" points="1413.99,-201.109 1422.37,-194.626 1411.77,-194.468 1413.99,-201.109"/>
</g>
<!-- Node17 -->
<g id="node17" class="node"><title>Node17</title>
<polygon fill="white" stroke="#bfbfbf" points="474.19,-117 474.19,-137 526.304,-137 526.304,-117 474.19,-117"/>
<text text-anchor="middle" x="500.247" y="-123" font-family="Helvetica,sans-Serif" font-size="10.00">memory</text>
</g>
<!-- Node10&#45;&gt;Node17 -->
<g id="edge17" class="edge"><title>Node10&#45;&gt;Node17</title>
<path fill="none" stroke="midnightblue" d="M1253.26,-238.839C1236.4,-222.357 1198.15,-188.108 1158.25,-174 1035.03,-130.436 701.276,-151.124 571.247,-138 559.984,-136.863 547.764,-135.272 536.688,-133.693"/>
<polygon fill="midnightblue" stroke="midnightblue" points="536.889,-130.185 526.487,-132.198 535.874,-137.111 536.889,-130.185"/>
</g>
<!-- Node18 -->
<g id="node18" class="node"><title>Node18</title>
<polygon fill="white" stroke="#bfbfbf" points="1050.63,-175 1050.63,-195 1093.86,-195 1093.86,-175 1050.63,-175"/>
<text text-anchor="middle" x="1072.25" y="-181" font-family="Helvetica,sans-Serif" font-size="10.00">vector</text>
</g>
<!-- Node10&#45;&gt;Node18 -->
<g id="edge18" class="edge"><title>Node10&#45;&gt;Node18</title>
<path fill="none" stroke="midnightblue" d="M1234.62,-238.985C1199.81,-227.626 1140.14,-208.155 1103.64,-196.244"/>
<polygon fill="midnightblue" stroke="midnightblue" points="1104.59,-192.873 1094,-193.098 1102.42,-199.528 1104.59,-192.873"/>
</g>
<!-- Node10&#45;&gt;Node5 -->
<g id="edge19" class="edge"><title>Node10&#45;&gt;Node5</title>
<path fill="none" stroke="midnightblue" d="M1243.78,-238.985C1221.31,-228.014 1183.34,-209.476 1158.79,-197.492"/>
<polygon fill="midnightblue" stroke="midnightblue" points="1160.31,-194.34 1149.79,-193.098 1157.24,-200.631 1160.31,-194.34"/>
</g>
<!-- Node12 -->
<g id="node12" class="node"><title>Node12</title>
<g id="a_node12"><a xlink:href="__config_8h.xhtml" target="_top" xlink:title="_config.h">
<polygon fill="white" stroke="black" points="555.954,-59 555.954,-79 612.54,-79 612.54,-59 555.954,-59"/>
<text text-anchor="middle" x="584.247" y="-65" font-family="Helvetica,sans-Serif" font-size="10.00">_config.h</text>
</a>
</g>
</g>
<!-- Node11&#45;&gt;Node12 -->
<g id="edge12" class="edge"><title>Node11&#45;&gt;Node12</title>
<path fill="none" stroke="midnightblue" d="M613.468,-116.753C608.524,-108.843 601.27,-97.2372 595.227,-87.5683"/>
<polygon fill="midnightblue" stroke="midnightblue" points="598.187,-85.7002 589.919,-79.0752 592.251,-89.4102 598.187,-85.7002"/>
</g>
<!-- Node14 -->
<g id="node14" class="node"><title>Node14</title>
<polygon fill="white" stroke="#bfbfbf" points="630.405,-59 630.405,-79 678.089,-79 678.089,-59 630.405,-59"/>
<text text-anchor="middle" x="654.247" y="-65" font-family="Helvetica,sans-Serif" font-size="10.00">stdlib.h</text>
</g>
<!-- Node11&#45;&gt;Node14 -->
<g id="edge14" class="edge"><title>Node11&#45;&gt;Node14</title>
<path fill="none" stroke="midnightblue" d="M625.027,-116.753C629.97,-108.843 637.224,-97.2372 643.267,-87.5683"/>
<polygon fill="midnightblue" stroke="midnightblue" points="646.243,-89.4102 648.575,-79.0752 640.307,-85.7002 646.243,-89.4102"/>
</g>
<!-- Node13 -->
<g id="node13" class="node"><title>Node13</title>
<g id="a_node13"><a xlink:href="__platform_8h.xhtml" target="_top" xlink:title="_platform.h">
<polygon fill="white" stroke="red" points="551.235,-1 551.235,-21 617.259,-21 617.259,-1 551.235,-1"/>
<text text-anchor="middle" x="584.247" y="-7" font-family="Helvetica,sans-Serif" font-size="10.00">_platform.h</text>
</a>
</g>
</g>
<!-- Node12&#45;&gt;Node13 -->
<g id="edge13" class="edge"><title>Node12&#45;&gt;Node13</title>
<path fill="none" stroke="midnightblue" d="M584.247,-58.7527C584.247,-51.2504 584.247,-40.4238 584.247,-31.0781"/>
<polygon fill="midnightblue" stroke="midnightblue" points="587.747,-31.0752 584.247,-21.0752 580.747,-31.0752 587.747,-31.0752"/>
</g>
<!-- Node23&#45;&gt;Node11 -->
<g id="edge25" class="edge"><title>Node23&#45;&gt;Node11</title>
<path fill="none" stroke="midnightblue" d="M960.064,-362.258C963.165,-361.466 966.245,-360.706 969.247,-360 1052.49,-340.427 1103.73,-389.879 1158.25,-324 1200.75,-272.638 1203.34,-223.104 1158.25,-174 1125.46,-138.298 795.026,-130.263 668.331,-128.49"/>
<polygon fill="midnightblue" stroke="midnightblue" points="668.185,-124.988 658.14,-128.355 668.092,-131.988 668.185,-124.988"/>
</g>
<!-- Node24 -->
<g id="node24" class="node"><title>Node24</title>
<polygon fill="white" stroke="#bfbfbf" points="749.942,-303 749.942,-323 846.552,-323 846.552,-303 749.942,-303"/>
<text text-anchor="middle" x="798.247" y="-309" font-family="Helvetica,sans-Serif" font-size="10.00">condition_variable</text>
</g>
<!-- Node23&#45;&gt;Node24 -->
<g id="edge26" class="edge"><title>Node23&#45;&gt;Node24</title>
<path fill="none" stroke="midnightblue" d="M884.651,-360.992C866.133,-350.92 841.914,-337.749 823.83,-327.914"/>
<polygon fill="midnightblue" stroke="midnightblue" points="825.452,-324.812 814.995,-323.109 822.108,-330.961 825.452,-324.812"/>
</g>
<!-- Node25 -->
<g id="node25" class="node"><title>Node25</title>
<polygon fill="white" stroke="#bfbfbf" points="864.119,-303 864.119,-323 922.375,-323 922.375,-303 864.119,-303"/>
<text text-anchor="middle" x="893.247" y="-309" font-family="Helvetica,sans-Serif" font-size="10.00">pthread.h</text>
</g>
<!-- Node23&#45;&gt;Node25 -->
<g id="edge27" class="edge"><title>Node23&#45;&gt;Node25</title>
<path fill="none" stroke="midnightblue" d="M907.648,-360.992C905.059,-352.543 901.801,-341.912 899.039,-332.899"/>
<polygon fill="midnightblue" stroke="midnightblue" points="902.371,-331.826 896.094,-323.29 895.678,-333.877 902.371,-331.826"/>
</g>
<!-- Node26 -->
<g id="node26" class="node"><title>Node26</title>
<polygon fill="white" stroke="#bfbfbf" points="940.631,-303 940.631,-323 983.863,-323 983.863,-303 940.631,-303"/>
<text text-anchor="middle" x="962.247" y="-309" font-family="Helvetica,sans-Serif" font-size="10.00">time.h</text>
</g>
<!-- Node23&#45;&gt;Node26 -->
<g id="edge28" class="edge"><title>Node23&#45;&gt;Node26</title>
<path fill="none" stroke="midnightblue" d="M924.351,-360.992C931.609,-351.992 940.863,-340.516 948.41,-331.157"/>
<polygon fill="midnightblue" stroke="midnightblue" points="951.202,-333.272 954.755,-323.29 945.753,-328.877 951.202,-333.272"/>
</g>
<!-- Node23&#45;&gt;Node8 -->
<g id="edge29" class="edge"><title>Node23&#45;&gt;Node8</title>
<path fill="none" stroke="midnightblue" d="M960.005,-361.981C963.12,-361.257 966.22,-360.587 969.247,-360 1112.78,-332.149 1150.92,-340.073 1296.25,-324 1308.45,-322.65 1321.59,-321.192 1333.96,-319.819"/>
<polygon fill="midnightblue" stroke="midnightblue" points="1334.57,-323.272 1344.12,-318.689 1333.8,-316.315 1334.57,-323.272"/>
</g>
<!-- Node23&#45;&gt;Node10 -->
<g id="edge30" class="edge"><title>Node23&#45;&gt;Node10</title>
<path fill="none" stroke="midnightblue" d="M960.042,-362.159C963.147,-361.391 966.236,-360.663 969.247,-360 1067.29,-338.399 1103.51,-370.948 1192.25,-324 1217.31,-310.742 1238.43,-285.07 1250.72,-267.73"/>
<polygon fill="midnightblue" stroke="midnightblue" points="1253.87,-269.322 1256.61,-259.086 1248.09,-265.381 1253.87,-269.322"/>
</g>
<!-- Node27 -->
<g id="node27" class="node"><title>Node27</title>
<g id="a_node27"><a xlink:href="utfstring_8h.xhtml" target="_top" xlink:title="ePub3/utilities/utfstring.h">
<polygon fill="white" stroke="black" points="569.772,-303 569.772,-323 694.722,-323 694.722,-303 569.772,-303"/>
<text text-anchor="middle" x="632.247" y="-309" font-family="Helvetica,sans-Serif" font-size="10.00">ePub3/utilities/utfstring.h</text>
</a>
</g>
</g>
<!-- Node23&#45;&gt;Node27 -->
<g id="edge31" class="edge"><title>Node23&#45;&gt;Node27</title>
<path fill="none" stroke="midnightblue" d="M864.417,-362.311C861.32,-361.506 858.243,-360.729 855.247,-360 799.896,-346.54 736.201,-333.658 691.093,-324.968"/>
<polygon fill="midnightblue" stroke="midnightblue" points="691.669,-321.515 681.189,-323.07 690.352,-328.39 691.669,-321.515"/>
</g>
<!-- Node42 -->
<g id="node42" class="node"><title>Node42</title>
<polygon fill="white" stroke="#bfbfbf" points="1039.96,-303 1039.96,-323 1086.54,-323 1086.54,-303 1039.96,-303"/>
<text text-anchor="middle" x="1063.25" y="-309" font-family="Helvetica,sans-Serif" font-size="10.00">chrono</text>
</g>
<!-- Node23&#45;&gt;Node42 -->
<g id="edge53" class="edge"><title>Node23&#45;&gt;Node42</title>
<path fill="none" stroke="midnightblue" d="M948.8,-360.992C974.115,-350.597 1007.48,-336.899 1031.64,-326.977"/>
<polygon fill="midnightblue" stroke="midnightblue" points="1033.14,-330.145 1041.06,-323.109 1030.48,-323.669 1033.14,-330.145"/>
</g>
<!-- Node23&#45;&gt;Node5 -->
<g id="edge54" class="edge"><title>Node23&#45;&gt;Node5</title>
<path fill="none" stroke="midnightblue" d="M935.521,-360.925C964.512,-342.253 1012.51,-311.717 1031.25,-302 1067.67,-283.11 1089.76,-297.334 1116.25,-266 1130.68,-248.926 1134.56,-222.805 1135.4,-205.094"/>
<polygon fill="midnightblue" stroke="midnightblue" points="1138.9,-205.146 1135.6,-195.08 1131.91,-205.009 1138.9,-205.146"/>
</g>
<!-- Node23&#45;&gt;Node19 -->
<g id="edge55" class="edge"><title>Node23&#45;&gt;Node19</title>
<path fill="none" stroke="midnightblue" d="M960.024,-362.078C963.134,-361.33 966.228,-360.629 969.247,-360 1083.88,-336.121 1115.58,-347.723 1230.25,-324 1231.53,-323.734 1232.84,-323.447 1234.16,-323.145"/>
<polygon fill="midnightblue" stroke="midnightblue" points="1235.43,-326.435 1244.28,-320.605 1233.73,-319.646 1235.43,-326.435"/>
</g>
<!-- Node43 -->
<g id="node43" class="node"><title>Node43</title>
<polygon fill="white" stroke="#bfbfbf" points="1104.52,-303 1104.52,-323 1149.97,-323 1149.97,-303 1104.52,-303"/>
<text text-anchor="middle" x="1127.25" y="-309" font-family="Helvetica,sans-Serif" font-size="10.00">atomic</text>
</g>
<!-- Node23&#45;&gt;Node43 -->
<g id="edge56" class="edge"><title>Node23&#45;&gt;Node43</title>
<path fill="none" stroke="midnightblue" d="M960.319,-362.493C1001.52,-350.892 1058.65,-334.739 1094.3,-324.222"/>
<polygon fill="midnightblue" stroke="midnightblue" points="1095.61,-327.485 1104.2,-321.282 1093.61,-320.775 1095.61,-327.485"/>
</g>
<!-- Node27&#45;&gt;Node10 -->
<g id="edge32" class="edge"><title>Node27&#45;&gt;Node10</title>
<path fill="none" stroke="midnightblue" d="M694.957,-305.829C814.381,-294.076 1073.43,-268.582 1195.74,-256.545"/>
<polygon fill="midnightblue" stroke="midnightblue" points="1196.12,-260.025 1205.73,-255.562 1195.43,-253.059 1196.12,-260.025"/>
</g>
<!-- Node28 -->
<g id="node28" class="node"><title>Node28</title>
<g id="a_node28"><a xlink:href="integer__sequence_8h.xhtml" target="_top" xlink:title="ePub3/utilities/integer\l_sequence.h">
<polygon fill="white" stroke="black" points="551.439,-233 551.439,-265 663.055,-265 663.055,-233 551.439,-233"/>
<text text-anchor="start" x="559.439" y="-251" font-family="Helvetica,sans-Serif" font-size="10.00">ePub3/utilities/integer</text>
<text text-anchor="middle" x="607.247" y="-239" font-family="Helvetica,sans-Serif" font-size="10.00">_sequence.h</text>
</a>
</g>
</g>
<!-- Node27&#45;&gt;Node28 -->
<g id="edge33" class="edge"><title>Node27&#45;&gt;Node28</title>
<path fill="none" stroke="midnightblue" d="M628.558,-302.852C625.584,-295.475 621.255,-284.739 617.274,-274.868"/>
<polygon fill="midnightblue" stroke="midnightblue" points="620.459,-273.406 613.473,-265.44 613.967,-276.024 620.459,-273.406"/>
</g>
<!-- Node29 -->
<g id="node29" class="node"><title>Node29</title>
<g id="a_node29"><a xlink:href="string__view_8h.xhtml" target="_top" xlink:title="ePub3/utilities/string\l_view.h">
<polygon fill="white" stroke="black" points="311.501,-233 311.501,-265 416.993,-265 416.993,-233 311.501,-233"/>
<text text-anchor="start" x="319.501" y="-251" font-family="Helvetica,sans-Serif" font-size="10.00">ePub3/utilities/string</text>
<text text-anchor="middle" x="364.247" y="-239" font-family="Helvetica,sans-Serif" font-size="10.00">_view.h</text>
</a>
</g>
</g>
<!-- Node27&#45;&gt;Node29 -->
<g id="edge35" class="edge"><title>Node27&#45;&gt;Node29</title>
<path fill="none" stroke="midnightblue" d="M589.938,-302.978C550.347,-294.44 489.309,-281.036 427.279,-266.209"/>
<polygon fill="midnightblue" stroke="midnightblue" points="427.859,-262.749 417.318,-263.818 426.225,-269.556 427.859,-262.749"/>
</g>
<!-- Node31 -->
<g id="node31" class="node"><title>Node31</title>
<polygon fill="white" stroke="#bfbfbf" points="332.02,-175 332.02,-195 372.474,-195 372.474,-175 332.02,-175"/>
<text text-anchor="middle" x="352.247" y="-181" font-family="Helvetica,sans-Serif" font-size="10.00">string</text>
</g>
<!-- Node27&#45;&gt;Node31 -->
<g id="edge44" class="edge"><title>Node27&#45;&gt;Node31</title>
<path fill="none" stroke="midnightblue" d="M569.656,-303.534C474.265,-290.596 303.342,-267.258 302.247,-266 292.327,-254.601 296.175,-245.837 302.247,-232 307.727,-219.511 318.457,-208.92 328.576,-201.06"/>
<polygon fill="midnightblue" stroke="midnightblue" points="330.746,-203.81 336.804,-195.118 326.648,-198.135 330.746,-203.81"/>
</g>
<!-- Node36 -->
<g id="node36" class="node"><title>Node36</title>
<polygon fill="white" stroke="#bfbfbf" points="680.686,-239 680.686,-259 727.809,-259 727.809,-239 680.686,-239"/>
<text text-anchor="middle" x="704.247" y="-245" font-family="Helvetica,sans-Serif" font-size="10.00">iterator</text>
</g>
<!-- Node27&#45;&gt;Node36 -->
<g id="edge45" class="edge"><title>Node27&#45;&gt;Node36</title>
<path fill="none" stroke="midnightblue" d="M642.871,-302.852C654.144,-293.144 672.172,-277.62 685.779,-265.903"/>
<polygon fill="midnightblue" stroke="midnightblue" points="688.286,-268.363 693.58,-259.186 683.718,-263.059 688.286,-268.363"/>
</g>
<!-- Node37 -->
<g id="node37" class="node"><title>Node37</title>
<polygon fill="white" stroke="#bfbfbf" points="746.183,-239 746.183,-259 788.311,-259 788.311,-239 746.183,-239"/>
<text text-anchor="middle" x="767.247" y="-245" font-family="Helvetica,sans-Serif" font-size="10.00">locale</text>
</g>
<!-- Node27&#45;&gt;Node37 -->
<g id="edge46" class="edge"><title>Node27&#45;&gt;Node37</title>
<path fill="none" stroke="midnightblue" d="M653.931,-302.859C675.089,-293.834 708.111,-279.468 736.247,-266 737.787,-265.263 739.363,-264.494 740.95,-263.71"/>
<polygon fill="midnightblue" stroke="midnightblue" points="742.614,-266.79 749.96,-259.155 739.456,-260.543 742.614,-266.79"/>
</g>
<!-- Node27&#45;&gt;Node18 -->
<g id="edge47" class="edge"><title>Node27&#45;&gt;Node18</title>
<path fill="none" stroke="midnightblue" d="M694.857,-303.639C699.387,-303.072 703.886,-302.52 708.247,-302 783.033,-293.087 986.489,-313.115 1045.25,-266 1063.52,-251.351 1069.5,-223.832 1071.41,-205.21"/>
<polygon fill="midnightblue" stroke="midnightblue" points="1074.91,-205.427 1072.15,-195.199 1067.93,-204.917 1074.91,-205.427"/>
</g>
<!-- Node38 -->
<g id="node38" class="node"><title>Node38</title>
<polygon fill="white" stroke="#bfbfbf" points="806.013,-239 806.013,-259 906.481,-259 906.481,-239 806.013,-239"/>
<text text-anchor="middle" x="856.247" y="-245" font-family="Helvetica,sans-Serif" font-size="10.00">REGEX_INCLUDE</text>
</g>
<!-- Node27&#45;&gt;Node38 -->
<g id="edge48" class="edge"><title>Node27&#45;&gt;Node38</title>
<path fill="none" stroke="midnightblue" d="M664.819,-302.985C704.218,-292.079 770.637,-273.696 813.957,-261.705"/>
<polygon fill="midnightblue" stroke="midnightblue" points="814.932,-265.067 823.636,-259.026 813.065,-258.321 814.932,-265.067"/>
</g>
<!-- Node39 -->
<g id="node39" class="node"><title>Node39</title>
<polygon fill="white" stroke="#bfbfbf" points="924.52,-239 924.52,-259 959.974,-259 959.974,-239 924.52,-239"/>
<text text-anchor="middle" x="942.247" y="-245" font-family="Helvetica,sans-Serif" font-size="10.00">map</text>
</g>
<!-- Node27&#45;&gt;Node39 -->
<g id="edge49" class="edge"><title>Node27&#45;&gt;Node39</title>
<path fill="none" stroke="midnightblue" d="M694.82,-303.09C771.823,-291.928 894.922,-273.374 915.247,-266 916.902,-265.4 918.57,-264.696 920.22,-263.924"/>
<polygon fill="midnightblue" stroke="midnightblue" points="922.155,-266.856 929.279,-259.014 918.819,-260.702 922.155,-266.856"/>
</g>
<!-- Node40 -->
<g id="node40" class="node"><title>Node40</title>
<polygon fill="white" stroke="#bfbfbf" points="977.846,-239 977.846,-259 1036.65,-259 1036.65,-239 977.846,-239"/>
<text text-anchor="middle" x="1007.25" y="-245" font-family="Helvetica,sans-Serif" font-size="10.00">stdexcept</text>
</g>
<!-- Node27&#45;&gt;Node40 -->
<g id="edge50" class="edge"><title>Node27&#45;&gt;Node40</title>
<path fill="none" stroke="midnightblue" d="M695.091,-303.6C790.527,-290.815 961.7,-267.761 968.247,-266 971.498,-265.126 974.84,-264.049 978.135,-262.871"/>
<polygon fill="midnightblue" stroke="midnightblue" points="979.692,-266.021 987.743,-259.133 977.154,-259.497 979.692,-266.021"/>
</g>
<!-- Node32 -->
<g id="node32" class="node"><title>Node32</title>
<polygon fill="white" stroke="#bfbfbf" points="552.86,-175 552.86,-195 591.634,-195 591.634,-175 552.86,-175"/>
<text text-anchor="middle" x="572.247" y="-181" font-family="Helvetica,sans-Serif" font-size="10.00">limits</text>
</g>
<!-- Node27&#45;&gt;Node32 -->
<g id="edge51" class="edge"><title>Node27&#45;&gt;Node32</title>
<path fill="none" stroke="midnightblue" d="M594.659,-302.889C575.422,-296.115 553.696,-284.709 542.247,-266 529.984,-245.96 544.38,-220.093 557.14,-203.282"/>
<polygon fill="midnightblue" stroke="midnightblue" points="559.951,-205.372 563.514,-195.395 554.507,-200.972 559.951,-205.372"/>
</g>
<!-- Node41 -->
<g id="node41" class="node"><title>Node41</title>
<polygon fill="white" stroke="#bfbfbf" points="435.008,-239 435.008,-259 495.486,-259 495.486,-239 435.008,-239"/>
<text text-anchor="middle" x="465.247" y="-245" font-family="Helvetica,sans-Serif" font-size="10.00">utf8/utf8.h</text>
</g>
<!-- Node27&#45;&gt;Node41 -->
<g id="edge52" class="edge"><title>Node27&#45;&gt;Node41</title>
<path fill="none" stroke="midnightblue" d="M607.964,-302.985C579.27,-292.332 531.355,-274.543 499.047,-262.548"/>
<polygon fill="midnightblue" stroke="midnightblue" points="500.153,-259.226 489.56,-259.026 497.716,-265.788 500.153,-259.226"/>
</g>
<!-- Node28&#45;&gt;Node11 -->
<g id="edge34" class="edge"><title>Node28&#45;&gt;Node11</title>
<path fill="none" stroke="midnightblue" d="M608.767,-232.802C610.935,-211.123 614.916,-171.313 617.298,-147.49"/>
<polygon fill="midnightblue" stroke="midnightblue" points="620.812,-147.528 618.324,-137.229 613.846,-146.831 620.812,-147.528"/>
</g>
<!-- Node30 -->
<g id="node30" class="node"><title>Node30</title>
<polygon fill="white" stroke="#bfbfbf" points="252.181,-175 252.181,-195 314.313,-195 314.313,-175 252.181,-175"/>
<text text-anchor="middle" x="283.247" y="-181" font-family="Helvetica,sans-Serif" font-size="10.00">type_traits</text>
</g>
<!-- Node29&#45;&gt;Node30 -->
<g id="edge36" class="edge"><title>Node29&#45;&gt;Node30</title>
<path fill="none" stroke="midnightblue" d="M344.639,-232.992C332.161,-223.441 316.04,-211.101 303.449,-201.463"/>
<polygon fill="midnightblue" stroke="midnightblue" points="305.453,-198.589 295.385,-195.29 301.198,-204.148 305.453,-198.589"/>
</g>
<!-- Node29&#45;&gt;Node31 -->
<g id="edge37" class="edge"><title>Node29&#45;&gt;Node31</title>
<path fill="none" stroke="midnightblue" d="M361.342,-232.992C359.725,-224.635 357.694,-214.142 355.962,-205.194"/>
<polygon fill="midnightblue" stroke="midnightblue" points="359.382,-204.443 354.045,-195.29 352.509,-205.773 359.382,-204.443"/>
</g>
<!-- Node29&#45;&gt;Node32 -->
<g id="edge38" class="edge"><title>Node29&#45;&gt;Node32</title>
<path fill="none" stroke="midnightblue" d="M417.323,-233.323C450.817,-223.891 495.181,-211.088 543.023,-195.965"/>
<polygon fill="midnightblue" stroke="midnightblue" points="544.165,-199.274 552.635,-192.909 542.045,-192.603 544.165,-199.274"/>
</g>
<!-- Node29&#45;&gt;Node33 -->
<g id="edge39" class="edge"><title>Node29&#45;&gt;Node33</title>
<path fill="none" stroke="midnightblue" d="M317.043,-232.992C282.97,-222.158 237.613,-207.737 206.173,-197.741"/>
<polygon fill="midnightblue" stroke="midnightblue" points="207.076,-194.355 196.486,-194.661 204.955,-201.026 207.076,-194.355"/>
</g>
<!-- Node34 -->
<g id="node34" class="node"><title>Node34</title>
<polygon fill="white" stroke="#bfbfbf" points="390.683,-175 390.683,-195 447.811,-195 447.811,-175 390.683,-175"/>
<text text-anchor="middle" x="419.247" y="-181" font-family="Helvetica,sans-Serif" font-size="10.00">algorithm</text>
</g>
<!-- Node29&#45;&gt;Node34 -->
<g id="edge40" class="edge"><title>Node29&#45;&gt;Node34</title>
<path fill="none" stroke="midnightblue" d="M377.561,-232.992C385.626,-223.9 395.933,-212.281 404.28,-202.872"/>
<polygon fill="midnightblue" stroke="midnightblue" points="406.988,-205.094 411.006,-195.29 401.751,-200.449 406.988,-205.094"/>
</g>
<!-- Node35 -->
<g id="node35" class="node"><title>Node35</title>
<g id="a_node35"><a xlink:href="____strhash_8h.xhtml" target="_top" xlink:title="__strhash.h">
<polygon fill="white" stroke="black" points="466.119,-175 466.119,-195 534.375,-195 534.375,-175 466.119,-175"/>
<text text-anchor="middle" x="500.247" y="-181" font-family="Helvetica,sans-Serif" font-size="10.00">__strhash.h</text>
</a>
</g>
</g>
<!-- Node29&#45;&gt;Node35 -->
<g id="edge41" class="edge"><title>Node29&#45;&gt;Node35</title>
<path fill="none" stroke="midnightblue" d="M397.169,-232.992C419.666,-222.736 449.216,-209.264 470.907,-199.376"/>
<polygon fill="midnightblue" stroke="midnightblue" points="472.619,-202.442 480.267,-195.109 469.716,-196.072 472.619,-202.442"/>
</g>
<!-- Node35&#45;&gt;Node11 -->
<g id="edge42" class="edge"><title>Node35&#45;&gt;Node11</title>
<path fill="none" stroke="midnightblue" d="M519.631,-174.878C538.908,-165.807 568.698,-151.788 590.683,-141.442"/>
<polygon fill="midnightblue" stroke="midnightblue" points="592.313,-144.543 599.871,-137.118 589.333,-138.209 592.313,-144.543"/>
</g>
<!-- Node35&#45;&gt;Node17 -->
<g id="edge43" class="edge"><title>Node35&#45;&gt;Node17</title>
<path fill="none" stroke="midnightblue" d="M500.247,-174.753C500.247,-167.25 500.247,-156.424 500.247,-147.078"/>
<polygon fill="midnightblue" stroke="midnightblue" points="503.747,-147.075 500.247,-137.075 496.747,-147.075 503.747,-147.075"/>
</g>
<!-- Node44&#45;&gt;Node11 -->
<g id="edge58" class="edge"><title>Node44&#45;&gt;Node11</title>
<path fill="none" stroke="midnightblue" d="M206.104,-232.978C211.391,-215.682 222.667,-187.878 243.247,-174 244.934,-172.863 468.827,-145.98 570.277,-133.847"/>
<polygon fill="midnightblue" stroke="midnightblue" points="570.768,-137.314 580.282,-132.651 569.937,-130.363 570.768,-137.314"/>
</g>
<!-- Node45 -->
<g id="node45" class="node"><title>Node45</title>
<polygon fill="white" stroke="#bfbfbf" points="76.1264,-175 76.1264,-195 124.368,-195 124.368,-175 76.1264,-175"/>
<text text-anchor="middle" x="100.247" y="-181" font-family="Helvetica,sans-Serif" font-size="10.00">cstddef</text>
</g>
<!-- Node44&#45;&gt;Node45 -->
<g id="edge59" class="edge"><title>Node44&#45;&gt;Node45</title>
<path fill="none" stroke="midnightblue" d="M177.556,-232.992C161.291,-223.105 140.111,-210.231 124.033,-200.458"/>
<polygon fill="midnightblue" stroke="midnightblue" points="125.596,-197.312 115.232,-195.109 121.96,-203.294 125.596,-197.312"/>
</g>
<!-- Node44&#45;&gt;Node17 -->
<g id="edge60" class="edge"><title>Node44&#45;&gt;Node17</title>
<path fill="none" stroke="midnightblue" d="M149.493,-244.827C78.8408,-238.719 -32.9242,-221.414 10.247,-174 40.6922,-140.563 355.872,-130.97 464.042,-128.652"/>
<polygon fill="midnightblue" stroke="midnightblue" points="464.215,-132.149 474.141,-128.444 464.071,-125.151 464.215,-132.149"/>
</g>
<!-- Node44&#45;&gt;Node30 -->
<g id="edge61" class="edge"><title>Node44&#45;&gt;Node30</title>
<path fill="none" stroke="midnightblue" d="M221.855,-232.992C234.333,-223.441 250.454,-211.101 263.045,-201.463"/>
<polygon fill="midnightblue" stroke="midnightblue" points="265.296,-204.148 271.11,-195.29 261.041,-198.589 265.296,-204.148"/>
</g>
<!-- Node46 -->
<g id="node46" class="node"><title>Node46</title>
<polygon fill="white" stroke="#bfbfbf" points="18.8554,-175 18.8554,-195 57.6386,-195 57.6386,-175 18.8554,-175"/>
<text text-anchor="middle" x="38.247" y="-181" font-family="Helvetica,sans-Serif" font-size="10.00">utility</text>
</g>
<!-- Node44&#45;&gt;Node46 -->
<g id="edge62" class="edge"><title>Node44&#45;&gt;Node46</title>
<path fill="none" stroke="midnightblue" d="M162.547,-232.992C133.127,-221.869 93.7021,-206.965 67.2113,-196.95"/>
<polygon fill="midnightblue" stroke="midnightblue" points="68.3311,-193.632 57.7395,-193.369 65.8557,-200.179 68.3311,-193.632"/>
</g>
</g>
</svg>
