<?xml version="1.0" encoding="UTF-8" standalone="no"?>
<!DOCTYPE svg PUBLIC "-//W3C//DTD SVG 1.1//EN"
 "http://www.w3.org/Graphics/SVG/1.1/DTD/svg11.dtd">
<!-- Generated by graphviz version 2.30.0 (20130114.0426)
 -->
<!-- Title: /Users/rkwright/Documents/github/readium&#45;sdk&#45;D/ePub3/ePub/zip_archive.h Pages: 1 -->
<svg width="223pt" height="112pt"
 viewBox="0.00 0.00 223.00 112.00" xmlns="http://www.w3.org/2000/svg" xmlns:xlink="http://www.w3.org/1999/xlink">
<g id="graph0" class="graph" transform="scale(1 1) rotate(0) translate(4 108)">
<title>/Users/rkwright/Documents/github/readium&#45;sdk&#45;D/ePub3/ePub/zip_archive.h</title>
<polygon fill="white" stroke="white" points="-4,5 -4,-108 220,-108 220,5 -4,5"/>
<!-- Node1 -->
<g id="node1" class="node"><title>Node1</title>
<polygon fill="#bfbfbf" stroke="black" points="63.9658,-59 63.9658,-103 210.034,-103 210.034,-59 63.9658,-59"/>
<text text-anchor="start" x="71.9658" y="-89" font-family="Helvetica,sans-Serif" font-size="10.00">/Users/rkwright/Documents</text>
<text text-anchor="start" x="71.9658" y="-77" font-family="Helvetica,sans-Serif" font-size="10.00">/github/readium&#45;sdk&#45;D/ePub3</text>
<text text-anchor="middle" x="137" y="-65" font-family="Helvetica,sans-Serif" font-size="10.00">/ePub/zip_archive.h</text>
</g>
<!-- Node2 -->
<g id="node2" class="node"><title>Node2</title>
<polygon fill="white" stroke="#bfbfbf" points="-0.135254,-1 -0.135254,-21 88.1353,-21 88.1353,-1 -0.135254,-1"/>
<text text-anchor="middle" x="44" y="-7" font-family="Helvetica,sans-Serif" font-size="10.00">ePub3/archive.h</text>
</g>
<!-- Node1&#45;&gt;Node2 -->
<g id="edge1" class="edge"><title>Node1&#45;&gt;Node2</title>
<path fill="none" stroke="midnightblue" d="M108.084,-58.8571C94.0472,-48.5937 77.5035,-36.4972 64.7415,-27.1658"/>
<polygon fill="midnightblue" stroke="midnightblue" points="66.7259,-24.281 56.5877,-21.2039 62.5942,-29.9316 66.7259,-24.281"/>
</g>
<!-- Node3 -->
<g id="node3" class="node"><title>Node3</title>
<polygon fill="white" stroke="#bfbfbf" points="105.655,-1 105.655,-21 168.345,-21 168.345,-1 105.655,-1"/>
<text text-anchor="middle" x="137" y="-7" font-family="Helvetica,sans-Serif" font-size="10.00">libzip/zip.h</text>
</g>
<!-- Node1&#45;&gt;Node3 -->
<g id="edge2" class="edge"><title>Node1&#45;&gt;Node3</title>
<path fill="none" stroke="midnightblue" d="M137,-58.8571C137,-50.074 137,-39.9484 137,-31.3622"/>
<polygon fill="midnightblue" stroke="midnightblue" points="140.5,-31.2039 137,-21.2039 133.5,-31.204 140.5,-31.2039"/>
</g>
<!-- Node4 -->
<g id="node4" class="node"><title>Node4</title>
<polygon fill="white" stroke="#bfbfbf" points="186.5,-1 186.5,-21 215.5,-21 215.5,-1 186.5,-1"/>
<text text-anchor="middle" x="200.611" y="-7" font-family="Helvetica,sans-Serif" font-size="10.00">list</text>
</g>
<!-- Node1&#45;&gt;Node4 -->
<g id="edge3" class="edge"><title>Node1&#45;&gt;Node4</title>
<path fill="none" stroke="midnightblue" d="M156.899,-58.8571C166.094,-49.0871 176.853,-37.6561 185.442,-28.5303"/>
<polygon fill="midnightblue" stroke="midnightblue" points="188.033,-30.8847 192.337,-21.2039 182.935,-26.0872 188.033,-30.8847"/>
</g>
</g>
</svg>
