<?xml version="1.0" encoding="UTF-8" standalone="no"?>
<!DOCTYPE svg PUBLIC "-//W3C//DTD SVG 1.1//EN"
 "http://www.w3.org/Graphics/SVG/1.1/DTD/svg11.dtd">
<!-- Generated by graphviz version 2.30.0 (20130114.0426)
 -->
<!-- Title: /Users/rkwright/Documents/github/readium&#45;sdk&#45;D/ePub3/utilities/CPUCacheUtils.h Pages: 1 -->
<svg width="154pt" height="286pt"
 viewBox="0.00 0.00 154.00 286.00" xmlns="http://www.w3.org/2000/svg" xmlns:xlink="http://www.w3.org/1999/xlink">
<g id="graph0" class="graph" transform="scale(1 1) rotate(0) translate(4 282)">
<title>/Users/rkwright/Documents/github/readium&#45;sdk&#45;D/ePub3/utilities/CPUCacheUtils.h</title>
<polygon fill="white" stroke="white" points="-4,5 -4,-282 151,-282 151,5 -4,5"/>
<!-- Node1 -->
<g id="node1" class="node"><title>Node1</title>
<polygon fill="#bfbfbf" stroke="black" points="-0.0341797,-233 -0.0341797,-277 146.034,-277 146.034,-233 -0.0341797,-233"/>
<text text-anchor="start" x="7.96582" y="-263" font-family="Helvetica,sans-Serif" font-size="10.00">/Users/rkwright/Documents</text>
<text text-anchor="start" x="7.96582" y="-251" font-family="Helvetica,sans-Serif" font-size="10.00">/github/readium&#45;sdk&#45;D/ePub3</text>
<text text-anchor="middle" x="73" y="-239" font-family="Helvetica,sans-Serif" font-size="10.00">/utilities/CPUCacheUtils.h</text>
</g>
<!-- Node2 -->
<g id="node2" class="node"><title>Node2</title>
<g id="a_node2"><a xlink:href="base_8h.xhtml" target="_top" xlink:title="ePub3/base.h">
<polygon fill="white" stroke="black" points="34.1406,-175 34.1406,-195 111.859,-195 111.859,-175 34.1406,-175"/>
<text text-anchor="middle" x="73" y="-181" font-family="Helvetica,sans-Serif" font-size="10.00">ePub3/base.h</text>
</a>
</g>
</g>
<!-- Node1&#45;&gt;Node2 -->
<g id="edge1" class="edge"><title>Node1&#45;&gt;Node2</title>
<path fill="none" stroke="midnightblue" d="M73,-232.857C73,-224.074 73,-213.948 73,-205.362"/>
<polygon fill="midnightblue" stroke="midnightblue" points="76.5001,-205.204 73,-195.204 69.5001,-205.204 76.5001,-205.204"/>
</g>
<!-- Node3 -->
<g id="node3" class="node"><title>Node3</title>
<g id="a_node3"><a xlink:href="__config_8h.xhtml" target="_top" xlink:title="_config.h">
<polygon fill="white" stroke="black" points="9.70703,-117 9.70703,-137 66.293,-137 66.293,-117 9.70703,-117"/>
<text text-anchor="middle" x="38" y="-123" font-family="Helvetica,sans-Serif" font-size="10.00">_config.h</text>
</a>
</g>
</g>
<!-- Node2&#45;&gt;Node3 -->
<g id="edge2" class="edge"><title>Node2&#45;&gt;Node3</title>
<path fill="none" stroke="midnightblue" d="M67.2205,-174.753C62.2767,-166.843 55.0233,-155.237 48.9802,-145.568"/>
<polygon fill="midnightblue" stroke="midnightblue" points="51.94,-143.7 43.672,-137.075 46.004,-147.41 51.94,-143.7"/>
</g>
<!-- Node6 -->
<g id="node6" class="node"><title>Node6</title>
<polygon fill="white" stroke="#bfbfbf" points="84.1577,-117 84.1577,-137 131.842,-137 131.842,-117 84.1577,-117"/>
<text text-anchor="middle" x="108" y="-123" font-family="Helvetica,sans-Serif" font-size="10.00">stdlib.h</text>
</g>
<!-- Node2&#45;&gt;Node6 -->
<g id="edge5" class="edge"><title>Node2&#45;&gt;Node6</title>
<path fill="none" stroke="midnightblue" d="M78.7795,-174.753C83.7233,-166.843 90.9767,-155.237 97.0198,-145.568"/>
<polygon fill="midnightblue" stroke="midnightblue" points="99.996,-147.41 102.328,-137.075 94.06,-143.7 99.996,-147.41"/>
</g>
<!-- Node4 -->
<g id="node4" class="node"><title>Node4</title>
<g id="a_node4"><a xlink:href="__platform_8h.xhtml" target="_top" xlink:title="_platform.h">
<polygon fill="white" stroke="black" points="4.98779,-59 4.98779,-79 71.0122,-79 71.0122,-59 4.98779,-59"/>
<text text-anchor="middle" x="38" y="-65" font-family="Helvetica,sans-Serif" font-size="10.00">_platform.h</text>
</a>
</g>
</g>
<!-- Node3&#45;&gt;Node4 -->
<g id="edge3" class="edge"><title>Node3&#45;&gt;Node4</title>
<path fill="none" stroke="midnightblue" d="M38,-116.753C38,-109.25 38,-98.4238 38,-89.0781"/>
<polygon fill="midnightblue" stroke="midnightblue" points="41.5001,-89.0752 38,-79.0752 34.5001,-89.0752 41.5001,-89.0752"/>
</g>
<!-- Node5 -->
<g id="node5" class="node"><title>Node5</title>
<g id="a_node5"><a xlink:href="__compiler_8h.xhtml" target="_top" xlink:title="_compiler.h">
<polygon fill="white" stroke="black" points="4.42871,-1 4.42871,-21 71.5713,-21 71.5713,-1 4.42871,-1"/>
<text text-anchor="middle" x="38" y="-7" font-family="Helvetica,sans-Serif" font-size="10.00">_compiler.h</text>
</a>
</g>
</g>
<!-- Node4&#45;&gt;Node5 -->
<g id="edge4" class="edge"><title>Node4&#45;&gt;Node5</title>
<path fill="none" stroke="midnightblue" d="M38,-58.7527C38,-51.2504 38,-40.4238 38,-31.0781"/>
<polygon fill="midnightblue" stroke="midnightblue" points="41.5001,-31.0752 38,-21.0752 34.5001,-31.0752 41.5001,-31.0752"/>
</g>
</g>
</svg>
