<?xml version="1.0" encoding="UTF-8" standalone="no"?>
<!DOCTYPE svg PUBLIC "-//W3C//DTD SVG 1.1//EN"
 "http://www.w3.org/Graphics/SVG/1.1/DTD/svg11.dtd">
<!-- Generated by graphviz version 2.30.0 (20130114.0426)
 -->
<!-- Title: /Users/rkwright/Documents/github/readium&#45;sdk&#45;D/ePub3/utilities/CPUCacheUtils.h Pages: 1 -->
<svg width="333pt" height="136pt"
 viewBox="0.00 0.00 333.00 136.00" xmlns="http://www.w3.org/2000/svg" xmlns:xlink="http://www.w3.org/1999/xlink">
<g id="graph0" class="graph" transform="scale(1 1) rotate(0) translate(4 132)">
<title>/Users/rkwright/Documents/github/readium&#45;sdk&#45;D/ePub3/utilities/CPUCacheUtils.h</title>
<polygon fill="white" stroke="white" points="-4,5 -4,-132 330,-132 330,5 -4,5"/>
<!-- Node1 -->
<g id="node1" class="node"><title>Node1</title>
<polygon fill="#bfbfbf" stroke="black" points="85.9658,-83 85.9658,-127 232.034,-127 232.034,-83 85.9658,-83"/>
<text text-anchor="start" x="93.9658" y="-113" font-family="Helvetica,sans-Serif" font-size="10.00">/Users/rkwright/Documents</text>
<text text-anchor="start" x="93.9658" y="-101" font-family="Helvetica,sans-Serif" font-size="10.00">/github/readium&#45;sdk&#45;D/ePub3</text>
<text text-anchor="middle" x="159" y="-89" font-family="Helvetica,sans-Serif" font-size="10.00">/utilities/CPUCacheUtils.h</text>
</g>
<!-- Node2 -->
<g id="node2" class="node"><title>Node2</title>
<g id="a_node2"><a xlink:href="_c_p_u_cache_utils_8c.xhtml" target="_top" xlink:title="/Users/rkwright/Documents\l/github/readium&#45;sdk&#45;D/ePub3\l/utilities/CPUCacheUtils.c">
<polygon fill="white" stroke="black" points="-0.0341797,-1 -0.0341797,-45 146.034,-45 146.034,-1 -0.0341797,-1"/>
<text text-anchor="start" x="7.96582" y="-31" font-family="Helvetica,sans-Serif" font-size="10.00">/Users/rkwright/Documents</text>
<text text-anchor="start" x="7.96582" y="-19" font-family="Helvetica,sans-Serif" font-size="10.00">/github/readium&#45;sdk&#45;D/ePub3</text>
<text text-anchor="middle" x="73" y="-7" font-family="Helvetica,sans-Serif" font-size="10.00">/utilities/CPUCacheUtils.c</text>
</a>
</g>
</g>
<!-- Node1&#45;&gt;Node2 -->
<g id="edge1" class="edge"><title>Node1&#45;&gt;Node2</title>
<path fill="none" stroke="midnightblue" d="M129.072,-76.1598C118.135,-65.9862 105.952,-54.653 95.7432,-45.1564"/>
<polygon fill="midnightblue" stroke="midnightblue" points="126.699,-78.7325 136.405,-82.9809 131.466,-73.6072 126.699,-78.7325"/>
</g>
<!-- Node3 -->
<g id="node3" class="node"><title>Node3</title>
<g id="a_node3"><a xlink:href="_c_p_u_cache_utils__win_8cpp.xhtml" target="_top" xlink:title="/Users/rkwright/Documents\l/github/readium&#45;sdk&#45;D/ePub3\l/utilities/CPUCacheUtils_win.cpp">
<polygon fill="white" stroke="black" points="164.473,-1 164.473,-45 325.527,-45 325.527,-1 164.473,-1"/>
<text text-anchor="start" x="172.473" y="-31" font-family="Helvetica,sans-Serif" font-size="10.00">/Users/rkwright/Documents</text>
<text text-anchor="start" x="172.473" y="-19" font-family="Helvetica,sans-Serif" font-size="10.00">/github/readium&#45;sdk&#45;D/ePub3</text>
<text text-anchor="middle" x="245" y="-7" font-family="Helvetica,sans-Serif" font-size="10.00">/utilities/CPUCacheUtils_win.cpp</text>
</a>
</g>
</g>
<!-- Node1&#45;&gt;Node3 -->
<g id="edge2" class="edge"><title>Node1&#45;&gt;Node3</title>
<path fill="none" stroke="midnightblue" d="M188.928,-76.1598C199.865,-65.9862 212.048,-54.653 222.257,-45.1564"/>
<polygon fill="midnightblue" stroke="midnightblue" points="186.534,-73.6072 181.595,-82.9809 191.301,-78.7325 186.534,-73.6072"/>
</g>
</g>
</svg>
