<?xml version="1.0" encoding="UTF-8" standalone="no"?>
<!DOCTYPE svg PUBLIC "-//W3C//DTD SVG 1.1//EN"
 "http://www.w3.org/Graphics/SVG/1.1/DTD/svg11.dtd">
<!-- Generated by graphviz version 2.30.0 (20130114.0426)
 -->
<!-- Title: /Users/rkwright/Documents/github/readium&#45;sdk&#45;D/ePub3/ePub/Forward.h Pages: 1 -->
<svg width="430pt" height="298pt"
 viewBox="0.00 0.00 429.76 298.00" xmlns="http://www.w3.org/2000/svg" xmlns:xlink="http://www.w3.org/1999/xlink">
<g id="graph0" class="graph" transform="scale(1 1) rotate(0) translate(4 294)">
<title>/Users/rkwright/Documents/github/readium&#45;sdk&#45;D/ePub3/ePub/Forward.h</title>
<polygon fill="white" stroke="white" points="-4,5 -4,-294 426.756,-294 426.756,5 -4,5"/>
<!-- Node1 -->
<g id="node1" class="node"><title>Node1</title>
<polygon fill="#bfbfbf" stroke="black" points="195.966,-245 195.966,-289 342.034,-289 342.034,-245 195.966,-245"/>
<text text-anchor="start" x="203.966" y="-275" font-family="Helvetica,sans-Serif" font-size="10.00">/Users/rkwright/Documents</text>
<text text-anchor="start" x="203.966" y="-263" font-family="Helvetica,sans-Serif" font-size="10.00">/github/readium&#45;sdk&#45;D/ePub3</text>
<text text-anchor="middle" x="269" y="-251" font-family="Helvetica,sans-Serif" font-size="10.00">/ePub/Forward.h</text>
</g>
<!-- Node2 -->
<g id="node2" class="node"><title>Node2</title>
<g id="a_node2"><a xlink:href="base_8h.xhtml" target="_top" xlink:title="ePub3/base.h">
<polygon fill="white" stroke="black" points="47.1406,-181 47.1406,-201 124.859,-201 124.859,-181 47.1406,-181"/>
<text text-anchor="middle" x="86" y="-187" font-family="Helvetica,sans-Serif" font-size="10.00">ePub3/base.h</text>
</a>
</g>
</g>
<!-- Node1&#45;&gt;Node2 -->
<g id="edge1" class="edge"><title>Node1&#45;&gt;Node2</title>
<path fill="none" stroke="midnightblue" d="M217.049,-244.993C185.051,-232.053 145.063,-215.883 117.728,-204.83"/>
<polygon fill="midnightblue" stroke="midnightblue" points="118.851,-201.509 108.268,-201.004 116.226,-207.998 118.851,-201.509"/>
</g>
<!-- Node7 -->
<g id="node7" class="node"><title>Node7</title>
<g id="a_node7"><a xlink:href="pointer__type_8h.xhtml" target="_top" xlink:title="ePub3/utilities/pointer\l_type.h">
<polygon fill="white" stroke="black" points="143.192,-175 143.192,-207 254.808,-207 254.808,-175 143.192,-175"/>
<text text-anchor="start" x="151.192" y="-193" font-family="Helvetica,sans-Serif" font-size="10.00">ePub3/utilities/pointer</text>
<text text-anchor="middle" x="199" y="-181" font-family="Helvetica,sans-Serif" font-size="10.00">_type.h</text>
</a>
</g>
</g>
<!-- Node1&#45;&gt;Node7 -->
<g id="edge6" class="edge"><title>Node1&#45;&gt;Node7</title>
<path fill="none" stroke="midnightblue" d="M249.128,-244.993C240.198,-235.552 229.64,-224.391 220.523,-214.753"/>
<polygon fill="midnightblue" stroke="midnightblue" points="222.993,-212.271 213.578,-207.412 217.908,-217.081 222.993,-212.271"/>
</g>
<!-- Node11 -->
<g id="node11" class="node"><title>Node11</title>
<g id="a_node11"><a xlink:href="owned__by_8h.xhtml" target="_top" xlink:title="ePub3/utilities/owned_by.h">
<polygon fill="white" stroke="black" points="272.884,-181 272.884,-201 407.116,-201 407.116,-181 272.884,-181"/>
<text text-anchor="middle" x="340" y="-187" font-family="Helvetica,sans-Serif" font-size="10.00">ePub3/utilities/owned_by.h</text>
</a>
</g>
</g>
<!-- Node1&#45;&gt;Node11 -->
<g id="edge10" class="edge"><title>Node1&#45;&gt;Node11</title>
<path fill="none" stroke="midnightblue" d="M289.156,-244.993C300.264,-233.415 313.853,-219.252 324.187,-208.481"/>
<polygon fill="midnightblue" stroke="midnightblue" points="326.963,-210.643 331.361,-201.004 321.912,-205.797 326.963,-210.643"/>
</g>
<!-- Node9 -->
<g id="node9" class="node"><title>Node9</title>
<polygon fill="white" stroke="#bfbfbf" points="332.943,-117 332.943,-137 385.057,-137 385.057,-117 332.943,-117"/>
<text text-anchor="middle" x="359" y="-123" font-family="Helvetica,sans-Serif" font-size="10.00">memory</text>
</g>
<!-- Node1&#45;&gt;Node9 -->
<g id="edge13" class="edge"><title>Node1&#45;&gt;Node9</title>
<path fill="none" stroke="midnightblue" d="M342.103,-255.047C370.03,-246.908 399.176,-232.724 416,-208 424.501,-195.507 422.517,-187.634 416,-174 409.663,-160.743 397.435,-150.082 385.924,-142.375"/>
<polygon fill="midnightblue" stroke="midnightblue" points="387.712,-139.365 377.371,-137.062 384.019,-145.312 387.712,-139.365"/>
</g>
<!-- Node3 -->
<g id="node3" class="node"><title>Node3</title>
<g id="a_node3"><a xlink:href="__config_8h.xhtml" target="_top" xlink:title="_config.h">
<polygon fill="white" stroke="black" points="64.707,-117 64.707,-137 121.293,-137 121.293,-117 64.707,-117"/>
<text text-anchor="middle" x="93" y="-123" font-family="Helvetica,sans-Serif" font-size="10.00">_config.h</text>
</a>
</g>
</g>
<!-- Node2&#45;&gt;Node3 -->
<g id="edge2" class="edge"><title>Node2&#45;&gt;Node3</title>
<path fill="none" stroke="midnightblue" d="M87.0329,-180.852C88.0255,-172.06 89.5567,-158.498 90.8195,-147.313"/>
<polygon fill="midnightblue" stroke="midnightblue" points="94.3188,-147.515 91.9629,-137.186 87.363,-146.73 94.3188,-147.515"/>
</g>
<!-- Node6 -->
<g id="node6" class="node"><title>Node6</title>
<polygon fill="white" stroke="#bfbfbf" points="-0.842285,-117 -0.842285,-137 46.8423,-137 46.8423,-117 -0.842285,-117"/>
<text text-anchor="middle" x="23" y="-123" font-family="Helvetica,sans-Serif" font-size="10.00">stdlib.h</text>
</g>
<!-- Node2&#45;&gt;Node6 -->
<g id="edge5" class="edge"><title>Node2&#45;&gt;Node6</title>
<path fill="none" stroke="midnightblue" d="M76.7041,-180.852C66.9332,-171.236 51.363,-155.913 39.4979,-144.236"/>
<polygon fill="midnightblue" stroke="midnightblue" points="41.9164,-141.706 32.334,-137.186 37.0064,-146.695 41.9164,-141.706"/>
</g>
<!-- Node4 -->
<g id="node4" class="node"><title>Node4</title>
<g id="a_node4"><a xlink:href="__platform_8h.xhtml" target="_top" xlink:title="_platform.h">
<polygon fill="white" stroke="black" points="59.9878,-59 59.9878,-79 126.012,-79 126.012,-59 59.9878,-59"/>
<text text-anchor="middle" x="93" y="-65" font-family="Helvetica,sans-Serif" font-size="10.00">_platform.h</text>
</a>
</g>
</g>
<!-- Node3&#45;&gt;Node4 -->
<g id="edge3" class="edge"><title>Node3&#45;&gt;Node4</title>
<path fill="none" stroke="midnightblue" d="M93,-116.753C93,-109.25 93,-98.4238 93,-89.0781"/>
<polygon fill="midnightblue" stroke="midnightblue" points="96.5001,-89.0752 93,-79.0752 89.5001,-89.0752 96.5001,-89.0752"/>
</g>
<!-- Node5 -->
<g id="node5" class="node"><title>Node5</title>
<g id="a_node5"><a xlink:href="__compiler_8h.xhtml" target="_top" xlink:title="_compiler.h">
<polygon fill="white" stroke="black" points="59.4287,-1 59.4287,-21 126.571,-21 126.571,-1 59.4287,-1"/>
<text text-anchor="middle" x="93" y="-7" font-family="Helvetica,sans-Serif" font-size="10.00">_compiler.h</text>
</a>
</g>
</g>
<!-- Node4&#45;&gt;Node5 -->
<g id="edge4" class="edge"><title>Node4&#45;&gt;Node5</title>
<path fill="none" stroke="midnightblue" d="M93,-58.7527C93,-51.2504 93,-40.4238 93,-31.0781"/>
<polygon fill="midnightblue" stroke="midnightblue" points="96.5001,-31.0752 93,-21.0752 89.5001,-31.0752 96.5001,-31.0752"/>
</g>
<!-- Node8 -->
<g id="node8" class="node"><title>Node8</title>
<polygon fill="white" stroke="#bfbfbf" points="151.079,-117 151.079,-137 234.921,-137 234.921,-117 151.079,-117"/>
<text text-anchor="middle" x="193" y="-123" font-family="Helvetica,sans-Serif" font-size="10.00">ePub3/epub3.h</text>
</g>
<!-- Node7&#45;&gt;Node8 -->
<g id="edge7" class="edge"><title>Node7&#45;&gt;Node8</title>
<path fill="none" stroke="midnightblue" d="M197.548,-174.992C196.748,-166.726 195.746,-156.373 194.886,-147.489"/>
<polygon fill="midnightblue" stroke="midnightblue" points="198.346,-146.907 193.899,-137.29 191.379,-147.581 198.346,-146.907"/>
</g>
<!-- Node7&#45;&gt;Node9 -->
<g id="edge8" class="edge"><title>Node7&#45;&gt;Node9</title>
<path fill="none" stroke="midnightblue" d="M237.732,-174.992C264.675,-164.551 300.219,-150.778 325.853,-140.845"/>
<polygon fill="midnightblue" stroke="midnightblue" points="327.434,-143.986 335.494,-137.109 324.904,-137.458 327.434,-143.986"/>
</g>
<!-- Node10 -->
<g id="node10" class="node"><title>Node10</title>
<polygon fill="white" stroke="#bfbfbf" points="252.934,-117 252.934,-137 315.066,-137 315.066,-117 252.934,-117"/>
<text text-anchor="middle" x="284" y="-123" font-family="Helvetica,sans-Serif" font-size="10.00">type_traits</text>
</g>
<!-- Node7&#45;&gt;Node10 -->
<g id="edge9" class="edge"><title>Node7&#45;&gt;Node10</title>
<path fill="none" stroke="midnightblue" d="M219.576,-174.992C232.796,-165.349 249.913,-152.864 263.18,-143.186"/>
<polygon fill="midnightblue" stroke="midnightblue" points="265.247,-146.011 271.263,-137.29 261.121,-140.356 265.247,-146.011"/>
</g>
<!-- Node11&#45;&gt;Node9 -->
<g id="edge11" class="edge"><title>Node11&#45;&gt;Node9</title>
<path fill="none" stroke="midnightblue" d="M342.804,-180.852C345.526,-171.969 349.741,-158.215 353.188,-146.964"/>
<polygon fill="midnightblue" stroke="midnightblue" points="356.601,-147.773 356.185,-137.186 349.909,-145.721 356.601,-147.773"/>
</g>
<!-- Node11&#45;&gt;Node10 -->
<g id="edge12" class="edge"><title>Node11&#45;&gt;Node10</title>
<path fill="none" stroke="midnightblue" d="M331.737,-180.852C323.217,-171.419 309.737,-156.495 299.271,-144.907"/>
<polygon fill="midnightblue" stroke="midnightblue" points="301.597,-142.261 292.297,-137.186 296.402,-146.953 301.597,-142.261"/>
</g>
</g>
</svg>
