<?xml version="1.0" encoding="UTF-8" standalone="no"?>
<!DOCTYPE svg PUBLIC "-//W3C//DTD SVG 1.1//EN"
 "http://www.w3.org/Graphics/SVG/1.1/DTD/svg11.dtd">
<!-- Generated by graphviz version 2.30.0 (20130114.0426)
 -->
<!-- Title: /Users/rkwright/Documents/github/readium&#45;sdk&#45;D/ePub3/ePub/PassThroughFilter.h Pages: 1 -->
<svg width="1636pt" height="612pt"
 viewBox="0.00 0.00 1636.00 612.00" xmlns="http://www.w3.org/2000/svg" xmlns:xlink="http://www.w3.org/1999/xlink">
<g id="graph0" class="graph" transform="scale(1 1) rotate(0) translate(4 608)">
<title>/Users/rkwright/Documents/github/readium&#45;sdk&#45;D/ePub3/ePub/PassThroughFilter.h</title>
<polygon fill="white" stroke="white" points="-4,5 -4,-608 1633,-608 1633,5 -4,5"/>
<!-- Node1 -->
<g id="node1" class="node"><title>Node1</title>
<polygon fill="#bfbfbf" stroke="black" points="148.966,-559 148.966,-603 295.034,-603 295.034,-559 148.966,-559"/>
<text text-anchor="start" x="156.966" y="-589" font-family="Helvetica,sans-Serif" font-size="10.00">/Users/rkwright/Documents</text>
<text text-anchor="start" x="156.966" y="-577" font-family="Helvetica,sans-Serif" font-size="10.00">/github/readium&#45;sdk&#45;D/ePub3</text>
<text text-anchor="middle" x="222" y="-565" font-family="Helvetica,sans-Serif" font-size="10.00">/ePub/PassThroughFilter.h</text>
</g>
<!-- Node2 -->
<g id="node2" class="node"><title>Node2</title>
<polygon fill="white" stroke="#bfbfbf" points="-0.189453,-495 -0.189453,-515 74.1895,-515 74.1895,-495 -0.189453,-495"/>
<text text-anchor="middle" x="37" y="-501" font-family="Helvetica,sans-Serif" font-size="10.00">ePub3/filter.h</text>
</g>
<!-- Node1&#45;&gt;Node2 -->
<g id="edge1" class="edge"><title>Node1&#45;&gt;Node2</title>
<path fill="none" stroke="midnightblue" d="M169.481,-558.993C137.134,-546.053 96.708,-529.883 69.0745,-518.83"/>
<polygon fill="midnightblue" stroke="midnightblue" points="70.0959,-515.469 59.5112,-515.004 67.4961,-521.968 70.0959,-515.469"/>
</g>
<!-- Node3 -->
<g id="node3" class="node"><title>Node3</title>
<polygon fill="white" stroke="#bfbfbf" points="91.9141,-495 91.9141,-515 194.086,-515 194.086,-495 91.9141,-495"/>
<text text-anchor="middle" x="143" y="-501" font-family="Helvetica,sans-Serif" font-size="10.00">ePub3/encryption.h</text>
</g>
<!-- Node1&#45;&gt;Node3 -->
<g id="edge2" class="edge"><title>Node1&#45;&gt;Node3</title>
<path fill="none" stroke="midnightblue" d="M199.573,-558.993C186.971,-547.188 171.499,-532.695 159.922,-521.851"/>
<polygon fill="midnightblue" stroke="midnightblue" points="162.304,-519.286 152.613,-515.004 157.518,-524.395 162.304,-519.286"/>
</g>
<!-- Node4 -->
<g id="node4" class="node"><title>Node4</title>
<polygon fill="white" stroke="#bfbfbf" points="252.766,-297 252.766,-317 353.234,-317 353.234,-297 252.766,-297"/>
<text text-anchor="middle" x="303" y="-303" font-family="Helvetica,sans-Serif" font-size="10.00">REGEX_INCLUDE</text>
</g>
<!-- Node1&#45;&gt;Node4 -->
<g id="edge3" class="edge"><title>Node1&#45;&gt;Node4</title>
<path fill="none" stroke="midnightblue" d="M224.112,-558.954C228.66,-518.923 241.379,-429.599 270,-360 275.054,-347.71 282.978,-335.097 289.795,-325.372"/>
<polygon fill="midnightblue" stroke="midnightblue" points="292.807,-327.182 295.861,-317.037 287.147,-323.063 292.807,-327.182"/>
</g>
<!-- Node5 -->
<g id="node5" class="node"><title>Node5</title>
<polygon fill="white" stroke="#bfbfbf" points="748.273,-495 748.273,-515 793.727,-515 793.727,-495 748.273,-495"/>
<text text-anchor="middle" x="771" y="-501" font-family="Helvetica,sans-Serif" font-size="10.00">cstring</text>
</g>
<!-- Node1&#45;&gt;Node5 -->
<g id="edge4" class="edge"><title>Node1&#45;&gt;Node5</title>
<path fill="none" stroke="midnightblue" d="M295.3,-579.511C396.732,-577.102 584.728,-566.355 738,-522 740.605,-521.246 743.257,-520.3 745.868,-519.247"/>
<polygon fill="midnightblue" stroke="midnightblue" points="747.324,-522.43 754.987,-515.114 744.434,-516.054 747.324,-522.43"/>
</g>
<!-- Node6 -->
<g id="node6" class="node"><title>Node6</title>
<g id="a_node6"><a xlink:href="byte__stream_8h.xhtml" target="_top" xlink:title="ePub3/utilities/byte\l_stream.h">
<polygon fill="white" stroke="black" points="630.03,-489 630.03,-521 729.97,-521 729.97,-489 630.03,-489"/>
<text text-anchor="start" x="638.03" y="-507" font-family="Helvetica,sans-Serif" font-size="10.00">ePub3/utilities/byte</text>
<text text-anchor="middle" x="680" y="-495" font-family="Helvetica,sans-Serif" font-size="10.00">_stream.h</text>
</a>
</g>
</g>
<!-- Node1&#45;&gt;Node6 -->
<g id="edge5" class="edge"><title>Node1&#45;&gt;Node6</title>
<path fill="none" stroke="midnightblue" d="M295.078,-568.193C385.023,-553.66 536.083,-529.253 619.716,-515.74"/>
<polygon fill="midnightblue" stroke="midnightblue" points="620.505,-519.158 629.819,-514.108 619.389,-512.248 620.505,-519.158"/>
</g>
<!-- Node7 -->
<g id="node7" class="node"><title>Node7</title>
<polygon fill="white" stroke="#bfbfbf" points="288.079,-361 288.079,-381 371.921,-381 371.921,-361 288.079,-361"/>
<text text-anchor="middle" x="330" y="-367" font-family="Helvetica,sans-Serif" font-size="10.00">ePub3/epub3.h</text>
</g>
<!-- Node6&#45;&gt;Node7 -->
<g id="edge6" class="edge"><title>Node6&#45;&gt;Node7</title>
<path fill="none" stroke="midnightblue" d="M633.874,-488.945C603.621,-478.893 563.281,-465.151 528,-452 468.366,-429.771 399.679,-401.382 360.894,-385.09"/>
<polygon fill="midnightblue" stroke="midnightblue" points="361.815,-381.68 351.24,-381.025 359.098,-388.131 361.815,-381.68"/>
</g>
<!-- Node8 -->
<g id="node8" class="node"><title>Node8</title>
<g id="a_node8"><a xlink:href="ring__buffer_8h.xhtml" target="_top" xlink:title="ePub3/utilities/ring\l_buffer.h">
<polygon fill="white" stroke="black" points="318.143,-419 318.143,-451 415.857,-451 415.857,-419 318.143,-419"/>
<text text-anchor="start" x="326.143" y="-437" font-family="Helvetica,sans-Serif" font-size="10.00">ePub3/utilities/ring</text>
<text text-anchor="middle" x="367" y="-425" font-family="Helvetica,sans-Serif" font-size="10.00">_buffer.h</text>
</a>
</g>
</g>
<!-- Node6&#45;&gt;Node8 -->
<g id="edge7" class="edge"><title>Node6&#45;&gt;Node8</title>
<path fill="none" stroke="midnightblue" d="M629.711,-493.075C574.088,-480.99 484.572,-461.543 425.761,-448.766"/>
<polygon fill="midnightblue" stroke="midnightblue" points="426.39,-445.321 415.875,-446.618 424.904,-452.162 426.39,-445.321"/>
</g>
<!-- Node21 -->
<g id="node21" class="node"><title>Node21</title>
<polygon fill="white" stroke="#bfbfbf" points="650.596,-425 650.596,-445 709.404,-445 709.404,-425 650.596,-425"/>
<text text-anchor="middle" x="680" y="-431" font-family="Helvetica,sans-Serif" font-size="10.00">functional</text>
</g>
<!-- Node6&#45;&gt;Node21 -->
<g id="edge21" class="edge"><title>Node6&#45;&gt;Node21</title>
<path fill="none" stroke="midnightblue" d="M680,-488.909C680,-478.919 680,-465.736 680,-455.028"/>
<polygon fill="midnightblue" stroke="midnightblue" points="683.5,-455.004 680,-445.004 676.5,-455.004 683.5,-455.004"/>
</g>
<!-- Node22 -->
<g id="node22" class="node"><title>Node22</title>
<polygon fill="white" stroke="#bfbfbf" points="727.5,-425 727.5,-445 756.5,-445 756.5,-425 727.5,-425"/>
<text text-anchor="middle" x="741.892" y="-431" font-family="Helvetica,sans-Serif" font-size="10.00">ios</text>
</g>
<!-- Node6&#45;&gt;Node22 -->
<g id="edge22" class="edge"><title>Node6&#45;&gt;Node22</title>
<path fill="none" stroke="midnightblue" d="M693.76,-488.909C703.539,-478.183 716.675,-463.776 726.77,-452.704"/>
<polygon fill="midnightblue" stroke="midnightblue" points="729.64,-454.751 733.791,-445.004 724.467,-450.035 729.64,-454.751"/>
</g>
<!-- Node23 -->
<g id="node23" class="node"><title>Node23</title>
<polygon fill="white" stroke="#bfbfbf" points="774.823,-425 774.823,-445 819.177,-445 819.177,-425 774.823,-425"/>
<text text-anchor="middle" x="797" y="-431" font-family="Helvetica,sans-Serif" font-size="10.00">thread</text>
</g>
<!-- Node6&#45;&gt;Node23 -->
<g id="edge23" class="edge"><title>Node6&#45;&gt;Node23</title>
<path fill="none" stroke="midnightblue" d="M705.966,-488.909C725.868,-477.341 753.137,-461.493 772.63,-450.164"/>
<polygon fill="midnightblue" stroke="midnightblue" points="774.622,-453.055 781.509,-445.004 771.104,-447.002 774.622,-453.055"/>
</g>
<!-- Node24 -->
<g id="node24" class="node"><title>Node24</title>
<g id="a_node24"><a xlink:href="run__loop_8h.xhtml" target="_top" xlink:title="ePub3/utilities/run\l_loop.h">
<polygon fill="white" stroke="black" points="537.254,-419 537.254,-451 632.746,-451 632.746,-419 537.254,-419"/>
<text text-anchor="start" x="545.254" y="-437" font-family="Helvetica,sans-Serif" font-size="10.00">ePub3/utilities/run</text>
<text text-anchor="middle" x="585" y="-425" font-family="Helvetica,sans-Serif" font-size="10.00">_loop.h</text>
</a>
</g>
</g>
<!-- Node6&#45;&gt;Node24 -->
<g id="edge24" class="edge"><title>Node6&#45;&gt;Node24</title>
<path fill="none" stroke="midnightblue" d="M658.916,-488.909C645.756,-479.489 628.629,-467.229 614.176,-456.884"/>
<polygon fill="midnightblue" stroke="midnightblue" points="616.193,-454.024 606.025,-451.049 612.119,-459.716 616.193,-454.024"/>
</g>
<!-- Node44 -->
<g id="node44" class="node"><title>Node44</title>
<g id="a_node44"><a xlink:href="make__unique_8h.xhtml" target="_top" xlink:title="ePub3/utilities/make\l_unique.h">
<polygon fill="white" stroke="black" points="1428.25,-291 1428.25,-323 1533.75,-323 1533.75,-291 1428.25,-291"/>
<text text-anchor="start" x="1436.25" y="-309" font-family="Helvetica,sans-Serif" font-size="10.00">ePub3/utilities/make</text>
<text text-anchor="middle" x="1481" y="-297" font-family="Helvetica,sans-Serif" font-size="10.00">_unique.h</text>
</a>
</g>
</g>
<!-- Node6&#45;&gt;Node44 -->
<g id="edge57" class="edge"><title>Node6&#45;&gt;Node44</title>
<path fill="none" stroke="midnightblue" d="M730.086,-489.833C733.091,-489.165 736.079,-488.547 739,-488 1011.63,-436.98 1097.34,-487.157 1354,-382 1388.91,-367.696 1425.86,-345.233 1450.84,-328.806"/>
<polygon fill="midnightblue" stroke="midnightblue" points="1453.1,-331.509 1459.48,-323.053 1449.22,-325.682 1453.1,-331.509"/>
</g>
<!-- Node47 -->
<g id="node47" class="node"><title>Node47</title>
<polygon fill="white" stroke="#bfbfbf" points="837.244,-425 837.244,-445 952.756,-445 952.756,-425 837.244,-425"/>
<text text-anchor="middle" x="895" y="-431" font-family="Helvetica,sans-Serif" font-size="10.00">google&#45;url/url_canon.h</text>
</g>
<!-- Node6&#45;&gt;Node47 -->
<g id="edge63" class="edge"><title>Node6&#45;&gt;Node47</title>
<path fill="none" stroke="midnightblue" d="M727.449,-488.993C766.333,-476.695 820.651,-459.515 856.78,-448.088"/>
<polygon fill="midnightblue" stroke="midnightblue" points="857.981,-451.379 866.46,-445.027 855.87,-444.705 857.981,-451.379"/>
</g>
<!-- Node48 -->
<g id="node48" class="node"><title>Node48</title>
<polygon fill="white" stroke="#bfbfbf" points="970.476,-425 970.476,-445 1071.52,-445 1071.52,-425 970.476,-425"/>
<text text-anchor="middle" x="1021" y="-431" font-family="Helvetica,sans-Serif" font-size="10.00">google&#45;url/url_util.h</text>
</g>
<!-- Node6&#45;&gt;Node48 -->
<g id="edge64" class="edge"><title>Node6&#45;&gt;Node48</title>
<path fill="none" stroke="midnightblue" d="M730.125,-490.026C733.12,-489.309 736.095,-488.628 739,-488 836.701,-466.891 863.255,-472.903 961,-452 966.943,-450.729 973.179,-449.242 979.289,-447.695"/>
<polygon fill="midnightblue" stroke="midnightblue" points="980.588,-450.974 989.381,-445.065 978.822,-444.2 980.588,-450.974"/>
</g>
<!-- Node8&#45;&gt;Node7 -->
<g id="edge8" class="edge"><title>Node8&#45;&gt;Node7</title>
<path fill="none" stroke="midnightblue" d="M358.043,-418.992C352.837,-410.267 346.242,-399.216 340.755,-390.023"/>
<polygon fill="midnightblue" stroke="midnightblue" points="343.674,-388.084 335.544,-381.29 337.663,-391.671 343.674,-388.084"/>
</g>
<!-- Node9 -->
<g id="node9" class="node"><title>Node9</title>
<g id="a_node9"><a xlink:href="basic_8h.xhtml" target="_top" xlink:title="ePub3/utilities/basic.h">
<polygon fill="white" stroke="black" points="496.638,-297 496.638,-317 609.362,-317 609.362,-297 496.638,-297"/>
<text text-anchor="middle" x="553" y="-303" font-family="Helvetica,sans-Serif" font-size="10.00">ePub3/utilities/basic.h</text>
</a>
</g>
</g>
<!-- Node8&#45;&gt;Node9 -->
<g id="edge9" class="edge"><title>Node8&#45;&gt;Node9</title>
<path fill="none" stroke="midnightblue" d="M325.958,-418.991C294.529,-405.218 259.585,-383.446 279,-360 304.791,-328.854 413.576,-316.214 486.071,-311.191"/>
<polygon fill="midnightblue" stroke="midnightblue" points="486.742,-314.654 496.49,-310.504 486.281,-307.669 486.742,-314.654"/>
</g>
<!-- Node20 -->
<g id="node20" class="node"><title>Node20</title>
<polygon fill="white" stroke="#bfbfbf" points="390.384,-361 390.384,-381 433.616,-381 433.616,-361 390.384,-361"/>
<text text-anchor="middle" x="412" y="-367" font-family="Helvetica,sans-Serif" font-size="10.00">mutex</text>
</g>
<!-- Node8&#45;&gt;Node20 -->
<g id="edge20" class="edge"><title>Node8&#45;&gt;Node20</title>
<path fill="none" stroke="midnightblue" d="M377.893,-418.992C384.359,-410.084 392.585,-398.75 399.339,-389.445"/>
<polygon fill="midnightblue" stroke="midnightblue" points="402.216,-391.439 405.257,-381.29 396.55,-387.328 402.216,-391.439"/>
</g>
<!-- Node10 -->
<g id="node10" class="node"><title>Node10</title>
<g id="a_node10"><a xlink:href="base_8h.xhtml" target="_top" xlink:title="ePub3/base.h">
<polygon fill="white" stroke="black" points="1082.14,-175 1082.14,-195 1159.86,-195 1159.86,-175 1082.14,-175"/>
<text text-anchor="middle" x="1121" y="-181" font-family="Helvetica,sans-Serif" font-size="10.00">ePub3/base.h</text>
</a>
</g>
</g>
<!-- Node9&#45;&gt;Node10 -->
<g id="edge10" class="edge"><title>Node9&#45;&gt;Node10</title>
<path fill="none" stroke="midnightblue" d="M553.214,-296.939C554.129,-280.929 558.542,-247.838 579,-232 617.495,-202.199 945.625,-190.561 1071.82,-187.162"/>
<polygon fill="midnightblue" stroke="midnightblue" points="1072.07,-190.656 1081.98,-186.894 1071.89,-183.659 1072.07,-190.656"/>
</g>
<!-- Node15 -->
<g id="node15" class="node"><title>Node15</title>
<polygon fill="white" stroke="#bfbfbf" points="587.815,-233 587.815,-253 702.185,-253 702.185,-233 587.815,-233"/>
<text text-anchor="middle" x="645" y="-239" font-family="Helvetica,sans-Serif" font-size="10.00">ePub3/xml/xmlstring.h</text>
</g>
<!-- Node9&#45;&gt;Node15 -->
<g id="edge15" class="edge"><title>Node9&#45;&gt;Node15</title>
<path fill="none" stroke="midnightblue" d="M566.575,-296.852C581.387,-286.87 605.326,-270.737 622.864,-258.918"/>
<polygon fill="midnightblue" stroke="midnightblue" points="625.033,-261.677 631.369,-253.186 621.121,-255.872 625.033,-261.677"/>
</g>
<!-- Node16 -->
<g id="node16" class="node"><title>Node16</title>
<polygon fill="white" stroke="#bfbfbf" points="480.219,-233 480.219,-253 531.781,-253 531.781,-233 480.219,-233"/>
<text text-anchor="middle" x="506" y="-239" font-family="Helvetica,sans-Serif" font-size="10.00">sstream</text>
</g>
<!-- Node9&#45;&gt;Node16 -->
<g id="edge16" class="edge"><title>Node9&#45;&gt;Node16</title>
<path fill="none" stroke="midnightblue" d="M546.065,-296.852C538.984,-287.511 527.82,-272.784 519.073,-261.246"/>
<polygon fill="midnightblue" stroke="midnightblue" points="521.794,-259.041 512.963,-253.186 516.215,-263.269 521.794,-259.041"/>
</g>
<!-- Node17 -->
<g id="node17" class="node"><title>Node17</title>
<polygon fill="white" stroke="#bfbfbf" points="1177.94,-175 1177.94,-195 1230.06,-195 1230.06,-175 1177.94,-175"/>
<text text-anchor="middle" x="1204" y="-181" font-family="Helvetica,sans-Serif" font-size="10.00">memory</text>
</g>
<!-- Node9&#45;&gt;Node17 -->
<g id="edge17" class="edge"><title>Node9&#45;&gt;Node17</title>
<path fill="none" stroke="midnightblue" d="M580.408,-296.972C637.654,-278.168 766.33,-236.195 787,-232 953.689,-198.167 1000.74,-226.882 1168,-196 1168.1,-195.982 1168.2,-195.963 1168.3,-195.944"/>
<polygon fill="midnightblue" stroke="midnightblue" points="1168.76,-199.426 1177.78,-193.861 1167.26,-192.589 1168.76,-199.426"/>
</g>
<!-- Node18 -->
<g id="node18" class="node"><title>Node18</title>
<polygon fill="white" stroke="#bfbfbf" points="796.384,-233 796.384,-253 839.616,-253 839.616,-233 796.384,-233"/>
<text text-anchor="middle" x="818" y="-239" font-family="Helvetica,sans-Serif" font-size="10.00">vector</text>
</g>
<!-- Node9&#45;&gt;Node18 -->
<g id="edge18" class="edge"><title>Node9&#45;&gt;Node18</title>
<path fill="none" stroke="midnightblue" d="M589.061,-296.951C598.47,-294.638 608.605,-292.187 618,-290 690.681,-273.08 709.577,-271.993 782,-254 783.456,-253.638 784.942,-253.26 786.442,-252.872"/>
<polygon fill="midnightblue" stroke="midnightblue" points="787.593,-256.187 796.349,-250.221 785.784,-249.425 787.593,-256.187"/>
</g>
<!-- Node19 -->
<g id="node19" class="node"><title>Node19</title>
<polygon fill="white" stroke="#bfbfbf" points="433.5,-233 433.5,-253 462.5,-253 462.5,-233 433.5,-233"/>
<text text-anchor="middle" x="447.611" y="-239" font-family="Helvetica,sans-Serif" font-size="10.00">list</text>
</g>
<!-- Node9&#45;&gt;Node19 -->
<g id="edge19" class="edge"><title>Node9&#45;&gt;Node19</title>
<path fill="none" stroke="midnightblue" d="M537.507,-296.852C520.074,-286.558 491.563,-269.723 471.41,-257.823"/>
<polygon fill="midnightblue" stroke="midnightblue" points="472.932,-254.657 462.541,-252.586 469.373,-260.685 472.932,-254.657"/>
</g>
<!-- Node11 -->
<g id="node11" class="node"><title>Node11</title>
<g id="a_node11"><a xlink:href="__config_8h.xhtml" target="_top" xlink:title="_config.h">
<polygon fill="white" stroke="black" points="1057.71,-117 1057.71,-137 1114.29,-137 1114.29,-117 1057.71,-117"/>
<text text-anchor="middle" x="1086" y="-123" font-family="Helvetica,sans-Serif" font-size="10.00">_config.h</text>
</a>
</g>
</g>
<!-- Node10&#45;&gt;Node11 -->
<g id="edge11" class="edge"><title>Node10&#45;&gt;Node11</title>
<path fill="none" stroke="midnightblue" d="M1115.22,-174.753C1110.28,-166.843 1103.02,-155.237 1096.98,-145.568"/>
<polygon fill="midnightblue" stroke="midnightblue" points="1099.94,-143.7 1091.67,-137.075 1094,-147.41 1099.94,-143.7"/>
</g>
<!-- Node14 -->
<g id="node14" class="node"><title>Node14</title>
<polygon fill="white" stroke="#bfbfbf" points="1132.16,-117 1132.16,-137 1179.84,-137 1179.84,-117 1132.16,-117"/>
<text text-anchor="middle" x="1156" y="-123" font-family="Helvetica,sans-Serif" font-size="10.00">stdlib.h</text>
</g>
<!-- Node10&#45;&gt;Node14 -->
<g id="edge14" class="edge"><title>Node10&#45;&gt;Node14</title>
<path fill="none" stroke="midnightblue" d="M1126.78,-174.753C1131.72,-166.843 1138.98,-155.237 1145.02,-145.568"/>
<polygon fill="midnightblue" stroke="midnightblue" points="1148,-147.41 1150.33,-137.075 1142.06,-143.7 1148,-147.41"/>
</g>
<!-- Node12 -->
<g id="node12" class="node"><title>Node12</title>
<g id="a_node12"><a xlink:href="__platform_8h.xhtml" target="_top" xlink:title="_platform.h">
<polygon fill="white" stroke="black" points="1052.99,-59 1052.99,-79 1119.01,-79 1119.01,-59 1052.99,-59"/>
<text text-anchor="middle" x="1086" y="-65" font-family="Helvetica,sans-Serif" font-size="10.00">_platform.h</text>
</a>
</g>
</g>
<!-- Node11&#45;&gt;Node12 -->
<g id="edge12" class="edge"><title>Node11&#45;&gt;Node12</title>
<path fill="none" stroke="midnightblue" d="M1086,-116.753C1086,-109.25 1086,-98.4238 1086,-89.0781"/>
<polygon fill="midnightblue" stroke="midnightblue" points="1089.5,-89.0752 1086,-79.0752 1082.5,-89.0752 1089.5,-89.0752"/>
</g>
<!-- Node13 -->
<g id="node13" class="node"><title>Node13</title>
<g id="a_node13"><a xlink:href="__compiler_8h.xhtml" target="_top" xlink:title="_compiler.h">
<polygon fill="white" stroke="black" points="1052.43,-1 1052.43,-21 1119.57,-21 1119.57,-1 1052.43,-1"/>
<text text-anchor="middle" x="1086" y="-7" font-family="Helvetica,sans-Serif" font-size="10.00">_compiler.h</text>
</a>
</g>
</g>
<!-- Node12&#45;&gt;Node13 -->
<g id="edge13" class="edge"><title>Node12&#45;&gt;Node13</title>
<path fill="none" stroke="midnightblue" d="M1086,-58.7527C1086,-51.2504 1086,-40.4238 1086,-31.0781"/>
<polygon fill="midnightblue" stroke="midnightblue" points="1089.5,-31.0752 1086,-21.0752 1082.5,-31.0752 1089.5,-31.0752"/>
</g>
<!-- Node24&#45;&gt;Node10 -->
<g id="edge25" class="edge"><title>Node24&#45;&gt;Node10</title>
<path fill="none" stroke="midnightblue" d="M633.056,-419.841C636.07,-419.161 639.068,-418.539 642,-418 784.244,-391.848 1172.62,-413.789 1286,-324 1320.3,-296.84 1348.25,-266.226 1321,-232 1318.6,-228.986 1228.12,-209.04 1169.69,-196.422"/>
<polygon fill="midnightblue" stroke="midnightblue" points="1170.41,-192.997 1159.89,-194.31 1168.93,-199.839 1170.41,-192.997"/>
</g>
<!-- Node25 -->
<g id="node25" class="node"><title>Node25</title>
<polygon fill="white" stroke="#bfbfbf" points="489.695,-361 489.695,-381 586.305,-381 586.305,-361 489.695,-361"/>
<text text-anchor="middle" x="538" y="-367" font-family="Helvetica,sans-Serif" font-size="10.00">condition_variable</text>
</g>
<!-- Node24&#45;&gt;Node25 -->
<g id="edge26" class="edge"><title>Node24&#45;&gt;Node25</title>
<path fill="none" stroke="midnightblue" d="M573.623,-418.992C566.87,-410.084 558.278,-398.75 551.224,-389.445"/>
<polygon fill="midnightblue" stroke="midnightblue" points="553.873,-387.145 545.043,-381.29 548.295,-391.374 553.873,-387.145"/>
</g>
<!-- Node26 -->
<g id="node26" class="node"><title>Node26</title>
<polygon fill="white" stroke="#bfbfbf" points="603.872,-361 603.872,-381 662.128,-381 662.128,-361 603.872,-361"/>
<text text-anchor="middle" x="633" y="-367" font-family="Helvetica,sans-Serif" font-size="10.00">pthread.h</text>
</g>
<!-- Node24&#45;&gt;Node26 -->
<g id="edge27" class="edge"><title>Node24&#45;&gt;Node26</title>
<path fill="none" stroke="midnightblue" d="M596.619,-418.992C603.516,-410.084 612.291,-398.75 619.495,-389.445"/>
<polygon fill="midnightblue" stroke="midnightblue" points="622.453,-391.34 625.807,-381.29 616.918,-387.055 622.453,-391.34"/>
</g>
<!-- Node27 -->
<g id="node27" class="node"><title>Node27</title>
<polygon fill="white" stroke="#bfbfbf" points="680.384,-361 680.384,-381 723.616,-381 723.616,-361 680.384,-361"/>
<text text-anchor="middle" x="702" y="-367" font-family="Helvetica,sans-Serif" font-size="10.00">time.h</text>
</g>
<!-- Node24&#45;&gt;Node27 -->
<g id="edge28" class="edge"><title>Node24&#45;&gt;Node27</title>
<path fill="none" stroke="midnightblue" d="M613.322,-418.992C632.327,-408.92 657.184,-395.749 675.744,-385.914"/>
<polygon fill="midnightblue" stroke="midnightblue" points="677.614,-388.884 684.811,-381.109 674.336,-382.699 677.614,-388.884"/>
</g>
<!-- Node24&#45;&gt;Node7 -->
<g id="edge29" class="edge"><title>Node24&#45;&gt;Node7</title>
<path fill="none" stroke="midnightblue" d="M537.036,-422.338C491.299,-411.218 422.825,-394.569 377.307,-383.502"/>
<polygon fill="midnightblue" stroke="midnightblue" points="377.937,-380.053 367.393,-381.092 376.283,-386.855 377.937,-380.053"/>
</g>
<!-- Node24&#45;&gt;Node9 -->
<g id="edge30" class="edge"><title>Node24&#45;&gt;Node9</title>
<path fill="none" stroke="midnightblue" d="M632.852,-420.398C635.943,-419.572 639.013,-418.766 642,-418 713.25,-399.736 843.602,-416.907 797,-360 745.586,-297.217 697.194,-341.702 618,-324 611.748,-322.602 605.174,-321.065 598.708,-319.512"/>
<polygon fill="midnightblue" stroke="midnightblue" points="599.24,-316.04 588.696,-317.079 597.586,-322.842 599.24,-316.04"/>
</g>
<!-- Node28 -->
<g id="node28" class="node"><title>Node28</title>
<g id="a_node28"><a xlink:href="utfstring_8h.xhtml" target="_top" xlink:title="ePub3/utilities/utfstring.h">
<polygon fill="white" stroke="black" points="907.525,-361 907.525,-381 1032.48,-381 1032.48,-361 907.525,-361"/>
<text text-anchor="middle" x="970" y="-367" font-family="Helvetica,sans-Serif" font-size="10.00">ePub3/utilities/utfstring.h</text>
</a>
</g>
</g>
<!-- Node24&#45;&gt;Node28 -->
<g id="edge31" class="edge"><title>Node24&#45;&gt;Node28</title>
<path fill="none" stroke="midnightblue" d="M632.779,-420.086C635.889,-419.336 638.982,-418.632 642,-418 645.121,-417.346 801.546,-395.492 897.222,-382.146"/>
<polygon fill="midnightblue" stroke="midnightblue" points="897.721,-385.61 907.142,-380.762 896.754,-378.677 897.721,-385.61"/>
</g>
<!-- Node42 -->
<g id="node42" class="node"><title>Node42</title>
<polygon fill="white" stroke="#bfbfbf" points="741.712,-361 741.712,-381 788.288,-381 788.288,-361 741.712,-361"/>
<text text-anchor="middle" x="765" y="-367" font-family="Helvetica,sans-Serif" font-size="10.00">chrono</text>
</g>
<!-- Node24&#45;&gt;Node42 -->
<g id="edge53" class="edge"><title>Node24&#45;&gt;Node42</title>
<path fill="none" stroke="midnightblue" d="M628.573,-418.992C660.404,-408.028 702.904,-393.389 731.959,-383.381"/>
<polygon fill="midnightblue" stroke="midnightblue" points="733.32,-386.614 741.635,-380.048 731.041,-379.995 733.32,-386.614"/>
</g>
<!-- Node24&#45;&gt;Node19 -->
<g id="edge54" class="edge"><title>Node24&#45;&gt;Node19</title>
<path fill="none" stroke="midnightblue" d="M537.177,-420.175C517.107,-412.092 495.182,-399.866 481,-382 453.148,-346.912 448.214,-292.034 447.692,-263.191"/>
<polygon fill="midnightblue" stroke="midnightblue" points="451.192,-263.182 447.674,-253.188 444.192,-263.194 451.192,-263.182"/>
</g>
<!-- Node24&#45;&gt;Node20 -->
<g id="edge55" class="edge"><title>Node24&#45;&gt;Node20</title>
<path fill="none" stroke="midnightblue" d="M543.122,-418.992C512.484,-408.012 471.562,-393.346 443.635,-383.337"/>
<polygon fill="midnightblue" stroke="midnightblue" points="444.571,-379.955 433.976,-379.876 442.209,-386.545 444.571,-379.955"/>
</g>
<!-- Node43 -->
<g id="node43" class="node"><title>Node43</title>
<polygon fill="white" stroke="#bfbfbf" points="844.273,-361 844.273,-381 889.727,-381 889.727,-361 844.273,-361"/>
<text text-anchor="middle" x="867" y="-367" font-family="Helvetica,sans-Serif" font-size="10.00">atomic</text>
</g>
<!-- Node24&#45;&gt;Node43 -->
<g id="edge56" class="edge"><title>Node24&#45;&gt;Node43</title>
<path fill="none" stroke="midnightblue" d="M632.818,-420.261C635.918,-419.468 638.999,-418.707 642,-418 724.806,-398.487 747.101,-401.112 830,-382 831.277,-381.706 832.576,-381.398 833.886,-381.079"/>
<polygon fill="midnightblue" stroke="midnightblue" points="835.148,-384.37 843.974,-378.509 833.42,-377.586 835.148,-384.37"/>
</g>
<!-- Node28&#45;&gt;Node9 -->
<g id="edge32" class="edge"><title>Node28&#45;&gt;Node9</title>
<path fill="none" stroke="midnightblue" d="M907.176,-361.236C904.074,-360.816 901.002,-360.401 898,-360 773.638,-343.37 741.337,-347.032 618,-324 611.092,-322.71 603.821,-321.137 596.744,-319.486"/>
<polygon fill="midnightblue" stroke="midnightblue" points="597.12,-315.976 586.578,-317.036 595.48,-322.782 597.12,-315.976"/>
</g>
<!-- Node29 -->
<g id="node29" class="node"><title>Node29</title>
<g id="a_node29"><a xlink:href="integer__sequence_8h.xhtml" target="_top" xlink:title="ePub3/utilities/integer\l_sequence.h">
<polygon fill="white" stroke="black" points="627.192,-291 627.192,-323 738.808,-323 738.808,-291 627.192,-291"/>
<text text-anchor="start" x="635.192" y="-309" font-family="Helvetica,sans-Serif" font-size="10.00">ePub3/utilities/integer</text>
<text text-anchor="middle" x="683" y="-297" font-family="Helvetica,sans-Serif" font-size="10.00">_sequence.h</text>
</a>
</g>
</g>
<!-- Node28&#45;&gt;Node29 -->
<g id="edge33" class="edge"><title>Node28&#45;&gt;Node29</title>
<path fill="none" stroke="midnightblue" d="M926.314,-360.951C882.461,-351.818 812.987,-337.213 753,-324 751.733,-323.721 750.454,-323.438 749.164,-323.152"/>
<polygon fill="midnightblue" stroke="midnightblue" points="749.669,-319.679 739.146,-320.916 748.143,-326.511 749.669,-319.679"/>
</g>
<!-- Node30 -->
<g id="node30" class="node"><title>Node30</title>
<g id="a_node30"><a xlink:href="string__view_8h.xhtml" target="_top" xlink:title="ePub3/utilities/string\l_view.h">
<polygon fill="white" stroke="black" points="1130.25,-291 1130.25,-323 1235.75,-323 1235.75,-291 1130.25,-291"/>
<text text-anchor="start" x="1138.25" y="-309" font-family="Helvetica,sans-Serif" font-size="10.00">ePub3/utilities/string</text>
<text text-anchor="middle" x="1183" y="-297" font-family="Helvetica,sans-Serif" font-size="10.00">_view.h</text>
</a>
</g>
</g>
<!-- Node28&#45;&gt;Node30 -->
<g id="edge35" class="edge"><title>Node28&#45;&gt;Node30</title>
<path fill="none" stroke="midnightblue" d="M1000.97,-360.985C1032.46,-351.82 1082.09,-337.374 1121.58,-325.88"/>
<polygon fill="midnightblue" stroke="midnightblue" points="1122.76,-329.181 1131.38,-323.026 1120.8,-322.46 1122.76,-329.181"/>
</g>
<!-- Node32 -->
<g id="node32" class="node"><title>Node32</title>
<polygon fill="white" stroke="#bfbfbf" points="1214.77,-233 1214.77,-253 1255.23,-253 1255.23,-233 1214.77,-233"/>
<text text-anchor="middle" x="1235" y="-239" font-family="Helvetica,sans-Serif" font-size="10.00">string</text>
</g>
<!-- Node28&#45;&gt;Node32 -->
<g id="edge44" class="edge"><title>Node28&#45;&gt;Node32</title>
<path fill="none" stroke="midnightblue" d="M1032.71,-368.525C1105.05,-365.344 1217.48,-355.345 1244,-324 1258.34,-307.054 1251.42,-280.341 1244.1,-262.504"/>
<polygon fill="midnightblue" stroke="midnightblue" points="1247.2,-260.854 1239.91,-253.168 1240.81,-263.724 1247.2,-260.854"/>
</g>
<!-- Node37 -->
<g id="node37" class="node"><title>Node37</title>
<polygon fill="white" stroke="#bfbfbf" points="795.438,-297 795.438,-317 842.562,-317 842.562,-297 795.438,-297"/>
<text text-anchor="middle" x="819" y="-303" font-family="Helvetica,sans-Serif" font-size="10.00">iterator</text>
</g>
<!-- Node28&#45;&gt;Node37 -->
<g id="edge45" class="edge"><title>Node28&#45;&gt;Node37</title>
<path fill="none" stroke="midnightblue" d="M944.902,-360.879C920.851,-351.983 883.638,-337.81 852,-324 850.162,-323.198 848.276,-322.35 846.383,-321.482"/>
<polygon fill="midnightblue" stroke="midnightblue" points="847.571,-318.172 837.035,-317.065 844.581,-324.501 847.571,-318.172"/>
</g>
<!-- Node38 -->
<g id="node38" class="node"><title>Node38</title>
<polygon fill="white" stroke="#bfbfbf" points="860.936,-297 860.936,-317 903.064,-317 903.064,-297 860.936,-297"/>
<text text-anchor="middle" x="882" y="-303" font-family="Helvetica,sans-Serif" font-size="10.00">locale</text>
</g>
<!-- Node28&#45;&gt;Node38 -->
<g id="edge46" class="edge"><title>Node28&#45;&gt;Node38</title>
<path fill="none" stroke="midnightblue" d="M957.015,-360.852C942.977,-350.961 920.369,-335.033 903.637,-323.244"/>
<polygon fill="midnightblue" stroke="midnightblue" points="905.229,-320.084 895.038,-317.186 901.197,-325.807 905.229,-320.084"/>
</g>
<!-- Node28&#45;&gt;Node18 -->
<g id="edge47" class="edge"><title>Node28&#45;&gt;Node18</title>
<path fill="none" stroke="midnightblue" d="M920.883,-360.935C869.28,-350.915 794.41,-334.771 786,-324 771.127,-304.951 787.772,-278.082 802.077,-260.851"/>
<polygon fill="midnightblue" stroke="midnightblue" points="804.791,-263.065 808.763,-253.243 799.532,-258.444 804.791,-263.065"/>
</g>
<!-- Node28&#45;&gt;Node4 -->
<g id="edge48" class="edge"><title>Node28&#45;&gt;Node4</title>
<path fill="none" stroke="midnightblue" d="M907.195,-361.086C904.088,-360.705 901.01,-360.34 898,-360 884.825,-358.51 512.689,-326.19 363.756,-313.269"/>
<polygon fill="midnightblue" stroke="midnightblue" points="363.691,-309.75 353.426,-312.373 363.086,-316.724 363.691,-309.75"/>
</g>
<!-- Node39 -->
<g id="node39" class="node"><title>Node39</title>
<polygon fill="white" stroke="#bfbfbf" points="921.273,-297 921.273,-317 956.727,-317 956.727,-297 921.273,-297"/>
<text text-anchor="middle" x="939" y="-303" font-family="Helvetica,sans-Serif" font-size="10.00">map</text>
</g>
<!-- Node28&#45;&gt;Node39 -->
<g id="edge49" class="edge"><title>Node28&#45;&gt;Node39</title>
<path fill="none" stroke="midnightblue" d="M965.426,-360.852C960.893,-351.785 953.823,-337.645 948.136,-326.272"/>
<polygon fill="midnightblue" stroke="midnightblue" points="951.196,-324.565 943.593,-317.186 944.935,-327.695 951.196,-324.565"/>
</g>
<!-- Node40 -->
<g id="node40" class="node"><title>Node40</title>
<polygon fill="white" stroke="#bfbfbf" points="974.599,-297 974.599,-317 1033.4,-317 1033.4,-297 974.599,-297"/>
<text text-anchor="middle" x="1004" y="-303" font-family="Helvetica,sans-Serif" font-size="10.00">stdexcept</text>
</g>
<!-- Node28&#45;&gt;Node40 -->
<g id="edge50" class="edge"><title>Node28&#45;&gt;Node40</title>
<path fill="none" stroke="midnightblue" d="M975.017,-360.852C979.989,-351.785 987.743,-337.645 993.98,-326.272"/>
<polygon fill="midnightblue" stroke="midnightblue" points="997.223,-327.637 998.963,-317.186 991.085,-324.271 997.223,-327.637"/>
</g>
<!-- Node33 -->
<g id="node33" class="node"><title>Node33</title>
<polygon fill="white" stroke="#bfbfbf" points="1273.61,-233 1273.61,-253 1312.39,-253 1312.39,-233 1273.61,-233"/>
<text text-anchor="middle" x="1293" y="-239" font-family="Helvetica,sans-Serif" font-size="10.00">limits</text>
</g>
<!-- Node28&#45;&gt;Node33 -->
<g id="edge51" class="edge"><title>Node28&#45;&gt;Node33</title>
<path fill="none" stroke="midnightblue" d="M1032.59,-367.341C1107.64,-362.947 1227.65,-351.706 1262,-324 1280.52,-309.062 1288,-281.615 1291,-263.088"/>
<polygon fill="midnightblue" stroke="midnightblue" points="1294.48,-263.509 1292.33,-253.134 1287.54,-262.584 1294.48,-263.509"/>
</g>
<!-- Node41 -->
<g id="node41" class="node"><title>Node41</title>
<polygon fill="white" stroke="#bfbfbf" points="1051.76,-297 1051.76,-317 1112.24,-317 1112.24,-297 1051.76,-297"/>
<text text-anchor="middle" x="1082" y="-303" font-family="Helvetica,sans-Serif" font-size="10.00">utf8/utf8.h</text>
</g>
<!-- Node28&#45;&gt;Node41 -->
<g id="edge52" class="edge"><title>Node28&#45;&gt;Node41</title>
<path fill="none" stroke="midnightblue" d="M986.526,-360.852C1004.97,-350.641 1035.04,-333.994 1056.51,-322.112"/>
<polygon fill="midnightblue" stroke="midnightblue" points="1058.35,-325.091 1065.41,-317.186 1054.96,-318.967 1058.35,-325.091"/>
</g>
<!-- Node29&#45;&gt;Node10 -->
<g id="edge34" class="edge"><title>Node29&#45;&gt;Node10</title>
<path fill="none" stroke="midnightblue" d="M698.809,-290.954C718.016,-273.635 752.189,-245.809 787,-232 882.803,-193.996 1004.83,-186.509 1071.68,-185.539"/>
<polygon fill="midnightblue" stroke="midnightblue" points="1071.96,-189.036 1081.92,-185.435 1071.89,-182.037 1071.96,-189.036"/>
</g>
<!-- Node31 -->
<g id="node31" class="node"><title>Node31</title>
<polygon fill="white" stroke="#bfbfbf" points="1367.93,-233 1367.93,-253 1430.07,-253 1430.07,-233 1367.93,-233"/>
<text text-anchor="middle" x="1399" y="-239" font-family="Helvetica,sans-Serif" font-size="10.00">type_traits</text>
</g>
<!-- Node30&#45;&gt;Node31 -->
<g id="edge36" class="edge"><title>Node30&#45;&gt;Node31</title>
<path fill="none" stroke="midnightblue" d="M1235.29,-290.992C1273.02,-280.162 1323.23,-265.748 1358.06,-255.752"/>
<polygon fill="midnightblue" stroke="midnightblue" points="1359.25,-259.052 1367.89,-252.928 1357.32,-252.323 1359.25,-259.052"/>
</g>
<!-- Node30&#45;&gt;Node32 -->
<g id="edge37" class="edge"><title>Node30&#45;&gt;Node32</title>
<path fill="none" stroke="midnightblue" d="M1195.59,-290.992C1203.14,-281.992 1212.76,-270.516 1220.61,-261.157"/>
<polygon fill="midnightblue" stroke="midnightblue" points="1223.46,-263.202 1227.21,-253.29 1218.1,-258.703 1223.46,-263.202"/>
</g>
<!-- Node30&#45;&gt;Node33 -->
<g id="edge38" class="edge"><title>Node30&#45;&gt;Node33</title>
<path fill="none" stroke="midnightblue" d="M1209.63,-290.992C1227.33,-281.013 1250.44,-267.99 1267.83,-258.185"/>
<polygon fill="midnightblue" stroke="midnightblue" points="1269.85,-261.068 1276.84,-253.109 1266.41,-254.97 1269.85,-261.068"/>
</g>
<!-- Node34 -->
<g id="node34" class="node"><title>Node34</title>
<polygon fill="white" stroke="#bfbfbf" points="980.828,-233 980.828,-253 1035.17,-253 1035.17,-233 980.828,-233"/>
<text text-anchor="middle" x="1008" y="-239" font-family="Helvetica,sans-Serif" font-size="10.00">iostream</text>
</g>
<!-- Node30&#45;&gt;Node34 -->
<g id="edge39" class="edge"><title>Node30&#45;&gt;Node34</title>
<path fill="none" stroke="midnightblue" d="M1140.64,-290.992C1110.69,-280.38 1071.02,-266.327 1042.89,-256.361"/>
<polygon fill="midnightblue" stroke="midnightblue" points="1044.05,-253.059 1033.46,-253.018 1041.71,-259.657 1044.05,-253.059"/>
</g>
<!-- Node35 -->
<g id="node35" class="node"><title>Node35</title>
<polygon fill="white" stroke="#bfbfbf" points="1053.44,-233 1053.44,-253 1110.56,-253 1110.56,-233 1053.44,-233"/>
<text text-anchor="middle" x="1082" y="-239" font-family="Helvetica,sans-Serif" font-size="10.00">algorithm</text>
</g>
<!-- Node30&#45;&gt;Node35 -->
<g id="edge40" class="edge"><title>Node30&#45;&gt;Node35</title>
<path fill="none" stroke="midnightblue" d="M1158.55,-290.992C1142.45,-281.105 1121.47,-268.231 1105.55,-258.458"/>
<polygon fill="midnightblue" stroke="midnightblue" points="1107.19,-255.358 1096.84,-253.109 1103.53,-261.323 1107.19,-255.358"/>
</g>
<!-- Node36 -->
<g id="node36" class="node"><title>Node36</title>
<g id="a_node36"><a xlink:href="____strhash_8h.xhtml" target="_top" xlink:title="__strhash.h">
<polygon fill="white" stroke="black" points="1128.87,-233 1128.87,-253 1197.13,-253 1197.13,-233 1128.87,-233"/>
<text text-anchor="middle" x="1163" y="-239" font-family="Helvetica,sans-Serif" font-size="10.00">__strhash.h</text>
</a>
</g>
</g>
<!-- Node30&#45;&gt;Node36 -->
<g id="edge41" class="edge"><title>Node30&#45;&gt;Node36</title>
<path fill="none" stroke="midnightblue" d="M1178.16,-290.992C1175.43,-282.543 1172,-271.912 1169.1,-262.899"/>
<polygon fill="midnightblue" stroke="midnightblue" points="1172.4,-261.733 1166,-253.29 1165.74,-263.882 1172.4,-261.733"/>
</g>
<!-- Node36&#45;&gt;Node10 -->
<g id="edge42" class="edge"><title>Node36&#45;&gt;Node10</title>
<path fill="none" stroke="midnightblue" d="M1156.06,-232.753C1150.07,-224.761 1141.25,-212.998 1133.95,-203.27"/>
<polygon fill="midnightblue" stroke="midnightblue" points="1136.61,-200.975 1127.81,-195.075 1131.01,-205.175 1136.61,-200.975"/>
</g>
<!-- Node36&#45;&gt;Node17 -->
<g id="edge43" class="edge"><title>Node36&#45;&gt;Node17</title>
<path fill="none" stroke="midnightblue" d="M1169.77,-232.753C1175.62,-224.761 1184.23,-212.998 1191.36,-203.27"/>
<polygon fill="midnightblue" stroke="midnightblue" points="1194.27,-205.211 1197.36,-195.075 1188.62,-201.076 1194.27,-205.211"/>
</g>
<!-- Node44&#45;&gt;Node10 -->
<g id="edge58" class="edge"><title>Node44&#45;&gt;Node10</title>
<path fill="none" stroke="midnightblue" d="M1476.82,-290.7C1471.23,-273.412 1459.57,-245.881 1439,-232 1391.17,-199.731 1243.44,-205.518 1170.23,-195.906"/>
<polygon fill="midnightblue" stroke="midnightblue" points="1170.4,-192.393 1159.99,-194.37 1169.36,-199.315 1170.4,-192.393"/>
</g>
<!-- Node45 -->
<g id="node45" class="node"><title>Node45</title>
<polygon fill="white" stroke="#bfbfbf" points="1579.88,-233 1579.88,-253 1628.12,-253 1628.12,-233 1579.88,-233"/>
<text text-anchor="middle" x="1604" y="-239" font-family="Helvetica,sans-Serif" font-size="10.00">cstddef</text>
</g>
<!-- Node44&#45;&gt;Node45 -->
<g id="edge59" class="edge"><title>Node44&#45;&gt;Node45</title>
<path fill="none" stroke="midnightblue" d="M1510.77,-290.992C1530.94,-280.828 1557.37,-267.507 1576.93,-257.644"/>
<polygon fill="midnightblue" stroke="midnightblue" points="1578.58,-260.735 1585.93,-253.109 1575.42,-254.485 1578.58,-260.735"/>
</g>
<!-- Node44&#45;&gt;Node17 -->
<g id="edge60" class="edge"><title>Node44&#45;&gt;Node17</title>
<path fill="none" stroke="midnightblue" d="M1504.02,-290.871C1524.75,-275.425 1549.59,-251.073 1533,-232 1495.4,-188.779 1318.04,-184.937 1240.47,-185.384"/>
<polygon fill="midnightblue" stroke="midnightblue" points="1240.18,-181.887 1230.21,-185.472 1240.24,-188.886 1240.18,-181.887"/>
</g>
<!-- Node44&#45;&gt;Node31 -->
<g id="edge61" class="edge"><title>Node44&#45;&gt;Node31</title>
<path fill="none" stroke="midnightblue" d="M1461.15,-290.992C1448.52,-281.441 1432.2,-269.101 1419.45,-259.463"/>
<polygon fill="midnightblue" stroke="midnightblue" points="1421.37,-256.53 1411.29,-253.29 1417.15,-262.113 1421.37,-256.53"/>
</g>
<!-- Node46 -->
<g id="node46" class="node"><title>Node46</title>
<polygon fill="white" stroke="#bfbfbf" points="1485.61,-233 1485.61,-253 1524.39,-253 1524.39,-233 1485.61,-233"/>
<text text-anchor="middle" x="1505" y="-239" font-family="Helvetica,sans-Serif" font-size="10.00">utility</text>
</g>
<!-- Node44&#45;&gt;Node46 -->
<g id="edge62" class="edge"><title>Node44&#45;&gt;Node46</title>
<path fill="none" stroke="midnightblue" d="M1486.81,-290.992C1490.08,-282.543 1494.2,-271.912 1497.68,-262.899"/>
<polygon fill="midnightblue" stroke="midnightblue" points="1501.06,-263.88 1501.4,-253.29 1494.53,-261.353 1501.06,-263.88"/>
</g>
</g>
</svg>
