<?xml version="1.0" encoding="UTF-8" standalone="no"?>
<!DOCTYPE svg PUBLIC "-//W3C//DTD SVG 1.1//EN"
 "http://www.w3.org/Graphics/SVG/1.1/DTD/svg11.dtd">
<!-- Generated by graphviz version 2.30.0 (20130114.0426)
 -->
<!-- Title: /Users/rkwright/Documents/github/readium&#45;sdk&#45;D/ePub3/ePub/archive_xml.cpp Pages: 1 -->
<svg width="666pt" height="414pt"
 viewBox="0.00 0.00 665.99 414.00" xmlns="http://www.w3.org/2000/svg" xmlns:xlink="http://www.w3.org/1999/xlink">
<g id="graph0" class="graph" transform="scale(1 1) rotate(0) translate(4 410)">
<title>/Users/rkwright/Documents/github/readium&#45;sdk&#45;D/ePub3/ePub/archive_xml.cpp</title>
<polygon fill="white" stroke="white" points="-4,5 -4,-410 662.989,-410 662.989,5 -4,5"/>
<!-- Node1 -->
<g id="node1" class="node"><title>Node1</title>
<polygon fill="#bfbfbf" stroke="black" points="420.966,-361 420.966,-405 567.034,-405 567.034,-361 420.966,-361"/>
<text text-anchor="start" x="428.966" y="-391" font-family="Helvetica,sans-Serif" font-size="10.00">/Users/rkwright/Documents</text>
<text text-anchor="start" x="428.966" y="-379" font-family="Helvetica,sans-Serif" font-size="10.00">/github/readium&#45;sdk&#45;D/ePub3</text>
<text text-anchor="middle" x="494" y="-367" font-family="Helvetica,sans-Serif" font-size="10.00">/ePub/archive_xml.cpp</text>
</g>
<!-- Node2 -->
<g id="node2" class="node"><title>Node2</title>
<g id="a_node2"><a xlink:href="archive__xml_8h.xhtml" target="_top" xlink:title="archive_xml.h">
<polygon fill="white" stroke="black" points="158.155,-297 158.155,-317 235.845,-317 235.845,-297 158.155,-297"/>
<text text-anchor="middle" x="197" y="-303" font-family="Helvetica,sans-Serif" font-size="10.00">archive_xml.h</text>
</a>
</g>
</g>
<!-- Node1&#45;&gt;Node2 -->
<g id="edge1" class="edge"><title>Node1&#45;&gt;Node2</title>
<path fill="none" stroke="midnightblue" d="M420.965,-363.803C365.324,-349.939 290.431,-331.279 242.924,-319.442"/>
<polygon fill="midnightblue" stroke="midnightblue" points="243.769,-316.046 233.219,-317.024 242.076,-322.838 243.769,-316.046"/>
</g>
<!-- Node6 -->
<g id="node6" class="node"><title>Node6</title>
<g id="a_node6"><a xlink:href="error__handler_8h.xhtml" target="_top" xlink:title="ePub3/utilities/error\l_handler.h">
<polygon fill="white" stroke="black" points="442.924,-291 442.924,-323 545.076,-323 545.076,-291 442.924,-291"/>
<text text-anchor="start" x="450.924" y="-309" font-family="Helvetica,sans-Serif" font-size="10.00">ePub3/utilities/error</text>
<text text-anchor="middle" x="494" y="-297" font-family="Helvetica,sans-Serif" font-size="10.00">_handler.h</text>
</a>
</g>
</g>
<!-- Node1&#45;&gt;Node6 -->
<g id="edge5" class="edge"><title>Node1&#45;&gt;Node6</title>
<path fill="none" stroke="midnightblue" d="M494,-360.993C494,-352.487 494,-342.584 494,-333.657"/>
<polygon fill="midnightblue" stroke="midnightblue" points="497.5,-333.411 494,-323.412 490.5,-333.412 497.5,-333.411"/>
</g>
<!-- Node14 -->
<g id="node14" class="node"><title>Node14</title>
<polygon fill="white" stroke="#bfbfbf" points="581.219,-175 581.219,-195 632.781,-195 632.781,-175 581.219,-175"/>
<text text-anchor="middle" x="607" y="-181" font-family="Helvetica,sans-Serif" font-size="10.00">sstream</text>
</g>
<!-- Node1&#45;&gt;Node14 -->
<g id="edge20" class="edge"><title>Node1&#45;&gt;Node14</title>
<path fill="none" stroke="midnightblue" d="M538.929,-360.82C577.695,-339.788 631.103,-303.528 655,-254 664.411,-234.494 646.351,-214.521 629.76,-201.313"/>
<polygon fill="midnightblue" stroke="midnightblue" points="631.48,-198.23 621.371,-195.061 627.297,-203.843 631.48,-198.23"/>
</g>
<!-- Node3 -->
<g id="node3" class="node"><title>Node3</title>
<polygon fill="white" stroke="#bfbfbf" points="-0.920898,-233 -0.920898,-253 82.9209,-253 82.9209,-233 -0.920898,-233"/>
<text text-anchor="middle" x="41" y="-239" font-family="Helvetica,sans-Serif" font-size="10.00">ePub3/epub3.h</text>
</g>
<!-- Node2&#45;&gt;Node3 -->
<g id="edge2" class="edge"><title>Node2&#45;&gt;Node3</title>
<path fill="none" stroke="midnightblue" d="M174.316,-296.985C147.744,-286.424 103.524,-268.849 73.3571,-256.86"/>
<polygon fill="midnightblue" stroke="midnightblue" points="74.2968,-253.467 63.7111,-253.026 71.7114,-259.972 74.2968,-253.467"/>
</g>
<!-- Node4 -->
<g id="node4" class="node"><title>Node4</title>
<polygon fill="white" stroke="#bfbfbf" points="100.865,-233 100.865,-253 189.135,-253 189.135,-233 100.865,-233"/>
<text text-anchor="middle" x="145" y="-239" font-family="Helvetica,sans-Serif" font-size="10.00">ePub3/archive.h</text>
</g>
<!-- Node2&#45;&gt;Node4 -->
<g id="edge3" class="edge"><title>Node2&#45;&gt;Node4</title>
<path fill="none" stroke="midnightblue" d="M189.327,-296.852C181.416,-287.419 168.899,-272.495 159.18,-260.907"/>
<polygon fill="midnightblue" stroke="midnightblue" points="161.812,-258.599 152.704,-253.186 156.449,-263.097 161.812,-258.599"/>
</g>
<!-- Node5 -->
<g id="node5" class="node"><title>Node5</title>
<polygon fill="white" stroke="#bfbfbf" points="206.926,-233 206.926,-253 289.074,-253 289.074,-233 206.926,-233"/>
<text text-anchor="middle" x="248" y="-239" font-family="Helvetica,sans-Serif" font-size="10.00">ePub3/xml/io.h</text>
</g>
<!-- Node2&#45;&gt;Node5 -->
<g id="edge4" class="edge"><title>Node2&#45;&gt;Node5</title>
<path fill="none" stroke="midnightblue" d="M204.525,-296.852C212.209,-287.511 224.323,-272.784 233.814,-261.246"/>
<polygon fill="midnightblue" stroke="midnightblue" points="236.794,-263.132 240.444,-253.186 231.388,-258.685 236.794,-263.132"/>
</g>
<!-- Node7 -->
<g id="node7" class="node"><title>Node7</title>
<g id="a_node7"><a xlink:href="basic_8h.xhtml" target="_top" xlink:title="ePub3/utilities/basic.h">
<polygon fill="white" stroke="black" points="306.638,-233 306.638,-253 419.362,-253 419.362,-233 306.638,-233"/>
<text text-anchor="middle" x="363" y="-239" font-family="Helvetica,sans-Serif" font-size="10.00">ePub3/utilities/basic.h</text>
</a>
</g>
</g>
<!-- Node6&#45;&gt;Node7 -->
<g id="edge6" class="edge"><title>Node6&#45;&gt;Node7</title>
<path fill="none" stroke="midnightblue" d="M462.289,-290.992C440.717,-280.782 412.411,-267.385 391.544,-257.509"/>
<polygon fill="midnightblue" stroke="midnightblue" points="392.782,-254.223 382.246,-253.109 389.787,-260.55 392.782,-254.223"/>
</g>
<!-- Node18 -->
<g id="node18" class="node"><title>Node18</title>
<polygon fill="white" stroke="#bfbfbf" points="437.608,-233 437.608,-253 476.392,-253 476.392,-233 437.608,-233"/>
<text text-anchor="middle" x="457" y="-239" font-family="Helvetica,sans-Serif" font-size="10.00">array</text>
</g>
<!-- Node6&#45;&gt;Node18 -->
<g id="edge17" class="edge"><title>Node6&#45;&gt;Node18</title>
<path fill="none" stroke="midnightblue" d="M485.043,-290.992C479.837,-282.267 473.242,-271.216 467.755,-262.023"/>
<polygon fill="midnightblue" stroke="midnightblue" points="470.674,-260.084 462.544,-253.29 464.663,-263.671 470.674,-260.084"/>
</g>
<!-- Node19 -->
<g id="node19" class="node"><title>Node19</title>
<polygon fill="white" stroke="#bfbfbf" points="494.828,-233 494.828,-253 569.172,-253 569.172,-233 494.828,-233"/>
<text text-anchor="middle" x="532" y="-239" font-family="Helvetica,sans-Serif" font-size="10.00">system_error</text>
</g>
<!-- Node6&#45;&gt;Node19 -->
<g id="edge18" class="edge"><title>Node6&#45;&gt;Node19</title>
<path fill="none" stroke="midnightblue" d="M503.199,-290.992C508.546,-282.267 515.319,-271.216 520.954,-262.023"/>
<polygon fill="midnightblue" stroke="midnightblue" points="524.064,-263.645 526.306,-253.29 518.096,-259.987 524.064,-263.645"/>
</g>
<!-- Node20 -->
<g id="node20" class="node"><title>Node20</title>
<polygon fill="white" stroke="#bfbfbf" points="587.596,-233 587.596,-253 646.404,-253 646.404,-233 587.596,-233"/>
<text text-anchor="middle" x="617" y="-239" font-family="Helvetica,sans-Serif" font-size="10.00">functional</text>
</g>
<!-- Node6&#45;&gt;Node20 -->
<g id="edge19" class="edge"><title>Node6&#45;&gt;Node20</title>
<path fill="none" stroke="midnightblue" d="M523.775,-290.992C543.938,-280.828 570.366,-267.507 589.933,-257.644"/>
<polygon fill="midnightblue" stroke="midnightblue" points="591.575,-260.735 598.929,-253.109 588.424,-254.485 591.575,-260.735"/>
</g>
<!-- Node8 -->
<g id="node8" class="node"><title>Node8</title>
<g id="a_node8"><a xlink:href="base_8h.xhtml" target="_top" xlink:title="ePub3/base.h">
<polygon fill="white" stroke="black" points="109.141,-175 109.141,-195 186.859,-195 186.859,-175 109.141,-175"/>
<text text-anchor="middle" x="148" y="-181" font-family="Helvetica,sans-Serif" font-size="10.00">ePub3/base.h</text>
</a>
</g>
</g>
<!-- Node7&#45;&gt;Node8 -->
<g id="edge7" class="edge"><title>Node7&#45;&gt;Node8</title>
<path fill="none" stroke="midnightblue" d="M327.978,-232.878C291.011,-223.249 232.641,-208.046 192.452,-197.578"/>
<polygon fill="midnightblue" stroke="midnightblue" points="193.21,-194.159 182.651,-195.025 191.446,-200.933 193.21,-194.159"/>
</g>
<!-- Node13 -->
<g id="node13" class="node"><title>Node13</title>
<polygon fill="white" stroke="#bfbfbf" points="204.815,-175 204.815,-195 319.185,-195 319.185,-175 204.815,-175"/>
<text text-anchor="middle" x="262" y="-181" font-family="Helvetica,sans-Serif" font-size="10.00">ePub3/xml/xmlstring.h</text>
</g>
<!-- Node7&#45;&gt;Node13 -->
<g id="edge12" class="edge"><title>Node7&#45;&gt;Node13</title>
<path fill="none" stroke="midnightblue" d="M346.322,-232.753C330.217,-223.823 305.619,-210.185 287.14,-199.939"/>
<polygon fill="midnightblue" stroke="midnightblue" points="288.811,-196.863 278.368,-195.075 285.416,-202.985 288.811,-196.863"/>
</g>
<!-- Node7&#45;&gt;Node14 -->
<g id="edge13" class="edge"><title>Node7&#45;&gt;Node14</title>
<path fill="none" stroke="midnightblue" d="M402.474,-232.94C449.148,-222.228 526.158,-204.554 571.177,-194.222"/>
<polygon fill="midnightblue" stroke="midnightblue" points="572.122,-197.596 581.086,-191.948 570.556,-190.773 572.122,-197.596"/>
</g>
<!-- Node15 -->
<g id="node15" class="node"><title>Node15</title>
<polygon fill="white" stroke="#bfbfbf" points="336.943,-175 336.943,-195 389.057,-195 389.057,-175 336.943,-175"/>
<text text-anchor="middle" x="363" y="-181" font-family="Helvetica,sans-Serif" font-size="10.00">memory</text>
</g>
<!-- Node7&#45;&gt;Node15 -->
<g id="edge14" class="edge"><title>Node7&#45;&gt;Node15</title>
<path fill="none" stroke="midnightblue" d="M363,-232.753C363,-225.25 363,-214.424 363,-205.078"/>
<polygon fill="midnightblue" stroke="midnightblue" points="366.5,-205.075 363,-195.075 359.5,-205.075 366.5,-205.075"/>
</g>
<!-- Node16 -->
<g id="node16" class="node"><title>Node16</title>
<polygon fill="white" stroke="#bfbfbf" points="407.384,-175 407.384,-195 450.616,-195 450.616,-175 407.384,-175"/>
<text text-anchor="middle" x="429" y="-181" font-family="Helvetica,sans-Serif" font-size="10.00">vector</text>
</g>
<!-- Node7&#45;&gt;Node16 -->
<g id="edge15" class="edge"><title>Node7&#45;&gt;Node16</title>
<path fill="none" stroke="midnightblue" d="M373.899,-232.753C383.798,-224.353 398.608,-211.787 410.381,-201.798"/>
<polygon fill="midnightblue" stroke="midnightblue" points="412.944,-204.214 418.304,-195.075 408.415,-198.876 412.944,-204.214"/>
</g>
<!-- Node17 -->
<g id="node17" class="node"><title>Node17</title>
<polygon fill="white" stroke="#bfbfbf" points="468.5,-175 468.5,-195 497.5,-195 497.5,-175 468.5,-175"/>
<text text-anchor="middle" x="482.611" y="-181" font-family="Helvetica,sans-Serif" font-size="10.00">list</text>
</g>
<!-- Node7&#45;&gt;Node17 -->
<g id="edge16" class="edge"><title>Node7&#45;&gt;Node17</title>
<path fill="none" stroke="midnightblue" d="M382.547,-232.878C403.49,-223.105 436.739,-207.588 459.193,-197.11"/>
<polygon fill="midnightblue" stroke="midnightblue" points="460.795,-200.225 468.377,-192.824 457.835,-193.882 460.795,-200.225"/>
</g>
<!-- Node9 -->
<g id="node9" class="node"><title>Node9</title>
<g id="a_node9"><a xlink:href="__config_8h.xhtml" target="_top" xlink:title="_config.h">
<polygon fill="white" stroke="black" points="84.707,-117 84.707,-137 141.293,-137 141.293,-117 84.707,-117"/>
<text text-anchor="middle" x="113" y="-123" font-family="Helvetica,sans-Serif" font-size="10.00">_config.h</text>
</a>
</g>
</g>
<!-- Node8&#45;&gt;Node9 -->
<g id="edge8" class="edge"><title>Node8&#45;&gt;Node9</title>
<path fill="none" stroke="midnightblue" d="M142.22,-174.753C137.277,-166.843 130.023,-155.237 123.98,-145.568"/>
<polygon fill="midnightblue" stroke="midnightblue" points="126.94,-143.7 118.672,-137.075 121.004,-147.41 126.94,-143.7"/>
</g>
<!-- Node12 -->
<g id="node12" class="node"><title>Node12</title>
<polygon fill="white" stroke="#bfbfbf" points="159.158,-117 159.158,-137 206.842,-137 206.842,-117 159.158,-117"/>
<text text-anchor="middle" x="183" y="-123" font-family="Helvetica,sans-Serif" font-size="10.00">stdlib.h</text>
</g>
<!-- Node8&#45;&gt;Node12 -->
<g id="edge11" class="edge"><title>Node8&#45;&gt;Node12</title>
<path fill="none" stroke="midnightblue" d="M153.78,-174.753C158.723,-166.843 165.977,-155.237 172.02,-145.568"/>
<polygon fill="midnightblue" stroke="midnightblue" points="174.996,-147.41 177.328,-137.075 169.06,-143.7 174.996,-147.41"/>
</g>
<!-- Node10 -->
<g id="node10" class="node"><title>Node10</title>
<g id="a_node10"><a xlink:href="__platform_8h.xhtml" target="_top" xlink:title="_platform.h">
<polygon fill="white" stroke="black" points="79.9878,-59 79.9878,-79 146.012,-79 146.012,-59 79.9878,-59"/>
<text text-anchor="middle" x="113" y="-65" font-family="Helvetica,sans-Serif" font-size="10.00">_platform.h</text>
</a>
</g>
</g>
<!-- Node9&#45;&gt;Node10 -->
<g id="edge9" class="edge"><title>Node9&#45;&gt;Node10</title>
<path fill="none" stroke="midnightblue" d="M113,-116.753C113,-109.25 113,-98.4238 113,-89.0781"/>
<polygon fill="midnightblue" stroke="midnightblue" points="116.5,-89.0752 113,-79.0752 109.5,-89.0752 116.5,-89.0752"/>
</g>
<!-- Node11 -->
<g id="node11" class="node"><title>Node11</title>
<g id="a_node11"><a xlink:href="__compiler_8h.xhtml" target="_top" xlink:title="_compiler.h">
<polygon fill="white" stroke="black" points="79.4287,-1 79.4287,-21 146.571,-21 146.571,-1 79.4287,-1"/>
<text text-anchor="middle" x="113" y="-7" font-family="Helvetica,sans-Serif" font-size="10.00">_compiler.h</text>
</a>
</g>
</g>
<!-- Node10&#45;&gt;Node11 -->
<g id="edge10" class="edge"><title>Node10&#45;&gt;Node11</title>
<path fill="none" stroke="midnightblue" d="M113,-58.7527C113,-51.2504 113,-40.4238 113,-31.0781"/>
<polygon fill="midnightblue" stroke="midnightblue" points="116.5,-31.0752 113,-21.0752 109.5,-31.0752 116.5,-31.0752"/>
</g>
</g>
</svg>
