<?xml version="1.0" encoding="UTF-8" standalone="no"?>
<!DOCTYPE svg PUBLIC "-//W3C//DTD SVG 1.1//EN"
 "http://www.w3.org/Graphics/SVG/1.1/DTD/svg11.dtd">
<!-- Generated by graphviz version 2.30.0 (20130114.0426)
 -->
<!-- Title: /Users/rkwright/Documents/github/readium&#45;sdk&#45;D/ePub3/utilities/byte_stream.h Pages: 1 -->
<svg width="1532pt" height="542pt"
 viewBox="0.00 0.00 1532.39 542.00" xmlns="http://www.w3.org/2000/svg" xmlns:xlink="http://www.w3.org/1999/xlink">
<g id="graph0" class="graph" transform="scale(1 1) rotate(0) translate(4 538)">
<title>/Users/rkwright/Documents/github/readium&#45;sdk&#45;D/ePub3/utilities/byte_stream.h</title>
<polygon fill="white" stroke="white" points="-4,5 -4,-538 1529.39,-538 1529.39,5 -4,5"/>
<!-- Node1 -->
<g id="node1" class="node"><title>Node1</title>
<polygon fill="#bfbfbf" stroke="black" points="290.355,-489 290.355,-533 436.424,-533 436.424,-489 290.355,-489"/>
<text text-anchor="start" x="298.355" y="-519" font-family="Helvetica,sans-Serif" font-size="10.00">/Users/rkwright/Documents</text>
<text text-anchor="start" x="298.355" y="-507" font-family="Helvetica,sans-Serif" font-size="10.00">/github/readium&#45;sdk&#45;D/ePub3</text>
<text text-anchor="middle" x="363.39" y="-495" font-family="Helvetica,sans-Serif" font-size="10.00">/utilities/byte_stream.h</text>
</g>
<!-- Node2 -->
<g id="node2" class="node"><title>Node2</title>
<polygon fill="white" stroke="#bfbfbf" points="16.4687,-361 16.4687,-381 100.31,-381 100.31,-361 16.4687,-361"/>
<text text-anchor="middle" x="58.3896" y="-367" font-family="Helvetica,sans-Serif" font-size="10.00">ePub3/epub3.h</text>
</g>
<!-- Node1&#45;&gt;Node2 -->
<g id="edge1" class="edge"><title>Node1&#45;&gt;Node2</title>
<path fill="none" stroke="midnightblue" d="M290.296,-503.656C216.804,-495.807 110.233,-479.93 80.3896,-452 63.7545,-436.432 59.2772,-409.561 58.2845,-391.298"/>
<polygon fill="midnightblue" stroke="midnightblue" points="61.7815,-391.129 58.0392,-381.217 54.7836,-391.3 61.7815,-391.129"/>
</g>
<!-- Node3 -->
<g id="node3" class="node"><title>Node3</title>
<g id="a_node3"><a xlink:href="ring__buffer_8h.xhtml" target="_top" xlink:title="ePub3/utilities/ring\l_buffer.h">
<polygon fill="white" stroke="black" points="89.5327,-419 89.5327,-451 187.247,-451 187.247,-419 89.5327,-419"/>
<text text-anchor="start" x="97.5327" y="-437" font-family="Helvetica,sans-Serif" font-size="10.00">ePub3/utilities/ring</text>
<text text-anchor="middle" x="138.39" y="-425" font-family="Helvetica,sans-Serif" font-size="10.00">_buffer.h</text>
</a>
</g>
</g>
<!-- Node1&#45;&gt;Node3 -->
<g id="edge2" class="edge"><title>Node1&#45;&gt;Node3</title>
<path fill="none" stroke="midnightblue" d="M299.515,-488.993C266.195,-478.034 225.827,-464.757 193.832,-454.234"/>
<polygon fill="midnightblue" stroke="midnightblue" points="194.782,-450.862 184.189,-451.063 192.595,-457.512 194.782,-450.862"/>
</g>
<!-- Node16 -->
<g id="node16" class="node"><title>Node16</title>
<polygon fill="white" stroke="#bfbfbf" points="216.986,-425 216.986,-445 275.793,-445 275.793,-425 216.986,-425"/>
<text text-anchor="middle" x="246.39" y="-431" font-family="Helvetica,sans-Serif" font-size="10.00">functional</text>
</g>
<!-- Node1&#45;&gt;Node16 -->
<g id="edge16" class="edge"><title>Node1&#45;&gt;Node16</title>
<path fill="none" stroke="midnightblue" d="M330.175,-488.993C310.794,-476.734 286.828,-461.576 269.499,-450.616"/>
<polygon fill="midnightblue" stroke="midnightblue" points="270.949,-447.392 260.626,-445.004 267.207,-453.308 270.949,-447.392"/>
</g>
<!-- Node17 -->
<g id="node17" class="node"><title>Node17</title>
<polygon fill="white" stroke="#bfbfbf" points="293.89,-425 293.89,-445 322.89,-445 322.89,-425 293.89,-425"/>
<text text-anchor="middle" x="308.281" y="-431" font-family="Helvetica,sans-Serif" font-size="10.00">ios</text>
</g>
<!-- Node1&#45;&gt;Node17 -->
<g id="edge17" class="edge"><title>Node1&#45;&gt;Node17</title>
<path fill="none" stroke="midnightblue" d="M347.776,-488.993C339.34,-477.642 329.056,-463.806 321.113,-453.118"/>
<polygon fill="midnightblue" stroke="midnightblue" points="323.856,-450.943 315.082,-445.004 318.238,-455.118 323.856,-450.943"/>
</g>
<!-- Node18 -->
<g id="node18" class="node"><title>Node18</title>
<polygon fill="white" stroke="#bfbfbf" points="341.212,-425 341.212,-445 385.567,-445 385.567,-425 341.212,-425"/>
<text text-anchor="middle" x="363.39" y="-431" font-family="Helvetica,sans-Serif" font-size="10.00">thread</text>
</g>
<!-- Node1&#45;&gt;Node18 -->
<g id="edge18" class="edge"><title>Node1&#45;&gt;Node18</title>
<path fill="none" stroke="midnightblue" d="M363.39,-488.993C363.39,-478.323 363.39,-465.458 363.39,-455.075"/>
<polygon fill="midnightblue" stroke="midnightblue" points="366.89,-455.004 363.39,-445.004 359.89,-455.005 366.89,-455.004"/>
</g>
<!-- Node19 -->
<g id="node19" class="node"><title>Node19</title>
<g id="a_node19"><a xlink:href="run__loop_8h.xhtml" target="_top" xlink:title="ePub3/utilities/run\l_loop.h">
<polygon fill="white" stroke="black" points="403.644,-419 403.644,-451 499.136,-451 499.136,-419 403.644,-419"/>
<text text-anchor="start" x="411.644" y="-437" font-family="Helvetica,sans-Serif" font-size="10.00">ePub3/utilities/run</text>
<text text-anchor="middle" x="451.39" y="-425" font-family="Helvetica,sans-Serif" font-size="10.00">_loop.h</text>
</a>
</g>
</g>
<!-- Node1&#45;&gt;Node19 -->
<g id="edge19" class="edge"><title>Node1&#45;&gt;Node19</title>
<path fill="none" stroke="midnightblue" d="M388.371,-488.993C400.014,-479.202 413.857,-467.562 425.599,-457.688"/>
<polygon fill="midnightblue" stroke="midnightblue" points="427.938,-460.294 433.339,-451.179 423.433,-454.936 427.938,-460.294"/>
</g>
<!-- Node40 -->
<g id="node40" class="node"><title>Node40</title>
<g id="a_node40"><a xlink:href="make__unique_8h.xhtml" target="_top" xlink:title="ePub3/utilities/make\l_unique.h">
<polygon fill="white" stroke="black" points="1327.64,-291 1327.64,-323 1433.14,-323 1433.14,-291 1327.64,-291"/>
<text text-anchor="start" x="1335.64" y="-309" font-family="Helvetica,sans-Serif" font-size="10.00">ePub3/utilities/make</text>
<text text-anchor="middle" x="1380.39" y="-297" font-family="Helvetica,sans-Serif" font-size="10.00">_unique.h</text>
</a>
</g>
</g>
<!-- Node1&#45;&gt;Node40 -->
<g id="edge52" class="edge"><title>Node1&#45;&gt;Node40</title>
<path fill="none" stroke="midnightblue" d="M436.53,-495.473C627.414,-457.559 1138.25,-356.095 1317.31,-320.528"/>
<polygon fill="midnightblue" stroke="midnightblue" points="1318.24,-323.914 1327.36,-318.532 1316.87,-317.048 1318.24,-323.914"/>
</g>
<!-- Node43 -->
<g id="node43" class="node"><title>Node43</title>
<polygon fill="white" stroke="#bfbfbf" points="876.634,-425 876.634,-445 992.145,-445 992.145,-425 876.634,-425"/>
<text text-anchor="middle" x="934.39" y="-431" font-family="Helvetica,sans-Serif" font-size="10.00">google&#45;url/url_canon.h</text>
</g>
<!-- Node1&#45;&gt;Node43 -->
<g id="edge58" class="edge"><title>Node1&#45;&gt;Node43</title>
<path fill="none" stroke="midnightblue" d="M436.445,-503.883C533.969,-495.176 711.891,-477.399 862.39,-452 870.469,-450.637 879.007,-448.955 887.27,-447.2"/>
<polygon fill="midnightblue" stroke="midnightblue" points="888.141,-450.592 897.164,-445.039 886.647,-443.754 888.141,-450.592"/>
</g>
<!-- Node44 -->
<g id="node44" class="node"><title>Node44</title>
<polygon fill="white" stroke="#bfbfbf" points="1009.87,-425 1009.87,-445 1110.91,-445 1110.91,-425 1009.87,-425"/>
<text text-anchor="middle" x="1060.39" y="-431" font-family="Helvetica,sans-Serif" font-size="10.00">google&#45;url/url_util.h</text>
</g>
<!-- Node1&#45;&gt;Node44 -->
<g id="edge59" class="edge"><title>Node1&#45;&gt;Node44</title>
<path fill="none" stroke="midnightblue" d="M436.528,-507.377C555.528,-502.209 798.114,-487.91 1000.39,-452 1006.87,-450.85 1013.67,-449.339 1020.27,-447.704"/>
<polygon fill="midnightblue" stroke="midnightblue" points="1021.6,-450.974 1030.4,-445.068 1019.84,-444.199 1021.6,-450.974"/>
</g>
<!-- Node3&#45;&gt;Node2 -->
<g id="edge3" class="edge"><title>Node3&#45;&gt;Node2</title>
<path fill="none" stroke="midnightblue" d="M119.024,-418.992C106.7,-409.441 90.7781,-397.101 78.3424,-387.463"/>
<polygon fill="midnightblue" stroke="midnightblue" points="80.4254,-384.65 70.3772,-381.29 76.1374,-390.183 80.4254,-384.65"/>
</g>
<!-- Node4 -->
<g id="node4" class="node"><title>Node4</title>
<g id="a_node4"><a xlink:href="basic_8h.xhtml" target="_top" xlink:title="ePub3/utilities/basic.h">
<polygon fill="white" stroke="black" points="299.028,-297 299.028,-317 411.751,-317 411.751,-297 299.028,-297"/>
<text text-anchor="middle" x="355.39" y="-303" font-family="Helvetica,sans-Serif" font-size="10.00">ePub3/utilities/basic.h</text>
</a>
</g>
</g>
<!-- Node3&#45;&gt;Node4 -->
<g id="edge4" class="edge"><title>Node3&#45;&gt;Node4</title>
<path fill="none" stroke="midnightblue" d="M89.3971,-424.873C41.4299,-413.824 -20.6591,-392.551 7.3896,-360 42.9541,-318.726 197.912,-309.724 288.615,-308.059"/>
<polygon fill="midnightblue" stroke="midnightblue" points="288.862,-311.556 298.805,-307.898 288.751,-304.557 288.862,-311.556"/>
</g>
<!-- Node15 -->
<g id="node15" class="node"><title>Node15</title>
<polygon fill="white" stroke="#bfbfbf" points="118.774,-361 118.774,-381 162.005,-381 162.005,-361 118.774,-361"/>
<text text-anchor="middle" x="140.39" y="-367" font-family="Helvetica,sans-Serif" font-size="10.00">mutex</text>
</g>
<!-- Node3&#45;&gt;Node15 -->
<g id="edge15" class="edge"><title>Node3&#45;&gt;Node15</title>
<path fill="none" stroke="midnightblue" d="M138.874,-418.992C139.14,-410.726 139.474,-400.373 139.761,-391.489"/>
<polygon fill="midnightblue" stroke="midnightblue" points="143.266,-391.398 140.09,-381.29 136.269,-391.172 143.266,-391.398"/>
</g>
<!-- Node5 -->
<g id="node5" class="node"><title>Node5</title>
<g id="a_node5"><a xlink:href="base_8h.xhtml" target="_top" xlink:title="ePub3/base.h">
<polygon fill="white" stroke="black" points="576.53,-175 576.53,-195 654.249,-195 654.249,-175 576.53,-175"/>
<text text-anchor="middle" x="615.39" y="-181" font-family="Helvetica,sans-Serif" font-size="10.00">ePub3/base.h</text>
</a>
</g>
</g>
<!-- Node4&#45;&gt;Node5 -->
<g id="edge5" class="edge"><title>Node4&#45;&gt;Node5</title>
<path fill="none" stroke="midnightblue" d="M364.983,-296.902C381.795,-281.425 418.243,-249.913 454.39,-232 490.033,-214.336 533.575,-202.413 566.385,-195.14"/>
<polygon fill="midnightblue" stroke="midnightblue" points="567.161,-198.553 576.203,-193.031 565.691,-191.709 567.161,-198.553"/>
</g>
<!-- Node10 -->
<g id="node10" class="node"><title>Node10</title>
<polygon fill="white" stroke="#bfbfbf" points="218.205,-233 218.205,-253 332.574,-253 332.574,-233 218.205,-233"/>
<text text-anchor="middle" x="275.39" y="-239" font-family="Helvetica,sans-Serif" font-size="10.00">ePub3/xml/xmlstring.h</text>
</g>
<!-- Node4&#45;&gt;Node10 -->
<g id="edge10" class="edge"><title>Node4&#45;&gt;Node10</title>
<path fill="none" stroke="midnightblue" d="M343.585,-296.852C330.942,-287.053 310.65,-271.327 295.484,-259.573"/>
<polygon fill="midnightblue" stroke="midnightblue" points="297.29,-256.545 287.242,-253.186 293.002,-262.078 297.29,-256.545"/>
</g>
<!-- Node11 -->
<g id="node11" class="node"><title>Node11</title>
<polygon fill="white" stroke="#bfbfbf" points="350.609,-233 350.609,-253 402.17,-253 402.17,-233 350.609,-233"/>
<text text-anchor="middle" x="376.39" y="-239" font-family="Helvetica,sans-Serif" font-size="10.00">sstream</text>
</g>
<!-- Node4&#45;&gt;Node11 -->
<g id="edge11" class="edge"><title>Node4&#45;&gt;Node11</title>
<path fill="none" stroke="midnightblue" d="M358.488,-296.852C361.497,-287.969 366.156,-274.215 369.966,-262.964"/>
<polygon fill="midnightblue" stroke="midnightblue" points="373.385,-263.78 373.278,-253.186 366.755,-261.534 373.385,-263.78"/>
</g>
<!-- Node12 -->
<g id="node12" class="node"><title>Node12</title>
<polygon fill="white" stroke="#bfbfbf" points="1186.33,-175 1186.33,-195 1238.45,-195 1238.45,-175 1186.33,-175"/>
<text text-anchor="middle" x="1212.39" y="-181" font-family="Helvetica,sans-Serif" font-size="10.00">memory</text>
</g>
<!-- Node4&#45;&gt;Node12 -->
<g id="edge12" class="edge"><title>Node4&#45;&gt;Node12</title>
<path fill="none" stroke="midnightblue" d="M372.883,-296.876C392.241,-286.698 424.287,-269.607 451.39,-254 467.639,-244.643 469.509,-237.648 487.39,-232 617.817,-190.801 1047.69,-186.394 1175.95,-186.008"/>
<polygon fill="midnightblue" stroke="midnightblue" points="1176.05,-189.508 1186.04,-185.985 1176.03,-182.508 1176.05,-189.508"/>
</g>
<!-- Node13 -->
<g id="node13" class="node"><title>Node13</title>
<polygon fill="white" stroke="#bfbfbf" points="543.774,-233 543.774,-253 587.005,-253 587.005,-233 543.774,-233"/>
<text text-anchor="middle" x="565.39" y="-239" font-family="Helvetica,sans-Serif" font-size="10.00">vector</text>
</g>
<!-- Node4&#45;&gt;Node13 -->
<g id="edge13" class="edge"><title>Node4&#45;&gt;Node13</title>
<path fill="none" stroke="midnightblue" d="M387.485,-296.983C421.481,-287.364 476.941,-271.481 534.165,-254.007"/>
<polygon fill="midnightblue" stroke="midnightblue" points="535.199,-257.351 543.735,-251.075 533.148,-250.658 535.199,-257.351"/>
</g>
<!-- Node14 -->
<g id="node14" class="node"><title>Node14</title>
<polygon fill="white" stroke="#bfbfbf" points="496.89,-233 496.89,-253 525.89,-253 525.89,-233 496.89,-233"/>
<text text-anchor="middle" x="511" y="-239" font-family="Helvetica,sans-Serif" font-size="10.00">list</text>
</g>
<!-- Node4&#45;&gt;Node14 -->
<g id="edge14" class="edge"><title>Node4&#45;&gt;Node14</title>
<path fill="none" stroke="midnightblue" d="M378.073,-296.985C407.101,-285.448 457.185,-265.543 487.008,-253.69"/>
<polygon fill="midnightblue" stroke="midnightblue" points="488.643,-256.807 496.643,-249.861 486.058,-250.302 488.643,-256.807"/>
</g>
<!-- Node6 -->
<g id="node6" class="node"><title>Node6</title>
<g id="a_node6"><a xlink:href="__config_8h.xhtml" target="_top" xlink:title="_config.h">
<polygon fill="white" stroke="black" points="552.097,-117 552.097,-137 608.683,-137 608.683,-117 552.097,-117"/>
<text text-anchor="middle" x="580.39" y="-123" font-family="Helvetica,sans-Serif" font-size="10.00">_config.h</text>
</a>
</g>
</g>
<!-- Node5&#45;&gt;Node6 -->
<g id="edge6" class="edge"><title>Node5&#45;&gt;Node6</title>
<path fill="none" stroke="midnightblue" d="M609.61,-174.753C604.666,-166.843 597.413,-155.237 591.37,-145.568"/>
<polygon fill="midnightblue" stroke="midnightblue" points="594.33,-143.7 586.062,-137.075 588.394,-147.41 594.33,-143.7"/>
</g>
<!-- Node9 -->
<g id="node9" class="node"><title>Node9</title>
<polygon fill="white" stroke="#bfbfbf" points="626.547,-117 626.547,-137 674.232,-137 674.232,-117 626.547,-117"/>
<text text-anchor="middle" x="650.39" y="-123" font-family="Helvetica,sans-Serif" font-size="10.00">stdlib.h</text>
</g>
<!-- Node5&#45;&gt;Node9 -->
<g id="edge9" class="edge"><title>Node5&#45;&gt;Node9</title>
<path fill="none" stroke="midnightblue" d="M621.169,-174.753C626.113,-166.843 633.366,-155.237 639.409,-145.568"/>
<polygon fill="midnightblue" stroke="midnightblue" points="642.386,-147.41 644.718,-137.075 636.45,-143.7 642.386,-147.41"/>
</g>
<!-- Node7 -->
<g id="node7" class="node"><title>Node7</title>
<g id="a_node7"><a xlink:href="__platform_8h.xhtml" target="_top" xlink:title="_platform.h">
<polygon fill="white" stroke="black" points="547.377,-59 547.377,-79 613.402,-79 613.402,-59 547.377,-59"/>
<text text-anchor="middle" x="580.39" y="-65" font-family="Helvetica,sans-Serif" font-size="10.00">_platform.h</text>
</a>
</g>
</g>
<!-- Node6&#45;&gt;Node7 -->
<g id="edge7" class="edge"><title>Node6&#45;&gt;Node7</title>
<path fill="none" stroke="midnightblue" d="M580.39,-116.753C580.39,-109.25 580.39,-98.4238 580.39,-89.0781"/>
<polygon fill="midnightblue" stroke="midnightblue" points="583.89,-89.0752 580.39,-79.0752 576.89,-89.0752 583.89,-89.0752"/>
</g>
<!-- Node8 -->
<g id="node8" class="node"><title>Node8</title>
<g id="a_node8"><a xlink:href="__compiler_8h.xhtml" target="_top" xlink:title="_compiler.h">
<polygon fill="white" stroke="black" points="546.818,-1 546.818,-21 613.961,-21 613.961,-1 546.818,-1"/>
<text text-anchor="middle" x="580.39" y="-7" font-family="Helvetica,sans-Serif" font-size="10.00">_compiler.h</text>
</a>
</g>
</g>
<!-- Node7&#45;&gt;Node8 -->
<g id="edge8" class="edge"><title>Node7&#45;&gt;Node8</title>
<path fill="none" stroke="midnightblue" d="M580.39,-58.7527C580.39,-51.2504 580.39,-40.4238 580.39,-31.0781"/>
<polygon fill="midnightblue" stroke="midnightblue" points="583.89,-31.0752 580.39,-21.0752 576.89,-31.0752 583.89,-31.0752"/>
</g>
<!-- Node19&#45;&gt;Node5 -->
<g id="edge20" class="edge"><title>Node19&#45;&gt;Node5</title>
<path fill="none" stroke="midnightblue" d="M403.569,-420.272C400.47,-419.476 397.39,-418.712 394.39,-418 312.887,-398.665 262.664,-446.64 209.39,-382 166.99,-330.554 164.982,-281.723 209.39,-232 232.802,-205.785 463.309,-192.59 566.216,-187.967"/>
<polygon fill="midnightblue" stroke="midnightblue" points="566.517,-191.457 576.353,-187.521 566.209,-184.464 566.517,-191.457"/>
</g>
<!-- Node20 -->
<g id="node20" class="node"><title>Node20</title>
<polygon fill="white" stroke="#bfbfbf" points="320.084,-361 320.084,-381 416.695,-381 416.695,-361 320.084,-361"/>
<text text-anchor="middle" x="368.39" y="-367" font-family="Helvetica,sans-Serif" font-size="10.00">condition_variable</text>
</g>
<!-- Node19&#45;&gt;Node20 -->
<g id="edge21" class="edge"><title>Node19&#45;&gt;Node20</title>
<path fill="none" stroke="midnightblue" d="M431.298,-418.992C418.512,-409.441 401.993,-397.101 389.091,-387.463"/>
<polygon fill="midnightblue" stroke="midnightblue" points="390.933,-384.471 380.827,-381.29 386.744,-390.079 390.933,-384.471"/>
</g>
<!-- Node21 -->
<g id="node21" class="node"><title>Node21</title>
<polygon fill="white" stroke="#bfbfbf" points="434.262,-361 434.262,-381 492.518,-381 492.518,-361 434.262,-361"/>
<text text-anchor="middle" x="463.39" y="-367" font-family="Helvetica,sans-Serif" font-size="10.00">pthread.h</text>
</g>
<!-- Node19&#45;&gt;Node21 -->
<g id="edge22" class="edge"><title>Node19&#45;&gt;Node21</title>
<path fill="none" stroke="midnightblue" d="M454.294,-418.992C455.912,-410.635 457.943,-400.142 459.675,-391.194"/>
<polygon fill="midnightblue" stroke="midnightblue" points="463.127,-391.773 461.591,-381.29 456.255,-390.443 463.127,-391.773"/>
</g>
<!-- Node22 -->
<g id="node22" class="node"><title>Node22</title>
<polygon fill="white" stroke="#bfbfbf" points="510.774,-361 510.774,-381 554.005,-381 554.005,-361 510.774,-361"/>
<text text-anchor="middle" x="532.39" y="-367" font-family="Helvetica,sans-Serif" font-size="10.00">time.h</text>
</g>
<!-- Node19&#45;&gt;Node22 -->
<g id="edge23" class="edge"><title>Node19&#45;&gt;Node22</title>
<path fill="none" stroke="midnightblue" d="M470.997,-418.992C483.475,-409.441 499.596,-397.101 512.187,-387.463"/>
<polygon fill="midnightblue" stroke="midnightblue" points="514.439,-390.148 520.252,-381.29 510.184,-384.589 514.439,-390.148"/>
</g>
<!-- Node19&#45;&gt;Node2 -->
<g id="edge24" class="edge"><title>Node19&#45;&gt;Node2</title>
<path fill="none" stroke="midnightblue" d="M403.621,-420.038C400.509,-419.299 397.412,-418.612 394.39,-418 272.43,-393.321 237.215,-401.829 110.469,-382.07"/>
<polygon fill="midnightblue" stroke="midnightblue" points="110.799,-378.578 100.374,-380.467 109.701,-385.492 110.799,-378.578"/>
</g>
<!-- Node19&#45;&gt;Node4 -->
<g id="edge25" class="edge"><title>Node19&#45;&gt;Node4</title>
<path fill="none" stroke="midnightblue" d="M403.631,-419.232C365.315,-406.905 317.014,-390.089 311.39,-382 297.97,-362.701 317.644,-339.187 334.815,-323.919"/>
<polygon fill="midnightblue" stroke="midnightblue" points="337.479,-326.252 342.887,-317.142 332.978,-320.891 337.479,-326.252"/>
</g>
<!-- Node23 -->
<g id="node23" class="node"><title>Node23</title>
<g id="a_node23"><a xlink:href="utfstring_8h.xhtml" target="_top" xlink:title="ePub3/utilities/utfstring.h">
<polygon fill="white" stroke="black" points="695.915,-361 695.915,-381 820.865,-381 820.865,-361 695.915,-361"/>
<text text-anchor="middle" x="758.39" y="-367" font-family="Helvetica,sans-Serif" font-size="10.00">ePub3/utilities/utfstring.h</text>
</a>
</g>
</g>
<!-- Node19&#45;&gt;Node23 -->
<g id="edge26" class="edge"><title>Node19&#45;&gt;Node23</title>
<path fill="none" stroke="midnightblue" d="M499.358,-424.312C554.721,-413.132 645.582,-394.782 703.658,-383.053"/>
<polygon fill="midnightblue" stroke="midnightblue" points="704.64,-386.426 713.749,-381.015 703.254,-379.564 704.64,-386.426"/>
</g>
<!-- Node38 -->
<g id="node38" class="node"><title>Node38</title>
<polygon fill="white" stroke="#bfbfbf" points="610.102,-361 610.102,-381 656.678,-381 656.678,-361 610.102,-361"/>
<text text-anchor="middle" x="633.39" y="-367" font-family="Helvetica,sans-Serif" font-size="10.00">chrono</text>
</g>
<!-- Node19&#45;&gt;Node38 -->
<g id="edge48" class="edge"><title>Node19&#45;&gt;Node38</title>
<path fill="none" stroke="midnightblue" d="M495.447,-418.992C527.725,-407.996 570.855,-393.303 600.238,-383.293"/>
<polygon fill="midnightblue" stroke="midnightblue" points="601.681,-386.499 610.018,-379.962 599.424,-379.873 601.681,-386.499"/>
</g>
<!-- Node19&#45;&gt;Node14 -->
<g id="edge49" class="edge"><title>Node19&#45;&gt;Node14</title>
<path fill="none" stroke="midnightblue" d="M499.339,-424.181C522.597,-416.746 548.459,-403.909 562.39,-382 599.182,-324.135 494.534,-374.76 458.39,-324 449.625,-311.691 452.118,-303.748 458.39,-290 464.534,-276.53 476.787,-265.484 487.965,-257.594"/>
<polygon fill="midnightblue" stroke="midnightblue" points="490.118,-260.368 496.562,-251.959 486.28,-254.514 490.118,-260.368"/>
</g>
<!-- Node19&#45;&gt;Node15 -->
<g id="edge50" class="edge"><title>Node19&#45;&gt;Node15</title>
<path fill="none" stroke="midnightblue" d="M403.592,-420.172C400.487,-419.401 397.4,-418.669 394.39,-418 298.527,-396.698 272.281,-403.172 176.39,-382 175.107,-381.717 173.802,-381.416 172.486,-381.102"/>
<polygon fill="midnightblue" stroke="midnightblue" points="172.936,-377.604 162.38,-378.511 171.198,-384.385 172.936,-377.604"/>
</g>
<!-- Node39 -->
<g id="node39" class="node"><title>Node39</title>
<polygon fill="white" stroke="#bfbfbf" points="218.663,-361 218.663,-381 264.116,-381 264.116,-361 218.663,-361"/>
<text text-anchor="middle" x="241.39" y="-367" font-family="Helvetica,sans-Serif" font-size="10.00">atomic</text>
</g>
<!-- Node19&#45;&gt;Node39 -->
<g id="edge51" class="edge"><title>Node19&#45;&gt;Node39</title>
<path fill="none" stroke="midnightblue" d="M403.475,-419.854C363.811,-408.143 308.532,-391.823 273.869,-381.589"/>
<polygon fill="midnightblue" stroke="midnightblue" points="274.823,-378.221 264.241,-378.747 272.841,-384.935 274.823,-378.221"/>
</g>
<!-- Node23&#45;&gt;Node4 -->
<g id="edge27" class="edge"><title>Node23&#45;&gt;Node4</title>
<path fill="none" stroke="midnightblue" d="M699.185,-360.957C638.67,-351.706 541.971,-336.9 458.39,-324 446.583,-322.178 434.016,-320.231 421.866,-318.346"/>
<polygon fill="midnightblue" stroke="midnightblue" points="422.203,-314.856 411.785,-316.781 421.129,-321.774 422.203,-314.856"/>
</g>
<!-- Node24 -->
<g id="node24" class="node"><title>Node24</title>
<g id="a_node24"><a xlink:href="integer__sequence_8h.xhtml" target="_top" xlink:title="ePub3/utilities/integer\l_sequence.h">
<polygon fill="white" stroke="black" points="467.582,-291 467.582,-323 579.197,-323 579.197,-291 467.582,-291"/>
<text text-anchor="start" x="475.582" y="-309" font-family="Helvetica,sans-Serif" font-size="10.00">ePub3/utilities/integer</text>
<text text-anchor="middle" x="523.39" y="-297" font-family="Helvetica,sans-Serif" font-size="10.00">_sequence.h</text>
</a>
</g>
</g>
<!-- Node23&#45;&gt;Node24 -->
<g id="edge28" class="edge"><title>Node23&#45;&gt;Node24</title>
<path fill="none" stroke="midnightblue" d="M724.219,-360.985C688.951,-351.68 633.048,-336.931 589.169,-325.354"/>
<polygon fill="midnightblue" stroke="midnightblue" points="589.995,-321.953 579.433,-322.786 588.209,-328.721 589.995,-321.953"/>
</g>
<!-- Node25 -->
<g id="node25" class="node"><title>Node25</title>
<g id="a_node25"><a xlink:href="string__view_8h.xhtml" target="_top" xlink:title="ePub3/utilities/string\l_view.h">
<polygon fill="white" stroke="black" points="1164.64,-291 1164.64,-323 1270.14,-323 1270.14,-291 1164.64,-291"/>
<text text-anchor="start" x="1172.64" y="-309" font-family="Helvetica,sans-Serif" font-size="10.00">ePub3/utilities/string</text>
<text text-anchor="middle" x="1217.39" y="-297" font-family="Helvetica,sans-Serif" font-size="10.00">_view.h</text>
</a>
</g>
</g>
<!-- Node23&#45;&gt;Node25 -->
<g id="edge30" class="edge"><title>Node23&#45;&gt;Node25</title>
<path fill="none" stroke="midnightblue" d="M821.003,-361.665C825.532,-361.092 830.03,-360.531 834.39,-360 973.696,-343.025 1012.47,-349.682 1154.45,-324.019"/>
<polygon fill="midnightblue" stroke="midnightblue" points="1155.19,-327.441 1164.4,-322.199 1153.93,-320.556 1155.19,-327.441"/>
</g>
<!-- Node27 -->
<g id="node27" class="node"><title>Node27</title>
<polygon fill="white" stroke="#bfbfbf" points="972.163,-233 972.163,-253 1012.62,-253 1012.62,-233 972.163,-233"/>
<text text-anchor="middle" x="992.39" y="-239" font-family="Helvetica,sans-Serif" font-size="10.00">string</text>
</g>
<!-- Node23&#45;&gt;Node27 -->
<g id="edge39" class="edge"><title>Node23&#45;&gt;Node27</title>
<path fill="none" stroke="midnightblue" d="M815.51,-360.965C884.897,-349.717 993.502,-331.118 999.39,-324 1013.5,-306.937 1007.41,-280.253 1000.75,-262.454"/>
<polygon fill="midnightblue" stroke="midnightblue" points="1003.96,-261.052 996.912,-253.14 997.486,-263.72 1003.96,-261.052"/>
</g>
<!-- Node32 -->
<g id="node32" class="node"><title>Node32</title>
<polygon fill="white" stroke="#bfbfbf" points="844.828,-297 844.828,-317 891.951,-317 891.951,-297 844.828,-297"/>
<text text-anchor="middle" x="868.39" y="-303" font-family="Helvetica,sans-Serif" font-size="10.00">iterator</text>
</g>
<!-- Node23&#45;&gt;Node32 -->
<g id="edge40" class="edge"><title>Node23&#45;&gt;Node32</title>
<path fill="none" stroke="midnightblue" d="M774.62,-360.852C792.737,-350.641 822.272,-333.994 843.353,-322.112"/>
<polygon fill="midnightblue" stroke="midnightblue" points="845.099,-325.145 852.092,-317.186 841.662,-319.047 845.099,-325.145"/>
</g>
<!-- Node33 -->
<g id="node33" class="node"><title>Node33</title>
<polygon fill="white" stroke="#bfbfbf" points="948.326,-297 948.326,-317 990.454,-317 990.454,-297 948.326,-297"/>
<text text-anchor="middle" x="969.39" y="-303" font-family="Helvetica,sans-Serif" font-size="10.00">locale</text>
</g>
<!-- Node23&#45;&gt;Node33 -->
<g id="edge41" class="edge"><title>Node23&#45;&gt;Node33</title>
<path fill="none" stroke="midnightblue" d="M801.333,-360.967C837.36,-352.87 889.912,-339.844 934.39,-324 936.813,-323.137 939.299,-322.171 941.774,-321.154"/>
<polygon fill="midnightblue" stroke="midnightblue" points="943.345,-324.287 951.109,-317.079 940.544,-317.872 943.345,-324.287"/>
</g>
<!-- Node23&#45;&gt;Node13 -->
<g id="edge42" class="edge"><title>Node23&#45;&gt;Node13</title>
<path fill="none" stroke="midnightblue" d="M769.085,-360.817C786.15,-345.071 815.825,-312.449 797.39,-290 772.428,-259.603 654.902,-248.94 597.33,-245.498"/>
<polygon fill="midnightblue" stroke="midnightblue" points="597.494,-242.002 587.314,-244.936 597.102,-248.991 597.494,-242.002"/>
</g>
<!-- Node34 -->
<g id="node34" class="node"><title>Node34</title>
<polygon fill="white" stroke="#bfbfbf" points="1046.16,-297 1046.16,-317 1146.62,-317 1146.62,-297 1046.16,-297"/>
<text text-anchor="middle" x="1096.39" y="-303" font-family="Helvetica,sans-Serif" font-size="10.00">REGEX_INCLUDE</text>
</g>
<!-- Node23&#45;&gt;Node34 -->
<g id="edge43" class="edge"><title>Node23&#45;&gt;Node34</title>
<path fill="none" stroke="midnightblue" d="M820.678,-360.971C876.384,-352.558 960.145,-339.071 1032.39,-324 1038.79,-322.665 1045.52,-321.129 1052.11,-319.549"/>
<polygon fill="midnightblue" stroke="midnightblue" points="1053.41,-322.834 1062.29,-317.052 1051.75,-316.035 1053.41,-322.834"/>
</g>
<!-- Node35 -->
<g id="node35" class="node"><title>Node35</title>
<polygon fill="white" stroke="#bfbfbf" points="597.663,-297 597.663,-317 633.116,-317 633.116,-297 597.663,-297"/>
<text text-anchor="middle" x="615.39" y="-303" font-family="Helvetica,sans-Serif" font-size="10.00">map</text>
</g>
<!-- Node23&#45;&gt;Node35 -->
<g id="edge44" class="edge"><title>Node23&#45;&gt;Node35</title>
<path fill="none" stroke="midnightblue" d="M732.083,-360.912C708.234,-352.36 672.34,-338.699 642.39,-324 641.206,-323.419 640.006,-322.806 638.802,-322.17"/>
<polygon fill="midnightblue" stroke="midnightblue" points="640.162,-318.919 629.731,-317.065 636.729,-325.02 640.162,-318.919"/>
</g>
<!-- Node36 -->
<g id="node36" class="node"><title>Node36</title>
<polygon fill="white" stroke="#bfbfbf" points="650.988,-297 650.988,-317 709.791,-317 709.791,-297 650.988,-297"/>
<text text-anchor="middle" x="680.39" y="-303" font-family="Helvetica,sans-Serif" font-size="10.00">stdexcept</text>
</g>
<!-- Node23&#45;&gt;Node36 -->
<g id="edge45" class="edge"><title>Node23&#45;&gt;Node36</title>
<path fill="none" stroke="midnightblue" d="M746.88,-360.852C734.553,-351.053 714.769,-335.327 699.981,-323.573"/>
<polygon fill="midnightblue" stroke="midnightblue" points="701.952,-320.668 691.946,-317.186 697.596,-326.148 701.952,-320.668"/>
</g>
<!-- Node28 -->
<g id="node28" class="node"><title>Node28</title>
<polygon fill="white" stroke="#bfbfbf" points="906.003,-233 906.003,-253 944.776,-253 944.776,-233 906.003,-233"/>
<text text-anchor="middle" x="925.39" y="-239" font-family="Helvetica,sans-Serif" font-size="10.00">limits</text>
</g>
<!-- Node23&#45;&gt;Node28 -->
<g id="edge46" class="edge"><title>Node23&#45;&gt;Node28</title>
<path fill="none" stroke="midnightblue" d="M821.091,-362.785C848.642,-356.616 879.427,-345.182 900.39,-324 916.503,-307.718 922.253,-281.209 924.291,-263.207"/>
<polygon fill="midnightblue" stroke="midnightblue" points="927.797,-263.293 925.154,-253.033 920.822,-262.701 927.797,-263.293"/>
</g>
<!-- Node37 -->
<g id="node37" class="node"><title>Node37</title>
<polygon fill="white" stroke="#bfbfbf" points="728.151,-297 728.151,-317 788.628,-317 788.628,-297 728.151,-297"/>
<text text-anchor="middle" x="758.39" y="-303" font-family="Helvetica,sans-Serif" font-size="10.00">utf8/utf8.h</text>
</g>
<!-- Node23&#45;&gt;Node37 -->
<g id="edge47" class="edge"><title>Node23&#45;&gt;Node37</title>
<path fill="none" stroke="midnightblue" d="M758.39,-360.852C758.39,-352.06 758.39,-338.498 758.39,-327.313"/>
<polygon fill="midnightblue" stroke="midnightblue" points="761.89,-327.186 758.39,-317.186 754.89,-327.186 761.89,-327.186"/>
</g>
<!-- Node24&#45;&gt;Node5 -->
<g id="edge29" class="edge"><title>Node24&#45;&gt;Node5</title>
<path fill="none" stroke="midnightblue" d="M552.989,-290.796C567.664,-281.887 584.526,-269.357 595.39,-254 605.595,-239.573 610.645,-219.933 613.111,-205.469"/>
<polygon fill="midnightblue" stroke="midnightblue" points="616.632,-205.573 614.585,-195.178 609.703,-204.581 616.632,-205.573"/>
</g>
<!-- Node26 -->
<g id="node26" class="node"><title>Node26</title>
<polygon fill="white" stroke="#bfbfbf" points="1264.32,-233 1264.32,-253 1326.46,-253 1326.46,-233 1264.32,-233"/>
<text text-anchor="middle" x="1295.39" y="-239" font-family="Helvetica,sans-Serif" font-size="10.00">type_traits</text>
</g>
<!-- Node25&#45;&gt;Node26 -->
<g id="edge31" class="edge"><title>Node25&#45;&gt;Node26</title>
<path fill="none" stroke="midnightblue" d="M1236.27,-290.992C1248.17,-281.533 1263.51,-269.338 1275.58,-259.742"/>
<polygon fill="midnightblue" stroke="midnightblue" points="1278.05,-262.253 1283.7,-253.29 1273.7,-256.773 1278.05,-262.253"/>
</g>
<!-- Node25&#45;&gt;Node27 -->
<g id="edge32" class="edge"><title>Node25&#45;&gt;Node27</title>
<path fill="none" stroke="midnightblue" d="M1164.51,-292.181C1117.52,-279.875 1052.68,-262.808 1022.84,-254.226"/>
<polygon fill="midnightblue" stroke="midnightblue" points="1023.51,-250.774 1012.92,-251.288 1021.52,-257.485 1023.51,-250.774"/>
</g>
<!-- Node25&#45;&gt;Node28 -->
<g id="edge33" class="edge"><title>Node25&#45;&gt;Node28</title>
<path fill="none" stroke="midnightblue" d="M1164.35,-292.061C1161.32,-291.344 1158.32,-290.652 1155.39,-290 1070.64,-271.142 1048.09,-273.06 963.39,-254 960.582,-253.368 957.668,-252.673 954.758,-251.953"/>
<polygon fill="midnightblue" stroke="midnightblue" points="955.602,-248.556 945.046,-249.461 953.863,-255.336 955.602,-248.556"/>
</g>
<!-- Node29 -->
<g id="node29" class="node"><title>Node29</title>
<polygon fill="white" stroke="#bfbfbf" points="1030.22,-233 1030.22,-253 1084.56,-253 1084.56,-233 1030.22,-233"/>
<text text-anchor="middle" x="1057.39" y="-239" font-family="Helvetica,sans-Serif" font-size="10.00">iostream</text>
</g>
<!-- Node25&#45;&gt;Node29 -->
<g id="edge34" class="edge"><title>Node25&#45;&gt;Node29</title>
<path fill="none" stroke="midnightblue" d="M1178.66,-290.992C1151.71,-280.551 1116.17,-266.778 1090.54,-256.845"/>
<polygon fill="midnightblue" stroke="midnightblue" points="1091.49,-253.458 1080.9,-253.109 1088.96,-259.986 1091.49,-253.458"/>
</g>
<!-- Node30 -->
<g id="node30" class="node"><title>Node30</title>
<polygon fill="white" stroke="#bfbfbf" points="1102.83,-233 1102.83,-253 1159.95,-253 1159.95,-233 1102.83,-233"/>
<text text-anchor="middle" x="1131.39" y="-239" font-family="Helvetica,sans-Serif" font-size="10.00">algorithm</text>
</g>
<!-- Node25&#45;&gt;Node30 -->
<g id="edge35" class="edge"><title>Node25&#45;&gt;Node30</title>
<path fill="none" stroke="midnightblue" d="M1196.57,-290.992C1183.11,-281.29 1165.67,-268.711 1152.21,-259.009"/>
<polygon fill="midnightblue" stroke="midnightblue" points="1154.18,-256.118 1144.02,-253.109 1150.09,-261.796 1154.18,-256.118"/>
</g>
<!-- Node31 -->
<g id="node31" class="node"><title>Node31</title>
<g id="a_node31"><a xlink:href="____strhash_8h.xhtml" target="_top" xlink:title="__strhash.h">
<polygon fill="white" stroke="black" points="1178.26,-233 1178.26,-253 1246.52,-253 1246.52,-233 1178.26,-233"/>
<text text-anchor="middle" x="1212.39" y="-239" font-family="Helvetica,sans-Serif" font-size="10.00">__strhash.h</text>
</a>
</g>
</g>
<!-- Node25&#45;&gt;Node31 -->
<g id="edge36" class="edge"><title>Node25&#45;&gt;Node31</title>
<path fill="none" stroke="midnightblue" d="M1216.18,-290.992C1215.51,-282.726 1214.68,-272.373 1213.96,-263.489"/>
<polygon fill="midnightblue" stroke="midnightblue" points="1217.43,-262.977 1213.14,-253.29 1210.45,-263.539 1217.43,-262.977"/>
</g>
<!-- Node31&#45;&gt;Node5 -->
<g id="edge37" class="edge"><title>Node31&#45;&gt;Node5</title>
<path fill="none" stroke="midnightblue" d="M1177.89,-233.678C1174.69,-233.051 1171.49,-232.478 1168.39,-232 983.746,-203.483 761.498,-191.773 664.584,-187.772"/>
<polygon fill="midnightblue" stroke="midnightblue" points="664.631,-184.271 654.498,-187.365 664.348,-191.265 664.631,-184.271"/>
</g>
<!-- Node31&#45;&gt;Node12 -->
<g id="edge38" class="edge"><title>Node31&#45;&gt;Node12</title>
<path fill="none" stroke="midnightblue" d="M1212.39,-232.753C1212.39,-225.25 1212.39,-214.424 1212.39,-205.078"/>
<polygon fill="midnightblue" stroke="midnightblue" points="1215.89,-205.075 1212.39,-195.075 1208.89,-205.075 1215.89,-205.075"/>
</g>
<!-- Node40&#45;&gt;Node5 -->
<g id="edge53" class="edge"><title>Node40&#45;&gt;Node5</title>
<path fill="none" stroke="midnightblue" d="M1375.86,-290.727C1369.78,-273.191 1357.13,-245.154 1335.39,-232 1278.3,-197.456 817.333,-188.548 664.454,-186.532"/>
<polygon fill="midnightblue" stroke="midnightblue" points="664.456,-183.032 654.412,-186.404 664.366,-190.031 664.456,-183.032"/>
</g>
<!-- Node41 -->
<g id="node41" class="node"><title>Node41</title>
<polygon fill="white" stroke="#bfbfbf" points="1382.27,-233 1382.27,-253 1430.51,-253 1430.51,-233 1382.27,-233"/>
<text text-anchor="middle" x="1406.39" y="-239" font-family="Helvetica,sans-Serif" font-size="10.00">cstddef</text>
</g>
<!-- Node40&#45;&gt;Node41 -->
<g id="edge54" class="edge"><title>Node40&#45;&gt;Node41</title>
<path fill="none" stroke="midnightblue" d="M1386.68,-290.992C1390.27,-282.451 1394.78,-271.68 1398.59,-262.606"/>
<polygon fill="midnightblue" stroke="midnightblue" points="1401.85,-263.866 1402.49,-253.29 1395.4,-261.159 1401.85,-263.866"/>
</g>
<!-- Node40&#45;&gt;Node12 -->
<g id="edge55" class="edge"><title>Node40&#45;&gt;Node12</title>
<path fill="none" stroke="midnightblue" d="M1406.51,-290.89C1429.16,-275.872 1455.93,-252.225 1439.39,-232 1415.73,-203.061 1306.7,-191.894 1248.78,-187.948"/>
<polygon fill="midnightblue" stroke="midnightblue" points="1248.8,-184.442 1238.6,-187.293 1248.35,-191.428 1248.8,-184.442"/>
</g>
<!-- Node40&#45;&gt;Node26 -->
<g id="edge56" class="edge"><title>Node40&#45;&gt;Node26</title>
<path fill="none" stroke="midnightblue" d="M1359.81,-290.992C1346.59,-281.349 1329.48,-268.864 1316.21,-259.186"/>
<polygon fill="midnightblue" stroke="midnightblue" points="1318.27,-256.356 1308.13,-253.29 1314.14,-262.011 1318.27,-256.356"/>
</g>
<!-- Node42 -->
<g id="node42" class="node"><title>Node42</title>
<polygon fill="white" stroke="#bfbfbf" points="1486,-233 1486,-253 1524.78,-253 1524.78,-233 1486,-233"/>
<text text-anchor="middle" x="1505.39" y="-239" font-family="Helvetica,sans-Serif" font-size="10.00">utility</text>
</g>
<!-- Node40&#45;&gt;Node42 -->
<g id="edge57" class="edge"><title>Node40&#45;&gt;Node42</title>
<path fill="none" stroke="midnightblue" d="M1410.65,-290.992C1431.14,-280.828 1458,-267.507 1477.88,-257.644"/>
<polygon fill="midnightblue" stroke="midnightblue" points="1479.62,-260.688 1487.03,-253.109 1476.51,-254.417 1479.62,-260.688"/>
</g>
</g>
</svg>
