<?xml version="1.0" encoding="UTF-8" standalone="no"?>
<!DOCTYPE svg PUBLIC "-//W3C//DTD SVG 1.1//EN"
 "http://www.w3.org/Graphics/SVG/1.1/DTD/svg11.dtd">
<!-- Generated by graphviz version 2.30.0 (20130114.0426)
 -->
<!-- Title: /Users/rkwright/Documents/github/readium&#45;sdk&#45;D/ePub3/utilities/byte_buffer.cpp Pages: 1 -->
<svg width="255pt" height="170pt"
 viewBox="0.00 0.00 255.00 170.00" xmlns="http://www.w3.org/2000/svg" xmlns:xlink="http://www.w3.org/1999/xlink">
<g id="graph0" class="graph" transform="scale(1 1) rotate(0) translate(4 166)">
<title>/Users/rkwright/Documents/github/readium&#45;sdk&#45;D/ePub3/utilities/byte_buffer.cpp</title>
<polygon fill="white" stroke="white" points="-4,5 -4,-166 252,-166 252,5 -4,5"/>
<!-- Node1 -->
<g id="node1" class="node"><title>Node1</title>
<polygon fill="#bfbfbf" stroke="black" points="51.9658,-117 51.9658,-161 198.034,-161 198.034,-117 51.9658,-117"/>
<text text-anchor="start" x="59.9658" y="-147" font-family="Helvetica,sans-Serif" font-size="10.00">/Users/rkwright/Documents</text>
<text text-anchor="start" x="59.9658" y="-135" font-family="Helvetica,sans-Serif" font-size="10.00">/github/readium&#45;sdk&#45;D/ePub3</text>
<text text-anchor="middle" x="125" y="-123" font-family="Helvetica,sans-Serif" font-size="10.00">/utilities/byte_buffer.cpp</text>
</g>
<!-- Node2 -->
<g id="node2" class="node"><title>Node2</title>
<g id="a_node2"><a xlink:href="byte__buffer_8h.xhtml" target="_top" xlink:title="byte_buffer.h">
<polygon fill="white" stroke="black" points="4.17432,-59 4.17432,-79 77.8257,-79 77.8257,-59 4.17432,-59"/>
<text text-anchor="middle" x="41" y="-65" font-family="Helvetica,sans-Serif" font-size="10.00">byte_buffer.h</text>
</a>
</g>
</g>
<!-- Node1&#45;&gt;Node2 -->
<g id="edge1" class="edge"><title>Node1&#45;&gt;Node2</title>
<path fill="none" stroke="midnightblue" d="M98.8823,-116.857C86.4478,-106.791 71.8351,-94.9617 60.403,-85.7072"/>
<polygon fill="midnightblue" stroke="midnightblue" points="62.3442,-82.7756 52.3696,-79.2039 57.9398,-88.2163 62.3442,-82.7756"/>
</g>
<!-- Node4 -->
<g id="node4" class="node"><title>Node4</title>
<polygon fill="white" stroke="#bfbfbf" points="95.5986,-59 95.5986,-79 154.401,-79 154.401,-59 95.5986,-59"/>
<text text-anchor="middle" x="125" y="-65" font-family="Helvetica,sans-Serif" font-size="10.00">stdexcept</text>
</g>
<!-- Node1&#45;&gt;Node4 -->
<g id="edge3" class="edge"><title>Node1&#45;&gt;Node4</title>
<path fill="none" stroke="midnightblue" d="M125,-116.857C125,-108.074 125,-97.9484 125,-89.3622"/>
<polygon fill="midnightblue" stroke="midnightblue" points="128.5,-89.2039 125,-79.2039 121.5,-89.204 128.5,-89.2039"/>
</g>
<!-- Node5 -->
<g id="node5" class="node"><title>Node5</title>
<polygon fill="white" stroke="#bfbfbf" points="172.828,-59 172.828,-79 247.172,-79 247.172,-59 172.828,-59"/>
<text text-anchor="middle" x="210" y="-65" font-family="Helvetica,sans-Serif" font-size="10.00">system_error</text>
</g>
<!-- Node1&#45;&gt;Node5 -->
<g id="edge4" class="edge"><title>Node1&#45;&gt;Node5</title>
<path fill="none" stroke="midnightblue" d="M151.429,-116.857C164.011,-106.791 178.798,-94.9617 190.366,-85.7072"/>
<polygon fill="midnightblue" stroke="midnightblue" points="192.873,-88.184 198.495,-79.2039 188.5,-82.7179 192.873,-88.184"/>
</g>
<!-- Node3 -->
<g id="node3" class="node"><title>Node3</title>
<polygon fill="white" stroke="#bfbfbf" points="-0.920898,-1 -0.920898,-21 82.9209,-21 82.9209,-1 -0.920898,-1"/>
<text text-anchor="middle" x="41" y="-7" font-family="Helvetica,sans-Serif" font-size="10.00">ePub3/epub3.h</text>
</g>
<!-- Node2&#45;&gt;Node3 -->
<g id="edge2" class="edge"><title>Node2&#45;&gt;Node3</title>
<path fill="none" stroke="midnightblue" d="M41,-58.7527C41,-51.2504 41,-40.4238 41,-31.0781"/>
<polygon fill="midnightblue" stroke="midnightblue" points="44.5001,-31.0752 41,-21.0752 37.5001,-31.0752 44.5001,-31.0752"/>
</g>
</g>
</svg>
