<?xml version="1.0" encoding="UTF-8" standalone="no"?>
<!DOCTYPE svg PUBLIC "-//W3C//DTD SVG 1.1//EN"
 "http://www.w3.org/Graphics/SVG/1.1/DTD/svg11.dtd">
<!-- Generated by graphviz version 2.30.0 (20130114.0426)
 -->
<!-- Title: /Users/rkwright/Documents/github/readium&#45;sdk&#45;D/ePub3/utilities/byte_stream.cpp Pages: 1 -->
<svg width="1532pt" height="600pt"
 viewBox="0.00 0.00 1532.30 600.00" xmlns="http://www.w3.org/2000/svg" xmlns:xlink="http://www.w3.org/1999/xlink">
<g id="graph0" class="graph" transform="scale(1 1) rotate(0) translate(4 596)">
<title>/Users/rkwright/Documents/github/readium&#45;sdk&#45;D/ePub3/utilities/byte_stream.cpp</title>
<polygon fill="white" stroke="white" points="-4,5 -4,-596 1529.3,-596 1529.3,5 -4,5"/>
<!-- Node1 -->
<g id="node1" class="node"><title>Node1</title>
<polygon fill="#bfbfbf" stroke="black" points="1182.26,-547 1182.26,-591 1328.33,-591 1328.33,-547 1182.26,-547"/>
<text text-anchor="start" x="1190.26" y="-577" font-family="Helvetica,sans-Serif" font-size="10.00">/Users/rkwright/Documents</text>
<text text-anchor="start" x="1190.26" y="-565" font-family="Helvetica,sans-Serif" font-size="10.00">/github/readium&#45;sdk&#45;D/ePub3</text>
<text text-anchor="middle" x="1255.3" y="-553" font-family="Helvetica,sans-Serif" font-size="10.00">/utilities/byte_stream.cpp</text>
</g>
<!-- Node2 -->
<g id="node2" class="node"><title>Node2</title>
<g id="a_node2"><a xlink:href="byte__stream_8h.xhtml" target="_top" xlink:title="byte_stream.h">
<polygon fill="white" stroke="black" points="429.616,-489 429.616,-509 508.98,-509 508.98,-489 429.616,-489"/>
<text text-anchor="middle" x="469.298" y="-495" font-family="Helvetica,sans-Serif" font-size="10.00">byte_stream.h</text>
</a>
</g>
</g>
<!-- Node1&#45;&gt;Node2 -->
<g id="edge1" class="edge"><title>Node1&#45;&gt;Node2</title>
<path fill="none" stroke="midnightblue" d="M1182.06,-561.664C1023.83,-547.975 653.53,-515.939 519.144,-504.312"/>
<polygon fill="midnightblue" stroke="midnightblue" points="519.394,-500.821 509.13,-503.446 518.791,-507.795 519.394,-500.821"/>
</g>
<!-- Node46 -->
<g id="node46" class="node"><title>Node46</title>
<polygon fill="white" stroke="#bfbfbf" points="1234.24,-489 1234.24,-509 1276.36,-509 1276.36,-489 1234.24,-489"/>
<text text-anchor="middle" x="1255.3" y="-495" font-family="Helvetica,sans-Serif" font-size="10.00">cstdio</text>
</g>
<!-- Node1&#45;&gt;Node46 -->
<g id="edge61" class="edge"><title>Node1&#45;&gt;Node46</title>
<path fill="none" stroke="midnightblue" d="M1255.3,-546.857C1255.3,-538.074 1255.3,-527.948 1255.3,-519.362"/>
<polygon fill="midnightblue" stroke="midnightblue" points="1258.8,-519.204 1255.3,-509.204 1251.8,-519.204 1258.8,-519.204"/>
</g>
<!-- Node30 -->
<g id="node30" class="node"><title>Node30</title>
<polygon fill="white" stroke="#bfbfbf" points="651.126,-233 651.126,-253 705.47,-253 705.47,-233 651.126,-233"/>
<text text-anchor="middle" x="678.298" y="-239" font-family="Helvetica,sans-Serif" font-size="10.00">iostream</text>
</g>
<!-- Node1&#45;&gt;Node30 -->
<g id="edge62" class="edge"><title>Node1&#45;&gt;Node30</title>
<path fill="none" stroke="midnightblue" d="M1242.87,-546.77C1236.95,-536.016 1230.12,-522.598 1225.3,-510 1200.66,-445.676 1234.67,-409.043 1186.3,-360 1143.9,-317.01 1112.13,-344.388 1055.3,-324 1020.47,-311.505 1014.8,-300.445 979.298,-290 886.916,-262.818 773.601,-251.029 715.919,-246.489"/>
<polygon fill="midnightblue" stroke="midnightblue" points="716.049,-242.989 705.813,-245.724 715.521,-249.969 716.049,-242.989"/>
</g>
<!-- Node47 -->
<g id="node47" class="node"><title>Node47</title>
<polygon fill="white" stroke="#bfbfbf" points="1293.95,-489 1293.95,-509 1356.64,-509 1356.64,-489 1293.95,-489"/>
<text text-anchor="middle" x="1325.3" y="-495" font-family="Helvetica,sans-Serif" font-size="10.00">libzip/zip.h</text>
</g>
<!-- Node1&#45;&gt;Node47 -->
<g id="edge63" class="edge"><title>Node1&#45;&gt;Node47</title>
<path fill="none" stroke="midnightblue" d="M1277.06,-546.857C1287.22,-536.988 1299.13,-525.425 1308.57,-516.255"/>
<polygon fill="midnightblue" stroke="midnightblue" points="1311.09,-518.682 1315.82,-509.204 1306.21,-513.661 1311.09,-518.682"/>
</g>
<!-- Node48 -->
<g id="node48" class="node"><title>Node48</title>
<polygon fill="white" stroke="#bfbfbf" points="1374.67,-489 1374.67,-509 1447.92,-509 1447.92,-489 1374.67,-489"/>
<text text-anchor="middle" x="1411.3" y="-495" font-family="Helvetica,sans-Serif" font-size="10.00">libzip/zipint.h</text>
</g>
<!-- Node1&#45;&gt;Node48 -->
<g id="edge64" class="edge"><title>Node1&#45;&gt;Node48</title>
<path fill="none" stroke="midnightblue" d="M1303.8,-546.857C1329.09,-535.835 1359.22,-522.699 1381.14,-513.144"/>
<polygon fill="midnightblue" stroke="midnightblue" points="1382.82,-516.231 1390.59,-509.027 1380.02,-509.814 1382.82,-516.231"/>
</g>
<!-- Node49 -->
<g id="node49" class="node"><title>Node49</title>
<polygon fill="white" stroke="#bfbfbf" points="1466.18,-489 1466.18,-509 1524.42,-509 1524.42,-489 1466.18,-489"/>
<text text-anchor="middle" x="1495.3" y="-495" font-family="Helvetica,sans-Serif" font-size="10.00">sys/stat.h</text>
</g>
<!-- Node1&#45;&gt;Node49 -->
<g id="edge65" class="edge"><title>Node1&#45;&gt;Node49</title>
<path fill="none" stroke="midnightblue" d="M1328.61,-547.228C1370.77,-535.284 1422.03,-520.759 1456.48,-510.998"/>
<polygon fill="midnightblue" stroke="midnightblue" points="1457.5,-514.347 1466.17,-508.253 1455.59,-507.612 1457.5,-514.347"/>
</g>
<!-- Node41 -->
<g id="node41" class="node"><title>Node41</title>
<g id="a_node41"><a xlink:href="make__unique_8h.xhtml" target="_top" xlink:title="ePub3/utilities/make\l_unique.h">
<polygon fill="white" stroke="black" points="43.5519,-291 43.5519,-323 149.044,-323 149.044,-291 43.5519,-291"/>
<text text-anchor="start" x="51.5519" y="-309" font-family="Helvetica,sans-Serif" font-size="10.00">ePub3/utilities/make</text>
<text text-anchor="middle" x="96.298" y="-297" font-family="Helvetica,sans-Serif" font-size="10.00">_unique.h</text>
</a>
</g>
</g>
<!-- Node1&#45;&gt;Node41 -->
<g id="edge66" class="edge"><title>Node1&#45;&gt;Node41</title>
<path fill="none" stroke="midnightblue" d="M1182.19,-565.514C944.789,-556.76 206.317,-523.93 129.298,-452 96.6267,-421.488 93.1465,-365.772 94.2529,-333.317"/>
<polygon fill="midnightblue" stroke="midnightblue" points="97.7512,-333.438 94.7684,-323.272 90.7604,-333.079 97.7512,-333.438"/>
</g>
<!-- Node3 -->
<g id="node3" class="node"><title>Node3</title>
<polygon fill="white" stroke="#bfbfbf" points="396.377,-361 396.377,-381 480.219,-381 480.219,-361 396.377,-361"/>
<text text-anchor="middle" x="438.298" y="-367" font-family="Helvetica,sans-Serif" font-size="10.00">ePub3/epub3.h</text>
</g>
<!-- Node2&#45;&gt;Node3 -->
<g id="edge2" class="edge"><title>Node2&#45;&gt;Node3</title>
<path fill="none" stroke="midnightblue" d="M509.156,-494.536C537.226,-489.777 572.949,-478.529 591.298,-452 599.894,-439.572 600.315,-430.126 591.298,-418 584.824,-409.294 529.116,-394.048 486.771,-383.507"/>
<polygon fill="midnightblue" stroke="midnightblue" points="487.423,-380.064 476.876,-381.069 485.748,-386.86 487.423,-380.064"/>
</g>
<!-- Node4 -->
<g id="node4" class="node"><title>Node4</title>
<g id="a_node4"><a xlink:href="ring__buffer_8h.xhtml" target="_top" xlink:title="ePub3/utilities/ring\l_buffer.h">
<polygon fill="white" stroke="black" points="639.441,-419 639.441,-451 737.155,-451 737.155,-419 639.441,-419"/>
<text text-anchor="start" x="647.441" y="-437" font-family="Helvetica,sans-Serif" font-size="10.00">ePub3/utilities/ring</text>
<text text-anchor="middle" x="688.298" y="-425" font-family="Helvetica,sans-Serif" font-size="10.00">_buffer.h</text>
</a>
</g>
</g>
<!-- Node2&#45;&gt;Node4 -->
<g id="edge3" class="edge"><title>Node2&#45;&gt;Node4</title>
<path fill="none" stroke="midnightblue" d="M501.142,-488.985C534.749,-479.47 588.463,-464.264 629.744,-452.577"/>
<polygon fill="midnightblue" stroke="midnightblue" points="630.748,-455.93 639.416,-449.839 628.841,-449.195 630.748,-455.93"/>
</g>
<!-- Node17 -->
<g id="node17" class="node"><title>Node17</title>
<polygon fill="white" stroke="#bfbfbf" points="161.894,-425 161.894,-445 220.702,-445 220.702,-425 161.894,-425"/>
<text text-anchor="middle" x="191.298" y="-431" font-family="Helvetica,sans-Serif" font-size="10.00">functional</text>
</g>
<!-- Node2&#45;&gt;Node17 -->
<g id="edge17" class="edge"><title>Node2&#45;&gt;Node17</title>
<path fill="none" stroke="midnightblue" d="M429.611,-492.989C381.512,-486.325 298.327,-472.896 229.298,-452 226.311,-451.096 223.24,-450.036 220.199,-448.899"/>
<polygon fill="midnightblue" stroke="midnightblue" points="221.317,-445.576 210.732,-445.103 218.712,-452.073 221.317,-445.576"/>
</g>
<!-- Node18 -->
<g id="node18" class="node"><title>Node18</title>
<polygon fill="white" stroke="#bfbfbf" points="238.798,-425 238.798,-445 267.798,-445 267.798,-425 238.798,-425"/>
<text text-anchor="middle" x="253.19" y="-431" font-family="Helvetica,sans-Serif" font-size="10.00">ios</text>
</g>
<!-- Node2&#45;&gt;Node18 -->
<g id="edge18" class="edge"><title>Node2&#45;&gt;Node18</title>
<path fill="none" stroke="midnightblue" d="M429.379,-492.642C389.605,-486.346 327.404,-473.872 277.298,-452 276.11,-451.482 274.918,-450.905 273.733,-450.286"/>
<polygon fill="midnightblue" stroke="midnightblue" points="275.396,-447.201 265.028,-445.017 271.771,-453.189 275.396,-447.201"/>
</g>
<!-- Node19 -->
<g id="node19" class="node"><title>Node19</title>
<polygon fill="white" stroke="#bfbfbf" points="286.121,-425 286.121,-445 330.475,-445 330.475,-425 286.121,-425"/>
<text text-anchor="middle" x="308.298" y="-431" font-family="Helvetica,sans-Serif" font-size="10.00">thread</text>
</g>
<!-- Node2&#45;&gt;Node19 -->
<g id="edge19" class="edge"><title>Node2&#45;&gt;Node19</title>
<path fill="none" stroke="midnightblue" d="M440.205,-488.966C413.568,-480.4 373.246,-466.686 339.298,-452 337.505,-451.225 335.672,-450.39 333.838,-449.525"/>
<polygon fill="midnightblue" stroke="midnightblue" points="335.343,-446.365 324.829,-445.06 332.235,-452.637 335.343,-446.365"/>
</g>
<!-- Node20 -->
<g id="node20" class="node"><title>Node20</title>
<g id="a_node20"><a xlink:href="run__loop_8h.xhtml" target="_top" xlink:title="ePub3/utilities/run\l_loop.h">
<polygon fill="white" stroke="black" points="785.552,-419 785.552,-451 881.044,-451 881.044,-419 785.552,-419"/>
<text text-anchor="start" x="793.552" y="-437" font-family="Helvetica,sans-Serif" font-size="10.00">ePub3/utilities/run</text>
<text text-anchor="middle" x="833.298" y="-425" font-family="Helvetica,sans-Serif" font-size="10.00">_loop.h</text>
</a>
</g>
</g>
<!-- Node2&#45;&gt;Node20 -->
<g id="edge20" class="edge"><title>Node2&#45;&gt;Node20</title>
<path fill="none" stroke="midnightblue" d="M509.093,-491.556C562.764,-482.822 661.31,-466.634 745.298,-452 755.05,-450.301 765.403,-448.456 775.451,-446.643"/>
<polygon fill="midnightblue" stroke="midnightblue" points="776.149,-450.073 785.365,-444.847 774.902,-443.185 776.149,-450.073"/>
</g>
<!-- Node2&#45;&gt;Node41 -->
<g id="edge53" class="edge"><title>Node2&#45;&gt;Node41</title>
<path fill="none" stroke="midnightblue" d="M429.512,-497.063C354.377,-494.529 195.366,-485.275 153.298,-452 134.105,-436.818 113.387,-370.42 103.017,-333.316"/>
<polygon fill="midnightblue" stroke="midnightblue" points="106.28,-331.981 100.26,-323.263 99.5294,-333.832 106.28,-331.981"/>
</g>
<!-- Node44 -->
<g id="node44" class="node"><title>Node44</title>
<polygon fill="white" stroke="#bfbfbf" points="348.542,-425 348.542,-445 464.054,-445 464.054,-425 348.542,-425"/>
<text text-anchor="middle" x="406.298" y="-431" font-family="Helvetica,sans-Serif" font-size="10.00">google&#45;url/url_canon.h</text>
</g>
<!-- Node2&#45;&gt;Node44 -->
<g id="edge59" class="edge"><title>Node2&#45;&gt;Node44</title>
<path fill="none" stroke="midnightblue" d="M460.002,-488.852C450.231,-479.236 434.661,-463.913 422.796,-452.236"/>
<polygon fill="midnightblue" stroke="midnightblue" points="425.214,-449.706 415.632,-445.186 420.304,-454.695 425.214,-449.706"/>
</g>
<!-- Node45 -->
<g id="node45" class="node"><title>Node45</title>
<polygon fill="white" stroke="#bfbfbf" points="481.774,-425 481.774,-445 582.822,-445 582.822,-425 481.774,-425"/>
<text text-anchor="middle" x="532.298" y="-431" font-family="Helvetica,sans-Serif" font-size="10.00">google&#45;url/url_util.h</text>
</g>
<!-- Node2&#45;&gt;Node45 -->
<g id="edge60" class="edge"><title>Node2&#45;&gt;Node45</title>
<path fill="none" stroke="midnightblue" d="M478.594,-488.852C488.365,-479.236 503.935,-463.913 515.8,-452.236"/>
<polygon fill="midnightblue" stroke="midnightblue" points="518.292,-454.695 522.964,-445.186 513.382,-449.706 518.292,-454.695"/>
</g>
<!-- Node4&#45;&gt;Node3 -->
<g id="edge4" class="edge"><title>Node4&#45;&gt;Node3</title>
<path fill="none" stroke="midnightblue" d="M639.126,-421.474C634.453,-420.295 629.787,-419.122 625.298,-418 577.659,-406.091 523.13,-392.706 485.298,-383.458"/>
<polygon fill="midnightblue" stroke="midnightblue" points="486.117,-380.055 475.572,-381.082 484.456,-386.855 486.117,-380.055"/>
</g>
<!-- Node5 -->
<g id="node5" class="node"><title>Node5</title>
<g id="a_node5"><a xlink:href="basic_8h.xhtml" target="_top" xlink:title="ePub3/utilities/basic.h">
<polygon fill="white" stroke="black" points="1063.94,-297 1063.94,-317 1176.66,-317 1176.66,-297 1063.94,-297"/>
<text text-anchor="middle" x="1120.3" y="-303" font-family="Helvetica,sans-Serif" font-size="10.00">ePub3/utilities/basic.h</text>
</a>
</g>
</g>
<!-- Node4&#45;&gt;Node5 -->
<g id="edge5" class="edge"><title>Node4&#45;&gt;Node5</title>
<path fill="none" stroke="midnightblue" d="M705.607,-418.814C726.2,-401.634 762.334,-374.204 798.298,-360 843.629,-342.096 973.586,-324.759 1053.87,-315.321"/>
<polygon fill="midnightblue" stroke="midnightblue" points="1054.36,-318.788 1063.88,-314.154 1053.55,-311.835 1054.36,-318.788"/>
</g>
<!-- Node16 -->
<g id="node16" class="node"><title>Node16</title>
<polygon fill="white" stroke="#bfbfbf" points="498.682,-361 498.682,-381 541.914,-381 541.914,-361 498.682,-361"/>
<text text-anchor="middle" x="520.298" y="-367" font-family="Helvetica,sans-Serif" font-size="10.00">mutex</text>
</g>
<!-- Node4&#45;&gt;Node16 -->
<g id="edge16" class="edge"><title>Node4&#45;&gt;Node16</title>
<path fill="none" stroke="midnightblue" d="M647.63,-418.992C618.051,-408.075 578.601,-393.516 551.493,-383.512"/>
<polygon fill="midnightblue" stroke="midnightblue" points="552.698,-380.227 542.105,-380.048 550.275,-386.794 552.698,-380.227"/>
</g>
<!-- Node6 -->
<g id="node6" class="node"><title>Node6</title>
<g id="a_node6"><a xlink:href="base_8h.xhtml" target="_top" xlink:title="ePub3/base.h">
<polygon fill="white" stroke="black" points="711.439,-175 711.439,-195 789.157,-195 789.157,-175 711.439,-175"/>
<text text-anchor="middle" x="750.298" y="-181" font-family="Helvetica,sans-Serif" font-size="10.00">ePub3/base.h</text>
</a>
</g>
</g>
<!-- Node5&#45;&gt;Node6 -->
<g id="edge6" class="edge"><title>Node5&#45;&gt;Node6</title>
<path fill="none" stroke="midnightblue" d="M1132.62,-296.808C1151.01,-282.008 1181.63,-252.485 1163.3,-232 1139.4,-205.296 903.846,-192.335 799.553,-187.87"/>
<polygon fill="midnightblue" stroke="midnightblue" points="799.424,-184.361 789.286,-187.439 799.131,-191.355 799.424,-184.361"/>
</g>
<!-- Node11 -->
<g id="node11" class="node"><title>Node11</title>
<polygon fill="white" stroke="#bfbfbf" points="971.113,-233 971.113,-253 1085.48,-253 1085.48,-233 971.113,-233"/>
<text text-anchor="middle" x="1028.3" y="-239" font-family="Helvetica,sans-Serif" font-size="10.00">ePub3/xml/xmlstring.h</text>
</g>
<!-- Node5&#45;&gt;Node11 -->
<g id="edge11" class="edge"><title>Node5&#45;&gt;Node11</title>
<path fill="none" stroke="midnightblue" d="M1106.72,-296.852C1091.91,-286.87 1067.97,-270.737 1050.43,-258.918"/>
<polygon fill="midnightblue" stroke="midnightblue" points="1052.18,-255.872 1041.93,-253.186 1048.27,-261.677 1052.18,-255.872"/>
</g>
<!-- Node12 -->
<g id="node12" class="node"><title>Node12</title>
<polygon fill="white" stroke="#bfbfbf" points="1103.52,-233 1103.52,-253 1155.08,-253 1155.08,-233 1103.52,-233"/>
<text text-anchor="middle" x="1129.3" y="-239" font-family="Helvetica,sans-Serif" font-size="10.00">sstream</text>
</g>
<!-- Node5&#45;&gt;Node12 -->
<g id="edge12" class="edge"><title>Node5&#45;&gt;Node12</title>
<path fill="none" stroke="midnightblue" d="M1121.63,-296.852C1122.9,-288.06 1124.87,-274.498 1126.49,-263.313"/>
<polygon fill="midnightblue" stroke="midnightblue" points="1129.99,-263.585 1127.96,-253.186 1123.06,-262.579 1129.99,-263.585"/>
</g>
<!-- Node13 -->
<g id="node13" class="node"><title>Node13</title>
<polygon fill="white" stroke="#bfbfbf" points="413.241,-175 413.241,-195 465.355,-195 465.355,-175 413.241,-175"/>
<text text-anchor="middle" x="439.298" y="-181" font-family="Helvetica,sans-Serif" font-size="10.00">memory</text>
</g>
<!-- Node5&#45;&gt;Node13 -->
<g id="edge13" class="edge"><title>Node5&#45;&gt;Node13</title>
<path fill="none" stroke="midnightblue" d="M1086.6,-296.988C1054.12,-287.819 1003.91,-272.371 962.298,-254 944.093,-245.962 942.285,-237.961 923.298,-232 839.758,-205.775 573.729,-191.844 475.874,-187.505"/>
<polygon fill="midnightblue" stroke="midnightblue" points="475.739,-183.996 465.596,-187.057 475.435,-190.989 475.739,-183.996"/>
</g>
<!-- Node14 -->
<g id="node14" class="node"><title>Node14</title>
<polygon fill="white" stroke="#bfbfbf" points="818.682,-233 818.682,-253 861.914,-253 861.914,-233 818.682,-233"/>
<text text-anchor="middle" x="840.298" y="-239" font-family="Helvetica,sans-Serif" font-size="10.00">vector</text>
</g>
<!-- Node5&#45;&gt;Node14 -->
<g id="edge14" class="edge"><title>Node5&#45;&gt;Node14</title>
<path fill="none" stroke="midnightblue" d="M1081.45,-296.971C1071.32,-294.657 1060.41,-292.201 1050.3,-290 973.134,-273.201 953.053,-272.578 876.298,-254 874.84,-253.647 873.352,-253.276 871.85,-252.894"/>
<polygon fill="midnightblue" stroke="midnightblue" points="872.502,-249.446 861.939,-250.264 870.707,-256.212 872.502,-249.446"/>
</g>
<!-- Node15 -->
<g id="node15" class="node"><title>Node15</title>
<polygon fill="white" stroke="#bfbfbf" points="885.798,-233 885.798,-253 914.798,-253 914.798,-233 885.798,-233"/>
<text text-anchor="middle" x="899.909" y="-239" font-family="Helvetica,sans-Serif" font-size="10.00">list</text>
</g>
<!-- Node5&#45;&gt;Node15 -->
<g id="edge15" class="edge"><title>Node5&#45;&gt;Node15</title>
<path fill="none" stroke="midnightblue" d="M1084.19,-296.93C1045.63,-287.068 982.831,-270.497 929.298,-254 927.835,-253.549 926.334,-253.073 924.824,-252.584"/>
<polygon fill="midnightblue" stroke="midnightblue" points="925.583,-249.147 914.989,-249.277 923.352,-255.782 925.583,-249.147"/>
</g>
<!-- Node7 -->
<g id="node7" class="node"><title>Node7</title>
<g id="a_node7"><a xlink:href="__config_8h.xhtml" target="_top" xlink:title="_config.h">
<polygon fill="white" stroke="black" points="687.005,-117 687.005,-137 743.591,-137 743.591,-117 687.005,-117"/>
<text text-anchor="middle" x="715.298" y="-123" font-family="Helvetica,sans-Serif" font-size="10.00">_config.h</text>
</a>
</g>
</g>
<!-- Node6&#45;&gt;Node7 -->
<g id="edge7" class="edge"><title>Node6&#45;&gt;Node7</title>
<path fill="none" stroke="midnightblue" d="M744.518,-174.753C739.575,-166.843 732.321,-155.237 726.278,-145.568"/>
<polygon fill="midnightblue" stroke="midnightblue" points="729.238,-143.7 720.97,-137.075 723.302,-147.41 729.238,-143.7"/>
</g>
<!-- Node10 -->
<g id="node10" class="node"><title>Node10</title>
<polygon fill="white" stroke="#bfbfbf" points="761.456,-117 761.456,-137 809.14,-137 809.14,-117 761.456,-117"/>
<text text-anchor="middle" x="785.298" y="-123" font-family="Helvetica,sans-Serif" font-size="10.00">stdlib.h</text>
</g>
<!-- Node6&#45;&gt;Node10 -->
<g id="edge10" class="edge"><title>Node6&#45;&gt;Node10</title>
<path fill="none" stroke="midnightblue" d="M756.078,-174.753C761.021,-166.843 768.275,-155.237 774.318,-145.568"/>
<polygon fill="midnightblue" stroke="midnightblue" points="777.294,-147.41 779.626,-137.075 771.358,-143.7 777.294,-147.41"/>
</g>
<!-- Node8 -->
<g id="node8" class="node"><title>Node8</title>
<g id="a_node8"><a xlink:href="__platform_8h.xhtml" target="_top" xlink:title="_platform.h">
<polygon fill="white" stroke="black" points="682.286,-59 682.286,-79 748.31,-79 748.31,-59 682.286,-59"/>
<text text-anchor="middle" x="715.298" y="-65" font-family="Helvetica,sans-Serif" font-size="10.00">_platform.h</text>
</a>
</g>
</g>
<!-- Node7&#45;&gt;Node8 -->
<g id="edge8" class="edge"><title>Node7&#45;&gt;Node8</title>
<path fill="none" stroke="midnightblue" d="M715.298,-116.753C715.298,-109.25 715.298,-98.4238 715.298,-89.0781"/>
<polygon fill="midnightblue" stroke="midnightblue" points="718.798,-89.0752 715.298,-79.0752 711.798,-89.0752 718.798,-89.0752"/>
</g>
<!-- Node9 -->
<g id="node9" class="node"><title>Node9</title>
<g id="a_node9"><a xlink:href="__compiler_8h.xhtml" target="_top" xlink:title="_compiler.h">
<polygon fill="white" stroke="black" points="681.727,-1 681.727,-21 748.869,-21 748.869,-1 681.727,-1"/>
<text text-anchor="middle" x="715.298" y="-7" font-family="Helvetica,sans-Serif" font-size="10.00">_compiler.h</text>
</a>
</g>
</g>
<!-- Node8&#45;&gt;Node9 -->
<g id="edge9" class="edge"><title>Node8&#45;&gt;Node9</title>
<path fill="none" stroke="midnightblue" d="M715.298,-58.7527C715.298,-51.2504 715.298,-40.4238 715.298,-31.0781"/>
<polygon fill="midnightblue" stroke="midnightblue" points="718.798,-31.0752 715.298,-21.0752 711.798,-31.0752 718.798,-31.0752"/>
</g>
<!-- Node20&#45;&gt;Node6 -->
<g id="edge21" class="edge"><title>Node20&#45;&gt;Node6</title>
<path fill="none" stroke="midnightblue" d="M881.167,-434.314C968.303,-433.755 1147.43,-427.01 1186.3,-382 1229.9,-331.501 1226.99,-279.661 1180.3,-232 1154.05,-205.205 906.737,-192.212 799.502,-187.801"/>
<polygon fill="midnightblue" stroke="midnightblue" points="799.402,-184.294 789.269,-187.389 799.12,-191.289 799.402,-184.294"/>
</g>
<!-- Node21 -->
<g id="node21" class="node"><title>Node21</title>
<polygon fill="white" stroke="#bfbfbf" points="815.993,-361 815.993,-381 912.603,-381 912.603,-361 815.993,-361"/>
<text text-anchor="middle" x="864.298" y="-367" font-family="Helvetica,sans-Serif" font-size="10.00">condition_variable</text>
</g>
<!-- Node20&#45;&gt;Node21 -->
<g id="edge22" class="edge"><title>Node20&#45;&gt;Node21</title>
<path fill="none" stroke="midnightblue" d="M840.802,-418.992C845.118,-410.359 850.574,-399.448 855.141,-390.314"/>
<polygon fill="midnightblue" stroke="midnightblue" points="858.311,-391.8 859.653,-381.29 852.05,-388.669 858.311,-391.8"/>
</g>
<!-- Node22 -->
<g id="node22" class="node"><title>Node22</title>
<polygon fill="white" stroke="#bfbfbf" points="930.17,-361 930.17,-381 988.426,-381 988.426,-361 930.17,-361"/>
<text text-anchor="middle" x="959.298" y="-367" font-family="Helvetica,sans-Serif" font-size="10.00">pthread.h</text>
</g>
<!-- Node20&#45;&gt;Node22 -->
<g id="edge23" class="edge"><title>Node20&#45;&gt;Node22</title>
<path fill="none" stroke="midnightblue" d="M863.799,-418.992C884.454,-408.828 911.526,-395.507 931.57,-385.644"/>
<polygon fill="midnightblue" stroke="midnightblue" points="933.359,-388.664 940.787,-381.109 930.269,-382.383 933.359,-388.664"/>
</g>
<!-- Node23 -->
<g id="node23" class="node"><title>Node23</title>
<polygon fill="white" stroke="#bfbfbf" points="1006.68,-361 1006.68,-381 1049.91,-381 1049.91,-361 1006.68,-361"/>
<text text-anchor="middle" x="1028.3" y="-367" font-family="Helvetica,sans-Serif" font-size="10.00">time.h</text>
</g>
<!-- Node20&#45;&gt;Node23 -->
<g id="edge24" class="edge"><title>Node20&#45;&gt;Node23</title>
<path fill="none" stroke="midnightblue" d="M881.041,-418.931C911.598,-409.271 952.333,-396.364 997.027,-382.076"/>
<polygon fill="midnightblue" stroke="midnightblue" points="998.164,-385.388 1006.62,-379.007 996.031,-378.72 998.164,-385.388"/>
</g>
<!-- Node20&#45;&gt;Node3 -->
<g id="edge25" class="edge"><title>Node20&#45;&gt;Node3</title>
<path fill="none" stroke="midnightblue" d="M785.403,-424.931C772.408,-422.569 758.329,-420.1 745.298,-418 635.077,-400.237 604.328,-401.001 490.462,-382.122"/>
<polygon fill="midnightblue" stroke="midnightblue" points="490.73,-378.618 480.29,-380.42 489.575,-385.522 490.73,-378.618"/>
</g>
<!-- Node20&#45;&gt;Node5 -->
<g id="edge26" class="edge"><title>Node20&#45;&gt;Node5</title>
<path fill="none" stroke="midnightblue" d="M820.043,-418.798C807.59,-402.614 792.859,-377.036 807.298,-360 811.289,-355.291 963.196,-331.675 1053.89,-317.943"/>
<polygon fill="midnightblue" stroke="midnightblue" points="1054.45,-321.397 1063.82,-316.442 1053.41,-314.476 1054.45,-321.397"/>
</g>
<!-- Node24 -->
<g id="node24" class="node"><title>Node24</title>
<g id="a_node24"><a xlink:href="utfstring_8h.xhtml" target="_top" xlink:title="ePub3/utilities/utfstring.h">
<polygon fill="white" stroke="black" points="559.823,-361 559.823,-381 684.773,-381 684.773,-361 559.823,-361"/>
<text text-anchor="middle" x="622.298" y="-367" font-family="Helvetica,sans-Serif" font-size="10.00">ePub3/utilities/utfstring.h</text>
</a>
</g>
</g>
<!-- Node20&#45;&gt;Node24 -->
<g id="edge27" class="edge"><title>Node20&#45;&gt;Node24</title>
<path fill="none" stroke="midnightblue" d="M785.419,-419.931C748.457,-409.07 697.882,-394.21 662.89,-383.927"/>
<polygon fill="midnightblue" stroke="midnightblue" points="663.592,-380.486 653.011,-381.025 661.619,-387.202 663.592,-380.486"/>
</g>
<!-- Node39 -->
<g id="node39" class="node"><title>Node39</title>
<polygon fill="white" stroke="#bfbfbf" points="1068.01,-361 1068.01,-381 1114.59,-381 1114.59,-361 1068.01,-361"/>
<text text-anchor="middle" x="1091.3" y="-367" font-family="Helvetica,sans-Serif" font-size="10.00">chrono</text>
</g>
<!-- Node20&#45;&gt;Node39 -->
<g id="edge49" class="edge"><title>Node20&#45;&gt;Node39</title>
<path fill="none" stroke="midnightblue" d="M881.371,-423.869C924.942,-414.467 991.111,-399.643 1058.04,-381.931"/>
<polygon fill="midnightblue" stroke="midnightblue" points="1059.16,-385.255 1067.92,-379.297 1057.35,-378.491 1059.16,-385.255"/>
</g>
<!-- Node20&#45;&gt;Node15 -->
<g id="edge50" class="edge"><title>Node20&#45;&gt;Node15</title>
<path fill="none" stroke="midnightblue" d="M816.978,-418.887C801.81,-403.011 783.602,-377.907 798.298,-360 850.332,-296.598 927.264,-387.402 979.298,-324 988.884,-312.319 986.829,-303.101 979.298,-290 977.699,-287.219 946.594,-269.594 923.9,-256.99"/>
<polygon fill="midnightblue" stroke="midnightblue" points="925.542,-253.899 915.098,-252.118 922.153,-260.023 925.542,-253.899"/>
</g>
<!-- Node20&#45;&gt;Node16 -->
<g id="edge51" class="edge"><title>Node20&#45;&gt;Node16</title>
<path fill="none" stroke="midnightblue" d="M785.378,-425.245C715.343,-412.44 589.92,-389.467 552.113,-381.656"/>
<polygon fill="midnightblue" stroke="midnightblue" points="552.732,-378.208 542.211,-379.457 551.215,-385.042 552.732,-378.208"/>
</g>
<!-- Node40 -->
<g id="node40" class="node"><title>Node40</title>
<polygon fill="white" stroke="#bfbfbf" points="1132.57,-361 1132.57,-381 1178.02,-381 1178.02,-361 1132.57,-361"/>
<text text-anchor="middle" x="1155.3" y="-367" font-family="Helvetica,sans-Serif" font-size="10.00">atomic</text>
</g>
<!-- Node20&#45;&gt;Node40 -->
<g id="edge52" class="edge"><title>Node20&#45;&gt;Node40</title>
<path fill="none" stroke="midnightblue" d="M881.152,-427.302C936.93,-419.079 1031.98,-403.777 1122.45,-381.968"/>
<polygon fill="midnightblue" stroke="midnightblue" points="1123.44,-385.331 1132.32,-379.558 1121.78,-378.53 1123.44,-385.331"/>
</g>
<!-- Node24&#45;&gt;Node5 -->
<g id="edge28" class="edge"><title>Node24&#45;&gt;Node5</title>
<path fill="none" stroke="midnightblue" d="M684.866,-362.21C779.228,-350.462 957.174,-328.309 1053.8,-316.279"/>
<polygon fill="midnightblue" stroke="midnightblue" points="1054.25,-319.749 1063.74,-315.041 1053.39,-312.803 1054.25,-319.749"/>
</g>
<!-- Node25 -->
<g id="node25" class="node"><title>Node25</title>
<g id="a_node25"><a xlink:href="integer__sequence_8h.xhtml" target="_top" xlink:title="ePub3/utilities/integer\l_sequence.h">
<polygon fill="white" stroke="black" points="694.49,-291 694.49,-323 806.106,-323 806.106,-291 694.49,-291"/>
<text text-anchor="start" x="702.49" y="-309" font-family="Helvetica,sans-Serif" font-size="10.00">ePub3/utilities/integer</text>
<text text-anchor="middle" x="750.298" y="-297" font-family="Helvetica,sans-Serif" font-size="10.00">_sequence.h</text>
</a>
</g>
</g>
<!-- Node24&#45;&gt;Node25 -->
<g id="edge29" class="edge"><title>Node24&#45;&gt;Node25</title>
<path fill="none" stroke="midnightblue" d="M640.91,-360.985C658.949,-352.247 686.898,-338.709 710.029,-327.505"/>
<polygon fill="midnightblue" stroke="midnightblue" points="711.803,-330.535 719.277,-323.026 708.751,-324.235 711.803,-330.535"/>
</g>
<!-- Node26 -->
<g id="node26" class="node"><title>Node26</title>
<g id="a_node26"><a xlink:href="string__view_8h.xhtml" target="_top" xlink:title="ePub3/utilities/string\l_view.h">
<polygon fill="white" stroke="black" points="205.552,-291 205.552,-323 311.044,-323 311.044,-291 205.552,-291"/>
<text text-anchor="start" x="213.552" y="-309" font-family="Helvetica,sans-Serif" font-size="10.00">ePub3/utilities/string</text>
<text text-anchor="middle" x="258.298" y="-297" font-family="Helvetica,sans-Serif" font-size="10.00">_view.h</text>
</a>
</g>
</g>
<!-- Node24&#45;&gt;Node26 -->
<g id="edge31" class="edge"><title>Node24&#45;&gt;Node26</title>
<path fill="none" stroke="midnightblue" d="M559.545,-361.207C489.27,-351.233 378.707,-335.132 321.379,-324.064"/>
<polygon fill="midnightblue" stroke="midnightblue" points="321.807,-320.581 311.316,-322.059 320.439,-327.446 321.807,-320.581"/>
</g>
<!-- Node28 -->
<g id="node28" class="node"><title>Node28</title>
<polygon fill="white" stroke="#bfbfbf" points="525.071,-233 525.071,-253 565.525,-253 565.525,-233 525.071,-233"/>
<text text-anchor="middle" x="545.298" y="-239" font-family="Helvetica,sans-Serif" font-size="10.00">string</text>
</g>
<!-- Node24&#45;&gt;Node28 -->
<g id="edge40" class="edge"><title>Node24&#45;&gt;Node28</title>
<path fill="none" stroke="midnightblue" d="M629.795,-360.929C641.701,-345.352 662.142,-312.979 647.298,-290 631.596,-265.694 599.634,-254.1 575.649,-248.653"/>
<polygon fill="midnightblue" stroke="midnightblue" points="576.1,-245.174 565.604,-246.618 574.71,-252.034 576.1,-245.174"/>
</g>
<!-- Node33 -->
<g id="node33" class="node"><title>Node33</title>
<polygon fill="white" stroke="#bfbfbf" points="862.736,-297 862.736,-317 909.86,-317 909.86,-297 862.736,-297"/>
<text text-anchor="middle" x="886.298" y="-303" font-family="Helvetica,sans-Serif" font-size="10.00">iterator</text>
</g>
<!-- Node24&#45;&gt;Node33 -->
<g id="edge41" class="edge"><title>Node24&#45;&gt;Node33</title>
<path fill="none" stroke="midnightblue" d="M683.068,-360.984C729.036,-353.361 793.4,-340.961 848.298,-324 851.279,-323.079 854.347,-322.007 857.386,-320.864"/>
<polygon fill="midnightblue" stroke="midnightblue" points="858.877,-324.036 866.85,-317.059 856.266,-317.542 858.877,-324.036"/>
</g>
<!-- Node34 -->
<g id="node34" class="node"><title>Node34</title>
<polygon fill="white" stroke="#bfbfbf" points="928.234,-297 928.234,-317 970.362,-317 970.362,-297 928.234,-297"/>
<text text-anchor="middle" x="949.298" y="-303" font-family="Helvetica,sans-Serif" font-size="10.00">locale</text>
</g>
<!-- Node24&#45;&gt;Node34 -->
<g id="edge42" class="edge"><title>Node24&#45;&gt;Node34</title>
<path fill="none" stroke="midnightblue" d="M684.919,-361.362C765.169,-350.123 896.575,-331.086 918.298,-324 920.45,-323.298 922.634,-322.46 924.796,-321.541"/>
<polygon fill="midnightblue" stroke="midnightblue" points="926.444,-324.632 933.953,-317.159 923.422,-318.318 926.444,-324.632"/>
</g>
<!-- Node24&#45;&gt;Node14 -->
<g id="edge43" class="edge"><title>Node24&#45;&gt;Node14</title>
<path fill="none" stroke="midnightblue" d="M685.055,-361.691C733.577,-354.069 795.542,-341.329 814.298,-324 831.265,-308.325 837.191,-281.48 839.242,-263.252"/>
<polygon fill="midnightblue" stroke="midnightblue" points="842.738,-263.449 840.083,-253.192 835.762,-262.866 842.738,-263.449"/>
</g>
<!-- Node35 -->
<g id="node35" class="node"><title>Node35</title>
<polygon fill="white" stroke="#bfbfbf" points="329.064,-297 329.064,-317 429.532,-317 429.532,-297 329.064,-297"/>
<text text-anchor="middle" x="379.298" y="-303" font-family="Helvetica,sans-Serif" font-size="10.00">REGEX_INCLUDE</text>
</g>
<!-- Node24&#45;&gt;Node35 -->
<g id="edge44" class="edge"><title>Node24&#45;&gt;Node35</title>
<path fill="none" stroke="midnightblue" d="M585.238,-360.964C548.04,-351.84 489.121,-337.243 438.298,-324 432.97,-322.612 427.379,-321.129 421.85,-319.648"/>
<polygon fill="midnightblue" stroke="midnightblue" points="422.602,-316.225 412.035,-317.002 420.78,-322.984 422.602,-316.225"/>
</g>
<!-- Node36 -->
<g id="node36" class="node"><title>Node36</title>
<polygon fill="white" stroke="#bfbfbf" points="447.571,-297 447.571,-317 483.025,-317 483.025,-297 447.571,-297"/>
<text text-anchor="middle" x="465.298" y="-303" font-family="Helvetica,sans-Serif" font-size="10.00">map</text>
</g>
<!-- Node24&#45;&gt;Node36 -->
<g id="edge45" class="edge"><title>Node24&#45;&gt;Node36</title>
<path fill="none" stroke="midnightblue" d="M591.42,-360.945C564.649,-352.657 525.152,-339.368 492.298,-324 490.941,-323.365 489.564,-322.682 488.186,-321.968"/>
<polygon fill="midnightblue" stroke="midnightblue" points="489.745,-318.83 479.309,-317.003 486.328,-324.939 489.745,-318.83"/>
</g>
<!-- Node37 -->
<g id="node37" class="node"><title>Node37</title>
<polygon fill="white" stroke="#bfbfbf" points="500.897,-297 500.897,-317 559.699,-317 559.699,-297 500.897,-297"/>
<text text-anchor="middle" x="530.298" y="-303" font-family="Helvetica,sans-Serif" font-size="10.00">stdexcept</text>
</g>
<!-- Node24&#45;&gt;Node37 -->
<g id="edge46" class="edge"><title>Node24&#45;&gt;Node37</title>
<path fill="none" stroke="midnightblue" d="M608.723,-360.852C593.911,-350.87 569.972,-334.737 552.434,-322.918"/>
<polygon fill="midnightblue" stroke="midnightblue" points="554.177,-319.872 543.929,-317.186 550.265,-325.677 554.177,-319.872"/>
</g>
<!-- Node29 -->
<g id="node29" class="node"><title>Node29</title>
<polygon fill="white" stroke="#bfbfbf" points="255.911,-233 255.911,-253 294.685,-253 294.685,-233 255.911,-233"/>
<text text-anchor="middle" x="275.298" y="-239" font-family="Helvetica,sans-Serif" font-size="10.00">limits</text>
</g>
<!-- Node24&#45;&gt;Node29 -->
<g id="edge47" class="edge"><title>Node24&#45;&gt;Node29</title>
<path fill="none" stroke="midnightblue" d="M559.487,-361.138C556.381,-360.743 553.305,-360.362 550.298,-360 511.045,-355.28 222.802,-353.336 196.298,-324 186.168,-312.787 188.767,-303.101 196.298,-290 202,-280.082 226.334,-266.746 246.507,-256.987"/>
<polygon fill="midnightblue" stroke="midnightblue" points="248.142,-260.086 255.687,-252.648 245.15,-253.757 248.142,-260.086"/>
</g>
<!-- Node38 -->
<g id="node38" class="node"><title>Node38</title>
<polygon fill="white" stroke="#bfbfbf" points="578.059,-297 578.059,-317 638.537,-317 638.537,-297 578.059,-297"/>
<text text-anchor="middle" x="608.298" y="-303" font-family="Helvetica,sans-Serif" font-size="10.00">utf8/utf8.h</text>
</g>
<!-- Node24&#45;&gt;Node38 -->
<g id="edge48" class="edge"><title>Node24&#45;&gt;Node38</title>
<path fill="none" stroke="midnightblue" d="M620.232,-360.852C618.226,-351.969 615.121,-338.215 612.58,-326.964"/>
<polygon fill="midnightblue" stroke="midnightblue" points="615.989,-326.169 610.372,-317.186 609.161,-327.711 615.989,-326.169"/>
</g>
<!-- Node25&#45;&gt;Node6 -->
<g id="edge30" class="edge"><title>Node25&#45;&gt;Node6</title>
<path fill="none" stroke="midnightblue" d="M750.298,-290.802C750.298,-269.123 750.298,-229.313 750.298,-205.49"/>
<polygon fill="midnightblue" stroke="midnightblue" points="753.798,-205.229 750.298,-195.229 746.798,-205.229 753.798,-205.229"/>
</g>
<!-- Node27 -->
<g id="node27" class="node"><title>Node27</title>
<polygon fill="white" stroke="#bfbfbf" points="176.232,-233 176.232,-253 238.364,-253 238.364,-233 176.232,-233"/>
<text text-anchor="middle" x="207.298" y="-239" font-family="Helvetica,sans-Serif" font-size="10.00">type_traits</text>
</g>
<!-- Node26&#45;&gt;Node27 -->
<g id="edge32" class="edge"><title>Node26&#45;&gt;Node27</title>
<path fill="none" stroke="midnightblue" d="M245.952,-290.992C238.549,-281.992 229.109,-270.516 221.411,-261.157"/>
<polygon fill="midnightblue" stroke="midnightblue" points="223.996,-258.79 214.94,-253.29 218.59,-263.237 223.996,-258.79"/>
</g>
<!-- Node26&#45;&gt;Node28 -->
<g id="edge33" class="edge"><title>Node26&#45;&gt;Node28</title>
<path fill="none" stroke="midnightblue" d="M311.354,-292.119C314.376,-291.387 317.374,-290.676 320.298,-290 389.741,-273.952 471.912,-257.887 515.175,-249.653"/>
<polygon fill="midnightblue" stroke="midnightblue" points="515.881,-253.082 525.054,-247.78 514.577,-246.204 515.881,-253.082"/>
</g>
<!-- Node26&#45;&gt;Node29 -->
<g id="edge34" class="edge"><title>Node26&#45;&gt;Node29</title>
<path fill="none" stroke="midnightblue" d="M262.413,-290.992C264.705,-282.635 267.582,-272.142 270.035,-263.194"/>
<polygon fill="midnightblue" stroke="midnightblue" points="273.482,-263.86 272.751,-253.29 266.731,-262.009 273.482,-263.86"/>
</g>
<!-- Node26&#45;&gt;Node30 -->
<g id="edge35" class="edge"><title>Node26&#45;&gt;Node30</title>
<path fill="none" stroke="midnightblue" d="M311.299,-291.858C314.335,-291.193 317.351,-290.567 320.298,-290 381.249,-278.267 562.252,-257.146 641.003,-248.194"/>
<polygon fill="midnightblue" stroke="midnightblue" points="641.429,-251.668 650.971,-247.063 640.641,-244.712 641.429,-251.668"/>
</g>
<!-- Node31 -->
<g id="node31" class="node"><title>Node31</title>
<polygon fill="white" stroke="#bfbfbf" points="312.734,-233 312.734,-253 369.862,-253 369.862,-233 312.734,-233"/>
<text text-anchor="middle" x="341.298" y="-239" font-family="Helvetica,sans-Serif" font-size="10.00">algorithm</text>
</g>
<!-- Node26&#45;&gt;Node31 -->
<g id="edge36" class="edge"><title>Node26&#45;&gt;Node31</title>
<path fill="none" stroke="midnightblue" d="M278.39,-290.992C291.176,-281.441 307.695,-269.101 320.597,-259.463"/>
<polygon fill="midnightblue" stroke="midnightblue" points="322.944,-262.079 328.861,-253.29 318.755,-256.471 322.944,-262.079"/>
</g>
<!-- Node32 -->
<g id="node32" class="node"><title>Node32</title>
<g id="a_node32"><a xlink:href="____strhash_8h.xhtml" target="_top" xlink:title="__strhash.h">
<polygon fill="white" stroke="black" points="405.17,-233 405.17,-253 473.426,-253 473.426,-233 405.17,-233"/>
<text text-anchor="middle" x="439.298" y="-239" font-family="Helvetica,sans-Serif" font-size="10.00">__strhash.h</text>
</a>
</g>
</g>
<!-- Node26&#45;&gt;Node32 -->
<g id="edge37" class="edge"><title>Node26&#45;&gt;Node32</title>
<path fill="none" stroke="midnightblue" d="M302.113,-290.992C333.091,-280.38 374.119,-266.327 403.213,-256.361"/>
<polygon fill="midnightblue" stroke="midnightblue" points="404.644,-259.57 412.97,-253.018 402.375,-252.948 404.644,-259.57"/>
</g>
<!-- Node32&#45;&gt;Node6 -->
<g id="edge38" class="edge"><title>Node32&#45;&gt;Node6</title>
<path fill="none" stroke="midnightblue" d="M473.47,-235.847C528.625,-225.915 637.494,-206.312 701.03,-194.871"/>
<polygon fill="midnightblue" stroke="midnightblue" points="701.982,-198.256 711.203,-193.04 700.741,-191.367 701.982,-198.256"/>
</g>
<!-- Node32&#45;&gt;Node13 -->
<g id="edge39" class="edge"><title>Node32&#45;&gt;Node13</title>
<path fill="none" stroke="midnightblue" d="M439.298,-232.753C439.298,-225.25 439.298,-214.424 439.298,-205.078"/>
<polygon fill="midnightblue" stroke="midnightblue" points="442.798,-205.075 439.298,-195.075 435.798,-205.075 442.798,-205.075"/>
</g>
<!-- Node41&#45;&gt;Node6 -->
<g id="edge54" class="edge"><title>Node41&#45;&gt;Node6</title>
<path fill="none" stroke="midnightblue" d="M105.692,-290.944C117.611,-273.339 139.945,-244.958 167.298,-232 214.925,-209.438 568.79,-193.215 700.819,-187.89"/>
<polygon fill="midnightblue" stroke="midnightblue" points="701.195,-191.378 711.047,-187.481 700.915,-184.383 701.195,-191.378"/>
</g>
<!-- Node42 -->
<g id="node42" class="node"><title>Node42</title>
<polygon fill="white" stroke="#bfbfbf" points="72.1774,-233 72.1774,-253 120.419,-253 120.419,-233 72.1774,-233"/>
<text text-anchor="middle" x="96.298" y="-239" font-family="Helvetica,sans-Serif" font-size="10.00">cstddef</text>
</g>
<!-- Node41&#45;&gt;Node42 -->
<g id="edge55" class="edge"><title>Node41&#45;&gt;Node42</title>
<path fill="none" stroke="midnightblue" d="M96.298,-290.992C96.298,-282.726 96.298,-272.373 96.298,-263.489"/>
<polygon fill="midnightblue" stroke="midnightblue" points="99.7981,-263.29 96.298,-253.29 92.7981,-263.29 99.7981,-263.29"/>
</g>
<!-- Node41&#45;&gt;Node13 -->
<g id="edge56" class="edge"><title>Node41&#45;&gt;Node13</title>
<path fill="none" stroke="midnightblue" d="M54.2629,-290.877C21.7912,-276.949 -14.3985,-255.012 6.29799,-232 32.6672,-202.681 303.683,-190.597 403.041,-187.13"/>
<polygon fill="midnightblue" stroke="midnightblue" points="403.323,-190.623 413.198,-186.785 403.085,-183.627 403.323,-190.623"/>
</g>
<!-- Node41&#45;&gt;Node27 -->
<g id="edge57" class="edge"><title>Node41&#45;&gt;Node27</title>
<path fill="none" stroke="midnightblue" d="M123.168,-290.992C141.033,-281.013 164.348,-267.99 181.902,-258.185"/>
<polygon fill="midnightblue" stroke="midnightblue" points="183.967,-261.041 190.99,-253.109 180.553,-254.93 183.967,-261.041"/>
</g>
<!-- Node43 -->
<g id="node43" class="node"><title>Node43</title>
<polygon fill="white" stroke="#bfbfbf" points="14.9064,-233 14.9064,-253 53.6896,-253 53.6896,-233 14.9064,-233"/>
<text text-anchor="middle" x="34.298" y="-239" font-family="Helvetica,sans-Serif" font-size="10.00">utility</text>
</g>
<!-- Node41&#45;&gt;Node43 -->
<g id="edge58" class="edge"><title>Node41&#45;&gt;Node43</title>
<path fill="none" stroke="midnightblue" d="M81.2895,-290.992C72.106,-281.808 60.3441,-270.046 50.8852,-260.587"/>
<polygon fill="midnightblue" stroke="midnightblue" points="53.1344,-257.887 43.5884,-253.29 48.1846,-262.836 53.1344,-257.887"/>
</g>
</g>
</svg>
