<?xml version="1.0" encoding="UTF-8" standalone="no"?>
<!DOCTYPE svg PUBLIC "-//W3C//DTD SVG 1.1//EN"
 "http://www.w3.org/Graphics/SVG/1.1/DTD/svg11.dtd">
<!-- Generated by graphviz version 2.30.0 (20130114.0426)
 -->
<!-- Title: /Users/rkwright/Documents/github/readium&#45;sdk&#45;D/ePub3/ePub/cfi.h Pages: 1 -->
<svg width="1056pt" height="472pt"
 viewBox="0.00 0.00 1056.48 472.00" xmlns="http://www.w3.org/2000/svg" xmlns:xlink="http://www.w3.org/1999/xlink">
<g id="graph0" class="graph" transform="scale(1 1) rotate(0) translate(4 468)">
<title>/Users/rkwright/Documents/github/readium&#45;sdk&#45;D/ePub3/ePub/cfi.h</title>
<polygon fill="white" stroke="white" points="-4,5 -4,-468 1053.48,-468 1053.48,5 -4,5"/>
<!-- Node1 -->
<g id="node1" class="node"><title>Node1</title>
<polygon fill="#bfbfbf" stroke="black" points="578.448,-419 578.448,-463 724.516,-463 724.516,-419 578.448,-419"/>
<text text-anchor="start" x="586.448" y="-449" font-family="Helvetica,sans-Serif" font-size="10.00">/Users/rkwright/Documents</text>
<text text-anchor="start" x="586.448" y="-437" font-family="Helvetica,sans-Serif" font-size="10.00">/github/readium&#45;sdk&#45;D/ePub3</text>
<text text-anchor="middle" x="651.482" y="-425" font-family="Helvetica,sans-Serif" font-size="10.00">/ePub/cfi.h</text>
</g>
<!-- Node2 -->
<g id="node2" class="node"><title>Node2</title>
<polygon fill="white" stroke="#bfbfbf" points="487.561,-361 487.561,-381 571.403,-381 571.403,-361 487.561,-361"/>
<text text-anchor="middle" x="529.482" y="-367" font-family="Helvetica,sans-Serif" font-size="10.00">ePub3/epub3.h</text>
</g>
<!-- Node1&#45;&gt;Node2 -->
<g id="edge1" class="edge"><title>Node1&#45;&gt;Node2</title>
<path fill="none" stroke="midnightblue" d="M613.549,-418.857C594.309,-408.133 571.478,-395.408 554.468,-385.927"/>
<polygon fill="midnightblue" stroke="midnightblue" points="556.115,-382.838 545.677,-381.027 552.707,-388.952 556.115,-382.838"/>
</g>
<!-- Node3 -->
<g id="node3" class="node"><title>Node3</title>
<g id="a_node3"><a xlink:href="utfstring_8h.xhtml" target="_top" xlink:title="ePub3/utilities/utfstring.h">
<polygon fill="white" stroke="black" points="589.007,-361 589.007,-381 713.957,-381 713.957,-361 589.007,-361"/>
<text text-anchor="middle" x="651.482" y="-367" font-family="Helvetica,sans-Serif" font-size="10.00">ePub3/utilities/utfstring.h</text>
</a>
</g>
</g>
<!-- Node1&#45;&gt;Node3 -->
<g id="edge2" class="edge"><title>Node1&#45;&gt;Node3</title>
<path fill="none" stroke="midnightblue" d="M651.482,-418.857C651.482,-410.074 651.482,-399.948 651.482,-391.362"/>
<polygon fill="midnightblue" stroke="midnightblue" points="654.982,-391.204 651.482,-381.204 647.982,-391.204 654.982,-391.204"/>
</g>
<!-- Node13 -->
<g id="node13" class="node"><title>Node13</title>
<polygon fill="white" stroke="#bfbfbf" points="1005.87,-233 1005.87,-253 1049.1,-253 1049.1,-233 1005.87,-233"/>
<text text-anchor="middle" x="1027.48" y="-239" font-family="Helvetica,sans-Serif" font-size="10.00">vector</text>
</g>
<!-- Node1&#45;&gt;Node13 -->
<g id="edge34" class="edge"><title>Node1&#45;&gt;Node13</title>
<path fill="none" stroke="midnightblue" d="M724.613,-428.118C824.106,-410.291 993.959,-373.374 1030.48,-324 1043.42,-306.511 1039.42,-280.504 1034.35,-262.931"/>
<polygon fill="midnightblue" stroke="midnightblue" points="1037.62,-261.662 1031.2,-253.231 1030.96,-263.823 1037.62,-261.662"/>
</g>
<!-- Node4 -->
<g id="node4" class="node"><title>Node4</title>
<g id="a_node4"><a xlink:href="basic_8h.xhtml" target="_top" xlink:title="ePub3/utilities/basic.h">
<polygon fill="white" stroke="black" points="434.12,-297 434.12,-317 546.844,-317 546.844,-297 434.12,-297"/>
<text text-anchor="middle" x="490.482" y="-303" font-family="Helvetica,sans-Serif" font-size="10.00">ePub3/utilities/basic.h</text>
</a>
</g>
</g>
<!-- Node3&#45;&gt;Node4 -->
<g id="edge3" class="edge"><title>Node3&#45;&gt;Node4</title>
<path fill="none" stroke="midnightblue" d="M628.071,-360.985C600.527,-350.378 554.613,-332.696 523.471,-320.704"/>
<polygon fill="midnightblue" stroke="midnightblue" points="524.511,-317.354 513.921,-317.026 521.995,-323.886 524.511,-317.354"/>
</g>
<!-- Node15 -->
<g id="node15" class="node"><title>Node15</title>
<g id="a_node15"><a xlink:href="integer__sequence_8h.xhtml" target="_top" xlink:title="ePub3/utilities/integer\l_sequence.h">
<polygon fill="white" stroke="black" points="12.6742,-291 12.6742,-323 124.289,-323 124.289,-291 12.6742,-291"/>
<text text-anchor="start" x="20.6742" y="-309" font-family="Helvetica,sans-Serif" font-size="10.00">ePub3/utilities/integer</text>
<text text-anchor="middle" x="68.4818" y="-297" font-family="Helvetica,sans-Serif" font-size="10.00">_sequence.h</text>
</a>
</g>
</g>
<!-- Node3&#45;&gt;Node15 -->
<g id="edge14" class="edge"><title>Node3&#45;&gt;Node15</title>
<path fill="none" stroke="midnightblue" d="M588.672,-361.127C585.566,-360.735 582.489,-360.357 579.482,-360 417.609,-340.784 376.615,-340.879 214.482,-324 188.402,-321.285 159.716,-318.169 134.726,-315.413"/>
<polygon fill="midnightblue" stroke="midnightblue" points="134.948,-311.917 124.624,-314.296 134.179,-318.874 134.948,-311.917"/>
</g>
<!-- Node16 -->
<g id="node16" class="node"><title>Node16</title>
<g id="a_node16"><a xlink:href="string__view_8h.xhtml" target="_top" xlink:title="ePub3/utilities/string\l_view.h">
<polygon fill="white" stroke="black" points="223.736,-291 223.736,-323 329.228,-323 329.228,-291 223.736,-291"/>
<text text-anchor="start" x="231.736" y="-309" font-family="Helvetica,sans-Serif" font-size="10.00">ePub3/utilities/string</text>
<text text-anchor="middle" x="276.482" y="-297" font-family="Helvetica,sans-Serif" font-size="10.00">_view.h</text>
</a>
</g>
</g>
<!-- Node3&#45;&gt;Node16 -->
<g id="edge16" class="edge"><title>Node3&#45;&gt;Node16</title>
<path fill="none" stroke="midnightblue" d="M589.108,-360.985C514.537,-350.122 394.196,-332.297 349.482,-324 346.229,-323.396 342.9,-322.754 339.542,-322.087"/>
<polygon fill="midnightblue" stroke="midnightblue" points="339.926,-318.594 329.429,-320.026 338.528,-325.453 339.926,-318.594"/>
</g>
<!-- Node18 -->
<g id="node18" class="node"><title>Node18</title>
<polygon fill="white" stroke="#bfbfbf" points="386.255,-233 386.255,-253 426.708,-253 426.708,-233 386.255,-233"/>
<text text-anchor="middle" x="406.482" y="-239" font-family="Helvetica,sans-Serif" font-size="10.00">string</text>
</g>
<!-- Node3&#45;&gt;Node18 -->
<g id="edge25" class="edge"><title>Node3&#45;&gt;Node18</title>
<path fill="none" stroke="midnightblue" d="M590.04,-360.961C527.256,-351.181 437.312,-335.454 425.482,-324 409.259,-308.295 405.83,-281.457 405.578,-263.238"/>
<polygon fill="midnightblue" stroke="midnightblue" points="409.078,-263.242 405.746,-253.185 402.079,-263.126 409.078,-263.242"/>
</g>
<!-- Node23 -->
<g id="node23" class="node"><title>Node23</title>
<polygon fill="white" stroke="#bfbfbf" points="564.92,-297 564.92,-317 612.043,-317 612.043,-297 564.92,-297"/>
<text text-anchor="middle" x="588.482" y="-303" font-family="Helvetica,sans-Serif" font-size="10.00">iterator</text>
</g>
<!-- Node3&#45;&gt;Node23 -->
<g id="edge26" class="edge"><title>Node3&#45;&gt;Node23</title>
<path fill="none" stroke="midnightblue" d="M642.186,-360.852C632.415,-351.236 616.845,-335.913 604.98,-324.236"/>
<polygon fill="midnightblue" stroke="midnightblue" points="607.398,-321.706 597.816,-317.186 602.488,-326.695 607.398,-321.706"/>
</g>
<!-- Node24 -->
<g id="node24" class="node"><title>Node24</title>
<polygon fill="white" stroke="#bfbfbf" points="630.418,-297 630.418,-317 672.546,-317 672.546,-297 630.418,-297"/>
<text text-anchor="middle" x="651.482" y="-303" font-family="Helvetica,sans-Serif" font-size="10.00">locale</text>
</g>
<!-- Node3&#45;&gt;Node24 -->
<g id="edge27" class="edge"><title>Node3&#45;&gt;Node24</title>
<path fill="none" stroke="midnightblue" d="M651.482,-360.852C651.482,-352.06 651.482,-338.498 651.482,-327.313"/>
<polygon fill="midnightblue" stroke="midnightblue" points="654.982,-327.186 651.482,-317.186 647.982,-327.186 654.982,-327.186"/>
</g>
<!-- Node3&#45;&gt;Node13 -->
<g id="edge28" class="edge"><title>Node3&#45;&gt;Node13</title>
<path fill="none" stroke="midnightblue" d="M714.253,-370.216C804.945,-369.185 966.389,-361.888 1008.48,-324 1025.35,-308.815 1028.6,-281.632 1028.63,-263.213"/>
<polygon fill="midnightblue" stroke="midnightblue" points="1032.13,-262.955 1028.33,-253.062 1025.13,-263.161 1032.13,-262.955"/>
</g>
<!-- Node25 -->
<g id="node25" class="node"><title>Node25</title>
<polygon fill="white" stroke="#bfbfbf" points="690.248,-297 690.248,-317 790.716,-317 790.716,-297 690.248,-297"/>
<text text-anchor="middle" x="740.482" y="-303" font-family="Helvetica,sans-Serif" font-size="10.00">REGEX_INCLUDE</text>
</g>
<!-- Node3&#45;&gt;Node25 -->
<g id="edge29" class="edge"><title>Node3&#45;&gt;Node25</title>
<path fill="none" stroke="midnightblue" d="M664.614,-360.852C678.943,-350.87 702.101,-334.737 719.067,-322.918"/>
<polygon fill="midnightblue" stroke="midnightblue" points="721.091,-325.774 727.296,-317.186 717.09,-320.03 721.091,-325.774"/>
</g>
<!-- Node26 -->
<g id="node26" class="node"><title>Node26</title>
<polygon fill="white" stroke="#bfbfbf" points="808.755,-297 808.755,-317 844.208,-317 844.208,-297 808.755,-297"/>
<text text-anchor="middle" x="826.482" y="-303" font-family="Helvetica,sans-Serif" font-size="10.00">map</text>
</g>
<!-- Node3&#45;&gt;Node26 -->
<g id="edge30" class="edge"><title>Node3&#45;&gt;Node26</title>
<path fill="none" stroke="midnightblue" d="M688.849,-360.981C719.311,-353.018 763.091,-340.171 799.482,-324 800.851,-323.392 802.238,-322.729 803.622,-322.032"/>
<polygon fill="midnightblue" stroke="midnightblue" points="805.462,-325.014 812.521,-317.112 802.076,-318.887 805.462,-325.014"/>
</g>
<!-- Node27 -->
<g id="node27" class="node"><title>Node27</title>
<polygon fill="white" stroke="#bfbfbf" points="862.08,-297 862.08,-317 920.883,-317 920.883,-297 862.08,-297"/>
<text text-anchor="middle" x="891.482" y="-303" font-family="Helvetica,sans-Serif" font-size="10.00">stdexcept</text>
</g>
<!-- Node3&#45;&gt;Node27 -->
<g id="edge31" class="edge"><title>Node3&#45;&gt;Node27</title>
<path fill="none" stroke="midnightblue" d="M701.239,-360.981C742.291,-352.977 801.81,-340.073 852.482,-324 855.455,-323.057 858.52,-321.984 861.563,-320.851"/>
<polygon fill="midnightblue" stroke="midnightblue" points="863.045,-324.029 871.07,-317.112 860.483,-317.515 863.045,-324.029"/>
</g>
<!-- Node19 -->
<g id="node19" class="node"><title>Node19</title>
<polygon fill="white" stroke="#bfbfbf" points="329.095,-233 329.095,-253 367.869,-253 367.869,-233 329.095,-233"/>
<text text-anchor="middle" x="348.482" y="-239" font-family="Helvetica,sans-Serif" font-size="10.00">limits</text>
</g>
<!-- Node3&#45;&gt;Node19 -->
<g id="edge32" class="edge"><title>Node3&#45;&gt;Node19</title>
<path fill="none" stroke="midnightblue" d="M590.015,-360.958C522.3,-350.612 420.885,-333.836 405.482,-324 382.197,-309.131 365.556,-281.045 356.475,-262.423"/>
<polygon fill="midnightblue" stroke="midnightblue" points="359.584,-260.807 352.214,-253.196 353.229,-263.742 359.584,-260.807"/>
</g>
<!-- Node28 -->
<g id="node28" class="node"><title>Node28</title>
<polygon fill="white" stroke="#bfbfbf" points="939.243,-297 939.243,-317 999.721,-317 999.721,-297 939.243,-297"/>
<text text-anchor="middle" x="969.482" y="-303" font-family="Helvetica,sans-Serif" font-size="10.00">utf8/utf8.h</text>
</g>
<!-- Node3&#45;&gt;Node28 -->
<g id="edge33" class="edge"><title>Node3&#45;&gt;Node28</title>
<path fill="none" stroke="midnightblue" d="M714.154,-363.559C771.057,-356.789 856.919,-344.258 929.482,-324 932.899,-323.046 936.424,-321.896 939.898,-320.656"/>
<polygon fill="midnightblue" stroke="midnightblue" points="941.339,-323.852 949.427,-317.008 938.836,-317.314 941.339,-323.852"/>
</g>
<!-- Node5 -->
<g id="node5" class="node"><title>Node5</title>
<g id="a_node5"><a xlink:href="base_8h.xhtml" target="_top" xlink:title="ePub3/base.h">
<polygon fill="white" stroke="black" points="237.622,-175 237.622,-195 315.341,-195 315.341,-175 237.622,-175"/>
<text text-anchor="middle" x="276.482" y="-181" font-family="Helvetica,sans-Serif" font-size="10.00">ePub3/base.h</text>
</a>
</g>
</g>
<!-- Node4&#45;&gt;Node5 -->
<g id="edge4" class="edge"><title>Node4&#45;&gt;Node5</title>
<path fill="none" stroke="midnightblue" d="M486.135,-296.742C478.278,-281.023 460.206,-249.156 435.482,-232 402.746,-209.285 358.828,-197.681 325.443,-191.817"/>
<polygon fill="midnightblue" stroke="midnightblue" points="325.88,-188.341 315.445,-190.175 324.745,-195.249 325.88,-188.341"/>
</g>
<!-- Node10 -->
<g id="node10" class="node"><title>Node10</title>
<polygon fill="white" stroke="#bfbfbf" points="637.297,-233 637.297,-253 751.666,-253 751.666,-233 637.297,-233"/>
<text text-anchor="middle" x="694.482" y="-239" font-family="Helvetica,sans-Serif" font-size="10.00">ePub3/xml/xmlstring.h</text>
</g>
<!-- Node4&#45;&gt;Node10 -->
<g id="edge9" class="edge"><title>Node4&#45;&gt;Node10</title>
<path fill="none" stroke="midnightblue" d="M520.145,-296.985C555.725,-286.171 615.498,-268.005 654.967,-256.01"/>
<polygon fill="midnightblue" stroke="midnightblue" points="656.233,-259.283 664.783,-253.026 654.197,-252.585 656.233,-259.283"/>
</g>
<!-- Node11 -->
<g id="node11" class="node"><title>Node11</title>
<polygon fill="white" stroke="#bfbfbf" points="482.701,-233 482.701,-253 534.263,-253 534.263,-233 482.701,-233"/>
<text text-anchor="middle" x="508.482" y="-239" font-family="Helvetica,sans-Serif" font-size="10.00">sstream</text>
</g>
<!-- Node4&#45;&gt;Node11 -->
<g id="edge10" class="edge"><title>Node4&#45;&gt;Node11</title>
<path fill="none" stroke="midnightblue" d="M493.138,-296.852C495.717,-287.969 499.71,-274.215 502.976,-262.964"/>
<polygon fill="midnightblue" stroke="midnightblue" points="506.388,-263.765 505.815,-253.186 499.666,-261.813 506.388,-263.765"/>
</g>
<!-- Node12 -->
<g id="node12" class="node"><title>Node12</title>
<polygon fill="white" stroke="#bfbfbf" points="458.425,-175 458.425,-195 510.538,-195 510.538,-175 458.425,-175"/>
<text text-anchor="middle" x="484.482" y="-181" font-family="Helvetica,sans-Serif" font-size="10.00">memory</text>
</g>
<!-- Node4&#45;&gt;Node12 -->
<g id="edge11" class="edge"><title>Node4&#45;&gt;Node12</title>
<path fill="none" stroke="midnightblue" d="M522.933,-296.999C558.939,-285.281 609.5,-262.624 589.482,-232 574.332,-208.824 544.638,-197.252 520.682,-191.517"/>
<polygon fill="midnightblue" stroke="midnightblue" points="521.337,-188.078 510.825,-189.4 519.867,-194.922 521.337,-188.078"/>
</g>
<!-- Node4&#45;&gt;Node13 -->
<g id="edge12" class="edge"><title>Node4&#45;&gt;Node13</title>
<path fill="none" stroke="midnightblue" d="M523.355,-296.931C533.584,-294.374 544.943,-291.801 555.482,-290 719.468,-261.977 918.642,-249.533 995.291,-245.534"/>
<polygon fill="midnightblue" stroke="midnightblue" points="995.883,-249.008 1005.69,-245.004 995.527,-242.017 995.883,-249.008"/>
</g>
<!-- Node14 -->
<g id="node14" class="node"><title>Node14</title>
<polygon fill="white" stroke="#bfbfbf" points="551.982,-233 551.982,-253 580.982,-253 580.982,-233 551.982,-233"/>
<text text-anchor="middle" x="566.093" y="-239" font-family="Helvetica,sans-Serif" font-size="10.00">list</text>
</g>
<!-- Node4&#45;&gt;Node14 -->
<g id="edge13" class="edge"><title>Node4&#45;&gt;Node14</title>
<path fill="none" stroke="midnightblue" d="M501.696,-296.852C513.707,-287.053 532.984,-271.327 547.393,-259.573"/>
<polygon fill="midnightblue" stroke="midnightblue" points="549.685,-262.219 555.222,-253.186 545.261,-256.795 549.685,-262.219"/>
</g>
<!-- Node6 -->
<g id="node6" class="node"><title>Node6</title>
<g id="a_node6"><a xlink:href="__config_8h.xhtml" target="_top" xlink:title="_config.h">
<polygon fill="white" stroke="black" points="213.189,-117 213.189,-137 269.775,-137 269.775,-117 213.189,-117"/>
<text text-anchor="middle" x="241.482" y="-123" font-family="Helvetica,sans-Serif" font-size="10.00">_config.h</text>
</a>
</g>
</g>
<!-- Node5&#45;&gt;Node6 -->
<g id="edge5" class="edge"><title>Node5&#45;&gt;Node6</title>
<path fill="none" stroke="midnightblue" d="M270.702,-174.753C265.758,-166.843 258.505,-155.237 252.462,-145.568"/>
<polygon fill="midnightblue" stroke="midnightblue" points="255.422,-143.7 247.154,-137.075 249.486,-147.41 255.422,-143.7"/>
</g>
<!-- Node9 -->
<g id="node9" class="node"><title>Node9</title>
<polygon fill="white" stroke="#bfbfbf" points="287.639,-117 287.639,-137 335.324,-137 335.324,-117 287.639,-117"/>
<text text-anchor="middle" x="311.482" y="-123" font-family="Helvetica,sans-Serif" font-size="10.00">stdlib.h</text>
</g>
<!-- Node5&#45;&gt;Node9 -->
<g id="edge8" class="edge"><title>Node5&#45;&gt;Node9</title>
<path fill="none" stroke="midnightblue" d="M282.261,-174.753C287.205,-166.843 294.459,-155.237 300.502,-145.568"/>
<polygon fill="midnightblue" stroke="midnightblue" points="303.478,-147.41 305.81,-137.075 297.542,-143.7 303.478,-147.41"/>
</g>
<!-- Node7 -->
<g id="node7" class="node"><title>Node7</title>
<g id="a_node7"><a xlink:href="__platform_8h.xhtml" target="_top" xlink:title="_platform.h">
<polygon fill="white" stroke="black" points="208.47,-59 208.47,-79 274.494,-79 274.494,-59 208.47,-59"/>
<text text-anchor="middle" x="241.482" y="-65" font-family="Helvetica,sans-Serif" font-size="10.00">_platform.h</text>
</a>
</g>
</g>
<!-- Node6&#45;&gt;Node7 -->
<g id="edge6" class="edge"><title>Node6&#45;&gt;Node7</title>
<path fill="none" stroke="midnightblue" d="M241.482,-116.753C241.482,-109.25 241.482,-98.4238 241.482,-89.0781"/>
<polygon fill="midnightblue" stroke="midnightblue" points="244.982,-89.0752 241.482,-79.0752 237.982,-89.0752 244.982,-89.0752"/>
</g>
<!-- Node8 -->
<g id="node8" class="node"><title>Node8</title>
<g id="a_node8"><a xlink:href="__compiler_8h.xhtml" target="_top" xlink:title="_compiler.h">
<polygon fill="white" stroke="black" points="207.91,-1 207.91,-21 275.053,-21 275.053,-1 207.91,-1"/>
<text text-anchor="middle" x="241.482" y="-7" font-family="Helvetica,sans-Serif" font-size="10.00">_compiler.h</text>
</a>
</g>
</g>
<!-- Node7&#45;&gt;Node8 -->
<g id="edge7" class="edge"><title>Node7&#45;&gt;Node8</title>
<path fill="none" stroke="midnightblue" d="M241.482,-58.7527C241.482,-51.2504 241.482,-40.4238 241.482,-31.0781"/>
<polygon fill="midnightblue" stroke="midnightblue" points="244.982,-31.0752 241.482,-21.0752 237.982,-31.0752 244.982,-31.0752"/>
</g>
<!-- Node15&#45;&gt;Node5 -->
<g id="edge15" class="edge"><title>Node15&#45;&gt;Node5</title>
<path fill="none" stroke="midnightblue" d="M40.2911,-290.724C16.3103,-275.781 -11.7192,-252.367 5.48178,-232 33.3054,-199.056 156.901,-189.701 227.183,-187.047"/>
<polygon fill="midnightblue" stroke="midnightblue" points="227.691,-190.532 237.565,-186.69 227.45,-183.536 227.691,-190.532"/>
</g>
<!-- Node17 -->
<g id="node17" class="node"><title>Node17</title>
<polygon fill="white" stroke="#bfbfbf" points="90.4154,-233 90.4154,-253 152.548,-253 152.548,-233 90.4154,-233"/>
<text text-anchor="middle" x="121.482" y="-239" font-family="Helvetica,sans-Serif" font-size="10.00">type_traits</text>
</g>
<!-- Node16&#45;&gt;Node17 -->
<g id="edge17" class="edge"><title>Node16&#45;&gt;Node17</title>
<path fill="none" stroke="midnightblue" d="M238.961,-290.992C212.859,-280.551 178.426,-266.778 153.593,-256.845"/>
<polygon fill="midnightblue" stroke="midnightblue" points="154.838,-253.573 144.254,-253.109 152.239,-260.072 154.838,-253.573"/>
</g>
<!-- Node16&#45;&gt;Node18 -->
<g id="edge18" class="edge"><title>Node16&#45;&gt;Node18</title>
<path fill="none" stroke="midnightblue" d="M307.951,-290.992C329.358,-280.782 357.448,-267.385 378.156,-257.509"/>
<polygon fill="midnightblue" stroke="midnightblue" points="379.863,-260.573 387.383,-253.109 376.85,-254.254 379.863,-260.573"/>
</g>
<!-- Node16&#45;&gt;Node19 -->
<g id="edge19" class="edge"><title>Node16&#45;&gt;Node19</title>
<path fill="none" stroke="midnightblue" d="M293.911,-290.992C304.789,-281.624 318.782,-269.575 329.875,-260.022"/>
<polygon fill="midnightblue" stroke="midnightblue" points="332.399,-262.468 337.693,-253.29 327.831,-257.163 332.399,-262.468"/>
</g>
<!-- Node20 -->
<g id="node20" class="node"><title>Node20</title>
<polygon fill="white" stroke="#bfbfbf" points="170.309,-233 170.309,-253 224.654,-253 224.654,-233 170.309,-233"/>
<text text-anchor="middle" x="197.482" y="-239" font-family="Helvetica,sans-Serif" font-size="10.00">iostream</text>
</g>
<!-- Node16&#45;&gt;Node20 -->
<g id="edge20" class="edge"><title>Node16&#45;&gt;Node20</title>
<path fill="none" stroke="midnightblue" d="M257.358,-290.992C245.305,-281.533 229.767,-269.338 217.54,-259.742"/>
<polygon fill="midnightblue" stroke="midnightblue" points="219.347,-256.711 209.32,-253.29 215.025,-262.218 219.347,-256.711"/>
</g>
<!-- Node21 -->
<g id="node21" class="node"><title>Node21</title>
<polygon fill="white" stroke="#bfbfbf" points="14.9178,-233 14.9178,-253 72.0457,-253 72.0457,-233 14.9178,-233"/>
<text text-anchor="middle" x="43.4818" y="-239" font-family="Helvetica,sans-Serif" font-size="10.00">algorithm</text>
</g>
<!-- Node16&#45;&gt;Node21 -->
<g id="edge21" class="edge"><title>Node16&#45;&gt;Node21</title>
<path fill="none" stroke="midnightblue" d="M223.61,-291.931C180.472,-280.452 120.543,-264.506 81.8832,-254.218"/>
<polygon fill="midnightblue" stroke="midnightblue" points="82.6196,-250.793 72.0558,-251.603 80.8195,-257.557 82.6196,-250.793"/>
</g>
<!-- Node22 -->
<g id="node22" class="node"><title>Node22</title>
<g id="a_node22"><a xlink:href="____strhash_8h.xhtml" target="_top" xlink:title="__strhash.h">
<polygon fill="white" stroke="black" points="242.354,-233 242.354,-253 310.61,-253 310.61,-233 242.354,-233"/>
<text text-anchor="middle" x="276.482" y="-239" font-family="Helvetica,sans-Serif" font-size="10.00">__strhash.h</text>
</a>
</g>
</g>
<!-- Node16&#45;&gt;Node22 -->
<g id="edge22" class="edge"><title>Node16&#45;&gt;Node22</title>
<path fill="none" stroke="midnightblue" d="M276.482,-290.992C276.482,-282.726 276.482,-272.373 276.482,-263.489"/>
<polygon fill="midnightblue" stroke="midnightblue" points="279.982,-263.29 276.482,-253.29 272.982,-263.29 279.982,-263.29"/>
</g>
<!-- Node22&#45;&gt;Node5 -->
<g id="edge23" class="edge"><title>Node22&#45;&gt;Node5</title>
<path fill="none" stroke="midnightblue" d="M276.482,-232.753C276.482,-225.25 276.482,-214.424 276.482,-205.078"/>
<polygon fill="midnightblue" stroke="midnightblue" points="279.982,-205.075 276.482,-195.075 272.982,-205.075 279.982,-205.075"/>
</g>
<!-- Node22&#45;&gt;Node12 -->
<g id="edge24" class="edge"><title>Node22&#45;&gt;Node12</title>
<path fill="none" stroke="midnightblue" d="M310.364,-232.878C348.3,-222.664 409.536,-206.178 448.361,-195.725"/>
<polygon fill="midnightblue" stroke="midnightblue" points="449.454,-199.055 458.2,-193.076 447.634,-192.296 449.454,-199.055"/>
</g>
</g>
</svg>
