<?xml version="1.0" encoding="UTF-8" standalone="no"?>
<!DOCTYPE svg PUBLIC "-//W3C//DTD SVG 1.1//EN"
 "http://www.w3.org/Graphics/SVG/1.1/DTD/svg11.dtd">
<!-- Generated by graphviz version 2.30.0 (20130114.0426)
 -->
<!-- Title: /Users/rkwright/Documents/github/readium&#45;sdk&#45;D/ePub3/ePub/cfi.cpp Pages: 1 -->
<svg width="1229pt" height="542pt"
 viewBox="0.00 0.00 1228.93 542.00" xmlns="http://www.w3.org/2000/svg" xmlns:xlink="http://www.w3.org/1999/xlink">
<g id="graph0" class="graph" transform="scale(1 1) rotate(0) translate(4 538)">
<title>/Users/rkwright/Documents/github/readium&#45;sdk&#45;D/ePub3/ePub/cfi.cpp</title>
<polygon fill="white" stroke="white" points="-4,5 -4,-538 1225.93,-538 1225.93,5 -4,5"/>
<!-- Node1 -->
<g id="node1" class="node"><title>Node1</title>
<polygon fill="#bfbfbf" stroke="black" points="980.966,-489 980.966,-533 1127.03,-533 1127.03,-489 980.966,-489"/>
<text text-anchor="start" x="988.966" y="-519" font-family="Helvetica,sans-Serif" font-size="10.00">/Users/rkwright/Documents</text>
<text text-anchor="start" x="988.966" y="-507" font-family="Helvetica,sans-Serif" font-size="10.00">/github/readium&#45;sdk&#45;D/ePub3</text>
<text text-anchor="middle" x="1054" y="-495" font-family="Helvetica,sans-Serif" font-size="10.00">/ePub/cfi.cpp</text>
</g>
<!-- Node2 -->
<g id="node2" class="node"><title>Node2</title>
<g id="a_node2"><a xlink:href="cfi_8h.xhtml" target="_top" xlink:title="cfi.h">
<polygon fill="white" stroke="black" points="847.83,-425 847.83,-445 882.17,-445 882.17,-425 847.83,-425"/>
<text text-anchor="middle" x="865" y="-431" font-family="Helvetica,sans-Serif" font-size="10.00">cfi.h</text>
</a>
</g>
</g>
<!-- Node1&#45;&gt;Node2 -->
<g id="edge1" class="edge"><title>Node1&#45;&gt;Node2</title>
<path fill="none" stroke="midnightblue" d="M1000.35,-488.993C964.966,-475.14 920.127,-457.584 891.993,-446.569"/>
<polygon fill="midnightblue" stroke="midnightblue" points="893.019,-443.212 882.431,-442.825 890.467,-449.73 893.019,-443.212"/>
</g>
<!-- Node30 -->
<g id="node30" class="node"><title>Node30</title>
<g id="a_node30"><a xlink:href="error__handler_8h.xhtml" target="_top" xlink:title="ePub3/utilities/error\l_handler.h">
<polygon fill="white" stroke="black" points="1002.92,-419 1002.92,-451 1105.08,-451 1105.08,-419 1002.92,-419"/>
<text text-anchor="start" x="1010.92" y="-437" font-family="Helvetica,sans-Serif" font-size="10.00">ePub3/utilities/error</text>
<text text-anchor="middle" x="1054" y="-425" font-family="Helvetica,sans-Serif" font-size="10.00">_handler.h</text>
</a>
</g>
</g>
<!-- Node1&#45;&gt;Node30 -->
<g id="edge36" class="edge"><title>Node1&#45;&gt;Node30</title>
<path fill="none" stroke="midnightblue" d="M1054,-488.993C1054,-480.487 1054,-470.584 1054,-461.657"/>
<polygon fill="midnightblue" stroke="midnightblue" points="1057.5,-461.411 1054,-451.412 1050.5,-461.412 1057.5,-461.411"/>
</g>
<!-- Node12 -->
<g id="node12" class="node"><title>Node12</title>
<polygon fill="white" stroke="#bfbfbf" points="1126.22,-233 1126.22,-253 1177.78,-253 1177.78,-233 1126.22,-233"/>
<text text-anchor="middle" x="1152" y="-239" font-family="Helvetica,sans-Serif" font-size="10.00">sstream</text>
</g>
<!-- Node1&#45;&gt;Node12 -->
<g id="edge41" class="edge"><title>Node1&#45;&gt;Node12</title>
<path fill="none" stroke="midnightblue" d="M1098.93,-488.82C1137.69,-467.788 1191.1,-431.528 1215,-382 1236.05,-338.362 1194.31,-286.176 1169.16,-260.264"/>
<polygon fill="midnightblue" stroke="midnightblue" points="1171.52,-257.682 1161.97,-253.104 1166.58,-262.641 1171.52,-257.682"/>
</g>
<!-- Node3 -->
<g id="node3" class="node"><title>Node3</title>
<polygon fill="white" stroke="#bfbfbf" points="858.079,-361 858.079,-381 941.921,-381 941.921,-361 858.079,-361"/>
<text text-anchor="middle" x="900" y="-367" font-family="Helvetica,sans-Serif" font-size="10.00">ePub3/epub3.h</text>
</g>
<!-- Node2&#45;&gt;Node3 -->
<g id="edge2" class="edge"><title>Node2&#45;&gt;Node3</title>
<path fill="none" stroke="midnightblue" d="M870.164,-424.852C875.334,-415.694 883.426,-401.359 889.879,-389.928"/>
<polygon fill="midnightblue" stroke="midnightblue" points="892.946,-391.615 894.814,-381.186 886.851,-388.174 892.946,-391.615"/>
</g>
<!-- Node4 -->
<g id="node4" class="node"><title>Node4</title>
<g id="a_node4"><a xlink:href="utfstring_8h.xhtml" target="_top" xlink:title="ePub3/utilities/utfstring.h">
<polygon fill="white" stroke="black" points="443.525,-361 443.525,-381 568.475,-381 568.475,-361 443.525,-361"/>
<text text-anchor="middle" x="506" y="-367" font-family="Helvetica,sans-Serif" font-size="10.00">ePub3/utilities/utfstring.h</text>
</a>
</g>
</g>
<!-- Node2&#45;&gt;Node4 -->
<g id="edge3" class="edge"><title>Node2&#45;&gt;Node4</title>
<path fill="none" stroke="midnightblue" d="M847.685,-431.01C797.886,-422.409 652.48,-397.297 568.266,-382.753"/>
<polygon fill="midnightblue" stroke="midnightblue" points="568.76,-379.287 558.31,-381.034 567.568,-386.185 568.76,-379.287"/>
</g>
<!-- Node14 -->
<g id="node14" class="node"><title>Node14</title>
<polygon fill="white" stroke="#bfbfbf" points="755.384,-233 755.384,-253 798.616,-253 798.616,-233 755.384,-233"/>
<text text-anchor="middle" x="777" y="-239" font-family="Helvetica,sans-Serif" font-size="10.00">vector</text>
</g>
<!-- Node2&#45;&gt;Node14 -->
<g id="edge35" class="edge"><title>Node2&#45;&gt;Node14</title>
<path fill="none" stroke="midnightblue" d="M862.416,-424.884C855.625,-401.59 835.992,-338.313 810,-290 804.539,-279.85 797.157,-269.347 790.76,-260.944"/>
<polygon fill="midnightblue" stroke="midnightblue" points="793.495,-258.76 784.571,-253.05 787.986,-263.079 793.495,-258.76"/>
</g>
<!-- Node5 -->
<g id="node5" class="node"><title>Node5</title>
<g id="a_node5"><a xlink:href="basic_8h.xhtml" target="_top" xlink:title="ePub3/utilities/basic.h">
<polygon fill="white" stroke="black" points="885.638,-297 885.638,-317 998.362,-317 998.362,-297 885.638,-297"/>
<text text-anchor="middle" x="942" y="-303" font-family="Helvetica,sans-Serif" font-size="10.00">ePub3/utilities/basic.h</text>
</a>
</g>
</g>
<!-- Node4&#45;&gt;Node5 -->
<g id="edge4" class="edge"><title>Node4&#45;&gt;Node5</title>
<path fill="none" stroke="midnightblue" d="M568.933,-361.051C650.43,-349.462 791.875,-329.348 875.213,-317.497"/>
<polygon fill="midnightblue" stroke="midnightblue" points="875.921,-320.932 885.329,-316.059 874.936,-314.002 875.921,-320.932"/>
</g>
<!-- Node16 -->
<g id="node16" class="node"><title>Node16</title>
<g id="a_node16"><a xlink:href="integer__sequence_8h.xhtml" target="_top" xlink:title="ePub3/utilities/integer\l_sequence.h">
<polygon fill="white" stroke="black" points="-0.807617,-291 -0.807617,-323 110.808,-323 110.808,-291 -0.807617,-291"/>
<text text-anchor="start" x="7.19238" y="-309" font-family="Helvetica,sans-Serif" font-size="10.00">ePub3/utilities/integer</text>
<text text-anchor="middle" x="55" y="-297" font-family="Helvetica,sans-Serif" font-size="10.00">_sequence.h</text>
</a>
</g>
</g>
<!-- Node4&#45;&gt;Node16 -->
<g id="edge15" class="edge"><title>Node4&#45;&gt;Node16</title>
<path fill="none" stroke="midnightblue" d="M443.474,-364.927C368.936,-358.349 240.474,-345.335 120.981,-324.044"/>
<polygon fill="midnightblue" stroke="midnightblue" points="121.389,-320.561 110.926,-322.229 120.145,-327.45 121.389,-320.561"/>
</g>
<!-- Node17 -->
<g id="node17" class="node"><title>Node17</title>
<g id="a_node17"><a xlink:href="string__view_8h.xhtml" target="_top" xlink:title="ePub3/utilities/string\l_view.h">
<polygon fill="white" stroke="black" points="554.254,-291 554.254,-323 659.746,-323 659.746,-291 554.254,-291"/>
<text text-anchor="start" x="562.254" y="-309" font-family="Helvetica,sans-Serif" font-size="10.00">ePub3/utilities/string</text>
<text text-anchor="middle" x="607" y="-297" font-family="Helvetica,sans-Serif" font-size="10.00">_view.h</text>
</a>
</g>
</g>
<!-- Node4&#45;&gt;Node17 -->
<g id="edge17" class="edge"><title>Node4&#45;&gt;Node17</title>
<path fill="none" stroke="midnightblue" d="M520.903,-360.852C534.641,-352.419 555.53,-339.596 573.291,-328.692"/>
<polygon fill="midnightblue" stroke="midnightblue" points="575.549,-331.414 582.24,-323.199 571.887,-325.448 575.549,-331.414"/>
</g>
<!-- Node19 -->
<g id="node19" class="node"><title>Node19</title>
<polygon fill="white" stroke="#bfbfbf" points="272.773,-233 272.773,-253 313.227,-253 313.227,-233 272.773,-233"/>
<text text-anchor="middle" x="293" y="-239" font-family="Helvetica,sans-Serif" font-size="10.00">string</text>
</g>
<!-- Node4&#45;&gt;Node19 -->
<g id="edge26" class="edge"><title>Node4&#45;&gt;Node19</title>
<path fill="none" stroke="midnightblue" d="M443.443,-369.127C367.603,-366.588 246.382,-357.275 218,-324 208.194,-312.503 210.619,-303.186 218,-290 227.667,-272.73 246.762,-261.158 263.264,-253.94"/>
<polygon fill="midnightblue" stroke="midnightblue" points="264.622,-257.166 272.59,-250.183 262.006,-250.674 264.622,-257.166"/>
</g>
<!-- Node24 -->
<g id="node24" class="node"><title>Node24</title>
<polygon fill="white" stroke="#bfbfbf" points="754.438,-297 754.438,-317 801.562,-317 801.562,-297 754.438,-297"/>
<text text-anchor="middle" x="778" y="-303" font-family="Helvetica,sans-Serif" font-size="10.00">iterator</text>
</g>
<!-- Node4&#45;&gt;Node24 -->
<g id="edge27" class="edge"><title>Node4&#45;&gt;Node24</title>
<path fill="none" stroke="midnightblue" d="M568.931,-361.208C616.532,-353.701 683.177,-341.348 740,-324 742.985,-323.089 746.055,-322.024 749.094,-320.884"/>
<polygon fill="midnightblue" stroke="midnightblue" points="750.583,-324.058 758.56,-317.085 747.976,-317.562 750.583,-324.058"/>
</g>
<!-- Node25 -->
<g id="node25" class="node"><title>Node25</title>
<polygon fill="white" stroke="#bfbfbf" points="128.936,-297 128.936,-317 171.064,-317 171.064,-297 128.936,-297"/>
<text text-anchor="middle" x="150" y="-303" font-family="Helvetica,sans-Serif" font-size="10.00">locale</text>
</g>
<!-- Node4&#45;&gt;Node25 -->
<g id="edge28" class="edge"><title>Node4&#45;&gt;Node25</title>
<path fill="none" stroke="midnightblue" d="M443.341,-366.34C377.81,-361.288 272.51,-349.691 185,-324 182.235,-323.188 179.409,-322.196 176.62,-321.107"/>
<polygon fill="midnightblue" stroke="midnightblue" points="177.996,-317.889 167.427,-317.154 175.231,-324.32 177.996,-317.889"/>
</g>
<!-- Node4&#45;&gt;Node14 -->
<g id="edge29" class="edge"><title>Node4&#45;&gt;Node14</title>
<path fill="none" stroke="midnightblue" d="M568.502,-363.708C607.421,-357.729 657.429,-346.18 697,-324 725.271,-308.154 750.333,-279.501 764.578,-261.133"/>
<polygon fill="midnightblue" stroke="midnightblue" points="767.45,-263.137 770.668,-253.043 761.857,-258.926 767.45,-263.137"/>
</g>
<!-- Node26 -->
<g id="node26" class="node"><title>Node26</title>
<polygon fill="white" stroke="#bfbfbf" points="226.766,-297 226.766,-317 327.234,-317 327.234,-297 226.766,-297"/>
<text text-anchor="middle" x="277" y="-303" font-family="Helvetica,sans-Serif" font-size="10.00">REGEX_INCLUDE</text>
</g>
<!-- Node4&#45;&gt;Node26 -->
<g id="edge30" class="edge"><title>Node4&#45;&gt;Node26</title>
<path fill="none" stroke="midnightblue" d="M472.452,-360.928C438.162,-351.654 383.366,-336.831 336,-324 330.944,-322.63 325.644,-321.194 320.382,-319.768"/>
<polygon fill="midnightblue" stroke="midnightblue" points="320.953,-316.296 310.386,-317.057 319.121,-323.052 320.953,-316.296"/>
</g>
<!-- Node27 -->
<g id="node27" class="node"><title>Node27</title>
<polygon fill="white" stroke="#bfbfbf" points="345.273,-297 345.273,-317 380.727,-317 380.727,-297 345.273,-297"/>
<text text-anchor="middle" x="363" y="-303" font-family="Helvetica,sans-Serif" font-size="10.00">map</text>
</g>
<!-- Node4&#45;&gt;Node27 -->
<g id="edge31" class="edge"><title>Node4&#45;&gt;Node27</title>
<path fill="none" stroke="midnightblue" d="M479.693,-360.912C455.845,-352.36 419.951,-338.699 390,-324 388.817,-323.419 387.616,-322.806 386.412,-322.17"/>
<polygon fill="midnightblue" stroke="midnightblue" points="387.772,-318.919 377.341,-317.065 384.339,-325.02 387.772,-318.919"/>
</g>
<!-- Node28 -->
<g id="node28" class="node"><title>Node28</title>
<polygon fill="white" stroke="#bfbfbf" points="398.599,-297 398.599,-317 457.401,-317 457.401,-297 398.599,-297"/>
<text text-anchor="middle" x="428" y="-303" font-family="Helvetica,sans-Serif" font-size="10.00">stdexcept</text>
</g>
<!-- Node4&#45;&gt;Node28 -->
<g id="edge32" class="edge"><title>Node4&#45;&gt;Node28</title>
<path fill="none" stroke="midnightblue" d="M494.491,-360.852C482.163,-351.053 462.379,-335.327 447.592,-323.573"/>
<polygon fill="midnightblue" stroke="midnightblue" points="449.563,-320.668 439.556,-317.186 445.207,-326.148 449.563,-320.668"/>
</g>
<!-- Node20 -->
<g id="node20" class="node"><title>Node20</title>
<polygon fill="white" stroke="#bfbfbf" points="698.613,-233 698.613,-253 737.387,-253 737.387,-233 698.613,-233"/>
<text text-anchor="middle" x="718" y="-239" font-family="Helvetica,sans-Serif" font-size="10.00">limits</text>
</g>
<!-- Node4&#45;&gt;Node20 -->
<g id="edge33" class="edge"><title>Node4&#45;&gt;Node20</title>
<path fill="none" stroke="midnightblue" d="M568.858,-363.072C601.043,-356.973 639.368,-345.516 668,-324 689.003,-308.217 703.317,-280.803 711.078,-262.531"/>
<polygon fill="midnightblue" stroke="midnightblue" points="714.338,-263.803 714.803,-253.219 707.839,-261.203 714.338,-263.803"/>
</g>
<!-- Node29 -->
<g id="node29" class="node"><title>Node29</title>
<polygon fill="white" stroke="#bfbfbf" points="475.761,-297 475.761,-317 536.239,-317 536.239,-297 475.761,-297"/>
<text text-anchor="middle" x="506" y="-303" font-family="Helvetica,sans-Serif" font-size="10.00">utf8/utf8.h</text>
</g>
<!-- Node4&#45;&gt;Node29 -->
<g id="edge34" class="edge"><title>Node4&#45;&gt;Node29</title>
<path fill="none" stroke="midnightblue" d="M506,-360.852C506,-352.06 506,-338.498 506,-327.313"/>
<polygon fill="midnightblue" stroke="midnightblue" points="509.5,-327.186 506,-317.186 502.5,-327.186 509.5,-327.186"/>
</g>
<!-- Node6 -->
<g id="node6" class="node"><title>Node6</title>
<g id="a_node6"><a xlink:href="base_8h.xhtml" target="_top" xlink:title="ePub3/base.h">
<polygon fill="white" stroke="black" points="607.141,-175 607.141,-195 684.859,-195 684.859,-175 607.141,-175"/>
<text text-anchor="middle" x="646" y="-181" font-family="Helvetica,sans-Serif" font-size="10.00">ePub3/base.h</text>
</a>
</g>
</g>
<!-- Node5&#45;&gt;Node6 -->
<g id="edge5" class="edge"><title>Node5&#45;&gt;Node6</title>
<path fill="none" stroke="midnightblue" d="M924.957,-296.883C905.727,-286.568 873.537,-269.223 846,-254 828.583,-244.372 825.361,-239.676 807,-232 770.577,-216.774 727.49,-204.757 695.06,-196.83"/>
<polygon fill="midnightblue" stroke="midnightblue" points="695.467,-193.328 684.927,-194.401 693.835,-200.136 695.467,-193.328"/>
</g>
<!-- Node11 -->
<g id="node11" class="node"><title>Node11</title>
<polygon fill="white" stroke="#bfbfbf" points="854.815,-233 854.815,-253 969.185,-253 969.185,-233 854.815,-233"/>
<text text-anchor="middle" x="912" y="-239" font-family="Helvetica,sans-Serif" font-size="10.00">ePub3/xml/xmlstring.h</text>
</g>
<!-- Node5&#45;&gt;Node11 -->
<g id="edge10" class="edge"><title>Node5&#45;&gt;Node11</title>
<path fill="none" stroke="midnightblue" d="M937.573,-296.852C933.186,-287.785 926.345,-273.645 920.841,-262.272"/>
<polygon fill="midnightblue" stroke="midnightblue" points="923.951,-260.663 916.445,-253.186 917.65,-263.712 923.951,-260.663"/>
</g>
<!-- Node5&#45;&gt;Node12 -->
<g id="edge11" class="edge"><title>Node5&#45;&gt;Node12</title>
<path fill="none" stroke="midnightblue" d="M972.536,-296.985C1010.71,-285.715 1075.93,-266.458 1116.35,-254.525"/>
<polygon fill="midnightblue" stroke="midnightblue" points="1117.46,-257.846 1126.06,-251.658 1115.48,-251.133 1117.46,-257.846"/>
</g>
<!-- Node13 -->
<g id="node13" class="node"><title>Node13</title>
<polygon fill="white" stroke="#bfbfbf" points="860.943,-175 860.943,-195 913.057,-195 913.057,-175 860.943,-175"/>
<text text-anchor="middle" x="887" y="-181" font-family="Helvetica,sans-Serif" font-size="10.00">memory</text>
</g>
<!-- Node5&#45;&gt;Node13 -->
<g id="edge12" class="edge"><title>Node5&#45;&gt;Node13</title>
<path fill="none" stroke="midnightblue" d="M967.071,-296.912C998.186,-284.204 1044.87,-259.564 1025,-232 1002.02,-200.111 955.963,-189.994 923.392,-186.963"/>
<polygon fill="midnightblue" stroke="midnightblue" points="923.571,-183.467 913.337,-186.21 923.048,-190.447 923.571,-183.467"/>
</g>
<!-- Node5&#45;&gt;Node14 -->
<g id="edge13" class="edge"><title>Node5&#45;&gt;Node14</title>
<path fill="none" stroke="midnightblue" d="M918.008,-296.985C889.054,-286.105 840.292,-267.782 808.377,-255.79"/>
<polygon fill="midnightblue" stroke="midnightblue" points="809.246,-252.378 798.654,-252.137 806.783,-258.93 809.246,-252.378"/>
</g>
<!-- Node15 -->
<g id="node15" class="node"><title>Node15</title>
<polygon fill="white" stroke="#bfbfbf" points="987.5,-233 987.5,-253 1016.5,-253 1016.5,-233 987.5,-233"/>
<text text-anchor="middle" x="1001.61" y="-239" font-family="Helvetica,sans-Serif" font-size="10.00">list</text>
</g>
<!-- Node5&#45;&gt;Node15 -->
<g id="edge14" class="edge"><title>Node5&#45;&gt;Node15</title>
<path fill="none" stroke="midnightblue" d="M950.853,-296.852C960.07,-287.327 974.706,-272.204 985.964,-260.571"/>
<polygon fill="midnightblue" stroke="midnightblue" points="988.671,-262.806 993.11,-253.186 983.641,-257.938 988.671,-262.806"/>
</g>
<!-- Node7 -->
<g id="node7" class="node"><title>Node7</title>
<g id="a_node7"><a xlink:href="__config_8h.xhtml" target="_top" xlink:title="_config.h">
<polygon fill="white" stroke="black" points="582.707,-117 582.707,-137 639.293,-137 639.293,-117 582.707,-117"/>
<text text-anchor="middle" x="611" y="-123" font-family="Helvetica,sans-Serif" font-size="10.00">_config.h</text>
</a>
</g>
</g>
<!-- Node6&#45;&gt;Node7 -->
<g id="edge6" class="edge"><title>Node6&#45;&gt;Node7</title>
<path fill="none" stroke="midnightblue" d="M640.22,-174.753C635.277,-166.843 628.023,-155.237 621.98,-145.568"/>
<polygon fill="midnightblue" stroke="midnightblue" points="624.94,-143.7 616.672,-137.075 619.004,-147.41 624.94,-143.7"/>
</g>
<!-- Node10 -->
<g id="node10" class="node"><title>Node10</title>
<polygon fill="white" stroke="#bfbfbf" points="657.158,-117 657.158,-137 704.842,-137 704.842,-117 657.158,-117"/>
<text text-anchor="middle" x="681" y="-123" font-family="Helvetica,sans-Serif" font-size="10.00">stdlib.h</text>
</g>
<!-- Node6&#45;&gt;Node10 -->
<g id="edge9" class="edge"><title>Node6&#45;&gt;Node10</title>
<path fill="none" stroke="midnightblue" d="M651.78,-174.753C656.723,-166.843 663.977,-155.237 670.02,-145.568"/>
<polygon fill="midnightblue" stroke="midnightblue" points="672.996,-147.41 675.328,-137.075 667.06,-143.7 672.996,-147.41"/>
</g>
<!-- Node8 -->
<g id="node8" class="node"><title>Node8</title>
<g id="a_node8"><a xlink:href="__platform_8h.xhtml" target="_top" xlink:title="_platform.h">
<polygon fill="white" stroke="black" points="577.988,-59 577.988,-79 644.012,-79 644.012,-59 577.988,-59"/>
<text text-anchor="middle" x="611" y="-65" font-family="Helvetica,sans-Serif" font-size="10.00">_platform.h</text>
</a>
</g>
</g>
<!-- Node7&#45;&gt;Node8 -->
<g id="edge7" class="edge"><title>Node7&#45;&gt;Node8</title>
<path fill="none" stroke="midnightblue" d="M611,-116.753C611,-109.25 611,-98.4238 611,-89.0781"/>
<polygon fill="midnightblue" stroke="midnightblue" points="614.5,-89.0752 611,-79.0752 607.5,-89.0752 614.5,-89.0752"/>
</g>
<!-- Node9 -->
<g id="node9" class="node"><title>Node9</title>
<g id="a_node9"><a xlink:href="__compiler_8h.xhtml" target="_top" xlink:title="_compiler.h">
<polygon fill="white" stroke="black" points="577.429,-1 577.429,-21 644.571,-21 644.571,-1 577.429,-1"/>
<text text-anchor="middle" x="611" y="-7" font-family="Helvetica,sans-Serif" font-size="10.00">_compiler.h</text>
</a>
</g>
</g>
<!-- Node8&#45;&gt;Node9 -->
<g id="edge8" class="edge"><title>Node8&#45;&gt;Node9</title>
<path fill="none" stroke="midnightblue" d="M611,-58.7527C611,-51.2504 611,-40.4238 611,-31.0781"/>
<polygon fill="midnightblue" stroke="midnightblue" points="614.5,-31.0752 611,-21.0752 607.5,-31.0752 614.5,-31.0752"/>
</g>
<!-- Node16&#45;&gt;Node6 -->
<g id="edge16" class="edge"><title>Node16&#45;&gt;Node6</title>
<path fill="none" stroke="midnightblue" d="M90.1565,-290.855C131.123,-273.845 201.225,-246.703 264,-232 381.471,-204.487 523.334,-192.899 596.696,-188.46"/>
<polygon fill="midnightblue" stroke="midnightblue" points="597.233,-191.934 607.011,-187.856 596.824,-184.946 597.233,-191.934"/>
</g>
<!-- Node18 -->
<g id="node18" class="node"><title>Node18</title>
<polygon fill="white" stroke="#bfbfbf" points="459.934,-233 459.934,-253 522.066,-253 522.066,-233 459.934,-233"/>
<text text-anchor="middle" x="491" y="-239" font-family="Helvetica,sans-Serif" font-size="10.00">type_traits</text>
</g>
<!-- Node17&#45;&gt;Node18 -->
<g id="edge18" class="edge"><title>Node17&#45;&gt;Node18</title>
<path fill="none" stroke="midnightblue" d="M578.92,-290.992C560.077,-280.92 535.433,-267.749 517.032,-257.914"/>
<polygon fill="midnightblue" stroke="midnightblue" points="518.511,-254.736 508.042,-253.109 515.212,-260.909 518.511,-254.736"/>
</g>
<!-- Node17&#45;&gt;Node19 -->
<g id="edge19" class="edge"><title>Node17&#45;&gt;Node19</title>
<path fill="none" stroke="midnightblue" d="M553.96,-292.045C550.934,-291.332 547.931,-290.645 545,-290 465.451,-272.499 370.743,-256.495 323.282,-248.804"/>
<polygon fill="midnightblue" stroke="midnightblue" points="323.781,-245.339 313.351,-247.204 322.667,-252.25 323.781,-245.339"/>
</g>
<!-- Node17&#45;&gt;Node20 -->
<g id="edge20" class="edge"><title>Node17&#45;&gt;Node20</title>
<path fill="none" stroke="midnightblue" d="M633.87,-290.992C651.735,-281.013 675.05,-267.99 692.604,-258.185"/>
<polygon fill="midnightblue" stroke="midnightblue" points="694.669,-261.041 701.692,-253.109 691.255,-254.93 694.669,-261.041"/>
</g>
<!-- Node21 -->
<g id="node21" class="node"><title>Node21</title>
<polygon fill="white" stroke="#bfbfbf" points="539.828,-233 539.828,-253 594.172,-253 594.172,-233 539.828,-233"/>
<text text-anchor="middle" x="567" y="-239" font-family="Helvetica,sans-Serif" font-size="10.00">iostream</text>
</g>
<!-- Node17&#45;&gt;Node21 -->
<g id="edge21" class="edge"><title>Node17&#45;&gt;Node21</title>
<path fill="none" stroke="midnightblue" d="M597.317,-290.992C591.629,-282.175 584.408,-270.983 578.441,-261.733"/>
<polygon fill="midnightblue" stroke="midnightblue" points="581.356,-259.796 572.994,-253.29 575.474,-263.591 581.356,-259.796"/>
</g>
<!-- Node22 -->
<g id="node22" class="node"><title>Node22</title>
<polygon fill="white" stroke="#bfbfbf" points="384.436,-233 384.436,-253 441.564,-253 441.564,-233 384.436,-233"/>
<text text-anchor="middle" x="413" y="-239" font-family="Helvetica,sans-Serif" font-size="10.00">algorithm</text>
</g>
<!-- Node17&#45;&gt;Node22 -->
<g id="edge22" class="edge"><title>Node17&#45;&gt;Node22</title>
<path fill="none" stroke="midnightblue" d="M560.038,-290.992C526.545,-280.288 482.092,-266.081 450.863,-256.1"/>
<polygon fill="midnightblue" stroke="midnightblue" points="451.81,-252.729 441.219,-253.018 449.679,-259.397 451.81,-252.729"/>
</g>
<!-- Node23 -->
<g id="node23" class="node"><title>Node23</title>
<g id="a_node23"><a xlink:href="____strhash_8h.xhtml" target="_top" xlink:title="__strhash.h">
<polygon fill="white" stroke="black" points="611.872,-233 611.872,-253 680.128,-253 680.128,-233 611.872,-233"/>
<text text-anchor="middle" x="646" y="-239" font-family="Helvetica,sans-Serif" font-size="10.00">__strhash.h</text>
</a>
</g>
</g>
<!-- Node17&#45;&gt;Node23 -->
<g id="edge23" class="edge"><title>Node17&#45;&gt;Node23</title>
<path fill="none" stroke="midnightblue" d="M616.441,-290.992C621.929,-282.267 628.88,-271.216 634.663,-262.023"/>
<polygon fill="midnightblue" stroke="midnightblue" points="637.794,-263.619 640.156,-253.29 631.869,-259.891 637.794,-263.619"/>
</g>
<!-- Node23&#45;&gt;Node6 -->
<g id="edge24" class="edge"><title>Node23&#45;&gt;Node6</title>
<path fill="none" stroke="midnightblue" d="M646,-232.753C646,-225.25 646,-214.424 646,-205.078"/>
<polygon fill="midnightblue" stroke="midnightblue" points="649.5,-205.075 646,-195.075 642.5,-205.075 649.5,-205.075"/>
</g>
<!-- Node23&#45;&gt;Node13 -->
<g id="edge25" class="edge"><title>Node23&#45;&gt;Node13</title>
<path fill="none" stroke="midnightblue" d="M680.273,-234.036C725.458,-223.537 804.612,-205.144 850.759,-194.421"/>
<polygon fill="midnightblue" stroke="midnightblue" points="851.686,-197.799 860.634,-192.127 850.101,-190.981 851.686,-197.799"/>
</g>
<!-- Node30&#45;&gt;Node5 -->
<g id="edge37" class="edge"><title>Node30&#45;&gt;Node5</title>
<path fill="none" stroke="midnightblue" d="M1031.68,-418.996C1018.36,-409.381 1001.64,-396.095 989,-382 973.664,-364.897 960.074,-342.237 951.502,-326.519"/>
<polygon fill="midnightblue" stroke="midnightblue" points="954.402,-324.516 946.626,-317.32 948.217,-327.795 954.402,-324.516"/>
</g>
<!-- Node31 -->
<g id="node31" class="node"><title>Node31</title>
<polygon fill="white" stroke="#bfbfbf" points="997.608,-361 997.608,-381 1036.39,-381 1036.39,-361 997.608,-361"/>
<text text-anchor="middle" x="1017" y="-367" font-family="Helvetica,sans-Serif" font-size="10.00">array</text>
</g>
<!-- Node30&#45;&gt;Node31 -->
<g id="edge38" class="edge"><title>Node30&#45;&gt;Node31</title>
<path fill="none" stroke="midnightblue" d="M1045.04,-418.992C1039.84,-410.267 1033.24,-399.216 1027.76,-390.023"/>
<polygon fill="midnightblue" stroke="midnightblue" points="1030.67,-388.084 1022.54,-381.29 1024.66,-391.671 1030.67,-388.084"/>
</g>
<!-- Node32 -->
<g id="node32" class="node"><title>Node32</title>
<polygon fill="white" stroke="#bfbfbf" points="1054.83,-361 1054.83,-381 1129.17,-381 1129.17,-361 1054.83,-361"/>
<text text-anchor="middle" x="1092" y="-367" font-family="Helvetica,sans-Serif" font-size="10.00">system_error</text>
</g>
<!-- Node30&#45;&gt;Node32 -->
<g id="edge39" class="edge"><title>Node30&#45;&gt;Node32</title>
<path fill="none" stroke="midnightblue" d="M1063.2,-418.992C1068.55,-410.267 1075.32,-399.216 1080.95,-390.023"/>
<polygon fill="midnightblue" stroke="midnightblue" points="1084.06,-391.645 1086.31,-381.29 1078.1,-387.987 1084.06,-391.645"/>
</g>
<!-- Node33 -->
<g id="node33" class="node"><title>Node33</title>
<polygon fill="white" stroke="#bfbfbf" points="1147.6,-361 1147.6,-381 1206.4,-381 1206.4,-361 1147.6,-361"/>
<text text-anchor="middle" x="1177" y="-367" font-family="Helvetica,sans-Serif" font-size="10.00">functional</text>
</g>
<!-- Node30&#45;&gt;Node33 -->
<g id="edge40" class="edge"><title>Node30&#45;&gt;Node33</title>
<path fill="none" stroke="midnightblue" d="M1083.77,-418.992C1103.94,-408.828 1130.37,-395.507 1149.93,-385.644"/>
<polygon fill="midnightblue" stroke="midnightblue" points="1151.58,-388.735 1158.93,-381.109 1148.42,-382.485 1151.58,-388.735"/>
</g>
</g>
</svg>
