<?xml version="1.0" encoding="UTF-8" standalone="no"?>
<!DOCTYPE svg PUBLIC "-//W3C//DTD SVG 1.1//EN"
 "http://www.w3.org/Graphics/SVG/1.1/DTD/svg11.dtd">
<!-- Generated by graphviz version 2.30.0 (20130114.0426)
 -->
<!-- Title: SMILData::Media Pages: 1 -->
<svg width="271pt" height="216pt"
 viewBox="0.00 0.00 271.00 216.00" xmlns="http://www.w3.org/2000/svg" xmlns:xlink="http://www.w3.org/1999/xlink">
<g id="graph0" class="graph" transform="scale(1 1) rotate(0) translate(4 212)">
<title>SMILData::Media</title>
<polygon fill="white" stroke="white" points="-4,5 -4,-212 268,-212 268,5 -4,5"/>
<!-- Node1 -->
<g id="node1" class="node"><title>Node1</title>
<polygon fill="#bfbfbf" stroke="black" points="83.3721,-59 83.3721,-79 176.628,-79 176.628,-59 83.3721,-59"/>
<text text-anchor="middle" x="130" y="-65" font-family="Helvetica,sans-Serif" font-size="10.00">SMILData::Media</text>
</g>
<!-- Node5 -->
<g id="node5" class="node"><title>Node5</title>
<g id="a_node5"><a xlink:href="class_s_m_i_l_data_1_1_audio.xhtml" target="_top" xlink:title="SMILData::Audio">
<polygon fill="white" stroke="black" points="31.2021,-1 31.2021,-21 122.798,-21 122.798,-1 31.2021,-1"/>
<text text-anchor="middle" x="77" y="-7" font-family="Helvetica,sans-Serif" font-size="10.00">SMILData::Audio</text>
</a>
</g>
</g>
<!-- Node1&#45;&gt;Node5 -->
<g id="edge4" class="edge"><title>Node1&#45;&gt;Node5</title>
<path fill="none" stroke="midnightblue" d="M114.299,-51.4099C104.906,-41.486 93.3308,-29.2551 85.589,-21.0752"/>
<polygon fill="midnightblue" stroke="midnightblue" points="111.832,-53.8956 121.248,-58.7527 116.916,-49.0839 111.832,-53.8956"/>
</g>
<!-- Node6 -->
<g id="node6" class="node"><title>Node6</title>
<g id="a_node6"><a xlink:href="class_s_m_i_l_data_1_1_text.xhtml" target="_top" xlink:title="SMILData::Text">
<polygon fill="white" stroke="black" points="140.82,-1 140.82,-21 225.18,-21 225.18,-1 140.82,-1"/>
<text text-anchor="middle" x="183" y="-7" font-family="Helvetica,sans-Serif" font-size="10.00">SMILData::Text</text>
</a>
</g>
</g>
<!-- Node1&#45;&gt;Node6 -->
<g id="edge5" class="edge"><title>Node1&#45;&gt;Node6</title>
<path fill="none" stroke="midnightblue" d="M145.701,-51.4099C155.094,-41.486 166.669,-29.2551 174.411,-21.0752"/>
<polygon fill="midnightblue" stroke="midnightblue" points="143.084,-49.0839 138.752,-58.7527 148.168,-53.8956 143.084,-49.0839"/>
</g>
<!-- Node2 -->
<g id="node2" class="node"><title>Node2</title>
<g id="a_node2"><a xlink:href="class_s_m_i_l_data_1_1_time_node.xhtml" target="_top" xlink:title="SMILData::TimeNode">
<polygon fill="white" stroke="black" points="74.1094,-117 74.1094,-137 185.891,-137 185.891,-117 74.1094,-117"/>
<text text-anchor="middle" x="130" y="-123" font-family="Helvetica,sans-Serif" font-size="10.00">SMILData::TimeNode</text>
</a>
</g>
</g>
<!-- Node2&#45;&gt;Node1 -->
<g id="edge1" class="edge"><title>Node2&#45;&gt;Node1</title>
<path fill="none" stroke="midnightblue" d="M130,-106.707C130,-97.3384 130,-86.5262 130,-79.0752"/>
<polygon fill="midnightblue" stroke="midnightblue" points="126.5,-106.753 130,-116.753 133.5,-106.753 126.5,-106.753"/>
</g>
<!-- Node3 -->
<g id="node3" class="node"><title>Node3</title>
<g id="a_node3"><a xlink:href="class_owned_by.xhtml" target="_top" xlink:title="OwnedBy\&lt; SMILData \&gt;">
<polygon fill="white" stroke="black" points="-0.526855,-181 -0.526855,-201 120.527,-201 120.527,-181 -0.526855,-181"/>
<text text-anchor="middle" x="60" y="-187" font-family="Helvetica,sans-Serif" font-size="10.00">OwnedBy&lt; SMILData &gt;</text>
</a>
</g>
</g>
<!-- Node3&#45;&gt;Node2 -->
<g id="edge2" class="edge"><title>Node3&#45;&gt;Node2</title>
<path fill="none" stroke="midnightblue" d="M77.9044,-174.142C91.1222,-162.435 108.652,-146.908 119.629,-137.186"/>
<polygon fill="midnightblue" stroke="midnightblue" points="75.494,-171.601 70.3287,-180.852 80.1353,-176.841 75.494,-171.601"/>
</g>
<!-- Node4 -->
<g id="node4" class="node"><title>Node4</title>
<polygon fill="white" stroke="#bfbfbf" points="138.247,-175 138.247,-207 263.753,-207 263.753,-175 138.247,-175"/>
<text text-anchor="start" x="146.247" y="-193" font-family="Helvetica,sans-Serif" font-size="10.00">std::enable_shared</text>
<text text-anchor="middle" x="201" y="-181" font-family="Helvetica,sans-Serif" font-size="10.00">_from_this&lt; TimeNode &gt;</text>
</g>
<!-- Node4&#45;&gt;Node2 -->
<g id="edge3" class="edge"><title>Node4&#45;&gt;Node2</title>
<path fill="none" stroke="midnightblue" d="M176.156,-168.305C163.998,-157.688 150.002,-145.466 140.639,-137.29"/>
<polygon fill="midnightblue" stroke="midnightblue" points="173.978,-171.05 183.813,-174.992 178.583,-165.778 173.978,-171.05"/>
</g>
</g>
</svg>
