<?xml version="1.0" encoding="UTF-8" standalone="no"?>
<!DOCTYPE svg PUBLIC "-//W3C//DTD SVG 1.1//EN"
 "http://www.w3.org/Graphics/SVG/1.1/DTD/svg11.dtd">
<!-- Generated by graphviz version 2.30.0 (20130114.0426)
 -->
<!-- Title: SpineItem Pages: 1 -->
<svg width="602pt" height="340pt"
 viewBox="0.00 0.00 602.00 340.44" xmlns="http://www.w3.org/2000/svg" xmlns:xlink="http://www.w3.org/1999/xlink">
<g id="graph0" class="graph" transform="scale(1 1) rotate(0) translate(4 336.437)">
<title>SpineItem</title>
<polygon fill="white" stroke="white" points="-4,5 -4,-336.437 599,-336.437 599,5 -4,5"/>
<!-- Node1 -->
<g id="node1" class="node"><title>Node1</title>
<polygon fill="#bfbfbf" stroke="black" points="532.488,-169.437 532.488,-189.437 593.512,-189.437 593.512,-169.437 532.488,-169.437"/>
<text text-anchor="middle" x="563" y="-175.437" font-family="Helvetica,sans-Serif" font-size="10.00">SpineItem</text>
</g>
<!-- Node2 -->
<g id="node2" class="node"><title>Node2</title>
<g id="a_node2"><a xlink:href="class_pointer_type.xhtml" target="_top" xlink:title="PointerType\&lt; SpineItem \&gt;">
<polygon fill="white" stroke="black" points="234.185,-306.437 234.185,-326.437 365.815,-326.437 365.815,-306.437 234.185,-306.437"/>
<text text-anchor="middle" x="300" y="-312.437" font-family="Helvetica,sans-Serif" font-size="10.00">PointerType&lt; SpineItem &gt;</text>
</a>
</g>
</g>
<!-- Node2&#45;&gt;Node1 -->
<g id="edge1" class="edge"><title>Node2&#45;&gt;Node1</title>
<path fill="none" stroke="midnightblue" d="M376.019,-313.271C419.998,-308.041 474.494,-295.368 514,-265.437 540.031,-245.715 553.938,-207.55 559.323,-189.44"/>
<polygon fill="midnightblue" stroke="midnightblue" points="375.51,-309.806 365.945,-314.362 376.264,-316.765 375.51,-309.806"/>
</g>
<!-- Node3 -->
<g id="node3" class="node"><title>Node3</title>
<polygon fill="white" stroke="#bfbfbf" points="0.527344,-300.437 0.527344,-332.437 125.473,-332.437 125.473,-300.437 0.527344,-300.437"/>
<text text-anchor="start" x="8.52734" y="-318.437" font-family="Helvetica,sans-Serif" font-size="10.00">std::enable_shared</text>
<text text-anchor="middle" x="63" y="-306.437" font-family="Helvetica,sans-Serif" font-size="10.00">_from_this&lt; SpineItem &gt;</text>
</g>
<!-- Node3&#45;&gt;Node2 -->
<g id="edge2" class="edge"><title>Node3&#45;&gt;Node2</title>
<path fill="none" stroke="midnightblue" d="M136.12,-316.437C167.335,-316.437 203.598,-316.437 233.973,-316.437"/>
<polygon fill="midnightblue" stroke="midnightblue" points="135.744,-312.937 125.743,-316.437 135.743,-319.937 135.744,-312.937"/>
</g>
<!-- Node4 -->
<g id="node4" class="node"><title>Node4</title>
<g id="a_node4"><a xlink:href="class_owned_by.xhtml" target="_top" xlink:title="OwnedBy\&lt; Package \&gt;">
<polygon fill="white" stroke="black" points="242.247,-267.437 242.247,-287.437 357.753,-287.437 357.753,-267.437 242.247,-267.437"/>
<text text-anchor="middle" x="300" y="-273.437" font-family="Helvetica,sans-Serif" font-size="10.00">OwnedBy&lt; Package &gt;</text>
</a>
</g>
</g>
<!-- Node4&#45;&gt;Node1 -->
<g id="edge3" class="edge"><title>Node4&#45;&gt;Node1</title>
<path fill="none" stroke="midnightblue" d="M367.785,-273.964C411.785,-269.207 469.308,-258.117 514,-232.437 532.298,-221.923 547.461,-202.001 555.584,-189.803"/>
<polygon fill="midnightblue" stroke="midnightblue" points="367.364,-270.489 357.761,-274.965 368.06,-277.454 367.364,-270.489"/>
</g>
<!-- Node5 -->
<g id="node5" class="node"><title>Node5</title>
<g id="a_node5"><a xlink:href="class_property_holder.xhtml" target="_top" xlink:title="PropertyHolder">
<polygon fill="white" stroke="black" points="258.375,-228.437 258.375,-248.437 341.625,-248.437 341.625,-228.437 258.375,-228.437"/>
<text text-anchor="middle" x="300" y="-234.437" font-family="Helvetica,sans-Serif" font-size="10.00">PropertyHolder</text>
</a>
</g>
</g>
<!-- Node5&#45;&gt;Node1 -->
<g id="edge4" class="edge"><title>Node5&#45;&gt;Node1</title>
<path fill="none" stroke="midnightblue" d="M352.093,-234.918C395.936,-230.813 460.346,-222.172 514,-204.437 525.062,-200.781 536.67,-194.801 545.699,-189.607"/>
<polygon fill="midnightblue" stroke="midnightblue" points="351.611,-231.447 341.961,-235.821 352.232,-238.42 351.611,-231.447"/>
</g>
<!-- Node6 -->
<g id="node6" class="node"><title>Node6</title>
<g id="a_node6"><a xlink:href="class_x_m_l_identifiable.xhtml" target="_top" xlink:title="XMLIdentifiable">
<polygon fill="white" stroke="black" points="257.535,-189.437 257.535,-209.437 342.465,-209.437 342.465,-189.437 257.535,-189.437"/>
<text text-anchor="middle" x="300" y="-195.437" font-family="Helvetica,sans-Serif" font-size="10.00">XMLIdentifiable</text>
</a>
</g>
</g>
<!-- Node6&#45;&gt;Node1 -->
<g id="edge5" class="edge"><title>Node6&#45;&gt;Node1</title>
<path fill="none" stroke="midnightblue" d="M352.947,-196.877C396.117,-194.544 459.128,-190.666 514,-185.437 519.936,-184.872 526.271,-184.158 532.328,-183.423"/>
<polygon fill="midnightblue" stroke="midnightblue" points="352.489,-193.396 342.689,-197.422 352.86,-200.386 352.489,-193.396"/>
</g>
<!-- Node7 -->
<g id="node7" class="node"><title>Node7</title>
<polygon fill="white" stroke="#bfbfbf" points="240.582,-150.437 240.582,-170.437 359.418,-170.437 359.418,-150.437 240.582,-150.437"/>
<text text-anchor="middle" x="300" y="-156.437" font-family="Helvetica,sans-Serif" font-size="10.00">weak_ptr&lt; SpineItem &gt;</text>
</g>
<!-- Node7&#45;&gt;Node1 -->
<g id="edge6" class="edge"><title>Node7&#45;&gt;Node1</title>
<path fill="none" stroke="#9a32cd" stroke-dasharray="5,2" d="M369.903,-163.534C411.65,-165.685 465.948,-168.972 514,-173.437 519.937,-173.989 526.273,-174.696 532.33,-175.43"/>
<polygon fill="#9a32cd" stroke="#9a32cd" points="370.007,-160.034 359.843,-163.024 369.653,-167.026 370.007,-160.034"/>
<text text-anchor="middle" x="449" y="-175.437" font-family="Helvetica,sans-Serif" font-size="10.00"> _prev</text>
</g>
<!-- Node8 -->
<g id="node8" class="node"><title>Node8</title>
<g id="a_node8"><a xlink:href="classstring.xhtml" target="_top" xlink:title="string">
<polygon fill="white" stroke="black" points="42.7734,-76.4373 42.7734,-96.4373 83.2266,-96.4373 83.2266,-76.4373 42.7734,-76.4373"/>
<text text-anchor="middle" x="63" y="-82.4373" font-family="Helvetica,sans-Serif" font-size="10.00">string</text>
</a>
</g>
</g>
<!-- Node8&#45;&gt;Node1 -->
<g id="edge7" class="edge"><title>Node8&#45;&gt;Node1</title>
<path fill="none" stroke="#9a32cd" stroke-dasharray="5,2" d="M93.5246,-89.0379C164.297,-95.3194 339.707,-111.187 366,-116.437 433.42,-129.9 448.891,-139.356 514,-161.437 521.248,-163.896 529.044,-166.734 536.201,-169.419"/>
<polygon fill="#9a32cd" stroke="#9a32cd" points="93.7567,-85.5449 83.487,-88.1491 93.1392,-92.5176 93.7567,-85.5449"/>
<text text-anchor="middle" x="300" y="-130.437" font-family="Helvetica,sans-Serif" font-size="10.00"> _idref</text>
<text text-anchor="middle" x="300" y="-118.437" font-family="Helvetica,sans-Serif" font-size="10.00">_toc_title</text>
</g>
<!-- Node8&#45;&gt;Node8 -->
<g id="edge8" class="edge"><title>Node8&#45;&gt;Node8</title>
<path fill="none" stroke="#9a32cd" stroke-dasharray="5,2" d="M41.5689,-105.999C43.1122,-110.832 50.2559,-114.437 63,-114.437 83.3906,-114.437 89.4441,-105.209 81.1604,-96.4849"/>
<polygon fill="#9a32cd" stroke="#9a32cd" points="44.8984,-107.08 44.8396,-96.4849 38.2786,-104.804 44.8984,-107.08"/>
<text text-anchor="middle" x="63" y="-116.437" font-family="Helvetica,sans-Serif" font-size="10.00"> EmptyString</text>
</g>
<!-- Node10 -->
<g id="node10" class="node"><title>Node10</title>
<g id="a_node10"><a xlink:href="class_i_r_i.xhtml" target="_top" xlink:title="IRI">
<polygon fill="white" stroke="black" points="285.5,-50.4373 285.5,-70.4373 314.5,-70.4373 314.5,-50.4373 285.5,-50.4373"/>
<text text-anchor="middle" x="300" y="-56.4373" font-family="Helvetica,sans-Serif" font-size="10.00">IRI</text>
</a>
</g>
</g>
<!-- Node8&#45;&gt;Node10 -->
<g id="edge11" class="edge"><title>Node8&#45;&gt;Node10</title>
<path fill="none" stroke="#9a32cd" stroke-dasharray="5,2" d="M93.049,-79.1567C108.15,-75.6546 126.964,-71.7286 144,-69.4373 195.826,-62.4669 258.117,-60.8925 285.249,-60.5387"/>
<polygon fill="#9a32cd" stroke="#9a32cd" points="92.173,-75.7674 83.2555,-81.4883 93.7943,-82.577 92.173,-75.7674"/>
<text text-anchor="middle" x="180" y="-83.4373" font-family="Helvetica,sans-Serif" font-size="10.00"> gEPUBScheme</text>
<text text-anchor="middle" x="180" y="-71.4373" font-family="Helvetica,sans-Serif" font-size="10.00">_pureIRI</text>
</g>
<!-- Node9 -->
<g id="node9" class="node"><title>Node9</title>
<polygon fill="white" stroke="#bfbfbf" points="236.966,-11.4373 236.966,-31.4373 363.034,-31.4373 363.034,-11.4373 236.966,-11.4373"/>
<text text-anchor="middle" x="300" y="-17.4373" font-family="Helvetica,sans-Serif" font-size="10.00">shared_ptr&lt; SpineItem &gt;</text>
</g>
<!-- Node9&#45;&gt;Node1 -->
<g id="edge9" class="edge"><title>Node9&#45;&gt;Node1</title>
<path fill="none" stroke="#9a32cd" stroke-dasharray="5,2" d="M344.621,-9.12623C391.388,1.25314 465.447,9.2088 514,-27.4373 559.943,-62.1135 562.916,-140.785 562.416,-169.067"/>
<polygon fill="#9a32cd" stroke="#9a32cd" points="343.724,-5.74153 334.788,-11.4335 345.324,-12.5564 343.724,-5.74153"/>
<text text-anchor="middle" x="449" y="-29.4373" font-family="Helvetica,sans-Serif" font-size="10.00"> _next</text>
</g>
<!-- Node10&#45;&gt;Node1 -->
<g id="edge10" class="edge"><title>Node10&#45;&gt;Node1</title>
<path fill="none" stroke="#9a32cd" stroke-dasharray="5,2" d="M324.63,-53.9909C366.794,-43.9767 456.002,-29.6919 514,-69.4373 548.375,-92.9943 558.336,-146.882 561.049,-169.331"/>
<polygon fill="#9a32cd" stroke="#9a32cd" points="323.588,-50.6436 314.74,-56.4706 325.291,-57.4335 323.588,-50.6436"/>
<text text-anchor="middle" x="449" y="-83.4373" font-family="Helvetica,sans-Serif" font-size="10.00"> PageSpreadLeftPropertyIRI</text>
<text text-anchor="middle" x="449" y="-71.4373" font-family="Helvetica,sans-Serif" font-size="10.00">PageSpreadRightPropertyIRI</text>
</g>
</g>
</svg>
