<?xml version="1.0" encoding="UTF-8" standalone="no"?>
<!DOCTYPE svg PUBLIC "-//W3C//DTD SVG 1.1//EN"
 "http://www.w3.org/Graphics/SVG/1.1/DTD/svg11.dtd">
<!-- Generated by graphviz version 2.30.0 (20130114.0426)
 -->
<!-- Title: RunLoop::Timer Pages: 1 -->
<svg width="259pt" height="158pt"
 viewBox="0.00 0.00 259.00 158.00" xmlns="http://www.w3.org/2000/svg" xmlns:xlink="http://www.w3.org/1999/xlink">
<g id="graph0" class="graph" transform="scale(1 1) rotate(0) translate(4 154)">
<title>RunLoop::Timer</title>
<polygon fill="white" stroke="white" points="-4,5 -4,-154 256,-154 256,5 -4,5"/>
<!-- Node1 -->
<g id="node1" class="node"><title>Node1</title>
<polygon fill="#bfbfbf" stroke="black" points="78.3335,-1 78.3335,-21 165.667,-21 165.667,-1 78.3335,-1"/>
<text text-anchor="middle" x="122" y="-7" font-family="Helvetica,sans-Serif" font-size="10.00">RunLoop::Timer</text>
</g>
<!-- Node2 -->
<g id="node2" class="node"><title>Node2</title>
<g id="a_node2"><a xlink:href="class_pointer_type.xhtml" target="_top" xlink:title="PointerType\&lt; Timer \&gt;">
<polygon fill="white" stroke="black" points="-0.807617,-59 -0.807617,-79 110.808,-79 110.808,-59 -0.807617,-59"/>
<text text-anchor="middle" x="55" y="-65" font-family="Helvetica,sans-Serif" font-size="10.00">PointerType&lt; Timer &gt;</text>
</a>
</g>
</g>
<!-- Node2&#45;&gt;Node1 -->
<g id="edge1" class="edge"><title>Node2&#45;&gt;Node1</title>
<path fill="none" stroke="midnightblue" d="M73.7983,-52.288C85.8486,-42.2161 101.065,-29.4981 111.142,-21.0752"/>
<polygon fill="midnightblue" stroke="midnightblue" points="71.4919,-49.6541 66.0637,-58.7527 75.9811,-55.0251 71.4919,-49.6541"/>
</g>
<!-- Node3 -->
<g id="node3" class="node"><title>Node3</title>
<polygon fill="white" stroke="#bfbfbf" points="2.53467,-117 2.53467,-149 107.465,-149 107.465,-117 2.53467,-117"/>
<text text-anchor="start" x="10.5347" y="-135" font-family="Helvetica,sans-Serif" font-size="10.00">std::enable_shared</text>
<text text-anchor="middle" x="55" y="-123" font-family="Helvetica,sans-Serif" font-size="10.00">_from_this&lt; Timer &gt;</text>
</g>
<!-- Node3&#45;&gt;Node2 -->
<g id="edge2" class="edge"><title>Node3&#45;&gt;Node2</title>
<path fill="none" stroke="midnightblue" d="M55,-106.922C55,-97.1719 55,-86.6099 55,-79.2904"/>
<polygon fill="midnightblue" stroke="midnightblue" points="51.5001,-106.991 55,-116.992 58.5001,-106.992 51.5001,-106.991"/>
</g>
<!-- Node4 -->
<g id="node4" class="node"><title>Node4</title>
<g id="a_node4"><a xlink:href="class_run_loop_1_1___source_base.xhtml" target="_top" xlink:title="RunLoop::_SourceBase">
<polygon fill="white" stroke="black" points="128.907,-59 128.907,-79 251.093,-79 251.093,-59 128.907,-59"/>
<text text-anchor="middle" x="190" y="-65" font-family="Helvetica,sans-Serif" font-size="10.00">RunLoop::_SourceBase</text>
</a>
</g>
</g>
<!-- Node4&#45;&gt;Node1 -->
<g id="edge3" class="edge"><title>Node4&#45;&gt;Node1</title>
<path fill="none" stroke="midnightblue" d="M170.921,-52.288C158.691,-42.2161 143.248,-29.4981 133.02,-21.0752"/>
<polygon fill="midnightblue" stroke="midnightblue" points="168.827,-55.0974 178.771,-58.7527 173.277,-49.6939 168.827,-55.0974"/>
</g>
</g>
</svg>
