<?xml version="1.0" encoding="UTF-8" standalone="no"?>
<!DOCTYPE svg PUBLIC "-//W3C//DTD SVG 1.1//EN"
 "http://www.w3.org/Graphics/SVG/1.1/DTD/svg11.dtd">
<!-- Generated by graphviz version 2.30.0 (20130114.0426)
 -->
<!-- Title: EncryptionInfo Pages: 1 -->
<svg width="295pt" height="158pt"
 viewBox="0.00 0.00 295.00 158.00" xmlns="http://www.w3.org/2000/svg" xmlns:xlink="http://www.w3.org/1999/xlink">
<g id="graph0" class="graph" transform="scale(1 1) rotate(0) translate(4 154)">
<title>EncryptionInfo</title>
<polygon fill="white" stroke="white" points="-4,5 -4,-154 292,-154 292,5 -4,5"/>
<!-- Node1 -->
<g id="node1" class="node"><title>Node1</title>
<polygon fill="#bfbfbf" stroke="black" points="111.037,-1 111.037,-21 190.963,-21 190.963,-1 111.037,-1"/>
<text text-anchor="middle" x="151" y="-7" font-family="Helvetica,sans-Serif" font-size="10.00">EncryptionInfo</text>
</g>
<!-- Node2 -->
<g id="node2" class="node"><title>Node2</title>
<g id="a_node2"><a xlink:href="class_pointer_type.xhtml" target="_top" xlink:title="PointerType\&lt; EncryptionInfo \&gt;">
<polygon fill="white" stroke="black" points="-0.265625,-59 -0.265625,-79 150.266,-79 150.266,-59 -0.265625,-59"/>
<text text-anchor="middle" x="75" y="-65" font-family="Helvetica,sans-Serif" font-size="10.00">PointerType&lt; EncryptionInfo &gt;</text>
</a>
</g>
</g>
<!-- Node2&#45;&gt;Node1 -->
<g id="edge1" class="edge"><title>Node2&#45;&gt;Node1</title>
<path fill="none" stroke="midnightblue" d="M95.9302,-52.5778C109.66,-42.4611 127.143,-29.5791 138.684,-21.0752"/>
<polygon fill="midnightblue" stroke="midnightblue" points="93.5242,-50.003 87.5499,-58.7527 97.6766,-55.6384 93.5242,-50.003"/>
</g>
<!-- Node3 -->
<g id="node3" class="node"><title>Node3</title>
<polygon fill="white" stroke="#bfbfbf" points="3.07666,-117 3.07666,-149 146.923,-149 146.923,-117 3.07666,-117"/>
<text text-anchor="start" x="11.0767" y="-135" font-family="Helvetica,sans-Serif" font-size="10.00">std::enable_shared</text>
<text text-anchor="middle" x="75" y="-123" font-family="Helvetica,sans-Serif" font-size="10.00">_from_this&lt; EncryptionInfo &gt;</text>
</g>
<!-- Node3&#45;&gt;Node2 -->
<g id="edge2" class="edge"><title>Node3&#45;&gt;Node2</title>
<path fill="none" stroke="midnightblue" d="M75,-106.922C75,-97.1719 75,-86.6099 75,-79.2904"/>
<polygon fill="midnightblue" stroke="midnightblue" points="71.5001,-106.991 75,-116.992 78.5001,-106.992 71.5001,-106.991"/>
</g>
<!-- Node4 -->
<g id="node4" class="node"><title>Node4</title>
<g id="a_node4"><a xlink:href="class_owned_by.xhtml" target="_top" xlink:title="OwnedBy\&lt; Container \&gt;">
<polygon fill="white" stroke="black" points="168.025,-59 168.025,-79 287.975,-79 287.975,-59 168.025,-59"/>
<text text-anchor="middle" x="228" y="-65" font-family="Helvetica,sans-Serif" font-size="10.00">OwnedBy&lt; Container &gt;</text>
</a>
</g>
</g>
<!-- Node4&#45;&gt;Node1 -->
<g id="edge3" class="edge"><title>Node4&#45;&gt;Node1</title>
<path fill="none" stroke="midnightblue" d="M207.191,-52.8661C193.222,-42.7069 175.283,-29.6601 163.478,-21.0752"/>
<polygon fill="midnightblue" stroke="midnightblue" points="205.139,-55.7016 215.285,-58.7527 209.256,-50.0404 205.139,-55.7016"/>
</g>
</g>
</svg>
