<?xml version="1.0" encoding="UTF-8" standalone="no"?>
<!DOCTYPE svg PUBLIC "-//W3C//DTD SVG 1.1//EN"
 "http://www.w3.org/Graphics/SVG/1.1/DTD/svg11.dtd">
<!-- Generated by graphviz version 2.30.0 (20130114.0426)
 -->
<!-- Title: CustomRenderer Pages: 1 -->
<svg width="297pt" height="216pt"
 viewBox="0.00 0.00 297.00 216.00" xmlns="http://www.w3.org/2000/svg" xmlns:xlink="http://www.w3.org/1999/xlink">
<g id="graph0" class="graph" transform="scale(1 1) rotate(0) translate(4 212)">
<title>CustomRenderer</title>
<polygon fill="white" stroke="white" points="-4,5 -4,-212 294,-212 294,5 -4,5"/>
<!-- Node1 -->
<g id="node1" class="node"><title>Node1</title>
<polygon fill="#bfbfbf" stroke="black" points="108.929,-1 108.929,-21 201.071,-21 201.071,-1 108.929,-1"/>
<text text-anchor="middle" x="155" y="-7" font-family="Helvetica,sans-Serif" font-size="10.00">CustomRenderer</text>
</g>
<!-- Node2 -->
<g id="node2" class="node"><title>Node2</title>
<g id="a_node2"><a xlink:href="class_content_handler.xhtml" target="_top" xlink:title="ContentHandler">
<polygon fill="white" stroke="black" points="111.978,-59 111.978,-79 198.022,-79 198.022,-59 111.978,-59"/>
<text text-anchor="middle" x="155" y="-65" font-family="Helvetica,sans-Serif" font-size="10.00">ContentHandler</text>
</a>
</g>
</g>
<!-- Node2&#45;&gt;Node1 -->
<g id="edge1" class="edge"><title>Node2&#45;&gt;Node1</title>
<path fill="none" stroke="midnightblue" d="M155,-48.7065C155,-39.3384 155,-28.5262 155,-21.0752"/>
<polygon fill="midnightblue" stroke="midnightblue" points="151.5,-48.7527 155,-58.7527 158.5,-48.7528 151.5,-48.7527"/>
</g>
<!-- Node3 -->
<g id="node3" class="node"><title>Node3</title>
<g id="a_node3"><a xlink:href="class_pointer_type.xhtml" target="_top" xlink:title="PointerType\&lt; ContentHandler \&gt;">
<polygon fill="white" stroke="black" points="-0.324707,-117 -0.324707,-137 156.325,-137 156.325,-117 -0.324707,-117"/>
<text text-anchor="middle" x="78" y="-123" font-family="Helvetica,sans-Serif" font-size="10.00">PointerType&lt; ContentHandler &gt;</text>
</a>
</g>
</g>
<!-- Node3&#45;&gt;Node2 -->
<g id="edge2" class="edge"><title>Node3&#45;&gt;Node2</title>
<path fill="none" stroke="midnightblue" d="M98.8092,-110.866C112.778,-100.707 130.717,-87.6601 142.522,-79.0752"/>
<polygon fill="midnightblue" stroke="midnightblue" points="96.7437,-108.04 90.715,-116.753 100.861,-113.702 96.7437,-108.04"/>
</g>
<!-- Node4 -->
<g id="node4" class="node"><title>Node4</title>
<polygon fill="white" stroke="#bfbfbf" points="3.01758,-175 3.01758,-207 152.982,-207 152.982,-175 3.01758,-175"/>
<text text-anchor="start" x="11.0176" y="-193" font-family="Helvetica,sans-Serif" font-size="10.00">std::enable_shared</text>
<text text-anchor="middle" x="78" y="-181" font-family="Helvetica,sans-Serif" font-size="10.00">_from_this&lt; ContentHandler &gt;</text>
</g>
<!-- Node4&#45;&gt;Node3 -->
<g id="edge3" class="edge"><title>Node4&#45;&gt;Node3</title>
<path fill="none" stroke="midnightblue" d="M78,-164.922C78,-155.172 78,-144.61 78,-137.29"/>
<polygon fill="midnightblue" stroke="midnightblue" points="74.5001,-164.991 78,-174.992 81.5001,-164.992 74.5001,-164.991"/>
</g>
<!-- Node5 -->
<g id="node5" class="node"><title>Node5</title>
<g id="a_node5"><a xlink:href="class_owned_by.xhtml" target="_top" xlink:title="OwnedBy\&lt; Package \&gt;">
<polygon fill="white" stroke="black" points="174.247,-117 174.247,-137 289.753,-137 289.753,-117 174.247,-117"/>
<text text-anchor="middle" x="232" y="-123" font-family="Helvetica,sans-Serif" font-size="10.00">OwnedBy&lt; Package &gt;</text>
</a>
</g>
</g>
<!-- Node5&#45;&gt;Node2 -->
<g id="edge4" class="edge"><title>Node5&#45;&gt;Node2</title>
<path fill="none" stroke="midnightblue" d="M211.191,-110.866C197.222,-100.707 179.283,-87.6601 167.478,-79.0752"/>
<polygon fill="midnightblue" stroke="midnightblue" points="209.139,-113.702 219.285,-116.753 213.256,-108.04 209.139,-113.702"/>
</g>
</g>
</svg>
