<?xml version="1.0" encoding="UTF-8" standalone="no"?>
<!DOCTYPE svg PUBLIC "-//W3C//DTD SVG 1.1//EN"
 "http://www.w3.org/Graphics/SVG/1.1/DTD/svg11.dtd">
<!-- Generated by graphviz version 2.30.0 (20130114.0426)
 -->
<!-- Title: Container Pages: 1 -->
<svg width="538pt" height="246pt"
 viewBox="0.00 0.00 538.00 246.00" xmlns="http://www.w3.org/2000/svg" xmlns:xlink="http://www.w3.org/1999/xlink">
<g id="graph0" class="graph" transform="scale(1 1) rotate(0) translate(4 242)">
<title>Container</title>
<polygon fill="white" stroke="white" points="-4,5 -4,-242 535,-242 535,5 -4,5"/>
<!-- Node1 -->
<g id="node1" class="node"><title>Node1</title>
<polygon fill="#bfbfbf" stroke="black" points="470.32,-86 470.32,-106 529.68,-106 529.68,-86 470.32,-86"/>
<text text-anchor="middle" x="500" y="-92" font-family="Helvetica,sans-Serif" font-size="10.00">Container</text>
</g>
<!-- Node2 -->
<g id="node2" class="node"><title>Node2</title>
<g id="a_node2"><a xlink:href="class_pointer_type.xhtml" target="_top" xlink:title="PointerType\&lt; Container \&gt;">
<polygon fill="white" stroke="black" points="171.018,-206 171.018,-226 300.982,-226 300.982,-206 171.018,-206"/>
<text text-anchor="middle" x="236" y="-212" font-family="Helvetica,sans-Serif" font-size="10.00">PointerType&lt; Container &gt;</text>
</a>
</g>
</g>
<!-- Node2&#45;&gt;Node1 -->
<g id="edge1" class="edge"><title>Node2&#45;&gt;Node1</title>
<path fill="none" stroke="midnightblue" d="M308.597,-226.792C353.623,-229.708 410.788,-225.908 452,-197 483.192,-175.121 494.21,-127.105 497.632,-106.135"/>
<polygon fill="midnightblue" stroke="midnightblue" points="308.841,-223.3 298.601,-226.023 308.303,-230.28 308.841,-223.3"/>
</g>
<!-- Node3 -->
<g id="node3" class="node"><title>Node3</title>
<polygon fill="white" stroke="#bfbfbf" points="0.359863,-206 0.359863,-238 123.64,-238 123.64,-206 0.359863,-206"/>
<text text-anchor="start" x="8.35986" y="-224" font-family="Helvetica,sans-Serif" font-size="10.00">std::enable_shared</text>
<text text-anchor="middle" x="62" y="-212" font-family="Helvetica,sans-Serif" font-size="10.00">_from_this&lt; Container &gt;</text>
</g>
<!-- Node3&#45;&gt;Node2 -->
<g id="edge2" class="edge"><title>Node3&#45;&gt;Node2</title>
<path fill="none" stroke="midnightblue" d="M133.815,-219.53C146.073,-219.102 158.756,-218.66 170.826,-218.239"/>
<polygon fill="midnightblue" stroke="midnightblue" points="133.513,-216.038 123.641,-219.885 133.757,-223.034 133.513,-216.038"/>
</g>
<!-- Node4 -->
<g id="node4" class="node"><title>Node4</title>
<g id="a_node4"><a xlink:href="classshared__vector.xhtml" target="_top" xlink:title="shared_vector\&lt; Package \&gt;">
<polygon fill="white" stroke="black" points="168.239,-164 168.239,-184 303.761,-184 303.761,-164 168.239,-164"/>
<text text-anchor="middle" x="236" y="-170" font-family="Helvetica,sans-Serif" font-size="10.00">shared_vector&lt; Package &gt;</text>
</a>
</g>
</g>
<!-- Node4&#45;&gt;Node1 -->
<g id="edge3" class="edge"><title>Node4&#45;&gt;Node1</title>
<path fill="none" stroke="#9a32cd" stroke-dasharray="5,2" d="M314.082,-182.664C357.092,-184.005 410.247,-179.626 452,-157 472.923,-145.662 487.472,-120.6 494.396,-106.38"/>
<polygon fill="#9a32cd" stroke="#9a32cd" points="314.083,-179.161 303.945,-182.238 313.789,-186.155 314.083,-179.161"/>
<text text-anchor="middle" x="390" y="-184" font-family="Helvetica,sans-Serif" font-size="10.00"> _packages</text>
</g>
<!-- Node5 -->
<g id="node5" class="node"><title>Node5</title>
<polygon fill="white" stroke="#bfbfbf" points="1.89062,-155 1.89062,-187 122.109,-187 122.109,-155 1.89062,-155"/>
<text text-anchor="start" x="9.89062" y="-173" font-family="Helvetica,sans-Serif" font-size="10.00">std::vector&lt; std::shared</text>
<text text-anchor="middle" x="62" y="-161" font-family="Helvetica,sans-Serif" font-size="10.00">_ptr&lt; Package &gt; &gt;</text>
</g>
<!-- Node5&#45;&gt;Node4 -->
<g id="edge4" class="edge"><title>Node5&#45;&gt;Node4</title>
<path fill="none" stroke="midnightblue" d="M132.389,-172.21C144.145,-172.415 156.331,-172.628 168.023,-172.832"/>
<polygon fill="midnightblue" stroke="midnightblue" points="132.252,-168.707 122.193,-172.032 132.13,-175.706 132.252,-168.707"/>
</g>
<!-- Node6 -->
<g id="node6" class="node"><title>Node6</title>
<g id="a_node6"><a xlink:href="classstring.xhtml" target="_top" xlink:title="string">
<polygon fill="white" stroke="black" points="215.773,-90 215.773,-110 256.227,-110 256.227,-90 215.773,-90"/>
<text text-anchor="middle" x="236" y="-96" font-family="Helvetica,sans-Serif" font-size="10.00">string</text>
</a>
</g>
</g>
<!-- Node6&#45;&gt;Node1 -->
<g id="edge5" class="edge"><title>Node6&#45;&gt;Node1</title>
<path fill="none" stroke="#9a32cd" stroke-dasharray="5,2" d="M266.586,-98.8218C284.381,-98.1637 307.487,-97.398 328,-97 378.015,-96.0295 436.272,-95.9034 470.254,-95.9305"/>
<polygon fill="#9a32cd" stroke="#9a32cd" points="266.383,-95.3269 256.522,-99.2033 266.648,-102.322 266.383,-95.3269"/>
<text text-anchor="middle" x="390" y="-147" font-family="Helvetica,sans-Serif" font-size="10.00"> _path</text>
<text text-anchor="start" x="328.574" y="-135" font-family="Helvetica,sans-Serif" font-size="10.00">_appleIBooksDisplay</text>
<text text-anchor="middle" x="390" y="-123" font-family="Helvetica,sans-Serif" font-size="10.00">Option_Orientation</text>
<text text-anchor="start" x="328.574" y="-111" font-family="Helvetica,sans-Serif" font-size="10.00">_appleIBooksDisplayOption</text>
<text text-anchor="middle" x="390" y="-99" font-family="Helvetica,sans-Serif" font-size="10.00">_FixedLayout</text>
</g>
<!-- Node6&#45;&gt;Node6 -->
<g id="edge6" class="edge"><title>Node6&#45;&gt;Node6</title>
<path fill="none" stroke="#9a32cd" stroke-dasharray="5,2" d="M219.103,-119.922C220.513,-124.573 226.145,-128 236,-128 252.172,-128 256.973,-118.771 250.403,-110.048"/>
<polygon fill="#9a32cd" stroke="#9a32cd" points="222.542,-120.6 221.597,-110.048 215.755,-118.886 222.542,-120.6"/>
<text text-anchor="middle" x="236" y="-130" font-family="Helvetica,sans-Serif" font-size="10.00"> EmptyString</text>
</g>
<!-- Node7 -->
<g id="node7" class="node"><title>Node7</title>
<polygon fill="white" stroke="#bfbfbf" points="162.136,-51 162.136,-71 309.864,-71 309.864,-51 162.136,-51"/>
<text text-anchor="middle" x="236" y="-57" font-family="Helvetica,sans-Serif" font-size="10.00">shared_ptr&lt; xml::Document &gt;</text>
</g>
<!-- Node7&#45;&gt;Node1 -->
<g id="edge7" class="edge"><title>Node7&#45;&gt;Node1</title>
<path fill="none" stroke="#9a32cd" stroke-dasharray="5,2" d="M319.903,-62.8465C360.151,-65.0312 408.99,-69.5944 452,-79 459.629,-80.6684 467.703,-83.2648 474.966,-85.9305"/>
<polygon fill="#9a32cd" stroke="#9a32cd" points="320.028,-59.3484 309.865,-62.3408 319.676,-66.3396 320.028,-59.3484"/>
<text text-anchor="middle" x="390" y="-81" font-family="Helvetica,sans-Serif" font-size="10.00"> _ocf</text>
</g>
<!-- Node8 -->
<g id="node8" class="node"><title>Node8</title>
<g id="a_node8"><a xlink:href="classshared__vector.xhtml" target="_top" xlink:title="shared_vector\&lt; Encryption\lInfo \&gt;">
<polygon fill="white" stroke="black" points="168.383,-0 168.383,-32 303.617,-32 303.617,-0 168.383,-0"/>
<text text-anchor="start" x="176.383" y="-18" font-family="Helvetica,sans-Serif" font-size="10.00">shared_vector&lt; Encryption</text>
<text text-anchor="middle" x="236" y="-6" font-family="Helvetica,sans-Serif" font-size="10.00">Info &gt;</text>
</a>
</g>
</g>
<!-- Node8&#45;&gt;Node1 -->
<g id="edge8" class="edge"><title>Node8&#45;&gt;Node1</title>
<path fill="none" stroke="#9a32cd" stroke-dasharray="5,2" d="M313.949,-15.0399C356.684,-17.3855 409.613,-25.2168 452,-47 469.614,-56.0518 484.35,-74.3256 492.401,-85.8193"/>
<polygon fill="#9a32cd" stroke="#9a32cd" points="314.028,-11.5399 303.878,-14.5771 313.707,-18.5325 314.028,-11.5399"/>
<text text-anchor="middle" x="390" y="-49" font-family="Helvetica,sans-Serif" font-size="10.00"> _encryption</text>
</g>
<!-- Node9 -->
<g id="node9" class="node"><title>Node9</title>
<polygon fill="white" stroke="#bfbfbf" points="0.494141,-0 0.494141,-32 123.506,-32 123.506,-0 0.494141,-0"/>
<text text-anchor="start" x="8.49414" y="-18" font-family="Helvetica,sans-Serif" font-size="10.00">std::vector&lt; std::shared</text>
<text text-anchor="middle" x="62" y="-6" font-family="Helvetica,sans-Serif" font-size="10.00">_ptr&lt; EncryptionInfo &gt; &gt;</text>
</g>
<!-- Node9&#45;&gt;Node8 -->
<g id="edge9" class="edge"><title>Node9&#45;&gt;Node8</title>
<path fill="none" stroke="midnightblue" d="M133.922,-16C145.253,-16 156.944,-16 168.176,-16"/>
<polygon fill="midnightblue" stroke="midnightblue" points="133.641,-12.5001 123.641,-16 133.641,-19.5001 133.641,-12.5001"/>
</g>
</g>
</svg>
