<?xml version="1.0" encoding="UTF-8" standalone="no"?>
<!DOCTYPE svg PUBLIC "-//W3C//DTD SVG 1.1//EN"
 "http://www.w3.org/Graphics/SVG/1.1/DTD/svg11.dtd">
<!-- Generated by graphviz version 2.30.0 (20130114.0426)
 -->
<!-- Title: loop_executor Pages: 1 -->
<svg width="126pt" height="158pt"
 viewBox="0.00 0.00 126.00 158.00" xmlns="http://www.w3.org/2000/svg" xmlns:xlink="http://www.w3.org/1999/xlink">
<g id="graph0" class="graph" transform="scale(1 1) rotate(0) translate(4 154)">
<title>loop_executor</title>
<polygon fill="white" stroke="white" points="-4,5 -4,-154 123,-154 123,5 -4,5"/>
<!-- Node1 -->
<g id="node1" class="node"><title>Node1</title>
<polygon fill="#bfbfbf" stroke="black" points="19.5889,-1 19.5889,-21 98.4111,-21 98.4111,-1 19.5889,-1"/>
<text text-anchor="middle" x="59" y="-7" font-family="Helvetica,sans-Serif" font-size="10.00">loop_executor</text>
</g>
<!-- Node2 -->
<g id="node2" class="node"><title>Node2</title>
<g id="a_node2"><a xlink:href="classexecutor.xhtml" target="_top" xlink:title="executor">
<polygon fill="white" stroke="black" points="31.8228,-59 31.8228,-79 86.1772,-79 86.1772,-59 31.8228,-59"/>
<text text-anchor="middle" x="59" y="-65" font-family="Helvetica,sans-Serif" font-size="10.00">executor</text>
</a>
</g>
</g>
<!-- Node2&#45;&gt;Node1 -->
<g id="edge1" class="edge"><title>Node2&#45;&gt;Node1</title>
<path fill="none" stroke="midnightblue" d="M59,-48.7065C59,-39.3384 59,-28.5262 59,-21.0752"/>
<polygon fill="midnightblue" stroke="midnightblue" points="55.5001,-48.7527 59,-58.7527 62.5001,-48.7528 55.5001,-48.7527"/>
</g>
<!-- Node3 -->
<g id="node3" class="node"><title>Node3</title>
<polygon fill="white" stroke="#bfbfbf" points="-0.137695,-117 -0.137695,-149 118.138,-149 118.138,-117 -0.137695,-117"/>
<text text-anchor="start" x="7.8623" y="-135" font-family="Helvetica,sans-Serif" font-size="10.00">std::enable_shared</text>
<text text-anchor="middle" x="59" y="-123" font-family="Helvetica,sans-Serif" font-size="10.00">_from_this&lt; executor &gt;</text>
</g>
<!-- Node3&#45;&gt;Node2 -->
<g id="edge2" class="edge"><title>Node3&#45;&gt;Node2</title>
<path fill="none" stroke="midnightblue" d="M59,-106.922C59,-97.1719 59,-86.6099 59,-79.2904"/>
<polygon fill="midnightblue" stroke="midnightblue" points="55.5001,-106.991 59,-116.992 62.5001,-106.992 55.5001,-106.991"/>
</g>
</g>
</svg>
