<?xml version="1.0" encoding="UTF-8" standalone="no"?>
<!DOCTYPE svg PUBLIC "-//W3C//DTD SVG 1.1//EN"
 "http://www.w3.org/Graphics/SVG/1.1/DTD/svg11.dtd">
<!-- Generated by graphviz version 2.30.0 (20130114.0426)
 -->
<!-- Title: error_details Pages: 1 -->
<svg width="122pt" height="160pt"
 viewBox="0.00 0.00 122.26 160.00" xmlns="http://www.w3.org/2000/svg" xmlns:xlink="http://www.w3.org/1999/xlink">
<g id="graph0" class="graph" transform="scale(1 1) rotate(0) translate(4 156)">
<title>error_details</title>
<polygon fill="white" stroke="white" points="-4,5 -4,-156 119.261,-156 119.261,5 -4,5"/>
<!-- Node1 -->
<g id="node1" class="node"><title>Node1</title>
<polygon fill="#bfbfbf" stroke="black" points="11.2095,-1 11.2095,-21 82.7905,-21 82.7905,-1 11.2095,-1"/>
<text text-anchor="middle" x="47" y="-7" font-family="Helvetica,sans-Serif" font-size="10.00">error_details</text>
</g>
<!-- Node2 -->
<g id="node2" class="node"><title>Node2</title>
<g id="a_node2"><a xlink:href="classepub__spec__error.xhtml" target="_top" xlink:title="epub_spec_error">
<polygon fill="white" stroke="black" points="1.19727,-71 1.19727,-91 92.8027,-91 92.8027,-71 1.19727,-71"/>
<text text-anchor="middle" x="47" y="-77" font-family="Helvetica,sans-Serif" font-size="10.00">epub_spec_error</text>
</a>
</g>
</g>
<!-- Node2&#45;&gt;Node1 -->
<g id="edge1" class="edge"><title>Node2&#45;&gt;Node1</title>
<path fill="none" stroke="#9a32cd" stroke-dasharray="5,2" d="M47,-60.5567C47,-47.557 47,-31.0574 47,-21.0255"/>
<polygon fill="#9a32cd" stroke="#9a32cd" points="43.5001,-60.8292 47,-70.8292 50.5001,-60.8293 43.5001,-60.8292"/>
<text text-anchor="middle" x="80.6304" y="-42" font-family="Helvetica,sans-Serif" font-size="10.00"> __spec_error_</text>
</g>
<!-- Node3 -->
<g id="node3" class="node"><title>Node3</title>
<polygon fill="white" stroke="#bfbfbf" points="-0.458008,-131 -0.458008,-151 94.458,-151 94.458,-131 -0.458008,-131"/>
<text text-anchor="middle" x="47" y="-137" font-family="Helvetica,sans-Serif" font-size="10.00">std::runtime_error</text>
</g>
<!-- Node3&#45;&gt;Node2 -->
<g id="edge2" class="edge"><title>Node3&#45;&gt;Node2</title>
<path fill="none" stroke="midnightblue" d="M47,-120.731C47,-110.781 47,-99.1016 47,-91.1903"/>
<polygon fill="midnightblue" stroke="midnightblue" points="43.5001,-120.937 47,-130.938 50.5001,-120.938 43.5001,-120.937"/>
</g>
</g>
</svg>
