<?xml version="1.0" encoding="UTF-8" standalone="no"?>
<!DOCTYPE svg PUBLIC "-//W3C//DTD SVG 1.1//EN"
 "http://www.w3.org/Graphics/SVG/1.1/DTD/svg11.dtd">
<!-- Generated by graphviz version 2.30.0 (20130114.0426)
 -->
<!-- Title: thread_pool Pages: 1 -->
<svg width="126pt" height="216pt"
 viewBox="0.00 0.00 126.00 216.00" xmlns="http://www.w3.org/2000/svg" xmlns:xlink="http://www.w3.org/1999/xlink">
<g id="graph0" class="graph" transform="scale(1 1) rotate(0) translate(4 212)">
<title>thread_pool</title>
<polygon fill="white" stroke="white" points="-4,5 -4,-212 123,-212 123,5 -4,5"/>
<!-- Node1 -->
<g id="node1" class="node"><title>Node1</title>
<polygon fill="#bfbfbf" stroke="black" points="24.5889,-1 24.5889,-21 93.4111,-21 93.4111,-1 24.5889,-1"/>
<text text-anchor="middle" x="59" y="-7" font-family="Helvetica,sans-Serif" font-size="10.00">thread_pool</text>
</g>
<!-- Node2 -->
<g id="node2" class="node"><title>Node2</title>
<g id="a_node2"><a xlink:href="classscheduled__executor.xhtml" target="_top" xlink:title="scheduled_executor">
<polygon fill="white" stroke="black" points="6.24658,-59 6.24658,-79 111.753,-79 111.753,-59 6.24658,-59"/>
<text text-anchor="middle" x="59" y="-65" font-family="Helvetica,sans-Serif" font-size="10.00">scheduled_executor</text>
</a>
</g>
</g>
<!-- Node2&#45;&gt;Node1 -->
<g id="edge1" class="edge"><title>Node2&#45;&gt;Node1</title>
<path fill="none" stroke="midnightblue" d="M59,-48.7065C59,-39.3384 59,-28.5262 59,-21.0752"/>
<polygon fill="midnightblue" stroke="midnightblue" points="55.5001,-48.7527 59,-58.7527 62.5001,-48.7528 55.5001,-48.7527"/>
</g>
<!-- Node3 -->
<g id="node3" class="node"><title>Node3</title>
<g id="a_node3"><a xlink:href="classexecutor.xhtml" target="_top" xlink:title="executor">
<polygon fill="white" stroke="black" points="31.8228,-117 31.8228,-137 86.1772,-137 86.1772,-117 31.8228,-117"/>
<text text-anchor="middle" x="59" y="-123" font-family="Helvetica,sans-Serif" font-size="10.00">executor</text>
</a>
</g>
</g>
<!-- Node3&#45;&gt;Node2 -->
<g id="edge2" class="edge"><title>Node3&#45;&gt;Node2</title>
<path fill="none" stroke="midnightblue" d="M59,-106.707C59,-97.3384 59,-86.5262 59,-79.0752"/>
<polygon fill="midnightblue" stroke="midnightblue" points="55.5001,-106.753 59,-116.753 62.5001,-106.753 55.5001,-106.753"/>
</g>
<!-- Node4 -->
<g id="node4" class="node"><title>Node4</title>
<polygon fill="white" stroke="#bfbfbf" points="-0.137695,-175 -0.137695,-207 118.138,-207 118.138,-175 -0.137695,-175"/>
<text text-anchor="start" x="7.8623" y="-193" font-family="Helvetica,sans-Serif" font-size="10.00">std::enable_shared</text>
<text text-anchor="middle" x="59" y="-181" font-family="Helvetica,sans-Serif" font-size="10.00">_from_this&lt; executor &gt;</text>
</g>
<!-- Node4&#45;&gt;Node3 -->
<g id="edge3" class="edge"><title>Node4&#45;&gt;Node3</title>
<path fill="none" stroke="midnightblue" d="M59,-164.922C59,-155.172 59,-144.61 59,-137.29"/>
<polygon fill="midnightblue" stroke="midnightblue" points="55.5001,-164.991 59,-174.992 62.5001,-164.992 55.5001,-164.991"/>
</g>
</g>
</svg>
