<?xml version="1.0" encoding="UTF-8" standalone="no"?>
<!DOCTYPE svg PUBLIC "-//W3C//DTD SVG 1.1//EN"
 "http://www.w3.org/Graphics/SVG/1.1/DTD/svg11.dtd">
<!-- Generated by graphviz version 2.30.0 (20130114.0426)
 -->
<!-- Title: Collection Pages: 1 -->
<svg width="458pt" height="205pt"
 viewBox="0.00 0.00 458.00 205.00" xmlns="http://www.w3.org/2000/svg" xmlns:xlink="http://www.w3.org/1999/xlink">
<g id="graph0" class="graph" transform="scale(1 1) rotate(0) translate(4 201)">
<title>Collection</title>
<polygon fill="white" stroke="white" points="-4,5 -4,-201 455,-201 455,5 -4,5"/>
<!-- Node1 -->
<g id="node1" class="node"><title>Node1</title>
<polygon fill="#bfbfbf" stroke="black" points="390.044,-93 390.044,-113 449.956,-113 449.956,-93 390.044,-93"/>
<text text-anchor="middle" x="420" y="-99" font-family="Helvetica,sans-Serif" font-size="10.00">Collection</text>
</g>
<!-- Node2 -->
<g id="node2" class="node"><title>Node2</title>
<g id="a_node2"><a xlink:href="class_pointer_type.xhtml" target="_top" xlink:title="PointerType\&lt; Collection \&gt;">
<polygon fill="white" stroke="black" points="162.742,-171 162.742,-191 293.258,-191 293.258,-171 162.742,-171"/>
<text text-anchor="middle" x="228" y="-177" font-family="Helvetica,sans-Serif" font-size="10.00">PointerType&lt; Collection &gt;</text>
</a>
</g>
</g>
<!-- Node2&#45;&gt;Node1 -->
<g id="edge1" class="edge"><title>Node2&#45;&gt;Node1</title>
<path fill="none" stroke="midnightblue" d="M284.636,-168.43C311.793,-161.169 344.463,-150.725 372,-137 384.979,-130.531 398.228,-120.582 407.336,-113.114"/>
<polygon fill="midnightblue" stroke="midnightblue" points="283.697,-165.057 274.9,-170.961 285.459,-171.832 283.697,-165.057"/>
</g>
<!-- Node3 -->
<g id="node3" class="node"><title>Node3</title>
<polygon fill="white" stroke="#bfbfbf" points="0.0839844,-165 0.0839844,-197 123.916,-197 123.916,-165 0.0839844,-165"/>
<text text-anchor="start" x="8.08398" y="-183" font-family="Helvetica,sans-Serif" font-size="10.00">std::enable_shared</text>
<text text-anchor="middle" x="62" y="-171" font-family="Helvetica,sans-Serif" font-size="10.00">_from_this&lt; Collection &gt;</text>
</g>
<!-- Node3&#45;&gt;Node2 -->
<g id="edge2" class="edge"><title>Node3&#45;&gt;Node2</title>
<path fill="none" stroke="midnightblue" d="M134.207,-181C143.644,-181 153.274,-181 162.587,-181"/>
<polygon fill="midnightblue" stroke="midnightblue" points="134.068,-177.5 124.068,-181 134.068,-184.5 134.068,-177.5"/>
</g>
<!-- Node4 -->
<g id="node4" class="node"><title>Node4</title>
<g id="a_node4"><a xlink:href="class_owned_by.xhtml" target="_top" xlink:title="OwnedBy\&lt; Package \&gt;">
<polygon fill="white" stroke="black" points="170.247,-132 170.247,-152 285.753,-152 285.753,-132 170.247,-132"/>
<text text-anchor="middle" x="228" y="-138" font-family="Helvetica,sans-Serif" font-size="10.00">OwnedBy&lt; Package &gt;</text>
</a>
</g>
</g>
<!-- Node4&#45;&gt;Node1 -->
<g id="edge3" class="edge"><title>Node4&#45;&gt;Node1</title>
<path fill="none" stroke="midnightblue" d="M296.123,-131.923C320.18,-127.875 347.422,-122.788 372,-117 377.801,-115.634 383.944,-113.968 389.808,-112.269"/>
<polygon fill="midnightblue" stroke="midnightblue" points="295.32,-128.508 286.025,-133.593 296.462,-135.414 295.32,-128.508"/>
</g>
<!-- Node5 -->
<g id="node5" class="node"><title>Node5</title>
<g id="a_node5"><a xlink:href="class_x_m_l_identifiable.xhtml" target="_top" xlink:title="XMLIdentifiable">
<polygon fill="white" stroke="black" points="185.535,-93 185.535,-113 270.465,-113 270.465,-93 185.535,-93"/>
<text text-anchor="middle" x="228" y="-99" font-family="Helvetica,sans-Serif" font-size="10.00">XMLIdentifiable</text>
</a>
</g>
</g>
<!-- Node5&#45;&gt;Node1 -->
<g id="edge4" class="edge"><title>Node5&#45;&gt;Node1</title>
<path fill="none" stroke="midnightblue" d="M280.754,-103C315.786,-103 360.793,-103 389.769,-103"/>
<polygon fill="midnightblue" stroke="midnightblue" points="280.696,-99.5001 270.696,-103 280.696,-106.5 280.696,-99.5001"/>
</g>
<!-- Node6 -->
<g id="node6" class="node"><title>Node6</title>
<g id="a_node6"><a xlink:href="class_property_holder.xhtml" target="_top" xlink:title="PropertyHolder">
<polygon fill="white" stroke="black" points="186.375,-54 186.375,-74 269.625,-74 269.625,-54 186.375,-54"/>
<text text-anchor="middle" x="228" y="-60" font-family="Helvetica,sans-Serif" font-size="10.00">PropertyHolder</text>
</a>
</g>
</g>
<!-- Node6&#45;&gt;Node1 -->
<g id="edge5" class="edge"><title>Node6&#45;&gt;Node1</title>
<path fill="none" stroke="midnightblue" d="M279.842,-74.4361C315.001,-81.6528 360.537,-90.9997 389.765,-96.9992"/>
<polygon fill="midnightblue" stroke="midnightblue" points="280.259,-70.9487 269.76,-72.3665 278.852,-77.8058 280.259,-70.9487"/>
</g>
<!-- Node7 -->
<g id="node7" class="node"><title>Node7</title>
<g id="a_node7"><a xlink:href="classbasic__string__view.xhtml" target="_top" xlink:title="basic_string_view\&lt;\l _CharT, _Traits \&gt;">
<polygon fill="white" stroke="black" points="177.617,-0 177.617,-32 278.383,-32 278.383,-0 177.617,-0"/>
<text text-anchor="start" x="185.617" y="-18" font-family="Helvetica,sans-Serif" font-size="10.00">basic_string_view&lt;</text>
<text text-anchor="middle" x="228" y="-6" font-family="Helvetica,sans-Serif" font-size="10.00"> _CharT, _Traits &gt;</text>
</a>
</g>
</g>
<!-- Node7&#45;&gt;Node1 -->
<g id="edge6" class="edge"><title>Node7&#45;&gt;Node1</title>
<path fill="none" stroke="#9a32cd" stroke-dasharray="5,2" d="M288.608,-17.2152C315.694,-20.0927 347.158,-26.8688 372,-42 392.324,-54.3792 407.107,-79.0346 414.229,-92.9098"/>
<polygon fill="#9a32cd" stroke="#9a32cd" points="288.74,-13.7129 278.464,-16.294 288.107,-20.6842 288.74,-13.7129"/>
<text text-anchor="middle" x="342" y="-68" font-family="Helvetica,sans-Serif" font-size="10.00"> PreviewRole</text>
<text text-anchor="middle" x="342" y="-56" font-family="Helvetica,sans-Serif" font-size="10.00">IndexRole</text>
<text text-anchor="middle" x="342" y="-44" font-family="Helvetica,sans-Serif" font-size="10.00">ManifestRole</text>
</g>
</g>
</svg>
