<?xml version="1.0" encoding="UTF-8" standalone="no"?>
<!DOCTYPE svg PUBLIC "-//W3C//DTD SVG 1.1//EN"
 "http://www.w3.org/Graphics/SVG/1.1/DTD/svg11.dtd">
<!-- Generated by graphviz version 2.30.0 (20130114.0426)
 -->
<!-- Title: PropertyExtension Pages: 1 -->
<svg width="411pt" height="158pt"
 viewBox="0.00 0.00 411.00 158.00" xmlns="http://www.w3.org/2000/svg" xmlns:xlink="http://www.w3.org/1999/xlink">
<g id="graph0" class="graph" transform="scale(1 1) rotate(0) translate(4 154)">
<title>PropertyExtension</title>
<polygon fill="white" stroke="white" points="-4,5 -4,-154 408,-154 408,5 -4,5"/>
<!-- Node1 -->
<g id="node1" class="node"><title>Node1</title>
<polygon fill="#bfbfbf" stroke="black" points="194.146,-1 194.146,-21 291.854,-21 291.854,-1 194.146,-1"/>
<text text-anchor="middle" x="243" y="-7" font-family="Helvetica,sans-Serif" font-size="10.00">PropertyExtension</text>
</g>
<!-- Node2 -->
<g id="node2" class="node"><title>Node2</title>
<g id="a_node2"><a xlink:href="class_pointer_type.xhtml" target="_top" xlink:title="PointerType\&lt; PropertyExtension \&gt;">
<polygon fill="white" stroke="black" points="-0.157227,-59 -0.157227,-79 168.157,-79 168.157,-59 -0.157227,-59"/>
<text text-anchor="middle" x="84" y="-65" font-family="Helvetica,sans-Serif" font-size="10.00">PointerType&lt; PropertyExtension &gt;</text>
</a>
</g>
</g>
<!-- Node2&#45;&gt;Node1 -->
<g id="edge1" class="edge"><title>Node2&#45;&gt;Node1</title>
<path fill="none" stroke="midnightblue" d="M119.473,-55.5065C149.169,-45.0475 190.835,-30.3725 217.375,-21.0253"/>
<polygon fill="midnightblue" stroke="midnightblue" points="118.169,-52.2547 109.9,-58.878 120.495,-58.8572 118.169,-52.2547"/>
</g>
<!-- Node3 -->
<g id="node3" class="node"><title>Node3</title>
<polygon fill="white" stroke="#bfbfbf" points="3.18506,-117 3.18506,-149 164.815,-149 164.815,-117 3.18506,-117"/>
<text text-anchor="start" x="11.1851" y="-135" font-family="Helvetica,sans-Serif" font-size="10.00">std::enable_shared</text>
<text text-anchor="middle" x="84" y="-123" font-family="Helvetica,sans-Serif" font-size="10.00">_from_this&lt; PropertyExtension &gt;</text>
</g>
<!-- Node3&#45;&gt;Node2 -->
<g id="edge2" class="edge"><title>Node3&#45;&gt;Node2</title>
<path fill="none" stroke="midnightblue" d="M84,-106.922C84,-97.1719 84,-86.6099 84,-79.2904"/>
<polygon fill="midnightblue" stroke="midnightblue" points="80.5001,-106.991 84,-116.992 87.5001,-106.992 80.5001,-106.991"/>
</g>
<!-- Node4 -->
<g id="node4" class="node"><title>Node4</title>
<g id="a_node4"><a xlink:href="class_owned_by.xhtml" target="_top" xlink:title="OwnedBy\&lt; Property \&gt;">
<polygon fill="white" stroke="black" points="185.808,-59 185.808,-79 300.192,-79 300.192,-59 185.808,-59"/>
<text text-anchor="middle" x="243" y="-65" font-family="Helvetica,sans-Serif" font-size="10.00">OwnedBy&lt; Property &gt;</text>
</a>
</g>
</g>
<!-- Node4&#45;&gt;Node1 -->
<g id="edge3" class="edge"><title>Node4&#45;&gt;Node1</title>
<path fill="none" stroke="midnightblue" d="M243,-48.7065C243,-39.3384 243,-28.5262 243,-21.0752"/>
<polygon fill="midnightblue" stroke="midnightblue" points="239.5,-48.7527 243,-58.7527 246.5,-48.7528 239.5,-48.7527"/>
</g>
<!-- Node5 -->
<g id="node5" class="node"><title>Node5</title>
<g id="a_node5"><a xlink:href="class_x_m_l_identifiable.xhtml" target="_top" xlink:title="XMLIdentifiable">
<polygon fill="white" stroke="black" points="318.535,-59 318.535,-79 403.465,-79 403.465,-59 318.535,-59"/>
<text text-anchor="middle" x="361" y="-65" font-family="Helvetica,sans-Serif" font-size="10.00">XMLIdentifiable</text>
</a>
</g>
</g>
<!-- Node5&#45;&gt;Node1 -->
<g id="edge4" class="edge"><title>Node5&#45;&gt;Node1</title>
<path fill="none" stroke="midnightblue" d="M332.667,-54.5538C310.865,-44.2069 281.324,-30.1879 262.213,-21.1181"/>
<polygon fill="midnightblue" stroke="midnightblue" points="331.244,-57.7525 341.779,-58.878 334.245,-51.4285 331.244,-57.7525"/>
</g>
</g>
</svg>
