<?xml version="1.0" encoding="UTF-8" standalone="no"?>
<!DOCTYPE svg PUBLIC "-//W3C//DTD SVG 1.1//EN"
 "http://www.w3.org/Graphics/SVG/1.1/DTD/svg11.dtd">
<!-- Generated by graphviz version 2.30.0 (20130114.0426)
 -->
<!-- Title: PassThroughFilter Pages: 1 -->
<svg width="247pt" height="170pt"
 viewBox="0.00 0.00 247.00 170.00" xmlns="http://www.w3.org/2000/svg" xmlns:xlink="http://www.w3.org/1999/xlink">
<g id="graph0" class="graph" transform="scale(1 1) rotate(0) translate(4 166)">
<title>PassThroughFilter</title>
<polygon fill="white" stroke="white" points="-4,5 -4,-166 244,-166 244,5 -4,5"/>
<!-- Node1 -->
<g id="node1" class="node"><title>Node1</title>
<polygon fill="#bfbfbf" stroke="black" points="48.1504,-1 48.1504,-21 145.85,-21 145.85,-1 48.1504,-1"/>
<text text-anchor="middle" x="97" y="-7" font-family="Helvetica,sans-Serif" font-size="10.00">PassThroughFilter</text>
</g>
<!-- Node2 -->
<g id="node2" class="node"><title>Node2</title>
<g id="a_node2"><a xlink:href="class_content_filter.xhtml" target="_top" xlink:title="ContentFilter">
<polygon fill="white" stroke="black" points="-0.623047,-65 -0.623047,-85 72.623,-85 72.623,-65 -0.623047,-65"/>
<text text-anchor="middle" x="36" y="-71" font-family="Helvetica,sans-Serif" font-size="10.00">ContentFilter</text>
</a>
</g>
</g>
<!-- Node2&#45;&gt;Node1 -->
<g id="edge1" class="edge"><title>Node2&#45;&gt;Node1</title>
<path fill="none" stroke="midnightblue" d="M52.2583,-57.4752C63.6952,-45.8508 78.5773,-30.7248 87.9623,-21.1858"/>
<polygon fill="midnightblue" stroke="midnightblue" points="49.5192,-55.2687 45.0008,-64.8517 54.5091,-60.178 49.5192,-55.2687"/>
</g>
<!-- Node3 -->
<g id="node3" class="node"><title>Node3</title>
<g id="a_node3"><a xlink:href="class_pointer_type.xhtml" target="_top" xlink:title="PointerType\&lt; PassThrough\lFilter \&gt;">
<polygon fill="white" stroke="black" points="90.2676,-59 90.2676,-91 227.732,-91 227.732,-59 90.2676,-59"/>
<text text-anchor="start" x="98.2676" y="-77" font-family="Helvetica,sans-Serif" font-size="10.00">PointerType&lt; PassThrough</text>
<text text-anchor="middle" x="159" y="-65" font-family="Helvetica,sans-Serif" font-size="10.00">Filter &gt;</text>
</a>
</g>
</g>
<!-- Node3&#45;&gt;Node1 -->
<g id="edge2" class="edge"><title>Node3&#45;&gt;Node1</title>
<path fill="none" stroke="midnightblue" d="M136.697,-51.6967C126.224,-41.2241 114.311,-29.3107 106.29,-21.2904"/>
<polygon fill="midnightblue" stroke="midnightblue" points="134.446,-54.3953 143.992,-58.9915 139.395,-49.4455 134.446,-54.3953"/>
</g>
<!-- Node4 -->
<g id="node4" class="node"><title>Node4</title>
<polygon fill="white" stroke="#bfbfbf" points="78.1899,-129 78.1899,-161 239.81,-161 239.81,-129 78.1899,-129"/>
<text text-anchor="start" x="86.1899" y="-147" font-family="Helvetica,sans-Serif" font-size="10.00">std::enable_shared</text>
<text text-anchor="middle" x="159" y="-135" font-family="Helvetica,sans-Serif" font-size="10.00">_from_this&lt; PassThroughFilter &gt;</text>
</g>
<!-- Node4&#45;&gt;Node3 -->
<g id="edge3" class="edge"><title>Node4&#45;&gt;Node3</title>
<path fill="none" stroke="midnightblue" d="M159,-118.617C159,-109.338 159,-99.1413 159,-91.0492"/>
<polygon fill="midnightblue" stroke="midnightblue" points="155.5,-118.909 159,-128.909 162.5,-118.909 155.5,-118.909"/>
</g>
</g>
</svg>
