<?xml version="1.0" encoding="UTF-8" standalone="no"?>
<!DOCTYPE svg PUBLIC "-//W3C//DTD SVG 1.1//EN"
 "http://www.w3.org/Graphics/SVG/1.1/DTD/svg11.dtd">
<!-- Generated by graphviz version 2.30.0 (20130114.0426)
 -->
<!-- Title: FilterContext Pages: 1 -->
<svg width="294pt" height="170pt"
 viewBox="0.00 0.00 294.00 170.00" xmlns="http://www.w3.org/2000/svg" xmlns:xlink="http://www.w3.org/1999/xlink">
<g id="graph0" class="graph" transform="scale(1 1) rotate(0) translate(4 166)">
<title>FilterContext</title>
<polygon fill="white" stroke="white" points="-4,5 -4,-166 291,-166 291,5 -4,5"/>
<!-- Node1 -->
<g id="node1" class="node"><title>Node1</title>
<polygon fill="#bfbfbf" stroke="black" points="119.658,-141 119.658,-161 192.342,-161 192.342,-141 119.658,-141"/>
<text text-anchor="middle" x="156" y="-147" font-family="Helvetica,sans-Serif" font-size="10.00">FilterContext</text>
</g>
<!-- Node2 -->
<g id="node2" class="node"><title>Node2</title>
<polygon fill="white" stroke="#bfbfbf" points="-0.925781,-71 -0.925781,-103 162.926,-103 162.926,-71 -0.925781,-71"/>
<text text-anchor="start" x="7.07422" y="-89" font-family="Helvetica,sans-Serif" font-size="10.00">FontObfuscator::FontObfuscation</text>
<text text-anchor="middle" x="81" y="-77" font-family="Helvetica,sans-Serif" font-size="10.00">Context</text>
</g>
<!-- Node1&#45;&gt;Node2 -->
<g id="edge1" class="edge"><title>Node1&#45;&gt;Node2</title>
<path fill="none" stroke="midnightblue" d="M137.168,-134.432C125.606,-124.874 110.865,-112.689 99.3861,-103.199"/>
<polygon fill="midnightblue" stroke="midnightblue" points="134.996,-137.178 144.933,-140.852 139.456,-131.783 134.996,-137.178"/>
</g>
<!-- Node3 -->
<g id="node3" class="node"><title>Node3</title>
<g id="a_node3"><a xlink:href="class_range_filter_context.xhtml" target="_top" xlink:title="RangeFilterContext">
<polygon fill="white" stroke="black" points="180.924,-77 180.924,-97 283.076,-97 283.076,-77 180.924,-77"/>
<text text-anchor="middle" x="232" y="-83" font-family="Helvetica,sans-Serif" font-size="10.00">RangeFilterContext</text>
</a>
</g>
</g>
<!-- Node1&#45;&gt;Node3 -->
<g id="edge2" class="edge"><title>Node1&#45;&gt;Node3</title>
<path fill="none" stroke="midnightblue" d="M175.034,-134.472C189.43,-122.728 208.71,-107 220.74,-97.1858"/>
<polygon fill="midnightblue" stroke="midnightblue" points="172.75,-131.818 167.214,-140.852 177.175,-137.242 172.75,-131.818"/>
</g>
<!-- Node4 -->
<g id="node4" class="node"><title>Node4</title>
<polygon fill="white" stroke="#bfbfbf" points="177.03,-1 177.03,-33 286.97,-33 286.97,-1 177.03,-1"/>
<text text-anchor="start" x="185.03" y="-19" font-family="Helvetica,sans-Serif" font-size="10.00">PassThroughFilter::</text>
<text text-anchor="middle" x="232" y="-7" font-family="Helvetica,sans-Serif" font-size="10.00">PassThroughContext</text>
</g>
<!-- Node3&#45;&gt;Node4 -->
<g id="edge3" class="edge"><title>Node3&#45;&gt;Node4</title>
<path fill="none" stroke="midnightblue" d="M232,-66.5217C232,-55.9564 232,-43.0873 232,-33.2579"/>
<polygon fill="midnightblue" stroke="midnightblue" points="228.5,-66.8292 232,-76.8292 235.5,-66.8293 228.5,-66.8292"/>
</g>
</g>
</svg>
