<?xml version="1.0" encoding="UTF-8" standalone="no"?>
<!DOCTYPE svg PUBLIC "-//W3C//DTD SVG 1.1//EN"
 "http://www.w3.org/Graphics/SVG/1.1/DTD/svg11.dtd">
<!-- Generated by graphviz version 2.30.0 (20130114.0426)
 -->
<!-- Title: MediaOverlaysSmilModel Pages: 1 -->
<svg width="297pt" height="112pt"
 viewBox="0.00 0.00 297.00 112.00" xmlns="http://www.w3.org/2000/svg" xmlns:xlink="http://www.w3.org/1999/xlink">
<g id="graph0" class="graph" transform="scale(1 1) rotate(0) translate(4 108)">
<title>MediaOverlaysSmilModel</title>
<polygon fill="white" stroke="white" points="-4,5 -4,-108 294,-108 294,5 -4,5"/>
<!-- Node1 -->
<g id="node1" class="node"><title>Node1</title>
<polygon fill="#bfbfbf" stroke="black" points="90.3154,-1 90.3154,-21 219.685,-21 219.685,-1 90.3154,-1"/>
<text text-anchor="middle" x="155" y="-7" font-family="Helvetica,sans-Serif" font-size="10.00">MediaOverlaysSmilModel</text>
</g>
<!-- Node2 -->
<g id="node2" class="node"><title>Node2</title>
<polygon fill="white" stroke="#bfbfbf" points="-0.717773,-59 -0.717773,-103 156.718,-103 156.718,-59 -0.717773,-59"/>
<text text-anchor="start" x="7.28223" y="-89" font-family="Helvetica,sans-Serif" font-size="10.00">std::enable_shared</text>
<text text-anchor="start" x="7.28223" y="-77" font-family="Helvetica,sans-Serif" font-size="10.00">_from_this&lt; MediaOverlaysSmil</text>
<text text-anchor="middle" x="78" y="-65" font-family="Helvetica,sans-Serif" font-size="10.00">Model &gt;</text>
</g>
<!-- Node2&#45;&gt;Node1 -->
<g id="edge1" class="edge"><title>Node2&#45;&gt;Node1</title>
<path fill="none" stroke="midnightblue" d="M109.546,-52.1412C122.049,-41.0997 135.564,-29.1644 144.578,-21.2039"/>
<polygon fill="midnightblue" stroke="midnightblue" points="107.12,-49.6142 101.941,-58.8571 111.754,-54.8611 107.12,-49.6142"/>
</g>
<!-- Node3 -->
<g id="node3" class="node"><title>Node3</title>
<g id="a_node3"><a xlink:href="class_owned_by.xhtml" target="_top" xlink:title="OwnedBy\&lt; Package \&gt;">
<polygon fill="white" stroke="black" points="174.247,-71 174.247,-91 289.753,-91 289.753,-71 174.247,-71"/>
<text text-anchor="middle" x="232" y="-77" font-family="Helvetica,sans-Serif" font-size="10.00">OwnedBy&lt; Package &gt;</text>
</a>
</g>
</g>
<!-- Node3&#45;&gt;Node1 -->
<g id="edge2" class="edge"><title>Node3&#45;&gt;Node1</title>
<path fill="none" stroke="midnightblue" d="M213.891,-64.0078C198.721,-50.6104 177.612,-31.9694 165.22,-21.0255"/>
<polygon fill="midnightblue" stroke="midnightblue" points="211.803,-66.8332 221.615,-70.8292 216.437,-61.5863 211.803,-66.8332"/>
</g>
</g>
</svg>
