<?xml version="1.0" encoding="UTF-8" standalone="no"?>
<!DOCTYPE svg PUBLIC "-//W3C//DTD SVG 1.1//EN"
 "http://www.w3.org/Graphics/SVG/1.1/DTD/svg11.dtd">
<!-- Generated by graphviz version 2.30.0 (20130114.0426)
 -->
<!-- Title: InputBuffer Pages: 1 -->
<svg width="144pt" height="146pt"
 viewBox="0.00 0.00 144.00 146.00" xmlns="http://www.w3.org/2000/svg" xmlns:xlink="http://www.w3.org/1999/xlink">
<g id="graph0" class="graph" transform="scale(1 1) rotate(0) translate(4 142)">
<title>InputBuffer</title>
<polygon fill="white" stroke="white" points="-4,5 -4,-142 141,-142 141,5 -4,5"/>
<!-- Node1 -->
<g id="node1" class="node"><title>Node1</title>
<polygon fill="#bfbfbf" stroke="black" points="35.6274,-59 35.6274,-79 100.373,-79 100.373,-59 35.6274,-59"/>
<text text-anchor="middle" x="68" y="-65" font-family="Helvetica,sans-Serif" font-size="10.00">InputBuffer</text>
</g>
<!-- Node3 -->
<g id="node3" class="node"><title>Node3</title>
<g id="a_node3"><a xlink:href="class_stream_input_buffer.xhtml" target="_top" xlink:title="StreamInputBuffer">
<polygon fill="white" stroke="black" points="19.5117,-1 19.5117,-21 116.488,-21 116.488,-1 19.5117,-1"/>
<text text-anchor="middle" x="68" y="-7" font-family="Helvetica,sans-Serif" font-size="10.00">StreamInputBuffer</text>
</a>
</g>
</g>
<!-- Node1&#45;&gt;Node3 -->
<g id="edge2" class="edge"><title>Node1&#45;&gt;Node3</title>
<path fill="none" stroke="midnightblue" d="M68,-48.7065C68,-39.3384 68,-28.5262 68,-21.0752"/>
<polygon fill="midnightblue" stroke="midnightblue" points="64.5001,-48.7527 68,-58.7527 71.5001,-48.7528 64.5001,-48.7527"/>
</g>
<!-- Node2 -->
<g id="node2" class="node"><title>Node2</title>
<polygon fill="white" stroke="#bfbfbf" points="-0.693359,-117 -0.693359,-137 136.693,-137 136.693,-117 -0.693359,-117"/>
<text text-anchor="middle" x="68" y="-123" font-family="Helvetica,sans-Serif" font-size="10.00">WrapperBase&lt;InputBuffer&gt;</text>
</g>
<!-- Node2&#45;&gt;Node1 -->
<g id="edge1" class="edge"><title>Node2&#45;&gt;Node1</title>
<path fill="none" stroke="midnightblue" d="M68,-106.707C68,-97.3384 68,-86.5262 68,-79.0752"/>
<polygon fill="midnightblue" stroke="midnightblue" points="64.5001,-106.753 68,-116.753 71.5001,-106.753 64.5001,-106.753"/>
</g>
</g>
</svg>
