<?xml version="1.0" encoding="UTF-8" standalone="no"?>
<!DOCTYPE svg PUBLIC "-//W3C//DTD SVG 1.1//EN"
 "http://www.w3.org/Graphics/SVG/1.1/DTD/svg11.dtd">
<!-- Generated by graphviz version 2.30.0 (20130114.0426)
 -->
<!-- Title: ZipArchive Pages: 1 -->
<svg width="134pt" height="160pt"
 viewBox="0.00 0.00 134.24 160.00" xmlns="http://www.w3.org/2000/svg" xmlns:xlink="http://www.w3.org/1999/xlink">
<g id="graph0" class="graph" transform="scale(1 1) rotate(0) translate(4 156)">
<title>ZipArchive</title>
<polygon fill="white" stroke="white" points="-4,5 -4,-156 131.241,-156 131.241,5 -4,5"/>
<!-- Node1 -->
<g id="node1" class="node"><title>Node1</title>
<polygon fill="#bfbfbf" stroke="black" points="-0.618164,-1 -0.618164,-21 62.6182,-21 62.6182,-1 -0.618164,-1"/>
<text text-anchor="middle" x="31" y="-7" font-family="Helvetica,sans-Serif" font-size="10.00">ZipArchive</text>
</g>
<!-- Node2 -->
<g id="node2" class="node"><title>Node2</title>
<g id="a_node2"><a xlink:href="class_archive.xhtml" target="_top" xlink:title="Archive">
<polygon fill="white" stroke="black" points="6.32764,-61 6.32764,-81 55.6724,-81 55.6724,-61 6.32764,-61"/>
<text text-anchor="middle" x="31" y="-67" font-family="Helvetica,sans-Serif" font-size="10.00">Archive</text>
</a>
</g>
</g>
<!-- Node2&#45;&gt;Node1 -->
<g id="edge1" class="edge"><title>Node2&#45;&gt;Node1</title>
<path fill="none" stroke="midnightblue" d="M31,-50.7309C31,-40.7807 31,-29.1016 31,-21.1903"/>
<polygon fill="midnightblue" stroke="midnightblue" points="27.5001,-50.9375 31,-60.9375 34.5001,-50.9375 27.5001,-50.9375"/>
</g>
<!-- Node3 -->
<g id="node3" class="node"><title>Node3</title>
<g id="a_node3"><a xlink:href="classstring.xhtml" target="_top" xlink:title="string">
<polygon fill="white" stroke="black" points="10.7734,-131 10.7734,-151 51.2266,-151 51.2266,-131 10.7734,-131"/>
<text text-anchor="middle" x="31" y="-137" font-family="Helvetica,sans-Serif" font-size="10.00">string</text>
</a>
</g>
</g>
<!-- Node3&#45;&gt;Node2 -->
<g id="edge2" class="edge"><title>Node3&#45;&gt;Node2</title>
<path fill="none" stroke="#9a32cd" stroke-dasharray="5,2" d="M31,-120.557C31,-107.557 31,-91.0574 31,-81.0255"/>
<polygon fill="#9a32cd" stroke="#9a32cd" points="27.5001,-120.829 31,-130.829 34.5001,-120.829 27.5001,-120.829"/>
<text text-anchor="middle" x="44.9014" y="-102" font-family="Helvetica,sans-Serif" font-size="10.00"> _path</text>
</g>
<!-- Node3&#45;&gt;Node3 -->
<g id="edge3" class="edge"><title>Node3&#45;&gt;Node3</title>
<path fill="none" stroke="#9a32cd" stroke-dasharray="5,2" d="M61.4158,-146.782C65.9402,-145.881 69,-143.954 69,-141 69,-136.152 60.7602,-134.069 51.3294,-134.751"/>
<polygon fill="#9a32cd" stroke="#9a32cd" points="61.1569,-143.29 51.3294,-147.249 61.4806,-150.283 61.1569,-143.29"/>
<text text-anchor="middle" x="97.6206" y="-137" font-family="Helvetica,sans-Serif" font-size="10.00"> EmptyString</text>
</g>
</g>
</svg>
