<?xml version="1.0" encoding="UTF-8" standalone="no"?>
<!DOCTYPE svg PUBLIC "-//W3C//DTD SVG 1.1//EN"
 "http://www.w3.org/Graphics/SVG/1.1/DTD/svg11.dtd">
<!-- Generated by graphviz version 2.30.0 (20130114.0426)
 -->
<!-- Title: __compressed_pair&lt; _T1, _T2 &gt; Pages: 1 -->
<svg width="124pt" height="112pt"
 viewBox="0.00 0.00 124.00 112.00" xmlns="http://www.w3.org/2000/svg" xmlns:xlink="http://www.w3.org/1999/xlink">
<g id="graph0" class="graph" transform="scale(1 1) rotate(0) translate(4 108)">
<title>__compressed_pair&lt; _T1, _T2 &gt;</title>
<polygon fill="white" stroke="white" points="-4,5 -4,-108 121,-108 121,5 -4,5"/>
<!-- Node1 -->
<g id="node1" class="node"><title>Node1</title>
<polygon fill="#bfbfbf" stroke="black" points="3.1665,-1 3.1665,-33 112.833,-33 112.833,-1 3.1665,-1"/>
<text text-anchor="start" x="11.1665" y="-19" font-family="Helvetica,sans-Serif" font-size="10.00">__compressed_pair&lt;</text>
<text text-anchor="middle" x="58" y="-7" font-family="Helvetica,sans-Serif" font-size="10.00"> _T1, _T2 &gt;</text>
</g>
<!-- Node2 -->
<g id="node2" class="node"><title>Node2</title>
<g id="a_node2"><a xlink:href="class____epub3__compressed__pair__imp.xhtml" target="_top" xlink:title="__epub3_compressed\l_pair_imp\&lt; _T1, _T2 \&gt;">
<polygon fill="white" stroke="black" points="-0.583496,-71 -0.583496,-103 116.583,-103 116.583,-71 -0.583496,-71"/>
<text text-anchor="start" x="7.4165" y="-89" font-family="Helvetica,sans-Serif" font-size="10.00">__epub3_compressed</text>
<text text-anchor="middle" x="58" y="-77" font-family="Helvetica,sans-Serif" font-size="10.00">_pair_imp&lt; _T1, _T2 &gt;</text>
</a>
</g>
</g>
<!-- Node2&#45;&gt;Node1 -->
<g id="edge1" class="edge"><title>Node2&#45;&gt;Node1</title>
<path fill="none" stroke="#8b1a1a" d="M58,-60.6174C58,-51.3378 58,-41.1413 58,-33.0492"/>
<polygon fill="#8b1a1a" stroke="#8b1a1a" points="54.5001,-60.9086 58,-70.9086 61.5001,-60.9086 54.5001,-60.9086"/>
</g>
</g>
</svg>
