<?xml version="1.0" encoding="UTF-8" standalone="no"?>
<!DOCTYPE svg PUBLIC "-//W3C//DTD SVG 1.1//EN"
 "http://www.w3.org/Graphics/SVG/1.1/DTD/svg11.dtd">
<!-- Generated by graphviz version 2.30.0 (20130114.0426)
 -->
<!-- Title: ZipWriter Pages: 1 -->
<svg width="247pt" height="170pt"
 viewBox="0.00 0.00 247.24 170.00" xmlns="http://www.w3.org/2000/svg" xmlns:xlink="http://www.w3.org/1999/xlink">
<g id="graph0" class="graph" transform="scale(1 1) rotate(0) translate(4 166)">
<title>ZipWriter</title>
<polygon fill="white" stroke="white" points="-4,5 -4,-166 244.241,-166 244.241,5 -4,5"/>
<!-- Node1 -->
<g id="node1" class="node"><title>Node1</title>
<polygon fill="#bfbfbf" stroke="black" points="43.812,-1 43.812,-21 100.188,-21 100.188,-1 43.812,-1"/>
<text text-anchor="middle" x="72" y="-7" font-family="Helvetica,sans-Serif" font-size="10.00">ZipWriter</text>
</g>
<!-- Node2 -->
<g id="node2" class="node"><title>Node2</title>
<g id="a_node2"><a xlink:href="class_archive_writer.xhtml" target="_top" xlink:title="ArchiveWriter">
<polygon fill="white" stroke="black" points="-0.914551,-71 -0.914551,-91 74.9146,-91 74.9146,-71 -0.914551,-71"/>
<text text-anchor="middle" x="37" y="-77" font-family="Helvetica,sans-Serif" font-size="10.00">ArchiveWriter</text>
</a>
</g>
</g>
<!-- Node2&#45;&gt;Node1 -->
<g id="edge1" class="edge"><title>Node2&#45;&gt;Node1</title>
<path fill="none" stroke="midnightblue" d="M46.4044,-61.7286C53.1808,-48.5629 62.0346,-31.3614 67.3545,-21.0255"/>
<polygon fill="midnightblue" stroke="midnightblue" points="43.1848,-60.3361 41.7203,-70.8292 49.4087,-63.5396 43.1848,-60.3361"/>
</g>
<!-- Node3 -->
<g id="node3" class="node"><title>Node3</title>
<polygon fill="white" stroke="#bfbfbf" points="92.4648,-71 92.4648,-91 195.535,-91 195.535,-71 92.4648,-71"/>
<text text-anchor="middle" x="144" y="-77" font-family="Helvetica,sans-Serif" font-size="10.00">ZipWriter::DataBlob</text>
</g>
<!-- Node3&#45;&gt;Node1 -->
<g id="edge2" class="edge"><title>Node3&#45;&gt;Node1</title>
<path fill="none" stroke="#9a32cd" stroke-dasharray="5,2" d="M126.672,-63.6344C112.517,-50.2659 93.0368,-31.8681 81.5564,-21.0255"/>
<polygon fill="#9a32cd" stroke="#9a32cd" points="124.616,-66.5075 134.29,-70.8292 129.423,-61.4184 124.616,-66.5075"/>
<text text-anchor="middle" x="125.901" y="-42" font-family="Helvetica,sans-Serif" font-size="10.00"> _data</text>
</g>
<!-- Node4 -->
<g id="node4" class="node"><title>Node4</title>
<g id="a_node4"><a xlink:href="classstring.xhtml" target="_top" xlink:title="string">
<polygon fill="white" stroke="black" points="123.773,-141 123.773,-161 164.227,-161 164.227,-141 123.773,-141"/>
<text text-anchor="middle" x="144" y="-147" font-family="Helvetica,sans-Serif" font-size="10.00">string</text>
</a>
</g>
</g>
<!-- Node4&#45;&gt;Node3 -->
<g id="edge3" class="edge"><title>Node4&#45;&gt;Node3</title>
<path fill="none" stroke="#9a32cd" stroke-dasharray="5,2" d="M144,-130.557C144,-117.557 144,-101.057 144,-91.0255"/>
<polygon fill="#9a32cd" stroke="#9a32cd" points="140.5,-130.829 144,-140.829 147.5,-130.829 140.5,-130.829"/>
<text text-anchor="middle" x="166.791" y="-112" font-family="Helvetica,sans-Serif" font-size="10.00"> _tmpPath</text>
</g>
<!-- Node4&#45;&gt;Node4 -->
<g id="edge4" class="edge"><title>Node4&#45;&gt;Node4</title>
<path fill="none" stroke="#9a32cd" stroke-dasharray="5,2" d="M174.416,-156.782C178.94,-155.881 182,-153.954 182,-151 182,-146.152 173.76,-144.069 164.329,-144.751"/>
<polygon fill="#9a32cd" stroke="#9a32cd" points="174.157,-153.29 164.329,-157.249 174.481,-160.283 174.157,-153.29"/>
<text text-anchor="middle" x="210.621" y="-147" font-family="Helvetica,sans-Serif" font-size="10.00"> EmptyString</text>
</g>
</g>
</svg>
