<?xml version="1.0" encoding="UTF-8" standalone="no"?>
<!DOCTYPE svg PUBLIC "-//W3C//DTD SVG 1.1//EN"
 "http://www.w3.org/Graphics/SVG/1.1/DTD/svg11.dtd">
<!-- Generated by graphviz version 2.30.0 (20130114.0426)
 -->
<!-- Title: RunLoop::_SourceBase Pages: 1 -->
<svg width="231pt" height="88pt"
 viewBox="0.00 0.00 231.00 88.00" xmlns="http://www.w3.org/2000/svg" xmlns:xlink="http://www.w3.org/1999/xlink">
<g id="graph0" class="graph" transform="scale(1 1) rotate(0) translate(4 84)">
<title>RunLoop::_SourceBase</title>
<polygon fill="white" stroke="white" points="-4,5 -4,-84 228,-84 228,5 -4,5"/>
<!-- Node1 -->
<g id="node1" class="node"><title>Node1</title>
<polygon fill="#bfbfbf" stroke="black" points="57.9067,-59 57.9067,-79 180.093,-79 180.093,-59 57.9067,-59"/>
<text text-anchor="middle" x="119" y="-65" font-family="Helvetica,sans-Serif" font-size="10.00">RunLoop::_SourceBase</text>
</g>
<!-- Node2 -->
<g id="node2" class="node"><title>Node2</title>
<g id="a_node2"><a xlink:href="class_run_loop_1_1_event_source.xhtml" target="_top" xlink:title="RunLoop::EventSource">
<polygon fill="white" stroke="black" points="-0.70166,-1 -0.70166,-21 118.702,-21 118.702,-1 -0.70166,-1"/>
<text text-anchor="middle" x="59" y="-7" font-family="Helvetica,sans-Serif" font-size="10.00">RunLoop::EventSource</text>
</a>
</g>
</g>
<!-- Node1&#45;&gt;Node2 -->
<g id="edge1" class="edge"><title>Node1&#45;&gt;Node2</title>
<path fill="none" stroke="midnightblue" d="M101.54,-51.704C90.852,-41.7286 77.5744,-29.3361 68.7234,-21.0752"/>
<polygon fill="midnightblue" stroke="midnightblue" points="99.3935,-54.4882 109.092,-58.7527 104.17,-49.3708 99.3935,-54.4882"/>
</g>
<!-- Node3 -->
<g id="node3" class="node"><title>Node3</title>
<g id="a_node3"><a xlink:href="class_run_loop_1_1_timer.xhtml" target="_top" xlink:title="RunLoop::Timer">
<polygon fill="white" stroke="black" points="136.333,-1 136.333,-21 223.667,-21 223.667,-1 136.333,-1"/>
<text text-anchor="middle" x="180" y="-7" font-family="Helvetica,sans-Serif" font-size="10.00">RunLoop::Timer</text>
</a>
</g>
</g>
<!-- Node1&#45;&gt;Node3 -->
<g id="edge2" class="edge"><title>Node1&#45;&gt;Node3</title>
<path fill="none" stroke="midnightblue" d="M136.751,-51.704C147.617,-41.7286 161.116,-29.3361 170.115,-21.0752"/>
<polygon fill="midnightblue" stroke="midnightblue" points="134.073,-49.4117 129.073,-58.7527 138.806,-54.5683 134.073,-49.4117"/>
</g>
</g>
</svg>
