<?xml version="1.0" encoding="UTF-8" standalone="no"?>
<!DOCTYPE svg PUBLIC "-//W3C//DTD SVG 1.1//EN"
 "http://www.w3.org/Graphics/SVG/1.1/DTD/svg11.dtd">
<!-- Generated by graphviz version 2.30.0 (20130114.0426)
 -->
<!-- Title: SeekableByteStream Pages: 1 -->
<svg width="208pt" height="146pt"
 viewBox="0.00 0.00 208.00 146.00" xmlns="http://www.w3.org/2000/svg" xmlns:xlink="http://www.w3.org/1999/xlink">
<g id="graph0" class="graph" transform="scale(1 1) rotate(0) translate(4 142)">
<title>SeekableByteStream</title>
<polygon fill="white" stroke="white" points="-4,5 -4,-142 205,-142 205,5 -4,5"/>
<!-- Node1 -->
<g id="node1" class="node"><title>Node1</title>
<polygon fill="#bfbfbf" stroke="black" points="41.0298,-59 41.0298,-79 150.97,-79 150.97,-59 41.0298,-59"/>
<text text-anchor="middle" x="96" y="-65" font-family="Helvetica,sans-Serif" font-size="10.00">SeekableByteStream</text>
</g>
<!-- Node3 -->
<g id="node3" class="node"><title>Node3</title>
<g id="a_node3"><a xlink:href="class_file_byte_stream.xhtml" target="_top" xlink:title="FileByteStream">
<polygon fill="white" stroke="black" points="-0.177246,-1 -0.177246,-21 84.1772,-21 84.1772,-1 -0.177246,-1"/>
<text text-anchor="middle" x="42" y="-7" font-family="Helvetica,sans-Serif" font-size="10.00">FileByteStream</text>
</a>
</g>
</g>
<!-- Node1&#45;&gt;Node3 -->
<g id="edge2" class="edge"><title>Node1&#45;&gt;Node3</title>
<path fill="none" stroke="midnightblue" d="M80.0024,-51.4099C70.4329,-41.486 58.6389,-29.2551 50.7511,-21.0752"/>
<polygon fill="midnightblue" stroke="midnightblue" points="77.6221,-53.9838 87.083,-58.7527 82.6611,-49.1248 77.6221,-53.9838"/>
</g>
<!-- Node4 -->
<g id="node4" class="node"><title>Node4</title>
<g id="a_node4"><a xlink:href="class_zip_file_byte_stream.xhtml" target="_top" xlink:title="ZipFileByteStream">
<polygon fill="white" stroke="black" points="101.877,-1 101.877,-21 200.123,-21 200.123,-1 101.877,-1"/>
<text text-anchor="middle" x="151" y="-7" font-family="Helvetica,sans-Serif" font-size="10.00">ZipFileByteStream</text>
</a>
</g>
</g>
<!-- Node1&#45;&gt;Node4 -->
<g id="edge3" class="edge"><title>Node1&#45;&gt;Node4</title>
<path fill="none" stroke="midnightblue" d="M112.294,-51.4099C122.041,-41.486 134.053,-29.2551 142.087,-21.0752"/>
<polygon fill="midnightblue" stroke="midnightblue" points="109.592,-49.1657 105.082,-58.7527 114.586,-54.0707 109.592,-49.1657"/>
</g>
<!-- Node2 -->
<g id="node2" class="node"><title>Node2</title>
<g id="a_node2"><a xlink:href="class_byte_stream.xhtml" target="_top" xlink:title="ByteStream">
<polygon fill="white" stroke="black" points="61.8794,-117 61.8794,-137 130.121,-137 130.121,-117 61.8794,-117"/>
<text text-anchor="middle" x="96" y="-123" font-family="Helvetica,sans-Serif" font-size="10.00">ByteStream</text>
</a>
</g>
</g>
<!-- Node2&#45;&gt;Node1 -->
<g id="edge1" class="edge"><title>Node2&#45;&gt;Node1</title>
<path fill="none" stroke="midnightblue" d="M96,-106.707C96,-97.3384 96,-86.5262 96,-79.0752"/>
<polygon fill="midnightblue" stroke="midnightblue" points="92.5001,-106.753 96,-116.753 99.5001,-106.753 92.5001,-106.753"/>
</g>
</g>
</svg>
