<?xml version="1.0" encoding="UTF-8" standalone="no"?>
<!DOCTYPE svg PUBLIC "-//W3C//DTD SVG 1.1//EN"
 "http://www.w3.org/Graphics/SVG/1.1/DTD/svg11.dtd">
<!-- Generated by graphviz version 2.30.0 (20130114.0426)
 -->
<!-- Title: CustomRenderer Pages: 1 -->
<svg width="431pt" height="232pt"
 viewBox="0.00 0.00 431.24 232.00" xmlns="http://www.w3.org/2000/svg" xmlns:xlink="http://www.w3.org/1999/xlink">
<g id="graph0" class="graph" transform="scale(1 1) rotate(0) translate(4 228)">
<title>CustomRenderer</title>
<polygon fill="white" stroke="white" points="-4,5 -4,-228 428.241,-228 428.241,5 -4,5"/>
<!-- Node1 -->
<g id="node1" class="node"><title>Node1</title>
<polygon fill="#bfbfbf" stroke="black" points="185.929,-1 185.929,-21 278.071,-21 278.071,-1 185.929,-1"/>
<text text-anchor="middle" x="232" y="-7" font-family="Helvetica,sans-Serif" font-size="10.00">CustomRenderer</text>
</g>
<!-- Node2 -->
<g id="node2" class="node"><title>Node2</title>
<g id="a_node2"><a xlink:href="class_content_handler.xhtml" target="_top" xlink:title="ContentHandler">
<polygon fill="white" stroke="black" points="188.978,-61 188.978,-81 275.022,-81 275.022,-61 188.978,-61"/>
<text text-anchor="middle" x="232" y="-67" font-family="Helvetica,sans-Serif" font-size="10.00">ContentHandler</text>
</a>
</g>
</g>
<!-- Node2&#45;&gt;Node1 -->
<g id="edge1" class="edge"><title>Node2&#45;&gt;Node1</title>
<path fill="none" stroke="midnightblue" d="M232,-50.7309C232,-40.7807 232,-29.1016 232,-21.1903"/>
<polygon fill="midnightblue" stroke="midnightblue" points="228.5,-50.9375 232,-60.9375 235.5,-50.9375 228.5,-50.9375"/>
</g>
<!-- Node3 -->
<g id="node3" class="node"><title>Node3</title>
<g id="a_node3"><a xlink:href="class_pointer_type.xhtml" target="_top" xlink:title="PointerType\&lt; ContentHandler \&gt;">
<polygon fill="white" stroke="black" points="-0.324707,-131 -0.324707,-151 156.325,-151 156.325,-131 -0.324707,-131"/>
<text text-anchor="middle" x="78" y="-137" font-family="Helvetica,sans-Serif" font-size="10.00">PointerType&lt; ContentHandler &gt;</text>
</a>
</g>
</g>
<!-- Node3&#45;&gt;Node2 -->
<g id="edge2" class="edge"><title>Node3&#45;&gt;Node2</title>
<path fill="none" stroke="midnightblue" d="M107.737,-126.869C138.229,-113.405 184.845,-92.8218 211.465,-81.0672"/>
<polygon fill="midnightblue" stroke="midnightblue" points="106.184,-123.729 98.45,-130.97 109.012,-130.133 106.184,-123.729"/>
</g>
<!-- Node4 -->
<g id="node4" class="node"><title>Node4</title>
<polygon fill="white" stroke="#bfbfbf" points="3.01758,-191 3.01758,-223 152.982,-223 152.982,-191 3.01758,-191"/>
<text text-anchor="start" x="11.0176" y="-209" font-family="Helvetica,sans-Serif" font-size="10.00">std::enable_shared</text>
<text text-anchor="middle" x="78" y="-197" font-family="Helvetica,sans-Serif" font-size="10.00">_from_this&lt; ContentHandler &gt;</text>
</g>
<!-- Node4&#45;&gt;Node3 -->
<g id="edge3" class="edge"><title>Node4&#45;&gt;Node3</title>
<path fill="none" stroke="midnightblue" d="M78,-180.611C78,-170.286 78,-159.001 78,-151.313"/>
<polygon fill="midnightblue" stroke="midnightblue" points="74.5001,-180.833 78,-190.833 81.5001,-180.833 74.5001,-180.833"/>
</g>
<!-- Node5 -->
<g id="node5" class="node"><title>Node5</title>
<g id="a_node5"><a xlink:href="class_owned_by.xhtml" target="_top" xlink:title="OwnedBy\&lt; Package \&gt;">
<polygon fill="white" stroke="black" points="174.247,-131 174.247,-151 289.753,-151 289.753,-131 174.247,-131"/>
<text text-anchor="middle" x="232" y="-137" font-family="Helvetica,sans-Serif" font-size="10.00">OwnedBy&lt; Package &gt;</text>
</a>
</g>
</g>
<!-- Node5&#45;&gt;Node2 -->
<g id="edge4" class="edge"><title>Node5&#45;&gt;Node2</title>
<path fill="none" stroke="midnightblue" d="M232,-120.557C232,-107.557 232,-91.0574 232,-81.0255"/>
<polygon fill="midnightblue" stroke="midnightblue" points="228.5,-120.829 232,-130.829 235.5,-120.829 228.5,-120.829"/>
</g>
<!-- Node6 -->
<g id="node6" class="node"><title>Node6</title>
<g id="a_node6"><a xlink:href="classstring.xhtml" target="_top" xlink:title="string">
<polygon fill="white" stroke="black" points="307.773,-131 307.773,-151 348.227,-151 348.227,-131 307.773,-131"/>
<text text-anchor="middle" x="328" y="-137" font-family="Helvetica,sans-Serif" font-size="10.00">string</text>
</a>
</g>
</g>
<!-- Node6&#45;&gt;Node2 -->
<g id="edge5" class="edge"><title>Node6&#45;&gt;Node2</title>
<path fill="none" stroke="#9a32cd" stroke-dasharray="5,2" d="M306.724,-124.93C287.733,-111.478 260.55,-92.2227 244.742,-81.0255"/>
<polygon fill="#9a32cd" stroke="#9a32cd" points="304.87,-127.905 315.053,-130.829 308.916,-122.193 304.87,-127.905"/>
<text text-anchor="middle" x="314.63" y="-102" font-family="Helvetica,sans-Serif" font-size="10.00"> _mediaType</text>
</g>
<!-- Node6&#45;&gt;Node6 -->
<g id="edge6" class="edge"><title>Node6&#45;&gt;Node6</title>
<path fill="none" stroke="#9a32cd" stroke-dasharray="5,2" d="M358.416,-146.102C362.94,-145.307 366,-143.607 366,-141 366,-136.723 357.76,-134.885 348.329,-135.486"/>
<polygon fill="#9a32cd" stroke="#9a32cd" points="358.178,-142.609 348.329,-146.514 358.464,-149.603 358.178,-142.609"/>
<text text-anchor="middle" x="394.621" y="-137" font-family="Helvetica,sans-Serif" font-size="10.00"> EmptyString</text>
</g>
</g>
</svg>
