<?xml version="1.0" encoding="UTF-8" standalone="no"?>
<!DOCTYPE svg PUBLIC "-//W3C//DTD SVG 1.1//EN"
 "http://www.w3.org/Graphics/SVG/1.1/DTD/svg11.dtd">
<!-- Generated by graphviz version 2.30.0 (20130114.0426)
 -->
<!-- Title: PackageBase Pages: 1 -->
<svg width="564pt" height="112pt"
 viewBox="0.00 0.00 564.00 112.00" xmlns="http://www.w3.org/2000/svg" xmlns:xlink="http://www.w3.org/1999/xlink">
<g id="graph0" class="graph" transform="scale(1 1) rotate(0) translate(4 108)">
<title>PackageBase</title>
<polygon fill="white" stroke="white" points="-4,5 -4,-108 561,-108 561,5 -4,5"/>
<!-- Node1 -->
<g id="node1" class="node"><title>Node1</title>
<polygon fill="#bfbfbf" stroke="black" points="234.146,-1 234.146,-21 311.854,-21 311.854,-1 234.146,-1"/>
<text text-anchor="middle" x="273" y="-7" font-family="Helvetica,sans-Serif" font-size="10.00">PackageBase</text>
</g>
<!-- Node2 -->
<g id="node2" class="node"><title>Node2</title>
<g id="a_node2"><a xlink:href="classstring.xhtml" target="_top" xlink:title="string">
<polygon fill="white" stroke="black" points="-0.226562,-83 -0.226562,-103 40.2266,-103 40.2266,-83 -0.226562,-83"/>
<text text-anchor="middle" x="20" y="-89" font-family="Helvetica,sans-Serif" font-size="10.00">string</text>
</a>
</g>
</g>
<!-- Node2&#45;&gt;Node1 -->
<g id="edge1" class="edge"><title>Node2&#45;&gt;Node1</title>
<path fill="none" stroke="#9a32cd" stroke-dasharray="5,2" d="M50.1102,-80.814C80.1367,-69.8266 127.673,-52.884 169.404,-40 191.656,-33.1299 216.877,-26.2932 236.862,-21.0952"/>
<polygon fill="#9a32cd" stroke="#9a32cd" points="48.811,-77.5625 40.6322,-84.2973 51.2258,-84.1328 48.811,-77.5625"/>
<text text-anchor="middle" x="195.298" y="-54" font-family="Helvetica,sans-Serif" font-size="10.00"> _pathBase</text>
<text text-anchor="middle" x="195.298" y="-42" font-family="Helvetica,sans-Serif" font-size="10.00">_type</text>
</g>
<!-- Node2&#45;&gt;Node2 -->
<g id="edge2" class="edge"><title>Node2&#45;&gt;Node2</title>
<path fill="none" stroke="#9a32cd" stroke-dasharray="5,2" d="M50.4158,-99.8026C54.9402,-98.7429 58,-96.4753 58,-93 58,-87.2969 49.7602,-84.8463 40.3294,-85.6483"/>
<polygon fill="#9a32cd" stroke="#9a32cd" points="50.1244,-96.3132 40.3294,-100.352 50.5049,-103.303 50.1244,-96.3132"/>
<text text-anchor="middle" x="86.6206" y="-89" font-family="Helvetica,sans-Serif" font-size="10.00"> EmptyString</text>
</g>
<!-- Node3 -->
<g id="node3" class="node"><title>Node3</title>
<polygon fill="white" stroke="#bfbfbf" points="132.966,-83 132.966,-103 259.034,-103 259.034,-83 132.966,-83"/>
<text text-anchor="middle" x="196" y="-89" font-family="Helvetica,sans-Serif" font-size="10.00">shared_ptr&lt; SpineItem &gt;</text>
</g>
<!-- Node3&#45;&gt;Node1 -->
<g id="edge3" class="edge"><title>Node3&#45;&gt;Node1</title>
<path fill="none" stroke="#9a32cd" stroke-dasharray="5,2" d="M211.902,-75.478C227.77,-58.9918 251.565,-34.2696 264.27,-21.07"/>
<polygon fill="#9a32cd" stroke="#9a32cd" points="209.246,-73.1909 204.833,-82.823 214.289,-78.0452 209.246,-73.1909"/>
<text text-anchor="middle" x="262.123" y="-48" font-family="Helvetica,sans-Serif" font-size="10.00"> _spine</text>
</g>
<!-- Node4 -->
<g id="node4" class="node"><title>Node4</title>
<polygon fill="white" stroke="#bfbfbf" points="277.136,-83 277.136,-103 424.864,-103 424.864,-83 277.136,-83"/>
<text text-anchor="middle" x="351" y="-89" font-family="Helvetica,sans-Serif" font-size="10.00">shared_ptr&lt; xml::Document &gt;</text>
</g>
<!-- Node4&#45;&gt;Node1 -->
<g id="edge4" class="edge"><title>Node4&#45;&gt;Node1</title>
<path fill="none" stroke="#9a32cd" stroke-dasharray="5,2" d="M334.891,-75.478C318.817,-58.9918 294.713,-34.2696 281.843,-21.07"/>
<polygon fill="#9a32cd" stroke="#9a32cd" points="332.565,-78.1063 342.052,-82.823 337.577,-73.2196 332.565,-78.1063"/>
<text text-anchor="middle" x="335.121" y="-48" font-family="Helvetica,sans-Serif" font-size="10.00"> _opf</text>
</g>
<!-- Node5 -->
<g id="node5" class="node"><title>Node5</title>
<polygon fill="white" stroke="#bfbfbf" points="443.079,-83 443.079,-103 556.921,-103 556.921,-83 443.079,-83"/>
<text text-anchor="middle" x="500" y="-89" font-family="Helvetica,sans-Serif" font-size="10.00">shared_ptr&lt; Archive &gt;</text>
</g>
<!-- Node5&#45;&gt;Node1 -->
<g id="edge5" class="edge"><title>Node5&#45;&gt;Node1</title>
<path fill="none" stroke="#9a32cd" stroke-dasharray="5,2" d="M464.864,-79.6173C418.956,-63.4382 339.631,-35.4824 298.853,-21.1113"/>
<polygon fill="#9a32cd" stroke="#9a32cd" points="463.807,-82.9556 474.401,-82.9785 466.133,-76.3536 463.807,-82.9556"/>
<text text-anchor="middle" x="441.288" y="-48" font-family="Helvetica,sans-Serif" font-size="10.00"> _archive</text>
</g>
</g>
</svg>
