<?xml version="1.0" encoding="UTF-8" standalone="no"?>
<!DOCTYPE svg PUBLIC "-//W3C//DTD SVG 1.1//EN"
 "http://www.w3.org/Graphics/SVG/1.1/DTD/svg11.dtd">
<!-- Generated by graphviz version 2.30.0 (20130114.0426)
 -->
<!-- Title: DigitalSignature Pages: 1 -->
<svg width="326pt" height="130pt"
 viewBox="0.00 0.00 326.00 130.00" xmlns="http://www.w3.org/2000/svg" xmlns:xlink="http://www.w3.org/1999/xlink">
<g id="graph0" class="graph" transform="scale(1 1) rotate(0) translate(4 126)">
<title>DigitalSignature</title>
<polygon fill="white" stroke="white" points="-4,5 -4,-126 323,-126 323,5 -4,5"/>
<!-- Node1 -->
<g id="node1" class="node"><title>Node1</title>
<polygon fill="#bfbfbf" stroke="black" points="230.702,-45 230.702,-65 317.298,-65 317.298,-45 230.702,-45"/>
<text text-anchor="middle" x="274" y="-51" font-family="Helvetica,sans-Serif" font-size="10.00">DigitalSignature</text>
</g>
<!-- Node2 -->
<g id="node2" class="node"><title>Node2</title>
<polygon fill="white" stroke="#bfbfbf" points="5.71094,-90 5.71094,-122 134.289,-122 134.289,-90 5.71094,-90"/>
<text text-anchor="start" x="13.7109" y="-108" font-family="Helvetica,sans-Serif" font-size="10.00">unique_ptr&lt; class Signed</text>
<text text-anchor="middle" x="70" y="-96" font-family="Helvetica,sans-Serif" font-size="10.00">Info &gt;</text>
</g>
<!-- Node2&#45;&gt;Node1 -->
<g id="edge1" class="edge"><title>Node2&#45;&gt;Node1</title>
<path fill="none" stroke="#9a32cd" stroke-dasharray="5,2" d="M144.407,-87.9733C166.18,-82.5739 190.065,-76.5988 212,-71 219.426,-69.1046 227.352,-67.0494 234.949,-65.0636"/>
<polygon fill="#9a32cd" stroke="#9a32cd" points="143.432,-84.6089 134.567,-90.4102 145.115,-91.4037 143.432,-84.6089"/>
<text text-anchor="middle" x="185" y="-85" font-family="Helvetica,sans-Serif" font-size="10.00"> _signedInfo</text>
</g>
<!-- Node3 -->
<g id="node3" class="node"><title>Node3</title>
<polygon fill="white" stroke="#bfbfbf" points="-0.124023,-39 -0.124023,-71 140.124,-71 140.124,-39 -0.124023,-39"/>
<text text-anchor="start" x="7.87598" y="-57" font-family="Helvetica,sans-Serif" font-size="10.00">unique_ptr&lt; class Signature</text>
<text text-anchor="middle" x="70" y="-45" font-family="Helvetica,sans-Serif" font-size="10.00">Object &gt;</text>
</g>
<!-- Node3&#45;&gt;Node1 -->
<g id="edge2" class="edge"><title>Node3&#45;&gt;Node1</title>
<path fill="none" stroke="#9a32cd" stroke-dasharray="5,2" d="M150.585,-55C177.919,-55 207.446,-55 230.652,-55"/>
<polygon fill="#9a32cd" stroke="#9a32cd" points="150.234,-51.5001 140.234,-55 150.234,-58.5001 150.234,-51.5001"/>
<text text-anchor="middle" x="185" y="-57" font-family="Helvetica,sans-Serif" font-size="10.00"> _object</text>
</g>
<!-- Node4 -->
<g id="node4" class="node"><title>Node4</title>
<polygon fill="white" stroke="#bfbfbf" points="0.0151367,-0 0.0151367,-20 139.985,-20 139.985,-0 0.0151367,-0"/>
<text text-anchor="middle" x="70" y="-6" font-family="Helvetica,sans-Serif" font-size="10.00">unique_ptr&lt; class KeyInfo &gt;</text>
</g>
<!-- Node4&#45;&gt;Node1 -->
<g id="edge3" class="edge"><title>Node4&#45;&gt;Node1</title>
<path fill="none" stroke="#9a32cd" stroke-dasharray="5,2" d="M132.992,-22.0025C157.646,-26.9707 186.227,-32.9741 212,-39 219.783,-40.8196 228.087,-42.9025 235.982,-44.9506"/>
<polygon fill="#9a32cd" stroke="#9a32cd" points="133.536,-18.5419 123.043,-20.0106 132.162,-25.4057 133.536,-18.5419"/>
<text text-anchor="middle" x="185" y="-41" font-family="Helvetica,sans-Serif" font-size="10.00"> _keyInfo</text>
</g>
</g>
</svg>
