<?xml version="1.0" encoding="UTF-8" standalone="no"?>
<!DOCTYPE svg PUBLIC "-//W3C//DTD SVG 1.1//EN"
 "http://www.w3.org/Graphics/SVG/1.1/DTD/svg11.dtd">
<!-- Generated by graphviz version 2.30.0 (20130114.0426)
 -->
<!-- Title: Archive Pages: 1 -->
<svg width="127pt" height="100pt"
 viewBox="0.00 0.00 127.24 100.00" xmlns="http://www.w3.org/2000/svg" xmlns:xlink="http://www.w3.org/1999/xlink">
<g id="graph0" class="graph" transform="scale(1 1) rotate(0) translate(4 96)">
<title>Archive</title>
<polygon fill="white" stroke="white" points="-4,5 -4,-96 124.241,-96 124.241,5 -4,5"/>
<!-- Node1 -->
<g id="node1" class="node"><title>Node1</title>
<polygon fill="#bfbfbf" stroke="black" points="-0.672363,-1 -0.672363,-21 48.6724,-21 48.6724,-1 -0.672363,-1"/>
<text text-anchor="middle" x="24" y="-7" font-family="Helvetica,sans-Serif" font-size="10.00">Archive</text>
</g>
<!-- Node2 -->
<g id="node2" class="node"><title>Node2</title>
<g id="a_node2"><a xlink:href="classstring.xhtml" target="_top" xlink:title="string">
<polygon fill="white" stroke="black" points="3.77344,-71 3.77344,-91 44.2266,-91 44.2266,-71 3.77344,-71"/>
<text text-anchor="middle" x="24" y="-77" font-family="Helvetica,sans-Serif" font-size="10.00">string</text>
</a>
</g>
</g>
<!-- Node2&#45;&gt;Node1 -->
<g id="edge1" class="edge"><title>Node2&#45;&gt;Node1</title>
<path fill="none" stroke="#9a32cd" stroke-dasharray="5,2" d="M24,-60.5567C24,-47.557 24,-31.0574 24,-21.0255"/>
<polygon fill="#9a32cd" stroke="#9a32cd" points="20.5001,-60.8292 24,-70.8292 27.5001,-60.8293 20.5001,-60.8292"/>
<text text-anchor="middle" x="37.9014" y="-42" font-family="Helvetica,sans-Serif" font-size="10.00"> _path</text>
</g>
<!-- Node2&#45;&gt;Node2 -->
<g id="edge2" class="edge"><title>Node2&#45;&gt;Node2</title>
<path fill="none" stroke="#9a32cd" stroke-dasharray="5,2" d="M54.4158,-86.7822C58.9402,-85.8815 62,-83.954 62,-81 62,-76.1523 53.7602,-74.0694 44.3294,-74.7511"/>
<polygon fill="#9a32cd" stroke="#9a32cd" points="54.1569,-83.2904 44.3294,-87.2489 54.4806,-90.2829 54.1569,-83.2904"/>
<text text-anchor="middle" x="90.6206" y="-77" font-family="Helvetica,sans-Serif" font-size="10.00"> EmptyString</text>
</g>
</g>
</svg>
