<?xml version="1.0" encoding="UTF-8" standalone="no"?>
<!DOCTYPE svg PUBLIC "-//W3C//DTD SVG 1.1//EN"
 "http://www.w3.org/Graphics/SVG/1.1/DTD/svg11.dtd">
<!-- Generated by graphviz version 2.30.0 (20130114.0426)
 -->
<!-- Title: /Users/rkwright/Documents/github/readium&#45;sdk&#45;D/ePub3/ePub/content_module_manager.h Pages: 1 -->
<svg width="186pt" height="136pt"
 viewBox="0.00 0.00 186.00 136.00" xmlns="http://www.w3.org/2000/svg" xmlns:xlink="http://www.w3.org/1999/xlink">
<g id="graph0" class="graph" transform="scale(1 1) rotate(0) translate(4 132)">
<title>/Users/rkwright/Documents/github/readium&#45;sdk&#45;D/ePub3/ePub/content_module_manager.h</title>
<polygon fill="white" stroke="white" points="-4,5 -4,-132 183,-132 183,5 -4,5"/>
<!-- Node1 -->
<g id="node1" class="node"><title>Node1</title>
<polygon fill="#bfbfbf" stroke="black" points="4.55225,-83 4.55225,-127 173.448,-127 173.448,-83 4.55225,-83"/>
<text text-anchor="start" x="12.5522" y="-113" font-family="Helvetica,sans-Serif" font-size="10.00">/Users/rkwright/Documents</text>
<text text-anchor="start" x="12.5522" y="-101" font-family="Helvetica,sans-Serif" font-size="10.00">/github/readium&#45;sdk&#45;D/ePub3</text>
<text text-anchor="middle" x="89" y="-89" font-family="Helvetica,sans-Serif" font-size="10.00">/ePub/content_module_manager.h</text>
</g>
<!-- Node2 -->
<g id="node2" class="node"><title>Node2</title>
<g id="a_node2"><a xlink:href="content__module__manager_8cpp.xhtml" target="_top" xlink:title="/Users/rkwright/Documents\l/github/readium&#45;sdk&#45;D/ePub3\l/ePub/content_module_manager.cpp">
<polygon fill="white" stroke="black" points="-0.728516,-1 -0.728516,-45 178.729,-45 178.729,-1 -0.728516,-1"/>
<text text-anchor="start" x="7.27148" y="-31" font-family="Helvetica,sans-Serif" font-size="10.00">/Users/rkwright/Documents</text>
<text text-anchor="start" x="7.27148" y="-19" font-family="Helvetica,sans-Serif" font-size="10.00">/github/readium&#45;sdk&#45;D/ePub3</text>
<text text-anchor="middle" x="89" y="-7" font-family="Helvetica,sans-Serif" font-size="10.00">/ePub/content_module_manager.cpp</text>
</a>
</g>
</g>
<!-- Node1&#45;&gt;Node2 -->
<g id="edge1" class="edge"><title>Node1&#45;&gt;Node2</title>
<path fill="none" stroke="midnightblue" d="M89,-72.8963C89,-63.6094 89,-53.6485 89,-45.1564"/>
<polygon fill="midnightblue" stroke="midnightblue" points="85.5001,-72.9809 89,-82.9809 92.5001,-72.981 85.5001,-72.9809"/>
</g>
</g>
</svg>
