<?xml version="1.0" encoding="UTF-8" standalone="no"?>
<!DOCTYPE svg PUBLIC "-//W3C//DTD SVG 1.1//EN"
 "http://www.w3.org/Graphics/SVG/1.1/DTD/svg11.dtd">
<!-- Generated by graphviz version 2.30.0 (20130114.0426)
 -->
<!-- Title: /Users/rkwright/Documents/github/readium&#45;sdk&#45;D/ePub3/ePub/credential_request.h Pages: 1 -->
<svg width="351pt" height="136pt"
 viewBox="0.00 0.00 351.00 136.00" xmlns="http://www.w3.org/2000/svg" xmlns:xlink="http://www.w3.org/1999/xlink">
<g id="graph0" class="graph" transform="scale(1 1) rotate(0) translate(4 132)">
<title>/Users/rkwright/Documents/github/readium&#45;sdk&#45;D/ePub3/ePub/credential_request.h</title>
<polygon fill="white" stroke="white" points="-4,5 -4,-132 348,-132 348,5 -4,5"/>
<!-- Node1 -->
<g id="node1" class="node"><title>Node1</title>
<polygon fill="#bfbfbf" stroke="black" points="105.966,-83 105.966,-127 252.034,-127 252.034,-83 105.966,-83"/>
<text text-anchor="start" x="113.966" y="-113" font-family="Helvetica,sans-Serif" font-size="10.00">/Users/rkwright/Documents</text>
<text text-anchor="start" x="113.966" y="-101" font-family="Helvetica,sans-Serif" font-size="10.00">/github/readium&#45;sdk&#45;D/ePub3</text>
<text text-anchor="middle" x="179" y="-89" font-family="Helvetica,sans-Serif" font-size="10.00">/ePub/credential_request.h</text>
</g>
<!-- Node2 -->
<g id="node2" class="node"><title>Node2</title>
<g id="a_node2"><a xlink:href="content__module__manager_8cpp.xhtml" target="_top" xlink:title="/Users/rkwright/Documents\l/github/readium&#45;sdk&#45;D/ePub3\l/ePub/content_module_manager.cpp">
<polygon fill="white" stroke="black" points="-0.728516,-1 -0.728516,-45 178.729,-45 178.729,-1 -0.728516,-1"/>
<text text-anchor="start" x="7.27148" y="-31" font-family="Helvetica,sans-Serif" font-size="10.00">/Users/rkwright/Documents</text>
<text text-anchor="start" x="7.27148" y="-19" font-family="Helvetica,sans-Serif" font-size="10.00">/github/readium&#45;sdk&#45;D/ePub3</text>
<text text-anchor="middle" x="89" y="-7" font-family="Helvetica,sans-Serif" font-size="10.00">/ePub/content_module_manager.cpp</text>
</a>
</g>
</g>
<!-- Node1&#45;&gt;Node2 -->
<g id="edge1" class="edge"><title>Node1&#45;&gt;Node2</title>
<path fill="none" stroke="midnightblue" d="M147.68,-76.1598C136.235,-65.9862 123.485,-54.653 112.801,-45.1564"/>
<polygon fill="midnightblue" stroke="midnightblue" points="145.554,-78.9532 155.354,-82.9809 150.205,-73.7213 145.554,-78.9532"/>
</g>
<!-- Node3 -->
<g id="node3" class="node"><title>Node3</title>
<g id="a_node3"><a xlink:href="credential__request_8cpp.xhtml" target="_top" xlink:title="/Users/rkwright/Documents\l/github/readium&#45;sdk&#45;D/ePub3\l/ePub/credential_request.cpp">
<polygon fill="white" stroke="black" points="196.956,-1 196.956,-45 343.044,-45 343.044,-1 196.956,-1"/>
<text text-anchor="start" x="204.956" y="-31" font-family="Helvetica,sans-Serif" font-size="10.00">/Users/rkwright/Documents</text>
<text text-anchor="start" x="204.956" y="-19" font-family="Helvetica,sans-Serif" font-size="10.00">/github/readium&#45;sdk&#45;D/ePub3</text>
<text text-anchor="middle" x="270" y="-7" font-family="Helvetica,sans-Serif" font-size="10.00">/ePub/credential_request.cpp</text>
</a>
</g>
</g>
<!-- Node1&#45;&gt;Node3 -->
<g id="edge2" class="edge"><title>Node1&#45;&gt;Node3</title>
<path fill="none" stroke="midnightblue" d="M210.668,-76.1598C222.241,-65.9862 235.132,-54.653 245.935,-45.1564"/>
<polygon fill="midnightblue" stroke="midnightblue" points="208.109,-73.7497 202.909,-82.9809 212.731,-79.007 208.109,-73.7497"/>
</g>
</g>
</svg>
