<?xml version="1.0" encoding="UTF-8" standalone="no"?>
<!DOCTYPE svg PUBLIC "-//W3C//DTD SVG 1.1//EN"
 "http://www.w3.org/Graphics/SVG/1.1/DTD/svg11.dtd">
<!-- Generated by graphviz version 2.30.0 (20130114.0426)
 -->
<!-- Title: /Users/rkwright/Documents/github/readium&#45;sdk&#45;D/ePub3/ePub Pages: 1 -->
<svg width="94pt" height="152pt"
 viewBox="0.00 0.00 94.00 152.00" xmlns="http://www.w3.org/2000/svg" xmlns:xlink="http://www.w3.org/1999/xlink">
<g id="graph0" class="graph" transform="scale(1 1) rotate(0) translate(4 148)">
<title>/Users/rkwright/Documents/github/readium&#45;sdk&#45;D/ePub3/ePub</title>
<polygon fill="white" stroke="white" points="-4,5 -4,-148 91,-148 91,5 -4,5"/>
<g id="clust1" class="cluster"><title>clusterdir_99f496c3a760cbc050f4a6d0965ed892</title>
<g id="a_clust1"><a xlink:href="dir_99f496c3a760cbc050f4a6d0965ed892.xhtml" target="_top" xlink:title="ePub3">
<polygon fill="#ddddee" stroke="black" points="8,-64 8,-136 78,-136 78,-64 8,-64"/>
<text text-anchor="middle" x="43" y="-122" font-family="Helvetica,sans-Serif" font-size="10.00">ePub3</text>
</a>
</g>
</g>
<!-- dir_d81697a4833f1d44a7e9bc8387132cc4 -->
<g id="node1" class="node"><title>dir_d81697a4833f1d44a7e9bc8387132cc4</title>
<g id="a_node1"><a xlink:href="dir_d81697a4833f1d44a7e9bc8387132cc4.xhtml" target="_top" xlink:title="ePub">
<polygon fill="#eeeeff" stroke="black" points="70,-108 16,-108 16,-72 70,-72 70,-108"/>
<text text-anchor="middle" x="43" y="-86" font-family="Helvetica,sans-Serif" font-size="10.00">ePub</text>
</a>
</g>
</g>
<!-- dir_090fe5b49b20e659802fc7ff806b453c -->
<g id="node2" class="node"><title>dir_090fe5b49b20e659802fc7ff806b453c</title>
<g id="a_node2"><a xlink:href="dir_090fe5b49b20e659802fc7ff806b453c.xhtml" target="_top" xlink:title="utilities">
<polygon fill="none" stroke="black" points="70,-36 16,-36 16,-0 70,-0 70,-36"/>
<text text-anchor="middle" x="43" y="-14" font-family="Helvetica,sans-Serif" font-size="10.00">utilities</text>
</a>
</g>
</g>
<!-- dir_d81697a4833f1d44a7e9bc8387132cc4&#45;&gt;dir_090fe5b49b20e659802fc7ff806b453c -->
<g id="edge1" class="edge"><title>dir_d81697a4833f1d44a7e9bc8387132cc4&#45;&gt;dir_090fe5b49b20e659802fc7ff806b453c</title>
<path fill="none" stroke="black" d="M37.0843,-71.6966C36.2886,-63.9827 36.0621,-54.7125 36.4047,-46.1124"/>
<polygon fill="black" stroke="black" points="39.8984,-46.3243 37.105,-36.1043 32.9154,-45.8356 39.8984,-46.3243"/>
<g id="a_edge1&#45;headlabel"><a xlink:href="dir_000003_000004.xhtml" target="_top" xlink:title="94">
<text text-anchor="middle" x="42.4799" y="-46.1083" font-family="Helvetica,sans-Serif" font-size="10.00">94</text>
</a>
</g>
</g>
<!-- dir_090fe5b49b20e659802fc7ff806b453c&#45;&gt;dir_d81697a4833f1d44a7e9bc8387132cc4 -->
<g id="edge2" class="edge"><title>dir_090fe5b49b20e659802fc7ff806b453c&#45;&gt;dir_d81697a4833f1d44a7e9bc8387132cc4</title>
<path fill="none" stroke="black" d="M48.895,-36.1043C49.7005,-43.7913 49.9369,-53.0537 49.604,-61.6651"/>
<polygon fill="black" stroke="black" points="46.1085,-61.4805 48.9157,-71.6966 53.0921,-61.9597 46.1085,-61.4805"/>
<g id="a_edge2&#45;headlabel"><a xlink:href="dir_000004_000003.xhtml" target="_top" xlink:title="3">
<text text-anchor="middle" x="43.5219" y="-53.7" font-family="Helvetica,sans-Serif" font-size="10.00">3</text>
</a>
</g>
</g>
</g>
</svg>
