<?xml version="1.0" encoding="UTF-8" standalone="no"?>
<!DOCTYPE svg PUBLIC "-//W3C//DTD SVG 1.1//EN"
 "http://www.w3.org/Graphics/SVG/1.1/DTD/svg11.dtd">
<!-- Generated by graphviz version 2.30.0 (20130114.0426)
 -->
<!-- Title: /Users/rkwright/Documents/github/readium&#45;sdk&#45;D/ePub3/xml/tree/document.h Pages: 1 -->
<svg width="240pt" height="112pt"
 viewBox="0.00 0.00 240.00 112.00" xmlns="http://www.w3.org/2000/svg" xmlns:xlink="http://www.w3.org/1999/xlink">
<g id="graph0" class="graph" transform="scale(1 1) rotate(0) translate(4 108)">
<title>/Users/rkwright/Documents/github/readium&#45;sdk&#45;D/ePub3/xml/tree/document.h</title>
<polygon fill="white" stroke="white" points="-4,5 -4,-108 237,-108 237,5 -4,5"/>
<!-- Node1 -->
<g id="node1" class="node"><title>Node1</title>
<polygon fill="#bfbfbf" stroke="black" points="36.9658,-59 36.9658,-103 183.034,-103 183.034,-59 36.9658,-59"/>
<text text-anchor="start" x="44.9658" y="-89" font-family="Helvetica,sans-Serif" font-size="10.00">/Users/rkwright/Documents</text>
<text text-anchor="start" x="44.9658" y="-77" font-family="Helvetica,sans-Serif" font-size="10.00">/github/readium&#45;sdk&#45;D/ePub3</text>
<text text-anchor="middle" x="110" y="-65" font-family="Helvetica,sans-Serif" font-size="10.00">/xml/tree/document.h</text>
</g>
<!-- Node2 -->
<g id="node2" class="node"><title>Node2</title>
<polygon fill="white" stroke="#bfbfbf" points="-0.305176,-1 -0.305176,-21 96.3052,-21 96.3052,-1 -0.305176,-1"/>
<text text-anchor="middle" x="48" y="-7" font-family="Helvetica,sans-Serif" font-size="10.00">ePub3/xml/node.h</text>
</g>
<!-- Node1&#45;&gt;Node2 -->
<g id="edge1" class="edge"><title>Node1&#45;&gt;Node2</title>
<path fill="none" stroke="midnightblue" d="M90.7227,-58.8571C81.9047,-49.1858 71.6027,-37.8868 63.3246,-28.8076"/>
<polygon fill="midnightblue" stroke="midnightblue" points="65.7157,-26.2354 56.3918,-21.2039 60.543,-30.9517 65.7157,-26.2354"/>
</g>
<!-- Node3 -->
<g id="node3" class="node"><title>Node3</title>
<polygon fill="white" stroke="#bfbfbf" points="113.86,-1 113.86,-21 232.14,-21 232.14,-1 113.86,-1"/>
<text text-anchor="middle" x="173" y="-7" font-family="Helvetica,sans-Serif" font-size="10.00">ePub3/xml/document.h</text>
</g>
<!-- Node1&#45;&gt;Node3 -->
<g id="edge2" class="edge"><title>Node1&#45;&gt;Node3</title>
<path fill="none" stroke="midnightblue" d="M129.588,-58.8571C138.548,-49.1858 149.017,-37.8868 157.428,-28.8076"/>
<polygon fill="midnightblue" stroke="midnightblue" points="160.244,-30.9183 164.473,-21.2039 155.109,-26.1609 160.244,-30.9183"/>
</g>
</g>
</svg>
