<?xml version="1.0" encoding="UTF-8" standalone="no"?>
<!DOCTYPE svg PUBLIC "-//W3C//DTD SVG 1.1//EN"
 "http://www.w3.org/Graphics/SVG/1.1/DTD/svg11.dtd">
<!-- Generated by graphviz version 2.30.0 (20130114.0426)
 -->
<!-- Title: /Users/rkwright/Documents/github/readium&#45;sdk&#45;D/ePub3/ePub/encryption.cpp Pages: 1 -->
<svg width="1129pt" height="530pt"
 viewBox="0.00 0.00 1129.00 530.00" xmlns="http://www.w3.org/2000/svg" xmlns:xlink="http://www.w3.org/1999/xlink">
<g id="graph0" class="graph" transform="scale(1 1) rotate(0) translate(4 526)">
<title>/Users/rkwright/Documents/github/readium&#45;sdk&#45;D/ePub3/ePub/encryption.cpp</title>
<polygon fill="white" stroke="white" points="-4,5 -4,-526 1126,-526 1126,5 -4,5"/>
<!-- Node1 -->
<g id="node1" class="node"><title>Node1</title>
<polygon fill="#bfbfbf" stroke="black" points="208.966,-477 208.966,-521 355.034,-521 355.034,-477 208.966,-477"/>
<text text-anchor="start" x="216.966" y="-507" font-family="Helvetica,sans-Serif" font-size="10.00">/Users/rkwright/Documents</text>
<text text-anchor="start" x="216.966" y="-495" font-family="Helvetica,sans-Serif" font-size="10.00">/github/readium&#45;sdk&#45;D/ePub3</text>
<text text-anchor="middle" x="282" y="-483" font-family="Helvetica,sans-Serif" font-size="10.00">/ePub/encryption.cpp</text>
</g>
<!-- Node2 -->
<g id="node2" class="node"><title>Node2</title>
<g id="a_node2"><a xlink:href="encryption_8h.xhtml" target="_top" xlink:title="encryption.h">
<polygon fill="white" stroke="black" points="195.761,-419 195.761,-439 266.239,-439 266.239,-419 195.761,-419"/>
<text text-anchor="middle" x="231" y="-425" font-family="Helvetica,sans-Serif" font-size="10.00">encryption.h</text>
</a>
</g>
</g>
<!-- Node1&#45;&gt;Node2 -->
<g id="edge1" class="edge"><title>Node1&#45;&gt;Node2</title>
<path fill="none" stroke="midnightblue" d="M266.143,-476.857C259.037,-467.383 250.76,-456.347 244.025,-447.366"/>
<polygon fill="midnightblue" stroke="midnightblue" points="246.703,-445.104 237.903,-439.204 241.103,-449.304 246.703,-445.104"/>
</g>
<!-- Node7 -->
<g id="node7" class="node"><title>Node7</title>
<g id="a_node7"><a xlink:href="xpath__wrangler_8h.xhtml" target="_top" xlink:title="xpath_wrangler.h">
<polygon fill="white" stroke="black" points="287.917,-419 287.917,-439 380.083,-439 380.083,-419 287.917,-419"/>
<text text-anchor="middle" x="334" y="-425" font-family="Helvetica,sans-Serif" font-size="10.00">xpath_wrangler.h</text>
</a>
</g>
</g>
<!-- Node1&#45;&gt;Node7 -->
<g id="edge6" class="edge"><title>Node1&#45;&gt;Node7</title>
<path fill="none" stroke="midnightblue" d="M298.168,-476.857C305.413,-467.383 313.852,-456.347 320.72,-447.366"/>
<polygon fill="midnightblue" stroke="midnightblue" points="323.667,-449.274 326.962,-439.204 318.107,-445.021 323.667,-449.274"/>
</g>
<!-- Node3 -->
<g id="node3" class="node"><title>Node3</title>
<polygon fill="white" stroke="#bfbfbf" points="189.079,-361 189.079,-381 272.921,-381 272.921,-361 189.079,-361"/>
<text text-anchor="middle" x="231" y="-367" font-family="Helvetica,sans-Serif" font-size="10.00">ePub3/epub3.h</text>
</g>
<!-- Node2&#45;&gt;Node3 -->
<g id="edge2" class="edge"><title>Node2&#45;&gt;Node3</title>
<path fill="none" stroke="midnightblue" d="M231,-418.753C231,-411.25 231,-400.424 231,-391.078"/>
<polygon fill="midnightblue" stroke="midnightblue" points="234.5,-391.075 231,-381.075 227.5,-391.075 234.5,-391.075"/>
</g>
<!-- Node4 -->
<g id="node4" class="node"><title>Node4</title>
<g id="a_node4"><a xlink:href="owned__by_8h.xhtml" target="_top" xlink:title="ePub3/utilities/owned_by.h">
<polygon fill="white" stroke="black" points="-0.116211,-297 -0.116211,-317 134.116,-317 134.116,-297 -0.116211,-297"/>
<text text-anchor="middle" x="67" y="-303" font-family="Helvetica,sans-Serif" font-size="10.00">ePub3/utilities/owned_by.h</text>
</a>
</g>
</g>
<!-- Node2&#45;&gt;Node4 -->
<g id="edge3" class="edge"><title>Node2&#45;&gt;Node4</title>
<path fill="none" stroke="midnightblue" d="M218.673,-418.98C190.774,-398.566 122.531,-348.632 87.8967,-323.29"/>
<polygon fill="midnightblue" stroke="midnightblue" points="89.6068,-320.205 79.4697,-317.124 85.4732,-325.854 89.6068,-320.205"/>
</g>
<!-- Node5 -->
<g id="node5" class="node"><title>Node5</title>
<polygon fill="white" stroke="#bfbfbf" points="320.943,-175 320.943,-195 373.057,-195 373.057,-175 320.943,-175"/>
<text text-anchor="middle" x="347" y="-181" font-family="Helvetica,sans-Serif" font-size="10.00">memory</text>
</g>
<!-- Node4&#45;&gt;Node5 -->
<g id="edge4" class="edge"><title>Node4&#45;&gt;Node5</title>
<path fill="none" stroke="midnightblue" d="M65.0128,-296.837C62.2242,-281.261 59.2056,-249.605 76,-232 107.658,-198.814 244.557,-189.53 310.81,-186.963"/>
<polygon fill="midnightblue" stroke="midnightblue" points="310.941,-190.461 320.81,-186.607 310.691,-183.466 310.941,-190.461"/>
</g>
<!-- Node6 -->
<g id="node6" class="node"><title>Node6</title>
<polygon fill="white" stroke="#bfbfbf" points="84.9336,-233 84.9336,-253 147.066,-253 147.066,-233 84.9336,-233"/>
<text text-anchor="middle" x="116" y="-239" font-family="Helvetica,sans-Serif" font-size="10.00">type_traits</text>
</g>
<!-- Node4&#45;&gt;Node6 -->
<g id="edge5" class="edge"><title>Node4&#45;&gt;Node6</title>
<path fill="none" stroke="midnightblue" d="M74.2301,-296.852C81.6126,-287.511 93.2515,-272.784 102.37,-261.246"/>
<polygon fill="midnightblue" stroke="midnightblue" points="105.286,-263.202 108.74,-253.186 99.7937,-258.861 105.286,-263.202"/>
</g>
<!-- Node7&#45;&gt;Node3 -->
<g id="edge7" class="edge"><title>Node7&#45;&gt;Node3</title>
<path fill="none" stroke="midnightblue" d="M316.992,-418.753C300.568,-409.823 275.483,-396.185 256.637,-385.939"/>
<polygon fill="midnightblue" stroke="midnightblue" points="258.149,-382.777 247.692,-381.075 254.806,-388.927 258.149,-382.777"/>
</g>
<!-- Node8 -->
<g id="node8" class="node"><title>Node8</title>
<g id="a_node8"><a xlink:href="utfstring_8h.xhtml" target="_top" xlink:title="ePub3/utilities/utfstring.h">
<polygon fill="white" stroke="black" points="473.525,-361 473.525,-381 598.475,-381 598.475,-361 473.525,-361"/>
<text text-anchor="middle" x="536" y="-367" font-family="Helvetica,sans-Serif" font-size="10.00">ePub3/utilities/utfstring.h</text>
</a>
</g>
</g>
<!-- Node7&#45;&gt;Node8 -->
<g id="edge8" class="edge"><title>Node7&#45;&gt;Node8</title>
<path fill="none" stroke="midnightblue" d="M366.904,-418.878C401.489,-409.29 456.012,-394.175 493.755,-383.712"/>
<polygon fill="midnightblue" stroke="midnightblue" points="494.743,-387.07 503.444,-381.025 492.873,-380.324 494.743,-387.07"/>
</g>
<!-- Node32 -->
<g id="node32" class="node"><title>Node32</title>
<polygon fill="white" stroke="#bfbfbf" points="616.586,-361 616.586,-381 715.414,-381 715.414,-361 616.586,-361"/>
<text text-anchor="middle" x="666" y="-367" font-family="Helvetica,sans-Serif" font-size="10.00">ePub3/xml/xpath.h</text>
</g>
<!-- Node7&#45;&gt;Node32 -->
<g id="edge40" class="edge"><title>Node7&#45;&gt;Node32</title>
<path fill="none" stroke="midnightblue" d="M380.374,-420.2C432.675,-411.4 520.555,-396.604 606.5,-382.083"/>
<polygon fill="midnightblue" stroke="midnightblue" points="607.149,-385.523 616.426,-380.406 605.983,-378.621 607.149,-385.523"/>
</g>
<!-- Node29 -->
<g id="node29" class="node"><title>Node29</title>
<polygon fill="white" stroke="#bfbfbf" points="152.273,-297 152.273,-317 187.727,-317 187.727,-297 152.273,-297"/>
<text text-anchor="middle" x="170" y="-303" font-family="Helvetica,sans-Serif" font-size="10.00">map</text>
</g>
<!-- Node7&#45;&gt;Node29 -->
<g id="edge41" class="edge"><title>Node7&#45;&gt;Node29</title>
<path fill="none" stroke="midnightblue" d="M328.965,-418.868C320.669,-404.562 302.847,-376.77 281,-360 248.456,-335.019 232.463,-342.804 196,-324 194.861,-323.412 193.704,-322.793 192.545,-322.153"/>
<polygon fill="midnightblue" stroke="midnightblue" points="194.206,-319.07 183.809,-317.032 190.666,-325.109 194.206,-319.07"/>
</g>
<!-- Node17 -->
<g id="node17" class="node"><title>Node17</title>
<polygon fill="white" stroke="#bfbfbf" points="668.384,-233 668.384,-253 711.616,-253 711.616,-233 668.384,-233"/>
<text text-anchor="middle" x="690" y="-239" font-family="Helvetica,sans-Serif" font-size="10.00">vector</text>
</g>
<!-- Node7&#45;&gt;Node17 -->
<g id="edge42" class="edge"><title>Node7&#45;&gt;Node17</title>
<path fill="none" stroke="midnightblue" d="M335.141,-418.76C338.784,-393.531 352.571,-323.144 396,-290 416.606,-274.274 585.6,-254.933 657.652,-247.311"/>
<polygon fill="midnightblue" stroke="midnightblue" points="658.368,-250.755 667.949,-246.232 657.639,-243.793 658.368,-250.755"/>
</g>
<!-- Node9 -->
<g id="node9" class="node"><title>Node9</title>
<g id="a_node9"><a xlink:href="basic_8h.xhtml" target="_top" xlink:title="ePub3/utilities/basic.h">
<polygon fill="white" stroke="black" points="879.638,-297 879.638,-317 992.362,-317 992.362,-297 879.638,-297"/>
<text text-anchor="middle" x="936" y="-303" font-family="Helvetica,sans-Serif" font-size="10.00">ePub3/utilities/basic.h</text>
</a>
</g>
</g>
<!-- Node8&#45;&gt;Node9 -->
<g id="edge9" class="edge"><title>Node8&#45;&gt;Node9</title>
<path fill="none" stroke="midnightblue" d="M598.851,-361.273C693.681,-348.102 862.729,-324.601 866,-324 873.502,-322.622 881.417,-320.989 889.119,-319.301"/>
<polygon fill="midnightblue" stroke="midnightblue" points="890.078,-322.673 899.068,-317.068 888.544,-315.843 890.078,-322.673"/>
</g>
<!-- Node19 -->
<g id="node19" class="node"><title>Node19</title>
<g id="a_node19"><a xlink:href="integer__sequence_8h.xhtml" target="_top" xlink:title="ePub3/utilities/integer\l_sequence.h">
<polygon fill="white" stroke="black" points="1010.19,-291 1010.19,-323 1121.81,-323 1121.81,-291 1010.19,-291"/>
<text text-anchor="start" x="1018.19" y="-309" font-family="Helvetica,sans-Serif" font-size="10.00">ePub3/utilities/integer</text>
<text text-anchor="middle" x="1066" y="-297" font-family="Helvetica,sans-Serif" font-size="10.00">_sequence.h</text>
</a>
</g>
</g>
<!-- Node8&#45;&gt;Node19 -->
<g id="edge20" class="edge"><title>Node8&#45;&gt;Node19</title>
<path fill="none" stroke="midnightblue" d="M598.807,-361.101C601.914,-360.716 604.991,-360.347 608,-360 779.013,-340.302 826.28,-352.568 1000.1,-323.992"/>
<polygon fill="midnightblue" stroke="midnightblue" points="1000.8,-327.422 1010.09,-322.327 999.652,-320.518 1000.8,-327.422"/>
</g>
<!-- Node20 -->
<g id="node20" class="node"><title>Node20</title>
<g id="a_node20"><a xlink:href="string__view_8h.xhtml" target="_top" xlink:title="ePub3/utilities/string\l_view.h">
<polygon fill="white" stroke="black" points="205.254,-291 205.254,-323 310.746,-323 310.746,-291 205.254,-291"/>
<text text-anchor="start" x="213.254" y="-309" font-family="Helvetica,sans-Serif" font-size="10.00">ePub3/utilities/string</text>
<text text-anchor="middle" x="258" y="-297" font-family="Helvetica,sans-Serif" font-size="10.00">_view.h</text>
</a>
</g>
</g>
<!-- Node8&#45;&gt;Node20 -->
<g id="edge22" class="edge"><title>Node8&#45;&gt;Node20</title>
<path fill="none" stroke="midnightblue" d="M495.576,-360.985C449.739,-350.762 374.436,-333.968 320.902,-322.029"/>
<polygon fill="midnightblue" stroke="midnightblue" points="321.359,-318.544 310.836,-319.784 319.835,-325.377 321.359,-318.544"/>
</g>
<!-- Node21 -->
<g id="node21" class="node"><title>Node21</title>
<polygon fill="white" stroke="#bfbfbf" points="533.773,-233 533.773,-253 574.227,-253 574.227,-233 533.773,-233"/>
<text text-anchor="middle" x="554" y="-239" font-family="Helvetica,sans-Serif" font-size="10.00">string</text>
</g>
<!-- Node8&#45;&gt;Node21 -->
<g id="edge31" class="edge"><title>Node8&#45;&gt;Node21</title>
<path fill="none" stroke="midnightblue" d="M597.402,-360.993C683.814,-348.247 831.082,-326.238 833,-324 842.834,-312.526 842.777,-301.522 833,-290 817.02,-271.169 653.766,-253.519 584.648,-246.83"/>
<polygon fill="midnightblue" stroke="midnightblue" points="584.688,-243.317 574.401,-245.851 584.023,-250.286 584.688,-243.317"/>
</g>
<!-- Node26 -->
<g id="node26" class="node"><title>Node26</title>
<polygon fill="white" stroke="#bfbfbf" points="405.438,-297 405.438,-317 452.562,-317 452.562,-297 405.438,-297"/>
<text text-anchor="middle" x="429" y="-303" font-family="Helvetica,sans-Serif" font-size="10.00">iterator</text>
</g>
<!-- Node8&#45;&gt;Node26 -->
<g id="edge32" class="edge"><title>Node8&#45;&gt;Node26</title>
<path fill="none" stroke="midnightblue" d="M520.212,-360.852C502.668,-350.686 474.118,-334.143 453.63,-322.272"/>
<polygon fill="midnightblue" stroke="midnightblue" points="455.26,-319.171 444.853,-317.186 451.751,-325.228 455.26,-319.171"/>
</g>
<!-- Node27 -->
<g id="node27" class="node"><title>Node27</title>
<polygon fill="white" stroke="#bfbfbf" points="470.936,-297 470.936,-317 513.064,-317 513.064,-297 470.936,-297"/>
<text text-anchor="middle" x="492" y="-303" font-family="Helvetica,sans-Serif" font-size="10.00">locale</text>
</g>
<!-- Node8&#45;&gt;Node27 -->
<g id="edge33" class="edge"><title>Node8&#45;&gt;Node27</title>
<path fill="none" stroke="midnightblue" d="M529.508,-360.852C522.943,-351.602 512.632,-337.072 504.48,-325.586"/>
<polygon fill="midnightblue" stroke="midnightblue" points="507.161,-323.315 498.519,-317.186 501.452,-327.367 507.161,-323.315"/>
</g>
<!-- Node8&#45;&gt;Node17 -->
<g id="edge34" class="edge"><title>Node8&#45;&gt;Node17</title>
<path fill="none" stroke="midnightblue" d="M583.862,-360.971C634.643,-350.908 708.715,-334.654 717,-324 731.483,-305.376 717.083,-278.549 704.393,-261.195"/>
<polygon fill="midnightblue" stroke="midnightblue" points="706.979,-258.819 698.075,-253.077 701.455,-263.118 706.979,-258.819"/>
</g>
<!-- Node28 -->
<g id="node28" class="node"><title>Node28</title>
<polygon fill="white" stroke="#bfbfbf" points="530.766,-297 530.766,-317 631.234,-317 631.234,-297 530.766,-297"/>
<text text-anchor="middle" x="581" y="-303" font-family="Helvetica,sans-Serif" font-size="10.00">REGEX_INCLUDE</text>
</g>
<!-- Node8&#45;&gt;Node28 -->
<g id="edge35" class="edge"><title>Node8&#45;&gt;Node28</title>
<path fill="none" stroke="midnightblue" d="M542.64,-360.852C549.353,-351.602 559.899,-337.072 568.236,-325.586"/>
<polygon fill="midnightblue" stroke="midnightblue" points="571.291,-327.335 574.333,-317.186 565.626,-323.223 571.291,-327.335"/>
</g>
<!-- Node8&#45;&gt;Node29 -->
<g id="edge36" class="edge"><title>Node8&#45;&gt;Node29</title>
<path fill="none" stroke="midnightblue" d="M473.376,-369.251C403.739,-366.671 288.836,-357.16 196,-324 194.387,-323.424 192.767,-322.738 191.168,-321.98"/>
<polygon fill="midnightblue" stroke="midnightblue" points="192.859,-318.916 182.421,-317.099 189.448,-325.029 192.859,-318.916"/>
</g>
<!-- Node30 -->
<g id="node30" class="node"><title>Node30</title>
<polygon fill="white" stroke="#bfbfbf" points="649.599,-297 649.599,-317 708.401,-317 708.401,-297 649.599,-297"/>
<text text-anchor="middle" x="679" y="-303" font-family="Helvetica,sans-Serif" font-size="10.00">stdexcept</text>
</g>
<!-- Node8&#45;&gt;Node30 -->
<g id="edge37" class="edge"><title>Node8&#45;&gt;Node30</title>
<path fill="none" stroke="midnightblue" d="M556.793,-360.985C581.046,-350.47 621.334,-333.002 648.978,-321.017"/>
<polygon fill="midnightblue" stroke="midnightblue" points="650.399,-324.215 658.181,-317.026 647.614,-317.793 650.399,-324.215"/>
</g>
<!-- Node22 -->
<g id="node22" class="node"><title>Node22</title>
<polygon fill="white" stroke="#bfbfbf" points="399.613,-233 399.613,-253 438.387,-253 438.387,-233 399.613,-233"/>
<text text-anchor="middle" x="419" y="-239" font-family="Helvetica,sans-Serif" font-size="10.00">limits</text>
</g>
<!-- Node8&#45;&gt;Node22 -->
<g id="edge38" class="edge"><title>Node8&#45;&gt;Node22</title>
<path fill="none" stroke="midnightblue" d="M473.248,-365.627C444.832,-360.136 413.704,-348.453 396,-324 382.485,-305.333 394.732,-278.88 405.891,-261.584"/>
<polygon fill="midnightblue" stroke="midnightblue" points="409,-263.241 411.807,-253.025 403.242,-259.261 409,-263.241"/>
</g>
<!-- Node31 -->
<g id="node31" class="node"><title>Node31</title>
<polygon fill="white" stroke="#bfbfbf" points="763.761,-297 763.761,-317 824.239,-317 824.239,-297 763.761,-297"/>
<text text-anchor="middle" x="794" y="-303" font-family="Helvetica,sans-Serif" font-size="10.00">utf8/utf8.h</text>
</g>
<!-- Node8&#45;&gt;Node31 -->
<g id="edge39" class="edge"><title>Node8&#45;&gt;Node31</title>
<path fill="none" stroke="midnightblue" d="M587.511,-360.981C631.166,-352.85 695.222,-339.767 750,-324 753.652,-322.949 757.437,-321.748 761.185,-320.487"/>
<polygon fill="midnightblue" stroke="midnightblue" points="762.63,-323.69 770.904,-317.072 760.309,-317.086 762.63,-323.69"/>
</g>
<!-- Node10 -->
<g id="node10" class="node"><title>Node10</title>
<g id="a_node10"><a xlink:href="base_8h.xhtml" target="_top" xlink:title="ePub3/base.h">
<polygon fill="white" stroke="black" points="989.141,-175 989.141,-195 1066.86,-195 1066.86,-175 989.141,-175"/>
<text text-anchor="middle" x="1028" y="-181" font-family="Helvetica,sans-Serif" font-size="10.00">ePub3/base.h</text>
</a>
</g>
</g>
<!-- Node9&#45;&gt;Node10 -->
<g id="edge10" class="edge"><title>Node9&#45;&gt;Node10</title>
<path fill="none" stroke="midnightblue" d="M954.971,-296.874C971.319,-288.072 994.376,-273.259 1008,-254 1018.21,-239.573 1023.26,-219.933 1025.72,-205.469"/>
<polygon fill="midnightblue" stroke="midnightblue" points="1029.24,-205.573 1027.19,-195.178 1022.31,-204.581 1029.24,-205.573"/>
</g>
<!-- Node15 -->
<g id="node15" class="node"><title>Node15</title>
<polygon fill="white" stroke="#bfbfbf" points="815.815,-233 815.815,-253 930.185,-253 930.185,-233 815.815,-233"/>
<text text-anchor="middle" x="873" y="-239" font-family="Helvetica,sans-Serif" font-size="10.00">ePub3/xml/xmlstring.h</text>
</g>
<!-- Node9&#45;&gt;Node15 -->
<g id="edge15" class="edge"><title>Node9&#45;&gt;Node15</title>
<path fill="none" stroke="midnightblue" d="M926.704,-296.852C916.933,-287.236 901.363,-271.913 889.498,-260.236"/>
<polygon fill="midnightblue" stroke="midnightblue" points="891.916,-257.706 882.334,-253.186 887.006,-262.695 891.916,-257.706"/>
</g>
<!-- Node16 -->
<g id="node16" class="node"><title>Node16</title>
<polygon fill="white" stroke="#bfbfbf" points="948.219,-233 948.219,-253 999.781,-253 999.781,-233 948.219,-233"/>
<text text-anchor="middle" x="974" y="-239" font-family="Helvetica,sans-Serif" font-size="10.00">sstream</text>
</g>
<!-- Node9&#45;&gt;Node16 -->
<g id="edge16" class="edge"><title>Node9&#45;&gt;Node16</title>
<path fill="none" stroke="midnightblue" d="M941.607,-296.852C947.22,-287.694 956.006,-273.359 963.012,-261.928"/>
<polygon fill="midnightblue" stroke="midnightblue" points="966.128,-263.541 968.37,-253.186 960.16,-259.883 966.128,-263.541"/>
</g>
<!-- Node9&#45;&gt;Node5 -->
<g id="edge17" class="edge"><title>Node9&#45;&gt;Node5</title>
<path fill="none" stroke="midnightblue" d="M895.733,-296.953C859.259,-288.112 804.436,-273.193 759,-254 740.667,-246.256 738.902,-238.225 720,-232 601.172,-192.865 451.097,-186.548 383.244,-185.843"/>
<polygon fill="midnightblue" stroke="midnightblue" points="383.101,-182.342 373.078,-185.773 383.054,-189.341 383.101,-182.342"/>
</g>
<!-- Node9&#45;&gt;Node17 -->
<g id="edge18" class="edge"><title>Node9&#45;&gt;Node17</title>
<path fill="none" stroke="midnightblue" d="M897.981,-296.927C855.852,-286.794 785.94,-269.743 726,-254 724.549,-253.619 723.067,-253.225 721.57,-252.824"/>
<polygon fill="midnightblue" stroke="midnightblue" points="722.244,-249.38 711.675,-250.127 720.403,-256.134 722.244,-249.38"/>
</g>
<!-- Node18 -->
<g id="node18" class="node"><title>Node18</title>
<polygon fill="white" stroke="#bfbfbf" points="768.5,-233 768.5,-253 797.5,-253 797.5,-233 768.5,-233"/>
<text text-anchor="middle" x="782.611" y="-239" font-family="Helvetica,sans-Serif" font-size="10.00">list</text>
</g>
<!-- Node9&#45;&gt;Node18 -->
<g id="edge19" class="edge"><title>Node9&#45;&gt;Node18</title>
<path fill="none" stroke="midnightblue" d="M913.131,-296.875C887.319,-286.553 844.089,-269.202 807,-254 806.906,-253.961 806.812,-253.923 806.717,-253.884"/>
<polygon fill="midnightblue" stroke="midnightblue" points="808.291,-250.747 797.712,-250.162 805.617,-257.216 808.291,-250.747"/>
</g>
<!-- Node11 -->
<g id="node11" class="node"><title>Node11</title>
<g id="a_node11"><a xlink:href="__config_8h.xhtml" target="_top" xlink:title="_config.h">
<polygon fill="white" stroke="black" points="964.707,-117 964.707,-137 1021.29,-137 1021.29,-117 964.707,-117"/>
<text text-anchor="middle" x="993" y="-123" font-family="Helvetica,sans-Serif" font-size="10.00">_config.h</text>
</a>
</g>
</g>
<!-- Node10&#45;&gt;Node11 -->
<g id="edge11" class="edge"><title>Node10&#45;&gt;Node11</title>
<path fill="none" stroke="midnightblue" d="M1022.22,-174.753C1017.28,-166.843 1010.02,-155.237 1003.98,-145.568"/>
<polygon fill="midnightblue" stroke="midnightblue" points="1006.94,-143.7 998.672,-137.075 1001,-147.41 1006.94,-143.7"/>
</g>
<!-- Node14 -->
<g id="node14" class="node"><title>Node14</title>
<polygon fill="white" stroke="#bfbfbf" points="1039.16,-117 1039.16,-137 1086.84,-137 1086.84,-117 1039.16,-117"/>
<text text-anchor="middle" x="1063" y="-123" font-family="Helvetica,sans-Serif" font-size="10.00">stdlib.h</text>
</g>
<!-- Node10&#45;&gt;Node14 -->
<g id="edge14" class="edge"><title>Node10&#45;&gt;Node14</title>
<path fill="none" stroke="midnightblue" d="M1033.78,-174.753C1038.72,-166.843 1045.98,-155.237 1052.02,-145.568"/>
<polygon fill="midnightblue" stroke="midnightblue" points="1055,-147.41 1057.33,-137.075 1049.06,-143.7 1055,-147.41"/>
</g>
<!-- Node12 -->
<g id="node12" class="node"><title>Node12</title>
<g id="a_node12"><a xlink:href="__platform_8h.xhtml" target="_top" xlink:title="_platform.h">
<polygon fill="white" stroke="black" points="959.988,-59 959.988,-79 1026.01,-79 1026.01,-59 959.988,-59"/>
<text text-anchor="middle" x="993" y="-65" font-family="Helvetica,sans-Serif" font-size="10.00">_platform.h</text>
</a>
</g>
</g>
<!-- Node11&#45;&gt;Node12 -->
<g id="edge12" class="edge"><title>Node11&#45;&gt;Node12</title>
<path fill="none" stroke="midnightblue" d="M993,-116.753C993,-109.25 993,-98.4238 993,-89.0781"/>
<polygon fill="midnightblue" stroke="midnightblue" points="996.5,-89.0752 993,-79.0752 989.5,-89.0752 996.5,-89.0752"/>
</g>
<!-- Node13 -->
<g id="node13" class="node"><title>Node13</title>
<g id="a_node13"><a xlink:href="__compiler_8h.xhtml" target="_top" xlink:title="_compiler.h">
<polygon fill="white" stroke="black" points="959.429,-1 959.429,-21 1026.57,-21 1026.57,-1 959.429,-1"/>
<text text-anchor="middle" x="993" y="-7" font-family="Helvetica,sans-Serif" font-size="10.00">_compiler.h</text>
</a>
</g>
</g>
<!-- Node12&#45;&gt;Node13 -->
<g id="edge13" class="edge"><title>Node12&#45;&gt;Node13</title>
<path fill="none" stroke="midnightblue" d="M993,-58.7527C993,-51.2504 993,-40.4238 993,-31.0781"/>
<polygon fill="midnightblue" stroke="midnightblue" points="996.5,-31.0752 993,-21.0752 989.5,-31.0752 996.5,-31.0752"/>
</g>
<!-- Node19&#45;&gt;Node10 -->
<g id="edge21" class="edge"><title>Node19&#45;&gt;Node10</title>
<path fill="none" stroke="midnightblue" d="M1061.19,-290.802C1054.26,-268.926 1041.49,-228.588 1033.97,-204.845"/>
<polygon fill="midnightblue" stroke="midnightblue" points="1037.28,-203.706 1030.92,-195.229 1030.6,-205.819 1037.28,-203.706"/>
</g>
<!-- Node20&#45;&gt;Node6 -->
<g id="edge23" class="edge"><title>Node20&#45;&gt;Node6</title>
<path fill="none" stroke="midnightblue" d="M223.626,-290.992C200.031,-280.689 169.004,-267.143 146.329,-257.242"/>
<polygon fill="midnightblue" stroke="midnightblue" points="147.427,-253.903 136.862,-253.109 144.626,-260.318 147.427,-253.903"/>
</g>
<!-- Node20&#45;&gt;Node21 -->
<g id="edge24" class="edge"><title>Node20&#45;&gt;Node21</title>
<path fill="none" stroke="midnightblue" d="M310.99,-293.159C315.722,-292.069 320.445,-291.001 325,-290 395.983,-274.4 479.816,-258.097 523.716,-249.721"/>
<polygon fill="midnightblue" stroke="midnightblue" points="524.561,-253.124 533.731,-247.816 523.253,-246.247 524.561,-253.124"/>
</g>
<!-- Node20&#45;&gt;Node22 -->
<g id="edge25" class="edge"><title>Node20&#45;&gt;Node22</title>
<path fill="none" stroke="midnightblue" d="M296.974,-290.992C325.564,-279.981 363.779,-265.265 389.774,-255.255"/>
<polygon fill="midnightblue" stroke="midnightblue" points="391.355,-258.396 399.429,-251.537 388.839,-251.864 391.355,-258.396"/>
</g>
<!-- Node23 -->
<g id="node23" class="node"><title>Node23</title>
<polygon fill="white" stroke="#bfbfbf" points="240.828,-233 240.828,-253 295.172,-253 295.172,-233 240.828,-233"/>
<text text-anchor="middle" x="268" y="-239" font-family="Helvetica,sans-Serif" font-size="10.00">iostream</text>
</g>
<!-- Node20&#45;&gt;Node23 -->
<g id="edge26" class="edge"><title>Node20&#45;&gt;Node23</title>
<path fill="none" stroke="midnightblue" d="M260.421,-290.992C261.769,-282.635 263.461,-272.142 264.904,-263.194"/>
<polygon fill="midnightblue" stroke="midnightblue" points="268.364,-263.72 266.502,-253.29 261.454,-262.605 268.364,-263.72"/>
</g>
<!-- Node24 -->
<g id="node24" class="node"><title>Node24</title>
<polygon fill="white" stroke="#bfbfbf" points="165.436,-233 165.436,-253 222.564,-253 222.564,-233 165.436,-233"/>
<text text-anchor="middle" x="194" y="-239" font-family="Helvetica,sans-Serif" font-size="10.00">algorithm</text>
</g>
<!-- Node20&#45;&gt;Node24 -->
<g id="edge27" class="edge"><title>Node20&#45;&gt;Node24</title>
<path fill="none" stroke="midnightblue" d="M242.507,-290.992C232.933,-281.716 220.643,-269.811 210.83,-260.304"/>
<polygon fill="midnightblue" stroke="midnightblue" points="213.208,-257.735 203.59,-253.29 208.337,-262.762 213.208,-257.735"/>
</g>
<!-- Node25 -->
<g id="node25" class="node"><title>Node25</title>
<g id="a_node25"><a xlink:href="____strhash_8h.xhtml" target="_top" xlink:title="__strhash.h">
<polygon fill="white" stroke="black" points="312.872,-233 312.872,-253 381.128,-253 381.128,-233 312.872,-233"/>
<text text-anchor="middle" x="347" y="-239" font-family="Helvetica,sans-Serif" font-size="10.00">__strhash.h</text>
</a>
</g>
</g>
<!-- Node20&#45;&gt;Node25 -->
<g id="edge28" class="edge"><title>Node20&#45;&gt;Node25</title>
<path fill="none" stroke="midnightblue" d="M279.544,-290.992C293.471,-281.29 311.528,-268.711 325.454,-259.009"/>
<polygon fill="midnightblue" stroke="midnightblue" points="327.72,-261.697 333.925,-253.109 323.719,-255.953 327.72,-261.697"/>
</g>
<!-- Node25&#45;&gt;Node10 -->
<g id="edge29" class="edge"><title>Node25&#45;&gt;Node10</title>
<path fill="none" stroke="midnightblue" d="M381.494,-233.642C384.696,-233.023 387.901,-232.461 391,-232 608.578,-199.61 871.494,-189.796 978.802,-187.019"/>
<polygon fill="midnightblue" stroke="midnightblue" points="979.088,-190.513 988.997,-186.765 978.913,-183.515 979.088,-190.513"/>
</g>
<!-- Node25&#45;&gt;Node5 -->
<g id="edge30" class="edge"><title>Node25&#45;&gt;Node5</title>
<path fill="none" stroke="midnightblue" d="M347,-232.753C347,-225.25 347,-214.424 347,-205.078"/>
<polygon fill="midnightblue" stroke="midnightblue" points="350.5,-205.075 347,-195.075 343.5,-205.075 350.5,-205.075"/>
</g>
</g>
</svg>
