<?xml version="1.0" encoding="UTF-8" standalone="no"?>
<!DOCTYPE svg PUBLIC "-//W3C//DTD SVG 1.1//EN"
 "http://www.w3.org/Graphics/SVG/1.1/DTD/svg11.dtd">
<!-- Generated by graphviz version 2.30.0 (20130114.0426)
 -->
<!-- Title: /Users/rkwright/Documents/github/readium&#45;sdk&#45;D/ePub3/utilities/epub_locale.h Pages: 1 -->
<svg width="319pt" height="218pt"
 viewBox="0.00 0.00 319.00 218.00" xmlns="http://www.w3.org/2000/svg" xmlns:xlink="http://www.w3.org/1999/xlink">
<g id="graph0" class="graph" transform="scale(1 1) rotate(0) translate(4 214)">
<title>/Users/rkwright/Documents/github/readium&#45;sdk&#45;D/ePub3/utilities/epub_locale.h</title>
<polygon fill="white" stroke="white" points="-4,5 -4,-214 316,-214 316,5 -4,5"/>
<!-- Node1 -->
<g id="node1" class="node"><title>Node1</title>
<polygon fill="#bfbfbf" stroke="black" points="82.9658,-165 82.9658,-209 229.034,-209 229.034,-165 82.9658,-165"/>
<text text-anchor="start" x="90.9658" y="-195" font-family="Helvetica,sans-Serif" font-size="10.00">/Users/rkwright/Documents</text>
<text text-anchor="start" x="90.9658" y="-183" font-family="Helvetica,sans-Serif" font-size="10.00">/github/readium&#45;sdk&#45;D/ePub3</text>
<text text-anchor="middle" x="156" y="-171" font-family="Helvetica,sans-Serif" font-size="10.00">/utilities/epub_locale.h</text>
</g>
<!-- Node2 -->
<g id="node2" class="node"><title>Node2</title>
<g id="a_node2"><a xlink:href="property_8h.xhtml" target="_top" xlink:title="/Users/rkwright/Documents\l/github/readium&#45;sdk&#45;D/ePub3\l/ePub/property.h">
<polygon fill="white" stroke="black" points="0.96582,-83 0.96582,-127 147.034,-127 147.034,-83 0.96582,-83"/>
<text text-anchor="start" x="8.96582" y="-113" font-family="Helvetica,sans-Serif" font-size="10.00">/Users/rkwright/Documents</text>
<text text-anchor="start" x="8.96582" y="-101" font-family="Helvetica,sans-Serif" font-size="10.00">/github/readium&#45;sdk&#45;D/ePub3</text>
<text text-anchor="middle" x="74" y="-89" font-family="Helvetica,sans-Serif" font-size="10.00">/ePub/property.h</text>
</a>
</g>
</g>
<!-- Node1&#45;&gt;Node2 -->
<g id="edge1" class="edge"><title>Node1&#45;&gt;Node2</title>
<path fill="none" stroke="midnightblue" d="M127.163,-157.866C116.813,-147.768 105.326,-136.562 95.6853,-127.156"/>
<polygon fill="midnightblue" stroke="midnightblue" points="124.853,-160.503 134.455,-164.981 129.742,-155.492 124.853,-160.503"/>
</g>
<!-- Node4 -->
<g id="node4" class="node"><title>Node4</title>
<g id="a_node4"><a xlink:href="epub__locale_8cpp.xhtml" target="_top" xlink:title="/Users/rkwright/Documents\l/github/readium&#45;sdk&#45;D/ePub3\l/utilities/epub_locale.cpp">
<polygon fill="white" stroke="black" points="164.966,-83 164.966,-127 311.034,-127 311.034,-83 164.966,-83"/>
<text text-anchor="start" x="172.966" y="-113" font-family="Helvetica,sans-Serif" font-size="10.00">/Users/rkwright/Documents</text>
<text text-anchor="start" x="172.966" y="-101" font-family="Helvetica,sans-Serif" font-size="10.00">/github/readium&#45;sdk&#45;D/ePub3</text>
<text text-anchor="middle" x="238" y="-89" font-family="Helvetica,sans-Serif" font-size="10.00">/utilities/epub_locale.cpp</text>
</a>
</g>
</g>
<!-- Node1&#45;&gt;Node4 -->
<g id="edge3" class="edge"><title>Node1&#45;&gt;Node4</title>
<path fill="none" stroke="midnightblue" d="M184.837,-157.866C195.187,-147.768 206.674,-136.562 216.315,-127.156"/>
<polygon fill="midnightblue" stroke="midnightblue" points="182.258,-155.492 177.545,-164.981 187.147,-160.503 182.258,-155.492"/>
</g>
<!-- Node3 -->
<g id="node3" class="node"><title>Node3</title>
<g id="a_node3"><a xlink:href="property__extension_8cpp.xhtml" target="_top" xlink:title="/Users/rkwright/Documents\l/github/readium&#45;sdk&#45;D/ePub3\l/ePub/property_extension.cpp">
<polygon fill="white" stroke="black" points="-0.433105,-1 -0.433105,-45 148.433,-45 148.433,-1 -0.433105,-1"/>
<text text-anchor="start" x="7.56689" y="-31" font-family="Helvetica,sans-Serif" font-size="10.00">/Users/rkwright/Documents</text>
<text text-anchor="start" x="7.56689" y="-19" font-family="Helvetica,sans-Serif" font-size="10.00">/github/readium&#45;sdk&#45;D/ePub3</text>
<text text-anchor="middle" x="74" y="-7" font-family="Helvetica,sans-Serif" font-size="10.00">/ePub/property_extension.cpp</text>
</a>
</g>
</g>
<!-- Node2&#45;&gt;Node3 -->
<g id="edge2" class="edge"><title>Node2&#45;&gt;Node3</title>
<path fill="none" stroke="midnightblue" d="M74,-72.8963C74,-63.6094 74,-53.6485 74,-45.1564"/>
<polygon fill="midnightblue" stroke="midnightblue" points="70.5001,-72.9809 74,-82.9809 77.5001,-72.981 70.5001,-72.9809"/>
</g>
</g>
</svg>
