<?xml version="1.0" encoding="UTF-8" standalone="no"?>
<!DOCTYPE svg PUBLIC "-//W3C//DTD SVG 1.1//EN"
 "http://www.w3.org/Graphics/SVG/1.1/DTD/svg11.dtd">
<!-- Generated by graphviz version 2.30.0 (20130114.0426)
 -->
<!-- Title: /Users/rkwright/Documents/github/readium&#45;sdk&#45;D/ePub3/utilities/executor.h Pages: 1 -->
<svg width="775pt" height="344pt"
 viewBox="0.00 0.00 775.00 344.00" xmlns="http://www.w3.org/2000/svg" xmlns:xlink="http://www.w3.org/1999/xlink">
<g id="graph0" class="graph" transform="scale(1 1) rotate(0) translate(4 340)">
<title>/Users/rkwright/Documents/github/readium&#45;sdk&#45;D/ePub3/utilities/executor.h</title>
<polygon fill="white" stroke="white" points="-4,5 -4,-340 772,-340 772,5 -4,5"/>
<!-- Node1 -->
<g id="node1" class="node"><title>Node1</title>
<polygon fill="#bfbfbf" stroke="black" points="245.966,-291 245.966,-335 392.034,-335 392.034,-291 245.966,-291"/>
<text text-anchor="start" x="253.966" y="-321" font-family="Helvetica,sans-Serif" font-size="10.00">/Users/rkwright/Documents</text>
<text text-anchor="start" x="253.966" y="-309" font-family="Helvetica,sans-Serif" font-size="10.00">/github/readium&#45;sdk&#45;D/ePub3</text>
<text text-anchor="middle" x="319" y="-297" font-family="Helvetica,sans-Serif" font-size="10.00">/utilities/executor.h</text>
</g>
<!-- Node2 -->
<g id="node2" class="node"><title>Node2</title>
<polygon fill="white" stroke="#bfbfbf" points="-0.920898,-233 -0.920898,-253 82.9209,-253 82.9209,-233 -0.920898,-233"/>
<text text-anchor="middle" x="41" y="-239" font-family="Helvetica,sans-Serif" font-size="10.00">ePub3/epub3.h</text>
</g>
<!-- Node1&#45;&gt;Node2 -->
<g id="edge1" class="edge"><title>Node1&#45;&gt;Node2</title>
<path fill="none" stroke="midnightblue" d="M245.959,-294.134C195.917,-281.893 131.028,-266.021 87.8038,-255.448"/>
<polygon fill="midnightblue" stroke="midnightblue" points="88.3897,-251.989 77.8445,-253.012 86.7265,-258.788 88.3897,-251.989"/>
</g>
<!-- Node3 -->
<g id="node3" class="node"><title>Node3</title>
<polygon fill="white" stroke="#bfbfbf" points="306.596,-175 306.596,-195 365.404,-195 365.404,-175 306.596,-175"/>
<text text-anchor="middle" x="336" y="-181" font-family="Helvetica,sans-Serif" font-size="10.00">functional</text>
</g>
<!-- Node1&#45;&gt;Node3 -->
<g id="edge2" class="edge"><title>Node1&#45;&gt;Node3</title>
<path fill="none" stroke="midnightblue" d="M245.729,-305.661C178.391,-296.929 94.072,-276.836 130,-232 150.409,-206.532 242.149,-194.235 296.075,-189.11"/>
<polygon fill="midnightblue" stroke="midnightblue" points="296.682,-192.569 306.324,-188.179 296.048,-185.598 296.682,-192.569"/>
</g>
<!-- Node4 -->
<g id="node4" class="node"><title>Node4</title>
<polygon fill="white" stroke="#bfbfbf" points="138.712,-233 138.712,-253 185.288,-253 185.288,-233 138.712,-233"/>
<text text-anchor="middle" x="162" y="-239" font-family="Helvetica,sans-Serif" font-size="10.00">chrono</text>
</g>
<!-- Node1&#45;&gt;Node4 -->
<g id="edge3" class="edge"><title>Node1&#45;&gt;Node4</title>
<path fill="none" stroke="midnightblue" d="M270.185,-290.857C244.623,-279.786 214.136,-266.581 192.05,-257.015"/>
<polygon fill="midnightblue" stroke="midnightblue" points="193.408,-253.789 182.841,-253.027 190.626,-260.213 193.408,-253.789"/>
</g>
<!-- Node5 -->
<g id="node5" class="node"><title>Node5</title>
<polygon fill="white" stroke="#bfbfbf" points="203.096,-233 203.096,-253 246.904,-253 246.904,-233 203.096,-233"/>
<text text-anchor="middle" x="225" y="-239" font-family="Helvetica,sans-Serif" font-size="10.00">queue</text>
</g>
<!-- Node1&#45;&gt;Node5 -->
<g id="edge4" class="edge"><title>Node1&#45;&gt;Node5</title>
<path fill="none" stroke="midnightblue" d="M289.773,-290.857C275.585,-280.594 258.864,-268.497 245.965,-259.166"/>
<polygon fill="midnightblue" stroke="midnightblue" points="247.877,-256.229 237.723,-253.204 243.774,-261.901 247.877,-256.229"/>
</g>
<!-- Node6 -->
<g id="node6" class="node"><title>Node6</title>
<polygon fill="white" stroke="#bfbfbf" points="265.273,-233 265.273,-253 310.727,-253 310.727,-233 265.273,-233"/>
<text text-anchor="middle" x="288" y="-239" font-family="Helvetica,sans-Serif" font-size="10.00">atomic</text>
</g>
<!-- Node1&#45;&gt;Node6 -->
<g id="edge5" class="edge"><title>Node1&#45;&gt;Node6</title>
<path fill="none" stroke="midnightblue" d="M309.361,-290.857C305.222,-281.778 300.429,-271.264 296.433,-262.499"/>
<polygon fill="midnightblue" stroke="midnightblue" points="299.529,-260.851 292.196,-253.204 293.159,-263.755 299.529,-260.851"/>
</g>
<!-- Node7 -->
<g id="node7" class="node"><title>Node7</title>
<polygon fill="white" stroke="#bfbfbf" points="328.384,-233 328.384,-253 371.616,-253 371.616,-233 328.384,-233"/>
<text text-anchor="middle" x="350" y="-239" font-family="Helvetica,sans-Serif" font-size="10.00">mutex</text>
</g>
<!-- Node1&#45;&gt;Node7 -->
<g id="edge6" class="edge"><title>Node1&#45;&gt;Node7</title>
<path fill="none" stroke="midnightblue" d="M328.639,-290.857C332.778,-281.778 337.571,-271.264 341.567,-262.499"/>
<polygon fill="midnightblue" stroke="midnightblue" points="344.841,-263.755 345.804,-253.204 338.471,-260.851 344.841,-263.755"/>
</g>
<!-- Node8 -->
<g id="node8" class="node"><title>Node8</title>
<polygon fill="white" stroke="#bfbfbf" points="389.823,-233 389.823,-253 434.177,-253 434.177,-233 389.823,-233"/>
<text text-anchor="middle" x="412" y="-239" font-family="Helvetica,sans-Serif" font-size="10.00">thread</text>
</g>
<!-- Node1&#45;&gt;Node8 -->
<g id="edge7" class="edge"><title>Node1&#45;&gt;Node8</title>
<path fill="none" stroke="midnightblue" d="M347.916,-290.857C361.953,-280.594 378.497,-268.497 391.259,-259.166"/>
<polygon fill="midnightblue" stroke="midnightblue" points="393.406,-261.932 399.412,-253.204 389.274,-256.281 393.406,-261.932"/>
</g>
<!-- Node9 -->
<g id="node9" class="node"><title>Node9</title>
<polygon fill="white" stroke="#bfbfbf" points="451.884,-233 451.884,-253 500.116,-253 500.116,-233 451.884,-233"/>
<text text-anchor="middle" x="476" y="-239" font-family="Helvetica,sans-Serif" font-size="10.00">cassert</text>
</g>
<!-- Node1&#45;&gt;Node9 -->
<g id="edge8" class="edge"><title>Node1&#45;&gt;Node9</title>
<path fill="none" stroke="midnightblue" d="M367.815,-290.857C393.377,-279.786 423.864,-266.581 445.95,-257.015"/>
<polygon fill="midnightblue" stroke="midnightblue" points="447.374,-260.213 455.159,-253.027 444.592,-253.789 447.374,-260.213"/>
</g>
<!-- Node10 -->
<g id="node10" class="node"><title>Node10</title>
<polygon fill="white" stroke="#bfbfbf" points="517.695,-233 517.695,-253 614.305,-253 614.305,-233 517.695,-233"/>
<text text-anchor="middle" x="566" y="-239" font-family="Helvetica,sans-Serif" font-size="10.00">condition_variable</text>
</g>
<!-- Node1&#45;&gt;Node10 -->
<g id="edge9" class="edge"><title>Node1&#45;&gt;Node10</title>
<path fill="none" stroke="midnightblue" d="M392.106,-291.874C434.885,-280.096 487.403,-265.638 523.46,-255.711"/>
<polygon fill="midnightblue" stroke="midnightblue" points="524.46,-259.067 533.172,-253.038 522.602,-252.318 524.46,-259.067"/>
</g>
<!-- Node11 -->
<g id="node11" class="node"><title>Node11</title>
<g id="a_node11"><a xlink:href="invoke_8h.xhtml" target="_top" xlink:title="ePub3/utilities/invoke.h">
<polygon fill="white" stroke="black" points="631.857,-233 631.857,-253 750.143,-253 750.143,-233 631.857,-233"/>
<text text-anchor="middle" x="691" y="-239" font-family="Helvetica,sans-Serif" font-size="10.00">ePub3/utilities/invoke.h</text>
</a>
</g>
</g>
<!-- Node1&#45;&gt;Node11 -->
<g id="edge10" class="edge"><title>Node1&#45;&gt;Node11</title>
<path fill="none" stroke="midnightblue" d="M392.051,-298.647C462.047,-285.852 566.389,-266.778 631.475,-254.881"/>
<polygon fill="midnightblue" stroke="midnightblue" points="632.366,-258.276 641.573,-253.035 631.107,-251.39 632.366,-258.276"/>
</g>
<!-- Node12 -->
<g id="node12" class="node"><title>Node12</title>
<g id="a_node12"><a xlink:href="base_8h.xhtml" target="_top" xlink:title="ePub3/base.h">
<polygon fill="white" stroke="black" points="608.141,-175 608.141,-195 685.859,-195 685.859,-175 608.141,-175"/>
<text text-anchor="middle" x="647" y="-181" font-family="Helvetica,sans-Serif" font-size="10.00">ePub3/base.h</text>
</a>
</g>
</g>
<!-- Node11&#45;&gt;Node12 -->
<g id="edge11" class="edge"><title>Node11&#45;&gt;Node12</title>
<path fill="none" stroke="midnightblue" d="M683.734,-232.753C677.391,-224.68 668.023,-212.757 660.336,-202.973"/>
<polygon fill="midnightblue" stroke="midnightblue" points="663.061,-200.776 654.131,-195.075 657.557,-205.101 663.061,-200.776"/>
</g>
<!-- Node17 -->
<g id="node17" class="node"><title>Node17</title>
<polygon fill="white" stroke="#bfbfbf" points="703.934,-175 703.934,-195 766.066,-195 766.066,-175 703.934,-175"/>
<text text-anchor="middle" x="735" y="-181" font-family="Helvetica,sans-Serif" font-size="10.00">type_traits</text>
</g>
<!-- Node11&#45;&gt;Node17 -->
<g id="edge16" class="edge"><title>Node11&#45;&gt;Node17</title>
<path fill="none" stroke="midnightblue" d="M698.266,-232.753C704.609,-224.68 713.977,-212.757 721.664,-202.973"/>
<polygon fill="midnightblue" stroke="midnightblue" points="724.443,-205.101 727.869,-195.075 718.939,-200.776 724.443,-205.101"/>
</g>
<!-- Node11&#45;&gt;Node3 -->
<g id="edge17" class="edge"><title>Node11&#45;&gt;Node3</title>
<path fill="none" stroke="midnightblue" d="M633.569,-232.94C561.072,-221.504 438.271,-202.133 375.504,-192.232"/>
<polygon fill="midnightblue" stroke="midnightblue" points="376.022,-188.77 365.598,-190.669 374.931,-195.685 376.022,-188.77"/>
</g>
<!-- Node13 -->
<g id="node13" class="node"><title>Node13</title>
<g id="a_node13"><a xlink:href="__config_8h.xhtml" target="_top" xlink:title="_config.h">
<polygon fill="white" stroke="black" points="583.707,-117 583.707,-137 640.293,-137 640.293,-117 583.707,-117"/>
<text text-anchor="middle" x="612" y="-123" font-family="Helvetica,sans-Serif" font-size="10.00">_config.h</text>
</a>
</g>
</g>
<!-- Node12&#45;&gt;Node13 -->
<g id="edge12" class="edge"><title>Node12&#45;&gt;Node13</title>
<path fill="none" stroke="midnightblue" d="M641.22,-174.753C636.277,-166.843 629.023,-155.237 622.98,-145.568"/>
<polygon fill="midnightblue" stroke="midnightblue" points="625.94,-143.7 617.672,-137.075 620.004,-147.41 625.94,-143.7"/>
</g>
<!-- Node16 -->
<g id="node16" class="node"><title>Node16</title>
<polygon fill="white" stroke="#bfbfbf" points="658.158,-117 658.158,-137 705.842,-137 705.842,-117 658.158,-117"/>
<text text-anchor="middle" x="682" y="-123" font-family="Helvetica,sans-Serif" font-size="10.00">stdlib.h</text>
</g>
<!-- Node12&#45;&gt;Node16 -->
<g id="edge15" class="edge"><title>Node12&#45;&gt;Node16</title>
<path fill="none" stroke="midnightblue" d="M652.78,-174.753C657.723,-166.843 664.977,-155.237 671.02,-145.568"/>
<polygon fill="midnightblue" stroke="midnightblue" points="673.996,-147.41 676.328,-137.075 668.06,-143.7 673.996,-147.41"/>
</g>
<!-- Node14 -->
<g id="node14" class="node"><title>Node14</title>
<g id="a_node14"><a xlink:href="__platform_8h.xhtml" target="_top" xlink:title="_platform.h">
<polygon fill="white" stroke="black" points="578.988,-59 578.988,-79 645.012,-79 645.012,-59 578.988,-59"/>
<text text-anchor="middle" x="612" y="-65" font-family="Helvetica,sans-Serif" font-size="10.00">_platform.h</text>
</a>
</g>
</g>
<!-- Node13&#45;&gt;Node14 -->
<g id="edge13" class="edge"><title>Node13&#45;&gt;Node14</title>
<path fill="none" stroke="midnightblue" d="M612,-116.753C612,-109.25 612,-98.4238 612,-89.0781"/>
<polygon fill="midnightblue" stroke="midnightblue" points="615.5,-89.0752 612,-79.0752 608.5,-89.0752 615.5,-89.0752"/>
</g>
<!-- Node15 -->
<g id="node15" class="node"><title>Node15</title>
<g id="a_node15"><a xlink:href="__compiler_8h.xhtml" target="_top" xlink:title="_compiler.h">
<polygon fill="white" stroke="black" points="578.429,-1 578.429,-21 645.571,-21 645.571,-1 578.429,-1"/>
<text text-anchor="middle" x="612" y="-7" font-family="Helvetica,sans-Serif" font-size="10.00">_compiler.h</text>
</a>
</g>
</g>
<!-- Node14&#45;&gt;Node15 -->
<g id="edge14" class="edge"><title>Node14&#45;&gt;Node15</title>
<path fill="none" stroke="midnightblue" d="M612,-58.7527C612,-51.2504 612,-40.4238 612,-31.0781"/>
<polygon fill="midnightblue" stroke="midnightblue" points="615.5,-31.0752 612,-21.0752 608.5,-31.0752 615.5,-31.0752"/>
</g>
</g>
</svg>
