<?xml version="1.0" encoding="UTF-8" standalone="no"?>
<!DOCTYPE svg PUBLIC "-//W3C//DTD SVG 1.1//EN"
 "http://www.w3.org/Graphics/SVG/1.1/DTD/svg11.dtd">
<!-- Generated by graphviz version 2.30.0 (20130114.0426)
 -->
<!-- Title: /Users/rkwright/Documents/github/readium&#45;sdk&#45;D/ePub3/ePub/filter_chain_byte_stream.h Pages: 1 -->
<svg width="1509pt" height="554pt"
 viewBox="0.00 0.00 1508.64 554.00" xmlns="http://www.w3.org/2000/svg" xmlns:xlink="http://www.w3.org/1999/xlink">
<g id="graph0" class="graph" transform="scale(1 1) rotate(0) translate(4 550)">
<title>/Users/rkwright/Documents/github/readium&#45;sdk&#45;D/ePub3/ePub/filter_chain_byte_stream.h</title>
<polygon fill="white" stroke="white" points="-4,5 -4,-550 1505.64,-550 1505.64,5 -4,5"/>
<!-- Node1 -->
<g id="node1" class="node"><title>Node1</title>
<polygon fill="#bfbfbf" stroke="black" points="607.542,-501 607.542,-545 769.738,-545 769.738,-501 607.542,-501"/>
<text text-anchor="start" x="615.542" y="-531" font-family="Helvetica,sans-Serif" font-size="10.00">/Users/rkwright/Documents</text>
<text text-anchor="start" x="615.542" y="-519" font-family="Helvetica,sans-Serif" font-size="10.00">/github/readium&#45;sdk&#45;D/ePub3</text>
<text text-anchor="middle" x="688.64" y="-507" font-family="Helvetica,sans-Serif" font-size="10.00">/ePub/filter_chain_byte_stream.h</text>
</g>
<!-- Node2 -->
<g id="node2" class="node"><title>Node2</title>
<polygon fill="white" stroke="#bfbfbf" points="359.719,-303 359.719,-323 443.561,-323 443.561,-303 359.719,-303"/>
<text text-anchor="middle" x="401.64" y="-309" font-family="Helvetica,sans-Serif" font-size="10.00">ePub3/epub3.h</text>
</g>
<!-- Node1&#45;&gt;Node2 -->
<g id="edge1" class="edge"><title>Node1&#45;&gt;Node2</title>
<path fill="none" stroke="midnightblue" d="M607.494,-515.916C532.723,-508.547 429.295,-493.293 401.64,-464 368.217,-428.598 383.612,-364.903 394.347,-333.122"/>
<polygon fill="midnightblue" stroke="midnightblue" points="397.784,-333.904 397.862,-323.31 391.194,-331.543 397.784,-333.904"/>
</g>
<!-- Node3 -->
<g id="node3" class="node"><title>Node3</title>
<g id="a_node3"><a xlink:href="byte__stream_8h.xhtml" target="_top" xlink:title="ePub3/utilities/byte\l_stream.h">
<polygon fill="white" stroke="black" points="758.67,-431 758.67,-463 858.61,-463 858.61,-431 758.67,-431"/>
<text text-anchor="start" x="766.67" y="-449" font-family="Helvetica,sans-Serif" font-size="10.00">ePub3/utilities/byte</text>
<text text-anchor="middle" x="808.64" y="-437" font-family="Helvetica,sans-Serif" font-size="10.00">_stream.h</text>
</a>
</g>
</g>
<!-- Node1&#45;&gt;Node3 -->
<g id="edge2" class="edge"><title>Node1&#45;&gt;Node3</title>
<path fill="none" stroke="midnightblue" d="M722.706,-500.993C739.193,-490.825 758.915,-478.664 775.305,-468.557"/>
<polygon fill="midnightblue" stroke="midnightblue" points="777.351,-471.407 784.026,-463.179 773.677,-465.449 777.351,-471.407"/>
</g>
<!-- Node19 -->
<g id="node19" class="node"><title>Node19</title>
<g id="a_node19"><a xlink:href="run__loop_8h.xhtml" target="_top" xlink:title="ePub3/utilities/run\l_loop.h">
<polygon fill="white" stroke="black" points="410.894,-361 410.894,-393 506.386,-393 506.386,-361 410.894,-361"/>
<text text-anchor="start" x="418.894" y="-379" font-family="Helvetica,sans-Serif" font-size="10.00">ePub3/utilities/run</text>
<text text-anchor="middle" x="458.64" y="-367" font-family="Helvetica,sans-Serif" font-size="10.00">_loop.h</text>
</a>
</g>
</g>
<!-- Node1&#45;&gt;Node19 -->
<g id="edge61" class="edge"><title>Node1&#45;&gt;Node19</title>
<path fill="none" stroke="midnightblue" d="M654.703,-500.752C610.839,-473.29 534.961,-425.783 491.586,-398.627"/>
<polygon fill="midnightblue" stroke="midnightblue" points="493.18,-395.495 482.846,-393.155 489.465,-401.429 493.18,-395.495"/>
</g>
<!-- Node45 -->
<g id="node45" class="node"><title>Node45</title>
<g id="a_node45"><a xlink:href="executor_8h.xhtml" target="_top" xlink:title="ePub3/utilities/executor.h">
<polygon fill="white" stroke="black" points="1016.05,-367 1016.05,-387 1143.23,-387 1143.23,-367 1016.05,-367"/>
<text text-anchor="middle" x="1079.64" y="-373" font-family="Helvetica,sans-Serif" font-size="10.00">ePub3/utilities/executor.h</text>
</a>
</g>
</g>
<!-- Node1&#45;&gt;Node45 -->
<g id="edge62" class="edge"><title>Node1&#45;&gt;Node45</title>
<path fill="none" stroke="midnightblue" d="M757.058,-500.919C790.315,-490.363 830.757,-477.072 866.64,-464 932.411,-440.039 1008.13,-408.505 1049.23,-391.048"/>
<polygon fill="midnightblue" stroke="midnightblue" points="1050.83,-394.168 1058.66,-387.029 1048.09,-387.728 1050.83,-394.168"/>
</g>
<!-- Node49 -->
<g id="node49" class="node"><title>Node49</title>
<g id="a_node49"><a xlink:href="byte__buffer_8h.xhtml" target="_top" xlink:title="ePub3/utilities/byte\l_buffer.h">
<polygon fill="white" stroke="black" points="410.67,-431 410.67,-463 510.61,-463 510.61,-431 410.67,-431"/>
<text text-anchor="start" x="418.67" y="-449" font-family="Helvetica,sans-Serif" font-size="10.00">ePub3/utilities/byte</text>
<text text-anchor="middle" x="460.64" y="-437" font-family="Helvetica,sans-Serif" font-size="10.00">_buffer.h</text>
</a>
</g>
</g>
<!-- Node1&#45;&gt;Node49 -->
<g id="edge76" class="edge"><title>Node1&#45;&gt;Node49</title>
<path fill="none" stroke="midnightblue" d="M623.914,-500.993C590.149,-490.034 549.243,-476.757 516.822,-466.234"/>
<polygon fill="midnightblue" stroke="midnightblue" points="517.642,-462.821 507.05,-463.063 515.481,-469.479 517.642,-462.821"/>
</g>
<!-- Node12 -->
<g id="node12" class="node"><title>Node12</title>
<polygon fill="white" stroke="#bfbfbf" points="383.583,-117 383.583,-137 435.697,-137 435.697,-117 383.583,-117"/>
<text text-anchor="middle" x="409.64" y="-123" font-family="Helvetica,sans-Serif" font-size="10.00">memory</text>
</g>
<!-- Node1&#45;&gt;Node12 -->
<g id="edge78" class="edge"><title>Node1&#45;&gt;Node12</title>
<path fill="none" stroke="midnightblue" d="M607.473,-521.88C425.682,-519.42 1.63992,-500.548 1.63992,-378 1.63992,-378 1.63992,-378 1.63992,-248 1.63992,-214.044 -4.91976,-196.354 20.6399,-174 72.606,-128.552 286.824,-126.259 373.245,-127.256"/>
<polygon fill="midnightblue" stroke="midnightblue" points="373.324,-130.757 383.371,-127.395 373.42,-123.758 373.324,-130.757"/>
</g>
<!-- Node18 -->
<g id="node18" class="node"><title>Node18</title>
<polygon fill="white" stroke="#bfbfbf" points="1247.46,-303 1247.46,-323 1291.82,-323 1291.82,-303 1247.46,-303"/>
<text text-anchor="middle" x="1269.64" y="-309" font-family="Helvetica,sans-Serif" font-size="10.00">thread</text>
</g>
<!-- Node1&#45;&gt;Node18 -->
<g id="edge79" class="edge"><title>Node1&#45;&gt;Node18</title>
<path fill="none" stroke="midnightblue" d="M769.882,-516.14C875.102,-505.426 1061.06,-475.629 1196.64,-394 1223.1,-378.071 1245.66,-349.65 1258.43,-331.324"/>
<polygon fill="midnightblue" stroke="midnightblue" points="1261.34,-333.257 1264.03,-323.009 1255.54,-329.343 1261.34,-333.257"/>
</g>
<!-- Node20 -->
<g id="node20" class="node"><title>Node20</title>
<polygon fill="white" stroke="#bfbfbf" points="831.335,-303 831.335,-323 927.945,-323 927.945,-303 831.335,-303"/>
<text text-anchor="middle" x="879.64" y="-309" font-family="Helvetica,sans-Serif" font-size="10.00">condition_variable</text>
</g>
<!-- Node1&#45;&gt;Node20 -->
<g id="edge80" class="edge"><title>Node1&#45;&gt;Node20</title>
<path fill="none" stroke="midnightblue" d="M684.351,-500.948C678.737,-466.942 673.276,-399.73 707.64,-360 715.569,-350.833 778.345,-335.632 825.786,-325.232"/>
<polygon fill="midnightblue" stroke="midnightblue" points="826.622,-328.632 835.651,-323.089 825.136,-321.791 826.622,-328.632"/>
</g>
<!-- Node30 -->
<g id="node30" class="node"><title>Node30</title>
<polygon fill="white" stroke="#bfbfbf" points="487.076,-175 487.076,-195 544.204,-195 544.204,-175 487.076,-175"/>
<text text-anchor="middle" x="515.64" y="-181" font-family="Helvetica,sans-Serif" font-size="10.00">algorithm</text>
</g>
<!-- Node1&#45;&gt;Node30 -->
<g id="edge81" class="edge"><title>Node1&#45;&gt;Node30</title>
<path fill="none" stroke="midnightblue" d="M607.36,-520.602C484.406,-513.377 256.757,-478.672 174.64,-324 170.055,-315.364 169.431,-310.275 174.64,-302 207.747,-249.411 394.983,-208.561 477.072,-192.919"/>
<polygon fill="midnightblue" stroke="midnightblue" points="477.826,-196.339 487.008,-191.052 476.533,-189.459 477.826,-196.339"/>
</g>
<!-- Node42 -->
<g id="node42" class="node"><title>Node42</title>
<polygon fill="white" stroke="#bfbfbf" points="1361.25,-175 1361.25,-195 1400.03,-195 1400.03,-175 1361.25,-175"/>
<text text-anchor="middle" x="1380.64" y="-181" font-family="Helvetica,sans-Serif" font-size="10.00">utility</text>
</g>
<!-- Node1&#45;&gt;Node42 -->
<g id="edge82" class="edge"><title>Node1&#45;&gt;Node42</title>
<path fill="none" stroke="midnightblue" d="M769.971,-522.415C956.203,-521.176 1397.64,-504.859 1397.64,-378 1397.64,-378 1397.64,-378 1397.64,-312 1397.64,-273.717 1389.84,-229.473 1384.8,-204.918"/>
<polygon fill="midnightblue" stroke="midnightblue" points="1388.22,-204.169 1382.72,-195.113 1381.38,-205.621 1388.22,-204.169"/>
</g>
<!-- Node50 -->
<g id="node50" class="node"><title>Node50</title>
<polygon fill="white" stroke="#bfbfbf" points="1425.45,-437 1425.45,-457 1499.83,-457 1499.83,-437 1425.45,-437"/>
<text text-anchor="middle" x="1462.64" y="-443" font-family="Helvetica,sans-Serif" font-size="10.00">ePub3/filter.h</text>
</g>
<!-- Node1&#45;&gt;Node50 -->
<g id="edge83" class="edge"><title>Node1&#45;&gt;Node50</title>
<path fill="none" stroke="midnightblue" d="M769.95,-521.384C904.612,-519.049 1181.88,-508.67 1411.64,-464 1417.05,-462.948 1422.69,-461.524 1428.17,-459.956"/>
<polygon fill="midnightblue" stroke="midnightblue" points="1429.22,-463.295 1437.77,-457.029 1427.18,-456.599 1429.22,-463.295"/>
</g>
<!-- Node3&#45;&gt;Node2 -->
<g id="edge3" class="edge"><title>Node3&#45;&gt;Node2</title>
<path fill="none" stroke="midnightblue" d="M758.271,-443.319C704.988,-438.793 619.661,-426.635 553.64,-394 533.025,-383.81 534.222,-372.055 514.64,-360 491.543,-345.782 463.279,-334.278 440.797,-326.331"/>
<polygon fill="midnightblue" stroke="midnightblue" points="441.826,-322.984 431.231,-323.039 439.548,-329.603 441.826,-322.984"/>
</g>
<!-- Node4 -->
<g id="node4" class="node"><title>Node4</title>
<g id="a_node4"><a xlink:href="ring__buffer_8h.xhtml" target="_top" xlink:title="ePub3/utilities/ring\l_buffer.h">
<polygon fill="white" stroke="black" points="562.783,-361 562.783,-393 660.497,-393 660.497,-361 562.783,-361"/>
<text text-anchor="start" x="570.783" y="-379" font-family="Helvetica,sans-Serif" font-size="10.00">ePub3/utilities/ring</text>
<text text-anchor="middle" x="611.64" y="-367" font-family="Helvetica,sans-Serif" font-size="10.00">_buffer.h</text>
</a>
</g>
</g>
<!-- Node3&#45;&gt;Node4 -->
<g id="edge4" class="edge"><title>Node3&#45;&gt;Node4</title>
<path fill="none" stroke="midnightblue" d="M764.919,-430.909C735.334,-420.696 696.08,-407.147 664.704,-396.316"/>
<polygon fill="midnightblue" stroke="midnightblue" points="665.833,-393.004 655.238,-393.049 663.549,-399.621 665.833,-393.004"/>
</g>
<!-- Node16 -->
<g id="node16" class="node"><title>Node16</title>
<polygon fill="white" stroke="#bfbfbf" points="1187.24,-239 1187.24,-259 1246.04,-259 1246.04,-239 1187.24,-239"/>
<text text-anchor="middle" x="1216.64" y="-245" font-family="Helvetica,sans-Serif" font-size="10.00">functional</text>
</g>
<!-- Node3&#45;&gt;Node16 -->
<g id="edge17" class="edge"><title>Node3&#45;&gt;Node16</title>
<path fill="none" stroke="midnightblue" d="M858.794,-446.475C934.487,-445.62 1081.32,-437.78 1196.64,-394 1248.73,-374.225 1274.46,-373.182 1300.64,-324 1305.23,-315.369 1305.4,-310.542 1300.64,-302 1294.4,-290.79 1266.76,-274.921 1244.86,-263.667"/>
<polygon fill="midnightblue" stroke="midnightblue" points="1246.42,-260.531 1235.91,-259.154 1243.27,-266.782 1246.42,-260.531"/>
</g>
<!-- Node17 -->
<g id="node17" class="node"><title>Node17</title>
<polygon fill="white" stroke="#bfbfbf" points="836.14,-367 836.14,-387 865.14,-387 865.14,-367 836.14,-367"/>
<text text-anchor="middle" x="850.532" y="-373" font-family="Helvetica,sans-Serif" font-size="10.00">ios</text>
</g>
<!-- Node3&#45;&gt;Node17 -->
<g id="edge18" class="edge"><title>Node3&#45;&gt;Node17</title>
<path fill="none" stroke="midnightblue" d="M817.961,-430.909C824.391,-420.498 832.963,-406.62 839.714,-395.689"/>
<polygon fill="midnightblue" stroke="midnightblue" points="842.802,-397.351 845.079,-387.004 836.846,-393.672 842.802,-397.351"/>
</g>
<!-- Node3&#45;&gt;Node18 -->
<g id="edge19" class="edge"><title>Node3&#45;&gt;Node18</title>
<path fill="none" stroke="midnightblue" d="M858.691,-445.281C927.114,-442.786 1052.65,-432.75 1151.64,-394 1190.71,-378.708 1229.77,-348.595 1251.71,-329.991"/>
<polygon fill="midnightblue" stroke="midnightblue" points="1254.23,-332.441 1259.5,-323.252 1249.65,-327.146 1254.23,-332.441"/>
</g>
<!-- Node3&#45;&gt;Node19 -->
<g id="edge20" class="edge"><title>Node3&#45;&gt;Node19</title>
<path fill="none" stroke="midnightblue" d="M758.47,-438.097C700.831,-428.75 603.526,-412.152 520.64,-394 519.357,-393.719 518.061,-393.43 516.755,-393.134"/>
<polygon fill="midnightblue" stroke="midnightblue" points="517.155,-389.633 506.62,-390.755 515.555,-396.448 517.155,-389.633"/>
</g>
<!-- Node40 -->
<g id="node40" class="node"><title>Node40</title>
<g id="a_node40"><a xlink:href="make__unique_8h.xhtml" target="_top" xlink:title="ePub3/utilities/make\l_unique.h">
<polygon fill="white" stroke="black" points="1263.89,-233 1263.89,-265 1369.39,-265 1369.39,-233 1263.89,-233"/>
<text text-anchor="start" x="1271.89" y="-251" font-family="Helvetica,sans-Serif" font-size="10.00">ePub3/utilities/make</text>
<text text-anchor="middle" x="1316.64" y="-239" font-family="Helvetica,sans-Serif" font-size="10.00">_unique.h</text>
</a>
</g>
</g>
<!-- Node3&#45;&gt;Node40 -->
<g id="edge53" class="edge"><title>Node3&#45;&gt;Node40</title>
<path fill="none" stroke="midnightblue" d="M858.816,-444.323C959.437,-440.278 1182.02,-427.699 1249.64,-394 1288.18,-374.791 1300.6,-363.965 1316.64,-324 1322.84,-308.554 1322.77,-289.789 1321.18,-275.021"/>
<polygon fill="midnightblue" stroke="midnightblue" points="1324.64,-274.514 1319.82,-265.078 1317.71,-275.459 1324.64,-274.514"/>
</g>
<!-- Node43 -->
<g id="node43" class="node"><title>Node43</title>
<polygon fill="white" stroke="#bfbfbf" points="882.884,-367 882.884,-387 998.396,-387 998.396,-367 882.884,-367"/>
<text text-anchor="middle" x="940.64" y="-373" font-family="Helvetica,sans-Serif" font-size="10.00">google&#45;url/url_canon.h</text>
</g>
<!-- Node3&#45;&gt;Node43 -->
<g id="edge59" class="edge"><title>Node3&#45;&gt;Node43</title>
<path fill="none" stroke="midnightblue" d="M837.935,-430.909C860.695,-419.184 891.994,-403.06 914.04,-391.703"/>
<polygon fill="midnightblue" stroke="midnightblue" points="915.876,-394.695 923.162,-387.004 912.67,-388.472 915.876,-394.695"/>
</g>
<!-- Node44 -->
<g id="node44" class="node"><title>Node44</title>
<polygon fill="white" stroke="#bfbfbf" points="717.116,-367 717.116,-387 818.164,-387 818.164,-367 717.116,-367"/>
<text text-anchor="middle" x="767.64" y="-373" font-family="Helvetica,sans-Serif" font-size="10.00">google&#45;url/url_util.h</text>
</g>
<!-- Node3&#45;&gt;Node44 -->
<g id="edge60" class="edge"><title>Node3&#45;&gt;Node44</title>
<path fill="none" stroke="midnightblue" d="M799.541,-430.909C793.264,-420.498 784.896,-406.62 778.306,-395.689"/>
<polygon fill="midnightblue" stroke="midnightblue" points="781.229,-393.76 773.069,-387.004 775.235,-397.375 781.229,-393.76"/>
</g>
<!-- Node4&#45;&gt;Node2 -->
<g id="edge5" class="edge"><title>Node4&#45;&gt;Node2</title>
<path fill="none" stroke="midnightblue" d="M562.669,-361.542C525.936,-350.697 476.265,-336.032 441.845,-325.87"/>
<polygon fill="midnightblue" stroke="midnightblue" points="442.707,-322.475 432.125,-323 440.725,-329.189 442.707,-322.475"/>
</g>
<!-- Node5 -->
<g id="node5" class="node"><title>Node5</title>
<g id="a_node5"><a xlink:href="basic_8h.xhtml" target="_top" xlink:title="ePub3/utilities/basic.h">
<polygon fill="white" stroke="black" points="85.2781,-239 85.2781,-259 198.002,-259 198.002,-239 85.2781,-239"/>
<text text-anchor="middle" x="141.64" y="-245" font-family="Helvetica,sans-Serif" font-size="10.00">ePub3/utilities/basic.h</text>
</a>
</g>
</g>
<!-- Node4&#45;&gt;Node5 -->
<g id="edge6" class="edge"><title>Node4&#45;&gt;Node5</title>
<path fill="none" stroke="midnightblue" d="M573.828,-360.979C549.725,-351.104 517.995,-337.544 490.64,-324 472.805,-315.169 470.402,-308.635 451.64,-302 370.86,-273.434 272.558,-260.348 208.614,-254.499"/>
<polygon fill="midnightblue" stroke="midnightblue" points="208.531,-250.978 198.263,-253.588 207.918,-257.951 208.531,-250.978"/>
</g>
<!-- Node15 -->
<g id="node15" class="node"><title>Node15</title>
<polygon fill="white" stroke="#bfbfbf" points="770.024,-303 770.024,-323 813.256,-323 813.256,-303 770.024,-303"/>
<text text-anchor="middle" x="791.64" y="-309" font-family="Helvetica,sans-Serif" font-size="10.00">mutex</text>
</g>
<!-- Node4&#45;&gt;Node15 -->
<g id="edge16" class="edge"><title>Node4&#45;&gt;Node15</title>
<path fill="none" stroke="midnightblue" d="M655.213,-360.992C687.602,-349.835 731.038,-334.874 760.115,-324.859"/>
<polygon fill="midnightblue" stroke="midnightblue" points="761.445,-328.102 769.76,-321.537 759.165,-321.484 761.445,-328.102"/>
</g>
<!-- Node6 -->
<g id="node6" class="node"><title>Node6</title>
<g id="a_node6"><a xlink:href="base_8h.xhtml" target="_top" xlink:title="ePub3/base.h">
<polygon fill="white" stroke="black" points="818.781,-117 818.781,-137 896.499,-137 896.499,-117 818.781,-117"/>
<text text-anchor="middle" x="857.64" y="-123" font-family="Helvetica,sans-Serif" font-size="10.00">ePub3/base.h</text>
</a>
</g>
</g>
<!-- Node5&#45;&gt;Node6 -->
<g id="edge7" class="edge"><title>Node5&#45;&gt;Node6</title>
<path fill="none" stroke="midnightblue" d="M178.984,-238.933C213.407,-229.98 265.536,-214.905 308.64,-196 326.512,-188.162 328.039,-179.903 346.64,-174 431.87,-146.953 697.72,-134.037 808.456,-129.723"/>
<polygon fill="midnightblue" stroke="midnightblue" points="808.818,-133.211 818.677,-129.332 808.55,-126.216 808.818,-133.211"/>
</g>
<!-- Node10 -->
<g id="node10" class="node"><title>Node10</title>
<polygon fill="white" stroke="#bfbfbf" points="185.455,-175 185.455,-195 299.824,-195 299.824,-175 185.455,-175"/>
<text text-anchor="middle" x="242.64" y="-181" font-family="Helvetica,sans-Serif" font-size="10.00">ePub3/xml/xmlstring.h</text>
</g>
<!-- Node5&#45;&gt;Node10 -->
<g id="edge11" class="edge"><title>Node5&#45;&gt;Node10</title>
<path fill="none" stroke="midnightblue" d="M156.543,-238.852C173.028,-228.732 199.81,-212.292 219.129,-200.432"/>
<polygon fill="midnightblue" stroke="midnightblue" points="220.985,-203.4 227.676,-195.186 217.322,-197.435 220.985,-203.4"/>
</g>
<!-- Node11 -->
<g id="node11" class="node"><title>Node11</title>
<polygon fill="white" stroke="#bfbfbf" points="115.859,-175 115.859,-195 167.421,-195 167.421,-175 115.859,-175"/>
<text text-anchor="middle" x="141.64" y="-181" font-family="Helvetica,sans-Serif" font-size="10.00">sstream</text>
</g>
<!-- Node5&#45;&gt;Node11 -->
<g id="edge12" class="edge"><title>Node5&#45;&gt;Node11</title>
<path fill="none" stroke="midnightblue" d="M141.64,-238.852C141.64,-230.06 141.64,-216.498 141.64,-205.313"/>
<polygon fill="midnightblue" stroke="midnightblue" points="145.14,-205.186 141.64,-195.186 138.14,-205.186 145.14,-205.186"/>
</g>
<!-- Node5&#45;&gt;Node12 -->
<g id="edge13" class="edge"><title>Node5&#45;&gt;Node12</title>
<path fill="none" stroke="midnightblue" d="M131.355,-238.924C115.693,-224.026 89.4081,-194.045 106.64,-174 140.691,-134.39 300.746,-128.48 373.494,-127.877"/>
<polygon fill="midnightblue" stroke="midnightblue" points="373.587,-131.376 383.568,-127.823 373.549,-124.377 373.587,-131.376"/>
</g>
<!-- Node13 -->
<g id="node13" class="node"><title>Node13</title>
<polygon fill="white" stroke="#bfbfbf" points="356.024,-175 356.024,-195 399.256,-195 399.256,-175 356.024,-175"/>
<text text-anchor="middle" x="377.64" y="-181" font-family="Helvetica,sans-Serif" font-size="10.00">vector</text>
</g>
<!-- Node5&#45;&gt;Node13 -->
<g id="edge14" class="edge"><title>Node5&#45;&gt;Node13</title>
<path fill="none" stroke="midnightblue" d="M177.092,-238.972C217.107,-228.737 284.127,-211.463 341.64,-196 343.089,-195.611 344.569,-195.21 346.064,-194.803"/>
<polygon fill="midnightblue" stroke="midnightblue" points="347.238,-198.11 355.954,-192.087 345.384,-191.36 347.238,-198.11"/>
</g>
<!-- Node14 -->
<g id="node14" class="node"><title>Node14</title>
<polygon fill="white" stroke="#bfbfbf" points="30.1399,-175 30.1399,-195 59.1399,-195 59.1399,-175 30.1399,-175"/>
<text text-anchor="middle" x="44.2508" y="-181" font-family="Helvetica,sans-Serif" font-size="10.00">list</text>
</g>
<!-- Node5&#45;&gt;Node14 -->
<g id="edge15" class="edge"><title>Node5&#45;&gt;Node14</title>
<path fill="none" stroke="midnightblue" d="M127.327,-238.852C111.567,-228.778 86.0066,-212.441 67.472,-200.594"/>
<polygon fill="midnightblue" stroke="midnightblue" points="69.3222,-197.622 59.0113,-195.186 65.5522,-203.521 69.3222,-197.622"/>
</g>
<!-- Node7 -->
<g id="node7" class="node"><title>Node7</title>
<g id="a_node7"><a xlink:href="__config_8h.xhtml" target="_top" xlink:title="_config.h">
<polygon fill="white" stroke="black" points="794.347,-59 794.347,-79 850.933,-79 850.933,-59 794.347,-59"/>
<text text-anchor="middle" x="822.64" y="-65" font-family="Helvetica,sans-Serif" font-size="10.00">_config.h</text>
</a>
</g>
</g>
<!-- Node6&#45;&gt;Node7 -->
<g id="edge8" class="edge"><title>Node6&#45;&gt;Node7</title>
<path fill="none" stroke="midnightblue" d="M851.86,-116.753C846.917,-108.843 839.663,-97.2372 833.62,-87.5683"/>
<polygon fill="midnightblue" stroke="midnightblue" points="836.58,-85.7002 828.312,-79.0752 830.644,-89.4102 836.58,-85.7002"/>
</g>
<!-- Node9 -->
<g id="node9" class="node"><title>Node9</title>
<polygon fill="white" stroke="#bfbfbf" points="868.798,-59 868.798,-79 916.482,-79 916.482,-59 868.798,-59"/>
<text text-anchor="middle" x="892.64" y="-65" font-family="Helvetica,sans-Serif" font-size="10.00">stdlib.h</text>
</g>
<!-- Node6&#45;&gt;Node9 -->
<g id="edge10" class="edge"><title>Node6&#45;&gt;Node9</title>
<path fill="none" stroke="midnightblue" d="M863.419,-116.753C868.363,-108.843 875.617,-97.2372 881.66,-87.5683"/>
<polygon fill="midnightblue" stroke="midnightblue" points="884.636,-89.4102 886.968,-79.0752 878.7,-85.7002 884.636,-89.4102"/>
</g>
<!-- Node8 -->
<g id="node8" class="node"><title>Node8</title>
<g id="a_node8"><a xlink:href="__platform_8h.xhtml" target="_top" xlink:title="_platform.h">
<polygon fill="white" stroke="red" points="789.628,-1 789.628,-21 855.652,-21 855.652,-1 789.628,-1"/>
<text text-anchor="middle" x="822.64" y="-7" font-family="Helvetica,sans-Serif" font-size="10.00">_platform.h</text>
</a>
</g>
</g>
<!-- Node7&#45;&gt;Node8 -->
<g id="edge9" class="edge"><title>Node7&#45;&gt;Node8</title>
<path fill="none" stroke="midnightblue" d="M822.64,-58.7527C822.64,-51.2504 822.64,-40.4238 822.64,-31.0781"/>
<polygon fill="midnightblue" stroke="midnightblue" points="826.14,-31.0752 822.64,-21.0752 819.14,-31.0752 826.14,-31.0752"/>
</g>
<!-- Node19&#45;&gt;Node6 -->
<g id="edge21" class="edge"><title>Node19&#45;&gt;Node6</title>
<path fill="none" stroke="midnightblue" d="M411.249,-360.902C390.727,-352.547 367.579,-340.461 350.64,-324 319.797,-294.027 296.056,-267.289 320.64,-232 325.955,-224.37 468.602,-176.185 477.64,-174 594.153,-145.836 735.133,-134.524 808.255,-130.298"/>
<polygon fill="midnightblue" stroke="midnightblue" points="808.751,-133.776 818.54,-129.725 808.361,-126.787 808.751,-133.776"/>
</g>
<!-- Node19&#45;&gt;Node20 -->
<g id="edge22" class="edge"><title>Node19&#45;&gt;Node20</title>
<path fill="none" stroke="midnightblue" d="M506.432,-367.631C521.518,-365.075 538.26,-362.327 553.64,-360 669.335,-342.492 701.184,-342.215 821.286,-324.003"/>
<polygon fill="midnightblue" stroke="midnightblue" points="821.884,-327.452 831.241,-322.483 820.828,-320.532 821.884,-327.452"/>
</g>
<!-- Node21 -->
<g id="node21" class="node"><title>Node21</title>
<polygon fill="white" stroke="#bfbfbf" points="183.512,-303 183.512,-323 241.768,-323 241.768,-303 183.512,-303"/>
<text text-anchor="middle" x="212.64" y="-309" font-family="Helvetica,sans-Serif" font-size="10.00">pthread.h</text>
</g>
<!-- Node19&#45;&gt;Node21 -->
<g id="edge23" class="edge"><title>Node19&#45;&gt;Node21</title>
<path fill="none" stroke="midnightblue" d="M410.681,-364.189C370.72,-354.307 312.035,-339.702 252.106,-324.357"/>
<polygon fill="midnightblue" stroke="midnightblue" points="252.645,-320.882 242.089,-321.788 250.906,-327.663 252.645,-320.882"/>
</g>
<!-- Node22 -->
<g id="node22" class="node"><title>Node22</title>
<polygon fill="white" stroke="#bfbfbf" points="260.024,-303 260.024,-323 303.256,-323 303.256,-303 260.024,-303"/>
<text text-anchor="middle" x="281.64" y="-309" font-family="Helvetica,sans-Serif" font-size="10.00">time.h</text>
</g>
<!-- Node19&#45;&gt;Node22 -->
<g id="edge24" class="edge"><title>Node19&#45;&gt;Node22</title>
<path fill="none" stroke="midnightblue" d="M415.793,-360.992C384.127,-349.899 341.722,-335.046 313.134,-325.032"/>
<polygon fill="midnightblue" stroke="midnightblue" points="314.233,-321.708 303.638,-321.706 311.919,-328.315 314.233,-321.708"/>
</g>
<!-- Node19&#45;&gt;Node2 -->
<g id="edge25" class="edge"><title>Node19&#45;&gt;Node2</title>
<path fill="none" stroke="midnightblue" d="M444.842,-360.992C436.483,-351.9 425.802,-340.281 417.151,-330.872"/>
<polygon fill="midnightblue" stroke="midnightblue" points="419.526,-328.283 410.181,-323.29 414.373,-333.021 419.526,-328.283"/>
</g>
<!-- Node19&#45;&gt;Node5 -->
<g id="edge26" class="edge"><title>Node19&#45;&gt;Node5</title>
<path fill="none" stroke="midnightblue" d="M410.743,-372.592C339.621,-366.659 210.599,-352.267 174.64,-324 157.494,-310.522 149.013,-286.228 144.989,-269.161"/>
<polygon fill="midnightblue" stroke="midnightblue" points="148.379,-268.27 142.943,-259.177 141.522,-269.676 148.379,-268.27"/>
</g>
<!-- Node23 -->
<g id="node23" class="node"><title>Node23</title>
<g id="a_node23"><a xlink:href="utfstring_8h.xhtml" target="_top" xlink:title="ePub3/utilities/utfstring.h">
<polygon fill="white" stroke="black" points="499.165,-303 499.165,-323 624.115,-323 624.115,-303 499.165,-303"/>
<text text-anchor="middle" x="561.64" y="-309" font-family="Helvetica,sans-Serif" font-size="10.00">ePub3/utilities/utfstring.h</text>
</a>
</g>
</g>
<!-- Node19&#45;&gt;Node23 -->
<g id="edge27" class="edge"><title>Node19&#45;&gt;Node23</title>
<path fill="none" stroke="midnightblue" d="M483.573,-360.992C499.997,-351.105 521.385,-338.231 537.621,-328.458"/>
<polygon fill="midnightblue" stroke="midnightblue" points="539.745,-331.265 546.508,-323.109 536.135,-325.267 539.745,-331.265"/>
</g>
<!-- Node38 -->
<g id="node38" class="node"><title>Node38</title>
<polygon fill="white" stroke="#bfbfbf" points="642.352,-303 642.352,-323 688.928,-323 688.928,-303 642.352,-303"/>
<text text-anchor="middle" x="665.64" y="-309" font-family="Helvetica,sans-Serif" font-size="10.00">chrono</text>
</g>
<!-- Node19&#45;&gt;Node38 -->
<g id="edge49" class="edge"><title>Node19&#45;&gt;Node38</title>
<path fill="none" stroke="midnightblue" d="M506.66,-361.703C539.425,-351.936 584.066,-338.604 632.477,-324.041"/>
<polygon fill="midnightblue" stroke="midnightblue" points="633.64,-327.346 642.207,-321.113 631.623,-320.643 633.64,-327.346"/>
</g>
<!-- Node19&#45;&gt;Node14 -->
<g id="edge50" class="edge"><title>Node19&#45;&gt;Node14</title>
<path fill="none" stroke="midnightblue" d="M410.691,-374.78C348.89,-371.675 239.215,-360.911 153.64,-324 114.299,-307.031 102.666,-300.033 76.6399,-266 62.6262,-247.675 53.8837,-222.396 49.1471,-205.192"/>
<polygon fill="midnightblue" stroke="midnightblue" points="52.4628,-204.03 46.5979,-195.206 45.6803,-205.761 52.4628,-204.03"/>
</g>
<!-- Node19&#45;&gt;Node15 -->
<g id="edge51" class="edge"><title>Node19&#45;&gt;Node15</title>
<path fill="none" stroke="midnightblue" d="M506.386,-367.961C580.374,-355.48 717.879,-332.184 759.715,-323.694"/>
<polygon fill="midnightblue" stroke="midnightblue" points="760.72,-327.057 769.735,-321.49 759.216,-320.22 760.72,-327.057"/>
</g>
<!-- Node39 -->
<g id="node39" class="node"><title>Node39</title>
<polygon fill="white" stroke="#bfbfbf" points="706.913,-303 706.913,-323 752.366,-323 752.366,-303 706.913,-303"/>
<text text-anchor="middle" x="729.64" y="-309" font-family="Helvetica,sans-Serif" font-size="10.00">atomic</text>
</g>
<!-- Node19&#45;&gt;Node39 -->
<g id="edge52" class="edge"><title>Node19&#45;&gt;Node39</title>
<path fill="none" stroke="midnightblue" d="M506.551,-366.876C552.841,-357.77 625.101,-342.794 696.563,-324.115"/>
<polygon fill="midnightblue" stroke="midnightblue" points="697.863,-327.392 706.639,-321.456 696.077,-320.624 697.863,-327.392"/>
</g>
<!-- Node23&#45;&gt;Node5 -->
<g id="edge28" class="edge"><title>Node23&#45;&gt;Node5</title>
<path fill="none" stroke="midnightblue" d="M500.568,-302.985C422.678,-291.487 288.471,-271.675 208.087,-259.809"/>
<polygon fill="midnightblue" stroke="midnightblue" points="208.481,-256.329 198.077,-258.331 207.458,-263.254 208.481,-256.329"/>
</g>
<!-- Node24 -->
<g id="node24" class="node"><title>Node24</title>
<g id="a_node24"><a xlink:href="integer__sequence_8h.xhtml" target="_top" xlink:title="ePub3/utilities/integer\l_sequence.h">
<polygon fill="white" stroke="black" points="981.832,-233 981.832,-265 1093.45,-265 1093.45,-233 981.832,-233"/>
<text text-anchor="start" x="989.832" y="-251" font-family="Helvetica,sans-Serif" font-size="10.00">ePub3/utilities/integer</text>
<text text-anchor="middle" x="1037.64" y="-239" font-family="Helvetica,sans-Serif" font-size="10.00">_sequence.h</text>
</a>
</g>
</g>
<!-- Node23&#45;&gt;Node24 -->
<g id="edge29" class="edge"><title>Node23&#45;&gt;Node24</title>
<path fill="none" stroke="midnightblue" d="M624.453,-303.155C627.558,-302.755 630.634,-302.368 633.64,-302 780.798,-283.972 821.66,-291.811 971.68,-266.023"/>
<polygon fill="midnightblue" stroke="midnightblue" points="972.471,-269.438 981.722,-264.275 971.27,-262.541 972.471,-269.438"/>
</g>
<!-- Node25 -->
<g id="node25" class="node"><title>Node25</title>
<g id="a_node25"><a xlink:href="string__view_8h.xhtml" target="_top" xlink:title="ePub3/utilities/string\l_view.h">
<polygon fill="white" stroke="black" points="754.894,-233 754.894,-265 860.386,-265 860.386,-233 754.894,-233"/>
<text text-anchor="start" x="762.894" y="-251" font-family="Helvetica,sans-Serif" font-size="10.00">ePub3/utilities/string</text>
<text text-anchor="middle" x="807.64" y="-239" font-family="Helvetica,sans-Serif" font-size="10.00">_view.h</text>
</a>
</g>
</g>
<!-- Node23&#45;&gt;Node25 -->
<g id="edge31" class="edge"><title>Node23&#45;&gt;Node25</title>
<path fill="none" stroke="midnightblue" d="M598.317,-302.918C633.436,-294.201 688.178,-280.565 745.002,-266.152"/>
<polygon fill="midnightblue" stroke="midnightblue" points="746.051,-269.497 754.882,-263.644 744.328,-262.713 746.051,-269.497"/>
</g>
<!-- Node27 -->
<g id="node27" class="node"><title>Node27</title>
<polygon fill="white" stroke="#bfbfbf" points="860.413,-175 860.413,-195 900.866,-195 900.866,-175 860.413,-175"/>
<text text-anchor="middle" x="880.64" y="-181" font-family="Helvetica,sans-Serif" font-size="10.00">string</text>
</g>
<!-- Node23&#45;&gt;Node27 -->
<g id="edge40" class="edge"><title>Node23&#45;&gt;Node27</title>
<path fill="none" stroke="midnightblue" d="M624.326,-303.077C713.488,-290.319 866.481,-268.158 868.64,-266 884.349,-250.294 885.227,-223.456 883.604,-205.238"/>
<polygon fill="midnightblue" stroke="midnightblue" points="887.063,-204.689 882.381,-195.185 880.115,-205.535 887.063,-204.689"/>
</g>
<!-- Node32 -->
<g id="node32" class="node"><title>Node32</title>
<polygon fill="white" stroke="#bfbfbf" points="917.078,-239 917.078,-259 964.201,-259 964.201,-239 917.078,-239"/>
<text text-anchor="middle" x="940.64" y="-245" font-family="Helvetica,sans-Serif" font-size="10.00">iterator</text>
</g>
<!-- Node23&#45;&gt;Node32 -->
<g id="edge41" class="edge"><title>Node23&#45;&gt;Node32</title>
<path fill="none" stroke="midnightblue" d="M624.466,-303.255C627.568,-302.83 630.639,-302.409 633.64,-302 753.155,-285.703 786.254,-297.683 902.64,-266 905.817,-265.135 909.079,-264.064 912.294,-262.89"/>
<polygon fill="midnightblue" stroke="midnightblue" points="913.666,-266.111 921.659,-259.156 911.074,-259.608 913.666,-266.111"/>
</g>
<!-- Node33 -->
<g id="node33" class="node"><title>Node33</title>
<polygon fill="white" stroke="#bfbfbf" points="329.576,-239 329.576,-259 371.704,-259 371.704,-239 329.576,-239"/>
<text text-anchor="middle" x="350.64" y="-245" font-family="Helvetica,sans-Serif" font-size="10.00">locale</text>
</g>
<!-- Node23&#45;&gt;Node33 -->
<g id="edge42" class="edge"><title>Node23&#45;&gt;Node33</title>
<path fill="none" stroke="midnightblue" d="M518.696,-302.967C482.669,-294.87 430.117,-281.844 385.64,-266 383.217,-265.137 380.731,-264.171 378.256,-263.154"/>
<polygon fill="midnightblue" stroke="midnightblue" points="379.485,-259.872 368.92,-259.079 376.685,-266.287 379.485,-259.872"/>
</g>
<!-- Node23&#45;&gt;Node13 -->
<g id="edge43" class="edge"><title>Node23&#45;&gt;Node13</title>
<path fill="none" stroke="midnightblue" d="M504.519,-302.965C435.132,-291.717 326.528,-273.118 320.64,-266 311.008,-254.356 314.123,-245.634 320.64,-232 326.977,-218.743 339.205,-208.082 350.716,-200.375"/>
<polygon fill="midnightblue" stroke="midnightblue" points="352.621,-203.312 359.269,-195.062 348.928,-197.365 352.621,-203.312"/>
</g>
<!-- Node34 -->
<g id="node34" class="node"><title>Node34</title>
<polygon fill="white" stroke="#bfbfbf" points="427.406,-239 427.406,-259 527.874,-259 527.874,-239 427.406,-239"/>
<text text-anchor="middle" x="477.64" y="-245" font-family="Helvetica,sans-Serif" font-size="10.00">REGEX_INCLUDE</text>
</g>
<!-- Node23&#45;&gt;Node34 -->
<g id="edge44" class="edge"><title>Node23&#45;&gt;Node34</title>
<path fill="none" stroke="midnightblue" d="M549.245,-302.852C535.845,-292.961 514.265,-277.033 498.293,-265.244"/>
<polygon fill="midnightblue" stroke="midnightblue" points="500.21,-262.308 490.085,-259.186 496.053,-267.94 500.21,-262.308"/>
</g>
<!-- Node35 -->
<g id="node35" class="node"><title>Node35</title>
<polygon fill="white" stroke="#bfbfbf" points="545.913,-239 545.913,-259 581.366,-259 581.366,-239 545.913,-239"/>
<text text-anchor="middle" x="563.64" y="-245" font-family="Helvetica,sans-Serif" font-size="10.00">map</text>
</g>
<!-- Node23&#45;&gt;Node35 -->
<g id="edge45" class="edge"><title>Node23&#45;&gt;Node35</title>
<path fill="none" stroke="midnightblue" d="M561.935,-302.852C562.219,-294.06 562.656,-280.498 563.017,-269.313"/>
<polygon fill="midnightblue" stroke="midnightblue" points="566.519,-269.294 563.344,-259.186 559.523,-269.068 566.519,-269.294"/>
</g>
<!-- Node36 -->
<g id="node36" class="node"><title>Node36</title>
<polygon fill="white" stroke="#bfbfbf" points="599.239,-239 599.239,-259 658.041,-259 658.041,-239 599.239,-239"/>
<text text-anchor="middle" x="628.64" y="-245" font-family="Helvetica,sans-Serif" font-size="10.00">stdexcept</text>
</g>
<!-- Node23&#45;&gt;Node36 -->
<g id="edge46" class="edge"><title>Node23&#45;&gt;Node36</title>
<path fill="none" stroke="midnightblue" d="M571.526,-302.852C581.917,-293.236 598.476,-277.913 611.095,-266.236"/>
<polygon fill="midnightblue" stroke="midnightblue" points="613.751,-268.547 618.713,-259.186 608.996,-263.409 613.751,-268.547"/>
</g>
<!-- Node28 -->
<g id="node28" class="node"><title>Node28</title>
<polygon fill="white" stroke="#bfbfbf" points="615.253,-175 615.253,-195 654.027,-195 654.027,-175 615.253,-175"/>
<text text-anchor="middle" x="634.64" y="-181" font-family="Helvetica,sans-Serif" font-size="10.00">limits</text>
</g>
<!-- Node23&#45;&gt;Node28 -->
<g id="edge47" class="edge"><title>Node23&#45;&gt;Node28</title>
<path fill="none" stroke="midnightblue" d="M513.946,-302.92C476.961,-294.796 430.121,-281.754 418.64,-266 409.74,-253.788 409.132,-243.745 418.64,-232 430.339,-217.547 548.348,-198.583 604.825,-190.245"/>
<polygon fill="midnightblue" stroke="midnightblue" points="605.543,-193.677 614.932,-188.769 604.532,-186.75 605.543,-193.677"/>
</g>
<!-- Node37 -->
<g id="node37" class="node"><title>Node37</title>
<polygon fill="white" stroke="#bfbfbf" points="676.401,-239 676.401,-259 736.879,-259 736.879,-239 676.401,-239"/>
<text text-anchor="middle" x="706.64" y="-245" font-family="Helvetica,sans-Serif" font-size="10.00">utf8/utf8.h</text>
</g>
<!-- Node23&#45;&gt;Node37 -->
<g id="edge48" class="edge"><title>Node23&#45;&gt;Node37</title>
<path fill="none" stroke="midnightblue" d="M582.724,-302.985C607.316,-292.47 648.167,-275.002 676.198,-263.017"/>
<polygon fill="midnightblue" stroke="midnightblue" points="677.712,-266.176 685.53,-259.026 674.959,-259.74 677.712,-266.176"/>
</g>
<!-- Node24&#45;&gt;Node6 -->
<g id="edge30" class="edge"><title>Node24&#45;&gt;Node6</title>
<path fill="none" stroke="midnightblue" d="M1014.84,-232.802C980.107,-209.644 914.34,-165.8 879.917,-142.851"/>
<polygon fill="midnightblue" stroke="midnightblue" points="881.746,-139.864 871.484,-137.229 877.863,-145.689 881.746,-139.864"/>
</g>
<!-- Node26 -->
<g id="node26" class="node"><title>Node26</title>
<polygon fill="white" stroke="#bfbfbf" points="1069.57,-175 1069.57,-195 1131.71,-195 1131.71,-175 1069.57,-175"/>
<text text-anchor="middle" x="1100.64" y="-181" font-family="Helvetica,sans-Serif" font-size="10.00">type_traits</text>
</g>
<!-- Node25&#45;&gt;Node26 -->
<g id="edge32" class="edge"><title>Node25&#45;&gt;Node26</title>
<path fill="none" stroke="midnightblue" d="M860.7,-236.772C917.749,-224.7 1007.24,-205.763 1059.29,-194.749"/>
<polygon fill="midnightblue" stroke="midnightblue" points="1060.13,-198.15 1069.18,-192.656 1058.68,-191.302 1060.13,-198.15"/>
</g>
<!-- Node25&#45;&gt;Node27 -->
<g id="edge33" class="edge"><title>Node25&#45;&gt;Node27</title>
<path fill="none" stroke="midnightblue" d="M825.311,-232.992C836.34,-223.624 850.528,-211.575 861.775,-202.022"/>
<polygon fill="midnightblue" stroke="midnightblue" points="864.345,-204.432 869.701,-195.29 859.814,-199.096 864.345,-204.432"/>
</g>
<!-- Node25&#45;&gt;Node28 -->
<g id="edge34" class="edge"><title>Node25&#45;&gt;Node28</title>
<path fill="none" stroke="midnightblue" d="M765.761,-232.992C734.233,-221.692 691.814,-206.49 663.872,-196.476"/>
<polygon fill="midnightblue" stroke="midnightblue" points="664.875,-193.118 654.28,-193.039 662.513,-199.707 664.875,-193.118"/>
</g>
<!-- Node29 -->
<g id="node29" class="node"><title>Node29</title>
<polygon fill="white" stroke="#bfbfbf" points="784.468,-175 784.468,-195 838.812,-195 838.812,-175 784.468,-175"/>
<text text-anchor="middle" x="811.64" y="-181" font-family="Helvetica,sans-Serif" font-size="10.00">iostream</text>
</g>
<!-- Node25&#45;&gt;Node29 -->
<g id="edge35" class="edge"><title>Node25&#45;&gt;Node29</title>
<path fill="none" stroke="midnightblue" d="M808.608,-232.992C809.141,-224.726 809.809,-214.373 810.383,-205.489"/>
<polygon fill="midnightblue" stroke="midnightblue" points="813.889,-205.495 811.041,-195.29 806.904,-205.044 813.889,-205.495"/>
</g>
<!-- Node25&#45;&gt;Node30 -->
<g id="edge36" class="edge"><title>Node25&#45;&gt;Node30</title>
<path fill="none" stroke="midnightblue" d="M754.587,-234.104C751.564,-233.376 748.566,-232.67 745.64,-232 678.8,-216.704 600.382,-201.628 554.534,-193.101"/>
<polygon fill="midnightblue" stroke="midnightblue" points="554.904,-189.61 544.434,-191.231 553.629,-196.493 554.904,-189.61"/>
</g>
<!-- Node31 -->
<g id="node31" class="node"><title>Node31</title>
<g id="a_node31"><a xlink:href="____strhash_8h.xhtml" target="_top" xlink:title="__strhash.h">
<polygon fill="white" stroke="black" points="698.512,-175 698.512,-195 766.768,-195 766.768,-175 698.512,-175"/>
<text text-anchor="middle" x="732.64" y="-181" font-family="Helvetica,sans-Serif" font-size="10.00">__strhash.h</text>
</a>
</g>
</g>
<!-- Node25&#45;&gt;Node31 -->
<g id="edge37" class="edge"><title>Node25&#45;&gt;Node31</title>
<path fill="none" stroke="midnightblue" d="M789.485,-232.992C778.042,-223.533 763.291,-211.338 751.683,-201.742"/>
<polygon fill="midnightblue" stroke="midnightblue" points="753.816,-198.964 743.878,-195.29 749.356,-204.36 753.816,-198.964"/>
</g>
<!-- Node31&#45;&gt;Node6 -->
<g id="edge38" class="edge"><title>Node31&#45;&gt;Node6</title>
<path fill="none" stroke="midnightblue" d="M753.002,-174.878C773.34,-165.766 804.824,-151.662 827.946,-141.303"/>
<polygon fill="midnightblue" stroke="midnightblue" points="829.592,-144.401 837.287,-137.118 826.73,-138.013 829.592,-144.401"/>
</g>
<!-- Node31&#45;&gt;Node12 -->
<g id="edge39" class="edge"><title>Node31&#45;&gt;Node12</title>
<path fill="none" stroke="midnightblue" d="M698.379,-178.06C636.987,-167.416 508.79,-145.19 445.947,-134.295"/>
<polygon fill="midnightblue" stroke="midnightblue" points="446.173,-130.782 435.722,-132.522 444.977,-137.679 446.173,-130.782"/>
</g>
<!-- Node40&#45;&gt;Node6 -->
<g id="edge54" class="edge"><title>Node40&#45;&gt;Node6</title>
<path fill="none" stroke="midnightblue" d="M1317.43,-232.939C1317.42,-215.876 1314.51,-188.556 1297.64,-174 1268.49,-148.848 1015.02,-134.875 906.553,-130"/>
<polygon fill="midnightblue" stroke="midnightblue" points="906.666,-126.502 896.521,-129.557 906.357,-133.495 906.666,-126.502"/>
</g>
<!-- Node41 -->
<g id="node41" class="node"><title>Node41</title>
<polygon fill="white" stroke="#bfbfbf" points="1240.52,-175 1240.52,-195 1288.76,-195 1288.76,-175 1240.52,-175"/>
<text text-anchor="middle" x="1264.64" y="-181" font-family="Helvetica,sans-Serif" font-size="10.00">cstddef</text>
</g>
<!-- Node40&#45;&gt;Node41 -->
<g id="edge55" class="edge"><title>Node40&#45;&gt;Node41</title>
<path fill="none" stroke="midnightblue" d="M1304.05,-232.992C1296.5,-223.992 1286.88,-212.516 1279.03,-203.157"/>
<polygon fill="midnightblue" stroke="midnightblue" points="1281.54,-200.703 1272.43,-195.29 1276.18,-205.202 1281.54,-200.703"/>
</g>
<!-- Node40&#45;&gt;Node12 -->
<g id="edge56" class="edge"><title>Node40&#45;&gt;Node12</title>
<path fill="none" stroke="midnightblue" d="M1288.97,-232.915C1255.11,-215.279 1195.5,-186.87 1140.64,-174 1006.38,-142.503 574.863,-131.357 446.189,-128.687"/>
<polygon fill="midnightblue" stroke="midnightblue" points="446.137,-125.185 436.068,-128.482 445.995,-132.184 446.137,-125.185"/>
</g>
<!-- Node40&#45;&gt;Node26 -->
<g id="edge57" class="edge"><title>Node40&#45;&gt;Node26</title>
<path fill="none" stroke="midnightblue" d="M1264.35,-232.992C1226.62,-222.162 1176.41,-207.748 1141.58,-197.752"/>
<polygon fill="midnightblue" stroke="midnightblue" points="1142.32,-194.323 1131.75,-194.928 1140.39,-201.052 1142.32,-194.323"/>
</g>
<!-- Node40&#45;&gt;Node42 -->
<g id="edge58" class="edge"><title>Node40&#45;&gt;Node42</title>
<path fill="none" stroke="midnightblue" d="M1332.13,-232.992C1341.71,-223.716 1354,-211.811 1363.81,-202.304"/>
<polygon fill="midnightblue" stroke="midnightblue" points="1366.3,-204.762 1371.05,-195.29 1361.43,-199.735 1366.3,-204.762"/>
</g>
<!-- Node45&#45;&gt;Node2 -->
<g id="edge63" class="edge"><title>Node45&#45;&gt;Node2</title>
<path fill="none" stroke="midnightblue" d="M1043.44,-366.971C1031.76,-364.353 1018.71,-361.735 1006.64,-360 779.086,-327.303 719.584,-344.839 490.64,-324 478.664,-322.91 465.8,-321.566 453.679,-320.22"/>
<polygon fill="midnightblue" stroke="midnightblue" points="454.036,-316.739 443.707,-319.096 453.252,-323.695 454.036,-316.739"/>
</g>
<!-- Node45&#45;&gt;Node16 -->
<g id="edge64" class="edge"><title>Node45&#45;&gt;Node16</title>
<path fill="none" stroke="midnightblue" d="M1125.11,-366.93C1150.58,-359.546 1180.91,-346.518 1199.64,-324 1212.38,-308.685 1216,-285.663 1216.83,-269.371"/>
<polygon fill="midnightblue" stroke="midnightblue" points="1220.33,-269.415 1217.04,-259.345 1213.33,-269.271 1220.33,-269.415"/>
</g>
<!-- Node45&#45;&gt;Node38 -->
<g id="edge65" class="edge"><title>Node45&#45;&gt;Node38</title>
<path fill="none" stroke="midnightblue" d="M1041.89,-366.974C1030.6,-364.478 1018.16,-361.928 1006.64,-360 873.471,-337.706 834.688,-352.037 699.2,-324.018"/>
<polygon fill="midnightblue" stroke="midnightblue" points="699.781,-320.564 689.275,-321.927 698.338,-327.414 699.781,-320.564"/>
</g>
<!-- Node46 -->
<g id="node46" class="node"><title>Node46</title>
<polygon fill="white" stroke="#bfbfbf" points="1147.74,-303 1147.74,-323 1191.54,-323 1191.54,-303 1147.74,-303"/>
<text text-anchor="middle" x="1169.64" y="-309" font-family="Helvetica,sans-Serif" font-size="10.00">queue</text>
</g>
<!-- Node45&#45;&gt;Node46 -->
<g id="edge66" class="edge"><title>Node45&#45;&gt;Node46</title>
<path fill="none" stroke="midnightblue" d="M1092.92,-366.852C1107.41,-356.87 1130.83,-340.737 1147.98,-328.918"/>
<polygon fill="midnightblue" stroke="midnightblue" points="1150.06,-331.741 1156.31,-323.186 1146.08,-325.977 1150.06,-331.741"/>
</g>
<!-- Node45&#45;&gt;Node39 -->
<g id="edge67" class="edge"><title>Node45&#45;&gt;Node39</title>
<path fill="none" stroke="midnightblue" d="M1040.72,-366.938C1029.73,-364.524 1017.74,-362.027 1006.64,-360 901.123,-340.74 870.068,-348.552 762.496,-324.157"/>
<polygon fill="midnightblue" stroke="midnightblue" points="763.074,-320.698 752.543,-321.859 761.499,-327.519 763.074,-320.698"/>
</g>
<!-- Node45&#45;&gt;Node15 -->
<g id="edge68" class="edge"><title>Node45&#45;&gt;Node15</title>
<path fill="none" stroke="midnightblue" d="M1039.13,-366.951C1028.56,-364.637 1017.18,-362.187 1006.64,-360 928.076,-343.707 905.018,-344.724 823.279,-323.931"/>
<polygon fill="midnightblue" stroke="midnightblue" points="824.118,-320.532 813.561,-321.427 822.372,-327.311 824.118,-320.532"/>
</g>
<!-- Node45&#45;&gt;Node18 -->
<g id="edge69" class="edge"><title>Node45&#45;&gt;Node18</title>
<path fill="none" stroke="midnightblue" d="M1107.27,-366.985C1141.89,-355.687 1201.1,-336.365 1237.65,-324.438"/>
<polygon fill="midnightblue" stroke="midnightblue" points="1238.9,-327.713 1247.32,-321.283 1236.73,-321.058 1238.9,-327.713"/>
</g>
<!-- Node47 -->
<g id="node47" class="node"><title>Node47</title>
<polygon fill="white" stroke="#bfbfbf" points="945.524,-303 945.524,-323 993.756,-323 993.756,-303 945.524,-303"/>
<text text-anchor="middle" x="969.64" y="-309" font-family="Helvetica,sans-Serif" font-size="10.00">cassert</text>
</g>
<!-- Node45&#45;&gt;Node47 -->
<g id="edge70" class="edge"><title>Node45&#45;&gt;Node47</title>
<path fill="none" stroke="midnightblue" d="M1063.41,-366.852C1045.29,-356.641 1015.76,-339.994 994.677,-328.112"/>
<polygon fill="midnightblue" stroke="midnightblue" points="996.367,-325.047 985.937,-323.186 992.93,-331.145 996.367,-325.047"/>
</g>
<!-- Node45&#45;&gt;Node20 -->
<g id="edge71" class="edge"><title>Node45&#45;&gt;Node20</title>
<path fill="none" stroke="midnightblue" d="M1050.56,-366.985C1015.75,-356.194 957.323,-338.082 918.627,-326.086"/>
<polygon fill="midnightblue" stroke="midnightblue" points="919.345,-322.644 908.757,-323.026 917.272,-329.33 919.345,-322.644"/>
</g>
<!-- Node48 -->
<g id="node48" class="node"><title>Node48</title>
<g id="a_node48"><a xlink:href="invoke_8h.xhtml" target="_top" xlink:title="ePub3/utilities/invoke.h">
<polygon fill="white" stroke="black" points="1011.5,-303 1011.5,-323 1129.78,-323 1129.78,-303 1011.5,-303"/>
<text text-anchor="middle" x="1070.64" y="-309" font-family="Helvetica,sans-Serif" font-size="10.00">ePub3/utilities/invoke.h</text>
</a>
</g>
</g>
<!-- Node45&#45;&gt;Node48 -->
<g id="edge72" class="edge"><title>Node45&#45;&gt;Node48</title>
<path fill="none" stroke="midnightblue" d="M1078.31,-366.852C1077.04,-358.06 1075.07,-344.498 1073.44,-333.313"/>
<polygon fill="midnightblue" stroke="midnightblue" points="1076.87,-332.579 1071.97,-323.186 1069.95,-333.585 1076.87,-332.579"/>
</g>
<!-- Node48&#45;&gt;Node6 -->
<g id="edge73" class="edge"><title>Node48&#45;&gt;Node6</title>
<path fill="none" stroke="midnightblue" d="M1082.12,-302.746C1109.97,-279.207 1176.32,-215.949 1140.64,-174 1111.21,-139.397 979.883,-130.753 906.923,-128.641"/>
<polygon fill="midnightblue" stroke="midnightblue" points="906.688,-125.134 896.601,-128.375 906.508,-132.132 906.688,-125.134"/>
</g>
<!-- Node48&#45;&gt;Node26 -->
<g id="edge74" class="edge"><title>Node48&#45;&gt;Node26</title>
<path fill="none" stroke="midnightblue" d="M1079.42,-302.666C1086.97,-293.949 1097.31,-280.184 1101.64,-266 1107.77,-245.925 1106.32,-221.672 1104.09,-205.171"/>
<polygon fill="midnightblue" stroke="midnightblue" points="1107.53,-204.467 1102.52,-195.131 1100.61,-205.553 1107.53,-204.467"/>
</g>
<!-- Node48&#45;&gt;Node16 -->
<g id="edge75" class="edge"><title>Node48&#45;&gt;Node16</title>
<path fill="none" stroke="midnightblue" d="M1091.87,-302.985C1116.63,-292.47 1157.76,-275.002 1185.99,-263.017"/>
<polygon fill="midnightblue" stroke="midnightblue" points="1187.55,-266.157 1195.38,-259.026 1184.81,-259.713 1187.55,-266.157"/>
</g>
<!-- Node49&#45;&gt;Node2 -->
<g id="edge77" class="edge"><title>Node49&#45;&gt;Node2</title>
<path fill="none" stroke="midnightblue" d="M435.009,-430.871C422.442,-421.908 408.552,-409.306 401.64,-394 393.001,-374.871 394.562,-350.447 397.29,-333.647"/>
<polygon fill="midnightblue" stroke="midnightblue" points="400.811,-333.872 399.255,-323.392 393.936,-332.555 400.811,-333.872"/>
</g>
</g>
</svg>
