<?xml version="1.0" encoding="UTF-8" standalone="no"?>
<!DOCTYPE svg PUBLIC "-//W3C//DTD SVG 1.1//EN"
 "http://www.w3.org/Graphics/SVG/1.1/DTD/svg11.dtd">
<!-- Generated by graphviz version 2.30.0 (20130114.0426)
 -->
<!-- Title: /Users/rkwright/Documents/github/readium&#45;sdk&#45;D/ePub3/ePub/filter_manager.cpp Pages: 1 -->
<svg width="298pt" height="170pt"
 viewBox="0.00 0.00 298.00 170.00" xmlns="http://www.w3.org/2000/svg" xmlns:xlink="http://www.w3.org/1999/xlink">
<g id="graph0" class="graph" transform="scale(1 1) rotate(0) translate(4 166)">
<title>/Users/rkwright/Documents/github/readium&#45;sdk&#45;D/ePub3/ePub/filter_manager.cpp</title>
<polygon fill="white" stroke="white" points="-4,5 -4,-166 295,-166 295,5 -4,5"/>
<!-- Node1 -->
<g id="node1" class="node"><title>Node1</title>
<polygon fill="#bfbfbf" stroke="black" points="64.9658,-117 64.9658,-161 211.034,-161 211.034,-117 64.9658,-117"/>
<text text-anchor="start" x="72.9658" y="-147" font-family="Helvetica,sans-Serif" font-size="10.00">/Users/rkwright/Documents</text>
<text text-anchor="start" x="72.9658" y="-135" font-family="Helvetica,sans-Serif" font-size="10.00">/github/readium&#45;sdk&#45;D/ePub3</text>
<text text-anchor="middle" x="138" y="-123" font-family="Helvetica,sans-Serif" font-size="10.00">/ePub/filter_manager.cpp</text>
</g>
<!-- Node2 -->
<g id="node2" class="node"><title>Node2</title>
<g id="a_node2"><a xlink:href="filter__manager_8h.xhtml" target="_top" xlink:title="filter_manager.h">
<polygon fill="white" stroke="black" points="94.1431,-59 94.1431,-79 181.857,-79 181.857,-59 94.1431,-59"/>
<text text-anchor="middle" x="138" y="-65" font-family="Helvetica,sans-Serif" font-size="10.00">filter_manager.h</text>
</a>
</g>
</g>
<!-- Node1&#45;&gt;Node2 -->
<g id="edge1" class="edge"><title>Node1&#45;&gt;Node2</title>
<path fill="none" stroke="midnightblue" d="M138,-116.857C138,-108.074 138,-97.9484 138,-89.3622"/>
<polygon fill="midnightblue" stroke="midnightblue" points="141.5,-89.2039 138,-79.2039 134.5,-89.204 141.5,-89.2039"/>
</g>
<!-- Node3 -->
<g id="node3" class="node"><title>Node3</title>
<polygon fill="white" stroke="#bfbfbf" points="-0.920898,-1 -0.920898,-21 82.9209,-21 82.9209,-1 -0.920898,-1"/>
<text text-anchor="middle" x="41" y="-7" font-family="Helvetica,sans-Serif" font-size="10.00">ePub3/epub3.h</text>
</g>
<!-- Node2&#45;&gt;Node3 -->
<g id="edge2" class="edge"><title>Node2&#45;&gt;Node3</title>
<path fill="none" stroke="midnightblue" d="M121.982,-58.7527C106.586,-49.8641 83.107,-36.3092 65.3874,-26.0793"/>
<polygon fill="midnightblue" stroke="midnightblue" points="67.1299,-23.0439 56.7195,-21.0752 63.63,-29.1062 67.1299,-23.0439"/>
</g>
<!-- Node4 -->
<g id="node4" class="node"><title>Node4</title>
<polygon fill="white" stroke="#bfbfbf" points="100.811,-1 100.811,-21 175.189,-21 175.189,-1 100.811,-1"/>
<text text-anchor="middle" x="138" y="-7" font-family="Helvetica,sans-Serif" font-size="10.00">ePub3/filter.h</text>
</g>
<!-- Node2&#45;&gt;Node4 -->
<g id="edge3" class="edge"><title>Node2&#45;&gt;Node4</title>
<path fill="none" stroke="midnightblue" d="M138,-58.7527C138,-51.2504 138,-40.4238 138,-31.0781"/>
<polygon fill="midnightblue" stroke="midnightblue" points="141.5,-31.0752 138,-21.0752 134.5,-31.0752 141.5,-31.0752"/>
</g>
<!-- Node5 -->
<g id="node5" class="node"><title>Node5</title>
<polygon fill="white" stroke="#bfbfbf" points="193.688,-1 193.688,-21 290.312,-21 290.312,-1 193.688,-1"/>
<text text-anchor="middle" x="242" y="-7" font-family="Helvetica,sans-Serif" font-size="10.00">ePub3/container.h</text>
</g>
<!-- Node2&#45;&gt;Node5 -->
<g id="edge4" class="edge"><title>Node2&#45;&gt;Node5</title>
<path fill="none" stroke="midnightblue" d="M155.173,-58.7527C171.757,-49.8233 197.085,-36.1848 216.114,-25.9388"/>
<polygon fill="midnightblue" stroke="midnightblue" points="218.001,-28.8979 225.146,-21.0752 214.682,-22.7346 218.001,-28.8979"/>
</g>
</g>
</svg>
