<?xml version="1.0" encoding="UTF-8" standalone="no"?>
<!DOCTYPE svg PUBLIC "-//W3C//DTD SVG 1.1//EN"
 "http://www.w3.org/Graphics/SVG/1.1/DTD/svg11.dtd">
<!-- Generated by graphviz version 2.30.0 (20130114.0426)
 -->
<!-- Title: /Users/rkwright/Documents/github/readium&#45;sdk&#45;D/ePub3/ePub/font_obfuscation.h Pages: 1 -->
<svg width="383pt" height="112pt"
 viewBox="0.00 0.00 383.00 112.00" xmlns="http://www.w3.org/2000/svg" xmlns:xlink="http://www.w3.org/1999/xlink">
<g id="graph0" class="graph" transform="scale(1 1) rotate(0) translate(4 108)">
<title>/Users/rkwright/Documents/github/readium&#45;sdk&#45;D/ePub3/ePub/font_obfuscation.h</title>
<polygon fill="white" stroke="white" points="-4,5 -4,-108 380,-108 380,5 -4,5"/>
<!-- Node1 -->
<g id="node1" class="node"><title>Node1</title>
<polygon fill="#bfbfbf" stroke="black" points="128.966,-59 128.966,-103 275.034,-103 275.034,-59 128.966,-59"/>
<text text-anchor="start" x="136.966" y="-89" font-family="Helvetica,sans-Serif" font-size="10.00">/Users/rkwright/Documents</text>
<text text-anchor="start" x="136.966" y="-77" font-family="Helvetica,sans-Serif" font-size="10.00">/github/readium&#45;sdk&#45;D/ePub3</text>
<text text-anchor="middle" x="202" y="-65" font-family="Helvetica,sans-Serif" font-size="10.00">/ePub/font_obfuscation.h</text>
</g>
<!-- Node2 -->
<g id="node2" class="node"><title>Node2</title>
<polygon fill="white" stroke="#bfbfbf" points="-0.189453,-1 -0.189453,-21 74.1895,-21 74.1895,-1 -0.189453,-1"/>
<text text-anchor="middle" x="37" y="-7" font-family="Helvetica,sans-Serif" font-size="10.00">ePub3/filter.h</text>
</g>
<!-- Node1&#45;&gt;Node2 -->
<g id="edge1" class="edge"><title>Node1&#45;&gt;Node2</title>
<path fill="none" stroke="midnightblue" d="M150.697,-58.8571C123.712,-47.736 91.5047,-34.4625 68.2698,-24.887"/>
<polygon fill="midnightblue" stroke="midnightblue" points="69.482,-21.601 58.9027,-21.0266 66.8147,-28.0729 69.482,-21.601"/>
</g>
<!-- Node3 -->
<g id="node3" class="node"><title>Node3</title>
<polygon fill="white" stroke="#bfbfbf" points="91.9141,-1 91.9141,-21 194.086,-21 194.086,-1 91.9141,-1"/>
<text text-anchor="middle" x="143" y="-7" font-family="Helvetica,sans-Serif" font-size="10.00">ePub3/encryption.h</text>
</g>
<!-- Node1&#45;&gt;Node3 -->
<g id="edge2" class="edge"><title>Node1&#45;&gt;Node3</title>
<path fill="none" stroke="midnightblue" d="M183.655,-58.8571C175.264,-49.1858 165.461,-37.8868 157.583,-28.8076"/>
<polygon fill="midnightblue" stroke="midnightblue" points="160.183,-26.4634 150.986,-21.2039 154.896,-31.0509 160.183,-26.4634"/>
</g>
<!-- Node4 -->
<g id="node4" class="node"><title>Node4</title>
<polygon fill="white" stroke="#bfbfbf" points="211.766,-1 211.766,-21 312.234,-21 312.234,-1 211.766,-1"/>
<text text-anchor="middle" x="262" y="-7" font-family="Helvetica,sans-Serif" font-size="10.00">REGEX_INCLUDE</text>
</g>
<!-- Node1&#45;&gt;Node4 -->
<g id="edge3" class="edge"><title>Node1&#45;&gt;Node4</title>
<path fill="none" stroke="midnightblue" d="M220.655,-58.8571C229.189,-49.1858 239.159,-37.8868 247.17,-28.8076"/>
<polygon fill="midnightblue" stroke="midnightblue" points="249.887,-31.018 253.879,-21.2039 244.638,-26.3866 249.887,-31.018"/>
</g>
<!-- Node5 -->
<g id="node5" class="node"><title>Node5</title>
<polygon fill="white" stroke="#bfbfbf" points="330.273,-1 330.273,-21 375.727,-21 375.727,-1 330.273,-1"/>
<text text-anchor="middle" x="353" y="-7" font-family="Helvetica,sans-Serif" font-size="10.00">cstring</text>
</g>
<!-- Node1&#45;&gt;Node5 -->
<g id="edge4" class="edge"><title>Node1&#45;&gt;Node5</title>
<path fill="none" stroke="midnightblue" d="M248.95,-58.8571C273.425,-47.8353 302.594,-34.6994 323.812,-25.1443"/>
<polygon fill="midnightblue" stroke="midnightblue" points="325.275,-28.3241 332.956,-21.0266 322.4,-21.9415 325.275,-28.3241"/>
</g>
</g>
</svg>
