<?xml version="1.0" encoding="UTF-8" standalone="no"?>
<!DOCTYPE svg PUBLIC "-//W3C//DTD SVG 1.1//EN"
 "http://www.w3.org/Graphics/SVG/1.1/DTD/svg11.dtd">
<!-- Generated by graphviz version 2.30.0 (20130114.0426)
 -->
<!-- Title: /Users/rkwright/Documents/github/readium&#45;sdk&#45;D/ePub3/utilities/future.cpp Pages: 1 -->
<svg width="948pt" height="472pt"
 viewBox="0.00 0.00 948.01 472.00" xmlns="http://www.w3.org/2000/svg" xmlns:xlink="http://www.w3.org/1999/xlink">
<g id="graph0" class="graph" transform="scale(1 1) rotate(0) translate(4 468)">
<title>/Users/rkwright/Documents/github/readium&#45;sdk&#45;D/ePub3/utilities/future.cpp</title>
<polygon fill="white" stroke="white" points="-4,5 -4,-468 945.008,-468 945.008,5 -4,5"/>
<!-- Node1 -->
<g id="node1" class="node"><title>Node1</title>
<polygon fill="#bfbfbf" stroke="black" points="551.974,-419 551.974,-463 698.042,-463 698.042,-419 551.974,-419"/>
<text text-anchor="start" x="559.974" y="-449" font-family="Helvetica,sans-Serif" font-size="10.00">/Users/rkwright/Documents</text>
<text text-anchor="start" x="559.974" y="-437" font-family="Helvetica,sans-Serif" font-size="10.00">/github/readium&#45;sdk&#45;D/ePub3</text>
<text text-anchor="middle" x="625.008" y="-425" font-family="Helvetica,sans-Serif" font-size="10.00">/utilities/future.cpp</text>
</g>
<!-- Node2 -->
<g id="node2" class="node"><title>Node2</title>
<polygon fill="white" stroke="#bfbfbf" points="16.0871,-233 16.0871,-253 99.9289,-253 99.9289,-233 16.0871,-233"/>
<text text-anchor="middle" x="58.008" y="-239" font-family="Helvetica,sans-Serif" font-size="10.00">ePub3/epub3.h</text>
</g>
<!-- Node1&#45;&gt;Node2 -->
<g id="edge1" class="edge"><title>Node1&#45;&gt;Node2</title>
<path fill="none" stroke="midnightblue" d="M551.889,-432.522C422.516,-417.955 160.358,-382.026 91.008,-324 72.6006,-308.598 64.3161,-281.266 60.6886,-262.891"/>
<polygon fill="midnightblue" stroke="midnightblue" points="64.139,-262.303 59.0161,-253.029 57.2375,-263.474 64.139,-262.303"/>
</g>
<!-- Node3 -->
<g id="node3" class="node"><title>Node3</title>
<polygon fill="white" stroke="#bfbfbf" points="865.836,-297 865.836,-317 940.18,-317 940.18,-297 865.836,-297"/>
<text text-anchor="middle" x="903.008" y="-303" font-family="Helvetica,sans-Serif" font-size="10.00">system_error</text>
</g>
<!-- Node1&#45;&gt;Node3 -->
<g id="edge2" class="edge"><title>Node1&#45;&gt;Node3</title>
<path fill="none" stroke="midnightblue" d="M669.365,-418.938C727.018,-391.564 826.038,-344.547 874.546,-321.514"/>
<polygon fill="midnightblue" stroke="midnightblue" points="876.29,-324.561 883.822,-317.11 873.287,-318.238 876.29,-324.561"/>
</g>
<!-- Node4 -->
<g id="node4" class="node"><title>Node4</title>
<g id="a_node4"><a xlink:href="future_8h.xhtml" target="_top" xlink:title="future.h">
<polygon fill="white" stroke="black" points="600.052,-361 600.052,-381 649.964,-381 649.964,-361 600.052,-361"/>
<text text-anchor="middle" x="625.008" y="-367" font-family="Helvetica,sans-Serif" font-size="10.00">future.h</text>
</a>
</g>
</g>
<!-- Node1&#45;&gt;Node4 -->
<g id="edge3" class="edge"><title>Node1&#45;&gt;Node4</title>
<path fill="none" stroke="midnightblue" d="M625.008,-418.857C625.008,-410.074 625.008,-399.948 625.008,-391.362"/>
<polygon fill="midnightblue" stroke="midnightblue" points="628.508,-391.204 625.008,-381.204 621.508,-391.204 628.508,-391.204"/>
</g>
<!-- Node5 -->
<g id="node5" class="node"><title>Node5</title>
<g id="a_node5"><a xlink:href="base_8h.xhtml" target="_top" xlink:title="ePub3/base.h">
<polygon fill="white" stroke="black" points="714.149,-175 714.149,-195 791.867,-195 791.867,-175 714.149,-175"/>
<text text-anchor="middle" x="753.008" y="-181" font-family="Helvetica,sans-Serif" font-size="10.00">ePub3/base.h</text>
</a>
</g>
</g>
<!-- Node4&#45;&gt;Node5 -->
<g id="edge4" class="edge"><title>Node4&#45;&gt;Node5</title>
<path fill="none" stroke="midnightblue" d="M650.166,-370.832C685.384,-370.457 748.383,-363.842 778.008,-324 804.78,-287.995 780.057,-232.321 764.101,-203.95"/>
<polygon fill="midnightblue" stroke="midnightblue" points="767.004,-201.981 758.922,-195.13 760.967,-205.526 767.004,-201.981"/>
</g>
<!-- Node10 -->
<g id="node10" class="node"><title>Node10</title>
<polygon fill="white" stroke="#bfbfbf" points="384.508,-297 384.508,-317 413.508,-317 413.508,-297 384.508,-297"/>
<text text-anchor="middle" x="398.619" y="-303" font-family="Helvetica,sans-Serif" font-size="10.00">list</text>
</g>
<!-- Node4&#45;&gt;Node10 -->
<g id="edge9" class="edge"><title>Node4&#45;&gt;Node10</title>
<path fill="none" stroke="midnightblue" d="M599.851,-367.252C560.717,-362.33 483.479,-349.992 423.008,-324 421.818,-323.488 420.623,-322.917 419.436,-322.302"/>
<polygon fill="midnightblue" stroke="midnightblue" points="421.096,-319.216 410.726,-317.046 417.479,-325.209 421.096,-319.216"/>
</g>
<!-- Node11 -->
<g id="node11" class="node"><title>Node11</title>
<polygon fill="white" stroke="#bfbfbf" points="431.781,-297 431.781,-317 472.235,-317 472.235,-297 431.781,-297"/>
<text text-anchor="middle" x="452.008" y="-303" font-family="Helvetica,sans-Serif" font-size="10.00">string</text>
</g>
<!-- Node4&#45;&gt;Node11 -->
<g id="edge10" class="edge"><title>Node4&#45;&gt;Node11</title>
<path fill="none" stroke="midnightblue" d="M599.976,-363.416C571.038,-355.471 522.232,-341.035 482.008,-324 480.214,-323.24 478.385,-322.411 476.558,-321.542"/>
<polygon fill="midnightblue" stroke="midnightblue" points="478.132,-318.416 467.63,-317.011 474.964,-324.658 478.132,-318.416"/>
</g>
<!-- Node12 -->
<g id="node12" class="node"><title>Node12</title>
<polygon fill="white" stroke="#bfbfbf" points="490.607,-297 490.607,-317 549.409,-317 549.409,-297 490.607,-297"/>
<text text-anchor="middle" x="520.008" y="-303" font-family="Helvetica,sans-Serif" font-size="10.00">stdexcept</text>
</g>
<!-- Node4&#45;&gt;Node12 -->
<g id="edge11" class="edge"><title>Node4&#45;&gt;Node12</title>
<path fill="none" stroke="midnightblue" d="M609.515,-360.852C592.299,-350.686 564.282,-334.143 544.178,-322.272"/>
<polygon fill="midnightblue" stroke="midnightblue" points="545.955,-319.257 535.565,-317.186 542.396,-325.284 545.955,-319.257"/>
</g>
<!-- Node13 -->
<g id="node13" class="node"><title>Node13</title>
<polygon fill="white" stroke="#bfbfbf" points="567.604,-297 567.604,-317 626.412,-317 626.412,-297 567.604,-297"/>
<text text-anchor="middle" x="597.008" y="-303" font-family="Helvetica,sans-Serif" font-size="10.00">exception</text>
</g>
<!-- Node4&#45;&gt;Node13 -->
<g id="edge12" class="edge"><title>Node4&#45;&gt;Node13</title>
<path fill="none" stroke="midnightblue" d="M620.876,-360.852C616.823,-351.877 610.525,-337.931 605.416,-326.617"/>
<polygon fill="midnightblue" stroke="midnightblue" points="608.462,-324.859 601.156,-317.186 602.083,-327.74 608.462,-324.859"/>
</g>
<!-- Node4&#45;&gt;Node3 -->
<g id="edge13" class="edge"><title>Node4&#45;&gt;Node3</title>
<path fill="none" stroke="midnightblue" d="M650.058,-365.804C692.098,-358.565 779.383,-342.697 852.008,-324 856.65,-322.805 861.495,-321.441 866.273,-320.024"/>
<polygon fill="midnightblue" stroke="midnightblue" points="867.358,-323.352 875.897,-317.081 865.311,-316.659 867.358,-323.352"/>
</g>
<!-- Node14 -->
<g id="node14" class="node"><title>Node14</title>
<polygon fill="white" stroke="#bfbfbf" points="523.831,-233 523.831,-253 568.185,-253 568.185,-233 523.831,-233"/>
<text text-anchor="middle" x="546.008" y="-239" font-family="Helvetica,sans-Serif" font-size="10.00">thread</text>
</g>
<!-- Node4&#45;&gt;Node14 -->
<g id="edge14" class="edge"><title>Node4&#45;&gt;Node14</title>
<path fill="none" stroke="midnightblue" d="M629.646,-360.823C636.885,-345.085 648.692,-312.476 635.008,-290 628.439,-279.211 600.673,-265.856 577.879,-256.321"/>
<polygon fill="midnightblue" stroke="midnightblue" points="579.071,-253.027 568.49,-252.487 576.425,-259.508 579.071,-253.027"/>
</g>
<!-- Node15 -->
<g id="node15" class="node"><title>Node15</title>
<polygon fill="white" stroke="#bfbfbf" points="681.951,-297 681.951,-317 734.065,-317 734.065,-297 681.951,-297"/>
<text text-anchor="middle" x="708.008" y="-303" font-family="Helvetica,sans-Serif" font-size="10.00">memory</text>
</g>
<!-- Node4&#45;&gt;Node15 -->
<g id="edge15" class="edge"><title>Node4&#45;&gt;Node15</title>
<path fill="none" stroke="midnightblue" d="M637.255,-360.852C650.495,-350.961 671.819,-335.033 687.6,-323.244"/>
<polygon fill="midnightblue" stroke="midnightblue" points="689.794,-325.974 695.711,-317.186 685.605,-320.366 689.794,-325.974"/>
</g>
<!-- Node16 -->
<g id="node16" class="node"><title>Node16</title>
<polygon fill="white" stroke="#bfbfbf" points="586.281,-233 586.281,-253 631.735,-253 631.735,-233 586.281,-233"/>
<text text-anchor="middle" x="609.008" y="-239" font-family="Helvetica,sans-Serif" font-size="10.00">atomic</text>
</g>
<!-- Node4&#45;&gt;Node16 -->
<g id="edge16" class="edge"><title>Node4&#45;&gt;Node16</title>
<path fill="none" stroke="midnightblue" d="M650.114,-368.21C678.123,-364.716 722.226,-354.406 743.008,-324 751.535,-311.524 751.789,-302.298 743.008,-290 741.463,-287.836 680.849,-267.602 641.681,-254.7"/>
<polygon fill="midnightblue" stroke="midnightblue" points="642.586,-251.314 631.994,-251.515 640.4,-257.963 642.586,-251.314"/>
</g>
<!-- Node17 -->
<g id="node17" class="node"><title>Node17</title>
<g id="a_node17"><a xlink:href="invoke_8h.xhtml" target="_top" xlink:title="ePub3/utilities/invoke.h">
<polygon fill="white" stroke="black" points="649.865,-233 649.865,-253 768.151,-253 768.151,-233 649.865,-233"/>
<text text-anchor="middle" x="709.008" y="-239" font-family="Helvetica,sans-Serif" font-size="10.00">ePub3/utilities/invoke.h</text>
</a>
</g>
</g>
<!-- Node4&#45;&gt;Node17 -->
<g id="edge17" class="edge"><title>Node4&#45;&gt;Node17</title>
<path fill="none" stroke="midnightblue" d="M650.148,-369.711C681.984,-367.826 735.727,-359.239 761.008,-324 769.817,-311.722 767.215,-303.778 761.008,-290 755.322,-277.379 744.273,-266.825 733.817,-259.022"/>
<polygon fill="midnightblue" stroke="midnightblue" points="735.518,-255.943 725.303,-253.131 731.534,-261.699 735.518,-255.943"/>
</g>
<!-- Node20 -->
<g id="node20" class="node"><title>Node20</title>
<g id="a_node20"><a xlink:href="executor_8h.xhtml" target="_top" xlink:title="ePub3/utilities/executor.h">
<polygon fill="white" stroke="black" points="239.415,-297 239.415,-317 366.601,-317 366.601,-297 239.415,-297"/>
<text text-anchor="middle" x="303.008" y="-303" font-family="Helvetica,sans-Serif" font-size="10.00">ePub3/utilities/executor.h</text>
</a>
</g>
</g>
<!-- Node4&#45;&gt;Node20 -->
<g id="edge21" class="edge"><title>Node4&#45;&gt;Node20</title>
<path fill="none" stroke="midnightblue" d="M599.754,-365.669C554.574,-357.851 456.965,-340.64 375.008,-324 367.679,-322.512 359.946,-320.87 352.375,-319.222"/>
<polygon fill="midnightblue" stroke="midnightblue" points="353.083,-315.794 342.564,-317.064 351.579,-322.63 353.083,-315.794"/>
</g>
<!-- Node26 -->
<g id="node26" class="node"><title>Node26</title>
<g id="a_node26"><a xlink:href="condition__variable__any_8h.xhtml" target="_top" xlink:title="ePub3/utilities/condition\l_variable_any.h">
<polygon fill="white" stroke="black" points="100.474,-291 100.474,-323 221.542,-323 221.542,-291 100.474,-291"/>
<text text-anchor="start" x="108.474" y="-309" font-family="Helvetica,sans-Serif" font-size="10.00">ePub3/utilities/condition</text>
<text text-anchor="middle" x="161.008" y="-297" font-family="Helvetica,sans-Serif" font-size="10.00">_variable_any.h</text>
</a>
</g>
</g>
<!-- Node4&#45;&gt;Node26 -->
<g id="edge32" class="edge"><title>Node4&#45;&gt;Node26</title>
<path fill="none" stroke="midnightblue" d="M599.912,-368.059C538.619,-363.111 376.287,-348.756 231.815,-324.214"/>
<polygon fill="midnightblue" stroke="midnightblue" points="232.334,-320.752 221.886,-322.506 231.148,-327.651 232.334,-320.752"/>
</g>
<!-- Node6 -->
<g id="node6" class="node"><title>Node6</title>
<g id="a_node6"><a xlink:href="__config_8h.xhtml" target="_top" xlink:title="_config.h">
<polygon fill="white" stroke="black" points="307.715,-117 307.715,-137 364.301,-137 364.301,-117 307.715,-117"/>
<text text-anchor="middle" x="336.008" y="-123" font-family="Helvetica,sans-Serif" font-size="10.00">_config.h</text>
</a>
</g>
</g>
<!-- Node5&#45;&gt;Node6 -->
<g id="edge5" class="edge"><title>Node5&#45;&gt;Node6</title>
<path fill="none" stroke="midnightblue" d="M714.025,-175.602C710.98,-175.03 707.947,-174.488 705.008,-174 585.013,-154.055 441.76,-138.551 374.489,-131.755"/>
<polygon fill="midnightblue" stroke="midnightblue" points="374.66,-128.254 364.36,-130.739 373.961,-135.219 374.66,-128.254"/>
</g>
<!-- Node9 -->
<g id="node9" class="node"><title>Node9</title>
<polygon fill="white" stroke="#bfbfbf" points="729.166,-117 729.166,-137 776.85,-137 776.85,-117 729.166,-117"/>
<text text-anchor="middle" x="753.008" y="-123" font-family="Helvetica,sans-Serif" font-size="10.00">stdlib.h</text>
</g>
<!-- Node5&#45;&gt;Node9 -->
<g id="edge8" class="edge"><title>Node5&#45;&gt;Node9</title>
<path fill="none" stroke="midnightblue" d="M753.008,-174.753C753.008,-167.25 753.008,-156.424 753.008,-147.078"/>
<polygon fill="midnightblue" stroke="midnightblue" points="756.508,-147.075 753.008,-137.075 749.508,-147.075 756.508,-147.075"/>
</g>
<!-- Node7 -->
<g id="node7" class="node"><title>Node7</title>
<g id="a_node7"><a xlink:href="__platform_8h.xhtml" target="_top" xlink:title="_platform.h">
<polygon fill="white" stroke="black" points="302.996,-59 302.996,-79 369.02,-79 369.02,-59 302.996,-59"/>
<text text-anchor="middle" x="336.008" y="-65" font-family="Helvetica,sans-Serif" font-size="10.00">_platform.h</text>
</a>
</g>
</g>
<!-- Node6&#45;&gt;Node7 -->
<g id="edge6" class="edge"><title>Node6&#45;&gt;Node7</title>
<path fill="none" stroke="midnightblue" d="M336.008,-116.753C336.008,-109.25 336.008,-98.4238 336.008,-89.0781"/>
<polygon fill="midnightblue" stroke="midnightblue" points="339.508,-89.0752 336.008,-79.0752 332.508,-89.0752 339.508,-89.0752"/>
</g>
<!-- Node8 -->
<g id="node8" class="node"><title>Node8</title>
<g id="a_node8"><a xlink:href="__compiler_8h.xhtml" target="_top" xlink:title="_compiler.h">
<polygon fill="white" stroke="black" points="302.437,-1 302.437,-21 369.579,-21 369.579,-1 302.437,-1"/>
<text text-anchor="middle" x="336.008" y="-7" font-family="Helvetica,sans-Serif" font-size="10.00">_compiler.h</text>
</a>
</g>
</g>
<!-- Node7&#45;&gt;Node8 -->
<g id="edge7" class="edge"><title>Node7&#45;&gt;Node8</title>
<path fill="none" stroke="midnightblue" d="M336.008,-58.7527C336.008,-51.2504 336.008,-40.4238 336.008,-31.0781"/>
<polygon fill="midnightblue" stroke="midnightblue" points="339.508,-31.0752 336.008,-21.0752 332.508,-31.0752 339.508,-31.0752"/>
</g>
<!-- Node17&#45;&gt;Node5 -->
<g id="edge18" class="edge"><title>Node17&#45;&gt;Node5</title>
<path fill="none" stroke="midnightblue" d="M716.274,-232.753C722.617,-224.68 731.985,-212.757 739.672,-202.973"/>
<polygon fill="midnightblue" stroke="midnightblue" points="742.451,-205.101 745.877,-195.075 736.947,-200.776 742.451,-205.101"/>
</g>
<!-- Node18 -->
<g id="node18" class="node"><title>Node18</title>
<polygon fill="white" stroke="#bfbfbf" points="633.942,-175 633.942,-195 696.074,-195 696.074,-175 633.942,-175"/>
<text text-anchor="middle" x="665.008" y="-181" font-family="Helvetica,sans-Serif" font-size="10.00">type_traits</text>
</g>
<!-- Node17&#45;&gt;Node18 -->
<g id="edge19" class="edge"><title>Node17&#45;&gt;Node18</title>
<path fill="none" stroke="midnightblue" d="M701.742,-232.753C695.399,-224.68 686.031,-212.757 678.344,-202.973"/>
<polygon fill="midnightblue" stroke="midnightblue" points="681.069,-200.776 672.138,-195.075 675.565,-205.101 681.069,-200.776"/>
</g>
<!-- Node19 -->
<g id="node19" class="node"><title>Node19</title>
<polygon fill="white" stroke="#bfbfbf" points="479.604,-175 479.604,-195 538.412,-195 538.412,-175 479.604,-175"/>
<text text-anchor="middle" x="509.008" y="-181" font-family="Helvetica,sans-Serif" font-size="10.00">functional</text>
</g>
<!-- Node17&#45;&gt;Node19 -->
<g id="edge20" class="edge"><title>Node17&#45;&gt;Node19</title>
<path fill="none" stroke="midnightblue" d="M676.429,-232.878C641.524,-223.104 586.104,-207.587 548.681,-197.109"/>
<polygon fill="midnightblue" stroke="midnightblue" points="549.209,-193.622 538.636,-194.296 547.321,-200.362 549.209,-193.622"/>
</g>
<!-- Node20&#45;&gt;Node2 -->
<g id="edge22" class="edge"><title>Node20&#45;&gt;Node2</title>
<path fill="none" stroke="midnightblue" d="M267.383,-296.985C224.108,-286.033 151.032,-267.541 103.665,-255.554"/>
<polygon fill="midnightblue" stroke="midnightblue" points="104.229,-252.087 93.6761,-253.026 102.512,-258.873 104.229,-252.087"/>
</g>
<!-- Node20&#45;&gt;Node19 -->
<g id="edge23" class="edge"><title>Node20&#45;&gt;Node19</title>
<path fill="none" stroke="midnightblue" d="M325.08,-296.922C347.709,-287.304 383.647,-271.162 413.008,-254 440.713,-237.807 470.571,-215.876 489.504,-201.351"/>
<polygon fill="midnightblue" stroke="midnightblue" points="491.864,-203.95 497.626,-195.059 487.577,-198.416 491.864,-203.95"/>
</g>
<!-- Node21 -->
<g id="node21" class="node"><title>Node21</title>
<polygon fill="white" stroke="#bfbfbf" points="459.72,-233 459.72,-253 506.296,-253 506.296,-233 459.72,-233"/>
<text text-anchor="middle" x="483.008" y="-239" font-family="Helvetica,sans-Serif" font-size="10.00">chrono</text>
</g>
<!-- Node20&#45;&gt;Node21 -->
<g id="edge24" class="edge"><title>Node20&#45;&gt;Node21</title>
<path fill="none" stroke="midnightblue" d="M329.182,-296.985C361.13,-285.98 415.185,-267.361 449.969,-255.38"/>
<polygon fill="midnightblue" stroke="midnightblue" points="451.351,-258.606 459.666,-252.04 449.072,-251.987 451.351,-258.606"/>
</g>
<!-- Node22 -->
<g id="node22" class="node"><title>Node22</title>
<polygon fill="white" stroke="#bfbfbf" points="294.104,-233 294.104,-253 337.912,-253 337.912,-233 294.104,-233"/>
<text text-anchor="middle" x="316.008" y="-239" font-family="Helvetica,sans-Serif" font-size="10.00">queue</text>
</g>
<!-- Node20&#45;&gt;Node22 -->
<g id="edge25" class="edge"><title>Node20&#45;&gt;Node22</title>
<path fill="none" stroke="midnightblue" d="M304.926,-296.852C306.77,-288.06 309.613,-274.498 311.958,-263.313"/>
<polygon fill="midnightblue" stroke="midnightblue" points="315.455,-263.691 314.082,-253.186 308.604,-262.255 315.455,-263.691"/>
</g>
<!-- Node20&#45;&gt;Node16 -->
<g id="edge26" class="edge"><title>Node20&#45;&gt;Node16</title>
<path fill="none" stroke="midnightblue" d="M342.18,-296.979C352.812,-294.617 364.335,-292.136 375.008,-290 461.371,-272.716 486.705,-275.427 576.277,-253.936"/>
<polygon fill="midnightblue" stroke="midnightblue" points="577.145,-257.327 586.034,-251.561 575.49,-250.525 577.145,-257.327"/>
</g>
<!-- Node23 -->
<g id="node23" class="node"><title>Node23</title>
<polygon fill="white" stroke="#bfbfbf" points="232.392,-233 232.392,-253 275.624,-253 275.624,-233 232.392,-233"/>
<text text-anchor="middle" x="254.008" y="-239" font-family="Helvetica,sans-Serif" font-size="10.00">mutex</text>
</g>
<!-- Node20&#45;&gt;Node23 -->
<g id="edge27" class="edge"><title>Node20&#45;&gt;Node23</title>
<path fill="none" stroke="midnightblue" d="M295.778,-296.852C288.395,-287.511 276.756,-272.784 267.638,-261.246"/>
<polygon fill="midnightblue" stroke="midnightblue" points="270.214,-258.861 261.268,-253.186 264.722,-263.202 270.214,-258.861"/>
</g>
<!-- Node20&#45;&gt;Node14 -->
<g id="edge28" class="edge"><title>Node20&#45;&gt;Node14</title>
<path fill="none" stroke="midnightblue" d="M343.481,-296.98C384.218,-287.7 449.043,-272.387 513.753,-254.221"/>
<polygon fill="midnightblue" stroke="midnightblue" points="515.046,-257.493 523.715,-251.402 513.14,-250.758 515.046,-257.493"/>
</g>
<!-- Node24 -->
<g id="node24" class="node"><title>Node24</title>
<polygon fill="white" stroke="#bfbfbf" points="355.892,-233 355.892,-253 404.124,-253 404.124,-233 355.892,-233"/>
<text text-anchor="middle" x="380.008" y="-239" font-family="Helvetica,sans-Serif" font-size="10.00">cassert</text>
</g>
<!-- Node20&#45;&gt;Node24 -->
<g id="edge29" class="edge"><title>Node20&#45;&gt;Node24</title>
<path fill="none" stroke="midnightblue" d="M314.37,-296.852C326.539,-287.053 346.07,-271.327 360.668,-259.573"/>
<polygon fill="midnightblue" stroke="midnightblue" points="363.006,-262.184 368.6,-253.186 358.616,-256.731 363.006,-262.184"/>
</g>
<!-- Node25 -->
<g id="node25" class="node"><title>Node25</title>
<polygon fill="white" stroke="#bfbfbf" points="117.703,-233 117.703,-253 214.313,-253 214.313,-233 117.703,-233"/>
<text text-anchor="middle" x="166.008" y="-239" font-family="Helvetica,sans-Serif" font-size="10.00">condition_variable</text>
</g>
<!-- Node20&#45;&gt;Node25 -->
<g id="edge30" class="edge"><title>Node20&#45;&gt;Node25</title>
<path fill="none" stroke="midnightblue" d="M283.087,-296.985C259.954,-286.516 221.591,-269.154 195.118,-257.174"/>
<polygon fill="midnightblue" stroke="midnightblue" points="196.507,-253.961 185.953,-253.026 193.62,-260.338 196.507,-253.961"/>
</g>
<!-- Node20&#45;&gt;Node17 -->
<g id="edge31" class="edge"><title>Node20&#45;&gt;Node17</title>
<path fill="none" stroke="midnightblue" d="M341.002,-296.933C351.941,-294.493 363.915,-291.982 375.008,-290 488.814,-269.661 520.581,-270.462 639.321,-254.076"/>
<polygon fill="midnightblue" stroke="midnightblue" points="640.124,-257.498 649.546,-252.652 639.158,-250.565 640.124,-257.498"/>
</g>
<!-- Node26&#45;&gt;Node6 -->
<g id="edge33" class="edge"><title>Node26&#45;&gt;Node6</title>
<path fill="none" stroke="midnightblue" d="M100.448,-298.737C46.1271,-289.62 -21.0416,-270.284 7.00799,-232 41.9495,-184.309 218.602,-148.333 297.661,-134.359"/>
<polygon fill="midnightblue" stroke="midnightblue" points="298.447,-137.775 307.698,-132.611 297.246,-130.879 298.447,-137.775"/>
</g>
<!-- Node26&#45;&gt;Node23 -->
<g id="edge34" class="edge"><title>Node26&#45;&gt;Node23</title>
<path fill="none" stroke="midnightblue" d="M183.521,-290.992C198.211,-281.198 217.301,-268.471 231.908,-258.733"/>
<polygon fill="midnightblue" stroke="midnightblue" points="233.966,-261.568 240.345,-253.109 230.083,-255.744 233.966,-261.568"/>
</g>
<!-- Node26&#45;&gt;Node25 -->
<g id="edge35" class="edge"><title>Node26&#45;&gt;Node25</title>
<path fill="none" stroke="midnightblue" d="M162.218,-290.992C162.885,-282.726 163.72,-272.373 164.436,-263.489"/>
<polygon fill="midnightblue" stroke="midnightblue" points="167.944,-263.539 165.259,-253.29 160.966,-262.977 167.944,-263.539"/>
</g>
</g>
</svg>
