<?xml version="1.0" encoding="UTF-8" standalone="no"?>
<!DOCTYPE svg PUBLIC "-//W3C//DTD SVG 1.1//EN"
 "http://www.w3.org/Graphics/SVG/1.1/DTD/svg11.dtd">
<!-- Generated by graphviz version 2.30.0 (20130114.0426)
 -->
<!-- Title: XML Engine Pages: 1 -->
<svg width="212pt" height="184pt"
 viewBox="0.00 0.00 212.00 184.00" xmlns="http://www.w3.org/2000/svg" xmlns:xlink="http://www.w3.org/1999/xlink">
<g id="graph0" class="graph" transform="scale(1 1) rotate(0) translate(4 180)">
<title>XML Engine</title>
<polygon fill="white" stroke="white" points="-4,5 -4,-180 209,-180 209,5 -4,5"/>
<!-- Node0 -->
<g id="node1" class="node"><title>Node0</title>
<polygon fill="#bfbfbf" stroke="black" points="-0.0556641,-78 -0.0556641,-98 70.0557,-98 70.0557,-78 -0.0556641,-78"/>
<text text-anchor="middle" x="35" y="-84" font-family="Helvetica,sans-Serif" font-size="10.00">XML Engine</text>
</g>
<!-- Node1 -->
<g id="node4" class="node"><title>Node1</title>
<g id="a_node4"><a xlink:href="group__validation.xhtml" target="_top" xlink:title="Content Validation">
<polygon fill="white" stroke="black" points="106.507,-156 106.507,-176 203.493,-176 203.493,-156 106.507,-156"/>
<text text-anchor="middle" x="155" y="-162" font-family="Helvetica,sans-Serif" font-size="10.00">Content Validation</text>
</a>
</g>
</g>
<!-- Node0&#45;&gt;Node1 -->
<g id="edge1" class="edge"><title>Node0&#45;&gt;Node1</title>
<path fill="none" stroke="midnightblue" d="M53.7437,-105.253C67.2576,-117.733 86.7576,-134.378 106,-146 112.182,-149.734 119.188,-153.087 125.899,-155.933"/>
<polygon fill="midnightblue" stroke="midnightblue" points="55.8361,-102.415 46.1587,-98.1027 51.0344,-107.509 55.8361,-102.415"/>
</g>
<!-- Node2 -->
<g id="node2" class="node"><title>Node2</title>
<g id="a_node2"><a xlink:href="group__parsing.xhtml" target="_top" xlink:title="XML Parsers">
<polygon fill="white" stroke="black" points="118.287,-117 118.287,-137 191.713,-137 191.713,-117 118.287,-117"/>
<text text-anchor="middle" x="155" y="-123" font-family="Helvetica,sans-Serif" font-size="10.00">XML Parsers</text>
</a>
</g>
</g>
<!-- Node0&#45;&gt;Node2 -->
<g id="edge2" class="edge"><title>Node0&#45;&gt;Node2</title>
<path fill="none" stroke="midnightblue" d="M76.2679,-101.309C91.8056,-106.444 109.277,-112.219 123.715,-116.991"/>
<polygon fill="midnightblue" stroke="midnightblue" points="76.9812,-97.8585 66.3879,-98.0435 74.7844,-104.505 76.9812,-97.8585"/>
</g>
<!-- Node3 -->
<g id="node3" class="node"><title>Node3</title>
<g id="a_node3"><a xlink:href="group__tree.xhtml" target="_top" xlink:title="DOM Tree">
<polygon fill="white" stroke="black" points="123.936,-78 123.936,-98 186.064,-98 186.064,-78 123.936,-78"/>
<text text-anchor="middle" x="155" y="-84" font-family="Helvetica,sans-Serif" font-size="10.00">DOM Tree</text>
</a>
</g>
</g>
<!-- Node0&#45;&gt;Node3 -->
<g id="edge3" class="edge"><title>Node0&#45;&gt;Node3</title>
<path fill="none" stroke="midnightblue" d="M80.3483,-88C94.7563,-88 110.409,-88 123.564,-88"/>
<polygon fill="midnightblue" stroke="midnightblue" points="80.1305,-84.5001 70.1305,-88 80.1305,-91.5001 80.1305,-84.5001"/>
</g>
<!-- Node4 -->
<g id="node6" class="node"><title>Node4</title>
<g id="a_node6"><a xlink:href="group__xml-utils.xhtml" target="_top" xlink:title="Utilities">
<polygon fill="white" stroke="black" points="130.887,-39 130.887,-59 179.113,-59 179.113,-39 130.887,-39"/>
<text text-anchor="middle" x="155" y="-45" font-family="Helvetica,sans-Serif" font-size="10.00">Utilities</text>
</a>
</g>
</g>
<!-- Node0&#45;&gt;Node4 -->
<g id="edge4" class="edge"><title>Node0&#45;&gt;Node4</title>
<path fill="none" stroke="midnightblue" d="M75.9223,-74.8053C94.1842,-68.7696 115.179,-61.8308 130.795,-56.6695"/>
<polygon fill="midnightblue" stroke="midnightblue" points="74.7844,-71.4951 66.3879,-77.9565 76.9812,-78.1415 74.7844,-71.4951"/>
</g>
<!-- Node5 -->
<g id="node5" class="node"><title>Node5</title>
<g id="a_node5"><a xlink:href="group__xmlsec.xhtml" target="_top" xlink:title="XML Security">
<polygon fill="white" stroke="black" points="117.452,-0 117.452,-20 192.548,-20 192.548,-0 117.452,-0"/>
<text text-anchor="middle" x="155" y="-6" font-family="Helvetica,sans-Serif" font-size="10.00">XML Security</text>
</a>
</g>
</g>
<!-- Node0&#45;&gt;Node5 -->
<g id="edge5" class="edge"><title>Node0&#45;&gt;Node5</title>
<path fill="none" stroke="midnightblue" d="M53.7437,-70.747C67.2576,-58.267 86.7576,-41.6224 106,-30 112.182,-26.266 119.188,-22.9127 125.899,-20.0667"/>
<polygon fill="midnightblue" stroke="midnightblue" points="51.0344,-68.491 46.1587,-77.8973 55.8361,-73.5846 51.0344,-68.491"/>
</g>
</g>
</svg>
