<?xml version="1.0" encoding="UTF-8" standalone="no"?>
<!DOCTYPE svg PUBLIC "-//W3C//DTD SVG 1.1//EN"
 "http://www.w3.org/Graphics/SVG/1.1/DTD/svg11.dtd">
<!-- Generated by graphviz version 2.30.0 (20130114.0426)
 -->
<!-- Title: Graphical Class Hierarchy Pages: 1 -->
<svg width="434pt" height="262pt"
 viewBox="0.00 0.00 434.00 262.00" xmlns="http://www.w3.org/2000/svg" xmlns:xlink="http://www.w3.org/1999/xlink">
<g id="graph0" class="graph" transform="scale(1 1) rotate(0) translate(4 258)">
<title>Graphical Class Hierarchy</title>
<polygon fill="white" stroke="white" points="-4,5 -4,-258 431,-258 431,5 -4,5"/>
<!-- Node1 -->
<g id="node1" class="node"><title>Node1</title>
<polygon fill="white" stroke="#bfbfbf" points="0.379395,-175 0.379395,-195 63.6206,-195 63.6206,-175 0.379395,-175"/>
<text text-anchor="middle" x="32" y="-181" font-family="Helvetica,sans-Serif" font-size="10.00">logic_error</text>
</g>
<!-- Node2 -->
<g id="node2" class="node"><title>Node2</title>
<g id="a_node2"><a xlink:href="classbad__optional__access.xhtml" target="_top" xlink:title="bad_optional_access">
<polygon fill="white" stroke="black" points="124.02,-234 124.02,-254 233.98,-254 233.98,-234 124.02,-234"/>
<text text-anchor="middle" x="179" y="-240" font-family="Helvetica,sans-Serif" font-size="10.00">bad_optional_access</text>
</a>
</g>
</g>
<!-- Node1&#45;&gt;Node2 -->
<g id="edge1" class="edge"><title>Node1&#45;&gt;Node2</title>
<path fill="none" stroke="midnightblue" d="M56.023,-200.534C68.5867,-208.454 84.668,-217.714 100,-224 109.572,-227.924 120.127,-231.251 130.298,-233.998"/>
<polygon fill="midnightblue" stroke="midnightblue" points="57.8564,-197.552 47.5573,-195.066 54.0583,-203.432 57.8564,-197.552"/>
</g>
<!-- Node3 -->
<g id="node3" class="node"><title>Node3</title>
<g id="a_node3"><a xlink:href="class_c_f_i_1_1_invalid_c_f_i.xhtml" target="_top" xlink:title="The exception thrown when an invalid CFI string is encountered.">
<polygon fill="white" stroke="black" points="137.66,-195 137.66,-215 220.34,-215 220.34,-195 137.66,-195"/>
<text text-anchor="middle" x="179" y="-201" font-family="Helvetica,sans-Serif" font-size="10.00">CFI::InvalidCFI</text>
</a>
</g>
</g>
<!-- Node1&#45;&gt;Node3 -->
<g id="edge2" class="edge"><title>Node1&#45;&gt;Node3</title>
<path fill="none" stroke="midnightblue" d="M73.7888,-190.626C93.763,-193.381 117.737,-196.688 137.652,-199.435"/>
<polygon fill="midnightblue" stroke="midnightblue" points="74.1352,-187.141 63.7508,-189.241 73.1787,-194.075 74.1352,-187.141"/>
</g>
<!-- Node4 -->
<g id="node4" class="node"><title>Node4</title>
<g id="a_node4"><a xlink:href="class_c_f_i_1_1_ranged_c_f_i_append_attempt.xhtml" target="_top" xlink:title="An attempt was made to append components to a ranged CFI, which is not valid.">
<polygon fill="white" stroke="black" points="100.131,-156 100.131,-176 257.869,-176 257.869,-156 100.131,-156"/>
<text text-anchor="middle" x="179" y="-162" font-family="Helvetica,sans-Serif" font-size="10.00">CFI::RangedCFIAppendAttempt</text>
</a>
</g>
</g>
<!-- Node1&#45;&gt;Node4 -->
<g id="edge3" class="edge"><title>Node1&#45;&gt;Node4</title>
<path fill="none" stroke="midnightblue" d="M73.9459,-179.635C82.647,-178.495 92.1014,-177.256 101.645,-176.005"/>
<polygon fill="midnightblue" stroke="midnightblue" points="73.2112,-176.201 63.7508,-180.971 74.1208,-183.142 73.2112,-176.201"/>
</g>
<!-- Node5 -->
<g id="node5" class="node"><title>Node5</title>
<g id="a_node5"><a xlink:href="classfuture__error.xhtml" target="_top" xlink:title="future_error">
<polygon fill="white" stroke="black" points="144.877,-117 144.877,-137 213.123,-137 213.123,-117 144.877,-117"/>
<text text-anchor="middle" x="179" y="-123" font-family="Helvetica,sans-Serif" font-size="10.00">future_error</text>
</a>
</g>
</g>
<!-- Node1&#45;&gt;Node5 -->
<g id="edge4" class="edge"><title>Node1&#45;&gt;Node5</title>
<path fill="none" stroke="midnightblue" d="M56.9347,-169.366C69.381,-161.776 85.0777,-153.02 100,-147 114.261,-141.247 130.668,-136.745 144.743,-133.482"/>
<polygon fill="midnightblue" stroke="midnightblue" points="54.7412,-166.61 48.1171,-174.879 58.4519,-172.546 54.7412,-166.61"/>
</g>
<!-- Node6 -->
<g id="node6" class="node"><title>Node6</title>
<g id="a_node6"><a xlink:href="classbroken__promise.xhtml" target="_top" xlink:title="broken_promise">
<polygon fill="white" stroke="black" points="316.148,-234 316.148,-254 403.852,-254 403.852,-234 316.148,-234"/>
<text text-anchor="middle" x="360" y="-240" font-family="Helvetica,sans-Serif" font-size="10.00">broken_promise</text>
</a>
</g>
</g>
<!-- Node5&#45;&gt;Node6 -->
<g id="edge5" class="edge"><title>Node5&#45;&gt;Node6</title>
<path fill="none" stroke="midnightblue" d="M223.386,-131.132C235.624,-134.046 248.247,-138.914 258,-147 287.082,-171.112 265.499,-199.204 294,-224 300.324,-229.502 308.141,-233.491 316.134,-236.382"/>
<polygon fill="midnightblue" stroke="midnightblue" points="223.759,-127.638 213.268,-129.116 222.391,-134.503 223.759,-127.638"/>
</g>
<!-- Node7 -->
<g id="node7" class="node"><title>Node7</title>
<g id="a_node7"><a xlink:href="classfuture__already__retrieved.xhtml" target="_top" xlink:title="future_already_retrieved">
<polygon fill="white" stroke="black" points="297.801,-195 297.801,-215 422.199,-215 422.199,-195 297.801,-195"/>
<text text-anchor="middle" x="360" y="-201" font-family="Helvetica,sans-Serif" font-size="10.00">future_already_retrieved</text>
</a>
</g>
</g>
<!-- Node5&#45;&gt;Node7 -->
<g id="edge6" class="edge"><title>Node5&#45;&gt;Node7</title>
<path fill="none" stroke="midnightblue" d="M223.544,-133.617C235.257,-136.585 247.562,-140.86 258,-147 278.053,-158.795 274.233,-172.732 294,-185 300.521,-189.047 307.92,-192.328 315.333,-194.972"/>
<polygon fill="midnightblue" stroke="midnightblue" points="223.991,-130.129 213.464,-131.33 222.442,-136.956 223.991,-130.129"/>
</g>
<!-- Node8 -->
<g id="node8" class="node"><title>Node8</title>
<g id="a_node8"><a xlink:href="classfuture__uninitialized.xhtml" target="_top" xlink:title="future_uninitialized">
<polygon fill="white" stroke="black" points="310.306,-156 310.306,-176 409.694,-176 409.694,-156 310.306,-156"/>
<text text-anchor="middle" x="360" y="-162" font-family="Helvetica,sans-Serif" font-size="10.00">future_uninitialized</text>
</a>
</g>
</g>
<!-- Node5&#45;&gt;Node8 -->
<g id="edge7" class="edge"><title>Node5&#45;&gt;Node8</title>
<path fill="none" stroke="midnightblue" d="M223.211,-136.415C250.282,-142.313 285.148,-149.909 312.771,-155.928"/>
<polygon fill="midnightblue" stroke="midnightblue" points="223.765,-132.953 213.249,-134.244 222.275,-139.793 223.765,-132.953"/>
</g>
<!-- Node9 -->
<g id="node9" class="node"><title>Node9</title>
<g id="a_node9"><a xlink:href="classpromise__already__satisfied.xhtml" target="_top" xlink:title="promise_already_satisfied">
<polygon fill="white" stroke="black" points="293.914,-117 293.914,-137 426.086,-137 426.086,-117 293.914,-117"/>
<text text-anchor="middle" x="360" y="-123" font-family="Helvetica,sans-Serif" font-size="10.00">promise_already_satisfied</text>
</a>
</g>
</g>
<!-- Node5&#45;&gt;Node9 -->
<g id="edge8" class="edge"><title>Node5&#45;&gt;Node9</title>
<path fill="none" stroke="midnightblue" d="M223.493,-127C244.56,-127 270.298,-127 293.662,-127"/>
<polygon fill="midnightblue" stroke="midnightblue" points="223.249,-123.5 213.249,-127 223.249,-130.5 223.249,-123.5"/>
</g>
<!-- Node10 -->
<g id="node10" class="node"><title>Node10</title>
<g id="a_node10"><a xlink:href="classpromise__moved.xhtml" target="_top" xlink:title="promise_moved">
<polygon fill="white" stroke="black" points="316.429,-78 316.429,-98 403.571,-98 403.571,-78 316.429,-78"/>
<text text-anchor="middle" x="360" y="-84" font-family="Helvetica,sans-Serif" font-size="10.00">promise_moved</text>
</a>
</g>
</g>
<!-- Node5&#45;&gt;Node10 -->
<g id="edge9" class="edge"><title>Node5&#45;&gt;Node10</title>
<path fill="none" stroke="midnightblue" d="M223.215,-117.584C251.387,-111.446 288.001,-103.469 316.108,-97.3452"/>
<polygon fill="midnightblue" stroke="midnightblue" points="222.275,-114.207 213.249,-119.756 223.765,-121.047 222.275,-114.207"/>
</g>
<!-- Node11 -->
<g id="node11" class="node"><title>Node11</title>
<g id="a_node11"><a xlink:href="classtask__already__started.xhtml" target="_top" xlink:title="task_already_started">
<polygon fill="white" stroke="black" points="305.584,-39 305.584,-59 414.416,-59 414.416,-39 305.584,-39"/>
<text text-anchor="middle" x="360" y="-45" font-family="Helvetica,sans-Serif" font-size="10.00">task_already_started</text>
</a>
</g>
</g>
<!-- Node5&#45;&gt;Node11 -->
<g id="edge10" class="edge"><title>Node5&#45;&gt;Node11</title>
<path fill="none" stroke="midnightblue" d="M206.342,-111.956C229.066,-99.3796 263.021,-81.5378 294,-69 303.084,-65.3236 313.11,-61.9287 322.513,-59.0193"/>
<polygon fill="midnightblue" stroke="midnightblue" points="204.352,-109.058 197.331,-116.992 207.768,-115.168 204.352,-109.058"/>
</g>
<!-- Node12 -->
<g id="node12" class="node"><title>Node12</title>
<g id="a_node12"><a xlink:href="classtask__moved.xhtml" target="_top" xlink:title="task_moved">
<polygon fill="white" stroke="black" points="325.042,-0 325.042,-20 394.958,-20 394.958,-0 325.042,-0"/>
<text text-anchor="middle" x="360" y="-6" font-family="Helvetica,sans-Serif" font-size="10.00">task_moved</text>
</a>
</g>
</g>
<!-- Node5&#45;&gt;Node12 -->
<g id="edge11" class="edge"><title>Node5&#45;&gt;Node12</title>
<path fill="none" stroke="midnightblue" d="M196.101,-109.475C216.811,-87.905 254.807,-51.5005 294,-30 303.523,-24.7757 314.597,-20.7233 324.876,-17.6753"/>
<polygon fill="midnightblue" stroke="midnightblue" points="193.361,-107.279 189.043,-116.954 198.452,-112.083 193.361,-107.279"/>
</g>
</g>
</svg>
