<?xml version="1.0" encoding="UTF-8" standalone="no"?>
<!DOCTYPE svg PUBLIC "-//W3C//DTD SVG 1.1//EN"
 "http://www.w3.org/Graphics/SVG/1.1/DTD/svg11.dtd">
<!-- Generated by graphviz version 2.30.0 (20130114.0426)
 -->
<!-- Title: Graphical Class Hierarchy Pages: 1 -->
<svg width="268pt" height="130pt"
 viewBox="0.00 0.00 268.00 130.00" xmlns="http://www.w3.org/2000/svg" xmlns:xlink="http://www.w3.org/1999/xlink">
<g id="graph0" class="graph" transform="scale(1 1) rotate(0) translate(4 126)">
<title>Graphical Class Hierarchy</title>
<polygon fill="white" stroke="white" points="-4,5 -4,-126 265,-126 265,5 -4,5"/>
<!-- Node1 -->
<g id="node1" class="node"><title>Node1</title>
<polygon fill="white" stroke="#bfbfbf" points="0.0888672,-57 0.0888672,-77 83.9111,-77 83.9111,-57 0.0888672,-57"/>
<text text-anchor="middle" x="42" y="-63" font-family="Helvetica,sans-Serif" font-size="10.00">binary_function</text>
</g>
<!-- Node2 -->
<g id="node2" class="node"><title>Node2</title>
<g id="a_node2"><a xlink:href="struct____timed__closure__less.xhtml" target="_top" xlink:title="__timed_closure_less">
<polygon fill="white" stroke="black" points="133.641,-102 133.641,-122 246.359,-122 246.359,-102 133.641,-102"/>
<text text-anchor="middle" x="190" y="-108" font-family="Helvetica,sans-Serif" font-size="10.00">__timed_closure_less</text>
</a>
</g>
</g>
<!-- Node1&#45;&gt;Node2 -->
<g id="edge1" class="edge"><title>Node1&#45;&gt;Node2</title>
<path fill="none" stroke="midnightblue" d="M82.9501,-80.2377C94.847,-84.1076 107.929,-88.2921 120,-92 130.849,-95.3327 142.704,-98.8232 153.479,-101.938"/>
<polygon fill="midnightblue" stroke="midnightblue" points="83.8762,-76.8583 73.2837,-77.0784 81.7015,-83.5119 83.8762,-76.8583"/>
</g>
<!-- Node3 -->
<g id="node3" class="node"><title>Node3</title>
<g id="a_node3"><a xlink:href="structdoj_1_1alphanum__less.xhtml" target="_top" xlink:title="doj::alphanum_less\l\&lt; Ty \&gt;">
<polygon fill="white" stroke="black" points="138.917,-51 138.917,-83 241.083,-83 241.083,-51 138.917,-51"/>
<text text-anchor="start" x="146.917" y="-69" font-family="Helvetica,sans-Serif" font-size="10.00">doj::alphanum_less</text>
<text text-anchor="middle" x="190" y="-57" font-family="Helvetica,sans-Serif" font-size="10.00">&lt; Ty &gt;</text>
</a>
</g>
</g>
<!-- Node1&#45;&gt;Node3 -->
<g id="edge2" class="edge"><title>Node1&#45;&gt;Node3</title>
<path fill="none" stroke="midnightblue" d="M94.3345,-67C108.801,-67 124.517,-67 138.91,-67"/>
<polygon fill="midnightblue" stroke="midnightblue" points="94.0577,-63.5001 84.0577,-67 94.0576,-70.5001 94.0577,-63.5001"/>
</g>
<!-- Node4 -->
<g id="node4" class="node"><title>Node4</title>
<g id="a_node4"><a xlink:href="struct_filter_manager_1_1_priority_order_high_to_low.xhtml" target="_top" xlink:title="FilterManager::PriorityOrder\lHighToLow">
<polygon fill="white" stroke="black" points="120.04,-0 120.04,-32 259.96,-32 259.96,-0 120.04,-0"/>
<text text-anchor="start" x="128.04" y="-18" font-family="Helvetica,sans-Serif" font-size="10.00">FilterManager::PriorityOrder</text>
<text text-anchor="middle" x="190" y="-6" font-family="Helvetica,sans-Serif" font-size="10.00">HighToLow</text>
</a>
</g>
</g>
<!-- Node1&#45;&gt;Node4 -->
<g id="edge3" class="edge"><title>Node1&#45;&gt;Node4</title>
<path fill="none" stroke="midnightblue" d="M81.3181,-53.6149C100.209,-47.0159 123.138,-39.0067 142.974,-32.0777"/>
<polygon fill="midnightblue" stroke="midnightblue" points="80.1313,-50.322 71.8449,-56.924 82.4397,-56.9304 80.1313,-50.322"/>
</g>
</g>
</svg>
