<?xml version="1.0" encoding="UTF-8" standalone="no"?>
<!DOCTYPE svg PUBLIC "-//W3C//DTD SVG 1.1//EN"
 "http://www.w3.org/Graphics/SVG/1.1/DTD/svg11.dtd">
<!-- Generated by graphviz version 2.30.0 (20130114.0426)
 -->
<!-- Title: Graphical Class Hierarchy Pages: 1 -->
<svg width="188pt" height="181pt"
 viewBox="0.00 0.00 188.00 181.00" xmlns="http://www.w3.org/2000/svg" xmlns:xlink="http://www.w3.org/1999/xlink">
<g id="graph0" class="graph" transform="scale(1 1) rotate(0) translate(4 177)">
<title>Graphical Class Hierarchy</title>
<polygon fill="white" stroke="white" points="-4,5 -4,-177 185,-177 185,5 -4,5"/>
<!-- Node1 -->
<g id="node1" class="node"><title>Node1</title>
<polygon fill="white" stroke="#bfbfbf" points="0.5,-82 0.5,-102 29.5,-102 29.5,-82 0.5,-82"/>
<text text-anchor="middle" x="15" y="-88" font-family="Helvetica,sans-Serif" font-size="10.00">list</text>
</g>
<!-- Node2 -->
<g id="node2" class="node"><title>Node2</title>
<g id="a_node2"><a xlink:href="classshared__list.xhtml" target="_top" xlink:title="shared_list\&lt; _Tp \&gt;">
<polygon fill="white" stroke="black" points="73.5864,-153 73.5864,-173 172.414,-173 172.414,-153 73.5864,-153"/>
<text text-anchor="middle" x="123" y="-159" font-family="Helvetica,sans-Serif" font-size="10.00">shared_list&lt; _Tp &gt;</text>
</a>
</g>
</g>
<!-- Node1&#45;&gt;Node2 -->
<g id="edge1" class="edge"><title>Node1&#45;&gt;Node2</title>
<path fill="none" stroke="midnightblue" d="M30.3379,-110.346C39.5483,-121.1 52.319,-134.247 66,-143 72.1743,-146.95 79.2313,-150.248 86.2064,-152.951"/>
<polygon fill="midnightblue" stroke="midnightblue" points="32.8242,-107.859 23.7654,-102.365 27.4206,-112.309 32.8242,-107.859"/>
</g>
<!-- Node3 -->
<g id="node3" class="node"><title>Node3</title>
<g id="a_node3"><a xlink:href="classshared__list.xhtml" target="_top" xlink:title="shared_list\&lt; RunLoop\l::EventSource \&gt;">
<polygon fill="white" stroke="black" points="66.2158,-102 66.2158,-134 179.784,-134 179.784,-102 66.2158,-102"/>
<text text-anchor="start" x="74.2158" y="-120" font-family="Helvetica,sans-Serif" font-size="10.00">shared_list&lt; RunLoop</text>
<text text-anchor="middle" x="123" y="-108" font-family="Helvetica,sans-Serif" font-size="10.00">::EventSource &gt;</text>
</a>
</g>
</g>
<!-- Node1&#45;&gt;Node3 -->
<g id="edge2" class="edge"><title>Node1&#45;&gt;Node3</title>
<path fill="none" stroke="midnightblue" d="M39.6843,-97.8094C47.5376,-99.7356 56.6438,-101.969 65.8767,-104.234"/>
<polygon fill="midnightblue" stroke="midnightblue" points="40.4036,-94.3821 29.8576,-95.399 38.736,-101.181 40.4036,-94.3821"/>
</g>
<!-- Node4 -->
<g id="node4" class="node"><title>Node4</title>
<g id="a_node4"><a xlink:href="classshared__list.xhtml" target="_top" xlink:title="shared_list\&lt; RunLoop\l::Observer \&gt;">
<polygon fill="white" stroke="black" points="66.2158,-51 66.2158,-83 179.784,-83 179.784,-51 66.2158,-51"/>
<text text-anchor="start" x="74.2158" y="-69" font-family="Helvetica,sans-Serif" font-size="10.00">shared_list&lt; RunLoop</text>
<text text-anchor="middle" x="123" y="-57" font-family="Helvetica,sans-Serif" font-size="10.00">::Observer &gt;</text>
</a>
</g>
</g>
<!-- Node1&#45;&gt;Node4 -->
<g id="edge3" class="edge"><title>Node1&#45;&gt;Node4</title>
<path fill="none" stroke="midnightblue" d="M39.6843,-86.4141C47.5376,-84.5619 56.6438,-82.4142 65.8767,-80.2366"/>
<polygon fill="midnightblue" stroke="midnightblue" points="38.7872,-83.0296 29.8576,-88.7317 40.3941,-89.8426 38.7872,-83.0296"/>
</g>
<!-- Node5 -->
<g id="node5" class="node"><title>Node5</title>
<g id="a_node5"><a xlink:href="classshared__list.xhtml" target="_top" xlink:title="shared_list\&lt; RunLoop\l::Timer \&gt;">
<polygon fill="white" stroke="black" points="66.2158,-0 66.2158,-32 179.784,-32 179.784,-0 66.2158,-0"/>
<text text-anchor="start" x="74.2158" y="-18" font-family="Helvetica,sans-Serif" font-size="10.00">shared_list&lt; RunLoop</text>
<text text-anchor="middle" x="123" y="-6" font-family="Helvetica,sans-Serif" font-size="10.00">::Timer &gt;</text>
</a>
</g>
</g>
<!-- Node1&#45;&gt;Node5 -->
<g id="edge4" class="edge"><title>Node1&#45;&gt;Node5</title>
<path fill="none" stroke="midnightblue" d="M31.0359,-74.0886C40.3462,-63.7773 52.9793,-51.1011 66,-42 71.1835,-38.3769 76.9522,-35.0428 82.7611,-32.0569"/>
<polygon fill="midnightblue" stroke="midnightblue" points="28.2926,-71.9086 24.3377,-81.7377 33.5588,-76.5203 28.2926,-71.9086"/>
</g>
</g>
</svg>
