<?xml version="1.0" encoding="UTF-8" standalone="no"?>
<!DOCTYPE svg PUBLIC "-//W3C//DTD SVG 1.1//EN"
 "http://www.w3.org/Graphics/SVG/1.1/DTD/svg11.dtd">
<!-- Generated by graphviz version 2.30.0 (20130114.0426)
 -->
<!-- Title: Graphical Class Hierarchy Pages: 1 -->
<svg width="392pt" height="125pt"
 viewBox="0.00 0.00 392.00 125.00" xmlns="http://www.w3.org/2000/svg" xmlns:xlink="http://www.w3.org/1999/xlink">
<g id="graph0" class="graph" transform="scale(1 1) rotate(0) translate(4 121)">
<title>Graphical Class Hierarchy</title>
<polygon fill="white" stroke="white" points="-4,5 -4,-121 389,-121 389,5 -4,5"/>
<!-- Node1 -->
<g id="node1" class="node"><title>Node1</title>
<g id="a_node1"><a xlink:href="class_byte_stream.xhtml" target="_top" xlink:title="ByteStream">
<polygon fill="white" stroke="black" points="-0.120605,-58 -0.120605,-78 68.1206,-78 68.1206,-58 -0.120605,-58"/>
<text text-anchor="middle" x="34" y="-64" font-family="Helvetica,sans-Serif" font-size="10.00">ByteStream</text>
</a>
</g>
</g>
<!-- Node2 -->
<g id="node2" class="node"><title>Node2</title>
<g id="a_node2"><a xlink:href="class_filter_chain_byte_stream.xhtml" target="_top" xlink:title="FilterChainByteStream">
<polygon fill="white" stroke="black" points="118.705,-97 118.705,-117 235.295,-117 235.295,-97 118.705,-97"/>
<text text-anchor="middle" x="177" y="-103" font-family="Helvetica,sans-Serif" font-size="10.00">FilterChainByteStream</text>
</a>
</g>
</g>
<!-- Node1&#45;&gt;Node2 -->
<g id="edge1" class="edge"><title>Node1&#45;&gt;Node2</title>
<path fill="none" stroke="midnightblue" d="M78.0649,-79.9116C97.7476,-85.3557 120.811,-91.7349 139.61,-96.9347"/>
<polygon fill="midnightblue" stroke="midnightblue" points="78.9862,-76.535 68.415,-77.2425 77.1201,-83.2817 78.9862,-76.535"/>
</g>
<!-- Node3 -->
<g id="node3" class="node"><title>Node3</title>
<g id="a_node3"><a xlink:href="class_filter_chain_byte_stream_range.xhtml" target="_top" xlink:title="FilterChainByteStreamRange">
<polygon fill="white" stroke="black" points="103.971,-58 103.971,-78 250.029,-78 250.029,-58 103.971,-58"/>
<text text-anchor="middle" x="177" y="-64" font-family="Helvetica,sans-Serif" font-size="10.00">FilterChainByteStreamRange</text>
</a>
</g>
</g>
<!-- Node1&#45;&gt;Node3 -->
<g id="edge2" class="edge"><title>Node1&#45;&gt;Node3</title>
<path fill="none" stroke="midnightblue" d="M78.6451,-68C86.7012,-68 95.3073,-68 103.945,-68"/>
<polygon fill="midnightblue" stroke="midnightblue" points="78.4151,-64.5001 68.415,-68 78.415,-71.5001 78.4151,-64.5001"/>
</g>
<!-- Node4 -->
<g id="node4" class="node"><title>Node4</title>
<g id="a_node4"><a xlink:href="class_seekable_byte_stream.xhtml" target="_top" xlink:title="SeekableByteStream">
<polygon fill="white" stroke="black" points="122.03,-19 122.03,-39 231.97,-39 231.97,-19 122.03,-19"/>
<text text-anchor="middle" x="177" y="-25" font-family="Helvetica,sans-Serif" font-size="10.00">SeekableByteStream</text>
</a>
</g>
</g>
<!-- Node1&#45;&gt;Node4 -->
<g id="edge3" class="edge"><title>Node1&#45;&gt;Node4</title>
<path fill="none" stroke="midnightblue" d="M78.0649,-56.0884C97.7476,-50.6443 120.811,-44.2651 139.61,-39.0653"/>
<polygon fill="midnightblue" stroke="midnightblue" points="77.1201,-52.7183 68.415,-58.7575 78.9862,-59.465 77.1201,-52.7183"/>
</g>
<!-- Node5 -->
<g id="node5" class="node"><title>Node5</title>
<g id="a_node5"><a xlink:href="class_file_byte_stream.xhtml" target="_top" xlink:title="FileByteStream">
<polygon fill="white" stroke="black" points="292.823,-39 292.823,-59 377.177,-59 377.177,-39 292.823,-39"/>
<text text-anchor="middle" x="335" y="-45" font-family="Helvetica,sans-Serif" font-size="10.00">FileByteStream</text>
</a>
</g>
</g>
<!-- Node4&#45;&gt;Node5 -->
<g id="edge4" class="edge"><title>Node4&#45;&gt;Node5</title>
<path fill="none" stroke="midnightblue" d="M242.071,-37.2143C259.192,-39.4093 277.239,-41.723 292.766,-43.7136"/>
<polygon fill="midnightblue" stroke="midnightblue" points="242.487,-33.739 232.123,-35.9389 241.597,-40.6822 242.487,-33.739"/>
</g>
<!-- Node6 -->
<g id="node6" class="node"><title>Node6</title>
<g id="a_node6"><a xlink:href="class_zip_file_byte_stream.xhtml" target="_top" xlink:title="ZipFileByteStream">
<polygon fill="white" stroke="black" points="285.877,-0 285.877,-20 384.123,-20 384.123,-0 285.877,-0"/>
<text text-anchor="middle" x="335" y="-6" font-family="Helvetica,sans-Serif" font-size="10.00">ZipFileByteStream</text>
</a>
</g>
</g>
<!-- Node4&#45;&gt;Node6 -->
<g id="edge5" class="edge"><title>Node4&#45;&gt;Node6</title>
<path fill="none" stroke="midnightblue" d="M242.084,-21.1949C256.664,-19.4191 271.914,-17.5617 285.707,-15.8818"/>
<polygon fill="midnightblue" stroke="midnightblue" points="241.627,-17.7246 232.123,-22.408 242.473,-24.6733 241.627,-17.7246"/>
</g>
</g>
</svg>
