<?xml version="1.0" encoding="UTF-8" standalone="no"?>
<!DOCTYPE svg PUBLIC "-//W3C//DTD SVG 1.1//EN"
 "http://www.w3.org/Graphics/SVG/1.1/DTD/svg11.dtd">
<!-- Generated by graphviz version 2.30.0 (20130114.0426)
 -->
<!-- Title: Graphical Class Hierarchy Pages: 1 -->
<svg width="294pt" height="40pt"
 viewBox="0.00 0.00 294.00 40.00" xmlns="http://www.w3.org/2000/svg" xmlns:xlink="http://www.w3.org/1999/xlink">
<g id="graph0" class="graph" transform="scale(1 1) rotate(0) translate(4 36)">
<title>Graphical Class Hierarchy</title>
<polygon fill="white" stroke="white" points="-4,5 -4,-36 291,-36 291,5 -4,5"/>
<!-- Node1 -->
<g id="node1" class="node"><title>Node1</title>
<g id="a_node1"><a xlink:href="struct____task__base__shared__state.xhtml" target="_top" xlink:title="__task_base_shared\l_state\&lt; _Rp &amp;(_Args...)\&gt;">
<polygon fill="white" stroke="black" points="0.694824,-0 0.694824,-32 127.305,-32 127.305,-0 0.694824,-0"/>
<text text-anchor="start" x="8.69482" y="-18" font-family="Helvetica,sans-Serif" font-size="10.00">__task_base_shared</text>
<text text-anchor="middle" x="64" y="-6" font-family="Helvetica,sans-Serif" font-size="10.00">_state&lt; _Rp &amp;(_Args...)&gt;</text>
</a>
</g>
</g>
<!-- Node2 -->
<g id="node2" class="node"><title>Node2</title>
<g id="a_node2"><a xlink:href="struct____task__shared__state_3_01___fp_00_01___rp_01_6_07___args_8_8_8_08_4.xhtml" target="_top" xlink:title="__task_shared_state\l\&lt; _Fp, _Rp &amp;(_Args...)\&gt;">
<polygon fill="white" stroke="black" points="163.921,-0 163.921,-32 286.079,-32 286.079,-0 163.921,-0"/>
<text text-anchor="start" x="171.921" y="-18" font-family="Helvetica,sans-Serif" font-size="10.00">__task_shared_state</text>
<text text-anchor="middle" x="225" y="-6" font-family="Helvetica,sans-Serif" font-size="10.00">&lt; _Fp, _Rp &amp;(_Args...)&gt;</text>
</a>
</g>
</g>
<!-- Node1&#45;&gt;Node2 -->
<g id="edge1" class="edge"><title>Node1&#45;&gt;Node2</title>
<path fill="none" stroke="midnightblue" d="M137.619,-16C146.403,-16 155.3,-16 163.877,-16"/>
<polygon fill="midnightblue" stroke="midnightblue" points="137.385,-12.5001 127.385,-16 137.385,-19.5001 137.385,-12.5001"/>
</g>
</g>
</svg>
