<?xml version="1.0" encoding="UTF-8" standalone="no"?>
<!DOCTYPE svg PUBLIC "-//W3C//DTD SVG 1.1//EN"
 "http://www.w3.org/Graphics/SVG/1.1/DTD/svg11.dtd">
<!-- Generated by graphviz version 2.30.0 (20130114.0426)
 -->
<!-- Title: Graphical Class Hierarchy Pages: 1 -->
<svg width="272pt" height="40pt"
 viewBox="0.00 0.00 272.00 40.00" xmlns="http://www.w3.org/2000/svg" xmlns:xlink="http://www.w3.org/1999/xlink">
<g id="graph0" class="graph" transform="scale(1 1) rotate(0) translate(4 36)">
<title>Graphical Class Hierarchy</title>
<polygon fill="white" stroke="white" points="-4,5 -4,-36 269,-36 269,5 -4,5"/>
<!-- Node1 -->
<g id="node1" class="node"><title>Node1</title>
<g id="a_node1"><a xlink:href="class____epub3__compressed__pair__imp.xhtml" target="_top" xlink:title="__epub3_compressed\l_pair_imp\&lt; _T1, _T2 \&gt;">
<polygon fill="white" stroke="black" points="0.416504,-0 0.416504,-32 117.583,-32 117.583,-0 0.416504,-0"/>
<text text-anchor="start" x="8.4165" y="-18" font-family="Helvetica,sans-Serif" font-size="10.00">__epub3_compressed</text>
<text text-anchor="middle" x="59" y="-6" font-family="Helvetica,sans-Serif" font-size="10.00">_pair_imp&lt; _T1, _T2 &gt;</text>
</a>
</g>
</g>
<!-- Node2 -->
<g id="node2" class="node"><title>Node2</title>
<g id="a_node2"><a xlink:href="class____compressed__pair.xhtml" target="_top" xlink:title="__compressed_pair\&lt;\l _T1, _T2 \&gt;">
<polygon fill="white" stroke="black" points="154.167,-0 154.167,-32 263.833,-32 263.833,-0 154.167,-0"/>
<text text-anchor="start" x="162.167" y="-18" font-family="Helvetica,sans-Serif" font-size="10.00">__compressed_pair&lt;</text>
<text text-anchor="middle" x="209" y="-6" font-family="Helvetica,sans-Serif" font-size="10.00"> _T1, _T2 &gt;</text>
</a>
</g>
</g>
<!-- Node1&#45;&gt;Node2 -->
<g id="edge1" class="edge"><title>Node1&#45;&gt;Node2</title>
<path fill="none" stroke="#8b1a1a" d="M127.893,-16C136.695,-16 145.612,-16 154.143,-16"/>
<polygon fill="#8b1a1a" stroke="#8b1a1a" points="127.644,-12.5001 117.644,-16 127.644,-19.5001 127.644,-12.5001"/>
</g>
</g>
</svg>
