<?xml version="1.0" encoding="UTF-8" standalone="no"?>
<!DOCTYPE svg PUBLIC "-//W3C//DTD SVG 1.1//EN"
 "http://www.w3.org/Graphics/SVG/1.1/DTD/svg11.dtd">
<!-- Generated by graphviz version 2.30.0 (20130114.0426)
 -->
<!-- Title: Graphical Class Hierarchy Pages: 1 -->
<svg width="246pt" height="67pt"
 viewBox="0.00 0.00 246.00 67.00" xmlns="http://www.w3.org/2000/svg" xmlns:xlink="http://www.w3.org/1999/xlink">
<g id="graph0" class="graph" transform="scale(1 1) rotate(0) translate(4 63)">
<title>Graphical Class Hierarchy</title>
<polygon fill="white" stroke="white" points="-4,5 -4,-63 243,-63 243,5 -4,5"/>
<!-- Node1 -->
<g id="node1" class="node"><title>Node1</title>
<polygon fill="white" stroke="#bfbfbf" points="0.485352,-19 0.485352,-39 81.5146,-39 81.5146,-19 0.485352,-19"/>
<text text-anchor="middle" x="41" y="-25" font-family="Helvetica,sans-Serif" font-size="10.00">error_category</text>
</g>
<!-- Node2 -->
<g id="node2" class="node"><title>Node2</title>
<g id="a_node2"><a xlink:href="class____epub__spec__category.xhtml" target="_top" xlink:title="__epub_spec_category">
<polygon fill="white" stroke="black" points="118.015,-39 118.015,-59 237.985,-59 237.985,-39 118.015,-39"/>
<text text-anchor="middle" x="178" y="-45" font-family="Helvetica,sans-Serif" font-size="10.00">__epub_spec_category</text>
</a>
</g>
</g>
<!-- Node1&#45;&gt;Node2 -->
<g id="edge1" class="edge"><title>Node1&#45;&gt;Node2</title>
<path fill="none" stroke="midnightblue" d="M91.8994,-36.3925C100.395,-37.6512 109.291,-38.9691 117.996,-40.2586"/>
<polygon fill="midnightblue" stroke="midnightblue" points="92.1793,-32.8958 81.7743,-34.8925 91.1534,-39.8203 92.1793,-32.8958"/>
</g>
<!-- Node3 -->
<g id="node3" class="node"><title>Node3</title>
<g id="a_node3"><a xlink:href="class____future__category.xhtml" target="_top" xlink:title="__future_category">
<polygon fill="white" stroke="black" points="129.695,-0 129.695,-20 226.305,-20 226.305,-0 129.695,-0"/>
<text text-anchor="middle" x="178" y="-6" font-family="Helvetica,sans-Serif" font-size="10.00">__future_category</text>
</a>
</g>
</g>
<!-- Node1&#45;&gt;Node3 -->
<g id="edge2" class="edge"><title>Node1&#45;&gt;Node3</title>
<path fill="none" stroke="midnightblue" d="M91.8495,-21.9841C104.125,-20.2565 117.238,-18.4109 129.404,-16.6987"/>
<polygon fill="midnightblue" stroke="midnightblue" points="91.1889,-18.5425 81.7743,-23.4021 92.1645,-25.4742 91.1889,-18.5425"/>
</g>
</g>
</svg>
