<?xml version="1.0" encoding="UTF-8" standalone="no"?>
<!DOCTYPE svg PUBLIC "-//W3C//DTD SVG 1.1//EN"
 "http://www.w3.org/Graphics/SVG/1.1/DTD/svg11.dtd">
<!-- Generated by graphviz version 2.30.0 (20130114.0426)
 -->
<!-- Title: Graphical Class Hierarchy Pages: 1 -->
<svg width="276pt" height="67pt"
 viewBox="0.00 0.00 276.00 67.00" xmlns="http://www.w3.org/2000/svg" xmlns:xlink="http://www.w3.org/1999/xlink">
<g id="graph0" class="graph" transform="scale(1 1) rotate(0) translate(4 63)">
<title>Graphical Class Hierarchy</title>
<polygon fill="white" stroke="white" points="-4,5 -4,-63 273,-63 273,5 -4,5"/>
<!-- Node1 -->
<g id="node1" class="node"><title>Node1</title>
<g id="a_node1"><a xlink:href="class____basic__future.xhtml" target="_top" xlink:title="__basic_future\&lt; _Rp \&gt;">
<polygon fill="white" stroke="black" points="0.40918,-19 0.40918,-39 117.591,-39 117.591,-19 0.40918,-19"/>
<text text-anchor="middle" x="59" y="-25" font-family="Helvetica,sans-Serif" font-size="10.00">__basic_future&lt; _Rp &gt;</text>
</a>
</g>
</g>
<!-- Node2 -->
<g id="node2" class="node"><title>Node2</title>
<g id="a_node2"><a xlink:href="classfuture.xhtml" target="_top" xlink:title="future\&lt; _Rp \&gt;">
<polygon fill="white" stroke="black" points="172.424,-39 172.424,-59 249.576,-59 249.576,-39 172.424,-39"/>
<text text-anchor="middle" x="211" y="-45" font-family="Helvetica,sans-Serif" font-size="10.00">future&lt; _Rp &gt;</text>
</a>
</g>
</g>
<!-- Node1&#45;&gt;Node2 -->
<g id="edge1" class="edge"><title>Node1&#45;&gt;Node2</title>
<path fill="none" stroke="midnightblue" d="M128.314,-38.1085C143.347,-40.1129 158.741,-42.1655 172.055,-43.9406"/>
<polygon fill="midnightblue" stroke="midnightblue" points="128.369,-34.5849 117.994,-36.7325 127.444,-41.5235 128.369,-34.5849"/>
</g>
<!-- Node3 -->
<g id="node3" class="node"><title>Node3</title>
<g id="a_node3"><a xlink:href="classshared__future.xhtml" target="_top" xlink:title="shared_future\&lt; _Rp \&gt;">
<polygon fill="white" stroke="black" points="154.355,-0 154.355,-20 267.645,-20 267.645,-0 154.355,-0"/>
<text text-anchor="middle" x="211" y="-6" font-family="Helvetica,sans-Serif" font-size="10.00">shared_future&lt; _Rp &gt;</text>
</a>
</g>
</g>
<!-- Node1&#45;&gt;Node3 -->
<g id="edge2" class="edge"><title>Node1&#45;&gt;Node3</title>
<path fill="none" stroke="midnightblue" d="M128.125,-20.3709C136.827,-19.2685 145.654,-18.1504 154.132,-17.0766"/>
<polygon fill="midnightblue" stroke="midnightblue" points="127.475,-16.9251 117.994,-21.6541 128.354,-23.8696 127.475,-16.9251"/>
</g>
</g>
</svg>
