<?xml version="1.0" encoding="UTF-8" standalone="no"?>
<!DOCTYPE svg PUBLIC "-//W3C//DTD SVG 1.1//EN"
 "http://www.w3.org/Graphics/SVG/1.1/DTD/svg11.dtd">
<!-- Generated by graphviz version 2.30.0 (20130114.0426)
 -->
<!-- Title: Graphical Class Hierarchy Pages: 1 -->
<svg width="290pt" height="280pt"
 viewBox="0.00 0.00 290.00 280.00" xmlns="http://www.w3.org/2000/svg" xmlns:xlink="http://www.w3.org/1999/xlink">
<g id="graph0" class="graph" transform="scale(1 1) rotate(0) translate(4 276)">
<title>Graphical Class Hierarchy</title>
<polygon fill="white" stroke="white" points="-4,5 -4,-276 287,-276 287,5 -4,5"/>
<!-- Node1 -->
<g id="node1" class="node"><title>Node1</title>
<g id="a_node1"><a xlink:href="struct____check__complete.xhtml" target="_top" xlink:title="__check_complete\&lt; \l_Class \&gt;">
<polygon fill="white" stroke="black" points="-0.000976562,-120 -0.000976562,-152 108.001,-152 108.001,-120 -0.000976562,-120"/>
<text text-anchor="start" x="7.99902" y="-138" font-family="Helvetica,sans-Serif" font-size="10.00">__check_complete&lt; </text>
<text text-anchor="middle" x="54" y="-126" font-family="Helvetica,sans-Serif" font-size="10.00">_Class &gt;</text>
</a>
</g>
</g>
<!-- Node2 -->
<g id="node2" class="node"><title>Node2</title>
<g id="a_node2"><a xlink:href="struct____check__complete_3_01___rp_01___class_1_1_5_01_4.xhtml" target="_top" xlink:title="__check_complete\&lt; \l_Rp _Class::* \&gt;">
<polygon fill="white" stroke="black" points="158.999,-240 158.999,-272 267.001,-272 267.001,-240 158.999,-240"/>
<text text-anchor="start" x="166.999" y="-258" font-family="Helvetica,sans-Serif" font-size="10.00">__check_complete&lt; </text>
<text text-anchor="middle" x="213" y="-246" font-family="Helvetica,sans-Serif" font-size="10.00">_Rp _Class::* &gt;</text>
</a>
</g>
</g>
<!-- Node1&#45;&gt;Node2 -->
<g id="edge1" class="edge"><title>Node1&#45;&gt;Node2</title>
<path fill="none" stroke="#8b1a1a" d="M72.7661,-160.158C89.2265,-181.081 115.421,-210.908 144,-230 149.57,-233.721 155.748,-237.016 162.044,-239.901"/>
<polygon fill="#8b1a1a" stroke="#8b1a1a" points="75.4106,-157.856 66.536,-152.069 69.8646,-162.127 75.4106,-157.856"/>
</g>
<!-- Node3 -->
<g id="node3" class="node"><title>Node3</title>
<g id="a_node3"><a xlink:href="struct____check__complete_3_01___rp_07___class_1_1_5_08_07___param_8_8_8_08_01const_01_01_4.xhtml" target="_top" xlink:title="__check_complete\&lt; \l_Rp(_Class::*)(_Param...)\l const &#160;\&gt;">
<polygon fill="white" stroke="black" points="147.485,-177 147.485,-221 278.515,-221 278.515,-177 147.485,-177"/>
<text text-anchor="start" x="155.485" y="-207" font-family="Helvetica,sans-Serif" font-size="10.00">__check_complete&lt; </text>
<text text-anchor="start" x="155.485" y="-195" font-family="Helvetica,sans-Serif" font-size="10.00">_Rp(_Class::*)(_Param...)</text>
<text text-anchor="middle" x="213" y="-183" font-family="Helvetica,sans-Serif" font-size="10.00"> const &gt;</text>
</a>
</g>
</g>
<!-- Node1&#45;&gt;Node3 -->
<g id="edge2" class="edge"><title>Node1&#45;&gt;Node3</title>
<path fill="none" stroke="#8b1a1a" d="M104.569,-155.891C121.222,-162.573 139.896,-170.067 156.945,-176.908"/>
<polygon fill="#8b1a1a" stroke="#8b1a1a" points="105.608,-152.536 95.024,-152.061 103.001,-159.033 105.608,-152.536"/>
</g>
<!-- Node4 -->
<g id="node4" class="node"><title>Node4</title>
<g id="a_node4"><a xlink:href="struct____check__complete_3_01___rp_07___class_1_1_5_08_07___param_8_8_8_08_01const_01volatile_01_4.xhtml" target="_top" xlink:title="__check_complete\&lt; \l_Rp(_Class::*)(_Param...)\l const volatile \&gt;">
<polygon fill="white" stroke="black" points="147.485,-114 147.485,-158 278.515,-158 278.515,-114 147.485,-114"/>
<text text-anchor="start" x="155.485" y="-144" font-family="Helvetica,sans-Serif" font-size="10.00">__check_complete&lt; </text>
<text text-anchor="start" x="155.485" y="-132" font-family="Helvetica,sans-Serif" font-size="10.00">_Rp(_Class::*)(_Param...)</text>
<text text-anchor="middle" x="213" y="-120" font-family="Helvetica,sans-Serif" font-size="10.00"> const volatile &gt;</text>
</a>
</g>
</g>
<!-- Node1&#45;&gt;Node4 -->
<g id="edge3" class="edge"><title>Node1&#45;&gt;Node4</title>
<path fill="none" stroke="#8b1a1a" d="M118.399,-136C127.979,-136 137.872,-136 147.477,-136"/>
<polygon fill="#8b1a1a" stroke="#8b1a1a" points="118.153,-132.5 108.153,-136 118.153,-139.5 118.153,-132.5"/>
</g>
<!-- Node5 -->
<g id="node5" class="node"><title>Node5</title>
<g id="a_node5"><a xlink:href="struct____check__complete_3_01___rp_07___class_1_1_5_08_07___param_8_8_8_08_01volatile_01_4.xhtml" target="_top" xlink:title="__check_complete\&lt; \l_Rp(_Class::*)(_Param...)\l volatile \&gt;">
<polygon fill="white" stroke="black" points="147.485,-51 147.485,-95 278.515,-95 278.515,-51 147.485,-51"/>
<text text-anchor="start" x="155.485" y="-81" font-family="Helvetica,sans-Serif" font-size="10.00">__check_complete&lt; </text>
<text text-anchor="start" x="155.485" y="-69" font-family="Helvetica,sans-Serif" font-size="10.00">_Rp(_Class::*)(_Param...)</text>
<text text-anchor="middle" x="213" y="-57" font-family="Helvetica,sans-Serif" font-size="10.00"> volatile &gt;</text>
</a>
</g>
</g>
<!-- Node1&#45;&gt;Node5 -->
<g id="edge4" class="edge"><title>Node1&#45;&gt;Node5</title>
<path fill="none" stroke="#8b1a1a" d="M104.569,-116.109C121.222,-109.427 139.896,-101.933 156.945,-95.0921"/>
<polygon fill="#8b1a1a" stroke="#8b1a1a" points="103.001,-112.967 95.024,-119.939 105.608,-119.464 103.001,-112.967"/>
</g>
<!-- Node6 -->
<g id="node6" class="node"><title>Node6</title>
<g id="a_node6"><a xlink:href="struct____check__complete_3_01___rp_07___class_1_1_5_08_07___param_8_8_8_08_4.xhtml" target="_top" xlink:title="__check_complete\&lt; \l_Rp(_Class::*)(_Param...)\&gt;">
<polygon fill="white" stroke="black" points="144.565,-0 144.565,-32 281.435,-32 281.435,-0 144.565,-0"/>
<text text-anchor="start" x="152.565" y="-18" font-family="Helvetica,sans-Serif" font-size="10.00">__check_complete&lt; </text>
<text text-anchor="middle" x="213" y="-6" font-family="Helvetica,sans-Serif" font-size="10.00">_Rp(_Class::*)(_Param...)&gt;</text>
</a>
</g>
</g>
<!-- Node1&#45;&gt;Node6 -->
<g id="edge5" class="edge"><title>Node1&#45;&gt;Node6</title>
<path fill="none" stroke="#8b1a1a" d="M72.7661,-111.842C89.2265,-90.9187 115.421,-61.0918 144,-42 149.57,-38.2789 155.748,-34.9842 162.044,-32.0987"/>
<polygon fill="#8b1a1a" stroke="#8b1a1a" points="69.8646,-109.873 66.536,-119.931 75.4106,-114.144 69.8646,-109.873"/>
</g>
</g>
</svg>
