<?xml version="1.0" encoding="UTF-8" standalone="no"?>
<!DOCTYPE svg PUBLIC "-//W3C//DTD SVG 1.1//EN"
 "http://www.w3.org/Graphics/SVG/1.1/DTD/svg11.dtd">
<!-- Generated by graphviz version 2.30.0 (20130114.0426)
 -->
<!-- Title: Graphical Class Hierarchy Pages: 1 -->
<svg width="266pt" height="415pt"
 viewBox="0.00 0.00 266.00 415.00" xmlns="http://www.w3.org/2000/svg" xmlns:xlink="http://www.w3.org/1999/xlink">
<g id="graph0" class="graph" transform="scale(1 1) rotate(0) translate(4 411)">
<title>Graphical Class Hierarchy</title>
<polygon fill="white" stroke="white" points="-4,5 -4,-411 263,-411 263,5 -4,5"/>
<!-- Node1 -->
<g id="node1" class="node"><title>Node1</title>
<polygon fill="white" stroke="#bfbfbf" points="0.384277,-184 0.384277,-204 43.6157,-204 43.6157,-184 0.384277,-184"/>
<text text-anchor="middle" x="22" y="-190" font-family="Helvetica,sans-Serif" font-size="10.00">vector</text>
</g>
<!-- Node2 -->
<g id="node2" class="node"><title>Node2</title>
<g id="a_node2"><a xlink:href="classshared__vector.xhtml" target="_top" xlink:title="shared_vector\&lt; _Tp \&gt;">
<polygon fill="white" stroke="black" points="112.082,-387 112.082,-407 225.918,-407 225.918,-387 112.082,-387"/>
<text text-anchor="middle" x="169" y="-393" font-family="Helvetica,sans-Serif" font-size="10.00">shared_vector&lt; _Tp &gt;</text>
</a>
</g>
</g>
<!-- Node1&#45;&gt;Node2 -->
<g id="edge1" class="edge"><title>Node1&#45;&gt;Node2</title>
<path fill="none" stroke="midnightblue" d="M23.1071,-214.388C24.4689,-252.271 33.0546,-333.601 80,-377 88.7435,-385.083 100.051,-390.129 111.63,-393.23"/>
<polygon fill="midnightblue" stroke="midnightblue" points="26.6003,-214.037 22.8819,-204.116 19.602,-214.19 26.6003,-214.037"/>
</g>
<!-- Node3 -->
<g id="node3" class="node"><title>Node3</title>
<g id="a_node3"><a xlink:href="classshared__vector.xhtml" target="_top" xlink:title="shared_vector\&lt; const\l SMILData::TimeContainer \&gt;">
<polygon fill="white" stroke="black" points="97.6846,-336 97.6846,-368 240.315,-368 240.315,-336 97.6846,-336"/>
<text text-anchor="start" x="105.685" y="-354" font-family="Helvetica,sans-Serif" font-size="10.00">shared_vector&lt; const</text>
<text text-anchor="middle" x="169" y="-342" font-family="Helvetica,sans-Serif" font-size="10.00"> SMILData::TimeContainer &gt;</text>
</a>
</g>
</g>
<!-- Node1&#45;&gt;Node3 -->
<g id="edge2" class="edge"><title>Node1&#45;&gt;Node3</title>
<path fill="none" stroke="midnightblue" d="M26.2727,-214.496C31.9831,-243.511 46.5228,-296.327 80,-326 85.1263,-330.544 91.0133,-334.295 97.2608,-337.391"/>
<polygon fill="midnightblue" stroke="midnightblue" points="29.6556,-213.532 24.4417,-204.309 22.766,-214.77 29.6556,-213.532"/>
</g>
<!-- Node4 -->
<g id="node4" class="node"><title>Node4</title>
<g id="a_node4"><a xlink:href="classshared__vector.xhtml" target="_top" xlink:title="shared_vector\&lt; ContentFilter \&gt;">
<polygon fill="white" stroke="black" points="92.0742,-297 92.0742,-317 245.926,-317 245.926,-297 92.0742,-297"/>
<text text-anchor="middle" x="169" y="-303" font-family="Helvetica,sans-Serif" font-size="10.00">shared_vector&lt; ContentFilter &gt;</text>
</a>
</g>
</g>
<!-- Node1&#45;&gt;Node4 -->
<g id="edge3" class="edge"><title>Node1&#45;&gt;Node4</title>
<path fill="none" stroke="midnightblue" d="M29.7312,-213.662C38.1,-235.071 54.4773,-268.694 80,-287 85.6017,-291.018 91.8775,-294.245 98.4301,-296.836"/>
<polygon fill="midnightblue" stroke="midnightblue" points="33.0055,-212.425 26.2611,-204.254 26.438,-214.848 33.0055,-212.425"/>
</g>
<!-- Node5 -->
<g id="node5" class="node"><title>Node5</title>
<g id="a_node5"><a xlink:href="classshared__vector.xhtml" target="_top" xlink:title="shared_vector\&lt; Encryption\lInfo \&gt;">
<polygon fill="white" stroke="black" points="101.383,-246 101.383,-278 236.617,-278 236.617,-246 101.383,-246"/>
<text text-anchor="start" x="109.383" y="-264" font-family="Helvetica,sans-Serif" font-size="10.00">shared_vector&lt; Encryption</text>
<text text-anchor="middle" x="169" y="-252" font-family="Helvetica,sans-Serif" font-size="10.00">Info &gt;</text>
</a>
</g>
</g>
<!-- Node1&#45;&gt;Node5 -->
<g id="edge4" class="edge"><title>Node1&#45;&gt;Node5</title>
<path fill="none" stroke="midnightblue" d="M42.1811,-210.763C52.7518,-219.298 66.4498,-229.267 80,-236 87.5613,-239.757 95.7635,-243.073 104.017,-245.969"/>
<polygon fill="midnightblue" stroke="midnightblue" points="44.3608,-208.023 34.4366,-204.313 39.8813,-213.402 44.3608,-208.023"/>
</g>
<!-- Node6 -->
<g id="node6" class="node"><title>Node6</title>
<g id="a_node6"><a xlink:href="classshared__vector.xhtml" target="_top" xlink:title="shared_vector\&lt; Link \&gt;">
<polygon fill="white" stroke="black" points="111.525,-207 111.525,-227 226.475,-227 226.475,-207 111.525,-207"/>
<text text-anchor="middle" x="169" y="-213" font-family="Helvetica,sans-Serif" font-size="10.00">shared_vector&lt; Link &gt;</text>
</a>
</g>
</g>
<!-- Node1&#45;&gt;Node6 -->
<g id="edge5" class="edge"><title>Node1&#45;&gt;Node6</title>
<path fill="none" stroke="midnightblue" d="M54.0336,-198.923C70.7059,-201.567 91.7859,-204.911 111.269,-208.001"/>
<polygon fill="midnightblue" stroke="midnightblue" points="54.1998,-195.405 43.775,-197.295 53.1031,-202.319 54.1998,-195.405"/>
</g>
<!-- Node7 -->
<g id="node7" class="node"><title>Node7</title>
<g id="a_node7"><a xlink:href="classshared__vector.xhtml" target="_top" xlink:title="shared_vector\&lt; Navigation\lElement \&gt;">
<polygon fill="white" stroke="black" points="101.381,-156 101.381,-188 236.619,-188 236.619,-156 101.381,-156"/>
<text text-anchor="start" x="109.381" y="-174" font-family="Helvetica,sans-Serif" font-size="10.00">shared_vector&lt; Navigation</text>
<text text-anchor="middle" x="169" y="-162" font-family="Helvetica,sans-Serif" font-size="10.00">Element &gt;</text>
</a>
</g>
</g>
<!-- Node1&#45;&gt;Node7 -->
<g id="edge6" class="edge"><title>Node1&#45;&gt;Node7</title>
<path fill="none" stroke="midnightblue" d="M53.7566,-189.333C67.6801,-187.221 84.7191,-184.636 101.345,-182.113"/>
<polygon fill="midnightblue" stroke="midnightblue" points="53.1368,-185.887 43.775,-190.848 54.1869,-192.808 53.1368,-185.887"/>
</g>
<!-- Node8 -->
<g id="node8" class="node"><title>Node8</title>
<g id="a_node8"><a xlink:href="classshared__vector.xhtml" target="_top" xlink:title="shared_vector\&lt; Package \&gt;">
<polygon fill="white" stroke="black" points="101.239,-117 101.239,-137 236.761,-137 236.761,-117 101.239,-117"/>
<text text-anchor="middle" x="169" y="-123" font-family="Helvetica,sans-Serif" font-size="10.00">shared_vector&lt; Package &gt;</text>
</a>
</g>
</g>
<!-- Node1&#45;&gt;Node8 -->
<g id="edge7" class="edge"><title>Node1&#45;&gt;Node8</title>
<path fill="none" stroke="midnightblue" d="M39.7872,-176.551C50.4156,-166.482 64.9544,-154.389 80,-147 88.2972,-142.925 97.4441,-139.666 106.608,-137.064"/>
<polygon fill="midnightblue" stroke="midnightblue" points="37.1501,-174.236 32.4782,-183.745 42.0604,-179.225 37.1501,-174.236"/>
</g>
<!-- Node9 -->
<g id="node9" class="node"><title>Node9</title>
<g id="a_node9"><a xlink:href="classshared__vector.xhtml" target="_top" xlink:title="shared_vector\&lt; Property \&gt;">
<polygon fill="white" stroke="black" points="101.801,-78 101.801,-98 236.199,-98 236.199,-78 101.801,-78"/>
<text text-anchor="middle" x="169" y="-84" font-family="Helvetica,sans-Serif" font-size="10.00">shared_vector&lt; Property &gt;</text>
</a>
</g>
</g>
<!-- Node1&#45;&gt;Node9 -->
<g id="edge8" class="edge"><title>Node1&#45;&gt;Node9</title>
<path fill="none" stroke="midnightblue" d="M30.648,-174.638C39.5086,-154.791 56.0286,-124.558 80,-108 86.5745,-103.459 94.022,-99.9332 101.734,-97.1988"/>
<polygon fill="midnightblue" stroke="midnightblue" points="27.3845,-173.37 26.7137,-183.943 33.8318,-176.096 27.3845,-173.37"/>
</g>
<!-- Node10 -->
<g id="node10" class="node"><title>Node10</title>
<g id="a_node10"><a xlink:href="classshared__vector.xhtml" target="_top" xlink:title="shared_vector\&lt; PropertyExtension \&gt;">
<polygon fill="white" stroke="black" points="79.8428,-39 79.8428,-59 258.157,-59 258.157,-39 79.8428,-39"/>
<text text-anchor="middle" x="169" y="-45" font-family="Helvetica,sans-Serif" font-size="10.00">shared_vector&lt; PropertyExtension &gt;</text>
</a>
</g>
</g>
<!-- Node1&#45;&gt;Node10 -->
<g id="edge9" class="edge"><title>Node1&#45;&gt;Node10</title>
<path fill="none" stroke="midnightblue" d="M26.4477,-173.877C32.3246,-145.949 47.0135,-95.851 80,-69 84.9818,-64.9448 90.6251,-61.6755 96.5902,-59.0445"/>
<polygon fill="midnightblue" stroke="midnightblue" points="23.0063,-173.239 24.551,-183.721 29.8799,-174.564 23.0063,-173.239"/>
</g>
<!-- Node11 -->
<g id="node11" class="node"><title>Node11</title>
<g id="a_node11"><a xlink:href="classshared__vector.xhtml" target="_top" xlink:title="shared_vector\&lt; SMILData \&gt;">
<polygon fill="white" stroke="black" points="98.4658,-0 98.4658,-20 239.534,-20 239.534,-0 98.4658,-0"/>
<text text-anchor="middle" x="169" y="-6" font-family="Helvetica,sans-Serif" font-size="10.00">shared_vector&lt; SMILData &gt;</text>
</a>
</g>
</g>
<!-- Node1&#45;&gt;Node11 -->
<g id="edge10" class="edge"><title>Node1&#45;&gt;Node11</title>
<path fill="none" stroke="midnightblue" d="M23.9996,-173.305C26.85,-138.35 37.8186,-67.7403 80,-30 85.371,-25.1945 91.6531,-21.4702 98.3455,-18.5937"/>
<polygon fill="midnightblue" stroke="midnightblue" points="20.4801,-173.484 23.3108,-183.694 27.4648,-173.947 20.4801,-173.484"/>
</g>
</g>
</svg>
