<?xml version="1.0" encoding="UTF-8" standalone="no"?>
<!DOCTYPE svg PUBLIC "-//W3C//DTD SVG 1.1//EN"
 "http://www.w3.org/Graphics/SVG/1.1/DTD/svg11.dtd">
<!-- Generated by graphviz version 2.30.0 (20130114.0426)
 -->
<!-- Title: /Users/rkwright/Documents/github/readium&#45;sdk&#45;D/ePub3/utilities/iri.h Pages: 1 -->
<svg width="1285pt" height="472pt"
 viewBox="0.00 0.00 1285.09 472.00" xmlns="http://www.w3.org/2000/svg" xmlns:xlink="http://www.w3.org/1999/xlink">
<g id="graph0" class="graph" transform="scale(1 1) rotate(0) translate(4 468)">
<title>/Users/rkwright/Documents/github/readium&#45;sdk&#45;D/ePub3/utilities/iri.h</title>
<polygon fill="white" stroke="white" points="-4,5 -4,-468 1282.09,-468 1282.09,5 -4,5"/>
<!-- Node1 -->
<g id="node1" class="node"><title>Node1</title>
<polygon fill="#bfbfbf" stroke="black" points="897.058,-419 897.058,-463 1043.13,-463 1043.13,-419 897.058,-419"/>
<text text-anchor="start" x="905.058" y="-449" font-family="Helvetica,sans-Serif" font-size="10.00">/Users/rkwright/Documents</text>
<text text-anchor="start" x="905.058" y="-437" font-family="Helvetica,sans-Serif" font-size="10.00">/github/readium&#45;sdk&#45;D/ePub3</text>
<text text-anchor="middle" x="970.092" y="-425" font-family="Helvetica,sans-Serif" font-size="10.00">/utilities/iri.h</text>
</g>
<!-- Node2 -->
<g id="node2" class="node"><title>Node2</title>
<g id="a_node2"><a xlink:href="utfstring_8h.xhtml" target="_top" xlink:title="ePub3/utilities/utfstring.h">
<polygon fill="white" stroke="black" points="740.617,-361 740.617,-381 865.567,-381 865.567,-361 740.617,-361"/>
<text text-anchor="middle" x="803.092" y="-367" font-family="Helvetica,sans-Serif" font-size="10.00">ePub3/utilities/utfstring.h</text>
</a>
</g>
</g>
<!-- Node1&#45;&gt;Node2 -->
<g id="edge1" class="edge"><title>Node1&#45;&gt;Node2</title>
<path fill="none" stroke="midnightblue" d="M918.168,-418.857C890.855,-407.736 858.257,-394.463 834.741,-384.887"/>
<polygon fill="midnightblue" stroke="midnightblue" points="835.842,-381.556 825.26,-381.027 833.202,-388.039 835.842,-381.556"/>
</g>
<!-- Node28 -->
<g id="node28" class="node"><title>Node28</title>
<g id="a_node28"><a xlink:href="make__unique_8h.xhtml" target="_top" xlink:title="ePub3/utilities/make\l_unique.h">
<polygon fill="white" stroke="black" points="72.346,-291 72.346,-323 177.838,-323 177.838,-291 72.346,-291"/>
<text text-anchor="start" x="80.346" y="-309" font-family="Helvetica,sans-Serif" font-size="10.00">ePub3/utilities/make</text>
<text text-anchor="middle" x="125.092" y="-297" font-family="Helvetica,sans-Serif" font-size="10.00">_unique.h</text>
</a>
</g>
</g>
<!-- Node1&#45;&gt;Node28 -->
<g id="edge33" class="edge"><title>Node1&#45;&gt;Node28</title>
<path fill="none" stroke="midnightblue" d="M896.95,-428.574C733.616,-403.059 341.535,-341.811 188.135,-317.848"/>
<polygon fill="midnightblue" stroke="midnightblue" points="188.365,-314.342 177.945,-316.256 187.285,-321.258 188.365,-314.342"/>
</g>
<!-- Node31 -->
<g id="node31" class="node"><title>Node31</title>
<polygon fill="white" stroke="#bfbfbf" points="1165.96,-361 1165.96,-381 1254.22,-381 1254.22,-361 1165.96,-361"/>
<text text-anchor="middle" x="1210.09" y="-367" font-family="Helvetica,sans-Serif" font-size="10.00">google&#45;url/gurl.h</text>
</g>
<!-- Node1&#45;&gt;Node31 -->
<g id="edge39" class="edge"><title>Node1&#45;&gt;Node31</title>
<path fill="none" stroke="midnightblue" d="M1043.4,-419.228C1084.43,-407.604 1134.08,-393.535 1168.47,-383.792"/>
<polygon fill="midnightblue" stroke="midnightblue" points="1169.52,-387.133 1178.19,-381.04 1167.61,-380.398 1169.52,-387.133"/>
</g>
<!-- Node12 -->
<g id="node12" class="node"><title>Node12</title>
<polygon fill="white" stroke="#bfbfbf" points="1002.48,-233 1002.48,-253 1045.71,-253 1045.71,-233 1002.48,-233"/>
<text text-anchor="middle" x="1024.09" y="-239" font-family="Helvetica,sans-Serif" font-size="10.00">vector</text>
</g>
<!-- Node1&#45;&gt;Node12 -->
<g id="edge40" class="edge"><title>Node1&#45;&gt;Node12</title>
<path fill="none" stroke="midnightblue" d="M1015.54,-418.952C1051,-399.766 1097.71,-367.738 1119.09,-324 1125.73,-310.424 1127.12,-302.804 1119.09,-290 1115.32,-283.985 1081.3,-268.396 1055.04,-257.028"/>
<polygon fill="midnightblue" stroke="midnightblue" points="1056.36,-253.784 1045.79,-253.056 1053.6,-260.216 1056.36,-253.784"/>
</g>
<!-- Node3 -->
<g id="node3" class="node"><title>Node3</title>
<g id="a_node3"><a xlink:href="basic_8h.xhtml" target="_top" xlink:title="ePub3/utilities/basic.h">
<polygon fill="white" stroke="black" points="585.73,-297 585.73,-317 698.454,-317 698.454,-297 585.73,-297"/>
<text text-anchor="middle" x="642.092" y="-303" font-family="Helvetica,sans-Serif" font-size="10.00">ePub3/utilities/basic.h</text>
</a>
</g>
</g>
<!-- Node2&#45;&gt;Node3 -->
<g id="edge2" class="edge"><title>Node2&#45;&gt;Node3</title>
<path fill="none" stroke="midnightblue" d="M779.681,-360.985C752.138,-350.378 706.223,-332.696 675.081,-320.704"/>
<polygon fill="midnightblue" stroke="midnightblue" points="676.121,-317.354 665.531,-317.026 673.605,-323.886 676.121,-317.354"/>
</g>
<!-- Node14 -->
<g id="node14" class="node"><title>Node14</title>
<g id="a_node14"><a xlink:href="integer__sequence_8h.xhtml" target="_top" xlink:title="ePub3/utilities/integer\l_sequence.h">
<polygon fill="white" stroke="black" points="1166.28,-291 1166.28,-323 1277.9,-323 1277.9,-291 1166.28,-291"/>
<text text-anchor="start" x="1174.28" y="-309" font-family="Helvetica,sans-Serif" font-size="10.00">ePub3/utilities/integer</text>
<text text-anchor="middle" x="1222.09" y="-297" font-family="Helvetica,sans-Serif" font-size="10.00">_sequence.h</text>
</a>
</g>
</g>
<!-- Node2&#45;&gt;Node14 -->
<g id="edge13" class="edge"><title>Node2&#45;&gt;Node14</title>
<path fill="none" stroke="midnightblue" d="M865.773,-361.056C929.551,-351.912 1031.24,-337.218 1119.09,-324 1131.05,-322.202 1143.77,-320.252 1156.06,-318.354"/>
<polygon fill="midnightblue" stroke="midnightblue" points="1156.9,-321.765 1166.25,-316.775 1155.83,-314.847 1156.9,-321.765"/>
</g>
<!-- Node15 -->
<g id="node15" class="node"><title>Node15</title>
<g id="a_node15"><a xlink:href="string__view_8h.xhtml" target="_top" xlink:title="ePub3/utilities/string\l_view.h">
<polygon fill="white" stroke="black" points="386.346,-291 386.346,-323 491.838,-323 491.838,-291 386.346,-291"/>
<text text-anchor="start" x="394.346" y="-309" font-family="Helvetica,sans-Serif" font-size="10.00">ePub3/utilities/string</text>
<text text-anchor="middle" x="439.092" y="-297" font-family="Helvetica,sans-Serif" font-size="10.00">_view.h</text>
</a>
</g>
</g>
<!-- Node2&#45;&gt;Node15 -->
<g id="edge15" class="edge"><title>Node2&#45;&gt;Node15</title>
<path fill="none" stroke="midnightblue" d="M740.546,-361.809C680.265,-353.562 586.601,-339.821 506.092,-324 504.805,-323.747 503.505,-323.486 502.196,-323.219"/>
<polygon fill="midnightblue" stroke="midnightblue" points="502.545,-319.715 492.036,-321.061 501.09,-326.562 502.545,-319.715"/>
</g>
<!-- Node17 -->
<g id="node17" class="node"><title>Node17</title>
<polygon fill="white" stroke="#bfbfbf" points="548.866,-233 548.866,-253 589.319,-253 589.319,-233 548.866,-233"/>
<text text-anchor="middle" x="569.092" y="-239" font-family="Helvetica,sans-Serif" font-size="10.00">string</text>
</g>
<!-- Node2&#45;&gt;Node17 -->
<g id="edge24" class="edge"><title>Node2&#45;&gt;Node17</title>
<path fill="none" stroke="midnightblue" d="M740.367,-365.445C681.222,-359.756 598.535,-347.729 577.092,-324 562.29,-307.619 562.725,-280.941 565.219,-262.943"/>
<polygon fill="midnightblue" stroke="midnightblue" points="568.679,-263.476 566.92,-253.028 561.78,-262.292 568.679,-263.476"/>
</g>
<!-- Node22 -->
<g id="node22" class="node"><title>Node22</title>
<polygon fill="white" stroke="#bfbfbf" points="716.531,-297 716.531,-317 763.654,-317 763.654,-297 716.531,-297"/>
<text text-anchor="middle" x="740.092" y="-303" font-family="Helvetica,sans-Serif" font-size="10.00">iterator</text>
</g>
<!-- Node2&#45;&gt;Node22 -->
<g id="edge25" class="edge"><title>Node2&#45;&gt;Node22</title>
<path fill="none" stroke="midnightblue" d="M793.796,-360.852C784.025,-351.236 768.455,-335.913 756.59,-324.236"/>
<polygon fill="midnightblue" stroke="midnightblue" points="759.009,-321.706 749.426,-317.186 754.099,-326.695 759.009,-321.706"/>
</g>
<!-- Node23 -->
<g id="node23" class="node"><title>Node23</title>
<polygon fill="white" stroke="#bfbfbf" points="782.028,-297 782.028,-317 824.156,-317 824.156,-297 782.028,-297"/>
<text text-anchor="middle" x="803.092" y="-303" font-family="Helvetica,sans-Serif" font-size="10.00">locale</text>
</g>
<!-- Node2&#45;&gt;Node23 -->
<g id="edge26" class="edge"><title>Node2&#45;&gt;Node23</title>
<path fill="none" stroke="midnightblue" d="M803.092,-360.852C803.092,-352.06 803.092,-338.498 803.092,-327.313"/>
<polygon fill="midnightblue" stroke="midnightblue" points="806.592,-327.186 803.092,-317.186 799.592,-327.186 806.592,-327.186"/>
</g>
<!-- Node2&#45;&gt;Node12 -->
<g id="edge27" class="edge"><title>Node2&#45;&gt;Node12</title>
<path fill="none" stroke="midnightblue" d="M865.784,-362.857C917.224,-355.732 984.631,-343.076 1004.09,-324 1020.26,-308.149 1024.09,-281.345 1024.65,-263.175"/>
<polygon fill="midnightblue" stroke="midnightblue" points="1028.15,-263.154 1024.66,-253.151 1021.15,-263.148 1028.15,-263.154"/>
</g>
<!-- Node24 -->
<g id="node24" class="node"><title>Node24</title>
<polygon fill="white" stroke="#bfbfbf" points="841.858,-297 841.858,-317 942.326,-317 942.326,-297 841.858,-297"/>
<text text-anchor="middle" x="892.092" y="-303" font-family="Helvetica,sans-Serif" font-size="10.00">REGEX_INCLUDE</text>
</g>
<!-- Node2&#45;&gt;Node24 -->
<g id="edge28" class="edge"><title>Node2&#45;&gt;Node24</title>
<path fill="none" stroke="midnightblue" d="M816.224,-360.852C830.554,-350.87 853.711,-334.737 870.678,-322.918"/>
<polygon fill="midnightblue" stroke="midnightblue" points="872.701,-325.774 878.906,-317.186 868.7,-320.03 872.701,-325.774"/>
</g>
<!-- Node25 -->
<g id="node25" class="node"><title>Node25</title>
<polygon fill="white" stroke="#bfbfbf" points="960.366,-297 960.366,-317 995.819,-317 995.819,-297 960.366,-297"/>
<text text-anchor="middle" x="978.092" y="-303" font-family="Helvetica,sans-Serif" font-size="10.00">map</text>
</g>
<!-- Node2&#45;&gt;Node25 -->
<g id="edge29" class="edge"><title>Node2&#45;&gt;Node25</title>
<path fill="none" stroke="midnightblue" d="M840.459,-360.981C870.921,-353.018 914.701,-340.171 951.092,-324 952.461,-323.392 953.848,-322.729 955.233,-322.032"/>
<polygon fill="midnightblue" stroke="midnightblue" points="957.073,-325.014 964.131,-317.112 953.686,-318.887 957.073,-325.014"/>
</g>
<!-- Node26 -->
<g id="node26" class="node"><title>Node26</title>
<polygon fill="white" stroke="#bfbfbf" points="1051.69,-297 1051.69,-317 1110.49,-317 1110.49,-297 1051.69,-297"/>
<text text-anchor="middle" x="1081.09" y="-303" font-family="Helvetica,sans-Serif" font-size="10.00">stdexcept</text>
</g>
<!-- Node2&#45;&gt;Node26 -->
<g id="edge30" class="edge"><title>Node2&#45;&gt;Node26</title>
<path fill="none" stroke="midnightblue" d="M863.612,-360.941C911.452,-353.114 979.672,-340.468 1038.09,-324 1041.76,-322.967 1045.55,-321.761 1049.3,-320.484"/>
<polygon fill="midnightblue" stroke="midnightblue" points="1050.77,-323.676 1059,-317.004 1048.41,-317.087 1050.77,-323.676"/>
</g>
<!-- Node18 -->
<g id="node18" class="node"><title>Node18</title>
<polygon fill="white" stroke="#bfbfbf" points="491.705,-233 491.705,-253 530.479,-253 530.479,-233 491.705,-233"/>
<text text-anchor="middle" x="511.092" y="-239" font-family="Helvetica,sans-Serif" font-size="10.00">limits</text>
</g>
<!-- Node2&#45;&gt;Node18 -->
<g id="edge31" class="edge"><title>Node2&#45;&gt;Node18</title>
<path fill="none" stroke="midnightblue" d="M740.447,-363.827C678.722,-356.744 589.638,-343.53 561.092,-324 539.295,-309.087 525.12,-281.221 517.612,-262.636"/>
<polygon fill="midnightblue" stroke="midnightblue" points="520.845,-261.29 514.038,-253.171 514.296,-263.762 520.845,-261.29"/>
</g>
<!-- Node27 -->
<g id="node27" class="node"><title>Node27</title>
<polygon fill="white" stroke="#bfbfbf" points="307.853,-297 307.853,-317 368.331,-317 368.331,-297 307.853,-297"/>
<text text-anchor="middle" x="338.092" y="-303" font-family="Helvetica,sans-Serif" font-size="10.00">utf8/utf8.h</text>
</g>
<!-- Node2&#45;&gt;Node27 -->
<g id="edge32" class="edge"><title>Node2&#45;&gt;Node27</title>
<path fill="none" stroke="midnightblue" d="M740.393,-368.725C656.448,-365.78 503.455,-356.056 377.092,-324 373.654,-323.128 370.12,-322.012 366.649,-320.777"/>
<polygon fill="midnightblue" stroke="midnightblue" points="367.756,-317.452 357.168,-317.08 365.213,-323.974 367.756,-317.452"/>
</g>
<!-- Node4 -->
<g id="node4" class="node"><title>Node4</title>
<g id="a_node4"><a xlink:href="base_8h.xhtml" target="_top" xlink:title="ePub3/base.h">
<polygon fill="white" stroke="black" points="549.233,-175 549.233,-195 626.952,-195 626.952,-175 549.233,-175"/>
<text text-anchor="middle" x="588.092" y="-181" font-family="Helvetica,sans-Serif" font-size="10.00">ePub3/base.h</text>
</a>
</g>
</g>
<!-- Node3&#45;&gt;Node4 -->
<g id="edge3" class="edge"><title>Node3&#45;&gt;Node4</title>
<path fill="none" stroke="midnightblue" d="M642.436,-296.84C642.618,-282.335 641.479,-253.523 631.092,-232 625.563,-220.542 616.174,-209.996 607.578,-201.9"/>
<polygon fill="midnightblue" stroke="midnightblue" points="609.839,-199.226 600.04,-195.198 605.188,-204.458 609.839,-199.226"/>
</g>
<!-- Node9 -->
<g id="node9" class="node"><title>Node9</title>
<polygon fill="white" stroke="#bfbfbf" points="799.908,-233 799.908,-253 914.277,-253 914.277,-233 799.908,-233"/>
<text text-anchor="middle" x="857.092" y="-239" font-family="Helvetica,sans-Serif" font-size="10.00">ePub3/xml/xmlstring.h</text>
</g>
<!-- Node3&#45;&gt;Node9 -->
<g id="edge8" class="edge"><title>Node3&#45;&gt;Node9</title>
<path fill="none" stroke="midnightblue" d="M673.355,-296.985C711.013,-286.125 774.385,-267.85 815.975,-255.857"/>
<polygon fill="midnightblue" stroke="midnightblue" points="817.153,-259.16 825.792,-253.026 815.213,-252.434 817.153,-259.16"/>
</g>
<!-- Node10 -->
<g id="node10" class="node"><title>Node10</title>
<polygon fill="white" stroke="#bfbfbf" points="683.311,-233 683.311,-253 734.873,-253 734.873,-233 683.311,-233"/>
<text text-anchor="middle" x="709.092" y="-239" font-family="Helvetica,sans-Serif" font-size="10.00">sstream</text>
</g>
<!-- Node3&#45;&gt;Node10 -->
<g id="edge9" class="edge"><title>Node3&#45;&gt;Node10</title>
<path fill="none" stroke="midnightblue" d="M651.978,-296.852C662.369,-287.236 678.928,-271.913 691.547,-260.236"/>
<polygon fill="midnightblue" stroke="midnightblue" points="694.203,-262.547 699.165,-253.186 689.449,-257.409 694.203,-262.547"/>
</g>
<!-- Node11 -->
<g id="node11" class="node"><title>Node11</title>
<polygon fill="white" stroke="#bfbfbf" points="413.035,-175 413.035,-195 465.149,-195 465.149,-175 413.035,-175"/>
<text text-anchor="middle" x="439.092" y="-181" font-family="Helvetica,sans-Serif" font-size="10.00">memory</text>
</g>
<!-- Node3&#45;&gt;Node11 -->
<g id="edge10" class="edge"><title>Node3&#45;&gt;Node11</title>
<path fill="none" stroke="midnightblue" d="M639.134,-296.747C633.633,-281.038 620.325,-249.184 598.092,-232 562.239,-204.29 510.228,-193.263 475.567,-188.881"/>
<polygon fill="midnightblue" stroke="midnightblue" points="475.736,-185.378 465.404,-187.724 474.944,-192.333 475.736,-185.378"/>
</g>
<!-- Node3&#45;&gt;Node12 -->
<g id="edge11" class="edge"><title>Node3&#45;&gt;Node12</title>
<path fill="none" stroke="midnightblue" d="M676.026,-296.986C685.991,-294.519 696.94,-291.981 707.092,-290 810.671,-269.786 934.88,-254.264 992.216,-247.585"/>
<polygon fill="midnightblue" stroke="midnightblue" points="992.912,-251.028 1002.45,-246.405 992.11,-244.074 992.912,-251.028"/>
</g>
<!-- Node13 -->
<g id="node13" class="node"><title>Node13</title>
<polygon fill="white" stroke="#bfbfbf" points="752.592,-233 752.592,-253 781.592,-253 781.592,-233 752.592,-233"/>
<text text-anchor="middle" x="766.703" y="-239" font-family="Helvetica,sans-Serif" font-size="10.00">list</text>
</g>
<!-- Node3&#45;&gt;Node13 -->
<g id="edge12" class="edge"><title>Node3&#45;&gt;Node13</title>
<path fill="none" stroke="midnightblue" d="M660.268,-296.985C682.169,-286.122 719.029,-267.839 743.209,-255.846"/>
<polygon fill="midnightblue" stroke="midnightblue" points="745.005,-258.862 752.409,-251.283 741.895,-252.591 745.005,-258.862"/>
</g>
<!-- Node5 -->
<g id="node5" class="node"><title>Node5</title>
<g id="a_node5"><a xlink:href="__config_8h.xhtml" target="_top" xlink:title="_config.h">
<polygon fill="white" stroke="black" points="524.799,-117 524.799,-137 581.385,-137 581.385,-117 524.799,-117"/>
<text text-anchor="middle" x="553.092" y="-123" font-family="Helvetica,sans-Serif" font-size="10.00">_config.h</text>
</a>
</g>
</g>
<!-- Node4&#45;&gt;Node5 -->
<g id="edge4" class="edge"><title>Node4&#45;&gt;Node5</title>
<path fill="none" stroke="midnightblue" d="M582.313,-174.753C577.369,-166.843 570.115,-155.237 564.072,-145.568"/>
<polygon fill="midnightblue" stroke="midnightblue" points="567.032,-143.7 558.764,-137.075 561.096,-147.41 567.032,-143.7"/>
</g>
<!-- Node8 -->
<g id="node8" class="node"><title>Node8</title>
<polygon fill="white" stroke="#bfbfbf" points="599.25,-117 599.25,-137 646.934,-137 646.934,-117 599.25,-117"/>
<text text-anchor="middle" x="623.092" y="-123" font-family="Helvetica,sans-Serif" font-size="10.00">stdlib.h</text>
</g>
<!-- Node4&#45;&gt;Node8 -->
<g id="edge7" class="edge"><title>Node4&#45;&gt;Node8</title>
<path fill="none" stroke="midnightblue" d="M593.872,-174.753C598.815,-166.843 606.069,-155.237 612.112,-145.568"/>
<polygon fill="midnightblue" stroke="midnightblue" points="615.088,-147.41 617.42,-137.075 609.152,-143.7 615.088,-147.41"/>
</g>
<!-- Node6 -->
<g id="node6" class="node"><title>Node6</title>
<g id="a_node6"><a xlink:href="__platform_8h.xhtml" target="_top" xlink:title="_platform.h">
<polygon fill="white" stroke="black" points="520.08,-59 520.08,-79 586.104,-79 586.104,-59 520.08,-59"/>
<text text-anchor="middle" x="553.092" y="-65" font-family="Helvetica,sans-Serif" font-size="10.00">_platform.h</text>
</a>
</g>
</g>
<!-- Node5&#45;&gt;Node6 -->
<g id="edge5" class="edge"><title>Node5&#45;&gt;Node6</title>
<path fill="none" stroke="midnightblue" d="M553.092,-116.753C553.092,-109.25 553.092,-98.4238 553.092,-89.0781"/>
<polygon fill="midnightblue" stroke="midnightblue" points="556.592,-89.0752 553.092,-79.0752 549.592,-89.0752 556.592,-89.0752"/>
</g>
<!-- Node7 -->
<g id="node7" class="node"><title>Node7</title>
<g id="a_node7"><a xlink:href="__compiler_8h.xhtml" target="_top" xlink:title="_compiler.h">
<polygon fill="white" stroke="black" points="519.521,-1 519.521,-21 586.663,-21 586.663,-1 519.521,-1"/>
<text text-anchor="middle" x="553.092" y="-7" font-family="Helvetica,sans-Serif" font-size="10.00">_compiler.h</text>
</a>
</g>
</g>
<!-- Node6&#45;&gt;Node7 -->
<g id="edge6" class="edge"><title>Node6&#45;&gt;Node7</title>
<path fill="none" stroke="midnightblue" d="M553.092,-58.7527C553.092,-51.2504 553.092,-40.4238 553.092,-31.0781"/>
<polygon fill="midnightblue" stroke="midnightblue" points="556.592,-31.0752 553.092,-21.0752 549.592,-31.0752 556.592,-31.0752"/>
</g>
<!-- Node14&#45;&gt;Node4 -->
<g id="edge14" class="edge"><title>Node14&#45;&gt;Node4</title>
<path fill="none" stroke="midnightblue" d="M1195.12,-290.907C1162.72,-273.543 1106.19,-245.672 1054.09,-232 905.953,-193.123 723.48,-186.554 637.433,-185.796"/>
<polygon fill="midnightblue" stroke="midnightblue" points="637.201,-182.294 627.179,-185.729 637.156,-189.294 637.201,-182.294"/>
</g>
<!-- Node16 -->
<g id="node16" class="node"><title>Node16</title>
<polygon fill="white" stroke="#bfbfbf" points="177.026,-233 177.026,-253 239.159,-253 239.159,-233 177.026,-233"/>
<text text-anchor="middle" x="208.092" y="-239" font-family="Helvetica,sans-Serif" font-size="10.00">type_traits</text>
</g>
<!-- Node15&#45;&gt;Node16 -->
<g id="edge16" class="edge"><title>Node15&#45;&gt;Node16</title>
<path fill="none" stroke="midnightblue" d="M386.096,-291.776C344.4,-280.585 287.153,-265.22 248.955,-254.968"/>
<polygon fill="midnightblue" stroke="midnightblue" points="249.762,-251.56 239.196,-252.348 247.947,-258.321 249.762,-251.56"/>
</g>
<!-- Node15&#45;&gt;Node17 -->
<g id="edge17" class="edge"><title>Node15&#45;&gt;Node17</title>
<path fill="none" stroke="midnightblue" d="M470.562,-290.992C491.969,-280.782 520.058,-267.385 540.766,-257.509"/>
<polygon fill="midnightblue" stroke="midnightblue" points="542.474,-260.573 549.993,-253.109 539.46,-254.254 542.474,-260.573"/>
</g>
<!-- Node15&#45;&gt;Node18 -->
<g id="edge18" class="edge"><title>Node15&#45;&gt;Node18</title>
<path fill="none" stroke="midnightblue" d="M456.521,-290.992C467.399,-281.624 481.393,-269.575 492.485,-260.022"/>
<polygon fill="midnightblue" stroke="midnightblue" points="495.009,-262.468 500.303,-253.29 490.442,-257.163 495.009,-262.468"/>
</g>
<!-- Node19 -->
<g id="node19" class="node"><title>Node19</title>
<polygon fill="white" stroke="#bfbfbf" points="256.92,-233 256.92,-253 311.265,-253 311.265,-233 256.92,-233"/>
<text text-anchor="middle" x="284.092" y="-239" font-family="Helvetica,sans-Serif" font-size="10.00">iostream</text>
</g>
<!-- Node15&#45;&gt;Node19 -->
<g id="edge19" class="edge"><title>Node15&#45;&gt;Node19</title>
<path fill="none" stroke="midnightblue" d="M401.571,-290.992C375.469,-280.551 341.036,-266.778 316.204,-256.845"/>
<polygon fill="midnightblue" stroke="midnightblue" points="317.449,-253.573 306.864,-253.109 314.849,-260.072 317.449,-253.573"/>
</g>
<!-- Node20 -->
<g id="node20" class="node"><title>Node20</title>
<polygon fill="white" stroke="#bfbfbf" points="329.528,-233 329.528,-253 386.656,-253 386.656,-233 329.528,-233"/>
<text text-anchor="middle" x="358.092" y="-239" font-family="Helvetica,sans-Serif" font-size="10.00">algorithm</text>
</g>
<!-- Node15&#45;&gt;Node20 -->
<g id="edge20" class="edge"><title>Node15&#45;&gt;Node20</title>
<path fill="none" stroke="midnightblue" d="M419.484,-290.992C407.007,-281.441 390.885,-269.101 378.294,-259.463"/>
<polygon fill="midnightblue" stroke="midnightblue" points="380.298,-256.589 370.23,-253.29 376.043,-262.148 380.298,-256.589"/>
</g>
<!-- Node21 -->
<g id="node21" class="node"><title>Node21</title>
<g id="a_node21"><a xlink:href="____strhash_8h.xhtml" target="_top" xlink:title="__strhash.h">
<polygon fill="white" stroke="black" points="404.964,-233 404.964,-253 473.22,-253 473.22,-233 404.964,-233"/>
<text text-anchor="middle" x="439.092" y="-239" font-family="Helvetica,sans-Serif" font-size="10.00">__strhash.h</text>
</a>
</g>
</g>
<!-- Node15&#45;&gt;Node21 -->
<g id="edge21" class="edge"><title>Node15&#45;&gt;Node21</title>
<path fill="none" stroke="midnightblue" d="M439.092,-290.992C439.092,-282.726 439.092,-272.373 439.092,-263.489"/>
<polygon fill="midnightblue" stroke="midnightblue" points="442.592,-263.29 439.092,-253.29 435.592,-263.29 442.592,-263.29"/>
</g>
<!-- Node21&#45;&gt;Node4 -->
<g id="edge22" class="edge"><title>Node21&#45;&gt;Node4</title>
<path fill="none" stroke="midnightblue" d="M463.363,-232.878C488.04,-223.603 526.48,-209.156 554.164,-198.752"/>
<polygon fill="midnightblue" stroke="midnightblue" points="555.702,-201.913 563.831,-195.118 553.239,-195.36 555.702,-201.913"/>
</g>
<!-- Node21&#45;&gt;Node11 -->
<g id="edge23" class="edge"><title>Node21&#45;&gt;Node11</title>
<path fill="none" stroke="midnightblue" d="M439.092,-232.753C439.092,-225.25 439.092,-214.424 439.092,-205.078"/>
<polygon fill="midnightblue" stroke="midnightblue" points="442.592,-205.075 439.092,-195.075 435.592,-205.075 442.592,-205.075"/>
</g>
<!-- Node28&#45;&gt;Node4 -->
<g id="edge34" class="edge"><title>Node28&#45;&gt;Node4</title>
<path fill="none" stroke="midnightblue" d="M129.322,-290.914C135.046,-273.557 147.043,-245.693 168.092,-232 175.808,-226.981 429.755,-201.541 538.964,-190.798"/>
<polygon fill="midnightblue" stroke="midnightblue" points="539.457,-194.266 549.067,-189.805 538.773,-187.3 539.457,-194.266"/>
</g>
<!-- Node29 -->
<g id="node29" class="node"><title>Node29</title>
<polygon fill="white" stroke="#bfbfbf" points="15.9715,-233 15.9715,-253 64.2127,-253 64.2127,-233 15.9715,-233"/>
<text text-anchor="middle" x="40.0921" y="-239" font-family="Helvetica,sans-Serif" font-size="10.00">cstddef</text>
</g>
<!-- Node28&#45;&gt;Node29 -->
<g id="edge35" class="edge"><title>Node28&#45;&gt;Node29</title>
<path fill="none" stroke="midnightblue" d="M104.516,-290.992C91.2962,-281.349 74.1792,-268.864 60.9119,-259.186"/>
<polygon fill="midnightblue" stroke="midnightblue" points="62.9707,-256.356 52.829,-253.29 58.8456,-262.011 62.9707,-256.356"/>
</g>
<!-- Node28&#45;&gt;Node11 -->
<g id="edge36" class="edge"><title>Node28&#45;&gt;Node11</title>
<path fill="none" stroke="midnightblue" d="M71.9632,-293.306C29.9523,-280.845 -17.8068,-259.691 7.09214,-232 33.3671,-202.779 303.164,-190.649 402.574,-187.149"/>
<polygon fill="midnightblue" stroke="midnightblue" points="402.868,-190.641 412.742,-186.8 402.628,-183.645 402.868,-190.641"/>
</g>
<!-- Node28&#45;&gt;Node16 -->
<g id="edge37" class="edge"><title>Node28&#45;&gt;Node16</title>
<path fill="none" stroke="midnightblue" d="M145.184,-290.992C157.97,-281.441 174.489,-269.101 187.391,-259.463"/>
<polygon fill="midnightblue" stroke="midnightblue" points="189.738,-262.079 195.655,-253.29 185.549,-256.471 189.738,-262.079"/>
</g>
<!-- Node30 -->
<g id="node30" class="node"><title>Node30</title>
<polygon fill="white" stroke="#bfbfbf" points="82.7005,-233 82.7005,-253 121.484,-253 121.484,-233 82.7005,-233"/>
<text text-anchor="middle" x="102.092" y="-239" font-family="Helvetica,sans-Serif" font-size="10.00">utility</text>
</g>
<!-- Node28&#45;&gt;Node30 -->
<g id="edge38" class="edge"><title>Node28&#45;&gt;Node30</title>
<path fill="none" stroke="midnightblue" d="M119.524,-290.992C116.39,-282.543 112.446,-271.912 109.103,-262.899"/>
<polygon fill="midnightblue" stroke="midnightblue" points="112.298,-261.449 105.539,-253.29 105.735,-263.883 112.298,-261.449"/>
</g>
</g>
</svg>
