<?xml version="1.0" encoding="UTF-8" standalone="no"?>
<!DOCTYPE svg PUBLIC "-//W3C//DTD SVG 1.1//EN"
 "http://www.w3.org/Graphics/SVG/1.1/DTD/svg11.dtd">
<!-- Generated by graphviz version 2.30.0 (20130114.0426)
 -->
<!-- Title: /Users/rkwright/Documents/github/readium&#45;sdk&#45;D/ePub3/utilities/iri.cpp Pages: 1 -->
<svg width="1206pt" height="530pt"
 viewBox="0.00 0.00 1206.00 530.00" xmlns="http://www.w3.org/2000/svg" xmlns:xlink="http://www.w3.org/1999/xlink">
<g id="graph0" class="graph" transform="scale(1 1) rotate(0) translate(4 526)">
<title>/Users/rkwright/Documents/github/readium&#45;sdk&#45;D/ePub3/utilities/iri.cpp</title>
<polygon fill="white" stroke="white" points="-4,5 -4,-526 1203,-526 1203,5 -4,5"/>
<!-- Node1 -->
<g id="node1" class="node"><title>Node1</title>
<polygon fill="#bfbfbf" stroke="black" points="654.966,-477 654.966,-521 801.034,-521 801.034,-477 654.966,-477"/>
<text text-anchor="start" x="662.966" y="-507" font-family="Helvetica,sans-Serif" font-size="10.00">/Users/rkwright/Documents</text>
<text text-anchor="start" x="662.966" y="-495" font-family="Helvetica,sans-Serif" font-size="10.00">/github/readium&#45;sdk&#45;D/ePub3</text>
<text text-anchor="middle" x="728" y="-483" font-family="Helvetica,sans-Serif" font-size="10.00">/utilities/iri.cpp</text>
</g>
<!-- Node2 -->
<g id="node2" class="node"><title>Node2</title>
<g id="a_node2"><a xlink:href="iri_8h.xhtml" target="_top" xlink:title="iri.h">
<polygon fill="white" stroke="black" points="474.943,-419 474.943,-439 507.057,-439 507.057,-419 474.943,-419"/>
<text text-anchor="middle" x="491" y="-425" font-family="Helvetica,sans-Serif" font-size="10.00">iri.h</text>
</a>
</g>
</g>
<!-- Node1&#45;&gt;Node2 -->
<g id="edge1" class="edge"><title>Node1&#45;&gt;Node2</title>
<path fill="none" stroke="midnightblue" d="M654.958,-477.043C608.077,-463.592 550.007,-446.93 517.062,-437.478"/>
<polygon fill="midnightblue" stroke="midnightblue" points="517.872,-434.069 507.294,-434.675 515.941,-440.797 517.872,-434.069"/>
</g>
<!-- Node33 -->
<g id="node33" class="node"><title>Node33</title>
<polygon fill="white" stroke="#bfbfbf" points="591.476,-419 591.476,-439 692.524,-439 692.524,-419 591.476,-419"/>
<text text-anchor="middle" x="642" y="-425" font-family="Helvetica,sans-Serif" font-size="10.00">google&#45;url/url_util.h</text>
</g>
<!-- Node1&#45;&gt;Node33 -->
<g id="edge42" class="edge"><title>Node1&#45;&gt;Node33</title>
<path fill="none" stroke="midnightblue" d="M701.26,-476.857C688.405,-466.692 673.276,-454.73 661.522,-445.436"/>
<polygon fill="midnightblue" stroke="midnightblue" points="663.655,-442.661 653.64,-439.204 659.314,-448.152 663.655,-442.661"/>
</g>
<!-- Node34 -->
<g id="node34" class="node"><title>Node34</title>
<g id="a_node34"><a xlink:href="cfi_8h.xhtml" target="_top" xlink:title="cfi.h">
<polygon fill="white" stroke="black" points="710.83,-419 710.83,-439 745.17,-439 745.17,-419 710.83,-419"/>
<text text-anchor="middle" x="728" y="-425" font-family="Helvetica,sans-Serif" font-size="10.00">cfi.h</text>
</a>
</g>
</g>
<!-- Node1&#45;&gt;Node34 -->
<g id="edge43" class="edge"><title>Node1&#45;&gt;Node34</title>
<path fill="none" stroke="midnightblue" d="M728,-476.857C728,-468.074 728,-457.948 728,-449.362"/>
<polygon fill="midnightblue" stroke="midnightblue" points="731.5,-449.204 728,-439.204 724.5,-449.204 731.5,-449.204"/>
</g>
<!-- Node29 -->
<g id="node29" class="node"><title>Node29</title>
<g id="a_node29"><a xlink:href="make__unique_8h.xhtml" target="_top" xlink:title="ePub3/utilities/make\l_unique.h">
<polygon fill="white" stroke="black" points="1093.25,-291 1093.25,-323 1198.75,-323 1198.75,-291 1093.25,-291"/>
<text text-anchor="start" x="1101.25" y="-309" font-family="Helvetica,sans-Serif" font-size="10.00">ePub3/utilities/make</text>
<text text-anchor="middle" x="1146" y="-297" font-family="Helvetica,sans-Serif" font-size="10.00">_unique.h</text>
</a>
</g>
</g>
<!-- Node1&#45;&gt;Node29 -->
<g id="edge47" class="edge"><title>Node1&#45;&gt;Node29</title>
<path fill="none" stroke="midnightblue" d="M774.33,-476.941C856.136,-439.756 1024.96,-363.02 1103.76,-327.201"/>
<polygon fill="midnightblue" stroke="midnightblue" points="1105.25,-330.365 1112.91,-323.041 1102.36,-323.993 1105.25,-330.365"/>
</g>
<!-- Node25 -->
<g id="node25" class="node"><title>Node25</title>
<polygon fill="white" stroke="#bfbfbf" points="974.766,-297 974.766,-317 1075.23,-317 1075.23,-297 974.766,-297"/>
<text text-anchor="middle" x="1025" y="-303" font-family="Helvetica,sans-Serif" font-size="10.00">REGEX_INCLUDE</text>
</g>
<!-- Node1&#45;&gt;Node25 -->
<g id="edge48" class="edge"><title>Node1&#45;&gt;Node25</title>
<path fill="none" stroke="midnightblue" d="M760.919,-476.941C821.756,-438.021 950.325,-355.772 1002.39,-322.462"/>
<polygon fill="midnightblue" stroke="midnightblue" points="1004.38,-325.349 1010.91,-317.011 1000.6,-319.452 1004.38,-325.349"/>
</g>
<!-- Node3 -->
<g id="node3" class="node"><title>Node3</title>
<g id="a_node3"><a xlink:href="utfstring_8h.xhtml" target="_top" xlink:title="ePub3/utilities/utfstring.h">
<polygon fill="white" stroke="black" points="428.525,-361 428.525,-381 553.475,-381 553.475,-361 428.525,-361"/>
<text text-anchor="middle" x="491" y="-367" font-family="Helvetica,sans-Serif" font-size="10.00">ePub3/utilities/utfstring.h</text>
</a>
</g>
</g>
<!-- Node2&#45;&gt;Node3 -->
<g id="edge2" class="edge"><title>Node2&#45;&gt;Node3</title>
<path fill="none" stroke="midnightblue" d="M491,-418.753C491,-411.25 491,-400.424 491,-391.078"/>
<polygon fill="midnightblue" stroke="midnightblue" points="494.5,-391.075 491,-381.075 487.5,-391.075 494.5,-391.075"/>
</g>
<!-- Node2&#45;&gt;Node29 -->
<g id="edge34" class="edge"><title>Node2&#45;&gt;Node29</title>
<path fill="none" stroke="midnightblue" d="M507.068,-421.821C543.123,-408.233 633.471,-375.713 712,-360 871.696,-328.046 918.594,-351.87 1083.05,-323.982"/>
<polygon fill="midnightblue" stroke="midnightblue" points="1083.76,-327.41 1093.02,-322.253 1082.57,-320.513 1083.76,-327.41"/>
</g>
<!-- Node32 -->
<g id="node32" class="node"><title>Node32</title>
<polygon fill="white" stroke="#bfbfbf" points="89.8672,-361 89.8672,-381 178.133,-381 178.133,-361 89.8672,-361"/>
<text text-anchor="middle" x="134" y="-367" font-family="Helvetica,sans-Serif" font-size="10.00">google&#45;url/gurl.h</text>
</g>
<!-- Node2&#45;&gt;Node32 -->
<g id="edge40" class="edge"><title>Node2&#45;&gt;Node32</title>
<path fill="none" stroke="midnightblue" d="M474.778,-425.61C429.818,-418.962 299.818,-399.587 192,-382 190.752,-381.796 189.489,-381.589 188.216,-381.379"/>
<polygon fill="midnightblue" stroke="midnightblue" points="188.76,-377.922 178.32,-379.726 187.606,-384.826 188.76,-377.922"/>
</g>
<!-- Node13 -->
<g id="node13" class="node"><title>Node13</title>
<polygon fill="white" stroke="#bfbfbf" points="325.384,-233 325.384,-253 368.616,-253 368.616,-233 325.384,-233"/>
<text text-anchor="middle" x="347" y="-239" font-family="Helvetica,sans-Serif" font-size="10.00">vector</text>
</g>
<!-- Node2&#45;&gt;Node13 -->
<g id="edge41" class="edge"><title>Node2&#45;&gt;Node13</title>
<path fill="none" stroke="midnightblue" d="M474.71,-425.483C434.265,-418.256 329.469,-393.321 287,-324 279.106,-311.115 280.314,-303.551 287,-290 293.618,-276.587 306.233,-266 318.194,-258.382"/>
<polygon fill="midnightblue" stroke="midnightblue" points="320.262,-261.226 327.104,-253.137 316.711,-255.194 320.262,-261.226"/>
</g>
<!-- Node4 -->
<g id="node4" class="node"><title>Node4</title>
<g id="a_node4"><a xlink:href="basic_8h.xhtml" target="_top" xlink:title="ePub3/utilities/basic.h">
<polygon fill="white" stroke="black" points="65.6382,-297 65.6382,-317 178.362,-317 178.362,-297 65.6382,-297"/>
<text text-anchor="middle" x="122" y="-303" font-family="Helvetica,sans-Serif" font-size="10.00">ePub3/utilities/basic.h</text>
</a>
</g>
</g>
<!-- Node3&#45;&gt;Node4 -->
<g id="edge3" class="edge"><title>Node3&#45;&gt;Node4</title>
<path fill="none" stroke="midnightblue" d="M437.344,-360.985C370.664,-349.781 257.005,-330.684 185.893,-318.735"/>
<polygon fill="midnightblue" stroke="midnightblue" points="186.162,-315.232 175.721,-317.026 185.002,-322.135 186.162,-315.232"/>
</g>
<!-- Node15 -->
<g id="node15" class="node"><title>Node15</title>
<g id="a_node15"><a xlink:href="integer__sequence_8h.xhtml" target="_top" xlink:title="ePub3/utilities/integer\l_sequence.h">
<polygon fill="white" stroke="black" points="845.192,-291 845.192,-323 956.808,-323 956.808,-291 845.192,-291"/>
<text text-anchor="start" x="853.192" y="-309" font-family="Helvetica,sans-Serif" font-size="10.00">ePub3/utilities/integer</text>
<text text-anchor="middle" x="901" y="-297" font-family="Helvetica,sans-Serif" font-size="10.00">_sequence.h</text>
</a>
</g>
</g>
<!-- Node3&#45;&gt;Node15 -->
<g id="edge14" class="edge"><title>Node3&#45;&gt;Node15</title>
<path fill="none" stroke="midnightblue" d="M553.772,-363.607C622.973,-356.096 737.433,-342.298 835,-324 835.101,-323.981 835.203,-323.962 835.304,-323.943"/>
<polygon fill="midnightblue" stroke="midnightblue" points="835.798,-327.413 844.917,-322.02 834.425,-320.549 835.798,-327.413"/>
</g>
<!-- Node16 -->
<g id="node16" class="node"><title>Node16</title>
<g id="a_node16"><a xlink:href="string__view_8h.xhtml" target="_top" xlink:title="ePub3/utilities/string\l_view.h">
<polygon fill="white" stroke="black" points="721.254,-291 721.254,-323 826.746,-323 826.746,-291 721.254,-291"/>
<text text-anchor="start" x="729.254" y="-309" font-family="Helvetica,sans-Serif" font-size="10.00">ePub3/utilities/string</text>
<text text-anchor="middle" x="774" y="-297" font-family="Helvetica,sans-Serif" font-size="10.00">_view.h</text>
</a>
</g>
</g>
<!-- Node3&#45;&gt;Node16 -->
<g id="edge16" class="edge"><title>Node3&#45;&gt;Node16</title>
<path fill="none" stroke="midnightblue" d="M532.151,-360.985C579.198,-350.677 656.739,-333.69 711.313,-321.734"/>
<polygon fill="midnightblue" stroke="midnightblue" points="712.204,-325.121 721.224,-319.562 710.706,-318.284 712.204,-325.121"/>
</g>
<!-- Node18 -->
<g id="node18" class="node"><title>Node18</title>
<polygon fill="white" stroke="#bfbfbf" points="548.773,-233 548.773,-253 589.227,-253 589.227,-233 548.773,-233"/>
<text text-anchor="middle" x="569" y="-239" font-family="Helvetica,sans-Serif" font-size="10.00">string</text>
</g>
<!-- Node3&#45;&gt;Node18 -->
<g id="edge25" class="edge"><title>Node3&#45;&gt;Node18</title>
<path fill="none" stroke="midnightblue" d="M433.699,-360.982C378.663,-349.88 308.089,-327.706 339,-290 351.604,-274.626 478.806,-255.941 538.443,-247.942"/>
<polygon fill="midnightblue" stroke="midnightblue" points="538.962,-251.404 548.415,-246.62 538.042,-244.464 538.962,-251.404"/>
</g>
<!-- Node23 -->
<g id="node23" class="node"><title>Node23</title>
<polygon fill="white" stroke="#bfbfbf" points="617.438,-297 617.438,-317 664.562,-317 664.562,-297 617.438,-297"/>
<text text-anchor="middle" x="641" y="-303" font-family="Helvetica,sans-Serif" font-size="10.00">iterator</text>
</g>
<!-- Node3&#45;&gt;Node23 -->
<g id="edge26" class="edge"><title>Node3&#45;&gt;Node23</title>
<path fill="none" stroke="midnightblue" d="M515.878,-360.854C539.72,-351.939 576.615,-337.754 608,-324 609.837,-323.195 611.722,-322.346 613.614,-321.476"/>
<polygon fill="midnightblue" stroke="midnightblue" points="615.417,-324.495 622.961,-317.055 612.425,-318.166 615.417,-324.495"/>
</g>
<!-- Node24 -->
<g id="node24" class="node"><title>Node24</title>
<polygon fill="white" stroke="#bfbfbf" points="347.936,-297 347.936,-317 390.064,-317 390.064,-297 347.936,-297"/>
<text text-anchor="middle" x="369" y="-303" font-family="Helvetica,sans-Serif" font-size="10.00">locale</text>
</g>
<!-- Node3&#45;&gt;Node24 -->
<g id="edge27" class="edge"><title>Node3&#45;&gt;Node24</title>
<path fill="none" stroke="midnightblue" d="M472.6,-360.977C453.976,-351.803 424.385,-337.113 399,-324 397.656,-323.306 396.281,-322.59 394.893,-321.865"/>
<polygon fill="midnightblue" stroke="midnightblue" points="396.255,-318.625 385.778,-317.048 392.984,-324.814 396.255,-318.625"/>
</g>
<!-- Node3&#45;&gt;Node13 -->
<g id="edge28" class="edge"><title>Node3&#45;&gt;Node13</title>
<path fill="none" stroke="midnightblue" d="M428.474,-363.623C377.86,-357.017 312.38,-344.694 296,-324 286.621,-312.152 289.86,-303.807 296,-290 301.602,-277.403 312.548,-266.801 322.867,-258.962"/>
<polygon fill="midnightblue" stroke="midnightblue" points="325.103,-261.668 331.257,-253.044 321.068,-255.948 325.103,-261.668"/>
</g>
<!-- Node3&#45;&gt;Node25 -->
<g id="edge29" class="edge"><title>Node3&#45;&gt;Node25</title>
<path fill="none" stroke="midnightblue" d="M553.623,-364.197C677.806,-352.652 945.066,-327.6 965,-324 971.475,-322.831 978.273,-321.309 984.871,-319.671"/>
<polygon fill="midnightblue" stroke="midnightblue" points="986.207,-322.94 995.002,-317.032 984.443,-316.166 986.207,-322.94"/>
</g>
<!-- Node26 -->
<g id="node26" class="node"><title>Node26</title>
<polygon fill="white" stroke="#bfbfbf" points="408.273,-297 408.273,-317 443.727,-317 443.727,-297 408.273,-297"/>
<text text-anchor="middle" x="426" y="-303" font-family="Helvetica,sans-Serif" font-size="10.00">map</text>
</g>
<!-- Node3&#45;&gt;Node26 -->
<g id="edge30" class="edge"><title>Node3&#45;&gt;Node26</title>
<path fill="none" stroke="midnightblue" d="M481.409,-360.852C471.328,-351.236 455.263,-335.913 443.022,-324.236"/>
<polygon fill="midnightblue" stroke="midnightblue" points="445.282,-321.555 435.63,-317.186 440.451,-326.621 445.282,-321.555"/>
</g>
<!-- Node27 -->
<g id="node27" class="node"><title>Node27</title>
<polygon fill="white" stroke="#bfbfbf" points="461.599,-297 461.599,-317 520.401,-317 520.401,-297 461.599,-297"/>
<text text-anchor="middle" x="491" y="-303" font-family="Helvetica,sans-Serif" font-size="10.00">stdexcept</text>
</g>
<!-- Node3&#45;&gt;Node27 -->
<g id="edge31" class="edge"><title>Node3&#45;&gt;Node27</title>
<path fill="none" stroke="midnightblue" d="M491,-360.852C491,-352.06 491,-338.498 491,-327.313"/>
<polygon fill="midnightblue" stroke="midnightblue" points="494.5,-327.186 491,-317.186 487.5,-327.186 494.5,-327.186"/>
</g>
<!-- Node19 -->
<g id="node19" class="node"><title>Node19</title>
<polygon fill="white" stroke="#bfbfbf" points="426.613,-233 426.613,-253 465.387,-253 465.387,-233 426.613,-233"/>
<text text-anchor="middle" x="446" y="-239" font-family="Helvetica,sans-Serif" font-size="10.00">limits</text>
</g>
<!-- Node3&#45;&gt;Node19 -->
<g id="edge32" class="edge"><title>Node3&#45;&gt;Node19</title>
<path fill="none" stroke="midnightblue" d="M428.057,-362.649C380.56,-355.654 321.084,-343.294 306,-324 296.693,-312.095 297.138,-302.24 306,-290 319.075,-271.941 379.242,-257.149 416.316,-249.547"/>
<polygon fill="midnightblue" stroke="midnightblue" points="417.428,-252.895 426.552,-247.51 416.062,-246.03 417.428,-252.895"/>
</g>
<!-- Node28 -->
<g id="node28" class="node"><title>Node28</title>
<polygon fill="white" stroke="#bfbfbf" points="538.761,-297 538.761,-317 599.239,-317 599.239,-297 538.761,-297"/>
<text text-anchor="middle" x="569" y="-303" font-family="Helvetica,sans-Serif" font-size="10.00">utf8/utf8.h</text>
</g>
<!-- Node3&#45;&gt;Node28 -->
<g id="edge33" class="edge"><title>Node3&#45;&gt;Node28</title>
<path fill="none" stroke="midnightblue" d="M502.509,-360.852C514.837,-351.053 534.621,-335.327 549.408,-323.573"/>
<polygon fill="midnightblue" stroke="midnightblue" points="551.793,-326.148 557.444,-317.186 547.437,-320.668 551.793,-326.148"/>
</g>
<!-- Node5 -->
<g id="node5" class="node"><title>Node5</title>
<g id="a_node5"><a xlink:href="base_8h.xhtml" target="_top" xlink:title="ePub3/base.h">
<polygon fill="white" stroke="black" points="913.141,-175 913.141,-195 990.859,-195 990.859,-175 913.141,-175"/>
<text text-anchor="middle" x="952" y="-181" font-family="Helvetica,sans-Serif" font-size="10.00">ePub3/base.h</text>
</a>
</g>
</g>
<!-- Node4&#45;&gt;Node5 -->
<g id="edge4" class="edge"><title>Node4&#45;&gt;Node5</title>
<path fill="none" stroke="midnightblue" d="M155.611,-296.944C187.719,-287.797 237.135,-272.41 278,-254 295.793,-245.984 297.332,-237.687 316,-232 431.047,-196.955 736.17,-206.232 856,-196 871.193,-194.703 887.716,-193.064 902.702,-191.491"/>
<polygon fill="midnightblue" stroke="midnightblue" points="903.223,-194.955 912.797,-190.417 902.483,-187.994 903.223,-194.955"/>
</g>
<!-- Node10 -->
<g id="node10" class="node"><title>Node10</title>
<polygon fill="white" stroke="#bfbfbf" points="154.815,-233 154.815,-253 269.185,-253 269.185,-233 154.815,-233"/>
<text text-anchor="middle" x="212" y="-239" font-family="Helvetica,sans-Serif" font-size="10.00">ePub3/xml/xmlstring.h</text>
</g>
<!-- Node4&#45;&gt;Node10 -->
<g id="edge9" class="edge"><title>Node4&#45;&gt;Node10</title>
<path fill="none" stroke="midnightblue" d="M135.28,-296.852C149.77,-286.87 173.188,-270.737 190.345,-258.918"/>
<polygon fill="midnightblue" stroke="midnightblue" points="192.416,-261.741 198.666,-253.186 188.445,-255.977 192.416,-261.741"/>
</g>
<!-- Node11 -->
<g id="node11" class="node"><title>Node11</title>
<polygon fill="white" stroke="#bfbfbf" points="-0.780762,-233 -0.780762,-253 50.7808,-253 50.7808,-233 -0.780762,-233"/>
<text text-anchor="middle" x="25" y="-239" font-family="Helvetica,sans-Serif" font-size="10.00">sstream</text>
</g>
<!-- Node4&#45;&gt;Node11 -->
<g id="edge10" class="edge"><title>Node4&#45;&gt;Node11</title>
<path fill="none" stroke="midnightblue" d="M107.687,-296.852C91.9269,-286.778 66.3667,-270.441 47.8321,-258.594"/>
<polygon fill="midnightblue" stroke="midnightblue" points="49.6823,-255.622 39.3714,-253.186 45.9123,-261.521 49.6823,-255.622"/>
</g>
<!-- Node12 -->
<g id="node12" class="node"><title>Node12</title>
<polygon fill="white" stroke="#bfbfbf" points="794.943,-175 794.943,-195 847.057,-195 847.057,-175 794.943,-175"/>
<text text-anchor="middle" x="821" y="-181" font-family="Helvetica,sans-Serif" font-size="10.00">memory</text>
</g>
<!-- Node4&#45;&gt;Node12 -->
<g id="edge11" class="edge"><title>Node4&#45;&gt;Node12</title>
<path fill="none" stroke="midnightblue" d="M113.742,-296.536C101.269,-281.082 80.8098,-250.319 98,-232 121.72,-206.723 640.88,-190.865 784.481,-186.951"/>
<polygon fill="midnightblue" stroke="midnightblue" points="784.64,-190.448 794.542,-186.68 784.451,-183.451 784.64,-190.448"/>
</g>
<!-- Node4&#45;&gt;Node13 -->
<g id="edge12" class="edge"><title>Node4&#45;&gt;Node13</title>
<path fill="none" stroke="midnightblue" d="M155.124,-296.913C192.864,-286.553 256.386,-269.098 311,-254 312.446,-253.6 313.924,-253.191 315.417,-252.778"/>
<polygon fill="midnightblue" stroke="midnightblue" points="316.599,-256.082 325.3,-250.037 314.729,-249.337 316.599,-256.082"/>
</g>
<!-- Node14 -->
<g id="node14" class="node"><title>Node14</title>
<polygon fill="white" stroke="#bfbfbf" points="107.5,-233 107.5,-253 136.5,-253 136.5,-233 107.5,-233"/>
<text text-anchor="middle" x="121.611" y="-239" font-family="Helvetica,sans-Serif" font-size="10.00">list</text>
</g>
<!-- Node4&#45;&gt;Node14 -->
<g id="edge13" class="edge"><title>Node4&#45;&gt;Node14</title>
<path fill="none" stroke="midnightblue" d="M122,-296.852C122,-288.06 122,-274.498 122,-263.313"/>
<polygon fill="midnightblue" stroke="midnightblue" points="125.5,-263.186 122,-253.186 118.5,-263.186 125.5,-263.186"/>
</g>
<!-- Node6 -->
<g id="node6" class="node"><title>Node6</title>
<g id="a_node6"><a xlink:href="__config_8h.xhtml" target="_top" xlink:title="_config.h">
<polygon fill="white" stroke="black" points="888.707,-117 888.707,-137 945.293,-137 945.293,-117 888.707,-117"/>
<text text-anchor="middle" x="917" y="-123" font-family="Helvetica,sans-Serif" font-size="10.00">_config.h</text>
</a>
</g>
</g>
<!-- Node5&#45;&gt;Node6 -->
<g id="edge5" class="edge"><title>Node5&#45;&gt;Node6</title>
<path fill="none" stroke="midnightblue" d="M946.22,-174.753C941.277,-166.843 934.023,-155.237 927.98,-145.568"/>
<polygon fill="midnightblue" stroke="midnightblue" points="930.94,-143.7 922.672,-137.075 925.004,-147.41 930.94,-143.7"/>
</g>
<!-- Node9 -->
<g id="node9" class="node"><title>Node9</title>
<polygon fill="white" stroke="#bfbfbf" points="963.158,-117 963.158,-137 1010.84,-137 1010.84,-117 963.158,-117"/>
<text text-anchor="middle" x="987" y="-123" font-family="Helvetica,sans-Serif" font-size="10.00">stdlib.h</text>
</g>
<!-- Node5&#45;&gt;Node9 -->
<g id="edge8" class="edge"><title>Node5&#45;&gt;Node9</title>
<path fill="none" stroke="midnightblue" d="M957.78,-174.753C962.723,-166.843 969.977,-155.237 976.02,-145.568"/>
<polygon fill="midnightblue" stroke="midnightblue" points="978.996,-147.41 981.328,-137.075 973.06,-143.7 978.996,-147.41"/>
</g>
<!-- Node7 -->
<g id="node7" class="node"><title>Node7</title>
<g id="a_node7"><a xlink:href="__platform_8h.xhtml" target="_top" xlink:title="_platform.h">
<polygon fill="white" stroke="black" points="883.988,-59 883.988,-79 950.012,-79 950.012,-59 883.988,-59"/>
<text text-anchor="middle" x="917" y="-65" font-family="Helvetica,sans-Serif" font-size="10.00">_platform.h</text>
</a>
</g>
</g>
<!-- Node6&#45;&gt;Node7 -->
<g id="edge6" class="edge"><title>Node6&#45;&gt;Node7</title>
<path fill="none" stroke="midnightblue" d="M917,-116.753C917,-109.25 917,-98.4238 917,-89.0781"/>
<polygon fill="midnightblue" stroke="midnightblue" points="920.5,-89.0752 917,-79.0752 913.5,-89.0752 920.5,-89.0752"/>
</g>
<!-- Node8 -->
<g id="node8" class="node"><title>Node8</title>
<g id="a_node8"><a xlink:href="__compiler_8h.xhtml" target="_top" xlink:title="_compiler.h">
<polygon fill="white" stroke="black" points="883.429,-1 883.429,-21 950.571,-21 950.571,-1 883.429,-1"/>
<text text-anchor="middle" x="917" y="-7" font-family="Helvetica,sans-Serif" font-size="10.00">_compiler.h</text>
</a>
</g>
</g>
<!-- Node7&#45;&gt;Node8 -->
<g id="edge7" class="edge"><title>Node7&#45;&gt;Node8</title>
<path fill="none" stroke="midnightblue" d="M917,-58.7527C917,-51.2504 917,-40.4238 917,-31.0781"/>
<polygon fill="midnightblue" stroke="midnightblue" points="920.5,-31.0752 917,-21.0752 913.5,-31.0752 920.5,-31.0752"/>
</g>
<!-- Node15&#45;&gt;Node5 -->
<g id="edge15" class="edge"><title>Node15&#45;&gt;Node5</title>
<path fill="none" stroke="midnightblue" d="M917.645,-290.786C927.018,-281.193 938.013,-268.003 944,-254 950.571,-238.63 952.337,-219.627 952.594,-205.62"/>
<polygon fill="midnightblue" stroke="midnightblue" points="956.092,-205.197 952.527,-195.219 949.092,-205.241 956.092,-205.197"/>
</g>
<!-- Node17 -->
<g id="node17" class="node"><title>Node17</title>
<polygon fill="white" stroke="#bfbfbf" points="872.934,-233 872.934,-253 935.066,-253 935.066,-233 872.934,-233"/>
<text text-anchor="middle" x="904" y="-239" font-family="Helvetica,sans-Serif" font-size="10.00">type_traits</text>
</g>
<!-- Node16&#45;&gt;Node17 -->
<g id="edge17" class="edge"><title>Node16&#45;&gt;Node17</title>
<path fill="none" stroke="midnightblue" d="M805.469,-290.992C826.877,-280.782 854.966,-267.385 875.674,-257.509"/>
<polygon fill="midnightblue" stroke="midnightblue" points="877.382,-260.573 884.901,-253.109 874.368,-254.254 877.382,-260.573"/>
</g>
<!-- Node16&#45;&gt;Node18 -->
<g id="edge18" class="edge"><title>Node16&#45;&gt;Node18</title>
<path fill="none" stroke="midnightblue" d="M724.375,-290.992C685.348,-279.188 632.237,-263.125 599.311,-253.167"/>
<polygon fill="midnightblue" stroke="midnightblue" points="599.958,-249.706 589.373,-250.162 597.932,-256.407 599.958,-249.706"/>
</g>
<!-- Node16&#45;&gt;Node19 -->
<g id="edge19" class="edge"><title>Node16&#45;&gt;Node19</title>
<path fill="none" stroke="midnightblue" d="M721.035,-293.042C716.297,-291.977 711.567,-290.947 707,-290 623.439,-272.675 523.959,-256.309 475.487,-248.606"/>
<polygon fill="midnightblue" stroke="midnightblue" points="475.818,-245.114 465.394,-247.01 474.725,-252.029 475.818,-245.114"/>
</g>
<!-- Node20 -->
<g id="node20" class="node"><title>Node20</title>
<polygon fill="white" stroke="#bfbfbf" points="638.828,-233 638.828,-253 693.172,-253 693.172,-233 638.828,-233"/>
<text text-anchor="middle" x="666" y="-239" font-family="Helvetica,sans-Serif" font-size="10.00">iostream</text>
</g>
<!-- Node16&#45;&gt;Node20 -->
<g id="edge20" class="edge"><title>Node16&#45;&gt;Node20</title>
<path fill="none" stroke="midnightblue" d="M747.856,-290.992C730.474,-281.013 707.789,-267.99 690.71,-258.185"/>
<polygon fill="midnightblue" stroke="midnightblue" points="692.282,-255.052 681.867,-253.109 688.797,-261.123 692.282,-255.052"/>
</g>
<!-- Node21 -->
<g id="node21" class="node"><title>Node21</title>
<polygon fill="white" stroke="#bfbfbf" points="711.436,-233 711.436,-253 768.564,-253 768.564,-233 711.436,-233"/>
<text text-anchor="middle" x="740" y="-239" font-family="Helvetica,sans-Serif" font-size="10.00">algorithm</text>
</g>
<!-- Node16&#45;&gt;Node21 -->
<g id="edge21" class="edge"><title>Node16&#45;&gt;Node21</title>
<path fill="none" stroke="midnightblue" d="M765.77,-290.992C761.036,-282.359 755.052,-271.448 750.043,-262.314"/>
<polygon fill="midnightblue" stroke="midnightblue" points="752.972,-260.376 745.095,-253.29 746.834,-263.741 752.972,-260.376"/>
</g>
<!-- Node22 -->
<g id="node22" class="node"><title>Node22</title>
<g id="a_node22"><a xlink:href="____strhash_8h.xhtml" target="_top" xlink:title="__strhash.h">
<polygon fill="white" stroke="black" points="786.872,-233 786.872,-253 855.128,-253 855.128,-233 786.872,-233"/>
<text text-anchor="middle" x="821" y="-239" font-family="Helvetica,sans-Serif" font-size="10.00">__strhash.h</text>
</a>
</g>
</g>
<!-- Node16&#45;&gt;Node22 -->
<g id="edge22" class="edge"><title>Node16&#45;&gt;Node22</title>
<path fill="none" stroke="midnightblue" d="M785.377,-290.992C792.13,-282.084 800.722,-270.75 807.776,-261.445"/>
<polygon fill="midnightblue" stroke="midnightblue" points="810.705,-263.374 813.957,-253.29 805.127,-259.145 810.705,-263.374"/>
</g>
<!-- Node22&#45;&gt;Node5 -->
<g id="edge23" class="edge"><title>Node22&#45;&gt;Node5</title>
<path fill="none" stroke="midnightblue" d="M842.339,-232.878C863.749,-223.725 896.943,-209.536 921.205,-199.164"/>
<polygon fill="midnightblue" stroke="midnightblue" points="922.851,-202.267 930.67,-195.118 920.099,-195.831 922.851,-202.267"/>
</g>
<!-- Node22&#45;&gt;Node12 -->
<g id="edge24" class="edge"><title>Node22&#45;&gt;Node12</title>
<path fill="none" stroke="midnightblue" d="M821,-232.753C821,-225.25 821,-214.424 821,-205.078"/>
<polygon fill="midnightblue" stroke="midnightblue" points="824.5,-205.075 821,-195.075 817.5,-205.075 824.5,-205.075"/>
</g>
<!-- Node29&#45;&gt;Node5 -->
<g id="edge35" class="edge"><title>Node29&#45;&gt;Node5</title>
<path fill="none" stroke="midnightblue" d="M1121.43,-290.802C1083.83,-267.546 1012.51,-223.427 975.538,-200.56"/>
<polygon fill="midnightblue" stroke="midnightblue" points="977.267,-197.513 966.921,-195.229 973.584,-203.467 977.267,-197.513"/>
</g>
<!-- Node30 -->
<g id="node30" class="node"><title>Node30</title>
<polygon fill="white" stroke="#bfbfbf" points="1090.88,-233 1090.88,-253 1139.12,-253 1139.12,-233 1090.88,-233"/>
<text text-anchor="middle" x="1115" y="-239" font-family="Helvetica,sans-Serif" font-size="10.00">cstddef</text>
</g>
<!-- Node29&#45;&gt;Node30 -->
<g id="edge36" class="edge"><title>Node29&#45;&gt;Node30</title>
<path fill="none" stroke="midnightblue" d="M1138.5,-290.992C1134.18,-282.359 1128.72,-271.448 1124.16,-262.314"/>
<polygon fill="midnightblue" stroke="midnightblue" points="1127.25,-260.669 1119.65,-253.29 1120.99,-263.8 1127.25,-260.669"/>
</g>
<!-- Node29&#45;&gt;Node12 -->
<g id="edge37" class="edge"><title>Node29&#45;&gt;Node12</title>
<path fill="none" stroke="midnightblue" d="M1105.17,-290.923C1040.41,-267.012 915.328,-220.829 855.076,-198.582"/>
<polygon fill="midnightblue" stroke="midnightblue" points="856.231,-195.277 845.638,-195.097 853.806,-201.844 856.231,-195.277"/>
</g>
<!-- Node29&#45;&gt;Node17 -->
<g id="edge38" class="edge"><title>Node29&#45;&gt;Node17</title>
<path fill="none" stroke="midnightblue" d="M1093.24,-292.375C1090.11,-291.571 1087.01,-290.774 1084,-290 1036.31,-277.753 981.495,-263.756 945.007,-254.45"/>
<polygon fill="midnightblue" stroke="midnightblue" points="945.778,-251.035 935.223,-251.955 944.048,-257.818 945.778,-251.035"/>
</g>
<!-- Node31 -->
<g id="node31" class="node"><title>Node31</title>
<polygon fill="white" stroke="#bfbfbf" points="1157.61,-233 1157.61,-253 1196.39,-253 1196.39,-233 1157.61,-233"/>
<text text-anchor="middle" x="1177" y="-239" font-family="Helvetica,sans-Serif" font-size="10.00">utility</text>
</g>
<!-- Node29&#45;&gt;Node31 -->
<g id="edge39" class="edge"><title>Node29&#45;&gt;Node31</title>
<path fill="none" stroke="midnightblue" d="M1153.5,-290.992C1157.82,-282.359 1163.28,-271.448 1167.84,-262.314"/>
<polygon fill="midnightblue" stroke="midnightblue" points="1171.01,-263.8 1172.35,-253.29 1164.75,-260.669 1171.01,-263.8"/>
</g>
<!-- Node35 -->
<g id="node35" class="node"><title>Node35</title>
<polygon fill="white" stroke="#bfbfbf" points="721.079,-361 721.079,-381 804.921,-381 804.921,-361 721.079,-361"/>
<text text-anchor="middle" x="763" y="-367" font-family="Helvetica,sans-Serif" font-size="10.00">ePub3/epub3.h</text>
</g>
<!-- Node34&#45;&gt;Node35 -->
<g id="edge44" class="edge"><title>Node34&#45;&gt;Node35</title>
<path fill="none" stroke="midnightblue" d="M733.78,-418.753C738.723,-410.843 745.977,-399.237 752.02,-389.568"/>
<polygon fill="midnightblue" stroke="midnightblue" points="754.996,-391.41 757.328,-381.075 749.06,-387.7 754.996,-391.41"/>
</g>
<!-- Node34&#45;&gt;Node3 -->
<g id="edge45" class="edge"><title>Node34&#45;&gt;Node3</title>
<path fill="none" stroke="midnightblue" d="M710.69,-421.185C707.494,-420.042 704.166,-418.928 701,-418 651.264,-403.419 593.694,-391.122 551.423,-382.92"/>
<polygon fill="midnightblue" stroke="midnightblue" points="552.045,-379.476 541.564,-381.028 550.725,-386.35 552.045,-379.476"/>
</g>
<!-- Node34&#45;&gt;Node13 -->
<g id="edge46" class="edge"><title>Node34&#45;&gt;Node13</title>
<path fill="none" stroke="midnightblue" d="M724.639,-418.844C713.539,-388.708 678.451,-294.282 673,-290 673,-290 460.491,-260.014 378.626,-248.462"/>
<polygon fill="midnightblue" stroke="midnightblue" points="379.033,-244.985 368.642,-247.054 378.055,-251.917 379.033,-244.985"/>
</g>
</g>
</svg>
