<?xml version="1.0" encoding="UTF-8" standalone="no"?>
<!DOCTYPE svg PUBLIC "-//W3C//DTD SVG 1.1//EN"
 "http://www.w3.org/Graphics/SVG/1.1/DTD/svg11.dtd">
<!-- Generated by graphviz version 2.30.0 (20130114.0426)
 -->
<!-- Title: /Users/rkwright/Documents/github/readium&#45;sdk&#45;D/ePub3/utilities/iri.h Pages: 1 -->
<svg width="4129pt" height="324pt"
 viewBox="0.00 0.00 4129.00 324.00" xmlns="http://www.w3.org/2000/svg" xmlns:xlink="http://www.w3.org/1999/xlink">
<g id="graph0" class="graph" transform="scale(1 1) rotate(0) translate(4 320)">
<title>/Users/rkwright/Documents/github/readium&#45;sdk&#45;D/ePub3/utilities/iri.h</title>
<polygon fill="white" stroke="white" points="-4,5 -4,-320 4126,-320 4126,5 -4,5"/>
<!-- Node1 -->
<g id="node1" class="node"><title>Node1</title>
<polygon fill="#bfbfbf" stroke="black" points="3103.97,-271 3103.97,-315 3250.03,-315 3250.03,-271 3103.97,-271"/>
<text text-anchor="start" x="3111.97" y="-301" font-family="Helvetica,sans-Serif" font-size="10.00">/Users/rkwright/Documents</text>
<text text-anchor="start" x="3111.97" y="-289" font-family="Helvetica,sans-Serif" font-size="10.00">/github/readium&#45;sdk&#45;D/ePub3</text>
<text text-anchor="middle" x="3177" y="-277" font-family="Helvetica,sans-Serif" font-size="10.00">/utilities/iri.h</text>
</g>
<!-- Node2 -->
<g id="node2" class="node"><title>Node2</title>
<g id="a_node2"><a xlink:href="package_8h.xhtml" target="_top" xlink:title="/Users/rkwright/Documents\l/github/readium&#45;sdk&#45;D/ePub3\l/ePub/package.h">
<polygon fill="white" stroke="black" points="1831.97,-189 1831.97,-233 1978.03,-233 1978.03,-189 1831.97,-189"/>
<text text-anchor="start" x="1839.97" y="-219" font-family="Helvetica,sans-Serif" font-size="10.00">/Users/rkwright/Documents</text>
<text text-anchor="start" x="1839.97" y="-207" font-family="Helvetica,sans-Serif" font-size="10.00">/github/readium&#45;sdk&#45;D/ePub3</text>
<text text-anchor="middle" x="1905" y="-195" font-family="Helvetica,sans-Serif" font-size="10.00">/ePub/package.h</text>
</a>
</g>
</g>
<!-- Node1&#45;&gt;Node2 -->
<g id="edge1" class="edge"><title>Node1&#45;&gt;Node2</title>
<path fill="none" stroke="midnightblue" d="M3093.42,-286.744C2859.28,-272.018 2199.61,-230.529 1978.38,-216.615"/>
<polygon fill="midnightblue" stroke="midnightblue" points="3093.38,-290.248 3103.58,-287.382 3093.82,-283.261 3093.38,-290.248"/>
</g>
<!-- Node20 -->
<g id="node20" class="node"><title>Node20</title>
<g id="a_node20"><a xlink:href="content__handler_8h.xhtml" target="_top" xlink:title="/Users/rkwright/Documents\l/github/readium&#45;sdk&#45;D/ePub3\l/ePub/content_handler.h">
<polygon fill="white" stroke="black" points="324.966,-189 324.966,-233 471.034,-233 471.034,-189 324.966,-189"/>
<text text-anchor="start" x="332.966" y="-219" font-family="Helvetica,sans-Serif" font-size="10.00">/Users/rkwright/Documents</text>
<text text-anchor="start" x="332.966" y="-207" font-family="Helvetica,sans-Serif" font-size="10.00">/github/readium&#45;sdk&#45;D/ePub3</text>
<text text-anchor="middle" x="398" y="-195" font-family="Helvetica,sans-Serif" font-size="10.00">/ePub/content_handler.h</text>
</a>
</g>
</g>
<!-- Node1&#45;&gt;Node20 -->
<g id="edge21" class="edge"><title>Node1&#45;&gt;Node20</title>
<path fill="none" stroke="midnightblue" d="M3093.64,-291.006C2785.88,-287.12 1684.42,-271.291 777,-234 670.646,-229.629 547.645,-222.018 471.328,-216.994"/>
<polygon fill="midnightblue" stroke="midnightblue" points="3093.78,-294.508 3103.82,-291.134 3093.87,-287.509 3093.78,-294.508"/>
</g>
<!-- Node4 -->
<g id="node4" class="node"><title>Node4</title>
<g id="a_node4"><a xlink:href="content__handler_8cpp.xhtml" target="_top" xlink:title="/Users/rkwright/Documents\l/github/readium&#45;sdk&#45;D/ePub3\l/ePub/content_handler.cpp">
<polygon fill="white" stroke="black" points="-0.0341797,-101 -0.0341797,-145 146.034,-145 146.034,-101 -0.0341797,-101"/>
<text text-anchor="start" x="7.96582" y="-131" font-family="Helvetica,sans-Serif" font-size="10.00">/Users/rkwright/Documents</text>
<text text-anchor="start" x="7.96582" y="-119" font-family="Helvetica,sans-Serif" font-size="10.00">/github/readium&#45;sdk&#45;D/ePub3</text>
<text text-anchor="middle" x="73" y="-107" font-family="Helvetica,sans-Serif" font-size="10.00">/ePub/content_handler.cpp</text>
</a>
</g>
</g>
<!-- Node1&#45;&gt;Node4 -->
<g id="edge23" class="edge"><title>Node1&#45;&gt;Node4</title>
<path fill="none" stroke="midnightblue" d="M3093.63,-292.309C2651.69,-293.678 592.583,-296.626 316,-234 237.412,-216.206 153.395,-171.783 107.634,-145.151"/>
<polygon fill="midnightblue" stroke="midnightblue" points="3093.78,-295.808 3103.77,-292.277 3093.76,-288.808 3093.78,-295.808"/>
</g>
<!-- Node21 -->
<g id="node21" class="node"><title>Node21</title>
<g id="a_node21"><a xlink:href="user__action_8h.xhtml" target="_top" xlink:title="/Users/rkwright/Documents\l/github/readium&#45;sdk&#45;D/ePub3\l/ePub/user_action.h">
<polygon fill="white" stroke="black" points="3154.97,-189 3154.97,-233 3301.03,-233 3301.03,-189 3154.97,-189"/>
<text text-anchor="start" x="3162.97" y="-219" font-family="Helvetica,sans-Serif" font-size="10.00">/Users/rkwright/Documents</text>
<text text-anchor="start" x="3162.97" y="-207" font-family="Helvetica,sans-Serif" font-size="10.00">/github/readium&#45;sdk&#45;D/ePub3</text>
<text text-anchor="middle" x="3228" y="-195" font-family="Helvetica,sans-Serif" font-size="10.00">/ePub/user_action.h</text>
</a>
</g>
</g>
<!-- Node1&#45;&gt;Node21 -->
<g id="edge24" class="edge"><title>Node1&#45;&gt;Node21</title>
<path fill="none" stroke="midnightblue" d="M3195.88,-262.388C3202.06,-252.685 3208.81,-242.105 3214.51,-233.156"/>
<polygon fill="midnightblue" stroke="midnightblue" points="3192.82,-260.667 3190.4,-270.981 3198.73,-264.43 3192.82,-260.667"/>
</g>
<!-- Node23 -->
<g id="node23" class="node"><title>Node23</title>
<g id="a_node23"><a xlink:href="manifest_8h.xhtml" target="_top" xlink:title="/Users/rkwright/Documents\l/github/readium&#45;sdk&#45;D/ePub3\l/ePub/manifest.h">
<polygon fill="white" stroke="black" points="785.966,-189 785.966,-233 932.034,-233 932.034,-189 785.966,-189"/>
<text text-anchor="start" x="793.966" y="-219" font-family="Helvetica,sans-Serif" font-size="10.00">/Users/rkwright/Documents</text>
<text text-anchor="start" x="793.966" y="-207" font-family="Helvetica,sans-Serif" font-size="10.00">/github/readium&#45;sdk&#45;D/ePub3</text>
<text text-anchor="middle" x="859" y="-195" font-family="Helvetica,sans-Serif" font-size="10.00">/ePub/manifest.h</text>
</a>
</g>
</g>
<!-- Node1&#45;&gt;Node23 -->
<g id="edge26" class="edge"><title>Node1&#45;&gt;Node23</title>
<path fill="none" stroke="midnightblue" d="M3093.58,-289.121C2728.7,-276.528 1276.02,-226.393 932.219,-214.527"/>
<polygon fill="midnightblue" stroke="midnightblue" points="3093.68,-292.627 3103.8,-289.474 3093.93,-285.631 3093.68,-292.627"/>
</g>
<!-- Node27 -->
<g id="node27" class="node"><title>Node27</title>
<g id="a_node27"><a xlink:href="object__preprocessor_8h.xhtml" target="_top" xlink:title="/Users/rkwright/Documents\l/github/readium&#45;sdk&#45;D/ePub3\l/ePub/object_preprocessor.h">
<polygon fill="white" stroke="black" points="2950.97,-189 2950.97,-233 3097.03,-233 3097.03,-189 2950.97,-189"/>
<text text-anchor="start" x="2958.97" y="-219" font-family="Helvetica,sans-Serif" font-size="10.00">/Users/rkwright/Documents</text>
<text text-anchor="start" x="2958.97" y="-207" font-family="Helvetica,sans-Serif" font-size="10.00">/github/readium&#45;sdk&#45;D/ePub3</text>
<text text-anchor="middle" x="3024" y="-195" font-family="Helvetica,sans-Serif" font-size="10.00">/ePub/object_preprocessor.h</text>
</a>
</g>
</g>
<!-- Node1&#45;&gt;Node27 -->
<g id="edge34" class="edge"><title>Node1&#45;&gt;Node27</title>
<path fill="none" stroke="midnightblue" d="M3127.89,-266.323C3107.32,-255.567 3083.71,-243.22 3064.2,-233.017"/>
<polygon fill="midnightblue" stroke="midnightblue" points="3126.32,-269.449 3136.8,-270.981 3129.56,-263.246 3126.32,-269.449"/>
</g>
<!-- Node12 -->
<g id="node12" class="node"><title>Node12</title>
<g id="a_node12"><a xlink:href="package_8cpp.xhtml" target="_top" xlink:title="/Users/rkwright/Documents\l/github/readium&#45;sdk&#45;D/ePub3\l/ePub/package.cpp">
<polygon fill="white" stroke="black" points="2844.97,-7 2844.97,-51 2991.03,-51 2991.03,-7 2844.97,-7"/>
<text text-anchor="start" x="2852.97" y="-37" font-family="Helvetica,sans-Serif" font-size="10.00">/Users/rkwright/Documents</text>
<text text-anchor="start" x="2852.97" y="-25" font-family="Helvetica,sans-Serif" font-size="10.00">/github/readium&#45;sdk&#45;D/ePub3</text>
<text text-anchor="middle" x="2918" y="-13" font-family="Helvetica,sans-Serif" font-size="10.00">/ePub/package.cpp</text>
</a>
</g>
</g>
<!-- Node1&#45;&gt;Node12 -->
<g id="edge36" class="edge"><title>Node1&#45;&gt;Node12</title>
<path fill="none" stroke="midnightblue" d="M3159.31,-262.01C3154.56,-253.181 3149.72,-243.372 3146,-234 3122.21,-174.077 3152.2,-140.934 3108,-94 3077.81,-61.9475 3031.06,-45.9447 2991.49,-37.9564"/>
<polygon fill="midnightblue" stroke="midnightblue" points="3156.27,-263.742 3164.18,-270.796 3162.4,-260.352 3156.27,-263.742"/>
</g>
<!-- Node28 -->
<g id="node28" class="node"><title>Node28</title>
<g id="a_node28"><a xlink:href="property_8cpp.xhtml" target="_top" xlink:title="/Users/rkwright/Documents\l/github/readium&#45;sdk&#45;D/ePub3\l/ePub/property.cpp">
<polygon fill="white" stroke="black" points="3318.97,-189 3318.97,-233 3465.03,-233 3465.03,-189 3318.97,-189"/>
<text text-anchor="start" x="3326.97" y="-219" font-family="Helvetica,sans-Serif" font-size="10.00">/Users/rkwright/Documents</text>
<text text-anchor="start" x="3326.97" y="-207" font-family="Helvetica,sans-Serif" font-size="10.00">/github/readium&#45;sdk&#45;D/ePub3</text>
<text text-anchor="middle" x="3392" y="-195" font-family="Helvetica,sans-Serif" font-size="10.00">/ePub/property.cpp</text>
</a>
</g>
</g>
<!-- Node1&#45;&gt;Node28 -->
<g id="edge37" class="edge"><title>Node1&#45;&gt;Node28</title>
<path fill="none" stroke="midnightblue" d="M3242.91,-267.474C3272.52,-256.456 3307.11,-243.586 3335.52,-233.017"/>
<polygon fill="midnightblue" stroke="midnightblue" points="3241.64,-264.213 3233.49,-270.981 3244.08,-270.774 3241.64,-264.213"/>
</g>
<!-- Node29 -->
<g id="node29" class="node"><title>Node29</title>
<g id="a_node29"><a xlink:href="property_8h.xhtml" target="_top" xlink:title="/Users/rkwright/Documents\l/github/readium&#45;sdk&#45;D/ePub3\l/ePub/property.h">
<polygon fill="white" stroke="black" points="3482.97,-189 3482.97,-233 3629.03,-233 3629.03,-189 3482.97,-189"/>
<text text-anchor="start" x="3490.97" y="-219" font-family="Helvetica,sans-Serif" font-size="10.00">/Users/rkwright/Documents</text>
<text text-anchor="start" x="3490.97" y="-207" font-family="Helvetica,sans-Serif" font-size="10.00">/github/readium&#45;sdk&#45;D/ePub3</text>
<text text-anchor="middle" x="3556" y="-195" font-family="Helvetica,sans-Serif" font-size="10.00">/ePub/property.h</text>
</a>
</g>
</g>
<!-- Node1&#45;&gt;Node29 -->
<g id="edge38" class="edge"><title>Node1&#45;&gt;Node29</title>
<path fill="none" stroke="midnightblue" d="M3260.36,-277.317C3320.07,-266.411 3402.27,-250.605 3474,-234 3476.87,-233.335 3479.8,-232.64 3482.75,-231.923"/>
<polygon fill="midnightblue" stroke="midnightblue" points="3259.44,-273.927 3250.23,-279.16 3260.69,-280.814 3259.44,-273.927"/>
</g>
<!-- Node31 -->
<g id="node31" class="node"><title>Node31</title>
<g id="a_node31"><a xlink:href="property__extension_8h.xhtml" target="_top" xlink:title="/Users/rkwright/Documents\l/github/readium&#45;sdk&#45;D/ePub3\l/ePub/property_extension.h">
<polygon fill="white" stroke="black" points="3646.97,-189 3646.97,-233 3793.03,-233 3793.03,-189 3646.97,-189"/>
<text text-anchor="start" x="3654.97" y="-219" font-family="Helvetica,sans-Serif" font-size="10.00">/Users/rkwright/Documents</text>
<text text-anchor="start" x="3654.97" y="-207" font-family="Helvetica,sans-Serif" font-size="10.00">/github/readium&#45;sdk&#45;D/ePub3</text>
<text text-anchor="middle" x="3720" y="-195" font-family="Helvetica,sans-Serif" font-size="10.00">/ePub/property_extension.h</text>
</a>
</g>
</g>
<!-- Node1&#45;&gt;Node31 -->
<g id="edge40" class="edge"><title>Node1&#45;&gt;Node31</title>
<path fill="none" stroke="midnightblue" d="M3260.32,-284.98C3353.07,-276.364 3507.15,-259.659 3638,-234 3640.89,-233.433 3643.83,-232.82 3646.8,-232.172"/>
<polygon fill="midnightblue" stroke="midnightblue" points="3259.79,-281.514 3250.15,-285.915 3260.43,-288.485 3259.79,-281.514"/>
</g>
<!-- Node32 -->
<g id="node32" class="node"><title>Node32</title>
<g id="a_node32"><a xlink:href="iri_8cpp.xhtml" target="_top" xlink:title="/Users/rkwright/Documents\l/github/readium&#45;sdk&#45;D/ePub3\l/utilities/iri.cpp">
<polygon fill="white" stroke="black" points="3810.97,-189 3810.97,-233 3957.03,-233 3957.03,-189 3810.97,-189"/>
<text text-anchor="start" x="3818.97" y="-219" font-family="Helvetica,sans-Serif" font-size="10.00">/Users/rkwright/Documents</text>
<text text-anchor="start" x="3818.97" y="-207" font-family="Helvetica,sans-Serif" font-size="10.00">/github/readium&#45;sdk&#45;D/ePub3</text>
<text text-anchor="middle" x="3884" y="-195" font-family="Helvetica,sans-Serif" font-size="10.00">/utilities/iri.cpp</text>
</a>
</g>
</g>
<!-- Node1&#45;&gt;Node32 -->
<g id="edge42" class="edge"><title>Node1&#45;&gt;Node32</title>
<path fill="none" stroke="midnightblue" d="M3260.44,-288.757C3380.85,-283.061 3609.96,-268.415 3802,-234 3804.9,-233.48 3807.85,-232.907 3810.82,-232.292"/>
<polygon fill="midnightblue" stroke="midnightblue" points="3260.02,-285.272 3250.19,-289.232 3260.34,-292.265 3260.02,-285.272"/>
</g>
<!-- Node33 -->
<g id="node33" class="node"><title>Node33</title>
<g id="a_node33"><a xlink:href="utilities_2library_8cpp.xhtml" target="_top" xlink:title="/Users/rkwright/Documents\l/github/readium&#45;sdk&#45;D/ePub3\l/utilities/Library.cpp">
<polygon fill="white" stroke="black" points="3974.97,-189 3974.97,-233 4121.03,-233 4121.03,-189 3974.97,-189"/>
<text text-anchor="start" x="3982.97" y="-219" font-family="Helvetica,sans-Serif" font-size="10.00">/Users/rkwright/Documents</text>
<text text-anchor="start" x="3982.97" y="-207" font-family="Helvetica,sans-Serif" font-size="10.00">/github/readium&#45;sdk&#45;D/ePub3</text>
<text text-anchor="middle" x="4048" y="-195" font-family="Helvetica,sans-Serif" font-size="10.00">/utilities/Library.cpp</text>
</a>
</g>
</g>
<!-- Node1&#45;&gt;Node33 -->
<g id="edge43" class="edge"><title>Node1&#45;&gt;Node33</title>
<path fill="none" stroke="midnightblue" d="M3260.29,-291.028C3404.88,-288.196 3711.26,-277.138 3966,-234 3968.91,-233.508 3971.86,-232.958 3974.83,-232.363"/>
<polygon fill="midnightblue" stroke="midnightblue" points="3260.09,-287.531 3250.16,-291.218 3260.23,-294.53 3260.09,-287.531"/>
</g>
<!-- Node3 -->
<g id="node3" class="node"><title>Node3</title>
<g id="a_node3"><a xlink:href="container_8cpp.xhtml" target="_top" xlink:title="/Users/rkwright/Documents\l/github/readium&#45;sdk&#45;D/ePub3\l/ePub/container.cpp">
<polygon fill="white" stroke="black" points="2415.97,-101 2415.97,-145 2562.03,-145 2562.03,-101 2415.97,-101"/>
<text text-anchor="start" x="2423.97" y="-131" font-family="Helvetica,sans-Serif" font-size="10.00">/Users/rkwright/Documents</text>
<text text-anchor="start" x="2423.97" y="-119" font-family="Helvetica,sans-Serif" font-size="10.00">/github/readium&#45;sdk&#45;D/ePub3</text>
<text text-anchor="middle" x="2489" y="-107" font-family="Helvetica,sans-Serif" font-size="10.00">/ePub/container.cpp</text>
</a>
</g>
</g>
<!-- Node2&#45;&gt;Node3 -->
<g id="edge2" class="edge"><title>Node2&#45;&gt;Node3</title>
<path fill="none" stroke="midnightblue" d="M1988.46,-205.71C2088.64,-199.332 2261.23,-184.42 2406,-152 2414.46,-150.106 2423.27,-147.667 2431.85,-145.02"/>
<polygon fill="midnightblue" stroke="midnightblue" points="1988.16,-202.222 1978.4,-206.338 1988.6,-209.208 1988.16,-202.222"/>
</g>
<!-- Node2&#45;&gt;Node4 -->
<g id="edge3" class="edge"><title>Node2&#45;&gt;Node4</title>
<path fill="none" stroke="midnightblue" d="M1821.68,-207.923C1484.83,-199.439 237.704,-167.143 155,-152 145.974,-150.347 136.593,-147.892 127.54,-145.112"/>
<polygon fill="midnightblue" stroke="midnightblue" points="1821.77,-211.427 1831.86,-208.179 1821.95,-204.429 1821.77,-211.427"/>
</g>
<!-- Node5 -->
<g id="node5" class="node"><title>Node5</title>
<g id="a_node5"><a xlink:href="epub__collection_8cpp.xhtml" target="_top" xlink:title="/Users/rkwright/Documents\l/github/readium&#45;sdk&#45;D/ePub3\l/ePub/epub_collection.cpp">
<polygon fill="white" stroke="black" points="2579.97,-101 2579.97,-145 2726.03,-145 2726.03,-101 2579.97,-101"/>
<text text-anchor="start" x="2587.97" y="-131" font-family="Helvetica,sans-Serif" font-size="10.00">/Users/rkwright/Documents</text>
<text text-anchor="start" x="2587.97" y="-119" font-family="Helvetica,sans-Serif" font-size="10.00">/github/readium&#45;sdk&#45;D/ePub3</text>
<text text-anchor="middle" x="2653" y="-107" font-family="Helvetica,sans-Serif" font-size="10.00">/ePub/epub_collection.cpp</text>
</a>
</g>
</g>
<!-- Node2&#45;&gt;Node5 -->
<g id="edge4" class="edge"><title>Node2&#45;&gt;Node5</title>
<path fill="none" stroke="midnightblue" d="M1988.33,-209.187C2115.37,-206.507 2364.51,-195.57 2571,-152 2579.54,-150.199 2588.41,-147.776 2597.04,-145.107"/>
<polygon fill="midnightblue" stroke="midnightblue" points="1988.21,-205.689 1978.28,-209.388 1988.35,-212.688 1988.21,-205.689"/>
</g>
<!-- Node6 -->
<g id="node6" class="node"><title>Node6</title>
<g id="a_node6"><a xlink:href="font__obfuscation_8cpp.xhtml" target="_top" xlink:title="/Users/rkwright/Documents\l/github/readium&#45;sdk&#45;D/ePub3\l/ePub/font_obfuscation.cpp">
<polygon fill="white" stroke="black" points="2743.97,-101 2743.97,-145 2890.03,-145 2890.03,-101 2743.97,-101"/>
<text text-anchor="start" x="2751.97" y="-131" font-family="Helvetica,sans-Serif" font-size="10.00">/Users/rkwright/Documents</text>
<text text-anchor="start" x="2751.97" y="-119" font-family="Helvetica,sans-Serif" font-size="10.00">/github/readium&#45;sdk&#45;D/ePub3</text>
<text text-anchor="middle" x="2817" y="-107" font-family="Helvetica,sans-Serif" font-size="10.00">/ePub/font_obfuscation.cpp</text>
</a>
</g>
</g>
<!-- Node2&#45;&gt;Node6 -->
<g id="edge5" class="edge"><title>Node2&#45;&gt;Node6</title>
<path fill="none" stroke="midnightblue" d="M1988.2,-206.927C2169.21,-199.794 2593.87,-180.522 2735,-152 2743.7,-150.242 2752.74,-147.807 2761.51,-145.1"/>
<polygon fill="midnightblue" stroke="midnightblue" points="1988.05,-203.43 1978.19,-207.318 1988.32,-210.425 1988.05,-203.43"/>
</g>
<!-- Node7 -->
<g id="node7" class="node"><title>Node7</title>
<g id="a_node7"><a xlink:href="e_pub_2library_8cpp.xhtml" target="_top" xlink:title="/Users/rkwright/Documents\l/github/readium&#45;sdk&#45;D/ePub3\l/ePub/library.cpp">
<polygon fill="white" stroke="black" points="859.966,-101 859.966,-145 1006.03,-145 1006.03,-101 859.966,-101"/>
<text text-anchor="start" x="867.966" y="-131" font-family="Helvetica,sans-Serif" font-size="10.00">/Users/rkwright/Documents</text>
<text text-anchor="start" x="867.966" y="-119" font-family="Helvetica,sans-Serif" font-size="10.00">/github/readium&#45;sdk&#45;D/ePub3</text>
<text text-anchor="middle" x="933" y="-107" font-family="Helvetica,sans-Serif" font-size="10.00">/ePub/library.cpp</text>
</a>
</g>
</g>
<!-- Node2&#45;&gt;Node7 -->
<g id="edge6" class="edge"><title>Node2&#45;&gt;Node7</title>
<path fill="none" stroke="midnightblue" d="M1821.39,-207.367C1630.59,-200.901 1167.83,-182.513 1015,-152 1006.3,-150.262 997.249,-147.838 988.479,-145.137"/>
<polygon fill="midnightblue" stroke="midnightblue" points="1821.53,-210.873 1831.64,-207.711 1821.76,-203.877 1821.53,-210.873"/>
</g>
<!-- Node8 -->
<g id="node8" class="node"><title>Node8</title>
<g id="a_node8"><a xlink:href="link_8cpp.xhtml" target="_top" xlink:title="/Users/rkwright/Documents\l/github/readium&#45;sdk&#45;D/ePub3\l/ePub/link.cpp">
<polygon fill="white" stroke="black" points="1023.97,-101 1023.97,-145 1170.03,-145 1170.03,-101 1023.97,-101"/>
<text text-anchor="start" x="1031.97" y="-131" font-family="Helvetica,sans-Serif" font-size="10.00">/Users/rkwright/Documents</text>
<text text-anchor="start" x="1031.97" y="-119" font-family="Helvetica,sans-Serif" font-size="10.00">/github/readium&#45;sdk&#45;D/ePub3</text>
<text text-anchor="middle" x="1097" y="-107" font-family="Helvetica,sans-Serif" font-size="10.00">/ePub/link.cpp</text>
</a>
</g>
</g>
<!-- Node2&#45;&gt;Node8 -->
<g id="edge7" class="edge"><title>Node2&#45;&gt;Node8</title>
<path fill="none" stroke="midnightblue" d="M1821.42,-210.048C1685.35,-208.63 1408.12,-199.491 1179,-152 1170.31,-150.199 1161.27,-147.74 1152.5,-145.024"/>
<polygon fill="midnightblue" stroke="midnightblue" points="1821.73,-213.551 1831.76,-210.143 1821.8,-206.551 1821.73,-213.551"/>
</g>
<!-- Node9 -->
<g id="node9" class="node"><title>Node9</title>
<g id="a_node9"><a xlink:href="manifest_8cpp.xhtml" target="_top" xlink:title="/Users/rkwright/Documents\l/github/readium&#45;sdk&#45;D/ePub3\l/ePub/manifest.cpp">
<polygon fill="white" stroke="black" points="1187.97,-101 1187.97,-145 1334.03,-145 1334.03,-101 1187.97,-101"/>
<text text-anchor="start" x="1195.97" y="-131" font-family="Helvetica,sans-Serif" font-size="10.00">/Users/rkwright/Documents</text>
<text text-anchor="start" x="1195.97" y="-119" font-family="Helvetica,sans-Serif" font-size="10.00">/github/readium&#45;sdk&#45;D/ePub3</text>
<text text-anchor="middle" x="1261" y="-107" font-family="Helvetica,sans-Serif" font-size="10.00">/ePub/manifest.cpp</text>
</a>
</g>
</g>
<!-- Node2&#45;&gt;Node9 -->
<g id="edge8" class="edge"><title>Node2&#45;&gt;Node9</title>
<path fill="none" stroke="midnightblue" d="M1821.7,-206.72C1712.07,-201.178 1513.83,-186.924 1348,-152 1339.15,-150.136 1329.93,-147.714 1320.94,-145.075"/>
<polygon fill="midnightblue" stroke="midnightblue" points="1821.55,-210.216 1831.71,-207.214 1821.89,-203.225 1821.55,-210.216"/>
</g>
<!-- Node10 -->
<g id="node10" class="node"><title>Node10</title>
<g id="a_node10"><a xlink:href="media-overlays__smil__model_8h.xhtml" target="_top" xlink:title="/Users/rkwright/Documents\l/github/readium&#45;sdk&#45;D/ePub3\l/ePub/media&#45;overlays_smil_model.h">
<polygon fill="white" stroke="black" points="1390.41,-101 1390.41,-145 1567.59,-145 1567.59,-101 1390.41,-101"/>
<text text-anchor="start" x="1398.41" y="-131" font-family="Helvetica,sans-Serif" font-size="10.00">/Users/rkwright/Documents</text>
<text text-anchor="start" x="1398.41" y="-119" font-family="Helvetica,sans-Serif" font-size="10.00">/github/readium&#45;sdk&#45;D/ePub3</text>
<text text-anchor="middle" x="1479" y="-107" font-family="Helvetica,sans-Serif" font-size="10.00">/ePub/media&#45;overlays_smil_model.h</text>
</a>
</g>
</g>
<!-- Node2&#45;&gt;Node10 -->
<g id="edge9" class="edge"><title>Node2&#45;&gt;Node10</title>
<path fill="none" stroke="midnightblue" d="M1821.91,-197.739C1755.32,-187.329 1659.67,-171.067 1577,-152 1568.03,-149.932 1558.67,-147.549 1549.43,-145.064"/>
<polygon fill="midnightblue" stroke="midnightblue" points="1821.52,-201.219 1831.93,-199.296 1822.59,-194.302 1821.52,-201.219"/>
</g>
<!-- Node11 -->
<g id="node11" class="node"><title>Node11</title>
<g id="a_node11"><a xlink:href="media-overlays__smil__model_8cpp.xhtml" target="_top" xlink:title="/Users/rkwright/Documents\l/github/readium&#45;sdk&#45;D/ePub3\l/ePub/media&#45;overlays_smil\l_model.cpp">
<polygon fill="white" stroke="black" points="1346.97,-1 1346.97,-57 1493.03,-57 1493.03,-1 1346.97,-1"/>
<text text-anchor="start" x="1354.97" y="-43" font-family="Helvetica,sans-Serif" font-size="10.00">/Users/rkwright/Documents</text>
<text text-anchor="start" x="1354.97" y="-31" font-family="Helvetica,sans-Serif" font-size="10.00">/github/readium&#45;sdk&#45;D/ePub3</text>
<text text-anchor="start" x="1354.97" y="-19" font-family="Helvetica,sans-Serif" font-size="10.00">/ePub/media&#45;overlays_smil</text>
<text text-anchor="middle" x="1420" y="-7" font-family="Helvetica,sans-Serif" font-size="10.00">_model.cpp</text>
</a>
</g>
</g>
<!-- Node2&#45;&gt;Node11 -->
<g id="edge12" class="edge"><title>Node2&#45;&gt;Node11</title>
<path fill="none" stroke="midnightblue" d="M1821.54,-206.759C1681.07,-200.439 1409.81,-184.18 1381,-152 1357.19,-125.412 1378.57,-84.2081 1397.83,-57.1664"/>
<polygon fill="midnightblue" stroke="midnightblue" points="1821.69,-210.269 1831.83,-207.215 1822,-203.276 1821.69,-210.269"/>
</g>
<!-- Node13 -->
<g id="node13" class="node"><title>Node13</title>
<g id="a_node13"><a xlink:href="media__support__info_8cpp.xhtml" target="_top" xlink:title="/Users/rkwright/Documents\l/github/readium&#45;sdk&#45;D/ePub3\l/ePub/media_support_info.cpp">
<polygon fill="white" stroke="black" points="690.175,-101 690.175,-145 841.825,-145 841.825,-101 690.175,-101"/>
<text text-anchor="start" x="698.175" y="-131" font-family="Helvetica,sans-Serif" font-size="10.00">/Users/rkwright/Documents</text>
<text text-anchor="start" x="698.175" y="-119" font-family="Helvetica,sans-Serif" font-size="10.00">/github/readium&#45;sdk&#45;D/ePub3</text>
<text text-anchor="middle" x="766" y="-107" font-family="Helvetica,sans-Serif" font-size="10.00">/ePub/media_support_info.cpp</text>
</a>
</g>
</g>
<!-- Node2&#45;&gt;Node13 -->
<g id="edge13" class="edge"><title>Node2&#45;&gt;Node13</title>
<path fill="none" stroke="midnightblue" d="M1821.32,-208.234C1605.95,-203.235 1036.49,-187.018 851,-152 841.84,-150.271 832.304,-147.814 823.072,-145.065"/>
<polygon fill="midnightblue" stroke="midnightblue" points="1821.53,-211.74 1831.61,-208.471 1821.69,-204.742 1821.53,-211.74"/>
</g>
<!-- Node14 -->
<g id="node14" class="node"><title>Node14</title>
<g id="a_node14"><a xlink:href="nav__point_8cpp.xhtml" target="_top" xlink:title="/Users/rkwright/Documents\l/github/readium&#45;sdk&#45;D/ePub3\l/ePub/nav_point.cpp">
<polygon fill="white" stroke="black" points="1585.97,-101 1585.97,-145 1732.03,-145 1732.03,-101 1585.97,-101"/>
<text text-anchor="start" x="1593.97" y="-131" font-family="Helvetica,sans-Serif" font-size="10.00">/Users/rkwright/Documents</text>
<text text-anchor="start" x="1593.97" y="-119" font-family="Helvetica,sans-Serif" font-size="10.00">/github/readium&#45;sdk&#45;D/ePub3</text>
<text text-anchor="middle" x="1659" y="-107" font-family="Helvetica,sans-Serif" font-size="10.00">/ePub/nav_point.cpp</text>
</a>
</g>
</g>
<!-- Node2&#45;&gt;Node14 -->
<g id="edge14" class="edge"><title>Node2&#45;&gt;Node14</title>
<path fill="none" stroke="midnightblue" d="M1835.23,-185.609C1798.71,-172.843 1754.44,-157.367 1719.41,-145.119"/>
<polygon fill="midnightblue" stroke="midnightblue" points="1834.23,-188.966 1844.82,-188.962 1836.54,-182.358 1834.23,-188.966"/>
</g>
<!-- Node15 -->
<g id="node15" class="node"><title>Node15</title>
<g id="a_node15"><a xlink:href="nav__table_8cpp.xhtml" target="_top" xlink:title="/Users/rkwright/Documents\l/github/readium&#45;sdk&#45;D/ePub3\l/ePub/nav_table.cpp">
<polygon fill="white" stroke="black" points="1749.97,-101 1749.97,-145 1896.03,-145 1896.03,-101 1749.97,-101"/>
<text text-anchor="start" x="1757.97" y="-131" font-family="Helvetica,sans-Serif" font-size="10.00">/Users/rkwright/Documents</text>
<text text-anchor="start" x="1757.97" y="-119" font-family="Helvetica,sans-Serif" font-size="10.00">/github/readium&#45;sdk&#45;D/ePub3</text>
<text text-anchor="middle" x="1823" y="-107" font-family="Helvetica,sans-Serif" font-size="10.00">/ePub/nav_table.cpp</text>
</a>
</g>
</g>
<!-- Node2&#45;&gt;Node15 -->
<g id="edge15" class="edge"><title>Node2&#45;&gt;Node15</title>
<path fill="none" stroke="midnightblue" d="M1877.57,-181.233C1866.27,-169.385 1853.43,-155.911 1843.04,-145.014"/>
<polygon fill="midnightblue" stroke="midnightblue" points="1875.3,-183.919 1884.73,-188.742 1880.36,-179.089 1875.3,-183.919"/>
</g>
<!-- Node16 -->
<g id="node16" class="node"><title>Node16</title>
<g id="a_node16"><a xlink:href="object__preprocessor_8cpp.xhtml" target="_top" xlink:title="/Users/rkwright/Documents\l/github/readium&#45;sdk&#45;D/ePub3\l/ePub/object_preprocessor.cpp">
<polygon fill="white" stroke="black" points="2946.06,-101 2946.06,-145 3099.94,-145 3099.94,-101 2946.06,-101"/>
<text text-anchor="start" x="2954.06" y="-131" font-family="Helvetica,sans-Serif" font-size="10.00">/Users/rkwright/Documents</text>
<text text-anchor="start" x="2954.06" y="-119" font-family="Helvetica,sans-Serif" font-size="10.00">/github/readium&#45;sdk&#45;D/ePub3</text>
<text text-anchor="middle" x="3023" y="-107" font-family="Helvetica,sans-Serif" font-size="10.00">/ePub/object_preprocessor.cpp</text>
</a>
</g>
</g>
<!-- Node2&#45;&gt;Node16 -->
<g id="edge16" class="edge"><title>Node2&#45;&gt;Node16</title>
<path fill="none" stroke="midnightblue" d="M1988.39,-207.891C2199.57,-202.134 2751.49,-184.374 2932,-152 2941.76,-150.249 2951.95,-147.781 2961.82,-145.028"/>
<polygon fill="midnightblue" stroke="midnightblue" points="1988.19,-204.395 1978.29,-208.165 1988.38,-211.393 1988.19,-204.395"/>
</g>
<!-- Node2&#45;&gt;Node12 -->
<g id="edge17" class="edge"><title>Node2&#45;&gt;Node12</title>
<path fill="none" stroke="midnightblue" d="M1988.53,-207.957C2221.83,-201.878 2865.51,-182.417 2899,-152 2926.77,-126.781 2925.45,-79.0303 2921.84,-51.338"/>
<polygon fill="midnightblue" stroke="midnightblue" points="1988.31,-204.461 1978.4,-208.219 1988.49,-211.459 1988.31,-204.461"/>
</g>
<!-- Node17 -->
<g id="node17" class="node"><title>Node17</title>
<g id="a_node17"><a xlink:href="_pass_through_filter_8cpp.xhtml" target="_top" xlink:title="/Users/rkwright/Documents\l/github/readium&#45;sdk&#45;D/ePub3\l/ePub/PassThroughFilter.cpp">
<polygon fill="white" stroke="black" points="1913.97,-101 1913.97,-145 2060.03,-145 2060.03,-101 1913.97,-101"/>
<text text-anchor="start" x="1921.97" y="-131" font-family="Helvetica,sans-Serif" font-size="10.00">/Users/rkwright/Documents</text>
<text text-anchor="start" x="1921.97" y="-119" font-family="Helvetica,sans-Serif" font-size="10.00">/github/readium&#45;sdk&#45;D/ePub3</text>
<text text-anchor="middle" x="1987" y="-107" font-family="Helvetica,sans-Serif" font-size="10.00">/ePub/PassThroughFilter.cpp</text>
</a>
</g>
</g>
<!-- Node2&#45;&gt;Node17 -->
<g id="edge18" class="edge"><title>Node2&#45;&gt;Node17</title>
<path fill="none" stroke="midnightblue" d="M1932.43,-181.233C1943.73,-169.385 1956.57,-155.911 1966.96,-145.014"/>
<polygon fill="midnightblue" stroke="midnightblue" points="1929.64,-179.089 1925.27,-188.742 1934.7,-183.919 1929.64,-179.089"/>
</g>
<!-- Node18 -->
<g id="node18" class="node"><title>Node18</title>
<g id="a_node18"><a xlink:href="spine_8cpp.xhtml" target="_top" xlink:title="/Users/rkwright/Documents\l/github/readium&#45;sdk&#45;D/ePub3\l/ePub/spine.cpp">
<polygon fill="white" stroke="black" points="2077.97,-101 2077.97,-145 2224.03,-145 2224.03,-101 2077.97,-101"/>
<text text-anchor="start" x="2085.97" y="-131" font-family="Helvetica,sans-Serif" font-size="10.00">/Users/rkwright/Documents</text>
<text text-anchor="start" x="2085.97" y="-119" font-family="Helvetica,sans-Serif" font-size="10.00">/github/readium&#45;sdk&#45;D/ePub3</text>
<text text-anchor="middle" x="2151" y="-107" font-family="Helvetica,sans-Serif" font-size="10.00">/ePub/spine.cpp</text>
</a>
</g>
</g>
<!-- Node2&#45;&gt;Node18 -->
<g id="edge19" class="edge"><title>Node2&#45;&gt;Node18</title>
<path fill="none" stroke="midnightblue" d="M1974.77,-185.609C2011.29,-172.843 2055.56,-157.367 2090.59,-145.119"/>
<polygon fill="midnightblue" stroke="midnightblue" points="1973.46,-182.358 1965.18,-188.962 1975.77,-188.966 1973.46,-182.358"/>
</g>
<!-- Node19 -->
<g id="node19" class="node"><title>Node19</title>
<g id="a_node19"><a xlink:href="switch__preprocessor_8cpp.xhtml" target="_top" xlink:title="/Users/rkwright/Documents\l/github/readium&#45;sdk&#45;D/ePub3\l/ePub/switch_preprocessor.cpp">
<polygon fill="white" stroke="black" points="2242.52,-101 2242.52,-145 2397.48,-145 2397.48,-101 2242.52,-101"/>
<text text-anchor="start" x="2250.52" y="-131" font-family="Helvetica,sans-Serif" font-size="10.00">/Users/rkwright/Documents</text>
<text text-anchor="start" x="2250.52" y="-119" font-family="Helvetica,sans-Serif" font-size="10.00">/github/readium&#45;sdk&#45;D/ePub3</text>
<text text-anchor="middle" x="2320" y="-107" font-family="Helvetica,sans-Serif" font-size="10.00">/ePub/switch_preprocessor.cpp</text>
</a>
</g>
</g>
<!-- Node2&#45;&gt;Node19 -->
<g id="edge20" class="edge"><title>Node2&#45;&gt;Node19</title>
<path fill="none" stroke="midnightblue" d="M1988.26,-198.485C2054.96,-188.494 2150.65,-172.431 2233,-152 2241.16,-149.975 2249.67,-147.588 2258.04,-145.076"/>
<polygon fill="midnightblue" stroke="midnightblue" points="1987.61,-195.045 1978.23,-199.976 1988.63,-201.969 1987.61,-195.045"/>
</g>
<!-- Node10&#45;&gt;Node11 -->
<g id="edge10" class="edge"><title>Node10&#45;&gt;Node11</title>
<path fill="none" stroke="midnightblue" d="M1459.78,-92.0324C1452.58,-80.8069 1444.45,-68.1255 1437.42,-57.1675"/>
<polygon fill="midnightblue" stroke="midnightblue" points="1456.97,-94.1338 1465.32,-100.662 1462.86,-90.3549 1456.97,-94.1338"/>
</g>
<!-- Node10&#45;&gt;Node12 -->
<g id="edge11" class="edge"><title>Node10&#45;&gt;Node12</title>
<path fill="none" stroke="midnightblue" d="M1554.54,-98.5503C1562.08,-96.7749 1569.66,-95.2079 1577,-94 1824.24,-53.341 2602.05,-35.8348 2844.85,-31.2703"/>
<polygon fill="midnightblue" stroke="midnightblue" points="1553.55,-95.1903 1544.69,-100.992 1555.23,-101.985 1553.55,-95.1903"/>
</g>
<!-- Node20&#45;&gt;Node4 -->
<g id="edge22" class="edge"><title>Node20&#45;&gt;Node4</title>
<path fill="none" stroke="midnightblue" d="M315.087,-192.257C267.879,-181.645 207.802,-167.279 155,-152 147.63,-149.867 139.943,-147.473 132.356,-145.006"/>
<polygon fill="midnightblue" stroke="midnightblue" points="314.436,-195.698 324.959,-194.464 315.963,-188.866 314.436,-195.698"/>
</g>
<!-- Node22 -->
<g id="node22" class="node"><title>Node22</title>
<g id="a_node22"><a xlink:href="content__module__manager_8cpp.xhtml" target="_top" xlink:title="/Users/rkwright/Documents\l/github/readium&#45;sdk&#45;D/ePub3\l/ePub/content_module_manager.cpp">
<polygon fill="white" stroke="black" points="3156.27,-101 3156.27,-145 3335.73,-145 3335.73,-101 3156.27,-101"/>
<text text-anchor="start" x="3164.27" y="-131" font-family="Helvetica,sans-Serif" font-size="10.00">/Users/rkwright/Documents</text>
<text text-anchor="start" x="3164.27" y="-119" font-family="Helvetica,sans-Serif" font-size="10.00">/github/readium&#45;sdk&#45;D/ePub3</text>
<text text-anchor="middle" x="3246" y="-107" font-family="Helvetica,sans-Serif" font-size="10.00">/ePub/content_module_manager.cpp</text>
</a>
</g>
</g>
<!-- Node21&#45;&gt;Node22 -->
<g id="edge25" class="edge"><title>Node21&#45;&gt;Node22</title>
<path fill="none" stroke="midnightblue" d="M3234.52,-178.843C3236.87,-167.6 3239.47,-155.184 3241.6,-145.014"/>
<polygon fill="midnightblue" stroke="midnightblue" points="3231.07,-178.237 3232.45,-188.742 3237.92,-179.671 3231.07,-178.237"/>
</g>
<!-- Node24 -->
<g id="node24" class="node"><title>Node24</title>
<g id="a_node24"><a xlink:href="filter__chain_8cpp.xhtml" target="_top" xlink:title="/Users/rkwright/Documents\l/github/readium&#45;sdk&#45;D/ePub3\l/ePub/filter_chain.cpp">
<polygon fill="white" stroke="black" points="163.966,-101 163.966,-145 310.034,-145 310.034,-101 163.966,-101"/>
<text text-anchor="start" x="171.966" y="-131" font-family="Helvetica,sans-Serif" font-size="10.00">/Users/rkwright/Documents</text>
<text text-anchor="start" x="171.966" y="-119" font-family="Helvetica,sans-Serif" font-size="10.00">/github/readium&#45;sdk&#45;D/ePub3</text>
<text text-anchor="middle" x="237" y="-107" font-family="Helvetica,sans-Serif" font-size="10.00">/ePub/filter_chain.cpp</text>
</a>
</g>
</g>
<!-- Node23&#45;&gt;Node24 -->
<g id="edge27" class="edge"><title>Node23&#45;&gt;Node24</title>
<path fill="none" stroke="midnightblue" d="M775.595,-206.782C668.705,-201.354 478.187,-187.267 319,-152 310.628,-150.145 301.92,-147.728 293.439,-145.092"/>
<polygon fill="midnightblue" stroke="midnightblue" points="775.513,-210.282 785.674,-207.281 775.859,-203.291 775.513,-210.282"/>
</g>
<!-- Node25 -->
<g id="node25" class="node"><title>Node25</title>
<g id="a_node25"><a xlink:href="filter__chain__byte__stream_8cpp.xhtml" target="_top" xlink:title="/Users/rkwright/Documents\l/github/readium&#45;sdk&#45;D/ePub3\l/ePub/filter_chain_byte_stream.cpp">
<polygon fill="white" stroke="black" points="327.621,-101 327.621,-145 500.379,-145 500.379,-101 327.621,-101"/>
<text text-anchor="start" x="335.621" y="-131" font-family="Helvetica,sans-Serif" font-size="10.00">/Users/rkwright/Documents</text>
<text text-anchor="start" x="335.621" y="-119" font-family="Helvetica,sans-Serif" font-size="10.00">/github/readium&#45;sdk&#45;D/ePub3</text>
<text text-anchor="middle" x="414" y="-107" font-family="Helvetica,sans-Serif" font-size="10.00">/ePub/filter_chain_byte_stream.cpp</text>
</a>
</g>
</g>
<!-- Node23&#45;&gt;Node25 -->
<g id="edge28" class="edge"><title>Node23&#45;&gt;Node25</title>
<path fill="none" stroke="midnightblue" d="M775.496,-199.095C704.233,-189.091 599.265,-172.699 509,-152 500.117,-149.963 490.841,-147.569 481.714,-145.054"/>
<polygon fill="midnightblue" stroke="midnightblue" points="775.373,-202.612 785.76,-200.525 776.339,-195.679 775.373,-202.612"/>
</g>
<!-- Node26 -->
<g id="node26" class="node"><title>Node26</title>
<g id="a_node26"><a xlink:href="filter__chain__byte__stream__range_8cpp.xhtml" target="_top" xlink:title="/Users/rkwright/Documents\l/github/readium&#45;sdk&#45;D/ePub3\l/ePub/filter_chain_byte_stream\l_range.cpp">
<polygon fill="white" stroke="black" points="518.072,-95 518.072,-151 671.928,-151 671.928,-95 518.072,-95"/>
<text text-anchor="start" x="526.072" y="-137" font-family="Helvetica,sans-Serif" font-size="10.00">/Users/rkwright/Documents</text>
<text text-anchor="start" x="526.072" y="-125" font-family="Helvetica,sans-Serif" font-size="10.00">/github/readium&#45;sdk&#45;D/ePub3</text>
<text text-anchor="start" x="526.072" y="-113" font-family="Helvetica,sans-Serif" font-size="10.00">/ePub/filter_chain_byte_stream</text>
<text text-anchor="middle" x="595" y="-101" font-family="Helvetica,sans-Serif" font-size="10.00">_range.cpp</text>
</a>
</g>
</g>
<!-- Node23&#45;&gt;Node26 -->
<g id="edge29" class="edge"><title>Node23&#45;&gt;Node26</title>
<path fill="none" stroke="midnightblue" d="M784.692,-185.794C749.53,-174.339 707.568,-160.67 672.061,-149.103"/>
<polygon fill="midnightblue" stroke="midnightblue" points="783.826,-189.192 794.418,-188.962 785.994,-182.537 783.826,-189.192"/>
</g>
<!-- Node23&#45;&gt;Node7 -->
<g id="edge30" class="edge"><title>Node23&#45;&gt;Node7</title>
<path fill="none" stroke="midnightblue" d="M884.044,-180.894C894.169,-169.128 905.631,-155.807 914.918,-145.014"/>
<polygon fill="midnightblue" stroke="midnightblue" points="881.162,-178.879 877.292,-188.742 886.468,-183.444 881.162,-178.879"/>
</g>
<!-- Node23&#45;&gt;Node8 -->
<g id="edge31" class="edge"><title>Node23&#45;&gt;Node8</title>
<path fill="none" stroke="midnightblue" d="M926.952,-185.446C962.193,-172.712 1004.8,-157.315 1038.55,-145.119"/>
<polygon fill="midnightblue" stroke="midnightblue" points="925.437,-182.272 917.221,-188.962 927.816,-188.855 925.437,-182.272"/>
</g>
<!-- Node23&#45;&gt;Node9 -->
<g id="edge32" class="edge"><title>Node23&#45;&gt;Node9</title>
<path fill="none" stroke="midnightblue" d="M942.312,-198.401C1007.33,-188.509 1099.64,-172.618 1179,-152 1186.72,-149.995 1194.75,-147.62 1202.65,-145.115"/>
<polygon fill="midnightblue" stroke="midnightblue" points="941.484,-194.986 932.117,-199.937 942.527,-201.908 941.484,-194.986"/>
</g>
<!-- Node23&#45;&gt;Node13 -->
<g id="edge33" class="edge"><title>Node23&#45;&gt;Node13</title>
<path fill="none" stroke="midnightblue" d="M828.622,-181.909C815.635,-169.899 800.733,-156.118 788.724,-145.014"/>
<polygon fill="midnightblue" stroke="midnightblue" points="826.293,-184.522 836.011,-188.742 831.046,-179.382 826.293,-184.522"/>
</g>
<!-- Node27&#45;&gt;Node16 -->
<g id="edge35" class="edge"><title>Node27&#45;&gt;Node16</title>
<path fill="none" stroke="midnightblue" d="M3023.63,-178.499C3023.5,-167.346 3023.36,-155.081 3023.24,-145.014"/>
<polygon fill="midnightblue" stroke="midnightblue" points="3020.14,-178.783 3023.75,-188.742 3027.14,-178.702 3020.14,-178.783"/>
</g>
<!-- Node30 -->
<g id="node30" class="node"><title>Node30</title>
<g id="a_node30"><a xlink:href="property__extension_8cpp.xhtml" target="_top" xlink:title="/Users/rkwright/Documents\l/github/readium&#45;sdk&#45;D/ePub3\l/ePub/property_extension.cpp">
<polygon fill="white" stroke="black" points="3563.57,-101 3563.57,-145 3712.43,-145 3712.43,-101 3563.57,-101"/>
<text text-anchor="start" x="3571.57" y="-131" font-family="Helvetica,sans-Serif" font-size="10.00">/Users/rkwright/Documents</text>
<text text-anchor="start" x="3571.57" y="-119" font-family="Helvetica,sans-Serif" font-size="10.00">/github/readium&#45;sdk&#45;D/ePub3</text>
<text text-anchor="middle" x="3638" y="-107" font-family="Helvetica,sans-Serif" font-size="10.00">/ePub/property_extension.cpp</text>
</a>
</g>
</g>
<!-- Node29&#45;&gt;Node30 -->
<g id="edge39" class="edge"><title>Node29&#45;&gt;Node30</title>
<path fill="none" stroke="midnightblue" d="M3583.43,-181.233C3594.73,-169.385 3607.57,-155.911 3617.96,-145.014"/>
<polygon fill="midnightblue" stroke="midnightblue" points="3580.64,-179.089 3576.27,-188.742 3585.7,-183.919 3580.64,-179.089"/>
</g>
<!-- Node31&#45;&gt;Node30 -->
<g id="edge41" class="edge"><title>Node31&#45;&gt;Node30</title>
<path fill="none" stroke="midnightblue" d="M3692.57,-181.233C3681.27,-169.385 3668.43,-155.911 3658.04,-145.014"/>
<polygon fill="midnightblue" stroke="midnightblue" points="3690.3,-183.919 3699.73,-188.742 3695.36,-179.089 3690.3,-183.919"/>
</g>
</g>
</svg>
