<?xml version="1.0" encoding="UTF-8" standalone="no"?>
<!DOCTYPE svg PUBLIC "-//W3C//DTD SVG 1.1//EN"
 "http://www.w3.org/Graphics/SVG/1.1/DTD/svg11.dtd">
<!-- Generated by graphviz version 2.30.0 (20130114.0426)
 -->
<!-- Title: /Users/rkwright/Documents/github/readium&#45;sdk&#45;D/ePub3/ePub/library.h Pages: 1 -->
<svg width="1820pt" height="612pt"
 viewBox="0.00 0.00 1820.00 612.00" xmlns="http://www.w3.org/2000/svg" xmlns:xlink="http://www.w3.org/1999/xlink">
<g id="graph0" class="graph" transform="scale(1 1) rotate(0) translate(4 608)">
<title>/Users/rkwright/Documents/github/readium&#45;sdk&#45;D/ePub3/ePub/library.h</title>
<polygon fill="white" stroke="white" points="-4,5 -4,-608 1817,-608 1817,5 -4,5"/>
<!-- Node1 -->
<g id="node1" class="node"><title>Node1</title>
<polygon fill="#bfbfbf" stroke="black" points="1418.97,-559 1418.97,-603 1565.03,-603 1565.03,-559 1418.97,-559"/>
<text text-anchor="start" x="1426.97" y="-589" font-family="Helvetica,sans-Serif" font-size="10.00">/Users/rkwright/Documents</text>
<text text-anchor="start" x="1426.97" y="-577" font-family="Helvetica,sans-Serif" font-size="10.00">/github/readium&#45;sdk&#45;D/ePub3</text>
<text text-anchor="middle" x="1492" y="-565" font-family="Helvetica,sans-Serif" font-size="10.00">/ePub/library.h</text>
</g>
<!-- Node2 -->
<g id="node2" class="node"><title>Node2</title>
<polygon fill="white" stroke="#bfbfbf" points="1342.08,-361 1342.08,-381 1425.92,-381 1425.92,-361 1342.08,-361"/>
<text text-anchor="middle" x="1384" y="-367" font-family="Helvetica,sans-Serif" font-size="10.00">ePub3/epub3.h</text>
</g>
<!-- Node1&#45;&gt;Node2 -->
<g id="edge1" class="edge"><title>Node1&#45;&gt;Node2</title>
<path fill="none" stroke="midnightblue" d="M1488.06,-558.805C1481.29,-526.335 1465.16,-463.286 1435,-418 1427.15,-406.216 1415.61,-395.466 1405.49,-387.327"/>
<polygon fill="midnightblue" stroke="midnightblue" points="1407.5,-384.457 1397.44,-381.139 1403.23,-390.007 1407.5,-384.457"/>
</g>
<!-- Node3 -->
<g id="node3" class="node"><title>Node3</title>
<polygon fill="white" stroke="#bfbfbf" points="1519.69,-495 1519.69,-515 1616.31,-515 1616.31,-495 1519.69,-495"/>
<text text-anchor="middle" x="1568" y="-501" font-family="Helvetica,sans-Serif" font-size="10.00">ePub3/container.h</text>
</g>
<!-- Node1&#45;&gt;Node3 -->
<g id="edge2" class="edge"><title>Node1&#45;&gt;Node3</title>
<path fill="none" stroke="midnightblue" d="M1513.58,-558.993C1525.58,-547.302 1540.3,-532.974 1551.4,-522.165"/>
<polygon fill="midnightblue" stroke="midnightblue" points="1554.03,-524.488 1558.75,-515.004 1549.15,-519.473 1554.03,-524.488"/>
</g>
<!-- Node4 -->
<g id="node4" class="node"><title>Node4</title>
<polygon fill="white" stroke="#bfbfbf" points="1634.08,-495 1634.08,-515 1727.92,-515 1727.92,-495 1634.08,-495"/>
<text text-anchor="middle" x="1681" y="-501" font-family="Helvetica,sans-Serif" font-size="10.00">ePub3/package.h</text>
</g>
<!-- Node1&#45;&gt;Node4 -->
<g id="edge3" class="edge"><title>Node1&#45;&gt;Node4</title>
<path fill="none" stroke="midnightblue" d="M1545.65,-558.993C1578.85,-545.997 1620.36,-529.741 1648.6,-518.685"/>
<polygon fill="midnightblue" stroke="midnightblue" points="1649.97,-521.909 1658,-515.004 1647.41,-515.391 1649.97,-521.909"/>
</g>
<!-- Node5 -->
<g id="node5" class="node"><title>Node5</title>
<polygon fill="white" stroke="#bfbfbf" points="1745.98,-495 1745.98,-515 1812.02,-515 1812.02,-495 1745.98,-495"/>
<text text-anchor="middle" x="1779" y="-501" font-family="Helvetica,sans-Serif" font-size="10.00">ePub3/cfi.h</text>
</g>
<!-- Node1&#45;&gt;Node5 -->
<g id="edge4" class="edge"><title>Node1&#45;&gt;Node5</title>
<path fill="none" stroke="midnightblue" d="M1565.23,-565.056C1614.02,-554.499 1679.34,-539.205 1736,-522 1739.38,-520.974 1742.88,-519.823 1746.35,-518.622"/>
<polygon fill="midnightblue" stroke="midnightblue" points="1747.74,-521.841 1755.97,-515.163 1745.37,-515.255 1747.74,-521.841"/>
</g>
<!-- Node6 -->
<g id="node6" class="node"><title>Node6</title>
<g id="a_node6"><a xlink:href="utfstring_8h.xhtml" target="_top" xlink:title="ePub3/utilities/utfstring.h">
<polygon fill="white" stroke="black" points="434.525,-361 434.525,-381 559.475,-381 559.475,-361 434.525,-361"/>
<text text-anchor="middle" x="497" y="-367" font-family="Helvetica,sans-Serif" font-size="10.00">ePub3/utilities/utfstring.h</text>
</a>
</g>
</g>
<!-- Node1&#45;&gt;Node6 -->
<g id="edge5" class="edge"><title>Node1&#45;&gt;Node6</title>
<path fill="none" stroke="midnightblue" d="M1418.84,-571.828C1281.96,-555.636 978.437,-515.462 729,-452 655.874,-433.395 572.889,-402.244 528.686,-384.81"/>
<polygon fill="midnightblue" stroke="midnightblue" points="529.929,-381.538 519.344,-381.101 527.347,-388.044 529.929,-381.538"/>
</g>
<!-- Node32 -->
<g id="node32" class="node"><title>Node32</title>
<g id="a_node32"><a xlink:href="byte__stream_8h.xhtml" target="_top" xlink:title="ePub3/utilities/byte\l_stream.h">
<polygon fill="white" stroke="black" points="1156.03,-489 1156.03,-521 1255.97,-521 1255.97,-489 1156.03,-489"/>
<text text-anchor="start" x="1164.03" y="-507" font-family="Helvetica,sans-Serif" font-size="10.00">ePub3/utilities/byte</text>
<text text-anchor="middle" x="1206" y="-495" font-family="Helvetica,sans-Serif" font-size="10.00">_stream.h</text>
</a>
</g>
</g>
<!-- Node1&#45;&gt;Node32 -->
<g id="edge37" class="edge"><title>Node1&#45;&gt;Node32</title>
<path fill="none" stroke="midnightblue" d="M1418.72,-561.039C1371.33,-548.777 1310.41,-533.016 1265.92,-521.504"/>
<polygon fill="midnightblue" stroke="midnightblue" points="1266.68,-518.085 1256.12,-518.969 1264.93,-524.862 1266.68,-518.085"/>
</g>
<!-- Node29 -->
<g id="node29" class="node"><title>Node29</title>
<polygon fill="white" stroke="#bfbfbf" points="-0.726562,-297 -0.726562,-317 34.7266,-317 34.7266,-297 -0.726562,-297"/>
<text text-anchor="middle" x="17" y="-303" font-family="Helvetica,sans-Serif" font-size="10.00">map</text>
</g>
<!-- Node1&#45;&gt;Node29 -->
<g id="edge66" class="edge"><title>Node1&#45;&gt;Node29</title>
<path fill="none" stroke="midnightblue" d="M1418.6,-576.149C1304.51,-569.444 1077.96,-553.257 888,-522 507.817,-459.444 401.424,-467.877 44,-324 42.5784,-323.428 41.1433,-322.788 39.7147,-322.103"/>
<polygon fill="midnightblue" stroke="midnightblue" points="41.0544,-318.847 30.5968,-317.148 37.7121,-324.998 41.0544,-318.847"/>
</g>
<!-- Node7 -->
<g id="node7" class="node"><title>Node7</title>
<g id="a_node7"><a xlink:href="basic_8h.xhtml" target="_top" xlink:title="ePub3/utilities/basic.h">
<polygon fill="white" stroke="black" points="928.638,-297 928.638,-317 1041.36,-317 1041.36,-297 928.638,-297"/>
<text text-anchor="middle" x="985" y="-303" font-family="Helvetica,sans-Serif" font-size="10.00">ePub3/utilities/basic.h</text>
</a>
</g>
</g>
<!-- Node6&#45;&gt;Node7 -->
<g id="edge6" class="edge"><title>Node6&#45;&gt;Node7</title>
<path fill="none" stroke="midnightblue" d="M559.798,-362.022C652.193,-350.283 824.003,-328.455 918.479,-316.451"/>
<polygon fill="midnightblue" stroke="midnightblue" points="919.012,-319.912 928.491,-315.179 918.13,-312.968 919.012,-319.912"/>
</g>
<!-- Node18 -->
<g id="node18" class="node"><title>Node18</title>
<g id="a_node18"><a xlink:href="integer__sequence_8h.xhtml" target="_top" xlink:title="ePub3/utilities/integer\l_sequence.h">
<polygon fill="white" stroke="black" points="691.192,-291 691.192,-323 802.808,-323 802.808,-291 691.192,-291"/>
<text text-anchor="start" x="699.192" y="-309" font-family="Helvetica,sans-Serif" font-size="10.00">ePub3/utilities/integer</text>
<text text-anchor="middle" x="747" y="-297" font-family="Helvetica,sans-Serif" font-size="10.00">_sequence.h</text>
</a>
</g>
</g>
<!-- Node6&#45;&gt;Node18 -->
<g id="edge17" class="edge"><title>Node6&#45;&gt;Node18</title>
<path fill="none" stroke="midnightblue" d="M533.352,-360.985C571.913,-351.421 633.664,-336.107 680.884,-324.397"/>
<polygon fill="midnightblue" stroke="midnightblue" points="681.862,-327.76 690.726,-321.956 680.177,-320.966 681.862,-327.76"/>
</g>
<!-- Node19 -->
<g id="node19" class="node"><title>Node19</title>
<g id="a_node19"><a xlink:href="string__view_8h.xhtml" target="_top" xlink:title="ePub3/utilities/string\l_view.h">
<polygon fill="white" stroke="black" points="403.254,-291 403.254,-323 508.746,-323 508.746,-291 403.254,-291"/>
<text text-anchor="start" x="411.254" y="-309" font-family="Helvetica,sans-Serif" font-size="10.00">ePub3/utilities/string</text>
<text text-anchor="middle" x="456" y="-297" font-family="Helvetica,sans-Serif" font-size="10.00">_view.h</text>
</a>
</g>
</g>
<!-- Node6&#45;&gt;Node19 -->
<g id="edge19" class="edge"><title>Node6&#45;&gt;Node19</title>
<path fill="none" stroke="midnightblue" d="M490.95,-360.852C485.92,-353.244 478.527,-342.065 471.834,-331.945"/>
<polygon fill="midnightblue" stroke="midnightblue" points="474.646,-329.851 466.211,-323.44 468.807,-333.712 474.646,-329.851"/>
</g>
<!-- Node21 -->
<g id="node21" class="node"><title>Node21</title>
<polygon fill="white" stroke="#bfbfbf" points="314.773,-233 314.773,-253 355.227,-253 355.227,-233 314.773,-233"/>
<text text-anchor="middle" x="335" y="-239" font-family="Helvetica,sans-Serif" font-size="10.00">string</text>
</g>
<!-- Node6&#45;&gt;Node21 -->
<g id="edge28" class="edge"><title>Node6&#45;&gt;Node21</title>
<path fill="none" stroke="midnightblue" d="M456.8,-360.943C432.974,-353.978 403.361,-342.363 382,-324 362.599,-307.322 349.18,-280.545 341.788,-262.62"/>
<polygon fill="midnightblue" stroke="midnightblue" points="345.023,-261.281 338.133,-253.232 338.5,-263.82 345.023,-261.281"/>
</g>
<!-- Node26 -->
<g id="node26" class="node"><title>Node26</title>
<polygon fill="white" stroke="#bfbfbf" points="565.438,-297 565.438,-317 612.562,-317 612.562,-297 565.438,-297"/>
<text text-anchor="middle" x="589" y="-303" font-family="Helvetica,sans-Serif" font-size="10.00">iterator</text>
</g>
<!-- Node6&#45;&gt;Node26 -->
<g id="edge29" class="edge"><title>Node6&#45;&gt;Node26</title>
<path fill="none" stroke="midnightblue" d="M510.575,-360.852C525.387,-350.87 549.326,-334.737 566.864,-322.918"/>
<polygon fill="midnightblue" stroke="midnightblue" points="569.033,-325.677 575.369,-317.186 565.121,-319.872 569.033,-325.677"/>
</g>
<!-- Node27 -->
<g id="node27" class="node"><title>Node27</title>
<polygon fill="white" stroke="#bfbfbf" points="630.936,-297 630.936,-317 673.064,-317 673.064,-297 630.936,-297"/>
<text text-anchor="middle" x="652" y="-303" font-family="Helvetica,sans-Serif" font-size="10.00">locale</text>
</g>
<!-- Node6&#45;&gt;Node27 -->
<g id="edge30" class="edge"><title>Node6&#45;&gt;Node27</title>
<path fill="none" stroke="midnightblue" d="M524.471,-360.883C549.853,-352.208 588.443,-338.377 621,-324 622.787,-323.211 624.615,-322.367 626.447,-321.494"/>
<polygon fill="midnightblue" stroke="midnightblue" points="628.056,-324.603 635.448,-317.013 624.936,-318.336 628.056,-324.603"/>
</g>
<!-- Node16 -->
<g id="node16" class="node"><title>Node16</title>
<polygon fill="white" stroke="#bfbfbf" points="859.384,-233 859.384,-253 902.616,-253 902.616,-233 859.384,-233"/>
<text text-anchor="middle" x="881" y="-239" font-family="Helvetica,sans-Serif" font-size="10.00">vector</text>
</g>
<!-- Node6&#45;&gt;Node16 -->
<g id="edge31" class="edge"><title>Node6&#45;&gt;Node16</title>
<path fill="none" stroke="midnightblue" d="M500.763,-360.948C508.384,-343.864 527.39,-307.054 556,-290 654.694,-231.171 698.256,-270.24 812,-254 824.11,-252.271 837.412,-250.349 849.078,-248.655"/>
<polygon fill="midnightblue" stroke="midnightblue" points="849.857,-252.079 859.25,-247.176 848.85,-245.151 849.857,-252.079"/>
</g>
<!-- Node28 -->
<g id="node28" class="node"><title>Node28</title>
<polygon fill="white" stroke="#bfbfbf" points="52.7661,-297 52.7661,-317 153.234,-317 153.234,-297 52.7661,-297"/>
<text text-anchor="middle" x="103" y="-303" font-family="Helvetica,sans-Serif" font-size="10.00">REGEX_INCLUDE</text>
</g>
<!-- Node6&#45;&gt;Node28 -->
<g id="edge32" class="edge"><title>Node6&#45;&gt;Node28</title>
<path fill="none" stroke="midnightblue" d="M434.44,-363.723C367.038,-356.418 256.819,-342.894 163,-324 156.758,-322.743 150.202,-321.214 143.81,-319.606"/>
<polygon fill="midnightblue" stroke="midnightblue" points="144.528,-316.176 133.969,-317.042 142.763,-322.95 144.528,-316.176"/>
</g>
<!-- Node6&#45;&gt;Node29 -->
<g id="edge33" class="edge"><title>Node6&#45;&gt;Node29</title>
<path fill="none" stroke="midnightblue" d="M434.311,-366.975C327.489,-361.265 114.861,-347.332 44,-324 42.2921,-323.438 40.5759,-322.754 38.8818,-321.991"/>
<polygon fill="midnightblue" stroke="midnightblue" points="40.1,-318.672 29.6347,-317.02 36.7859,-324.838 40.1,-318.672"/>
</g>
<!-- Node30 -->
<g id="node30" class="node"><title>Node30</title>
<polygon fill="white" stroke="#bfbfbf" points="171.599,-297 171.599,-317 230.401,-317 230.401,-297 171.599,-297"/>
<text text-anchor="middle" x="201" y="-303" font-family="Helvetica,sans-Serif" font-size="10.00">stdexcept</text>
</g>
<!-- Node6&#45;&gt;Node30 -->
<g id="edge34" class="edge"><title>Node6&#45;&gt;Node30</title>
<path fill="none" stroke="midnightblue" d="M434.353,-362.572C381.782,-355.443 305.064,-342.936 240,-324 236.838,-323.08 233.582,-321.989 230.364,-320.815"/>
<polygon fill="midnightblue" stroke="midnightblue" points="231.539,-317.517 220.951,-317.136 228.991,-324.036 231.539,-317.517"/>
</g>
<!-- Node22 -->
<g id="node22" class="node"><title>Node22</title>
<polygon fill="white" stroke="#bfbfbf" points="373.613,-233 373.613,-253 412.387,-253 412.387,-233 373.613,-233"/>
<text text-anchor="middle" x="393" y="-239" font-family="Helvetica,sans-Serif" font-size="10.00">limits</text>
</g>
<!-- Node6&#45;&gt;Node22 -->
<g id="edge35" class="edge"><title>Node6&#45;&gt;Node22</title>
<path fill="none" stroke="midnightblue" d="M450.012,-360.976C429.185,-354.399 406.589,-343.146 394,-324 382.169,-306.006 384.301,-280.465 387.824,-263.118"/>
<polygon fill="midnightblue" stroke="midnightblue" points="391.306,-263.601 390.206,-253.063 384.494,-261.987 391.306,-263.601"/>
</g>
<!-- Node31 -->
<g id="node31" class="node"><title>Node31</title>
<polygon fill="white" stroke="#bfbfbf" points="248.761,-297 248.761,-317 309.239,-317 309.239,-297 248.761,-297"/>
<text text-anchor="middle" x="279" y="-303" font-family="Helvetica,sans-Serif" font-size="10.00">utf8/utf8.h</text>
</g>
<!-- Node6&#45;&gt;Node31 -->
<g id="edge36" class="edge"><title>Node6&#45;&gt;Node31</title>
<path fill="none" stroke="midnightblue" d="M458.7,-360.931C423.255,-352.289 369.216,-338.48 323,-324 319.456,-322.89 315.776,-321.666 312.121,-320.405"/>
<polygon fill="midnightblue" stroke="midnightblue" points="313.209,-317.078 302.615,-317.031 310.868,-323.675 313.209,-317.078"/>
</g>
<!-- Node8 -->
<g id="node8" class="node"><title>Node8</title>
<g id="a_node8"><a xlink:href="base_8h.xhtml" target="_top" xlink:title="ePub3/base.h">
<polygon fill="white" stroke="black" points="792.141,-175 792.141,-195 869.859,-195 869.859,-175 792.141,-175"/>
<text text-anchor="middle" x="831" y="-181" font-family="Helvetica,sans-Serif" font-size="10.00">ePub3/base.h</text>
</a>
</g>
</g>
<!-- Node7&#45;&gt;Node8 -->
<g id="edge7" class="edge"><title>Node7&#45;&gt;Node8</title>
<path fill="none" stroke="midnightblue" d="M977.03,-296.556C964.157,-281.663 937.54,-252.328 911,-232 894.885,-219.657 875.124,-208.264 859.275,-199.904"/>
<polygon fill="midnightblue" stroke="midnightblue" points="860.471,-196.582 849.98,-195.109 857.263,-202.804 860.471,-196.582"/>
</g>
<!-- Node13 -->
<g id="node13" class="node"><title>Node13</title>
<polygon fill="white" stroke="#bfbfbf" points="1028.82,-233 1028.82,-253 1143.18,-253 1143.18,-233 1028.82,-233"/>
<text text-anchor="middle" x="1086" y="-239" font-family="Helvetica,sans-Serif" font-size="10.00">ePub3/xml/xmlstring.h</text>
</g>
<!-- Node7&#45;&gt;Node13 -->
<g id="edge12" class="edge"><title>Node7&#45;&gt;Node13</title>
<path fill="none" stroke="midnightblue" d="M999.903,-296.852C1016.39,-286.732 1043.17,-270.292 1062.49,-258.432"/>
<polygon fill="midnightblue" stroke="midnightblue" points="1064.34,-261.4 1071.04,-253.186 1060.68,-255.435 1064.34,-261.4"/>
</g>
<!-- Node14 -->
<g id="node14" class="node"><title>Node14</title>
<polygon fill="white" stroke="#bfbfbf" points="959.219,-233 959.219,-253 1010.78,-253 1010.78,-233 959.219,-233"/>
<text text-anchor="middle" x="985" y="-239" font-family="Helvetica,sans-Serif" font-size="10.00">sstream</text>
</g>
<!-- Node7&#45;&gt;Node14 -->
<g id="edge13" class="edge"><title>Node7&#45;&gt;Node14</title>
<path fill="none" stroke="midnightblue" d="M985,-296.852C985,-288.06 985,-274.498 985,-263.313"/>
<polygon fill="midnightblue" stroke="midnightblue" points="988.5,-263.186 985,-253.186 981.5,-263.186 988.5,-263.186"/>
</g>
<!-- Node15 -->
<g id="node15" class="node"><title>Node15</title>
<polygon fill="white" stroke="#bfbfbf" points="1144.94,-175 1144.94,-195 1197.06,-195 1197.06,-175 1144.94,-175"/>
<text text-anchor="middle" x="1171" y="-181" font-family="Helvetica,sans-Serif" font-size="10.00">memory</text>
</g>
<!-- Node7&#45;&gt;Node15 -->
<g id="edge14" class="edge"><title>Node7&#45;&gt;Node15</title>
<path fill="none" stroke="midnightblue" d="M1041.72,-301.965C1077.9,-296.452 1123.23,-283.628 1152,-254 1164.52,-241.106 1168.93,-220.675 1170.42,-205.57"/>
<polygon fill="midnightblue" stroke="midnightblue" points="1173.93,-205.472 1171.07,-195.271 1166.94,-205.031 1173.93,-205.472"/>
</g>
<!-- Node7&#45;&gt;Node16 -->
<g id="edge15" class="edge"><title>Node7&#45;&gt;Node16</title>
<path fill="none" stroke="midnightblue" d="M969.654,-296.852C952.68,-286.732 925.103,-270.292 905.209,-258.432"/>
<polygon fill="midnightblue" stroke="midnightblue" points="906.79,-255.3 896.409,-253.186 903.206,-261.313 906.79,-255.3"/>
</g>
<!-- Node17 -->
<g id="node17" class="node"><title>Node17</title>
<polygon fill="white" stroke="#bfbfbf" points="1199.5,-233 1199.5,-253 1228.5,-253 1228.5,-233 1199.5,-233"/>
<text text-anchor="middle" x="1213.61" y="-239" font-family="Helvetica,sans-Serif" font-size="10.00">list</text>
</g>
<!-- Node7&#45;&gt;Node17 -->
<g id="edge16" class="edge"><title>Node7&#45;&gt;Node17</title>
<path fill="none" stroke="midnightblue" d="M1023.59,-296.91C1064.05,-287.16 1129.36,-270.798 1185,-254 1186.47,-253.557 1187.97,-253.088 1189.48,-252.604"/>
<polygon fill="midnightblue" stroke="midnightblue" points="1190.95,-255.804 1199.32,-249.31 1188.73,-249.166 1190.95,-255.804"/>
</g>
<!-- Node9 -->
<g id="node9" class="node"><title>Node9</title>
<g id="a_node9"><a xlink:href="__config_8h.xhtml" target="_top" xlink:title="_config.h">
<polygon fill="white" stroke="black" points="767.707,-117 767.707,-137 824.293,-137 824.293,-117 767.707,-117"/>
<text text-anchor="middle" x="796" y="-123" font-family="Helvetica,sans-Serif" font-size="10.00">_config.h</text>
</a>
</g>
</g>
<!-- Node8&#45;&gt;Node9 -->
<g id="edge8" class="edge"><title>Node8&#45;&gt;Node9</title>
<path fill="none" stroke="midnightblue" d="M825.22,-174.753C820.277,-166.843 813.023,-155.237 806.98,-145.568"/>
<polygon fill="midnightblue" stroke="midnightblue" points="809.94,-143.7 801.672,-137.075 804.004,-147.41 809.94,-143.7"/>
</g>
<!-- Node12 -->
<g id="node12" class="node"><title>Node12</title>
<polygon fill="white" stroke="#bfbfbf" points="842.158,-117 842.158,-137 889.842,-137 889.842,-117 842.158,-117"/>
<text text-anchor="middle" x="866" y="-123" font-family="Helvetica,sans-Serif" font-size="10.00">stdlib.h</text>
</g>
<!-- Node8&#45;&gt;Node12 -->
<g id="edge11" class="edge"><title>Node8&#45;&gt;Node12</title>
<path fill="none" stroke="midnightblue" d="M836.78,-174.753C841.723,-166.843 848.977,-155.237 855.02,-145.568"/>
<polygon fill="midnightblue" stroke="midnightblue" points="857.996,-147.41 860.328,-137.075 852.06,-143.7 857.996,-147.41"/>
</g>
<!-- Node10 -->
<g id="node10" class="node"><title>Node10</title>
<g id="a_node10"><a xlink:href="__platform_8h.xhtml" target="_top" xlink:title="_platform.h">
<polygon fill="white" stroke="black" points="762.988,-59 762.988,-79 829.012,-79 829.012,-59 762.988,-59"/>
<text text-anchor="middle" x="796" y="-65" font-family="Helvetica,sans-Serif" font-size="10.00">_platform.h</text>
</a>
</g>
</g>
<!-- Node9&#45;&gt;Node10 -->
<g id="edge9" class="edge"><title>Node9&#45;&gt;Node10</title>
<path fill="none" stroke="midnightblue" d="M796,-116.753C796,-109.25 796,-98.4238 796,-89.0781"/>
<polygon fill="midnightblue" stroke="midnightblue" points="799.5,-89.0752 796,-79.0752 792.5,-89.0752 799.5,-89.0752"/>
</g>
<!-- Node11 -->
<g id="node11" class="node"><title>Node11</title>
<g id="a_node11"><a xlink:href="__compiler_8h.xhtml" target="_top" xlink:title="_compiler.h">
<polygon fill="white" stroke="black" points="762.429,-1 762.429,-21 829.571,-21 829.571,-1 762.429,-1"/>
<text text-anchor="middle" x="796" y="-7" font-family="Helvetica,sans-Serif" font-size="10.00">_compiler.h</text>
</a>
</g>
</g>
<!-- Node10&#45;&gt;Node11 -->
<g id="edge10" class="edge"><title>Node10&#45;&gt;Node11</title>
<path fill="none" stroke="midnightblue" d="M796,-58.7527C796,-51.2504 796,-40.4238 796,-31.0781"/>
<polygon fill="midnightblue" stroke="midnightblue" points="799.5,-31.0752 796,-21.0752 792.5,-31.0752 799.5,-31.0752"/>
</g>
<!-- Node18&#45;&gt;Node8 -->
<g id="edge18" class="edge"><title>Node18&#45;&gt;Node8</title>
<path fill="none" stroke="midnightblue" d="M735.797,-290.72C725.717,-274.932 714.163,-250.109 726,-232 738.596,-212.729 761.249,-201.482 782.297,-194.941"/>
<polygon fill="midnightblue" stroke="midnightblue" points="783.452,-198.252 792.13,-192.175 781.556,-191.514 783.452,-198.252"/>
</g>
<!-- Node20 -->
<g id="node20" class="node"><title>Node20</title>
<polygon fill="white" stroke="#bfbfbf" points="1246.93,-233 1246.93,-253 1309.07,-253 1309.07,-233 1246.93,-233"/>
<text text-anchor="middle" x="1278" y="-239" font-family="Helvetica,sans-Serif" font-size="10.00">type_traits</text>
</g>
<!-- Node19&#45;&gt;Node20 -->
<g id="edge20" class="edge"><title>Node19&#45;&gt;Node20</title>
<path fill="none" stroke="midnightblue" d="M508.796,-296.482C523.99,-294.034 540.614,-291.633 556,-290 854.159,-258.356 935.398,-297.248 1236.88,-253.698"/>
<polygon fill="midnightblue" stroke="midnightblue" points="1237.39,-257.161 1246.78,-252.25 1236.38,-250.235 1237.39,-257.161"/>
</g>
<!-- Node19&#45;&gt;Node21 -->
<g id="edge21" class="edge"><title>Node19&#45;&gt;Node21</title>
<path fill="none" stroke="midnightblue" d="M426.709,-290.992C406.964,-280.874 381.112,-267.628 361.89,-257.778"/>
<polygon fill="midnightblue" stroke="midnightblue" points="363.273,-254.554 352.777,-253.109 360.08,-260.784 363.273,-254.554"/>
</g>
<!-- Node19&#45;&gt;Node22 -->
<g id="edge22" class="edge"><title>Node19&#45;&gt;Node22</title>
<path fill="none" stroke="midnightblue" d="M440.749,-290.992C431.418,-281.808 419.466,-270.046 409.855,-260.587"/>
<polygon fill="midnightblue" stroke="midnightblue" points="412.023,-257.81 402.44,-253.29 407.113,-262.799 412.023,-257.81"/>
</g>
<!-- Node23 -->
<g id="node23" class="node"><title>Node23</title>
<polygon fill="white" stroke="#bfbfbf" points="430.828,-233 430.828,-253 485.172,-253 485.172,-233 430.828,-233"/>
<text text-anchor="middle" x="458" y="-239" font-family="Helvetica,sans-Serif" font-size="10.00">iostream</text>
</g>
<!-- Node19&#45;&gt;Node23 -->
<g id="edge23" class="edge"><title>Node19&#45;&gt;Node23</title>
<path fill="none" stroke="midnightblue" d="M456.484,-290.992C456.751,-282.726 457.085,-272.373 457.371,-263.489"/>
<polygon fill="midnightblue" stroke="midnightblue" points="460.876,-263.398 457.7,-253.29 453.88,-263.172 460.876,-263.398"/>
</g>
<!-- Node24 -->
<g id="node24" class="node"><title>Node24</title>
<polygon fill="white" stroke="#bfbfbf" points="503.436,-233 503.436,-253 560.564,-253 560.564,-233 503.436,-233"/>
<text text-anchor="middle" x="532" y="-239" font-family="Helvetica,sans-Serif" font-size="10.00">algorithm</text>
</g>
<!-- Node19&#45;&gt;Node24 -->
<g id="edge24" class="edge"><title>Node19&#45;&gt;Node24</title>
<path fill="none" stroke="midnightblue" d="M474.397,-290.992C485.992,-281.533 500.94,-269.338 512.703,-259.742"/>
<polygon fill="midnightblue" stroke="midnightblue" points="515.076,-262.324 520.612,-253.29 510.651,-256.9 515.076,-262.324"/>
</g>
<!-- Node25 -->
<g id="node25" class="node"><title>Node25</title>
<g id="a_node25"><a xlink:href="____strhash_8h.xhtml" target="_top" xlink:title="__strhash.h">
<polygon fill="white" stroke="black" points="734.872,-233 734.872,-253 803.128,-253 803.128,-233 734.872,-233"/>
<text text-anchor="middle" x="769" y="-239" font-family="Helvetica,sans-Serif" font-size="10.00">__strhash.h</text>
</a>
</g>
</g>
<!-- Node19&#45;&gt;Node25 -->
<g id="edge25" class="edge"><title>Node19&#45;&gt;Node25</title>
<path fill="none" stroke="midnightblue" d="M508.975,-293.093C513.711,-292.017 518.438,-290.971 523,-290 593.225,-275.059 675.289,-260.24 724.648,-251.611"/>
<polygon fill="midnightblue" stroke="midnightblue" points="725.417,-255.03 734.669,-249.866 724.216,-248.134 725.417,-255.03"/>
</g>
<!-- Node25&#45;&gt;Node8 -->
<g id="edge26" class="edge"><title>Node25&#45;&gt;Node8</title>
<path fill="none" stroke="midnightblue" d="M779.238,-232.753C788.537,-224.353 802.45,-211.787 813.51,-201.798"/>
<polygon fill="midnightblue" stroke="midnightblue" points="815.877,-204.375 820.952,-195.075 811.185,-199.181 815.877,-204.375"/>
</g>
<!-- Node25&#45;&gt;Node15 -->
<g id="edge27" class="edge"><title>Node25&#45;&gt;Node15</title>
<path fill="none" stroke="midnightblue" d="M803.274,-237.225C878.532,-226.742 1057.64,-201.791 1134.71,-191.055"/>
<polygon fill="midnightblue" stroke="midnightblue" points="1135.47,-194.484 1144.89,-189.637 1134.5,-187.55 1135.47,-194.484"/>
</g>
<!-- Node32&#45;&gt;Node2 -->
<g id="edge38" class="edge"><title>Node32&#45;&gt;Node2</title>
<path fill="none" stroke="midnightblue" d="M1251.46,-488.934C1273.51,-480.267 1299.58,-467.912 1320,-452 1342.49,-434.473 1361.91,-407.525 1373.29,-389.829"/>
<polygon fill="midnightblue" stroke="midnightblue" points="1376.43,-391.406 1378.75,-381.068 1370.49,-387.703 1376.43,-391.406"/>
</g>
<!-- Node33 -->
<g id="node33" class="node"><title>Node33</title>
<g id="a_node33"><a xlink:href="ring__buffer_8h.xhtml" target="_top" xlink:title="ePub3/utilities/ring\l_buffer.h">
<polygon fill="white" stroke="black" points="1214.14,-419 1214.14,-451 1311.86,-451 1311.86,-419 1214.14,-419"/>
<text text-anchor="start" x="1222.14" y="-437" font-family="Helvetica,sans-Serif" font-size="10.00">ePub3/utilities/ring</text>
<text text-anchor="middle" x="1263" y="-425" font-family="Helvetica,sans-Serif" font-size="10.00">_buffer.h</text>
</a>
</g>
</g>
<!-- Node32&#45;&gt;Node33 -->
<g id="edge39" class="edge"><title>Node32&#45;&gt;Node33</title>
<path fill="none" stroke="midnightblue" d="M1218.65,-488.909C1226.03,-480.105 1235.49,-468.821 1243.77,-458.937"/>
<polygon fill="midnightblue" stroke="midnightblue" points="1246.64,-460.961 1250.39,-451.049 1241.28,-456.465 1246.64,-460.961"/>
</g>
<!-- Node35 -->
<g id="node35" class="node"><title>Node35</title>
<polygon fill="white" stroke="#bfbfbf" points="1367.6,-425 1367.6,-445 1426.4,-445 1426.4,-425 1367.6,-425"/>
<text text-anchor="middle" x="1397" y="-431" font-family="Helvetica,sans-Serif" font-size="10.00">functional</text>
</g>
<!-- Node32&#45;&gt;Node35 -->
<g id="edge43" class="edge"><title>Node32&#45;&gt;Node35</title>
<path fill="none" stroke="midnightblue" d="M1249.46,-488.964C1278.99,-478.69 1318.91,-464.69 1354,-452 1357.07,-450.889 1360.26,-449.724 1363.45,-448.55"/>
<polygon fill="midnightblue" stroke="midnightblue" points="1364.76,-451.8 1372.92,-445.048 1362.33,-445.234 1364.76,-451.8"/>
</g>
<!-- Node36 -->
<g id="node36" class="node"><title>Node36</title>
<polygon fill="white" stroke="#bfbfbf" points="738.5,-425 738.5,-445 767.5,-445 767.5,-425 738.5,-425"/>
<text text-anchor="middle" x="752.892" y="-431" font-family="Helvetica,sans-Serif" font-size="10.00">ios</text>
</g>
<!-- Node32&#45;&gt;Node36 -->
<g id="edge44" class="edge"><title>Node32&#45;&gt;Node36</title>
<path fill="none" stroke="midnightblue" d="M1155.84,-500.847C1058.06,-494.222 845.517,-477.346 777,-452 775.785,-451.55 774.57,-451.028 773.368,-450.453"/>
<polygon fill="midnightblue" stroke="midnightblue" points="775.006,-447.356 764.609,-445.318 771.466,-453.395 775.006,-447.356"/>
</g>
<!-- Node37 -->
<g id="node37" class="node"><title>Node37</title>
<polygon fill="white" stroke="#bfbfbf" points="785.823,-425 785.823,-445 830.177,-445 830.177,-425 785.823,-425"/>
<text text-anchor="middle" x="808" y="-431" font-family="Helvetica,sans-Serif" font-size="10.00">thread</text>
</g>
<!-- Node32&#45;&gt;Node37 -->
<g id="edge45" class="edge"><title>Node32&#45;&gt;Node37</title>
<path fill="none" stroke="midnightblue" d="M1155.85,-502.197C1084.07,-498.438 948.594,-486.938 839,-452 836.712,-451.27 834.388,-450.383 832.096,-449.404"/>
<polygon fill="midnightblue" stroke="midnightblue" points="833.543,-446.216 823.014,-445.035 830.508,-452.524 833.543,-446.216"/>
</g>
<!-- Node38 -->
<g id="node38" class="node"><title>Node38</title>
<g id="a_node38"><a xlink:href="run__loop_8h.xhtml" target="_top" xlink:title="ePub3/utilities/run\l_loop.h">
<polygon fill="white" stroke="black" points="1100.25,-419 1100.25,-451 1195.75,-451 1195.75,-419 1100.25,-419"/>
<text text-anchor="start" x="1108.25" y="-437" font-family="Helvetica,sans-Serif" font-size="10.00">ePub3/utilities/run</text>
<text text-anchor="middle" x="1148" y="-425" font-family="Helvetica,sans-Serif" font-size="10.00">_loop.h</text>
</a>
</g>
</g>
<!-- Node32&#45;&gt;Node38 -->
<g id="edge46" class="edge"><title>Node32&#45;&gt;Node38</title>
<path fill="none" stroke="midnightblue" d="M1193.13,-488.909C1185.62,-480.105 1175.99,-468.821 1167.56,-458.937"/>
<polygon fill="midnightblue" stroke="midnightblue" points="1169.99,-456.386 1160.84,-451.049 1164.66,-460.929 1169.99,-456.386"/>
</g>
<!-- Node44 -->
<g id="node44" class="node"><title>Node44</title>
<g id="a_node44"><a xlink:href="make__unique_8h.xhtml" target="_top" xlink:title="ePub3/utilities/make\l_unique.h">
<polygon fill="white" stroke="black" points="1362.25,-291 1362.25,-323 1467.75,-323 1467.75,-291 1362.25,-291"/>
<text text-anchor="start" x="1370.25" y="-309" font-family="Helvetica,sans-Serif" font-size="10.00">ePub3/utilities/make</text>
<text text-anchor="middle" x="1415" y="-297" font-family="Helvetica,sans-Serif" font-size="10.00">_unique.h</text>
</a>
</g>
</g>
<!-- Node32&#45;&gt;Node44 -->
<g id="edge58" class="edge"><title>Node32&#45;&gt;Node44</title>
<path fill="none" stroke="midnightblue" d="M1256.19,-499.783C1316.71,-493.536 1413.06,-479.48 1435,-452 1462.28,-417.827 1443.48,-363.956 1428.47,-332.699"/>
<polygon fill="midnightblue" stroke="midnightblue" points="1431.41,-330.761 1423.79,-323.399 1425.16,-333.906 1431.41,-330.761"/>
</g>
<!-- Node47 -->
<g id="node47" class="node"><title>Node47</title>
<polygon fill="white" stroke="#bfbfbf" points="848.244,-425 848.244,-445 963.756,-445 963.756,-425 848.244,-425"/>
<text text-anchor="middle" x="906" y="-431" font-family="Helvetica,sans-Serif" font-size="10.00">google&#45;url/url_canon.h</text>
</g>
<!-- Node32&#45;&gt;Node47 -->
<g id="edge64" class="edge"><title>Node32&#45;&gt;Node47</title>
<path fill="none" stroke="midnightblue" d="M1155.73,-493.12C1108.3,-482.786 1035.24,-466.69 972,-452 965.745,-450.547 959.163,-448.988 952.678,-447.434"/>
<polygon fill="midnightblue" stroke="midnightblue" points="953.168,-443.952 942.626,-445.011 951.528,-450.757 953.168,-443.952"/>
</g>
<!-- Node48 -->
<g id="node48" class="node"><title>Node48</title>
<polygon fill="white" stroke="#bfbfbf" points="981.476,-425 981.476,-445 1082.52,-445 1082.52,-425 981.476,-425"/>
<text text-anchor="middle" x="1032" y="-431" font-family="Helvetica,sans-Serif" font-size="10.00">google&#45;url/url_util.h</text>
</g>
<!-- Node32&#45;&gt;Node48 -->
<g id="edge65" class="edge"><title>Node32&#45;&gt;Node48</title>
<path fill="none" stroke="midnightblue" d="M1167.38,-488.909C1136.44,-476.816 1093.52,-460.044 1064.36,-448.648"/>
<polygon fill="midnightblue" stroke="midnightblue" points="1065.63,-445.384 1055.04,-445.004 1063.08,-451.903 1065.63,-445.384"/>
</g>
<!-- Node33&#45;&gt;Node2 -->
<g id="edge40" class="edge"><title>Node33&#45;&gt;Node2</title>
<path fill="none" stroke="midnightblue" d="M1292.29,-418.992C1312.04,-408.874 1337.89,-395.628 1357.11,-385.778"/>
<polygon fill="midnightblue" stroke="midnightblue" points="1358.92,-388.784 1366.22,-381.109 1355.73,-382.554 1358.92,-388.784"/>
</g>
<!-- Node33&#45;&gt;Node7 -->
<g id="edge41" class="edge"><title>Node33&#45;&gt;Node7</title>
<path fill="none" stroke="midnightblue" d="M1277.85,-418.956C1291.88,-402.906 1308.75,-377.442 1294,-360 1263.6,-324.051 1133.04,-312.943 1051.66,-309.518"/>
<polygon fill="midnightblue" stroke="midnightblue" points="1051.63,-306.014 1041.5,-309.119 1051.36,-313.009 1051.63,-306.014"/>
</g>
<!-- Node34 -->
<g id="node34" class="node"><title>Node34</title>
<polygon fill="white" stroke="#bfbfbf" points="1242.38,-361 1242.38,-381 1285.62,-381 1285.62,-361 1242.38,-361"/>
<text text-anchor="middle" x="1264" y="-367" font-family="Helvetica,sans-Serif" font-size="10.00">mutex</text>
</g>
<!-- Node33&#45;&gt;Node34 -->
<g id="edge42" class="edge"><title>Node33&#45;&gt;Node34</title>
<path fill="none" stroke="midnightblue" d="M1263.24,-418.992C1263.38,-410.726 1263.54,-400.373 1263.69,-391.489"/>
<polygon fill="midnightblue" stroke="midnightblue" points="1267.19,-391.346 1263.85,-381.29 1260.19,-391.233 1267.19,-391.346"/>
</g>
<!-- Node38&#45;&gt;Node8 -->
<g id="edge47" class="edge"><title>Node38&#45;&gt;Node8</title>
<path fill="none" stroke="midnightblue" d="M1100.23,-420.033C1097.12,-419.296 1094.02,-418.61 1091,-418 1027.77,-405.249 845.685,-430.353 803,-382 794.953,-372.885 810.299,-327.821 811,-324 818.719,-281.893 825.317,-232.112 828.659,-205.35"/>
<polygon fill="midnightblue" stroke="midnightblue" points="832.175,-205.433 829.923,-195.08 825.228,-204.578 832.175,-205.433"/>
</g>
<!-- Node39 -->
<g id="node39" class="node"><title>Node39</title>
<polygon fill="white" stroke="#bfbfbf" points="823.695,-361 823.695,-381 920.305,-381 920.305,-361 823.695,-361"/>
<text text-anchor="middle" x="872" y="-367" font-family="Helvetica,sans-Serif" font-size="10.00">condition_variable</text>
</g>
<!-- Node38&#45;&gt;Node39 -->
<g id="edge48" class="edge"><title>Node38&#45;&gt;Node39</title>
<path fill="none" stroke="midnightblue" d="M1100.17,-420.324C1097.07,-419.516 1093.99,-418.734 1091,-418 1036.56,-404.659 973.934,-391.746 929.632,-383.015"/>
<polygon fill="midnightblue" stroke="midnightblue" points="930.112,-379.543 919.626,-381.053 928.765,-386.412 930.112,-379.543"/>
</g>
<!-- Node40 -->
<g id="node40" class="node"><title>Node40</title>
<polygon fill="white" stroke="#bfbfbf" points="937.872,-361 937.872,-381 996.128,-381 996.128,-361 937.872,-361"/>
<text text-anchor="middle" x="967" y="-367" font-family="Helvetica,sans-Serif" font-size="10.00">pthread.h</text>
</g>
<!-- Node38&#45;&gt;Node40 -->
<g id="edge49" class="edge"><title>Node38&#45;&gt;Node40</title>
<path fill="none" stroke="midnightblue" d="M1104.18,-418.992C1073.21,-408.38 1032.18,-394.327 1003.09,-384.361"/>
<polygon fill="midnightblue" stroke="midnightblue" points="1003.92,-380.948 993.328,-381.018 1001.65,-387.57 1003.92,-380.948"/>
</g>
<!-- Node41 -->
<g id="node41" class="node"><title>Node41</title>
<polygon fill="white" stroke="#bfbfbf" points="1014.38,-361 1014.38,-381 1057.62,-381 1057.62,-361 1014.38,-361"/>
<text text-anchor="middle" x="1036" y="-367" font-family="Helvetica,sans-Serif" font-size="10.00">time.h</text>
</g>
<!-- Node38&#45;&gt;Node41 -->
<g id="edge50" class="edge"><title>Node38&#45;&gt;Node41</title>
<path fill="none" stroke="midnightblue" d="M1120.89,-418.992C1102.86,-409.013 1079.34,-395.99 1061.62,-386.185"/>
<polygon fill="midnightblue" stroke="midnightblue" points="1062.9,-382.89 1052.45,-381.109 1059.51,-389.014 1062.9,-382.89"/>
</g>
<!-- Node38&#45;&gt;Node2 -->
<g id="edge51" class="edge"><title>Node38&#45;&gt;Node2</title>
<path fill="none" stroke="midnightblue" d="M1195.87,-420.479C1198.96,-419.633 1202.02,-418.8 1205,-418 1250.18,-405.856 1301.95,-392.625 1338.16,-383.484"/>
<polygon fill="midnightblue" stroke="midnightblue" points="1339.1,-386.856 1347.94,-381.018 1337.39,-380.069 1339.1,-386.856"/>
</g>
<!-- Node38&#45;&gt;Node7 -->
<g id="edge52" class="edge"><title>Node38&#45;&gt;Node7</title>
<path fill="none" stroke="midnightblue" d="M1100.23,-420.052C1097.12,-419.31 1094.02,-418.618 1091,-418 1030.4,-405.61 855.81,-428.479 815,-382 780.749,-342.991 857.118,-323.763 918.326,-314.875"/>
<polygon fill="midnightblue" stroke="midnightblue" points="918.959,-318.321 928.386,-313.485 918.001,-311.387 918.959,-318.321"/>
</g>
<!-- Node38&#45;&gt;Node6 -->
<g id="edge53" class="edge"><title>Node38&#45;&gt;Node6</title>
<path fill="none" stroke="midnightblue" d="M1099.95,-419.797C1096.94,-419.128 1093.93,-418.52 1091,-418 992.857,-400.6 705.82,-383.327 569.932,-375.852"/>
<polygon fill="midnightblue" stroke="midnightblue" points="569.801,-372.34 559.625,-375.288 569.419,-379.329 569.801,-372.34"/>
</g>
<!-- Node42 -->
<g id="node42" class="node"><title>Node42</title>
<polygon fill="white" stroke="#bfbfbf" points="1075.71,-361 1075.71,-381 1122.29,-381 1122.29,-361 1075.71,-361"/>
<text text-anchor="middle" x="1099" y="-367" font-family="Helvetica,sans-Serif" font-size="10.00">chrono</text>
</g>
<!-- Node38&#45;&gt;Node42 -->
<g id="edge54" class="edge"><title>Node38&#45;&gt;Node42</title>
<path fill="none" stroke="midnightblue" d="M1136.14,-418.992C1129.03,-409.992 1119.96,-398.516 1112.56,-389.157"/>
<polygon fill="midnightblue" stroke="midnightblue" points="1115.29,-386.966 1106.34,-381.29 1109.8,-391.306 1115.29,-386.966"/>
</g>
<!-- Node38&#45;&gt;Node17 -->
<g id="edge55" class="edge"><title>Node38&#45;&gt;Node17</title>
<path fill="none" stroke="midnightblue" d="M1165.67,-418.941C1175.65,-409.403 1187.41,-396.216 1194,-382 1212.17,-342.795 1214.73,-291.17 1214.61,-263.506"/>
<polygon fill="midnightblue" stroke="midnightblue" points="1218.1,-263.161 1214.43,-253.222 1211.1,-263.281 1218.1,-263.161"/>
</g>
<!-- Node38&#45;&gt;Node34 -->
<g id="edge56" class="edge"><title>Node38&#45;&gt;Node34</title>
<path fill="none" stroke="midnightblue" d="M1176.08,-418.992C1194.92,-408.92 1219.57,-395.749 1237.97,-385.914"/>
<polygon fill="midnightblue" stroke="midnightblue" points="1239.79,-388.909 1246.96,-381.109 1236.49,-382.736 1239.79,-388.909"/>
</g>
<!-- Node43 -->
<g id="node43" class="node"><title>Node43</title>
<polygon fill="white" stroke="#bfbfbf" points="1140.27,-361 1140.27,-381 1185.73,-381 1185.73,-361 1140.27,-361"/>
<text text-anchor="middle" x="1163" y="-367" font-family="Helvetica,sans-Serif" font-size="10.00">atomic</text>
</g>
<!-- Node38&#45;&gt;Node43 -->
<g id="edge57" class="edge"><title>Node38&#45;&gt;Node43</title>
<path fill="none" stroke="midnightblue" d="M1151.63,-418.992C1153.65,-410.635 1156.19,-400.142 1158.36,-391.194"/>
<polygon fill="midnightblue" stroke="midnightblue" points="1161.8,-391.833 1160.75,-381.29 1155,-390.187 1161.8,-391.833"/>
</g>
<!-- Node44&#45;&gt;Node8 -->
<g id="edge59" class="edge"><title>Node44&#45;&gt;Node8</title>
<path fill="none" stroke="midnightblue" d="M1397.59,-290.827C1374.7,-271.221 1335.36,-238.791 1318,-232 1239.17,-201.156 987.771,-190.455 880.39,-187.229"/>
<polygon fill="midnightblue" stroke="midnightblue" points="880.251,-183.724 870.154,-186.931 880.047,-190.721 880.251,-183.724"/>
</g>
<!-- Node45 -->
<g id="node45" class="node"><title>Node45</title>
<polygon fill="white" stroke="#bfbfbf" points="1421.88,-233 1421.88,-253 1470.12,-253 1470.12,-233 1421.88,-233"/>
<text text-anchor="middle" x="1446" y="-239" font-family="Helvetica,sans-Serif" font-size="10.00">cstddef</text>
</g>
<!-- Node44&#45;&gt;Node45 -->
<g id="edge60" class="edge"><title>Node44&#45;&gt;Node45</title>
<path fill="none" stroke="midnightblue" d="M1422.5,-290.992C1426.82,-282.359 1432.28,-271.448 1436.84,-262.314"/>
<polygon fill="midnightblue" stroke="midnightblue" points="1440.01,-263.8 1441.35,-253.29 1433.75,-260.669 1440.01,-263.8"/>
</g>
<!-- Node44&#45;&gt;Node15 -->
<g id="edge61" class="edge"><title>Node44&#45;&gt;Node15</title>
<path fill="none" stroke="midnightblue" d="M1443.2,-290.99C1467.67,-276.05 1496.63,-252.459 1479,-232 1444.35,-191.792 1281.67,-186.202 1207.74,-185.779"/>
<polygon fill="midnightblue" stroke="midnightblue" points="1207.51,-182.279 1197.5,-185.751 1207.49,-189.279 1207.51,-182.279"/>
</g>
<!-- Node44&#45;&gt;Node20 -->
<g id="edge62" class="edge"><title>Node44&#45;&gt;Node20</title>
<path fill="none" stroke="midnightblue" d="M1381.84,-290.992C1359.07,-280.689 1329.14,-267.143 1307.26,-257.242"/>
<polygon fill="midnightblue" stroke="midnightblue" points="1308.68,-254.043 1298.13,-253.109 1305.79,-260.42 1308.68,-254.043"/>
</g>
<!-- Node46 -->
<g id="node46" class="node"><title>Node46</title>
<polygon fill="white" stroke="#bfbfbf" points="1364.61,-233 1364.61,-253 1403.39,-253 1403.39,-233 1364.61,-233"/>
<text text-anchor="middle" x="1384" y="-239" font-family="Helvetica,sans-Serif" font-size="10.00">utility</text>
</g>
<!-- Node44&#45;&gt;Node46 -->
<g id="edge63" class="edge"><title>Node44&#45;&gt;Node46</title>
<path fill="none" stroke="midnightblue" d="M1407.5,-290.992C1403.18,-282.359 1397.72,-271.448 1393.16,-262.314"/>
<polygon fill="midnightblue" stroke="midnightblue" points="1396.25,-260.669 1388.65,-253.29 1389.99,-263.8 1396.25,-260.669"/>
</g>
</g>
</svg>
