<?xml version="1.0" encoding="UTF-8" standalone="no"?>
<!DOCTYPE svg PUBLIC "-//W3C//DTD SVG 1.1//EN"
 "http://www.w3.org/Graphics/SVG/1.1/DTD/svg11.dtd">
<!-- Generated by graphviz version 2.30.0 (20130114.0426)
 -->
<!-- Title: /Users/rkwright/Documents/github/readium&#45;sdk&#45;D/ePub3/ePub/link.h Pages: 1 -->
<svg width="526pt" height="414pt"
 viewBox="0.00 0.00 526.00 414.00" xmlns="http://www.w3.org/2000/svg" xmlns:xlink="http://www.w3.org/1999/xlink">
<g id="graph0" class="graph" transform="scale(1 1) rotate(0) translate(4 410)">
<title>/Users/rkwright/Documents/github/readium&#45;sdk&#45;D/ePub3/ePub/link.h</title>
<polygon fill="white" stroke="white" points="-4,5 -4,-410 523,-410 523,5 -4,5"/>
<!-- Node1 -->
<g id="node1" class="node"><title>Node1</title>
<polygon fill="#bfbfbf" stroke="black" points="73.9658,-361 73.9658,-405 220.034,-405 220.034,-361 73.9658,-361"/>
<text text-anchor="start" x="81.9658" y="-391" font-family="Helvetica,sans-Serif" font-size="10.00">/Users/rkwright/Documents</text>
<text text-anchor="start" x="81.9658" y="-379" font-family="Helvetica,sans-Serif" font-size="10.00">/github/readium&#45;sdk&#45;D/ePub3</text>
<text text-anchor="middle" x="147" y="-367" font-family="Helvetica,sans-Serif" font-size="10.00">/ePub/link.h</text>
</g>
<!-- Node2 -->
<g id="node2" class="node"><title>Node2</title>
<polygon fill="white" stroke="#bfbfbf" points="-0.920898,-297 -0.920898,-317 82.9209,-317 82.9209,-297 -0.920898,-297"/>
<text text-anchor="middle" x="41" y="-303" font-family="Helvetica,sans-Serif" font-size="10.00">ePub3/epub3.h</text>
</g>
<!-- Node1&#45;&gt;Node2 -->
<g id="edge1" class="edge"><title>Node1&#45;&gt;Node2</title>
<path fill="none" stroke="midnightblue" d="M116.908,-360.993C99.5119,-348.848 78.0382,-333.857 62.3746,-322.922"/>
<polygon fill="midnightblue" stroke="midnightblue" points="64.1014,-319.859 53.8983,-317.004 60.0944,-325.599 64.1014,-319.859"/>
</g>
<!-- Node3 -->
<g id="node3" class="node"><title>Node3</title>
<polygon fill="white" stroke="#bfbfbf" points="100.646,-297 100.646,-317 193.354,-317 193.354,-297 100.646,-297"/>
<text text-anchor="middle" x="147" y="-303" font-family="Helvetica,sans-Serif" font-size="10.00">ePub3/Forward.h</text>
</g>
<!-- Node1&#45;&gt;Node3 -->
<g id="edge2" class="edge"><title>Node1&#45;&gt;Node3</title>
<path fill="none" stroke="midnightblue" d="M147,-360.993C147,-350.323 147,-337.458 147,-327.075"/>
<polygon fill="midnightblue" stroke="midnightblue" points="150.5,-327.004 147,-317.004 143.5,-327.005 150.5,-327.004"/>
</g>
<!-- Node4 -->
<g id="node4" class="node"><title>Node4</title>
<g id="a_node4"><a xlink:href="string__view_8h.xhtml" target="_top" xlink:title="ePub3/utilities/string\l_view.h">
<polygon fill="white" stroke="black" points="211.254,-291 211.254,-323 316.746,-323 316.746,-291 211.254,-291"/>
<text text-anchor="start" x="219.254" y="-309" font-family="Helvetica,sans-Serif" font-size="10.00">ePub3/utilities/string</text>
<text text-anchor="middle" x="264" y="-297" font-family="Helvetica,sans-Serif" font-size="10.00">_view.h</text>
</a>
</g>
</g>
<!-- Node1&#45;&gt;Node4 -->
<g id="edge3" class="edge"><title>Node1&#45;&gt;Node4</title>
<path fill="none" stroke="midnightblue" d="M180.215,-360.993C196.289,-350.825 215.518,-338.664 231.498,-328.557"/>
<polygon fill="midnightblue" stroke="midnightblue" points="233.421,-331.482 240.001,-323.179 229.679,-325.566 233.421,-331.482"/>
</g>
<!-- Node5 -->
<g id="node5" class="node"><title>Node5</title>
<polygon fill="white" stroke="#bfbfbf" points="72.9336,-233 72.9336,-253 135.066,-253 135.066,-233 72.9336,-233"/>
<text text-anchor="middle" x="104" y="-239" font-family="Helvetica,sans-Serif" font-size="10.00">type_traits</text>
</g>
<!-- Node4&#45;&gt;Node5 -->
<g id="edge4" class="edge"><title>Node4&#45;&gt;Node5</title>
<path fill="none" stroke="midnightblue" d="M225.268,-290.992C198.325,-280.551 162.781,-266.778 137.147,-256.845"/>
<polygon fill="midnightblue" stroke="midnightblue" points="138.096,-253.458 127.506,-253.109 135.566,-259.986 138.096,-253.458"/>
</g>
<!-- Node6 -->
<g id="node6" class="node"><title>Node6</title>
<polygon fill="white" stroke="#bfbfbf" points="152.773,-233 152.773,-253 193.227,-253 193.227,-233 152.773,-233"/>
<text text-anchor="middle" x="173" y="-239" font-family="Helvetica,sans-Serif" font-size="10.00">string</text>
</g>
<!-- Node4&#45;&gt;Node6 -->
<g id="edge5" class="edge"><title>Node4&#45;&gt;Node6</title>
<path fill="none" stroke="midnightblue" d="M241.971,-290.992C227.732,-281.29 209.27,-268.711 195.03,-259.009"/>
<polygon fill="midnightblue" stroke="midnightblue" points="196.604,-255.847 186.369,-253.109 192.663,-261.632 196.604,-255.847"/>
</g>
<!-- Node7 -->
<g id="node7" class="node"><title>Node7</title>
<polygon fill="white" stroke="#bfbfbf" points="211.613,-233 211.613,-253 250.387,-253 250.387,-233 211.613,-233"/>
<text text-anchor="middle" x="231" y="-239" font-family="Helvetica,sans-Serif" font-size="10.00">limits</text>
</g>
<!-- Node4&#45;&gt;Node7 -->
<g id="edge6" class="edge"><title>Node4&#45;&gt;Node7</title>
<path fill="none" stroke="midnightblue" d="M256.012,-290.992C251.417,-282.359 245.61,-271.448 240.748,-262.314"/>
<polygon fill="midnightblue" stroke="midnightblue" points="243.733,-260.473 235.945,-253.29 237.554,-263.762 243.733,-260.473"/>
</g>
<!-- Node8 -->
<g id="node8" class="node"><title>Node8</title>
<polygon fill="white" stroke="#bfbfbf" points="268.828,-233 268.828,-253 323.172,-253 323.172,-233 268.828,-233"/>
<text text-anchor="middle" x="296" y="-239" font-family="Helvetica,sans-Serif" font-size="10.00">iostream</text>
</g>
<!-- Node4&#45;&gt;Node8 -->
<g id="edge7" class="edge"><title>Node4&#45;&gt;Node8</title>
<path fill="none" stroke="midnightblue" d="M271.746,-290.992C276.202,-282.359 281.833,-271.448 286.548,-262.314"/>
<polygon fill="midnightblue" stroke="midnightblue" points="289.729,-263.782 291.205,-253.29 283.508,-260.571 289.729,-263.782"/>
</g>
<!-- Node9 -->
<g id="node9" class="node"><title>Node9</title>
<polygon fill="white" stroke="#bfbfbf" points="341.436,-233 341.436,-253 398.564,-253 398.564,-233 341.436,-233"/>
<text text-anchor="middle" x="370" y="-239" font-family="Helvetica,sans-Serif" font-size="10.00">algorithm</text>
</g>
<!-- Node4&#45;&gt;Node9 -->
<g id="edge8" class="edge"><title>Node4&#45;&gt;Node9</title>
<path fill="none" stroke="midnightblue" d="M289.66,-290.992C306.72,-281.013 328.985,-267.99 345.748,-258.185"/>
<polygon fill="midnightblue" stroke="midnightblue" points="347.562,-261.179 354.427,-253.109 344.028,-255.136 347.562,-261.179"/>
</g>
<!-- Node10 -->
<g id="node10" class="node"><title>Node10</title>
<g id="a_node10"><a xlink:href="____strhash_8h.xhtml" target="_top" xlink:title="__strhash.h">
<polygon fill="white" stroke="black" points="416.872,-233 416.872,-253 485.128,-253 485.128,-233 416.872,-233"/>
<text text-anchor="middle" x="451" y="-239" font-family="Helvetica,sans-Serif" font-size="10.00">__strhash.h</text>
</a>
</g>
</g>
<!-- Node4&#45;&gt;Node10 -->
<g id="edge9" class="edge"><title>Node4&#45;&gt;Node10</title>
<path fill="none" stroke="midnightblue" d="M309.267,-290.992C341.412,-280.334 384.031,-266.204 414.112,-256.23"/>
<polygon fill="midnightblue" stroke="midnightblue" points="415.409,-259.488 423.799,-253.018 413.206,-252.843 415.409,-259.488"/>
</g>
<!-- Node11 -->
<g id="node11" class="node"><title>Node11</title>
<g id="a_node11"><a xlink:href="base_8h.xhtml" target="_top" xlink:title="ePub3/base.h">
<polygon fill="white" stroke="black" points="370.141,-175 370.141,-195 447.859,-195 447.859,-175 370.141,-175"/>
<text text-anchor="middle" x="409" y="-181" font-family="Helvetica,sans-Serif" font-size="10.00">ePub3/base.h</text>
</a>
</g>
</g>
<!-- Node10&#45;&gt;Node11 -->
<g id="edge10" class="edge"><title>Node10&#45;&gt;Node11</title>
<path fill="none" stroke="midnightblue" d="M444.065,-232.753C438.071,-224.761 429.248,-212.998 421.952,-203.27"/>
<polygon fill="midnightblue" stroke="midnightblue" points="424.606,-200.975 415.806,-195.075 419.006,-205.175 424.606,-200.975"/>
</g>
<!-- Node16 -->
<g id="node16" class="node"><title>Node16</title>
<polygon fill="white" stroke="#bfbfbf" points="465.943,-175 465.943,-195 518.057,-195 518.057,-175 465.943,-175"/>
<text text-anchor="middle" x="492" y="-181" font-family="Helvetica,sans-Serif" font-size="10.00">memory</text>
</g>
<!-- Node10&#45;&gt;Node16 -->
<g id="edge15" class="edge"><title>Node10&#45;&gt;Node16</title>
<path fill="none" stroke="midnightblue" d="M457.77,-232.753C463.621,-224.761 472.234,-212.998 479.356,-203.27"/>
<polygon fill="midnightblue" stroke="midnightblue" points="482.272,-205.211 485.356,-195.075 476.624,-201.076 482.272,-205.211"/>
</g>
<!-- Node12 -->
<g id="node12" class="node"><title>Node12</title>
<g id="a_node12"><a xlink:href="__config_8h.xhtml" target="_top" xlink:title="_config.h">
<polygon fill="white" stroke="black" points="345.707,-117 345.707,-137 402.293,-137 402.293,-117 345.707,-117"/>
<text text-anchor="middle" x="374" y="-123" font-family="Helvetica,sans-Serif" font-size="10.00">_config.h</text>
</a>
</g>
</g>
<!-- Node11&#45;&gt;Node12 -->
<g id="edge11" class="edge"><title>Node11&#45;&gt;Node12</title>
<path fill="none" stroke="midnightblue" d="M403.22,-174.753C398.277,-166.843 391.023,-155.237 384.98,-145.568"/>
<polygon fill="midnightblue" stroke="midnightblue" points="387.94,-143.7 379.672,-137.075 382.004,-147.41 387.94,-143.7"/>
</g>
<!-- Node15 -->
<g id="node15" class="node"><title>Node15</title>
<polygon fill="white" stroke="#bfbfbf" points="420.158,-117 420.158,-137 467.842,-137 467.842,-117 420.158,-117"/>
<text text-anchor="middle" x="444" y="-123" font-family="Helvetica,sans-Serif" font-size="10.00">stdlib.h</text>
</g>
<!-- Node11&#45;&gt;Node15 -->
<g id="edge14" class="edge"><title>Node11&#45;&gt;Node15</title>
<path fill="none" stroke="midnightblue" d="M414.78,-174.753C419.723,-166.843 426.977,-155.237 433.02,-145.568"/>
<polygon fill="midnightblue" stroke="midnightblue" points="435.996,-147.41 438.328,-137.075 430.06,-143.7 435.996,-147.41"/>
</g>
<!-- Node13 -->
<g id="node13" class="node"><title>Node13</title>
<g id="a_node13"><a xlink:href="__platform_8h.xhtml" target="_top" xlink:title="_platform.h">
<polygon fill="white" stroke="black" points="340.988,-59 340.988,-79 407.012,-79 407.012,-59 340.988,-59"/>
<text text-anchor="middle" x="374" y="-65" font-family="Helvetica,sans-Serif" font-size="10.00">_platform.h</text>
</a>
</g>
</g>
<!-- Node12&#45;&gt;Node13 -->
<g id="edge12" class="edge"><title>Node12&#45;&gt;Node13</title>
<path fill="none" stroke="midnightblue" d="M374,-116.753C374,-109.25 374,-98.4238 374,-89.0781"/>
<polygon fill="midnightblue" stroke="midnightblue" points="377.5,-89.0752 374,-79.0752 370.5,-89.0752 377.5,-89.0752"/>
</g>
<!-- Node14 -->
<g id="node14" class="node"><title>Node14</title>
<g id="a_node14"><a xlink:href="__compiler_8h.xhtml" target="_top" xlink:title="_compiler.h">
<polygon fill="white" stroke="black" points="340.429,-1 340.429,-21 407.571,-21 407.571,-1 340.429,-1"/>
<text text-anchor="middle" x="374" y="-7" font-family="Helvetica,sans-Serif" font-size="10.00">_compiler.h</text>
</a>
</g>
</g>
<!-- Node13&#45;&gt;Node14 -->
<g id="edge13" class="edge"><title>Node13&#45;&gt;Node14</title>
<path fill="none" stroke="midnightblue" d="M374,-58.7527C374,-51.2504 374,-40.4238 374,-31.0781"/>
<polygon fill="midnightblue" stroke="midnightblue" points="377.5,-31.0752 374,-21.0752 370.5,-31.0752 377.5,-31.0752"/>
</g>
</g>
</svg>
