<?xml version="1.0" encoding="UTF-8" standalone="no"?>
<!DOCTYPE svg PUBLIC "-//W3C//DTD SVG 1.1//EN"
 "http://www.w3.org/Graphics/SVG/1.1/DTD/svg11.dtd">
<!-- Generated by graphviz version 2.30.0 (20130114.0426)
 -->
<!-- Title: /Users/rkwright/Documents/github/readium&#45;sdk&#45;D/ePub3/ePub/media_support_info.cpp Pages: 1 -->
<svg width="2111pt" height="600pt"
 viewBox="0.00 0.00 2111.00 600.00" xmlns="http://www.w3.org/2000/svg" xmlns:xlink="http://www.w3.org/1999/xlink">
<g id="graph0" class="graph" transform="scale(1 1) rotate(0) translate(4 596)">
<title>/Users/rkwright/Documents/github/readium&#45;sdk&#45;D/ePub3/ePub/media_support_info.cpp</title>
<polygon fill="white" stroke="white" points="-4,5 -4,-596 2108,-596 2108,5 -4,5"/>
<!-- Node1 -->
<g id="node1" class="node"><title>Node1</title>
<polygon fill="#bfbfbf" stroke="black" points="386.175,-547 386.175,-591 537.825,-591 537.825,-547 386.175,-547"/>
<text text-anchor="start" x="394.175" y="-577" font-family="Helvetica,sans-Serif" font-size="10.00">/Users/rkwright/Documents</text>
<text text-anchor="start" x="394.175" y="-565" font-family="Helvetica,sans-Serif" font-size="10.00">/github/readium&#45;sdk&#45;D/ePub3</text>
<text text-anchor="middle" x="462" y="-553" font-family="Helvetica,sans-Serif" font-size="10.00">/ePub/media_support_info.cpp</text>
</g>
<!-- Node2 -->
<g id="node2" class="node"><title>Node2</title>
<g id="a_node2"><a xlink:href="media__support__info_8h.xhtml" target="_top" xlink:title="media_support_info.h">
<polygon fill="white" stroke="black" points="405.912,-489 405.912,-509 518.088,-509 518.088,-489 405.912,-489"/>
<text text-anchor="middle" x="462" y="-495" font-family="Helvetica,sans-Serif" font-size="10.00">media_support_info.h</text>
</a>
</g>
</g>
<!-- Node1&#45;&gt;Node2 -->
<g id="edge1" class="edge"><title>Node1&#45;&gt;Node2</title>
<path fill="none" stroke="midnightblue" d="M462,-546.857C462,-538.074 462,-527.948 462,-519.362"/>
<polygon fill="midnightblue" stroke="midnightblue" points="465.5,-519.204 462,-509.204 458.5,-519.204 465.5,-519.204"/>
</g>
<!-- Node9 -->
<g id="node9" class="node"><title>Node9</title>
<g id="a_node9"><a xlink:href="package_8h.xhtml" target="_top" xlink:title="package.h">
<polygon fill="white" stroke="black" points="1049.93,-489 1049.93,-509 1112.07,-509 1112.07,-489 1049.93,-489"/>
<text text-anchor="middle" x="1081" y="-495" font-family="Helvetica,sans-Serif" font-size="10.00">package.h</text>
</a>
</g>
</g>
<!-- Node1&#45;&gt;Node9 -->
<g id="edge8" class="edge"><title>Node1&#45;&gt;Node9</title>
<path fill="none" stroke="midnightblue" d="M537.902,-559.662C669.926,-545.158 937.533,-515.76 1039.9,-504.515"/>
<polygon fill="midnightblue" stroke="midnightblue" points="1040.29,-507.993 1049.85,-503.422 1039.53,-501.035 1040.29,-507.993"/>
</g>
<!-- Node49 -->
<g id="node49" class="node"><title>Node49</title>
<g id="a_node49"><a xlink:href="manifest_8h.xhtml" target="_top" xlink:title="manifest.h">
<polygon fill="white" stroke="black" points="297.934,-489 297.934,-509 360.066,-509 360.066,-489 297.934,-489"/>
<text text-anchor="middle" x="329" y="-495" font-family="Helvetica,sans-Serif" font-size="10.00">manifest.h</text>
</a>
</g>
</g>
<!-- Node1&#45;&gt;Node49 -->
<g id="edge71" class="edge"><title>Node1&#45;&gt;Node49</title>
<path fill="none" stroke="midnightblue" d="M420.647,-546.857C399.478,-536.034 374.322,-523.172 355.726,-513.664"/>
<polygon fill="midnightblue" stroke="midnightblue" points="357.152,-510.463 346.655,-509.027 353.965,-516.695 357.152,-510.463"/>
</g>
<!-- Node3 -->
<g id="node3" class="node"><title>Node3</title>
<polygon fill="white" stroke="#bfbfbf" points="354.079,-425 354.079,-445 437.921,-445 437.921,-425 354.079,-425"/>
<text text-anchor="middle" x="396" y="-431" font-family="Helvetica,sans-Serif" font-size="10.00">ePub3/epub3.h</text>
</g>
<!-- Node2&#45;&gt;Node3 -->
<g id="edge2" class="edge"><title>Node2&#45;&gt;Node3</title>
<path fill="none" stroke="midnightblue" d="M452.261,-488.852C442.025,-479.236 425.714,-463.913 413.284,-452.236"/>
<polygon fill="midnightblue" stroke="midnightblue" points="415.463,-449.482 405.778,-445.186 410.671,-454.584 415.463,-449.482"/>
</g>
<!-- Node4 -->
<g id="node4" class="node"><title>Node4</title>
<g id="a_node4"><a xlink:href="owned__by_8h.xhtml" target="_top" xlink:title="ePub3/utilities/owned_by.h">
<polygon fill="white" stroke="black" points="1368.88,-361 1368.88,-381 1503.12,-381 1503.12,-361 1368.88,-361"/>
<text text-anchor="middle" x="1436" y="-367" font-family="Helvetica,sans-Serif" font-size="10.00">ePub3/utilities/owned_by.h</text>
</a>
</g>
</g>
<!-- Node2&#45;&gt;Node4 -->
<g id="edge3" class="edge"><title>Node2&#45;&gt;Node4</title>
<path fill="none" stroke="midnightblue" d="M518.332,-494.537C605.875,-488.537 770.119,-474.636 824,-452 846.462,-442.564 844.328,-426.92 867,-418 954.412,-383.607 1224.36,-374.926 1358.58,-372.737"/>
<polygon fill="midnightblue" stroke="midnightblue" points="1358.85,-376.234 1368.79,-372.579 1358.74,-369.234 1358.85,-376.234"/>
</g>
<!-- Node7 -->
<g id="node7" class="node"><title>Node7</title>
<polygon fill="white" stroke="#bfbfbf" points="-0.726562,-297 -0.726562,-317 34.7266,-317 34.7266,-297 -0.726562,-297"/>
<text text-anchor="middle" x="17" y="-303" font-family="Helvetica,sans-Serif" font-size="10.00">map</text>
</g>
<!-- Node2&#45;&gt;Node7 -->
<g id="edge6" class="edge"><title>Node2&#45;&gt;Node7</title>
<path fill="none" stroke="midnightblue" d="M430.844,-488.982C406.461,-481.177 372.236,-468.542 345,-452 325.346,-440.063 325.839,-429.628 306,-418 198.908,-355.233 154.91,-377.708 43,-324 41.8174,-323.432 40.6204,-322.825 39.4229,-322.191"/>
<polygon fill="midnightblue" stroke="midnightblue" points="40.8734,-318.987 30.4627,-317.021 37.3749,-325.05 40.8734,-318.987"/>
</g>
<!-- Node8 -->
<g id="node8" class="node"><title>Node8</title>
<polygon fill="white" stroke="#bfbfbf" points="1012.5,-233 1012.5,-253 1041.5,-253 1041.5,-233 1012.5,-233"/>
<text text-anchor="middle" x="1026.61" y="-239" font-family="Helvetica,sans-Serif" font-size="10.00">list</text>
</g>
<!-- Node2&#45;&gt;Node8 -->
<g id="edge7" class="edge"><title>Node2&#45;&gt;Node8</title>
<path fill="none" stroke="midnightblue" d="M518.153,-496.341C578.015,-492.935 674.641,-482.677 752,-452 865.489,-406.995 972.691,-301.683 1011.59,-260.718"/>
<polygon fill="midnightblue" stroke="midnightblue" points="1014.35,-262.896 1018.64,-253.209 1009.24,-258.105 1014.35,-262.896"/>
</g>
<!-- Node5 -->
<g id="node5" class="node"><title>Node5</title>
<polygon fill="white" stroke="#bfbfbf" points="1080.94,-175 1080.94,-195 1133.06,-195 1133.06,-175 1080.94,-175"/>
<text text-anchor="middle" x="1107" y="-181" font-family="Helvetica,sans-Serif" font-size="10.00">memory</text>
</g>
<!-- Node4&#45;&gt;Node5 -->
<g id="edge4" class="edge"><title>Node4&#45;&gt;Node5</title>
<path fill="none" stroke="midnightblue" d="M1444.31,-360.705C1464.91,-336.517 1514.31,-270.807 1480,-232 1457.88,-206.989 1232.69,-192.567 1143.29,-187.789"/>
<polygon fill="midnightblue" stroke="midnightblue" points="1143.26,-184.283 1133.09,-187.254 1142.89,-191.273 1143.26,-184.283"/>
</g>
<!-- Node6 -->
<g id="node6" class="node"><title>Node6</title>
<polygon fill="white" stroke="#bfbfbf" points="1059.93,-233 1059.93,-253 1122.07,-253 1122.07,-233 1059.93,-233"/>
<text text-anchor="middle" x="1091" y="-239" font-family="Helvetica,sans-Serif" font-size="10.00">type_traits</text>
</g>
<!-- Node4&#45;&gt;Node6 -->
<g id="edge5" class="edge"><title>Node4&#45;&gt;Node6</title>
<path fill="none" stroke="midnightblue" d="M1385.58,-360.964C1347.17,-353.295 1293.36,-340.847 1248,-324 1198.83,-305.739 1145.11,-276.057 1114.98,-258.441"/>
<polygon fill="midnightblue" stroke="midnightblue" points="1116.45,-255.246 1106.06,-253.175 1112.89,-261.274 1116.45,-255.246"/>
</g>
<!-- Node9&#45;&gt;Node3 -->
<g id="edge9" class="edge"><title>Node9&#45;&gt;Node3</title>
<path fill="none" stroke="midnightblue" d="M1049.63,-497.972C957.286,-497.406 678.667,-492.229 452,-452 445.793,-450.898 439.288,-449.384 432.999,-447.724"/>
<polygon fill="midnightblue" stroke="midnightblue" points="433.939,-444.353 423.366,-445.033 432.055,-451.095 433.939,-444.353"/>
</g>
<!-- Node10 -->
<g id="node10" class="node"><title>Node10</title>
<polygon fill="white" stroke="#bfbfbf" points="1430.77,-233 1430.77,-253 1471.23,-253 1471.23,-233 1430.77,-233"/>
<text text-anchor="middle" x="1451" y="-239" font-family="Helvetica,sans-Serif" font-size="10.00">string</text>
</g>
<!-- Node9&#45;&gt;Node10 -->
<g id="edge10" class="edge"><title>Node9&#45;&gt;Node10</title>
<path fill="none" stroke="midnightblue" d="M1112.24,-498.132C1233.21,-498.321 1666.2,-495.906 1707,-452 1788.76,-364.009 1564.68,-280.573 1481.05,-253.298"/>
<polygon fill="midnightblue" stroke="midnightblue" points="1481.94,-249.908 1471.35,-250.181 1479.8,-256.572 1481.94,-249.908"/>
</g>
<!-- Node11 -->
<g id="node11" class="node"><title>Node11</title>
<polygon fill="white" stroke="#bfbfbf" points="751.384,-233 751.384,-253 794.616,-253 794.616,-233 751.384,-233"/>
<text text-anchor="middle" x="773" y="-239" font-family="Helvetica,sans-Serif" font-size="10.00">vector</text>
</g>
<!-- Node9&#45;&gt;Node11 -->
<g id="edge11" class="edge"><title>Node9&#45;&gt;Node11</title>
<path fill="none" stroke="midnightblue" d="M1049.61,-494.736C997.179,-488.726 894.798,-474.435 867,-452 805.834,-402.635 783.021,-304.898 775.848,-263.383"/>
<polygon fill="midnightblue" stroke="midnightblue" points="779.263,-262.57 774.221,-253.251 772.351,-263.68 779.263,-262.57"/>
</g>
<!-- Node9&#45;&gt;Node7 -->
<g id="edge12" class="edge"><title>Node9&#45;&gt;Node7</title>
<path fill="none" stroke="midnightblue" d="M1049.84,-498.156C942.42,-498.298 588.484,-495.389 485,-452 463.793,-443.108 466.452,-428.511 446,-418 346.476,-366.851 309.997,-385.318 201,-360 130.846,-343.704 109.673,-351.238 43,-324 41.5894,-323.424 40.1677,-322.775 38.7552,-322.078"/>
<polygon fill="midnightblue" stroke="midnightblue" points="40.2116,-318.881 29.7822,-317.016 36.7721,-324.977 40.2116,-318.881"/>
</g>
<!-- Node9&#45;&gt;Node8 -->
<g id="edge13" class="edge"><title>Node9&#45;&gt;Node8</title>
<path fill="none" stroke="midnightblue" d="M1112.13,-497.789C1223.12,-496.718 1594.79,-490.28 1630,-452 1640.23,-440.878 1639.95,-429.369 1630,-418 1590.13,-372.457 1419.14,-394.88 1360,-382 1273.73,-363.214 1251.21,-358.64 1170,-324 1125.57,-305.048 1077.16,-276.041 1049.61,-258.655"/>
<polygon fill="midnightblue" stroke="midnightblue" points="1051.41,-255.655 1041.1,-253.236 1047.65,-261.56 1051.41,-255.655"/>
</g>
<!-- Node12 -->
<g id="node12" class="node"><title>Node12</title>
<polygon fill="white" stroke="#bfbfbf" points="57.6948,-425 57.6948,-445 154.305,-445 154.305,-425 57.6948,-425"/>
<text text-anchor="middle" x="106" y="-431" font-family="Helvetica,sans-Serif" font-size="10.00">ePub3/xml/node.h</text>
</g>
<!-- Node9&#45;&gt;Node12 -->
<g id="edge14" class="edge"><title>Node9&#45;&gt;Node12</title>
<path fill="none" stroke="midnightblue" d="M1049.82,-497.374C909.941,-494.419 339.388,-480.803 163,-452 156.609,-450.956 149.912,-449.458 143.446,-447.791"/>
<polygon fill="midnightblue" stroke="midnightblue" points="144.123,-444.347 133.553,-445.074 142.269,-451.097 144.123,-444.347"/>
</g>
<!-- Node9&#45;&gt;Node4 -->
<g id="edge15" class="edge"><title>Node9&#45;&gt;Node4</title>
<path fill="none" stroke="midnightblue" d="M1112.44,-497.95C1228.26,-497.443 1626.36,-492.73 1664,-452 1712.22,-399.823 1596.84,-381.67 1513.23,-375.358"/>
<polygon fill="midnightblue" stroke="midnightblue" points="1513.43,-371.864 1503.2,-374.646 1512.93,-378.846 1513.43,-371.864"/>
</g>
<!-- Node13 -->
<g id="node13" class="node"><title>Node13</title>
<polygon fill="white" stroke="#bfbfbf" points="1791.91,-425 1791.91,-445 1894.09,-445 1894.09,-425 1791.91,-425"/>
<text text-anchor="middle" x="1843" y="-431" font-family="Helvetica,sans-Serif" font-size="10.00">ePub3/encryption.h</text>
</g>
<!-- Node9&#45;&gt;Node13 -->
<g id="edge16" class="edge"><title>Node9&#45;&gt;Node13</title>
<path fill="none" stroke="midnightblue" d="M1112.13,-497.885C1210.47,-497.11 1523.04,-491.481 1778,-452 1785.59,-450.825 1793.59,-449.192 1801.28,-447.414"/>
<polygon fill="midnightblue" stroke="midnightblue" points="1802.26,-450.777 1811.16,-445.021 1800.61,-443.974 1802.26,-450.777"/>
</g>
<!-- Node14 -->
<g id="node14" class="node"><title>Node14</title>
<polygon fill="white" stroke="#bfbfbf" points="1912.03,-425 1912.03,-445 1991.97,-445 1991.97,-425 1912.03,-425"/>
<text text-anchor="middle" x="1952" y="-431" font-family="Helvetica,sans-Serif" font-size="10.00">ePub3/spine.h</text>
</g>
<!-- Node9&#45;&gt;Node14 -->
<g id="edge17" class="edge"><title>Node9&#45;&gt;Node14</title>
<path fill="none" stroke="midnightblue" d="M1112.4,-497.332C1243.43,-494.376 1747.08,-481.302 1903,-452 1908.15,-451.033 1913.5,-449.673 1918.69,-448.149"/>
<polygon fill="midnightblue" stroke="midnightblue" points="1919.92,-451.432 1928.4,-445.078 1917.81,-444.758 1919.92,-451.432"/>
</g>
<!-- Node15 -->
<g id="node15" class="node"><title>Node15</title>
<polygon fill="white" stroke="#bfbfbf" points="2010.09,-425 2010.09,-445 2103.91,-445 2103.91,-425 2010.09,-425"/>
<text text-anchor="middle" x="2057" y="-431" font-family="Helvetica,sans-Serif" font-size="10.00">ePub3/manifest.h</text>
</g>
<!-- Node9&#45;&gt;Node15 -->
<g id="edge18" class="edge"><title>Node9&#45;&gt;Node15</title>
<path fill="none" stroke="midnightblue" d="M1112.21,-497.375C1252.25,-494.426 1823.42,-480.829 2000,-452 2006.39,-450.957 2013.09,-449.458 2019.55,-447.791"/>
<polygon fill="midnightblue" stroke="midnightblue" points="2020.73,-451.097 2029.45,-445.074 2018.88,-444.347 2020.73,-451.097"/>
</g>
<!-- Node16 -->
<g id="node16" class="node"><title>Node16</title>
<polygon fill="white" stroke="#bfbfbf" points="875.983,-425 875.983,-445 942.017,-445 942.017,-425 875.983,-425"/>
<text text-anchor="middle" x="909" y="-431" font-family="Helvetica,sans-Serif" font-size="10.00">ePub3/cfi.h</text>
</g>
<!-- Node9&#45;&gt;Node16 -->
<g id="edge19" class="edge"><title>Node9&#45;&gt;Node16</title>
<path fill="none" stroke="midnightblue" d="M1054.54,-488.845C1028.23,-479.692 986.731,-465.126 951,-452 948.091,-450.931 945.073,-449.809 942.051,-448.676"/>
<polygon fill="midnightblue" stroke="midnightblue" points="943.101,-445.331 932.509,-445.069 940.626,-451.879 943.101,-445.331"/>
</g>
<!-- Node17 -->
<g id="node17" class="node"><title>Node17</title>
<polygon fill="white" stroke="#bfbfbf" points="960.353,-425 960.353,-445 1073.65,-445 1073.65,-425 960.353,-425"/>
<text text-anchor="middle" x="1017" y="-431" font-family="Helvetica,sans-Serif" font-size="10.00">ePub3/nav_element.h</text>
</g>
<!-- Node9&#45;&gt;Node17 -->
<g id="edge20" class="edge"><title>Node9&#45;&gt;Node17</title>
<path fill="none" stroke="midnightblue" d="M1071.56,-488.852C1061.63,-479.236 1045.81,-463.913 1033.76,-452.236"/>
<polygon fill="midnightblue" stroke="midnightblue" points="1036.1,-449.63 1026.48,-445.186 1031.23,-454.658 1036.1,-449.63"/>
</g>
<!-- Node18 -->
<g id="node18" class="node"><title>Node18</title>
<polygon fill="white" stroke="#bfbfbf" points="1091.31,-425 1091.31,-445 1200.69,-445 1200.69,-425 1091.31,-425"/>
<text text-anchor="middle" x="1146" y="-431" font-family="Helvetica,sans-Serif" font-size="10.00">ePub3/archive_xml.h</text>
</g>
<!-- Node9&#45;&gt;Node18 -->
<g id="edge21" class="edge"><title>Node9&#45;&gt;Node18</title>
<path fill="none" stroke="midnightblue" d="M1090.59,-488.852C1100.67,-479.236 1116.74,-463.913 1128.98,-452.236"/>
<polygon fill="midnightblue" stroke="midnightblue" points="1131.55,-454.621 1136.37,-445.186 1126.72,-449.555 1131.55,-454.621"/>
</g>
<!-- Node19 -->
<g id="node19" class="node"><title>Node19</title>
<g id="a_node19"><a xlink:href="utfstring_8h.xhtml" target="_top" xlink:title="ePub3/utilities/utfstring.h">
<polygon fill="white" stroke="black" points="493.525,-361 493.525,-381 618.475,-381 618.475,-361 493.525,-361"/>
<text text-anchor="middle" x="556" y="-367" font-family="Helvetica,sans-Serif" font-size="10.00">ePub3/utilities/utfstring.h</text>
</a>
</g>
</g>
<!-- Node9&#45;&gt;Node19 -->
<g id="edge22" class="edge"><title>Node9&#45;&gt;Node19</title>
<path fill="none" stroke="midnightblue" d="M1049.64,-497.429C961.018,-495.4 710.403,-486.665 637,-452 629.041,-448.241 592.943,-410.982 571.717,-388.662"/>
<polygon fill="midnightblue" stroke="midnightblue" points="574.068,-386.055 564.649,-381.204 568.988,-390.87 574.068,-386.055"/>
</g>
<!-- Node39 -->
<g id="node39" class="node"><title>Node39</title>
<g id="a_node39"><a xlink:href="iri_8h.xhtml" target="_top" xlink:title="ePub3/utilities/iri.h">
<polygon fill="white" stroke="black" points="646.424,-425 646.424,-445 743.576,-445 743.576,-425 646.424,-425"/>
<text text-anchor="middle" x="695" y="-431" font-family="Helvetica,sans-Serif" font-size="10.00">ePub3/utilities/iri.h</text>
</a>
</g>
</g>
<!-- Node9&#45;&gt;Node39 -->
<g id="edge54" class="edge"><title>Node9&#45;&gt;Node39</title>
<path fill="none" stroke="midnightblue" d="M1049.63,-494.665C991.696,-488.256 864.134,-472.972 758,-452 751.38,-450.692 744.415,-449.122 737.628,-447.484"/>
<polygon fill="midnightblue" stroke="midnightblue" points="738.421,-444.074 727.872,-445.058 736.732,-450.868 738.421,-444.074"/>
</g>
<!-- Node44 -->
<g id="node44" class="node"><title>Node44</title>
<polygon fill="white" stroke="#bfbfbf" points="1218.39,-425 1218.39,-445 1345.61,-445 1345.61,-425 1218.39,-425"/>
<text text-anchor="middle" x="1282" y="-431" font-family="Helvetica,sans-Serif" font-size="10.00">ePub3/content_handler.h</text>
</g>
<!-- Node9&#45;&gt;Node44 -->
<g id="edge64" class="edge"><title>Node9&#45;&gt;Node44</title>
<path fill="none" stroke="midnightblue" d="M1110.23,-488.985C1145.21,-478.194 1203.93,-460.082 1242.82,-448.086"/>
<polygon fill="midnightblue" stroke="midnightblue" points="1244.21,-451.318 1252.74,-445.026 1242.15,-444.629 1244.21,-451.318"/>
</g>
<!-- Node45 -->
<g id="node45" class="node"><title>Node45</title>
<polygon fill="white" stroke="#bfbfbf" points="1364.08,-419 1364.08,-451 1477.92,-451 1477.92,-419 1364.08,-419"/>
<text text-anchor="start" x="1372.08" y="-437" font-family="Helvetica,sans-Serif" font-size="10.00">ePub3/media_support</text>
<text text-anchor="middle" x="1421" y="-425" font-family="Helvetica,sans-Serif" font-size="10.00">_info.h</text>
</g>
<!-- Node9&#45;&gt;Node45 -->
<g id="edge65" class="edge"><title>Node9&#45;&gt;Node45</title>
<path fill="none" stroke="midnightblue" d="M1112.24,-493.438C1163.1,-485.854 1266.87,-469.724 1354,-452 1354.1,-451.979 1354.21,-451.958 1354.31,-451.937"/>
<polygon fill="midnightblue" stroke="midnightblue" points="1354.98,-455.373 1364.04,-449.879 1353.53,-448.525 1354.98,-455.373"/>
</g>
<!-- Node46 -->
<g id="node46" class="node"><title>Node46</title>
<polygon fill="white" stroke="#bfbfbf" points="172.234,-425 172.234,-445 297.766,-445 297.766,-425 172.234,-425"/>
<text text-anchor="middle" x="235" y="-431" font-family="Helvetica,sans-Serif" font-size="10.00">ePub3/property_holder.h</text>
</g>
<!-- Node9&#45;&gt;Node46 -->
<g id="edge66" class="edge"><title>Node9&#45;&gt;Node46</title>
<path fill="none" stroke="midnightblue" d="M1049.72,-496.963C947.955,-493.395 617.195,-480.254 345,-452 330.652,-450.511 315.304,-448.527 300.764,-446.464"/>
<polygon fill="midnightblue" stroke="midnightblue" points="301.247,-442.998 290.849,-445.029 300.244,-449.926 301.247,-442.998"/>
</g>
<!-- Node47 -->
<g id="node47" class="node"><title>Node47</title>
<polygon fill="white" stroke="#bfbfbf" points="1496.23,-425 1496.23,-445 1621.77,-445 1621.77,-425 1496.23,-425"/>
<text text-anchor="middle" x="1559" y="-431" font-family="Helvetica,sans-Serif" font-size="10.00">ePub3/epub_collection.h</text>
</g>
<!-- Node9&#45;&gt;Node47 -->
<g id="edge67" class="edge"><title>Node9&#45;&gt;Node47</title>
<path fill="none" stroke="midnightblue" d="M1112.14,-495.56C1180.25,-489.986 1347.43,-474.993 1486,-452 1494.19,-450.641 1502.85,-448.962 1511.22,-447.208"/>
<polygon fill="midnightblue" stroke="midnightblue" points="1512.22,-450.574 1521.25,-445.047 1510.74,-443.731 1512.22,-450.574"/>
</g>
<!-- Node48 -->
<g id="node48" class="node"><title>Node48</title>
<g id="a_node48"><a xlink:href="xml__identifiable_8h.xhtml" target="_top" xlink:title="ePub3/utilities/xml\l_identifiable.h">
<polygon fill="white" stroke="black" points="493.705,-419 493.705,-451 590.295,-451 590.295,-419 493.705,-419"/>
<text text-anchor="start" x="501.705" y="-437" font-family="Helvetica,sans-Serif" font-size="10.00">ePub3/utilities/xml</text>
<text text-anchor="middle" x="542" y="-425" font-family="Helvetica,sans-Serif" font-size="10.00">_identifiable.h</text>
</a>
</g>
</g>
<!-- Node9&#45;&gt;Node48 -->
<g id="edge68" class="edge"><title>Node9&#45;&gt;Node48</title>
<path fill="none" stroke="midnightblue" d="M1049.8,-496.682C973.307,-493.084 770.534,-481.332 604,-452 602.905,-451.807 601.801,-451.605 600.691,-451.394"/>
<polygon fill="midnightblue" stroke="midnightblue" points="601.081,-447.901 590.579,-449.303 599.663,-454.756 601.081,-447.901"/>
</g>
<!-- Node29 -->
<g id="node29" class="node"><title>Node29</title>
<g id="a_node29"><a xlink:href="string__view_8h.xhtml" target="_top" xlink:title="ePub3/utilities/string\l_view.h">
<polygon fill="white" stroke="black" points="1257.25,-291 1257.25,-323 1362.75,-323 1362.75,-291 1257.25,-291"/>
<text text-anchor="start" x="1265.25" y="-309" font-family="Helvetica,sans-Serif" font-size="10.00">ePub3/utilities/string</text>
<text text-anchor="middle" x="1310" y="-297" font-family="Helvetica,sans-Serif" font-size="10.00">_view.h</text>
</a>
</g>
</g>
<!-- Node9&#45;&gt;Node29 -->
<g id="edge70" class="edge"><title>Node9&#45;&gt;Node29</title>
<path fill="none" stroke="midnightblue" d="M1112.29,-498.038C1230.47,-497.86 1644.89,-494.212 1684,-452 1777.7,-350.882 1502.33,-320.028 1373.05,-311.247"/>
<polygon fill="midnightblue" stroke="midnightblue" points="1373.09,-307.742 1362.88,-310.581 1372.63,-314.727 1373.09,-307.742"/>
</g>
<!-- Node20 -->
<g id="node20" class="node"><title>Node20</title>
<g id="a_node20"><a xlink:href="basic_8h.xhtml" target="_top" xlink:title="ePub3/utilities/basic.h">
<polygon fill="white" stroke="black" points="581.638,-297 581.638,-317 694.362,-317 694.362,-297 581.638,-297"/>
<text text-anchor="middle" x="638" y="-303" font-family="Helvetica,sans-Serif" font-size="10.00">ePub3/utilities/basic.h</text>
</a>
</g>
</g>
<!-- Node19&#45;&gt;Node20 -->
<g id="edge23" class="edge"><title>Node19&#45;&gt;Node20</title>
<path fill="none" stroke="midnightblue" d="M568.099,-360.852C581.18,-350.961 602.247,-335.033 617.838,-323.244"/>
<polygon fill="midnightblue" stroke="midnightblue" points="619.985,-326.009 625.851,-317.186 615.763,-320.425 619.985,-326.009"/>
</g>
<!-- Node28 -->
<g id="node28" class="node"><title>Node28</title>
<g id="a_node28"><a xlink:href="integer__sequence_8h.xhtml" target="_top" xlink:title="ePub3/utilities/integer\l_sequence.h">
<polygon fill="white" stroke="black" points="452.192,-291 452.192,-323 563.808,-323 563.808,-291 452.192,-291"/>
<text text-anchor="start" x="460.192" y="-309" font-family="Helvetica,sans-Serif" font-size="10.00">ePub3/utilities/integer</text>
<text text-anchor="middle" x="508" y="-297" font-family="Helvetica,sans-Serif" font-size="10.00">_sequence.h</text>
</a>
</g>
</g>
<!-- Node19&#45;&gt;Node28 -->
<g id="edge34" class="edge"><title>Node19&#45;&gt;Node28</title>
<path fill="none" stroke="midnightblue" d="M548.917,-360.852C542.968,-353.167 534.198,-341.839 526.301,-331.638"/>
<polygon fill="midnightblue" stroke="midnightblue" points="528.843,-329.205 519.954,-323.44 523.308,-333.49 528.843,-329.205"/>
</g>
<!-- Node19&#45;&gt;Node29 -->
<g id="edge36" class="edge"><title>Node19&#45;&gt;Node29</title>
<path fill="none" stroke="midnightblue" d="M618.488,-361.722C624.067,-361.095 629.632,-360.509 635,-360 887.706,-336.05 952.618,-351.146 1205,-324 1218.72,-322.524 1233.39,-320.544 1247.29,-318.48"/>
<polygon fill="midnightblue" stroke="midnightblue" points="1247.88,-321.93 1257.24,-316.969 1246.83,-315.01 1247.88,-321.93"/>
</g>
<!-- Node19&#45;&gt;Node10 -->
<g id="edge45" class="edge"><title>Node19&#45;&gt;Node10</title>
<path fill="none" stroke="midnightblue" d="M618.481,-361.64C624.061,-361.03 629.629,-360.471 635,-360 716.563,-352.854 1296.15,-357.171 1371,-324 1400.94,-310.733 1425.81,-280.816 1439.52,-261.563"/>
<polygon fill="midnightblue" stroke="midnightblue" points="1442.56,-263.316 1445.33,-253.088 1436.79,-259.36 1442.56,-263.316"/>
</g>
<!-- Node34 -->
<g id="node34" class="node"><title>Node34</title>
<polygon fill="white" stroke="#bfbfbf" points="52.4385,-297 52.4385,-317 99.5615,-317 99.5615,-297 52.4385,-297"/>
<text text-anchor="middle" x="76" y="-303" font-family="Helvetica,sans-Serif" font-size="10.00">iterator</text>
</g>
<!-- Node19&#45;&gt;Node34 -->
<g id="edge46" class="edge"><title>Node19&#45;&gt;Node34</title>
<path fill="none" stroke="midnightblue" d="M493.396,-361.591C488.865,-361.035 484.363,-360.499 480,-360 315.408,-341.192 268.479,-368.841 109,-324 106.389,-323.266 103.734,-322.333 101.121,-321.288"/>
<polygon fill="midnightblue" stroke="midnightblue" points="102.552,-318.094 91.9979,-317.166 99.6697,-324.473 102.552,-318.094"/>
</g>
<!-- Node35 -->
<g id="node35" class="node"><title>Node35</title>
<polygon fill="white" stroke="#bfbfbf" points="117.936,-297 117.936,-317 160.064,-317 160.064,-297 117.936,-297"/>
<text text-anchor="middle" x="139" y="-303" font-family="Helvetica,sans-Serif" font-size="10.00">locale</text>
</g>
<!-- Node19&#45;&gt;Node35 -->
<g id="edge47" class="edge"><title>Node19&#45;&gt;Node35</title>
<path fill="none" stroke="midnightblue" d="M493.385,-361.683C488.856,-361.105 484.358,-360.539 480,-360 341.907,-342.923 301.823,-365.466 169,-324 166.848,-323.328 164.671,-322.501 162.524,-321.579"/>
<polygon fill="midnightblue" stroke="midnightblue" points="163.991,-318.401 153.473,-317.126 160.9,-324.681 163.991,-318.401"/>
</g>
<!-- Node19&#45;&gt;Node11 -->
<g id="edge48" class="edge"><title>Node19&#45;&gt;Node11</title>
<path fill="none" stroke="midnightblue" d="M608.34,-360.937C637.861,-354.1 674.436,-342.617 703,-324 728.147,-307.61 749.597,-279.753 761.896,-261.617"/>
<polygon fill="midnightblue" stroke="midnightblue" points="764.904,-263.412 767.465,-253.131 759.052,-259.571 764.904,-263.412"/>
</g>
<!-- Node36 -->
<g id="node36" class="node"><title>Node36</title>
<polygon fill="white" stroke="#bfbfbf" points="177.766,-297 177.766,-317 278.234,-317 278.234,-297 177.766,-297"/>
<text text-anchor="middle" x="228" y="-303" font-family="Helvetica,sans-Serif" font-size="10.00">REGEX_INCLUDE</text>
</g>
<!-- Node19&#45;&gt;Node36 -->
<g id="edge49" class="edge"><title>Node19&#45;&gt;Node36</title>
<path fill="none" stroke="midnightblue" d="M493.953,-360.983C439.437,-352.672 358.1,-339.33 288,-324 282.063,-322.702 275.831,-321.199 269.722,-319.645"/>
<polygon fill="midnightblue" stroke="midnightblue" points="270.191,-316.151 259.631,-317.009 268.421,-322.923 270.191,-316.151"/>
</g>
<!-- Node19&#45;&gt;Node7 -->
<g id="edge50" class="edge"><title>Node19&#45;&gt;Node7</title>
<path fill="none" stroke="midnightblue" d="M493.404,-361.518C488.871,-360.98 484.367,-360.467 480,-360 286.224,-339.282 228.175,-384.734 43,-324 41.3381,-323.455 39.6726,-322.784 38.032,-322.03"/>
<polygon fill="midnightblue" stroke="midnightblue" points="39.5502,-318.87 29.1078,-317.079 36.1544,-324.991 39.5502,-318.87"/>
</g>
<!-- Node37 -->
<g id="node37" class="node"><title>Node37</title>
<polygon fill="white" stroke="#bfbfbf" points="296.599,-297 296.599,-317 355.401,-317 355.401,-297 296.599,-297"/>
<text text-anchor="middle" x="326" y="-303" font-family="Helvetica,sans-Serif" font-size="10.00">stdexcept</text>
</g>
<!-- Node19&#45;&gt;Node37 -->
<g id="edge51" class="edge"><title>Node19&#45;&gt;Node37</title>
<path fill="none" stroke="midnightblue" d="M509.916,-360.97C470.887,-352.832 413.679,-339.745 365,-324 362.032,-323.04 358.971,-321.956 355.93,-320.816"/>
<polygon fill="midnightblue" stroke="midnightblue" points="357.013,-317.481 346.426,-317.067 354.444,-323.992 357.013,-317.481"/>
</g>
<!-- Node30 -->
<g id="node30" class="node"><title>Node30</title>
<polygon fill="white" stroke="#bfbfbf" points="1139.61,-233 1139.61,-253 1178.39,-253 1178.39,-233 1139.61,-233"/>
<text text-anchor="middle" x="1159" y="-239" font-family="Helvetica,sans-Serif" font-size="10.00">limits</text>
</g>
<!-- Node19&#45;&gt;Node30 -->
<g id="edge52" class="edge"><title>Node19&#45;&gt;Node30</title>
<path fill="none" stroke="midnightblue" d="M618.522,-362.036C624.094,-361.342 629.648,-360.655 635,-360 770.487,-343.429 807.219,-355.631 940,-324 1010.36,-307.24 1089.18,-274.904 1130.39,-256.9"/>
<polygon fill="midnightblue" stroke="midnightblue" points="1131.81,-260.098 1139.55,-252.861 1128.98,-253.693 1131.81,-260.098"/>
</g>
<!-- Node38 -->
<g id="node38" class="node"><title>Node38</title>
<polygon fill="white" stroke="#bfbfbf" points="373.761,-297 373.761,-317 434.239,-317 434.239,-297 373.761,-297"/>
<text text-anchor="middle" x="404" y="-303" font-family="Helvetica,sans-Serif" font-size="10.00">utf8/utf8.h</text>
</g>
<!-- Node19&#45;&gt;Node38 -->
<g id="edge53" class="edge"><title>Node19&#45;&gt;Node38</title>
<path fill="none" stroke="midnightblue" d="M533.481,-360.854C510.669,-351.584 474.371,-336.82 443,-324 440.629,-323.031 438.177,-322.028 435.711,-321.018"/>
<polygon fill="midnightblue" stroke="midnightblue" points="436.85,-317.702 426.27,-317.148 434.195,-324.179 436.85,-317.702"/>
</g>
<!-- Node21 -->
<g id="node21" class="node"><title>Node21</title>
<g id="a_node21"><a xlink:href="base_8h.xhtml" target="_top" xlink:title="ePub3/base.h">
<polygon fill="white" stroke="black" points="649.141,-175 649.141,-195 726.859,-195 726.859,-175 649.141,-175"/>
<text text-anchor="middle" x="688" y="-181" font-family="Helvetica,sans-Serif" font-size="10.00">ePub3/base.h</text>
</a>
</g>
</g>
<!-- Node20&#45;&gt;Node21 -->
<g id="edge24" class="edge"><title>Node20&#45;&gt;Node21</title>
<path fill="none" stroke="midnightblue" d="M618.98,-296.861C593.853,-283.513 554.687,-257.491 572,-232 587.031,-209.869 614.552,-198.386 639.016,-192.427"/>
<polygon fill="midnightblue" stroke="midnightblue" points="639.89,-195.818 648.913,-190.265 638.396,-188.98 639.89,-195.818"/>
</g>
<!-- Node26 -->
<g id="node26" class="node"><title>Node26</title>
<polygon fill="white" stroke="#bfbfbf" points="580.815,-233 580.815,-253 695.185,-253 695.185,-233 580.815,-233"/>
<text text-anchor="middle" x="638" y="-239" font-family="Helvetica,sans-Serif" font-size="10.00">ePub3/xml/xmlstring.h</text>
</g>
<!-- Node20&#45;&gt;Node26 -->
<g id="edge29" class="edge"><title>Node20&#45;&gt;Node26</title>
<path fill="none" stroke="midnightblue" d="M638,-296.852C638,-288.06 638,-274.498 638,-263.313"/>
<polygon fill="midnightblue" stroke="midnightblue" points="641.5,-263.186 638,-253.186 634.5,-263.186 641.5,-263.186"/>
</g>
<!-- Node27 -->
<g id="node27" class="node"><title>Node27</title>
<polygon fill="white" stroke="#bfbfbf" points="473.219,-233 473.219,-253 524.781,-253 524.781,-233 473.219,-233"/>
<text text-anchor="middle" x="499" y="-239" font-family="Helvetica,sans-Serif" font-size="10.00">sstream</text>
</g>
<!-- Node20&#45;&gt;Node27 -->
<g id="edge30" class="edge"><title>Node20&#45;&gt;Node27</title>
<path fill="none" stroke="midnightblue" d="M617.788,-296.985C594.317,-286.516 555.395,-269.154 528.535,-257.174"/>
<polygon fill="midnightblue" stroke="midnightblue" points="529.795,-253.903 519.236,-253.026 526.943,-260.296 529.795,-253.903"/>
</g>
<!-- Node20&#45;&gt;Node5 -->
<g id="edge31" class="edge"><title>Node20&#45;&gt;Node5</title>
<path fill="none" stroke="midnightblue" d="M649.472,-296.735C672.065,-278.678 721.871,-239.851 742,-232 801.509,-208.789 990.848,-193.767 1070.81,-188.307"/>
<polygon fill="midnightblue" stroke="midnightblue" points="1071.15,-191.792 1080.9,-187.63 1070.68,-184.808 1071.15,-191.792"/>
</g>
<!-- Node20&#45;&gt;Node11 -->
<g id="edge32" class="edge"><title>Node20&#45;&gt;Node11</title>
<path fill="none" stroke="midnightblue" d="M657.63,-296.985C680.326,-286.561 717.897,-269.307 743.971,-257.332"/>
<polygon fill="midnightblue" stroke="midnightblue" points="745.719,-260.38 753.346,-253.026 742.798,-254.019 745.719,-260.38"/>
</g>
<!-- Node20&#45;&gt;Node8 -->
<g id="edge33" class="edge"><title>Node20&#45;&gt;Node8</title>
<path fill="none" stroke="midnightblue" d="M694.425,-297.066C759.605,-286.737 870.068,-269.204 965,-254 977.319,-252.027 991.013,-249.82 1002.39,-247.982"/>
<polygon fill="midnightblue" stroke="midnightblue" points="1003.16,-251.404 1012.47,-246.353 1002.04,-244.493 1003.16,-251.404"/>
</g>
<!-- Node22 -->
<g id="node22" class="node"><title>Node22</title>
<g id="a_node22"><a xlink:href="__config_8h.xhtml" target="_top" xlink:title="_config.h">
<polygon fill="white" stroke="black" points="624.707,-117 624.707,-137 681.293,-137 681.293,-117 624.707,-117"/>
<text text-anchor="middle" x="653" y="-123" font-family="Helvetica,sans-Serif" font-size="10.00">_config.h</text>
</a>
</g>
</g>
<!-- Node21&#45;&gt;Node22 -->
<g id="edge25" class="edge"><title>Node21&#45;&gt;Node22</title>
<path fill="none" stroke="midnightblue" d="M682.22,-174.753C677.277,-166.843 670.023,-155.237 663.98,-145.568"/>
<polygon fill="midnightblue" stroke="midnightblue" points="666.94,-143.7 658.672,-137.075 661.004,-147.41 666.94,-143.7"/>
</g>
<!-- Node25 -->
<g id="node25" class="node"><title>Node25</title>
<polygon fill="white" stroke="#bfbfbf" points="699.158,-117 699.158,-137 746.842,-137 746.842,-117 699.158,-117"/>
<text text-anchor="middle" x="723" y="-123" font-family="Helvetica,sans-Serif" font-size="10.00">stdlib.h</text>
</g>
<!-- Node21&#45;&gt;Node25 -->
<g id="edge28" class="edge"><title>Node21&#45;&gt;Node25</title>
<path fill="none" stroke="midnightblue" d="M693.78,-174.753C698.723,-166.843 705.977,-155.237 712.02,-145.568"/>
<polygon fill="midnightblue" stroke="midnightblue" points="714.996,-147.41 717.328,-137.075 709.06,-143.7 714.996,-147.41"/>
</g>
<!-- Node23 -->
<g id="node23" class="node"><title>Node23</title>
<g id="a_node23"><a xlink:href="__platform_8h.xhtml" target="_top" xlink:title="_platform.h">
<polygon fill="white" stroke="black" points="619.988,-59 619.988,-79 686.012,-79 686.012,-59 619.988,-59"/>
<text text-anchor="middle" x="653" y="-65" font-family="Helvetica,sans-Serif" font-size="10.00">_platform.h</text>
</a>
</g>
</g>
<!-- Node22&#45;&gt;Node23 -->
<g id="edge26" class="edge"><title>Node22&#45;&gt;Node23</title>
<path fill="none" stroke="midnightblue" d="M653,-116.753C653,-109.25 653,-98.4238 653,-89.0781"/>
<polygon fill="midnightblue" stroke="midnightblue" points="656.5,-89.0752 653,-79.0752 649.5,-89.0752 656.5,-89.0752"/>
</g>
<!-- Node24 -->
<g id="node24" class="node"><title>Node24</title>
<g id="a_node24"><a xlink:href="__compiler_8h.xhtml" target="_top" xlink:title="_compiler.h">
<polygon fill="white" stroke="black" points="619.429,-1 619.429,-21 686.571,-21 686.571,-1 619.429,-1"/>
<text text-anchor="middle" x="653" y="-7" font-family="Helvetica,sans-Serif" font-size="10.00">_compiler.h</text>
</a>
</g>
</g>
<!-- Node23&#45;&gt;Node24 -->
<g id="edge27" class="edge"><title>Node23&#45;&gt;Node24</title>
<path fill="none" stroke="midnightblue" d="M653,-58.7527C653,-51.2504 653,-40.4238 653,-31.0781"/>
<polygon fill="midnightblue" stroke="midnightblue" points="656.5,-31.0752 653,-21.0752 649.5,-31.0752 656.5,-31.0752"/>
</g>
<!-- Node28&#45;&gt;Node21 -->
<g id="edge35" class="edge"><title>Node28&#45;&gt;Node21</title>
<path fill="none" stroke="midnightblue" d="M488.37,-290.985C470.382,-275.414 448.697,-250.765 464,-232 485.598,-205.516 579.455,-193.849 638.613,-189.048"/>
<polygon fill="midnightblue" stroke="midnightblue" points="639.17,-192.515 648.87,-188.256 638.631,-185.536 639.17,-192.515"/>
</g>
<!-- Node29&#45;&gt;Node6 -->
<g id="edge37" class="edge"><title>Node29&#45;&gt;Node6</title>
<path fill="none" stroke="midnightblue" d="M1256.99,-290.992C1218.62,-280.13 1167.51,-265.661 1132.19,-255.662"/>
<polygon fill="midnightblue" stroke="midnightblue" points="1132.8,-252.195 1122.22,-252.839 1130.89,-258.931 1132.8,-252.195"/>
</g>
<!-- Node29&#45;&gt;Node10 -->
<g id="edge38" class="edge"><title>Node29&#45;&gt;Node10</title>
<path fill="none" stroke="midnightblue" d="M1344.13,-290.992C1367.7,-280.627 1398.74,-266.978 1421.29,-257.063"/>
<polygon fill="midnightblue" stroke="midnightblue" points="1422.95,-260.158 1430.69,-252.928 1420.13,-253.75 1422.95,-260.158"/>
</g>
<!-- Node29&#45;&gt;Node30 -->
<g id="edge39" class="edge"><title>Node29&#45;&gt;Node30</title>
<path fill="none" stroke="midnightblue" d="M1273.45,-290.992C1247.21,-280.219 1212.33,-265.899 1188.01,-255.91"/>
<polygon fill="midnightblue" stroke="midnightblue" points="1189.18,-252.608 1178.6,-252.048 1186.52,-259.084 1189.18,-252.608"/>
</g>
<!-- Node31 -->
<g id="node31" class="node"><title>Node31</title>
<polygon fill="white" stroke="#bfbfbf" points="1282.83,-233 1282.83,-253 1337.17,-253 1337.17,-233 1282.83,-233"/>
<text text-anchor="middle" x="1310" y="-239" font-family="Helvetica,sans-Serif" font-size="10.00">iostream</text>
</g>
<!-- Node29&#45;&gt;Node31 -->
<g id="edge40" class="edge"><title>Node29&#45;&gt;Node31</title>
<path fill="none" stroke="midnightblue" d="M1310,-290.992C1310,-282.726 1310,-272.373 1310,-263.489"/>
<polygon fill="midnightblue" stroke="midnightblue" points="1313.5,-263.29 1310,-253.29 1306.5,-263.29 1313.5,-263.29"/>
</g>
<!-- Node32 -->
<g id="node32" class="node"><title>Node32</title>
<polygon fill="white" stroke="#bfbfbf" points="1355.44,-233 1355.44,-253 1412.56,-253 1412.56,-233 1355.44,-233"/>
<text text-anchor="middle" x="1384" y="-239" font-family="Helvetica,sans-Serif" font-size="10.00">algorithm</text>
</g>
<!-- Node29&#45;&gt;Node32 -->
<g id="edge41" class="edge"><title>Node29&#45;&gt;Node32</title>
<path fill="none" stroke="midnightblue" d="M1327.91,-290.992C1339.2,-281.533 1353.76,-269.338 1365.21,-259.742"/>
<polygon fill="midnightblue" stroke="midnightblue" points="1367.49,-262.395 1372.91,-253.29 1363,-257.03 1367.49,-262.395"/>
</g>
<!-- Node33 -->
<g id="node33" class="node"><title>Node33</title>
<g id="a_node33"><a xlink:href="____strhash_8h.xhtml" target="_top" xlink:title="__strhash.h">
<polygon fill="white" stroke="black" points="1196.87,-233 1196.87,-253 1265.13,-253 1265.13,-233 1196.87,-233"/>
<text text-anchor="middle" x="1231" y="-239" font-family="Helvetica,sans-Serif" font-size="10.00">__strhash.h</text>
</a>
</g>
</g>
<!-- Node29&#45;&gt;Node33 -->
<g id="edge42" class="edge"><title>Node29&#45;&gt;Node33</title>
<path fill="none" stroke="midnightblue" d="M1290.88,-290.992C1278.82,-281.533 1263.29,-269.338 1251.06,-259.742"/>
<polygon fill="midnightblue" stroke="midnightblue" points="1252.87,-256.711 1242.84,-253.29 1248.54,-262.218 1252.87,-256.711"/>
</g>
<!-- Node33&#45;&gt;Node21 -->
<g id="edge43" class="edge"><title>Node33&#45;&gt;Node21</title>
<path fill="none" stroke="midnightblue" d="M1196.5,-233.707C1193.3,-233.075 1190.09,-232.492 1187,-232 1023.36,-205.978 827.009,-193.214 737.197,-188.384"/>
<polygon fill="midnightblue" stroke="midnightblue" points="737.209,-184.88 727.038,-187.848 736.84,-191.871 737.209,-184.88"/>
</g>
<!-- Node33&#45;&gt;Node5 -->
<g id="edge44" class="edge"><title>Node33&#45;&gt;Node5</title>
<path fill="none" stroke="midnightblue" d="M1210.8,-232.878C1190.63,-223.766 1159.39,-209.662 1136.46,-199.303"/>
<polygon fill="midnightblue" stroke="midnightblue" points="1137.74,-196.044 1127.19,-195.118 1134.86,-202.424 1137.74,-196.044"/>
</g>
<!-- Node39&#45;&gt;Node19 -->
<g id="edge55" class="edge"><title>Node39&#45;&gt;Node19</title>
<path fill="none" stroke="midnightblue" d="M674.788,-424.985C651.317,-414.516 612.395,-397.154 585.535,-385.174"/>
<polygon fill="midnightblue" stroke="midnightblue" points="586.795,-381.903 576.236,-381.026 583.943,-388.296 586.795,-381.903"/>
</g>
<!-- Node40 -->
<g id="node40" class="node"><title>Node40</title>
<g id="a_node40"><a xlink:href="make__unique_8h.xhtml" target="_top" xlink:title="ePub3/utilities/make\l_unique.h">
<polygon fill="white" stroke="black" points="826.254,-291 826.254,-323 931.746,-323 931.746,-291 826.254,-291"/>
<text text-anchor="start" x="834.254" y="-309" font-family="Helvetica,sans-Serif" font-size="10.00">ePub3/utilities/make</text>
<text text-anchor="middle" x="879" y="-297" font-family="Helvetica,sans-Serif" font-size="10.00">_unique.h</text>
</a>
</g>
</g>
<!-- Node39&#45;&gt;Node40 -->
<g id="edge56" class="edge"><title>Node39&#45;&gt;Node40</title>
<path fill="none" stroke="midnightblue" d="M709.074,-424.928C724.944,-414.655 751.474,-397.346 774,-382 799.757,-364.454 828.682,-344.013 849.641,-329.066"/>
<polygon fill="midnightblue" stroke="midnightblue" points="851.718,-331.883 857.821,-323.223 847.65,-326.187 851.718,-331.883"/>
</g>
<!-- Node43 -->
<g id="node43" class="node"><title>Node43</title>
<polygon fill="white" stroke="#bfbfbf" points="643.867,-361 643.867,-381 732.133,-381 732.133,-361 643.867,-361"/>
<text text-anchor="middle" x="688" y="-367" font-family="Helvetica,sans-Serif" font-size="10.00">google&#45;url/gurl.h</text>
</g>
<!-- Node39&#45;&gt;Node43 -->
<g id="edge62" class="edge"><title>Node39&#45;&gt;Node43</title>
<path fill="none" stroke="midnightblue" d="M693.967,-424.852C692.975,-416.06 691.443,-402.498 690.181,-391.313"/>
<polygon fill="midnightblue" stroke="midnightblue" points="693.637,-390.73 689.037,-381.186 686.681,-391.515 693.637,-390.73"/>
</g>
<!-- Node39&#45;&gt;Node11 -->
<g id="edge63" class="edge"><title>Node39&#45;&gt;Node11</title>
<path fill="none" stroke="midnightblue" d="M705.826,-424.778C716.403,-415.168 732.162,-399.141 741,-382 761.118,-342.981 768.739,-291.282 771.509,-263.557"/>
<polygon fill="midnightblue" stroke="midnightblue" points="775.026,-263.518 772.421,-253.249 768.053,-262.901 775.026,-263.518"/>
</g>
<!-- Node40&#45;&gt;Node21 -->
<g id="edge57" class="edge"><title>Node40&#45;&gt;Node21</title>
<path fill="none" stroke="midnightblue" d="M866.676,-290.873C852.686,-274.513 828.479,-248.558 803,-232 780.383,-217.302 752.32,-205.964 729.578,-198.221"/>
<polygon fill="midnightblue" stroke="midnightblue" points="730.459,-194.827 719.866,-195.021 728.268,-201.475 730.459,-194.827"/>
</g>
<!-- Node41 -->
<g id="node41" class="node"><title>Node41</title>
<polygon fill="white" stroke="#bfbfbf" points="850.879,-233 850.879,-253 899.121,-253 899.121,-233 850.879,-233"/>
<text text-anchor="middle" x="875" y="-239" font-family="Helvetica,sans-Serif" font-size="10.00">cstddef</text>
</g>
<!-- Node40&#45;&gt;Node41 -->
<g id="edge58" class="edge"><title>Node40&#45;&gt;Node41</title>
<path fill="none" stroke="midnightblue" d="M878.032,-290.992C877.498,-282.726 876.831,-272.373 876.257,-263.489"/>
<polygon fill="midnightblue" stroke="midnightblue" points="879.736,-263.044 875.599,-253.29 872.751,-263.495 879.736,-263.044"/>
</g>
<!-- Node40&#45;&gt;Node5 -->
<g id="edge59" class="edge"><title>Node40&#45;&gt;Node5</title>
<path fill="none" stroke="midnightblue" d="M904.041,-290.834C937.327,-270.709 993.118,-237.11 1003,-232 1026.62,-219.787 1054.17,-207.694 1074.98,-198.974"/>
<polygon fill="midnightblue" stroke="midnightblue" points="1076.42,-202.164 1084.31,-195.098 1073.74,-195.699 1076.42,-202.164"/>
</g>
<!-- Node40&#45;&gt;Node6 -->
<g id="edge60" class="edge"><title>Node40&#45;&gt;Node6</title>
<path fill="none" stroke="midnightblue" d="M930.319,-290.992C967.237,-280.195 1016.34,-265.835 1050.51,-255.842"/>
<polygon fill="midnightblue" stroke="midnightblue" points="1051.55,-259.185 1060.16,-253.018 1049.58,-252.466 1051.55,-259.185"/>
</g>
<!-- Node42 -->
<g id="node42" class="node"><title>Node42</title>
<polygon fill="white" stroke="#bfbfbf" points="917.608,-233 917.608,-253 956.392,-253 956.392,-233 917.608,-233"/>
<text text-anchor="middle" x="937" y="-239" font-family="Helvetica,sans-Serif" font-size="10.00">utility</text>
</g>
<!-- Node40&#45;&gt;Node42 -->
<g id="edge61" class="edge"><title>Node40&#45;&gt;Node42</title>
<path fill="none" stroke="midnightblue" d="M893.04,-290.992C901.545,-281.9 912.414,-270.281 921.217,-260.872"/>
<polygon fill="midnightblue" stroke="midnightblue" points="924.033,-262.984 928.309,-253.29 918.921,-258.202 924.033,-262.984"/>
</g>
<!-- Node48&#45;&gt;Node19 -->
<g id="edge69" class="edge"><title>Node48&#45;&gt;Node19</title>
<path fill="none" stroke="midnightblue" d="M545.389,-418.992C547.276,-410.635 549.645,-400.142 551.666,-391.194"/>
<polygon fill="midnightblue" stroke="midnightblue" points="555.114,-391.816 553.902,-381.29 548.285,-390.274 555.114,-391.816"/>
</g>
<!-- Node49&#45;&gt;Node3 -->
<g id="edge72" class="edge"><title>Node49&#45;&gt;Node3</title>
<path fill="none" stroke="midnightblue" d="M338.886,-488.852C349.277,-479.236 365.836,-463.913 378.455,-452.236"/>
<polygon fill="midnightblue" stroke="midnightblue" points="381.111,-454.547 386.073,-445.186 376.357,-449.409 381.111,-454.547"/>
</g>
<!-- Node49&#45;&gt;Node19 -->
<g id="edge73" class="edge"><title>Node49&#45;&gt;Node19</title>
<path fill="none" stroke="midnightblue" d="M297.882,-498.777C211.127,-499.996 -22.5151,-496.297 49,-418 77.6829,-386.597 349.864,-376.412 483.157,-373.291"/>
<polygon fill="midnightblue" stroke="midnightblue" points="483.367,-376.787 493.285,-373.061 483.208,-369.789 483.367,-376.787"/>
</g>
<!-- Node49&#45;&gt;Node39 -->
<g id="edge74" class="edge"><title>Node49&#45;&gt;Node39</title>
<path fill="none" stroke="midnightblue" d="M360.205,-492.714C421.253,-482.372 557.361,-459.316 635.943,-446.004"/>
<polygon fill="midnightblue" stroke="midnightblue" points="636.892,-449.393 646.167,-444.272 635.723,-442.492 636.892,-449.393"/>
</g>
<!-- Node49&#45;&gt;Node46 -->
<g id="edge75" class="edge"><title>Node49&#45;&gt;Node46</title>
<path fill="none" stroke="midnightblue" d="M315.13,-488.852C299.996,-478.87 275.537,-462.737 257.617,-450.918"/>
<polygon fill="midnightblue" stroke="midnightblue" points="259.202,-447.77 248.927,-445.186 255.348,-453.614 259.202,-447.77"/>
</g>
<!-- Node49&#45;&gt;Node48 -->
<g id="edge76" class="edge"><title>Node49&#45;&gt;Node48</title>
<path fill="none" stroke="midnightblue" d="M359.972,-488.985C392.376,-479.553 443.999,-464.526 484.008,-452.88"/>
<polygon fill="midnightblue" stroke="midnightblue" points="485.027,-456.229 493.65,-450.074 483.071,-449.508 485.027,-456.229"/>
</g>
<!-- Node49&#45;&gt;Node7 -->
<g id="edge77" class="edge"><title>Node49&#45;&gt;Node7</title>
<path fill="none" stroke="midnightblue" d="M297.745,-497.786C229.008,-496.615 67.9636,-489.803 32,-452 -0.0939543,-418.264 6.4059,-357.948 12.4499,-327.186"/>
<polygon fill="midnightblue" stroke="midnightblue" points="15.8964,-327.807 14.5837,-317.294 9.05376,-326.331 15.8964,-327.807"/>
</g>
<!-- Node49&#45;&gt;Node12 -->
<g id="edge78" class="edge"><title>Node49&#45;&gt;Node12</title>
<path fill="none" stroke="midnightblue" d="M297.785,-489.383C264.413,-480.164 209.954,-465.096 163,-452 158.113,-450.637 152.992,-449.205 147.908,-447.781"/>
<polygon fill="midnightblue" stroke="midnightblue" points="148.823,-444.402 138.249,-445.073 146.933,-451.143 148.823,-444.402"/>
</g>
</g>
</svg>
