<?xml version="1.0" encoding="UTF-8" standalone="no"?>
<!DOCTYPE svg PUBLIC "-//W3C//DTD SVG 1.1//EN"
 "http://www.w3.org/Graphics/SVG/1.1/DTD/svg11.dtd">
<!-- Generated by graphviz version 2.30.0 (20130114.0426)
 -->
<!-- Title: /Users/rkwright/Documents/github/readium&#45;sdk&#45;D/ePub3/ePub/media&#45;overlays_smil_data.h Pages: 1 -->
<svg width="416pt" height="242pt"
 viewBox="0.00 0.00 416.00 242.00" xmlns="http://www.w3.org/2000/svg" xmlns:xlink="http://www.w3.org/1999/xlink">
<g id="graph0" class="graph" transform="scale(1 1) rotate(0) translate(4 238)">
<title>/Users/rkwright/Documents/github/readium&#45;sdk&#45;D/ePub3/ePub/media&#45;overlays_smil_data.h</title>
<polygon fill="white" stroke="white" points="-4,5 -4,-238 413,-238 413,5 -4,5"/>
<!-- Node1 -->
<g id="node1" class="node"><title>Node1</title>
<polygon fill="#bfbfbf" stroke="black" points="78.2935,-189 78.2935,-233 247.707,-233 247.707,-189 78.2935,-189"/>
<text text-anchor="start" x="86.2935" y="-219" font-family="Helvetica,sans-Serif" font-size="10.00">/Users/rkwright/Documents</text>
<text text-anchor="start" x="86.2935" y="-207" font-family="Helvetica,sans-Serif" font-size="10.00">/github/readium&#45;sdk&#45;D/ePub3</text>
<text text-anchor="middle" x="163" y="-195" font-family="Helvetica,sans-Serif" font-size="10.00">/ePub/media&#45;overlays_smil_data.h</text>
</g>
<!-- Node2 -->
<g id="node2" class="node"><title>Node2</title>
<g id="a_node2"><a xlink:href="media-overlays__smil__data_8cpp.xhtml" target="_top" xlink:title="/Users/rkwright/Documents\l/github/readium&#45;sdk&#45;D/ePub3\l/ePub/media&#45;overlays_smil\l_data.cpp">
<polygon fill="white" stroke="black" points="-0.0341797,-95 -0.0341797,-151 146.034,-151 146.034,-95 -0.0341797,-95"/>
<text text-anchor="start" x="7.96582" y="-137" font-family="Helvetica,sans-Serif" font-size="10.00">/Users/rkwright/Documents</text>
<text text-anchor="start" x="7.96582" y="-125" font-family="Helvetica,sans-Serif" font-size="10.00">/github/readium&#45;sdk&#45;D/ePub3</text>
<text text-anchor="start" x="7.96582" y="-113" font-family="Helvetica,sans-Serif" font-size="10.00">/ePub/media&#45;overlays_smil</text>
<text text-anchor="middle" x="73" y="-101" font-family="Helvetica,sans-Serif" font-size="10.00">_data.cpp</text>
</a>
</g>
</g>
<!-- Node1&#45;&gt;Node2 -->
<g id="edge1" class="edge"><title>Node1&#45;&gt;Node2</title>
<path fill="none" stroke="midnightblue" d="M133.507,-181.818C123.207,-171.976 111.672,-160.953 101.457,-151.192"/>
<polygon fill="midnightblue" stroke="midnightblue" points="131.105,-184.363 140.753,-188.742 135.941,-179.302 131.105,-184.363"/>
</g>
<!-- Node3 -->
<g id="node3" class="node"><title>Node3</title>
<g id="a_node3"><a xlink:href="media-overlays__smil__model_8h.xhtml" target="_top" xlink:title="/Users/rkwright/Documents\l/github/readium&#45;sdk&#45;D/ePub3\l/ePub/media&#45;overlays_smil_model.h">
<polygon fill="white" stroke="black" points="164.407,-101 164.407,-145 341.593,-145 341.593,-101 164.407,-101"/>
<text text-anchor="start" x="172.407" y="-131" font-family="Helvetica,sans-Serif" font-size="10.00">/Users/rkwright/Documents</text>
<text text-anchor="start" x="172.407" y="-119" font-family="Helvetica,sans-Serif" font-size="10.00">/github/readium&#45;sdk&#45;D/ePub3</text>
<text text-anchor="middle" x="253" y="-107" font-family="Helvetica,sans-Serif" font-size="10.00">/ePub/media&#45;overlays_smil_model.h</text>
</a>
</g>
</g>
<!-- Node1&#45;&gt;Node3 -->
<g id="edge2" class="edge"><title>Node1&#45;&gt;Node3</title>
<path fill="none" stroke="midnightblue" d="M192.751,-181.571C205.236,-169.642 219.496,-156.015 231.009,-145.014"/>
<polygon fill="midnightblue" stroke="midnightblue" points="190.059,-179.302 185.247,-188.742 194.895,-184.363 190.059,-179.302"/>
</g>
<!-- Node4 -->
<g id="node4" class="node"><title>Node4</title>
<g id="a_node4"><a xlink:href="media-overlays__smil__model_8cpp.xhtml" target="_top" xlink:title="/Users/rkwright/Documents\l/github/readium&#45;sdk&#45;D/ePub3\l/ePub/media&#45;overlays_smil\l_model.cpp">
<polygon fill="white" stroke="black" points="97.9658,-1 97.9658,-57 244.034,-57 244.034,-1 97.9658,-1"/>
<text text-anchor="start" x="105.966" y="-43" font-family="Helvetica,sans-Serif" font-size="10.00">/Users/rkwright/Documents</text>
<text text-anchor="start" x="105.966" y="-31" font-family="Helvetica,sans-Serif" font-size="10.00">/github/readium&#45;sdk&#45;D/ePub3</text>
<text text-anchor="start" x="105.966" y="-19" font-family="Helvetica,sans-Serif" font-size="10.00">/ePub/media&#45;overlays_smil</text>
<text text-anchor="middle" x="171" y="-7" font-family="Helvetica,sans-Serif" font-size="10.00">_model.cpp</text>
</a>
</g>
</g>
<!-- Node3&#45;&gt;Node4 -->
<g id="edge3" class="edge"><title>Node3&#45;&gt;Node4</title>
<path fill="none" stroke="midnightblue" d="M227.178,-93.0287C216.957,-81.5618 205.272,-68.451 195.215,-57.1675"/>
<polygon fill="midnightblue" stroke="midnightblue" points="224.715,-95.5258 233.981,-100.662 229.941,-90.8681 224.715,-95.5258"/>
</g>
<!-- Node5 -->
<g id="node5" class="node"><title>Node5</title>
<g id="a_node5"><a xlink:href="package_8cpp.xhtml" target="_top" xlink:title="/Users/rkwright/Documents\l/github/readium&#45;sdk&#45;D/ePub3\l/ePub/package.cpp">
<polygon fill="white" stroke="black" points="261.966,-7 261.966,-51 408.034,-51 408.034,-7 261.966,-7"/>
<text text-anchor="start" x="269.966" y="-37" font-family="Helvetica,sans-Serif" font-size="10.00">/Users/rkwright/Documents</text>
<text text-anchor="start" x="269.966" y="-25" font-family="Helvetica,sans-Serif" font-size="10.00">/github/readium&#45;sdk&#45;D/ePub3</text>
<text text-anchor="middle" x="335" y="-13" font-family="Helvetica,sans-Serif" font-size="10.00">/ePub/package.cpp</text>
</a>
</g>
</g>
<!-- Node3&#45;&gt;Node5 -->
<g id="edge4" class="edge"><title>Node3&#45;&gt;Node5</title>
<path fill="none" stroke="midnightblue" d="M278.851,-92.9962C290.921,-79.4542 305.03,-63.6253 316.085,-51.2222"/>
<polygon fill="midnightblue" stroke="midnightblue" points="276.059,-90.8681 272.019,-100.662 281.285,-95.5258 276.059,-90.8681"/>
</g>
</g>
</svg>
