<?xml version="1.0" encoding="UTF-8" standalone="no"?>
<!DOCTYPE svg PUBLIC "-//W3C//DTD SVG 1.1//EN"
 "http://www.w3.org/Graphics/SVG/1.1/DTD/svg11.dtd">
<!-- Generated by graphviz version 2.30.0 (20130114.0426)
 -->
<!-- Title: /Users/rkwright/Documents/github/readium&#45;sdk&#45;D/ePub3/ePub/media&#45;overlays_smil_utils.h Pages: 1 -->
<svg width="1201pt" height="472pt"
 viewBox="0.00 0.00 1200.87 472.00" xmlns="http://www.w3.org/2000/svg" xmlns:xlink="http://www.w3.org/1999/xlink">
<g id="graph0" class="graph" transform="scale(1 1) rotate(0) translate(4 468)">
<title>/Users/rkwright/Documents/github/readium&#45;sdk&#45;D/ePub3/ePub/media&#45;overlays_smil_utils.h</title>
<polygon fill="white" stroke="white" points="-4,5 -4,-468 1197.87,-468 1197.87,5 -4,5"/>
<!-- Node1 -->
<g id="node1" class="node"><title>Node1</title>
<polygon fill="#bfbfbf" stroke="black" points="895.003,-419 895.003,-463 1062.74,-463 1062.74,-419 895.003,-419"/>
<text text-anchor="start" x="903.003" y="-449" font-family="Helvetica,sans-Serif" font-size="10.00">/Users/rkwright/Documents</text>
<text text-anchor="start" x="903.003" y="-437" font-family="Helvetica,sans-Serif" font-size="10.00">/github/readium&#45;sdk&#45;D/ePub3</text>
<text text-anchor="middle" x="978.87" y="-425" font-family="Helvetica,sans-Serif" font-size="10.00">/ePub/media&#45;overlays_smil_utils.h</text>
</g>
<!-- Node2 -->
<g id="node2" class="node"><title>Node2</title>
<g id="a_node2"><a xlink:href="base_8h.xhtml" target="_top" xlink:title="ePub3/base.h">
<polygon fill="white" stroke="black" points="196.01,-175 196.01,-195 273.729,-195 273.729,-175 196.01,-175"/>
<text text-anchor="middle" x="234.87" y="-181" font-family="Helvetica,sans-Serif" font-size="10.00">ePub3/base.h</text>
</a>
</g>
</g>
<!-- Node1&#45;&gt;Node2 -->
<g id="edge1" class="edge"><title>Node1&#45;&gt;Node2</title>
<path fill="none" stroke="midnightblue" d="M894.764,-436.24C669.904,-425.326 67.9143,-390.14 9.86961,-324 -28.2944,-280.514 62.1817,-234.751 66.8696,-232 103.663,-210.408 150.923,-198.645 185.941,-192.434"/>
<polygon fill="midnightblue" stroke="midnightblue" points="186.65,-195.864 195.931,-190.753 185.489,-188.961 186.65,-195.864"/>
</g>
<!-- Node7 -->
<g id="node7" class="node"><title>Node7</title>
<polygon fill="white" stroke="#bfbfbf" points="1007.25,-361 1007.25,-381 1050.49,-381 1050.49,-361 1007.25,-361"/>
<text text-anchor="middle" x="1028.87" y="-367" font-family="Helvetica,sans-Serif" font-size="10.00">cmath</text>
</g>
<!-- Node1&#45;&gt;Node7 -->
<g id="edge6" class="edge"><title>Node1&#45;&gt;Node7</title>
<path fill="none" stroke="midnightblue" d="M994.416,-418.857C1001.38,-409.383 1009.5,-398.347 1016.1,-389.366"/>
<polygon fill="midnightblue" stroke="midnightblue" points="1019,-391.334 1022.1,-381.204 1013.36,-387.187 1019,-391.334"/>
</g>
<!-- Node8 -->
<g id="node8" class="node"><title>Node8</title>
<polygon fill="white" stroke="#bfbfbf" points="1012.09,-233 1012.09,-253 1063.65,-253 1063.65,-233 1012.09,-233"/>
<text text-anchor="middle" x="1037.87" y="-239" font-family="Helvetica,sans-Serif" font-size="10.00">sstream</text>
</g>
<!-- Node1&#45;&gt;Node8 -->
<g id="edge7" class="edge"><title>Node1&#45;&gt;Node8</title>
<path fill="none" stroke="midnightblue" d="M983.306,-418.796C986.842,-402.586 992.137,-379.741 997.87,-360 1007.97,-325.209 1022.31,-285.449 1030.79,-262.677"/>
<polygon fill="midnightblue" stroke="midnightblue" points="1034.1,-263.815 1034.34,-253.222 1027.55,-261.353 1034.1,-263.815"/>
</g>
<!-- Node9 -->
<g id="node9" class="node"><title>Node9</title>
<g id="a_node9"><a xlink:href="utfstring_8h.xhtml" target="_top" xlink:title="ePub3/utilities/utfstring.h">
<polygon fill="white" stroke="black" points="461.395,-361 461.395,-381 586.345,-381 586.345,-361 461.395,-361"/>
<text text-anchor="middle" x="523.87" y="-367" font-family="Helvetica,sans-Serif" font-size="10.00">ePub3/utilities/utfstring.h</text>
</a>
</g>
</g>
<!-- Node1&#45;&gt;Node9 -->
<g id="edge8" class="edge"><title>Node1&#45;&gt;Node9</title>
<path fill="none" stroke="midnightblue" d="M894.885,-427.449C808.453,-414.531 675.31,-394.633 594.23,-382.515"/>
<polygon fill="midnightblue" stroke="midnightblue" points="594.528,-379.021 584.12,-381.005 593.493,-385.944 594.528,-379.021"/>
</g>
<!-- Node29 -->
<g id="node29" class="node"><title>Node29</title>
<polygon fill="white" stroke="#bfbfbf" points="1068.1,-361 1068.1,-381 1193.64,-381 1193.64,-361 1068.1,-361"/>
<text text-anchor="middle" x="1130.87" y="-367" font-family="Helvetica,sans-Serif" font-size="10.00">ePub3/property_holder.h</text>
</g>
<!-- Node1&#45;&gt;Node29 -->
<g id="edge36" class="edge"><title>Node1&#45;&gt;Node29</title>
<path fill="none" stroke="midnightblue" d="M1026.13,-418.857C1050.77,-407.835 1080.13,-394.699 1101.49,-385.144"/>
<polygon fill="midnightblue" stroke="midnightblue" points="1102.99,-388.305 1110.69,-381.027 1100.14,-381.915 1102.99,-388.305"/>
</g>
<!-- Node3 -->
<g id="node3" class="node"><title>Node3</title>
<g id="a_node3"><a xlink:href="__config_8h.xhtml" target="_top" xlink:title="_config.h">
<polygon fill="white" stroke="black" points="171.577,-117 171.577,-137 228.163,-137 228.163,-117 171.577,-117"/>
<text text-anchor="middle" x="199.87" y="-123" font-family="Helvetica,sans-Serif" font-size="10.00">_config.h</text>
</a>
</g>
</g>
<!-- Node2&#45;&gt;Node3 -->
<g id="edge2" class="edge"><title>Node2&#45;&gt;Node3</title>
<path fill="none" stroke="midnightblue" d="M229.09,-174.753C224.146,-166.843 216.893,-155.237 210.85,-145.568"/>
<polygon fill="midnightblue" stroke="midnightblue" points="213.81,-143.7 205.542,-137.075 207.874,-147.41 213.81,-143.7"/>
</g>
<!-- Node6 -->
<g id="node6" class="node"><title>Node6</title>
<polygon fill="white" stroke="#bfbfbf" points="246.027,-117 246.027,-137 293.712,-137 293.712,-117 246.027,-117"/>
<text text-anchor="middle" x="269.87" y="-123" font-family="Helvetica,sans-Serif" font-size="10.00">stdlib.h</text>
</g>
<!-- Node2&#45;&gt;Node6 -->
<g id="edge5" class="edge"><title>Node2&#45;&gt;Node6</title>
<path fill="none" stroke="midnightblue" d="M240.649,-174.753C245.593,-166.843 252.846,-155.237 258.889,-145.568"/>
<polygon fill="midnightblue" stroke="midnightblue" points="261.866,-147.41 264.198,-137.075 255.93,-143.7 261.866,-147.41"/>
</g>
<!-- Node4 -->
<g id="node4" class="node"><title>Node4</title>
<g id="a_node4"><a xlink:href="__platform_8h.xhtml" target="_top" xlink:title="_platform.h">
<polygon fill="white" stroke="black" points="166.857,-59 166.857,-79 232.882,-79 232.882,-59 166.857,-59"/>
<text text-anchor="middle" x="199.87" y="-65" font-family="Helvetica,sans-Serif" font-size="10.00">_platform.h</text>
</a>
</g>
</g>
<!-- Node3&#45;&gt;Node4 -->
<g id="edge3" class="edge"><title>Node3&#45;&gt;Node4</title>
<path fill="none" stroke="midnightblue" d="M199.87,-116.753C199.87,-109.25 199.87,-98.4238 199.87,-89.0781"/>
<polygon fill="midnightblue" stroke="midnightblue" points="203.37,-89.0752 199.87,-79.0752 196.37,-89.0752 203.37,-89.0752"/>
</g>
<!-- Node5 -->
<g id="node5" class="node"><title>Node5</title>
<g id="a_node5"><a xlink:href="__compiler_8h.xhtml" target="_top" xlink:title="_compiler.h">
<polygon fill="white" stroke="black" points="166.298,-1 166.298,-21 233.441,-21 233.441,-1 166.298,-1"/>
<text text-anchor="middle" x="199.87" y="-7" font-family="Helvetica,sans-Serif" font-size="10.00">_compiler.h</text>
</a>
</g>
</g>
<!-- Node4&#45;&gt;Node5 -->
<g id="edge4" class="edge"><title>Node4&#45;&gt;Node5</title>
<path fill="none" stroke="midnightblue" d="M199.87,-58.7527C199.87,-51.2504 199.87,-40.4238 199.87,-31.0781"/>
<polygon fill="midnightblue" stroke="midnightblue" points="203.37,-31.0752 199.87,-21.0752 196.37,-31.0752 203.37,-31.0752"/>
</g>
<!-- Node10 -->
<g id="node10" class="node"><title>Node10</title>
<g id="a_node10"><a xlink:href="basic_8h.xhtml" target="_top" xlink:title="ePub3/utilities/basic.h">
<polygon fill="white" stroke="black" points="838.508,-297 838.508,-317 951.231,-317 951.231,-297 838.508,-297"/>
<text text-anchor="middle" x="894.87" y="-303" font-family="Helvetica,sans-Serif" font-size="10.00">ePub3/utilities/basic.h</text>
</a>
</g>
</g>
<!-- Node9&#45;&gt;Node10 -->
<g id="edge9" class="edge"><title>Node9&#45;&gt;Node10</title>
<path fill="none" stroke="midnightblue" d="M586.356,-361.807C647.393,-353.485 742.82,-339.625 824.87,-324 832.278,-322.589 840.093,-320.952 847.71,-319.274"/>
<polygon fill="midnightblue" stroke="midnightblue" points="848.569,-322.668 857.558,-317.06 847.034,-315.838 848.569,-322.668"/>
</g>
<!-- Node15 -->
<g id="node15" class="node"><title>Node15</title>
<g id="a_node15"><a xlink:href="integer__sequence_8h.xhtml" target="_top" xlink:title="ePub3/utilities/integer\l_sequence.h">
<polygon fill="white" stroke="black" points="19.062,-291 19.062,-323 130.677,-323 130.677,-291 19.062,-291"/>
<text text-anchor="start" x="27.062" y="-309" font-family="Helvetica,sans-Serif" font-size="10.00">ePub3/utilities/integer</text>
<text text-anchor="middle" x="74.8696" y="-297" font-family="Helvetica,sans-Serif" font-size="10.00">_sequence.h</text>
</a>
</g>
</g>
<!-- Node9&#45;&gt;Node15 -->
<g id="edge16" class="edge"><title>Node9&#45;&gt;Node15</title>
<path fill="none" stroke="midnightblue" d="M461.207,-364.408C385.811,-357.216 255.545,-343.311 144.87,-324 143.592,-323.777 142.302,-323.546 141.003,-323.307"/>
<polygon fill="midnightblue" stroke="midnightblue" points="141.413,-319.821 130.93,-321.353 140.08,-326.693 141.413,-319.821"/>
</g>
<!-- Node16 -->
<g id="node16" class="node"><title>Node16</title>
<g id="a_node16"><a xlink:href="string__view_8h.xhtml" target="_top" xlink:title="ePub3/utilities/string\l_view.h">
<polygon fill="white" stroke="black" points="187.124,-291 187.124,-323 292.616,-323 292.616,-291 187.124,-291"/>
<text text-anchor="start" x="195.124" y="-309" font-family="Helvetica,sans-Serif" font-size="10.00">ePub3/utilities/string</text>
<text text-anchor="middle" x="239.87" y="-297" font-family="Helvetica,sans-Serif" font-size="10.00">_view.h</text>
</a>
</g>
</g>
<!-- Node9&#45;&gt;Node16 -->
<g id="edge18" class="edge"><title>Node9&#45;&gt;Node16</title>
<path fill="none" stroke="midnightblue" d="M476.292,-360.946C433.244,-352.583 367.876,-339.462 302.752,-324.385"/>
<polygon fill="midnightblue" stroke="midnightblue" points="303.262,-320.91 292.728,-322.048 301.672,-327.727 303.262,-320.91"/>
</g>
<!-- Node18 -->
<g id="node18" class="node"><title>Node18</title>
<polygon fill="white" stroke="#bfbfbf" points="88.643,-233 88.643,-253 129.096,-253 129.096,-233 88.643,-233"/>
<text text-anchor="middle" x="108.87" y="-239" font-family="Helvetica,sans-Serif" font-size="10.00">string</text>
</g>
<!-- Node9&#45;&gt;Node18 -->
<g id="edge27" class="edge"><title>Node9&#45;&gt;Node18</title>
<path fill="none" stroke="midnightblue" d="M461.381,-366.998C375.312,-361.972 225.512,-349.758 177.87,-324 163.893,-316.444 137.232,-282.475 121.456,-261.304"/>
<polygon fill="midnightblue" stroke="midnightblue" points="124.181,-259.102 115.43,-253.129 118.546,-263.255 124.181,-259.102"/>
</g>
<!-- Node23 -->
<g id="node23" class="node"><title>Node23</title>
<polygon fill="white" stroke="#bfbfbf" points="310.308,-297 310.308,-317 357.431,-317 357.431,-297 310.308,-297"/>
<text text-anchor="middle" x="333.87" y="-303" font-family="Helvetica,sans-Serif" font-size="10.00">iterator</text>
</g>
<!-- Node9&#45;&gt;Node23 -->
<g id="edge28" class="edge"><title>Node9&#45;&gt;Node23</title>
<path fill="none" stroke="midnightblue" d="M486.494,-360.924C454.316,-352.668 406.883,-339.438 366.87,-324 364.746,-323.181 362.572,-322.278 360.403,-321.332"/>
<polygon fill="midnightblue" stroke="midnightblue" points="361.643,-318.049 351.098,-317.022 358.701,-324.401 361.643,-318.049"/>
</g>
<!-- Node24 -->
<g id="node24" class="node"><title>Node24</title>
<polygon fill="white" stroke="#bfbfbf" points="375.806,-297 375.806,-317 417.934,-317 417.934,-297 375.806,-297"/>
<text text-anchor="middle" x="396.87" y="-303" font-family="Helvetica,sans-Serif" font-size="10.00">locale</text>
</g>
<!-- Node9&#45;&gt;Node24 -->
<g id="edge29" class="edge"><title>Node9&#45;&gt;Node24</title>
<path fill="none" stroke="midnightblue" d="M505.403,-360.985C484.146,-350.607 449.018,-333.458 424.503,-321.49"/>
<polygon fill="midnightblue" stroke="midnightblue" points="425.881,-318.268 415.359,-317.026 422.81,-324.559 425.881,-318.268"/>
</g>
<!-- Node13 -->
<g id="node13" class="node"><title>Node13</title>
<polygon fill="white" stroke="#bfbfbf" points="694.254,-233 694.254,-253 737.485,-253 737.485,-233 694.254,-233"/>
<text text-anchor="middle" x="715.87" y="-239" font-family="Helvetica,sans-Serif" font-size="10.00">vector</text>
</g>
<!-- Node9&#45;&gt;Node13 -->
<g id="edge30" class="edge"><title>Node9&#45;&gt;Node13</title>
<path fill="none" stroke="midnightblue" d="M586.466,-368.256C657.277,-364.808 766.121,-354.545 791.87,-324 801.609,-312.446 799.289,-303.164 791.87,-290 782.247,-272.928 763.454,-261.471 746.964,-254.261"/>
<polygon fill="midnightblue" stroke="midnightblue" points="748.192,-250.982 737.608,-250.496 745.578,-257.476 748.192,-250.982"/>
</g>
<!-- Node25 -->
<g id="node25" class="node"><title>Node25</title>
<polygon fill="white" stroke="#bfbfbf" points="473.636,-297 473.636,-317 574.103,-317 574.103,-297 473.636,-297"/>
<text text-anchor="middle" x="523.87" y="-303" font-family="Helvetica,sans-Serif" font-size="10.00">REGEX_INCLUDE</text>
</g>
<!-- Node9&#45;&gt;Node25 -->
<g id="edge31" class="edge"><title>Node9&#45;&gt;Node25</title>
<path fill="none" stroke="midnightblue" d="M523.87,-360.852C523.87,-352.06 523.87,-338.498 523.87,-327.313"/>
<polygon fill="midnightblue" stroke="midnightblue" points="527.37,-327.186 523.87,-317.186 520.37,-327.186 527.37,-327.186"/>
</g>
<!-- Node26 -->
<g id="node26" class="node"><title>Node26</title>
<polygon fill="white" stroke="#bfbfbf" points="592.143,-297 592.143,-317 627.596,-317 627.596,-297 592.143,-297"/>
<text text-anchor="middle" x="609.87" y="-303" font-family="Helvetica,sans-Serif" font-size="10.00">map</text>
</g>
<!-- Node9&#45;&gt;Node26 -->
<g id="edge32" class="edge"><title>Node9&#45;&gt;Node26</title>
<path fill="none" stroke="midnightblue" d="M536.559,-360.852C550.278,-350.961 572.373,-335.033 588.724,-323.244"/>
<polygon fill="midnightblue" stroke="midnightblue" points="591.063,-325.873 597.128,-317.186 586.969,-320.195 591.063,-325.873"/>
</g>
<!-- Node27 -->
<g id="node27" class="node"><title>Node27</title>
<polygon fill="white" stroke="#bfbfbf" points="645.468,-297 645.468,-317 704.271,-317 704.271,-297 645.468,-297"/>
<text text-anchor="middle" x="674.87" y="-303" font-family="Helvetica,sans-Serif" font-size="10.00">stdexcept</text>
</g>
<!-- Node9&#45;&gt;Node27 -->
<g id="edge33" class="edge"><title>Node9&#45;&gt;Node27</title>
<path fill="none" stroke="midnightblue" d="M545.826,-360.985C571.547,-350.424 614.349,-332.849 643.55,-320.86"/>
<polygon fill="midnightblue" stroke="midnightblue" points="644.965,-324.062 652.886,-317.026 642.306,-317.587 644.965,-324.062"/>
</g>
<!-- Node19 -->
<g id="node19" class="node"><title>Node19</title>
<polygon fill="white" stroke="#bfbfbf" points="461.483,-233 461.483,-253 500.256,-253 500.256,-233 461.483,-233"/>
<text text-anchor="middle" x="480.87" y="-239" font-family="Helvetica,sans-Serif" font-size="10.00">limits</text>
</g>
<!-- Node9&#45;&gt;Node19 -->
<g id="edge34" class="edge"><title>Node9&#45;&gt;Node19</title>
<path fill="none" stroke="midnightblue" d="M504.585,-360.941C490.719,-353.26 473.077,-340.806 464.87,-324 455.296,-304.396 463.035,-279.421 470.72,-262.635"/>
<polygon fill="midnightblue" stroke="midnightblue" points="474.013,-263.874 475.342,-253.363 467.748,-260.751 474.013,-263.874"/>
</g>
<!-- Node28 -->
<g id="node28" class="node"><title>Node28</title>
<polygon fill="white" stroke="#bfbfbf" points="722.631,-297 722.631,-317 783.108,-317 783.108,-297 722.631,-297"/>
<text text-anchor="middle" x="752.87" y="-303" font-family="Helvetica,sans-Serif" font-size="10.00">utf8/utf8.h</text>
</g>
<!-- Node9&#45;&gt;Node28 -->
<g id="edge35" class="edge"><title>Node9&#45;&gt;Node28</title>
<path fill="none" stroke="midnightblue" d="M568.661,-360.974C607.272,-352.75 664.301,-339.538 712.87,-324 716.004,-322.997 719.243,-321.867 722.457,-320.681"/>
<polygon fill="midnightblue" stroke="midnightblue" points="723.83,-323.903 731.899,-317.037 721.31,-317.373 723.83,-323.903"/>
</g>
<!-- Node10&#45;&gt;Node2 -->
<g id="edge10" class="edge"><title>Node10&#45;&gt;Node2</title>
<path fill="none" stroke="midnightblue" d="M874.381,-296.849C852.127,-286.786 815.636,-269.923 784.87,-254 767.196,-244.853 764.872,-237.913 745.87,-232 660.49,-205.431 394.725,-192.243 284.033,-187.789"/>
<polygon fill="midnightblue" stroke="midnightblue" points="283.946,-184.283 273.816,-187.385 283.67,-191.278 283.946,-184.283"/>
</g>
<!-- Node11 -->
<g id="node11" class="node"><title>Node11</title>
<polygon fill="white" stroke="#bfbfbf" points="879.685,-233 879.685,-253 994.054,-253 994.054,-233 879.685,-233"/>
<text text-anchor="middle" x="936.87" y="-239" font-family="Helvetica,sans-Serif" font-size="10.00">ePub3/xml/xmlstring.h</text>
</g>
<!-- Node10&#45;&gt;Node11 -->
<g id="edge11" class="edge"><title>Node10&#45;&gt;Node11</title>
<path fill="none" stroke="midnightblue" d="M901.067,-296.852C907.333,-287.602 917.176,-273.072 924.957,-261.586"/>
<polygon fill="midnightblue" stroke="midnightblue" points="927.936,-263.428 930.647,-253.186 922.141,-259.502 927.936,-263.428"/>
</g>
<!-- Node10&#45;&gt;Node8 -->
<g id="edge12" class="edge"><title>Node10&#45;&gt;Node8</title>
<path fill="none" stroke="midnightblue" d="M915.663,-296.985C939.915,-286.47 980.204,-269.002 1007.85,-257.017"/>
<polygon fill="midnightblue" stroke="midnightblue" points="1009.27,-260.215 1017.05,-253.026 1006.48,-253.793 1009.27,-260.215"/>
</g>
<!-- Node12 -->
<g id="node12" class="node"><title>Node12</title>
<polygon fill="white" stroke="#bfbfbf" points="603.813,-175 603.813,-195 655.926,-195 655.926,-175 603.813,-175"/>
<text text-anchor="middle" x="629.87" y="-181" font-family="Helvetica,sans-Serif" font-size="10.00">memory</text>
</g>
<!-- Node10&#45;&gt;Node12 -->
<g id="edge13" class="edge"><title>Node10&#45;&gt;Node12</title>
<path fill="none" stroke="midnightblue" d="M889.787,-296.842C880.485,-280.984 859.143,-248.524 831.87,-232 779.973,-200.558 708.752,-190.58 666.213,-187.431"/>
<polygon fill="midnightblue" stroke="midnightblue" points="666.252,-183.926 656.046,-186.768 665.797,-190.911 666.252,-183.926"/>
</g>
<!-- Node10&#45;&gt;Node13 -->
<g id="edge14" class="edge"><title>Node10&#45;&gt;Node13</title>
<path fill="none" stroke="midnightblue" d="M868.841,-296.985C836.63,-285.827 781.818,-266.842 747.295,-254.885"/>
<polygon fill="midnightblue" stroke="midnightblue" points="748.301,-251.529 737.706,-251.563 746.01,-258.144 748.301,-251.529"/>
</g>
<!-- Node14 -->
<g id="node14" class="node"><title>Node14</title>
<polygon fill="white" stroke="#bfbfbf" points="794.37,-233 794.37,-253 823.37,-253 823.37,-233 794.37,-233"/>
<text text-anchor="middle" x="808.48" y="-239" font-family="Helvetica,sans-Serif" font-size="10.00">list</text>
</g>
<!-- Node10&#45;&gt;Node14 -->
<g id="edge15" class="edge"><title>Node10&#45;&gt;Node14</title>
<path fill="none" stroke="midnightblue" d="M882.18,-296.852C868.461,-286.961 846.366,-271.033 830.015,-259.244"/>
<polygon fill="midnightblue" stroke="midnightblue" points="831.77,-256.195 821.611,-253.186 827.676,-261.873 831.77,-256.195"/>
</g>
<!-- Node15&#45;&gt;Node2 -->
<g id="edge17" class="edge"><title>Node15&#45;&gt;Node2</title>
<path fill="none" stroke="midnightblue" d="M71.2837,-290.884C68.355,-274.535 66.5948,-248.589 79.8696,-232 105.01,-200.583 150.597,-189.927 185.848,-186.632"/>
<polygon fill="midnightblue" stroke="midnightblue" points="186.252,-190.112 195.955,-185.859 185.717,-183.132 186.252,-190.112"/>
</g>
<!-- Node17 -->
<g id="node17" class="node"><title>Node17</title>
<polygon fill="white" stroke="#bfbfbf" points="222.803,-233 222.803,-253 284.936,-253 284.936,-233 222.803,-233"/>
<text text-anchor="middle" x="253.87" y="-239" font-family="Helvetica,sans-Serif" font-size="10.00">type_traits</text>
</g>
<!-- Node16&#45;&gt;Node17 -->
<g id="edge19" class="edge"><title>Node16&#45;&gt;Node17</title>
<path fill="none" stroke="midnightblue" d="M243.259,-290.992C245.146,-282.635 247.515,-272.142 249.536,-263.194"/>
<polygon fill="midnightblue" stroke="midnightblue" points="252.983,-263.816 251.772,-253.29 246.155,-262.274 252.983,-263.816"/>
</g>
<!-- Node16&#45;&gt;Node18 -->
<g id="edge20" class="edge"><title>Node16&#45;&gt;Node18</title>
<path fill="none" stroke="midnightblue" d="M208.158,-290.992C186.586,-280.782 158.281,-267.385 137.414,-257.509"/>
<polygon fill="midnightblue" stroke="midnightblue" points="138.652,-254.223 128.116,-253.109 135.657,-260.55 138.652,-254.223"/>
</g>
<!-- Node16&#45;&gt;Node19 -->
<g id="edge21" class="edge"><title>Node16&#45;&gt;Node19</title>
<path fill="none" stroke="midnightblue" d="M292.752,-292.051C295.496,-291.352 298.214,-290.665 300.87,-290 364.79,-273.999 383.922,-273.3 451.44,-253.905"/>
<polygon fill="midnightblue" stroke="midnightblue" points="452.671,-257.192 461.298,-251.04 450.718,-250.47 452.671,-257.192"/>
</g>
<!-- Node20 -->
<g id="node20" class="node"><title>Node20</title>
<polygon fill="white" stroke="#bfbfbf" points="302.697,-233 302.697,-253 357.042,-253 357.042,-233 302.697,-233"/>
<text text-anchor="middle" x="329.87" y="-239" font-family="Helvetica,sans-Serif" font-size="10.00">iostream</text>
</g>
<!-- Node16&#45;&gt;Node20 -->
<g id="edge22" class="edge"><title>Node16&#45;&gt;Node20</title>
<path fill="none" stroke="midnightblue" d="M261.656,-290.992C275.739,-281.29 293.999,-268.711 308.082,-259.009"/>
<polygon fill="midnightblue" stroke="midnightblue" points="310.398,-261.664 316.647,-253.109 306.427,-255.9 310.398,-261.664"/>
</g>
<!-- Node21 -->
<g id="node21" class="node"><title>Node21</title>
<polygon fill="white" stroke="#bfbfbf" points="147.306,-233 147.306,-253 204.434,-253 204.434,-233 147.306,-233"/>
<text text-anchor="middle" x="175.87" y="-239" font-family="Helvetica,sans-Serif" font-size="10.00">algorithm</text>
</g>
<!-- Node16&#45;&gt;Node21 -->
<g id="edge23" class="edge"><title>Node16&#45;&gt;Node21</title>
<path fill="none" stroke="midnightblue" d="M224.377,-290.992C214.802,-281.716 202.513,-269.811 192.7,-260.304"/>
<polygon fill="midnightblue" stroke="midnightblue" points="195.077,-257.735 185.46,-253.29 190.207,-262.762 195.077,-257.735"/>
</g>
<!-- Node22 -->
<g id="node22" class="node"><title>Node22</title>
<g id="a_node22"><a xlink:href="____strhash_8h.xhtml" target="_top" xlink:title="__strhash.h">
<polygon fill="white" stroke="black" points="374.742,-233 374.742,-253 442.998,-253 442.998,-233 374.742,-233"/>
<text text-anchor="middle" x="408.87" y="-239" font-family="Helvetica,sans-Serif" font-size="10.00">__strhash.h</text>
</a>
</g>
</g>
<!-- Node16&#45;&gt;Node22 -->
<g id="edge24" class="edge"><title>Node16&#45;&gt;Node22</title>
<path fill="none" stroke="midnightblue" d="M280.78,-290.992C309.491,-280.459 347.447,-266.534 374.574,-256.582"/>
<polygon fill="midnightblue" stroke="midnightblue" points="375.858,-259.839 384.041,-253.109 373.447,-253.267 375.858,-259.839"/>
</g>
<!-- Node22&#45;&gt;Node2 -->
<g id="edge25" class="edge"><title>Node22&#45;&gt;Node2</title>
<path fill="none" stroke="midnightblue" d="M380.526,-232.878C351.116,-223.413 304.966,-208.56 272.511,-198.115"/>
<polygon fill="midnightblue" stroke="midnightblue" points="273.504,-194.757 262.913,-195.025 271.359,-201.421 273.504,-194.757"/>
</g>
<!-- Node22&#45;&gt;Node12 -->
<g id="edge26" class="edge"><title>Node22&#45;&gt;Node12</title>
<path fill="none" stroke="midnightblue" d="M443.401,-233.25C484.336,-222.877 552.231,-205.673 593.82,-195.135"/>
<polygon fill="midnightblue" stroke="midnightblue" points="594.707,-198.521 603.541,-192.672 592.987,-191.735 594.707,-198.521"/>
</g>
</g>
</svg>
