<?xml version="1.0" encoding="UTF-8" standalone="no"?>
<!DOCTYPE svg PUBLIC "-//W3C//DTD SVG 1.1//EN"
 "http://www.w3.org/Graphics/SVG/1.1/DTD/svg11.dtd">
<!-- Generated by graphviz version 2.30.0 (20130114.0426)
 -->
<!-- Title: /Users/rkwright/Documents/github/readium&#45;sdk&#45;D/ePub3/ePub/nav_table.h Pages: 1 -->
<svg width="482pt" height="136pt"
 viewBox="0.00 0.00 482.00 136.00" xmlns="http://www.w3.org/2000/svg" xmlns:xlink="http://www.w3.org/1999/xlink">
<g id="graph0" class="graph" transform="scale(1 1) rotate(0) translate(4 132)">
<title>/Users/rkwright/Documents/github/readium&#45;sdk&#45;D/ePub3/ePub/nav_table.h</title>
<polygon fill="white" stroke="white" points="-4,5 -4,-132 479,-132 479,5 -4,5"/>
<!-- Node1 -->
<g id="node1" class="node"><title>Node1</title>
<polygon fill="#bfbfbf" stroke="black" points="163.966,-83 163.966,-127 310.034,-127 310.034,-83 163.966,-83"/>
<text text-anchor="start" x="171.966" y="-113" font-family="Helvetica,sans-Serif" font-size="10.00">/Users/rkwright/Documents</text>
<text text-anchor="start" x="171.966" y="-101" font-family="Helvetica,sans-Serif" font-size="10.00">/github/readium&#45;sdk&#45;D/ePub3</text>
<text text-anchor="middle" x="237" y="-89" font-family="Helvetica,sans-Serif" font-size="10.00">/ePub/nav_table.h</text>
</g>
<!-- Node2 -->
<g id="node2" class="node"><title>Node2</title>
<g id="a_node2"><a xlink:href="nav__point_8cpp.xhtml" target="_top" xlink:title="/Users/rkwright/Documents\l/github/readium&#45;sdk&#45;D/ePub3\l/ePub/nav_point.cpp">
<polygon fill="white" stroke="black" points="-0.0341797,-1 -0.0341797,-45 146.034,-45 146.034,-1 -0.0341797,-1"/>
<text text-anchor="start" x="7.96582" y="-31" font-family="Helvetica,sans-Serif" font-size="10.00">/Users/rkwright/Documents</text>
<text text-anchor="start" x="7.96582" y="-19" font-family="Helvetica,sans-Serif" font-size="10.00">/github/readium&#45;sdk&#45;D/ePub3</text>
<text text-anchor="middle" x="73" y="-7" font-family="Helvetica,sans-Serif" font-size="10.00">/ePub/nav_point.cpp</text>
</a>
</g>
</g>
<!-- Node1&#45;&gt;Node2 -->
<g id="edge1" class="edge"><title>Node1&#45;&gt;Node2</title>
<path fill="none" stroke="midnightblue" d="M184.658,-78.4673C162.54,-67.678 137.094,-55.2656 116.086,-45.0174"/>
<polygon fill="midnightblue" stroke="midnightblue" points="183.389,-81.7423 193.911,-82.9809 186.458,-75.451 183.389,-81.7423"/>
</g>
<!-- Node3 -->
<g id="node3" class="node"><title>Node3</title>
<g id="a_node3"><a xlink:href="nav__table_8cpp.xhtml" target="_top" xlink:title="/Users/rkwright/Documents\l/github/readium&#45;sdk&#45;D/ePub3\l/ePub/nav_table.cpp">
<polygon fill="white" stroke="black" points="163.966,-1 163.966,-45 310.034,-45 310.034,-1 163.966,-1"/>
<text text-anchor="start" x="171.966" y="-31" font-family="Helvetica,sans-Serif" font-size="10.00">/Users/rkwright/Documents</text>
<text text-anchor="start" x="171.966" y="-19" font-family="Helvetica,sans-Serif" font-size="10.00">/github/readium&#45;sdk&#45;D/ePub3</text>
<text text-anchor="middle" x="237" y="-7" font-family="Helvetica,sans-Serif" font-size="10.00">/ePub/nav_table.cpp</text>
</a>
</g>
</g>
<!-- Node1&#45;&gt;Node3 -->
<g id="edge2" class="edge"><title>Node1&#45;&gt;Node3</title>
<path fill="none" stroke="midnightblue" d="M237,-72.8963C237,-63.6094 237,-53.6485 237,-45.1564"/>
<polygon fill="midnightblue" stroke="midnightblue" points="233.5,-72.9809 237,-82.9809 240.5,-72.981 233.5,-72.9809"/>
</g>
<!-- Node4 -->
<g id="node4" class="node"><title>Node4</title>
<g id="a_node4"><a xlink:href="package_8cpp.xhtml" target="_top" xlink:title="/Users/rkwright/Documents\l/github/readium&#45;sdk&#45;D/ePub3\l/ePub/package.cpp">
<polygon fill="white" stroke="black" points="327.966,-1 327.966,-45 474.034,-45 474.034,-1 327.966,-1"/>
<text text-anchor="start" x="335.966" y="-31" font-family="Helvetica,sans-Serif" font-size="10.00">/Users/rkwright/Documents</text>
<text text-anchor="start" x="335.966" y="-19" font-family="Helvetica,sans-Serif" font-size="10.00">/github/readium&#45;sdk&#45;D/ePub3</text>
<text text-anchor="middle" x="401" y="-7" font-family="Helvetica,sans-Serif" font-size="10.00">/ePub/package.cpp</text>
</a>
</g>
</g>
<!-- Node1&#45;&gt;Node4 -->
<g id="edge3" class="edge"><title>Node1&#45;&gt;Node4</title>
<path fill="none" stroke="midnightblue" d="M289.342,-78.4673C311.46,-67.678 336.906,-55.2656 357.914,-45.0174"/>
<polygon fill="midnightblue" stroke="midnightblue" points="287.542,-75.451 280.089,-82.9809 290.611,-81.7423 287.542,-75.451"/>
</g>
</g>
</svg>
