<?xml version="1.0" encoding="UTF-8" standalone="no"?>
<!DOCTYPE svg PUBLIC "-//W3C//DTD SVG 1.1//EN"
 "http://www.w3.org/Graphics/SVG/1.1/DTD/svg11.dtd">
<!-- Generated by graphviz version 2.30.0 (20130114.0426)
 -->
<!-- Title: /Users/rkwright/Documents/github/readium&#45;sdk&#45;D/ePub3/ePub/nav_element.h Pages: 1 -->
<svg width="1129pt" height="472pt"
 viewBox="0.00 0.00 1129.00 472.00" xmlns="http://www.w3.org/2000/svg" xmlns:xlink="http://www.w3.org/1999/xlink">
<g id="graph0" class="graph" transform="scale(1 1) rotate(0) translate(4 468)">
<title>/Users/rkwright/Documents/github/readium&#45;sdk&#45;D/ePub3/ePub/nav_element.h</title>
<polygon fill="white" stroke="white" points="-4,5 -4,-468 1126,-468 1126,5 -4,5"/>
<!-- Node1 -->
<g id="node1" class="node"><title>Node1</title>
<polygon fill="#bfbfbf" stroke="black" points="504.966,-419 504.966,-463 651.034,-463 651.034,-419 504.966,-419"/>
<text text-anchor="start" x="512.966" y="-449" font-family="Helvetica,sans-Serif" font-size="10.00">/Users/rkwright/Documents</text>
<text text-anchor="start" x="512.966" y="-437" font-family="Helvetica,sans-Serif" font-size="10.00">/github/readium&#45;sdk&#45;D/ePub3</text>
<text text-anchor="middle" x="578" y="-425" font-family="Helvetica,sans-Serif" font-size="10.00">/ePub/nav_element.h</text>
</g>
<!-- Node2 -->
<g id="node2" class="node"><title>Node2</title>
<polygon fill="white" stroke="#bfbfbf" points="421.079,-361 421.079,-381 504.921,-381 504.921,-361 421.079,-361"/>
<text text-anchor="middle" x="463" y="-367" font-family="Helvetica,sans-Serif" font-size="10.00">ePub3/epub3.h</text>
</g>
<!-- Node1&#45;&gt;Node2 -->
<g id="edge1" class="edge"><title>Node1&#45;&gt;Node2</title>
<path fill="none" stroke="midnightblue" d="M542.244,-418.857C524.275,-408.232 502.985,-395.643 486.999,-386.191"/>
<polygon fill="midnightblue" stroke="midnightblue" points="488.655,-383.104 478.266,-381.027 485.092,-389.129 488.655,-383.104"/>
</g>
<!-- Node3 -->
<g id="node3" class="node"><title>Node3</title>
<g id="a_node3"><a xlink:href="utfstring_8h.xhtml" target="_top" xlink:title="ePub3/utilities/utfstring.h">
<polygon fill="white" stroke="black" points="560.525,-361 560.525,-381 685.475,-381 685.475,-361 560.525,-361"/>
<text text-anchor="middle" x="623" y="-367" font-family="Helvetica,sans-Serif" font-size="10.00">ePub3/utilities/utfstring.h</text>
</a>
</g>
</g>
<!-- Node1&#45;&gt;Node3 -->
<g id="edge2" class="edge"><title>Node1&#45;&gt;Node3</title>
<path fill="none" stroke="midnightblue" d="M591.992,-418.857C598.196,-409.482 605.412,-398.577 611.321,-389.648"/>
<polygon fill="midnightblue" stroke="midnightblue" points="614.309,-391.475 616.909,-381.204 608.472,-387.612 614.309,-391.475"/>
</g>
<!-- Node29 -->
<g id="node29" class="node"><title>Node29</title>
<g id="a_node29"><a xlink:href="owned__by_8h.xhtml" target="_top" xlink:title="ePub3/utilities/owned_by.h">
<polygon fill="white" stroke="black" points="-0.116211,-297 -0.116211,-317 134.116,-317 134.116,-297 -0.116211,-297"/>
<text text-anchor="middle" x="67" y="-303" font-family="Helvetica,sans-Serif" font-size="10.00">ePub3/utilities/owned_by.h</text>
</a>
</g>
</g>
<!-- Node1&#45;&gt;Node29 -->
<g id="edge34" class="edge"><title>Node1&#45;&gt;Node29</title>
<path fill="none" stroke="midnightblue" d="M567.253,-418.961C556.353,-400.024 537.596,-373.206 513,-360 440.217,-320.922 224.655,-336.528 143,-324 134.188,-322.648 124.858,-320.927 115.866,-319.118"/>
<polygon fill="midnightblue" stroke="midnightblue" points="116.405,-315.655 105.903,-317.053 114.984,-322.51 116.405,-315.655"/>
</g>
<!-- Node13 -->
<g id="node13" class="node"><title>Node13</title>
<polygon fill="white" stroke="#bfbfbf" points="959.384,-233 959.384,-253 1002.62,-253 1002.62,-233 959.384,-233"/>
<text text-anchor="middle" x="981" y="-239" font-family="Helvetica,sans-Serif" font-size="10.00">vector</text>
</g>
<!-- Node1&#45;&gt;Node13 -->
<g id="edge37" class="edge"><title>Node1&#45;&gt;Node13</title>
<path fill="none" stroke="midnightblue" d="M651.414,-438.705C738.136,-433.067 880.841,-410.196 962,-324 977.405,-307.638 981.049,-281.147 981.571,-263.172"/>
<polygon fill="midnightblue" stroke="midnightblue" points="985.071,-263.011 981.562,-253.014 978.071,-263.017 985.071,-263.011"/>
</g>
<!-- Node4 -->
<g id="node4" class="node"><title>Node4</title>
<g id="a_node4"><a xlink:href="basic_8h.xhtml" target="_top" xlink:title="ePub3/utilities/basic.h">
<polygon fill="white" stroke="black" points="737.638,-297 737.638,-317 850.362,-317 850.362,-297 737.638,-297"/>
<text text-anchor="middle" x="794" y="-303" font-family="Helvetica,sans-Serif" font-size="10.00">ePub3/utilities/basic.h</text>
</a>
</g>
</g>
<!-- Node3&#45;&gt;Node4 -->
<g id="edge3" class="edge"><title>Node3&#45;&gt;Node4</title>
<path fill="none" stroke="midnightblue" d="M647.865,-360.985C677.246,-350.332 726.308,-332.543 759.391,-320.548"/>
<polygon fill="midnightblue" stroke="midnightblue" points="760.897,-323.725 769.105,-317.026 758.511,-317.144 760.897,-323.725"/>
</g>
<!-- Node15 -->
<g id="node15" class="node"><title>Node15</title>
<g id="a_node15"><a xlink:href="integer__sequence_8h.xhtml" target="_top" xlink:title="ePub3/utilities/integer\l_sequence.h">
<polygon fill="white" stroke="black" points="1010.19,-291 1010.19,-323 1121.81,-323 1121.81,-291 1010.19,-291"/>
<text text-anchor="start" x="1018.19" y="-309" font-family="Helvetica,sans-Serif" font-size="10.00">ePub3/utilities/integer</text>
<text text-anchor="middle" x="1066" y="-297" font-family="Helvetica,sans-Serif" font-size="10.00">_sequence.h</text>
</a>
</g>
</g>
<!-- Node3&#45;&gt;Node15 -->
<g id="edge14" class="edge"><title>Node3&#45;&gt;Node15</title>
<path fill="none" stroke="midnightblue" d="M685.527,-361.854C753.586,-352.908 865.599,-337.955 962,-324 974.34,-322.214 987.493,-320.243 1000.15,-318.312"/>
<polygon fill="midnightblue" stroke="midnightblue" points="1000.81,-321.751 1010.16,-316.777 999.75,-314.832 1000.81,-321.751"/>
</g>
<!-- Node16 -->
<g id="node16" class="node"><title>Node16</title>
<g id="a_node16"><a xlink:href="string__view_8h.xhtml" target="_top" xlink:title="ePub3/utilities/string\l_view.h">
<polygon fill="white" stroke="black" points="212.254,-291 212.254,-323 317.746,-323 317.746,-291 212.254,-291"/>
<text text-anchor="start" x="220.254" y="-309" font-family="Helvetica,sans-Serif" font-size="10.00">ePub3/utilities/string</text>
<text text-anchor="middle" x="265" y="-297" font-family="Helvetica,sans-Serif" font-size="10.00">_view.h</text>
</a>
</g>
</g>
<!-- Node3&#45;&gt;Node16 -->
<g id="edge16" class="edge"><title>Node3&#45;&gt;Node16</title>
<path fill="none" stroke="midnightblue" d="M560.21,-360.984C491.252,-350.958 383.873,-334.956 327.86,-324.027"/>
<polygon fill="midnightblue" stroke="midnightblue" points="328.514,-320.589 318.02,-322.048 327.133,-327.451 328.514,-320.589"/>
</g>
<!-- Node18 -->
<g id="node18" class="node"><title>Node18</title>
<polygon fill="white" stroke="#bfbfbf" points="540.773,-233 540.773,-253 581.227,-253 581.227,-233 540.773,-233"/>
<text text-anchor="middle" x="561" y="-239" font-family="Helvetica,sans-Serif" font-size="10.00">string</text>
</g>
<!-- Node3&#45;&gt;Node18 -->
<g id="edge25" class="edge"><title>Node3&#45;&gt;Node18</title>
<path fill="none" stroke="midnightblue" d="M646.807,-360.923C662.462,-353.557 681.711,-341.499 691,-324 698.085,-310.653 699.723,-302.339 691,-290 679.29,-273.435 626.114,-258.643 591.504,-250.536"/>
<polygon fill="midnightblue" stroke="midnightblue" points="591.953,-247.049 581.425,-248.24 590.398,-253.874 591.953,-247.049"/>
</g>
<!-- Node23 -->
<g id="node23" class="node"><title>Node23</title>
<polygon fill="white" stroke="#bfbfbf" points="906.438,-297 906.438,-317 953.562,-317 953.562,-297 906.438,-297"/>
<text text-anchor="middle" x="930" y="-303" font-family="Helvetica,sans-Serif" font-size="10.00">iterator</text>
</g>
<!-- Node3&#45;&gt;Node23 -->
<g id="edge26" class="edge"><title>Node3&#45;&gt;Node23</title>
<path fill="none" stroke="midnightblue" d="M685.615,-363.415C740.727,-356.65 822.753,-344.208 892,-324 895.161,-323.078 898.413,-321.97 901.621,-320.774"/>
<polygon fill="midnightblue" stroke="midnightblue" points="903.004,-323.99 910.979,-317.015 900.395,-317.494 903.004,-323.99"/>
</g>
<!-- Node24 -->
<g id="node24" class="node"><title>Node24</title>
<polygon fill="white" stroke="#bfbfbf" points="151.936,-297 151.936,-317 194.064,-317 194.064,-297 151.936,-297"/>
<text text-anchor="middle" x="173" y="-303" font-family="Helvetica,sans-Serif" font-size="10.00">locale</text>
</g>
<!-- Node3&#45;&gt;Node24 -->
<g id="edge27" class="edge"><title>Node3&#45;&gt;Node24</title>
<path fill="none" stroke="midnightblue" d="M560.391,-361.628C555.861,-361.063 551.361,-360.515 547,-360 394.337,-341.971 349.988,-369.005 203,-324 200.845,-323.34 198.665,-322.521 196.516,-321.605"/>
<polygon fill="midnightblue" stroke="midnightblue" points="197.981,-318.426 187.462,-317.161 194.897,-324.709 197.981,-318.426"/>
</g>
<!-- Node3&#45;&gt;Node13 -->
<g id="edge28" class="edge"><title>Node3&#45;&gt;Node13</title>
<path fill="none" stroke="midnightblue" d="M685.538,-366.889C734.864,-362.346 804.236,-351.215 859,-324 879.295,-313.915 878.496,-303.084 897,-290 914.477,-277.643 935.618,-266.081 952.319,-257.64"/>
<polygon fill="midnightblue" stroke="midnightblue" points="954.174,-260.627 961.578,-253.048 951.064,-254.356 954.174,-260.627"/>
</g>
<!-- Node25 -->
<g id="node25" class="node"><title>Node25</title>
<polygon fill="white" stroke="#bfbfbf" points="335.766,-297 335.766,-317 436.234,-317 436.234,-297 335.766,-297"/>
<text text-anchor="middle" x="386" y="-303" font-family="Helvetica,sans-Serif" font-size="10.00">REGEX_INCLUDE</text>
</g>
<!-- Node3&#45;&gt;Node25 -->
<g id="edge29" class="edge"><title>Node3&#45;&gt;Node25</title>
<path fill="none" stroke="midnightblue" d="M587.507,-360.96C551.557,-351.773 494.367,-337.072 445,-324 439.742,-322.608 434.225,-321.132 428.763,-319.661"/>
<polygon fill="midnightblue" stroke="midnightblue" points="429.625,-316.269 419.058,-317.039 427.799,-323.026 429.625,-316.269"/>
</g>
<!-- Node26 -->
<g id="node26" class="node"><title>Node26</title>
<polygon fill="white" stroke="#bfbfbf" points="454.273,-297 454.273,-317 489.727,-317 489.727,-297 454.273,-297"/>
<text text-anchor="middle" x="472" y="-303" font-family="Helvetica,sans-Serif" font-size="10.00">map</text>
</g>
<!-- Node3&#45;&gt;Node26 -->
<g id="edge30" class="edge"><title>Node3&#45;&gt;Node26</title>
<path fill="none" stroke="midnightblue" d="M594.332,-360.998C568.807,-352.602 530.708,-339.125 499,-324 497.81,-323.433 496.605,-322.83 495.396,-322.203"/>
<polygon fill="midnightblue" stroke="midnightblue" points="496.748,-318.949 486.311,-317.127 493.334,-325.06 496.748,-318.949"/>
</g>
<!-- Node27 -->
<g id="node27" class="node"><title>Node27</title>
<polygon fill="white" stroke="#bfbfbf" points="507.599,-297 507.599,-317 566.401,-317 566.401,-297 507.599,-297"/>
<text text-anchor="middle" x="537" y="-303" font-family="Helvetica,sans-Serif" font-size="10.00">stdexcept</text>
</g>
<!-- Node3&#45;&gt;Node27 -->
<g id="edge31" class="edge"><title>Node3&#45;&gt;Node27</title>
<path fill="none" stroke="midnightblue" d="M610.31,-360.852C596.591,-350.961 574.497,-335.033 558.145,-323.244"/>
<polygon fill="midnightblue" stroke="midnightblue" points="559.9,-320.195 549.742,-317.186 555.807,-325.873 559.9,-320.195"/>
</g>
<!-- Node19 -->
<g id="node19" class="node"><title>Node19</title>
<polygon fill="white" stroke="#bfbfbf" points="471.613,-233 471.613,-253 510.387,-253 510.387,-233 471.613,-233"/>
<text text-anchor="middle" x="491" y="-239" font-family="Helvetica,sans-Serif" font-size="10.00">limits</text>
</g>
<!-- Node3&#45;&gt;Node19 -->
<g id="edge32" class="edge"><title>Node3&#45;&gt;Node19</title>
<path fill="none" stroke="midnightblue" d="M619.392,-360.789C612.714,-344.71 597.069,-311.216 575,-290 559.269,-274.877 537.59,-263.17 520.196,-255.351"/>
<polygon fill="midnightblue" stroke="midnightblue" points="521.098,-251.929 510.528,-251.201 518.336,-258.362 521.098,-251.929"/>
</g>
<!-- Node28 -->
<g id="node28" class="node"><title>Node28</title>
<polygon fill="white" stroke="#bfbfbf" points="621.761,-297 621.761,-317 682.239,-317 682.239,-297 621.761,-297"/>
<text text-anchor="middle" x="652" y="-303" font-family="Helvetica,sans-Serif" font-size="10.00">utf8/utf8.h</text>
</g>
<!-- Node3&#45;&gt;Node28 -->
<g id="edge33" class="edge"><title>Node3&#45;&gt;Node28</title>
<path fill="none" stroke="midnightblue" d="M627.279,-360.852C631.52,-351.785 638.134,-337.645 643.454,-326.272"/>
<polygon fill="midnightblue" stroke="midnightblue" points="646.637,-327.727 647.703,-317.186 640.296,-324.761 646.637,-327.727"/>
</g>
<!-- Node5 -->
<g id="node5" class="node"><title>Node5</title>
<g id="a_node5"><a xlink:href="base_8h.xhtml" target="_top" xlink:title="ePub3/base.h">
<polygon fill="white" stroke="black" points="712.141,-175 712.141,-195 789.859,-195 789.859,-175 712.141,-175"/>
<text text-anchor="middle" x="751" y="-181" font-family="Helvetica,sans-Serif" font-size="10.00">ePub3/base.h</text>
</a>
</g>
</g>
<!-- Node4&#45;&gt;Node5 -->
<g id="edge4" class="edge"><title>Node4&#45;&gt;Node5</title>
<path fill="none" stroke="midnightblue" d="M789.299,-296.982C784.097,-286.756 775.697,-269.491 770,-254 764.057,-237.842 758.916,-218.945 755.486,-205.179"/>
<polygon fill="midnightblue" stroke="midnightblue" points="758.871,-204.286 753.119,-195.388 752.067,-205.931 758.871,-204.286"/>
</g>
<!-- Node10 -->
<g id="node10" class="node"><title>Node10</title>
<polygon fill="white" stroke="#bfbfbf" points="826.815,-233 826.815,-253 941.185,-253 941.185,-233 826.815,-233"/>
<text text-anchor="middle" x="884" y="-239" font-family="Helvetica,sans-Serif" font-size="10.00">ePub3/xml/xmlstring.h</text>
</g>
<!-- Node4&#45;&gt;Node10 -->
<g id="edge9" class="edge"><title>Node4&#45;&gt;Node10</title>
<path fill="none" stroke="midnightblue" d="M807.28,-296.852C821.77,-286.87 845.188,-270.737 862.345,-258.918"/>
<polygon fill="midnightblue" stroke="midnightblue" points="864.416,-261.741 870.666,-253.186 860.445,-255.977 864.416,-261.741"/>
</g>
<!-- Node11 -->
<g id="node11" class="node"><title>Node11</title>
<polygon fill="white" stroke="#bfbfbf" points="671.219,-233 671.219,-253 722.781,-253 722.781,-233 671.219,-233"/>
<text text-anchor="middle" x="697" y="-239" font-family="Helvetica,sans-Serif" font-size="10.00">sstream</text>
</g>
<!-- Node4&#45;&gt;Node11 -->
<g id="edge10" class="edge"><title>Node4&#45;&gt;Node11</title>
<path fill="none" stroke="midnightblue" d="M779.687,-296.852C763.927,-286.778 738.367,-270.441 719.832,-258.594"/>
<polygon fill="midnightblue" stroke="midnightblue" points="721.682,-255.622 711.371,-253.186 717.912,-261.521 721.682,-255.622"/>
</g>
<!-- Node12 -->
<g id="node12" class="node"><title>Node12</title>
<polygon fill="white" stroke="#bfbfbf" points="386.943,-175 386.943,-195 439.057,-195 439.057,-175 386.943,-175"/>
<text text-anchor="middle" x="413" y="-181" font-family="Helvetica,sans-Serif" font-size="10.00">memory</text>
</g>
<!-- Node4&#45;&gt;Node12 -->
<g id="edge11" class="edge"><title>Node4&#45;&gt;Node12</title>
<path fill="none" stroke="midnightblue" d="M771.292,-296.971C733.872,-282.271 656.742,-252.728 590,-232 541.843,-217.044 485.313,-202.94 449.334,-194.388"/>
<polygon fill="midnightblue" stroke="midnightblue" points="449.845,-190.912 439.308,-192.022 448.237,-197.725 449.845,-190.912"/>
</g>
<!-- Node4&#45;&gt;Node13 -->
<g id="edge12" class="edge"><title>Node4&#45;&gt;Node13</title>
<path fill="none" stroke="midnightblue" d="M821.191,-296.985C855.358,-285.657 913.862,-266.26 949.81,-254.341"/>
<polygon fill="midnightblue" stroke="midnightblue" points="950.922,-257.66 959.312,-251.191 948.719,-251.015 950.922,-257.66"/>
</g>
<!-- Node14 -->
<g id="node14" class="node"><title>Node14</title>
<polygon fill="white" stroke="#bfbfbf" points="779.5,-233 779.5,-253 808.5,-253 808.5,-233 779.5,-233"/>
<text text-anchor="middle" x="793.611" y="-239" font-family="Helvetica,sans-Serif" font-size="10.00">list</text>
</g>
<!-- Node4&#45;&gt;Node14 -->
<g id="edge13" class="edge"><title>Node4&#45;&gt;Node14</title>
<path fill="none" stroke="midnightblue" d="M794,-296.852C794,-288.06 794,-274.498 794,-263.313"/>
<polygon fill="midnightblue" stroke="midnightblue" points="797.5,-263.186 794,-253.186 790.5,-263.186 797.5,-263.186"/>
</g>
<!-- Node6 -->
<g id="node6" class="node"><title>Node6</title>
<g id="a_node6"><a xlink:href="__config_8h.xhtml" target="_top" xlink:title="_config.h">
<polygon fill="white" stroke="black" points="687.707,-117 687.707,-137 744.293,-137 744.293,-117 687.707,-117"/>
<text text-anchor="middle" x="716" y="-123" font-family="Helvetica,sans-Serif" font-size="10.00">_config.h</text>
</a>
</g>
</g>
<!-- Node5&#45;&gt;Node6 -->
<g id="edge5" class="edge"><title>Node5&#45;&gt;Node6</title>
<path fill="none" stroke="midnightblue" d="M745.22,-174.753C740.277,-166.843 733.023,-155.237 726.98,-145.568"/>
<polygon fill="midnightblue" stroke="midnightblue" points="729.94,-143.7 721.672,-137.075 724.004,-147.41 729.94,-143.7"/>
</g>
<!-- Node9 -->
<g id="node9" class="node"><title>Node9</title>
<polygon fill="white" stroke="#bfbfbf" points="762.158,-117 762.158,-137 809.842,-137 809.842,-117 762.158,-117"/>
<text text-anchor="middle" x="786" y="-123" font-family="Helvetica,sans-Serif" font-size="10.00">stdlib.h</text>
</g>
<!-- Node5&#45;&gt;Node9 -->
<g id="edge8" class="edge"><title>Node5&#45;&gt;Node9</title>
<path fill="none" stroke="midnightblue" d="M756.78,-174.753C761.723,-166.843 768.977,-155.237 775.02,-145.568"/>
<polygon fill="midnightblue" stroke="midnightblue" points="777.996,-147.41 780.328,-137.075 772.06,-143.7 777.996,-147.41"/>
</g>
<!-- Node7 -->
<g id="node7" class="node"><title>Node7</title>
<g id="a_node7"><a xlink:href="__platform_8h.xhtml" target="_top" xlink:title="_platform.h">
<polygon fill="white" stroke="black" points="682.988,-59 682.988,-79 749.012,-79 749.012,-59 682.988,-59"/>
<text text-anchor="middle" x="716" y="-65" font-family="Helvetica,sans-Serif" font-size="10.00">_platform.h</text>
</a>
</g>
</g>
<!-- Node6&#45;&gt;Node7 -->
<g id="edge6" class="edge"><title>Node6&#45;&gt;Node7</title>
<path fill="none" stroke="midnightblue" d="M716,-116.753C716,-109.25 716,-98.4238 716,-89.0781"/>
<polygon fill="midnightblue" stroke="midnightblue" points="719.5,-89.0752 716,-79.0752 712.5,-89.0752 719.5,-89.0752"/>
</g>
<!-- Node8 -->
<g id="node8" class="node"><title>Node8</title>
<g id="a_node8"><a xlink:href="__compiler_8h.xhtml" target="_top" xlink:title="_compiler.h">
<polygon fill="white" stroke="black" points="682.429,-1 682.429,-21 749.571,-21 749.571,-1 682.429,-1"/>
<text text-anchor="middle" x="716" y="-7" font-family="Helvetica,sans-Serif" font-size="10.00">_compiler.h</text>
</a>
</g>
</g>
<!-- Node7&#45;&gt;Node8 -->
<g id="edge7" class="edge"><title>Node7&#45;&gt;Node8</title>
<path fill="none" stroke="midnightblue" d="M716,-58.7527C716,-51.2504 716,-40.4238 716,-31.0781"/>
<polygon fill="midnightblue" stroke="midnightblue" points="719.5,-31.0752 716,-21.0752 712.5,-31.0752 719.5,-31.0752"/>
</g>
<!-- Node15&#45;&gt;Node5 -->
<g id="edge15" class="edge"><title>Node15&#45;&gt;Node5</title>
<path fill="none" stroke="midnightblue" d="M1059.08,-290.789C1050.42,-273.586 1033.88,-246.133 1011,-232 976.481,-210.675 865.371,-196.846 800.105,-190.344"/>
<polygon fill="midnightblue" stroke="midnightblue" points="800.335,-186.85 790.043,-189.363 799.656,-193.817 800.335,-186.85"/>
</g>
<!-- Node17 -->
<g id="node17" class="node"><title>Node17</title>
<polygon fill="white" stroke="#bfbfbf" points="117.934,-233 117.934,-253 180.066,-253 180.066,-233 117.934,-233"/>
<text text-anchor="middle" x="149" y="-239" font-family="Helvetica,sans-Serif" font-size="10.00">type_traits</text>
</g>
<!-- Node16&#45;&gt;Node17 -->
<g id="edge17" class="edge"><title>Node16&#45;&gt;Node17</title>
<path fill="none" stroke="midnightblue" d="M236.92,-290.992C218.077,-280.92 193.433,-267.749 175.032,-257.914"/>
<polygon fill="midnightblue" stroke="midnightblue" points="176.511,-254.736 166.042,-253.109 173.212,-260.909 176.511,-254.736"/>
</g>
<!-- Node16&#45;&gt;Node18 -->
<g id="edge18" class="edge"><title>Node16&#45;&gt;Node18</title>
<path fill="none" stroke="midnightblue" d="M318.043,-292.061C321.069,-291.344 324.07,-290.652 327,-290 411.748,-271.142 434.079,-272.06 519,-254 522.739,-253.205 526.655,-252.33 530.53,-251.438"/>
<polygon fill="midnightblue" stroke="midnightblue" points="531.605,-254.78 540.537,-249.082 530.001,-247.967 531.605,-254.78"/>
</g>
<!-- Node16&#45;&gt;Node19 -->
<g id="edge19" class="edge"><title>Node16&#45;&gt;Node19</title>
<path fill="none" stroke="midnightblue" d="M318.153,-291.72C356.501,-281.371 409.491,-266.975 456,-254 457.872,-253.478 459.799,-252.937 461.741,-252.389"/>
<polygon fill="midnightblue" stroke="midnightblue" points="462.726,-255.748 471.39,-249.649 460.815,-249.014 462.726,-255.748"/>
</g>
<!-- Node20 -->
<g id="node20" class="node"><title>Node20</title>
<polygon fill="white" stroke="#bfbfbf" points="303.828,-233 303.828,-253 358.172,-253 358.172,-233 303.828,-233"/>
<text text-anchor="middle" x="331" y="-239" font-family="Helvetica,sans-Serif" font-size="10.00">iostream</text>
</g>
<!-- Node16&#45;&gt;Node20 -->
<g id="edge20" class="edge"><title>Node16&#45;&gt;Node20</title>
<path fill="none" stroke="midnightblue" d="M280.977,-290.992C290.85,-281.716 303.524,-269.811 313.644,-260.304"/>
<polygon fill="midnightblue" stroke="midnightblue" points="316.218,-262.688 321.11,-253.29 311.425,-257.586 316.218,-262.688"/>
</g>
<!-- Node21 -->
<g id="node21" class="node"><title>Node21</title>
<polygon fill="white" stroke="#bfbfbf" points="228.436,-233 228.436,-253 285.564,-253 285.564,-233 228.436,-233"/>
<text text-anchor="middle" x="257" y="-239" font-family="Helvetica,sans-Serif" font-size="10.00">algorithm</text>
</g>
<!-- Node16&#45;&gt;Node21 -->
<g id="edge21" class="edge"><title>Node16&#45;&gt;Node21</title>
<path fill="none" stroke="midnightblue" d="M263.063,-290.992C261.997,-282.726 260.661,-272.373 259.515,-263.489"/>
<polygon fill="midnightblue" stroke="midnightblue" points="262.95,-262.76 258.199,-253.29 256.007,-263.656 262.95,-262.76"/>
</g>
<!-- Node22 -->
<g id="node22" class="node"><title>Node22</title>
<g id="a_node22"><a xlink:href="____strhash_8h.xhtml" target="_top" xlink:title="__strhash.h">
<polygon fill="white" stroke="black" points="378.872,-233 378.872,-253 447.128,-253 447.128,-233 378.872,-233"/>
<text text-anchor="middle" x="413" y="-239" font-family="Helvetica,sans-Serif" font-size="10.00">__strhash.h</text>
</a>
</g>
</g>
<!-- Node16&#45;&gt;Node22 -->
<g id="edge22" class="edge"><title>Node16&#45;&gt;Node22</title>
<path fill="none" stroke="midnightblue" d="M300.827,-290.992C325.639,-280.597 358.337,-266.899 382.023,-256.977"/>
<polygon fill="midnightblue" stroke="midnightblue" points="383.385,-260.201 391.257,-253.109 380.681,-253.744 383.385,-260.201"/>
</g>
<!-- Node22&#45;&gt;Node5 -->
<g id="edge23" class="edge"><title>Node22&#45;&gt;Node5</title>
<path fill="none" stroke="midnightblue" d="M447.394,-234.938C452.616,-233.919 457.947,-232.909 463,-232 546.681,-216.955 644.495,-201.856 701.898,-193.246"/>
<polygon fill="midnightblue" stroke="midnightblue" points="702.416,-196.708 711.788,-191.767 701.381,-189.785 702.416,-196.708"/>
</g>
<!-- Node22&#45;&gt;Node12 -->
<g id="edge24" class="edge"><title>Node22&#45;&gt;Node12</title>
<path fill="none" stroke="midnightblue" d="M413,-232.753C413,-225.25 413,-214.424 413,-205.078"/>
<polygon fill="midnightblue" stroke="midnightblue" points="416.5,-205.075 413,-195.075 409.5,-205.075 416.5,-205.075"/>
</g>
<!-- Node29&#45;&gt;Node12 -->
<g id="edge35" class="edge"><title>Node29&#45;&gt;Node12</title>
<path fill="none" stroke="midnightblue" d="M69.3238,-296.951C73.9396,-280.962 85.8727,-247.903 109,-232 151.777,-202.585 305.057,-191.313 376.218,-187.596"/>
<polygon fill="midnightblue" stroke="midnightblue" points="376.689,-191.076 386.501,-187.081 376.339,-184.085 376.689,-191.076"/>
</g>
<!-- Node29&#45;&gt;Node17 -->
<g id="edge36" class="edge"><title>Node29&#45;&gt;Node17</title>
<path fill="none" stroke="midnightblue" d="M79.0994,-296.852C92.1804,-286.961 113.247,-271.033 128.838,-259.244"/>
<polygon fill="midnightblue" stroke="midnightblue" points="130.985,-262.009 136.851,-253.186 126.763,-256.425 130.985,-262.009"/>
</g>
</g>
</svg>
