<?xml version="1.0" encoding="UTF-8" standalone="no"?>
<!DOCTYPE svg PUBLIC "-//W3C//DTD SVG 1.1//EN"
 "http://www.w3.org/Graphics/SVG/1.1/DTD/svg11.dtd">
<!-- Generated by graphviz version 2.30.0 (20130114.0426)
 -->
<!-- Title: /Users/rkwright/Documents/github/readium&#45;sdk&#45;D/ePub3/ePub/nav_table.h Pages: 1 -->
<svg width="475pt" height="170pt"
 viewBox="0.00 0.00 475.00 170.00" xmlns="http://www.w3.org/2000/svg" xmlns:xlink="http://www.w3.org/1999/xlink">
<g id="graph0" class="graph" transform="scale(1 1) rotate(0) translate(4 166)">
<title>/Users/rkwright/Documents/github/readium&#45;sdk&#45;D/ePub3/ePub/nav_table.h</title>
<polygon fill="white" stroke="white" points="-4,5 -4,-166 472,-166 472,5 -4,5"/>
<!-- Node1 -->
<g id="node1" class="node"><title>Node1</title>
<polygon fill="#bfbfbf" stroke="black" points="144.966,-117 144.966,-161 291.034,-161 291.034,-117 144.966,-117"/>
<text text-anchor="start" x="152.966" y="-147" font-family="Helvetica,sans-Serif" font-size="10.00">/Users/rkwright/Documents</text>
<text text-anchor="start" x="152.966" y="-135" font-family="Helvetica,sans-Serif" font-size="10.00">/github/readium&#45;sdk&#45;D/ePub3</text>
<text text-anchor="middle" x="218" y="-123" font-family="Helvetica,sans-Serif" font-size="10.00">/ePub/nav_table.h</text>
</g>
<!-- Node2 -->
<g id="node2" class="node"><title>Node2</title>
<polygon fill="white" stroke="#bfbfbf" points="-0.920898,-59 -0.920898,-79 82.9209,-79 82.9209,-59 -0.920898,-59"/>
<text text-anchor="middle" x="41" y="-65" font-family="Helvetica,sans-Serif" font-size="10.00">ePub3/epub3.h</text>
</g>
<!-- Node1&#45;&gt;Node2 -->
<g id="edge1" class="edge"><title>Node1&#45;&gt;Node2</title>
<path fill="none" stroke="midnightblue" d="M162.966,-116.857C133.76,-105.637 98.8513,-92.2253 73.8787,-82.6314"/>
<polygon fill="midnightblue" stroke="midnightblue" points="75.0857,-79.3457 64.4957,-79.0266 72.5753,-85.8801 75.0857,-79.3457"/>
</g>
<!-- Node3 -->
<g id="node3" class="node"><title>Node3</title>
<polygon fill="white" stroke="#bfbfbf" points="101.298,-59 101.298,-79 200.702,-79 200.702,-59 101.298,-59"/>
<text text-anchor="middle" x="151" y="-65" font-family="Helvetica,sans-Serif" font-size="10.00">ePub3/nav_point.h</text>
</g>
<!-- Node1&#45;&gt;Node3 -->
<g id="edge2" class="edge"><title>Node1&#45;&gt;Node3</title>
<path fill="none" stroke="midnightblue" d="M197.168,-116.857C187.542,-107.087 176.279,-95.6561 167.287,-86.5303"/>
<polygon fill="midnightblue" stroke="midnightblue" points="169.58,-83.8707 160.069,-79.2039 164.594,-88.7837 169.58,-83.8707"/>
</g>
<!-- Node4 -->
<g id="node4" class="node"><title>Node4</title>
<g id="a_node4"><a xlink:href="owned__by_8h.xhtml" target="_top" xlink:title="ePub3/utilities/owned_by.h">
<polygon fill="white" stroke="black" points="218.884,-59 218.884,-79 353.116,-79 353.116,-59 218.884,-59"/>
<text text-anchor="middle" x="286" y="-65" font-family="Helvetica,sans-Serif" font-size="10.00">ePub3/utilities/owned_by.h</text>
</a>
</g>
</g>
<!-- Node1&#45;&gt;Node4 -->
<g id="edge3" class="edge"><title>Node1&#45;&gt;Node4</title>
<path fill="none" stroke="midnightblue" d="M239.143,-116.857C248.913,-107.087 260.344,-95.6561 269.47,-86.5303"/>
<polygon fill="midnightblue" stroke="midnightblue" points="272.2,-88.7499 276.796,-79.2039 267.25,-83.8001 272.2,-88.7499"/>
</g>
<!-- Node7 -->
<g id="node7" class="node"><title>Node7</title>
<polygon fill="white" stroke="#bfbfbf" points="370.695,-59 370.695,-79 467.305,-79 467.305,-59 370.695,-59"/>
<text text-anchor="middle" x="419" y="-65" font-family="Helvetica,sans-Serif" font-size="10.00">ePub3/xml/node.h</text>
</g>
<!-- Node1&#45;&gt;Node7 -->
<g id="edge6" class="edge"><title>Node1&#45;&gt;Node7</title>
<path fill="none" stroke="midnightblue" d="M280.221,-116.95C313.843,-105.575 354.186,-91.9271 382.686,-82.2852"/>
<polygon fill="midnightblue" stroke="midnightblue" points="383.892,-85.5723 392.243,-79.0521 381.649,-78.9414 383.892,-85.5723"/>
</g>
<!-- Node5 -->
<g id="node5" class="node"><title>Node5</title>
<polygon fill="white" stroke="#bfbfbf" points="221.943,-1 221.943,-21 274.057,-21 274.057,-1 221.943,-1"/>
<text text-anchor="middle" x="248" y="-7" font-family="Helvetica,sans-Serif" font-size="10.00">memory</text>
</g>
<!-- Node4&#45;&gt;Node5 -->
<g id="edge4" class="edge"><title>Node4&#45;&gt;Node5</title>
<path fill="none" stroke="midnightblue" d="M279.725,-58.7527C274.358,-50.8427 266.482,-39.2372 259.921,-29.5683"/>
<polygon fill="midnightblue" stroke="midnightblue" points="262.669,-27.3847 254.158,-21.0752 256.877,-31.3152 262.669,-27.3847"/>
</g>
<!-- Node6 -->
<g id="node6" class="node"><title>Node6</title>
<polygon fill="white" stroke="#bfbfbf" points="291.934,-1 291.934,-21 354.066,-21 354.066,-1 291.934,-1"/>
<text text-anchor="middle" x="323" y="-7" font-family="Helvetica,sans-Serif" font-size="10.00">type_traits</text>
</g>
<!-- Node4&#45;&gt;Node6 -->
<g id="edge5" class="edge"><title>Node4&#45;&gt;Node6</title>
<path fill="none" stroke="midnightblue" d="M292.11,-58.7527C297.336,-50.8427 305.004,-39.2372 311.392,-29.5683"/>
<polygon fill="midnightblue" stroke="midnightblue" points="314.411,-31.348 317.004,-21.0752 308.571,-27.4891 314.411,-31.348"/>
</g>
</g>
</svg>
