<?xml version="1.0" encoding="UTF-8" standalone="no"?>
<!DOCTYPE svg PUBLIC "-//W3C//DTD SVG 1.1//EN"
 "http://www.w3.org/Graphics/SVG/1.1/DTD/svg11.dtd">
<!-- Generated by graphviz version 2.30.0 (20130114.0426)
 -->
<!-- Title: /Users/rkwright/Documents/github/readium&#45;sdk&#45;D/ePub3/xml/tree/node.cpp Pages: 1 -->
<svg width="985pt" height="112pt"
 viewBox="0.00 0.00 985.00 112.00" xmlns="http://www.w3.org/2000/svg" xmlns:xlink="http://www.w3.org/1999/xlink">
<g id="graph0" class="graph" transform="scale(1 1) rotate(0) translate(4 108)">
<title>/Users/rkwright/Documents/github/readium&#45;sdk&#45;D/ePub3/xml/tree/node.cpp</title>
<polygon fill="white" stroke="white" points="-4,5 -4,-108 982,-108 982,5 -4,5"/>
<!-- Node1 -->
<g id="node1" class="node"><title>Node1</title>
<polygon fill="#bfbfbf" stroke="black" points="486.966,-59 486.966,-103 633.034,-103 633.034,-59 486.966,-59"/>
<text text-anchor="start" x="494.966" y="-89" font-family="Helvetica,sans-Serif" font-size="10.00">/Users/rkwright/Documents</text>
<text text-anchor="start" x="494.966" y="-77" font-family="Helvetica,sans-Serif" font-size="10.00">/github/readium&#45;sdk&#45;D/ePub3</text>
<text text-anchor="middle" x="560" y="-65" font-family="Helvetica,sans-Serif" font-size="10.00">/xml/tree/node.cpp</text>
</g>
<!-- Node2 -->
<g id="node2" class="node"><title>Node2</title>
<polygon fill="white" stroke="#bfbfbf" points="-0.305176,-1 -0.305176,-21 96.3052,-21 96.3052,-1 -0.305176,-1"/>
<text text-anchor="middle" x="48" y="-7" font-family="Helvetica,sans-Serif" font-size="10.00">ePub3/xml/node.h</text>
</g>
<!-- Node1&#45;&gt;Node2 -->
<g id="edge1" class="edge"><title>Node1&#45;&gt;Node2</title>
<path fill="none" stroke="midnightblue" d="M486.961,-71.7583C399.069,-61.6004 246.787,-43.2365 106.559,-22.1856"/>
<polygon fill="midnightblue" stroke="midnightblue" points="106.895,-18.6967 96.4846,-20.6654 105.85,-25.6184 106.895,-18.6967"/>
</g>
<!-- Node3 -->
<g id="node3" class="node"><title>Node3</title>
<polygon fill="white" stroke="#bfbfbf" points="113.926,-1 113.926,-21 196.074,-21 196.074,-1 113.926,-1"/>
<text text-anchor="middle" x="155" y="-7" font-family="Helvetica,sans-Serif" font-size="10.00">ePub3/xml/io.h</text>
</g>
<!-- Node1&#45;&gt;Node3 -->
<g id="edge2" class="edge"><title>Node1&#45;&gt;Node3</title>
<path fill="none" stroke="midnightblue" d="M486.663,-68.6687C417.232,-57.7845 309.814,-40.5427 206.19,-21.9876"/>
<polygon fill="midnightblue" stroke="midnightblue" points="206.637,-18.5119 196.175,-20.188 205.398,-25.4015 206.637,-18.5119"/>
</g>
<!-- Node4 -->
<g id="node4" class="node"><title>Node4</title>
<polygon fill="white" stroke="#bfbfbf" points="214.537,-1 214.537,-21 299.463,-21 299.463,-1 214.537,-1"/>
<text text-anchor="middle" x="257" y="-7" font-family="Helvetica,sans-Serif" font-size="10.00">ePub3/xml/ns.h</text>
</g>
<!-- Node1&#45;&gt;Node4 -->
<g id="edge3" class="edge"><title>Node1&#45;&gt;Node4</title>
<path fill="none" stroke="midnightblue" d="M486.652,-63.5391C431.058,-51.0624 356.128,-34.2466 307.206,-23.2673"/>
<polygon fill="midnightblue" stroke="midnightblue" points="307.701,-19.7915 297.177,-21.0167 306.168,-26.6216 307.701,-19.7915"/>
</g>
<!-- Node5 -->
<g id="node5" class="node"><title>Node5</title>
<polygon fill="white" stroke="#bfbfbf" points="317.586,-1 317.586,-21 416.414,-21 416.414,-1 317.586,-1"/>
<text text-anchor="middle" x="367" y="-7" font-family="Helvetica,sans-Serif" font-size="10.00">ePub3/xml/xpath.h</text>
</g>
<!-- Node1&#45;&gt;Node5 -->
<g id="edge4" class="edge"><title>Node1&#45;&gt;Node5</title>
<path fill="none" stroke="midnightblue" d="M500.255,-58.9501C468.112,-47.625 429.572,-34.0463 402.227,-24.4117"/>
<polygon fill="midnightblue" stroke="midnightblue" points="403.287,-21.0742 392.692,-21.0521 400.961,-27.6764 403.287,-21.0742"/>
</g>
<!-- Node6 -->
<g id="node6" class="node"><title>Node6</title>
<polygon fill="white" stroke="#bfbfbf" points="434.86,-1 434.86,-21 553.14,-21 553.14,-1 434.86,-1"/>
<text text-anchor="middle" x="494" y="-7" font-family="Helvetica,sans-Serif" font-size="10.00">ePub3/xml/document.h</text>
</g>
<!-- Node1&#45;&gt;Node6 -->
<g id="edge5" class="edge"><title>Node1&#45;&gt;Node6</title>
<path fill="none" stroke="midnightblue" d="M539.479,-58.8571C529.996,-49.0871 518.901,-37.6561 510.044,-28.5303"/>
<polygon fill="midnightblue" stroke="midnightblue" points="512.41,-25.9421 502.933,-21.2039 507.386,-30.8174 512.41,-25.9421"/>
</g>
<!-- Node7 -->
<g id="node7" class="node"><title>Node7</title>
<polygon fill="white" stroke="#bfbfbf" points="571.03,-1 571.03,-21 680.97,-21 680.97,-1 571.03,-1"/>
<text text-anchor="middle" x="626" y="-7" font-family="Helvetica,sans-Serif" font-size="10.00">ePub3/xml/element.h</text>
</g>
<!-- Node1&#45;&gt;Node7 -->
<g id="edge6" class="edge"><title>Node1&#45;&gt;Node7</title>
<path fill="none" stroke="midnightblue" d="M580.521,-58.8571C590.004,-49.0871 601.099,-37.6561 609.956,-28.5303"/>
<polygon fill="midnightblue" stroke="midnightblue" points="612.614,-30.8174 617.067,-21.2039 607.59,-25.9421 612.614,-30.8174"/>
</g>
<!-- Node8 -->
<g id="node8" class="node"><title>Node8</title>
<polygon fill="white" stroke="#bfbfbf" points="698.867,-1 698.867,-21 787.133,-21 787.133,-1 698.867,-1"/>
<text text-anchor="middle" x="743" y="-7" font-family="Helvetica,sans-Serif" font-size="10.00">ePub3/xml/dtd.h</text>
</g>
<!-- Node1&#45;&gt;Node8 -->
<g id="edge7" class="edge"><title>Node1&#45;&gt;Node8</title>
<path fill="none" stroke="midnightblue" d="M616.899,-58.8571C647.095,-47.6367 683.188,-34.2253 709.007,-24.6314"/>
<polygon fill="midnightblue" stroke="midnightblue" points="710.553,-27.7906 718.708,-21.0266 708.115,-21.229 710.553,-27.7906"/>
</g>
<!-- Node9 -->
<g id="node9" class="node"><title>Node9</title>
<polygon fill="white" stroke="#bfbfbf" points="804.773,-1 804.773,-21 845.227,-21 845.227,-1 804.773,-1"/>
<text text-anchor="middle" x="825" y="-7" font-family="Helvetica,sans-Serif" font-size="10.00">string</text>
</g>
<!-- Node1&#45;&gt;Node9 -->
<g id="edge8" class="edge"><title>Node1&#45;&gt;Node9</title>
<path fill="none" stroke="midnightblue" d="M633.285,-63.803C677.644,-53.5768 735.488,-39.4981 794.598,-22.2455"/>
<polygon fill="midnightblue" stroke="midnightblue" points="795.876,-25.5178 804.479,-19.3347 793.898,-18.8031 795.876,-25.5178"/>
</g>
<!-- Node10 -->
<g id="node10" class="node"><title>Node10</title>
<polygon fill="white" stroke="#bfbfbf" points="863.219,-1 863.219,-21 914.781,-21 914.781,-1 863.219,-1"/>
<text text-anchor="middle" x="889" y="-7" font-family="Helvetica,sans-Serif" font-size="10.00">sstream</text>
</g>
<!-- Node1&#45;&gt;Node10 -->
<g id="edge9" class="edge"><title>Node1&#45;&gt;Node10</title>
<path fill="none" stroke="midnightblue" d="M633.163,-67.3211C690.539,-56.9741 772.563,-41.2965 853.24,-22.0359"/>
<polygon fill="midnightblue" stroke="midnightblue" points="854.167,-25.4127 863.07,-19.6694 852.529,-18.6072 854.167,-25.4127"/>
</g>
<!-- Node11 -->
<g id="node11" class="node"><title>Node11</title>
<polygon fill="white" stroke="#bfbfbf" points="932.828,-1 932.828,-21 977.172,-21 977.172,-1 932.828,-1"/>
<text text-anchor="middle" x="955" y="-7" font-family="Helvetica,sans-Serif" font-size="10.00">cstdlib</text>
</g>
<!-- Node1&#45;&gt;Node11 -->
<g id="edge10" class="edge"><title>Node1&#45;&gt;Node11</title>
<path fill="none" stroke="midnightblue" d="M633.264,-71.4534C707.013,-62.1126 823.747,-45.3087 923,-22 923.099,-21.9767 923.198,-21.9533 923.298,-21.9297"/>
<polygon fill="midnightblue" stroke="midnightblue" points="923.976,-25.3714 932.734,-19.4093 922.17,-18.6084 923.976,-25.3714"/>
</g>
</g>
</svg>
