<?xml version="1.0" encoding="UTF-8" standalone="no"?>
<!DOCTYPE svg PUBLIC "-//W3C//DTD SVG 1.1//EN"
 "http://www.w3.org/Graphics/SVG/1.1/DTD/svg11.dtd">
<!-- Generated by graphviz version 2.30.0 (20130114.0426)
 -->
<!-- Title: /Users/rkwright/Documents/github/readium&#45;sdk&#45;D/ePub3/ePub/object_preprocessor.h Pages: 1 -->
<svg width="1259pt" height="530pt"
 viewBox="0.00 0.00 1258.79 530.00" xmlns="http://www.w3.org/2000/svg" xmlns:xlink="http://www.w3.org/1999/xlink">
<g id="graph0" class="graph" transform="scale(1 1) rotate(0) translate(4 526)">
<title>/Users/rkwright/Documents/github/readium&#45;sdk&#45;D/ePub3/ePub/object_preprocessor.h</title>
<polygon fill="white" stroke="white" points="-4,5 -4,-526 1255.79,-526 1255.79,5 -4,5"/>
<!-- Node1 -->
<g id="node1" class="node"><title>Node1</title>
<polygon fill="#bfbfbf" stroke="black" points="608.966,-477 608.966,-521 755.034,-521 755.034,-477 608.966,-477"/>
<text text-anchor="start" x="616.966" y="-507" font-family="Helvetica,sans-Serif" font-size="10.00">/Users/rkwright/Documents</text>
<text text-anchor="start" x="616.966" y="-495" font-family="Helvetica,sans-Serif" font-size="10.00">/github/readium&#45;sdk&#45;D/ePub3</text>
<text text-anchor="middle" x="682" y="-483" font-family="Helvetica,sans-Serif" font-size="10.00">/ePub/object_preprocessor.h</text>
</g>
<!-- Node2 -->
<g id="node2" class="node"><title>Node2</title>
<polygon fill="white" stroke="#bfbfbf" points="439.079,-419 439.079,-439 522.921,-439 522.921,-419 439.079,-419"/>
<text text-anchor="middle" x="481" y="-425" font-family="Helvetica,sans-Serif" font-size="10.00">ePub3/epub3.h</text>
</g>
<!-- Node1&#45;&gt;Node2 -->
<g id="edge1" class="edge"><title>Node1&#45;&gt;Node2</title>
<path fill="none" stroke="midnightblue" d="M619.779,-476.95C586.157,-465.575 545.814,-451.927 517.314,-442.285"/>
<polygon fill="midnightblue" stroke="midnightblue" points="518.351,-438.941 507.757,-439.052 516.108,-445.572 518.351,-438.941"/>
</g>
<!-- Node3 -->
<g id="node3" class="node"><title>Node3</title>
<polygon fill="white" stroke="#bfbfbf" points="540.811,-419 540.811,-439 615.189,-439 615.189,-419 540.811,-419"/>
<text text-anchor="middle" x="578" y="-425" font-family="Helvetica,sans-Serif" font-size="10.00">ePub3/filter.h</text>
</g>
<!-- Node1&#45;&gt;Node3 -->
<g id="edge2" class="edge"><title>Node1&#45;&gt;Node3</title>
<path fill="none" stroke="midnightblue" d="M649.664,-476.857C633.718,-466.431 614.879,-454.113 600.519,-444.724"/>
<polygon fill="midnightblue" stroke="midnightblue" points="602.09,-441.57 591.805,-439.027 598.26,-447.429 602.09,-441.57"/>
</g>
<!-- Node4 -->
<g id="node4" class="node"><title>Node4</title>
<g id="a_node4"><a xlink:href="iri_8h.xhtml" target="_top" xlink:title="ePub3/utilities/iri.h">
<polygon fill="white" stroke="black" points="633.424,-419 633.424,-439 730.576,-439 730.576,-419 633.424,-419"/>
<text text-anchor="middle" x="682" y="-425" font-family="Helvetica,sans-Serif" font-size="10.00">ePub3/utilities/iri.h</text>
</a>
</g>
</g>
<!-- Node1&#45;&gt;Node4 -->
<g id="edge3" class="edge"><title>Node1&#45;&gt;Node4</title>
<path fill="none" stroke="midnightblue" d="M682,-476.857C682,-468.074 682,-457.948 682,-449.362"/>
<polygon fill="midnightblue" stroke="midnightblue" points="685.5,-449.204 682,-439.204 678.5,-449.204 685.5,-449.204"/>
</g>
<!-- Node35 -->
<g id="node35" class="node"><title>Node35</title>
<polygon fill="white" stroke="#bfbfbf" points="748.395,-419 748.395,-439 875.605,-439 875.605,-419 748.395,-419"/>
<text text-anchor="middle" x="812" y="-425" font-family="Helvetica,sans-Serif" font-size="10.00">ePub3/content_handler.h</text>
</g>
<!-- Node1&#45;&gt;Node35 -->
<g id="edge44" class="edge"><title>Node1&#45;&gt;Node35</title>
<path fill="none" stroke="midnightblue" d="M722.42,-476.857C743.112,-466.034 767.7,-453.172 785.877,-443.664"/>
<polygon fill="midnightblue" stroke="midnightblue" points="787.505,-446.763 794.743,-439.027 784.26,-440.56 787.505,-446.763"/>
</g>
<!-- Node27 -->
<g id="node27" class="node"><title>Node27</title>
<polygon fill="white" stroke="#bfbfbf" points="1144.77,-297 1144.77,-317 1245.23,-317 1245.23,-297 1144.77,-297"/>
<text text-anchor="middle" x="1195" y="-303" font-family="Helvetica,sans-Serif" font-size="10.00">REGEX_INCLUDE</text>
</g>
<!-- Node1&#45;&gt;Node27 -->
<g id="edge45" class="edge"><title>Node1&#45;&gt;Node27</title>
<path fill="none" stroke="midnightblue" d="M755.135,-479.31C793.807,-468.849 841.87,-454.927 884,-440 990.438,-402.289 1112.67,-346.646 1166.75,-321.369"/>
<polygon fill="midnightblue" stroke="midnightblue" points="1168.47,-324.429 1176.03,-317.013 1165.49,-318.091 1168.47,-324.429"/>
</g>
<!-- Node5 -->
<g id="node5" class="node"><title>Node5</title>
<g id="a_node5"><a xlink:href="utfstring_8h.xhtml" target="_top" xlink:title="ePub3/utilities/utfstring.h">
<polygon fill="white" stroke="black" points="619.525,-361 619.525,-381 744.475,-381 744.475,-361 619.525,-361"/>
<text text-anchor="middle" x="682" y="-367" font-family="Helvetica,sans-Serif" font-size="10.00">ePub3/utilities/utfstring.h</text>
</a>
</g>
</g>
<!-- Node4&#45;&gt;Node5 -->
<g id="edge4" class="edge"><title>Node4&#45;&gt;Node5</title>
<path fill="none" stroke="midnightblue" d="M682,-418.753C682,-411.25 682,-400.424 682,-391.078"/>
<polygon fill="midnightblue" stroke="midnightblue" points="685.5,-391.075 682,-381.075 678.5,-391.075 685.5,-391.075"/>
</g>
<!-- Node31 -->
<g id="node31" class="node"><title>Node31</title>
<g id="a_node31"><a xlink:href="make__unique_8h.xhtml" target="_top" xlink:title="ePub3/utilities/make\l_unique.h">
<polygon fill="white" stroke="black" points="93.2539,-291 93.2539,-323 198.746,-323 198.746,-291 93.2539,-291"/>
<text text-anchor="start" x="101.254" y="-309" font-family="Helvetica,sans-Serif" font-size="10.00">ePub3/utilities/make</text>
<text text-anchor="middle" x="146" y="-297" font-family="Helvetica,sans-Serif" font-size="10.00">_unique.h</text>
</a>
</g>
</g>
<!-- Node4&#45;&gt;Node31 -->
<g id="edge36" class="edge"><title>Node4&#45;&gt;Node31</title>
<path fill="none" stroke="midnightblue" d="M641.713,-418.98C549.047,-398.234 320.207,-347.002 208.866,-322.074"/>
<polygon fill="midnightblue" stroke="midnightblue" points="209.313,-318.588 198.79,-319.819 207.783,-325.419 209.313,-318.588"/>
</g>
<!-- Node34 -->
<g id="node34" class="node"><title>Node34</title>
<polygon fill="white" stroke="#bfbfbf" points="512.867,-361 512.867,-381 601.133,-381 601.133,-361 512.867,-361"/>
<text text-anchor="middle" x="557" y="-367" font-family="Helvetica,sans-Serif" font-size="10.00">google&#45;url/gurl.h</text>
</g>
<!-- Node4&#45;&gt;Node34 -->
<g id="edge42" class="edge"><title>Node4&#45;&gt;Node34</title>
<path fill="none" stroke="midnightblue" d="M661.638,-418.878C641.299,-409.766 609.816,-395.662 586.694,-385.303"/>
<polygon fill="midnightblue" stroke="midnightblue" points="587.91,-382.013 577.353,-381.118 585.048,-388.401 587.91,-382.013"/>
</g>
<!-- Node15 -->
<g id="node15" class="node"><title>Node15</title>
<polygon fill="white" stroke="#bfbfbf" points="906.384,-233 906.384,-253 949.616,-253 949.616,-233 906.384,-233"/>
<text text-anchor="middle" x="928" y="-239" font-family="Helvetica,sans-Serif" font-size="10.00">vector</text>
</g>
<!-- Node4&#45;&gt;Node15 -->
<g id="edge43" class="edge"><title>Node4&#45;&gt;Node15</title>
<path fill="none" stroke="midnightblue" d="M718.913,-418.967C785.28,-401.898 920.342,-363.1 947,-324 959.756,-305.291 949.409,-279.052 939.692,-261.798"/>
<polygon fill="midnightblue" stroke="midnightblue" points="942.684,-259.981 934.51,-253.241 936.697,-263.608 942.684,-259.981"/>
</g>
<!-- Node6 -->
<g id="node6" class="node"><title>Node6</title>
<g id="a_node6"><a xlink:href="basic_8h.xhtml" target="_top" xlink:title="ePub3/utilities/basic.h">
<polygon fill="white" stroke="black" points="1013.64,-297 1013.64,-317 1126.36,-317 1126.36,-297 1013.64,-297"/>
<text text-anchor="middle" x="1070" y="-303" font-family="Helvetica,sans-Serif" font-size="10.00">ePub3/utilities/basic.h</text>
</a>
</g>
</g>
<!-- Node5&#45;&gt;Node6 -->
<g id="edge5" class="edge"><title>Node5&#45;&gt;Node6</title>
<path fill="none" stroke="midnightblue" d="M738.419,-360.985C808.676,-349.758 928.533,-330.606 1003.28,-318.662"/>
<polygon fill="midnightblue" stroke="midnightblue" points="1004.19,-322.06 1013.51,-317.026 1003.09,-315.148 1004.19,-322.06"/>
</g>
<!-- Node17 -->
<g id="node17" class="node"><title>Node17</title>
<g id="a_node17"><a xlink:href="integer__sequence_8h.xhtml" target="_top" xlink:title="ePub3/utilities/integer\l_sequence.h">
<polygon fill="white" stroke="black" points="808.192,-291 808.192,-323 919.808,-323 919.808,-291 808.192,-291"/>
<text text-anchor="start" x="816.192" y="-309" font-family="Helvetica,sans-Serif" font-size="10.00">ePub3/utilities/integer</text>
<text text-anchor="middle" x="864" y="-297" font-family="Helvetica,sans-Serif" font-size="10.00">_sequence.h</text>
</a>
</g>
</g>
<!-- Node5&#45;&gt;Node17 -->
<g id="edge16" class="edge"><title>Node5&#45;&gt;Node17</title>
<path fill="none" stroke="midnightblue" d="M708.464,-360.985C735.025,-351.937 776.697,-337.741 810.224,-326.319"/>
<polygon fill="midnightblue" stroke="midnightblue" points="811.555,-329.564 819.892,-323.026 809.298,-322.937 811.555,-329.564"/>
</g>
<!-- Node18 -->
<g id="node18" class="node"><title>Node18</title>
<g id="a_node18"><a xlink:href="string__view_8h.xhtml" target="_top" xlink:title="ePub3/utilities/string\l_view.h">
<polygon fill="white" stroke="black" points="273.254,-291 273.254,-323 378.746,-323 378.746,-291 273.254,-291"/>
<text text-anchor="start" x="281.254" y="-309" font-family="Helvetica,sans-Serif" font-size="10.00">ePub3/utilities/string</text>
<text text-anchor="middle" x="326" y="-297" font-family="Helvetica,sans-Serif" font-size="10.00">_view.h</text>
</a>
</g>
</g>
<!-- Node5&#45;&gt;Node18 -->
<g id="edge18" class="edge"><title>Node5&#45;&gt;Node18</title>
<path fill="none" stroke="midnightblue" d="M621.666,-360.954C550.239,-350.146 435.606,-332.465 393,-324 391.713,-323.744 390.414,-323.481 389.105,-323.212"/>
<polygon fill="midnightblue" stroke="midnightblue" points="389.459,-319.708 378.948,-321.04 387.995,-326.554 389.459,-319.708"/>
</g>
<!-- Node20 -->
<g id="node20" class="node"><title>Node20</title>
<polygon fill="white" stroke="#bfbfbf" points="569.773,-233 569.773,-253 610.227,-253 610.227,-233 569.773,-233"/>
<text text-anchor="middle" x="590" y="-239" font-family="Helvetica,sans-Serif" font-size="10.00">string</text>
</g>
<!-- Node5&#45;&gt;Node20 -->
<g id="edge27" class="edge"><title>Node5&#45;&gt;Node20</title>
<path fill="none" stroke="midnightblue" d="M643.13,-360.946C623.59,-354.217 601.641,-342.836 590,-324 578.739,-305.78 581.046,-280.479 584.66,-263.241"/>
<polygon fill="midnightblue" stroke="midnightblue" points="588.132,-263.777 587.094,-253.233 581.33,-262.123 588.132,-263.777"/>
</g>
<!-- Node25 -->
<g id="node25" class="node"><title>Node25</title>
<polygon fill="white" stroke="#bfbfbf" points="435.438,-297 435.438,-317 482.562,-317 482.562,-297 435.438,-297"/>
<text text-anchor="middle" x="459" y="-303" font-family="Helvetica,sans-Serif" font-size="10.00">iterator</text>
</g>
<!-- Node5&#45;&gt;Node25 -->
<g id="edge28" class="edge"><title>Node5&#45;&gt;Node25</title>
<path fill="none" stroke="midnightblue" d="M631.94,-360.929C593.123,-353.17 538.32,-340.62 492,-324 489.725,-323.184 487.398,-322.257 485.086,-321.272"/>
<polygon fill="midnightblue" stroke="midnightblue" points="486.376,-318.013 475.828,-317.017 483.453,-324.373 486.376,-318.013"/>
</g>
<!-- Node26 -->
<g id="node26" class="node"><title>Node26</title>
<polygon fill="white" stroke="#bfbfbf" points="500.936,-297 500.936,-317 543.064,-317 543.064,-297 500.936,-297"/>
<text text-anchor="middle" x="522" y="-303" font-family="Helvetica,sans-Serif" font-size="10.00">locale</text>
</g>
<!-- Node5&#45;&gt;Node26 -->
<g id="edge29" class="edge"><title>Node5&#45;&gt;Node26</title>
<path fill="none" stroke="midnightblue" d="M655.438,-360.886C629.978,-351.995 590.569,-337.826 557,-324 554.811,-323.098 552.557,-322.14 550.298,-321.157"/>
<polygon fill="midnightblue" stroke="midnightblue" points="551.699,-317.949 541.14,-317.068 548.845,-324.341 551.699,-317.949"/>
</g>
<!-- Node5&#45;&gt;Node15 -->
<g id="edge30" class="edge"><title>Node5&#45;&gt;Node15</title>
<path fill="none" stroke="midnightblue" d="M744.769,-367.129C809.816,-362.681 905.136,-351.536 928,-324 941.96,-307.187 938.76,-280.82 934.22,-262.995"/>
<polygon fill="midnightblue" stroke="midnightblue" points="937.514,-261.788 931.361,-253.162 930.792,-263.742 937.514,-261.788"/>
</g>
<!-- Node5&#45;&gt;Node27 -->
<g id="edge31" class="edge"><title>Node5&#45;&gt;Node27</title>
<path fill="none" stroke="midnightblue" d="M744.727,-366.798C832.574,-361.596 996.975,-349.245 1135,-324 1141.47,-322.816 1148.27,-321.288 1154.87,-319.646"/>
<polygon fill="midnightblue" stroke="midnightblue" points="1156.2,-322.914 1165,-317.006 1154.44,-316.141 1156.2,-322.914"/>
</g>
<!-- Node28 -->
<g id="node28" class="node"><title>Node28</title>
<polygon fill="white" stroke="#bfbfbf" points="599.273,-297 599.273,-317 634.727,-317 634.727,-297 599.273,-297"/>
<text text-anchor="middle" x="617" y="-303" font-family="Helvetica,sans-Serif" font-size="10.00">map</text>
</g>
<!-- Node5&#45;&gt;Node28 -->
<g id="edge32" class="edge"><title>Node5&#45;&gt;Node28</title>
<path fill="none" stroke="midnightblue" d="M672.409,-360.852C662.328,-351.236 646.263,-335.913 634.022,-324.236"/>
<polygon fill="midnightblue" stroke="midnightblue" points="636.282,-321.555 626.63,-317.186 631.451,-326.621 636.282,-321.555"/>
</g>
<!-- Node29 -->
<g id="node29" class="node"><title>Node29</title>
<polygon fill="white" stroke="#bfbfbf" points="652.599,-297 652.599,-317 711.401,-317 711.401,-297 652.599,-297"/>
<text text-anchor="middle" x="682" y="-303" font-family="Helvetica,sans-Serif" font-size="10.00">stdexcept</text>
</g>
<!-- Node5&#45;&gt;Node29 -->
<g id="edge33" class="edge"><title>Node5&#45;&gt;Node29</title>
<path fill="none" stroke="midnightblue" d="M682,-360.852C682,-352.06 682,-338.498 682,-327.313"/>
<polygon fill="midnightblue" stroke="midnightblue" points="685.5,-327.186 682,-317.186 678.5,-327.186 685.5,-327.186"/>
</g>
<!-- Node21 -->
<g id="node21" class="node"><title>Node21</title>
<polygon fill="white" stroke="#bfbfbf" points="512.613,-233 512.613,-253 551.387,-253 551.387,-233 512.613,-233"/>
<text text-anchor="middle" x="532" y="-239" font-family="Helvetica,sans-Serif" font-size="10.00">limits</text>
</g>
<!-- Node5&#45;&gt;Node21 -->
<g id="edge34" class="edge"><title>Node5&#45;&gt;Node21</title>
<path fill="none" stroke="midnightblue" d="M620.695,-360.991C546.972,-349.865 432.265,-331.491 426,-324 416.306,-312.408 417.71,-302.634 426,-290 430.524,-283.106 472.959,-266.093 502.743,-254.803"/>
<polygon fill="midnightblue" stroke="midnightblue" points="504.157,-258.011 512.286,-251.216 501.694,-251.458 504.157,-258.011"/>
</g>
<!-- Node30 -->
<g id="node30" class="node"><title>Node30</title>
<polygon fill="white" stroke="#bfbfbf" points="729.761,-297 729.761,-317 790.239,-317 790.239,-297 729.761,-297"/>
<text text-anchor="middle" x="760" y="-303" font-family="Helvetica,sans-Serif" font-size="10.00">utf8/utf8.h</text>
</g>
<!-- Node5&#45;&gt;Node30 -->
<g id="edge35" class="edge"><title>Node5&#45;&gt;Node30</title>
<path fill="none" stroke="midnightblue" d="M693.509,-360.852C705.837,-351.053 725.621,-335.327 740.408,-323.573"/>
<polygon fill="midnightblue" stroke="midnightblue" points="742.793,-326.148 748.444,-317.186 738.437,-320.668 742.793,-326.148"/>
</g>
<!-- Node7 -->
<g id="node7" class="node"><title>Node7</title>
<g id="a_node7"><a xlink:href="base_8h.xhtml" target="_top" xlink:title="ePub3/base.h">
<polygon fill="white" stroke="black" points="580.141,-175 580.141,-195 657.859,-195 657.859,-175 580.141,-175"/>
<text text-anchor="middle" x="619" y="-181" font-family="Helvetica,sans-Serif" font-size="10.00">ePub3/base.h</text>
</a>
</g>
</g>
<!-- Node6&#45;&gt;Node7 -->
<g id="edge6" class="edge"><title>Node6&#45;&gt;Node7</title>
<path fill="none" stroke="midnightblue" d="M1104.53,-296.933C1154.54,-283.639 1241.66,-259.806 1246,-254 1251.85,-246.168 1252.66,-239.162 1246,-232 1206.95,-189.977 809.162,-185.952 668.198,-185.856"/>
<polygon fill="midnightblue" stroke="midnightblue" points="668.107,-182.356 658.107,-185.855 668.107,-189.356 668.107,-182.356"/>
</g>
<!-- Node12 -->
<g id="node12" class="node"><title>Node12</title>
<polygon fill="white" stroke="#bfbfbf" points="1122.82,-233 1122.82,-253 1237.18,-253 1237.18,-233 1122.82,-233"/>
<text text-anchor="middle" x="1180" y="-239" font-family="Helvetica,sans-Serif" font-size="10.00">ePub3/xml/xmlstring.h</text>
</g>
<!-- Node6&#45;&gt;Node12 -->
<g id="edge11" class="edge"><title>Node6&#45;&gt;Node12</title>
<path fill="none" stroke="midnightblue" d="M1086.23,-296.852C1104.35,-286.641 1133.88,-269.994 1154.96,-258.112"/>
<polygon fill="midnightblue" stroke="midnightblue" points="1156.71,-261.145 1163.7,-253.186 1153.27,-255.047 1156.71,-261.145"/>
</g>
<!-- Node13 -->
<g id="node13" class="node"><title>Node13</title>
<polygon fill="white" stroke="#bfbfbf" points="1006.22,-233 1006.22,-253 1057.78,-253 1057.78,-233 1006.22,-233"/>
<text text-anchor="middle" x="1032" y="-239" font-family="Helvetica,sans-Serif" font-size="10.00">sstream</text>
</g>
<!-- Node6&#45;&gt;Node13 -->
<g id="edge12" class="edge"><title>Node6&#45;&gt;Node13</title>
<path fill="none" stroke="midnightblue" d="M1064.39,-296.852C1058.78,-287.694 1049.99,-273.359 1042.99,-261.928"/>
<polygon fill="midnightblue" stroke="midnightblue" points="1045.84,-259.883 1037.63,-253.186 1039.87,-263.541 1045.84,-259.883"/>
</g>
<!-- Node14 -->
<g id="node14" class="node"><title>Node14</title>
<polygon fill="white" stroke="#bfbfbf" points="361.943,-175 361.943,-195 414.057,-195 414.057,-175 361.943,-175"/>
<text text-anchor="middle" x="388" y="-181" font-family="Helvetica,sans-Serif" font-size="10.00">memory</text>
</g>
<!-- Node6&#45;&gt;Node14 -->
<g id="edge13" class="edge"><title>Node6&#45;&gt;Node14</title>
<path fill="none" stroke="midnightblue" d="M1057.04,-296.905C1029.94,-277.972 968.905,-235.762 958,-232 907.716,-214.653 542.158,-194.112 424.427,-187.882"/>
<polygon fill="midnightblue" stroke="midnightblue" points="424.312,-184.372 414.142,-187.341 423.945,-191.362 424.312,-184.372"/>
</g>
<!-- Node6&#45;&gt;Node15 -->
<g id="edge14" class="edge"><title>Node6&#45;&gt;Node15</title>
<path fill="none" stroke="midnightblue" d="M1049.35,-296.985C1025.37,-286.516 985.612,-269.154 958.173,-257.174"/>
<polygon fill="midnightblue" stroke="midnightblue" points="959.238,-253.82 948.673,-253.026 956.437,-260.235 959.238,-253.82"/>
</g>
<!-- Node16 -->
<g id="node16" class="node"><title>Node16</title>
<polygon fill="white" stroke="#bfbfbf" points="1075.5,-233 1075.5,-253 1104.5,-253 1104.5,-233 1075.5,-233"/>
<text text-anchor="middle" x="1089.61" y="-239" font-family="Helvetica,sans-Serif" font-size="10.00">list</text>
</g>
<!-- Node6&#45;&gt;Node16 -->
<g id="edge15" class="edge"><title>Node6&#45;&gt;Node16</title>
<path fill="none" stroke="midnightblue" d="M1072.95,-296.852C1075.82,-287.969 1080.25,-274.215 1083.88,-262.964"/>
<polygon fill="midnightblue" stroke="midnightblue" points="1087.3,-263.777 1087.04,-253.186 1080.64,-261.628 1087.3,-263.777"/>
</g>
<!-- Node8 -->
<g id="node8" class="node"><title>Node8</title>
<g id="a_node8"><a xlink:href="__config_8h.xhtml" target="_top" xlink:title="_config.h">
<polygon fill="white" stroke="black" points="555.707,-117 555.707,-137 612.293,-137 612.293,-117 555.707,-117"/>
<text text-anchor="middle" x="584" y="-123" font-family="Helvetica,sans-Serif" font-size="10.00">_config.h</text>
</a>
</g>
</g>
<!-- Node7&#45;&gt;Node8 -->
<g id="edge7" class="edge"><title>Node7&#45;&gt;Node8</title>
<path fill="none" stroke="midnightblue" d="M613.22,-174.753C608.277,-166.843 601.023,-155.237 594.98,-145.568"/>
<polygon fill="midnightblue" stroke="midnightblue" points="597.94,-143.7 589.672,-137.075 592.004,-147.41 597.94,-143.7"/>
</g>
<!-- Node11 -->
<g id="node11" class="node"><title>Node11</title>
<polygon fill="white" stroke="#bfbfbf" points="630.158,-117 630.158,-137 677.842,-137 677.842,-117 630.158,-117"/>
<text text-anchor="middle" x="654" y="-123" font-family="Helvetica,sans-Serif" font-size="10.00">stdlib.h</text>
</g>
<!-- Node7&#45;&gt;Node11 -->
<g id="edge10" class="edge"><title>Node7&#45;&gt;Node11</title>
<path fill="none" stroke="midnightblue" d="M624.78,-174.753C629.723,-166.843 636.977,-155.237 643.02,-145.568"/>
<polygon fill="midnightblue" stroke="midnightblue" points="645.996,-147.41 648.328,-137.075 640.06,-143.7 645.996,-147.41"/>
</g>
<!-- Node9 -->
<g id="node9" class="node"><title>Node9</title>
<g id="a_node9"><a xlink:href="__platform_8h.xhtml" target="_top" xlink:title="_platform.h">
<polygon fill="white" stroke="black" points="550.988,-59 550.988,-79 617.012,-79 617.012,-59 550.988,-59"/>
<text text-anchor="middle" x="584" y="-65" font-family="Helvetica,sans-Serif" font-size="10.00">_platform.h</text>
</a>
</g>
</g>
<!-- Node8&#45;&gt;Node9 -->
<g id="edge8" class="edge"><title>Node8&#45;&gt;Node9</title>
<path fill="none" stroke="midnightblue" d="M584,-116.753C584,-109.25 584,-98.4238 584,-89.0781"/>
<polygon fill="midnightblue" stroke="midnightblue" points="587.5,-89.0752 584,-79.0752 580.5,-89.0752 587.5,-89.0752"/>
</g>
<!-- Node10 -->
<g id="node10" class="node"><title>Node10</title>
<g id="a_node10"><a xlink:href="__compiler_8h.xhtml" target="_top" xlink:title="_compiler.h">
<polygon fill="white" stroke="black" points="550.429,-1 550.429,-21 617.571,-21 617.571,-1 550.429,-1"/>
<text text-anchor="middle" x="584" y="-7" font-family="Helvetica,sans-Serif" font-size="10.00">_compiler.h</text>
</a>
</g>
</g>
<!-- Node9&#45;&gt;Node10 -->
<g id="edge9" class="edge"><title>Node9&#45;&gt;Node10</title>
<path fill="none" stroke="midnightblue" d="M584,-58.7527C584,-51.2504 584,-40.4238 584,-31.0781"/>
<polygon fill="midnightblue" stroke="midnightblue" points="587.5,-31.0752 584,-21.0752 580.5,-31.0752 587.5,-31.0752"/>
</g>
<!-- Node17&#45;&gt;Node7 -->
<g id="edge17" class="edge"><title>Node17&#45;&gt;Node7</title>
<path fill="none" stroke="midnightblue" d="M832.971,-290.802C784.766,-267.191 692.657,-222.077 646.621,-199.529"/>
<polygon fill="midnightblue" stroke="midnightblue" points="648.05,-196.331 637.529,-195.076 644.97,-202.618 648.05,-196.331"/>
</g>
<!-- Node19 -->
<g id="node19" class="node"><title>Node19</title>
<polygon fill="white" stroke="#bfbfbf" points="197.934,-233 197.934,-253 260.066,-253 260.066,-233 197.934,-233"/>
<text text-anchor="middle" x="229" y="-239" font-family="Helvetica,sans-Serif" font-size="10.00">type_traits</text>
</g>
<!-- Node18&#45;&gt;Node19 -->
<g id="edge19" class="edge"><title>Node18&#45;&gt;Node19</title>
<path fill="none" stroke="midnightblue" d="M302.519,-290.992C287.196,-281.198 267.286,-268.471 252.05,-258.733"/>
<polygon fill="midnightblue" stroke="midnightblue" points="253.562,-255.545 243.251,-253.109 249.792,-261.443 253.562,-255.545"/>
</g>
<!-- Node18&#45;&gt;Node20 -->
<g id="edge20" class="edge"><title>Node18&#45;&gt;Node20</title>
<path fill="none" stroke="midnightblue" d="M378.892,-295.868C426.571,-286.35 498.437,-271.052 560,-254 560.099,-253.973 560.199,-253.945 560.298,-253.917"/>
<polygon fill="midnightblue" stroke="midnightblue" points="561.192,-257.303 569.754,-251.063 559.169,-250.602 561.192,-257.303"/>
</g>
<!-- Node18&#45;&gt;Node21 -->
<g id="edge21" class="edge"><title>Node18&#45;&gt;Node21</title>
<path fill="none" stroke="midnightblue" d="M378.86,-291.163C411.869,-281.74 455.449,-269.012 502.593,-254.029"/>
<polygon fill="midnightblue" stroke="midnightblue" points="503.925,-257.278 512.386,-250.901 501.795,-250.61 503.925,-257.278"/>
</g>
<!-- Node22 -->
<g id="node22" class="node"><title>Node22</title>
<polygon fill="white" stroke="#bfbfbf" points="439.828,-233 439.828,-253 494.172,-253 494.172,-233 439.828,-233"/>
<text text-anchor="middle" x="467" y="-239" font-family="Helvetica,sans-Serif" font-size="10.00">iostream</text>
</g>
<!-- Node18&#45;&gt;Node22 -->
<g id="edge22" class="edge"><title>Node18&#45;&gt;Node22</title>
<path fill="none" stroke="midnightblue" d="M360.132,-290.992C383.561,-280.689 414.369,-267.143 436.885,-257.242"/>
<polygon fill="midnightblue" stroke="midnightblue" points="438.54,-260.338 446.285,-253.109 435.722,-253.93 438.54,-260.338"/>
</g>
<!-- Node23 -->
<g id="node23" class="node"><title>Node23</title>
<polygon fill="white" stroke="#bfbfbf" points="278.436,-233 278.436,-253 335.564,-253 335.564,-233 278.436,-233"/>
<text text-anchor="middle" x="307" y="-239" font-family="Helvetica,sans-Serif" font-size="10.00">algorithm</text>
</g>
<!-- Node18&#45;&gt;Node23 -->
<g id="edge23" class="edge"><title>Node18&#45;&gt;Node23</title>
<path fill="none" stroke="midnightblue" d="M321.401,-290.992C318.811,-282.543 315.554,-271.912 312.792,-262.899"/>
<polygon fill="midnightblue" stroke="midnightblue" points="316.124,-261.826 309.847,-253.29 309.431,-263.877 316.124,-261.826"/>
</g>
<!-- Node24 -->
<g id="node24" class="node"><title>Node24</title>
<g id="a_node24"><a xlink:href="____strhash_8h.xhtml" target="_top" xlink:title="__strhash.h">
<polygon fill="white" stroke="black" points="353.872,-233 353.872,-253 422.128,-253 422.128,-233 353.872,-233"/>
<text text-anchor="middle" x="388" y="-239" font-family="Helvetica,sans-Serif" font-size="10.00">__strhash.h</text>
</a>
</g>
</g>
<!-- Node18&#45;&gt;Node24 -->
<g id="edge24" class="edge"><title>Node18&#45;&gt;Node24</title>
<path fill="none" stroke="midnightblue" d="M341.008,-290.992C350.192,-281.808 361.954,-270.046 371.413,-260.587"/>
<polygon fill="midnightblue" stroke="midnightblue" points="374.113,-262.836 378.71,-253.29 369.164,-257.887 374.113,-262.836"/>
</g>
<!-- Node24&#45;&gt;Node7 -->
<g id="edge25" class="edge"><title>Node24&#45;&gt;Node7</title>
<path fill="none" stroke="midnightblue" d="M422.334,-233.677C461.978,-224.066 527.418,-208.202 571.824,-197.437"/>
<polygon fill="midnightblue" stroke="midnightblue" points="572.902,-200.777 581.796,-195.019 571.253,-193.974 572.902,-200.777"/>
</g>
<!-- Node24&#45;&gt;Node14 -->
<g id="edge26" class="edge"><title>Node24&#45;&gt;Node14</title>
<path fill="none" stroke="midnightblue" d="M388,-232.753C388,-225.25 388,-214.424 388,-205.078"/>
<polygon fill="midnightblue" stroke="midnightblue" points="391.5,-205.075 388,-195.075 384.5,-205.075 391.5,-205.075"/>
</g>
<!-- Node31&#45;&gt;Node7 -->
<g id="edge37" class="edge"><title>Node31&#45;&gt;Node7</title>
<path fill="none" stroke="midnightblue" d="M150.224,-290.905C155.942,-273.539 167.934,-245.667 189,-232 220.392,-211.635 463.668,-195.091 569.779,-188.768"/>
<polygon fill="midnightblue" stroke="midnightblue" points="570.134,-192.253 579.91,-188.171 569.721,-185.265 570.134,-192.253"/>
</g>
<!-- Node32 -->
<g id="node32" class="node"><title>Node32</title>
<polygon fill="white" stroke="#bfbfbf" points="-0.120605,-233 -0.120605,-253 48.1206,-253 48.1206,-233 -0.120605,-233"/>
<text text-anchor="middle" x="24" y="-239" font-family="Helvetica,sans-Serif" font-size="10.00">cstddef</text>
</g>
<!-- Node31&#45;&gt;Node32 -->
<g id="edge38" class="edge"><title>Node31&#45;&gt;Node32</title>
<path fill="none" stroke="midnightblue" d="M116.467,-290.992C96.4682,-280.828 70.255,-267.507 50.8474,-257.644"/>
<polygon fill="midnightblue" stroke="midnightblue" points="52.4242,-254.519 41.9237,-253.109 49.2529,-260.76 52.4242,-254.519"/>
</g>
<!-- Node31&#45;&gt;Node14 -->
<g id="edge39" class="edge"><title>Node31&#45;&gt;Node14</title>
<path fill="none" stroke="midnightblue" d="M123.397,-290.879C103.054,-275.438 78.6726,-251.091 95,-232 127.629,-193.849 280.538,-187.128 351.568,-186.092"/>
<polygon fill="midnightblue" stroke="midnightblue" points="351.873,-189.589 361.832,-185.974 351.792,-182.589 351.873,-189.589"/>
</g>
<!-- Node31&#45;&gt;Node19 -->
<g id="edge40" class="edge"><title>Node31&#45;&gt;Node19</title>
<path fill="none" stroke="midnightblue" d="M166.092,-290.992C178.878,-281.441 195.397,-269.101 208.299,-259.463"/>
<polygon fill="midnightblue" stroke="midnightblue" points="210.646,-262.079 216.563,-253.29 206.457,-256.471 210.646,-262.079"/>
</g>
<!-- Node33 -->
<g id="node33" class="node"><title>Node33</title>
<polygon fill="white" stroke="#bfbfbf" points="103.608,-233 103.608,-253 142.392,-253 142.392,-233 103.608,-233"/>
<text text-anchor="middle" x="123" y="-239" font-family="Helvetica,sans-Serif" font-size="10.00">utility</text>
</g>
<!-- Node31&#45;&gt;Node33 -->
<g id="edge41" class="edge"><title>Node31&#45;&gt;Node33</title>
<path fill="none" stroke="midnightblue" d="M140.432,-290.992C137.298,-282.543 133.354,-271.912 130.011,-262.899"/>
<polygon fill="midnightblue" stroke="midnightblue" points="133.206,-261.449 126.446,-253.29 126.643,-263.883 133.206,-261.449"/>
</g>
</g>
</svg>
