<?xml version="1.0" encoding="UTF-8" standalone="no"?>
<!DOCTYPE svg PUBLIC "-//W3C//DTD SVG 1.1//EN"
 "http://www.w3.org/Graphics/SVG/1.1/DTD/svg11.dtd">
<!-- Generated by graphviz version 2.30.0 (20130114.0426)
 -->
<!-- Title: /Users/rkwright/Documents/github/readium&#45;sdk&#45;D/ePub3/ePub/package.h Pages: 1 -->
<svg width="2660pt" height="542pt"
 viewBox="0.00 0.00 2660.00 542.00" xmlns="http://www.w3.org/2000/svg" xmlns:xlink="http://www.w3.org/1999/xlink">
<g id="graph0" class="graph" transform="scale(1 1) rotate(0) translate(4 538)">
<title>/Users/rkwright/Documents/github/readium&#45;sdk&#45;D/ePub3/ePub/package.h</title>
<polygon fill="white" stroke="white" points="-4,5 -4,-538 2657,-538 2657,5 -4,5"/>
<!-- Node1 -->
<g id="node1" class="node"><title>Node1</title>
<polygon fill="#bfbfbf" stroke="black" points="1293.97,-489 1293.97,-533 1440.03,-533 1440.03,-489 1293.97,-489"/>
<text text-anchor="start" x="1301.97" y="-519" font-family="Helvetica,sans-Serif" font-size="10.00">/Users/rkwright/Documents</text>
<text text-anchor="start" x="1301.97" y="-507" font-family="Helvetica,sans-Serif" font-size="10.00">/github/readium&#45;sdk&#45;D/ePub3</text>
<text text-anchor="middle" x="1367" y="-495" font-family="Helvetica,sans-Serif" font-size="10.00">/ePub/package.h</text>
</g>
<!-- Node2 -->
<g id="node2" class="node"><title>Node2</title>
<polygon fill="white" stroke="#bfbfbf" points="-0.920898,-425 -0.920898,-445 82.9209,-445 82.9209,-425 -0.920898,-425"/>
<text text-anchor="middle" x="41" y="-431" font-family="Helvetica,sans-Serif" font-size="10.00">ePub3/epub3.h</text>
</g>
<!-- Node1&#45;&gt;Node2 -->
<g id="edge1" class="edge"><title>Node1&#45;&gt;Node2</title>
<path fill="none" stroke="midnightblue" d="M1293.66,-508.89C1059.24,-504.991 329.803,-490.04 97,-452 90.6478,-450.962 83.9921,-449.451 77.5767,-447.766"/>
<polygon fill="midnightblue" stroke="midnightblue" points="78.3446,-444.347 67.7711,-445.019 76.456,-451.087 78.3446,-444.347"/>
</g>
<!-- Node3 -->
<g id="node3" class="node"><title>Node3</title>
<polygon fill="white" stroke="#bfbfbf" points="233.773,-233 233.773,-253 274.227,-253 274.227,-233 233.773,-233"/>
<text text-anchor="middle" x="254" y="-239" font-family="Helvetica,sans-Serif" font-size="10.00">string</text>
</g>
<!-- Node1&#45;&gt;Node3 -->
<g id="edge2" class="edge"><title>Node1&#45;&gt;Node3</title>
<path fill="none" stroke="midnightblue" d="M1293.91,-509.994C1151.75,-508.826 828.578,-500.507 562,-452 364.984,-416.151 249.809,-484.456 130,-324 120.959,-311.892 121.371,-302.405 130,-290 150.903,-259.95 193.86,-249.488 223.297,-245.87"/>
<polygon fill="midnightblue" stroke="midnightblue" points="223.875,-249.33 233.464,-244.824 223.158,-242.366 223.875,-249.33"/>
</g>
<!-- Node4 -->
<g id="node4" class="node"><title>Node4</title>
<polygon fill="white" stroke="#bfbfbf" points="1153.38,-233 1153.38,-253 1196.62,-253 1196.62,-233 1153.38,-233"/>
<text text-anchor="middle" x="1175" y="-239" font-family="Helvetica,sans-Serif" font-size="10.00">vector</text>
</g>
<!-- Node1&#45;&gt;Node4 -->
<g id="edge3" class="edge"><title>Node1&#45;&gt;Node4</title>
<path fill="none" stroke="midnightblue" d="M1333.68,-488.765C1320.62,-478.972 1306.52,-466.33 1297,-452 1255.38,-389.341 1293.59,-349.832 1248,-290 1237.2,-275.827 1220.68,-264.894 1206.08,-257.25"/>
<polygon fill="midnightblue" stroke="midnightblue" points="1207.36,-253.98 1196.85,-252.701 1204.27,-260.26 1207.36,-253.98"/>
</g>
<!-- Node5 -->
<g id="node5" class="node"><title>Node5</title>
<polygon fill="white" stroke="#bfbfbf" points="1189.27,-297 1189.27,-317 1224.73,-317 1224.73,-297 1189.27,-297"/>
<text text-anchor="middle" x="1207" y="-303" font-family="Helvetica,sans-Serif" font-size="10.00">map</text>
</g>
<!-- Node1&#45;&gt;Node5 -->
<g id="edge4" class="edge"><title>Node1&#45;&gt;Node5</title>
<path fill="none" stroke="midnightblue" d="M1293.8,-500.551C1230.15,-491 1144.14,-474.448 1118,-452 1085.58,-424.154 1066.71,-395.838 1090,-360 1092.65,-355.929 1146.2,-333.185 1179.92,-319.159"/>
<polygon fill="midnightblue" stroke="midnightblue" points="1181.37,-322.35 1189.26,-315.286 1178.69,-315.883 1181.37,-322.35"/>
</g>
<!-- Node6 -->
<g id="node6" class="node"><title>Node6</title>
<polygon fill="white" stroke="#bfbfbf" points="1228.5,-233 1228.5,-253 1257.5,-253 1257.5,-233 1228.5,-233"/>
<text text-anchor="middle" x="1242.61" y="-239" font-family="Helvetica,sans-Serif" font-size="10.00">list</text>
</g>
<!-- Node1&#45;&gt;Node6 -->
<g id="edge5" class="edge"><title>Node1&#45;&gt;Node6</title>
<path fill="none" stroke="midnightblue" d="M1338.48,-488.858C1327.48,-478.998 1316.1,-466.281 1310,-452 1281.7,-385.758 1338.37,-353.839 1305,-290 1300.59,-281.56 1281.97,-268.315 1266.28,-258.201"/>
<polygon fill="midnightblue" stroke="midnightblue" points="1267.83,-255.042 1257.5,-252.668 1264.09,-260.963 1267.83,-255.042"/>
</g>
<!-- Node7 -->
<g id="node7" class="node"><title>Node7</title>
<polygon fill="white" stroke="#bfbfbf" points="1318.69,-425 1318.69,-445 1415.31,-445 1415.31,-425 1318.69,-425"/>
<text text-anchor="middle" x="1367" y="-431" font-family="Helvetica,sans-Serif" font-size="10.00">ePub3/xml/node.h</text>
</g>
<!-- Node1&#45;&gt;Node7 -->
<g id="edge6" class="edge"><title>Node1&#45;&gt;Node7</title>
<path fill="none" stroke="midnightblue" d="M1367,-488.993C1367,-478.323 1367,-465.458 1367,-455.075"/>
<polygon fill="midnightblue" stroke="midnightblue" points="1370.5,-455.004 1367,-445.004 1363.5,-455.005 1370.5,-455.004"/>
</g>
<!-- Node8 -->
<g id="node8" class="node"><title>Node8</title>
<g id="a_node8"><a xlink:href="owned__by_8h.xhtml" target="_top" xlink:title="ePub3/utilities/owned_by.h">
<polygon fill="white" stroke="black" points="138.884,-297 138.884,-317 273.116,-317 273.116,-297 138.884,-297"/>
<text text-anchor="middle" x="206" y="-303" font-family="Helvetica,sans-Serif" font-size="10.00">ePub3/utilities/owned_by.h</text>
</a>
</g>
</g>
<!-- Node1&#45;&gt;Node8 -->
<g id="edge7" class="edge"><title>Node1&#45;&gt;Node8</title>
<path fill="none" stroke="midnightblue" d="M1293.9,-507.87C1173.11,-503.369 924.668,-489.96 718,-452 535.353,-418.453 323.695,-348.744 241.329,-320.394"/>
<polygon fill="midnightblue" stroke="midnightblue" points="242.303,-317.028 231.709,-317.068 240.016,-323.644 242.303,-317.028"/>
</g>
<!-- Node11 -->
<g id="node11" class="node"><title>Node11</title>
<polygon fill="white" stroke="#bfbfbf" points="1432.91,-425 1432.91,-445 1535.09,-445 1535.09,-425 1432.91,-425"/>
<text text-anchor="middle" x="1484" y="-431" font-family="Helvetica,sans-Serif" font-size="10.00">ePub3/encryption.h</text>
</g>
<!-- Node1&#45;&gt;Node11 -->
<g id="edge10" class="edge"><title>Node1&#45;&gt;Node11</title>
<path fill="none" stroke="midnightblue" d="M1400.21,-488.993C1419.6,-476.734 1443.56,-461.576 1460.89,-450.616"/>
<polygon fill="midnightblue" stroke="midnightblue" points="1463.18,-453.308 1469.76,-445.004 1459.44,-447.392 1463.18,-453.308"/>
</g>
<!-- Node12 -->
<g id="node12" class="node"><title>Node12</title>
<polygon fill="white" stroke="#bfbfbf" points="1553.03,-425 1553.03,-445 1632.97,-445 1632.97,-425 1553.03,-425"/>
<text text-anchor="middle" x="1593" y="-431" font-family="Helvetica,sans-Serif" font-size="10.00">ePub3/spine.h</text>
</g>
<!-- Node1&#45;&gt;Node12 -->
<g id="edge11" class="edge"><title>Node1&#45;&gt;Node12</title>
<path fill="none" stroke="midnightblue" d="M1431.16,-488.993C1471.37,-475.826 1521.8,-459.315 1555.58,-448.253"/>
<polygon fill="midnightblue" stroke="midnightblue" points="1557.09,-451.443 1565.5,-445.004 1554.91,-444.79 1557.09,-451.443"/>
</g>
<!-- Node13 -->
<g id="node13" class="node"><title>Node13</title>
<polygon fill="white" stroke="#bfbfbf" points="1651.09,-425 1651.09,-445 1744.91,-445 1744.91,-425 1651.09,-425"/>
<text text-anchor="middle" x="1698" y="-431" font-family="Helvetica,sans-Serif" font-size="10.00">ePub3/manifest.h</text>
</g>
<!-- Node1&#45;&gt;Node13 -->
<g id="edge12" class="edge"><title>Node1&#45;&gt;Node13</title>
<path fill="none" stroke="midnightblue" d="M1440.27,-495.838C1495.63,-484.812 1573.36,-468.633 1641,-452 1646.36,-450.681 1651.99,-449.21 1657.53,-447.71"/>
<polygon fill="midnightblue" stroke="midnightblue" points="1658.62,-451.039 1667.33,-445.004 1656.76,-444.291 1658.62,-451.039"/>
</g>
<!-- Node14 -->
<g id="node14" class="node"><title>Node14</title>
<polygon fill="white" stroke="#bfbfbf" points="1762.98,-425 1762.98,-445 1829.02,-445 1829.02,-425 1762.98,-425"/>
<text text-anchor="middle" x="1796" y="-431" font-family="Helvetica,sans-Serif" font-size="10.00">ePub3/cfi.h</text>
</g>
<!-- Node1&#45;&gt;Node14 -->
<g id="edge13" class="edge"><title>Node1&#45;&gt;Node14</title>
<path fill="none" stroke="midnightblue" d="M1440.11,-503.568C1518.41,-495.627 1645.88,-479.657 1753,-452 1756.88,-450.998 1760.9,-449.772 1764.84,-448.449"/>
<polygon fill="midnightblue" stroke="midnightblue" points="1766.17,-451.693 1774.4,-445.03 1763.81,-445.102 1766.17,-451.693"/>
</g>
<!-- Node15 -->
<g id="node15" class="node"><title>Node15</title>
<polygon fill="white" stroke="#bfbfbf" points="1847.35,-425 1847.35,-445 1960.65,-445 1960.65,-425 1847.35,-425"/>
<text text-anchor="middle" x="1904" y="-431" font-family="Helvetica,sans-Serif" font-size="10.00">ePub3/nav_element.h</text>
</g>
<!-- Node1&#45;&gt;Node15 -->
<g id="edge14" class="edge"><title>Node1&#45;&gt;Node15</title>
<path fill="none" stroke="midnightblue" d="M1440.42,-503.605C1533.41,-494.898 1698.38,-477.432 1838,-452 1845.18,-450.693 1852.74,-449.083 1860.08,-447.392"/>
<polygon fill="midnightblue" stroke="midnightblue" points="1860.98,-450.776 1869.9,-445.059 1859.37,-443.966 1860.98,-450.776"/>
</g>
<!-- Node16 -->
<g id="node16" class="node"><title>Node16</title>
<polygon fill="white" stroke="#bfbfbf" points="1978.31,-425 1978.31,-445 2087.69,-445 2087.69,-425 1978.31,-425"/>
<text text-anchor="middle" x="2033" y="-431" font-family="Helvetica,sans-Serif" font-size="10.00">ePub3/archive_xml.h</text>
</g>
<!-- Node1&#45;&gt;Node16 -->
<g id="edge15" class="edge"><title>Node1&#45;&gt;Node16</title>
<path fill="none" stroke="midnightblue" d="M1440.21,-506.469C1554,-500.19 1779.9,-484.56 1969,-452 1976.22,-450.757 1983.82,-449.137 1991.17,-447.406"/>
<polygon fill="midnightblue" stroke="midnightblue" points="1992.09,-450.784 2000.97,-445.001 1990.42,-443.985 1992.09,-450.784"/>
</g>
<!-- Node17 -->
<g id="node17" class="node"><title>Node17</title>
<g id="a_node17"><a xlink:href="utfstring_8h.xhtml" target="_top" xlink:title="ePub3/utilities/utfstring.h">
<polygon fill="white" stroke="black" points="831.525,-361 831.525,-381 956.475,-381 956.475,-361 831.525,-361"/>
<text text-anchor="middle" x="894" y="-367" font-family="Helvetica,sans-Serif" font-size="10.00">ePub3/utilities/utfstring.h</text>
</a>
</g>
</g>
<!-- Node1&#45;&gt;Node17 -->
<g id="edge16" class="edge"><title>Node1&#45;&gt;Node17</title>
<path fill="none" stroke="midnightblue" d="M1293.87,-502.006C1230.15,-493.706 1135.85,-478.185 1057,-452 1005.22,-434.804 948.939,-404.288 917.92,-386.326"/>
<polygon fill="midnightblue" stroke="midnightblue" points="919.535,-383.216 909.137,-381.184 915.998,-389.257 919.535,-383.216"/>
</g>
<!-- Node37 -->
<g id="node37" class="node"><title>Node37</title>
<g id="a_node37"><a xlink:href="iri_8h.xhtml" target="_top" xlink:title="ePub3/utilities/iri.h">
<polygon fill="white" stroke="black" points="1127.42,-425 1127.42,-445 1224.58,-445 1224.58,-425 1127.42,-425"/>
<text text-anchor="middle" x="1176" y="-431" font-family="Helvetica,sans-Serif" font-size="10.00">ePub3/utilities/iri.h</text>
</a>
</g>
</g>
<!-- Node1&#45;&gt;Node37 -->
<g id="edge48" class="edge"><title>Node1&#45;&gt;Node37</title>
<path fill="none" stroke="midnightblue" d="M1312.78,-488.993C1279.23,-475.997 1237.28,-459.741 1208.74,-448.685"/>
<polygon fill="midnightblue" stroke="midnightblue" points="1209.83,-445.354 1199.24,-445.004 1207.3,-451.881 1209.83,-445.354"/>
</g>
<!-- Node42 -->
<g id="node42" class="node"><title>Node42</title>
<polygon fill="white" stroke="#bfbfbf" points="2105.39,-425 2105.39,-445 2232.61,-445 2232.61,-425 2105.39,-425"/>
<text text-anchor="middle" x="2169" y="-431" font-family="Helvetica,sans-Serif" font-size="10.00">ePub3/content_handler.h</text>
</g>
<!-- Node1&#45;&gt;Node42 -->
<g id="edge58" class="edge"><title>Node1&#45;&gt;Node42</title>
<path fill="none" stroke="midnightblue" d="M1440.06,-507.485C1571.78,-502.219 1857.55,-487.448 2096,-452 2104.58,-450.725 2113.65,-449.025 2122.38,-447.208"/>
<polygon fill="midnightblue" stroke="midnightblue" points="2123.38,-450.573 2132.42,-445.042 2121.9,-443.731 2123.38,-450.573"/>
</g>
<!-- Node43 -->
<g id="node43" class="node"><title>Node43</title>
<polygon fill="white" stroke="#bfbfbf" points="2251.08,-419 2251.08,-451 2364.92,-451 2364.92,-419 2251.08,-419"/>
<text text-anchor="start" x="2259.08" y="-437" font-family="Helvetica,sans-Serif" font-size="10.00">ePub3/media_support</text>
<text text-anchor="middle" x="2308" y="-425" font-family="Helvetica,sans-Serif" font-size="10.00">_info.h</text>
</g>
<!-- Node1&#45;&gt;Node43 -->
<g id="edge59" class="edge"><title>Node1&#45;&gt;Node43</title>
<path fill="none" stroke="midnightblue" d="M1440.25,-509.287C1589.3,-506.938 1938.53,-496.843 2240.47,-451.888"/>
<polygon fill="midnightblue" stroke="midnightblue" points="2241.37,-455.292 2250.74,-450.343 2240.33,-448.37 2241.37,-455.292"/>
</g>
<!-- Node44 -->
<g id="node44" class="node"><title>Node44</title>
<polygon fill="white" stroke="#bfbfbf" points="2383.23,-425 2383.23,-445 2508.77,-445 2508.77,-425 2383.23,-425"/>
<text text-anchor="middle" x="2446" y="-431" font-family="Helvetica,sans-Serif" font-size="10.00">ePub3/property_holder.h</text>
</g>
<!-- Node1&#45;&gt;Node44 -->
<g id="edge60" class="edge"><title>Node1&#45;&gt;Node44</title>
<path fill="none" stroke="midnightblue" d="M1440.28,-509.735C1606.82,-508.268 2026.16,-499.703 2373,-452 2381.87,-450.78 2391.27,-449.054 2400.26,-447.185"/>
<polygon fill="midnightblue" stroke="midnightblue" points="2401.16,-450.572 2410.19,-445.032 2399.67,-443.731 2401.16,-450.572"/>
</g>
<!-- Node45 -->
<g id="node45" class="node"><title>Node45</title>
<polygon fill="white" stroke="#bfbfbf" points="2527.23,-425 2527.23,-445 2652.77,-445 2652.77,-425 2527.23,-425"/>
<text text-anchor="middle" x="2590" y="-431" font-family="Helvetica,sans-Serif" font-size="10.00">ePub3/epub_collection.h</text>
</g>
<!-- Node1&#45;&gt;Node45 -->
<g id="edge61" class="edge"><title>Node1&#45;&gt;Node45</title>
<path fill="none" stroke="midnightblue" d="M1440.04,-510.491C1622.53,-510.813 2112.8,-506.111 2517,-452 2525.97,-450.799 2535.47,-449.065 2544.55,-447.177"/>
<polygon fill="midnightblue" stroke="midnightblue" points="2545.54,-450.544 2554.56,-445.001 2544.05,-443.704 2545.54,-450.544"/>
</g>
<!-- Node46 -->
<g id="node46" class="node"><title>Node46</title>
<g id="a_node46"><a xlink:href="xml__identifiable_8h.xhtml" target="_top" xlink:title="ePub3/utilities/xml\l_identifiable.h">
<polygon fill="white" stroke="black" points="861.705,-419 861.705,-451 958.295,-451 958.295,-419 861.705,-419"/>
<text text-anchor="start" x="869.705" y="-437" font-family="Helvetica,sans-Serif" font-size="10.00">ePub3/utilities/xml</text>
<text text-anchor="middle" x="910" y="-425" font-family="Helvetica,sans-Serif" font-size="10.00">_identifiable.h</text>
</a>
</g>
</g>
<!-- Node1&#45;&gt;Node46 -->
<g id="edge62" class="edge"><title>Node1&#45;&gt;Node46</title>
<path fill="none" stroke="midnightblue" d="M1293.75,-498.601C1220.21,-487.093 1103.69,-468.684 1003,-452 991.874,-450.157 980.008,-448.148 968.603,-446.196"/>
<polygon fill="midnightblue" stroke="midnightblue" points="969.178,-442.743 958.73,-444.5 967.993,-449.642 969.178,-442.743"/>
</g>
<!-- Node27 -->
<g id="node27" class="node"><title>Node27</title>
<g id="a_node27"><a xlink:href="string__view_8h.xhtml" target="_top" xlink:title="ePub3/utilities/string\l_view.h">
<polygon fill="white" stroke="black" points="329.254,-291 329.254,-323 434.746,-323 434.746,-291 329.254,-291"/>
<text text-anchor="start" x="337.254" y="-309" font-family="Helvetica,sans-Serif" font-size="10.00">ePub3/utilities/string</text>
<text text-anchor="middle" x="382" y="-297" font-family="Helvetica,sans-Serif" font-size="10.00">_view.h</text>
</a>
</g>
</g>
<!-- Node1&#45;&gt;Node27 -->
<g id="edge64" class="edge"><title>Node1&#45;&gt;Node27</title>
<path fill="none" stroke="midnightblue" d="M1293.55,-505.98C1193.19,-499.522 1007.98,-484.148 853,-452 696.198,-419.474 516.742,-357.47 431.698,-326.526"/>
<polygon fill="midnightblue" stroke="midnightblue" points="432.887,-323.234 422.293,-323.09 430.485,-329.809 432.887,-323.234"/>
</g>
<!-- Node9 -->
<g id="node9" class="node"><title>Node9</title>
<polygon fill="white" stroke="#bfbfbf" points="665.943,-175 665.943,-195 718.057,-195 718.057,-175 665.943,-175"/>
<text text-anchor="middle" x="692" y="-181" font-family="Helvetica,sans-Serif" font-size="10.00">memory</text>
</g>
<!-- Node8&#45;&gt;Node9 -->
<g id="edge8" class="edge"><title>Node8&#45;&gt;Node9</title>
<path fill="none" stroke="midnightblue" d="M205.313,-296.8C204.683,-280.876 205.97,-248.318 225,-232 257.512,-204.122 551.697,-191.006 655.743,-187.21"/>
<polygon fill="midnightblue" stroke="midnightblue" points="655.903,-190.707 665.772,-186.852 655.653,-183.711 655.903,-190.707"/>
</g>
<!-- Node10 -->
<g id="node10" class="node"><title>Node10</title>
<polygon fill="white" stroke="#bfbfbf" points="367.934,-233 367.934,-253 430.066,-253 430.066,-233 367.934,-233"/>
<text text-anchor="middle" x="399" y="-239" font-family="Helvetica,sans-Serif" font-size="10.00">type_traits</text>
</g>
<!-- Node8&#45;&gt;Node10 -->
<g id="edge9" class="edge"><title>Node8&#45;&gt;Node10</title>
<path fill="none" stroke="midnightblue" d="M234.064,-296.985C267.654,-286.194 324.035,-268.082 361.377,-256.086"/>
<polygon fill="midnightblue" stroke="midnightblue" points="362.452,-259.417 370.902,-253.026 360.311,-252.752 362.452,-259.417"/>
</g>
<!-- Node18 -->
<g id="node18" class="node"><title>Node18</title>
<g id="a_node18"><a xlink:href="basic_8h.xhtml" target="_top" xlink:title="ePub3/utilities/basic.h">
<polygon fill="white" stroke="black" points="1020.64,-297 1020.64,-317 1133.36,-317 1133.36,-297 1020.64,-297"/>
<text text-anchor="middle" x="1077" y="-303" font-family="Helvetica,sans-Serif" font-size="10.00">ePub3/utilities/basic.h</text>
</a>
</g>
</g>
<!-- Node17&#45;&gt;Node18 -->
<g id="edge17" class="edge"><title>Node17&#45;&gt;Node18</title>
<path fill="none" stroke="midnightblue" d="M920.61,-360.985C952.324,-350.24 1005.46,-332.236 1040.87,-320.239"/>
<polygon fill="midnightblue" stroke="midnightblue" points="1042.01,-323.55 1050.36,-317.026 1039.76,-316.92 1042.01,-323.55"/>
</g>
<!-- Node26 -->
<g id="node26" class="node"><title>Node26</title>
<g id="a_node26"><a xlink:href="integer__sequence_8h.xhtml" target="_top" xlink:title="ePub3/utilities/integer\l_sequence.h">
<polygon fill="white" stroke="black" points="616.192,-291 616.192,-323 727.808,-323 727.808,-291 616.192,-291"/>
<text text-anchor="start" x="624.192" y="-309" font-family="Helvetica,sans-Serif" font-size="10.00">ePub3/utilities/integer</text>
<text text-anchor="middle" x="672" y="-297" font-family="Helvetica,sans-Serif" font-size="10.00">_sequence.h</text>
</a>
</g>
</g>
<!-- Node17&#45;&gt;Node26 -->
<g id="edge28" class="edge"><title>Node17&#45;&gt;Node26</title>
<path fill="none" stroke="midnightblue" d="M861.719,-360.985C828.765,-351.781 776.74,-337.252 735.498,-325.734"/>
<polygon fill="midnightblue" stroke="midnightblue" points="736.375,-322.345 725.802,-323.026 734.492,-329.087 736.375,-322.345"/>
</g>
<!-- Node17&#45;&gt;Node27 -->
<g id="edge30" class="edge"><title>Node17&#45;&gt;Node27</title>
<path fill="none" stroke="midnightblue" d="M831.194,-366.674C745.713,-361.465 587.891,-349.431 445.047,-324.219"/>
<polygon fill="midnightblue" stroke="midnightblue" points="445.25,-320.7 434.789,-322.381 444.015,-327.59 445.25,-320.7"/>
</g>
<!-- Node17&#45;&gt;Node3 -->
<g id="edge39" class="edge"><title>Node17&#45;&gt;Node3</title>
<path fill="none" stroke="midnightblue" d="M831.289,-367.727C691.771,-362.278 364.465,-347.176 320,-324 306.169,-316.791 280.83,-282.699 265.894,-261.413"/>
<polygon fill="midnightblue" stroke="midnightblue" points="268.768,-259.414 260.194,-253.19 263.015,-263.402 268.768,-259.414"/>
</g>
<!-- Node32 -->
<g id="node32" class="node"><title>Node32</title>
<polygon fill="white" stroke="#bfbfbf" points="452.438,-297 452.438,-317 499.562,-317 499.562,-297 452.438,-297"/>
<text text-anchor="middle" x="476" y="-303" font-family="Helvetica,sans-Serif" font-size="10.00">iterator</text>
</g>
<!-- Node17&#45;&gt;Node32 -->
<g id="edge40" class="edge"><title>Node17&#45;&gt;Node32</title>
<path fill="none" stroke="midnightblue" d="M831.463,-367.746C755.321,-363.793 623.35,-353.03 514,-324 510.748,-323.137 507.41,-322.051 504.126,-320.854"/>
<polygon fill="midnightblue" stroke="midnightblue" points="505.164,-317.5 494.579,-317.038 502.566,-324 505.164,-317.5"/>
</g>
<!-- Node33 -->
<g id="node33" class="node"><title>Node33</title>
<polygon fill="white" stroke="#bfbfbf" points="555.936,-297 555.936,-317 598.064,-317 598.064,-297 555.936,-297"/>
<text text-anchor="middle" x="577" y="-303" font-family="Helvetica,sans-Serif" font-size="10.00">locale</text>
</g>
<!-- Node17&#45;&gt;Node33 -->
<g id="edge41" class="edge"><title>Node17&#45;&gt;Node33</title>
<path fill="none" stroke="midnightblue" d="M831.275,-365.939C772.156,-360.724 681.734,-349.135 607,-324 605.07,-323.351 603.115,-322.586 601.177,-321.749"/>
<polygon fill="midnightblue" stroke="midnightblue" points="602.343,-318.422 591.824,-317.155 599.257,-324.705 602.343,-318.422"/>
</g>
<!-- Node17&#45;&gt;Node4 -->
<g id="edge42" class="edge"><title>Node17&#45;&gt;Node4</title>
<path fill="none" stroke="midnightblue" d="M956.554,-365.184C1020.46,-359.098 1114.16,-346.585 1142,-324 1160.64,-308.881 1168.87,-281.479 1172.42,-263.011"/>
<polygon fill="midnightblue" stroke="midnightblue" points="1175.88,-263.527 1174.04,-253.093 1168.97,-262.395 1175.88,-263.527"/>
</g>
<!-- Node34 -->
<g id="node34" class="node"><title>Node34</title>
<polygon fill="white" stroke="#bfbfbf" points="745.766,-297 745.766,-317 846.234,-317 846.234,-297 745.766,-297"/>
<text text-anchor="middle" x="796" y="-303" font-family="Helvetica,sans-Serif" font-size="10.00">REGEX_INCLUDE</text>
</g>
<!-- Node17&#45;&gt;Node34 -->
<g id="edge43" class="edge"><title>Node17&#45;&gt;Node34</title>
<path fill="none" stroke="midnightblue" d="M879.54,-360.852C863.617,-350.778 837.793,-334.441 819.067,-322.594"/>
<polygon fill="midnightblue" stroke="midnightblue" points="820.842,-319.575 810.52,-317.186 817.099,-325.49 820.842,-319.575"/>
</g>
<!-- Node17&#45;&gt;Node5 -->
<g id="edge44" class="edge"><title>Node17&#45;&gt;Node5</title>
<path fill="none" stroke="midnightblue" d="M956.662,-365.185C1014.46,-359.477 1102.1,-347.59 1175,-324 1177.29,-323.258 1179.63,-322.373 1181.94,-321.406"/>
<polygon fill="midnightblue" stroke="midnightblue" points="1183.54,-324.52 1191.12,-317.12 1180.58,-318.176 1183.54,-324.52"/>
</g>
<!-- Node35 -->
<g id="node35" class="node"><title>Node35</title>
<polygon fill="white" stroke="#bfbfbf" points="864.599,-297 864.599,-317 923.401,-317 923.401,-297 864.599,-297"/>
<text text-anchor="middle" x="894" y="-303" font-family="Helvetica,sans-Serif" font-size="10.00">stdexcept</text>
</g>
<!-- Node17&#45;&gt;Node35 -->
<g id="edge45" class="edge"><title>Node17&#45;&gt;Node35</title>
<path fill="none" stroke="midnightblue" d="M894,-360.852C894,-352.06 894,-338.498 894,-327.313"/>
<polygon fill="midnightblue" stroke="midnightblue" points="897.5,-327.186 894,-317.186 890.5,-327.186 897.5,-327.186"/>
</g>
<!-- Node28 -->
<g id="node28" class="node"><title>Node28</title>
<polygon fill="white" stroke="#bfbfbf" points="606.613,-233 606.613,-253 645.387,-253 645.387,-233 606.613,-233"/>
<text text-anchor="middle" x="626" y="-239" font-family="Helvetica,sans-Serif" font-size="10.00">limits</text>
</g>
<!-- Node17&#45;&gt;Node28 -->
<g id="edge46" class="edge"><title>Node17&#45;&gt;Node28</title>
<path fill="none" stroke="midnightblue" d="M831.467,-366.12C736.623,-359.59 565.422,-345.025 547,-324 537.042,-312.634 539.469,-303.101 547,-290 552.702,-280.082 577.036,-266.746 597.209,-256.987"/>
<polygon fill="midnightblue" stroke="midnightblue" points="598.844,-260.086 606.389,-252.648 595.852,-253.757 598.844,-260.086"/>
</g>
<!-- Node36 -->
<g id="node36" class="node"><title>Node36</title>
<polygon fill="white" stroke="#bfbfbf" points="941.761,-297 941.761,-317 1002.24,-317 1002.24,-297 941.761,-297"/>
<text text-anchor="middle" x="972" y="-303" font-family="Helvetica,sans-Serif" font-size="10.00">utf8/utf8.h</text>
</g>
<!-- Node17&#45;&gt;Node36 -->
<g id="edge47" class="edge"><title>Node17&#45;&gt;Node36</title>
<path fill="none" stroke="midnightblue" d="M905.509,-360.852C917.837,-351.053 937.621,-335.327 952.408,-323.573"/>
<polygon fill="midnightblue" stroke="midnightblue" points="954.793,-326.148 960.444,-317.186 950.437,-320.668 954.793,-326.148"/>
</g>
<!-- Node19 -->
<g id="node19" class="node"><title>Node19</title>
<g id="a_node19"><a xlink:href="base_8h.xhtml" target="_top" xlink:title="ePub3/base.h">
<polygon fill="white" stroke="black" points="879.141,-175 879.141,-195 956.859,-195 956.859,-175 879.141,-175"/>
<text text-anchor="middle" x="918" y="-181" font-family="Helvetica,sans-Serif" font-size="10.00">ePub3/base.h</text>
</a>
</g>
</g>
<!-- Node18&#45;&gt;Node19 -->
<g id="edge18" class="edge"><title>Node18&#45;&gt;Node19</title>
<path fill="none" stroke="midnightblue" d="M1080.97,-296.707C1086.79,-281.499 1095.44,-251.082 1081,-232 1067.16,-213.713 1009.66,-200.632 966.853,-193.203"/>
<polygon fill="midnightblue" stroke="midnightblue" points="967.312,-189.731 956.87,-191.525 966.152,-196.634 967.312,-189.731"/>
</g>
<!-- Node24 -->
<g id="node24" class="node"><title>Node24</title>
<polygon fill="white" stroke="#bfbfbf" points="888.815,-233 888.815,-253 1003.18,-253 1003.18,-233 888.815,-233"/>
<text text-anchor="middle" x="946" y="-239" font-family="Helvetica,sans-Serif" font-size="10.00">ePub3/xml/xmlstring.h</text>
</g>
<!-- Node18&#45;&gt;Node24 -->
<g id="edge23" class="edge"><title>Node18&#45;&gt;Node24</title>
<path fill="none" stroke="midnightblue" d="M1057.95,-296.985C1035.93,-286.561 999.47,-269.307 974.169,-257.332"/>
<polygon fill="midnightblue" stroke="midnightblue" points="975.608,-254.141 965.072,-253.026 972.613,-260.468 975.608,-254.141"/>
</g>
<!-- Node25 -->
<g id="node25" class="node"><title>Node25</title>
<polygon fill="white" stroke="#bfbfbf" points="1021.22,-233 1021.22,-253 1072.78,-253 1072.78,-233 1021.22,-233"/>
<text text-anchor="middle" x="1047" y="-239" font-family="Helvetica,sans-Serif" font-size="10.00">sstream</text>
</g>
<!-- Node18&#45;&gt;Node25 -->
<g id="edge24" class="edge"><title>Node18&#45;&gt;Node25</title>
<path fill="none" stroke="midnightblue" d="M1072.57,-296.852C1068.19,-287.785 1061.34,-273.645 1055.84,-262.272"/>
<polygon fill="midnightblue" stroke="midnightblue" points="1058.95,-260.663 1051.44,-253.186 1052.65,-263.712 1058.95,-260.663"/>
</g>
<!-- Node18&#45;&gt;Node9 -->
<g id="edge25" class="edge"><title>Node18&#45;&gt;Node9</title>
<path fill="none" stroke="midnightblue" d="M1041.24,-296.969C993.086,-284.736 909.967,-263.354 880,-254 824.647,-236.721 761.471,-213.034 724.259,-198.661"/>
<polygon fill="midnightblue" stroke="midnightblue" points="725.518,-195.395 714.929,-195.043 722.987,-201.922 725.518,-195.395"/>
</g>
<!-- Node18&#45;&gt;Node4 -->
<g id="edge26" class="edge"><title>Node18&#45;&gt;Node4</title>
<path fill="none" stroke="midnightblue" d="M1091.46,-296.852C1107.38,-286.778 1133.21,-270.441 1151.93,-258.594"/>
<polygon fill="midnightblue" stroke="midnightblue" points="1153.9,-261.49 1160.48,-253.186 1150.16,-255.575 1153.9,-261.49"/>
</g>
<!-- Node18&#45;&gt;Node6 -->
<g id="edge27" class="edge"><title>Node18&#45;&gt;Node6</title>
<path fill="none" stroke="midnightblue" d="M1101.14,-296.985C1132.48,-285.277 1186.91,-264.95 1218.45,-253.168"/>
<polygon fill="midnightblue" stroke="midnightblue" points="1220.06,-256.303 1228.21,-249.525 1217.61,-249.745 1220.06,-256.303"/>
</g>
<!-- Node20 -->
<g id="node20" class="node"><title>Node20</title>
<g id="a_node20"><a xlink:href="__config_8h.xhtml" target="_top" xlink:title="_config.h">
<polygon fill="white" stroke="black" points="854.707,-117 854.707,-137 911.293,-137 911.293,-117 854.707,-117"/>
<text text-anchor="middle" x="883" y="-123" font-family="Helvetica,sans-Serif" font-size="10.00">_config.h</text>
</a>
</g>
</g>
<!-- Node19&#45;&gt;Node20 -->
<g id="edge19" class="edge"><title>Node19&#45;&gt;Node20</title>
<path fill="none" stroke="midnightblue" d="M912.22,-174.753C907.277,-166.843 900.023,-155.237 893.98,-145.568"/>
<polygon fill="midnightblue" stroke="midnightblue" points="896.94,-143.7 888.672,-137.075 891.004,-147.41 896.94,-143.7"/>
</g>
<!-- Node23 -->
<g id="node23" class="node"><title>Node23</title>
<polygon fill="white" stroke="#bfbfbf" points="929.158,-117 929.158,-137 976.842,-137 976.842,-117 929.158,-117"/>
<text text-anchor="middle" x="953" y="-123" font-family="Helvetica,sans-Serif" font-size="10.00">stdlib.h</text>
</g>
<!-- Node19&#45;&gt;Node23 -->
<g id="edge22" class="edge"><title>Node19&#45;&gt;Node23</title>
<path fill="none" stroke="midnightblue" d="M923.78,-174.753C928.723,-166.843 935.977,-155.237 942.02,-145.568"/>
<polygon fill="midnightblue" stroke="midnightblue" points="944.996,-147.41 947.328,-137.075 939.06,-143.7 944.996,-147.41"/>
</g>
<!-- Node21 -->
<g id="node21" class="node"><title>Node21</title>
<g id="a_node21"><a xlink:href="__platform_8h.xhtml" target="_top" xlink:title="_platform.h">
<polygon fill="white" stroke="black" points="849.988,-59 849.988,-79 916.012,-79 916.012,-59 849.988,-59"/>
<text text-anchor="middle" x="883" y="-65" font-family="Helvetica,sans-Serif" font-size="10.00">_platform.h</text>
</a>
</g>
</g>
<!-- Node20&#45;&gt;Node21 -->
<g id="edge20" class="edge"><title>Node20&#45;&gt;Node21</title>
<path fill="none" stroke="midnightblue" d="M883,-116.753C883,-109.25 883,-98.4238 883,-89.0781"/>
<polygon fill="midnightblue" stroke="midnightblue" points="886.5,-89.0752 883,-79.0752 879.5,-89.0752 886.5,-89.0752"/>
</g>
<!-- Node22 -->
<g id="node22" class="node"><title>Node22</title>
<g id="a_node22"><a xlink:href="__compiler_8h.xhtml" target="_top" xlink:title="_compiler.h">
<polygon fill="white" stroke="black" points="849.429,-1 849.429,-21 916.571,-21 916.571,-1 849.429,-1"/>
<text text-anchor="middle" x="883" y="-7" font-family="Helvetica,sans-Serif" font-size="10.00">_compiler.h</text>
</a>
</g>
</g>
<!-- Node21&#45;&gt;Node22 -->
<g id="edge21" class="edge"><title>Node21&#45;&gt;Node22</title>
<path fill="none" stroke="midnightblue" d="M883,-58.7527C883,-51.2504 883,-40.4238 883,-31.0781"/>
<polygon fill="midnightblue" stroke="midnightblue" points="886.5,-31.0752 883,-21.0752 879.5,-31.0752 886.5,-31.0752"/>
</g>
<!-- Node26&#45;&gt;Node19 -->
<g id="edge29" class="edge"><title>Node26&#45;&gt;Node19</title>
<path fill="none" stroke="midnightblue" d="M703.156,-290.802C751.558,-267.191 844.042,-222.077 890.266,-199.529"/>
<polygon fill="midnightblue" stroke="midnightblue" points="891.942,-202.606 899.395,-195.076 888.873,-196.314 891.942,-202.606"/>
</g>
<!-- Node27&#45;&gt;Node10 -->
<g id="edge31" class="edge"><title>Node27&#45;&gt;Node10</title>
<path fill="none" stroke="midnightblue" d="M386.115,-290.992C388.407,-282.635 391.284,-272.142 393.737,-263.194"/>
<polygon fill="midnightblue" stroke="midnightblue" points="397.184,-263.86 396.453,-253.29 390.433,-262.009 397.184,-263.86"/>
</g>
<!-- Node27&#45;&gt;Node3 -->
<g id="edge32" class="edge"><title>Node27&#45;&gt;Node3</title>
<path fill="none" stroke="midnightblue" d="M351.015,-290.992C329.937,-280.782 302.28,-267.385 281.89,-257.509"/>
<polygon fill="midnightblue" stroke="midnightblue" points="283.331,-254.318 272.805,-253.109 280.279,-260.618 283.331,-254.318"/>
</g>
<!-- Node27&#45;&gt;Node28 -->
<g id="edge33" class="edge"><title>Node27&#45;&gt;Node28</title>
<path fill="none" stroke="midnightblue" d="M434.879,-292.037C437.624,-291.342 440.343,-290.659 443,-290 508.159,-273.842 527.725,-273.481 596.405,-253.94"/>
<polygon fill="midnightblue" stroke="midnightblue" points="597.791,-257.183 606.431,-251.052 595.853,-250.457 597.791,-257.183"/>
</g>
<!-- Node29 -->
<g id="node29" class="node"><title>Node29</title>
<polygon fill="white" stroke="#bfbfbf" points="447.828,-233 447.828,-253 502.172,-253 502.172,-233 447.828,-233"/>
<text text-anchor="middle" x="475" y="-239" font-family="Helvetica,sans-Serif" font-size="10.00">iostream</text>
</g>
<!-- Node27&#45;&gt;Node29 -->
<g id="edge34" class="edge"><title>Node27&#45;&gt;Node29</title>
<path fill="none" stroke="midnightblue" d="M404.513,-290.992C419.203,-281.198 438.293,-268.471 452.9,-258.733"/>
<polygon fill="midnightblue" stroke="midnightblue" points="454.958,-261.568 461.337,-253.109 451.075,-255.744 454.958,-261.568"/>
</g>
<!-- Node30 -->
<g id="node30" class="node"><title>Node30</title>
<polygon fill="white" stroke="#bfbfbf" points="292.436,-233 292.436,-253 349.564,-253 349.564,-233 292.436,-233"/>
<text text-anchor="middle" x="321" y="-239" font-family="Helvetica,sans-Serif" font-size="10.00">algorithm</text>
</g>
<!-- Node27&#45;&gt;Node30 -->
<g id="edge35" class="edge"><title>Node27&#45;&gt;Node30</title>
<path fill="none" stroke="midnightblue" d="M367.234,-290.992C358.198,-281.808 346.626,-270.046 337.32,-260.587"/>
<polygon fill="midnightblue" stroke="midnightblue" points="339.649,-257.964 330.141,-253.29 334.659,-262.873 339.649,-257.964"/>
</g>
<!-- Node31 -->
<g id="node31" class="node"><title>Node31</title>
<g id="a_node31"><a xlink:href="____strhash_8h.xhtml" target="_top" xlink:title="__strhash.h">
<polygon fill="white" stroke="black" points="519.872,-233 519.872,-253 588.128,-253 588.128,-233 519.872,-233"/>
<text text-anchor="middle" x="554" y="-239" font-family="Helvetica,sans-Serif" font-size="10.00">__strhash.h</text>
</a>
</g>
</g>
<!-- Node27&#45;&gt;Node31 -->
<g id="edge36" class="edge"><title>Node27&#45;&gt;Node31</title>
<path fill="none" stroke="midnightblue" d="M423.636,-290.992C452.946,-280.427 491.722,-266.449 519.346,-256.491"/>
<polygon fill="midnightblue" stroke="midnightblue" points="520.761,-259.702 528.981,-253.018 518.387,-253.117 520.761,-259.702"/>
</g>
<!-- Node31&#45;&gt;Node19 -->
<g id="edge37" class="edge"><title>Node31&#45;&gt;Node19</title>
<path fill="none" stroke="midnightblue" d="M588.533,-233.875C591.726,-233.207 594.919,-232.571 598,-232 693.407,-214.331 805.886,-199.548 868.872,-191.811"/>
<polygon fill="midnightblue" stroke="midnightblue" points="869.417,-195.271 878.92,-190.585 868.569,-188.322 869.417,-195.271"/>
</g>
<!-- Node31&#45;&gt;Node9 -->
<g id="edge38" class="edge"><title>Node31&#45;&gt;Node9</title>
<path fill="none" stroke="midnightblue" d="M576.479,-232.878C599.234,-223.644 634.624,-209.283 660.239,-198.889"/>
<polygon fill="midnightblue" stroke="midnightblue" points="661.58,-202.121 669.53,-195.118 658.948,-195.635 661.58,-202.121"/>
</g>
<!-- Node37&#45;&gt;Node17 -->
<g id="edge49" class="edge"><title>Node37&#45;&gt;Node17</title>
<path fill="none" stroke="midnightblue" d="M1134.99,-424.985C1084.66,-413.919 999.305,-395.152 944.848,-383.179"/>
<polygon fill="midnightblue" stroke="midnightblue" points="945.573,-379.755 935.055,-381.026 944.07,-386.592 945.573,-379.755"/>
</g>
<!-- Node38 -->
<g id="node38" class="node"><title>Node38</title>
<g id="a_node38"><a xlink:href="make__unique_8h.xhtml" target="_top" xlink:title="ePub3/utilities/make\l_unique.h">
<polygon fill="white" stroke="black" points="1357.25,-291 1357.25,-323 1462.75,-323 1462.75,-291 1357.25,-291"/>
<text text-anchor="start" x="1365.25" y="-309" font-family="Helvetica,sans-Serif" font-size="10.00">ePub3/utilities/make</text>
<text text-anchor="middle" x="1410" y="-297" font-family="Helvetica,sans-Serif" font-size="10.00">_unique.h</text>
</a>
</g>
</g>
<!-- Node37&#45;&gt;Node38 -->
<g id="edge50" class="edge"><title>Node37&#45;&gt;Node38</title>
<path fill="none" stroke="midnightblue" d="M1192.83,-424.938C1230.39,-404.711 1321.82,-355.483 1373.26,-327.781"/>
<polygon fill="midnightblue" stroke="midnightblue" points="1374.93,-330.857 1382.08,-323.034 1371.61,-324.694 1374.93,-330.857"/>
</g>
<!-- Node41 -->
<g id="node41" class="node"><title>Node41</title>
<polygon fill="white" stroke="#bfbfbf" points="1098.87,-361 1098.87,-381 1187.13,-381 1187.13,-361 1098.87,-361"/>
<text text-anchor="middle" x="1143" y="-367" font-family="Helvetica,sans-Serif" font-size="10.00">google&#45;url/gurl.h</text>
</g>
<!-- Node37&#45;&gt;Node41 -->
<g id="edge56" class="edge"><title>Node37&#45;&gt;Node41</title>
<path fill="none" stroke="midnightblue" d="M1171.13,-424.852C1166.31,-415.785 1158.78,-401.645 1152.73,-390.272"/>
<polygon fill="midnightblue" stroke="midnightblue" points="1155.68,-388.369 1147.89,-381.186 1149.5,-391.658 1155.68,-388.369"/>
</g>
<!-- Node37&#45;&gt;Node4 -->
<g id="edge57" class="edge"><title>Node37&#45;&gt;Node4</title>
<path fill="none" stroke="midnightblue" d="M1182.67,-424.903C1195.48,-406.808 1223.12,-364.541 1233,-324 1236.58,-309.319 1239.57,-303.606 1233,-290 1226.58,-276.721 1214.27,-266.105 1202.63,-258.431"/>
<polygon fill="midnightblue" stroke="midnightblue" points="1204.33,-255.368 1193.97,-253.142 1200.68,-261.341 1204.33,-255.368"/>
</g>
<!-- Node38&#45;&gt;Node19 -->
<g id="edge51" class="edge"><title>Node38&#45;&gt;Node19</title>
<path fill="none" stroke="midnightblue" d="M1405.38,-290.872C1399.21,-273.475 1386.48,-245.573 1365,-232 1299.88,-190.857 1069.26,-185.816 967.204,-185.662"/>
<polygon fill="midnightblue" stroke="midnightblue" points="967.156,-182.162 957.157,-185.662 967.157,-189.162 967.156,-182.162"/>
</g>
<!-- Node39 -->
<g id="node39" class="node"><title>Node39</title>
<polygon fill="white" stroke="#bfbfbf" points="1411.88,-233 1411.88,-253 1460.12,-253 1460.12,-233 1411.88,-233"/>
<text text-anchor="middle" x="1436" y="-239" font-family="Helvetica,sans-Serif" font-size="10.00">cstddef</text>
</g>
<!-- Node38&#45;&gt;Node39 -->
<g id="edge52" class="edge"><title>Node38&#45;&gt;Node39</title>
<path fill="none" stroke="midnightblue" d="M1416.29,-290.992C1419.88,-282.451 1424.39,-271.68 1428.2,-262.606"/>
<polygon fill="midnightblue" stroke="midnightblue" points="1431.46,-263.866 1432.1,-253.29 1425.01,-261.159 1431.46,-263.866"/>
</g>
<!-- Node38&#45;&gt;Node9 -->
<g id="edge53" class="edge"><title>Node38&#45;&gt;Node9</title>
<path fill="none" stroke="midnightblue" d="M1380.71,-290.902C1338.83,-269.324 1266.77,-232.218 1266,-232 1214.48,-217.335 846.953,-194.986 728.612,-188.096"/>
<polygon fill="midnightblue" stroke="midnightblue" points="728.461,-184.581 718.275,-187.496 728.055,-191.569 728.461,-184.581"/>
</g>
<!-- Node38&#45;&gt;Node10 -->
<g id="edge54" class="edge"><title>Node38&#45;&gt;Node10</title>
<path fill="none" stroke="midnightblue" d="M1356.99,-300.583C1321.86,-297.146 1274.71,-292.829 1233,-290 883.828,-266.314 790.267,-304.374 440.226,-253.901"/>
<polygon fill="midnightblue" stroke="midnightblue" points="440.724,-250.436 430.325,-252.459 439.716,-257.363 440.724,-250.436"/>
</g>
<!-- Node40 -->
<g id="node40" class="node"><title>Node40</title>
<polygon fill="white" stroke="#bfbfbf" points="1317.61,-233 1317.61,-253 1356.39,-253 1356.39,-233 1317.61,-233"/>
<text text-anchor="middle" x="1337" y="-239" font-family="Helvetica,sans-Serif" font-size="10.00">utility</text>
</g>
<!-- Node38&#45;&gt;Node40 -->
<g id="edge55" class="edge"><title>Node38&#45;&gt;Node40</title>
<path fill="none" stroke="midnightblue" d="M1392.33,-290.992C1381.3,-281.624 1367.11,-269.575 1355.87,-260.022"/>
<polygon fill="midnightblue" stroke="midnightblue" points="1357.83,-257.096 1347.94,-253.29 1353.29,-262.432 1357.83,-257.096"/>
</g>
<!-- Node46&#45;&gt;Node17 -->
<g id="edge63" class="edge"><title>Node46&#45;&gt;Node17</title>
<path fill="none" stroke="midnightblue" d="M906.127,-418.992C903.97,-410.635 901.263,-400.142 898.953,-391.194"/>
<polygon fill="midnightblue" stroke="midnightblue" points="902.285,-390.099 896.398,-381.29 895.507,-391.848 902.285,-390.099"/>
</g>
</g>
</svg>
