<?xml version="1.0" encoding="UTF-8" standalone="no"?>
<!DOCTYPE svg PUBLIC "-//W3C//DTD SVG 1.1//EN"
 "http://www.w3.org/Graphics/SVG/1.1/DTD/svg11.dtd">
<!-- Generated by graphviz version 2.30.0 (20130114.0426)
 -->
<!-- Title: /Users/rkwright/Documents/github/readium&#45;sdk&#45;D/ePub3/utilities/path_help.cpp Pages: 1 -->
<svg width="1027pt" height="530pt"
 viewBox="0.00 0.00 1027.32 530.00" xmlns="http://www.w3.org/2000/svg" xmlns:xlink="http://www.w3.org/1999/xlink">
<g id="graph0" class="graph" transform="scale(1 1) rotate(0) translate(4 526)">
<title>/Users/rkwright/Documents/github/readium&#45;sdk&#45;D/ePub3/utilities/path_help.cpp</title>
<polygon fill="white" stroke="white" points="-4,5 -4,-526 1024.32,-526 1024.32,5 -4,5"/>
<!-- Node1 -->
<g id="node1" class="node"><title>Node1</title>
<polygon fill="#bfbfbf" stroke="black" points="869.966,-477 869.966,-521 1016.03,-521 1016.03,-477 869.966,-477"/>
<text text-anchor="start" x="877.966" y="-507" font-family="Helvetica,sans-Serif" font-size="10.00">/Users/rkwright/Documents</text>
<text text-anchor="start" x="877.966" y="-495" font-family="Helvetica,sans-Serif" font-size="10.00">/github/readium&#45;sdk&#45;D/ePub3</text>
<text text-anchor="middle" x="943" y="-483" font-family="Helvetica,sans-Serif" font-size="10.00">/utilities/path_help.cpp</text>
</g>
<!-- Node2 -->
<g id="node2" class="node"><title>Node2</title>
<g id="a_node2"><a xlink:href="path__help_8h.xhtml" target="_top" xlink:title="path_help.h">
<polygon fill="white" stroke="black" points="434.865,-419 434.865,-439 503.135,-439 503.135,-419 434.865,-419"/>
<text text-anchor="middle" x="469" y="-425" font-family="Helvetica,sans-Serif" font-size="10.00">path_help.h</text>
</a>
</g>
</g>
<!-- Node1&#45;&gt;Node2 -->
<g id="edge1" class="edge"><title>Node1&#45;&gt;Node2</title>
<path fill="none" stroke="midnightblue" d="M869.717,-487.487C770.035,-473.187 594.791,-448.046 513.161,-436.335"/>
<polygon fill="midnightblue" stroke="midnightblue" points="513.61,-432.864 503.214,-434.908 512.616,-439.793 513.61,-432.864"/>
</g>
<!-- Node12 -->
<g id="node12" class="node"><title>Node12</title>
<polygon fill="white" stroke="#bfbfbf" points="760.219,-233 760.219,-253 811.781,-253 811.781,-233 760.219,-233"/>
<text text-anchor="middle" x="786" y="-239" font-family="Helvetica,sans-Serif" font-size="10.00">sstream</text>
</g>
<!-- Node1&#45;&gt;Node12 -->
<g id="edge35" class="edge"><title>Node1&#45;&gt;Node12</title>
<path fill="none" stroke="midnightblue" d="M960.004,-476.955C990.605,-436.401 1047.7,-346.454 1002,-290 979.791,-262.563 877.783,-250.797 822.26,-246.353"/>
<polygon fill="midnightblue" stroke="midnightblue" points="822.375,-242.852 812.138,-245.583 821.844,-249.832 822.375,-242.852"/>
</g>
<!-- Node26 -->
<g id="node26" class="node"><title>Node26</title>
<polygon fill="white" stroke="#bfbfbf" points="892.766,-297 892.766,-317 993.234,-317 993.234,-297 892.766,-297"/>
<text text-anchor="middle" x="943" y="-303" font-family="Helvetica,sans-Serif" font-size="10.00">REGEX_INCLUDE</text>
</g>
<!-- Node1&#45;&gt;Node26 -->
<g id="edge36" class="edge"><title>Node1&#45;&gt;Node26</title>
<path fill="none" stroke="midnightblue" d="M943,-476.941C943,-439.801 943,-363.202 943,-327.329"/>
<polygon fill="midnightblue" stroke="midnightblue" points="946.5,-327.214 943,-317.214 939.5,-327.214 946.5,-327.214"/>
</g>
<!-- Node3 -->
<g id="node3" class="node"><title>Node3</title>
<polygon fill="white" stroke="#bfbfbf" points="305.079,-361 305.079,-381 388.921,-381 388.921,-361 305.079,-361"/>
<text text-anchor="middle" x="347" y="-367" font-family="Helvetica,sans-Serif" font-size="10.00">ePub3/epub3.h</text>
</g>
<!-- Node2&#45;&gt;Node3 -->
<g id="edge2" class="edge"><title>Node2&#45;&gt;Node3</title>
<path fill="none" stroke="midnightblue" d="M449.127,-418.878C429.276,-409.766 398.549,-395.662 375.981,-385.303"/>
<polygon fill="midnightblue" stroke="midnightblue" points="377.413,-382.109 366.864,-381.118 374.493,-388.471 377.413,-382.109"/>
</g>
<!-- Node4 -->
<g id="node4" class="node"><title>Node4</title>
<g id="a_node4"><a xlink:href="utfstring_8h.xhtml" target="_top" xlink:title="ePub3/utilities/utfstring.h">
<polygon fill="white" stroke="black" points="406.525,-361 406.525,-381 531.475,-381 531.475,-361 406.525,-361"/>
<text text-anchor="middle" x="469" y="-367" font-family="Helvetica,sans-Serif" font-size="10.00">ePub3/utilities/utfstring.h</text>
</a>
</g>
</g>
<!-- Node2&#45;&gt;Node4 -->
<g id="edge3" class="edge"><title>Node2&#45;&gt;Node4</title>
<path fill="none" stroke="midnightblue" d="M469,-418.753C469,-411.25 469,-400.424 469,-391.078"/>
<polygon fill="midnightblue" stroke="midnightblue" points="472.5,-391.075 469,-381.075 465.5,-391.075 472.5,-391.075"/>
</g>
<!-- Node5 -->
<g id="node5" class="node"><title>Node5</title>
<g id="a_node5"><a xlink:href="basic_8h.xhtml" target="_top" xlink:title="ePub3/utilities/basic.h">
<polygon fill="white" stroke="black" points="632.638,-297 632.638,-317 745.362,-317 745.362,-297 632.638,-297"/>
<text text-anchor="middle" x="689" y="-303" font-family="Helvetica,sans-Serif" font-size="10.00">ePub3/utilities/basic.h</text>
</a>
</g>
</g>
<!-- Node4&#45;&gt;Node5 -->
<g id="edge4" class="edge"><title>Node4&#45;&gt;Node5</title>
<path fill="none" stroke="midnightblue" d="M500.99,-360.985C539.605,-350.102 604.644,-331.773 647.196,-319.781"/>
<polygon fill="midnightblue" stroke="midnightblue" points="648.296,-323.108 656.972,-317.026 646.397,-316.37 648.296,-323.108"/>
</g>
<!-- Node16 -->
<g id="node16" class="node"><title>Node16</title>
<g id="a_node16"><a xlink:href="integer__sequence_8h.xhtml" target="_top" xlink:title="ePub3/utilities/integer\l_sequence.h">
<polygon fill="white" stroke="black" points="763.192,-291 763.192,-323 874.808,-323 874.808,-291 763.192,-291"/>
<text text-anchor="start" x="771.192" y="-309" font-family="Helvetica,sans-Serif" font-size="10.00">ePub3/utilities/integer</text>
<text text-anchor="middle" x="819" y="-297" font-family="Helvetica,sans-Serif" font-size="10.00">_sequence.h</text>
</a>
</g>
</g>
<!-- Node4&#45;&gt;Node16 -->
<g id="edge15" class="edge"><title>Node4&#45;&gt;Node16</title>
<path fill="none" stroke="midnightblue" d="M531.533,-361.401C587.19,-353.408 671.013,-340.54 753.052,-324.102"/>
<polygon fill="midnightblue" stroke="midnightblue" points="753.938,-327.494 763.045,-322.08 752.55,-320.633 753.938,-327.494"/>
</g>
<!-- Node17 -->
<g id="node17" class="node"><title>Node17</title>
<g id="a_node17"><a xlink:href="string__view_8h.xhtml" target="_top" xlink:title="ePub3/utilities/string\l_view.h">
<polygon fill="white" stroke="black" points="99.2539,-291 99.2539,-323 204.746,-323 204.746,-291 99.2539,-291"/>
<text text-anchor="start" x="107.254" y="-309" font-family="Helvetica,sans-Serif" font-size="10.00">ePub3/utilities/string</text>
<text text-anchor="middle" x="152" y="-297" font-family="Helvetica,sans-Serif" font-size="10.00">_view.h</text>
</a>
</g>
</g>
<!-- Node4&#45;&gt;Node17 -->
<g id="edge17" class="edge"><title>Node4&#45;&gt;Node17</title>
<path fill="none" stroke="midnightblue" d="M411.297,-360.964C361.479,-352.861 287.389,-340.09 214.629,-324.279"/>
<polygon fill="midnightblue" stroke="midnightblue" points="215.357,-320.856 204.84,-322.132 213.857,-327.693 215.357,-320.856"/>
</g>
<!-- Node19 -->
<g id="node19" class="node"><title>Node19</title>
<polygon fill="white" stroke="#bfbfbf" points="-0.226562,-233 -0.226562,-253 40.2266,-253 40.2266,-233 -0.226562,-233"/>
<text text-anchor="middle" x="20" y="-239" font-family="Helvetica,sans-Serif" font-size="10.00">string</text>
</g>
<!-- Node4&#45;&gt;Node19 -->
<g id="edge26" class="edge"><title>Node4&#45;&gt;Node19</title>
<path fill="none" stroke="midnightblue" d="M406.182,-361.195C403.078,-360.785 400.004,-360.385 397,-360 260.733,-342.549 211.578,-387.968 90,-324 63.1575,-309.877 41.9293,-280.915 30.1702,-261.988"/>
<polygon fill="midnightblue" stroke="midnightblue" points="33.0253,-259.942 24.9045,-253.137 27.0095,-263.521 33.0253,-259.942"/>
</g>
<!-- Node24 -->
<g id="node24" class="node"><title>Node24</title>
<polygon fill="white" stroke="#bfbfbf" points="222.438,-297 222.438,-317 269.562,-317 269.562,-297 222.438,-297"/>
<text text-anchor="middle" x="246" y="-303" font-family="Helvetica,sans-Serif" font-size="10.00">iterator</text>
</g>
<!-- Node4&#45;&gt;Node24 -->
<g id="edge27" class="edge"><title>Node4&#45;&gt;Node24</title>
<path fill="none" stroke="midnightblue" d="M418.94,-360.929C380.123,-353.17 325.32,-340.62 279,-324 276.725,-323.184 274.398,-322.257 272.086,-321.272"/>
<polygon fill="midnightblue" stroke="midnightblue" points="273.376,-318.013 262.828,-317.017 270.453,-324.373 273.376,-318.013"/>
</g>
<!-- Node25 -->
<g id="node25" class="node"><title>Node25</title>
<polygon fill="white" stroke="#bfbfbf" points="287.936,-297 287.936,-317 330.064,-317 330.064,-297 287.936,-297"/>
<text text-anchor="middle" x="309" y="-303" font-family="Helvetica,sans-Serif" font-size="10.00">locale</text>
</g>
<!-- Node4&#45;&gt;Node25 -->
<g id="edge28" class="edge"><title>Node4&#45;&gt;Node25</title>
<path fill="none" stroke="midnightblue" d="M442.438,-360.886C416.978,-351.995 377.569,-337.826 344,-324 341.811,-323.098 339.557,-322.14 337.298,-321.157"/>
<polygon fill="midnightblue" stroke="midnightblue" points="338.699,-317.949 328.14,-317.068 335.845,-324.341 338.699,-317.949"/>
</g>
<!-- Node14 -->
<g id="node14" class="node"><title>Node14</title>
<polygon fill="white" stroke="#bfbfbf" points="442.384,-233 442.384,-253 485.616,-253 485.616,-233 442.384,-233"/>
<text text-anchor="middle" x="464" y="-239" font-family="Helvetica,sans-Serif" font-size="10.00">vector</text>
</g>
<!-- Node4&#45;&gt;Node14 -->
<g id="edge29" class="edge"><title>Node4&#45;&gt;Node14</title>
<path fill="none" stroke="midnightblue" d="M480.081,-360.729C489.274,-352.255 501.672,-338.816 507,-324 512.114,-309.78 512.547,-304.056 507,-290 502.392,-278.322 493.264,-267.864 484.6,-259.882"/>
<polygon fill="midnightblue" stroke="midnightblue" points="486.783,-257.143 476.916,-253.283 482.222,-262.453 486.783,-257.143"/>
</g>
<!-- Node4&#45;&gt;Node26 -->
<g id="edge30" class="edge"><title>Node4&#45;&gt;Node26</title>
<path fill="none" stroke="midnightblue" d="M531.503,-365.988C612.938,-360.092 759.507,-347.191 883,-324 889.397,-322.799 896.114,-321.274 902.644,-319.646"/>
<polygon fill="midnightblue" stroke="midnightblue" points="903.884,-322.939 912.679,-317.032 902.12,-316.165 903.884,-322.939"/>
</g>
<!-- Node27 -->
<g id="node27" class="node"><title>Node27</title>
<polygon fill="white" stroke="#bfbfbf" points="386.273,-297 386.273,-317 421.727,-317 421.727,-297 386.273,-297"/>
<text text-anchor="middle" x="404" y="-303" font-family="Helvetica,sans-Serif" font-size="10.00">map</text>
</g>
<!-- Node4&#45;&gt;Node27 -->
<g id="edge31" class="edge"><title>Node4&#45;&gt;Node27</title>
<path fill="none" stroke="midnightblue" d="M459.409,-360.852C449.328,-351.236 433.263,-335.913 421.022,-324.236"/>
<polygon fill="midnightblue" stroke="midnightblue" points="423.282,-321.555 413.63,-317.186 418.451,-326.621 423.282,-321.555"/>
</g>
<!-- Node28 -->
<g id="node28" class="node"><title>Node28</title>
<polygon fill="white" stroke="#bfbfbf" points="439.599,-297 439.599,-317 498.401,-317 498.401,-297 439.599,-297"/>
<text text-anchor="middle" x="469" y="-303" font-family="Helvetica,sans-Serif" font-size="10.00">stdexcept</text>
</g>
<!-- Node4&#45;&gt;Node28 -->
<g id="edge32" class="edge"><title>Node4&#45;&gt;Node28</title>
<path fill="none" stroke="midnightblue" d="M469,-360.852C469,-352.06 469,-338.498 469,-327.313"/>
<polygon fill="midnightblue" stroke="midnightblue" points="472.5,-327.186 469,-317.186 465.5,-327.186 472.5,-327.186"/>
</g>
<!-- Node20 -->
<g id="node20" class="node"><title>Node20</title>
<polygon fill="white" stroke="#bfbfbf" points="372.613,-233 372.613,-253 411.387,-253 411.387,-233 372.613,-233"/>
<text text-anchor="middle" x="392" y="-239" font-family="Helvetica,sans-Serif" font-size="10.00">limits</text>
</g>
<!-- Node4&#45;&gt;Node20 -->
<g id="edge33" class="edge"><title>Node4&#45;&gt;Node20</title>
<path fill="none" stroke="midnightblue" d="M430.13,-360.946C410.59,-354.217 388.641,-342.836 377,-324 365.325,-305.109 373.637,-279.263 381.797,-262.121"/>
<polygon fill="midnightblue" stroke="midnightblue" points="384.95,-263.642 386.431,-253.152 378.731,-260.429 384.95,-263.642"/>
</g>
<!-- Node29 -->
<g id="node29" class="node"><title>Node29</title>
<polygon fill="white" stroke="#bfbfbf" points="553.761,-297 553.761,-317 614.239,-317 614.239,-297 553.761,-297"/>
<text text-anchor="middle" x="584" y="-303" font-family="Helvetica,sans-Serif" font-size="10.00">utf8/utf8.h</text>
</g>
<!-- Node4&#45;&gt;Node29 -->
<g id="edge34" class="edge"><title>Node4&#45;&gt;Node29</title>
<path fill="none" stroke="midnightblue" d="M485.969,-360.852C504.993,-350.595 536.063,-333.844 558.121,-321.952"/>
<polygon fill="midnightblue" stroke="midnightblue" points="559.82,-325.012 566.962,-317.186 556.499,-318.851 559.82,-325.012"/>
</g>
<!-- Node6 -->
<g id="node6" class="node"><title>Node6</title>
<g id="a_node6"><a xlink:href="base_8h.xhtml" target="_top" xlink:title="ePub3/base.h">
<polygon fill="white" stroke="black" points="693.141,-175 693.141,-195 770.859,-195 770.859,-175 693.141,-175"/>
<text text-anchor="middle" x="732" y="-181" font-family="Helvetica,sans-Serif" font-size="10.00">ePub3/base.h</text>
</a>
</g>
</g>
<!-- Node5&#45;&gt;Node6 -->
<g id="edge5" class="edge"><title>Node5&#45;&gt;Node6</title>
<path fill="none" stroke="midnightblue" d="M693.439,-296.943C698.365,-286.683 706.362,-269.386 712,-254 717.947,-237.772 723.388,-218.882 727.089,-205.136"/>
<polygon fill="midnightblue" stroke="midnightblue" points="730.501,-205.925 729.66,-195.364 723.731,-204.144 730.501,-205.925"/>
</g>
<!-- Node11 -->
<g id="node11" class="node"><title>Node11</title>
<polygon fill="white" stroke="#bfbfbf" points="541.815,-233 541.815,-253 656.185,-253 656.185,-233 541.815,-233"/>
<text text-anchor="middle" x="599" y="-239" font-family="Helvetica,sans-Serif" font-size="10.00">ePub3/xml/xmlstring.h</text>
</g>
<!-- Node5&#45;&gt;Node11 -->
<g id="edge10" class="edge"><title>Node5&#45;&gt;Node11</title>
<path fill="none" stroke="midnightblue" d="M675.72,-296.852C661.23,-286.87 637.812,-270.737 620.655,-258.918"/>
<polygon fill="midnightblue" stroke="midnightblue" points="622.555,-255.977 612.334,-253.186 618.584,-261.741 622.555,-255.977"/>
</g>
<!-- Node5&#45;&gt;Node12 -->
<g id="edge11" class="edge"><title>Node5&#45;&gt;Node12</title>
<path fill="none" stroke="midnightblue" d="M703.313,-296.852C719.073,-286.778 744.633,-270.441 763.168,-258.594"/>
<polygon fill="midnightblue" stroke="midnightblue" points="765.088,-261.521 771.629,-253.186 761.318,-255.622 765.088,-261.521"/>
</g>
<!-- Node13 -->
<g id="node13" class="node"><title>Node13</title>
<polygon fill="white" stroke="#bfbfbf" points="390.943,-175 390.943,-195 443.057,-195 443.057,-175 390.943,-175"/>
<text text-anchor="middle" x="417" y="-181" font-family="Helvetica,sans-Serif" font-size="10.00">memory</text>
</g>
<!-- Node5&#45;&gt;Node13 -->
<g id="edge12" class="edge"><title>Node5&#45;&gt;Node13</title>
<path fill="none" stroke="midnightblue" d="M655.366,-296.994C623.242,-287.883 573.815,-272.521 533,-254 523.656,-249.76 472.435,-219.272 441.264,-200.588"/>
<polygon fill="midnightblue" stroke="midnightblue" points="442.678,-197.354 432.302,-195.21 439.076,-203.357 442.678,-197.354"/>
</g>
<!-- Node5&#45;&gt;Node14 -->
<g id="edge13" class="edge"><title>Node5&#45;&gt;Node14</title>
<path fill="none" stroke="midnightblue" d="M655.876,-296.913C618.136,-286.553 554.614,-269.098 500,-254 498.554,-253.6 497.076,-253.191 495.583,-252.778"/>
<polygon fill="midnightblue" stroke="midnightblue" points="496.271,-249.337 485.7,-250.037 494.401,-256.082 496.271,-249.337"/>
</g>
<!-- Node15 -->
<g id="node15" class="node"><title>Node15</title>
<polygon fill="white" stroke="#bfbfbf" points="674.5,-233 674.5,-253 703.5,-253 703.5,-233 674.5,-233"/>
<text text-anchor="middle" x="688.611" y="-239" font-family="Helvetica,sans-Serif" font-size="10.00">list</text>
</g>
<!-- Node5&#45;&gt;Node15 -->
<g id="edge14" class="edge"><title>Node5&#45;&gt;Node15</title>
<path fill="none" stroke="midnightblue" d="M689,-296.852C689,-288.06 689,-274.498 689,-263.313"/>
<polygon fill="midnightblue" stroke="midnightblue" points="692.5,-263.186 689,-253.186 685.5,-263.186 692.5,-263.186"/>
</g>
<!-- Node7 -->
<g id="node7" class="node"><title>Node7</title>
<g id="a_node7"><a xlink:href="__config_8h.xhtml" target="_top" xlink:title="_config.h">
<polygon fill="white" stroke="black" points="668.707,-117 668.707,-137 725.293,-137 725.293,-117 668.707,-117"/>
<text text-anchor="middle" x="697" y="-123" font-family="Helvetica,sans-Serif" font-size="10.00">_config.h</text>
</a>
</g>
</g>
<!-- Node6&#45;&gt;Node7 -->
<g id="edge6" class="edge"><title>Node6&#45;&gt;Node7</title>
<path fill="none" stroke="midnightblue" d="M726.22,-174.753C721.277,-166.843 714.023,-155.237 707.98,-145.568"/>
<polygon fill="midnightblue" stroke="midnightblue" points="710.94,-143.7 702.672,-137.075 705.004,-147.41 710.94,-143.7"/>
</g>
<!-- Node10 -->
<g id="node10" class="node"><title>Node10</title>
<polygon fill="white" stroke="#bfbfbf" points="743.158,-117 743.158,-137 790.842,-137 790.842,-117 743.158,-117"/>
<text text-anchor="middle" x="767" y="-123" font-family="Helvetica,sans-Serif" font-size="10.00">stdlib.h</text>
</g>
<!-- Node6&#45;&gt;Node10 -->
<g id="edge9" class="edge"><title>Node6&#45;&gt;Node10</title>
<path fill="none" stroke="midnightblue" d="M737.78,-174.753C742.723,-166.843 749.977,-155.237 756.02,-145.568"/>
<polygon fill="midnightblue" stroke="midnightblue" points="758.996,-147.41 761.328,-137.075 753.06,-143.7 758.996,-147.41"/>
</g>
<!-- Node8 -->
<g id="node8" class="node"><title>Node8</title>
<g id="a_node8"><a xlink:href="__platform_8h.xhtml" target="_top" xlink:title="_platform.h">
<polygon fill="white" stroke="black" points="663.988,-59 663.988,-79 730.012,-79 730.012,-59 663.988,-59"/>
<text text-anchor="middle" x="697" y="-65" font-family="Helvetica,sans-Serif" font-size="10.00">_platform.h</text>
</a>
</g>
</g>
<!-- Node7&#45;&gt;Node8 -->
<g id="edge7" class="edge"><title>Node7&#45;&gt;Node8</title>
<path fill="none" stroke="midnightblue" d="M697,-116.753C697,-109.25 697,-98.4238 697,-89.0781"/>
<polygon fill="midnightblue" stroke="midnightblue" points="700.5,-89.0752 697,-79.0752 693.5,-89.0752 700.5,-89.0752"/>
</g>
<!-- Node9 -->
<g id="node9" class="node"><title>Node9</title>
<g id="a_node9"><a xlink:href="__compiler_8h.xhtml" target="_top" xlink:title="_compiler.h">
<polygon fill="white" stroke="black" points="663.429,-1 663.429,-21 730.571,-21 730.571,-1 663.429,-1"/>
<text text-anchor="middle" x="697" y="-7" font-family="Helvetica,sans-Serif" font-size="10.00">_compiler.h</text>
</a>
</g>
</g>
<!-- Node8&#45;&gt;Node9 -->
<g id="edge8" class="edge"><title>Node8&#45;&gt;Node9</title>
<path fill="none" stroke="midnightblue" d="M697,-58.7527C697,-51.2504 697,-40.4238 697,-31.0781"/>
<polygon fill="midnightblue" stroke="midnightblue" points="700.5,-31.0752 697,-21.0752 693.5,-31.0752 700.5,-31.0752"/>
</g>
<!-- Node16&#45;&gt;Node6 -->
<g id="edge16" class="edge"><title>Node16&#45;&gt;Node6</title>
<path fill="none" stroke="midnightblue" d="M823.596,-290.89C827.477,-275.016 830.849,-249.914 820,-232 810.519,-216.346 793.767,-205.764 777.406,-198.74"/>
<polygon fill="midnightblue" stroke="midnightblue" points="778.463,-195.395 767.876,-195.004 775.908,-201.912 778.463,-195.395"/>
</g>
<!-- Node18 -->
<g id="node18" class="node"><title>Node18</title>
<polygon fill="white" stroke="#bfbfbf" points="133.934,-233 133.934,-253 196.066,-253 196.066,-233 133.934,-233"/>
<text text-anchor="middle" x="165" y="-239" font-family="Helvetica,sans-Serif" font-size="10.00">type_traits</text>
</g>
<!-- Node17&#45;&gt;Node18 -->
<g id="edge18" class="edge"><title>Node17&#45;&gt;Node18</title>
<path fill="none" stroke="midnightblue" d="M155.147,-290.992C156.899,-282.635 159.099,-272.142 160.976,-263.194"/>
<polygon fill="midnightblue" stroke="midnightblue" points="164.425,-263.796 163.052,-253.29 157.574,-262.359 164.425,-263.796"/>
</g>
<!-- Node17&#45;&gt;Node19 -->
<g id="edge19" class="edge"><title>Node17&#45;&gt;Node19</title>
<path fill="none" stroke="midnightblue" d="M120.046,-290.992C98.2115,-280.736 69.5302,-267.264 48.4771,-257.376"/>
<polygon fill="midnightblue" stroke="midnightblue" points="49.9321,-254.192 39.3928,-253.109 46.9561,-260.528 49.9321,-254.192"/>
</g>
<!-- Node17&#45;&gt;Node20 -->
<g id="edge20" class="edge"><title>Node17&#45;&gt;Node20</title>
<path fill="none" stroke="midnightblue" d="M204.884,-292.056C207.627,-291.356 210.345,-290.667 213,-290 276.508,-274.052 295.495,-273.24 362.625,-253.893"/>
<polygon fill="midnightblue" stroke="midnightblue" points="363.806,-257.194 372.427,-251.036 361.847,-250.474 363.806,-257.194"/>
</g>
<!-- Node21 -->
<g id="node21" class="node"><title>Node21</title>
<polygon fill="white" stroke="#bfbfbf" points="213.828,-233 213.828,-253 268.172,-253 268.172,-233 213.828,-233"/>
<text text-anchor="middle" x="241" y="-239" font-family="Helvetica,sans-Serif" font-size="10.00">iostream</text>
</g>
<!-- Node17&#45;&gt;Node21 -->
<g id="edge21" class="edge"><title>Node17&#45;&gt;Node21</title>
<path fill="none" stroke="midnightblue" d="M173.544,-290.992C187.471,-281.29 205.528,-268.711 219.454,-259.009"/>
<polygon fill="midnightblue" stroke="midnightblue" points="221.72,-261.697 227.925,-253.109 217.719,-255.953 221.72,-261.697"/>
</g>
<!-- Node22 -->
<g id="node22" class="node"><title>Node22</title>
<polygon fill="white" stroke="#bfbfbf" points="58.436,-233 58.436,-253 115.564,-253 115.564,-233 58.436,-233"/>
<text text-anchor="middle" x="87" y="-239" font-family="Helvetica,sans-Serif" font-size="10.00">algorithm</text>
</g>
<!-- Node17&#45;&gt;Node22 -->
<g id="edge22" class="edge"><title>Node17&#45;&gt;Node22</title>
<path fill="none" stroke="midnightblue" d="M136.265,-290.992C126.541,-281.716 114.06,-269.811 104.093,-260.304"/>
<polygon fill="midnightblue" stroke="midnightblue" points="106.392,-257.66 96.7399,-253.29 101.56,-262.725 106.392,-257.66"/>
</g>
<!-- Node23 -->
<g id="node23" class="node"><title>Node23</title>
<g id="a_node23"><a xlink:href="____strhash_8h.xhtml" target="_top" xlink:title="__strhash.h">
<polygon fill="white" stroke="black" points="285.872,-233 285.872,-253 354.128,-253 354.128,-233 285.872,-233"/>
<text text-anchor="middle" x="320" y="-239" font-family="Helvetica,sans-Serif" font-size="10.00">__strhash.h</text>
</a>
</g>
</g>
<!-- Node17&#45;&gt;Node23 -->
<g id="edge23" class="edge"><title>Node17&#45;&gt;Node23</title>
<path fill="none" stroke="midnightblue" d="M192.668,-290.992C221.209,-280.459 258.941,-266.534 285.907,-256.582"/>
<polygon fill="midnightblue" stroke="midnightblue" points="287.148,-259.855 295.318,-253.109 284.725,-253.288 287.148,-259.855"/>
</g>
<!-- Node23&#45;&gt;Node6 -->
<g id="edge24" class="edge"><title>Node23&#45;&gt;Node6</title>
<path fill="none" stroke="midnightblue" d="M354.522,-233.814C357.718,-233.159 360.914,-232.542 364,-232 477.631,-212.036 612.485,-197.483 683.18,-190.547"/>
<polygon fill="midnightblue" stroke="midnightblue" points="683.52,-194.03 693.135,-189.579 682.843,-187.063 683.52,-194.03"/>
</g>
<!-- Node23&#45;&gt;Node13 -->
<g id="edge25" class="edge"><title>Node23&#45;&gt;Node13</title>
<path fill="none" stroke="midnightblue" d="M336.018,-232.753C351.414,-223.864 374.893,-210.309 392.613,-200.079"/>
<polygon fill="midnightblue" stroke="midnightblue" points="394.37,-203.106 401.28,-195.075 390.87,-197.044 394.37,-203.106"/>
</g>
</g>
</svg>
