<?xml version="1.0" encoding="UTF-8" standalone="no"?>
<!DOCTYPE svg PUBLIC "-//W3C//DTD SVG 1.1//EN"
 "http://www.w3.org/Graphics/SVG/1.1/DTD/svg11.dtd">
<!-- Generated by graphviz version 2.30.0 (20130114.0426)
 -->
<!-- Title: /Users/rkwright/Documents/github/readium&#45;sdk&#45;D/ePub3/ePub/property_extension.h Pages: 1 -->
<svg width="1477pt" height="542pt"
 viewBox="0.00 0.00 1477.00 542.00" xmlns="http://www.w3.org/2000/svg" xmlns:xlink="http://www.w3.org/1999/xlink">
<g id="graph0" class="graph" transform="scale(1 1) rotate(0) translate(4 538)">
<title>/Users/rkwright/Documents/github/readium&#45;sdk&#45;D/ePub3/ePub/property_extension.h</title>
<polygon fill="white" stroke="white" points="-4,5 -4,-538 1474,-538 1474,5 -4,5"/>
<!-- Node1 -->
<g id="node1" class="node"><title>Node1</title>
<polygon fill="#bfbfbf" stroke="black" points="899.966,-489 899.966,-533 1046.03,-533 1046.03,-489 899.966,-489"/>
<text text-anchor="start" x="907.966" y="-519" font-family="Helvetica,sans-Serif" font-size="10.00">/Users/rkwright/Documents</text>
<text text-anchor="start" x="907.966" y="-507" font-family="Helvetica,sans-Serif" font-size="10.00">/github/readium&#45;sdk&#45;D/ePub3</text>
<text text-anchor="middle" x="973" y="-495" font-family="Helvetica,sans-Serif" font-size="10.00">/ePub/property_extension.h</text>
</g>
<!-- Node2 -->
<g id="node2" class="node"><title>Node2</title>
<g id="a_node2"><a xlink:href="basic_8h.xhtml" target="_top" xlink:title="ePub3/utilities/basic.h">
<polygon fill="white" stroke="black" points="158.638,-297 158.638,-317 271.362,-317 271.362,-297 158.638,-297"/>
<text text-anchor="middle" x="215" y="-303" font-family="Helvetica,sans-Serif" font-size="10.00">ePub3/utilities/basic.h</text>
</a>
</g>
</g>
<!-- Node1&#45;&gt;Node2 -->
<g id="edge1" class="edge"><title>Node1&#45;&gt;Node2</title>
<path fill="none" stroke="midnightblue" d="M899.719,-498.035C788.78,-478.976 572.238,-438.073 394,-382 339.17,-364.751 277.759,-337.546 242.998,-321.37"/>
<polygon fill="midnightblue" stroke="midnightblue" points="244.469,-318.193 233.928,-317.117 241.497,-324.531 244.469,-318.193"/>
</g>
<!-- Node13 -->
<g id="node13" class="node"><title>Node13</title>
<g id="a_node13"><a xlink:href="owned__by_8h.xhtml" target="_top" xlink:title="ePub3/utilities/owned_by.h">
<polygon fill="white" stroke="black" points="1333.88,-297 1333.88,-317 1468.12,-317 1468.12,-297 1333.88,-297"/>
<text text-anchor="middle" x="1401" y="-303" font-family="Helvetica,sans-Serif" font-size="10.00">ePub3/utilities/owned_by.h</text>
</a>
</g>
</g>
<!-- Node1&#45;&gt;Node13 -->
<g id="edge12" class="edge"><title>Node1&#45;&gt;Node13</title>
<path fill="none" stroke="midnightblue" d="M1046.37,-510.815C1154.99,-510.299 1350.66,-502.194 1396,-452 1427.06,-417.611 1415.79,-357.587 1407.18,-327.037"/>
<polygon fill="midnightblue" stroke="midnightblue" points="1410.46,-325.778 1404.22,-317.217 1403.76,-327.802 1410.46,-325.778"/>
</g>
<!-- Node15 -->
<g id="node15" class="node"><title>Node15</title>
<g id="a_node15"><a xlink:href="utfstring_8h.xhtml" target="_top" xlink:title="ePub3/utilities/utfstring.h">
<polygon fill="white" stroke="black" points="719.525,-361 719.525,-381 844.475,-381 844.475,-361 719.525,-361"/>
<text text-anchor="middle" x="782" y="-367" font-family="Helvetica,sans-Serif" font-size="10.00">ePub3/utilities/utfstring.h</text>
</a>
</g>
</g>
<!-- Node1&#45;&gt;Node15 -->
<g id="edge15" class="edge"><title>Node1&#45;&gt;Node15</title>
<path fill="none" stroke="midnightblue" d="M899.655,-501.753C865.211,-494.19 826.269,-479.709 801,-452 785.937,-435.482 782.193,-409.236 781.556,-391.345"/>
<polygon fill="midnightblue" stroke="midnightblue" points="785.055,-391.192 781.493,-381.214 778.055,-391.236 785.055,-391.192"/>
</g>
<!-- Node29 -->
<g id="node29" class="node"><title>Node29</title>
<g id="a_node29"><a xlink:href="iri_8h.xhtml" target="_top" xlink:title="ePub3/utilities/iri.h">
<polygon fill="white" stroke="black" points="924.424,-425 924.424,-445 1021.58,-445 1021.58,-425 924.424,-425"/>
<text text-anchor="middle" x="973" y="-431" font-family="Helvetica,sans-Serif" font-size="10.00">ePub3/utilities/iri.h</text>
</a>
</g>
</g>
<!-- Node1&#45;&gt;Node29 -->
<g id="edge37" class="edge"><title>Node1&#45;&gt;Node29</title>
<path fill="none" stroke="midnightblue" d="M973,-488.993C973,-478.323 973,-465.458 973,-455.075"/>
<polygon fill="midnightblue" stroke="midnightblue" points="976.5,-455.004 973,-445.004 969.5,-455.005 976.5,-455.004"/>
</g>
<!-- Node34 -->
<g id="node34" class="node"><title>Node34</title>
<g id="a_node34"><a xlink:href="xml__identifiable_8h.xhtml" target="_top" xlink:title="ePub3/utilities/xml\l_identifiable.h">
<polygon fill="white" stroke="black" points="809.705,-419 809.705,-451 906.295,-451 906.295,-419 809.705,-419"/>
<text text-anchor="start" x="817.705" y="-437" font-family="Helvetica,sans-Serif" font-size="10.00">ePub3/utilities/xml</text>
<text text-anchor="middle" x="858" y="-425" font-family="Helvetica,sans-Serif" font-size="10.00">_identifiable.h</text>
</a>
</g>
</g>
<!-- Node1&#45;&gt;Node34 -->
<g id="edge47" class="edge"><title>Node1&#45;&gt;Node34</title>
<path fill="none" stroke="midnightblue" d="M940.353,-488.993C924.699,-478.92 906.003,-466.889 890.383,-456.838"/>
<polygon fill="midnightblue" stroke="midnightblue" points="891.892,-453.647 881.589,-451.179 888.104,-459.533 891.892,-453.647"/>
</g>
<!-- Node35 -->
<g id="node35" class="node"><title>Node35</title>
<polygon fill="white" stroke="#bfbfbf" points="1290.69,-425 1290.69,-445 1387.31,-445 1387.31,-425 1290.69,-425"/>
<text text-anchor="middle" x="1339" y="-431" font-family="Helvetica,sans-Serif" font-size="10.00">ePub3/xml/node.h</text>
</g>
<!-- Node1&#45;&gt;Node35 -->
<g id="edge49" class="edge"><title>Node1&#45;&gt;Node35</title>
<path fill="none" stroke="midnightblue" d="M1046.06,-497.416C1107.81,-486.457 1198.49,-469.601 1277,-452 1283.12,-450.628 1289.56,-449.083 1295.87,-447.508"/>
<polygon fill="midnightblue" stroke="midnightblue" points="1296.8,-450.883 1305.63,-445.029 1295.08,-444.099 1296.8,-450.883"/>
</g>
<!-- Node10 -->
<g id="node10" class="node"><title>Node10</title>
<polygon fill="white" stroke="#bfbfbf" points="1298.94,-175 1298.94,-195 1351.06,-195 1351.06,-175 1298.94,-175"/>
<text text-anchor="middle" x="1325" y="-181" font-family="Helvetica,sans-Serif" font-size="10.00">memory</text>
</g>
<!-- Node1&#45;&gt;Node10 -->
<g id="edge50" class="edge"><title>Node1&#45;&gt;Node10</title>
<path fill="none" stroke="midnightblue" d="M1012.37,-488.758C1069.88,-456.835 1178.91,-392.85 1261,-324 1293.53,-296.717 1310.48,-293.518 1326,-254 1332.13,-238.391 1331.15,-219.171 1329.06,-205.151"/>
<polygon fill="midnightblue" stroke="midnightblue" points="1332.49,-204.411 1327.27,-195.191 1325.6,-205.653 1332.49,-204.411"/>
</g>
<!-- Node3 -->
<g id="node3" class="node"><title>Node3</title>
<g id="a_node3"><a xlink:href="base_8h.xhtml" target="_top" xlink:title="ePub3/base.h">
<polygon fill="white" stroke="black" points="724.141,-175 724.141,-195 801.859,-195 801.859,-175 724.141,-175"/>
<text text-anchor="middle" x="763" y="-181" font-family="Helvetica,sans-Serif" font-size="10.00">ePub3/base.h</text>
</a>
</g>
</g>
<!-- Node2&#45;&gt;Node3 -->
<g id="edge2" class="edge"><title>Node2&#45;&gt;Node3</title>
<path fill="none" stroke="midnightblue" d="M220.155,-296.981C229.996,-280.729 253.162,-246.842 283,-232 357.715,-194.835 607.161,-187.658 713.881,-186.301"/>
<polygon fill="midnightblue" stroke="midnightblue" points="714.097,-189.799 724.056,-186.184 714.016,-182.799 714.097,-189.799"/>
</g>
<!-- Node8 -->
<g id="node8" class="node"><title>Node8</title>
<polygon fill="white" stroke="#bfbfbf" points="46.8154,-233 46.8154,-253 161.185,-253 161.185,-233 46.8154,-233"/>
<text text-anchor="middle" x="104" y="-239" font-family="Helvetica,sans-Serif" font-size="10.00">ePub3/xml/xmlstring.h</text>
</g>
<!-- Node2&#45;&gt;Node8 -->
<g id="edge7" class="edge"><title>Node2&#45;&gt;Node8</title>
<path fill="none" stroke="midnightblue" d="M198.622,-296.852C180.34,-286.641 150.537,-269.994 129.264,-258.112"/>
<polygon fill="midnightblue" stroke="midnightblue" points="130.883,-255.007 120.446,-253.186 127.469,-261.118 130.883,-255.007"/>
</g>
<!-- Node9 -->
<g id="node9" class="node"><title>Node9</title>
<polygon fill="white" stroke="#bfbfbf" points="179.219,-233 179.219,-253 230.781,-253 230.781,-233 179.219,-233"/>
<text text-anchor="middle" x="205" y="-239" font-family="Helvetica,sans-Serif" font-size="10.00">sstream</text>
</g>
<!-- Node2&#45;&gt;Node9 -->
<g id="edge8" class="edge"><title>Node2&#45;&gt;Node9</title>
<path fill="none" stroke="midnightblue" d="M213.524,-296.852C212.106,-288.06 209.919,-274.498 208.115,-263.313"/>
<polygon fill="midnightblue" stroke="midnightblue" points="211.529,-262.501 206.482,-253.186 204.619,-263.616 211.529,-262.501"/>
</g>
<!-- Node2&#45;&gt;Node10 -->
<g id="edge9" class="edge"><title>Node2&#45;&gt;Node10</title>
<path fill="none" stroke="midnightblue" d="M227.033,-296.895C252.699,-277.516 310.9,-233.798 316,-232 409.096,-199.179 1119.04,-188.507 1288.68,-186.413"/>
<polygon fill="midnightblue" stroke="midnightblue" points="1288.88,-189.911 1298.83,-186.29 1288.79,-182.911 1288.88,-189.911"/>
</g>
<!-- Node11 -->
<g id="node11" class="node"><title>Node11</title>
<polygon fill="white" stroke="#bfbfbf" points="325.384,-233 325.384,-253 368.616,-253 368.616,-233 325.384,-233"/>
<text text-anchor="middle" x="347" y="-239" font-family="Helvetica,sans-Serif" font-size="10.00">vector</text>
</g>
<!-- Node2&#45;&gt;Node11 -->
<g id="edge10" class="edge"><title>Node2&#45;&gt;Node11</title>
<path fill="none" stroke="midnightblue" d="M234.194,-296.985C256.385,-286.561 293.121,-269.307 318.616,-257.332"/>
<polygon fill="midnightblue" stroke="midnightblue" points="320.22,-260.446 327.783,-253.026 317.244,-254.11 320.22,-260.446"/>
</g>
<!-- Node12 -->
<g id="node12" class="node"><title>Node12</title>
<polygon fill="white" stroke="#bfbfbf" points="-0.5,-233 -0.5,-253 28.5,-253 28.5,-233 -0.5,-233"/>
<text text-anchor="middle" x="13.6108" y="-239" font-family="Helvetica,sans-Serif" font-size="10.00">list</text>
</g>
<!-- Node2&#45;&gt;Node12 -->
<g id="edge11" class="edge"><title>Node2&#45;&gt;Node12</title>
<path fill="none" stroke="midnightblue" d="M180.048,-296.942C144.084,-287.34 86.6084,-271.209 38,-254 37.9043,-253.966 37.8084,-253.932 37.7123,-253.898"/>
<polygon fill="midnightblue" stroke="midnightblue" points="39.214,-250.726 28.6245,-250.391 36.6939,-257.256 39.214,-250.726"/>
</g>
<!-- Node4 -->
<g id="node4" class="node"><title>Node4</title>
<g id="a_node4"><a xlink:href="__config_8h.xhtml" target="_top" xlink:title="_config.h">
<polygon fill="white" stroke="black" points="699.707,-117 699.707,-137 756.293,-137 756.293,-117 699.707,-117"/>
<text text-anchor="middle" x="728" y="-123" font-family="Helvetica,sans-Serif" font-size="10.00">_config.h</text>
</a>
</g>
</g>
<!-- Node3&#45;&gt;Node4 -->
<g id="edge3" class="edge"><title>Node3&#45;&gt;Node4</title>
<path fill="none" stroke="midnightblue" d="M757.22,-174.753C752.277,-166.843 745.023,-155.237 738.98,-145.568"/>
<polygon fill="midnightblue" stroke="midnightblue" points="741.94,-143.7 733.672,-137.075 736.004,-147.41 741.94,-143.7"/>
</g>
<!-- Node7 -->
<g id="node7" class="node"><title>Node7</title>
<polygon fill="white" stroke="#bfbfbf" points="774.158,-117 774.158,-137 821.842,-137 821.842,-117 774.158,-117"/>
<text text-anchor="middle" x="798" y="-123" font-family="Helvetica,sans-Serif" font-size="10.00">stdlib.h</text>
</g>
<!-- Node3&#45;&gt;Node7 -->
<g id="edge6" class="edge"><title>Node3&#45;&gt;Node7</title>
<path fill="none" stroke="midnightblue" d="M768.78,-174.753C773.723,-166.843 780.977,-155.237 787.02,-145.568"/>
<polygon fill="midnightblue" stroke="midnightblue" points="789.996,-147.41 792.328,-137.075 784.06,-143.7 789.996,-147.41"/>
</g>
<!-- Node5 -->
<g id="node5" class="node"><title>Node5</title>
<g id="a_node5"><a xlink:href="__platform_8h.xhtml" target="_top" xlink:title="_platform.h">
<polygon fill="white" stroke="black" points="694.988,-59 694.988,-79 761.012,-79 761.012,-59 694.988,-59"/>
<text text-anchor="middle" x="728" y="-65" font-family="Helvetica,sans-Serif" font-size="10.00">_platform.h</text>
</a>
</g>
</g>
<!-- Node4&#45;&gt;Node5 -->
<g id="edge4" class="edge"><title>Node4&#45;&gt;Node5</title>
<path fill="none" stroke="midnightblue" d="M728,-116.753C728,-109.25 728,-98.4238 728,-89.0781"/>
<polygon fill="midnightblue" stroke="midnightblue" points="731.5,-89.0752 728,-79.0752 724.5,-89.0752 731.5,-89.0752"/>
</g>
<!-- Node6 -->
<g id="node6" class="node"><title>Node6</title>
<g id="a_node6"><a xlink:href="__compiler_8h.xhtml" target="_top" xlink:title="_compiler.h">
<polygon fill="white" stroke="black" points="694.429,-1 694.429,-21 761.571,-21 761.571,-1 694.429,-1"/>
<text text-anchor="middle" x="728" y="-7" font-family="Helvetica,sans-Serif" font-size="10.00">_compiler.h</text>
</a>
</g>
</g>
<!-- Node5&#45;&gt;Node6 -->
<g id="edge5" class="edge"><title>Node5&#45;&gt;Node6</title>
<path fill="none" stroke="midnightblue" d="M728,-58.7527C728,-51.2504 728,-40.4238 728,-31.0781"/>
<polygon fill="midnightblue" stroke="midnightblue" points="731.5,-31.0752 728,-21.0752 724.5,-31.0752 731.5,-31.0752"/>
</g>
<!-- Node13&#45;&gt;Node10 -->
<g id="edge13" class="edge"><title>Node13&#45;&gt;Node10</title>
<path fill="none" stroke="midnightblue" d="M1399.6,-296.665C1397.06,-281.921 1390.62,-252.786 1377,-232 1369.16,-220.028 1357.4,-209.265 1347.05,-201.165"/>
<polygon fill="midnightblue" stroke="midnightblue" points="1348.91,-198.189 1338.8,-195.02 1344.73,-203.802 1348.91,-198.189"/>
</g>
<!-- Node14 -->
<g id="node14" class="node"><title>Node14</title>
<polygon fill="white" stroke="#bfbfbf" points="1168.93,-233 1168.93,-253 1231.07,-253 1231.07,-233 1168.93,-233"/>
<text text-anchor="middle" x="1200" y="-239" font-family="Helvetica,sans-Serif" font-size="10.00">type_traits</text>
</g>
<!-- Node13&#45;&gt;Node14 -->
<g id="edge14" class="edge"><title>Node13&#45;&gt;Node14</title>
<path fill="none" stroke="midnightblue" d="M1371.77,-296.985C1336.79,-286.194 1278.07,-268.082 1239.18,-256.086"/>
<polygon fill="midnightblue" stroke="midnightblue" points="1239.85,-252.629 1229.26,-253.026 1237.79,-259.318 1239.85,-252.629"/>
</g>
<!-- Node15&#45;&gt;Node2 -->
<g id="edge16" class="edge"><title>Node15&#45;&gt;Node2</title>
<path fill="none" stroke="midnightblue" d="M719.16,-364.648C630.647,-356.895 464.27,-341.533 323,-324 309.659,-322.344 295.421,-320.378 281.807,-318.4"/>
<polygon fill="midnightblue" stroke="midnightblue" points="281.946,-314.883 271.543,-316.89 280.927,-321.808 281.946,-314.883"/>
</g>
<!-- Node16 -->
<g id="node16" class="node"><title>Node16</title>
<g id="a_node16"><a xlink:href="integer__sequence_8h.xhtml" target="_top" xlink:title="ePub3/utilities/integer\l_sequence.h">
<polygon fill="white" stroke="black" points="365.192,-291 365.192,-323 476.808,-323 476.808,-291 365.192,-291"/>
<text text-anchor="start" x="373.192" y="-309" font-family="Helvetica,sans-Serif" font-size="10.00">ePub3/utilities/integer</text>
<text text-anchor="middle" x="421" y="-297" font-family="Helvetica,sans-Serif" font-size="10.00">_sequence.h</text>
</a>
</g>
</g>
<!-- Node15&#45;&gt;Node16 -->
<g id="edge17" class="edge"><title>Node15&#45;&gt;Node16</title>
<path fill="none" stroke="midnightblue" d="M719.354,-361.88C661.48,-354.012 572.929,-341.049 486.885,-324.08"/>
<polygon fill="midnightblue" stroke="midnightblue" points="487.442,-320.623 476.95,-322.101 486.074,-327.488 487.442,-320.623"/>
</g>
<!-- Node17 -->
<g id="node17" class="node"><title>Node17</title>
<g id="a_node17"><a xlink:href="string__view_8h.xhtml" target="_top" xlink:title="ePub3/utilities/string\l_view.h">
<polygon fill="white" stroke="black" points="985.254,-291 985.254,-323 1090.75,-323 1090.75,-291 985.254,-291"/>
<text text-anchor="start" x="993.254" y="-309" font-family="Helvetica,sans-Serif" font-size="10.00">ePub3/utilities/string</text>
<text text-anchor="middle" x="1038" y="-297" font-family="Helvetica,sans-Serif" font-size="10.00">_view.h</text>
</a>
</g>
</g>
<!-- Node15&#45;&gt;Node17 -->
<g id="edge19" class="edge"><title>Node15&#45;&gt;Node17</title>
<path fill="none" stroke="midnightblue" d="M821.071,-360.975C858.22,-352.34 915.92,-338.791 975.32,-324.144"/>
<polygon fill="midnightblue" stroke="midnightblue" points="976.385,-327.486 985.253,-321.688 974.705,-320.69 976.385,-327.486"/>
</g>
<!-- Node18 -->
<g id="node18" class="node"><title>Node18</title>
<polygon fill="white" stroke="#bfbfbf" points="725.773,-233 725.773,-253 766.227,-253 766.227,-233 725.773,-233"/>
<text text-anchor="middle" x="746" y="-239" font-family="Helvetica,sans-Serif" font-size="10.00">string</text>
</g>
<!-- Node15&#45;&gt;Node18 -->
<g id="edge28" class="edge"><title>Node15&#45;&gt;Node18</title>
<path fill="none" stroke="midnightblue" d="M779.411,-360.938C773.576,-340.514 759.293,-290.526 751.423,-262.981"/>
<polygon fill="midnightblue" stroke="midnightblue" points="754.775,-261.973 748.663,-253.319 748.045,-263.896 754.775,-261.973"/>
</g>
<!-- Node23 -->
<g id="node23" class="node"><title>Node23</title>
<polygon fill="white" stroke="#bfbfbf" points="859.438,-297 859.438,-317 906.562,-317 906.562,-297 859.438,-297"/>
<text text-anchor="middle" x="883" y="-303" font-family="Helvetica,sans-Serif" font-size="10.00">iterator</text>
</g>
<!-- Node15&#45;&gt;Node23 -->
<g id="edge29" class="edge"><title>Node15&#45;&gt;Node23</title>
<path fill="none" stroke="midnightblue" d="M796.903,-360.852C813.388,-350.732 840.17,-334.292 859.489,-322.432"/>
<polygon fill="midnightblue" stroke="midnightblue" points="861.345,-325.4 868.036,-317.186 857.683,-319.435 861.345,-325.4"/>
</g>
<!-- Node24 -->
<g id="node24" class="node"><title>Node24</title>
<polygon fill="white" stroke="#bfbfbf" points="924.936,-297 924.936,-317 967.064,-317 967.064,-297 924.936,-297"/>
<text text-anchor="middle" x="946" y="-303" font-family="Helvetica,sans-Serif" font-size="10.00">locale</text>
</g>
<!-- Node15&#45;&gt;Node24 -->
<g id="edge30" class="edge"><title>Node15&#45;&gt;Node24</title>
<path fill="none" stroke="midnightblue" d="M812.045,-360.968C839.31,-352.453 880.414,-338.816 915,-324 916.795,-323.231 918.63,-322.402 920.467,-321.54"/>
<polygon fill="midnightblue" stroke="midnightblue" points="922.066,-324.653 929.479,-317.083 918.964,-318.378 922.066,-324.653"/>
</g>
<!-- Node15&#45;&gt;Node11 -->
<g id="edge31" class="edge"><title>Node15&#45;&gt;Node11</title>
<path fill="none" stroke="midnightblue" d="M719.306,-367.496C607.096,-362.402 381.239,-349.126 356,-324 340.333,-308.403 340.59,-281.54 343.075,-263.286"/>
<polygon fill="midnightblue" stroke="midnightblue" points="346.562,-263.656 344.787,-253.211 339.661,-262.483 346.562,-263.656"/>
</g>
<!-- Node25 -->
<g id="node25" class="node"><title>Node25</title>
<polygon fill="white" stroke="#bfbfbf" points="494.766,-297 494.766,-317 595.234,-317 595.234,-297 494.766,-297"/>
<text text-anchor="middle" x="545" y="-303" font-family="Helvetica,sans-Serif" font-size="10.00">REGEX_INCLUDE</text>
</g>
<!-- Node15&#45;&gt;Node25 -->
<g id="edge32" class="edge"><title>Node15&#45;&gt;Node25</title>
<path fill="none" stroke="midnightblue" d="M746.507,-360.96C710.557,-351.773 653.367,-337.072 604,-324 598.742,-322.608 593.225,-321.132 587.763,-319.661"/>
<polygon fill="midnightblue" stroke="midnightblue" points="588.625,-316.269 578.058,-317.039 586.799,-323.026 588.625,-316.269"/>
</g>
<!-- Node26 -->
<g id="node26" class="node"><title>Node26</title>
<polygon fill="white" stroke="#bfbfbf" points="613.273,-297 613.273,-317 648.727,-317 648.727,-297 613.273,-297"/>
<text text-anchor="middle" x="631" y="-303" font-family="Helvetica,sans-Serif" font-size="10.00">map</text>
</g>
<!-- Node15&#45;&gt;Node26 -->
<g id="edge33" class="edge"><title>Node15&#45;&gt;Node26</title>
<path fill="none" stroke="midnightblue" d="M753.332,-360.998C727.807,-352.602 689.708,-339.125 658,-324 656.81,-323.433 655.605,-322.83 654.396,-322.203"/>
<polygon fill="midnightblue" stroke="midnightblue" points="655.748,-318.949 645.311,-317.127 652.334,-325.06 655.748,-318.949"/>
</g>
<!-- Node27 -->
<g id="node27" class="node"><title>Node27</title>
<polygon fill="white" stroke="#bfbfbf" points="666.599,-297 666.599,-317 725.401,-317 725.401,-297 666.599,-297"/>
<text text-anchor="middle" x="696" y="-303" font-family="Helvetica,sans-Serif" font-size="10.00">stdexcept</text>
</g>
<!-- Node15&#45;&gt;Node27 -->
<g id="edge34" class="edge"><title>Node15&#45;&gt;Node27</title>
<path fill="none" stroke="midnightblue" d="M769.31,-360.852C755.591,-350.961 733.497,-335.033 717.145,-323.244"/>
<polygon fill="midnightblue" stroke="midnightblue" points="718.9,-320.195 708.742,-317.186 714.807,-325.873 718.9,-320.195"/>
</g>
<!-- Node19 -->
<g id="node19" class="node"><title>Node19</title>
<polygon fill="white" stroke="#bfbfbf" points="1018.61,-233 1018.61,-253 1057.39,-253 1057.39,-233 1018.61,-233"/>
<text text-anchor="middle" x="1038" y="-239" font-family="Helvetica,sans-Serif" font-size="10.00">limits</text>
</g>
<!-- Node15&#45;&gt;Node19 -->
<g id="edge35" class="edge"><title>Node15&#45;&gt;Node19</title>
<path fill="none" stroke="midnightblue" d="M844.533,-365.278C932.14,-358.019 1082.6,-342.95 1099,-324 1108.89,-312.573 1105.74,-303.525 1099,-290 1092.1,-276.149 1078.81,-265.368 1066.4,-257.736"/>
<polygon fill="midnightblue" stroke="midnightblue" points="1068.04,-254.643 1057.62,-252.736 1064.58,-260.726 1068.04,-254.643"/>
</g>
<!-- Node28 -->
<g id="node28" class="node"><title>Node28</title>
<polygon fill="white" stroke="#bfbfbf" points="780.761,-297 780.761,-317 841.239,-317 841.239,-297 780.761,-297"/>
<text text-anchor="middle" x="811" y="-303" font-family="Helvetica,sans-Serif" font-size="10.00">utf8/utf8.h</text>
</g>
<!-- Node15&#45;&gt;Node28 -->
<g id="edge36" class="edge"><title>Node15&#45;&gt;Node28</title>
<path fill="none" stroke="midnightblue" d="M786.279,-360.852C790.52,-351.785 797.134,-337.645 802.454,-326.272"/>
<polygon fill="midnightblue" stroke="midnightblue" points="805.637,-327.727 806.703,-317.186 799.296,-324.761 805.637,-327.727"/>
</g>
<!-- Node16&#45;&gt;Node3 -->
<g id="edge18" class="edge"><title>Node16&#45;&gt;Node3</title>
<path fill="none" stroke="midnightblue" d="M463.968,-290.923C532.255,-266.963 664.281,-220.638 727.533,-198.445"/>
<polygon fill="midnightblue" stroke="midnightblue" points="728.796,-201.711 737.074,-195.097 726.479,-195.105 728.796,-201.711"/>
</g>
<!-- Node17&#45;&gt;Node14 -->
<g id="edge20" class="edge"><title>Node17&#45;&gt;Node14</title>
<path fill="none" stroke="midnightblue" d="M1077.22,-290.992C1104.62,-280.505 1140.8,-266.656 1166.78,-256.713"/>
<polygon fill="midnightblue" stroke="midnightblue" points="1168.11,-259.952 1176.2,-253.109 1165.61,-253.414 1168.11,-259.952"/>
</g>
<!-- Node17&#45;&gt;Node18 -->
<g id="edge21" class="edge"><title>Node17&#45;&gt;Node18</title>
<path fill="none" stroke="midnightblue" d="M984.963,-292.033C981.936,-291.323 978.932,-290.64 976,-290 890.45,-271.328 864.631,-276.456 776.377,-254.06"/>
<polygon fill="midnightblue" stroke="midnightblue" points="777.033,-250.615 766.475,-251.5 775.28,-257.392 777.033,-250.615"/>
</g>
<!-- Node17&#45;&gt;Node19 -->
<g id="edge22" class="edge"><title>Node17&#45;&gt;Node19</title>
<path fill="none" stroke="midnightblue" d="M1038,-290.992C1038,-282.726 1038,-272.373 1038,-263.489"/>
<polygon fill="midnightblue" stroke="midnightblue" points="1041.5,-263.29 1038,-253.29 1034.5,-263.29 1041.5,-263.29"/>
</g>
<!-- Node20 -->
<g id="node20" class="node"><title>Node20</title>
<polygon fill="white" stroke="#bfbfbf" points="859.828,-233 859.828,-253 914.172,-253 914.172,-233 859.828,-233"/>
<text text-anchor="middle" x="887" y="-239" font-family="Helvetica,sans-Serif" font-size="10.00">iostream</text>
</g>
<!-- Node17&#45;&gt;Node20 -->
<g id="edge23" class="edge"><title>Node17&#45;&gt;Node20</title>
<path fill="none" stroke="midnightblue" d="M1001.45,-290.992C976.132,-280.597 942.771,-266.899 918.605,-256.977"/>
<polygon fill="midnightblue" stroke="midnightblue" points="919.764,-253.669 909.184,-253.109 917.105,-260.145 919.764,-253.669"/>
</g>
<!-- Node21 -->
<g id="node21" class="node"><title>Node21</title>
<polygon fill="white" stroke="#bfbfbf" points="784.436,-233 784.436,-253 841.564,-253 841.564,-233 784.436,-233"/>
<text text-anchor="middle" x="813" y="-239" font-family="Helvetica,sans-Serif" font-size="10.00">algorithm</text>
</g>
<!-- Node17&#45;&gt;Node21 -->
<g id="edge24" class="edge"><title>Node17&#45;&gt;Node21</title>
<path fill="none" stroke="midnightblue" d="M985.247,-291.464C944.287,-280.177 888.44,-264.788 851.583,-254.632"/>
<polygon fill="midnightblue" stroke="midnightblue" points="852.289,-251.196 841.719,-251.914 850.43,-257.944 852.289,-251.196"/>
</g>
<!-- Node22 -->
<g id="node22" class="node"><title>Node22</title>
<g id="a_node22"><a xlink:href="____strhash_8h.xhtml" target="_top" xlink:title="__strhash.h">
<polygon fill="white" stroke="black" points="931.872,-233 931.872,-253 1000.13,-253 1000.13,-233 931.872,-233"/>
<text text-anchor="middle" x="966" y="-239" font-family="Helvetica,sans-Serif" font-size="10.00">__strhash.h</text>
</a>
</g>
</g>
<!-- Node17&#45;&gt;Node22 -->
<g id="edge25" class="edge"><title>Node17&#45;&gt;Node22</title>
<path fill="none" stroke="midnightblue" d="M1020.57,-290.992C1009.69,-281.624 995.7,-269.575 984.607,-260.022"/>
<polygon fill="midnightblue" stroke="midnightblue" points="986.65,-257.163 976.789,-253.29 982.083,-262.468 986.65,-257.163"/>
</g>
<!-- Node22&#45;&gt;Node3 -->
<g id="edge26" class="edge"><title>Node22&#45;&gt;Node3</title>
<path fill="none" stroke="midnightblue" d="M932.933,-232.878C898.177,-223.29 843.384,-208.175 805.455,-197.712"/>
<polygon fill="midnightblue" stroke="midnightblue" points="806.287,-194.311 795.717,-195.025 804.426,-201.059 806.287,-194.311"/>
</g>
<!-- Node22&#45;&gt;Node10 -->
<g id="edge27" class="edge"><title>Node22&#45;&gt;Node10</title>
<path fill="none" stroke="midnightblue" d="M1000.53,-233.882C1003.73,-233.213 1006.92,-232.574 1010,-232 1110.25,-213.318 1229.63,-197.669 1288.48,-190.387"/>
<polygon fill="midnightblue" stroke="midnightblue" points="1289.25,-193.819 1298.75,-189.126 1288.4,-186.871 1289.25,-193.819"/>
</g>
<!-- Node29&#45;&gt;Node15 -->
<g id="edge38" class="edge"><title>Node29&#45;&gt;Node15</title>
<path fill="none" stroke="midnightblue" d="M945.227,-424.985C912.127,-414.24 856.662,-396.236 819.706,-384.239"/>
<polygon fill="midnightblue" stroke="midnightblue" points="820.399,-380.785 809.807,-381.026 818.237,-387.443 820.399,-380.785"/>
</g>
<!-- Node30 -->
<g id="node30" class="node"><title>Node30</title>
<g id="a_node30"><a xlink:href="make__unique_8h.xhtml" target="_top" xlink:title="ePub3/utilities/make\l_unique.h">
<polygon fill="white" stroke="black" points="1147.25,-291 1147.25,-323 1252.75,-323 1252.75,-291 1147.25,-291"/>
<text text-anchor="start" x="1155.25" y="-309" font-family="Helvetica,sans-Serif" font-size="10.00">ePub3/utilities/make</text>
<text text-anchor="middle" x="1200" y="-297" font-family="Helvetica,sans-Serif" font-size="10.00">_unique.h</text>
</a>
</g>
</g>
<!-- Node29&#45;&gt;Node30 -->
<g id="edge39" class="edge"><title>Node29&#45;&gt;Node30</title>
<path fill="none" stroke="midnightblue" d="M989.325,-424.938C1025.69,-404.752 1114.09,-355.687 1164.05,-327.953"/>
<polygon fill="midnightblue" stroke="midnightblue" points="1165.87,-330.948 1172.91,-323.034 1162.47,-324.827 1165.87,-330.948"/>
</g>
<!-- Node33 -->
<g id="node33" class="node"><title>Node33</title>
<polygon fill="white" stroke="#bfbfbf" points="928.867,-361 928.867,-381 1017.13,-381 1017.13,-361 928.867,-361"/>
<text text-anchor="middle" x="973" y="-367" font-family="Helvetica,sans-Serif" font-size="10.00">google&#45;url/gurl.h</text>
</g>
<!-- Node29&#45;&gt;Node33 -->
<g id="edge45" class="edge"><title>Node29&#45;&gt;Node33</title>
<path fill="none" stroke="midnightblue" d="M973,-424.852C973,-416.06 973,-402.498 973,-391.313"/>
<polygon fill="midnightblue" stroke="midnightblue" points="976.5,-391.186 973,-381.186 969.5,-391.186 976.5,-391.186"/>
</g>
<!-- Node29&#45;&gt;Node11 -->
<g id="edge46" class="edge"><title>Node29&#45;&gt;Node11</title>
<path fill="none" stroke="midnightblue" d="M942.75,-424.994C933.859,-422.527 924.082,-419.988 915,-418 788.306,-390.271 422.998,-422.817 339,-324 324.642,-307.108 331.179,-280.383 338.211,-262.528"/>
<polygon fill="midnightblue" stroke="midnightblue" points="341.496,-263.749 342.254,-253.181 335.071,-260.97 341.496,-263.749"/>
</g>
<!-- Node30&#45;&gt;Node3 -->
<g id="edge40" class="edge"><title>Node30&#45;&gt;Node3</title>
<path fill="none" stroke="midnightblue" d="M1171.74,-290.964C1152.56,-280.691 1126.66,-266.691 1104,-254 1086.97,-244.463 1084.41,-238.466 1066,-232 979.868,-201.752 873.086,-191.386 812.024,-187.84"/>
<polygon fill="midnightblue" stroke="midnightblue" points="812.073,-184.337 801.898,-187.29 811.694,-191.327 812.073,-184.337"/>
</g>
<!-- Node31 -->
<g id="node31" class="node"><title>Node31</title>
<polygon fill="white" stroke="#bfbfbf" points="1248.88,-233 1248.88,-253 1297.12,-253 1297.12,-233 1248.88,-233"/>
<text text-anchor="middle" x="1273" y="-239" font-family="Helvetica,sans-Serif" font-size="10.00">cstddef</text>
</g>
<!-- Node30&#45;&gt;Node31 -->
<g id="edge41" class="edge"><title>Node30&#45;&gt;Node31</title>
<path fill="none" stroke="midnightblue" d="M1217.67,-290.992C1228.7,-281.624 1242.89,-269.575 1254.13,-260.022"/>
<polygon fill="midnightblue" stroke="midnightblue" points="1256.71,-262.432 1262.06,-253.29 1252.17,-257.096 1256.71,-262.432"/>
</g>
<!-- Node30&#45;&gt;Node10 -->
<g id="edge42" class="edge"><title>Node30&#45;&gt;Node10</title>
<path fill="none" stroke="midnightblue" d="M1251.4,-290.912C1270.97,-282.827 1291.91,-270.944 1306,-254 1317.37,-240.33 1321.95,-220.324 1323.79,-205.548"/>
<polygon fill="midnightblue" stroke="midnightblue" points="1327.29,-205.742 1324.73,-195.461 1320.32,-205.093 1327.29,-205.742"/>
</g>
<!-- Node30&#45;&gt;Node14 -->
<g id="edge43" class="edge"><title>Node30&#45;&gt;Node14</title>
<path fill="none" stroke="midnightblue" d="M1200,-290.992C1200,-282.726 1200,-272.373 1200,-263.489"/>
<polygon fill="midnightblue" stroke="midnightblue" points="1203.5,-263.29 1200,-253.29 1196.5,-263.29 1203.5,-263.29"/>
</g>
<!-- Node32 -->
<g id="node32" class="node"><title>Node32</title>
<polygon fill="white" stroke="#bfbfbf" points="1112.61,-233 1112.61,-253 1151.39,-253 1151.39,-233 1112.61,-233"/>
<text text-anchor="middle" x="1132" y="-239" font-family="Helvetica,sans-Serif" font-size="10.00">utility</text>
</g>
<!-- Node30&#45;&gt;Node32 -->
<g id="edge44" class="edge"><title>Node30&#45;&gt;Node32</title>
<path fill="none" stroke="midnightblue" d="M1183.54,-290.992C1173.37,-281.716 1160.31,-269.811 1149.88,-260.304"/>
<polygon fill="midnightblue" stroke="midnightblue" points="1151.94,-257.442 1142.19,-253.29 1147.22,-262.614 1151.94,-257.442"/>
</g>
<!-- Node34&#45;&gt;Node15 -->
<g id="edge48" class="edge"><title>Node34&#45;&gt;Node15</title>
<path fill="none" stroke="midnightblue" d="M839.603,-418.992C828.008,-409.533 813.06,-397.338 801.297,-387.742"/>
<polygon fill="midnightblue" stroke="midnightblue" points="803.349,-384.9 793.388,-381.29 798.924,-390.324 803.349,-384.9"/>
</g>
</g>
</svg>
