<?xml version="1.0" encoding="UTF-8" standalone="no"?>
<!DOCTYPE svg PUBLIC "-//W3C//DTD SVG 1.1//EN"
 "http://www.w3.org/Graphics/SVG/1.1/DTD/svg11.dtd">
<!-- Generated by graphviz version 2.30.0 (20130114.0426)
 -->
<!-- Title: /Users/rkwright/Documents/github/readium&#45;sdk&#45;D/ePub3/ePub/property.h Pages: 1 -->
<svg width="1574pt" height="542pt"
 viewBox="0.00 0.00 1573.71 542.00" xmlns="http://www.w3.org/2000/svg" xmlns:xlink="http://www.w3.org/1999/xlink">
<g id="graph0" class="graph" transform="scale(1 1) rotate(0) translate(4 538)">
<title>/Users/rkwright/Documents/github/readium&#45;sdk&#45;D/ePub3/ePub/property.h</title>
<polygon fill="white" stroke="white" points="-4,5 -4,-538 1570.71,-538 1570.71,5 -4,5"/>
<!-- Node1 -->
<g id="node1" class="node"><title>Node1</title>
<polygon fill="#bfbfbf" stroke="black" points="754.675,-489 754.675,-533 900.743,-533 900.743,-489 754.675,-489"/>
<text text-anchor="start" x="762.675" y="-519" font-family="Helvetica,sans-Serif" font-size="10.00">/Users/rkwright/Documents</text>
<text text-anchor="start" x="762.675" y="-507" font-family="Helvetica,sans-Serif" font-size="10.00">/github/readium&#45;sdk&#45;D/ePub3</text>
<text text-anchor="middle" x="827.709" y="-495" font-family="Helvetica,sans-Serif" font-size="10.00">/ePub/property.h</text>
</g>
<!-- Node2 -->
<g id="node2" class="node"><title>Node2</title>
<polygon fill="white" stroke="#bfbfbf" points="403.788,-425 403.788,-445 487.63,-445 487.63,-425 403.788,-425"/>
<text text-anchor="middle" x="445.709" y="-431" font-family="Helvetica,sans-Serif" font-size="10.00">ePub3/epub3.h</text>
</g>
<!-- Node1&#45;&gt;Node2 -->
<g id="edge1" class="edge"><title>Node1&#45;&gt;Node2</title>
<path fill="none" stroke="midnightblue" d="M754.446,-499.161C688.088,-488.823 587.823,-471.907 501.709,-452 496.291,-450.747 490.616,-449.295 485.045,-447.785"/>
<polygon fill="midnightblue" stroke="midnightblue" points="485.779,-444.356 475.206,-445.039 483.897,-451.099 485.779,-444.356"/>
</g>
<!-- Node3 -->
<g id="node3" class="node"><title>Node3</title>
<g id="a_node3"><a xlink:href="basic_8h.xhtml" target="_top" xlink:title="ePub3/utilities/basic.h">
<polygon fill="white" stroke="black" points="158.347,-297 158.347,-317 271.071,-317 271.071,-297 158.347,-297"/>
<text text-anchor="middle" x="214.709" y="-303" font-family="Helvetica,sans-Serif" font-size="10.00">ePub3/utilities/basic.h</text>
</a>
</g>
</g>
<!-- Node1&#45;&gt;Node3 -->
<g id="edge2" class="edge"><title>Node1&#45;&gt;Node3</title>
<path fill="none" stroke="midnightblue" d="M754.622,-500.632C689.506,-491.011 600.365,-474.301 572.709,-452 537.574,-423.668 565.957,-386.892 529.709,-360 439.554,-293.114 389.899,-345.442 279.709,-324 272.888,-322.673 265.707,-321.092 258.706,-319.45"/>
<polygon fill="midnightblue" stroke="midnightblue" points="259.183,-315.965 248.641,-317.021 257.541,-322.769 259.183,-315.965"/>
</g>
<!-- Node14 -->
<g id="node14" class="node"><title>Node14</title>
<g id="a_node14"><a xlink:href="owned__by_8h.xhtml" target="_top" xlink:title="ePub3/utilities/owned_by.h">
<polygon fill="white" stroke="black" points="6.59284,-297 6.59284,-317 140.825,-317 140.825,-297 6.59284,-297"/>
<text text-anchor="middle" x="73.7091" y="-303" font-family="Helvetica,sans-Serif" font-size="10.00">ePub3/utilities/owned_by.h</text>
</a>
</g>
</g>
<!-- Node1&#45;&gt;Node14 -->
<g id="edge13" class="edge"><title>Node1&#45;&gt;Node14</title>
<path fill="none" stroke="midnightblue" d="M754.48,-502.201C696.922,-494.331 615.58,-479.306 548.709,-452 522.8,-441.42 521.345,-429.224 495.709,-418 428.64,-388.635 222.048,-340.856 125.03,-319.246"/>
<polygon fill="midnightblue" stroke="midnightblue" points="125.674,-315.804 115.153,-317.052 124.156,-322.638 125.674,-315.804"/>
</g>
<!-- Node16 -->
<g id="node16" class="node"><title>Node16</title>
<g id="a_node16"><a xlink:href="iri_8h.xhtml" target="_top" xlink:title="ePub3/utilities/iri.h">
<polygon fill="white" stroke="black" points="875.133,-425 875.133,-445 972.285,-445 972.285,-425 875.133,-425"/>
<text text-anchor="middle" x="923.709" y="-431" font-family="Helvetica,sans-Serif" font-size="10.00">ePub3/utilities/iri.h</text>
</a>
</g>
</g>
<!-- Node1&#45;&gt;Node16 -->
<g id="edge16" class="edge"><title>Node1&#45;&gt;Node16</title>
<path fill="none" stroke="midnightblue" d="M854.962,-488.993C870.57,-476.961 889.802,-462.137 903.952,-451.23"/>
<polygon fill="midnightblue" stroke="midnightblue" points="906.244,-453.882 912.028,-445.004 901.971,-448.338 906.244,-453.882"/>
</g>
<!-- Node17 -->
<g id="node17" class="node"><title>Node17</title>
<g id="a_node17"><a xlink:href="utfstring_8h.xhtml" target="_top" xlink:title="ePub3/utilities/utfstring.h">
<polygon fill="white" stroke="black" points="676.234,-361 676.234,-381 801.184,-381 801.184,-361 676.234,-361"/>
<text text-anchor="middle" x="738.709" y="-367" font-family="Helvetica,sans-Serif" font-size="10.00">ePub3/utilities/utfstring.h</text>
</a>
</g>
</g>
<!-- Node1&#45;&gt;Node17 -->
<g id="edge47" class="edge"><title>Node1&#45;&gt;Node17</title>
<path fill="none" stroke="midnightblue" d="M827.836,-488.869C826.981,-468.986 823.094,-439.183 808.709,-418 799.284,-404.12 784.136,-393.408 770.338,-385.827"/>
<polygon fill="midnightblue" stroke="midnightblue" points="771.583,-382.532 761.088,-381.079 768.386,-388.759 771.583,-382.532"/>
</g>
<!-- Node35 -->
<g id="node35" class="node"><title>Node35</title>
<polygon fill="white" stroke="#bfbfbf" points="1310.17,-425 1310.17,-445 1451.25,-445 1451.25,-425 1310.17,-425"/>
<text text-anchor="middle" x="1380.71" y="-431" font-family="Helvetica,sans-Serif" font-size="10.00">ePub3/property_extension.h</text>
</g>
<!-- Node1&#45;&gt;Node35 -->
<g id="edge48" class="edge"><title>Node1&#45;&gt;Node35</title>
<path fill="none" stroke="midnightblue" d="M900.864,-502.372C993.137,-492.42 1156.57,-473.695 1295.71,-452 1305.29,-450.506 1315.44,-448.748 1325.27,-446.954"/>
<polygon fill="midnightblue" stroke="midnightblue" points="1326.17,-450.347 1335.36,-445.081 1324.89,-443.465 1326.17,-450.347"/>
</g>
<!-- Node36 -->
<g id="node36" class="node"><title>Node36</title>
<g id="a_node36"><a xlink:href="epub__locale_8h.xhtml" target="_top" xlink:title="ePub3/utilities/epub\l_locale.h">
<polygon fill="white" stroke="black" points="582.066,-419 582.066,-451 685.352,-451 685.352,-419 582.066,-419"/>
<text text-anchor="start" x="590.066" y="-437" font-family="Helvetica,sans-Serif" font-size="10.00">ePub3/utilities/epub</text>
<text text-anchor="middle" x="633.709" y="-425" font-family="Helvetica,sans-Serif" font-size="10.00">_locale.h</text>
</a>
</g>
</g>
<!-- Node1&#45;&gt;Node36 -->
<g id="edge49" class="edge"><title>Node1&#45;&gt;Node36</title>
<path fill="none" stroke="midnightblue" d="M772.635,-488.993C744.277,-478.175 709.998,-465.1 682.587,-454.644"/>
<polygon fill="midnightblue" stroke="midnightblue" points="683.789,-451.357 673.198,-451.063 681.294,-457.897 683.789,-451.357"/>
</g>
<!-- Node37 -->
<g id="node37" class="node"><title>Node37</title>
<g id="a_node37"><a xlink:href="xml__identifiable_8h.xhtml" target="_top" xlink:title="ePub3/utilities/xml\l_identifiable.h">
<polygon fill="white" stroke="black" points="703.414,-419 703.414,-451 800.004,-451 800.004,-419 703.414,-419"/>
<text text-anchor="start" x="711.414" y="-437" font-family="Helvetica,sans-Serif" font-size="10.00">ePub3/utilities/xml</text>
<text text-anchor="middle" x="751.709" y="-425" font-family="Helvetica,sans-Serif" font-size="10.00">_identifiable.h</text>
</a>
</g>
</g>
<!-- Node1&#45;&gt;Node37 -->
<g id="edge53" class="edge"><title>Node1&#45;&gt;Node37</title>
<path fill="none" stroke="midnightblue" d="M806.134,-488.993C796.342,-479.458 784.749,-468.17 774.783,-458.467"/>
<polygon fill="midnightblue" stroke="midnightblue" points="777.143,-455.88 767.537,-451.412 772.26,-460.895 777.143,-455.88"/>
</g>
<!-- Node38 -->
<g id="node38" class="node"><title>Node38</title>
<polygon fill="white" stroke="#bfbfbf" points="1469.4,-425 1469.4,-445 1566.01,-445 1566.01,-425 1469.4,-425"/>
<text text-anchor="middle" x="1517.71" y="-431" font-family="Helvetica,sans-Serif" font-size="10.00">ePub3/xml/node.h</text>
</g>
<!-- Node1&#45;&gt;Node38 -->
<g id="edge55" class="edge"><title>Node1&#45;&gt;Node38</title>
<path fill="none" stroke="midnightblue" d="M900.788,-507.507C1019.08,-502.532 1259.45,-488.512 1459.71,-452 1465.98,-450.857 1472.56,-449.349 1478.94,-447.716"/>
<polygon fill="midnightblue" stroke="midnightblue" points="1479.99,-451.059 1488.73,-445.08 1478.17,-444.299 1479.99,-451.059"/>
</g>
<!-- Node12 -->
<g id="node12" class="node"><title>Node12</title>
<polygon fill="white" stroke="#bfbfbf" points="1176.09,-233 1176.09,-253 1219.32,-253 1219.32,-233 1176.09,-233"/>
<text text-anchor="middle" x="1197.71" y="-239" font-family="Helvetica,sans-Serif" font-size="10.00">vector</text>
</g>
<!-- Node1&#45;&gt;Node12 -->
<g id="edge56" class="edge"><title>Node1&#45;&gt;Node12</title>
<path fill="none" stroke="midnightblue" d="M901.099,-502.317C999.754,-487.482 1170.72,-444.791 1239.71,-324 1247.2,-310.878 1245.17,-304.089 1239.71,-290 1235.16,-278.267 1226.07,-267.695 1217.5,-259.654"/>
<polygon fill="midnightblue" stroke="midnightblue" points="1219.76,-256.977 1209.93,-253.019 1215.14,-262.242 1219.76,-256.977"/>
</g>
<!-- Node28 -->
<g id="node28" class="node"><title>Node28</title>
<polygon fill="white" stroke="#bfbfbf" points="1179.98,-297 1179.98,-317 1215.44,-317 1215.44,-297 1179.98,-297"/>
<text text-anchor="middle" x="1197.71" y="-303" font-family="Helvetica,sans-Serif" font-size="10.00">map</text>
</g>
<!-- Node1&#45;&gt;Node28 -->
<g id="edge57" class="edge"><title>Node1&#45;&gt;Node28</title>
<path fill="none" stroke="midnightblue" d="M892.735,-488.978C920.457,-479.096 952.782,-466.331 980.709,-452 1057.8,-412.442 1141.07,-351.415 1178.07,-323.229"/>
<polygon fill="midnightblue" stroke="midnightblue" points="1180.25,-325.973 1186.05,-317.111 1175.99,-320.418 1180.25,-325.973"/>
</g>
<!-- Node4 -->
<g id="node4" class="node"><title>Node4</title>
<g id="a_node4"><a xlink:href="base_8h.xhtml" target="_top" xlink:title="ePub3/base.h">
<polygon fill="white" stroke="black" points="623.85,-175 623.85,-195 701.568,-195 701.568,-175 623.85,-175"/>
<text text-anchor="middle" x="662.709" y="-181" font-family="Helvetica,sans-Serif" font-size="10.00">ePub3/base.h</text>
</a>
</g>
</g>
<!-- Node3&#45;&gt;Node4 -->
<g id="edge3" class="edge"><title>Node3&#45;&gt;Node4</title>
<path fill="none" stroke="midnightblue" d="M228.165,-296.955C256.289,-278.118 319.613,-236.085 330.709,-232 426.73,-196.649 547.482,-188.159 613.686,-186.308"/>
<polygon fill="midnightblue" stroke="midnightblue" points="613.918,-189.803 623.831,-186.065 613.75,-182.805 613.918,-189.803"/>
</g>
<!-- Node9 -->
<g id="node9" class="node"><title>Node9</title>
<polygon fill="white" stroke="#bfbfbf" points="169.524,-233 169.524,-253 283.894,-253 283.894,-233 169.524,-233"/>
<text text-anchor="middle" x="226.709" y="-239" font-family="Helvetica,sans-Serif" font-size="10.00">ePub3/xml/xmlstring.h</text>
</g>
<!-- Node3&#45;&gt;Node9 -->
<g id="edge8" class="edge"><title>Node3&#45;&gt;Node9</title>
<path fill="none" stroke="midnightblue" d="M216.48,-296.852C218.181,-288.06 220.806,-274.498 222.971,-263.313"/>
<polygon fill="midnightblue" stroke="midnightblue" points="226.467,-263.669 224.931,-253.186 219.595,-262.339 226.467,-263.669"/>
</g>
<!-- Node10 -->
<g id="node10" class="node"><title>Node10</title>
<polygon fill="white" stroke="#bfbfbf" points="14.9283,-233 14.9283,-253 66.4898,-253 66.4898,-233 14.9283,-233"/>
<text text-anchor="middle" x="40.7091" y="-239" font-family="Helvetica,sans-Serif" font-size="10.00">sstream</text>
</g>
<!-- Node3&#45;&gt;Node10 -->
<g id="edge9" class="edge"><title>Node3&#45;&gt;Node10</title>
<path fill="none" stroke="midnightblue" d="M189.408,-296.985C159.383,-286.286 109.157,-268.39 75.4911,-256.394"/>
<polygon fill="midnightblue" stroke="midnightblue" points="76.6354,-253.086 66.0407,-253.026 74.2858,-259.68 76.6354,-253.086"/>
</g>
<!-- Node11 -->
<g id="node11" class="node"><title>Node11</title>
<polygon fill="white" stroke="#bfbfbf" points="299.652,-175 299.652,-195 351.766,-195 351.766,-175 299.652,-175"/>
<text text-anchor="middle" x="325.709" y="-181" font-family="Helvetica,sans-Serif" font-size="10.00">memory</text>
</g>
<!-- Node3&#45;&gt;Node11 -->
<g id="edge10" class="edge"><title>Node3&#45;&gt;Node11</title>
<path fill="none" stroke="midnightblue" d="M199.393,-296.804C177.882,-282.729 143.204,-255.053 160.709,-232 176.235,-211.554 245.873,-197.763 289.569,-190.951"/>
<polygon fill="midnightblue" stroke="midnightblue" points="290.171,-194.4 299.537,-189.447 289.127,-187.478 290.171,-194.4"/>
</g>
<!-- Node3&#45;&gt;Node12 -->
<g id="edge11" class="edge"><title>Node3&#45;&gt;Node12</title>
<path fill="none" stroke="midnightblue" d="M245.87,-296.997C256.515,-294.279 268.55,-291.596 279.709,-290 650.501,-236.975 748.554,-286.463 1121.71,-254 1136.15,-252.744 1152.05,-250.747 1165.56,-248.867"/>
<polygon fill="midnightblue" stroke="midnightblue" points="1166.41,-252.282 1175.81,-247.401 1165.42,-245.352 1166.41,-252.282"/>
</g>
<!-- Node13 -->
<g id="node13" class="node"><title>Node13</title>
<polygon fill="white" stroke="#bfbfbf" points="84.2091,-233 84.2091,-253 113.209,-253 113.209,-233 84.2091,-233"/>
<text text-anchor="middle" x="98.3199" y="-239" font-family="Helvetica,sans-Serif" font-size="10.00">list</text>
</g>
<!-- Node3&#45;&gt;Node13 -->
<g id="edge12" class="edge"><title>Node3&#45;&gt;Node13</title>
<path fill="none" stroke="midnightblue" d="M197.593,-296.852C177.631,-286.182 144.522,-268.486 122.173,-256.541"/>
<polygon fill="midnightblue" stroke="midnightblue" points="123.793,-253.438 113.323,-251.811 120.493,-259.612 123.793,-253.438"/>
</g>
<!-- Node5 -->
<g id="node5" class="node"><title>Node5</title>
<g id="a_node5"><a xlink:href="__config_8h.xhtml" target="_top" xlink:title="_config.h">
<polygon fill="white" stroke="black" points="599.416,-117 599.416,-137 656.002,-137 656.002,-117 599.416,-117"/>
<text text-anchor="middle" x="627.709" y="-123" font-family="Helvetica,sans-Serif" font-size="10.00">_config.h</text>
</a>
</g>
</g>
<!-- Node4&#45;&gt;Node5 -->
<g id="edge4" class="edge"><title>Node4&#45;&gt;Node5</title>
<path fill="none" stroke="midnightblue" d="M656.93,-174.753C651.986,-166.843 644.732,-155.237 638.689,-145.568"/>
<polygon fill="midnightblue" stroke="midnightblue" points="641.649,-143.7 633.381,-137.075 635.713,-147.41 641.649,-143.7"/>
</g>
<!-- Node8 -->
<g id="node8" class="node"><title>Node8</title>
<polygon fill="white" stroke="#bfbfbf" points="673.867,-117 673.867,-137 721.551,-137 721.551,-117 673.867,-117"/>
<text text-anchor="middle" x="697.709" y="-123" font-family="Helvetica,sans-Serif" font-size="10.00">stdlib.h</text>
</g>
<!-- Node4&#45;&gt;Node8 -->
<g id="edge7" class="edge"><title>Node4&#45;&gt;Node8</title>
<path fill="none" stroke="midnightblue" d="M668.489,-174.753C673.432,-166.843 680.686,-155.237 686.729,-145.568"/>
<polygon fill="midnightblue" stroke="midnightblue" points="689.705,-147.41 692.037,-137.075 683.769,-143.7 689.705,-147.41"/>
</g>
<!-- Node6 -->
<g id="node6" class="node"><title>Node6</title>
<g id="a_node6"><a xlink:href="__platform_8h.xhtml" target="_top" xlink:title="_platform.h">
<polygon fill="white" stroke="black" points="594.697,-59 594.697,-79 660.721,-79 660.721,-59 594.697,-59"/>
<text text-anchor="middle" x="627.709" y="-65" font-family="Helvetica,sans-Serif" font-size="10.00">_platform.h</text>
</a>
</g>
</g>
<!-- Node5&#45;&gt;Node6 -->
<g id="edge5" class="edge"><title>Node5&#45;&gt;Node6</title>
<path fill="none" stroke="midnightblue" d="M627.709,-116.753C627.709,-109.25 627.709,-98.4238 627.709,-89.0781"/>
<polygon fill="midnightblue" stroke="midnightblue" points="631.209,-89.0752 627.709,-79.0752 624.209,-89.0752 631.209,-89.0752"/>
</g>
<!-- Node7 -->
<g id="node7" class="node"><title>Node7</title>
<g id="a_node7"><a xlink:href="__compiler_8h.xhtml" target="_top" xlink:title="_compiler.h">
<polygon fill="white" stroke="black" points="594.138,-1 594.138,-21 661.28,-21 661.28,-1 594.138,-1"/>
<text text-anchor="middle" x="627.709" y="-7" font-family="Helvetica,sans-Serif" font-size="10.00">_compiler.h</text>
</a>
</g>
</g>
<!-- Node6&#45;&gt;Node7 -->
<g id="edge6" class="edge"><title>Node6&#45;&gt;Node7</title>
<path fill="none" stroke="midnightblue" d="M627.709,-58.7527C627.709,-51.2504 627.709,-40.4238 627.709,-31.0781"/>
<polygon fill="midnightblue" stroke="midnightblue" points="631.209,-31.0752 627.709,-21.0752 624.209,-31.0752 631.209,-31.0752"/>
</g>
<!-- Node14&#45;&gt;Node11 -->
<g id="edge14" class="edge"><title>Node14&#45;&gt;Node11</title>
<path fill="none" stroke="midnightblue" d="M54.2942,-296.813C27.584,-282.976 -14.972,-255.867 5.70905,-232 42.0862,-190.02 213.519,-185.457 289.409,-185.547"/>
<polygon fill="midnightblue" stroke="midnightblue" points="289.445,-189.047 299.459,-185.587 289.473,-182.047 289.445,-189.047"/>
</g>
<!-- Node15 -->
<g id="node15" class="node"><title>Node15</title>
<polygon fill="white" stroke="#bfbfbf" points="395.643,-233 395.643,-253 457.775,-253 457.775,-233 395.643,-233"/>
<text text-anchor="middle" x="426.709" y="-239" font-family="Helvetica,sans-Serif" font-size="10.00">type_traits</text>
</g>
<!-- Node14&#45;&gt;Node15 -->
<g id="edge15" class="edge"><title>Node14&#45;&gt;Node15</title>
<path fill="none" stroke="midnightblue" d="M114.646,-296.937C125.978,-294.55 138.299,-292.066 149.709,-290 251.372,-271.593 280.498,-274.727 385.289,-254.141"/>
<polygon fill="midnightblue" stroke="midnightblue" points="386.205,-257.527 395.329,-252.142 384.839,-250.662 386.205,-257.527"/>
</g>
<!-- Node16&#45;&gt;Node17 -->
<g id="edge17" class="edge"><title>Node16&#45;&gt;Node17</title>
<path fill="none" stroke="midnightblue" d="M896.808,-424.985C864.748,-414.24 811.026,-396.236 775.23,-384.239"/>
<polygon fill="midnightblue" stroke="midnightblue" points="776.236,-380.885 765.642,-381.026 774.012,-387.523 776.236,-380.885"/>
</g>
<!-- Node31 -->
<g id="node31" class="node"><title>Node31</title>
<g id="a_node31"><a xlink:href="make__unique_8h.xhtml" target="_top" xlink:title="ePub3/utilities/make\l_unique.h">
<polygon fill="white" stroke="black" points="1017.96,-291 1017.96,-323 1123.46,-323 1123.46,-291 1017.96,-291"/>
<text text-anchor="start" x="1025.96" y="-309" font-family="Helvetica,sans-Serif" font-size="10.00">ePub3/utilities/make</text>
<text text-anchor="middle" x="1070.71" y="-297" font-family="Helvetica,sans-Serif" font-size="10.00">_unique.h</text>
</a>
</g>
</g>
<!-- Node16&#45;&gt;Node31 -->
<g id="edge39" class="edge"><title>Node16&#45;&gt;Node31</title>
<path fill="none" stroke="midnightblue" d="M934.281,-424.938C957.343,-405.171 1012.71,-357.711 1045.39,-329.706"/>
<polygon fill="midnightblue" stroke="midnightblue" points="1047.85,-332.2 1053.17,-323.034 1043.3,-326.885 1047.85,-332.2"/>
</g>
<!-- Node34 -->
<g id="node34" class="node"><title>Node34</title>
<polygon fill="white" stroke="#bfbfbf" points="879.576,-361 879.576,-381 967.842,-381 967.842,-361 879.576,-361"/>
<text text-anchor="middle" x="923.709" y="-367" font-family="Helvetica,sans-Serif" font-size="10.00">google&#45;url/gurl.h</text>
</g>
<!-- Node16&#45;&gt;Node34 -->
<g id="edge45" class="edge"><title>Node16&#45;&gt;Node34</title>
<path fill="none" stroke="midnightblue" d="M923.709,-424.852C923.709,-416.06 923.709,-402.498 923.709,-391.313"/>
<polygon fill="midnightblue" stroke="midnightblue" points="927.209,-391.186 923.709,-381.186 920.209,-391.186 927.209,-391.186"/>
</g>
<!-- Node16&#45;&gt;Node12 -->
<g id="edge46" class="edge"><title>Node16&#45;&gt;Node12</title>
<path fill="none" stroke="midnightblue" d="M972.502,-432.295C1041.79,-426.93 1166.61,-405.749 1223.71,-324 1237.1,-304.832 1223.57,-278.352 1211.56,-261.201"/>
<polygon fill="midnightblue" stroke="midnightblue" points="1214.35,-259.091 1205.57,-253.17 1208.74,-263.278 1214.35,-259.091"/>
</g>
<!-- Node17&#45;&gt;Node3 -->
<g id="edge18" class="edge"><title>Node17&#45;&gt;Node3</title>
<path fill="none" stroke="midnightblue" d="M676.172,-364.837C568.931,-355.799 354.292,-336.85 279.709,-324 272.465,-322.752 264.833,-321.144 257.446,-319.43"/>
<polygon fill="midnightblue" stroke="midnightblue" points="258.128,-315.994 247.586,-317.051 256.486,-322.799 258.128,-315.994"/>
</g>
<!-- Node18 -->
<g id="node18" class="node"><title>Node18</title>
<g id="a_node18"><a xlink:href="integer__sequence_8h.xhtml" target="_top" xlink:title="ePub3/utilities/integer\l_sequence.h">
<polygon fill="white" stroke="black" points="548.901,-291 548.901,-323 660.517,-323 660.517,-291 548.901,-291"/>
<text text-anchor="start" x="556.901" y="-309" font-family="Helvetica,sans-Serif" font-size="10.00">ePub3/utilities/integer</text>
<text text-anchor="middle" x="604.709" y="-297" font-family="Helvetica,sans-Serif" font-size="10.00">_sequence.h</text>
</a>
</g>
</g>
<!-- Node17&#45;&gt;Node18 -->
<g id="edge19" class="edge"><title>Node17&#45;&gt;Node18</title>
<path fill="none" stroke="midnightblue" d="M719.224,-360.985C700.256,-352.208 670.821,-338.589 646.543,-327.356"/>
<polygon fill="midnightblue" stroke="midnightblue" points="647.729,-324.049 637.184,-323.026 644.79,-330.401 647.729,-324.049"/>
</g>
<!-- Node19 -->
<g id="node19" class="node"><title>Node19</title>
<g id="a_node19"><a xlink:href="string__view_8h.xhtml" target="_top" xlink:title="ePub3/utilities/string\l_view.h">
<polygon fill="white" stroke="black" points="386.963,-291 386.963,-323 492.455,-323 492.455,-291 386.963,-291"/>
<text text-anchor="start" x="394.963" y="-309" font-family="Helvetica,sans-Serif" font-size="10.00">ePub3/utilities/string</text>
<text text-anchor="middle" x="439.709" y="-297" font-family="Helvetica,sans-Serif" font-size="10.00">_view.h</text>
</a>
</g>
</g>
<!-- Node17&#45;&gt;Node19 -->
<g id="edge21" class="edge"><title>Node17&#45;&gt;Node19</title>
<path fill="none" stroke="midnightblue" d="M690.162,-360.941C643.145,-352.033 569.891,-337.803 506.709,-324 505.428,-323.72 504.133,-323.435 502.828,-323.145"/>
<polygon fill="midnightblue" stroke="midnightblue" points="503.222,-319.646 492.696,-320.853 501.678,-326.473 503.222,-319.646"/>
</g>
<!-- Node20 -->
<g id="node20" class="node"><title>Node20</title>
<polygon fill="white" stroke="#bfbfbf" points="709.482,-233 709.482,-253 749.936,-253 749.936,-233 709.482,-233"/>
<text text-anchor="middle" x="729.709" y="-239" font-family="Helvetica,sans-Serif" font-size="10.00">string</text>
</g>
<!-- Node17&#45;&gt;Node20 -->
<g id="edge30" class="edge"><title>Node17&#45;&gt;Node20</title>
<path fill="none" stroke="midnightblue" d="M676.188,-363.964C624.377,-357.516 556.593,-345.232 539.709,-324 530.304,-312.173 530.269,-301.8 539.709,-290 585.242,-233.083 629.491,-273.549 699.709,-254 699.808,-253.972 699.908,-253.945 700.007,-253.917"/>
<polygon fill="midnightblue" stroke="midnightblue" points="700.903,-257.302 709.461,-251.056 698.876,-250.602 700.903,-257.302"/>
</g>
<!-- Node25 -->
<g id="node25" class="node"><title>Node25</title>
<polygon fill="white" stroke="#bfbfbf" points="678.148,-297 678.148,-317 725.271,-317 725.271,-297 678.148,-297"/>
<text text-anchor="middle" x="701.709" y="-303" font-family="Helvetica,sans-Serif" font-size="10.00">iterator</text>
</g>
<!-- Node17&#45;&gt;Node25 -->
<g id="edge31" class="edge"><title>Node17&#45;&gt;Node25</title>
<path fill="none" stroke="midnightblue" d="M733.25,-360.852C727.784,-351.694 719.23,-337.359 712.408,-325.928"/>
<polygon fill="midnightblue" stroke="midnightblue" points="715.321,-323.979 707.191,-317.186 709.31,-327.567 715.321,-323.979"/>
</g>
<!-- Node26 -->
<g id="node26" class="node"><title>Node26</title>
<polygon fill="white" stroke="#bfbfbf" points="288.645,-297 288.645,-317 330.773,-317 330.773,-297 288.645,-297"/>
<text text-anchor="middle" x="309.709" y="-303" font-family="Helvetica,sans-Serif" font-size="10.00">locale</text>
</g>
<!-- Node17&#45;&gt;Node26 -->
<g id="edge32" class="edge"><title>Node17&#45;&gt;Node26</title>
<path fill="none" stroke="midnightblue" d="M675.943,-363.189C568.763,-351.487 360.42,-328.39 344.709,-324 341.874,-323.208 338.978,-322.214 336.126,-321.112"/>
<polygon fill="midnightblue" stroke="midnightblue" points="337.321,-317.816 326.751,-317.082 334.556,-324.247 337.321,-317.816"/>
</g>
<!-- Node17&#45;&gt;Node12 -->
<g id="edge33" class="edge"><title>Node17&#45;&gt;Node12</title>
<path fill="none" stroke="midnightblue" d="M801.576,-365.223C905.227,-356.966 1103.39,-339.423 1131.71,-324 1157.7,-309.845 1177.52,-280.892 1188.38,-261.976"/>
<polygon fill="midnightblue" stroke="midnightblue" points="1191.49,-263.582 1193.23,-253.13 1185.35,-260.217 1191.49,-263.582"/>
</g>
<!-- Node27 -->
<g id="node27" class="node"><title>Node27</title>
<polygon fill="white" stroke="#bfbfbf" points="743.475,-297 743.475,-317 843.943,-317 843.943,-297 743.475,-297"/>
<text text-anchor="middle" x="793.709" y="-303" font-family="Helvetica,sans-Serif" font-size="10.00">REGEX_INCLUDE</text>
</g>
<!-- Node17&#45;&gt;Node27 -->
<g id="edge34" class="edge"><title>Node17&#45;&gt;Node27</title>
<path fill="none" stroke="midnightblue" d="M746.824,-360.852C755.192,-351.419 768.432,-336.495 778.711,-324.907"/>
<polygon fill="midnightblue" stroke="midnightblue" points="781.542,-326.989 785.56,-317.186 776.306,-322.344 781.542,-326.989"/>
</g>
<!-- Node17&#45;&gt;Node28 -->
<g id="edge35" class="edge"><title>Node17&#45;&gt;Node28</title>
<path fill="none" stroke="midnightblue" d="M801.573,-364.471C911.824,-354.59 1131.64,-334 1165.71,-324 1168.16,-323.281 1170.65,-322.379 1173.1,-321.374"/>
<polygon fill="midnightblue" stroke="midnightblue" points="1174.62,-324.527 1182.21,-317.137 1171.67,-318.179 1174.62,-324.527"/>
</g>
<!-- Node29 -->
<g id="node29" class="node"><title>Node29</title>
<polygon fill="white" stroke="#bfbfbf" points="862.308,-297 862.308,-317 921.11,-317 921.11,-297 862.308,-297"/>
<text text-anchor="middle" x="891.709" y="-303" font-family="Helvetica,sans-Serif" font-size="10.00">stdexcept</text>
</g>
<!-- Node17&#45;&gt;Node29 -->
<g id="edge36" class="edge"><title>Node17&#45;&gt;Node29</title>
<path fill="none" stroke="midnightblue" d="M761.436,-360.875C784.456,-351.621 821.08,-336.869 852.709,-324 855.082,-323.035 857.534,-322.034 860.001,-321.026"/>
<polygon fill="midnightblue" stroke="midnightblue" points="861.516,-324.188 869.444,-317.16 858.864,-317.71 861.516,-324.188"/>
</g>
<!-- Node21 -->
<g id="node21" class="node"><title>Node21</title>
<polygon fill="white" stroke="#bfbfbf" points="339.322,-233 339.322,-253 378.096,-253 378.096,-233 339.322,-233"/>
<text text-anchor="middle" x="358.709" y="-239" font-family="Helvetica,sans-Serif" font-size="10.00">limits</text>
</g>
<!-- Node17&#45;&gt;Node21 -->
<g id="edge37" class="edge"><title>Node17&#45;&gt;Node21</title>
<path fill="none" stroke="midnightblue" d="M676.16,-363.887C575.753,-353.813 388.678,-333.859 377.709,-324 360.828,-308.827 357.587,-281.641 357.555,-263.218"/>
<polygon fill="midnightblue" stroke="midnightblue" points="361.058,-263.164 357.856,-253.065 354.061,-262.956 361.058,-263.164"/>
</g>
<!-- Node30 -->
<g id="node30" class="node"><title>Node30</title>
<polygon fill="white" stroke="#bfbfbf" points="939.47,-297 939.47,-317 999.948,-317 999.948,-297 939.47,-297"/>
<text text-anchor="middle" x="969.709" y="-303" font-family="Helvetica,sans-Serif" font-size="10.00">utf8/utf8.h</text>
</g>
<!-- Node17&#45;&gt;Node30 -->
<g id="edge38" class="edge"><title>Node17&#45;&gt;Node30</title>
<path fill="none" stroke="midnightblue" d="M784.368,-360.941C823.384,-352.741 880.799,-339.582 929.709,-324 932.845,-323.001 936.084,-321.873 939.299,-320.689"/>
<polygon fill="midnightblue" stroke="midnightblue" points="940.672,-323.911 948.742,-317.047 938.152,-317.38 940.672,-323.911"/>
</g>
<!-- Node18&#45;&gt;Node4 -->
<g id="edge20" class="edge"><title>Node18&#45;&gt;Node4</title>
<path fill="none" stroke="midnightblue" d="M659.298,-290.938C701.072,-278.863 752.559,-262.568 758.709,-254 776.703,-228.932 740.02,-209.768 706.931,-198.27"/>
<polygon fill="midnightblue" stroke="midnightblue" points="707.886,-194.9 697.293,-195.092 705.693,-201.548 707.886,-194.9"/>
</g>
<!-- Node19&#45;&gt;Node15 -->
<g id="edge22" class="edge"><title>Node19&#45;&gt;Node15</title>
<path fill="none" stroke="midnightblue" d="M436.562,-290.992C434.81,-282.635 432.61,-272.142 430.733,-263.194"/>
<polygon fill="midnightblue" stroke="midnightblue" points="434.135,-262.359 428.657,-253.29 427.284,-263.796 434.135,-262.359"/>
</g>
<!-- Node19&#45;&gt;Node20 -->
<g id="edge23" class="edge"><title>Node19&#45;&gt;Node20</title>
<path fill="none" stroke="midnightblue" d="M492.684,-293.091C497.42,-292.015 502.147,-290.97 506.709,-290 588.976,-272.516 613.476,-275.589 699.252,-253.817"/>
<polygon fill="midnightblue" stroke="midnightblue" points="700.354,-257.148 709.163,-251.262 698.606,-250.37 700.354,-257.148"/>
</g>
<!-- Node19&#45;&gt;Node21 -->
<g id="edge24" class="edge"><title>Node19&#45;&gt;Node21</title>
<path fill="none" stroke="midnightblue" d="M420.101,-290.992C407.624,-281.441 391.502,-269.101 378.911,-259.463"/>
<polygon fill="midnightblue" stroke="midnightblue" points="380.915,-256.589 370.847,-253.29 376.66,-262.148 380.915,-256.589"/>
</g>
<!-- Node22 -->
<g id="node22" class="node"><title>Node22</title>
<polygon fill="white" stroke="#bfbfbf" points="561.537,-233 561.537,-253 615.881,-253 615.881,-233 561.537,-233"/>
<text text-anchor="middle" x="588.709" y="-239" font-family="Helvetica,sans-Serif" font-size="10.00">iostream</text>
</g>
<!-- Node19&#45;&gt;Node22 -->
<g id="edge25" class="edge"><title>Node19&#45;&gt;Node22</title>
<path fill="none" stroke="midnightblue" d="M475.778,-290.992C500.758,-280.597 533.676,-266.899 557.523,-256.977"/>
<polygon fill="midnightblue" stroke="midnightblue" points="558.931,-260.182 566.819,-253.109 556.241,-253.719 558.931,-260.182"/>
</g>
<!-- Node23 -->
<g id="node23" class="node"><title>Node23</title>
<polygon fill="white" stroke="#bfbfbf" points="634.145,-233 634.145,-253 691.273,-253 691.273,-233 634.145,-233"/>
<text text-anchor="middle" x="662.709" y="-239" font-family="Helvetica,sans-Serif" font-size="10.00">algorithm</text>
</g>
<!-- Node19&#45;&gt;Node23 -->
<g id="edge26" class="edge"><title>Node19&#45;&gt;Node23</title>
<path fill="none" stroke="midnightblue" d="M492.557,-291.307C533.056,-280.047 587.986,-264.775 624.347,-254.666"/>
<polygon fill="midnightblue" stroke="midnightblue" points="625.386,-258.01 634.083,-251.959 623.511,-251.265 625.386,-258.01"/>
</g>
<!-- Node24 -->
<g id="node24" class="node"><title>Node24</title>
<g id="a_node24"><a xlink:href="____strhash_8h.xhtml" target="_top" xlink:title="__strhash.h">
<polygon fill="white" stroke="black" points="475.581,-233 475.581,-253 543.837,-253 543.837,-233 475.581,-233"/>
<text text-anchor="middle" x="509.709" y="-239" font-family="Helvetica,sans-Serif" font-size="10.00">__strhash.h</text>
</a>
</g>
</g>
<!-- Node19&#45;&gt;Node24 -->
<g id="edge27" class="edge"><title>Node19&#45;&gt;Node24</title>
<path fill="none" stroke="midnightblue" d="M456.654,-290.992C467.23,-281.624 480.834,-269.575 491.619,-260.022"/>
<polygon fill="midnightblue" stroke="midnightblue" points="494.055,-262.541 499.22,-253.29 489.413,-257.301 494.055,-262.541"/>
</g>
<!-- Node24&#45;&gt;Node4 -->
<g id="edge28" class="edge"><title>Node24&#45;&gt;Node4</title>
<path fill="none" stroke="midnightblue" d="M534.632,-232.878C560.158,-223.535 600.025,-208.943 628.497,-198.522"/>
<polygon fill="midnightblue" stroke="midnightblue" points="629.863,-201.749 638.051,-195.025 627.457,-195.176 629.863,-201.749"/>
</g>
<!-- Node24&#45;&gt;Node11 -->
<g id="edge29" class="edge"><title>Node24&#45;&gt;Node11</title>
<path fill="none" stroke="midnightblue" d="M479.737,-232.878C447.39,-223.033 395.895,-207.361 361.46,-196.881"/>
<polygon fill="midnightblue" stroke="midnightblue" points="362.382,-193.503 351.796,-193.94 360.344,-200.2 362.382,-193.503"/>
</g>
<!-- Node31&#45;&gt;Node4 -->
<g id="edge40" class="edge"><title>Node31&#45;&gt;Node4</title>
<path fill="none" stroke="midnightblue" d="M1066.44,-290.973C1060.68,-273.673 1048.65,-245.864 1027.71,-232 976.92,-198.369 799.178,-189.317 711.865,-186.887"/>
<polygon fill="midnightblue" stroke="midnightblue" points="711.768,-183.384 701.68,-186.623 711.586,-190.381 711.768,-183.384"/>
</g>
<!-- Node32 -->
<g id="node32" class="node"><title>Node32</title>
<polygon fill="white" stroke="#bfbfbf" points="970.588,-233 970.588,-253 1018.83,-253 1018.83,-233 970.588,-233"/>
<text text-anchor="middle" x="994.709" y="-239" font-family="Helvetica,sans-Serif" font-size="10.00">cstddef</text>
</g>
<!-- Node31&#45;&gt;Node32 -->
<g id="edge41" class="edge"><title>Node31&#45;&gt;Node32</title>
<path fill="none" stroke="midnightblue" d="M1052.31,-290.992C1040.72,-281.533 1025.77,-269.338 1014.01,-259.742"/>
<polygon fill="midnightblue" stroke="midnightblue" points="1016.06,-256.9 1006.1,-253.29 1011.63,-262.324 1016.06,-256.9"/>
</g>
<!-- Node31&#45;&gt;Node11 -->
<g id="edge42" class="edge"><title>Node31&#45;&gt;Node11</title>
<path fill="none" stroke="midnightblue" d="M1017.63,-292.211C1014.61,-291.456 1011.62,-290.714 1008.71,-290 897.923,-262.858 871.186,-250.949 758.709,-232 613.053,-207.461 437.498,-193.584 362.536,-188.388"/>
<polygon fill="midnightblue" stroke="midnightblue" points="362.437,-184.873 352.221,-187.684 361.96,-191.857 362.437,-184.873"/>
</g>
<!-- Node31&#45;&gt;Node15 -->
<g id="edge43" class="edge"><title>Node31&#45;&gt;Node15</title>
<path fill="none" stroke="midnightblue" d="M1017.75,-291.64C1014.7,-291.031 1011.67,-290.477 1008.71,-290 773.61,-252.195 707.024,-290.353 468.08,-253.953"/>
<polygon fill="midnightblue" stroke="midnightblue" points="468.462,-250.47 458.043,-252.396 467.388,-257.388 468.462,-250.47"/>
</g>
<!-- Node33 -->
<g id="node33" class="node"><title>Node33</title>
<polygon fill="white" stroke="#bfbfbf" points="1074.32,-233 1074.32,-253 1113.1,-253 1113.1,-233 1074.32,-233"/>
<text text-anchor="middle" x="1093.71" y="-239" font-family="Helvetica,sans-Serif" font-size="10.00">utility</text>
</g>
<!-- Node31&#45;&gt;Node33 -->
<g id="edge44" class="edge"><title>Node31&#45;&gt;Node33</title>
<path fill="none" stroke="midnightblue" d="M1076.28,-290.992C1079.41,-282.543 1083.35,-271.912 1086.7,-262.899"/>
<polygon fill="midnightblue" stroke="midnightblue" points="1090.07,-263.883 1090.26,-253.29 1083.5,-261.449 1090.07,-263.883"/>
</g>
<!-- Node36&#45;&gt;Node3 -->
<g id="edge50" class="edge"><title>Node36&#45;&gt;Node3</title>
<path fill="none" stroke="midnightblue" d="M624.947,-418.855C613.98,-401.441 593.468,-373.523 567.709,-360 453.494,-300.042 406.555,-347.456 279.709,-324 272.799,-322.722 265.526,-321.155 258.449,-319.507"/>
<polygon fill="midnightblue" stroke="midnightblue" points="258.824,-315.998 248.283,-317.059 257.185,-322.803 258.824,-315.998"/>
</g>
<!-- Node36&#45;&gt;Node17 -->
<g id="edge51" class="edge"><title>Node36&#45;&gt;Node17</title>
<path fill="none" stroke="midnightblue" d="M659.127,-418.992C675.869,-409.105 697.673,-396.231 714.223,-386.458"/>
<polygon fill="midnightblue" stroke="midnightblue" points="716.452,-389.207 723.283,-381.109 712.892,-383.18 716.452,-389.207"/>
</g>
<!-- Node36&#45;&gt;Node26 -->
<g id="edge52" class="edge"><title>Node36&#45;&gt;Node26</title>
<path fill="none" stroke="midnightblue" d="M632.671,-418.892C630.631,-401.786 624.592,-374.424 606.709,-360 515.222,-286.207 457.583,-356.783 344.709,-324 341.882,-323.179 338.991,-322.166 336.142,-321.053"/>
<polygon fill="midnightblue" stroke="midnightblue" points="337.34,-317.758 326.772,-317.008 334.566,-324.185 337.34,-317.758"/>
</g>
<!-- Node37&#45;&gt;Node17 -->
<g id="edge54" class="edge"><title>Node37&#45;&gt;Node17</title>
<path fill="none" stroke="midnightblue" d="M748.562,-418.992C746.81,-410.635 744.61,-400.142 742.733,-391.194"/>
<polygon fill="midnightblue" stroke="midnightblue" points="746.135,-390.359 740.657,-381.29 739.284,-391.796 746.135,-390.359"/>
</g>
</g>
</svg>
