<?xml version="1.0" encoding="UTF-8" standalone="no"?>
<!DOCTYPE svg PUBLIC "-//W3C//DTD SVG 1.1//EN"
 "http://www.w3.org/Graphics/SVG/1.1/DTD/svg11.dtd">
<!-- Generated by graphviz version 2.30.0 (20130114.0426)
 -->
<!-- Title: /Users/rkwright/Documents/github/readium&#45;sdk&#45;D/ePub3/ePub/property_extension.cpp Pages: 1 -->
<svg width="1662pt" height="600pt"
 viewBox="0.00 0.00 1662.00 600.00" xmlns="http://www.w3.org/2000/svg" xmlns:xlink="http://www.w3.org/1999/xlink">
<g id="graph0" class="graph" transform="scale(1 1) rotate(0) translate(4 596)">
<title>/Users/rkwright/Documents/github/readium&#45;sdk&#45;D/ePub3/ePub/property_extension.cpp</title>
<polygon fill="white" stroke="white" points="-4,5 -4,-596 1659,-596 1659,5 -4,5"/>
<!-- Node1 -->
<g id="node1" class="node"><title>Node1</title>
<polygon fill="#bfbfbf" stroke="black" points="891.567,-547 891.567,-591 1040.43,-591 1040.43,-547 891.567,-547"/>
<text text-anchor="start" x="899.567" y="-577" font-family="Helvetica,sans-Serif" font-size="10.00">/Users/rkwright/Documents</text>
<text text-anchor="start" x="899.567" y="-565" font-family="Helvetica,sans-Serif" font-size="10.00">/github/readium&#45;sdk&#45;D/ePub3</text>
<text text-anchor="middle" x="966" y="-553" font-family="Helvetica,sans-Serif" font-size="10.00">/ePub/property_extension.cpp</text>
</g>
<!-- Node2 -->
<g id="node2" class="node"><title>Node2</title>
<g id="a_node2"><a xlink:href="property__extension_8h.xhtml" target="_top" xlink:title="property_extension.h">
<polygon fill="white" stroke="black" points="603.303,-489 603.303,-509 712.697,-509 712.697,-489 603.303,-489"/>
<text text-anchor="middle" x="658" y="-495" font-family="Helvetica,sans-Serif" font-size="10.00">property_extension.h</text>
</a>
</g>
</g>
<!-- Node1&#45;&gt;Node2 -->
<g id="edge1" class="edge"><title>Node1&#45;&gt;Node2</title>
<path fill="none" stroke="midnightblue" d="M891.442,-551.539C834.812,-539.036 758.445,-522.176 708.723,-511.198"/>
<polygon fill="midnightblue" stroke="midnightblue" points="709.36,-507.755 698.84,-509.017 707.851,-514.59 709.36,-507.755"/>
</g>
<!-- Node37 -->
<g id="node37" class="node"><title>Node37</title>
<g id="a_node37"><a xlink:href="property_8h.xhtml" target="_top" xlink:title="property.h">
<polygon fill="white" stroke="black" points="935.856,-489 935.856,-509 996.144,-509 996.144,-489 935.856,-489"/>
<text text-anchor="middle" x="966" y="-495" font-family="Helvetica,sans-Serif" font-size="10.00">property.h</text>
</a>
</g>
</g>
<!-- Node1&#45;&gt;Node37 -->
<g id="edge52" class="edge"><title>Node1&#45;&gt;Node37</title>
<path fill="none" stroke="midnightblue" d="M966,-546.857C966,-538.074 966,-527.948 966,-519.362"/>
<polygon fill="midnightblue" stroke="midnightblue" points="969.5,-519.204 966,-509.204 962.5,-519.204 969.5,-519.204"/>
</g>
<!-- Node41 -->
<g id="node41" class="node"><title>Node41</title>
<g id="a_node41"><a xlink:href="property__holder_8h.xhtml" target="_top" xlink:title="property_holder.h">
<polygon fill="white" stroke="black" points="1291.08,-489 1291.08,-509 1384.92,-509 1384.92,-489 1291.08,-489"/>
<text text-anchor="middle" x="1338" y="-495" font-family="Helvetica,sans-Serif" font-size="10.00">property_holder.h</text>
</a>
</g>
</g>
<!-- Node1&#45;&gt;Node41 -->
<g id="edge67" class="edge"><title>Node1&#45;&gt;Node41</title>
<path fill="none" stroke="midnightblue" d="M1040.83,-554.321C1111.72,-541.362 1216.64,-522.183 1280.99,-510.421"/>
<polygon fill="midnightblue" stroke="midnightblue" points="1281.75,-513.841 1290.96,-508.599 1280.49,-506.955 1281.75,-513.841"/>
</g>
<!-- Node3 -->
<g id="node3" class="node"><title>Node3</title>
<g id="a_node3"><a xlink:href="basic_8h.xhtml" target="_top" xlink:title="ePub3/utilities/basic.h">
<polygon fill="white" stroke="black" points="1157.64,-297 1157.64,-317 1270.36,-317 1270.36,-297 1157.64,-297"/>
<text text-anchor="middle" x="1214" y="-303" font-family="Helvetica,sans-Serif" font-size="10.00">ePub3/utilities/basic.h</text>
</a>
</g>
</g>
<!-- Node2&#45;&gt;Node3 -->
<g id="edge2" class="edge"><title>Node2&#45;&gt;Node3</title>
<path fill="none" stroke="midnightblue" d="M661.695,-488.745C669.04,-471.654 687.206,-435.308 715,-418 799.104,-365.626 838.114,-402.725 935,-382 1020.86,-363.634 1119.88,-335.745 1173.83,-319.971"/>
<polygon fill="midnightblue" stroke="midnightblue" points="1175.07,-323.254 1183.68,-317.078 1173.1,-316.537 1175.07,-323.254"/>
</g>
<!-- Node14 -->
<g id="node14" class="node"><title>Node14</title>
<g id="a_node14"><a xlink:href="owned__by_8h.xhtml" target="_top" xlink:title="ePub3/utilities/owned_by.h">
<polygon fill="white" stroke="black" points="1073.88,-425 1073.88,-445 1208.12,-445 1208.12,-425 1073.88,-425"/>
<text text-anchor="middle" x="1141" y="-431" font-family="Helvetica,sans-Serif" font-size="10.00">ePub3/utilities/owned_by.h</text>
</a>
</g>
</g>
<!-- Node2&#45;&gt;Node14 -->
<g id="edge13" class="edge"><title>Node2&#45;&gt;Node14</title>
<path fill="none" stroke="midnightblue" d="M712.896,-491.379C784.841,-482.647 914.933,-466.667 1026,-452 1039.43,-450.227 1053.73,-448.282 1067.52,-446.378"/>
<polygon fill="midnightblue" stroke="midnightblue" points="1068.03,-449.842 1077.45,-445.002 1067.07,-442.908 1068.03,-449.842"/>
</g>
<!-- Node16 -->
<g id="node16" class="node"><title>Node16</title>
<g id="a_node16"><a xlink:href="utfstring_8h.xhtml" target="_top" xlink:title="ePub3/utilities/utfstring.h">
<polygon fill="white" stroke="black" points="567.525,-361 567.525,-381 692.475,-381 692.475,-361 567.525,-361"/>
<text text-anchor="middle" x="630" y="-367" font-family="Helvetica,sans-Serif" font-size="10.00">ePub3/utilities/utfstring.h</text>
</a>
</g>
</g>
<!-- Node2&#45;&gt;Node16 -->
<g id="edge16" class="edge"><title>Node2&#45;&gt;Node16</title>
<path fill="none" stroke="midnightblue" d="M603.051,-493.698C547.208,-488.05 466.256,-475.906 447,-452 437.521,-440.232 437.708,-429.917 447,-418 454.837,-407.949 520.774,-393.119 571.276,-383.034"/>
<polygon fill="midnightblue" stroke="midnightblue" points="572.017,-386.456 581.149,-381.083 570.66,-379.588 572.017,-386.456"/>
</g>
<!-- Node30 -->
<g id="node30" class="node"><title>Node30</title>
<g id="a_node30"><a xlink:href="iri_8h.xhtml" target="_top" xlink:title="ePub3/utilities/iri.h">
<polygon fill="white" stroke="black" points="456.424,-425 456.424,-445 553.576,-445 553.576,-425 456.424,-425"/>
<text text-anchor="middle" x="505" y="-431" font-family="Helvetica,sans-Serif" font-size="10.00">ePub3/utilities/iri.h</text>
</a>
</g>
</g>
<!-- Node2&#45;&gt;Node30 -->
<g id="edge38" class="edge"><title>Node2&#45;&gt;Node30</title>
<path fill="none" stroke="midnightblue" d="M635.752,-488.985C609.691,-478.424 566.322,-460.849 536.735,-448.86"/>
<polygon fill="midnightblue" stroke="midnightblue" points="537.857,-445.538 527.274,-445.026 535.228,-452.026 537.857,-445.538"/>
</g>
<!-- Node35 -->
<g id="node35" class="node"><title>Node35</title>
<g id="a_node35"><a xlink:href="xml__identifiable_8h.xhtml" target="_top" xlink:title="ePub3/utilities/xml\l_identifiable.h">
<polygon fill="white" stroke="black" points="571.705,-419 571.705,-451 668.295,-451 668.295,-419 571.705,-419"/>
<text text-anchor="start" x="579.705" y="-437" font-family="Helvetica,sans-Serif" font-size="10.00">ePub3/utilities/xml</text>
<text text-anchor="middle" x="620" y="-425" font-family="Helvetica,sans-Serif" font-size="10.00">_identifiable.h</text>
</a>
</g>
</g>
<!-- Node2&#45;&gt;Node35 -->
<g id="edge48" class="edge"><title>Node2&#45;&gt;Node35</title>
<path fill="none" stroke="midnightblue" d="M652.393,-488.852C647.777,-481.321 641.017,-470.29 634.864,-460.252"/>
<polygon fill="midnightblue" stroke="midnightblue" points="637.673,-458.137 629.463,-451.44 631.705,-461.795 637.673,-458.137"/>
</g>
<!-- Node36 -->
<g id="node36" class="node"><title>Node36</title>
<polygon fill="white" stroke="#bfbfbf" points="723.695,-425 723.695,-445 820.305,-445 820.305,-425 723.695,-425"/>
<text text-anchor="middle" x="772" y="-431" font-family="Helvetica,sans-Serif" font-size="10.00">ePub3/xml/node.h</text>
</g>
<!-- Node2&#45;&gt;Node36 -->
<g id="edge50" class="edge"><title>Node2&#45;&gt;Node36</title>
<path fill="none" stroke="midnightblue" d="M674.821,-488.852C693.596,-478.641 724.205,-461.994 746.053,-450.112"/>
<polygon fill="midnightblue" stroke="midnightblue" points="747.997,-453.038 755.11,-445.186 744.653,-446.889 747.997,-453.038"/>
</g>
<!-- Node11 -->
<g id="node11" class="node"><title>Node11</title>
<polygon fill="white" stroke="#bfbfbf" points="489.943,-175 489.943,-195 542.057,-195 542.057,-175 489.943,-175"/>
<text text-anchor="middle" x="516" y="-181" font-family="Helvetica,sans-Serif" font-size="10.00">memory</text>
</g>
<!-- Node2&#45;&gt;Node11 -->
<g id="edge51" class="edge"><title>Node2&#45;&gt;Node11</title>
<path fill="none" stroke="midnightblue" d="M602.949,-496.244C469.378,-490.491 139,-466.692 139,-372 139,-372 139,-372 139,-306 139,-264.485 160.152,-252.937 196,-232 243.58,-204.211 406.412,-191.989 479.718,-187.803"/>
<polygon fill="midnightblue" stroke="midnightblue" points="480.068,-191.289 489.86,-187.242 479.682,-184.299 480.068,-191.289"/>
</g>
<!-- Node4 -->
<g id="node4" class="node"><title>Node4</title>
<g id="a_node4"><a xlink:href="base_8h.xhtml" target="_top" xlink:title="ePub3/base.h">
<polygon fill="white" stroke="black" points="266.141,-175 266.141,-195 343.859,-195 343.859,-175 266.141,-175"/>
<text text-anchor="middle" x="305" y="-181" font-family="Helvetica,sans-Serif" font-size="10.00">ePub3/base.h</text>
</a>
</g>
</g>
<!-- Node3&#45;&gt;Node4 -->
<g id="edge3" class="edge"><title>Node3&#45;&gt;Node4</title>
<path fill="none" stroke="midnightblue" d="M1200.06,-296.865C1174.14,-280.425 1116.22,-246.242 1062,-232 1053.41,-229.743 520.962,-198.58 354.305,-188.868"/>
<polygon fill="midnightblue" stroke="midnightblue" points="354.053,-185.348 343.866,-188.26 353.646,-192.336 354.053,-185.348"/>
</g>
<!-- Node9 -->
<g id="node9" class="node"><title>Node9</title>
<polygon fill="white" stroke="#bfbfbf" points="1227.82,-233 1227.82,-253 1342.18,-253 1342.18,-233 1227.82,-233"/>
<text text-anchor="middle" x="1285" y="-239" font-family="Helvetica,sans-Serif" font-size="10.00">ePub3/xml/xmlstring.h</text>
</g>
<!-- Node3&#45;&gt;Node9 -->
<g id="edge8" class="edge"><title>Node3&#45;&gt;Node9</title>
<path fill="none" stroke="midnightblue" d="M1224.48,-296.852C1235.59,-287.144 1253.37,-271.62 1266.79,-259.903"/>
<polygon fill="midnightblue" stroke="midnightblue" points="1269.25,-262.4 1274.48,-253.186 1264.65,-257.127 1269.25,-262.4"/>
</g>
<!-- Node10 -->
<g id="node10" class="node"><title>Node10</title>
<polygon fill="white" stroke="#bfbfbf" points="1360.22,-233 1360.22,-253 1411.78,-253 1411.78,-233 1360.22,-233"/>
<text text-anchor="middle" x="1386" y="-239" font-family="Helvetica,sans-Serif" font-size="10.00">sstream</text>
</g>
<!-- Node3&#45;&gt;Node10 -->
<g id="edge9" class="edge"><title>Node3&#45;&gt;Node10</title>
<path fill="none" stroke="midnightblue" d="M1239.01,-296.985C1268.56,-286.332 1317.91,-268.543 1351.19,-256.548"/>
<polygon fill="midnightblue" stroke="midnightblue" points="1352.74,-259.71 1360.96,-253.026 1350.37,-253.125 1352.74,-259.71"/>
</g>
<!-- Node3&#45;&gt;Node11 -->
<g id="edge10" class="edge"><title>Node3&#45;&gt;Node11</title>
<path fill="none" stroke="midnightblue" d="M1270.46,-303.394C1346.47,-297.978 1467.06,-281.513 1420,-232 1389.64,-200.059 718.355,-188.775 552.7,-186.471"/>
<polygon fill="midnightblue" stroke="midnightblue" points="552.579,-182.97 542.532,-186.333 552.484,-189.969 552.579,-182.97"/>
</g>
<!-- Node12 -->
<g id="node12" class="node"><title>Node12</title>
<polygon fill="white" stroke="#bfbfbf" points="1010.38,-233 1010.38,-253 1053.62,-253 1053.62,-233 1010.38,-233"/>
<text text-anchor="middle" x="1032" y="-239" font-family="Helvetica,sans-Serif" font-size="10.00">vector</text>
</g>
<!-- Node3&#45;&gt;Node12 -->
<g id="edge11" class="edge"><title>Node3&#45;&gt;Node12</title>
<path fill="none" stroke="midnightblue" d="M1187.54,-296.985C1154.6,-285.766 1098.44,-266.634 1063.38,-254.689"/>
<polygon fill="midnightblue" stroke="midnightblue" points="1064.25,-251.288 1053.65,-251.376 1061.99,-257.914 1064.25,-251.288"/>
</g>
<!-- Node13 -->
<g id="node13" class="node"><title>Node13</title>
<polygon fill="white" stroke="#bfbfbf" points="1180.5,-233 1180.5,-253 1209.5,-253 1209.5,-233 1180.5,-233"/>
<text text-anchor="middle" x="1194.61" y="-239" font-family="Helvetica,sans-Serif" font-size="10.00">list</text>
</g>
<!-- Node3&#45;&gt;Node13 -->
<g id="edge12" class="edge"><title>Node3&#45;&gt;Node13</title>
<path fill="none" stroke="midnightblue" d="M1211.2,-296.852C1208.47,-287.969 1204.26,-274.215 1200.81,-262.964"/>
<polygon fill="midnightblue" stroke="midnightblue" points="1204.09,-261.721 1197.82,-253.186 1197.4,-263.773 1204.09,-261.721"/>
</g>
<!-- Node5 -->
<g id="node5" class="node"><title>Node5</title>
<g id="a_node5"><a xlink:href="__config_8h.xhtml" target="_top" xlink:title="_config.h">
<polygon fill="white" stroke="black" points="241.707,-117 241.707,-137 298.293,-137 298.293,-117 241.707,-117"/>
<text text-anchor="middle" x="270" y="-123" font-family="Helvetica,sans-Serif" font-size="10.00">_config.h</text>
</a>
</g>
</g>
<!-- Node4&#45;&gt;Node5 -->
<g id="edge4" class="edge"><title>Node4&#45;&gt;Node5</title>
<path fill="none" stroke="midnightblue" d="M299.22,-174.753C294.277,-166.843 287.023,-155.237 280.98,-145.568"/>
<polygon fill="midnightblue" stroke="midnightblue" points="283.94,-143.7 275.672,-137.075 278.004,-147.41 283.94,-143.7"/>
</g>
<!-- Node8 -->
<g id="node8" class="node"><title>Node8</title>
<polygon fill="white" stroke="#bfbfbf" points="316.158,-117 316.158,-137 363.842,-137 363.842,-117 316.158,-117"/>
<text text-anchor="middle" x="340" y="-123" font-family="Helvetica,sans-Serif" font-size="10.00">stdlib.h</text>
</g>
<!-- Node4&#45;&gt;Node8 -->
<g id="edge7" class="edge"><title>Node4&#45;&gt;Node8</title>
<path fill="none" stroke="midnightblue" d="M310.78,-174.753C315.723,-166.843 322.977,-155.237 329.02,-145.568"/>
<polygon fill="midnightblue" stroke="midnightblue" points="331.996,-147.41 334.328,-137.075 326.06,-143.7 331.996,-147.41"/>
</g>
<!-- Node6 -->
<g id="node6" class="node"><title>Node6</title>
<g id="a_node6"><a xlink:href="__platform_8h.xhtml" target="_top" xlink:title="_platform.h">
<polygon fill="white" stroke="black" points="236.988,-59 236.988,-79 303.012,-79 303.012,-59 236.988,-59"/>
<text text-anchor="middle" x="270" y="-65" font-family="Helvetica,sans-Serif" font-size="10.00">_platform.h</text>
</a>
</g>
</g>
<!-- Node5&#45;&gt;Node6 -->
<g id="edge5" class="edge"><title>Node5&#45;&gt;Node6</title>
<path fill="none" stroke="midnightblue" d="M270,-116.753C270,-109.25 270,-98.4238 270,-89.0781"/>
<polygon fill="midnightblue" stroke="midnightblue" points="273.5,-89.0752 270,-79.0752 266.5,-89.0752 273.5,-89.0752"/>
</g>
<!-- Node7 -->
<g id="node7" class="node"><title>Node7</title>
<g id="a_node7"><a xlink:href="__compiler_8h.xhtml" target="_top" xlink:title="_compiler.h">
<polygon fill="white" stroke="black" points="236.429,-1 236.429,-21 303.571,-21 303.571,-1 236.429,-1"/>
<text text-anchor="middle" x="270" y="-7" font-family="Helvetica,sans-Serif" font-size="10.00">_compiler.h</text>
</a>
</g>
</g>
<!-- Node6&#45;&gt;Node7 -->
<g id="edge6" class="edge"><title>Node6&#45;&gt;Node7</title>
<path fill="none" stroke="midnightblue" d="M270,-58.7527C270,-51.2504 270,-40.4238 270,-31.0781"/>
<polygon fill="midnightblue" stroke="midnightblue" points="273.5,-31.0752 270,-21.0752 266.5,-31.0752 273.5,-31.0752"/>
</g>
<!-- Node14&#45;&gt;Node11 -->
<g id="edge14" class="edge"><title>Node14&#45;&gt;Node11</title>
<path fill="none" stroke="midnightblue" d="M1140.62,-424.766C1138.72,-392.03 1127.49,-280.866 1062,-232 1021.24,-201.59 667.656,-189.888 552.257,-186.858"/>
<polygon fill="midnightblue" stroke="midnightblue" points="552.248,-183.357 542.162,-186.599 552.069,-190.354 552.248,-183.357"/>
</g>
<!-- Node15 -->
<g id="node15" class="node"><title>Node15</title>
<polygon fill="white" stroke="#bfbfbf" points="567.934,-233 567.934,-253 630.066,-253 630.066,-233 567.934,-233"/>
<text text-anchor="middle" x="599" y="-239" font-family="Helvetica,sans-Serif" font-size="10.00">type_traits</text>
</g>
<!-- Node14&#45;&gt;Node15 -->
<g id="edge15" class="edge"><title>Node14&#45;&gt;Node15</title>
<path fill="none" stroke="midnightblue" d="M1135.22,-424.804C1118.01,-398.332 1064.09,-321.813 997,-290 855.473,-222.885 798.87,-279.058 640.438,-253.978"/>
<polygon fill="midnightblue" stroke="midnightblue" points="640.791,-250.488 630.351,-252.294 639.638,-257.393 640.791,-250.488"/>
</g>
<!-- Node16&#45;&gt;Node3 -->
<g id="edge17" class="edge"><title>Node16&#45;&gt;Node3</title>
<path fill="none" stroke="midnightblue" d="M692.498,-363.365C803.465,-351.584 1033.89,-327.121 1147.59,-315.05"/>
<polygon fill="midnightblue" stroke="midnightblue" points="1147.99,-318.528 1157.56,-313.991 1147.25,-311.567 1147.99,-318.528"/>
</g>
<!-- Node17 -->
<g id="node17" class="node"><title>Node17</title>
<g id="a_node17"><a xlink:href="integer__sequence_8h.xhtml" target="_top" xlink:title="ePub3/utilities/integer\l_sequence.h">
<polygon fill="white" stroke="black" points="-0.807617,-291 -0.807617,-323 110.808,-323 110.808,-291 -0.807617,-291"/>
<text text-anchor="start" x="7.19238" y="-309" font-family="Helvetica,sans-Serif" font-size="10.00">ePub3/utilities/integer</text>
<text text-anchor="middle" x="55" y="-297" font-family="Helvetica,sans-Serif" font-size="10.00">_sequence.h</text>
</a>
</g>
</g>
<!-- Node16&#45;&gt;Node17 -->
<g id="edge18" class="edge"><title>Node16&#45;&gt;Node17</title>
<path fill="none" stroke="midnightblue" d="M567.192,-361.116C564.085,-360.727 561.008,-360.353 558,-360 391.267,-340.448 348.854,-342.494 182,-324 162.157,-321.801 140.6,-319.174 120.976,-316.692"/>
<polygon fill="midnightblue" stroke="midnightblue" points="121.272,-313.201 110.91,-315.41 120.387,-320.145 121.272,-313.201"/>
</g>
<!-- Node18 -->
<g id="node18" class="node"><title>Node18</title>
<g id="a_node18"><a xlink:href="string__view_8h.xhtml" target="_top" xlink:title="ePub3/utilities/string\l_view.h">
<polygon fill="white" stroke="black" points="391.254,-291 391.254,-323 496.746,-323 496.746,-291 391.254,-291"/>
<text text-anchor="start" x="399.254" y="-309" font-family="Helvetica,sans-Serif" font-size="10.00">ePub3/utilities/string</text>
<text text-anchor="middle" x="444" y="-297" font-family="Helvetica,sans-Serif" font-size="10.00">_view.h</text>
</a>
</g>
</g>
<!-- Node16&#45;&gt;Node18 -->
<g id="edge20" class="edge"><title>Node16&#45;&gt;Node18</title>
<path fill="none" stroke="midnightblue" d="M602.954,-360.985C575.81,-351.937 533.222,-337.741 498.958,-326.319"/>
<polygon fill="midnightblue" stroke="midnightblue" points="499.671,-322.868 489.077,-323.026 497.457,-329.509 499.671,-322.868"/>
</g>
<!-- Node19 -->
<g id="node19" class="node"><title>Node19</title>
<polygon fill="white" stroke="#bfbfbf" points="365.773,-233 365.773,-253 406.227,-253 406.227,-233 365.773,-233"/>
<text text-anchor="middle" x="386" y="-239" font-family="Helvetica,sans-Serif" font-size="10.00">string</text>
</g>
<!-- Node16&#45;&gt;Node19 -->
<g id="edge29" class="edge"><title>Node16&#45;&gt;Node19</title>
<path fill="none" stroke="midnightblue" d="M567.894,-360.96C493.586,-349.845 378.308,-331.532 372,-324 357.554,-306.751 366.557,-279.923 375.388,-262.159"/>
<polygon fill="midnightblue" stroke="midnightblue" points="378.599,-263.579 380.258,-253.115 372.436,-260.26 378.599,-263.579"/>
</g>
<!-- Node24 -->
<g id="node24" class="node"><title>Node24</title>
<polygon fill="white" stroke="#bfbfbf" points="514.438,-297 514.438,-317 561.562,-317 561.562,-297 514.438,-297"/>
<text text-anchor="middle" x="538" y="-303" font-family="Helvetica,sans-Serif" font-size="10.00">iterator</text>
</g>
<!-- Node16&#45;&gt;Node24 -->
<g id="edge30" class="edge"><title>Node16&#45;&gt;Node24</title>
<path fill="none" stroke="midnightblue" d="M616.425,-360.852C601.613,-350.87 577.674,-334.737 560.136,-322.918"/>
<polygon fill="midnightblue" stroke="midnightblue" points="561.879,-319.872 551.631,-317.186 557.967,-325.677 561.879,-319.872"/>
</g>
<!-- Node25 -->
<g id="node25" class="node"><title>Node25</title>
<polygon fill="white" stroke="#bfbfbf" points="945.936,-297 945.936,-317 988.064,-317 988.064,-297 945.936,-297"/>
<text text-anchor="middle" x="967" y="-303" font-family="Helvetica,sans-Serif" font-size="10.00">locale</text>
</g>
<!-- Node16&#45;&gt;Node25 -->
<g id="edge31" class="edge"><title>Node16&#45;&gt;Node25</title>
<path fill="none" stroke="midnightblue" d="M692.613,-366.583C755.441,-361.773 854.345,-350.412 936,-324 938.285,-323.261 940.606,-322.367 942.897,-321.383"/>
<polygon fill="midnightblue" stroke="midnightblue" points="944.488,-324.502 951.977,-317.008 941.449,-318.196 944.488,-324.502"/>
</g>
<!-- Node16&#45;&gt;Node12 -->
<g id="edge32" class="edge"><title>Node16&#45;&gt;Node12</title>
<path fill="none" stroke="midnightblue" d="M692.609,-365.201C737.101,-359.787 797.193,-348.305 845,-324 865.202,-313.73 863.273,-301.155 883,-290 920.581,-268.748 969.16,-256.123 1000.45,-249.624"/>
<polygon fill="midnightblue" stroke="midnightblue" points="1001.24,-253.036 1010.36,-247.651 999.87,-246.171 1001.24,-253.036"/>
</g>
<!-- Node26 -->
<g id="node26" class="node"><title>Node26</title>
<polygon fill="white" stroke="#bfbfbf" points="579.766,-297 579.766,-317 680.234,-317 680.234,-297 579.766,-297"/>
<text text-anchor="middle" x="630" y="-303" font-family="Helvetica,sans-Serif" font-size="10.00">REGEX_INCLUDE</text>
</g>
<!-- Node16&#45;&gt;Node26 -->
<g id="edge33" class="edge"><title>Node16&#45;&gt;Node26</title>
<path fill="none" stroke="midnightblue" d="M630,-360.852C630,-352.06 630,-338.498 630,-327.313"/>
<polygon fill="midnightblue" stroke="midnightblue" points="633.5,-327.186 630,-317.186 626.5,-327.186 633.5,-327.186"/>
</g>
<!-- Node27 -->
<g id="node27" class="node"><title>Node27</title>
<polygon fill="white" stroke="#bfbfbf" points="892.273,-297 892.273,-317 927.727,-317 927.727,-297 892.273,-297"/>
<text text-anchor="middle" x="910" y="-303" font-family="Helvetica,sans-Serif" font-size="10.00">map</text>
</g>
<!-- Node16&#45;&gt;Node27 -->
<g id="edge34" class="edge"><title>Node16&#45;&gt;Node27</title>
<path fill="none" stroke="midnightblue" d="M692.623,-363.314C743.513,-356.718 816.657,-344.569 878,-324 880.286,-323.234 882.614,-322.332 884.919,-321.353"/>
<polygon fill="midnightblue" stroke="midnightblue" points="886.53,-324.464 894.099,-317.049 883.559,-318.126 886.53,-324.464"/>
</g>
<!-- Node28 -->
<g id="node28" class="node"><title>Node28</title>
<polygon fill="white" stroke="#bfbfbf" points="698.599,-297 698.599,-317 757.401,-317 757.401,-297 698.599,-297"/>
<text text-anchor="middle" x="728" y="-303" font-family="Helvetica,sans-Serif" font-size="10.00">stdexcept</text>
</g>
<!-- Node16&#45;&gt;Node28 -->
<g id="edge35" class="edge"><title>Node16&#45;&gt;Node28</title>
<path fill="none" stroke="midnightblue" d="M644.46,-360.852C660.383,-350.778 686.207,-334.441 704.933,-322.594"/>
<polygon fill="midnightblue" stroke="midnightblue" points="706.901,-325.49 713.48,-317.186 703.158,-319.575 706.901,-325.49"/>
</g>
<!-- Node20 -->
<g id="node20" class="node"><title>Node20</title>
<polygon fill="white" stroke="#bfbfbf" points="424.613,-233 424.613,-253 463.387,-253 463.387,-233 424.613,-233"/>
<text text-anchor="middle" x="444" y="-239" font-family="Helvetica,sans-Serif" font-size="10.00">limits</text>
</g>
<!-- Node16&#45;&gt;Node20 -->
<g id="edge36" class="edge"><title>Node16&#45;&gt;Node20</title>
<path fill="none" stroke="midnightblue" d="M570.915,-360.974C499.504,-349.782 388.063,-331.292 382,-324 372.338,-312.381 375.207,-303.498 382,-290 389.078,-275.934 402.718,-265.091 415.405,-257.474"/>
<polygon fill="midnightblue" stroke="midnightblue" points="417.324,-260.412 424.368,-252.499 413.926,-254.292 417.324,-260.412"/>
</g>
<!-- Node29 -->
<g id="node29" class="node"><title>Node29</title>
<polygon fill="white" stroke="#bfbfbf" points="775.761,-297 775.761,-317 836.239,-317 836.239,-297 775.761,-297"/>
<text text-anchor="middle" x="806" y="-303" font-family="Helvetica,sans-Serif" font-size="10.00">utf8/utf8.h</text>
</g>
<!-- Node16&#45;&gt;Node29 -->
<g id="edge37" class="edge"><title>Node16&#45;&gt;Node29</title>
<path fill="none" stroke="midnightblue" d="M658.287,-360.929C685.906,-351.956 729.051,-337.627 766,-324 768.855,-322.947 771.813,-321.825 774.769,-320.681"/>
<polygon fill="midnightblue" stroke="midnightblue" points="776.053,-323.937 784.076,-317.018 773.489,-317.424 776.053,-323.937"/>
</g>
<!-- Node17&#45;&gt;Node4 -->
<g id="edge19" class="edge"><title>Node17&#45;&gt;Node4</title>
<path fill="none" stroke="midnightblue" d="M65.2686,-290.816C77.5113,-273.902 99.5438,-246.973 125,-232 165.406,-208.234 217.948,-196.627 255.824,-191.033"/>
<polygon fill="midnightblue" stroke="midnightblue" points="256.671,-194.449 266.095,-189.609 255.71,-187.515 256.671,-194.449"/>
</g>
<!-- Node18&#45;&gt;Node15 -->
<g id="edge21" class="edge"><title>Node18&#45;&gt;Node15</title>
<path fill="none" stroke="midnightblue" d="M481.521,-290.992C507.623,-280.551 542.056,-266.778 566.888,-256.845"/>
<polygon fill="midnightblue" stroke="midnightblue" points="568.243,-260.072 576.228,-253.109 565.643,-253.573 568.243,-260.072"/>
</g>
<!-- Node18&#45;&gt;Node19 -->
<g id="edge22" class="edge"><title>Node18&#45;&gt;Node19</title>
<path fill="none" stroke="midnightblue" d="M429.96,-290.992C421.455,-281.9 410.586,-270.281 401.783,-260.872"/>
<polygon fill="midnightblue" stroke="midnightblue" points="404.079,-258.202 394.691,-253.29 398.967,-262.984 404.079,-258.202"/>
</g>
<!-- Node18&#45;&gt;Node20 -->
<g id="edge23" class="edge"><title>Node18&#45;&gt;Node20</title>
<path fill="none" stroke="midnightblue" d="M444,-290.992C444,-282.726 444,-272.373 444,-263.489"/>
<polygon fill="midnightblue" stroke="midnightblue" points="447.5,-263.29 444,-253.29 440.5,-263.29 447.5,-263.29"/>
</g>
<!-- Node21 -->
<g id="node21" class="node"><title>Node21</title>
<polygon fill="white" stroke="#bfbfbf" points="723.828,-233 723.828,-253 778.172,-253 778.172,-233 723.828,-233"/>
<text text-anchor="middle" x="751" y="-239" font-family="Helvetica,sans-Serif" font-size="10.00">iostream</text>
</g>
<!-- Node18&#45;&gt;Node21 -->
<g id="edge24" class="edge"><title>Node18&#45;&gt;Node21</title>
<path fill="none" stroke="midnightblue" d="M496.834,-291.845C499.591,-291.199 502.325,-290.58 505,-290 594.057,-270.688 620.235,-274.06 713.717,-253.878"/>
<polygon fill="midnightblue" stroke="midnightblue" points="714.573,-257.274 723.591,-251.714 713.074,-250.436 714.573,-257.274"/>
</g>
<!-- Node22 -->
<g id="node22" class="node"><title>Node22</title>
<polygon fill="white" stroke="#bfbfbf" points="648.436,-233 648.436,-253 705.564,-253 705.564,-233 648.436,-233"/>
<text text-anchor="middle" x="677" y="-239" font-family="Helvetica,sans-Serif" font-size="10.00">algorithm</text>
</g>
<!-- Node18&#45;&gt;Node22 -->
<g id="edge25" class="edge"><title>Node18&#45;&gt;Node22</title>
<path fill="none" stroke="midnightblue" d="M496.871,-291.931C540.01,-280.452 599.939,-264.506 638.599,-254.218"/>
<polygon fill="midnightblue" stroke="midnightblue" points="639.662,-257.557 648.426,-251.603 637.862,-250.793 639.662,-257.557"/>
</g>
<!-- Node23 -->
<g id="node23" class="node"><title>Node23</title>
<g id="a_node23"><a xlink:href="____strhash_8h.xhtml" target="_top" xlink:title="__strhash.h">
<polygon fill="white" stroke="black" points="481.872,-233 481.872,-253 550.128,-253 550.128,-233 481.872,-233"/>
<text text-anchor="middle" x="516" y="-239" font-family="Helvetica,sans-Serif" font-size="10.00">__strhash.h</text>
</a>
</g>
</g>
<!-- Node18&#45;&gt;Node23 -->
<g id="edge26" class="edge"><title>Node18&#45;&gt;Node23</title>
<path fill="none" stroke="midnightblue" d="M461.429,-290.992C472.307,-281.624 486.3,-269.575 497.393,-260.022"/>
<polygon fill="midnightblue" stroke="midnightblue" points="499.917,-262.468 505.211,-253.29 495.35,-257.163 499.917,-262.468"/>
</g>
<!-- Node23&#45;&gt;Node4 -->
<g id="edge27" class="edge"><title>Node23&#45;&gt;Node4</title>
<path fill="none" stroke="midnightblue" d="M481.63,-232.878C445.427,-223.27 388.309,-208.11 348.876,-197.645"/>
<polygon fill="midnightblue" stroke="midnightblue" points="349.569,-194.208 339.006,-195.025 347.774,-200.973 349.569,-194.208"/>
</g>
<!-- Node23&#45;&gt;Node11 -->
<g id="edge28" class="edge"><title>Node23&#45;&gt;Node11</title>
<path fill="none" stroke="midnightblue" d="M516,-232.753C516,-225.25 516,-214.424 516,-205.078"/>
<polygon fill="midnightblue" stroke="midnightblue" points="519.5,-205.075 516,-195.075 512.5,-205.075 519.5,-205.075"/>
</g>
<!-- Node30&#45;&gt;Node16 -->
<g id="edge39" class="edge"><title>Node30&#45;&gt;Node16</title>
<path fill="none" stroke="midnightblue" d="M523.176,-424.985C544.098,-414.607 578.672,-397.458 602.802,-385.49"/>
<polygon fill="midnightblue" stroke="midnightblue" points="604.399,-388.605 611.802,-381.026 601.288,-382.334 604.399,-388.605"/>
</g>
<!-- Node31 -->
<g id="node31" class="node"><title>Node31</title>
<g id="a_node31"><a xlink:href="make__unique_8h.xhtml" target="_top" xlink:title="ePub3/utilities/make\l_unique.h">
<polygon fill="white" stroke="black" points="191.254,-291 191.254,-323 296.746,-323 296.746,-291 191.254,-291"/>
<text text-anchor="start" x="199.254" y="-309" font-family="Helvetica,sans-Serif" font-size="10.00">ePub3/utilities/make</text>
<text text-anchor="middle" x="244" y="-297" font-family="Helvetica,sans-Serif" font-size="10.00">_unique.h</text>
</a>
</g>
</g>
<!-- Node30&#45;&gt;Node31 -->
<g id="edge40" class="edge"><title>Node30&#45;&gt;Node31</title>
<path fill="none" stroke="midnightblue" d="M486.23,-424.938C444.156,-404.627 341.513,-355.075 284.264,-327.438"/>
<polygon fill="midnightblue" stroke="midnightblue" points="285.67,-324.23 275.143,-323.034 282.626,-330.534 285.67,-324.23"/>
</g>
<!-- Node34 -->
<g id="node34" class="node"><title>Node34</title>
<polygon fill="white" stroke="#bfbfbf" points="460.867,-361 460.867,-381 549.133,-381 549.133,-361 460.867,-361"/>
<text text-anchor="middle" x="505" y="-367" font-family="Helvetica,sans-Serif" font-size="10.00">google&#45;url/gurl.h</text>
</g>
<!-- Node30&#45;&gt;Node34 -->
<g id="edge46" class="edge"><title>Node30&#45;&gt;Node34</title>
<path fill="none" stroke="midnightblue" d="M505,-424.852C505,-416.06 505,-402.498 505,-391.313"/>
<polygon fill="midnightblue" stroke="midnightblue" points="508.5,-391.186 505,-381.186 501.5,-391.186 508.5,-391.186"/>
</g>
<!-- Node30&#45;&gt;Node12 -->
<g id="edge47" class="edge"><title>Node30&#45;&gt;Node12</title>
<path fill="none" stroke="midnightblue" d="M536.523,-424.96C545.088,-422.598 554.378,-420.121 563,-418 754.647,-370.851 844.265,-448.994 997,-324 1015.74,-308.662 1024.72,-281.314 1028.83,-262.918"/>
<polygon fill="midnightblue" stroke="midnightblue" points="1032.27,-263.529 1030.75,-253.044 1025.4,-262.187 1032.27,-263.529"/>
</g>
<!-- Node31&#45;&gt;Node4 -->
<g id="edge41" class="edge"><title>Node31&#45;&gt;Node4</title>
<path fill="none" stroke="midnightblue" d="M222.751,-290.917C204.316,-275.922 182.54,-252.289 196,-232 209.501,-211.648 233.975,-200.278 256.317,-193.937"/>
<polygon fill="midnightblue" stroke="midnightblue" points="257.236,-197.315 266.052,-191.44 255.496,-190.535 257.236,-197.315"/>
</g>
<!-- Node32 -->
<g id="node32" class="node"><title>Node32</title>
<polygon fill="white" stroke="#bfbfbf" points="261.879,-233 261.879,-253 310.121,-253 310.121,-233 261.879,-233"/>
<text text-anchor="middle" x="286" y="-239" font-family="Helvetica,sans-Serif" font-size="10.00">cstddef</text>
</g>
<!-- Node31&#45;&gt;Node32 -->
<g id="edge42" class="edge"><title>Node31&#45;&gt;Node32</title>
<path fill="none" stroke="midnightblue" d="M254.167,-290.992C260.139,-282.175 267.721,-270.983 273.987,-261.733"/>
<polygon fill="midnightblue" stroke="midnightblue" points="276.996,-263.533 279.706,-253.29 271.2,-259.607 276.996,-263.533"/>
</g>
<!-- Node31&#45;&gt;Node11 -->
<g id="edge43" class="edge"><title>Node31&#45;&gt;Node11</title>
<path fill="none" stroke="midnightblue" d="M265.648,-290.708C292.921,-271.643 338.461,-240.518 357,-232 397.291,-213.488 446.775,-200.58 479.734,-193.246"/>
<polygon fill="midnightblue" stroke="midnightblue" points="480.789,-196.599 489.821,-191.061 479.307,-189.757 480.789,-196.599"/>
</g>
<!-- Node31&#45;&gt;Node15 -->
<g id="edge44" class="edge"><title>Node31&#45;&gt;Node15</title>
<path fill="none" stroke="midnightblue" d="M296.912,-298.609C357.611,-289.831 460.307,-274.067 557.609,-254.168"/>
<polygon fill="midnightblue" stroke="midnightblue" points="558.526,-257.552 567.613,-252.103 557.111,-250.697 558.526,-257.552"/>
</g>
<!-- Node33 -->
<g id="node33" class="node"><title>Node33</title>
<polygon fill="white" stroke="#bfbfbf" points="204.608,-233 204.608,-253 243.392,-253 243.392,-233 204.608,-233"/>
<text text-anchor="middle" x="224" y="-239" font-family="Helvetica,sans-Serif" font-size="10.00">utility</text>
</g>
<!-- Node31&#45;&gt;Node33 -->
<g id="edge45" class="edge"><title>Node31&#45;&gt;Node33</title>
<path fill="none" stroke="midnightblue" d="M239.159,-290.992C236.433,-282.543 233.004,-271.912 230.096,-262.899"/>
<polygon fill="midnightblue" stroke="midnightblue" points="233.398,-261.733 226.997,-253.29 226.736,-263.882 233.398,-261.733"/>
</g>
<!-- Node35&#45;&gt;Node16 -->
<g id="edge49" class="edge"><title>Node35&#45;&gt;Node16</title>
<path fill="none" stroke="midnightblue" d="M622.421,-418.992C623.769,-410.635 625.461,-400.142 626.904,-391.194"/>
<polygon fill="midnightblue" stroke="midnightblue" points="630.364,-391.72 628.502,-381.29 623.454,-390.605 630.364,-391.72"/>
</g>
<!-- Node38 -->
<g id="node38" class="node"><title>Node38</title>
<polygon fill="white" stroke="#bfbfbf" points="1264.08,-425 1264.08,-445 1347.92,-445 1347.92,-425 1264.08,-425"/>
<text text-anchor="middle" x="1306" y="-431" font-family="Helvetica,sans-Serif" font-size="10.00">ePub3/epub3.h</text>
</g>
<!-- Node37&#45;&gt;Node38 -->
<g id="edge53" class="edge"><title>Node37&#45;&gt;Node38</title>
<path fill="none" stroke="midnightblue" d="M996.486,-494.261C1048.73,-487.586 1158.59,-472.386 1250,-452 1255.49,-450.776 1261.24,-449.328 1266.87,-447.812"/>
<polygon fill="midnightblue" stroke="midnightblue" points="1268.12,-451.098 1276.81,-445.042 1266.24,-444.355 1268.12,-451.098"/>
</g>
<!-- Node37&#45;&gt;Node3 -->
<g id="edge54" class="edge"><title>Node37&#45;&gt;Node3</title>
<path fill="none" stroke="midnightblue" d="M996.32,-497.1C1056.84,-494.598 1189.2,-485.352 1217,-452 1246.66,-416.415 1231.82,-356.926 1221.36,-326.763"/>
<polygon fill="midnightblue" stroke="midnightblue" points="1224.53,-325.25 1217.79,-317.075 1217.96,-327.669 1224.53,-325.25"/>
</g>
<!-- Node37&#45;&gt;Node14 -->
<g id="edge55" class="edge"><title>Node37&#45;&gt;Node14</title>
<path fill="none" stroke="midnightblue" d="M991.447,-488.985C1021.64,-478.286 1072.16,-460.39 1106.02,-448.394"/>
<polygon fill="midnightblue" stroke="midnightblue" points="1107.27,-451.665 1115.52,-445.026 1104.93,-445.067 1107.27,-451.665"/>
</g>
<!-- Node37&#45;&gt;Node30 -->
<g id="edge56" class="edge"><title>Node37&#45;&gt;Node30</title>
<path fill="none" stroke="midnightblue" d="M935.675,-496.156C868.202,-491.701 700.749,-478.693 563,-452 556.809,-450.8 550.312,-449.276 543.998,-447.648"/>
<polygon fill="midnightblue" stroke="midnightblue" points="544.862,-444.256 534.296,-445.035 543.042,-451.016 544.862,-444.256"/>
</g>
<!-- Node37&#45;&gt;Node16 -->
<g id="edge57" class="edge"><title>Node37&#45;&gt;Node16</title>
<path fill="none" stroke="midnightblue" d="M944.017,-488.847C924.504,-480.352 895.521,-466.815 872,-452 851.385,-439.016 850.958,-428.556 829,-418 789.542,-399.032 741.856,-387.66 703.057,-380.97"/>
<polygon fill="midnightblue" stroke="midnightblue" points="703.317,-377.465 692.88,-379.286 702.175,-384.371 703.317,-377.465"/>
</g>
<!-- Node39 -->
<g id="node39" class="node"><title>Node39</title>
<polygon fill="white" stroke="#bfbfbf" points="1365.46,-425 1365.46,-445 1506.54,-445 1506.54,-425 1365.46,-425"/>
<text text-anchor="middle" x="1436" y="-431" font-family="Helvetica,sans-Serif" font-size="10.00">ePub3/property_extension.h</text>
</g>
<!-- Node37&#45;&gt;Node39 -->
<g id="edge58" class="edge"><title>Node37&#45;&gt;Node39</title>
<path fill="none" stroke="midnightblue" d="M996.455,-495.245C1062.29,-489.106 1222.68,-473.16 1356,-452 1365.14,-450.549 1374.83,-448.796 1384.19,-446.99"/>
<polygon fill="midnightblue" stroke="midnightblue" points="1385.04,-450.389 1394.18,-445.02 1383.69,-443.521 1385.04,-450.389"/>
</g>
<!-- Node40 -->
<g id="node40" class="node"><title>Node40</title>
<g id="a_node40"><a xlink:href="epub__locale_8h.xhtml" target="_top" xlink:title="ePub3/utilities/epub\l_locale.h">
<polygon fill="white" stroke="black" points="914.357,-419 914.357,-451 1017.64,-451 1017.64,-419 914.357,-419"/>
<text text-anchor="start" x="922.357" y="-437" font-family="Helvetica,sans-Serif" font-size="10.00">ePub3/utilities/epub</text>
<text text-anchor="middle" x="966" y="-425" font-family="Helvetica,sans-Serif" font-size="10.00">_locale.h</text>
</a>
</g>
</g>
<!-- Node37&#45;&gt;Node40 -->
<g id="edge59" class="edge"><title>Node37&#45;&gt;Node40</title>
<path fill="none" stroke="midnightblue" d="M966,-488.852C966,-481.629 966,-471.185 966,-461.486"/>
<polygon fill="midnightblue" stroke="midnightblue" points="969.5,-461.44 966,-451.44 962.5,-461.44 969.5,-461.44"/>
</g>
<!-- Node37&#45;&gt;Node35 -->
<g id="edge63" class="edge"><title>Node37&#45;&gt;Node35</title>
<path fill="none" stroke="midnightblue" d="M935.598,-492.552C878.191,-482.265 752.946,-459.823 678.653,-446.51"/>
<polygon fill="midnightblue" stroke="midnightblue" points="678.981,-443.013 668.521,-444.694 677.747,-449.904 678.981,-443.013"/>
</g>
<!-- Node37&#45;&gt;Node36 -->
<g id="edge64" class="edge"><title>Node37&#45;&gt;Node36</title>
<path fill="none" stroke="midnightblue" d="M937.791,-488.985C904.027,-478.194 847.353,-460.082 809.818,-448.086"/>
<polygon fill="midnightblue" stroke="midnightblue" points="810.834,-444.737 800.243,-445.026 808.703,-451.404 810.834,-444.737"/>
</g>
<!-- Node37&#45;&gt;Node12 -->
<g id="edge65" class="edge"><title>Node37&#45;&gt;Node12</title>
<path fill="none" stroke="midnightblue" d="M985.462,-488.953C999.485,-481.279 1017.39,-468.828 1026,-452 1058.04,-389.354 1044.8,-301.63 1036.63,-263.252"/>
<polygon fill="midnightblue" stroke="midnightblue" points="1040.03,-262.386 1034.41,-253.401 1033.2,-263.926 1040.03,-262.386"/>
</g>
<!-- Node37&#45;&gt;Node27 -->
<g id="edge66" class="edge"><title>Node37&#45;&gt;Node27</title>
<path fill="none" stroke="midnightblue" d="M945.782,-488.947C931.502,-481.34 913.46,-468.976 905,-452 884.709,-411.284 895.77,-355.746 903.879,-326.993"/>
<polygon fill="midnightblue" stroke="midnightblue" points="907.339,-327.64 906.872,-317.056 900.637,-325.621 907.339,-327.64"/>
</g>
<!-- Node40&#45;&gt;Node3 -->
<g id="edge60" class="edge"><title>Node40&#45;&gt;Node3</title>
<path fill="none" stroke="midnightblue" d="M1009.3,-418.907C1035,-409.404 1067.94,-396.265 1096,-382 1131.4,-364.006 1169.93,-338.651 1193.02,-322.78"/>
<polygon fill="midnightblue" stroke="midnightblue" points="1195.13,-325.576 1201.35,-317.001 1191.14,-319.824 1195.13,-325.576"/>
</g>
<!-- Node40&#45;&gt;Node16 -->
<g id="edge61" class="edge"><title>Node40&#45;&gt;Node16</title>
<path fill="none" stroke="midnightblue" d="M914.236,-424.448C853.341,-413.212 752.482,-394.601 688.72,-382.835"/>
<polygon fill="midnightblue" stroke="midnightblue" points="689.286,-379.381 678.817,-381.008 688.016,-386.265 689.286,-379.381"/>
</g>
<!-- Node40&#45;&gt;Node25 -->
<g id="edge62" class="edge"><title>Node40&#45;&gt;Node25</title>
<path fill="none" stroke="midnightblue" d="M966.123,-418.55C966.305,-395.527 966.649,-352.25 966.847,-327.217"/>
<polygon fill="midnightblue" stroke="midnightblue" points="970.348,-327.165 966.927,-317.138 963.348,-327.11 970.348,-327.165"/>
</g>
<!-- Node41&#45;&gt;Node3 -->
<g id="edge68" class="edge"><title>Node41&#45;&gt;Node3</title>
<path fill="none" stroke="midnightblue" d="M1385,-494.157C1448.43,-487.033 1549.74,-467.676 1515,-418 1462.28,-342.599 1352.07,-318.711 1280.64,-311.248"/>
<polygon fill="midnightblue" stroke="midnightblue" points="1280.69,-307.736 1270.4,-310.261 1280.02,-314.703 1280.69,-307.736"/>
</g>
<!-- Node41&#45;&gt;Node14 -->
<g id="edge69" class="edge"><title>Node41&#45;&gt;Node14</title>
<path fill="none" stroke="midnightblue" d="M1309.35,-488.985C1275.07,-478.194 1217.52,-460.082 1179.4,-448.086"/>
<polygon fill="midnightblue" stroke="midnightblue" points="1180.27,-444.69 1169.68,-445.026 1178.17,-451.367 1180.27,-444.69"/>
</g>
<!-- Node42 -->
<g id="node42" class="node"><title>Node42</title>
<polygon fill="white" stroke="#bfbfbf" points="1563.01,-425 1563.01,-445 1654.99,-445 1654.99,-425 1563.01,-425"/>
<text text-anchor="middle" x="1609" y="-431" font-family="Helvetica,sans-Serif" font-size="10.00">ePub3/property.h</text>
</g>
<!-- Node41&#45;&gt;Node42 -->
<g id="edge70" class="edge"><title>Node41&#45;&gt;Node42</title>
<path fill="none" stroke="midnightblue" d="M1382.18,-488.984C1424.97,-480.108 1491.61,-465.9 1549,-452 1554.5,-450.668 1560.27,-449.209 1565.96,-447.732"/>
<polygon fill="midnightblue" stroke="midnightblue" points="1567.28,-451.005 1576.06,-445.076 1565.5,-444.235 1567.28,-451.005"/>
</g>
</g>
</svg>
