<?xml version="1.0" encoding="UTF-8" standalone="no"?>
<!DOCTYPE svg PUBLIC "-//W3C//DTD SVG 1.1//EN"
 "http://www.w3.org/Graphics/SVG/1.1/DTD/svg11.dtd">
<!-- Generated by graphviz version 2.30.0 (20130114.0426)
 -->
<!-- Title: /Users/rkwright/Documents/github/readium&#45;sdk&#45;D/ePub3/utilities/run_loop_common.ipp Pages: 1 -->
<svg width="657pt" height="136pt"
 viewBox="0.00 0.00 657.00 136.00" xmlns="http://www.w3.org/2000/svg" xmlns:xlink="http://www.w3.org/1999/xlink">
<g id="graph0" class="graph" transform="scale(1 1) rotate(0) translate(4 132)">
<title>/Users/rkwright/Documents/github/readium&#45;sdk&#45;D/ePub3/utilities/run_loop_common.ipp</title>
<polygon fill="white" stroke="white" points="-4,5 -4,-132 654,-132 654,5 -4,5"/>
<!-- Node1 -->
<g id="node1" class="node"><title>Node1</title>
<polygon fill="#bfbfbf" stroke="black" points="245.463,-83 245.463,-127 396.537,-127 396.537,-83 245.463,-83"/>
<text text-anchor="start" x="253.463" y="-113" font-family="Helvetica,sans-Serif" font-size="10.00">/Users/rkwright/Documents</text>
<text text-anchor="start" x="253.463" y="-101" font-family="Helvetica,sans-Serif" font-size="10.00">/github/readium&#45;sdk&#45;D/ePub3</text>
<text text-anchor="middle" x="321" y="-89" font-family="Helvetica,sans-Serif" font-size="10.00">/utilities/run_loop_common.ipp</text>
</g>
<!-- Node2 -->
<g id="node2" class="node"><title>Node2</title>
<g id="a_node2"><a xlink:href="run__loop__android_8cpp.xhtml" target="_top" xlink:title="/Users/rkwright/Documents\l/github/readium&#45;sdk&#45;D/ePub3\l/utilities/run_loop_android.cpp">
<polygon fill="white" stroke="black" points="-0.433105,-1 -0.433105,-45 148.433,-45 148.433,-1 -0.433105,-1"/>
<text text-anchor="start" x="7.56689" y="-31" font-family="Helvetica,sans-Serif" font-size="10.00">/Users/rkwright/Documents</text>
<text text-anchor="start" x="7.56689" y="-19" font-family="Helvetica,sans-Serif" font-size="10.00">/github/readium&#45;sdk&#45;D/ePub3</text>
<text text-anchor="middle" x="74" y="-7" font-family="Helvetica,sans-Serif" font-size="10.00">/utilities/run_loop_android.cpp</text>
</a>
</g>
</g>
<!-- Node1&#45;&gt;Node2 -->
<g id="edge1" class="edge"><title>Node1&#45;&gt;Node2</title>
<path fill="none" stroke="midnightblue" d="M246.158,-79.7597C211.946,-68.6789 171.804,-55.6773 138.891,-45.0174"/>
<polygon fill="midnightblue" stroke="midnightblue" points="245.512,-83.2293 256.104,-82.9809 247.669,-76.5699 245.512,-83.2293"/>
</g>
<!-- Node3 -->
<g id="node3" class="node"><title>Node3</title>
<g id="a_node3"><a xlink:href="run__loop__cf_8cpp.xhtml" target="_top" xlink:title="/Users/rkwright/Documents\l/github/readium&#45;sdk&#45;D/ePub3\l/utilities/run_loop_cf.cpp">
<polygon fill="white" stroke="black" points="165.966,-1 165.966,-45 312.034,-45 312.034,-1 165.966,-1"/>
<text text-anchor="start" x="173.966" y="-31" font-family="Helvetica,sans-Serif" font-size="10.00">/Users/rkwright/Documents</text>
<text text-anchor="start" x="173.966" y="-19" font-family="Helvetica,sans-Serif" font-size="10.00">/github/readium&#45;sdk&#45;D/ePub3</text>
<text text-anchor="middle" x="239" y="-7" font-family="Helvetica,sans-Serif" font-size="10.00">/utilities/run_loop_cf.cpp</text>
</a>
</g>
</g>
<!-- Node1&#45;&gt;Node3 -->
<g id="edge2" class="edge"><title>Node1&#45;&gt;Node3</title>
<path fill="none" stroke="midnightblue" d="M292.163,-75.866C281.813,-65.7685 270.326,-54.5617 260.685,-45.1564"/>
<polygon fill="midnightblue" stroke="midnightblue" points="289.853,-78.5029 299.455,-82.9809 294.742,-73.4924 289.853,-78.5029"/>
</g>
<!-- Node4 -->
<g id="node4" class="node"><title>Node4</title>
<g id="a_node4"><a xlink:href="run__loop__generic_8cpp.xhtml" target="_top" xlink:title="/Users/rkwright/Documents\l/github/readium&#45;sdk&#45;D/ePub3\l/utilities/run_loop_generic.cpp">
<polygon fill="white" stroke="black" points="329.848,-1 329.848,-45 478.152,-45 478.152,-1 329.848,-1"/>
<text text-anchor="start" x="337.848" y="-31" font-family="Helvetica,sans-Serif" font-size="10.00">/Users/rkwright/Documents</text>
<text text-anchor="start" x="337.848" y="-19" font-family="Helvetica,sans-Serif" font-size="10.00">/github/readium&#45;sdk&#45;D/ePub3</text>
<text text-anchor="middle" x="404" y="-7" font-family="Helvetica,sans-Serif" font-size="10.00">/utilities/run_loop_generic.cpp</text>
</a>
</g>
</g>
<!-- Node1&#45;&gt;Node4 -->
<g id="edge3" class="edge"><title>Node1&#45;&gt;Node4</title>
<path fill="none" stroke="midnightblue" d="M350.189,-75.866C360.665,-65.7685 372.292,-54.5617 382.05,-45.1564"/>
<polygon fill="midnightblue" stroke="midnightblue" points="347.578,-73.5212 342.807,-82.9809 352.436,-78.5612 347.578,-73.5212"/>
</g>
<!-- Node5 -->
<g id="node5" class="node"><title>Node5</title>
<g id="a_node5"><a xlink:href="run__loop__windows_8cpp.xhtml" target="_top" xlink:title="/Users/rkwright/Documents\l/github/readium&#45;sdk&#45;D/ePub3\l/utilities/run_loop_windows.cpp">
<polygon fill="white" stroke="black" points="496.072,-1 496.072,-45 649.928,-45 649.928,-1 496.072,-1"/>
<text text-anchor="start" x="504.072" y="-31" font-family="Helvetica,sans-Serif" font-size="10.00">/Users/rkwright/Documents</text>
<text text-anchor="start" x="504.072" y="-19" font-family="Helvetica,sans-Serif" font-size="10.00">/github/readium&#45;sdk&#45;D/ePub3</text>
<text text-anchor="middle" x="573" y="-7" font-family="Helvetica,sans-Serif" font-size="10.00">/utilities/run_loop_windows.cpp</text>
</a>
</g>
</g>
<!-- Node1&#45;&gt;Node5 -->
<g id="edge4" class="edge"><title>Node1&#45;&gt;Node5</title>
<path fill="none" stroke="midnightblue" d="M396.908,-79.9023C431.91,-68.7905 473.072,-55.7231 506.795,-45.0174"/>
<polygon fill="midnightblue" stroke="midnightblue" points="395.682,-76.6191 387.21,-82.9809 397.8,-83.291 395.682,-76.6191"/>
</g>
</g>
</svg>
