<?xml version="1.0" encoding="UTF-8" standalone="no"?>
<!DOCTYPE svg PUBLIC "-//W3C//DTD SVG 1.1//EN"
 "http://www.w3.org/Graphics/SVG/1.1/DTD/svg11.dtd">
<!-- Generated by graphviz version 2.30.0 (20130114.0426)
 -->
<!-- Title: /Users/rkwright/Documents/github/readium&#45;sdk&#45;D/ePub3/ePub/spine.cpp Pages: 1 -->
<svg width="2370pt" height="600pt"
 viewBox="0.00 0.00 2370.00 600.00" xmlns="http://www.w3.org/2000/svg" xmlns:xlink="http://www.w3.org/1999/xlink">
<g id="graph0" class="graph" transform="scale(1 1) rotate(0) translate(4 596)">
<title>/Users/rkwright/Documents/github/readium&#45;sdk&#45;D/ePub3/ePub/spine.cpp</title>
<polygon fill="white" stroke="white" points="-4,5 -4,-596 2367,-596 2367,5 -4,5"/>
<!-- Node1 -->
<g id="node1" class="node"><title>Node1</title>
<polygon fill="#bfbfbf" stroke="black" points="145.966,-547 145.966,-591 292.034,-591 292.034,-547 145.966,-547"/>
<text text-anchor="start" x="153.966" y="-577" font-family="Helvetica,sans-Serif" font-size="10.00">/Users/rkwright/Documents</text>
<text text-anchor="start" x="153.966" y="-565" font-family="Helvetica,sans-Serif" font-size="10.00">/github/readium&#45;sdk&#45;D/ePub3</text>
<text text-anchor="middle" x="219" y="-553" font-family="Helvetica,sans-Serif" font-size="10.00">/ePub/spine.cpp</text>
</g>
<!-- Node2 -->
<g id="node2" class="node"><title>Node2</title>
<g id="a_node2"><a xlink:href="spine_8h.xhtml" target="_top" xlink:title="spine.h">
<polygon fill="white" stroke="black" points="194.877,-489 194.877,-509 243.123,-509 243.123,-489 194.877,-489"/>
<text text-anchor="middle" x="219" y="-495" font-family="Helvetica,sans-Serif" font-size="10.00">spine.h</text>
</a>
</g>
</g>
<!-- Node1&#45;&gt;Node2 -->
<g id="edge1" class="edge"><title>Node1&#45;&gt;Node2</title>
<path fill="none" stroke="midnightblue" d="M219,-546.857C219,-538.074 219,-527.948 219,-519.362"/>
<polygon fill="midnightblue" stroke="midnightblue" points="222.5,-519.204 219,-509.204 215.5,-519.204 222.5,-519.204"/>
</g>
<!-- Node33 -->
<g id="node33" class="node"><title>Node33</title>
<g id="a_node33"><a xlink:href="package_8h.xhtml" target="_top" xlink:title="package.h">
<polygon fill="white" stroke="black" points="1120.93,-489 1120.93,-509 1183.07,-509 1183.07,-489 1120.93,-489"/>
<text text-anchor="middle" x="1152" y="-495" font-family="Helvetica,sans-Serif" font-size="10.00">package.h</text>
</a>
</g>
</g>
<!-- Node1&#45;&gt;Node33 -->
<g id="edge40" class="edge"><title>Node1&#45;&gt;Node33</title>
<path fill="none" stroke="midnightblue" d="M292.211,-562.664C478.289,-549.102 964.905,-513.636 1110.36,-503.035"/>
<polygon fill="midnightblue" stroke="midnightblue" points="1110.9,-506.505 1120.62,-502.287 1110.4,-499.523 1110.9,-506.505"/>
</g>
<!-- Node26 -->
<g id="node26" class="node"><title>Node26</title>
<polygon fill="white" stroke="#bfbfbf" points="-0.233887,-297 -0.233887,-317 100.234,-317 100.234,-297 -0.233887,-297"/>
<text text-anchor="middle" x="50" y="-303" font-family="Helvetica,sans-Serif" font-size="10.00">REGEX_INCLUDE</text>
</g>
<!-- Node1&#45;&gt;Node26 -->
<g id="edge73" class="edge"><title>Node1&#45;&gt;Node26</title>
<path fill="none" stroke="midnightblue" d="M151.536,-546.811C107.527,-529.077 53.5036,-498.978 27,-452 4.17668,-411.546 25.8805,-355.115 40.011,-326.386"/>
<polygon fill="midnightblue" stroke="midnightblue" points="43.3082,-327.628 44.7779,-317.136 37.0859,-324.421 43.3082,-327.628"/>
</g>
<!-- Node3 -->
<g id="node3" class="node"><title>Node3</title>
<polygon fill="white" stroke="#bfbfbf" points="365.079,-425 365.079,-445 448.921,-445 448.921,-425 365.079,-425"/>
<text text-anchor="middle" x="407" y="-431" font-family="Helvetica,sans-Serif" font-size="10.00">ePub3/epub3.h</text>
</g>
<!-- Node2&#45;&gt;Node3 -->
<g id="edge2" class="edge"><title>Node2&#45;&gt;Node3</title>
<path fill="none" stroke="midnightblue" d="M243.193,-490.022C275.329,-479.424 332.401,-460.602 369.974,-448.211"/>
<polygon fill="midnightblue" stroke="midnightblue" points="371.147,-451.509 379.548,-445.053 368.955,-444.862 371.147,-451.509"/>
</g>
<!-- Node4 -->
<g id="node4" class="node"><title>Node4</title>
<g id="a_node4"><a xlink:href="utfstring_8h.xhtml" target="_top" xlink:title="ePub3/utilities/utfstring.h">
<polygon fill="white" stroke="black" points="567.525,-361 567.525,-381 692.475,-381 692.475,-361 567.525,-361"/>
<text text-anchor="middle" x="630" y="-367" font-family="Helvetica,sans-Serif" font-size="10.00">ePub3/utilities/utfstring.h</text>
</a>
</g>
</g>
<!-- Node2&#45;&gt;Node4 -->
<g id="edge3" class="edge"><title>Node2&#45;&gt;Node4</title>
<path fill="none" stroke="midnightblue" d="M194.804,-496.59C166.204,-493.475 119.754,-483.544 98,-452 89.4209,-439.56 87.7854,-429.136 98,-418 128.434,-384.821 419.026,-375.508 557.414,-372.947"/>
<polygon fill="midnightblue" stroke="midnightblue" points="557.575,-376.444 567.511,-372.767 557.45,-369.445 557.575,-376.444"/>
</g>
<!-- Node30 -->
<g id="node30" class="node"><title>Node30</title>
<g id="a_node30"><a xlink:href="xml__identifiable_8h.xhtml" target="_top" xlink:title="ePub3/utilities/xml\l_identifiable.h">
<polygon fill="white" stroke="black" points="466.705,-419 466.705,-451 563.295,-451 563.295,-419 466.705,-419"/>
<text text-anchor="start" x="474.705" y="-437" font-family="Helvetica,sans-Serif" font-size="10.00">ePub3/utilities/xml</text>
<text text-anchor="middle" x="515" y="-425" font-family="Helvetica,sans-Serif" font-size="10.00">_identifiable.h</text>
</a>
</g>
</g>
<!-- Node2&#45;&gt;Node30 -->
<g id="edge35" class="edge"><title>Node2&#45;&gt;Node30</title>
<path fill="none" stroke="midnightblue" d="M243.46,-493.924C285.091,-486.846 372.558,-471.375 456.679,-451.966"/>
<polygon fill="midnightblue" stroke="midnightblue" points="457.707,-455.32 466.652,-449.642 456.119,-448.502 457.707,-455.32"/>
</g>
<!-- Node31 -->
<g id="node31" class="node"><title>Node31</title>
<polygon fill="white" stroke="#bfbfbf" points="221.234,-425 221.234,-445 346.766,-445 346.766,-425 221.234,-425"/>
<text text-anchor="middle" x="284" y="-431" font-family="Helvetica,sans-Serif" font-size="10.00">ePub3/property_holder.h</text>
</g>
<!-- Node2&#45;&gt;Node31 -->
<g id="edge37" class="edge"><title>Node2&#45;&gt;Node31</title>
<path fill="none" stroke="midnightblue" d="M228.591,-488.852C238.672,-479.236 254.737,-463.913 266.978,-452.236"/>
<polygon fill="midnightblue" stroke="midnightblue" points="269.549,-454.621 274.37,-445.186 264.718,-449.555 269.549,-454.621"/>
</g>
<!-- Node14 -->
<g id="node14" class="node"><title>Node14</title>
<polygon fill="white" stroke="#bfbfbf" points="705.384,-233 705.384,-253 748.616,-253 748.616,-233 705.384,-233"/>
<text text-anchor="middle" x="727" y="-239" font-family="Helvetica,sans-Serif" font-size="10.00">vector</text>
</g>
<!-- Node2&#45;&gt;Node14 -->
<g id="edge38" class="edge"><title>Node2&#45;&gt;Node14</title>
<path fill="none" stroke="midnightblue" d="M194.841,-497.479C163.949,-495.354 111.528,-486.522 87,-452 78.2478,-439.682 77.7309,-429.934 87,-418 190.546,-284.68 306.056,-403.444 455,-324 474.996,-313.335 472.714,-300.102 493,-290 510.918,-281.078 635.301,-259.385 695.071,-249.308"/>
<polygon fill="midnightblue" stroke="midnightblue" points="695.818,-252.731 705.101,-247.623 694.659,-245.828 695.818,-252.731"/>
</g>
<!-- Node32 -->
<g id="node32" class="node"><title>Node32</title>
<polygon fill="white" stroke="#bfbfbf" points="106.695,-425 106.695,-445 203.305,-445 203.305,-425 106.695,-425"/>
<text text-anchor="middle" x="155" y="-431" font-family="Helvetica,sans-Serif" font-size="10.00">ePub3/xml/node.h</text>
</g>
<!-- Node2&#45;&gt;Node32 -->
<g id="edge39" class="edge"><title>Node2&#45;&gt;Node32</title>
<path fill="none" stroke="midnightblue" d="M209.557,-488.852C199.631,-479.236 183.813,-463.913 171.76,-452.236"/>
<polygon fill="midnightblue" stroke="midnightblue" points="174.1,-449.63 164.482,-445.186 169.229,-454.658 174.1,-449.63"/>
</g>
<!-- Node5 -->
<g id="node5" class="node"><title>Node5</title>
<g id="a_node5"><a xlink:href="basic_8h.xhtml" target="_top" xlink:title="ePub3/utilities/basic.h">
<polygon fill="white" stroke="black" points="333.638,-297 333.638,-317 446.362,-317 446.362,-297 333.638,-297"/>
<text text-anchor="middle" x="390" y="-303" font-family="Helvetica,sans-Serif" font-size="10.00">ePub3/utilities/basic.h</text>
</a>
</g>
</g>
<!-- Node4&#45;&gt;Node5 -->
<g id="edge4" class="edge"><title>Node4&#45;&gt;Node5</title>
<path fill="none" stroke="midnightblue" d="M595.102,-360.985C552.71,-350.033 481.126,-331.541 434.726,-319.554"/>
<polygon fill="midnightblue" stroke="midnightblue" points="435.498,-316.139 424.94,-317.026 433.747,-322.916 435.498,-316.139"/>
</g>
<!-- Node16 -->
<g id="node16" class="node"><title>Node16</title>
<g id="a_node16"><a xlink:href="integer__sequence_8h.xhtml" target="_top" xlink:title="ePub3/utilities/integer\l_sequence.h">
<polygon fill="white" stroke="black" points="204.192,-291 204.192,-323 315.808,-323 315.808,-291 204.192,-291"/>
<text text-anchor="start" x="212.192" y="-309" font-family="Helvetica,sans-Serif" font-size="10.00">ePub3/utilities/integer</text>
<text text-anchor="middle" x="260" y="-297" font-family="Helvetica,sans-Serif" font-size="10.00">_sequence.h</text>
</a>
</g>
</g>
<!-- Node4&#45;&gt;Node16 -->
<g id="edge15" class="edge"><title>Node4&#45;&gt;Node16</title>
<path fill="none" stroke="midnightblue" d="M567.499,-362.279C507.879,-354.528 415.373,-341.5 325.985,-324.093"/>
<polygon fill="midnightblue" stroke="midnightblue" points="326.435,-320.614 315.947,-322.117 325.083,-327.483 326.435,-320.614"/>
</g>
<!-- Node17 -->
<g id="node17" class="node"><title>Node17</title>
<g id="a_node17"><a xlink:href="string__view_8h.xhtml" target="_top" xlink:title="ePub3/utilities/string\l_view.h">
<polygon fill="white" stroke="black" points="1981.25,-291 1981.25,-323 2086.75,-323 2086.75,-291 1981.25,-291"/>
<text text-anchor="start" x="1989.25" y="-309" font-family="Helvetica,sans-Serif" font-size="10.00">ePub3/utilities/string</text>
<text text-anchor="middle" x="2034" y="-297" font-family="Helvetica,sans-Serif" font-size="10.00">_view.h</text>
</a>
</g>
</g>
<!-- Node4&#45;&gt;Node17 -->
<g id="edge17" class="edge"><title>Node4&#45;&gt;Node17</title>
<path fill="none" stroke="midnightblue" d="M692.596,-367.236C925.144,-356.967 1737.94,-321.074 1971.06,-310.78"/>
<polygon fill="midnightblue" stroke="midnightblue" points="1971.23,-314.275 1981.07,-310.338 1970.92,-307.282 1971.23,-314.275"/>
</g>
<!-- Node19 -->
<g id="node19" class="node"><title>Node19</title>
<polygon fill="white" stroke="#bfbfbf" points="1722.77,-233 1722.77,-253 1763.23,-253 1763.23,-233 1722.77,-233"/>
<text text-anchor="middle" x="1743" y="-239" font-family="Helvetica,sans-Serif" font-size="10.00">string</text>
</g>
<!-- Node4&#45;&gt;Node19 -->
<g id="edge26" class="edge"><title>Node4&#45;&gt;Node19</title>
<path fill="none" stroke="midnightblue" d="M692.741,-362.768C815.233,-348.664 1094.81,-316.538 1330,-290 1472.9,-273.876 1643.67,-254.972 1712.26,-247.393"/>
<polygon fill="midnightblue" stroke="midnightblue" points="1712.82,-250.853 1722.37,-246.277 1712.05,-243.896 1712.82,-250.853"/>
</g>
<!-- Node24 -->
<g id="node24" class="node"><title>Node24</title>
<polygon fill="white" stroke="#bfbfbf" points="755.438,-297 755.438,-317 802.562,-317 802.562,-297 755.438,-297"/>
<text text-anchor="middle" x="779" y="-303" font-family="Helvetica,sans-Serif" font-size="10.00">iterator</text>
</g>
<!-- Node4&#45;&gt;Node24 -->
<g id="edge27" class="edge"><title>Node4&#45;&gt;Node24</title>
<path fill="none" stroke="midnightblue" d="M652.129,-360.873C674.543,-351.617 710.203,-336.865 741,-324 743.229,-323.069 745.531,-322.105 747.848,-321.133"/>
<polygon fill="midnightblue" stroke="midnightblue" points="749.443,-324.26 757.306,-317.159 746.731,-317.806 749.443,-324.26"/>
</g>
<!-- Node25 -->
<g id="node25" class="node"><title>Node25</title>
<polygon fill="white" stroke="#bfbfbf" points="501.936,-297 501.936,-317 544.064,-317 544.064,-297 501.936,-297"/>
<text text-anchor="middle" x="523" y="-303" font-family="Helvetica,sans-Serif" font-size="10.00">locale</text>
</g>
<!-- Node4&#45;&gt;Node25 -->
<g id="edge28" class="edge"><title>Node4&#45;&gt;Node25</title>
<path fill="none" stroke="midnightblue" d="M614.212,-360.852C596.668,-350.686 568.118,-334.143 547.63,-322.272"/>
<polygon fill="midnightblue" stroke="midnightblue" points="549.26,-319.171 538.853,-317.186 545.751,-325.228 549.26,-319.171"/>
</g>
<!-- Node4&#45;&gt;Node14 -->
<g id="edge29" class="edge"><title>Node4&#45;&gt;Node14</title>
<path fill="none" stroke="midnightblue" d="M655.856,-360.977C673.147,-353.636 695.028,-341.585 708,-324 721.138,-306.189 725.332,-280.61 726.596,-263.203"/>
<polygon fill="midnightblue" stroke="midnightblue" points="730.097,-263.262 727.068,-253.109 723.105,-262.935 730.097,-263.262"/>
</g>
<!-- Node4&#45;&gt;Node26 -->
<g id="edge30" class="edge"><title>Node4&#45;&gt;Node26</title>
<path fill="none" stroke="midnightblue" d="M567.319,-363.462C482.773,-354.623 327.507,-338.317 195,-324 167.214,-320.998 136.44,-317.611 110.417,-314.729"/>
<polygon fill="midnightblue" stroke="midnightblue" points="110.648,-311.233 100.323,-313.61 109.876,-318.19 110.648,-311.233"/>
</g>
<!-- Node27 -->
<g id="node27" class="node"><title>Node27</title>
<polygon fill="white" stroke="#bfbfbf" points="1339.27,-297 1339.27,-317 1374.73,-317 1374.73,-297 1339.27,-297"/>
<text text-anchor="middle" x="1357" y="-303" font-family="Helvetica,sans-Serif" font-size="10.00">map</text>
</g>
<!-- Node4&#45;&gt;Node27 -->
<g id="edge31" class="edge"><title>Node4&#45;&gt;Node27</title>
<path fill="none" stroke="midnightblue" d="M692.613,-364.66C843.469,-351.795 1222.44,-319.476 1328.83,-310.402"/>
<polygon fill="midnightblue" stroke="midnightblue" points="1329.41,-313.866 1339.08,-309.528 1328.82,-306.891 1329.41,-313.866"/>
</g>
<!-- Node28 -->
<g id="node28" class="node"><title>Node28</title>
<polygon fill="white" stroke="#bfbfbf" points="561.599,-297 561.599,-317 620.401,-317 620.401,-297 561.599,-297"/>
<text text-anchor="middle" x="591" y="-303" font-family="Helvetica,sans-Serif" font-size="10.00">stdexcept</text>
</g>
<!-- Node4&#45;&gt;Node28 -->
<g id="edge32" class="edge"><title>Node4&#45;&gt;Node28</title>
<path fill="none" stroke="midnightblue" d="M624.245,-360.852C618.485,-351.694 609.468,-337.359 602.277,-325.928"/>
<polygon fill="midnightblue" stroke="midnightblue" points="605.065,-323.787 596.778,-317.186 599.14,-327.514 605.065,-323.787"/>
</g>
<!-- Node20 -->
<g id="node20" class="node"><title>Node20</title>
<polygon fill="white" stroke="#bfbfbf" points="1462.61,-233 1462.61,-253 1501.39,-253 1501.39,-233 1462.61,-233"/>
<text text-anchor="middle" x="1482" y="-239" font-family="Helvetica,sans-Serif" font-size="10.00">limits</text>
</g>
<!-- Node4&#45;&gt;Node20 -->
<g id="edge33" class="edge"><title>Node4&#45;&gt;Node20</title>
<path fill="none" stroke="midnightblue" d="M690.842,-360.956C727.026,-354.035 773.109,-342.462 811,-324 833.217,-313.175 831.919,-298.834 855,-290 966.115,-247.469 1342.7,-244.017 1452.02,-243.929"/>
<polygon fill="midnightblue" stroke="midnightblue" points="1452.31,-247.428 1462.32,-243.93 1452.32,-240.428 1452.31,-247.428"/>
</g>
<!-- Node29 -->
<g id="node29" class="node"><title>Node29</title>
<polygon fill="white" stroke="#bfbfbf" points="638.761,-297 638.761,-317 699.239,-317 699.239,-297 638.761,-297"/>
<text text-anchor="middle" x="669" y="-303" font-family="Helvetica,sans-Serif" font-size="10.00">utf8/utf8.h</text>
</g>
<!-- Node4&#45;&gt;Node29 -->
<g id="edge34" class="edge"><title>Node4&#45;&gt;Node29</title>
<path fill="none" stroke="midnightblue" d="M635.755,-360.852C641.515,-351.694 650.532,-337.359 657.723,-325.928"/>
<polygon fill="midnightblue" stroke="midnightblue" points="660.86,-327.514 663.222,-317.186 654.935,-323.787 660.86,-327.514"/>
</g>
<!-- Node6 -->
<g id="node6" class="node"><title>Node6</title>
<g id="a_node6"><a xlink:href="base_8h.xhtml" target="_top" xlink:title="ePub3/base.h">
<polygon fill="white" stroke="black" points="1070.14,-175 1070.14,-195 1147.86,-195 1147.86,-175 1070.14,-175"/>
<text text-anchor="middle" x="1109" y="-181" font-family="Helvetica,sans-Serif" font-size="10.00">ePub3/base.h</text>
</a>
</g>
</g>
<!-- Node5&#45;&gt;Node6 -->
<g id="edge5" class="edge"><title>Node5&#45;&gt;Node6</title>
<path fill="none" stroke="midnightblue" d="M385.8,-296.844C379.364,-281.279 369.448,-249.638 386,-232 409.058,-207.429 900.271,-191.758 1059.59,-187.307"/>
<polygon fill="midnightblue" stroke="midnightblue" points="1060.14,-190.793 1070.04,-187.018 1059.94,-183.796 1060.14,-190.793"/>
</g>
<!-- Node11 -->
<g id="node11" class="node"><title>Node11</title>
<polygon fill="white" stroke="#bfbfbf" points="464.815,-233 464.815,-253 579.185,-253 579.185,-233 464.815,-233"/>
<text text-anchor="middle" x="522" y="-239" font-family="Helvetica,sans-Serif" font-size="10.00">ePub3/xml/xmlstring.h</text>
</g>
<!-- Node5&#45;&gt;Node11 -->
<g id="edge10" class="edge"><title>Node5&#45;&gt;Node11</title>
<path fill="none" stroke="midnightblue" d="M409.194,-296.985C431.385,-286.561 468.121,-269.307 493.616,-257.332"/>
<polygon fill="midnightblue" stroke="midnightblue" points="495.22,-260.446 502.783,-253.026 492.244,-254.11 495.22,-260.446"/>
</g>
<!-- Node12 -->
<g id="node12" class="node"><title>Node12</title>
<polygon fill="white" stroke="#bfbfbf" points="395.219,-233 395.219,-253 446.781,-253 446.781,-233 395.219,-233"/>
<text text-anchor="middle" x="421" y="-239" font-family="Helvetica,sans-Serif" font-size="10.00">sstream</text>
</g>
<!-- Node5&#45;&gt;Node12 -->
<g id="edge11" class="edge"><title>Node5&#45;&gt;Node12</title>
<path fill="none" stroke="midnightblue" d="M394.574,-296.852C399.107,-287.785 406.177,-273.645 411.864,-262.272"/>
<polygon fill="midnightblue" stroke="midnightblue" points="415.065,-263.695 416.407,-253.186 408.804,-260.565 415.065,-263.695"/>
</g>
<!-- Node13 -->
<g id="node13" class="node"><title>Node13</title>
<polygon fill="white" stroke="#bfbfbf" points="2051.94,-175 2051.94,-195 2104.06,-195 2104.06,-175 2051.94,-175"/>
<text text-anchor="middle" x="2078" y="-181" font-family="Helvetica,sans-Serif" font-size="10.00">memory</text>
</g>
<!-- Node5&#45;&gt;Node13 -->
<g id="edge12" class="edge"><title>Node5&#45;&gt;Node13</title>
<path fill="none" stroke="midnightblue" d="M423.542,-296.97C491.364,-278.864 642.858,-239.233 696,-232 967.248,-195.082 1852.03,-187.434 2041.91,-186.205"/>
<polygon fill="midnightblue" stroke="midnightblue" points="2041.95,-189.705 2051.92,-186.142 2041.9,-182.705 2041.95,-189.705"/>
</g>
<!-- Node5&#45;&gt;Node14 -->
<g id="edge13" class="edge"><title>Node5&#45;&gt;Node14</title>
<path fill="none" stroke="midnightblue" d="M427.701,-296.989C438.139,-294.602 449.488,-292.105 460,-290 471.465,-287.704 626.231,-261.218 694.747,-249.509"/>
<polygon fill="midnightblue" stroke="midnightblue" points="695.7,-252.897 704.968,-247.762 694.521,-245.997 695.7,-252.897"/>
</g>
<!-- Node15 -->
<g id="node15" class="node"><title>Node15</title>
<polygon fill="white" stroke="#bfbfbf" points="1009.5,-233 1009.5,-253 1038.5,-253 1038.5,-233 1009.5,-233"/>
<text text-anchor="middle" x="1023.61" y="-239" font-family="Helvetica,sans-Serif" font-size="10.00">list</text>
</g>
<!-- Node5&#45;&gt;Node15 -->
<g id="edge14" class="edge"><title>Node5&#45;&gt;Node15</title>
<path fill="none" stroke="midnightblue" d="M443.63,-296.965C459.495,-294.483 476.921,-291.943 493,-290 687.379,-266.51 923.196,-250.425 999.157,-245.552"/>
<polygon fill="midnightblue" stroke="midnightblue" points="999.423,-249.042 1009.18,-244.915 998.979,-242.056 999.423,-249.042"/>
</g>
<!-- Node7 -->
<g id="node7" class="node"><title>Node7</title>
<g id="a_node7"><a xlink:href="__config_8h.xhtml" target="_top" xlink:title="_config.h">
<polygon fill="white" stroke="black" points="1045.71,-117 1045.71,-137 1102.29,-137 1102.29,-117 1045.71,-117"/>
<text text-anchor="middle" x="1074" y="-123" font-family="Helvetica,sans-Serif" font-size="10.00">_config.h</text>
</a>
</g>
</g>
<!-- Node6&#45;&gt;Node7 -->
<g id="edge6" class="edge"><title>Node6&#45;&gt;Node7</title>
<path fill="none" stroke="midnightblue" d="M1103.22,-174.753C1098.28,-166.843 1091.02,-155.237 1084.98,-145.568"/>
<polygon fill="midnightblue" stroke="midnightblue" points="1087.94,-143.7 1079.67,-137.075 1082,-147.41 1087.94,-143.7"/>
</g>
<!-- Node10 -->
<g id="node10" class="node"><title>Node10</title>
<polygon fill="white" stroke="#bfbfbf" points="1120.16,-117 1120.16,-137 1167.84,-137 1167.84,-117 1120.16,-117"/>
<text text-anchor="middle" x="1144" y="-123" font-family="Helvetica,sans-Serif" font-size="10.00">stdlib.h</text>
</g>
<!-- Node6&#45;&gt;Node10 -->
<g id="edge9" class="edge"><title>Node6&#45;&gt;Node10</title>
<path fill="none" stroke="midnightblue" d="M1114.78,-174.753C1119.72,-166.843 1126.98,-155.237 1133.02,-145.568"/>
<polygon fill="midnightblue" stroke="midnightblue" points="1136,-147.41 1138.33,-137.075 1130.06,-143.7 1136,-147.41"/>
</g>
<!-- Node8 -->
<g id="node8" class="node"><title>Node8</title>
<g id="a_node8"><a xlink:href="__platform_8h.xhtml" target="_top" xlink:title="_platform.h">
<polygon fill="white" stroke="black" points="1040.99,-59 1040.99,-79 1107.01,-79 1107.01,-59 1040.99,-59"/>
<text text-anchor="middle" x="1074" y="-65" font-family="Helvetica,sans-Serif" font-size="10.00">_platform.h</text>
</a>
</g>
</g>
<!-- Node7&#45;&gt;Node8 -->
<g id="edge7" class="edge"><title>Node7&#45;&gt;Node8</title>
<path fill="none" stroke="midnightblue" d="M1074,-116.753C1074,-109.25 1074,-98.4238 1074,-89.0781"/>
<polygon fill="midnightblue" stroke="midnightblue" points="1077.5,-89.0752 1074,-79.0752 1070.5,-89.0752 1077.5,-89.0752"/>
</g>
<!-- Node9 -->
<g id="node9" class="node"><title>Node9</title>
<g id="a_node9"><a xlink:href="__compiler_8h.xhtml" target="_top" xlink:title="_compiler.h">
<polygon fill="white" stroke="black" points="1040.43,-1 1040.43,-21 1107.57,-21 1107.57,-1 1040.43,-1"/>
<text text-anchor="middle" x="1074" y="-7" font-family="Helvetica,sans-Serif" font-size="10.00">_compiler.h</text>
</a>
</g>
</g>
<!-- Node8&#45;&gt;Node9 -->
<g id="edge8" class="edge"><title>Node8&#45;&gt;Node9</title>
<path fill="none" stroke="midnightblue" d="M1074,-58.7527C1074,-51.2504 1074,-40.4238 1074,-31.0781"/>
<polygon fill="midnightblue" stroke="midnightblue" points="1077.5,-31.0752 1074,-21.0752 1070.5,-31.0752 1077.5,-31.0752"/>
</g>
<!-- Node16&#45;&gt;Node6 -->
<g id="edge16" class="edge"><title>Node16&#45;&gt;Node6</title>
<path fill="none" stroke="midnightblue" d="M277.057,-290.818C298.138,-273.088 335.913,-244.585 374,-232 501.761,-189.784 916.299,-185.892 1059.67,-185.842"/>
<polygon fill="midnightblue" stroke="midnightblue" points="1059.92,-189.342 1069.92,-185.845 1059.92,-182.342 1059.92,-189.342"/>
</g>
<!-- Node18 -->
<g id="node18" class="node"><title>Node18</title>
<polygon fill="white" stroke="#bfbfbf" points="2052.93,-233 2052.93,-253 2115.07,-253 2115.07,-233 2052.93,-233"/>
<text text-anchor="middle" x="2084" y="-239" font-family="Helvetica,sans-Serif" font-size="10.00">type_traits</text>
</g>
<!-- Node17&#45;&gt;Node18 -->
<g id="edge18" class="edge"><title>Node17&#45;&gt;Node18</title>
<path fill="none" stroke="midnightblue" d="M2046.1,-290.992C2053.36,-281.992 2062.62,-270.516 2070.16,-261.157"/>
<polygon fill="midnightblue" stroke="midnightblue" points="2072.95,-263.272 2076.51,-253.29 2067.51,-258.877 2072.95,-263.272"/>
</g>
<!-- Node17&#45;&gt;Node19 -->
<g id="edge19" class="edge"><title>Node17&#45;&gt;Node19</title>
<path fill="none" stroke="midnightblue" d="M1981.03,-293.082C1976.29,-292.008 1971.56,-290.965 1967,-290 1883.89,-272.418 1859.01,-276.12 1773.37,-254.076"/>
<polygon fill="midnightblue" stroke="midnightblue" points="1774.04,-250.633 1763.48,-251.486 1772.27,-257.404 1774.04,-250.633"/>
</g>
<!-- Node17&#45;&gt;Node20 -->
<g id="edge20" class="edge"><title>Node17&#45;&gt;Node20</title>
<path fill="none" stroke="midnightblue" d="M1981.19,-297.44C1964.52,-294.875 1946.01,-292.17 1929,-290 1772.21,-269.999 1583.62,-252.845 1511.77,-246.559"/>
<polygon fill="midnightblue" stroke="midnightblue" points="1511.91,-243.058 1501.65,-245.678 1511.3,-250.032 1511.91,-243.058"/>
</g>
<!-- Node21 -->
<g id="node21" class="node"><title>Node21</title>
<polygon fill="white" stroke="#bfbfbf" points="1942.83,-233 1942.83,-253 1997.17,-253 1997.17,-233 1942.83,-233"/>
<text text-anchor="middle" x="1970" y="-239" font-family="Helvetica,sans-Serif" font-size="10.00">iostream</text>
</g>
<!-- Node17&#45;&gt;Node21 -->
<g id="edge21" class="edge"><title>Node17&#45;&gt;Node21</title>
<path fill="none" stroke="midnightblue" d="M2018.51,-290.992C2008.93,-281.716 1996.64,-269.811 1986.83,-260.304"/>
<polygon fill="midnightblue" stroke="midnightblue" points="1989.21,-257.735 1979.59,-253.29 1984.34,-262.762 1989.21,-257.735"/>
</g>
<!-- Node22 -->
<g id="node22" class="node"><title>Node22</title>
<polygon fill="white" stroke="#bfbfbf" points="1781.44,-233 1781.44,-253 1838.56,-253 1838.56,-233 1781.44,-233"/>
<text text-anchor="middle" x="1810" y="-239" font-family="Helvetica,sans-Serif" font-size="10.00">algorithm</text>
</g>
<!-- Node17&#45;&gt;Node22 -->
<g id="edge22" class="edge"><title>Node17&#45;&gt;Node22</title>
<path fill="none" stroke="midnightblue" d="M1981.2,-291.385C1940.53,-280.128 1885.24,-264.826 1848.63,-254.693"/>
<polygon fill="midnightblue" stroke="midnightblue" points="1849.4,-251.274 1838.83,-251.979 1847.53,-258.02 1849.4,-251.274"/>
</g>
<!-- Node23 -->
<g id="node23" class="node"><title>Node23</title>
<g id="a_node23"><a xlink:href="____strhash_8h.xhtml" target="_top" xlink:title="__strhash.h">
<polygon fill="white" stroke="black" points="1856.87,-233 1856.87,-253 1925.13,-253 1925.13,-233 1856.87,-233"/>
<text text-anchor="middle" x="1891" y="-239" font-family="Helvetica,sans-Serif" font-size="10.00">__strhash.h</text>
</a>
</g>
</g>
<!-- Node17&#45;&gt;Node23 -->
<g id="edge23" class="edge"><title>Node17&#45;&gt;Node23</title>
<path fill="none" stroke="midnightblue" d="M1999.38,-290.992C1975.52,-280.643 1944.1,-267.021 1921.24,-257.109"/>
<polygon fill="midnightblue" stroke="midnightblue" points="1922.58,-253.876 1912.01,-253.109 1919.79,-260.298 1922.58,-253.876"/>
</g>
<!-- Node23&#45;&gt;Node6 -->
<g id="edge24" class="edge"><title>Node23&#45;&gt;Node6</title>
<path fill="none" stroke="midnightblue" d="M1856.51,-233.609C1853.31,-232.997 1850.1,-232.446 1847,-232 1589.52,-194.963 1277.27,-187.738 1158.27,-186.335"/>
<polygon fill="midnightblue" stroke="midnightblue" points="1158.07,-182.833 1148.03,-186.223 1158,-189.832 1158.07,-182.833"/>
</g>
<!-- Node23&#45;&gt;Node13 -->
<g id="edge25" class="edge"><title>Node23&#45;&gt;Node13</title>
<path fill="none" stroke="midnightblue" d="M1921.46,-232.878C1954.43,-223.005 2006.97,-207.271 2041.97,-196.791"/>
<polygon fill="midnightblue" stroke="midnightblue" points="2043.21,-200.073 2051.78,-193.852 2041.2,-193.367 2043.21,-200.073"/>
</g>
<!-- Node30&#45;&gt;Node4 -->
<g id="edge36" class="edge"><title>Node30&#45;&gt;Node4</title>
<path fill="none" stroke="midnightblue" d="M542.838,-418.992C561.518,-408.92 585.95,-395.749 604.193,-385.914"/>
<polygon fill="midnightblue" stroke="midnightblue" points="605.963,-388.935 613.105,-381.109 602.641,-382.774 605.963,-388.935"/>
</g>
<!-- Node33&#45;&gt;Node3 -->
<g id="edge41" class="edge"><title>Node33&#45;&gt;Node3</title>
<path fill="none" stroke="midnightblue" d="M1120.89,-498.553C1022.63,-499.745 710.509,-499.279 458,-452 452.527,-450.975 446.818,-449.552 441.285,-447.973"/>
<polygon fill="midnightblue" stroke="midnightblue" points="442.188,-444.59 431.602,-445.016 440.144,-451.284 442.188,-444.59"/>
</g>
<!-- Node33&#45;&gt;Node19 -->
<g id="edge42" class="edge"><title>Node33&#45;&gt;Node19</title>
<path fill="none" stroke="midnightblue" d="M1183.48,-498.179C1320.24,-498.68 1858.48,-497.716 1917,-452 1973.74,-407.675 1969.44,-339.331 1917,-290 1870.9,-246.637 1838.8,-270.347 1773.42,-254.038"/>
<polygon fill="midnightblue" stroke="midnightblue" points="1774.09,-250.594 1763.52,-251.329 1772.24,-257.346 1774.09,-250.594"/>
</g>
<!-- Node33&#45;&gt;Node14 -->
<g id="edge43" class="edge"><title>Node33&#45;&gt;Node14</title>
<path fill="none" stroke="midnightblue" d="M1183.35,-498.364C1312.34,-499.538 1797.46,-500.671 1843,-452 1856.86,-437.188 1838.58,-366.369 1832,-360 1752.7,-283.256 932.187,-251.023 758.991,-245.048"/>
<polygon fill="midnightblue" stroke="midnightblue" points="758.868,-241.542 748.755,-244.7 758.63,-248.538 758.868,-241.542"/>
</g>
<!-- Node33&#45;&gt;Node27 -->
<g id="edge44" class="edge"><title>Node33&#45;&gt;Node27</title>
<path fill="none" stroke="midnightblue" d="M1183.11,-498.282C1308.9,-499.101 1775.19,-498.934 1819,-452 1946.72,-315.167 1502.21,-307.437 1384.75,-307.733"/>
<polygon fill="midnightblue" stroke="midnightblue" points="1384.71,-304.233 1374.73,-307.781 1384.75,-311.233 1384.71,-304.233"/>
</g>
<!-- Node33&#45;&gt;Node15 -->
<g id="edge45" class="edge"><title>Node33&#45;&gt;Node15</title>
<path fill="none" stroke="midnightblue" d="M1183.52,-497.229C1321.48,-493.707 1866.41,-478.171 1891,-452 1940.3,-399.531 1940.54,-342.243 1891,-290 1861.24,-258.62 1187.85,-246.531 1048.93,-244.367"/>
<polygon fill="midnightblue" stroke="midnightblue" points="1048.89,-240.866 1038.84,-244.213 1048.79,-247.865 1048.89,-240.866"/>
</g>
<!-- Node33&#45;&gt;Node32 -->
<g id="edge46" class="edge"><title>Node33&#45;&gt;Node32</title>
<path fill="none" stroke="midnightblue" d="M1120.55,-497.41C978.147,-494.595 392.823,-481.418 212,-452 205.609,-450.96 198.911,-449.463 192.445,-447.797"/>
<polygon fill="midnightblue" stroke="midnightblue" points="193.122,-444.353 182.552,-445.081 191.268,-451.103 193.122,-444.353"/>
</g>
<!-- Node34 -->
<g id="node34" class="node"><title>Node34</title>
<g id="a_node34"><a xlink:href="owned__by_8h.xhtml" target="_top" xlink:title="ePub3/utilities/owned_by.h">
<polygon fill="white" stroke="black" points="2227.88,-297 2227.88,-317 2362.12,-317 2362.12,-297 2227.88,-297"/>
<text text-anchor="middle" x="2295" y="-303" font-family="Helvetica,sans-Serif" font-size="10.00">ePub3/utilities/owned_by.h</text>
</a>
</g>
</g>
<!-- Node33&#45;&gt;Node34 -->
<g id="edge47" class="edge"><title>Node33&#45;&gt;Node34</title>
<path fill="none" stroke="midnightblue" d="M1183.45,-497.931C1317.06,-497.387 1837.89,-492.648 1996,-452 2106.12,-423.689 2224.14,-353.455 2272.45,-322.756"/>
<polygon fill="midnightblue" stroke="midnightblue" points="2274.63,-325.515 2281.15,-317.168 2270.85,-319.623 2274.63,-325.515"/>
</g>
<!-- Node35 -->
<g id="node35" class="node"><title>Node35</title>
<polygon fill="white" stroke="#bfbfbf" points="734.914,-425 734.914,-445 837.086,-445 837.086,-425 734.914,-425"/>
<text text-anchor="middle" x="786" y="-431" font-family="Helvetica,sans-Serif" font-size="10.00">ePub3/encryption.h</text>
</g>
<!-- Node33&#45;&gt;Node35 -->
<g id="edge50" class="edge"><title>Node33&#45;&gt;Node35</title>
<path fill="none" stroke="midnightblue" d="M1120.52,-494.442C1064.82,-487.887 945.41,-472.66 846,-452 839.835,-450.719 833.36,-449.189 827.037,-447.592"/>
<polygon fill="midnightblue" stroke="midnightblue" points="827.853,-444.187 817.294,-445.051 826.087,-450.961 827.853,-444.187"/>
</g>
<!-- Node36 -->
<g id="node36" class="node"><title>Node36</title>
<polygon fill="white" stroke="#bfbfbf" points="855.03,-425 855.03,-445 934.97,-445 934.97,-425 855.03,-425"/>
<text text-anchor="middle" x="895" y="-431" font-family="Helvetica,sans-Serif" font-size="10.00">ePub3/spine.h</text>
</g>
<!-- Node33&#45;&gt;Node36 -->
<g id="edge51" class="edge"><title>Node33&#45;&gt;Node36</title>
<path fill="none" stroke="midnightblue" d="M1120.76,-492.084C1079.86,-484.113 1006.08,-468.956 944,-452 939.658,-450.814 935.131,-449.476 930.659,-448.093"/>
<polygon fill="midnightblue" stroke="midnightblue" points="931.64,-444.732 921.05,-445.03 929.515,-451.402 931.64,-444.732"/>
</g>
<!-- Node37 -->
<g id="node37" class="node"><title>Node37</title>
<polygon fill="white" stroke="#bfbfbf" points="953.086,-425 953.086,-445 1046.91,-445 1046.91,-425 953.086,-425"/>
<text text-anchor="middle" x="1000" y="-431" font-family="Helvetica,sans-Serif" font-size="10.00">ePub3/manifest.h</text>
</g>
<!-- Node33&#45;&gt;Node37 -->
<g id="edge52" class="edge"><title>Node33&#45;&gt;Node37</title>
<path fill="none" stroke="midnightblue" d="M1129.9,-488.985C1104.01,-478.424 1060.92,-460.849 1031.53,-448.86"/>
<polygon fill="midnightblue" stroke="midnightblue" points="1032.71,-445.562 1022.13,-445.026 1030.07,-452.044 1032.71,-445.562"/>
</g>
<!-- Node38 -->
<g id="node38" class="node"><title>Node38</title>
<polygon fill="white" stroke="#bfbfbf" points="1064.98,-425 1064.98,-445 1131.02,-445 1131.02,-425 1064.98,-425"/>
<text text-anchor="middle" x="1098" y="-431" font-family="Helvetica,sans-Serif" font-size="10.00">ePub3/cfi.h</text>
</g>
<!-- Node33&#45;&gt;Node38 -->
<g id="edge53" class="edge"><title>Node33&#45;&gt;Node38</title>
<path fill="none" stroke="midnightblue" d="M1144.03,-488.852C1135.82,-479.419 1122.82,-464.495 1112.73,-452.907"/>
<polygon fill="midnightblue" stroke="midnightblue" points="1115.21,-450.428 1106,-445.186 1109.93,-455.025 1115.21,-450.428"/>
</g>
<!-- Node39 -->
<g id="node39" class="node"><title>Node39</title>
<polygon fill="white" stroke="#bfbfbf" points="1149.35,-425 1149.35,-445 1262.65,-445 1262.65,-425 1149.35,-425"/>
<text text-anchor="middle" x="1206" y="-431" font-family="Helvetica,sans-Serif" font-size="10.00">ePub3/nav_element.h</text>
</g>
<!-- Node33&#45;&gt;Node39 -->
<g id="edge54" class="edge"><title>Node33&#45;&gt;Node39</title>
<path fill="none" stroke="midnightblue" d="M1159.97,-488.852C1168.18,-479.419 1181.18,-464.495 1191.27,-452.907"/>
<polygon fill="midnightblue" stroke="midnightblue" points="1194.07,-455.025 1198,-445.186 1188.79,-450.428 1194.07,-455.025"/>
</g>
<!-- Node40 -->
<g id="node40" class="node"><title>Node40</title>
<polygon fill="white" stroke="#bfbfbf" points="1280.31,-425 1280.31,-445 1389.69,-445 1389.69,-425 1280.31,-425"/>
<text text-anchor="middle" x="1335" y="-431" font-family="Helvetica,sans-Serif" font-size="10.00">ePub3/archive_xml.h</text>
</g>
<!-- Node33&#45;&gt;Node40 -->
<g id="edge55" class="edge"><title>Node33&#45;&gt;Node40</title>
<path fill="none" stroke="midnightblue" d="M1178.61,-488.985C1210.32,-478.24 1263.46,-460.236 1298.87,-448.239"/>
<polygon fill="midnightblue" stroke="midnightblue" points="1300.01,-451.55 1308.36,-445.026 1297.76,-444.92 1300.01,-451.55"/>
</g>
<!-- Node33&#45;&gt;Node4 -->
<g id="edge56" class="edge"><title>Node33&#45;&gt;Node4</title>
<path fill="none" stroke="midnightblue" d="M1120.89,-497.753C1010.84,-496.562 644.7,-489.77 610,-452 594.329,-434.943 606.456,-407.49 617.502,-389.597"/>
<polygon fill="midnightblue" stroke="midnightblue" points="620.445,-391.491 623.028,-381.216 614.601,-387.638 620.445,-391.491"/>
</g>
<!-- Node41 -->
<g id="node41" class="node"><title>Node41</title>
<g id="a_node41"><a xlink:href="iri_8h.xhtml" target="_top" xlink:title="ePub3/utilities/iri.h">
<polygon fill="white" stroke="black" points="619.424,-425 619.424,-445 716.576,-445 716.576,-425 619.424,-425"/>
<text text-anchor="middle" x="668" y="-431" font-family="Helvetica,sans-Serif" font-size="10.00">ePub3/utilities/iri.h</text>
</a>
</g>
</g>
<!-- Node33&#45;&gt;Node41 -->
<g id="edge57" class="edge"><title>Node33&#45;&gt;Node41</title>
<path fill="none" stroke="midnightblue" d="M1120.74,-496.359C1049.95,-492.264 872.145,-479.859 726,-452 719.805,-450.819 713.306,-449.305 706.991,-447.681"/>
<polygon fill="midnightblue" stroke="midnightblue" points="707.855,-444.289 697.289,-445.07 706.036,-451.049 707.855,-444.289"/>
</g>
<!-- Node46 -->
<g id="node46" class="node"><title>Node46</title>
<polygon fill="white" stroke="#bfbfbf" points="1407.39,-425 1407.39,-445 1534.61,-445 1534.61,-425 1407.39,-425"/>
<text text-anchor="middle" x="1471" y="-431" font-family="Helvetica,sans-Serif" font-size="10.00">ePub3/content_handler.h</text>
</g>
<!-- Node33&#45;&gt;Node46 -->
<g id="edge67" class="edge"><title>Node33&#45;&gt;Node46</title>
<path fill="none" stroke="midnightblue" d="M1183.13,-492.498C1229.87,-484.164 1320.93,-467.648 1398,-452 1405.43,-450.492 1413.26,-448.84 1420.94,-447.187"/>
<polygon fill="midnightblue" stroke="midnightblue" points="1421.86,-450.569 1430.89,-445.026 1420.37,-443.729 1421.86,-450.569"/>
</g>
<!-- Node47 -->
<g id="node47" class="node"><title>Node47</title>
<polygon fill="white" stroke="#bfbfbf" points="1553.08,-419 1553.08,-451 1666.92,-451 1666.92,-419 1553.08,-419"/>
<text text-anchor="start" x="1561.08" y="-437" font-family="Helvetica,sans-Serif" font-size="10.00">ePub3/media_support</text>
<text text-anchor="middle" x="1610" y="-425" font-family="Helvetica,sans-Serif" font-size="10.00">_info.h</text>
</g>
<!-- Node33&#45;&gt;Node47 -->
<g id="edge68" class="edge"><title>Node33&#45;&gt;Node47</title>
<path fill="none" stroke="midnightblue" d="M1183.1,-495.589C1249.54,-490.167 1410.09,-475.604 1543,-452 1543.1,-451.982 1543.21,-451.963 1543.31,-451.945"/>
<polygon fill="midnightblue" stroke="midnightblue" points="1543.91,-455.393 1553.07,-450.074 1542.59,-448.518 1543.91,-455.393"/>
</g>
<!-- Node33&#45;&gt;Node31 -->
<g id="edge69" class="edge"><title>Node33&#45;&gt;Node31</title>
<path fill="none" stroke="midnightblue" d="M1120.72,-497.996C1013.55,-497.599 651.462,-493.094 356,-452 347.246,-450.782 337.978,-449.058 329.11,-447.189"/>
<polygon fill="midnightblue" stroke="midnightblue" points="329.835,-443.765 319.317,-445.037 328.332,-450.602 329.835,-443.765"/>
</g>
<!-- Node48 -->
<g id="node48" class="node"><title>Node48</title>
<polygon fill="white" stroke="#bfbfbf" points="1685.23,-425 1685.23,-445 1810.77,-445 1810.77,-425 1685.23,-425"/>
<text text-anchor="middle" x="1748" y="-431" font-family="Helvetica,sans-Serif" font-size="10.00">ePub3/epub_collection.h</text>
</g>
<!-- Node33&#45;&gt;Node48 -->
<g id="edge70" class="edge"><title>Node33&#45;&gt;Node48</title>
<path fill="none" stroke="midnightblue" d="M1183.11,-496.656C1264.39,-492.843 1489.62,-480.349 1675,-452 1683.48,-450.703 1692.45,-449.009 1701.09,-447.209"/>
<polygon fill="midnightblue" stroke="midnightblue" points="1702,-450.594 1711.03,-445.064 1700.52,-443.751 1702,-450.594"/>
</g>
<!-- Node33&#45;&gt;Node30 -->
<g id="edge71" class="edge"><title>Node33&#45;&gt;Node30</title>
<path fill="none" stroke="midnightblue" d="M1120.92,-497.397C1034.23,-495.311 782.679,-486.5 577,-452 575.904,-451.816 574.798,-451.622 573.687,-451.419"/>
<polygon fill="midnightblue" stroke="midnightblue" points="574.06,-447.924 563.566,-449.379 572.677,-454.786 574.06,-447.924"/>
</g>
<!-- Node33&#45;&gt;Node17 -->
<g id="edge72" class="edge"><title>Node33&#45;&gt;Node17</title>
<path fill="none" stroke="midnightblue" d="M1183.46,-498.11C1325.31,-498.357 1901.24,-496.589 1967,-452 2007.36,-424.632 2023.93,-366.35 2030.32,-332.93"/>
<polygon fill="midnightblue" stroke="midnightblue" points="2033.78,-333.478 2032.06,-323.024 2026.88,-332.271 2033.78,-333.478"/>
</g>
<!-- Node34&#45;&gt;Node13 -->
<g id="edge48" class="edge"><title>Node34&#45;&gt;Node13</title>
<path fill="none" stroke="midnightblue" d="M2293.67,-296.712C2290.92,-280.948 2283.07,-249.016 2263,-232 2220.85,-196.267 2154.99,-187.577 2114.27,-185.855"/>
<polygon fill="midnightblue" stroke="midnightblue" points="2114.34,-182.356 2104.24,-185.551 2114.13,-189.353 2114.34,-182.356"/>
</g>
<!-- Node34&#45;&gt;Node18 -->
<g id="edge49" class="edge"><title>Node34&#45;&gt;Node18</title>
<path fill="none" stroke="midnightblue" d="M2264.32,-296.985C2227.36,-286.125 2165.17,-267.85 2124.35,-255.857"/>
<polygon fill="midnightblue" stroke="midnightblue" points="2125.3,-252.487 2114.72,-253.026 2123.33,-259.204 2125.3,-252.487"/>
</g>
<!-- Node41&#45;&gt;Node4 -->
<g id="edge58" class="edge"><title>Node41&#45;&gt;Node4</title>
<path fill="none" stroke="midnightblue" d="M662.393,-424.852C656.78,-415.694 647.994,-401.359 640.988,-389.928"/>
<polygon fill="midnightblue" stroke="midnightblue" points="643.84,-387.883 635.63,-381.186 637.872,-391.541 643.84,-387.883"/>
</g>
<!-- Node42 -->
<g id="node42" class="node"><title>Node42</title>
<g id="a_node42"><a xlink:href="make__unique_8h.xhtml" target="_top" xlink:title="ePub3/utilities/make\l_unique.h">
<polygon fill="white" stroke="black" points="2104.25,-291 2104.25,-323 2209.75,-323 2209.75,-291 2104.25,-291"/>
<text text-anchor="start" x="2112.25" y="-309" font-family="Helvetica,sans-Serif" font-size="10.00">ePub3/utilities/make</text>
<text text-anchor="middle" x="2157" y="-297" font-family="Helvetica,sans-Serif" font-size="10.00">_unique.h</text>
</a>
</g>
</g>
<!-- Node41&#45;&gt;Node42 -->
<g id="edge59" class="edge"><title>Node41&#45;&gt;Node42</title>
<path fill="none" stroke="midnightblue" d="M696.359,-424.954C705.709,-422.301 716.218,-419.668 726,-418 1023.37,-367.302 1777.55,-372.627 2093.89,-323.956"/>
<polygon fill="midnightblue" stroke="midnightblue" points="2094.71,-327.371 2104.04,-322.352 2093.61,-320.457 2094.71,-327.371"/>
</g>
<!-- Node45 -->
<g id="node45" class="node"><title>Node45</title>
<polygon fill="white" stroke="#bfbfbf" points="934.867,-361 934.867,-381 1023.13,-381 1023.13,-361 934.867,-361"/>
<text text-anchor="middle" x="979" y="-367" font-family="Helvetica,sans-Serif" font-size="10.00">google&#45;url/gurl.h</text>
</g>
<!-- Node41&#45;&gt;Node45 -->
<g id="edge65" class="edge"><title>Node41&#45;&gt;Node45</title>
<path fill="none" stroke="midnightblue" d="M698.874,-424.933C707.604,-422.519 717.14,-420.023 726,-418 745.017,-413.657 855.994,-393.803 924.5,-381.642"/>
<polygon fill="midnightblue" stroke="midnightblue" points="925.462,-385.026 934.697,-379.833 924.239,-378.134 925.462,-385.026"/>
</g>
<!-- Node41&#45;&gt;Node14 -->
<g id="edge66" class="edge"><title>Node41&#45;&gt;Node14</title>
<path fill="none" stroke="midnightblue" d="M689.802,-424.937C723.146,-409.724 785.61,-375.563 811,-324 817.675,-310.443 818.703,-303 811,-290 799.649,-270.842 777.184,-259.139 758.341,-252.335"/>
<polygon fill="midnightblue" stroke="midnightblue" points="759.211,-248.936 748.617,-249.126 757.017,-255.584 759.211,-248.936"/>
</g>
<!-- Node42&#45;&gt;Node6 -->
<g id="edge60" class="edge"><title>Node42&#45;&gt;Node6</title>
<path fill="none" stroke="midnightblue" d="M2121.98,-290.897C2099.45,-280.936 2069.69,-267.313 2044,-254 2026.67,-245.022 2024.71,-237.543 2006,-232 1845.25,-184.378 1321.69,-184.303 1158.22,-185.498"/>
<polygon fill="midnightblue" stroke="midnightblue" points="1157.95,-182 1147.98,-185.578 1158.01,-189 1157.95,-182"/>
</g>
<!-- Node43 -->
<g id="node43" class="node"><title>Node43</title>
<polygon fill="white" stroke="#bfbfbf" points="2132.88,-233 2132.88,-253 2181.12,-253 2181.12,-233 2132.88,-233"/>
<text text-anchor="middle" x="2157" y="-239" font-family="Helvetica,sans-Serif" font-size="10.00">cstddef</text>
</g>
<!-- Node42&#45;&gt;Node43 -->
<g id="edge61" class="edge"><title>Node42&#45;&gt;Node43</title>
<path fill="none" stroke="midnightblue" d="M2157,-290.992C2157,-282.726 2157,-272.373 2157,-263.489"/>
<polygon fill="midnightblue" stroke="midnightblue" points="2160.5,-263.29 2157,-253.29 2153.5,-263.29 2160.5,-263.29"/>
</g>
<!-- Node42&#45;&gt;Node13 -->
<g id="edge62" class="edge"><title>Node42&#45;&gt;Node13</title>
<path fill="none" stroke="midnightblue" d="M2199.68,-290.98C2231.13,-277.513 2265.49,-256.189 2247,-232 2230.98,-211.031 2158.98,-197.349 2114.29,-190.713"/>
<polygon fill="midnightblue" stroke="midnightblue" points="2114.5,-187.208 2104.11,-189.253 2113.51,-194.137 2114.5,-187.208"/>
</g>
<!-- Node42&#45;&gt;Node18 -->
<g id="edge63" class="edge"><title>Node42&#45;&gt;Node18</title>
<path fill="none" stroke="midnightblue" d="M2139.33,-290.992C2128.3,-281.624 2114.11,-269.575 2102.87,-260.022"/>
<polygon fill="midnightblue" stroke="midnightblue" points="2104.83,-257.096 2094.94,-253.29 2100.29,-262.432 2104.83,-257.096"/>
</g>
<!-- Node44 -->
<g id="node44" class="node"><title>Node44</title>
<polygon fill="white" stroke="#bfbfbf" points="2199.61,-233 2199.61,-253 2238.39,-253 2238.39,-233 2199.61,-233"/>
<text text-anchor="middle" x="2219" y="-239" font-family="Helvetica,sans-Serif" font-size="10.00">utility</text>
</g>
<!-- Node42&#45;&gt;Node44 -->
<g id="edge64" class="edge"><title>Node42&#45;&gt;Node44</title>
<path fill="none" stroke="midnightblue" d="M2172.01,-290.992C2181.19,-281.808 2192.95,-270.046 2202.41,-260.587"/>
<polygon fill="midnightblue" stroke="midnightblue" points="2205.11,-262.836 2209.71,-253.29 2200.16,-257.887 2205.11,-262.836"/>
</g>
</g>
</svg>
