<?xml version="1.0" encoding="UTF-8" standalone="no"?>
<!DOCTYPE svg PUBLIC "-//W3C//DTD SVG 1.1//EN"
 "http://www.w3.org/Graphics/SVG/1.1/DTD/svg11.dtd">
<!-- Generated by graphviz version 2.30.0 (20130114.0426)
 -->
<!-- Title: /Users/rkwright/Documents/github/readium&#45;sdk&#45;D/ePub3/utilities/string_view.h Pages: 1 -->
<svg width="453pt" height="344pt"
 viewBox="0.00 0.00 453.00 344.00" xmlns="http://www.w3.org/2000/svg" xmlns:xlink="http://www.w3.org/1999/xlink">
<g id="graph0" class="graph" transform="scale(1 1) rotate(0) translate(4 340)">
<title>/Users/rkwright/Documents/github/readium&#45;sdk&#45;D/ePub3/utilities/string_view.h</title>
<polygon fill="white" stroke="white" points="-4,5 -4,-340 450,-340 450,5 -4,5"/>
<!-- Node1 -->
<g id="node1" class="node"><title>Node1</title>
<polygon fill="#bfbfbf" stroke="black" points="116.966,-291 116.966,-335 263.034,-335 263.034,-291 116.966,-291"/>
<text text-anchor="start" x="124.966" y="-321" font-family="Helvetica,sans-Serif" font-size="10.00">/Users/rkwright/Documents</text>
<text text-anchor="start" x="124.966" y="-309" font-family="Helvetica,sans-Serif" font-size="10.00">/github/readium&#45;sdk&#45;D/ePub3</text>
<text text-anchor="middle" x="190" y="-297" font-family="Helvetica,sans-Serif" font-size="10.00">/utilities/string_view.h</text>
</g>
<!-- Node2 -->
<g id="node2" class="node"><title>Node2</title>
<polygon fill="white" stroke="#bfbfbf" points="-0.0664062,-233 -0.0664062,-253 62.0664,-253 62.0664,-233 -0.0664062,-233"/>
<text text-anchor="middle" x="31" y="-239" font-family="Helvetica,sans-Serif" font-size="10.00">type_traits</text>
</g>
<!-- Node1&#45;&gt;Node2 -->
<g id="edge1" class="edge"><title>Node1&#45;&gt;Node2</title>
<path fill="none" stroke="midnightblue" d="M140.563,-290.857C114.675,-279.786 83.7997,-266.581 61.4331,-257.015"/>
<polygon fill="midnightblue" stroke="midnightblue" points="62.677,-253.741 52.1063,-253.027 59.9244,-260.177 62.677,-253.741"/>
</g>
<!-- Node3 -->
<g id="node3" class="node"><title>Node3</title>
<polygon fill="white" stroke="#bfbfbf" points="79.7734,-233 79.7734,-253 120.227,-253 120.227,-233 79.7734,-233"/>
<text text-anchor="middle" x="100" y="-239" font-family="Helvetica,sans-Serif" font-size="10.00">string</text>
</g>
<!-- Node1&#45;&gt;Node3 -->
<g id="edge2" class="edge"><title>Node1&#45;&gt;Node3</title>
<path fill="none" stroke="midnightblue" d="M162.017,-290.857C148.563,-280.692 132.73,-268.73 120.43,-259.436"/>
<polygon fill="midnightblue" stroke="midnightblue" points="122.27,-256.44 112.182,-253.204 118.05,-262.025 122.27,-256.44"/>
</g>
<!-- Node4 -->
<g id="node4" class="node"><title>Node4</title>
<polygon fill="white" stroke="#bfbfbf" points="138.613,-233 138.613,-253 177.387,-253 177.387,-233 138.613,-233"/>
<text text-anchor="middle" x="158" y="-239" font-family="Helvetica,sans-Serif" font-size="10.00">limits</text>
</g>
<!-- Node1&#45;&gt;Node4 -->
<g id="edge3" class="edge"><title>Node1&#45;&gt;Node4</title>
<path fill="none" stroke="midnightblue" d="M180.05,-290.857C175.778,-281.778 170.83,-271.264 166.706,-262.499"/>
<polygon fill="midnightblue" stroke="midnightblue" points="169.756,-260.762 162.331,-253.204 163.422,-263.742 169.756,-260.762"/>
</g>
<!-- Node5 -->
<g id="node5" class="node"><title>Node5</title>
<polygon fill="white" stroke="#bfbfbf" points="195.828,-233 195.828,-253 250.172,-253 250.172,-233 195.828,-233"/>
<text text-anchor="middle" x="223" y="-239" font-family="Helvetica,sans-Serif" font-size="10.00">iostream</text>
</g>
<!-- Node1&#45;&gt;Node5 -->
<g id="edge4" class="edge"><title>Node1&#45;&gt;Node5</title>
<path fill="none" stroke="midnightblue" d="M200.261,-290.857C204.714,-281.679 209.88,-271.036 214.161,-262.214"/>
<polygon fill="midnightblue" stroke="midnightblue" points="217.316,-263.729 218.533,-253.204 211.019,-260.672 217.316,-263.729"/>
</g>
<!-- Node6 -->
<g id="node6" class="node"><title>Node6</title>
<polygon fill="white" stroke="#bfbfbf" points="268.436,-233 268.436,-253 325.564,-253 325.564,-233 268.436,-233"/>
<text text-anchor="middle" x="297" y="-239" font-family="Helvetica,sans-Serif" font-size="10.00">algorithm</text>
</g>
<!-- Node1&#45;&gt;Node6 -->
<g id="edge5" class="edge"><title>Node1&#45;&gt;Node6</title>
<path fill="none" stroke="midnightblue" d="M223.269,-290.857C239.831,-280.332 259.426,-267.879 274.252,-258.457"/>
<polygon fill="midnightblue" stroke="midnightblue" points="276.234,-261.344 282.796,-253.027 272.479,-255.436 276.234,-261.344"/>
</g>
<!-- Node7 -->
<g id="node7" class="node"><title>Node7</title>
<g id="a_node7"><a xlink:href="____strhash_8h.xhtml" target="_top" xlink:title="__strhash.h">
<polygon fill="white" stroke="black" points="343.872,-233 343.872,-253 412.128,-253 412.128,-233 343.872,-233"/>
<text text-anchor="middle" x="378" y="-239" font-family="Helvetica,sans-Serif" font-size="10.00">__strhash.h</text>
</a>
</g>
</g>
<!-- Node1&#45;&gt;Node7 -->
<g id="edge6" class="edge"><title>Node1&#45;&gt;Node7</title>
<path fill="none" stroke="midnightblue" d="M248.197,-290.95C279.37,-279.675 316.719,-266.165 343.334,-256.539"/>
<polygon fill="midnightblue" stroke="midnightblue" points="344.76,-259.745 352.974,-253.052 342.379,-253.162 344.76,-259.745"/>
</g>
<!-- Node8 -->
<g id="node8" class="node"><title>Node8</title>
<g id="a_node8"><a xlink:href="base_8h.xhtml" target="_top" xlink:title="ePub3/base.h">
<polygon fill="white" stroke="black" points="297.141,-175 297.141,-195 374.859,-195 374.859,-175 297.141,-175"/>
<text text-anchor="middle" x="336" y="-181" font-family="Helvetica,sans-Serif" font-size="10.00">ePub3/base.h</text>
</a>
</g>
</g>
<!-- Node7&#45;&gt;Node8 -->
<g id="edge7" class="edge"><title>Node7&#45;&gt;Node8</title>
<path fill="none" stroke="midnightblue" d="M371.065,-232.753C365.071,-224.761 356.248,-212.998 348.952,-203.27"/>
<polygon fill="midnightblue" stroke="midnightblue" points="351.606,-200.975 342.806,-195.075 346.006,-205.175 351.606,-200.975"/>
</g>
<!-- Node13 -->
<g id="node13" class="node"><title>Node13</title>
<polygon fill="white" stroke="#bfbfbf" points="392.943,-175 392.943,-195 445.057,-195 445.057,-175 392.943,-175"/>
<text text-anchor="middle" x="419" y="-181" font-family="Helvetica,sans-Serif" font-size="10.00">memory</text>
</g>
<!-- Node7&#45;&gt;Node13 -->
<g id="edge12" class="edge"><title>Node7&#45;&gt;Node13</title>
<path fill="none" stroke="midnightblue" d="M384.77,-232.753C390.621,-224.761 399.234,-212.998 406.356,-203.27"/>
<polygon fill="midnightblue" stroke="midnightblue" points="409.272,-205.211 412.356,-195.075 403.624,-201.076 409.272,-205.211"/>
</g>
<!-- Node9 -->
<g id="node9" class="node"><title>Node9</title>
<g id="a_node9"><a xlink:href="__config_8h.xhtml" target="_top" xlink:title="_config.h">
<polygon fill="white" stroke="black" points="272.707,-117 272.707,-137 329.293,-137 329.293,-117 272.707,-117"/>
<text text-anchor="middle" x="301" y="-123" font-family="Helvetica,sans-Serif" font-size="10.00">_config.h</text>
</a>
</g>
</g>
<!-- Node8&#45;&gt;Node9 -->
<g id="edge8" class="edge"><title>Node8&#45;&gt;Node9</title>
<path fill="none" stroke="midnightblue" d="M330.22,-174.753C325.277,-166.843 318.023,-155.237 311.98,-145.568"/>
<polygon fill="midnightblue" stroke="midnightblue" points="314.94,-143.7 306.672,-137.075 309.004,-147.41 314.94,-143.7"/>
</g>
<!-- Node12 -->
<g id="node12" class="node"><title>Node12</title>
<polygon fill="white" stroke="#bfbfbf" points="347.158,-117 347.158,-137 394.842,-137 394.842,-117 347.158,-117"/>
<text text-anchor="middle" x="371" y="-123" font-family="Helvetica,sans-Serif" font-size="10.00">stdlib.h</text>
</g>
<!-- Node8&#45;&gt;Node12 -->
<g id="edge11" class="edge"><title>Node8&#45;&gt;Node12</title>
<path fill="none" stroke="midnightblue" d="M341.78,-174.753C346.723,-166.843 353.977,-155.237 360.02,-145.568"/>
<polygon fill="midnightblue" stroke="midnightblue" points="362.996,-147.41 365.328,-137.075 357.06,-143.7 362.996,-147.41"/>
</g>
<!-- Node10 -->
<g id="node10" class="node"><title>Node10</title>
<g id="a_node10"><a xlink:href="__platform_8h.xhtml" target="_top" xlink:title="_platform.h">
<polygon fill="white" stroke="black" points="267.988,-59 267.988,-79 334.012,-79 334.012,-59 267.988,-59"/>
<text text-anchor="middle" x="301" y="-65" font-family="Helvetica,sans-Serif" font-size="10.00">_platform.h</text>
</a>
</g>
</g>
<!-- Node9&#45;&gt;Node10 -->
<g id="edge9" class="edge"><title>Node9&#45;&gt;Node10</title>
<path fill="none" stroke="midnightblue" d="M301,-116.753C301,-109.25 301,-98.4238 301,-89.0781"/>
<polygon fill="midnightblue" stroke="midnightblue" points="304.5,-89.0752 301,-79.0752 297.5,-89.0752 304.5,-89.0752"/>
</g>
<!-- Node11 -->
<g id="node11" class="node"><title>Node11</title>
<g id="a_node11"><a xlink:href="__compiler_8h.xhtml" target="_top" xlink:title="_compiler.h">
<polygon fill="white" stroke="black" points="267.429,-1 267.429,-21 334.571,-21 334.571,-1 267.429,-1"/>
<text text-anchor="middle" x="301" y="-7" font-family="Helvetica,sans-Serif" font-size="10.00">_compiler.h</text>
</a>
</g>
</g>
<!-- Node10&#45;&gt;Node11 -->
<g id="edge10" class="edge"><title>Node10&#45;&gt;Node11</title>
<path fill="none" stroke="midnightblue" d="M301,-58.7527C301,-51.2504 301,-40.4238 301,-31.0781"/>
<polygon fill="midnightblue" stroke="midnightblue" points="304.5,-31.0752 301,-21.0752 297.5,-31.0752 304.5,-31.0752"/>
</g>
</g>
</svg>
