<?xml version="1.0" encoding="UTF-8" standalone="no"?>
<!DOCTYPE svg PUBLIC "-//W3C//DTD SVG 1.1//EN"
 "http://www.w3.org/Graphics/SVG/1.1/DTD/svg11.dtd">
<!-- Generated by graphviz version 2.30.0 (20130114.0426)
 -->
<!-- Title: __optional_base&lt; _Tp &gt; Pages: 1 -->
<svg width="130pt" height="158pt"
 viewBox="0.00 0.00 130.00 158.00" xmlns="http://www.w3.org/2000/svg" xmlns:xlink="http://www.w3.org/1999/xlink">
<g id="graph0" class="graph" transform="scale(1 1) rotate(0) translate(4 154)">
<title>__optional_base&lt; _Tp &gt;</title>
<polygon fill="white" stroke="white" points="-4,5 -4,-154 127,-154 127,5 -4,5"/>
<!-- Node1 -->
<g id="node1" class="node"><title>Node1</title>
<polygon fill="#bfbfbf" stroke="black" points="-0.933105,-129 -0.933105,-149 122.933,-149 122.933,-129 -0.933105,-129"/>
<text text-anchor="middle" x="61" y="-135" font-family="Helvetica,sans-Serif" font-size="10.00">__optional_base&lt; _Tp &gt;</text>
</g>
<!-- Node2 -->
<g id="node2" class="node"><title>Node2</title>
<g id="a_node2"><a xlink:href="class____optional__base__impl.xhtml" target="_top" xlink:title="__optional_base_impl\l\&lt; _Tp \&gt;">
<polygon fill="white" stroke="black" points="4.35254,-59 4.35254,-91 117.647,-91 117.647,-59 4.35254,-59"/>
<text text-anchor="start" x="12.3525" y="-77" font-family="Helvetica,sans-Serif" font-size="10.00">__optional_base_impl</text>
<text text-anchor="middle" x="61" y="-65" font-family="Helvetica,sans-Serif" font-size="10.00">&lt; _Tp &gt;</text>
</a>
</g>
</g>
<!-- Node1&#45;&gt;Node2 -->
<g id="edge1" class="edge"><title>Node1&#45;&gt;Node2</title>
<path fill="none" stroke="#8b1a1a" d="M61,-118.775C61,-109.986 61,-99.715 61,-91.4404"/>
<polygon fill="#8b1a1a" stroke="#8b1a1a" points="57.5001,-118.852 61,-128.852 64.5001,-118.852 57.5001,-118.852"/>
</g>
<!-- Node3 -->
<g id="node3" class="node"><title>Node3</title>
<g id="a_node3"><a xlink:href="classoptional.xhtml" target="_top" xlink:title="optional\&lt; _Tp \&gt;">
<polygon fill="white" stroke="black" points="18.2515,-1 18.2515,-21 103.749,-21 103.749,-1 18.2515,-1"/>
<text text-anchor="middle" x="61" y="-7" font-family="Helvetica,sans-Serif" font-size="10.00">optional&lt; _Tp &gt;</text>
</a>
</g>
</g>
<!-- Node2&#45;&gt;Node3 -->
<g id="edge2" class="edge"><title>Node2&#45;&gt;Node3</title>
<path fill="none" stroke="#8b1a1a" d="M61,-48.922C61,-39.1719 61,-28.6099 61,-21.2904"/>
<polygon fill="#8b1a1a" stroke="#8b1a1a" points="57.5001,-48.9915 61,-58.9915 64.5001,-48.9916 57.5001,-48.9915"/>
</g>
</g>
</svg>
