<?xml version="1.0" encoding="UTF-8" standalone="no"?>
<!DOCTYPE svg PUBLIC "-//W3C//DTD SVG 1.1//EN"
 "http://www.w3.org/Graphics/SVG/1.1/DTD/svg11.dtd">
<!-- Generated by graphviz version 2.30.0 (20130114.0426)
 -->
<!-- Title: __future_async_shared_state&lt; _Rp, _Fp &gt; Pages: 1 -->
<svg width="128pt" height="310pt"
 viewBox="0.00 0.00 128.00 310.00" xmlns="http://www.w3.org/2000/svg" xmlns:xlink="http://www.w3.org/1999/xlink">
<g id="graph0" class="graph" transform="scale(1 1) rotate(0) translate(4 306)">
<title>__future_async_shared_state&lt; _Rp, _Fp &gt;</title>
<polygon fill="white" stroke="white" points="-4,5 -4,-306 125,-306 125,5 -4,5"/>
<!-- Node1 -->
<g id="node1" class="node"><title>Node1</title>
<polygon fill="#bfbfbf" stroke="black" points="-0.258301,-1 -0.258301,-33 120.258,-33 120.258,-1 -0.258301,-1"/>
<text text-anchor="start" x="7.7417" y="-19" font-family="Helvetica,sans-Serif" font-size="10.00">__future_async_shared</text>
<text text-anchor="middle" x="60" y="-7" font-family="Helvetica,sans-Serif" font-size="10.00">_state&lt; _Rp, _Fp &gt;</text>
</g>
<!-- Node2 -->
<g id="node2" class="node"><title>Node2</title>
<g id="a_node2"><a xlink:href="struct____future__async__shared__state__base.xhtml" target="_top" xlink:title="__future_async_shared\l_state_base\&lt; _Rp \&gt;">
<polygon fill="white" stroke="black" points="-0.258301,-71 -0.258301,-103 120.258,-103 120.258,-71 -0.258301,-71"/>
<text text-anchor="start" x="7.7417" y="-89" font-family="Helvetica,sans-Serif" font-size="10.00">__future_async_shared</text>
<text text-anchor="middle" x="60" y="-77" font-family="Helvetica,sans-Serif" font-size="10.00">_state_base&lt; _Rp &gt;</text>
</a>
</g>
</g>
<!-- Node2&#45;&gt;Node1 -->
<g id="edge1" class="edge"><title>Node2&#45;&gt;Node1</title>
<path fill="none" stroke="midnightblue" d="M60,-60.6174C60,-51.3378 60,-41.1413 60,-33.0492"/>
<polygon fill="midnightblue" stroke="midnightblue" points="56.5001,-60.9086 60,-70.9086 63.5001,-60.9086 56.5001,-60.9086"/>
</g>
<!-- Node3 -->
<g id="node3" class="node"><title>Node3</title>
<g id="a_node3"><a xlink:href="struct____shared__state.xhtml" target="_top" xlink:title="__shared_state\&lt; _Rp \&gt;">
<polygon fill="white" stroke="black" points="-0.260742,-141 -0.260742,-161 120.261,-161 120.261,-141 -0.260742,-141"/>
<text text-anchor="middle" x="60" y="-147" font-family="Helvetica,sans-Serif" font-size="10.00">__shared_state&lt; _Rp &gt;</text>
</a>
</g>
</g>
<!-- Node3&#45;&gt;Node2 -->
<g id="edge2" class="edge"><title>Node3&#45;&gt;Node2</title>
<path fill="none" stroke="midnightblue" d="M60,-130.775C60,-121.986 60,-111.715 60,-103.44"/>
<polygon fill="midnightblue" stroke="midnightblue" points="56.5001,-130.852 60,-140.852 63.5001,-130.852 56.5001,-130.852"/>
</g>
<!-- Node4 -->
<g id="node4" class="node"><title>Node4</title>
<g id="a_node4"><a xlink:href="struct____shared__state__base.xhtml" target="_top" xlink:title="__shared_state_base">
<polygon fill="white" stroke="black" points="3.90674,-199 3.90674,-219 116.093,-219 116.093,-199 3.90674,-199"/>
<text text-anchor="middle" x="60" y="-205" font-family="Helvetica,sans-Serif" font-size="10.00">__shared_state_base</text>
</a>
</g>
</g>
<!-- Node4&#45;&gt;Node3 -->
<g id="edge3" class="edge"><title>Node4&#45;&gt;Node3</title>
<path fill="none" stroke="midnightblue" d="M60,-188.707C60,-179.338 60,-168.526 60,-161.075"/>
<polygon fill="midnightblue" stroke="midnightblue" points="56.5001,-188.753 60,-198.753 63.5001,-188.753 56.5001,-188.753"/>
</g>
<!-- Node5 -->
<g id="node5" class="node"><title>Node5</title>
<polygon fill="white" stroke="#bfbfbf" points="3.49902,-257 3.49902,-301 116.501,-301 116.501,-257 3.49902,-257"/>
<text text-anchor="start" x="11.499" y="-287" font-family="Helvetica,sans-Serif" font-size="10.00">std::enable_shared</text>
<text text-anchor="start" x="11.499" y="-275" font-family="Helvetica,sans-Serif" font-size="10.00">_from_this&lt; __shared</text>
<text text-anchor="middle" x="60" y="-263" font-family="Helvetica,sans-Serif" font-size="10.00">_state_base &gt;</text>
</g>
<!-- Node5&#45;&gt;Node4 -->
<g id="edge4" class="edge"><title>Node5&#45;&gt;Node4</title>
<path fill="none" stroke="midnightblue" d="M60,-246.68C60,-236.665 60,-226.338 60,-219.204"/>
<polygon fill="midnightblue" stroke="midnightblue" points="56.5001,-246.857 60,-256.857 63.5001,-246.857 56.5001,-246.857"/>
</g>
</g>
</svg>
