<?xml version="1.0" encoding="UTF-8" standalone="no"?>
<!DOCTYPE svg PUBLIC "-//W3C//DTD SVG 1.1//EN"
 "http://www.w3.org/Graphics/SVG/1.1/DTD/svg11.dtd">
<!-- Generated by graphviz version 2.30.0 (20130114.0426)
 -->
<!-- Title: std::uses_allocator&lt; EPUB3_NAMESPACE::packaged_task&lt; _Rp &gt;, _Alloc &gt; Pages: 1 -->
<svg width="180pt" height="112pt"
 viewBox="0.00 0.00 180.00 112.00" xmlns="http://www.w3.org/2000/svg" xmlns:xlink="http://www.w3.org/1999/xlink">
<g id="graph0" class="graph" transform="scale(1 1) rotate(0) translate(4 108)">
<title>std::uses_allocator&lt; EPUB3_NAMESPACE::packaged_task&lt; _Rp &gt;, _Alloc &gt;</title>
<polygon fill="white" stroke="white" points="-4,5 -4,-108 177,-108 177,5 -4,5"/>
<!-- Node1 -->
<g id="node1" class="node"><title>Node1</title>
<polygon fill="#bfbfbf" stroke="black" points="-0.977051,-1 -0.977051,-45 172.977,-45 172.977,-1 -0.977051,-1"/>
<text text-anchor="start" x="7.02295" y="-31" font-family="Helvetica,sans-Serif" font-size="10.00">std::uses_allocator</text>
<text text-anchor="start" x="7.02295" y="-19" font-family="Helvetica,sans-Serif" font-size="10.00">&lt; EPUB3_NAMESPACE::packaged</text>
<text text-anchor="middle" x="86" y="-7" font-family="Helvetica,sans-Serif" font-size="10.00">_task&lt; _Rp &gt;, _Alloc &gt;</text>
</g>
<!-- Node2 -->
<g id="node2" class="node"><title>Node2</title>
<polygon fill="white" stroke="#bfbfbf" points="57.1528,-83 57.1528,-103 114.847,-103 114.847,-83 57.1528,-83"/>
<text text-anchor="middle" x="86" y="-89" font-family="Helvetica,sans-Serif" font-size="10.00">true_type</text>
</g>
<!-- Node2&#45;&gt;Node1 -->
<g id="edge1" class="edge"><title>Node2&#45;&gt;Node1</title>
<path fill="none" stroke="midnightblue" d="M86,-72.6289C86,-64.0025 86,-53.8236 86,-45.0137"/>
<polygon fill="midnightblue" stroke="midnightblue" points="82.5001,-72.8292 86,-82.8292 89.5001,-72.8293 82.5001,-72.8292"/>
</g>
</g>
</svg>
