<?xml version="1.0" encoding="UTF-8" standalone="no"?>
<!DOCTYPE svg PUBLIC "-//W3C//DTD SVG 1.1//EN"
 "http://www.w3.org/Graphics/SVG/1.1/DTD/svg11.dtd">
<!-- Generated by graphviz version 2.30.0 (20130114.0426)
 -->
<!-- Title: __check_complete&lt; _Rp(_Class::*)(_Param...) const &#160;&gt; Pages: 1 -->
<svg width="138pt" height="124pt"
 viewBox="0.00 0.00 138.00 124.00" xmlns="http://www.w3.org/2000/svg" xmlns:xlink="http://www.w3.org/1999/xlink">
<g id="graph0" class="graph" transform="scale(1 1) rotate(0) translate(4 120)">
<title>__check_complete&lt; _Rp(_Class::*)(_Param...) const &#160;&gt;</title>
<polygon fill="white" stroke="white" points="-4,5 -4,-120 135,-120 135,5 -4,5"/>
<!-- Node1 -->
<g id="node1" class="node"><title>Node1</title>
<polygon fill="#bfbfbf" stroke="black" points="-0.514648,-1 -0.514648,-45 130.515,-45 130.515,-1 -0.514648,-1"/>
<text text-anchor="start" x="7.48535" y="-31" font-family="Helvetica,sans-Serif" font-size="10.00">__check_complete&lt; </text>
<text text-anchor="start" x="7.48535" y="-19" font-family="Helvetica,sans-Serif" font-size="10.00">_Rp(_Class::*)(_Param...)</text>
<text text-anchor="middle" x="65" y="-7" font-family="Helvetica,sans-Serif" font-size="10.00"> const &gt;</text>
</g>
<!-- Node2 -->
<g id="node2" class="node"><title>Node2</title>
<g id="a_node2"><a xlink:href="struct____check__complete.xhtml" target="_top" xlink:title="__check_complete\&lt; \l_Class \&gt;">
<polygon fill="white" stroke="black" points="10.999,-83 10.999,-115 119.001,-115 119.001,-83 10.999,-83"/>
<text text-anchor="start" x="18.999" y="-101" font-family="Helvetica,sans-Serif" font-size="10.00">__check_complete&lt; </text>
<text text-anchor="middle" x="65" y="-89" font-family="Helvetica,sans-Serif" font-size="10.00">_Class &gt;</text>
</a>
</g>
</g>
<!-- Node2&#45;&gt;Node1 -->
<g id="edge1" class="edge"><title>Node2&#45;&gt;Node1</title>
<path fill="none" stroke="#8b1a1a" d="M65,-72.467C65,-63.5768 65,-53.7064 65,-45.2054"/>
<polygon fill="#8b1a1a" stroke="#8b1a1a" points="61.5001,-72.6671 65,-82.6672 68.5001,-72.6672 61.5001,-72.6671"/>
</g>
</g>
</svg>
