<?xml version="1.0" encoding="UTF-8" standalone="no"?>
<!DOCTYPE svg PUBLIC "-//W3C//DTD SVG 1.1//EN"
 "http://www.w3.org/Graphics/SVG/1.1/DTD/svg11.dtd">
<!-- Generated by graphviz version 2.30.0 (20130114.0426)
 -->
<!-- Title: FilterManager::PriorityOrderHighToLow Pages: 1 -->
<svg width="146pt" height="112pt"
 viewBox="0.00 0.00 146.00 112.00" xmlns="http://www.w3.org/2000/svg" xmlns:xlink="http://www.w3.org/1999/xlink">
<g id="graph0" class="graph" transform="scale(1 1) rotate(0) translate(4 108)">
<title>FilterManager::PriorityOrderHighToLow</title>
<polygon fill="white" stroke="white" points="-4,5 -4,-108 143,-108 143,5 -4,5"/>
<!-- Node1 -->
<g id="node1" class="node"><title>Node1</title>
<polygon fill="#bfbfbf" stroke="black" points="-0.960449,-1 -0.960449,-33 138.96,-33 138.96,-1 -0.960449,-1"/>
<text text-anchor="start" x="7.03955" y="-19" font-family="Helvetica,sans-Serif" font-size="10.00">FilterManager::PriorityOrder</text>
<text text-anchor="middle" x="69" y="-7" font-family="Helvetica,sans-Serif" font-size="10.00">HighToLow</text>
</g>
<!-- Node2 -->
<g id="node2" class="node"><title>Node2</title>
<polygon fill="white" stroke="#bfbfbf" points="5.13574,-71 5.13574,-103 132.864,-103 132.864,-71 5.13574,-71"/>
<text text-anchor="start" x="13.1357" y="-89" font-family="Helvetica,sans-Serif" font-size="10.00">std::binary_function</text>
<text text-anchor="middle" x="69" y="-77" font-family="Helvetica,sans-Serif" font-size="10.00">&lt; Record, Record, bool &gt;</text>
</g>
<!-- Node2&#45;&gt;Node1 -->
<g id="edge1" class="edge"><title>Node2&#45;&gt;Node1</title>
<path fill="none" stroke="midnightblue" d="M69,-60.6174C69,-51.3378 69,-41.1413 69,-33.0492"/>
<polygon fill="midnightblue" stroke="midnightblue" points="65.5001,-60.9086 69,-70.9086 72.5001,-60.9086 65.5001,-60.9086"/>
</g>
</g>
</svg>
