<?xml version="1.0" encoding="UTF-8" standalone="no"?>
<!DOCTYPE svg PUBLIC "-//W3C//DTD SVG 1.1//EN"
 "http://www.w3.org/Graphics/SVG/1.1/DTD/svg11.dtd">
<!-- Generated by graphviz version 2.30.0 (20130114.0426)
 -->
<!-- Title: CFI::Component Pages: 1 -->
<svg width="258pt" height="112pt"
 viewBox="0.00 0.00 258.00 112.00" xmlns="http://www.w3.org/2000/svg" xmlns:xlink="http://www.w3.org/1999/xlink">
<g id="graph0" class="graph" transform="scale(1 1) rotate(0) translate(4 108)">
<title>CFI::Component</title>
<polygon fill="white" stroke="white" points="-4,5 -4,-108 255,-108 255,5 -4,5"/>
<!-- Node1 -->
<g id="node1" class="node"><title>Node1</title>
<polygon fill="#bfbfbf" stroke="black" points="104.318,-1 104.318,-21 193.682,-21 193.682,-1 104.318,-1"/>
<text text-anchor="middle" x="149" y="-7" font-family="Helvetica,sans-Serif" font-size="10.00">CFI::Component</text>
</g>
<!-- Node2 -->
<g id="node2" class="node"><title>Node2</title>
<g id="a_node2"><a xlink:href="classstring.xhtml" target="_top" xlink:title="string">
<polygon fill="white" stroke="black" points="-0.226562,-83 -0.226562,-103 40.2266,-103 40.2266,-83 -0.226562,-83"/>
<text text-anchor="middle" x="20" y="-89" font-family="Helvetica,sans-Serif" font-size="10.00">string</text>
</a>
</g>
</g>
<!-- Node2&#45;&gt;Node1 -->
<g id="edge1" class="edge"><title>Node2&#45;&gt;Node1</title>
<path fill="none" stroke="#9a32cd" stroke-dasharray="5,2" d="M43.4481,-77.4586C69.9329,-61.0338 112.219,-34.8096 134.375,-21.07"/>
<polygon fill="#9a32cd" stroke="#9a32cd" points="41.4518,-74.5781 34.7979,-82.823 45.141,-80.527 41.4518,-74.5781"/>
<text text-anchor="middle" x="132.066" y="-54" font-family="Helvetica,sans-Serif" font-size="10.00"> textQualifier</text>
<text text-anchor="middle" x="132.066" y="-42" font-family="Helvetica,sans-Serif" font-size="10.00">qualifier</text>
</g>
<!-- Node2&#45;&gt;Node2 -->
<g id="edge2" class="edge"><title>Node2&#45;&gt;Node2</title>
<path fill="none" stroke="#9a32cd" stroke-dasharray="5,2" d="M50.4158,-99.8026C54.9402,-98.7429 58,-96.4753 58,-93 58,-87.2969 49.7602,-84.8463 40.3294,-85.6483"/>
<polygon fill="#9a32cd" stroke="#9a32cd" points="50.1244,-96.3132 40.3294,-100.352 50.5049,-103.303 50.1244,-96.3132"/>
<text text-anchor="middle" x="86.6206" y="-89" font-family="Helvetica,sans-Serif" font-size="10.00"> EmptyString</text>
</g>
<!-- Node3 -->
<g id="node3" class="node"><title>Node3</title>
<g id="a_node3"><a xlink:href="struct_c_f_i_1_1_component_1_1_point.xhtml" target="_top" xlink:title="A simple structure which defines a spatial location and can perform comparisons.">
<polygon fill="white" stroke="black" points="133.143,-83 133.143,-103 250.857,-103 250.857,-83 133.143,-83"/>
<text text-anchor="middle" x="192" y="-89" font-family="Helvetica,sans-Serif" font-size="10.00">CFI::Component::Point</text>
</a>
</g>
</g>
<!-- Node3&#45;&gt;Node1 -->
<g id="edge3" class="edge"><title>Node3&#45;&gt;Node1</title>
<path fill="none" stroke="#9a32cd" stroke-dasharray="5,2" d="M182.136,-73.6478C173.3,-57.2091 160.712,-33.7896 153.875,-21.07"/>
<polygon fill="#9a32cd" stroke="#9a32cd" points="179.25,-75.6718 187.067,-82.823 185.416,-72.3577 179.25,-75.6718"/>
<text text-anchor="middle" x="205.092" y="-48" font-family="Helvetica,sans-Serif" font-size="10.00"> spatialOffset</text>
</g>
</g>
</svg>
