<?xml version="1.0" encoding="UTF-8" standalone="no"?>
<!DOCTYPE svg PUBLIC "-//W3C//DTD SVG 1.1//EN"
 "http://www.w3.org/Graphics/SVG/1.1/DTD/svg11.dtd">
<!-- Generated by graphviz version 2.30.0 (20130114.0426)
 -->
<!-- Title: __shared_state_base Pages: 1 -->
<svg width="836pt" height="556pt"
 viewBox="0.00 0.00 836.00 556.00" xmlns="http://www.w3.org/2000/svg" xmlns:xlink="http://www.w3.org/1999/xlink">
<g id="graph0" class="graph" transform="scale(1 1) rotate(0) translate(4 552)">
<title>__shared_state_base</title>
<polygon fill="white" stroke="white" points="-4,5 -4,-552 833,-552 833,5 -4,5"/>
<!-- Node1 -->
<g id="node1" class="node"><title>Node1</title>
<polygon fill="#bfbfbf" stroke="black" points="149.907,-343 149.907,-363 262.093,-363 262.093,-343 149.907,-343"/>
<text text-anchor="middle" x="206" y="-349" font-family="Helvetica,sans-Serif" font-size="10.00">__shared_state_base</text>
</g>
<!-- Node3 -->
<g id="node3" class="node"><title>Node3</title>
<g id="a_node3"><a xlink:href="struct____shared__state.xhtml" target="_top" xlink:title="__shared_state\&lt; _Tp \&gt;">
<polygon fill="white" stroke="black" points="303.296,-478 303.296,-498 422.704,-498 422.704,-478 303.296,-478"/>
<text text-anchor="middle" x="363" y="-484" font-family="Helvetica,sans-Serif" font-size="10.00">__shared_state&lt; _Tp &gt;</text>
</a>
</g>
</g>
<!-- Node1&#45;&gt;Node3 -->
<g id="edge2" class="edge"><title>Node1&#45;&gt;Node3</title>
<path fill="none" stroke="midnightblue" d="M217.173,-372.038C231.756,-397.549 260.975,-442.554 298,-468 303.948,-472.088 310.769,-475.369 317.691,-477.994"/>
<polygon fill="midnightblue" stroke="midnightblue" points="220.232,-370.337 212.315,-363.297 214.114,-373.738 220.232,-370.337"/>
</g>
<!-- Node4 -->
<g id="node4" class="node"><title>Node4</title>
<g id="a_node4"><a xlink:href="struct____shared__state.xhtml" target="_top" xlink:title="__shared_state\&lt; _Rp &amp; \&gt;">
<polygon fill="white" stroke="black" points="298.015,-439 298.015,-459 427.985,-459 427.985,-439 298.015,-439"/>
<text text-anchor="middle" x="363" y="-445" font-family="Helvetica,sans-Serif" font-size="10.00">__shared_state&lt; _Rp &amp; &gt;</text>
</a>
</g>
</g>
<!-- Node1&#45;&gt;Node4 -->
<g id="edge3" class="edge"><title>Node1&#45;&gt;Node4</title>
<path fill="none" stroke="midnightblue" d="M232.047,-368.513C263.97,-388.285 318.267,-421.914 345.457,-438.754"/>
<polygon fill="midnightblue" stroke="midnightblue" points="233.639,-365.382 223.295,-363.092 229.953,-371.333 233.639,-365.382"/>
</g>
<!-- Node8 -->
<g id="node8" class="node"><title>Node8</title>
<g id="a_node8"><a xlink:href="struct____shared__state.xhtml" target="_top" xlink:title="__shared_state\&lt; _Rp \&gt;">
<polygon fill="white" stroke="black" points="302.739,-343 302.739,-363 423.261,-363 423.261,-343 302.739,-343"/>
<text text-anchor="middle" x="363" y="-349" font-family="Helvetica,sans-Serif" font-size="10.00">__shared_state&lt; _Rp &gt;</text>
</a>
</g>
</g>
<!-- Node1&#45;&gt;Node8 -->
<g id="edge7" class="edge"><title>Node1&#45;&gt;Node8</title>
<path fill="none" stroke="midnightblue" d="M272.751,-353C282.686,-353 292.885,-353 302.674,-353"/>
<polygon fill="midnightblue" stroke="midnightblue" points="272.521,-349.5 262.521,-353 272.521,-356.5 272.521,-349.5"/>
</g>
<!-- Node18 -->
<g id="node18" class="node"><title>Node18</title>
<g id="a_node18"><a xlink:href="struct____shared__state_3_01___tp_01_6_01_4.xhtml" target="_top" xlink:title="__shared_state\&lt; _Tp &amp; \&gt;">
<polygon fill="white" stroke="black" points="298.572,-304 298.572,-324 427.428,-324 427.428,-304 298.572,-304"/>
<text text-anchor="middle" x="363" y="-310" font-family="Helvetica,sans-Serif" font-size="10.00">__shared_state&lt; _Tp &amp; &gt;</text>
</a>
</g>
</g>
<!-- Node1&#45;&gt;Node18 -->
<g id="edge17" class="edge"><title>Node1&#45;&gt;Node18</title>
<path fill="none" stroke="midnightblue" d="M256.709,-340.493C277.889,-335.163 302.261,-329.031 322.219,-324.009"/>
<polygon fill="midnightblue" stroke="midnightblue" points="255.76,-337.122 246.916,-342.957 257.468,-343.911 255.76,-337.122"/>
</g>
<!-- Node19 -->
<g id="node19" class="node"><title>Node19</title>
<g id="a_node19"><a xlink:href="struct____shared__state_3_01void_01_4.xhtml" target="_top" xlink:title="__shared_state\&lt; void \&gt;">
<polygon fill="white" stroke="black" points="302.739,-108 302.739,-128 423.261,-128 423.261,-108 302.739,-108"/>
<text text-anchor="middle" x="363" y="-114" font-family="Helvetica,sans-Serif" font-size="10.00">__shared_state&lt; void &gt;</text>
</a>
</g>
</g>
<!-- Node1&#45;&gt;Node19 -->
<g id="edge18" class="edge"><title>Node1&#45;&gt;Node19</title>
<path fill="none" stroke="midnightblue" d="M219.359,-334.262C250.54,-286.988 331.606,-164.081 355.365,-128.06"/>
<polygon fill="midnightblue" stroke="midnightblue" points="216.244,-332.628 213.66,-342.902 222.088,-336.482 216.244,-332.628"/>
</g>
<!-- Node2 -->
<g id="node2" class="node"><title>Node2</title>
<polygon fill="white" stroke="#bfbfbf" points="0.499023,-331 0.499023,-375 113.501,-375 113.501,-331 0.499023,-331"/>
<text text-anchor="start" x="8.49902" y="-361" font-family="Helvetica,sans-Serif" font-size="10.00">std::enable_shared</text>
<text text-anchor="start" x="8.49902" y="-349" font-family="Helvetica,sans-Serif" font-size="10.00">_from_this&lt; __shared</text>
<text text-anchor="middle" x="57" y="-337" font-family="Helvetica,sans-Serif" font-size="10.00">_state_base &gt;</text>
</g>
<!-- Node2&#45;&gt;Node1 -->
<g id="edge1" class="edge"><title>Node2&#45;&gt;Node1</title>
<path fill="none" stroke="midnightblue" d="M123.718,-353C132.442,-353 141.314,-353 149.835,-353"/>
<polygon fill="midnightblue" stroke="midnightblue" points="123.574,-349.5 113.574,-353 123.574,-356.5 123.574,-349.5"/>
</g>
<!-- Node5 -->
<g id="node5" class="node"><title>Node5</title>
<g id="a_node5"><a xlink:href="struct____future__async__shared__state__base.xhtml" target="_top" xlink:title="__future_async_shared\l_state_base\&lt; _Rp &amp; \&gt;">
<polygon fill="white" stroke="black" points="485.742,-516 485.742,-548 606.258,-548 606.258,-516 485.742,-516"/>
<text text-anchor="start" x="493.742" y="-534" font-family="Helvetica,sans-Serif" font-size="10.00">__future_async_shared</text>
<text text-anchor="middle" x="546" y="-522" font-family="Helvetica,sans-Serif" font-size="10.00">_state_base&lt; _Rp &amp; &gt;</text>
</a>
</g>
</g>
<!-- Node4&#45;&gt;Node5 -->
<g id="edge4" class="edge"><title>Node4&#45;&gt;Node5</title>
<path fill="none" stroke="midnightblue" d="M415.937,-462.748C420.138,-464.598 424.216,-466.675 428,-469 447.548,-481.012 444.498,-493.913 464,-506 470.653,-510.124 478.024,-513.654 485.529,-516.661"/>
<polygon fill="midnightblue" stroke="midnightblue" points="417.2,-459.484 406.614,-459.05 414.62,-465.991 417.2,-459.484"/>
</g>
<!-- Node7 -->
<g id="node7" class="node"><title>Node7</title>
<g id="a_node7"><a xlink:href="struct____future__deferred__shared__state_3_01___rp_01_6_00_01___fp_01_4.xhtml" target="_top" xlink:title="__future_deferred_shared\l_state\&lt; _Rp &amp;, _Fp \&gt;">
<polygon fill="white" stroke="black" points="480.18,-465 480.18,-497 611.82,-497 611.82,-465 480.18,-465"/>
<text text-anchor="start" x="488.18" y="-483" font-family="Helvetica,sans-Serif" font-size="10.00">__future_deferred_shared</text>
<text text-anchor="middle" x="546" y="-471" font-family="Helvetica,sans-Serif" font-size="10.00">_state&lt; _Rp &amp;, _Fp &gt;</text>
</a>
</g>
</g>
<!-- Node4&#45;&gt;Node7 -->
<g id="edge6" class="edge"><title>Node4&#45;&gt;Node7</title>
<path fill="none" stroke="midnightblue" d="M430.629,-460.78C446.715,-463.624 463.885,-466.659 479.9,-469.491"/>
<polygon fill="midnightblue" stroke="midnightblue" points="431.23,-457.332 420.773,-459.037 430.011,-464.225 431.23,-457.332"/>
</g>
<!-- Node6 -->
<g id="node6" class="node"><title>Node6</title>
<g id="a_node6"><a xlink:href="struct____future__async__shared__state_3_01___rp_01_6_00_01___fp_01_4.xhtml" target="_top" xlink:title="__future_async_shared\l_state\&lt; _Rp &amp;, _Fp \&gt;">
<polygon fill="white" stroke="black" points="685.742,-516 685.742,-548 806.258,-548 806.258,-516 685.742,-516"/>
<text text-anchor="start" x="693.742" y="-534" font-family="Helvetica,sans-Serif" font-size="10.00">__future_async_shared</text>
<text text-anchor="middle" x="746" y="-522" font-family="Helvetica,sans-Serif" font-size="10.00">_state&lt; _Rp &amp;, _Fp &gt;</text>
</a>
</g>
</g>
<!-- Node5&#45;&gt;Node6 -->
<g id="edge5" class="edge"><title>Node5&#45;&gt;Node6</title>
<path fill="none" stroke="midnightblue" d="M616.587,-532C639.128,-532 663.907,-532 685.635,-532"/>
<polygon fill="midnightblue" stroke="midnightblue" points="616.407,-528.5 606.407,-532 616.406,-535.5 616.407,-528.5"/>
</g>
<!-- Node9 -->
<g id="node9" class="node"><title>Node9</title>
<g id="a_node9"><a xlink:href="struct____future__async__shared__state__base.xhtml" target="_top" xlink:title="__future_async_shared\l_state_base\&lt; _Rp \&gt;">
<polygon fill="white" stroke="black" points="485.742,-414 485.742,-446 606.258,-446 606.258,-414 485.742,-414"/>
<text text-anchor="start" x="493.742" y="-432" font-family="Helvetica,sans-Serif" font-size="10.00">__future_async_shared</text>
<text text-anchor="middle" x="546" y="-420" font-family="Helvetica,sans-Serif" font-size="10.00">_state_base&lt; _Rp &gt;</text>
</a>
</g>
</g>
<!-- Node8&#45;&gt;Node9 -->
<g id="edge8" class="edge"><title>Node8&#45;&gt;Node9</title>
<path fill="none" stroke="midnightblue" d="M390.425,-367.956C410.272,-378.822 438.336,-393.418 464,-404 472.602,-407.547 481.876,-410.923 490.97,-413.997"/>
<polygon fill="midnightblue" stroke="midnightblue" points="392.1,-364.883 381.655,-363.105 388.711,-371.008 392.1,-364.883"/>
</g>
<!-- Node12 -->
<g id="node12" class="node"><title>Node12</title>
<g id="a_node12"><a xlink:href="struct____future__deferred__continuation__shared__state.xhtml" target="_top" xlink:title="__future_deferred_continuation\l_shared_state\&lt; _Fut, _Rp, _Fp \&gt;">
<polygon fill="white" stroke="black" points="464.343,-363 464.343,-395 627.657,-395 627.657,-363 464.343,-363"/>
<text text-anchor="start" x="472.343" y="-381" font-family="Helvetica,sans-Serif" font-size="10.00">__future_deferred_continuation</text>
<text text-anchor="middle" x="546" y="-369" font-family="Helvetica,sans-Serif" font-size="10.00">_shared_state&lt; _Fut, _Rp, _Fp &gt;</text>
</a>
</g>
</g>
<!-- Node8&#45;&gt;Node12 -->
<g id="edge11" class="edge"><title>Node8&#45;&gt;Node12</title>
<path fill="none" stroke="midnightblue" d="M433.253,-362.948C443.385,-364.403 453.894,-365.913 464.231,-367.398"/>
<polygon fill="midnightblue" stroke="midnightblue" points="433.662,-359.471 423.266,-361.513 432.667,-366.4 433.662,-359.471"/>
</g>
<!-- Node13 -->
<g id="node13" class="node"><title>Node13</title>
<g id="a_node13"><a xlink:href="struct____future__deferred__shared__state.xhtml" target="_top" xlink:title="__future_deferred_shared\l_state\&lt; _Rp, _Fp \&gt;">
<polygon fill="white" stroke="black" points="480.18,-312 480.18,-344 611.82,-344 611.82,-312 480.18,-312"/>
<text text-anchor="start" x="488.18" y="-330" font-family="Helvetica,sans-Serif" font-size="10.00">__future_deferred_shared</text>
<text text-anchor="middle" x="546" y="-318" font-family="Helvetica,sans-Serif" font-size="10.00">_state&lt; _Rp, _Fp &gt;</text>
</a>
</g>
</g>
<!-- Node8&#45;&gt;Node13 -->
<g id="edge12" class="edge"><title>Node8&#45;&gt;Node13</title>
<path fill="none" stroke="midnightblue" d="M433.213,-343.44C448.569,-341.319 464.792,-339.078 479.974,-336.981"/>
<polygon fill="midnightblue" stroke="midnightblue" points="432.693,-339.979 423.266,-344.814 433.651,-346.913 432.693,-339.979"/>
</g>
<!-- Node14 -->
<g id="node14" class="node"><title>Node14</title>
<g id="a_node14"><a xlink:href="struct____future__executor__continuation__shared__state.xhtml" target="_top" xlink:title="__future_executor_continuation\l_shared_state\&lt; _Fut, _Rp, _Fp \&gt;">
<polygon fill="white" stroke="black" points="464.343,-261 464.343,-293 627.657,-293 627.657,-261 464.343,-261"/>
<text text-anchor="start" x="472.343" y="-279" font-family="Helvetica,sans-Serif" font-size="10.00">__future_executor_continuation</text>
<text text-anchor="middle" x="546" y="-267" font-family="Helvetica,sans-Serif" font-size="10.00">_shared_state&lt; _Fut, _Rp, _Fp &gt;</text>
</a>
</g>
</g>
<!-- Node8&#45;&gt;Node14 -->
<g id="edge13" class="edge"><title>Node8&#45;&gt;Node14</title>
<path fill="none" stroke="midnightblue" d="M414.583,-339.355C419.227,-337.462 423.77,-335.349 428,-333 446.46,-322.75 445.522,-312.218 464,-302 470.053,-298.653 476.614,-295.692 483.292,-293.088"/>
<polygon fill="midnightblue" stroke="midnightblue" points="413.128,-336.162 404.979,-342.933 415.572,-342.721 413.128,-336.162"/>
</g>
<!-- Node15 -->
<g id="node15" class="node"><title>Node15</title>
<g id="a_node15"><a xlink:href="struct____task__base__shared__state_3_01___rp_07___args_8_8_8_08_4.xhtml" target="_top" xlink:title="__task_base_shared\l_state\&lt; _Rp(_Args...)\&gt;">
<polygon fill="white" stroke="black" points="487.419,-210 487.419,-242 604.581,-242 604.581,-210 487.419,-210"/>
<text text-anchor="start" x="495.419" y="-228" font-family="Helvetica,sans-Serif" font-size="10.00">__task_base_shared</text>
<text text-anchor="middle" x="546" y="-216" font-family="Helvetica,sans-Serif" font-size="10.00">_state&lt; _Rp(_Args...)&gt;</text>
</a>
</g>
</g>
<!-- Node8&#45;&gt;Node15 -->
<g id="edge14" class="edge"><title>Node8&#45;&gt;Node15</title>
<path fill="none" stroke="midnightblue" d="M421.529,-337.929C423.816,-336.438 425.989,-334.8 428,-333 457.66,-306.457 434.294,-277.49 464,-251 470.7,-245.025 478.806,-240.478 487.268,-237.018"/>
<polygon fill="midnightblue" stroke="midnightblue" points="419.35,-335.129 412.234,-342.978 422.691,-341.28 419.35,-335.129"/>
</g>
<!-- Node10 -->
<g id="node10" class="node"><title>Node10</title>
<g id="a_node10"><a xlink:href="struct____future__async__continuation__shared__state.xhtml" target="_top" xlink:title="__future_async_continuation\l_shared_state\&lt; _Rp \&gt;">
<polygon fill="white" stroke="black" points="674.064,-439 674.064,-471 817.936,-471 817.936,-439 674.064,-439"/>
<text text-anchor="start" x="682.064" y="-457" font-family="Helvetica,sans-Serif" font-size="10.00">__future_async_continuation</text>
<text text-anchor="middle" x="746" y="-445" font-family="Helvetica,sans-Serif" font-size="10.00">_shared_state&lt; _Rp &gt;</text>
</a>
</g>
</g>
<!-- Node9&#45;&gt;Node10 -->
<g id="edge9" class="edge"><title>Node9&#45;&gt;Node10</title>
<path fill="none" stroke="midnightblue" d="M616.532,-438.779C635.071,-441.12 655.128,-443.653 673.758,-446.005"/>
<polygon fill="midnightblue" stroke="midnightblue" points="616.766,-435.281 606.407,-437.501 615.889,-442.226 616.766,-435.281"/>
</g>
<!-- Node11 -->
<g id="node11" class="node"><title>Node11</title>
<g id="a_node11"><a xlink:href="struct____future__async__shared__state.xhtml" target="_top" xlink:title="__future_async_shared\l_state\&lt; _Rp \&gt;">
<polygon fill="white" stroke="black" points="685.742,-388 685.742,-420 806.258,-420 806.258,-388 685.742,-388"/>
<text text-anchor="start" x="693.742" y="-406" font-family="Helvetica,sans-Serif" font-size="10.00">__future_async_shared</text>
<text text-anchor="middle" x="746" y="-394" font-family="Helvetica,sans-Serif" font-size="10.00">_state&lt; _Rp &gt;</text>
</a>
</g>
</g>
<!-- Node9&#45;&gt;Node11 -->
<g id="edge10" class="edge"><title>Node9&#45;&gt;Node11</title>
<path fill="none" stroke="midnightblue" d="M616.587,-420.862C639.128,-417.902 663.907,-414.649 685.635,-411.795"/>
<polygon fill="midnightblue" stroke="midnightblue" points="615.866,-417.427 606.407,-422.199 616.777,-424.367 615.866,-417.427"/>
</g>
<!-- Node16 -->
<g id="node16" class="node"><title>Node16</title>
<g id="a_node16"><a xlink:href="struct____task__shared__state_3_01___fp_00_01___rp_07___args_8_8_8_08_4.xhtml" target="_top" xlink:title="__task_shared_state\l\&lt; _Fp, _Rp(_Args...)\&gt;">
<polygon fill="white" stroke="black" points="689.646,-267 689.646,-299 802.354,-299 802.354,-267 689.646,-267"/>
<text text-anchor="start" x="697.646" y="-285" font-family="Helvetica,sans-Serif" font-size="10.00">__task_shared_state</text>
<text text-anchor="middle" x="746" y="-273" font-family="Helvetica,sans-Serif" font-size="10.00">&lt; _Fp, _Rp(_Args...)&gt;</text>
</a>
</g>
</g>
<!-- Node15&#45;&gt;Node16 -->
<g id="edge15" class="edge"><title>Node15&#45;&gt;Node16</title>
<path fill="none" stroke="midnightblue" d="M612.416,-244.832C637.334,-252.005 665.471,-260.105 689.394,-266.992"/>
<polygon fill="midnightblue" stroke="midnightblue" points="613.259,-241.432 602.681,-242.029 611.322,-248.159 613.259,-241.432"/>
</g>
<!-- Node17 -->
<g id="node17" class="node"><title>Node17</title>
<g id="a_node17"><a xlink:href="struct____task__shared__state_3_01std_1_1function_3_01___rp_07___args_8_8_8_08_4_00_01___rp_07___args_8_8_8_08_4.xhtml" target="_top" xlink:title="__task_shared_state\l\&lt; std::function\&lt; _Rp\l(_Args...)\&gt;, _Rp(_Args...)\&gt;">
<polygon fill="white" stroke="black" points="679.091,-204 679.091,-248 812.909,-248 812.909,-204 679.091,-204"/>
<text text-anchor="start" x="687.091" y="-234" font-family="Helvetica,sans-Serif" font-size="10.00">__task_shared_state</text>
<text text-anchor="start" x="687.091" y="-222" font-family="Helvetica,sans-Serif" font-size="10.00">&lt; std::function&lt; _Rp</text>
<text text-anchor="middle" x="746" y="-210" font-family="Helvetica,sans-Serif" font-size="10.00">(_Args...)&gt;, _Rp(_Args...)&gt;</text>
</a>
</g>
</g>
<!-- Node15&#45;&gt;Node17 -->
<g id="edge16" class="edge"><title>Node15&#45;&gt;Node17</title>
<path fill="none" stroke="midnightblue" d="M615.059,-226C635.671,-226 658.272,-226 678.762,-226"/>
<polygon fill="midnightblue" stroke="midnightblue" points="614.802,-222.5 604.802,-226 614.802,-229.5 614.802,-222.5"/>
</g>
<!-- Node20 -->
<g id="node20" class="node"><title>Node20</title>
<g id="a_node20"><a xlink:href="struct____future__async__shared__state__base.xhtml" target="_top" xlink:title="__future_async_shared\l_state_base\&lt; void \&gt;">
<polygon fill="white" stroke="black" points="485.742,-153 485.742,-185 606.258,-185 606.258,-153 485.742,-153"/>
<text text-anchor="start" x="493.742" y="-171" font-family="Helvetica,sans-Serif" font-size="10.00">__future_async_shared</text>
<text text-anchor="middle" x="546" y="-159" font-family="Helvetica,sans-Serif" font-size="10.00">_state_base&lt; void &gt;</text>
</a>
</g>
</g>
<!-- Node19&#45;&gt;Node20 -->
<g id="edge19" class="edge"><title>Node19&#45;&gt;Node20</title>
<path fill="none" stroke="midnightblue" d="M409.582,-130.843C433.356,-137.542 462.672,-145.803 487.94,-152.922"/>
<polygon fill="midnightblue" stroke="midnightblue" points="410.334,-127.419 399.76,-128.076 408.436,-134.157 410.334,-127.419"/>
</g>
<!-- Node23 -->
<g id="node23" class="node"><title>Node23</title>
<g id="a_node23"><a xlink:href="struct____future__deferred__continuation__shared__state_3_01___fut_00_01void_00_01___fp_01_4.xhtml" target="_top" xlink:title="__future_deferred_continuation\l_shared_state\&lt; _Fut, void, _Fp \&gt;">
<polygon fill="white" stroke="black" points="464.343,-102 464.343,-134 627.657,-134 627.657,-102 464.343,-102"/>
<text text-anchor="start" x="472.343" y="-120" font-family="Helvetica,sans-Serif" font-size="10.00">__future_deferred_continuation</text>
<text text-anchor="middle" x="546" y="-108" font-family="Helvetica,sans-Serif" font-size="10.00">_shared_state&lt; _Fut, void, _Fp &gt;</text>
</a>
</g>
</g>
<!-- Node19&#45;&gt;Node23 -->
<g id="edge22" class="edge"><title>Node19&#45;&gt;Node23</title>
<path fill="none" stroke="midnightblue" d="M433.569,-118C443.604,-118 454.001,-118 464.231,-118"/>
<polygon fill="midnightblue" stroke="midnightblue" points="433.266,-114.5 423.266,-118 433.266,-121.5 433.266,-114.5"/>
</g>
<!-- Node24 -->
<g id="node24" class="node"><title>Node24</title>
<g id="a_node24"><a xlink:href="struct____future__deferred__shared__state_3_01void_00_01___fp_01_4.xhtml" target="_top" xlink:title="__future_deferred_shared\l_state\&lt; void, _Fp \&gt;">
<polygon fill="white" stroke="black" points="480.18,-51 480.18,-83 611.82,-83 611.82,-51 480.18,-51"/>
<text text-anchor="start" x="488.18" y="-69" font-family="Helvetica,sans-Serif" font-size="10.00">__future_deferred_shared</text>
<text text-anchor="middle" x="546" y="-57" font-family="Helvetica,sans-Serif" font-size="10.00">_state&lt; void, _Fp &gt;</text>
</a>
</g>
</g>
<!-- Node19&#45;&gt;Node24 -->
<g id="edge23" class="edge"><title>Node19&#45;&gt;Node24</title>
<path fill="none" stroke="midnightblue" d="M409.582,-105.157C433.356,-98.4576 462.672,-90.1974 487.94,-83.0777"/>
<polygon fill="midnightblue" stroke="midnightblue" points="408.436,-101.843 399.76,-107.924 410.334,-108.581 408.436,-101.843"/>
</g>
<!-- Node25 -->
<g id="node25" class="node"><title>Node25</title>
<g id="a_node25"><a xlink:href="struct____future__executor__continuation__shared__state_3_01___fut_00_01void_00_01___fp_01_4.xhtml" target="_top" xlink:title="__future_executor_continuation\l_shared_state\&lt; _Fut, void, _Fp \&gt;">
<polygon fill="white" stroke="black" points="464.343,-0 464.343,-32 627.657,-32 627.657,-0 464.343,-0"/>
<text text-anchor="start" x="472.343" y="-18" font-family="Helvetica,sans-Serif" font-size="10.00">__future_executor_continuation</text>
<text text-anchor="middle" x="546" y="-6" font-family="Helvetica,sans-Serif" font-size="10.00">_shared_state&lt; _Fut, void, _Fp &gt;</text>
</a>
</g>
</g>
<!-- Node19&#45;&gt;Node25 -->
<g id="edge24" class="edge"><title>Node19&#45;&gt;Node25</title>
<path fill="none" stroke="midnightblue" d="M382.096,-100.809C401.137,-83.5438 432.643,-57.236 464,-41 470.404,-37.6842 477.324,-34.7218 484.328,-32.099"/>
<polygon fill="midnightblue" stroke="midnightblue" points="379.477,-98.4635 374.503,-107.818 384.225,-103.607 379.477,-98.4635"/>
</g>
<!-- Node21 -->
<g id="node21" class="node"><title>Node21</title>
<g id="a_node21"><a xlink:href="struct____future__async__continuation__shared__state_3_01___fut_00_01void_00_01___fp_01_4.xhtml" target="_top" xlink:title="__future_async_continuation\l_shared_state\&lt; _Fut, void, _Fp \&gt;">
<polygon fill="white" stroke="black" points="664.343,-153 664.343,-185 827.657,-185 827.657,-153 664.343,-153"/>
<text text-anchor="start" x="672.343" y="-171" font-family="Helvetica,sans-Serif" font-size="10.00">__future_async_continuation</text>
<text text-anchor="middle" x="746" y="-159" font-family="Helvetica,sans-Serif" font-size="10.00">_shared_state&lt; _Fut, void, _Fp &gt;</text>
</a>
</g>
</g>
<!-- Node20&#45;&gt;Node21 -->
<g id="edge20" class="edge"><title>Node20&#45;&gt;Node21</title>
<path fill="none" stroke="midnightblue" d="M616.797,-169C632.071,-169 648.363,-169 664.031,-169"/>
<polygon fill="midnightblue" stroke="midnightblue" points="616.407,-165.5 606.407,-169 616.406,-172.5 616.407,-165.5"/>
</g>
<!-- Node22 -->
<g id="node22" class="node"><title>Node22</title>
<g id="a_node22"><a xlink:href="struct____future__async__shared__state_3_01void_00_01___fp_01_4.xhtml" target="_top" xlink:title="__future_async_shared\l_state\&lt; void, _Fp \&gt;">
<polygon fill="white" stroke="black" points="685.742,-102 685.742,-134 806.258,-134 806.258,-102 685.742,-102"/>
<text text-anchor="start" x="693.742" y="-120" font-family="Helvetica,sans-Serif" font-size="10.00">__future_async_shared</text>
<text text-anchor="middle" x="746" y="-108" font-family="Helvetica,sans-Serif" font-size="10.00">_state&lt; void, _Fp &gt;</text>
</a>
</g>
</g>
<!-- Node20&#45;&gt;Node22 -->
<g id="edge21" class="edge"><title>Node20&#45;&gt;Node22</title>
<path fill="none" stroke="midnightblue" d="M616.282,-151.155C638.905,-145.327 663.809,-138.913 685.635,-133.291"/>
<polygon fill="midnightblue" stroke="midnightblue" points="615.217,-147.815 606.407,-153.698 616.963,-154.593 615.217,-147.815"/>
</g>
</g>
</svg>
