<?xml version="1.0" encoding="UTF-8" standalone="no"?>
<!DOCTYPE svg PUBLIC "-//W3C//DTD SVG 1.1//EN"
 "http://www.w3.org/Graphics/SVG/1.1/DTD/svg11.dtd">
<!-- Generated by graphviz version 2.30.0 (20130114.0426)
 -->
<!-- Title: __task_shared_state&lt; std::function&lt; _Rp(_Args...)&gt;, _Rp(_Args...)&gt; Pages: 1 -->
<svg width="140pt" height="322pt"
 viewBox="0.00 0.00 140.00 322.00" xmlns="http://www.w3.org/2000/svg" xmlns:xlink="http://www.w3.org/1999/xlink">
<g id="graph0" class="graph" transform="scale(1 1) rotate(0) translate(4 318)">
<title>__task_shared_state&lt; std::function&lt; _Rp(_Args...)&gt;, _Rp(_Args...)&gt;</title>
<polygon fill="white" stroke="white" points="-4,5 -4,-318 137,-318 137,5 -4,5"/>
<!-- Node1 -->
<g id="node1" class="node"><title>Node1</title>
<polygon fill="#bfbfbf" stroke="black" points="-0.908691,-1 -0.908691,-45 132.909,-45 132.909,-1 -0.908691,-1"/>
<text text-anchor="start" x="7.09131" y="-31" font-family="Helvetica,sans-Serif" font-size="10.00">__task_shared_state</text>
<text text-anchor="start" x="7.09131" y="-19" font-family="Helvetica,sans-Serif" font-size="10.00">&lt; std::function&lt; _Rp</text>
<text text-anchor="middle" x="66" y="-7" font-family="Helvetica,sans-Serif" font-size="10.00">(_Args...)&gt;, _Rp(_Args...)&gt;</text>
</g>
<!-- Node2 -->
<g id="node2" class="node"><title>Node2</title>
<g id="a_node2"><a xlink:href="struct____task__base__shared__state_3_01___rp_07___args_8_8_8_08_4.xhtml" target="_top" xlink:title="__task_base_shared\l_state\&lt; _Rp(_Args...)\&gt;">
<polygon fill="white" stroke="black" points="7.41895,-83 7.41895,-115 124.581,-115 124.581,-83 7.41895,-83"/>
<text text-anchor="start" x="15.4189" y="-101" font-family="Helvetica,sans-Serif" font-size="10.00">__task_base_shared</text>
<text text-anchor="middle" x="66" y="-89" font-family="Helvetica,sans-Serif" font-size="10.00">_state&lt; _Rp(_Args...)&gt;</text>
</a>
</g>
</g>
<!-- Node2&#45;&gt;Node1 -->
<g id="edge1" class="edge"><title>Node2&#45;&gt;Node1</title>
<path fill="none" stroke="midnightblue" d="M66,-72.467C66,-63.5768 66,-53.7064 66,-45.2054"/>
<polygon fill="midnightblue" stroke="midnightblue" points="62.5001,-72.6671 66,-82.6672 69.5001,-72.6672 62.5001,-72.6671"/>
</g>
<!-- Node3 -->
<g id="node3" class="node"><title>Node3</title>
<g id="a_node3"><a xlink:href="struct____shared__state.xhtml" target="_top" xlink:title="__shared_state\&lt; _Rp \&gt;">
<polygon fill="white" stroke="black" points="5.73926,-153 5.73926,-173 126.261,-173 126.261,-153 5.73926,-153"/>
<text text-anchor="middle" x="66" y="-159" font-family="Helvetica,sans-Serif" font-size="10.00">__shared_state&lt; _Rp &gt;</text>
</a>
</g>
</g>
<!-- Node3&#45;&gt;Node2 -->
<g id="edge2" class="edge"><title>Node3&#45;&gt;Node2</title>
<path fill="none" stroke="midnightblue" d="M66,-142.775C66,-133.986 66,-123.715 66,-115.44"/>
<polygon fill="midnightblue" stroke="midnightblue" points="62.5001,-142.852 66,-152.852 69.5001,-142.852 62.5001,-142.852"/>
</g>
<!-- Node4 -->
<g id="node4" class="node"><title>Node4</title>
<g id="a_node4"><a xlink:href="struct____shared__state__base.xhtml" target="_top" xlink:title="__shared_state_base">
<polygon fill="white" stroke="black" points="9.90674,-211 9.90674,-231 122.093,-231 122.093,-211 9.90674,-211"/>
<text text-anchor="middle" x="66" y="-217" font-family="Helvetica,sans-Serif" font-size="10.00">__shared_state_base</text>
</a>
</g>
</g>
<!-- Node4&#45;&gt;Node3 -->
<g id="edge3" class="edge"><title>Node4&#45;&gt;Node3</title>
<path fill="none" stroke="midnightblue" d="M66,-200.707C66,-191.338 66,-180.526 66,-173.075"/>
<polygon fill="midnightblue" stroke="midnightblue" points="62.5001,-200.753 66,-210.753 69.5001,-200.753 62.5001,-200.753"/>
</g>
<!-- Node5 -->
<g id="node5" class="node"><title>Node5</title>
<polygon fill="white" stroke="#bfbfbf" points="9.49902,-269 9.49902,-313 122.501,-313 122.501,-269 9.49902,-269"/>
<text text-anchor="start" x="17.499" y="-299" font-family="Helvetica,sans-Serif" font-size="10.00">std::enable_shared</text>
<text text-anchor="start" x="17.499" y="-287" font-family="Helvetica,sans-Serif" font-size="10.00">_from_this&lt; __shared</text>
<text text-anchor="middle" x="66" y="-275" font-family="Helvetica,sans-Serif" font-size="10.00">_state_base &gt;</text>
</g>
<!-- Node5&#45;&gt;Node4 -->
<g id="edge4" class="edge"><title>Node5&#45;&gt;Node4</title>
<path fill="none" stroke="midnightblue" d="M66,-258.68C66,-248.665 66,-238.338 66,-231.204"/>
<polygon fill="midnightblue" stroke="midnightblue" points="62.5001,-258.857 66,-268.857 69.5001,-258.857 62.5001,-258.857"/>
</g>
</g>
</svg>
