<?xml version="1.0" encoding="UTF-8" standalone="no"?>
<!DOCTYPE svg PUBLIC "-//W3C//DTD SVG 1.1//EN"
 "http://www.w3.org/Graphics/SVG/1.1/DTD/svg11.dtd">
<!-- Generated by graphviz version 2.30.0 (20130114.0426)
 -->
<!-- Title: /Users/rkwright/Documents/github/readium&#45;sdk&#45;D/ePub3/utilities/utfstring.h Pages: 1 -->
<svg width="1105pt" height="414pt"
 viewBox="0.00 0.00 1105.00 414.00" xmlns="http://www.w3.org/2000/svg" xmlns:xlink="http://www.w3.org/1999/xlink">
<g id="graph0" class="graph" transform="scale(1 1) rotate(0) translate(4 410)">
<title>/Users/rkwright/Documents/github/readium&#45;sdk&#45;D/ePub3/utilities/utfstring.h</title>
<polygon fill="white" stroke="white" points="-4,5 -4,-410 1102,-410 1102,5 -4,5"/>
<!-- Node1 -->
<g id="node1" class="node"><title>Node1</title>
<polygon fill="#bfbfbf" stroke="black" points="586.966,-361 586.966,-405 733.034,-405 733.034,-361 586.966,-361"/>
<text text-anchor="start" x="594.966" y="-391" font-family="Helvetica,sans-Serif" font-size="10.00">/Users/rkwright/Documents</text>
<text text-anchor="start" x="594.966" y="-379" font-family="Helvetica,sans-Serif" font-size="10.00">/github/readium&#45;sdk&#45;D/ePub3</text>
<text text-anchor="middle" x="660" y="-367" font-family="Helvetica,sans-Serif" font-size="10.00">/utilities/utfstring.h</text>
</g>
<!-- Node2 -->
<g id="node2" class="node"><title>Node2</title>
<g id="a_node2"><a xlink:href="basic_8h.xhtml" target="_top" xlink:title="ePub3/utilities/basic.h">
<polygon fill="white" stroke="black" points="493.638,-297 493.638,-317 606.362,-317 606.362,-297 493.638,-297"/>
<text text-anchor="middle" x="550" y="-303" font-family="Helvetica,sans-Serif" font-size="10.00">ePub3/utilities/basic.h</text>
</a>
</g>
</g>
<!-- Node1&#45;&gt;Node2 -->
<g id="edge1" class="edge"><title>Node1&#45;&gt;Node2</title>
<path fill="none" stroke="midnightblue" d="M628.773,-360.993C610.551,-348.734 588.019,-333.576 571.727,-322.616"/>
<polygon fill="midnightblue" stroke="midnightblue" points="573.636,-319.682 563.385,-317.004 569.729,-325.49 573.636,-319.682"/>
</g>
<!-- Node13 -->
<g id="node13" class="node"><title>Node13</title>
<g id="a_node13"><a xlink:href="integer__sequence_8h.xhtml" target="_top" xlink:title="ePub3/utilities/integer\l_sequence.h">
<polygon fill="white" stroke="black" points="-0.807617,-291 -0.807617,-323 110.808,-323 110.808,-291 -0.807617,-291"/>
<text text-anchor="start" x="7.19238" y="-309" font-family="Helvetica,sans-Serif" font-size="10.00">ePub3/utilities/integer</text>
<text text-anchor="middle" x="55" y="-297" font-family="Helvetica,sans-Serif" font-size="10.00">_sequence.h</text>
</a>
</g>
</g>
<!-- Node1&#45;&gt;Node13 -->
<g id="edge12" class="edge"><title>Node1&#45;&gt;Node13</title>
<path fill="none" stroke="midnightblue" d="M586.939,-374.873C487.95,-364.944 305.798,-345.705 151,-324 141.274,-322.636 131.016,-321.067 120.968,-319.456"/>
<polygon fill="midnightblue" stroke="midnightblue" points="121.45,-315.988 111.018,-317.837 120.326,-322.897 121.45,-315.988"/>
</g>
<!-- Node14 -->
<g id="node14" class="node"><title>Node14</title>
<g id="a_node14"><a xlink:href="string__view_8h.xhtml" target="_top" xlink:title="ePub3/utilities/string\l_view.h">
<polygon fill="white" stroke="black" points="245.254,-291 245.254,-323 350.746,-323 350.746,-291 245.254,-291"/>
<text text-anchor="start" x="253.254" y="-309" font-family="Helvetica,sans-Serif" font-size="10.00">ePub3/utilities/string</text>
<text text-anchor="middle" x="298" y="-297" font-family="Helvetica,sans-Serif" font-size="10.00">_view.h</text>
</a>
</g>
</g>
<!-- Node1&#45;&gt;Node14 -->
<g id="edge14" class="edge"><title>Node1&#45;&gt;Node14</title>
<path fill="none" stroke="midnightblue" d="M586.744,-367.025C520.499,-353.483 423.979,-333.753 361.087,-320.896"/>
<polygon fill="midnightblue" stroke="midnightblue" points="361.406,-317.389 350.907,-318.815 360.004,-324.247 361.406,-317.389"/>
</g>
<!-- Node16 -->
<g id="node16" class="node"><title>Node16</title>
<polygon fill="white" stroke="#bfbfbf" points="56.7734,-233 56.7734,-253 97.2266,-253 97.2266,-233 56.7734,-233"/>
<text text-anchor="middle" x="77" y="-239" font-family="Helvetica,sans-Serif" font-size="10.00">string</text>
</g>
<!-- Node1&#45;&gt;Node16 -->
<g id="edge23" class="edge"><title>Node1&#45;&gt;Node16</title>
<path fill="none" stroke="midnightblue" d="M586.78,-379.293C500.987,-374.464 355.382,-361.067 236,-324 184.871,-308.125 130.124,-277.097 100.073,-258.697"/>
<polygon fill="midnightblue" stroke="midnightblue" points="101.562,-255.501 91.2196,-253.201 97.8701,-261.449 101.562,-255.501"/>
</g>
<!-- Node21 -->
<g id="node21" class="node"><title>Node21</title>
<polygon fill="white" stroke="#bfbfbf" points="662.438,-297 662.438,-317 709.562,-317 709.562,-297 662.438,-297"/>
<text text-anchor="middle" x="686" y="-303" font-family="Helvetica,sans-Serif" font-size="10.00">iterator</text>
</g>
<!-- Node1&#45;&gt;Node21 -->
<g id="edge24" class="edge"><title>Node1&#45;&gt;Node21</title>
<path fill="none" stroke="midnightblue" d="M667.381,-360.993C671.169,-350.21 675.746,-337.184 679.414,-326.744"/>
<polygon fill="midnightblue" stroke="midnightblue" points="682.823,-327.599 682.836,-317.004 676.219,-325.279 682.823,-327.599"/>
</g>
<!-- Node22 -->
<g id="node22" class="node"><title>Node22</title>
<polygon fill="white" stroke="#bfbfbf" points="727.936,-297 727.936,-317 770.064,-317 770.064,-297 727.936,-297"/>
<text text-anchor="middle" x="749" y="-303" font-family="Helvetica,sans-Serif" font-size="10.00">locale</text>
</g>
<!-- Node1&#45;&gt;Node22 -->
<g id="edge25" class="edge"><title>Node1&#45;&gt;Node22</title>
<path fill="none" stroke="midnightblue" d="M685.266,-360.993C699.599,-349.075 717.229,-334.416 730.311,-323.539"/>
<polygon fill="midnightblue" stroke="midnightblue" points="732.719,-326.089 738.17,-317.004 728.243,-320.707 732.719,-326.089"/>
</g>
<!-- Node11 -->
<g id="node11" class="node"><title>Node11</title>
<polygon fill="white" stroke="#bfbfbf" points="811.384,-233 811.384,-253 854.616,-253 854.616,-233 811.384,-233"/>
<text text-anchor="middle" x="833" y="-239" font-family="Helvetica,sans-Serif" font-size="10.00">vector</text>
</g>
<!-- Node1&#45;&gt;Node11 -->
<g id="edge26" class="edge"><title>Node1&#45;&gt;Node11</title>
<path fill="none" stroke="midnightblue" d="M650.883,-360.664C643.781,-340.349 637.477,-309.989 653,-290 657.606,-284.069 750.788,-262.419 801.222,-251.062"/>
<polygon fill="midnightblue" stroke="midnightblue" points="802.296,-254.408 811.288,-248.805 800.764,-247.578 802.296,-254.408"/>
</g>
<!-- Node23 -->
<g id="node23" class="node"><title>Node23</title>
<polygon fill="white" stroke="#bfbfbf" points="787.766,-297 787.766,-317 888.234,-317 888.234,-297 787.766,-297"/>
<text text-anchor="middle" x="838" y="-303" font-family="Helvetica,sans-Serif" font-size="10.00">REGEX_INCLUDE</text>
</g>
<!-- Node1&#45;&gt;Node23 -->
<g id="edge27" class="edge"><title>Node1&#45;&gt;Node23</title>
<path fill="none" stroke="midnightblue" d="M710.532,-360.993C741.519,-348.11 780.21,-332.025 806.789,-320.976"/>
<polygon fill="midnightblue" stroke="midnightblue" points="808.45,-324.075 816.341,-317.004 805.763,-317.611 808.45,-324.075"/>
</g>
<!-- Node24 -->
<g id="node24" class="node"><title>Node24</title>
<polygon fill="white" stroke="#bfbfbf" points="906.273,-297 906.273,-317 941.727,-317 941.727,-297 906.273,-297"/>
<text text-anchor="middle" x="924" y="-303" font-family="Helvetica,sans-Serif" font-size="10.00">map</text>
</g>
<!-- Node1&#45;&gt;Node24 -->
<g id="edge28" class="edge"><title>Node1&#45;&gt;Node24</title>
<path fill="none" stroke="midnightblue" d="M733.039,-369.91C780.808,-360.611 843.955,-345.648 897,-324 898.419,-323.421 899.852,-322.776 901.279,-322.087"/>
<polygon fill="midnightblue" stroke="midnightblue" points="903.286,-324.979 910.392,-317.12 899.936,-318.832 903.286,-324.979"/>
</g>
<!-- Node25 -->
<g id="node25" class="node"><title>Node25</title>
<polygon fill="white" stroke="#bfbfbf" points="959.599,-297 959.599,-317 1018.4,-317 1018.4,-297 959.599,-297"/>
<text text-anchor="middle" x="989" y="-303" font-family="Helvetica,sans-Serif" font-size="10.00">stdexcept</text>
</g>
<!-- Node1&#45;&gt;Node25 -->
<g id="edge29" class="edge"><title>Node1&#45;&gt;Node25</title>
<path fill="none" stroke="midnightblue" d="M733.053,-371.377C792.275,-361.818 877.503,-345.899 950,-324 953.153,-323.048 956.402,-321.936 959.617,-320.75"/>
<polygon fill="midnightblue" stroke="midnightblue" points="960.996,-323.968 969.025,-317.055 958.438,-317.453 960.996,-323.968"/>
</g>
<!-- Node17 -->
<g id="node17" class="node"><title>Node17</title>
<polygon fill="white" stroke="#bfbfbf" points="429.613,-233 429.613,-253 468.387,-253 468.387,-233 429.613,-233"/>
<text text-anchor="middle" x="449" y="-239" font-family="Helvetica,sans-Serif" font-size="10.00">limits</text>
</g>
<!-- Node1&#45;&gt;Node17 -->
<g id="edge30" class="edge"><title>Node1&#45;&gt;Node17</title>
<path fill="none" stroke="midnightblue" d="M586.714,-371.663C552.415,-363.598 513.043,-349.299 485,-324 467.113,-307.864 457.586,-281.127 452.917,-263.05"/>
<polygon fill="midnightblue" stroke="midnightblue" points="456.275,-262.036 450.607,-253.085 449.456,-263.617 456.275,-262.036"/>
</g>
<!-- Node26 -->
<g id="node26" class="node"><title>Node26</title>
<polygon fill="white" stroke="#bfbfbf" points="1036.76,-297 1036.76,-317 1097.24,-317 1097.24,-297 1036.76,-297"/>
<text text-anchor="middle" x="1067" y="-303" font-family="Helvetica,sans-Serif" font-size="10.00">utf8/utf8.h</text>
</g>
<!-- Node1&#45;&gt;Node26 -->
<g id="edge31" class="edge"><title>Node1&#45;&gt;Node26</title>
<path fill="none" stroke="midnightblue" d="M733.091,-375.317C807.898,-367.348 927.025,-351.521 1027,-324 1030.42,-323.058 1033.95,-321.916 1037.42,-320.68"/>
<polygon fill="midnightblue" stroke="midnightblue" points="1038.86,-323.877 1046.95,-317.038 1036.36,-317.339 1038.86,-323.877"/>
</g>
<!-- Node3 -->
<g id="node3" class="node"><title>Node3</title>
<g id="a_node3"><a xlink:href="base_8h.xhtml" target="_top" xlink:title="ePub3/base.h">
<polygon fill="white" stroke="black" points="338.141,-175 338.141,-195 415.859,-195 415.859,-175 338.141,-175"/>
<text text-anchor="middle" x="377" y="-181" font-family="Helvetica,sans-Serif" font-size="10.00">ePub3/base.h</text>
</a>
</g>
</g>
<!-- Node2&#45;&gt;Node3 -->
<g id="edge2" class="edge"><title>Node2&#45;&gt;Node3</title>
<path fill="none" stroke="midnightblue" d="M542.775,-296.751C530.565,-281.605 504.48,-251.275 477,-232 457.236,-218.137 432.627,-206.755 412.767,-198.78"/>
<polygon fill="midnightblue" stroke="midnightblue" points="414.029,-195.516 403.441,-195.143 411.486,-202.038 414.029,-195.516"/>
</g>
<!-- Node8 -->
<g id="node8" class="node"><title>Node8</title>
<polygon fill="white" stroke="#bfbfbf" points="640.815,-233 640.815,-253 755.185,-253 755.185,-233 640.815,-233"/>
<text text-anchor="middle" x="698" y="-239" font-family="Helvetica,sans-Serif" font-size="10.00">ePub3/xml/xmlstring.h</text>
</g>
<!-- Node2&#45;&gt;Node8 -->
<g id="edge7" class="edge"><title>Node2&#45;&gt;Node8</title>
<path fill="none" stroke="midnightblue" d="M571.52,-296.985C596.621,-286.47 638.318,-269.002 666.928,-257.017"/>
<polygon fill="midnightblue" stroke="midnightblue" points="668.583,-260.118 676.454,-253.026 665.878,-253.662 668.583,-260.118"/>
</g>
<!-- Node9 -->
<g id="node9" class="node"><title>Node9</title>
<polygon fill="white" stroke="#bfbfbf" points="524.219,-233 524.219,-253 575.781,-253 575.781,-233 524.219,-233"/>
<text text-anchor="middle" x="550" y="-239" font-family="Helvetica,sans-Serif" font-size="10.00">sstream</text>
</g>
<!-- Node2&#45;&gt;Node9 -->
<g id="edge8" class="edge"><title>Node2&#45;&gt;Node9</title>
<path fill="none" stroke="midnightblue" d="M550,-296.852C550,-288.06 550,-274.498 550,-263.313"/>
<polygon fill="midnightblue" stroke="midnightblue" points="553.5,-263.186 550,-253.186 546.5,-263.186 553.5,-263.186"/>
</g>
<!-- Node10 -->
<g id="node10" class="node"><title>Node10</title>
<polygon fill="white" stroke="#bfbfbf" points="594.943,-175 594.943,-195 647.057,-195 647.057,-175 594.943,-175"/>
<text text-anchor="middle" x="621" y="-181" font-family="Helvetica,sans-Serif" font-size="10.00">memory</text>
</g>
<!-- Node2&#45;&gt;Node10 -->
<g id="edge9" class="edge"><title>Node2&#45;&gt;Node10</title>
<path fill="none" stroke="midnightblue" d="M588.449,-296.971C649.675,-282.549 762.623,-255.752 764,-254 794.994,-214.573 709.194,-196.806 657.32,-189.851"/>
<polygon fill="midnightblue" stroke="midnightblue" points="657.491,-186.345 647.131,-188.564 656.614,-193.29 657.491,-186.345"/>
</g>
<!-- Node2&#45;&gt;Node11 -->
<g id="edge10" class="edge"><title>Node2&#45;&gt;Node11</title>
<path fill="none" stroke="midnightblue" d="M588.84,-296.947C598.972,-294.634 609.886,-292.184 620,-290 698.469,-273.055 718.944,-272.754 797,-254 798.459,-253.65 799.947,-253.281 801.449,-252.9"/>
<polygon fill="midnightblue" stroke="midnightblue" points="802.591,-256.218 811.362,-250.276 800.799,-249.451 802.591,-256.218"/>
</g>
<!-- Node12 -->
<g id="node12" class="node"><title>Node12</title>
<polygon fill="white" stroke="#bfbfbf" points="593.5,-233 593.5,-253 622.5,-253 622.5,-233 593.5,-233"/>
<text text-anchor="middle" x="607.611" y="-239" font-family="Helvetica,sans-Serif" font-size="10.00">list</text>
</g>
<!-- Node2&#45;&gt;Node12 -->
<g id="edge11" class="edge"><title>Node2&#45;&gt;Node12</title>
<path fill="none" stroke="midnightblue" d="M558.558,-296.852C567.468,-287.327 581.615,-272.204 592.498,-260.571"/>
<polygon fill="midnightblue" stroke="midnightblue" points="595.131,-262.88 599.407,-253.186 590.019,-258.098 595.131,-262.88"/>
</g>
<!-- Node4 -->
<g id="node4" class="node"><title>Node4</title>
<g id="a_node4"><a xlink:href="__config_8h.xhtml" target="_top" xlink:title="_config.h">
<polygon fill="white" stroke="black" points="313.707,-117 313.707,-137 370.293,-137 370.293,-117 313.707,-117"/>
<text text-anchor="middle" x="342" y="-123" font-family="Helvetica,sans-Serif" font-size="10.00">_config.h</text>
</a>
</g>
</g>
<!-- Node3&#45;&gt;Node4 -->
<g id="edge3" class="edge"><title>Node3&#45;&gt;Node4</title>
<path fill="none" stroke="midnightblue" d="M371.22,-174.753C366.277,-166.843 359.023,-155.237 352.98,-145.568"/>
<polygon fill="midnightblue" stroke="midnightblue" points="355.94,-143.7 347.672,-137.075 350.004,-147.41 355.94,-143.7"/>
</g>
<!-- Node7 -->
<g id="node7" class="node"><title>Node7</title>
<polygon fill="white" stroke="#bfbfbf" points="388.158,-117 388.158,-137 435.842,-137 435.842,-117 388.158,-117"/>
<text text-anchor="middle" x="412" y="-123" font-family="Helvetica,sans-Serif" font-size="10.00">stdlib.h</text>
</g>
<!-- Node3&#45;&gt;Node7 -->
<g id="edge6" class="edge"><title>Node3&#45;&gt;Node7</title>
<path fill="none" stroke="midnightblue" d="M382.78,-174.753C387.723,-166.843 394.977,-155.237 401.02,-145.568"/>
<polygon fill="midnightblue" stroke="midnightblue" points="403.996,-147.41 406.328,-137.075 398.06,-143.7 403.996,-147.41"/>
</g>
<!-- Node5 -->
<g id="node5" class="node"><title>Node5</title>
<g id="a_node5"><a xlink:href="__platform_8h.xhtml" target="_top" xlink:title="_platform.h">
<polygon fill="white" stroke="black" points="308.988,-59 308.988,-79 375.012,-79 375.012,-59 308.988,-59"/>
<text text-anchor="middle" x="342" y="-65" font-family="Helvetica,sans-Serif" font-size="10.00">_platform.h</text>
</a>
</g>
</g>
<!-- Node4&#45;&gt;Node5 -->
<g id="edge4" class="edge"><title>Node4&#45;&gt;Node5</title>
<path fill="none" stroke="midnightblue" d="M342,-116.753C342,-109.25 342,-98.4238 342,-89.0781"/>
<polygon fill="midnightblue" stroke="midnightblue" points="345.5,-89.0752 342,-79.0752 338.5,-89.0752 345.5,-89.0752"/>
</g>
<!-- Node6 -->
<g id="node6" class="node"><title>Node6</title>
<g id="a_node6"><a xlink:href="__compiler_8h.xhtml" target="_top" xlink:title="_compiler.h">
<polygon fill="white" stroke="black" points="308.429,-1 308.429,-21 375.571,-21 375.571,-1 308.429,-1"/>
<text text-anchor="middle" x="342" y="-7" font-family="Helvetica,sans-Serif" font-size="10.00">_compiler.h</text>
</a>
</g>
</g>
<!-- Node5&#45;&gt;Node6 -->
<g id="edge5" class="edge"><title>Node5&#45;&gt;Node6</title>
<path fill="none" stroke="midnightblue" d="M342,-58.7527C342,-51.2504 342,-40.4238 342,-31.0781"/>
<polygon fill="midnightblue" stroke="midnightblue" points="345.5,-31.0752 342,-21.0752 338.5,-31.0752 345.5,-31.0752"/>
</g>
<!-- Node13&#45;&gt;Node3 -->
<g id="edge13" class="edge"><title>Node13&#45;&gt;Node3</title>
<path fill="none" stroke="midnightblue" d="M47.7997,-290.985C41.0577,-274.479 33.9404,-248.162 48,-232 83.6649,-191.002 245.088,-185.436 327.805,-185.354"/>
<polygon fill="midnightblue" stroke="midnightblue" points="327.965,-188.854 337.971,-185.371 327.977,-181.854 327.965,-188.854"/>
</g>
<!-- Node15 -->
<g id="node15" class="node"><title>Node15</title>
<polygon fill="white" stroke="#bfbfbf" points="190.934,-233 190.934,-253 253.066,-253 253.066,-233 190.934,-233"/>
<text text-anchor="middle" x="222" y="-239" font-family="Helvetica,sans-Serif" font-size="10.00">type_traits</text>
</g>
<!-- Node14&#45;&gt;Node15 -->
<g id="edge15" class="edge"><title>Node14&#45;&gt;Node15</title>
<path fill="none" stroke="midnightblue" d="M279.603,-290.992C268.008,-281.533 253.06,-269.338 241.297,-259.742"/>
<polygon fill="midnightblue" stroke="midnightblue" points="243.349,-256.9 233.388,-253.29 238.924,-262.324 243.349,-256.9"/>
</g>
<!-- Node14&#45;&gt;Node16 -->
<g id="edge16" class="edge"><title>Node14&#45;&gt;Node16</title>
<path fill="none" stroke="midnightblue" d="M245.163,-292.716C208.71,-283.317 158.954,-270.029 107.219,-254.249"/>
<polygon fill="midnightblue" stroke="midnightblue" points="108.126,-250.867 97.5388,-251.274 106.069,-257.558 108.126,-250.867"/>
</g>
<!-- Node14&#45;&gt;Node17 -->
<g id="edge17" class="edge"><title>Node14&#45;&gt;Node17</title>
<path fill="none" stroke="midnightblue" d="M334.553,-290.992C360.789,-280.219 395.665,-265.899 419.995,-255.91"/>
<polygon fill="midnightblue" stroke="midnightblue" points="421.479,-259.084 429.4,-252.048 418.82,-252.608 421.479,-259.084"/>
</g>
<!-- Node18 -->
<g id="node18" class="node"><title>Node18</title>
<polygon fill="white" stroke="#bfbfbf" points="270.828,-233 270.828,-253 325.172,-253 325.172,-233 270.828,-233"/>
<text text-anchor="middle" x="298" y="-239" font-family="Helvetica,sans-Serif" font-size="10.00">iostream</text>
</g>
<!-- Node14&#45;&gt;Node18 -->
<g id="edge18" class="edge"><title>Node14&#45;&gt;Node18</title>
<path fill="none" stroke="midnightblue" d="M298,-290.992C298,-282.726 298,-272.373 298,-263.489"/>
<polygon fill="midnightblue" stroke="midnightblue" points="301.5,-263.29 298,-253.29 294.5,-263.29 301.5,-263.29"/>
</g>
<!-- Node19 -->
<g id="node19" class="node"><title>Node19</title>
<polygon fill="white" stroke="#bfbfbf" points="115.436,-233 115.436,-253 172.564,-253 172.564,-233 115.436,-233"/>
<text text-anchor="middle" x="144" y="-239" font-family="Helvetica,sans-Serif" font-size="10.00">algorithm</text>
</g>
<!-- Node14&#45;&gt;Node19 -->
<g id="edge19" class="edge"><title>Node14&#45;&gt;Node19</title>
<path fill="none" stroke="midnightblue" d="M260.721,-290.992C234.788,-280.551 200.577,-266.778 175.904,-256.845"/>
<polygon fill="midnightblue" stroke="midnightblue" points="177.209,-253.597 166.625,-253.109 174.594,-260.09 177.209,-253.597"/>
</g>
<!-- Node20 -->
<g id="node20" class="node"><title>Node20</title>
<g id="a_node20"><a xlink:href="____strhash_8h.xhtml" target="_top" xlink:title="__strhash.h">
<polygon fill="white" stroke="black" points="342.872,-233 342.872,-253 411.128,-253 411.128,-233 342.872,-233"/>
<text text-anchor="middle" x="377" y="-239" font-family="Helvetica,sans-Serif" font-size="10.00">__strhash.h</text>
</a>
</g>
</g>
<!-- Node14&#45;&gt;Node20 -->
<g id="edge20" class="edge"><title>Node14&#45;&gt;Node20</title>
<path fill="none" stroke="midnightblue" d="M317.124,-290.992C329.176,-281.533 344.714,-269.338 356.941,-259.742"/>
<polygon fill="midnightblue" stroke="midnightblue" points="359.456,-262.218 365.162,-253.29 355.135,-256.711 359.456,-262.218"/>
</g>
<!-- Node20&#45;&gt;Node3 -->
<g id="edge21" class="edge"><title>Node20&#45;&gt;Node3</title>
<path fill="none" stroke="midnightblue" d="M377,-232.753C377,-225.25 377,-214.424 377,-205.078"/>
<polygon fill="midnightblue" stroke="midnightblue" points="380.5,-205.075 377,-195.075 373.5,-205.075 380.5,-205.075"/>
</g>
<!-- Node20&#45;&gt;Node10 -->
<g id="edge22" class="edge"><title>Node20&#45;&gt;Node10</title>
<path fill="none" stroke="midnightblue" d="M411.184,-234.154C457.032,-223.632 538.077,-205.031 584.888,-194.288"/>
<polygon fill="midnightblue" stroke="midnightblue" points="585.928,-197.64 594.891,-191.992 584.362,-190.818 585.928,-197.64"/>
</g>
</g>
</svg>
