<?xml version="1.0" encoding="UTF-8" standalone="no"?>
<!DOCTYPE svg PUBLIC "-//W3C//DTD SVG 1.1//EN"
 "http://www.w3.org/Graphics/SVG/1.1/DTD/svg11.dtd">
<!-- Generated by graphviz version 2.30.0 (20130114.0426)
 -->
<!-- Title: /Users/rkwright/Documents/github/readium&#45;sdk&#45;D/ePub3/xml/tree/xpath.h Pages: 1 -->
<svg width="295pt" height="112pt"
 viewBox="0.00 0.00 295.00 112.00" xmlns="http://www.w3.org/2000/svg" xmlns:xlink="http://www.w3.org/1999/xlink">
<g id="graph0" class="graph" transform="scale(1 1) rotate(0) translate(4 108)">
<title>/Users/rkwright/Documents/github/readium&#45;sdk&#45;D/ePub3/xml/tree/xpath.h</title>
<polygon fill="white" stroke="white" points="-4,5 -4,-108 292,-108 292,5 -4,5"/>
<!-- Node1 -->
<g id="node1" class="node"><title>Node1</title>
<polygon fill="#bfbfbf" stroke="black" points="88.9658,-59 88.9658,-103 235.034,-103 235.034,-59 88.9658,-59"/>
<text text-anchor="start" x="96.9658" y="-89" font-family="Helvetica,sans-Serif" font-size="10.00">/Users/rkwright/Documents</text>
<text text-anchor="start" x="96.9658" y="-77" font-family="Helvetica,sans-Serif" font-size="10.00">/github/readium&#45;sdk&#45;D/ePub3</text>
<text text-anchor="middle" x="162" y="-65" font-family="Helvetica,sans-Serif" font-size="10.00">/xml/tree/xpath.h</text>
</g>
<!-- Node2 -->
<g id="node2" class="node"><title>Node2</title>
<polygon fill="white" stroke="#bfbfbf" points="-0.0244141,-1 -0.0244141,-21 96.0244,-21 96.0244,-1 -0.0244141,-1"/>
<text text-anchor="middle" x="48" y="-7" font-family="Helvetica,sans-Serif" font-size="10.00">ePub3/xml/base.h</text>
</g>
<!-- Node1&#45;&gt;Node2 -->
<g id="edge1" class="edge"><title>Node1&#45;&gt;Node2</title>
<path fill="none" stroke="midnightblue" d="M126.555,-58.8571C108.743,-48.2324 87.6374,-35.6434 71.7908,-26.191"/>
<polygon fill="midnightblue" stroke="midnightblue" points="73.514,-23.1435 63.1328,-21.0266 69.928,-29.1553 73.514,-23.1435"/>
</g>
<!-- Node3 -->
<g id="node3" class="node"><title>Node3</title>
<polygon fill="white" stroke="#bfbfbf" points="113.695,-1 113.695,-21 210.305,-21 210.305,-1 113.695,-1"/>
<text text-anchor="middle" x="162" y="-7" font-family="Helvetica,sans-Serif" font-size="10.00">ePub3/xml/node.h</text>
</g>
<!-- Node1&#45;&gt;Node3 -->
<g id="edge2" class="edge"><title>Node1&#45;&gt;Node3</title>
<path fill="none" stroke="midnightblue" d="M162,-58.8571C162,-50.074 162,-39.9484 162,-31.3622"/>
<polygon fill="midnightblue" stroke="midnightblue" points="165.5,-31.2039 162,-21.2039 158.5,-31.204 165.5,-31.2039"/>
</g>
<!-- Node4 -->
<g id="node4" class="node"><title>Node4</title>
<polygon fill="white" stroke="#bfbfbf" points="228.596,-1 228.596,-21 287.404,-21 287.404,-1 228.596,-1"/>
<text text-anchor="middle" x="258" y="-7" font-family="Helvetica,sans-Serif" font-size="10.00">functional</text>
</g>
<!-- Node1&#45;&gt;Node4 -->
<g id="edge3" class="edge"><title>Node1&#45;&gt;Node4</title>
<path fill="none" stroke="midnightblue" d="M191.849,-58.8571C206.338,-48.5937 223.416,-36.4972 236.589,-27.1658"/>
<polygon fill="midnightblue" stroke="midnightblue" points="238.869,-29.8402 245.006,-21.2039 234.823,-24.1281 238.869,-29.8402"/>
</g>
</g>
</svg>
