<?xml version="1.0" encoding="UTF-8" standalone="no"?>
<!DOCTYPE svg PUBLIC "-//W3C//DTD SVG 1.1//EN"
 "http://www.w3.org/Graphics/SVG/1.1/DTD/svg11.dtd">
<!-- Generated by graphviz version 2.30.0 (20130114.0426)
 -->
<!-- Title: /Users/rkwright/Documents/github/readium&#45;sdk&#45;D/ePub3/xml/tree/xpath.cpp Pages: 1 -->
<svg width="1028pt" height="170pt"
 viewBox="0.00 0.00 1028.00 170.00" xmlns="http://www.w3.org/2000/svg" xmlns:xlink="http://www.w3.org/1999/xlink">
<g id="graph0" class="graph" transform="scale(1 1) rotate(0) translate(4 166)">
<title>/Users/rkwright/Documents/github/readium&#45;sdk&#45;D/ePub3/xml/tree/xpath.cpp</title>
<polygon fill="white" stroke="white" points="-4,5 -4,-166 1025,-166 1025,5 -4,5"/>
<!-- Node1 -->
<g id="node1" class="node"><title>Node1</title>
<polygon fill="#bfbfbf" stroke="black" points="714.966,-117 714.966,-161 861.034,-161 861.034,-117 714.966,-117"/>
<text text-anchor="start" x="722.966" y="-147" font-family="Helvetica,sans-Serif" font-size="10.00">/Users/rkwright/Documents</text>
<text text-anchor="start" x="722.966" y="-135" font-family="Helvetica,sans-Serif" font-size="10.00">/github/readium&#45;sdk&#45;D/ePub3</text>
<text text-anchor="middle" x="788" y="-123" font-family="Helvetica,sans-Serif" font-size="10.00">/xml/tree/xpath.cpp</text>
</g>
<!-- Node2 -->
<g id="node2" class="node"><title>Node2</title>
<g id="a_node2"><a xlink:href="xpath_8h.xhtml" target="_top" xlink:title="xpath.h">
<polygon fill="white" stroke="black" points="720.599,-59 720.599,-79 769.401,-79 769.401,-59 720.599,-59"/>
<text text-anchor="middle" x="745" y="-65" font-family="Helvetica,sans-Serif" font-size="10.00">xpath.h</text>
</a>
</g>
</g>
<!-- Node1&#45;&gt;Node2 -->
<g id="edge1" class="edge"><title>Node1&#45;&gt;Node2</title>
<path fill="none" stroke="midnightblue" d="M774.63,-116.857C768.764,-107.581 761.951,-96.8065 756.338,-87.9302"/>
<polygon fill="midnightblue" stroke="midnightblue" points="759.123,-85.7853 750.82,-79.2039 753.207,-89.5265 759.123,-85.7853"/>
</g>
<!-- Node6 -->
<g id="node6" class="node"><title>Node6</title>
<g id="a_node6"><a xlink:href="node_8h.xhtml" target="_top" xlink:title="node.h">
<polygon fill="white" stroke="black" points="426.707,-59 426.707,-79 473.293,-79 473.293,-59 426.707,-59"/>
<text text-anchor="middle" x="450" y="-65" font-family="Helvetica,sans-Serif" font-size="10.00">node.h</text>
</a>
</g>
</g>
<!-- Node1&#45;&gt;Node6 -->
<g id="edge5" class="edge"><title>Node1&#45;&gt;Node6</title>
<path fill="none" stroke="midnightblue" d="M714.659,-123.245C642.942,-108.817 536.957,-87.4942 483.474,-76.7344"/>
<polygon fill="midnightblue" stroke="midnightblue" points="483.997,-73.2696 473.503,-74.7285 482.617,-80.1321 483.997,-73.2696"/>
</g>
<!-- Node14 -->
<g id="node14" class="node"><title>Node14</title>
<g id="a_node14"><a xlink:href="document_8h.xhtml" target="_top" xlink:title="document.h">
<polygon fill="white" stroke="black" points="796.872,-59 796.872,-79 865.128,-79 865.128,-59 796.872,-59"/>
<text text-anchor="middle" x="831" y="-65" font-family="Helvetica,sans-Serif" font-size="10.00">document.h</text>
</a>
</g>
</g>
<!-- Node1&#45;&gt;Node14 -->
<g id="edge14" class="edge"><title>Node1&#45;&gt;Node14</title>
<path fill="none" stroke="midnightblue" d="M801.37,-116.857C807.236,-107.581 814.049,-96.8065 819.662,-87.9302"/>
<polygon fill="midnightblue" stroke="midnightblue" points="822.793,-89.5265 825.18,-79.2039 816.877,-85.7853 822.793,-89.5265"/>
</g>
<!-- Node16 -->
<g id="node16" class="node"><title>Node16</title>
<polygon fill="white" stroke="#bfbfbf" points="883.254,-59 883.254,-79 998.746,-79 998.746,-59 883.254,-59"/>
<text text-anchor="middle" x="941" y="-65" font-family="Helvetica,sans-Serif" font-size="10.00">libxml/xpathInternals.h</text>
</g>
<!-- Node1&#45;&gt;Node16 -->
<g id="edge17" class="edge"><title>Node1&#45;&gt;Node16</title>
<path fill="none" stroke="midnightblue" d="M835.571,-116.857C860.371,-105.835 889.926,-92.6994 911.425,-83.1443"/>
<polygon fill="midnightblue" stroke="midnightblue" points="912.974,-86.2864 920.69,-79.0266 910.131,-79.8897 912.974,-86.2864"/>
</g>
<!-- Node3 -->
<g id="node3" class="node"><title>Node3</title>
<polygon fill="white" stroke="#bfbfbf" points="596.976,-1 596.976,-21 693.024,-21 693.024,-1 596.976,-1"/>
<text text-anchor="middle" x="645" y="-7" font-family="Helvetica,sans-Serif" font-size="10.00">ePub3/xml/base.h</text>
</g>
<!-- Node2&#45;&gt;Node3 -->
<g id="edge2" class="edge"><title>Node2&#45;&gt;Node3</title>
<path fill="none" stroke="midnightblue" d="M728.487,-58.7527C712.614,-49.8641 688.409,-36.3092 670.142,-26.0793"/>
<polygon fill="midnightblue" stroke="midnightblue" points="671.641,-22.9075 661.206,-21.0752 668.221,-29.015 671.641,-22.9075"/>
</g>
<!-- Node4 -->
<g id="node4" class="node"><title>Node4</title>
<polygon fill="white" stroke="#bfbfbf" points="787.695,-1 787.695,-21 884.305,-21 884.305,-1 787.695,-1"/>
<text text-anchor="middle" x="836" y="-7" font-family="Helvetica,sans-Serif" font-size="10.00">ePub3/xml/node.h</text>
</g>
<!-- Node2&#45;&gt;Node4 -->
<g id="edge3" class="edge"><title>Node2&#45;&gt;Node4</title>
<path fill="none" stroke="midnightblue" d="M760.027,-58.7527C774.338,-49.9457 796.094,-36.5575 812.662,-26.3617"/>
<polygon fill="midnightblue" stroke="midnightblue" points="814.571,-29.297 821.253,-21.0752 810.902,-23.3354 814.571,-29.297"/>
</g>
<!-- Node5 -->
<g id="node5" class="node"><title>Node5</title>
<polygon fill="white" stroke="#bfbfbf" points="710.596,-1 710.596,-21 769.404,-21 769.404,-1 710.596,-1"/>
<text text-anchor="middle" x="740" y="-7" font-family="Helvetica,sans-Serif" font-size="10.00">functional</text>
</g>
<!-- Node2&#45;&gt;Node5 -->
<g id="edge4" class="edge"><title>Node2&#45;&gt;Node5</title>
<path fill="none" stroke="midnightblue" d="M744.174,-58.7527C743.505,-51.2504 742.538,-40.4238 741.703,-31.0781"/>
<polygon fill="midnightblue" stroke="midnightblue" points="745.186,-30.7243 740.81,-21.0752 738.214,-31.3469 745.186,-30.7243"/>
</g>
<!-- Node6&#45;&gt;Node3 -->
<g id="edge6" class="edge"><title>Node6&#45;&gt;Node3</title>
<path fill="none" stroke="midnightblue" d="M473.522,-61.2451C505.739,-51.993 564.099,-35.2332 603.691,-23.8631"/>
<polygon fill="midnightblue" stroke="midnightblue" points="604.68,-27.2207 613.325,-21.0964 602.747,-20.4927 604.68,-27.2207"/>
</g>
<!-- Node7 -->
<g id="node7" class="node"><title>Node7</title>
<polygon fill="white" stroke="#bfbfbf" points="-0.462891,-1 -0.462891,-21 84.4629,-21 84.4629,-1 -0.462891,-1"/>
<text text-anchor="middle" x="42" y="-7" font-family="Helvetica,sans-Serif" font-size="10.00">ePub3/xml/ns.h</text>
</g>
<!-- Node6&#45;&gt;Node7 -->
<g id="edge7" class="edge"><title>Node6&#45;&gt;Node7</title>
<path fill="none" stroke="midnightblue" d="M426.603,-65.481C371.02,-59.3899 226.498,-42.9257 94.795,-22.0407"/>
<polygon fill="midnightblue" stroke="midnightblue" points="94.9566,-18.5221 84.5295,-20.3995 93.8515,-25.4344 94.9566,-18.5221"/>
</g>
<!-- Node8 -->
<g id="node8" class="node"><title>Node8</title>
<polygon fill="white" stroke="#bfbfbf" points="102.815,-1 102.815,-21 217.185,-21 217.185,-1 102.815,-1"/>
<text text-anchor="middle" x="160" y="-7" font-family="Helvetica,sans-Serif" font-size="10.00">ePub3/xml/xmlstring.h</text>
</g>
<!-- Node6&#45;&gt;Node8 -->
<g id="edge8" class="edge"><title>Node6&#45;&gt;Node8</title>
<path fill="none" stroke="midnightblue" d="M426.268,-63.4173C380.813,-54.6397 280.334,-35.2368 216.633,-22.9361"/>
<polygon fill="midnightblue" stroke="midnightblue" points="217.222,-19.4851 206.739,-21.0256 215.894,-26.3582 217.222,-19.4851"/>
</g>
<!-- Node9 -->
<g id="node9" class="node"><title>Node9</title>
<polygon fill="white" stroke="#bfbfbf" points="235.079,-1 235.079,-21 358.921,-21 358.921,-1 235.079,-1"/>
<text text-anchor="middle" x="297" y="-7" font-family="Helvetica,sans-Serif" font-size="10.00">ePub3/xml/node_traits.h</text>
</g>
<!-- Node6&#45;&gt;Node9 -->
<g id="edge9" class="edge"><title>Node6&#45;&gt;Node9</title>
<path fill="none" stroke="midnightblue" d="M426.429,-59.3727C401.01,-50.069 360.298,-35.168 331.326,-24.5637"/>
<polygon fill="midnightblue" stroke="midnightblue" points="332.206,-21.1587 321.612,-21.0083 329.8,-27.7323 332.206,-21.1587"/>
</g>
<!-- Node10 -->
<g id="node10" class="node"><title>Node10</title>
<polygon fill="white" stroke="#bfbfbf" points="376.773,-1 376.773,-21 417.227,-21 417.227,-1 376.773,-1"/>
<text text-anchor="middle" x="397" y="-7" font-family="Helvetica,sans-Serif" font-size="10.00">string</text>
</g>
<!-- Node6&#45;&gt;Node10 -->
<g id="edge10" class="edge"><title>Node6&#45;&gt;Node10</title>
<path fill="none" stroke="midnightblue" d="M441.248,-58.7527C433.453,-50.5165 421.866,-38.2738 412.505,-28.3824"/>
<polygon fill="midnightblue" stroke="midnightblue" points="415.005,-25.9323 405.589,-21.0752 409.921,-30.744 415.005,-25.9323"/>
</g>
<!-- Node11 -->
<g id="node11" class="node"><title>Node11</title>
<polygon fill="white" stroke="#bfbfbf" points="435.5,-1 435.5,-21 464.5,-21 464.5,-1 435.5,-1"/>
<text text-anchor="middle" x="449.611" y="-7" font-family="Helvetica,sans-Serif" font-size="10.00">list</text>
</g>
<!-- Node6&#45;&gt;Node11 -->
<g id="edge11" class="edge"><title>Node6&#45;&gt;Node11</title>
<path fill="none" stroke="midnightblue" d="M450,-58.7527C450,-51.2504 450,-40.4238 450,-31.0781"/>
<polygon fill="midnightblue" stroke="midnightblue" points="453.5,-31.0752 450,-21.0752 446.5,-31.0752 453.5,-31.0752"/>
</g>
<!-- Node12 -->
<g id="node12" class="node"><title>Node12</title>
<polygon fill="white" stroke="#bfbfbf" points="482.273,-1 482.273,-21 517.727,-21 517.727,-1 482.273,-1"/>
<text text-anchor="middle" x="500" y="-7" font-family="Helvetica,sans-Serif" font-size="10.00">map</text>
</g>
<!-- Node6&#45;&gt;Node12 -->
<g id="edge12" class="edge"><title>Node6&#45;&gt;Node12</title>
<path fill="none" stroke="midnightblue" d="M458.256,-58.7527C465.537,-50.598 476.325,-38.5158 485.11,-28.6769"/>
<polygon fill="midnightblue" stroke="midnightblue" points="487.848,-30.8657 491.897,-21.0752 482.626,-26.2035 487.848,-30.8657"/>
</g>
<!-- Node13 -->
<g id="node13" class="node"><title>Node13</title>
<polygon fill="white" stroke="#bfbfbf" points="535.384,-1 535.384,-21 578.616,-21 578.616,-1 535.384,-1"/>
<text text-anchor="middle" x="557" y="-7" font-family="Helvetica,sans-Serif" font-size="10.00">vector</text>
</g>
<!-- Node6&#45;&gt;Node13 -->
<g id="edge13" class="edge"><title>Node6&#45;&gt;Node13</title>
<path fill="none" stroke="midnightblue" d="M467.669,-58.7527C484.808,-49.7826 511.028,-36.0601 530.635,-25.7986"/>
<polygon fill="midnightblue" stroke="midnightblue" points="532.423,-28.8132 539.66,-21.0752 529.177,-22.6112 532.423,-28.8132"/>
</g>
<!-- Node14&#45;&gt;Node4 -->
<g id="edge15" class="edge"><title>Node14&#45;&gt;Node4</title>
<path fill="none" stroke="midnightblue" d="M831.826,-58.7527C832.495,-51.2504 833.462,-40.4238 834.297,-31.0781"/>
<polygon fill="midnightblue" stroke="midnightblue" points="837.786,-31.3469 835.19,-21.0752 830.814,-30.7243 837.786,-31.3469"/>
</g>
<!-- Node15 -->
<g id="node15" class="node"><title>Node15</title>
<polygon fill="white" stroke="#bfbfbf" points="901.86,-1 901.86,-21 1020.14,-21 1020.14,-1 901.86,-1"/>
<text text-anchor="middle" x="961" y="-7" font-family="Helvetica,sans-Serif" font-size="10.00">ePub3/xml/document.h</text>
</g>
<!-- Node14&#45;&gt;Node15 -->
<g id="edge16" class="edge"><title>Node14&#45;&gt;Node15</title>
<path fill="none" stroke="midnightblue" d="M852.176,-58.878C873.423,-49.7255 906.364,-35.5357 930.44,-25.1643"/>
<polygon fill="midnightblue" stroke="midnightblue" points="932.034,-28.2888 939.833,-21.1181 929.264,-21.8599 932.034,-28.2888"/>
</g>
</g>
</svg>
