<?xml version="1.0" encoding="UTF-8" standalone="no"?>
<!DOCTYPE svg PUBLIC "-//W3C//DTD SVG 1.1//EN"
 "http://www.w3.org/Graphics/SVG/1.1/DTD/svg11.dtd">
<!-- Generated by graphviz version 2.30.0 (20130114.0426)
 -->
<!-- Title: /Users/rkwright/Documents/github/readium&#45;sdk&#45;D/ePub3/xml/tree/xpath_win.cpp Pages: 1 -->
<svg width="891pt" height="170pt"
 viewBox="0.00 0.00 891.00 170.00" xmlns="http://www.w3.org/2000/svg" xmlns:xlink="http://www.w3.org/1999/xlink">
<g id="graph0" class="graph" transform="scale(1 1) rotate(0) translate(4 166)">
<title>/Users/rkwright/Documents/github/readium&#45;sdk&#45;D/ePub3/xml/tree/xpath_win.cpp</title>
<polygon fill="white" stroke="white" points="-4,5 -4,-166 888,-166 888,5 -4,5"/>
<!-- Node1 -->
<g id="node1" class="node"><title>Node1</title>
<polygon fill="#bfbfbf" stroke="black" points="358.966,-117 358.966,-161 505.034,-161 505.034,-117 358.966,-117"/>
<text text-anchor="start" x="366.966" y="-147" font-family="Helvetica,sans-Serif" font-size="10.00">/Users/rkwright/Documents</text>
<text text-anchor="start" x="366.966" y="-135" font-family="Helvetica,sans-Serif" font-size="10.00">/github/readium&#45;sdk&#45;D/ePub3</text>
<text text-anchor="middle" x="432" y="-123" font-family="Helvetica,sans-Serif" font-size="10.00">/xml/tree/xpath_win.cpp</text>
</g>
<!-- Node2 -->
<g id="node2" class="node"><title>Node2</title>
<g id="a_node2"><a xlink:href="xpath_8h.xhtml" target="_top" xlink:title="xpath.h">
<polygon fill="white" stroke="black" points="167.599,-59 167.599,-79 216.401,-79 216.401,-59 167.599,-59"/>
<text text-anchor="middle" x="192" y="-65" font-family="Helvetica,sans-Serif" font-size="10.00">xpath.h</text>
</a>
</g>
</g>
<!-- Node1&#45;&gt;Node2 -->
<g id="edge1" class="edge"><title>Node1&#45;&gt;Node2</title>
<path fill="none" stroke="midnightblue" d="M358.688,-117.228C314.714,-104.769 260.829,-89.5016 226.454,-79.762"/>
<polygon fill="midnightblue" stroke="midnightblue" points="227.02,-76.2846 216.445,-76.926 225.112,-83.0195 227.02,-76.2846"/>
</g>
<!-- Node6 -->
<g id="node6" class="node"><title>Node6</title>
<g id="a_node6"><a xlink:href="node_8h.xhtml" target="_top" xlink:title="node.h">
<polygon fill="white" stroke="black" points="509.707,-59 509.707,-79 556.293,-79 556.293,-59 509.707,-59"/>
<text text-anchor="middle" x="533" y="-65" font-family="Helvetica,sans-Serif" font-size="10.00">node.h</text>
</a>
</g>
</g>
<!-- Node1&#45;&gt;Node6 -->
<g id="edge5" class="edge"><title>Node1&#45;&gt;Node6</title>
<path fill="none" stroke="midnightblue" d="M463.403,-116.857C478.889,-106.431 497.185,-94.1133 511.13,-84.7243"/>
<polygon fill="midnightblue" stroke="midnightblue" points="513.252,-87.5148 519.593,-79.0266 509.343,-81.7082 513.252,-87.5148"/>
</g>
<!-- Node14 -->
<g id="node14" class="node"><title>Node14</title>
<g id="a_node14"><a xlink:href="element_8h.xhtml" target="_top" xlink:title="element.h">
<polygon fill="white" stroke="black" points="255.042,-59 255.042,-79 314.958,-79 314.958,-59 255.042,-59"/>
<text text-anchor="middle" x="285" y="-65" font-family="Helvetica,sans-Serif" font-size="10.00">element.h</text>
</a>
</g>
</g>
<!-- Node1&#45;&gt;Node14 -->
<g id="edge14" class="edge"><title>Node1&#45;&gt;Node14</title>
<path fill="none" stroke="midnightblue" d="M386.294,-116.857C362.575,-105.885 334.326,-92.8177 313.695,-83.2737"/>
<polygon fill="midnightblue" stroke="midnightblue" points="315.059,-80.0485 304.513,-79.0266 312.12,-86.4016 315.059,-80.0485"/>
</g>
<!-- Node15 -->
<g id="node15" class="node"><title>Node15</title>
<polygon fill="white" stroke="#bfbfbf" points="574.219,-59 574.219,-79 625.781,-79 625.781,-59 574.219,-59"/>
<text text-anchor="middle" x="600" y="-65" font-family="Helvetica,sans-Serif" font-size="10.00">sstream</text>
</g>
<!-- Node1&#45;&gt;Node15 -->
<g id="edge18" class="edge"><title>Node1&#45;&gt;Node15</title>
<path fill="none" stroke="midnightblue" d="M484.235,-116.857C511.711,-105.736 544.504,-92.4625 568.162,-82.887"/>
<polygon fill="midnightblue" stroke="midnightblue" points="569.743,-86.0229 577.699,-79.0266 567.116,-79.5343 569.743,-86.0229"/>
</g>
<!-- Node3 -->
<g id="node3" class="node"><title>Node3</title>
<polygon fill="white" stroke="#bfbfbf" points="190.976,-1 190.976,-21 287.024,-21 287.024,-1 190.976,-1"/>
<text text-anchor="middle" x="239" y="-7" font-family="Helvetica,sans-Serif" font-size="10.00">ePub3/xml/base.h</text>
</g>
<!-- Node2&#45;&gt;Node3 -->
<g id="edge2" class="edge"><title>Node2&#45;&gt;Node3</title>
<path fill="none" stroke="midnightblue" d="M199.761,-58.7527C206.537,-50.6796 216.543,-38.7571 224.755,-28.9727"/>
<polygon fill="midnightblue" stroke="midnightblue" points="227.635,-30.985 231.383,-21.0752 222.274,-26.4849 227.635,-30.985"/>
</g>
<!-- Node4 -->
<g id="node4" class="node"><title>Node4</title>
<polygon fill="white" stroke="#bfbfbf" points="76.6948,-1 76.6948,-21 173.305,-21 173.305,-1 76.6948,-1"/>
<text text-anchor="middle" x="125" y="-7" font-family="Helvetica,sans-Serif" font-size="10.00">ePub3/xml/node.h</text>
</g>
<!-- Node2&#45;&gt;Node4 -->
<g id="edge3" class="edge"><title>Node2&#45;&gt;Node4</title>
<path fill="none" stroke="midnightblue" d="M180.936,-58.7527C170.79,-50.2718 155.56,-37.543 143.553,-27.5073"/>
<polygon fill="midnightblue" stroke="midnightblue" points="145.775,-24.8028 135.858,-21.0752 141.286,-30.1738 145.775,-24.8028"/>
</g>
<!-- Node5 -->
<g id="node5" class="node"><title>Node5</title>
<polygon fill="white" stroke="#bfbfbf" points="-0.403809,-1 -0.403809,-21 58.4038,-21 58.4038,-1 -0.403809,-1"/>
<text text-anchor="middle" x="29" y="-7" font-family="Helvetica,sans-Serif" font-size="10.00">functional</text>
</g>
<!-- Node2&#45;&gt;Node5 -->
<g id="edge4" class="edge"><title>Node2&#45;&gt;Node5</title>
<path fill="none" stroke="midnightblue" d="M167.597,-59.6162C140.43,-50.2828 96.2533,-35.1054 65.0887,-24.3986"/>
<polygon fill="midnightblue" stroke="midnightblue" points="66.0603,-21.0316 55.4656,-21.0925 63.7858,-27.6518 66.0603,-21.0316"/>
</g>
<!-- Node6&#45;&gt;Node3 -->
<g id="edge6" class="edge"><title>Node6&#45;&gt;Node3</title>
<path fill="none" stroke="midnightblue" d="M509.438,-63.5119C463.587,-54.7784 361.191,-35.2745 296.38,-22.9296"/>
<polygon fill="midnightblue" stroke="midnightblue" points="296.794,-19.4456 286.316,-21.0125 295.484,-26.3219 296.794,-19.4456"/>
</g>
<!-- Node7 -->
<g id="node7" class="node"><title>Node7</title>
<polygon fill="white" stroke="#bfbfbf" points="304.537,-1 304.537,-21 389.463,-21 389.463,-1 304.537,-1"/>
<text text-anchor="middle" x="347" y="-7" font-family="Helvetica,sans-Serif" font-size="10.00">ePub3/xml/ns.h</text>
</g>
<!-- Node6&#45;&gt;Node7 -->
<g id="edge7" class="edge"><title>Node6&#45;&gt;Node7</title>
<path fill="none" stroke="midnightblue" d="M509.443,-60.9076C478.705,-51.6533 424.455,-35.3196 387.164,-24.0924"/>
<polygon fill="midnightblue" stroke="midnightblue" points="387.714,-20.6029 377.13,-21.0713 385.696,-27.3057 387.714,-20.6029"/>
</g>
<!-- Node8 -->
<g id="node8" class="node"><title>Node8</title>
<polygon fill="white" stroke="#bfbfbf" points="407.815,-1 407.815,-21 522.185,-21 522.185,-1 407.815,-1"/>
<text text-anchor="middle" x="465" y="-7" font-family="Helvetica,sans-Serif" font-size="10.00">ePub3/xml/xmlstring.h</text>
</g>
<!-- Node6&#45;&gt;Node8 -->
<g id="edge8" class="edge"><title>Node6&#45;&gt;Node8</title>
<path fill="none" stroke="midnightblue" d="M521.771,-58.7527C511.473,-50.2718 496.016,-37.543 483.83,-27.5073"/>
<polygon fill="midnightblue" stroke="midnightblue" points="485.964,-24.7305 476.02,-21.0752 481.514,-30.1341 485.964,-24.7305"/>
</g>
<!-- Node9 -->
<g id="node9" class="node"><title>Node9</title>
<polygon fill="white" stroke="#bfbfbf" points="540.079,-1 540.079,-21 663.921,-21 663.921,-1 540.079,-1"/>
<text text-anchor="middle" x="602" y="-7" font-family="Helvetica,sans-Serif" font-size="10.00">ePub3/xml/node_traits.h</text>
</g>
<!-- Node6&#45;&gt;Node9 -->
<g id="edge9" class="edge"><title>Node6&#45;&gt;Node9</title>
<path fill="none" stroke="midnightblue" d="M544.394,-58.7527C554.844,-50.2718 570.527,-37.543 582.893,-27.5073"/>
<polygon fill="midnightblue" stroke="midnightblue" points="585.259,-30.0945 590.818,-21.0752 580.848,-24.6593 585.259,-30.0945"/>
</g>
<!-- Node10 -->
<g id="node10" class="node"><title>Node10</title>
<polygon fill="white" stroke="#bfbfbf" points="681.773,-1 681.773,-21 722.227,-21 722.227,-1 681.773,-1"/>
<text text-anchor="middle" x="702" y="-7" font-family="Helvetica,sans-Serif" font-size="10.00">string</text>
</g>
<!-- Node6&#45;&gt;Node10 -->
<g id="edge10" class="edge"><title>Node6&#45;&gt;Node10</title>
<path fill="none" stroke="midnightblue" d="M556.616,-60.2019C584.275,-51.0646 631.473,-35.4604 672,-22 672.098,-21.9676 672.196,-21.935 672.294,-21.9025"/>
<polygon fill="midnightblue" stroke="midnightblue" points="673.285,-25.2614 681.669,-18.7837 671.075,-18.6193 673.285,-25.2614"/>
</g>
<!-- Node11 -->
<g id="node11" class="node"><title>Node11</title>
<polygon fill="white" stroke="#bfbfbf" points="740.5,-1 740.5,-21 769.5,-21 769.5,-1 740.5,-1"/>
<text text-anchor="middle" x="754.611" y="-7" font-family="Helvetica,sans-Serif" font-size="10.00">list</text>
</g>
<!-- Node6&#45;&gt;Node11 -->
<g id="edge11" class="edge"><title>Node6&#45;&gt;Node11</title>
<path fill="none" stroke="midnightblue" d="M556.349,-60.4391C559.251,-59.5775 562.186,-58.7432 565,-58 637.99,-38.722 658.973,-44.6106 731,-22 731.097,-21.9696 731.194,-21.9389 731.291,-21.908"/>
<polygon fill="midnightblue" stroke="midnightblue" points="732.244,-25.2862 740.433,-18.5633 729.839,-18.7124 732.244,-25.2862"/>
</g>
<!-- Node12 -->
<g id="node12" class="node"><title>Node12</title>
<polygon fill="white" stroke="#bfbfbf" points="787.273,-1 787.273,-21 822.727,-21 822.727,-1 787.273,-1"/>
<text text-anchor="middle" x="805" y="-7" font-family="Helvetica,sans-Serif" font-size="10.00">map</text>
</g>
<!-- Node6&#45;&gt;Node12 -->
<g id="edge12" class="edge"><title>Node6&#45;&gt;Node12</title>
<path fill="none" stroke="midnightblue" d="M556.317,-60.3126C559.225,-59.4728 562.17,-58.6781 565,-58 655.267,-36.3729 683.386,-46.0777 777.235,-21.7734"/>
<polygon fill="midnightblue" stroke="midnightblue" points="778.374,-25.0926 787.142,-19.1463 776.579,-18.3264 778.374,-25.0926"/>
</g>
<!-- Node13 -->
<g id="node13" class="node"><title>Node13</title>
<polygon fill="white" stroke="#bfbfbf" points="840.384,-1 840.384,-21 883.616,-21 883.616,-1 840.384,-1"/>
<text text-anchor="middle" x="862" y="-7" font-family="Helvetica,sans-Serif" font-size="10.00">vector</text>
</g>
<!-- Node6&#45;&gt;Node13 -->
<g id="edge13" class="edge"><title>Node6&#45;&gt;Node13</title>
<path fill="none" stroke="midnightblue" d="M556.296,-60.222C559.207,-59.3977 562.159,-58.6314 565,-58 678.274,-32.824 712.783,-47.5568 830.03,-21.8551"/>
<polygon fill="midnightblue" stroke="midnightblue" points="831.128,-25.1958 840.118,-19.5898 829.595,-18.3659 831.128,-25.1958"/>
</g>
<!-- Node14&#45;&gt;Node3 -->
<g id="edge15" class="edge"><title>Node14&#45;&gt;Node3</title>
<path fill="none" stroke="midnightblue" d="M277.404,-58.7527C270.773,-50.6796 260.979,-38.7571 252.942,-28.9727"/>
<polygon fill="midnightblue" stroke="midnightblue" points="255.507,-26.5809 246.455,-21.0752 250.098,-31.0241 255.507,-26.5809"/>
</g>
<!-- Node14&#45;&gt;Node4 -->
<g id="edge16" class="edge"><title>Node14&#45;&gt;Node4</title>
<path fill="none" stroke="midnightblue" d="M258.937,-58.878C232.126,-49.4942 190.187,-34.8155 160.388,-24.3857"/>
<polygon fill="midnightblue" stroke="midnightblue" points="161.381,-21.0254 150.787,-21.0253 159.069,-27.6324 161.381,-21.0254"/>
</g>
<!-- Node14&#45;&gt;Node7 -->
<g id="edge17" class="edge"><title>Node14&#45;&gt;Node7</title>
<path fill="none" stroke="midnightblue" d="M295.238,-58.7527C304.537,-50.3534 318.45,-37.7874 329.51,-27.7976"/>
<polygon fill="midnightblue" stroke="midnightblue" points="331.877,-30.3755 336.952,-21.0752 327.185,-25.1807 331.877,-30.3755"/>
</g>
</g>
</svg>
